<svg xmlns="http://www.w3.org/2000/svg" viewBox="0 0 100 100" role="img" aria-label="Afghanistan">
  <title>Afghanistan</title>
  <path d="M92.814,26.721L92.845,26.767L92.857,26.817L92.850,26.872L92.825,26.930L92.783,27.169L92.683,27.197L92.560,27.092L92.447,26.930L92.426,26.908L92.403,26.890L92.280,26.852L92.147,26.860L91.887,26.930L91.725,27.060L91.203,27.380L90.898,27.621L90.748,27.674L90.337,27.625L90.235,27.649L90.146,27.716L90.105,27.821L90.075,28.079L90.014,28.155L89.646,28.273L89.465,28.272L89.280,28.204L89.094,28.158L88.582,27.844L88.389,27.767L88.006,27.698L87.625,27.682L87.622,27.682L87.620,27.682L87.610,27.681L87.177,27.663L86.360,27.798L86.157,27.767L85.963,27.739L85.550,27.794L85.250,27.772L84.939,27.879L84.849,27.890L84.756,27.878L84.574,27.831L84.376,27.811L83.443,27.907L83.342,27.943L83.192,28.043L83.118,28.078L83.032,28.074L82.839,27.997L82.684,28.034L82.533,28.112L82.351,28.162L81.799,28.189L81.277,28.114L80.864,28.142L80.461,28.235L80.158,28.386L79.767,28.707L79.636,28.741L79.350,28.723L79.093,28.806L78.817,28.822L78.265,28.944L77.990,29.058L77.889,29.128L77.865,29.224L77.958,29.369L78.002,29.493L77.893,29.554L77.530,29.604L77.373,29.653L77.299,29.692L77.245,29.756L77.256,29.818L77.282,29.882L77.273,29.950L77.173,30.044L76.916,30.104L76.787,30.175L76.686,30.276L76.389,30.442L76.304,30.511L76.228,30.589L76.147,30.657L76.047,30.694L75.642,30.719L75.513,30.800L75.522,31.038L75.627,31.242L75.646,31.345L75.572,31.429L75.474,31.464L75.374,31.469L75.283,31.433L75.099,31.241L74.739,31.005L74.613,30.954L74.496,30.966L74.436,31.031L74.361,31.264L74.308,31.385L74.258,31.465L74.101,31.616L74.070,31.731L74.135,31.847L74.171,31.946L74.049,32.010L73.898,32.041L73.780,32.083L73.676,32.152L73.199,32.672L73.072,32.769L72.676,32.904L72.644,32.953L72.613,33.114L72.570,33.185L72.511,33.225L72.321,33.314L72.076,33.470L72.043,33.525L72.011,33.685L71.980,33.755L71.778,33.954L71.719,34.070L71.744,34.182L71.750,34.211L71.819,34.273L72.043,34.394L72.131,34.460L72.291,34.629L72.459,34.697L72.635,34.735L72.816,34.811L72.909,34.918L72.936,35.165L73.002,35.279L73.286,35.477L73.375,35.591L73.584,35.960L73.625,36.071L73.632,36.147L73.625,36.212L73.626,36.280L73.654,36.364L73.690,36.417L73.782,36.488L73.823,36.530L73.902,36.662L73.930,36.796L73.894,36.933L73.781,37.075L73.702,37.226L73.761,37.354L73.886,37.454L74.230,37.620L74.332,37.696L74.390,37.808L74.386,37.952L74.344,38.088L74.317,38.231L74.355,38.398L74.390,38.449L74.436,38.515L74.518,38.607L74.571,38.709L74.561,38.856L74.500,38.966L74.195,39.229L74.004,39.475L73.993,39.679L74.105,39.869L74.451,40.262L74.641,40.415L74.668,40.516L74.614,40.663L74.457,40.904L74.025,41.202L73.862,41.402L73.853,41.732L73.887,41.808L73.877,41.879L73.833,41.940L73.765,41.988L73.765,41.988L73.765,41.989L73.715,42.068L73.661,42.243L73.616,42.323L73.556,42.376L73.464,42.413L72.712,42.716L72.491,42.885L72.374,43.117L72.279,43.373L71.951,43.840L71.867,43.924L71.625,44.050L71.186,44.407L71.121,44.495L71.112,44.610L71.159,44.778L71.181,44.934L71.161,45.118L71.094,45.269L70.979,45.324L70.726,45.285L70.594,45.286L70.578,45.293L70.487,45.335L70.414,45.468L70.405,45.634L70.440,45.802L70.500,45.943L70.629,46.138L70.806,46.353L71.001,46.539L71.445,46.787L71.472,46.972L71.289,47.498L71.288,47.634L71.348,47.897L71.366,48.049L71.358,48.230L71.318,48.331L71.144,48.531L71.075,48.681L71.081,48.804L71.103,48.924L71.074,49.065L70.974,49.159L70.668,49.223L70.540,49.268L70.468,49.370L70.395,49.438L70.306,49.467L70.190,49.457L70.022,49.403L69.960,49.421L69.933,49.517L69.822,49.739L69.379,49.824L68.534,49.815L67.696,49.935L67.505,49.929L66.990,49.817L66.485,49.796L66.371,49.763L66.157,49.653L65.802,49.619L64.453,49.144L64.242,49.130L63.910,49.181L63.743,49.239L63.639,49.344L63.625,49.464L63.647,49.577L63.635,49.688L63.524,49.803L63.442,49.912L63.480,50.024L63.663,50.208L63.719,50.306L63.802,50.592L63.857,50.712L64.006,50.931L64.061,51.044L64.105,51.191L64.169,51.336L64.264,51.395L64.413,51.416L64.509,51.429L64.844,51.575L65.111,51.527L65.173,51.608L65.225,51.906L65.263,52.023L65.290,52.062L65.347,52.110L65.450,52.160L65.498,52.195L65.522,52.244L65.519,52.427L65.391,52.902L65.380,53.044L65.403,53.189L65.458,53.324L65.544,53.439L65.594,53.473L65.768,53.530L65.812,53.570L65.858,53.691L65.891,53.746L66.220,54.121L66.319,54.355L66.274,54.602L65.214,55.505L65.093,55.575L64.957,55.563L64.808,55.512L64.735,55.542L64.526,55.944L64.478,56.011L64.402,56.045L64.221,56.029L64.159,56.042L63.691,56.332L63.427,56.351L63.009,56.140L62.767,56.181L62.473,56.396L62.359,56.424L62.303,56.413L62.249,56.387L62.190,56.369L61.988,56.408L61.859,56.405L61.608,56.439L61.400,56.577L61.234,56.790L61.174,56.918L61.114,57.047L61.231,57.863L61.169,58.082L61.133,58.116L60.971,58.241L60.818,58.458L60.606,58.620L60.538,58.721L60.549,58.869L60.582,58.928L60.626,58.977L60.681,59.014L60.735,59.037L60.778,59.070L60.794,59.127L60.806,59.259L60.868,59.508L60.849,59.601L60.773,59.749L60.444,60.253L60.334,60.347L60.075,60.439L59.949,60.522L59.759,60.764L59.642,61.050L59.612,61.361L59.678,61.685L59.839,62.106L59.862,62.265L59.855,62.428L59.812,62.750L59.809,63.069L59.761,63.387L59.756,63.550L59.878,64.263L60.075,64.835L60.091,64.933L60.069,64.976L60.054,65.003L59.755,65.233L59.585,65.423L58.901,66.508L58.812,66.612L58.717,66.674L58.635,66.809L58.438,66.995L58.212,67.161L58.045,67.233L57.819,67.217L57.606,67.287L57.210,67.497L56.962,67.526L56.796,67.405L56.508,66.977L56.347,66.783L56.300,66.672L56.281,66.368L56.240,66.276L56.162,66.230L55.810,66.164L55.445,65.951L55.235,65.867L55.095,65.869L54.948,65.921L54.677,66.069L54.556,66.167L54.577,66.242L54.686,66.291L54.822,66.314L55.196,66.305L55.317,66.322L55.375,66.390L55.294,66.484L55.158,66.567L55.051,66.602L54.820,66.563L54.164,66.322L53.917,66.302L53.670,66.314L53.533,66.293L53.456,66.213L53.391,66.114L53.232,65.980L53.094,65.902L52.934,65.844L52.805,65.854L52.725,65.953L52.593,66.275L52.554,66.347L52.524,66.404L52.317,66.600L52.287,66.668L52.266,66.827L52.231,66.880L51.903,67.068L51.798,67.155L51.728,67.258L51.660,67.295L51.407,67.309L51.217,67.277L51.132,67.281L50.957,67.369L50.572,67.815L50.367,67.964L50.232,68.062L50.042,68.142L49.850,68.162L49.444,68.069L49.247,68.074L49.166,68.207L49.212,68.319L49.304,68.433L49.385,68.563L49.422,68.858L49.512,68.970L49.637,69.051L49.760,69.087L50.280,69.016L50.505,69.091L50.534,69.407L50.470,69.548L50.374,69.593L50.122,69.584L50.020,69.614L49.934,69.679L49.852,69.757L49.454,70.022L49.338,70.066L49.005,70.131L48.774,70.234L48.403,70.286L47.970,70.477L47.855,70.499L47.455,70.461L47.131,70.478L47.027,70.465L46.899,70.418L46.671,70.287L46.546,70.248L46.422,70.254L46.182,70.316L46.056,70.314L45.912,70.287L45.835,70.261L45.787,70.221L45.779,70.161L45.804,70.115L45.838,70.069L45.854,70.007L45.841,69.840L45.797,69.735L45.705,69.685L45.338,69.693L45.104,69.763L44.683,69.978L44.496,70.145L44.351,70.318L44.190,70.446L43.951,70.480L43.799,70.589L43.587,71.437L43.468,71.610L42.881,72.237L42.740,72.302L41.895,72.480L41.790,72.540L41.733,72.644L41.119,75.065L41.100,75.393L41.206,75.692L41.357,75.895L41.405,75.992L41.440,76.146L41.455,76.300L41.338,77.294L41.352,77.750L41.324,77.894L40.921,78.753L40.830,79.038L40.814,79.157L40.852,79.259L41.071,79.419L41.328,79.693L41.521,79.849L41.572,79.920L41.549,79.954L41.496,79.973L41.459,79.996L41.330,80.228L41.164,80.458L40.667,80.833L40.135,80.996L39.772,81.108L39.409,81.219L39.045,81.330L38.684,81.442L38.321,81.553L37.958,81.664L37.595,81.776L37.232,81.887L36.869,81.998L36.506,82.110L36.144,82.221L35.781,82.333L35.420,82.444L35.056,82.555L34.693,82.666L34.330,82.777L33.424,83.056L33.113,83.045L32.074,82.847L31.222,82.840L30.070,82.829L29.934,82.828L28.247,83.358L28.028,83.476L27.885,83.671L27.658,84.139L27.487,84.212L26.774,83.888L25.624,83.655L24.254,83.377L23.300,83.471L22.993,83.501L22.687,83.532L22.380,83.562L22.074,83.593L21.768,83.623L21.461,83.653L21.155,83.684L20.849,83.714L20.543,83.745L20.236,83.775L19.930,83.805L19.624,83.835L19.317,83.866L19.011,83.896L18.705,83.927L18.398,83.957L18.219,83.975L17.437,84.052L16.794,83.924L16.200,83.723L15.680,83.547L15.160,83.371L14.639,83.195L14.120,83.019L13.600,82.843L13.079,82.667L12.559,82.491L12.039,82.315L11.519,82.139L10.999,81.963L10.479,81.787L9.958,81.611L9.439,81.435L8.919,81.259L8.398,81.083L7.878,80.907L7.432,80.756L7.234,80.661L7.595,80.219L8.070,79.637L8.072,79.635L9.038,78.431L9.554,77.788L9.907,77.347L10.583,76.504L11.091,75.869L11.806,74.971L12.596,73.980L13.112,73.333L13.219,73.215L13.203,73.175L13.195,73.167L13.204,73.031L13.219,72.978L13.257,72.956L13.233,72.442L13.206,72.354L13.325,72.109L13.370,71.951L13.369,71.803L13.339,71.653L13.262,71.407L13.153,71.168L13.138,71.090L13.128,70.869L13.075,70.700L12.907,70.413L12.847,70.260L12.844,70.110L12.887,69.786L12.844,69.647L12.621,69.354L12.498,69.253L12.337,69.188L11.994,69.136L11.273,69.028L10.048,68.843L8.988,68.683L8.978,68.682L7.932,68.524L7.301,68.428L7.093,68.339L7.019,67.633L6.925,67.269L6.911,67.093L6.990,66.537L6.904,65.840L6.890,65.475L6.936,65.010L6.925,64.846L6.901,64.766L6.870,64.692L6.857,64.614L6.911,64.449L6.874,64.406L6.822,64.375L6.800,64.329L6.849,64.213L7.012,63.998L7.049,63.872L7.133,63.273L7.146,62.659L6.934,61.854L6.659,60.809L6.405,59.938L6.175,59.145L5.958,58.393L5.746,57.664L5.567,57.046L5.476,56.565L5.467,55.970L5.505,55.865L5.807,55.451L6.147,54.988L6.451,54.571L6.689,54.245L6.869,54.084L7.073,53.955L7.139,53.869L7.173,53.719L7.162,53.589L7.140,53.464L7.158,53.356L7.268,53.281L7.565,53.261L7.657,53.227L7.705,53.144L7.712,53.133L7.656,53.025L7.551,52.929L7.454,52.872L7.244,52.819L7.003,52.801L6.544,52.826L6.054,52.788L5.550,52.578L5.156,52.197L5.001,51.647L5.051,51.401L5.244,50.964L5.258,50.668L5.079,49.517L5.011,48.865L5.000,48.764L5.037,48.427L5.213,48.072L5.410,47.817L5.629,47.590L5.926,47.432L6.023,47.325L5.980,47.165L6.422,47.139L7.057,47.100L7.522,47.073L7.451,46.932L6.987,46.330L6.889,46.135L6.828,46.047L6.752,45.979L6.599,45.909L6.544,45.856L6.490,45.677L6.450,45.625L6.397,45.595L6.330,45.586L6.422,45.427L6.577,45.347L6.920,45.302L7.075,45.258L7.197,45.175L7.481,44.853L7.512,44.793L7.553,44.743L7.637,44.695L7.724,44.681L7.806,44.688L7.879,44.670L7.944,44.584L7.969,44.401L7.948,44.206L7.956,44.028L8.069,43.897L8.267,43.744L8.388,43.528L8.424,43.403L8.615,43.339L8.665,43.091L8.692,42.825L8.688,42.759L8.660,42.619L8.653,42.542L8.673,42.448L8.762,42.306L8.781,42.234L8.802,42.087L8.893,41.805L8.930,41.493L8.976,41.386L9.127,41.175L9.061,41.107L9.051,41.045L9.068,40.978L9.080,40.893L9.063,40.861L8.841,40.565L8.808,40.489L8.846,40.456L8.908,40.423L8.911,40.351L8.881,40.278L8.846,40.245L8.841,40.172L8.846,40.012L8.883,39.851L8.973,39.778L9.106,39.775L9.255,39.750L9.375,39.682L9.425,39.549L9.396,39.161L9.425,39.007L9.461,38.924L9.592,38.750L9.626,38.673L9.681,38.436L9.750,38.292L9.896,38.116L9.980,37.974L10.018,37.817L10.003,37.665L9.937,37.357L9.891,37.287L9.976,37.256L10.304,37.194L10.357,37.194L10.403,37.217L10.461,37.268L10.456,37.288L10.403,37.373L10.480,37.440L10.490,37.438L10.503,37.441L10.602,37.528L10.605,37.561L10.580,37.642L10.582,37.672L10.623,37.731L10.663,37.776L10.713,37.804L10.784,37.815L10.826,37.834L10.879,37.857L11.285,38.223L11.572,38.538L11.985,38.702L12.827,38.829L13.199,38.801L13.950,38.542L14.315,38.549L14.501,38.639L14.665,38.752L15.306,39.374L15.478,39.488L15.822,39.638L15.914,39.732L15.981,39.850L16.024,39.984L16.032,40.116L16.022,40.421L16.059,40.535L16.177,40.807L16.242,40.885L16.341,40.833L16.949,40.017L17.152,39.831L17.321,39.822L17.731,40.196L17.800,40.232L17.862,40.227L17.924,40.209L17.991,40.207L18.175,40.283L18.231,40.292L18.334,40.267L18.787,40.074L18.881,40.016L18.962,39.938L19.041,39.830L19.205,39.667L19.596,39.478L19.624,39.464L20.191,39.021L20.610,38.822L20.736,38.794L20.996,38.771L21.119,38.740L21.203,38.653L21.241,38.513L21.267,38.228L21.331,37.991L21.309,37.912L21.205,37.829L21.185,37.737L21.170,37.352L21.180,37.240L21.346,37.080L21.826,36.926L21.999,36.800L22.036,36.731L22.041,36.679L22.010,36.640L21.851,36.580L21.809,36.546L21.722,36.430L21.402,36.147L21.362,36.049L21.334,35.916L21.272,35.820L21.229,35.724L21.255,35.594L21.352,35.495L21.484,35.467L22.844,35.497L23.389,35.385L23.895,35.154L23.987,35.072L24.135,34.873L24.222,34.786L24.338,34.723L24.465,34.696L25.236,34.649L25.487,34.585L26.074,34.248L26.261,34.191L26.364,34.175L26.462,34.161L26.637,34.197L27.231,34.424L27.234,34.329L27.176,33.973L27.176,33.839L27.228,33.719L27.307,33.622L27.720,33.315L27.941,33.208L28.173,33.165L28.431,33.206L28.534,33.248L28.612,33.266L28.674,33.215L28.773,32.913L28.846,32.822L28.942,32.760L29.056,32.713L29.516,32.608L29.727,32.532L29.934,32.369L30.062,32.220L30.552,31.481L30.663,31.220L30.734,30.943L30.763,30.643L30.746,30.487L30.658,30.199L30.629,30.045L30.628,29.893L30.648,29.738L30.728,29.441L30.831,29.199L31.501,28.010L31.730,27.603L31.815,27.348L31.789,27.053L31.670,26.481L31.698,26.187L31.815,25.996L31.997,25.864L33.129,25.276L33.591,25.128L36.245,25.062L36.329,25.060L36.551,24.949L36.840,24.565L37.016,24.392L37.096,24.286L37.129,24.133L37.126,23.967L37.076,23.644L37.106,23.475L37.169,23.315L37.246,23.166L37.247,23.165L37.247,23.164L37.312,23.042L37.375,22.965L37.452,22.921L37.559,22.898L37.816,22.901L37.899,22.835L37.938,22.637L37.954,22.530L38.048,22.571L38.173,22.598L38.222,22.628L38.327,22.855L38.377,22.927L38.420,22.975L38.540,23.060L39.942,23.565L40.056,23.659L40.229,23.882L40.337,23.985L40.463,24.047L40.536,24.057L40.742,24.047L40.809,24.062L40.897,24.133L40.956,24.149L41.012,24.177L41.055,24.198L41.159,24.300L41.284,24.391L41.448,24.406L41.879,24.270L42.028,24.252L42.091,24.282L42.185,24.416L42.262,24.453L42.327,24.442L42.380,24.402L42.476,24.299L42.586,24.207L42.691,24.142L42.812,24.105L42.972,24.093L43.122,24.110L43.535,24.278L43.612,24.292L43.781,24.299L43.847,24.275L43.970,24.173L44.036,24.149L44.853,24.114L45.427,23.984L45.729,23.990L45.843,24.042L46.092,24.215L46.224,24.252L46.300,24.320L46.404,24.647L46.462,24.761L46.588,24.838L46.865,24.940L46.991,25.051L47.054,25.181L47.099,25.321L47.171,25.436L47.311,25.491L47.450,25.464L47.689,25.315L47.849,25.281L48.001,25.268L48.136,25.231L48.261,25.169L48.385,25.079L48.591,24.880L48.706,24.796L48.835,24.761L48.979,24.830L49.097,25.141L49.199,25.229L49.267,25.204L49.315,25.133L49.353,25.058L49.392,25.023L49.458,25.015L49.577,24.980L49.648,24.972L49.719,24.993L49.856,25.092L49.925,25.126L50.004,25.136L50.227,25.126L50.356,25.157L50.467,25.221L50.540,25.322L50.569,25.462L50.515,25.944L50.522,26.056L50.599,26.158L50.740,26.258L50.896,26.334L51.178,26.399L51.265,26.493L51.330,26.626L51.430,26.781L51.498,26.838L51.646,26.913L51.701,26.960L51.916,27.218L51.952,27.280L51.977,27.346L52.009,27.405L52.066,27.444L52.095,27.445L52.144,27.448L52.219,27.418L52.283,27.377L52.696,27.033L52.773,26.986L52.889,26.939L52.989,26.839L53.104,26.747L53.268,26.725L53.525,26.808L53.675,26.809L53.741,26.701L53.699,26.384L53.694,26.232L53.741,26.107L53.859,26.025L53.980,26.034L54.102,26.080L54.225,26.107L54.388,26.091L54.510,26.031L54.551,25.919L54.462,25.743L54.850,25.715L55.147,25.650L55.212,25.645L55.268,25.612L55.354,25.467L55.385,25.434L55.510,25.419L55.743,25.348L55.856,25.332L55.880,25.275L55.916,25.153L55.992,25.045L56.133,25.023L56.097,24.932L56.080,24.899L56.048,24.869L56.118,24.789L56.231,24.784L56.475,24.818L56.604,24.805L56.685,24.812L56.758,24.846L56.991,24.990L57.065,24.995L57.091,24.922L57.075,24.761L57.001,24.535L57.024,24.449L57.162,24.406L57.292,24.438L57.363,24.534L57.419,24.655L57.502,24.761L57.592,24.801L57.661,24.783L57.695,24.716L57.673,24.607L57.644,24.575L57.542,24.502L57.502,24.453L57.469,24.363L57.487,24.339L57.523,24.346L57.545,24.355L57.971,24.406L58.095,24.472L58.221,24.584L58.319,24.716L58.411,24.990L58.535,25.099L58.677,25.189L58.790,25.281L58.901,25.548L58.960,25.611L59.098,25.703L59.131,25.717L59.722,26.102L59.848,26.091L59.972,26.034L60.115,26.005L60.137,26.000L60.211,25.974L60.279,25.913L60.379,25.799L60.631,25.645L60.735,25.548L60.950,25.201L60.969,25.105L60.854,25.082L60.748,25.035L60.798,24.869L60.747,24.801L60.706,24.542L60.653,24.429L60.620,24.378L60.602,24.313L60.592,24.242L60.589,24.173L60.598,24.150L60.614,24.146L60.629,24.134L60.631,24.093L60.613,24.060L60.555,24.045L60.543,24.018L60.538,23.731L60.551,23.591L60.589,23.472L60.622,23.430L60.711,23.369L60.759,23.327L60.784,23.289L60.822,23.199L60.845,23.163L61.122,22.968L61.258,22.841L61.365,22.525L61.490,22.472L62.342,22.546L62.481,22.520L62.745,22.411L62.900,22.392L62.949,22.398L63.088,22.439L63.134,22.471L63.199,22.506L63.264,22.473L63.329,22.420L63.391,22.392L63.518,22.358L63.780,22.230L63.928,22.238L64.030,22.324L64.088,22.444L64.156,22.551L64.289,22.598L64.369,22.613L64.402,22.651L64.425,22.701L64.461,22.733L64.482,22.752L64.540,22.774L64.735,22.808L64.695,22.752L64.867,22.779L65.054,22.844L65.242,22.877L65.421,22.808L65.639,22.547L65.681,22.523L65.697,22.457L65.787,22.238L65.799,22.235L65.920,22.230L65.940,22.238L65.972,22.207L65.986,22.191L66.021,22.135L66.029,22.085L66.021,22.016L66.019,21.956L66.045,21.929L66.075,21.908L66.154,21.798L66.166,21.704L66.188,21.644L66.203,21.577L66.196,21.466L66.133,21.247L66.119,21.142L66.154,21.055L66.094,21.002L66.037,20.923L65.996,20.824L65.979,20.716L65.936,20.653L65.731,20.593L65.659,20.560L65.554,20.403L65.467,20.184L65.438,19.952L65.510,19.761L65.636,19.860L65.776,19.887L65.923,19.864L66.069,19.812L66.020,19.751L65.998,19.689L65.999,19.625L66.021,19.555L66.065,19.532L66.138,19.519L66.208,19.491L66.239,19.424L66.270,19.384L66.300,19.369L66.421,19.307L66.473,19.270L66.754,18.916L67.030,18.643L67.096,18.597L67.309,18.510L67.373,18.447L67.450,18.321L67.612,17.905L67.796,17.562L67.853,17.377L67.930,17.335L68.015,17.314L68.078,17.284L68.162,17.027L68.163,16.963L68.156,16.887L68.157,16.808L68.183,16.742L68.242,16.710L68.384,16.719L68.442,16.688L68.663,16.532L68.713,16.443L68.589,16.353L68.589,16.302L68.704,16.233L69.069,16.197L69.147,16.068L69.190,16.015L69.291,15.993L69.488,15.994L69.545,16.004L69.646,16.037L69.702,16.041L69.744,16.020L69.768,15.986L69.804,15.954L69.876,15.942L70.134,16.059L70.284,16.094L70.350,16.017L70.329,15.846L70.375,15.793L70.520,15.788L70.600,15.809L70.671,15.848L70.736,15.902L70.799,15.968L70.836,16.027L70.888,16.165L70.929,16.227L70.994,16.278L71.039,16.275L71.088,16.254L71.163,16.251L71.241,16.269L71.416,16.353L71.657,16.522L72.043,16.901L72.557,17.106L72.772,17.242L72.920,17.463L72.960,17.798L72.926,17.969L72.813,18.294L72.772,18.514L72.657,18.728L72.572,19.036L72.386,19.370L72.344,19.562L72.280,19.732L72.273,19.812L72.296,19.908L72.329,19.924L72.377,19.911L72.443,19.920L72.680,20.103L72.814,20.158L72.938,20.093L73.051,20.010L73.814,19.760L74.038,19.773L74.227,19.896L74.417,20.120L74.370,20.172L74.390,20.263L74.400,20.428L74.395,20.607L74.370,20.742L74.273,20.876L74.042,21.019L73.991,21.153L74.001,21.224L74.058,21.384L74.072,21.466L74.062,21.541L73.991,21.775L73.961,22.007L73.944,22.083L73.914,22.147L73.838,22.246L73.816,22.289L73.789,22.619L73.876,23.226L73.816,23.528L73.745,23.697L73.726,23.804L73.773,24.093L73.785,24.411L73.768,24.569L73.730,24.663L73.725,24.874L73.495,25.253L73.517,25.434L73.474,25.502L73.438,25.616L73.389,25.926L73.376,26.380L73.389,26.472L73.426,26.553L73.534,26.715L73.556,26.804L73.556,27.112L73.575,27.276L73.630,27.411L73.984,27.968L74.047,28.119L74.089,28.466L74.137,28.620L74.206,28.762L74.290,28.893L74.500,29.107L74.762,29.241L75.055,29.304L75.359,29.304L75.666,29.248L75.909,29.150L77.722,27.843L77.885,27.670L78.097,27.552L78.154,27.495L78.245,27.362L78.307,27.295L78.553,27.131L79.185,26.883L79.466,26.827L79.898,26.904L80.108,26.801L81.039,26.668L81.095,26.596L81.133,26.451L81.393,26.056L81.684,25.473L81.870,25.226L82.119,25.079L82.412,25.026L82.567,24.974L82.704,24.815L83.150,24.556L83.599,24.512L83.726,24.429L83.798,24.325L83.905,24.106L84.003,23.990L84.241,23.811L84.296,23.792L84.431,23.841L84.499,23.811L84.804,23.496L84.902,23.425L85.029,23.384L85.185,23.368L85.333,23.387L85.438,23.448L85.542,23.477L85.930,23.271L86.209,23.263L86.958,23.528L87.392,23.639L87.662,23.633L87.885,23.659L87.845,23.849L87.838,23.911L87.837,24.228L87.795,24.337L87.690,24.457L87.582,24.543L87.491,24.586L87.251,24.610L87.120,24.656L86.988,24.766L86.909,24.913L86.936,25.071L87.036,25.129L87.301,25.049L87.429,25.059L87.476,25.101L87.566,25.219L87.609,25.251L87.676,25.247L87.777,25.170L87.839,25.149L87.980,25.161L88.075,25.184L88.165,25.164L88.402,24.951L88.528,24.915L88.796,24.886L89.148,24.725L89.280,24.699L89.751,24.533L90.445,24.399L90.598,24.337L90.713,24.207L90.723,23.949L90.824,23.847L90.990,23.845L91.171,23.891L91.323,23.871L91.397,23.670L91.430,23.768L91.502,23.719L91.573,23.715L91.635,23.753L91.726,23.900L91.788,23.920L91.858,23.922L92.039,23.954L92.149,23.930L92.267,23.921L92.403,23.977L92.628,24.044L92.681,24.056L92.736,24.055L93.370,24.015L93.551,23.918L94.352,24.391L94.529,24.574L94.815,25.043L95.000,25.144L94.505,25.262L94.386,25.274L94.319,25.231L94.073,24.713L94.032,24.655L93.933,24.642L93.857,24.695L93.792,24.774L93.650,24.899L93.617,24.917L93.492,24.930L93.463,24.966L93.443,25.014L93.361,25.090L93.344,25.120L93.319,25.147L93.268,25.165L93.230,25.151L93.152,25.072L93.111,25.052L93.023,25.061L92.750,25.136L92.550,25.140L92.469,25.183L92.403,25.303L92.347,25.455L92.278,25.549L92.184,25.600L92.051,25.619L91.813,25.589L91.726,25.627L91.713,25.772L91.815,25.932L92.014,26.073L92.403,26.259L92.512,26.384L92.585,26.530L92.669,26.657L92.814,26.721Z" fill="currentColor" stroke="currentColor" stroke-width="1.5" stroke-linejoin="round"/>
</svg>