<svg xmlns="http://www.w3.org/2000/svg" viewBox="0 0 100 100" role="img" aria-label="Angola">
  <title>Angola</title>
  <path d="M18.986,6.611L18.932,6.800L18.700,6.885L17.429,7.187L17.233,7.300L17.125,7.423L17.052,7.562L17.009,7.710L16.996,7.863L16.936,7.943L16.645,8.115L16.548,8.196L16.492,8.337L16.478,8.442L16.431,8.517L16.272,8.572L16.023,8.591L15.965,8.636L15.946,8.770L15.841,9.019L15.599,9.177L15.056,9.367L15.002,9.374L14.954,9.367L14.913,9.380L14.881,9.445L14.878,9.500L14.890,9.571L14.915,9.634L14.952,9.669L15.350,9.812L15.429,9.869L15.472,10.090L15.452,10.597L15.431,11.160L15.401,11.948L15.370,12.770L15.354,13.198L15.331,13.809L14.855,13.804L14.266,13.798L13.713,13.878L13.399,14.054L13.398,14.052L13.084,13.512L12.990,13.094L13.138,12.676L13.217,12.601L13.288,12.584L13.363,12.579L13.452,12.541L13.514,12.472L13.540,12.388L13.540,12.181L13.521,12.098L13.423,11.862L13.308,11.630L13.146,11.188L13.151,11.010L12.893,10.551L12.843,10.236L12.488,9.807L12.186,9.320L12.187,9.250L12.264,9.271L12.391,9.296L12.476,9.322L12.518,9.361L12.560,9.515L12.687,9.545L12.793,9.476L12.860,9.369L12.869,9.279L12.928,9.245L12.924,9.116L12.894,9.056L12.835,9.034L12.767,9.030L12.717,9.103L12.704,9.198L12.708,9.339L12.670,9.374L12.624,9.352L12.594,9.219L12.552,9.150L12.501,9.133L12.467,9.193L12.404,9.198L12.328,9.155L12.235,9.168L12.099,9.146L12.154,9.074L12.883,8.442L13.054,8.163L13.251,7.486L13.281,7.456L13.358,7.456L13.419,7.494L13.477,7.570L13.559,7.724L13.617,7.673L13.710,7.636L13.809,7.613L14.028,7.589L14.120,7.553L14.188,7.472L14.458,6.926L14.489,6.789L14.481,6.506L14.542,6.414L14.717,6.436L14.814,6.427L15.255,6.281L15.973,6.147L16.074,6.109L16.146,6.032L16.286,5.766L16.377,5.661L16.482,5.575L16.599,5.507L16.687,5.400L16.739,5.243L16.813,5.091L16.967,5.000L17.056,5.033L17.102,5.059L17.221,5.124L17.310,5.143L17.411,5.122L17.488,5.087L17.566,5.078L17.667,5.137L17.761,5.270L17.878,5.587L18.004,5.733L18.260,5.941L18.685,6.458L18.986,6.611ZM89.493,47.763L89.537,48.087L89.578,48.199L89.704,48.393L89.728,48.490L89.686,48.617L89.663,48.735L89.668,49.101L89.639,49.355L89.676,49.446L89.803,49.467L89.776,50.406L89.813,50.575L90.099,51.212L90.103,51.291L90.041,51.380L89.838,51.539L89.768,51.637L89.752,51.710L89.750,51.793L89.767,51.952L89.767,52.059L89.738,52.137L89.559,52.415L89.444,52.678L89.410,52.808L89.410,52.975L89.459,53.103L89.527,53.228L89.583,53.388L89.610,53.881L89.640,54.043L89.629,54.110L89.490,54.431L89.451,55.281L89.408,56.206L89.442,56.502L89.583,56.706L89.746,56.878L89.813,57.044L89.839,57.447L89.903,57.745L89.885,57.857L89.832,57.970L89.613,58.290L89.320,58.719L89.242,58.910L89.126,59.369L89.003,59.856L88.877,60.153L88.834,60.415L88.893,60.626L89.025,60.811L89.377,61.173L89.521,61.362L89.631,61.572L89.708,61.812L89.498,61.812L88.695,61.812L87.890,61.812L87.086,61.812L86.281,61.812L85.477,61.812L84.673,61.812L83.868,61.812L83.063,61.812L82.259,61.812L81.454,61.812L80.650,61.812L79.846,61.812L79.042,61.812L78.238,61.812L77.434,61.812L76.629,61.812L76.630,62.806L76.630,63.799L76.631,64.794L76.632,65.789L76.632,66.387L76.632,66.783L76.633,67.777L76.634,68.772L76.634,69.766L76.635,70.760L76.636,71.755L76.636,72.749L76.637,73.743L76.638,74.738L76.638,75.732L76.639,76.726L76.640,77.720L76.640,77.983L76.640,78.123L76.640,78.323L76.640,78.613L76.639,79.287L76.638,79.960L76.636,80.633L76.635,81.307L76.634,81.605L76.640,81.623L76.640,82.042L76.640,82.442L76.640,82.549L76.654,82.691L76.826,82.904L77.052,83.261L76.888,83.267L76.835,83.261L76.904,83.354L76.927,83.437L76.939,83.521L76.967,83.618L76.996,83.657L77.074,83.723L77.096,83.753L77.106,83.817L77.110,83.963L77.121,84.002L77.336,84.051L77.442,84.100L77.430,84.182L77.369,84.267L77.316,84.383L77.282,84.506L77.276,84.617L77.306,84.699L77.418,84.882L77.454,84.977L77.449,85.067L77.432,85.138L77.459,85.186L77.583,85.202L77.653,85.243L77.681,85.338L77.698,85.450L77.741,85.540L78.298,85.988L78.385,86.018L78.436,86.012L78.533,85.975L78.595,85.960L78.619,85.940L78.641,85.928L78.672,85.946L78.721,85.997L78.746,86.012L78.919,86.041L78.982,86.104L79.025,86.191L79.127,86.326L79.171,86.406L79.206,86.445L79.242,86.463L79.345,86.482L79.406,86.517L79.456,86.575L79.925,87.306L79.994,87.492L80.050,87.576L80.143,87.632L80.348,87.694L80.430,87.778L80.444,87.831L80.443,87.947L80.470,88.003L80.509,88.032L80.591,88.033L80.977,88.186L81.067,88.252L81.357,88.560L81.489,88.733L81.580,88.909L81.651,89.216L81.711,89.314L81.796,89.385L81.998,89.491L82.255,89.719L82.430,89.832L82.820,89.998L83.129,90.081L83.222,90.133L83.493,90.419L83.531,90.494L83.582,90.671L83.704,90.867L83.863,91.046L84.018,91.170L84.304,91.279L84.372,91.350L84.390,91.455L84.376,91.558L84.380,91.652L84.459,91.735L84.571,91.766L84.683,91.753L84.793,91.725L84.903,91.710L85.113,91.727L85.208,91.755L85.303,91.800L85.436,91.894L85.558,92.040L85.705,92.160L85.659,92.255L85.665,92.340L85.701,92.425L85.160,92.529L83.839,92.783L82.518,93.038L81.197,93.294L79.875,93.548L78.251,93.853L76.626,94.158L75.002,94.462L73.378,94.767L72.912,94.854L72.791,94.888L72.754,94.876L72.648,94.740L72.455,94.647L72.087,94.519L71.793,94.360L71.689,94.335L71.425,94.352L71.331,94.335L71.213,94.356L71.103,94.404L70.995,94.430L70.889,94.384L70.291,94.542L70.199,94.567L69.693,94.701L69.604,94.876L69.391,94.917L69.199,94.986L69.033,95.000L68.893,94.876L68.697,94.779L68.588,94.750L68.539,94.808L68.491,94.836L68.385,94.818L68.278,94.773L68.230,94.718L68.127,94.662L67.893,94.641L67.638,94.653L67.475,94.695L67.393,94.655L67.206,94.519L66.983,94.411L66.918,94.360L66.792,94.223L66.647,94.096L66.485,94.028L66.318,94.069L66.065,93.862L65.990,93.835L65.774,93.874L65.685,93.880L65.615,93.835L65.390,94.019L65.238,93.957L65.064,93.949L64.910,93.989L64.815,94.069L64.767,94.019L64.675,94.059L64.591,94.072L64.414,94.069L64.036,94.106L63.973,94.097L63.747,94.019L63.504,93.884L62.481,93.884L62.440,93.912L62.365,94.034L62.333,94.069L62.230,94.061L62.080,94.015L61.946,93.955L61.887,93.907L61.829,93.788L61.696,93.755L61.548,93.770L61.179,93.851L60.069,93.865L59.041,93.565L58.938,93.500L58.649,93.520L58.456,93.481L58.383,93.479L58.244,93.508L58.023,93.593L57.476,93.620L56.631,93.468L56.053,93.187L55.802,93.128L55.713,93.053L55.584,92.885L55.213,92.504L55.150,92.462L55.031,92.405L54.969,92.345L54.934,92.285L54.902,92.168L54.881,92.119L54.543,91.845L54.457,91.800L54.436,91.727L54.214,91.305L54.059,91.260L54.041,91.246L54.029,91.178L53.923,90.928L53.881,90.895L53.839,90.869L53.815,90.807L53.806,90.767L53.755,90.763L53.409,90.763L51.748,90.762L50.873,90.762L50.088,90.762L48.428,90.761L46.767,90.761L46.204,90.761L45.106,90.760L43.446,90.760L41.785,90.760L40.125,90.759L38.465,90.759L36.804,90.759L35.144,90.758L35.072,90.758L33.484,90.758L31.824,90.757L30.163,90.757L28.502,90.756L26.842,90.756L26.399,90.756L26.397,90.756L26.324,90.755L26.318,90.788L26.257,90.919L26.114,90.941L25.827,90.895L25.783,90.910L25.682,90.969L25.611,90.990L25.534,90.990L25.429,90.957L25.288,90.940L25.170,90.903L25.097,90.895L25.039,90.910L24.936,90.975L24.856,90.990L24.705,90.960L24.611,90.888L24.314,90.498L24.233,90.428L23.625,90.096L23.002,89.756L22.434,89.299L21.883,88.999L21.945,88.810L21.889,88.702L21.796,88.614L21.711,88.353L21.614,88.262L21.479,88.207L21.325,88.188L21.210,88.153L20.981,87.999L20.863,87.958L20.748,87.988L20.590,88.029L20.549,88.026L20.505,87.998L20.405,88.022L20.240,88.098L20.240,88.049L20.173,88.074L20.096,88.072L19.951,88.049L19.882,88.015L19.839,87.951L19.791,87.913L19.706,87.958L19.585,87.872L19.444,87.881L19.297,87.930L18.601,88.049L18.261,88.243L18.059,88.288L17.933,88.350L17.779,88.391L17.747,88.455L17.736,88.530L17.709,88.589L17.653,88.627L17.538,88.662L17.488,88.683L17.429,88.734L17.376,88.831L17.333,88.886L17.113,88.954L16.825,89.089L16.598,89.279L16.476,89.340L16.313,89.363L16.154,89.416L15.865,89.663L15.708,89.742L15.626,89.749L15.397,89.698L15.017,89.667L14.896,89.626L14.742,89.537L14.675,89.541L14.587,89.611L14.493,89.649L14.073,89.634L13.607,89.678L13.586,89.651L13.568,89.589L13.537,89.527L13.475,89.499L13.407,89.482L13.334,89.444L13.271,89.399L13.235,89.363L13.209,89.311L13.199,89.261L13.183,89.216L13.142,89.179L13.082,89.160L13.051,89.178L13.016,89.208L12.942,89.224L12.720,89.159L12.653,89.116L12.607,89.113L12.569,89.127L12.524,89.138L12.224,89.178L11.927,89.263L11.662,89.386L11.357,89.611L11.091,89.735L10.972,89.814L10.934,89.867L10.920,89.911L10.887,89.939L10.792,89.949L10.722,89.935L10.610,89.877L10.523,89.862L10.523,89.862L10.523,89.813L10.470,89.773L10.437,89.707L10.424,89.626L10.430,89.539L10.475,89.285L10.479,88.412L10.562,87.845L10.613,87.333L10.536,86.865L10.536,86.666L10.651,86.634L10.683,86.915L10.766,87.034L10.875,86.753L10.856,86.246L10.892,86.076L10.832,85.449L10.884,84.758L10.607,82.255L10.612,82.126L10.642,82.019L10.787,81.721L10.641,81.416L10.332,80.938L10.325,80.654L10.430,80.271L10.506,80.211L10.643,80.127L10.774,80.074L10.832,80.112L10.861,80.227L10.936,80.262L11.029,80.234L11.355,79.925L11.411,79.824L11.432,79.735L11.438,79.551L11.455,79.460L11.587,79.303L11.985,79.071L12.070,78.920L12.092,78.729L12.221,78.233L12.298,78.055L12.231,77.881L12.253,77.686L12.339,77.312L12.402,76.536L12.437,76.436L12.494,76.349L12.716,76.138L12.765,76.127L12.864,76.179L12.917,76.179L12.977,76.111L13.006,76.001L13.001,75.884L12.961,75.795L12.865,75.746L12.796,75.768L12.765,75.758L12.781,75.618L12.845,75.409L13.015,75.012L13.050,74.781L13.076,74.692L13.138,74.619L13.211,74.552L13.270,74.484L13.306,74.394L13.366,74.032L13.366,73.945L13.382,73.898L13.429,73.838L13.473,73.837L13.516,73.849L13.562,73.831L13.618,73.745L13.673,73.562L13.802,73.353L13.799,73.236L13.772,73.116L13.761,72.993L13.776,72.910L13.827,72.760L13.931,72.277L13.972,71.749L14.004,71.660L14.106,71.493L14.181,71.261L14.251,70.823L14.272,70.399L14.251,70.185L14.183,69.962L14.135,69.856L14.122,69.806L14.115,69.738L14.106,69.703L14.077,69.640L14.070,69.603L14.079,69.555L14.102,69.557L14.131,69.571L14.187,69.545L14.265,69.531L14.295,69.512L14.322,69.462L14.336,69.402L14.340,69.339L14.335,69.283L14.284,69.191L14.205,69.102L14.165,69.009L14.268,68.841L14.301,68.700L14.431,68.545L14.461,68.450L14.479,68.350L14.516,68.250L14.625,68.081L14.644,68.013L14.653,67.782L14.673,67.678L14.726,67.599L14.880,67.551L14.917,67.517L14.953,67.493L15.002,67.502L15.091,67.572L15.133,67.595L15.180,67.589L15.289,67.445L15.331,67.210L15.378,66.520L15.355,65.872L15.376,65.793L15.468,65.620L15.492,65.531L15.426,65.439L15.416,65.393L15.428,65.365L15.445,65.340L15.448,65.131L15.432,65.031L15.369,64.821L15.355,64.719L15.372,64.613L15.416,64.511L15.486,64.435L15.578,64.406L15.713,64.391L15.761,64.348L15.796,64.278L15.886,64.180L15.992,64.125L16.077,64.106L16.143,64.068L16.195,63.951L16.200,63.889L16.185,63.840L16.165,63.795L16.155,63.746L16.169,63.702L16.229,63.637L16.244,63.591L16.286,63.489L16.471,63.391L16.513,63.316L16.529,63.243L16.567,63.240L16.611,63.263L16.646,63.271L16.766,63.191L16.773,63.181L16.889,63.131L16.965,63.075L17.390,62.527L17.575,62.393L17.642,62.321L17.753,62.145L18.152,61.686L18.242,61.508L18.243,61.334L18.182,61.156L18.087,60.969L18.040,60.760L18.117,60.592L18.416,60.285L18.571,60.196L18.995,59.790L19.163,59.700L19.216,59.654L19.328,59.456L19.369,59.405L19.555,59.237L19.665,59.174L19.791,59.159L19.796,59.187L19.940,59.210L20.015,59.249L20.220,59.048L20.301,59.020L20.414,59.038L20.525,59.126L20.634,59.159L20.865,59.115L21.052,58.968L21.342,58.659L21.484,58.551L21.546,58.469L21.570,58.365L21.583,58.092L21.609,57.969L21.658,57.849L21.782,57.654L22.189,57.259L22.233,57.259L22.233,57.304L22.166,57.329L22.122,57.370L22.113,57.425L22.145,57.488L22.247,57.388L22.376,57.175L22.588,56.942L22.650,56.845L22.804,56.323L22.997,55.932L23.073,55.719L23.138,55.259L23.185,55.156L23.279,55.057L23.355,54.948L23.419,54.824L23.470,54.679L23.573,54.022L23.637,53.825L23.652,53.688L23.542,52.493L23.570,51.780L23.596,51.629L23.652,51.513L23.600,51.453L23.605,51.379L23.634,51.298L23.652,51.218L23.649,50.859L23.656,50.798L23.688,50.726L23.810,50.556L23.827,50.477L23.828,50.297L23.988,49.356L23.994,48.972L24.001,48.488L23.968,48.248L23.872,48.036L23.294,47.176L23.243,47.050L23.241,46.938L23.295,46.826L23.491,46.589L23.504,46.481L23.460,46.376L23.382,46.271L23.114,46.046L23.073,45.980L23.045,45.907L22.432,45.163L22.019,44.823L21.924,44.690L21.892,44.566L21.880,44.121L21.857,43.977L21.803,43.836L21.454,43.339L21.374,43.191L21.300,42.869L21.197,42.734L20.947,42.474L20.563,41.851L20.579,41.754L20.639,41.661L20.679,41.524L20.626,41.255L20.486,40.968L20.308,40.699L19.794,40.085L19.746,39.962L19.778,39.849L19.924,39.693L19.968,39.575L19.958,39.462L19.919,39.330L19.866,39.219L19.813,39.174L19.819,39.098L19.609,38.487L19.598,38.361L19.614,38.065L19.587,37.964L19.465,37.733L19.437,37.589L19.290,37.475L18.803,36.657L18.618,36.220L18.485,36.029L18.460,35.660L18.705,35.143L19.068,34.699L19.393,34.559L19.252,34.769L18.786,35.162L18.553,35.710L18.510,35.885L18.593,35.962L18.661,35.904L19.024,35.282L19.039,35.215L19.072,35.144L19.149,35.122L19.237,35.120L19.304,35.107L19.399,35.019L19.469,34.802L19.547,34.670L19.710,34.496L19.746,34.423L19.753,34.351L19.743,34.196L19.768,34.130L19.960,33.917L20.072,33.830L20.189,33.792L19.866,34.118L19.791,34.243L19.882,34.188L20.097,34.090L20.216,34.012L20.267,34.001L20.308,33.974L20.325,33.903L20.328,33.857L20.340,33.822L20.367,33.800L20.413,33.792L20.814,33.850L20.969,33.793L21.055,33.458L21.150,33.212L21.168,33.113L21.137,33.015L20.947,32.748L20.874,32.551L20.788,32.108L20.723,31.896L20.810,31.877L20.871,31.886L20.920,31.876L20.968,31.806L20.985,31.741L20.991,31.244L20.961,31.102L20.900,30.946L20.301,29.992L20.224,29.931L20.132,29.632L20.078,29.519L20.027,29.445L19.949,29.271L19.904,29.202L19.791,28.954L19.734,28.651L19.304,27.870L18.420,25.847L18.116,25.090L17.936,24.424L17.758,24.231L17.662,24.120L17.538,23.968L17.572,23.739L17.537,23.566L17.430,22.251L17.366,22.050L17.352,21.944L17.342,21.910L17.322,21.886L17.313,21.863L17.330,21.832L17.373,21.779L17.392,21.746L17.408,21.678L17.427,21.658L17.431,21.634L17.401,21.583L17.212,21.707L17.083,21.651L16.612,20.987L16.052,20.464L15.601,19.789L15.002,18.688L14.768,18.129L14.597,17.756L14.424,17.513L14.267,17.292L14.102,17.068L13.845,16.590L13.817,16.372L13.916,16.253L14.060,16.212L14.196,16.133L14.153,16.234L14.139,16.422L14.282,16.408L14.511,16.342L14.839,16.334L15.253,16.239L15.453,16.109L15.595,16.058L15.795,16.029L16.133,15.842L16.215,15.806L16.372,15.811L16.507,15.862L16.672,15.912L16.843,15.941L17.028,15.890L17.327,15.825L17.612,15.723L17.748,15.622L18.040,15.491L18.161,15.325L18.289,15.165L18.332,15.042L18.418,14.963L18.581,14.926L18.702,14.912L18.809,14.861L18.923,14.875L19.160,14.897L19.233,14.891L19.345,14.847L19.607,14.703L19.699,14.668L19.706,14.667L20.252,14.715L20.522,14.783L20.726,14.893L20.797,14.841L20.929,14.697L20.971,14.667L21.184,14.672L21.701,14.681L21.892,14.741L21.970,14.738L22.089,14.687L22.150,14.674L22.661,14.730L23.733,14.642L24.616,14.570L24.867,14.647L25.022,14.737L25.118,14.774L25.888,14.715L26.037,14.732L26.419,14.869L26.547,14.886L27.221,14.899L27.807,14.912L28.102,14.860L28.513,14.966L28.713,14.986L29.536,14.833L29.898,14.826L30.141,14.822L30.731,14.812L31.321,14.802L31.912,14.792L32.503,14.782L33.093,14.772L33.683,14.762L34.274,14.752L34.865,14.742L35.455,14.732L36.046,14.723L36.636,14.712L37.227,14.702L37.817,14.692L38.408,14.682L38.578,14.679L38.998,14.672L39.589,14.662L39.969,14.656L40.134,14.690L40.246,14.759L40.348,14.842L40.490,14.916L40.595,14.934L40.692,14.920L40.900,14.858L41.028,14.838L41.144,14.842L41.260,14.870L41.504,14.971L41.552,14.998L41.792,15.118L41.771,15.174L41.684,15.278L41.684,15.321L41.746,15.404L41.779,15.474L41.791,15.535L41.817,15.949L41.837,16.023L41.874,16.019L41.935,15.988L41.993,15.980L42.017,16.046L41.881,16.207L42.009,16.220L42.088,16.280L42.198,16.433L42.274,16.474L42.360,16.501L42.429,16.545L42.459,16.634L42.572,16.764L42.629,16.863L42.614,16.951L42.568,17.034L42.552,17.143L42.556,17.626L42.566,17.682L42.587,17.744L42.601,17.808L42.592,17.874L42.555,17.898L42.496,17.903L42.439,17.923L42.415,17.989L42.411,18.244L42.422,18.269L42.459,18.329L42.502,18.356L42.545,18.347L42.579,18.355L42.592,18.441L42.555,18.527L42.496,18.619L42.496,18.683L42.636,18.690L42.594,18.786L42.597,18.860L42.638,18.921L42.704,18.984L42.763,19.059L42.759,19.123L42.680,19.260L42.656,19.375L42.676,19.482L42.771,19.703L42.799,19.820L42.818,20.063L42.847,20.181L42.897,20.289L43.253,20.795L43.278,20.892L43.288,20.988L43.316,21.077L43.391,21.147L43.462,21.172L43.617,21.188L43.691,21.205L43.848,21.316L43.925,21.478L43.974,21.855L43.959,21.882L43.936,21.944L43.937,22.006L43.994,22.035L44.068,22.051L44.108,22.091L44.135,22.144L44.169,22.195L44.224,22.311L44.199,22.414L44.154,22.526L44.147,22.670L43.939,22.613L43.926,22.778L44.058,23.210L44.046,23.563L44.080,23.620L44.143,23.659L44.222,23.745L44.327,23.895L44.344,23.998L44.344,24.101L44.373,24.179L44.546,24.232L44.765,24.390L44.932,24.472L45.002,24.538L45.031,24.637L45.032,24.709L45.033,24.868L45.071,24.959L45.163,25.021L45.215,24.928L45.254,24.916L45.292,24.943L45.344,24.972L45.482,25.008L45.541,25.038L45.565,25.086L45.530,25.127L45.454,25.153L45.379,25.190L45.344,25.269L45.359,25.332L45.401,25.375L45.456,25.415L45.517,25.471L45.604,25.620L45.711,25.936L45.808,26.080L46.123,26.241L46.252,26.338L46.228,26.462L46.258,26.569L46.252,26.724L46.268,26.828L46.364,26.782L46.378,26.833L46.392,26.844L46.392,26.848L46.364,26.876L46.472,26.922L46.473,26.980L46.432,27.042L46.408,27.101L46.443,27.186L46.560,27.291L46.585,27.351L46.614,27.386L46.763,27.408L46.828,27.441L46.838,27.503L46.832,27.585L46.864,27.645L46.987,27.646L46.987,27.691L46.927,27.750L46.971,27.765L47.057,27.765L47.120,27.781L47.139,27.855L47.136,27.940L47.157,27.990L47.252,27.961L47.326,28.046L47.302,28.104L47.242,28.166L47.208,28.256L47.232,28.299L47.290,28.342L47.429,28.412L47.398,28.461L47.395,28.480L47.409,28.499L47.429,28.547L47.447,28.518L47.487,28.485L47.517,28.453L47.575,28.663L47.610,28.727L47.675,28.788L47.818,28.863L47.870,28.911L47.893,29.023L47.818,29.211L47.868,29.309L47.870,29.313L47.921,29.371L48.283,29.461L48.465,29.458L49.014,29.262L49.209,29.278L49.428,29.361L49.508,29.351L49.911,29.127L50.016,29.105L50.232,29.129L50.422,29.221L50.753,29.506L50.925,29.545L51.505,29.532L51.464,29.367L51.471,29.183L51.532,29.031L51.649,28.960L51.749,28.934L52.013,28.806L52.117,28.791L52.600,28.810L52.917,28.822L53.159,28.917L53.243,28.922L53.342,28.893L53.484,28.816L53.592,28.800L53.988,28.794L54.028,28.800L54.156,28.795L54.121,28.548L54.134,28.420L54.213,28.364L54.680,28.365L55.187,28.365L55.650,28.365L55.707,28.401L55.738,28.586L55.778,28.668L55.878,28.824L56.164,28.824L56.989,28.824L57.815,28.824L58.641,28.824L59.467,28.824L59.644,28.824L59.504,28.312L59.484,28.143L59.503,27.936L59.598,27.634L59.660,27.436L59.787,27.030L59.811,26.858L59.808,26.698L59.758,26.527L59.684,26.350L59.631,26.174L59.644,26.001L60.091,26.038L60.215,26.009L60.308,25.910L60.376,25.651L60.464,25.536L60.469,25.531L60.474,25.528L60.480,25.525L60.664,25.377L60.668,25.172L60.496,24.734L60.446,24.507L60.426,24.298L60.496,23.229L60.559,23.016L60.634,22.894L60.813,22.665L60.854,22.558L60.839,22.488L60.720,22.226L61.058,22.226L61.330,22.226L61.601,22.226L61.873,22.226L62.145,22.226L62.417,22.226L62.689,22.226L62.961,22.226L63.232,22.226L63.505,22.226L63.576,22.226L63.776,22.226L64.048,22.226L64.321,22.226L64.592,22.226L64.864,22.226L65.135,22.226L65.408,22.226L65.719,22.226L65.719,22.131L65.747,21.913L65.777,21.818L65.829,21.719L65.883,21.676L65.958,21.664L66.298,21.663L66.839,21.661L67.398,21.660L67.772,21.659L67.621,22.060L67.445,22.529L67.345,22.798L67.209,23.158L67.169,23.465L67.176,23.778L67.184,24.103L67.485,24.101L67.956,24.100L68.427,24.099L68.897,24.097L69.368,24.096L69.839,24.095L70.310,24.093L70.780,24.092L71.251,24.091L71.722,24.090L72.192,24.088L72.663,24.087L73.134,24.086L73.605,24.084L74.076,24.083L74.547,24.082L75.017,24.080L75.235,24.079L75.367,24.083L75.365,24.106L75.389,24.138L75.431,24.153L75.481,24.185L75.522,24.235L75.668,24.550L75.704,24.592L75.739,24.654L75.723,24.708L75.691,24.755L75.678,24.792L75.715,24.866L75.761,24.912L75.799,24.961L75.815,25.043L75.807,25.083L75.774,25.143L75.767,25.176L75.781,25.214L75.844,25.275L75.859,25.313L75.847,25.398L75.788,25.531L75.767,25.606L75.762,25.689L75.777,25.730L75.798,25.766L75.815,25.831L75.815,26.080L75.793,26.130L75.699,26.227L75.678,26.266L75.666,26.389L75.637,26.473L75.591,26.604L75.516,26.828L75.433,27.071L75.382,27.219L75.310,27.428L75.274,27.536L75.235,27.826L75.276,27.997L75.284,28.074L75.263,28.151L75.169,28.281L75.148,28.344L75.167,28.794L75.196,28.911L75.259,28.964L75.462,29.081L75.506,29.157L75.520,29.318L75.563,29.450L75.633,29.566L75.796,29.758L75.836,29.847L75.854,29.958L75.869,30.240L75.939,30.554L75.991,30.673L76.181,30.860L76.245,30.982L76.197,31.009L76.146,31.037L76.111,31.113L76.186,31.281L76.345,31.537L76.396,31.820L76.371,32.110L76.217,32.617L76.250,32.629L76.270,32.643L76.296,32.655L76.345,32.659L76.227,32.870L76.157,33.070L76.080,33.554L76.013,33.973L75.968,34.019L75.918,34.237L75.852,34.396L75.799,34.920L75.815,35.263L75.722,36.019L75.801,36.682L75.799,36.952L75.730,37.229L75.530,37.641L75.489,37.870L75.421,38.006L75.413,38.089L75.440,38.162L75.550,38.296L75.593,38.363L75.673,38.632L75.747,39.211L75.815,39.486L75.975,39.745L76.386,40.179L76.478,40.436L76.518,40.414L76.618,40.372L76.658,40.350L76.670,40.563L76.749,40.748L77.121,41.185L77.185,41.223L77.230,41.208L77.276,41.161L77.348,41.197L77.456,41.291L77.706,41.451L77.794,41.556L77.844,41.702L77.896,41.935L78.028,42.295L78.085,42.574L78.117,42.656L78.072,42.870L78.190,43.170L78.349,43.467L78.464,43.777L78.616,44.047L78.672,44.246L78.766,44.363L78.787,44.439L78.780,44.514L78.747,44.644L78.739,44.712L78.708,44.811L78.563,45.049L78.519,45.186L78.533,45.327L78.597,45.415L78.678,45.503L78.739,45.641L78.762,45.920L78.756,46.049L78.750,46.188L78.766,46.421L78.872,46.591L78.837,46.631L78.827,46.652L78.846,46.905L78.827,47.031L78.763,47.087L78.640,47.106L78.480,47.154L78.209,47.267L78.092,47.351L77.942,47.487L77.830,47.632L77.832,47.740L77.890,47.842L78.028,48.303L78.028,48.555L78.049,48.588L78.144,48.658L78.165,48.690L78.187,48.804L78.295,48.998L78.337,49.122L78.413,49.705L78.390,49.982L78.297,50.252L78.462,50.243L78.583,50.168L78.867,49.862L78.961,49.795L79.609,49.575L79.797,49.414L80.002,48.886L80.238,48.851L80.731,49.051L80.972,49.149L81.218,49.219L81.469,49.244L81.705,49.203L81.842,49.124L81.982,49.022L82.126,48.950L82.281,48.956L82.413,49.026L82.657,49.188L82.786,49.244L83.034,49.282L83.324,49.282L83.974,49.170L84.505,49.080L85.215,48.683L85.647,48.442L85.920,48.363L86.182,48.348L86.434,48.370L86.837,48.483L87.384,48.635L87.599,48.652L87.853,48.631L88.100,48.660L88.368,48.745L88.627,48.794L88.845,48.714L88.889,48.651L88.938,48.504L88.977,48.437L89.039,48.384L89.177,48.303L89.237,48.245L89.290,48.112L89.319,47.956L89.371,47.824L89.493,47.763ZM10.262,85.677L10.268,85.929L10.338,86.166L10.344,86.254L10.197,86.116L10.108,85.923L9.897,85.273L9.910,85.092L9.974,85.011L10.108,84.898L10.223,84.936L10.234,85.261L10.262,85.406L10.262,85.677Z" fill="currentColor" stroke="currentColor" stroke-width="1" stroke-linejoin="round"/>
</svg>