<svg xmlns="http://www.w3.org/2000/svg" viewBox="0 0 100 100" role="img" aria-label="Anguilla">
  <title>Anguilla</title>
  <path d="M80.383,71.142L84.569,70.498L86.599,70.605L86.556,71.848L82.975,77.953L81.606,79.748L79.641,81.052L74.968,82.463L63.905,89.397L63.395,88.599L62.187,87.725L61.343,86.820L57.231,89.919L54.785,90.732L51.684,90.686L56.292,85.255L57.675,84.135L59.742,83.384L64.312,82.555L66.350,81.566L69.582,78.030L71.853,74.663L74.874,72.139L80.383,71.142ZM5.153,10.856L5.000,9.268L5.939,9.499L5.153,10.856ZM89.182,68.050L90.529,67.539L91.068,66.574L93.546,67.085L95.000,67.993L93.869,68.447L91.553,69.129L91.122,69.753L89.452,70.888L88.859,70.264L89.559,69.356L89.182,68.050ZM36.624,71.151L34.935,70.534L34.728,69.444L36.348,68.536L37.773,69.221L39.485,69.262L36.624,71.151ZM48.703,72.079L49.599,72.370L48.875,72.624L48.255,72.588L47.772,72.188L47.324,71.934L47.703,71.861L48.358,72.006L48.703,72.079ZM50.530,72.733L50.875,72.733L51.081,72.551L51.461,72.588L51.598,73.242L51.047,73.314L50.564,73.205L50.530,72.733Z" fill="currentColor" stroke="currentColor" stroke-width="1.5" stroke-linejoin="round"/>
</svg>