<svg xmlns="http://www.w3.org/2000/svg" viewBox="0 0 100 100" role="img" aria-label="Aland">
  <title>Aland</title>
  <path d="M48.446,55.771L49.584,58.130L48.876,60.182L47.951,62.192L48.446,64.425L47.803,65.109L47.391,64.872L47.007,64.211L46.471,63.574L44.547,62.499L44.144,62.015L43.936,60.126L44.315,58.265L44.908,56.511L45.310,54.920L46.573,58.340L47.336,59.679L47.669,58.507L47.063,56.181L47.202,55.399L48.446,55.771ZM12.179,46.764L12.382,47.620L13.372,48.835L13.770,49.528L13.964,50.235L14.089,50.961L14.158,53.008L13.973,53.948L13.534,54.110L13.020,54.013L12.604,54.208L11.781,53.110L10.476,50.589L9.459,49.528L9.903,51.459L10.120,53.273L9.912,54.976L9.070,56.553L7.956,57.167L6.785,56.618L5.786,55.032L5.194,52.575L5.042,51.547L5.000,51.012L5.250,50.570L5.971,49.881L6.369,49.030L6.351,47.885L6.249,46.634L6.360,45.480L6.651,44.931L7.683,43.559L8.108,42.856L8.733,42.242L9.579,42.242L10.412,42.651L11.531,43.824L11.892,44.568L12.114,45.541L12.179,46.764ZM56.989,41.647L57.382,42.023L57.618,42.503L57.720,43.140L57.757,43.991L55.000,49.528L54.315,49.286L54.315,48.695L54.579,47.927L54.621,47.187L54.704,46.657L54.695,45.387L54.417,44.503L52.734,45.862L52.299,44.847L52.391,43.112L53.067,41.647L54.246,41.191L56.027,42.354L56.989,41.647ZM79.209,45.480L77.599,44.731L77.063,41.879L77.414,39.288L78.432,39.302L79.006,39.897L80.749,41.116L81.152,41.647L81.013,43.028L80.347,43.805L79.500,44.075L78.784,43.991L79.209,45.480ZM44.533,46.336L45.287,48.025L45.726,48.672L45.111,49.007L44.584,49.058L44.089,49.225L43.562,49.881L43.261,50.607L42.784,52.184L42.590,52.575L41.873,52.915L41.457,52.617L41.068,52.128L40.453,51.863L38.094,51.863L37.618,51.193L37.720,49.630L38.099,47.913L38.483,46.764L39.653,45.638L42.465,45.406L43.367,43.991L41.064,44.038L38.978,44.647L37.322,46.485L36.346,50.230L35.957,50.230L36.129,47.471L35.407,46.127L34.482,44.996L34.015,42.856L34.736,40.939L35.916,38.506L36.152,36.575L34.015,36.184L34.015,36.966L34.593,38.422L34.084,40.418L32.854,41.493L31.300,40.158L31.517,42.177L32.327,44.419L33.404,46.280L34.403,47.187L33.848,47.974L33.515,48.890L33.418,49.909L33.594,51.016L30.629,49.751L29.713,48.672L30.046,48.081L30.153,47.690L30.102,46.336L28.562,46.550L27.812,47.076L27.965,48.281L28.673,49.574L29.463,50.733L30.328,51.547L31.947,52.240L32.475,53.045L32.891,53.854L33.238,54.208L33.797,53.948L34.232,53.352L34.653,52.589L35.180,51.863L34.542,55.520L34.380,57.279L34.403,58.898L34.611,59.289L34.991,59.549L35.370,59.973L35.537,60.843L35.213,62.024L34.463,62.034L33.030,61.233L30.735,61.606L29.769,62.434L29.908,64.006L30.291,65.877L29.741,66.574L29.130,66.267L29.325,65.137L28.349,61.559L27.572,60.470L26.221,60.452L25.467,61.001L25.296,61.619L25.185,62.248L24.635,62.792L23.862,63.029L23.104,62.936L22.623,62.387L22.692,61.233L21.698,60.610L20.671,61.019L19.792,62.136L19.200,63.574L18.321,60.433L16.203,55.422L15.315,52.575L14.935,49.239L14.616,47.788L13.964,47.187L13.844,46.336L12.604,41.647L13.723,41.605L14.644,41.800L15.130,42.693L14.963,44.773L15.407,43.582L15.759,42.289L16.147,41.284L16.693,40.865L17.442,40.707L19.625,39.302L19.191,38.808L18.904,38.241L18.423,36.966L19.598,37.348L20.014,37.748L20.361,37.375L20.523,37.320L21.105,37.748L20.208,41.046L19.320,43.559L19.487,44.536L19.958,45.345L20.402,46.336L20.846,49.142L21.221,49.951L22.109,50.230L22.539,49.616L22.636,48.188L22.512,46.587L22.303,45.480L23.316,46.141L24.246,47.187L24.635,43.991L25.833,42.428L26.110,40.865L26.212,38.450L26.577,36.966L26.878,38.641L26.961,39.483L26.994,40.516L27.299,40.949L27.965,40.818L28.636,40.334L28.936,39.734L28.774,37.752L28.349,36.091L27.720,34.779L26.994,33.844L26.605,33.198L26.388,32.616L26.138,32.556L25.620,33.421L25.000,35.477L24.579,36.212L24.052,35.756L23.196,33.830L22.391,32.369L21.415,31.527L20.014,31.430L20.902,30.802L21.401,29.852L21.776,28.740L22.303,27.596L23.469,26.237L24.690,25.651L25.981,25.651L27.350,26.042L27.757,27.563L28.034,29.699L28.548,31.271L30.962,30.704L32.419,31.271L33.788,32.435L34.759,33.844L34.288,31.541L34.015,30.718L34.852,30.913L36.762,32.016L37.340,31.858L37.956,31.420L38.617,32.016L39.838,33.844L42.789,35.096L43.585,36.315L42.979,39.302L43.825,38.836L44.144,38.529L45.037,39.292L46.198,39.832L48.446,40.158L46.471,43.991L46.082,45.480L44.533,46.336ZM82.414,81.844L81.998,81.411L81.665,80.239L82.165,79.257L82.942,78.913L83.677,78.871L84.195,79.625L84.551,81.090L84.968,82.402L84.524,82.946L83.122,82.416L82.414,81.844ZM88.571,78.568L87.766,78.447L87.757,78.648L88.603,79.313L89.006,80.401L88.525,80.997L85.648,79.359L84.871,78.536L84.574,77.922L84.685,77.815L84.954,77.363L85.796,76.828L88.293,77.508L88.922,77.526L89.269,77.754L89.311,78.313L88.571,78.568ZM67.345,66.881L67.484,67.058L67.789,67.198L67.636,67.328L66.961,67.477L66.822,67.542L67.239,67.914L67.331,68.612L67.128,69.436L66.568,70.189L66.041,71.097L65.490,71.264L63.955,69.868L63.710,70.138L63.353,70.938L62.623,71.446L61.762,71.301L61.133,70.576L61.401,69.254L62.845,66.491L63.640,65.611L64.403,65.439L64.963,65.514L65.416,65.262L65.796,65.262L66.036,65.635L66.082,66.086L66.263,66.211L66.693,66.002L67.054,66.072L67.262,66.584L67.345,66.881ZM56.772,65.709L58.182,64.578L58.959,64.388L58.303,67.440L57.229,69.156L55.537,69.589L54.843,68.798L55.601,67.393L56.772,65.709ZM62.290,66.533L62.188,67.114L61.105,67.868L59.459,67.300L59.366,65.467L60.407,64.890L62.350,64.620L62.530,64.537L62.021,64.369L62.132,63.978L62.983,63.606L63.464,63.909L63.122,64.690L62.576,65.528L62.290,66.533ZM71.508,57.102L71.688,57.558L71.785,58.647L71.429,59.428L70.837,59.540L69.940,58.772L68.969,57.009L68.788,55.567L69.274,54.948L69.815,54.720L70.176,54.906L70.671,55.446L71.286,56.441L71.508,57.102ZM71.531,45.796L72.789,47.071L73.381,48.095L72.891,49.197L71.702,49.779L70.786,49.249L70.412,48.583L70.375,47.285L70.661,46.104L71.531,45.796ZM76.850,34.696L74.727,36.305L74.311,36.082L74.241,35.324L74.260,34.933L74.311,33.979L74.463,33.402L74.926,32.183L75.120,31.793L75.333,31.448L75.574,30.778L75.703,30.164L76.110,29.964L76.781,30.132L77.419,30.639L77.683,31.690L77.535,32.839L77.303,33.886L76.850,34.696ZM48.657,74.699L49.828,72.143L51.961,69.726L53.267,70.005L55.315,70.982L57.491,71.455L58.077,72.576L55.322,74.158L53.535,74.084L51.954,74.288L51.130,74.633L50.990,76.292L50.097,77.328L48.793,76.773L48.657,74.699ZM34.581,64.751L36.544,63.718L38.424,61.166L40.059,62.086L41.947,61.981L43.648,64.528L44.755,67.919L45.316,70.324L45.469,71.399L44.706,73.037L43.333,74.728L42.621,75.291L43.128,72.833L42.415,72.168L41.297,72.835L39.669,73.298L38.651,72.429L39.311,71.404L39.563,70.124L38.594,68.796L37.116,68.798L35.991,67.521L34.104,67.168L34.581,64.751ZM94.542,17.128L94.889,17.649L95.000,19.036L94.519,20.320L93.959,20.692L93.196,20.026L92.872,18.659L93.159,17.789L93.848,17.095L94.315,17.054L94.542,17.128Z" fill="currentColor" stroke="currentColor" stroke-width="1" stroke-linejoin="round"/>
</svg>