<svg xmlns="http://www.w3.org/2000/svg" viewBox="0 0 100 100" role="img" aria-label="Albania">
  <title>Albania</title>
  <path d="M59.270,28.311L58.699,28.657L58.678,29.155L58.672,29.317L58.850,30.070L58.888,30.491L58.906,30.686L58.760,30.948L58.238,31.458L58.017,31.747L57.836,32.144L57.771,32.459L57.950,34.616L58.063,35.253L58.539,36.636L58.541,36.836L58.542,36.897L58.421,37.207L58.231,37.401L57.929,37.583L57.604,37.720L56.508,37.959L56.592,38.383L56.527,39.187L56.685,39.631L56.935,39.745L57.107,39.924L57.349,40.386L57.393,40.470L57.467,40.699L57.513,41.186L57.557,41.348L57.718,41.484L58.091,41.544L58.261,41.656L58.528,42.035L58.639,42.335L58.665,42.402L58.660,42.806L58.502,43.304L58.289,43.711L57.996,44.080L57.673,44.278L57.351,44.176L57.271,44.761L57.263,44.820L57.383,45.719L57.764,47.328L58.047,48.084L58.878,49.263L59.233,49.955L59.347,50.629L59.333,51.157L59.491,51.563L59.950,51.779L60.127,51.862L60.433,51.894L60.716,51.880L60.775,51.889L60.974,51.919L61.218,52.107L61.448,52.588L61.882,54.536L62.316,56.251L62.641,56.940L62.941,57.196L63.172,57.394L63.738,57.521L64.133,57.362L64.880,56.730L65.320,56.621L65.340,56.616L66.526,56.789L67.643,57.123L68.019,57.490L68.202,58.051L68.211,58.843L68.251,60.256L68.114,60.890L67.726,61.352L67.947,61.534L68.030,61.759L68.074,61.999L68.172,62.223L68.812,62.836L69.409,63.570L69.639,63.989L69.785,64.510L69.815,65.096L69.736,65.643L69.497,66.680L69.458,67.024L69.448,67.272L69.414,67.504L69.295,67.805L69.142,67.974L68.935,68.095L68.729,68.264L68.576,68.569L68.285,68.649L68.046,68.817L67.912,69.082L67.928,69.452L67.863,69.625L67.789,69.773L67.573,70.083L67.014,70.470L66.512,70.345L65.999,70.097L65.398,70.109L65.099,70.312L64.978,70.564L64.890,70.849L64.706,71.154L64.507,71.268L64.040,71.380L63.841,71.590L63.803,71.870L63.901,72.683L63.913,72.994L63.836,73.362L63.736,73.609L63.490,74.076L63.142,74.954L63.077,75.119L62.901,75.279L62.655,75.409L62.411,75.583L62.234,75.873L62.132,76.552L62.179,77.149L62.174,77.761L61.923,78.473L61.800,78.573L61.468,78.676L61.364,78.840L61.352,79.023L61.427,79.353L61.434,79.504L61.540,80.057L61.508,80.193L61.171,81.162L61.076,81.370L60.911,81.487L60.353,81.758L59.509,82.168L58.950,82.224L57.759,82.044L57.351,82.153L56.998,82.361L56.253,82.272L55.826,82.469L55.526,82.825L55.271,83.297L55.083,83.827L54.988,84.361L54.617,84.442L53.496,84.477L53.224,84.565L53.338,84.798L53.674,86.608L53.790,86.787L54.324,87.328L55.359,89.082L55.450,89.600L55.269,90.195L54.879,90.608L54.496,90.563L54.099,90.318L53.261,89.988L53.233,89.977L53.010,89.942L52.822,90.021L52.665,90.244L52.720,90.366L52.853,90.492L52.927,90.726L52.892,90.881L52.750,91.238L52.725,91.331L52.781,91.429L52.945,91.640L52.985,91.730L53.071,91.990L53.191,92.123L53.259,92.280L53.191,92.604L52.883,92.990L52.465,93.238L52.126,93.574L52.059,94.228L51.862,94.105L51.667,94.041L51.476,94.041L51.295,94.105L51.119,94.305L51.093,94.535L51.103,94.752L51.024,94.909L50.668,95.000L50.211,94.783L49.571,94.189L48.540,93.635L47.646,93.339L46.894,93.080L46.530,93.315L46.462,93.343L46.441,93.518L46.287,93.518L46.165,93.081L46.241,92.586L46.594,91.683L46.210,91.519L46.099,91.412L46.441,90.648L46.852,89.156L46.899,88.796L46.753,88.181L46.517,88.010L46.168,87.981L45.673,87.796L45.640,87.722L45.635,87.602L45.609,87.475L45.519,87.371L45.212,87.187L44.988,87.100L44.604,87.085L44.432,86.965L44.432,86.779L44.765,86.353L44.984,86.128L45.212,85.964L44.823,85.581L43.767,83.508L43.624,83.139L43.467,82.822L43.282,82.687L42.564,82.665L42.208,82.597L41.965,82.465L42.144,82.282L41.533,81.855L41.438,82.050L41.405,82.138L41.380,82.282L41.307,82.014L41.199,81.883L41.062,81.792L40.905,81.651L40.875,81.532L40.715,81.180L40.530,80.886L40.448,80.947L40.225,80.714L38.744,80.226L37.502,79.472L36.782,78.811L35.513,78.374L34.771,77.802L32.635,75.370L32.384,74.958L32.275,74.710L31.971,73.377L31.807,73.011L31.021,72.221L30.743,71.841L30.705,71.722L30.705,71.688L30.579,71.637L30.579,71.433L31.176,71.118L31.544,71.085L31.894,71.331L32.695,72.323L32.907,72.654L33.205,73.360L33.327,73.794L33.379,74.201L33.589,74.332L34.060,74.219L34.532,73.990L34.742,73.785L34.892,71.079L34.828,70.637L34.252,70.297L33.481,69.505L32.865,68.613L32.753,67.972L32.907,68.158L32.969,68.380L33.028,68.639L33.210,68.584L33.379,68.584L33.813,69.086L34.093,68.931L34.241,68.373L34.285,67.657L34.005,67.084L33.411,66.773L32.870,66.928L32.753,67.750L32.593,67.290L31.034,64.958L30.911,64.696L31.023,64.342L31.328,64.048L31.690,63.774L31.971,63.473L32.172,63.007L32.262,62.508L32.286,60.735L32.359,60.252L32.560,59.929L32.975,59.808L33.210,59.697L33.150,59.443L32.986,59.162L32.907,58.977L33.006,58.736L33.167,58.495L33.315,58.315L33.379,58.263L33.199,57.921L32.859,57.476L32.637,57.087L32.830,56.922L33.170,56.792L33.611,56.152L33.978,55.883L33.665,56.235L33.854,56.934L33.671,57.531L33.671,58.161L33.839,58.161L33.909,57.735L33.905,57.827L33.938,57.928L33.978,58.161L34.274,57.757L35.453,57.182L35.831,56.718L35.870,55.984L35.634,55.398L35.338,54.859L35.202,54.273L35.126,55.039L34.848,55.726L34.269,56.619L34.259,56.488L34.131,56.311L34.373,56.063L34.630,55.642L34.793,55.097L34.742,54.477L34.630,54.330L34.267,54.177L34.131,54.069L33.971,53.736L33.985,53.575L34.080,53.436L34.325,51.170L34.208,50.692L34.080,50.491L33.983,50.255L34.000,50.061L34.490,49.839L34.566,49.500L34.566,49.098L34.603,48.758L35.519,47.275L35.678,46.705L35.605,46.100L35.371,45.580L35.036,45.212L34.674,45.074L34.183,45.074L33.770,44.996L33.485,44.731L33.379,44.167L33.379,42.935L33.302,42.671L32.969,42.361L32.907,42.019L33.203,42.411L33.704,42.383L34.073,41.969L33.978,41.204L34.510,40.905L35.064,40.450L35.499,39.831L35.678,39.040L35.623,38.546L35.466,38.358L35.223,38.284L34.910,38.132L34.587,37.822L34.227,37.210L33.978,36.893L35.935,37.157L36.571,36.963L36.769,36.902L37.209,35.874L37.363,35.874L37.377,36.202L37.461,36.376L37.619,36.406L37.842,36.300L37.662,35.499L37.553,35.292L37.363,35.484L37.260,35.244L36.599,34.652L37.059,33.844L37.019,32.911L36.902,31.913L36.906,31.376L37.315,31.516L37.527,31.128L37.545,30.501L37.363,29.933L37.218,29.940L34.530,28.839L34.208,28.628L33.799,28.447L32.275,28.932L32.255,28.619L32.272,27.839L32.093,27.522L31.884,27.321L31.831,27.203L31.845,27.079L31.833,26.879L31.861,26.730L31.947,26.575L32.000,26.363L31.856,25.675L31.972,25.567L32.156,25.543L32.290,25.432L32.409,24.929L32.244,24.723L32.237,24.718L32.030,24.269L31.949,23.699L31.974,23.109L32.084,22.596L32.494,21.705L32.441,21.419L32.385,21.352L32.049,20.949L30.763,20.005L30.410,19.621L30.408,19.616L30.185,19.140L30.250,18.824L30.916,18.114L33.068,14.809L33.089,14.655L33.075,14.247L33.119,14.030L33.330,13.542L33.446,13.372L34.595,12.059L34.894,11.571L35.338,11.283L35.704,10.869L36.015,10.369L36.287,9.814L36.287,9.809L36.412,9.361L36.682,9.133L37.004,8.951L37.283,8.637L37.408,8.280L37.533,7.498L37.663,7.087L38.039,6.486L38.627,5.805L38.854,5.602L39.258,5.243L39.780,5.000L40.293,5.260L40.639,5.907L40.829,6.668L40.849,6.965L40.869,7.264L40.829,7.233L40.725,7.398L40.558,7.750L40.518,7.961L40.477,8.411L40.491,8.613L40.567,8.890L40.955,9.814L41.693,10.376L42.074,10.567L42.482,10.617L42.695,10.550L42.839,10.504L43.689,10.010L43.896,9.814L43.900,9.808L44.457,9.426L45.553,9.459L46.124,9.296L46.932,8.238L47.414,7.894L47.992,8.223L48.456,8.722L49.578,9.330L49.956,9.805L49.961,9.805L49.961,9.808L49.963,9.814L50.594,11.314L50.717,11.483L51.019,11.770L51.130,12.000L51.123,12.246L50.891,12.596L50.863,12.787L50.968,12.974L51.318,13.270L51.448,13.451L51.502,13.681L51.462,14.084L51.495,14.296L51.690,14.785L51.873,14.987L52.140,15.027L53.674,14.991L54.020,15.048L56.796,17.058L57.171,17.457L57.351,17.648L57.780,18.229L58.630,20.052L58.871,20.846L58.929,21.373L58.934,22.328L59.071,22.885L59.776,24.718L59.881,25.312L59.992,25.705L59.992,26.083L59.756,26.629L59.572,26.863L59.410,26.984L59.273,27.148L59.166,27.508L59.171,27.724L59.284,28.092L59.270,28.311Z" fill="currentColor" stroke="currentColor" stroke-width="1" stroke-linejoin="round"/>
</svg>