<svg xmlns="http://www.w3.org/2000/svg" viewBox="0 0 100 100" role="img" aria-label="Andorra">
  <title>Andorra</title>
  <path d="M80.423,62.342L78.037,65.176L75.236,66.487L72.202,66.522L69.219,65.431L68.571,64.375L67.870,64.093L67.118,64.472L66.210,65.537L63.487,74.724L55.447,78.130L39.625,80.198L38.225,81.800L37.136,83.753L35.553,85.689L32.648,87.300L30.600,87.581L15.401,85.548L12.522,83.401L12.522,79.133L5.285,67.798L9.539,65.854L10.965,65.484L15.919,61.902L15.063,56.517L10.654,52.574L5.000,53.331L5.830,49.459L9.980,42.243L10.006,40.931L7.905,39.506L8.216,36.294L9.617,32.853L10.732,30.802L16.283,28.532L20.147,15.112L28.084,15.525L35.450,12.700L39.288,12.419L52.905,21.765L55.654,23.058L84.184,25.874L82.006,32.791L86.052,35.361L91.887,37.174L94.000,40.250L95.000,41.706L88.697,42.295L84.107,46.766L81.331,53.841L80.423,62.342Z" fill="currentColor" stroke="currentColor" stroke-width="1" stroke-linejoin="round"/>
</svg>