<svg xmlns="http://www.w3.org/2000/svg" viewBox="0 0 100 100" role="img" aria-label="United Arab Emirates">
  <title>United Arab Emirates</title>
  <path d="M93.045,23.744L93.442,23.976L93.871,24.147L94.185,24.214L94.334,24.449L94.744,25.832L94.629,27.729L94.652,27.936L94.714,28.487L94.688,28.640L94.544,28.895L94.562,29.083L94.744,29.410L94.833,29.617L94.916,29.752L94.979,29.912L94.988,30.026L95.000,30.187L94.982,30.417L94.903,30.820L94.843,31.432L94.670,32.326L94.600,35.218L94.595,35.443L94.994,37.066L93.979,37.179L93.894,37.277L93.797,37.387L93.737,38.057L93.703,38.425L93.691,38.567L93.592,38.770L93.068,39.143L92.963,39.246L92.346,39.852L92.010,40.015L91.310,40.102L91.032,40.229L91.028,40.230L90.723,40.995L90.321,41.485L90.207,41.837L90.039,42.048L89.681,42.149L89.285,42.164L89.254,42.159L88.990,42.123L88.418,41.663L87.867,40.250L87.170,39.617L87.036,39.314L87.096,39.055L87.425,38.956L87.686,39.019L87.927,39.143L88.375,39.467L88.300,39.028L88.145,38.124L87.933,37.518L87.425,37.198L87.377,37.191L86.621,37.076L85.902,37.263L85.251,37.676L85.170,37.750L84.639,38.236L84.073,38.956L83.877,39.590L84.034,41.167L84.034,41.553L83.953,42.317L83.991,42.694L84.089,42.913L84.368,43.539L84.430,43.936L83.906,44.419L83.790,45.107L83.528,45.393L83.338,45.677L83.363,46.110L83.597,46.976L83.555,48.087L83.615,48.399L83.734,48.543L84.109,48.798L84.250,48.979L84.293,49.151L84.227,50.145L84.107,50.443L83.381,51.742L83.232,52.101L83.261,52.412L83.485,52.524L84.656,52.782L84.971,52.800L86.018,52.373L86.579,52.609L86.874,53.345L87.094,54.215L87.788,55.470L87.581,55.796L86.399,56.089L84.221,56.985L83.874,56.942L83.387,56.560L83.050,56.619L82.743,56.736L82.455,56.743L81.847,56.640L81.227,56.625L80.693,56.725L80.183,56.933L79.635,57.236L79.271,57.437L78.477,57.741L77.673,57.894L77.598,58.193L77.762,58.563L78.075,58.850L78.753,59.260L79.053,59.710L79.138,60.300L79.198,61.856L79.119,62.129L78.245,63.432L78.075,63.779L77.459,66.325L77.200,66.722L76.503,67.494L76.499,67.497L76.149,68.027L75.940,68.711L75.550,70.757L75.137,72.013L73.357,75.169L72.775,77.143L72.710,77.750L72.710,77.752L72.828,80.746L72.627,83.740L71.384,85.384L71.102,85.435L68.546,85.091L65.945,84.739L63.345,84.389L60.746,84.039L58.149,83.687L55.549,83.336L52.950,82.986L50.351,82.634L47.749,82.283L45.150,81.932L42.551,81.581L39.951,81.230L37.352,80.879L34.753,80.529L32.153,80.179L29.554,79.828L26.955,79.477L23.951,79.071L23.491,78.918L23.117,78.586L22.114,77.281L21.139,76.008L20.164,74.735L19.188,73.462L18.215,72.191L17.240,70.918L16.266,69.645L15.290,68.372L14.316,67.101L13.341,65.828L12.367,64.555L11.391,63.283L10.416,62.011L9.440,60.739L8.466,59.466L7.490,58.193L6.517,56.920L5.452,55.531L5.172,55.048L5.071,54.515L5.110,53.200L5.116,52.671L5.000,51.882L5.399,51.302L5.417,50.395L5.087,49.660L5.456,49.240L5.618,49.589L6.018,50.175L6.095,50.577L6.095,51.761L6.217,52.483L6.483,52.653L6.750,52.361L6.931,51.432L7.057,51.685L7.242,52.322L7.367,52.535L7.455,52.585L7.626,52.601L7.784,52.560L7.884,52.464L7.907,52.366L7.833,52.322L8.192,51.443L8.542,51.177L8.928,51.761L8.980,52.206L8.788,53.520L8.816,53.994L9.044,55.009L9.065,55.230L9.044,55.921L9.083,56.141L9.258,56.559L9.296,56.761L9.488,57.124L9.934,57.242L10.842,57.264L11.061,57.335L11.228,57.432L11.549,57.746L11.718,57.861L11.861,57.861L11.913,57.770L11.805,57.608L11.768,57.385L12.170,57.325L13.238,57.387L13.367,57.350L13.498,57.387L13.731,57.608L14.311,57.888L14.466,57.881L15.255,57.735L15.586,57.825L15.771,57.713L15.958,57.825L16.249,57.684L16.570,57.666L16.908,57.689L17.245,57.671L17.556,57.556L18.268,57.110L18.583,57.062L19.179,57.059L19.427,56.984L19.641,56.803L19.870,56.566L20.119,56.358L20.385,56.270L20.694,56.210L21.053,56.058L21.355,55.852L21.481,55.634L21.586,55.401L22.155,55.155L22.432,54.932L22.678,54.679L23.005,54.433L23.334,54.244L23.588,54.168L23.792,54.017L23.850,53.670L23.856,53.292L23.907,53.047L24.272,52.838L24.612,52.959L24.905,53.242L25.578,54.168L25.788,54.249L25.864,54.194L25.925,54.089L26.089,54.016L26.512,54.029L27.277,54.253L27.683,54.309L27.921,54.268L28.322,54.074L28.523,54.016L28.739,54.019L28.900,54.068L29.030,54.128L29.165,54.168L30.756,54.309L30.936,54.273L31.599,54.016L31.688,53.939L31.713,53.827L31.741,53.738L31.855,53.735L31.951,53.798L32.022,53.887L32.074,53.971L32.110,54.016L32.658,54.472L33.002,54.637L33.749,54.309L34.132,54.457L34.484,54.649L34.800,54.577L34.543,54.425L34.470,54.229L34.462,53.997L34.408,53.735L34.835,53.643L35.327,53.867L35.775,54.234L36.078,54.577L36.337,55.001L36.489,55.111L37.523,55.173L39.915,54.679L40.079,54.679L40.244,54.790L40.499,55.079L40.695,55.215L40.962,55.278L41.239,55.260L41.453,55.150L41.792,55.408L41.993,55.522L42.165,55.570L42.243,55.649L42.483,56.022L42.612,56.142L42.767,56.172L42.982,56.170L43.187,56.133L43.507,55.968L43.699,56.015L43.877,56.105L44.027,56.142L44.604,55.864L44.730,55.774L44.884,55.691L45.063,55.726L45.250,55.802L45.431,55.851L47.706,55.866L48.176,55.807L48.380,55.634L49.527,55.009L50.707,54.814L51.079,54.619L51.471,54.544L51.964,54.309L52.535,54.229L52.731,54.168L52.971,54.018L53.312,53.747L53.619,53.422L53.750,53.112L53.936,52.960L55.165,52.601L56.158,51.869L56.327,51.839L56.478,51.584L56.832,51.603L57.592,51.914L57.733,51.683L58.427,51.144L58.777,50.651L59.518,49.170L59.413,48.655L59.472,48.415L59.773,48.260L59.600,48.143L59.518,48.119L59.518,47.967L59.808,47.994L60.268,48.208L60.540,48.260L60.421,48.002L60.102,47.650L60.038,47.405L60.316,47.536L60.614,47.626L60.882,47.746L61.060,47.967L61.177,47.967L61.120,47.426L60.768,47.255L60.274,47.230L59.773,47.126L58.678,46.388L58.241,46.284L58.241,46.158L58.466,46.093L58.696,45.940L58.888,45.718L58.920,45.848L58.984,46.019L59.134,46.158L59.084,45.948L59.148,45.763L59.390,45.444L59.518,45.444L59.665,46.010L60.027,46.565L60.487,46.910L60.932,46.845L60.818,46.784L60.540,46.553L60.754,46.564L61.156,46.694L61.316,46.705L61.378,46.633L61.539,46.348L61.635,46.284L62.337,44.871L62.026,44.738L61.883,44.555L61.953,44.392L62.273,44.324L62.467,44.199L62.522,43.919L62.630,43.628L62.976,43.470L62.976,43.343L62.813,43.223L62.735,43.013L62.680,42.754L62.594,42.490L62.694,42.342L62.559,42.255L62.413,42.105L62.466,41.776L62.638,41.584L63.370,41.088L63.461,40.951L63.551,40.758L63.657,40.643L64.232,40.909L64.263,40.936L64.538,40.878L64.807,40.693L64.902,40.420L64.648,40.096L66.682,38.903L67.596,38.242L68.163,37.718L68.538,37.467L69.000,37.316L69.040,37.303L69.122,37.276L69.196,37.252L69.244,37.236L69.335,37.181L69.396,37.145L69.429,37.125L69.470,37.101L69.549,37.053L70.068,36.754L69.968,36.333L70.585,36.203L70.672,36.273L72.067,34.634L73.976,32.201L74.072,31.875L74.057,31.593L74.413,31.270L74.711,31.315L74.991,31.716L75.086,31.996L75.008,32.267L74.763,32.645L75.282,32.484L75.382,32.120L75.238,31.669L74.862,30.975L74.812,30.811L74.915,30.632L75.478,30.023L75.642,29.955L75.925,29.970L75.839,29.712L75.852,29.466L75.966,29.261L76.181,29.130L76.370,29.292L76.747,28.970L77.340,28.149L77.456,28.149L77.538,28.398L77.646,28.413L77.755,28.260L77.839,28.008L77.967,28.149L78.221,27.386L78.399,27.054L78.604,26.875L78.372,26.753L78.490,26.503L78.731,26.177L78.860,25.832L78.942,25.484L79.148,25.079L79.435,24.746L79.755,24.622L79.595,24.957L79.389,25.233L79.271,25.486L79.382,25.754L79.672,25.872L80.039,25.808L80.447,25.683L80.842,25.614L80.959,25.453L81.250,24.653L81.414,24.354L81.910,23.824L82.210,23.595L82.854,23.347L83.333,22.672L83.538,22.519L83.707,22.493L83.944,22.418L84.154,22.308L84.246,22.170L84.329,22.121L84.883,21.972L85.549,21.433L86.566,20.151L87.075,19.717L86.964,19.904L86.846,20.324L86.654,20.682L86.730,20.804L86.865,20.840L86.937,20.775L86.976,20.468L87.150,19.888L87.192,19.501L87.311,19.324L88.098,18.585L88.262,18.372L88.403,18.134L88.518,17.841L88.595,17.463L88.467,17.463L88.400,17.653L88.289,17.814L88.145,17.936L87.970,18.010L88.458,17.198L88.863,16.330L89.198,15.026L89.275,14.847L89.709,14.810L90.657,14.565L90.870,14.590L91.163,15.381L91.258,15.801L91.218,16.176L91.094,16.786L91.017,18.627L90.891,18.922L90.530,19.425L90.439,19.732L90.522,20.082L90.957,20.661L91.044,20.916L90.910,21.185L90.669,21.370L90.468,21.584L90.452,21.936L90.541,22.854L90.648,23.100L90.679,23.118L90.752,23.160L91.190,23.238L91.359,23.375L91.544,23.789L91.675,23.943L91.969,24.023L92.269,23.967L93.045,23.744ZM92.700,29.825L92.196,30.206L92.234,30.539L92.294,30.745L92.406,30.915L92.224,31.130L91.724,31.379L91.681,31.887L91.710,32.087L91.940,32.202L92.236,32.286L92.543,32.153L93.096,31.757L93.308,31.574L93.744,31.420L94.266,31.150L94.355,30.585L93.612,30.436L93.262,29.898L92.700,29.825ZM92.745,31.505L92.681,30.956L92.784,30.849L92.947,30.847L93.218,31.039L93.118,31.376L92.745,31.505ZM44.027,53.888L43.700,53.845L43.489,53.769L43.481,53.610L43.772,53.316L43.983,53.186L44.010,53.169L44.010,53.167L44.470,52.996L44.666,52.896L45.022,52.576L45.127,52.507L45.258,52.421L45.339,52.395L45.559,52.322L45.734,52.327L46.008,52.445L46.049,52.454L46.145,52.475L46.273,52.421L46.720,52.054L47.236,51.835L47.441,51.714L47.601,51.494L47.701,51.748L47.678,51.808L47.601,51.914L47.793,52.230L47.879,52.322L48.357,52.625L48.427,52.668L49.067,52.801L49.204,52.857L49.591,53.014L49.782,53.597L49.524,54.066L48.952,54.269L48.282,54.241L47.729,54.016L47.768,53.825L47.624,53.563L47.400,53.497L47.205,53.888L47.345,54.016L46.837,54.348L46.227,54.468L45.606,54.399L45.048,54.168L44.725,53.986L44.722,53.986L44.537,53.922L44.027,53.888ZM54.006,52.475L53.820,52.110L53.418,51.930L52.947,51.795L52.544,51.563L52.338,51.030L52.338,51.028L52.594,50.602L53.000,50.430L53.096,50.516L53.251,50.654L53.727,51.184L53.960,51.444L54.158,51.944L54.156,51.945L54.006,52.475ZM23.790,50.081L24.028,49.741L24.475,49.479L24.912,49.616L25.116,49.942L25.218,50.471L25.179,50.787L24.776,51.319L24.429,51.634L24.121,51.939L23.876,51.675L23.672,51.328L23.447,50.840L23.487,50.432L23.790,50.081ZM37.779,51.748L37.515,51.421L37.251,51.399L36.905,51.215L36.720,51.520L36.007,51.415L35.743,51.374L35.348,51.454L35.281,51.477L35.232,51.476L35.187,51.367L35.196,51.249L35.254,51.100L35.320,50.975L35.378,50.921L36.078,51.073L36.267,51.027L36.748,50.813L36.843,50.724L36.944,50.651L37.560,50.403L37.907,50.241L38.070,50.242L38.252,50.569L38.435,50.671L38.601,50.587L38.642,50.364L38.619,50.143L38.505,49.941L39.206,48.901L39.536,48.667L39.553,48.786L39.637,48.989L39.664,49.100L40.098,49.342L40.102,49.344L39.979,50.136L39.739,50.392L39.005,50.735L38.658,50.957L38.209,51.016L37.944,51.219L37.943,51.443L37.779,51.748ZM57.592,48.119L56.699,47.839L56.699,47.516L57.456,46.804L57.719,46.413L57.847,46.413L57.719,46.846L57.855,47.218L58.185,47.481L58.879,47.839L59.221,48.182L59.236,48.417L58.977,48.503L58.486,48.412L57.592,48.119ZM55.419,51.095L55.250,51.234L55.072,51.327L54.912,51.368L54.707,51.364L54.593,51.300L54.273,50.922L54.036,50.754L53.863,50.674L53.794,50.542L53.890,50.222L54.027,50.035L54.249,49.879L54.515,49.793L54.785,49.801L54.949,50.146L55.135,50.437L55.551,50.922L55.419,51.095ZM56.531,49.484L56.708,49.669L56.723,49.950L56.524,50.546L56.215,50.698L55.704,49.803L55.656,49.660L55.789,49.637L55.996,49.692L56.177,49.808L56.260,49.848L56.285,49.754L56.233,49.645L55.958,49.439L55.898,49.248L56.139,49.219L56.531,49.484ZM18.841,46.068L19.268,46.357L19.393,46.847L19.149,47.276L18.925,47.378L18.653,47.229L18.555,47.104L18.464,47.051L18.345,46.940L18.329,46.665L18.491,46.440L18.633,46.195L18.841,46.068Z" fill="currentColor" stroke="currentColor" stroke-width="1" stroke-linejoin="round"/>
</svg>