<svg xmlns="http://www.w3.org/2000/svg" viewBox="0 0 100 100" role="img" aria-label="Argentina">
  <title>Argentina</title>
  <path d="M42.418,7.801L42.527,7.586L42.589,7.498L42.749,7.347L42.773,7.306L42.778,7.247L42.760,6.996L42.796,6.994L42.843,6.999L42.876,6.990L42.903,6.968L42.923,6.931L42.966,6.877L43.023,6.841L43.261,6.753L43.285,6.733L43.286,6.705L43.273,6.627L43.279,6.605L43.306,6.565L43.321,6.503L43.346,6.302L43.362,6.239L43.389,6.185L43.438,6.135L43.467,6.120L43.490,6.122L43.513,6.131L43.555,6.138L43.589,6.151L43.600,6.148L43.607,6.131L43.612,6.110L43.620,6.098L43.867,6.017L44.149,5.920L44.200,5.873L44.209,5.848L44.222,5.821L44.238,5.799L44.257,5.786L44.283,5.782L44.292,5.788L44.297,5.785L44.310,5.752L44.319,5.712L44.339,5.460L44.440,5.015L44.477,5.000L44.657,5.069L44.749,5.124L44.814,5.209L44.839,5.340L44.850,5.355L45.045,5.395L45.092,5.426L45.363,5.809L45.425,5.861L45.490,5.885L45.786,5.844L45.801,5.835L45.811,5.823L45.821,5.813L45.839,5.810L45.987,5.836L46.099,5.851L46.665,5.843L47.026,5.838L47.424,5.948L47.573,6.048L47.656,6.072L47.676,6.068L47.715,6.048L47.731,6.044L47.749,6.051L47.794,6.059L47.835,6.095L47.882,6.124L47.925,6.135L47.944,6.152L48.001,6.234L48.019,6.266L48.038,6.322L48.039,6.365L48.024,6.403L47.997,6.442L47.976,6.505L48.004,6.552L48.048,6.589L48.077,6.619L48.079,6.648L48.063,6.701L48.062,6.728L48.074,6.748L48.112,6.778L48.120,6.794L48.133,6.856L48.163,6.905L48.281,7.044L48.277,7.084L48.262,7.111L48.244,7.135L48.236,7.165L48.234,7.192L48.224,7.245L48.221,7.276L48.227,7.316L48.240,7.332L48.260,7.340L48.281,7.359L48.337,7.504L48.360,7.526L48.406,7.551L48.434,7.611L48.442,7.684L48.425,7.749L48.451,7.787L48.459,7.913L48.499,7.936L48.495,7.901L48.545,7.693L48.564,7.641L48.565,7.446L48.657,7.039L48.687,6.974L48.797,6.851L48.848,6.763L49.006,6.274L49.021,6.254L49.064,6.227L49.080,6.197L49.147,5.997L49.179,5.845L49.198,5.801L49.209,5.791L49.224,5.786L49.240,5.776L49.256,5.756L49.263,5.735L49.271,5.682L49.291,5.622L49.292,5.606L49.300,5.597L49.330,5.581L49.387,5.569L49.585,5.585L49.627,5.608L49.715,5.700L49.739,5.713L49.837,5.609L49.871,5.586L49.953,5.570L50.619,5.574L51.286,5.579L51.287,5.578L51.601,5.558L51.693,5.579L51.723,5.587L51.729,5.613L51.743,5.715L51.743,5.742L51.737,5.764L51.751,5.797L51.751,5.883L51.767,5.931L51.797,5.968L51.897,6.026L51.988,6.103L52.013,6.135L52.022,6.160L52.025,6.184L52.031,6.203L52.049,6.211L52.070,6.216L52.089,6.228L52.103,6.245L52.115,6.266L52.100,6.266L52.113,6.303L52.105,6.331L52.091,6.355L52.087,6.377L52.102,6.402L52.128,6.419L52.157,6.429L52.181,6.433L52.231,6.448L52.267,6.484L52.318,6.564L52.345,6.578L52.430,6.610L52.449,6.628L52.464,6.669L52.499,6.712L52.647,6.833L52.689,6.852L52.704,6.854L52.780,6.866L52.804,6.875L52.819,6.886L52.825,6.899L52.827,6.912L52.826,6.942L52.831,6.962L52.844,6.966L52.858,6.964L52.870,6.968L52.917,7.033L52.934,7.082L52.922,7.127L52.892,7.176L52.892,7.210L52.920,7.237L52.972,7.266L52.999,7.273L53.011,7.271L53.019,7.276L53.030,7.304L53.015,7.364L53.015,7.399L53.055,7.429L53.029,7.493L53.038,7.507L53.066,7.517L53.080,7.540L53.089,7.571L53.103,7.600L53.161,7.675L53.168,7.695L53.174,7.720L53.182,7.740L53.197,7.749L53.199,7.759L53.218,7.778L53.239,7.795L53.249,7.795L53.257,7.828L53.276,7.860L53.321,7.915L53.352,7.970L53.392,8.070L53.415,8.111L53.420,8.137L53.409,8.200L53.415,8.213L53.415,8.225L53.445,8.277L53.520,8.375L53.757,8.545L53.774,8.565L53.822,8.648L53.846,8.674L53.894,8.706L53.917,8.730L53.940,8.762L53.953,8.788L53.959,8.820L53.960,8.870L53.970,8.917L53.994,8.940L54.025,8.956L54.054,8.981L54.088,9.025L54.106,9.038L54.134,9.047L54.234,9.047L54.265,9.065L54.372,9.197L54.391,9.209L54.416,9.214L54.454,9.215L54.444,9.238L54.434,9.269L54.432,9.296L54.466,9.322L54.486,9.385L54.505,9.400L54.551,9.402L54.590,9.411L54.624,9.428L54.656,9.455L54.681,9.482L54.703,9.500L54.732,9.510L54.781,9.512L54.918,9.584L54.935,9.619L54.948,9.662L54.970,9.699L55.014,9.714L55.033,9.724L55.074,9.773L55.093,9.789L55.107,9.791L55.150,9.787L55.166,9.789L55.192,9.815L55.220,9.852L55.252,9.886L55.289,9.900L55.315,9.924L55.322,9.979L55.315,10.041L55.296,10.085L55.315,10.110L55.352,10.181L55.407,10.218L55.442,10.270L55.467,10.326L55.471,10.362L55.484,10.378L55.514,10.437L55.534,10.461L55.601,10.512L55.682,10.484L55.760,10.529L55.831,10.598L55.892,10.641L55.936,10.647L55.998,10.645L56.122,10.642L56.142,10.649L56.185,10.693L56.205,10.700L56.303,10.694L56.327,10.696L56.351,10.706L56.387,10.730L56.407,10.735L56.409,10.750L56.443,10.836L56.455,10.842L56.531,10.846L56.570,10.868L56.640,10.926L56.771,10.956L56.846,10.953L56.865,10.956L56.888,10.973L56.930,11.017L56.952,11.032L56.972,11.036L57.039,11.032L57.205,11.062L57.364,11.056L57.415,11.042L57.514,11.001L57.558,10.995L57.596,11.006L58.359,11.597L58.440,11.695L58.478,11.754L58.493,11.771L58.514,11.780L58.567,11.788L58.603,11.814L58.643,11.823L58.659,11.837L58.682,11.867L58.705,11.888L58.753,11.920L58.800,11.944L58.813,11.957L58.820,11.976L58.825,12.001L58.833,12.022L58.884,12.049L58.967,12.134L58.986,12.161L59.030,12.256L59.064,12.307L59.134,12.337L59.162,12.375L59.182,12.384L59.214,12.390L59.229,12.404L59.241,12.422L59.261,12.441L59.349,12.476L59.410,12.526L59.460,12.547L59.539,12.608L59.581,12.626L59.621,12.626L59.634,12.629L59.655,12.644L59.697,12.693L59.718,12.711L59.785,12.730L60.192,13.089L60.236,13.102L60.344,13.105L60.374,13.116L60.389,13.130L60.406,13.139L60.419,13.150L60.424,13.172L60.435,13.184L60.903,13.291L60.951,13.319L60.977,13.349L61.028,13.431L61.164,13.608L61.177,13.634L61.183,13.656L61.195,13.671L61.222,13.680L61.246,13.676L61.272,13.660L61.298,13.638L61.358,13.566L61.393,13.535L61.432,13.534L61.623,13.687L61.644,13.728L61.671,13.726L61.818,13.813L61.839,13.815L61.886,13.808L61.906,13.813L61.920,13.836L61.928,13.866L61.941,13.894L61.971,13.905L62.139,13.906L62.181,13.924L62.211,13.955L62.305,14.082L62.337,14.109L62.403,14.147L62.428,14.182L62.497,14.359L62.538,14.426L62.602,14.477L62.603,14.478L62.667,14.668L62.668,14.701L62.800,14.821L62.828,14.857L62.844,14.893L62.846,14.937L62.818,15.172L62.807,15.220L62.782,15.251L62.753,15.259L62.730,15.278L62.720,15.341L62.706,15.358L62.673,15.359L62.610,15.350L62.606,15.362L62.595,15.423L62.587,15.444L62.568,15.459L62.547,15.461L62.524,15.460L62.501,15.462L62.455,15.484L62.429,15.513L62.385,15.592L62.398,15.614L62.414,15.629L62.434,15.640L62.457,15.647L62.435,15.681L62.399,15.724L62.358,15.760L62.319,15.776L62.287,15.799L62.295,15.851L62.327,15.942L62.304,15.980L62.289,15.992L62.260,16.017L62.216,16.044L62.171,16.064L62.165,16.083L62.171,16.102L62.220,16.123L62.222,16.151L62.210,16.182L62.197,16.203L62.123,16.273L62.106,16.314L62.205,16.347L62.204,16.383L62.177,16.426L61.932,16.638L61.861,16.685L61.724,16.743L61.702,16.768L61.682,16.859L61.663,16.915L61.644,16.945L61.636,16.925L61.625,16.910L61.608,16.898L61.586,16.890L61.591,16.938L61.616,16.965L61.650,16.985L61.681,17.010L61.682,17.047L61.646,17.079L61.597,17.102L61.564,17.111L61.547,17.130L61.547,17.174L61.557,17.261L61.552,17.305L61.541,17.344L61.470,17.488L61.455,17.531L61.463,17.565L61.514,17.621L61.507,17.649L61.477,17.674L61.470,17.696L61.464,17.743L61.453,17.785L61.446,17.826L61.455,17.872L61.466,17.887L61.514,17.927L61.527,17.948L61.545,17.986L61.557,18.001L61.543,18.018L61.507,18.048L61.499,18.057L61.500,18.089L61.510,18.113L61.522,18.134L61.528,18.159L61.517,18.176L61.492,18.177L61.425,18.163L61.415,18.153L61.408,18.157L61.397,18.188L61.387,18.239L61.381,18.450L61.373,18.464L61.357,18.467L61.332,18.466L61.297,18.478L61.300,18.505L61.317,18.537L61.324,18.559L61.295,18.594L61.259,18.588L61.222,18.573L61.186,18.586L61.160,18.646L61.185,18.683L61.224,18.717L61.238,18.764L61.210,18.791L61.113,18.800L61.091,18.826L61.072,18.860L61.026,18.881L60.932,18.910L60.899,18.936L60.882,18.970L60.886,19.006L60.918,19.039L60.901,19.077L60.863,19.130L60.844,19.168L60.837,19.189L60.833,19.208L60.831,19.253L60.823,19.267L60.805,19.262L60.805,19.262L60.790,19.251L60.788,19.244L60.788,19.233L60.782,19.214L60.771,19.202L60.770,19.202L60.751,19.215L60.737,19.234L60.727,19.254L60.720,19.276L60.715,19.299L60.715,19.348L60.719,19.390L60.708,19.418L60.601,19.439L60.553,19.472L60.522,19.527L60.511,19.605L60.524,19.640L60.553,19.673L60.605,19.717L60.632,19.769L60.635,19.824L60.626,19.958L60.626,19.960L60.635,19.951L60.824,19.857L61.402,19.800L61.634,19.834L61.665,19.832L61.793,19.805L61.860,19.807L61.860,19.807L61.899,19.817L62.025,19.847L62.026,19.847L62.091,19.879L62.120,19.886L62.214,19.909L62.215,19.909L62.306,19.944L62.306,19.945L62.523,19.996L62.547,20.006L62.548,20.007L62.891,20.206L62.925,20.219L62.938,20.225L62.993,20.231L63.207,20.196L63.263,20.196L63.271,20.198L63.316,20.212L63.335,20.227L63.369,20.265L63.384,20.283L63.407,20.296L63.427,20.303L63.523,20.333L63.524,20.333L63.545,20.345L63.602,20.400L63.621,20.414L63.644,20.422L63.645,20.423L63.695,20.424L63.713,20.427L63.796,20.432L63.865,20.414L64.075,20.282L64.152,20.246L64.229,20.237L64.229,20.237L64.304,20.272L64.435,20.421L64.511,20.475L64.512,20.475L64.590,20.458L64.698,20.361L64.794,20.330L64.847,20.312L64.987,20.335L64.988,20.335L65.073,20.457L65.113,20.531L65.168,20.603L65.232,20.661L65.298,20.691L65.299,20.692L65.367,20.675L65.405,20.609L65.434,20.526L65.476,20.458L65.517,20.405L65.542,20.351L65.550,20.291L65.542,20.217L65.553,20.158L65.602,20.128L65.663,20.109L65.711,20.084L65.788,19.983L65.828,19.948L65.882,19.913L65.937,19.917L65.989,19.929L65.990,19.929L66.132,19.992L66.179,20.003L66.218,20.002L66.230,20.001L66.281,19.992L66.331,19.991L66.374,20.010L66.405,20.061L66.437,20.162L66.456,20.190L66.481,20.206L66.538,20.225L66.666,20.305L66.745,20.233L66.821,20.131L66.881,20.078L66.933,20.068L66.978,20.039L67.013,19.993L67.033,19.931L67.035,19.893L67.030,19.871L67.028,19.853L67.056,19.798L67.061,19.770L67.057,19.741L67.048,19.709L66.996,19.598L66.998,19.557L67.054,19.541L67.089,19.520L67.101,19.472L67.110,19.416L67.135,19.373L67.177,19.368L67.235,19.375L67.287,19.369L67.309,19.326L67.315,19.201L67.328,19.146L67.353,19.094L67.389,19.050L67.426,19.021L67.469,19.006L67.568,18.992L67.671,18.926L67.722,18.927L67.768,18.948L67.807,18.972L67.840,18.984L67.924,18.989L67.973,18.979L68.007,18.946L68.014,18.888L67.985,18.781L68.000,18.735L68.137,18.577L68.180,18.559L68.284,18.549L68.319,18.530L68.349,18.488L68.370,18.448L68.385,18.401L68.413,18.276L68.436,18.223L68.471,18.184L68.522,18.169L68.616,18.169L68.632,18.179L68.642,18.193L68.653,18.200L68.675,18.188L68.705,18.144L68.722,18.084L68.730,18.017L68.732,17.955L68.725,17.905L68.714,17.867L68.712,17.829L68.732,17.780L68.764,17.735L68.823,17.679L68.888,17.594L68.907,17.557L68.917,17.513L68.937,17.348L68.944,17.333L68.946,17.318L68.979,17.233L68.979,17.111L68.974,17.058L68.976,17.045L68.978,17.038L68.995,17.002L69.019,16.962L69.033,16.931L69.025,16.897L68.987,16.843L68.979,16.802L69.023,16.629L69.024,16.569L69.001,16.482L68.991,16.400L68.983,16.371L68.982,16.344L68.995,16.315L69.012,16.306L69.064,16.302L69.082,16.295L69.100,16.254L69.098,16.204L69.082,16.082L69.093,16.038L69.116,15.995L69.136,15.947L69.140,15.887L69.126,15.854L69.078,15.786L69.067,15.749L69.061,15.696L69.023,15.554L69.023,15.483L69.043,15.457L69.117,15.462L69.149,15.438L69.143,15.383L69.109,15.296L69.114,15.249L69.199,15.236L69.229,15.248L69.241,15.281L69.244,15.320L69.258,15.345L69.302,15.333L69.345,15.354L69.383,15.386L69.410,15.430L69.417,15.487L69.418,15.513L69.424,15.541L69.438,15.558L69.459,15.547L69.468,15.524L69.458,15.466L69.459,15.438L69.472,15.416L69.511,15.390L69.527,15.370L69.532,15.344L69.530,15.317L69.532,15.290L69.548,15.265L69.567,15.255L69.585,15.256L69.623,15.274L69.645,15.269L69.680,15.213L69.704,15.195L69.752,15.188L69.783,15.199L69.806,15.232L69.828,15.290L69.844,15.313L69.857,15.298L69.869,15.256L69.888,15.253L69.901,15.254L69.941,15.268L69.983,15.264L69.973,15.217L69.931,15.131L69.947,15.121L69.969,15.126L70.009,15.143L70.036,15.139L70.059,15.122L70.114,15.047L70.127,15.036L70.139,15.031L70.150,15.035L70.159,15.047L70.149,15.098L70.131,15.142L70.119,15.187L70.125,15.240L70.136,15.264L70.155,15.290L70.176,15.309L70.196,15.309L70.204,15.291L70.203,15.262L70.198,15.231L70.197,15.205L70.211,15.181L70.232,15.196L70.268,15.237L70.295,15.231L70.308,15.220L70.322,15.214L70.351,15.222L70.391,15.249L70.418,15.288L70.432,15.335L70.436,15.391L70.454,15.460L70.496,15.453L70.577,15.395L70.602,15.423L70.624,15.482L70.648,15.581L70.644,15.604L70.635,15.623L70.629,15.648L70.633,15.683L70.647,15.712L70.687,15.758L70.705,15.784L70.724,15.834L70.731,15.882L70.722,16.041L70.747,16.186L70.745,16.214L70.738,16.237L70.733,16.263L70.739,16.296L70.754,16.325L70.825,16.400L70.825,16.400L70.825,16.400L70.884,16.475L70.908,16.557L70.923,16.647L70.951,16.740L71.053,16.906L71.092,16.992L71.103,17.101L71.079,17.190L70.988,17.337L70.970,17.416L70.995,17.669L70.994,17.752L70.994,17.753L70.964,17.782L70.949,17.801L70.942,17.820L70.946,17.846L70.954,17.875L70.962,17.892L70.965,17.883L70.959,17.929L70.932,18.023L70.931,18.074L70.942,18.176L70.938,18.226L70.924,18.276L70.908,18.291L70.887,18.295L70.870,18.302L70.864,18.331L70.874,18.365L70.892,18.381L70.911,18.390L70.920,18.398L70.922,18.425L70.908,18.463L70.910,18.491L70.917,18.495L70.942,18.497L70.950,18.502L70.974,18.602L70.999,18.763L70.995,18.846L70.970,18.943L70.877,19.169L70.867,19.186L70.852,19.196L70.819,19.201L70.808,19.210L70.799,19.245L70.803,19.322L70.799,19.359L70.789,19.377L70.758,19.400L70.749,19.414L70.750,19.434L70.770,19.460L70.769,19.482L70.746,19.528L70.721,19.547L70.706,19.530L70.687,19.486L70.664,19.445L70.636,19.429L70.617,19.448L70.599,19.533L70.578,19.559L70.544,19.553L70.516,19.525L70.490,19.504L70.462,19.521L70.457,19.557L70.468,19.593L70.467,19.622L70.425,19.633L70.410,19.628L70.401,19.618L70.392,19.611L70.375,19.613L70.363,19.629L70.347,19.679L70.191,19.876L70.114,19.886L70.051,19.860L70.055,19.801L70.037,19.782L70.011,19.763L69.984,19.810L69.923,19.995L69.914,20.015L69.903,20.032L69.895,20.055L69.899,20.111L69.895,20.134L69.879,20.143L69.854,20.146L69.832,20.156L69.822,20.181L69.817,20.204L69.803,20.230L69.788,20.252L69.778,20.263L69.735,20.265L69.704,20.239L69.678,20.203L69.649,20.171L69.652,20.258L69.649,20.283L69.635,20.312L69.615,20.331L69.598,20.334L69.591,20.310L69.583,20.248L69.562,20.217L69.529,20.206L69.444,20.211L69.409,20.220L69.401,20.250L69.437,20.310L69.435,20.346L69.393,20.376L69.255,20.423L69.234,20.422L69.212,20.411L69.204,20.397L69.183,20.348L69.176,20.337L69.159,20.333L69.148,20.327L69.136,20.329L69.117,20.346L69.103,20.370L69.093,20.399L69.082,20.448L69.059,20.498L69.030,20.529L69.005,20.527L68.995,20.477L68.988,20.465L68.973,20.467L68.958,20.483L68.951,20.513L68.952,20.550L68.950,20.570L68.942,20.583L68.923,20.596L68.903,20.600L68.856,20.595L68.834,20.596L68.745,20.630L68.732,20.625L68.729,20.619L68.715,20.600L68.711,20.596L68.703,20.590L68.707,20.577L68.714,20.561L68.719,20.550L68.707,20.520L68.679,20.528L68.650,20.555L68.632,20.579L68.619,20.634L68.612,20.702L68.594,20.760L68.551,20.784L68.500,20.783L68.482,20.791L68.486,20.893L68.475,21.010L68.463,21.071L68.450,21.098L68.408,21.117L68.298,21.229L68.247,21.237L68.208,21.223L68.171,21.201L68.130,21.190L68.094,21.210L68.115,21.253L68.180,21.321L68.211,21.377L68.203,21.406L68.169,21.406L68.123,21.375L68.101,21.386L68.054,21.387L68.036,21.395L68.030,21.412L68.013,21.487L67.970,21.476L67.924,21.426L67.890,21.414L67.847,21.433L67.816,21.477L67.791,21.522L67.714,21.591L67.694,21.600L67.671,21.595L67.626,21.577L67.600,21.580L67.567,21.615L67.560,21.665L67.550,21.710L67.505,21.729L67.484,21.731L67.468,21.737L67.459,21.751L67.455,21.775L67.458,21.833L67.453,21.848L67.440,21.875L67.344,22.001L67.332,22.023L67.281,22.040L67.258,22.043L67.244,22.035L67.235,22.018L67.221,22.010L67.194,22.023L67.185,22.037L67.163,22.099L67.154,22.109L67.126,22.133L67.113,22.146L67.104,22.167L67.101,22.188L67.093,22.204L67.069,22.209L67.043,22.200L67.038,22.179L67.040,22.155L67.033,22.137L66.984,22.126L66.959,22.160L66.945,22.200L66.944,22.205L66.925,22.228L66.905,22.244L66.816,22.341L66.681,22.393L66.629,22.437L66.641,22.507L66.667,22.528L66.751,22.572L66.779,22.581L66.809,22.594L66.831,22.626L66.859,22.693L66.830,22.821L66.816,22.860L66.795,22.892L66.770,22.913L66.751,22.904L66.742,22.850L66.709,22.800L66.631,22.777L66.544,22.765L66.481,22.747L66.385,22.793L66.346,22.832L66.358,22.888L66.365,22.910L66.365,23.037L66.362,23.056L66.354,23.068L66.336,23.083L66.318,23.090L66.249,23.099L66.191,23.133L66.122,23.153L66.101,23.191L66.098,23.239L66.103,23.288L66.100,23.394L66.060,23.457L65.928,23.563L65.755,23.823L65.683,23.877L65.584,23.898L65.540,23.920L65.521,23.963L65.508,24.194L65.462,24.289L65.316,24.386L65.275,24.492L65.273,24.601L65.265,24.654L65.239,24.704L65.205,24.727L65.058,24.769L64.984,24.813L64.908,24.873L64.838,24.951L64.782,25.046L64.767,25.081L64.755,25.120L64.753,25.159L64.768,25.195L64.746,25.248L64.711,25.363L64.687,25.407L64.651,25.445L64.624,25.466L64.549,25.509L64.530,25.524L64.514,25.541L64.502,25.561L64.491,25.585L64.488,25.612L64.489,25.642L64.486,25.667L64.451,25.689L64.435,25.718L64.423,25.752L64.419,25.779L64.410,25.800L64.244,25.964L64.229,26.002L64.212,26.026L64.129,26.102L64.099,26.141L64.070,26.233L64.008,26.308L63.998,26.336L63.982,26.364L63.827,26.550L63.787,26.588L63.744,26.604L63.650,26.606L63.561,26.621L63.470,26.660L63.409,26.721L63.373,26.811L63.351,27.127L63.337,27.169L63.154,27.328L62.954,27.611L62.864,27.681L62.821,27.698L62.730,27.716L62.683,27.717L62.665,27.743L62.674,27.803L62.704,27.919L62.689,28.024L62.643,28.111L62.226,28.534L62.167,28.614L62.141,28.711L62.149,28.817L62.197,28.922L62.228,28.974L62.275,29.087L62.293,29.147L62.312,29.243L62.327,29.313L62.332,29.362L62.339,29.429L62.341,29.542L62.339,29.570L62.327,29.635L62.316,29.676L62.289,29.687L62.240,29.681L62.150,29.707L62.110,29.736L62.094,29.784L62.107,29.815L62.197,29.959L62.214,30.086L62.175,30.178L62.121,30.268L62.094,30.388L62.108,30.508L62.108,30.578L62.087,30.609L62.043,30.712L62.028,30.729L61.993,30.760L61.978,30.777L61.959,30.833L61.948,30.956L61.928,31.007L61.894,31.038L61.815,31.091L61.774,31.128L61.747,31.212L61.799,31.281L61.824,31.302L61.879,31.348L61.935,31.426L61.950,31.546L61.931,31.665L61.803,32.083L61.781,32.122L61.730,32.144L61.630,32.166L61.583,32.188L61.549,32.215L61.491,32.287L61.477,32.343L61.503,32.397L61.570,32.480L61.591,32.565L61.599,32.680L61.593,32.802L61.570,32.907L61.524,32.990L61.511,33.046L61.535,33.103L61.680,33.313L61.702,33.392L61.692,33.474L61.557,33.686L61.504,33.806L61.484,33.835L61.483,33.842L61.482,33.835L61.440,33.956L61.435,34.077L61.458,34.410L61.498,34.596L61.527,34.873L61.547,34.927L61.603,35.026L61.615,35.068L61.608,35.119L61.576,35.223L61.569,35.283L61.591,35.405L61.596,35.473L61.577,35.503L61.498,35.576L61.474,35.586L61.422,35.595L61.395,35.595L61.095,35.542L61.019,35.576L61.009,35.590L60.995,35.615L60.991,35.639L61.032,35.659L61.032,35.679L61.024,35.707L61.019,35.734L61.013,35.793L60.991,35.914L60.989,35.966L61.023,36.083L61.033,36.144L61.012,36.171L60.974,36.193L60.932,36.243L60.873,36.337L60.833,36.435L60.801,36.553L60.780,36.674L60.771,36.782L60.786,36.904L60.781,36.931L60.760,36.985L60.742,37.185L60.743,37.246L60.761,37.354L60.795,37.442L60.912,37.617L60.930,37.663L60.941,37.716L60.949,37.839L60.976,37.988L60.971,38.016L60.960,38.047L60.959,38.062L60.959,38.071L60.982,38.082L61.002,38.087L61.053,38.113L61.069,38.127L61.085,38.169L61.092,38.222L61.090,38.341L61.077,38.427L61.075,38.460L61.080,38.475L61.100,38.522L61.104,38.552L61.033,38.635L61.024,38.654L61.013,38.692L61.004,38.710L60.972,38.750L60.931,38.781L60.889,38.794L60.851,38.775L60.833,38.771L60.756,38.767L60.743,38.781L60.735,38.799L60.723,38.815L60.698,38.823L60.821,38.897L60.858,38.932L60.918,38.984L60.943,39.034L60.904,39.120L60.878,39.144L60.854,39.174L60.823,39.222L60.825,39.258L60.840,39.296L60.895,39.351L60.903,39.373L60.900,39.428L60.902,39.454L60.950,39.487L60.988,39.509L61.032,39.545L61.104,39.592L61.137,39.629L61.176,39.687L61.203,39.753L61.239,39.821L61.406,39.939L61.504,40.032L61.579,40.073L61.656,40.082L61.708,40.093L61.772,40.134L61.842,40.151L61.907,40.173L61.981,40.274L62.038,40.298L62.157,40.285L62.180,40.288L62.222,40.337L62.317,40.403L62.418,40.504L62.571,40.570L62.747,40.715L62.920,40.784L62.993,40.869L63.080,40.939L63.286,41.154L63.361,41.260L63.454,41.370L63.499,41.422L63.599,41.588L63.683,41.754L63.743,41.876L63.755,41.942L63.719,42.058L63.644,42.161L63.552,42.289L63.341,42.633L63.279,42.717L63.252,42.815L63.239,42.886L63.219,42.998L63.193,43.083L63.214,43.182L63.235,43.290L63.237,43.368L63.241,43.392L63.250,43.421L63.289,43.457L63.298,43.484L63.302,43.492L63.357,43.642L63.364,43.700L63.372,43.724L63.410,43.744L63.450,43.788L63.458,43.800L63.471,43.860L63.501,43.915L63.797,44.218L64.015,44.357L64.111,44.377L64.159,44.403L64.178,44.438L64.141,44.477L64.156,44.495L64.195,44.455L64.238,44.425L64.330,44.385L64.379,44.376L64.519,44.385L64.496,44.324L64.501,44.283L64.530,44.275L64.577,44.311L64.589,44.344L64.615,44.453L64.628,44.477L64.668,44.526L64.663,44.865L64.714,45.013L64.721,45.079L64.730,45.446L64.737,45.756L64.729,45.873L64.691,45.964L64.471,46.263L64.263,46.598L63.986,47.100L63.908,47.276L63.675,47.609L63.601,47.694L63.371,47.906L63.287,48.049L63.262,48.074L63.228,48.093L63.056,48.310L62.993,48.411L62.942,48.520L62.906,48.632L62.886,48.744L62.878,48.862L62.882,48.879L62.900,48.910L62.906,48.929L62.904,48.945L62.894,48.971L62.891,48.982L62.897,49.061L62.891,49.093L62.843,49.192L62.768,49.278L62.572,49.419L62.351,49.547L62.200,49.661L61.867,49.861L61.795,49.874L61.767,49.888L61.657,49.983L61.577,50.029L61.323,50.133L61.244,50.181L61.205,50.198L61.018,50.229L60.861,50.284L60.705,50.377L60.361,50.457L59.914,50.613L59.793,50.694L59.727,50.710L59.653,50.742L59.050,50.864L58.447,50.986L58.098,51.134L58.051,51.140L57.902,51.134L56.936,51.318L56.600,51.375L56.270,51.417L55.832,51.505L55.594,51.501L55.541,51.487L55.513,51.485L55.487,51.489L55.469,51.500L55.440,51.523L55.244,51.574L54.832,51.520L54.640,51.523L54.502,51.568L54.481,51.587L54.450,51.602L54.117,51.554L54.088,51.529L54.050,51.518L54.028,51.492L54.016,51.485L53.998,51.485L53.983,51.492L53.971,51.500L53.959,51.505L53.872,51.523L53.769,51.519L53.371,51.402L53.292,51.362L53.230,51.305L53.188,51.226L53.152,51.129L53.125,51.079L53.094,51.058L52.752,51.031L52.717,51.012L52.668,50.995L52.623,51.025L52.601,51.069L52.622,51.095L52.609,51.152L52.648,51.253L52.635,51.300L52.664,51.274L52.693,51.273L52.716,51.292L52.725,51.327L52.719,51.428L52.725,51.448L52.749,51.464L52.778,51.463L52.847,51.448L52.846,51.461L52.832,51.496L52.820,51.538L52.826,51.577L52.774,51.605L52.753,51.630L52.725,51.726L52.702,51.783L52.689,51.808L52.673,51.829L52.669,51.847L52.682,51.868L52.699,51.890L52.709,51.913L52.707,51.962L52.696,52.004L52.692,52.046L52.709,52.096L52.746,52.140L52.841,52.213L52.883,52.262L52.850,52.261L52.824,52.254L52.768,52.225L52.738,52.260L52.757,52.288L52.804,52.308L52.855,52.319L53.020,52.325L53.072,52.337L53.239,52.421L53.329,52.487L53.377,52.558L53.379,52.591L53.370,52.623L53.354,52.651L53.334,52.672L53.307,52.684L53.290,52.678L53.277,52.665L53.262,52.653L53.219,52.631L53.097,52.523L53.058,52.467L53.050,52.452L53.038,52.423L53.029,52.411L53.012,52.402L53.003,52.405L52.995,52.411L52.985,52.411L52.945,52.402L52.826,52.411L52.831,52.436L52.838,52.463L52.850,52.487L52.868,52.505L52.891,52.508L52.919,52.504L52.944,52.508L52.955,52.533L52.973,52.588L53.014,52.645L53.101,52.727L53.141,52.749L53.245,52.777L53.298,52.781L53.310,52.793L53.316,52.820L53.321,52.855L53.311,52.884L53.286,52.908L53.275,52.932L53.269,53.122L53.254,53.152L53.244,53.183L53.191,53.552L53.186,53.793L53.175,53.839L53.162,53.837L53.088,53.882L53.080,53.894L52.920,53.867L52.873,53.839L52.781,53.765L52.773,53.794L52.782,53.822L52.826,53.877L52.774,53.901L52.761,53.923L52.766,53.958L52.768,54.025L52.759,54.072L52.731,54.169L52.717,54.261L52.675,54.373L52.658,54.396L52.651,54.423L52.709,54.581L52.706,54.638L52.674,54.751L52.665,54.795L52.646,54.848L52.601,54.876L52.548,54.894L52.506,54.915L52.470,54.951L52.432,54.999L52.402,55.054L52.389,55.109L52.399,55.148L52.461,55.266L52.494,55.426L52.513,55.451L52.513,55.463L52.548,55.526L52.569,55.542L52.635,55.563L52.707,55.611L52.731,55.619L52.739,55.633L52.737,55.697L52.745,55.711L52.775,55.735L52.799,55.778L52.827,55.803L52.868,55.768L52.897,55.891L52.897,55.960L52.862,55.990L52.760,55.972L52.749,55.961L52.717,55.912L52.694,55.898L52.693,55.923L52.696,55.944L52.704,55.963L52.717,55.981L52.731,56.009L52.727,56.031L52.716,56.044L52.709,56.046L52.729,56.087L52.745,56.097L52.910,56.000L52.975,55.975L53.043,55.972L53.018,56.002L52.942,56.058L52.926,56.092L52.922,56.133L52.903,56.215L52.898,56.260L52.889,56.295L52.826,56.418L52.768,56.565L52.712,56.637L52.397,56.799L52.142,56.954L51.998,57.011L51.962,57.037L51.923,57.073L51.882,57.093L51.835,57.101L51.780,57.104L51.729,57.094L51.709,57.101L51.684,57.130L51.629,57.176L51.597,57.212L51.446,57.251L51.195,57.380L51.097,57.401L50.636,57.382L50.544,57.410L50.494,57.417L50.292,57.399L49.990,57.417L49.656,57.411L49.561,57.390L49.471,57.343L49.259,57.145L49.164,57.104L49.076,57.106L49.055,57.093L49.050,57.067L49.058,57.040L49.078,57.001L49.057,56.980L49.008,56.993L48.950,57.016L48.904,57.028L48.819,57.006L48.304,56.740L48.018,56.665L47.822,56.566L47.631,56.523L47.528,56.515L47.380,56.530L47.312,56.524L47.257,56.505L47.255,56.464L47.294,56.436L47.349,56.419L47.387,56.427L47.378,56.474L47.392,56.472L47.409,56.466L47.421,56.459L47.422,56.455L47.550,56.457L47.588,56.452L47.609,56.433L47.591,56.377L47.528,56.354L47.492,56.329L47.553,56.269L47.501,56.233L47.301,56.186L47.182,56.201L47.107,56.233L47.087,56.250L47.125,56.255L47.194,56.237L47.233,56.250L47.204,56.291L47.212,56.315L47.238,56.334L47.262,56.360L47.046,56.352L47.008,56.369L46.980,56.400L46.810,56.532L46.790,56.555L46.782,56.580L46.784,56.640L46.776,56.665L46.746,56.716L46.722,56.773L46.705,56.835L46.696,56.898L46.697,57.009L46.758,57.470L46.842,57.790L46.846,57.874L46.900,58.027L46.913,58.112L46.939,58.195L47.055,58.317L47.087,58.400L47.083,58.478L47.065,58.569L47.038,58.651L47.008,58.706L46.990,58.781L47.012,58.878L47.073,59.031L47.069,59.128L47.031,59.245L46.942,59.439L46.911,59.555L46.921,59.649L46.953,59.716L47.058,59.939L47.127,60.031L47.206,60.104L47.371,60.211L47.399,60.217L47.445,60.214L47.469,60.216L47.486,60.226L47.521,60.254L47.572,60.281L47.626,60.300L47.669,60.309L47.775,60.310L47.823,60.322L47.865,60.357L47.910,60.386L47.960,60.380L48.011,60.359L48.062,60.348L48.120,60.352L48.148,60.360L48.169,60.376L48.199,60.414L48.204,60.432L48.147,60.456L48.105,60.496L47.943,60.719L47.929,60.747L47.912,60.829L47.926,60.852L47.988,60.867L48.159,60.854L48.245,60.896L48.318,60.895L48.391,60.882L48.438,60.867L48.486,60.843L48.520,60.832L48.918,60.858L48.969,60.845L48.991,60.801L49.001,60.795L49.062,60.737L49.076,60.712L49.079,60.694L49.078,60.645L49.076,60.631L49.064,60.616L49.062,60.598L49.067,60.590L49.077,60.585L49.087,60.577L49.092,60.560L49.087,60.528L49.067,60.475L49.062,60.449L49.043,60.417L49.000,60.398L48.904,60.386L48.674,60.397L48.560,60.384L48.468,60.330L48.539,60.294L48.845,60.254L49.106,60.113L49.278,59.994L49.462,59.914L49.591,59.877L49.679,59.898L49.756,59.972L49.804,60.051L49.869,60.214L49.878,60.263L49.892,60.306L49.925,60.342L49.993,60.401L50.041,60.499L50.057,60.610L50.042,60.882L50.080,61.291L50.053,61.401L50.000,61.513L49.966,61.621L49.993,61.720L49.885,61.858L49.747,61.919L49.311,62.013L49.178,62.013L49.134,62.020L49.040,62.064L48.960,62.078L48.895,62.033L48.845,61.978L48.774,61.874L48.735,61.830L48.693,61.812L48.656,61.784L48.656,61.722L48.674,61.659L48.685,61.626L48.725,61.462L48.750,61.441L48.774,61.430L48.759,61.406L48.713,61.367L48.703,61.361L48.671,61.347L48.660,61.337L48.651,61.319L48.642,61.312L48.564,61.272L48.537,61.241L48.526,61.191L48.505,61.155L48.455,61.124L48.366,61.087L48.261,61.059L48.039,61.057L47.885,61.081L47.833,61.099L47.783,61.123L47.729,61.168L47.655,61.183L47.631,61.197L47.615,61.211L47.522,61.333L47.484,61.369L47.444,61.384L47.338,61.394L47.233,61.423L47.183,61.457L47.157,61.498L47.138,61.545L47.109,61.598L47.043,61.667L47.029,61.708L47.044,61.773L47.075,61.811L47.160,61.832L47.229,61.882L47.364,61.923L47.624,62.044L47.696,62.091L47.778,62.163L47.820,62.191L47.887,62.207L47.936,62.232L47.959,62.239L47.991,62.238L48.047,62.224L48.101,62.220L48.122,62.223L48.139,62.231L48.172,62.267L48.210,62.288L48.228,62.304L48.270,62.329L48.323,62.328L48.493,62.262L48.519,62.259L48.521,62.271L48.548,62.341L48.538,62.375L48.493,62.419L48.240,62.578L47.990,62.674L47.566,62.792L47.188,63.041L47.121,63.122L47.079,63.159L47.036,63.189L47.000,63.203L46.977,63.263L46.979,63.311L46.992,63.358L47.000,63.416L46.986,63.463L46.952,63.493L46.912,63.517L46.740,63.686L46.660,63.826L46.624,63.871L46.510,63.967L46.485,63.982L46.404,64.120L46.397,64.147L46.367,64.187L46.361,64.213L46.364,64.370L46.375,64.412L46.420,64.501L46.408,64.536L46.396,64.593L46.394,64.644L46.412,64.667L46.440,64.687L46.457,64.734L46.470,64.786L46.485,64.824L46.494,64.862L46.485,64.966L46.492,65.001L46.522,65.011L46.561,64.999L46.584,65.031L46.535,65.066L46.554,65.128L46.556,65.172L46.597,65.198L46.673,65.194L46.620,65.235L46.577,65.281L46.564,65.326L46.568,65.366L46.573,65.405L46.600,65.420L46.613,65.470L46.580,65.486L46.513,65.498L46.470,65.516L46.435,65.549L46.414,65.640L46.418,65.706L46.423,65.748L46.451,65.788L46.465,65.807L46.483,65.817L46.501,65.835L46.492,65.862L46.499,65.886L46.505,65.914L46.534,65.930L46.525,65.950L46.521,65.973L46.547,66.004L46.583,66.002L46.599,66.014L46.600,66.061L46.609,66.090L46.584,66.100L46.572,66.124L46.570,66.145L46.543,66.148L46.518,66.150L46.505,66.167L46.496,66.196L46.476,66.199L46.463,66.214L46.477,66.226L46.478,66.240L46.459,66.246L46.455,66.252L46.470,66.260L46.463,66.269L46.439,66.266L46.423,66.251L46.412,66.257L46.409,66.272L46.421,66.288L46.413,66.302L46.399,66.308L46.389,66.320L46.372,66.326L46.366,66.345L46.377,66.354L46.400,66.359L46.408,66.373L46.403,66.387L46.392,66.404L46.386,66.420L46.404,66.436L46.417,66.431L46.431,66.429L46.441,66.423L46.470,66.431L46.469,66.446L46.458,66.460L46.460,66.474L46.475,66.482L46.477,66.495L46.454,66.501L46.426,66.494L46.414,66.502L46.406,66.515L46.401,66.534L46.390,66.540L46.382,66.523L46.389,66.495L46.378,66.473L46.353,66.470L46.330,66.476L46.321,66.491L46.308,66.492L46.295,66.486L46.278,66.495L46.275,66.509L46.285,66.531L46.302,66.543L46.303,66.560L46.285,66.569L46.261,66.563L46.246,66.574L46.235,66.592L46.241,66.616L46.263,66.633L46.281,66.634L46.294,66.649L46.313,66.652L46.309,66.668L46.287,66.684L46.276,66.682L46.273,66.657L46.257,66.658L46.246,66.669L46.238,66.685L46.232,66.705L46.220,66.692L46.203,66.683L46.199,66.657L46.185,66.649L46.176,66.654L46.170,66.650L46.159,66.640L46.140,66.649L46.115,66.656L46.090,66.658L46.082,66.675L46.081,66.697L46.092,66.724L46.061,66.722L46.052,66.736L46.009,66.733L45.918,66.775L45.843,66.851L45.800,66.837L45.705,66.906L45.669,66.946L45.646,66.985L45.629,67.006L45.616,67.026L45.594,67.086L45.599,67.161L45.595,67.203L45.585,67.242L45.576,67.266L45.548,67.274L45.527,67.289L45.528,67.345L45.546,67.359L45.533,67.368L45.525,67.391L45.552,67.452L45.590,67.463L45.615,67.462L45.623,67.473L45.640,67.475L45.649,67.488L45.660,67.506L45.695,67.505L45.695,67.506L45.725,67.492L45.760,67.502L45.801,67.531L45.854,67.522L45.897,67.563L45.934,67.576L45.963,67.620L45.937,67.625L45.907,67.656L45.882,67.669L45.871,67.687L45.852,67.700L45.825,67.691L45.807,67.712L45.785,67.730L45.797,67.762L45.823,67.787L45.831,67.824L45.795,67.815L45.772,67.801L45.750,67.823L45.760,67.840L45.791,67.879L45.705,67.932L45.660,67.919L45.617,67.924L45.605,67.974L45.512,67.899L45.476,67.868L45.403,67.877L45.366,67.878L45.336,67.913L45.308,67.898L45.312,67.849L45.285,67.813L45.253,67.816L45.220,67.813L45.183,67.826L45.181,67.875L45.187,67.911L45.143,67.909L45.084,67.936L45.025,67.917L44.980,67.864L44.914,67.812L44.854,67.815L44.715,67.773L44.592,67.794L44.524,67.785L44.480,67.847L44.399,67.910L44.352,67.960L44.312,67.932L44.281,67.924L44.236,67.922L44.208,67.921L44.171,67.932L44.159,67.953L44.115,67.946L44.092,67.976L43.958,68.012L43.896,68.043L43.838,68.099L43.835,68.161L43.940,68.190L43.985,68.208L43.946,68.260L43.738,68.186L43.703,68.181L43.702,68.255L43.798,68.275L43.841,68.327L43.838,68.389L43.760,68.385L43.530,68.384L43.283,68.424L43.107,68.441L42.979,68.498L42.911,68.553L42.810,68.626L42.692,68.751L42.625,68.864L42.545,68.956L42.474,69.052L42.402,69.161L42.356,69.234L42.257,69.321L42.207,69.400L42.177,69.431L42.126,69.464L42.099,69.517L42.074,69.587L42.074,69.670L42.078,69.713L42.119,69.749L42.109,69.775L42.095,69.790L42.058,69.794L42.057,69.833L42.046,69.866L42.048,69.884L42.065,69.905L42.056,69.932L42.030,69.952L41.987,69.944L41.923,69.990L41.891,70.016L41.863,70.036L41.824,70.137L41.759,70.180L41.737,70.232L41.693,70.283L41.668,70.329L41.699,70.396L41.647,70.422L41.603,70.490L41.596,70.509L41.529,70.704L41.512,70.779L41.506,70.861L41.510,70.952L41.611,71.381L41.683,71.595L41.731,71.695L41.932,72.045L42.055,72.150L42.116,72.201L42.220,72.231L42.286,72.250L42.308,72.272L42.337,72.325L42.419,72.379L42.506,72.396L42.554,72.421L42.585,72.501L42.655,72.558L42.729,72.662L42.759,72.726L42.781,72.731L42.810,72.733L42.830,72.741L42.850,72.779L42.867,72.788L42.889,72.805L43.077,72.995L43.201,73.165L43.282,73.233L43.467,73.317L43.548,73.311L43.616,73.354L43.703,73.325L43.746,73.345L43.789,73.341L43.833,73.329L43.878,73.325L43.912,73.337L43.981,73.373L44.015,73.381L44.131,73.371L44.167,73.381L44.190,73.396L44.304,73.415L44.524,73.457L44.767,73.438L44.888,73.397L44.942,73.387L44.992,73.394L45.120,73.469L45.201,73.476L45.250,73.522L45.272,73.593L45.322,73.630L45.361,73.670L45.380,73.686L45.490,73.767L45.468,73.820L45.505,73.966L45.533,74.052L45.557,74.139L45.528,74.321L45.509,74.594L45.454,74.752L45.393,74.927L45.276,75.223L45.235,75.244L45.172,75.246L45.115,75.235L45.006,75.220L44.881,75.216L44.818,75.266L44.746,75.345L44.690,75.379L44.635,75.397L44.503,75.457L44.368,75.540L44.321,75.552L44.157,75.545L44.124,75.552L44.227,75.583L44.311,75.576L44.474,75.495L44.525,75.482L44.643,75.456L44.844,75.357L44.901,75.301L45.004,75.284L45.099,75.292L45.157,75.298L45.194,75.336L45.230,75.474L45.260,75.595L45.316,75.646L45.393,75.663L45.454,75.682L45.398,75.718L45.383,75.747L45.427,75.769L45.454,75.781L45.402,75.794L45.347,75.813L45.295,75.820L45.273,75.770L45.162,75.738L45.103,75.762L45.063,75.819L45.051,75.868L45.097,75.896L45.083,75.963L45.075,75.977L45.062,75.992L45.057,76.024L45.016,76.048L45.025,76.075L45.081,76.114L45.154,76.133L45.166,76.176L45.124,76.228L45.066,76.239L45.048,76.204L45.009,76.190L44.970,76.211L44.917,76.209L44.819,76.218L44.758,76.235L44.719,76.254L44.669,76.289L44.652,76.354L44.625,76.394L44.611,76.422L44.522,76.459L44.444,76.486L44.388,76.577L44.311,76.602L44.277,76.635L44.235,76.695L44.196,76.790L44.226,76.875L44.201,76.884L44.130,76.871L44.057,76.868L43.998,76.868L43.992,76.881L43.954,76.908L43.966,76.945L43.956,77.003L43.887,77.041L43.794,77.068L43.728,77.067L43.569,77.087L43.479,77.152L43.360,77.206L43.310,77.258L43.234,77.308L43.172,77.380L43.131,77.404L43.125,77.462L43.112,77.516L43.063,77.533L43.008,77.555L42.857,77.575L42.736,77.663L42.587,77.743L42.539,77.795L42.520,77.929L42.438,78.008L42.420,78.074L42.409,78.135L42.304,78.208L42.147,78.267L41.969,78.367L41.649,78.669L41.610,78.756L41.579,78.855L41.565,78.915L41.525,78.946L41.488,78.978L41.483,79.047L41.525,79.062L41.536,79.108L41.506,79.126L41.490,79.142L41.451,79.156L41.439,79.178L41.430,79.205L41.413,79.232L41.398,79.299L41.340,79.350L41.277,79.369L41.297,79.395L41.323,79.421L41.337,79.448L41.320,79.480L41.290,79.487L41.261,79.512L41.223,79.532L41.249,79.552L41.248,79.588L41.188,79.639L41.068,79.653L41.065,79.669L41.103,79.685L41.148,79.686L41.292,79.683L41.350,79.632L41.382,79.536L41.378,79.465L41.411,79.427L41.423,79.349L41.460,79.308L41.479,79.295L41.510,79.304L41.541,79.343L41.541,79.395L41.533,79.500L41.444,79.646L41.437,79.694L41.395,79.876L41.345,80.072L41.332,80.147L41.332,80.266L41.317,80.330L41.307,80.440L41.319,80.481L41.278,80.740L41.211,80.921L41.193,80.982L41.161,81.040L41.147,81.076L41.136,81.088L41.063,81.209L40.932,81.323L40.747,81.448L40.548,81.568L40.349,81.640L40.162,81.669L40.014,81.657L39.985,81.650L39.964,81.631L39.911,81.557L39.863,81.535L39.815,81.470L39.785,81.417L39.766,81.346L39.729,81.279L39.678,81.222L39.605,81.171L39.561,81.103L39.546,81.044L39.503,80.950L39.449,80.884L39.350,80.722L39.323,80.677L39.285,80.644L39.235,80.616L39.184,80.599L39.141,80.595L39.274,80.671L39.302,80.703L39.314,80.744L39.373,80.839L39.447,80.948L39.485,81.069L39.486,81.136L39.452,81.163L39.382,81.205L39.331,81.218L39.280,81.246L39.223,81.251L39.135,81.235L39.006,81.246L38.854,81.230L38.773,81.280L38.704,81.308L38.643,81.310L38.561,81.353L38.561,81.373L38.572,81.374L38.594,81.372L38.605,81.373L38.653,81.369L38.770,81.362L38.840,81.312L38.895,81.287L38.924,81.280L38.952,81.282L39.011,81.290L39.079,81.283L39.189,81.303L39.287,81.317L39.355,81.289L39.435,81.257L39.473,81.251L39.506,81.262L39.523,81.277L39.539,81.331L39.581,81.354L39.610,81.374L39.609,81.400L39.611,81.439L39.625,81.496L39.663,81.548L39.720,81.602L39.766,81.628L39.821,81.634L39.855,81.648L39.880,81.681L39.940,81.695L39.968,81.734L39.942,81.790L39.870,81.813L39.823,81.851L39.781,81.875L39.407,82.013L39.148,82.120L39.083,82.113L39.031,82.154L39.025,82.191L38.960,82.209L38.928,82.213L38.895,82.203L38.852,82.226L38.842,82.286L38.802,82.311L38.704,82.426L38.643,82.492L38.612,82.553L38.569,82.623L38.497,82.726L38.462,82.796L38.428,82.847L38.420,82.967L38.330,83.171L38.288,83.278L38.272,83.339L38.277,83.384L38.309,83.453L38.320,83.622L38.318,83.707L38.300,83.776L38.253,83.809L38.153,83.863L38.038,83.967L37.852,84.088L37.763,84.168L37.719,84.264L37.783,84.213L37.904,84.125L37.979,84.080L38.107,84.016L38.173,83.984L38.234,83.978L38.253,84.028L38.256,84.080L38.281,84.192L38.328,84.401L38.360,84.536L38.369,84.618L38.406,84.674L38.422,84.788L38.457,84.907L38.667,85.392L38.683,85.450L38.686,85.506L38.669,85.553L38.628,85.583L38.591,85.577L38.548,85.561L38.489,85.561L38.444,85.586L38.375,85.658L38.336,85.673L38.277,85.669L38.225,85.659L37.987,85.552L37.826,85.541L37.790,85.544L37.766,85.551L37.703,85.581L37.584,85.594L37.530,85.607L37.433,85.676L37.330,85.705L37.282,85.729L37.745,85.640L37.841,85.629L37.944,85.643L38.164,85.716L38.257,85.755L38.240,85.800L38.126,85.878L38.126,85.895L38.168,85.895L38.207,85.881L38.382,85.804L38.472,85.741L38.528,85.699L38.588,85.691L38.646,85.714L38.726,85.784L38.859,86.091L38.957,86.212L39.113,86.512L39.257,86.756L39.604,87.185L39.866,87.487L39.934,87.571L39.957,87.622L39.941,87.660L39.882,87.711L39.847,87.746L39.824,87.787L39.788,87.800L39.772,87.769L39.785,87.734L39.759,87.680L39.759,87.582L39.746,87.554L39.697,87.542L39.529,87.510L39.495,87.501L39.430,87.468L39.392,87.456L38.970,87.401L38.889,87.374L38.574,87.227L38.140,87.116L37.561,87.101L37.182,86.972L36.823,86.849L36.570,86.763L36.398,86.760L35.920,86.755L35.443,86.750L34.965,86.745L34.487,86.739L34.009,86.734L33.531,86.728L33.053,86.723L32.575,86.718L32.405,86.716L32.304,86.663L32.315,86.548L32.340,86.461L32.319,86.386L32.269,86.323L32.210,86.277L32.077,86.144L31.929,86.038L31.834,85.987L31.635,85.935L31.593,85.908L31.565,85.854L31.546,85.704L31.529,85.659L31.485,85.616L31.434,85.605L31.378,85.606L31.321,85.596L31.276,85.532L31.335,85.450L31.486,85.325L31.492,85.304L31.491,85.279L31.486,85.253L31.485,85.229L31.492,85.202L31.506,85.181L31.522,85.164L31.533,85.143L31.545,85.094L31.545,84.942L31.551,84.883L31.566,84.843L31.657,84.739L31.682,84.700L31.685,84.661L31.650,84.624L31.490,84.535L31.420,84.472L31.376,84.378L31.373,84.323L31.390,84.286L31.450,84.217L31.487,84.163L31.513,84.137L31.547,84.125L31.608,84.116L31.643,84.057L31.667,83.931L31.686,83.699L31.672,83.594L31.629,83.525L31.571,83.466L31.514,83.389L31.494,83.342L31.493,83.304L31.508,83.266L31.584,83.131L31.589,83.087L31.548,83.067L31.499,83.056L31.418,83.010L31.158,82.958L31.066,82.996L30.920,83.136L30.826,83.138L30.783,83.116L30.676,83.021L30.628,82.999L30.580,83.008L30.317,83.135L30.241,83.186L30.089,83.324L30.001,83.382L29.907,83.417L29.815,83.415L29.734,83.359L29.715,83.271L29.718,83.167L29.703,83.067L29.681,83.027L29.592,82.926L29.565,82.882L29.556,82.837L29.556,82.682L29.530,82.536L29.526,82.483L29.533,82.372L29.530,82.318L29.508,82.233L29.472,82.142L29.426,82.058L29.377,81.991L29.337,81.959L29.251,81.919L28.986,81.713L28.963,81.639L28.984,81.557L29.092,81.393L29.096,81.357L29.077,81.308L29.050,81.274L28.935,81.189L28.897,81.149L28.906,81.115L28.936,81.083L28.962,81.046L28.970,80.998L28.969,80.957L28.978,80.919L29.089,80.822L29.129,80.756L29.125,80.682L29.694,80.472L29.828,80.306L29.984,80.128L29.989,79.914L29.932,79.769L29.859,79.688L29.880,79.466L29.903,79.364L29.904,79.347L29.766,79.325L29.749,79.305L29.723,79.273L29.720,79.206L29.748,79.138L29.884,78.991L29.905,78.954L29.910,78.920L29.909,78.885L29.915,78.845L29.944,78.785L30.073,78.621L30.074,78.621L30.090,78.600L30.175,78.530L30.276,78.497L30.482,78.476L30.575,78.447L30.656,78.393L30.806,78.255L30.919,78.138L30.975,78.061L30.996,77.978L31.005,77.874L30.992,77.587L30.945,77.438L30.927,77.300L31.008,77.144L31.090,77.087L31.178,77.044L31.312,77.004L31.347,76.979L31.407,76.906L31.431,76.868L31.443,76.858L31.470,76.848L31.500,76.850L31.562,76.868L31.590,76.861L31.605,76.822L31.587,76.775L31.557,76.729L31.540,76.693L31.543,76.647L31.570,76.545L31.574,76.492L31.524,76.166L31.503,76.111L31.431,76.089L31.408,76.077L31.392,76.058L31.387,76.035L31.385,76.010L31.377,75.986L31.342,75.946L31.304,75.932L31.264,75.923L31.218,75.904L31.151,75.847L31.096,75.774L31.078,75.690L31.119,75.603L31.170,75.522L31.225,75.333L31.261,75.242L31.461,74.933L31.485,74.888L31.500,74.844L31.510,74.798L31.515,74.745L31.553,74.600L31.550,74.563L31.515,74.535L31.471,74.523L31.445,74.499L31.465,74.435L31.496,74.395L31.534,74.369L31.620,74.338L31.673,74.335L31.787,74.352L31.833,74.344L31.869,74.318L31.922,74.248L32.108,74.059L32.150,73.992L32.168,73.945L32.166,73.917L32.153,73.890L32.139,73.845L32.135,73.799L32.143,73.766L32.166,73.749L32.210,73.751L32.345,73.831L32.416,73.849L32.483,73.815L32.520,73.747L32.522,73.672L32.497,73.601L32.456,73.543L32.399,73.504L32.264,73.433L32.220,73.383L32.231,73.329L32.369,73.254L32.411,73.211L32.386,73.171L32.315,73.113L32.293,73.075L32.295,73.036L32.330,72.876L32.339,72.857L32.354,72.839L32.366,72.821L32.368,72.799L32.358,72.777L32.344,72.758L32.335,72.738L32.336,72.712L32.370,72.673L32.427,72.660L32.536,72.659L32.582,72.643L32.613,72.617L32.669,72.541L32.705,72.506L32.824,72.445L32.894,72.376L32.908,72.294L32.876,72.098L32.881,72.049L32.897,72.008L32.908,71.965L32.898,71.914L32.756,71.573L32.736,71.478L32.733,71.371L32.741,71.248L32.732,71.171L32.691,71.117L32.563,71.040L32.461,70.950L32.441,70.939L32.422,70.933L32.411,70.922L32.416,70.894L32.433,70.878L32.463,70.870L32.620,70.852L32.671,70.839L32.718,70.814L32.748,70.782L32.791,70.702L32.817,70.665L32.974,70.508L33.052,70.430L33.027,70.331L32.991,70.254L32.939,70.196L32.865,70.154L32.775,70.124L32.742,70.099L32.729,70.052L32.739,70.011L32.757,69.973L32.763,69.932L32.733,69.884L32.678,69.835L32.658,69.806L32.651,69.763L32.655,69.744L32.689,69.694L32.696,69.669L32.691,69.651L32.683,69.635L32.680,69.615L32.684,69.571L32.692,69.540L32.730,69.472L32.742,69.459L32.757,69.445L32.771,69.430L32.776,69.412L32.768,69.393L32.736,69.363L32.728,69.353L32.761,69.290L32.837,69.247L32.926,69.221L32.995,69.211L33.160,69.221L33.236,69.208L33.313,69.153L33.337,69.110L33.330,69.070L33.287,68.991L33.268,68.936L33.273,68.909L33.486,68.829L33.525,68.807L33.557,68.776L33.607,68.704L33.642,68.677L33.690,68.614L33.678,68.527L33.632,68.438L33.580,68.369L33.512,68.307L33.399,68.234L33.318,68.138L33.297,68.106L33.258,67.982L33.173,67.820L33.102,67.745L33.028,67.736L32.948,67.748L32.861,67.733L32.827,67.708L32.771,67.643L32.740,67.619L32.692,67.607L32.642,67.612L32.594,67.629L32.549,67.651L32.465,67.661L32.380,67.625L32.295,67.575L32.210,67.546L32.118,67.552L32.075,67.539L32.059,67.497L32.072,67.407L32.073,67.363L32.042,67.216L32.069,67.157L32.129,67.140L32.210,67.170L32.257,67.188L32.539,67.238L32.588,67.231L32.626,67.205L32.652,67.173L32.682,67.147L32.734,67.139L32.782,67.148L32.924,67.205L33.012,67.209L33.205,67.129L33.297,67.108L33.381,67.133L33.547,67.241L33.638,67.267L33.719,67.251L33.793,67.201L33.845,67.122L33.861,67.018L33.843,66.923L33.840,66.879L33.852,66.827L33.898,66.741L33.928,66.699L33.950,66.680L33.996,66.679L34.038,66.670L34.071,66.642L34.091,66.585L34.090,66.533L34.073,66.506L34.048,66.484L34.021,66.447L34.005,66.401L33.999,66.360L33.987,66.322L33.955,66.283L33.906,66.255L33.852,66.245L33.742,66.244L33.422,66.185L32.987,66.187L32.878,66.163L32.786,66.163L32.695,66.188L32.608,66.189L32.526,66.119L32.518,66.070L32.554,66.040L32.601,66.020L32.632,66.001L32.646,65.950L32.630,65.911L32.604,65.874L32.587,65.829L32.595,65.780L32.641,65.700L32.644,65.653L32.628,65.606L32.561,65.491L32.530,65.390L32.580,65.354L32.664,65.331L32.735,65.272L32.770,65.220L32.931,64.990L32.953,64.935L32.951,64.899L32.833,64.716L32.806,64.682L32.788,64.670L32.748,64.651L32.735,64.634L32.730,64.604L32.738,64.583L32.748,64.565L32.754,64.540L32.750,64.480L32.735,64.473L32.706,64.491L32.661,64.505L32.622,64.488L32.614,64.444L32.626,64.393L32.648,64.357L32.683,64.333L32.772,64.301L32.812,64.280L32.847,64.244L32.859,64.210L32.844,64.054L32.836,64.022L32.816,64.002L32.726,63.940L32.712,63.928L32.699,63.912L32.689,63.895L32.676,63.879L32.653,63.865L32.605,63.860L32.546,63.861L32.498,63.851L32.482,63.812L32.489,63.798L32.530,63.744L32.530,63.742L32.531,63.685L32.509,63.644L32.472,63.619L32.429,63.608L32.407,63.613L32.385,63.623L32.363,63.629L32.342,63.619L32.326,63.593L32.335,63.579L32.353,63.568L32.365,63.547L32.355,63.471L32.356,63.453L32.369,63.428L32.384,63.416L32.401,63.405L32.416,63.388L32.423,63.366L32.427,63.285L32.439,63.264L32.465,63.256L32.519,63.252L32.603,63.214L32.644,63.204L32.737,63.223L32.759,63.192L32.764,63.142L32.761,63.094L32.757,63.072L32.746,63.029L32.744,63.003L32.750,62.978L32.770,62.932L32.775,62.907L32.760,62.859L32.718,62.829L32.523,62.753L32.210,62.718L32.115,62.678L32.027,62.605L31.956,62.507L31.916,62.389L31.929,62.295L31.977,62.118L31.992,62.024L31.973,61.634L31.964,61.592L31.934,61.500L31.931,61.461L31.950,61.396L31.952,61.376L31.945,61.351L31.922,61.312L31.916,61.291L31.927,61.194L31.971,61.121L32.034,61.069L32.142,61.016L32.147,60.989L32.134,60.958L32.071,60.861L32.068,60.833L32.102,60.685L32.082,60.634L31.973,60.534L31.947,60.465L31.966,60.400L32.012,60.339L32.067,60.286L32.106,60.222L32.122,60.149L32.146,60.079L32.210,60.025L32.278,60.026L32.312,60.079L32.341,60.140L32.392,60.166L32.422,60.153L32.441,60.128L32.456,60.100L32.476,60.078L32.502,60.065L32.652,60.040L32.711,60.012L32.762,59.970L32.790,59.914L32.783,59.774L32.773,59.753L32.734,59.707L32.720,59.686L32.695,59.651L32.697,59.612L32.707,59.569L32.709,59.523L32.667,59.329L32.623,59.248L32.572,59.182L32.534,59.109L32.530,59.007L32.508,58.918L32.388,58.748L32.387,58.667L32.417,58.633L32.490,58.591L32.520,58.563L32.542,58.517L32.534,58.486L32.510,58.457L32.483,58.415L32.468,58.369L32.466,58.335L32.482,58.254L32.487,58.202L32.485,58.163L32.476,58.126L32.459,58.078L32.434,57.976L32.438,57.891L32.490,57.712L32.499,57.656L32.493,57.614L32.467,57.524L32.465,57.468L32.482,57.449L32.503,57.433L32.515,57.389L32.522,57.292L32.540,57.195L32.542,57.136L32.512,57.036L32.512,57.009L32.511,56.979L32.545,56.867L32.545,56.815L32.528,56.747L32.504,56.700L32.420,56.576L32.398,56.516L32.325,56.225L32.337,56.195L32.499,56.027L32.542,55.944L32.553,55.844L32.546,55.819L32.526,55.790L32.523,55.763L32.530,55.744L32.568,55.672L32.646,55.430L32.662,55.398L32.687,55.389L32.777,55.415L32.804,55.416L32.826,55.394L32.912,55.197L32.921,55.153L32.922,55.125L32.919,55.099L32.910,55.075L32.895,55.057L32.869,55.041L32.855,55.039L32.827,55.051L32.816,55.061L32.812,55.075L32.803,55.084L32.776,55.078L32.760,55.065L32.716,54.999L32.650,54.932L32.621,54.891L32.604,54.845L32.607,54.825L32.626,54.785L32.629,54.776L32.619,54.748L32.620,54.721L32.635,54.638L32.644,54.613L32.648,54.590L32.639,54.569L32.624,54.546L32.625,54.528L32.653,54.492L32.725,54.484L32.820,54.530L32.901,54.544L32.928,54.441L32.923,54.412L32.907,54.355L32.903,54.325L32.908,54.302L32.921,54.288L32.936,54.278L32.947,54.263L33.026,54.090L33.043,54.032L33.034,53.992L33.005,53.961L32.932,53.895L32.910,53.865L32.899,53.826L32.894,53.766L32.883,53.708L32.844,53.593L32.836,53.536L32.848,53.487L32.869,53.438L32.879,53.393L32.832,53.315L32.827,53.257L32.836,53.198L32.855,53.150L32.888,53.108L32.914,53.109L32.991,53.194L33.010,53.214L33.041,53.239L33.077,53.247L33.128,53.234L33.174,53.229L33.213,53.236L33.248,53.235L33.283,53.198L33.300,53.101L33.201,53.011L33.257,52.927L33.287,52.892L33.328,52.818L33.353,52.786L33.372,52.744L33.338,52.659L33.340,52.607L33.374,52.564L33.420,52.534L33.460,52.496L33.477,52.431L33.498,52.209L33.476,51.843L33.437,51.641L33.438,51.568L33.469,51.396L33.503,51.329L33.564,51.268L33.757,51.165L33.812,51.118L33.839,51.079L33.850,51.061L33.867,51.053L34.026,51.026L34.060,51.008L34.184,50.913L34.248,50.885L34.329,50.884L34.420,50.896L34.467,50.887L34.500,50.856L34.530,50.792L34.542,50.776L34.606,50.744L34.618,50.736L34.621,50.709L34.611,50.691L34.598,50.675L34.592,50.652L34.594,50.622L34.597,50.605L34.619,50.564L34.673,50.488L34.695,50.446L34.701,50.392L34.671,50.293L34.605,50.226L34.526,50.172L34.455,50.108L34.406,50.014L34.315,49.581L34.308,49.499L34.312,49.416L34.331,49.326L34.332,49.319L34.331,49.312L34.329,49.304L34.316,49.254L34.301,49.198L34.300,49.148L34.329,49.103L34.335,49.088L34.336,49.073L34.335,49.057L34.329,49.042L34.271,48.964L34.252,48.920L34.240,48.863L34.221,48.807L34.165,48.703L34.149,48.587L34.068,48.428L33.958,48.070L33.943,47.948L33.946,47.891L33.960,47.853L33.985,47.822L34.017,47.790L34.068,47.758L34.079,47.741L34.080,47.709L34.054,47.661L34.050,47.631L34.061,47.578L34.094,47.475L34.101,47.422L34.089,47.359L34.061,47.310L33.994,47.219L33.937,47.089L33.917,47.013L33.914,46.951L33.932,46.903L34.016,46.797L34.040,46.741L34.042,46.688L34.037,46.635L34.037,46.578L34.055,46.520L34.085,46.484L34.161,46.439L34.081,46.369L34.054,46.326L34.035,46.196L34.019,46.167L33.953,46.124L33.911,46.085L33.925,46.082L33.966,46.093L34.008,46.093L34.046,46.066L34.063,46.028L34.053,45.991L33.992,45.948L33.993,45.928L34.003,45.906L34.009,45.886L34.010,45.863L34.014,45.854L34.014,45.842L34.000,45.814L33.983,45.797L33.963,45.789L33.944,45.776L33.933,45.749L33.937,45.724L33.950,45.701L33.965,45.679L33.976,45.659L34.029,45.512L34.039,45.459L34.035,45.359L34.042,45.316L34.075,45.285L34.117,45.290L34.158,45.319L34.195,45.339L34.228,45.314L34.233,45.270L34.202,45.088L34.204,44.986L34.220,44.862L34.259,44.764L34.291,44.756L34.329,44.746L34.372,44.762L34.412,44.767L34.450,44.759L34.488,44.733L34.513,44.690L34.528,44.589L34.546,44.550L34.583,44.537L34.629,44.549L34.713,44.590L34.731,44.603L34.744,44.617L34.759,44.627L34.947,44.576L34.967,44.545L34.968,44.482L34.957,44.450L34.924,44.392L34.918,44.358L34.923,44.335L34.959,44.266L34.962,44.243L34.957,44.221L34.955,44.199L34.964,44.173L34.980,44.158L34.999,44.148L35.039,44.137L35.068,44.116L35.146,44.009L35.156,44.001L35.180,43.990L35.189,43.981L35.195,43.963L35.198,43.928L35.202,43.913L35.223,43.860L35.238,43.841L35.265,43.830L35.314,43.840L35.412,43.897L35.471,43.894L35.513,43.866L35.548,43.823L35.557,43.804L35.574,43.769L35.599,43.681L35.613,43.655L35.650,43.613L35.664,43.579L35.657,43.537L35.595,43.370L35.595,43.339L35.611,43.287L35.623,43.272L35.640,43.257L35.654,43.241L35.657,43.219L35.642,43.199L35.596,43.205L35.578,43.194L35.579,43.098L35.713,42.954L35.704,42.867L35.672,42.808L35.576,42.533L35.574,42.490L35.596,42.392L35.597,42.338L35.584,42.230L35.605,42.118L35.587,42.077L35.556,42.041L35.526,41.996L35.475,41.816L35.470,41.775L35.494,41.752L35.536,41.741L35.562,41.715L35.538,41.647L35.463,41.598L35.366,41.586L35.282,41.556L35.243,41.451L35.319,41.315L35.650,41.199L35.689,41.011L35.681,40.823L35.680,40.815L35.720,40.622L35.883,40.203L35.875,40.170L35.849,40.147L35.818,40.108L35.800,40.060L35.814,40.044L35.849,40.036L35.891,40.010L35.935,39.925L35.956,39.719L35.987,39.627L36.027,39.580L36.114,39.500L36.150,39.445L36.198,39.313L36.228,39.253L36.327,39.165L36.346,39.114L36.344,39.052L36.335,38.973L36.333,38.891L36.348,38.831L36.368,38.810L36.384,38.792L36.493,38.771L36.537,38.773L36.581,38.784L36.657,38.813L36.669,38.803L36.672,38.784L36.677,38.770L36.824,38.701L36.833,38.674L36.815,38.609L36.762,38.503L36.749,38.467L36.739,38.422L36.741,38.397L36.749,38.375L36.758,38.334L36.776,38.127L36.776,38.002L36.755,37.928L36.715,37.919L36.681,37.932L36.662,37.923L36.665,37.848L36.685,37.742L36.688,37.695L36.651,37.484L36.652,37.426L36.668,37.394L36.740,37.333L36.767,37.303L36.767,37.262L36.710,37.174L36.692,37.129L36.695,37.076L36.739,36.923L36.738,36.894L36.731,36.871L36.727,36.847L36.734,36.818L36.747,36.806L36.789,36.789L36.806,36.779L36.813,36.747L36.822,36.621L36.828,36.577L36.850,36.536L36.906,36.459L36.922,36.418L36.920,36.364L36.882,36.269L36.864,36.121L36.816,36.056L36.746,36.013L36.671,35.982L36.596,35.995L36.504,36.134L36.449,36.147L36.383,35.984L36.360,35.947L36.288,35.882L36.256,35.843L36.238,35.796L36.237,35.742L36.275,35.586L36.268,35.530L36.247,35.486L36.245,35.480L36.234,35.441L36.252,35.387L36.282,35.360L36.350,35.341L36.380,35.318L36.397,35.275L36.419,35.161L36.434,35.112L36.470,35.037L36.470,35.004L36.440,34.979L36.392,34.958L36.355,34.934L36.285,34.859L36.173,34.710L36.140,34.630L36.088,34.337L36.086,34.276L36.091,34.225L36.097,34.202L36.108,34.181L36.158,34.180L36.178,34.171L36.135,34.099L36.131,34.053L36.135,34.002L36.129,33.945L36.104,33.890L36.070,33.859L35.988,33.808L35.950,33.725L35.956,33.525L35.927,33.482L35.899,33.441L35.850,33.419L35.813,33.412L35.788,33.390L35.771,33.323L35.771,33.300L35.777,33.251L35.776,33.226L35.769,33.199L35.768,33.195L35.743,33.138L35.738,33.105L35.741,33.080L35.756,33.036L35.759,33.011L35.751,32.993L35.716,32.964L35.707,32.938L35.708,32.885L35.704,32.864L35.690,32.840L35.655,32.800L35.645,32.775L35.649,32.745L35.679,32.714L35.723,32.722L35.813,32.761L35.867,32.758L35.886,32.734L35.904,32.634L35.924,32.594L35.945,32.563L35.958,32.528L35.952,32.476L35.928,32.431L35.887,32.380L35.842,32.337L35.806,32.313L35.713,32.298L35.635,32.301L35.562,32.280L35.486,32.194L35.463,32.145L35.444,32.084L35.435,32.020L35.439,31.905L35.417,31.860L35.352,31.778L35.240,31.529L35.220,31.462L35.216,31.413L35.238,31.294L35.245,31.195L35.243,31.095L35.250,31.044L35.288,30.959L35.294,30.908L35.283,30.851L35.268,30.800L35.264,30.749L35.311,30.642L35.319,30.594L35.318,30.489L35.322,30.435L35.334,30.393L35.453,30.188L35.478,30.168L35.520,30.190L35.536,30.248L35.547,30.309L35.572,30.342L35.604,30.332L35.637,30.299L35.663,30.255L35.681,30.176L35.702,30.124L35.750,30.039L35.790,30.017L35.880,30.033L35.905,30.025L35.903,29.991L35.877,29.954L35.816,29.894L35.781,29.850L35.759,29.807L35.751,29.759L35.793,29.387L35.823,29.292L35.834,29.272L35.872,29.217L35.885,29.184L35.884,29.157L35.878,29.130L35.877,29.096L35.885,29.042L35.897,28.999L35.938,28.916L35.971,28.821L36.010,28.614L36.052,28.538L36.089,28.512L36.123,28.493L36.150,28.465L36.165,28.410L36.155,28.354L36.102,28.255L36.102,28.207L36.159,28.178L36.334,28.274L36.406,28.295L36.482,28.271L36.545,28.235L36.601,28.183L36.656,28.112L36.676,28.067L36.682,28.017L36.686,27.915L36.695,27.865L36.702,27.840L36.711,27.819L36.731,27.797L36.772,27.777L36.790,27.759L36.818,27.659L36.789,27.563L36.723,27.491L36.642,27.458L36.560,27.472L36.527,27.463L36.512,27.417L36.522,27.379L36.594,27.256L36.623,27.158L36.635,27.057L36.649,26.695L36.620,26.459L36.620,26.457L36.602,26.422L36.547,26.370L36.527,26.317L36.527,26.255L36.536,26.174L36.537,26.093L36.488,25.836L36.478,25.804L36.465,25.775L36.449,25.749L36.429,25.609L36.413,25.570L36.394,25.535L36.380,25.498L36.376,25.452L36.384,25.320L36.404,25.265L36.449,25.236L36.470,25.227L36.493,25.211L36.512,25.192L36.524,25.167L36.521,25.147L36.495,25.111L36.492,25.095L36.502,25.079L36.512,25.072L36.523,25.068L36.556,25.035L36.613,24.994L36.635,24.970L36.650,24.938L36.651,24.918L36.659,24.903L36.694,24.887L36.800,24.865L36.847,24.840L36.886,24.782L36.900,24.723L36.903,24.651L36.890,24.515L36.881,24.462L36.880,24.407L36.888,24.353L36.904,24.301L36.925,24.260L36.951,24.225L36.963,24.202L36.965,24.179L36.964,24.157L36.968,24.133L37.030,24.008L37.036,23.959L37.029,23.899L36.998,23.784L36.987,23.724L36.993,23.632L37.019,23.543L37.059,23.462L37.104,23.391L37.120,23.378L37.137,23.373L37.152,23.362L37.159,23.333L37.165,23.048L37.203,22.895L37.205,22.886L37.302,22.774L37.416,22.670L37.508,22.533L37.527,22.487L37.550,22.346L37.580,22.318L37.623,22.339L37.666,22.374L37.699,22.385L37.717,22.358L37.763,22.248L37.811,22.162L37.888,21.952L37.929,21.909L37.931,21.889L37.925,21.871L37.926,21.849L37.947,21.808L37.973,21.781L38.006,21.763L38.132,21.725L38.187,21.678L38.223,21.604L38.306,21.194L38.326,21.091L38.339,21.058L38.360,21.041L38.418,21.008L38.429,20.988L38.420,20.948L38.404,20.915L38.392,20.880L38.394,20.836L38.408,20.807L38.456,20.755L38.476,20.727L38.529,20.596L38.549,20.523L38.555,20.457L38.548,20.421L38.546,20.385L38.553,20.350L38.568,20.319L38.603,20.288L38.677,20.243L38.711,20.210L38.735,20.173L38.838,19.902L38.846,19.858L38.841,19.751L38.845,19.703L38.864,19.641L38.952,19.472L38.983,19.430L39.011,19.409L39.089,19.387L39.186,19.393L39.262,19.448L39.333,19.513L39.415,19.552L39.468,19.545L39.490,19.508L39.503,19.455L39.528,19.395L39.565,19.349L39.611,19.312L39.662,19.290L39.770,19.285L39.815,19.272L39.910,19.224L39.933,19.222L39.994,19.227L40.009,19.226L40.013,19.205L40.008,19.137L40.012,19.104L40.023,19.053L40.058,18.954L40.069,18.906L40.062,18.828L40.031,18.753L39.628,18.101L39.556,17.993L39.501,17.888L39.464,17.774L39.448,17.636L39.451,17.423L39.464,17.313L39.490,17.220L39.552,17.127L39.819,16.884L39.842,16.789L39.825,16.652L39.678,15.956L39.653,15.736L39.634,15.665L39.603,15.602L39.562,15.553L39.524,15.487L39.520,15.412L39.523,15.340L39.504,15.283L39.533,15.242L39.508,15.186L39.431,15.075L39.420,15.027L39.417,14.976L39.425,14.875L39.535,14.481L39.616,14.190L39.657,14.126L39.664,14.115L39.705,14.087L39.738,14.085L39.773,14.094L39.818,14.096L39.863,14.085L39.906,14.063L39.932,14.027L39.931,13.973L39.885,13.903L39.818,13.832L39.769,13.750L39.777,13.649L39.782,13.623L39.777,13.605L39.766,13.589L39.756,13.568L39.747,13.556L39.723,13.535L39.715,13.522L39.714,13.509L39.716,13.495L39.720,13.485L39.722,13.482L39.707,13.444L39.693,13.421L39.671,13.411L39.628,13.410L39.612,13.396L39.561,13.361L39.541,13.338L39.533,13.320L39.484,13.176L39.483,13.129L39.496,13.070L39.604,12.815L39.628,12.723L39.633,12.683L39.642,12.644L39.659,12.616L39.688,12.608L39.728,12.674L39.752,12.690L39.768,12.638L39.782,12.556L39.867,12.342L39.904,12.316L39.941,12.325L39.978,12.340L40.017,12.336L40.044,12.306L40.123,12.157L40.143,12.081L40.153,12.061L40.191,12.030L40.262,11.995L40.369,11.943L40.475,11.891L40.581,11.838L40.688,11.786L40.953,11.647L41.218,11.509L41.483,11.370L41.748,11.232L41.767,11.223L41.809,11.204L41.852,11.185L41.871,11.176L41.955,11.138L42.061,11.070L42.109,10.989L42.155,10.812L42.226,10.539L42.296,10.265L42.304,10.237L42.453,9.662L42.601,9.088L42.750,8.513L42.788,8.368L42.800,8.284L42.418,7.801ZM39.323,94.551L39.348,94.463L39.349,94.316L39.369,94.333L39.418,94.406L39.439,94.430L39.479,94.466L39.497,94.488L39.505,94.530L39.465,94.549L39.323,94.551ZM39.349,94.272L39.353,93.546L39.356,92.821L39.360,92.096L39.364,91.372L39.368,90.646L39.371,89.922L39.375,89.197L39.379,88.473L39.448,88.513L39.468,88.536L39.510,88.623L39.527,88.648L39.665,88.807L39.802,89.001L39.840,89.038L39.985,89.140L40.049,89.210L40.103,89.295L40.146,89.396L40.224,89.684L40.231,89.725L40.221,89.769L40.198,89.741L40.174,89.684L40.115,89.490L40.063,89.466L40.021,89.470L39.968,89.492L39.902,89.532L39.840,89.580L39.734,89.682L39.606,89.775L39.533,89.900L39.515,89.995L39.542,90.094L39.631,90.174L39.753,90.254L39.839,90.260L39.936,90.284L40.082,90.314L40.308,90.297L40.473,90.378L40.515,90.464L40.548,90.518L40.535,90.611L40.543,90.633L40.569,90.684L40.591,90.809L40.608,90.864L40.726,91.040L40.744,91.075L41.147,91.416L41.294,91.503L41.340,91.544L41.348,91.586L41.327,91.625L41.382,91.622L41.430,91.613L41.493,91.648L41.646,91.711L41.665,91.741L41.606,91.753L41.583,91.800L41.593,91.865L41.618,91.905L42.198,92.299L42.531,92.488L42.771,92.575L42.911,92.645L42.950,92.695L43.026,92.729L43.324,92.830L43.461,92.934L43.563,93.091L43.774,93.248L43.829,93.316L43.905,93.348L43.927,93.414L43.999,93.435L44.063,93.444L44.150,93.467L44.340,93.559L45.067,93.831L45.096,93.838L45.155,93.843L45.184,93.850L45.257,93.898L45.279,93.905L45.441,93.914L45.589,93.946L46.100,93.887L46.208,93.900L46.264,93.898L46.413,93.849L46.739,93.887L46.768,93.904L46.750,93.942L46.710,93.981L46.673,93.998L46.658,94.021L46.593,94.166L46.603,94.180L46.615,94.208L46.624,94.223L46.552,94.273L46.536,94.293L46.538,94.318L46.550,94.349L46.553,94.375L46.506,94.395L46.438,94.441L46.420,94.459L46.364,94.626L46.339,94.647L46.308,94.661L46.282,94.666L46.236,94.658L46.228,94.636L46.231,94.605L46.217,94.572L46.160,94.546L46.088,94.547L46.040,94.574L46.057,94.627L46.010,94.678L45.838,94.665L45.765,94.681L45.747,94.704L45.737,94.731L45.723,94.757L45.694,94.775L45.650,94.783L45.615,94.776L45.587,94.755L45.563,94.720L45.562,94.706L45.567,94.668L45.563,94.646L45.555,94.629L45.545,94.614L45.517,94.609L45.479,94.607L45.437,94.605L45.350,94.631L45.209,94.588L45.157,94.619L45.021,94.594L44.975,94.618L45.007,94.659L45.053,94.697L45.015,94.743L44.963,94.785L44.820,94.816L44.701,94.847L44.533,94.840L44.277,94.846L44.161,94.874L44.168,94.920L44.161,94.961L44.048,94.985L43.994,95.000L43.803,94.997L43.613,94.943L43.551,94.915L43.506,94.878L43.470,94.837L43.435,94.806L43.247,94.704L43.188,94.687L42.945,94.666L42.764,94.603L42.124,94.568L41.683,94.520L41.414,94.536L40.854,94.487L40.545,94.443L40.447,94.383L40.245,94.369L40.133,94.315L40.069,94.297L40.041,94.322L40.049,94.384L40.042,94.406L40.014,94.433L39.607,94.459L39.551,94.449L39.513,94.423L39.448,94.348L39.361,94.276L39.349,94.272ZM49.425,94.129L49.468,94.137L49.515,94.107L49.558,94.088L49.587,94.129L49.541,94.156L49.524,94.172L49.506,94.193L49.480,94.249L49.463,94.269L49.433,94.276L49.393,94.280L49.367,94.291L49.259,94.359L49.235,94.362L49.208,94.348L49.220,94.323L49.259,94.264L49.267,94.248L49.257,94.208L49.232,94.203L49.200,94.220L49.172,94.248L49.142,94.269L49.110,94.277L49.034,94.274L49.024,94.269L49.013,94.268L48.991,94.276L48.979,94.288L48.972,94.303L48.968,94.319L48.962,94.330L48.911,94.350L48.713,94.377L48.700,94.405L48.670,94.419L48.637,94.414L48.615,94.385L48.616,94.356L48.628,94.319L48.655,94.256L48.617,94.257L48.601,94.263L48.584,94.276L48.554,94.255L48.529,94.258L48.482,94.293L48.366,94.348L48.343,94.366L48.304,94.405L48.279,94.422L48.245,94.435L48.208,94.441L48.133,94.443L48.140,94.432L48.144,94.423L48.150,94.414L48.162,94.406L48.162,94.385L48.137,94.386L48.115,94.392L48.094,94.404L48.075,94.422L48.083,94.427L48.103,94.443L48.077,94.461L47.975,94.498L47.950,94.520L47.920,94.572L47.901,94.590L47.865,94.599L47.755,94.598L47.726,94.590L47.715,94.566L47.728,94.547L47.751,94.526L47.771,94.498L47.580,94.406L47.591,94.354L47.637,94.322L47.688,94.297L47.712,94.266L47.740,94.238L47.804,94.258L47.909,94.313L47.953,94.308L48.081,94.269L48.119,94.240L48.001,94.149L47.980,94.107L48.039,94.090L48.056,94.103L48.107,94.162L48.133,94.184L48.206,94.203L48.229,94.195L48.269,94.171L48.286,94.166L48.304,94.164L48.326,94.166L48.344,94.179L48.351,94.212L48.352,94.253L48.359,94.269L48.374,94.276L48.399,94.271L48.403,94.258L48.397,94.240L48.395,94.223L48.395,94.177L48.390,94.141L48.393,94.105L48.417,94.064L48.437,94.067L48.467,94.091L48.502,94.108L48.541,94.090L48.551,94.104L48.560,94.107L48.571,94.107L48.584,94.110L48.613,94.121L48.677,94.107L48.713,94.110L48.740,94.129L48.766,94.155L48.792,94.175L48.816,94.175L48.830,94.148L48.821,94.121L48.819,94.099L48.852,94.090L48.868,94.096L48.898,94.123L48.918,94.129L48.936,94.121L48.951,94.105L48.968,94.091L48.991,94.090L49.002,94.105L49.028,94.166L49.049,94.184L49.075,94.179L49.137,94.138L49.371,94.089L49.441,94.110L49.425,94.129ZM53.625,51.940L53.633,51.928L53.651,51.949L53.681,52.005L53.721,52.139L53.726,52.180L53.707,52.218L53.664,52.222L53.618,52.204L53.588,52.180L53.553,52.143L53.419,52.096L53.371,52.065L53.334,52.029L53.246,51.903L53.222,51.851L53.220,51.808L53.262,51.802L53.340,51.840L53.551,51.889L53.594,51.959L53.599,51.983L53.610,51.985L53.620,51.969L53.625,51.940ZM53.246,51.634L53.215,51.666L53.174,51.660L53.151,51.626L53.175,51.577L53.343,51.585L53.422,51.611L53.487,51.662L53.497,51.698L53.480,51.727L53.446,51.744L53.406,51.745L53.364,51.726L53.246,51.634ZM53.099,55.289L53.154,55.297L53.229,55.297L53.286,55.357L53.323,55.432L53.367,55.507L53.348,55.587L53.287,55.661L53.246,55.746L53.197,55.802L53.139,55.804L53.086,55.783L53.100,55.701L53.077,55.654L53.018,55.690L52.959,55.690L52.925,55.656L52.963,55.607L53.006,55.530L53.018,55.422L53.062,55.291L53.099,55.289ZM53.176,54.630L53.215,54.628L53.279,54.646L53.342,54.672L53.397,54.750L53.388,54.866L53.384,55.015L53.397,55.165L53.383,55.206L53.362,55.149L53.339,55.079L53.289,55.014L53.192,54.870L53.146,54.766L53.176,54.630Z" fill="currentColor" stroke="currentColor" stroke-width="1" stroke-linejoin="round"/>
</svg>