<svg xmlns="http://www.w3.org/2000/svg" viewBox="0 0 100 100" role="img" aria-label="Armenia">
  <title>Armenia</title>
  <path d="M49.516,5.000L50.566,7.198L50.280,7.980L50.437,8.440L50.924,8.647L52.777,8.649L53.263,8.804L54.748,9.954L55.117,10.481L55.153,11.071L54.179,11.775L51.373,11.658L51.071,12.850L51.436,13.469L52.050,13.879L52.599,13.935L52.772,13.494L52.854,12.819L53.323,13.068L54.250,14.023L54.831,14.379L55.270,14.849L55.737,15.236L57.074,15.391L58.318,15.897L58.965,16.001L60.287,15.347L60.559,15.213L61.342,15.129L61.515,16.006L61.265,17.206L61.614,17.582L62.015,17.686L62.298,17.760L63.049,18.371L64.263,19.920L64.712,20.374L65.289,20.558L65.958,20.606L66.451,20.865L66.502,21.685L65.970,23.213L65.222,24.058L63.022,25.111L61.875,25.660L60.765,26.566L60.051,27.814L60.050,28.704L60.048,29.393L60.453,30.254L60.999,30.788L61.572,31.239L62.066,31.854L62.178,32.220L62.242,33.040L62.373,33.439L62.635,33.732L63.223,34.119L63.462,34.551L64.380,36.502L66.061,38.071L72.672,41.814L72.694,41.839L73.901,43.169L74.470,43.200L74.662,43.143L75.065,43.025L75.687,42.987L76.100,43.205L76.508,43.602L77.237,44.566L77.290,44.781L77.309,44.999L77.290,45.220L76.775,47.604L76.429,48.512L75.888,49.241L75.258,49.793L75.153,50.074L74.819,51.780L74.625,52.175L74.244,52.497L72.261,52.692L67.598,51.916L65.801,53.085L65.839,53.453L65.891,53.965L66.791,54.373L69.750,54.680L70.526,55.065L71.141,55.749L72.411,58.375L72.628,58.823L73.906,60.107L74.511,60.419L75.446,60.901L77.237,61.445L78.012,62.208L79.106,64.446L79.998,65.167L81.074,65.481L81.563,65.759L81.972,66.267L82.638,67.541L83.054,67.944L83.685,68.141L84.670,67.934L86.609,66.932L87.580,67.003L87.982,67.334L88.650,68.248L89.076,68.559L89.636,68.657L91.428,68.484L91.885,68.586L92.356,68.896L92.704,69.375L92.789,69.987L92.533,70.458L92.120,70.717L91.789,71.024L91.780,71.637L91.975,72.028L91.964,72.375L91.771,72.647L91.428,72.815L91.418,72.817L89.339,73.212L88.439,73.776L88.067,74.730L88.457,75.895L89.386,76.626L91.428,77.549L91.881,77.929L92.091,78.467L92.240,79.058L92.516,79.604L93.202,80.338L94.413,81.201L94.601,81.376L94.792,81.598L94.828,81.694L94.927,81.953L94.677,82.078L94.081,82.101L92.765,83.053L92.416,83.105L90.692,82.216L89.697,82.086L89.043,82.707L89.071,83.847L89.797,84.581L90.741,85.126L91.428,85.689L91.786,86.908L91.944,87.960L91.862,88.998L91.489,90.176L91.469,90.293L91.428,90.399L91.328,90.850L91.280,91.309L91.308,91.760L91.428,92.193L92.413,94.315L91.903,94.170L88.946,92.825L88.559,92.738L88.257,92.778L87.569,93.006L86.468,93.051L86.093,93.137L85.543,93.410L84.068,94.501L83.572,94.746L81.682,95.000L80.027,91.781L78.549,87.580L77.974,86.405L77.237,85.330L76.637,84.326L76.379,83.351L76.552,82.408L77.237,81.491L77.429,81.241L77.487,80.974L77.423,80.694L77.237,80.403L76.657,79.841L75.039,79.037L74.625,78.831L73.947,78.299L73.408,77.705L72.824,77.222L71.214,76.802L71.139,76.626L70.976,76.242L71.157,75.501L72.111,73.908L72.238,73.323L71.981,71.629L71.981,71.625L72.073,70.682L72.067,70.054L71.812,69.586L71.170,69.119L70.387,68.814L69.728,68.825L69.570,68.864L66.090,69.718L65.330,70.037L63.049,71.507L62.747,71.637L62.430,71.800L62.107,71.865L61.787,71.815L61.482,71.635L61.478,71.631L60.582,70.705L60.086,70.443L58.743,70.316L58.330,70.148L58.044,69.730L57.708,68.959L57.002,67.956L56.825,67.704L56.065,67.963L55.259,68.720L54.213,68.971L53.657,68.611L53.546,68.070L53.825,66.734L53.871,65.868L53.748,65.182L53.456,64.563L51.576,62.137L51.364,61.863L50.399,61.374L49.334,61.742L48.287,62.556L48.120,62.651L47.381,63.068L46.413,63.302L45.172,63.283L43.856,63.524L43.050,63.881L42.612,63.128L40.871,60.822L40.708,60.535L40.571,60.410L40.436,60.379L40.119,60.429L39.975,60.410L39.450,60.086L38.424,58.892L38.045,59.126L37.940,58.911L37.931,58.493L37.843,58.131L37.415,57.815L37.174,57.568L37.069,57.246L36.937,56.682L36.617,56.142L35.888,55.324L34.247,53.886L31.880,52.495L30.311,51.573L29.273,51.249L28.314,51.249L26.604,51.717L25.792,51.818L25.211,51.991L24.915,52.031L24.674,51.951L24.313,51.600L24.035,51.525L23.429,51.686L22.442,52.382L21.990,52.539L18.577,51.956L15.473,50.235L12.875,49.494L11.576,48.773L11.209,47.704L11.602,47.336L12.887,47.056L13.164,46.577L12.980,46.159L12.095,45.066L11.793,44.413L12.312,44.009L12.283,43.941L11.875,42.995L10.612,41.350L9.845,40.628L9.555,40.047L9.748,39.440L9.990,39.026L10.413,37.611L10.438,37.529L10.438,37.276L9.289,36.297L8.687,35.624L8.569,35.135L9.540,33.981L10.153,33.558L10.825,33.477L10.749,33.211L10.702,33.100L10.612,32.948L10.785,33.012L10.911,33.040L11.037,33.090L11.209,33.224L11.180,32.335L11.558,31.568L12.760,30.164L12.543,29.324L12.717,29.094L13.306,28.048L13.390,27.747L13.242,25.179L13.142,24.566L12.878,23.870L11.699,21.997L11.408,21.262L11.256,20.418L11.193,19.675L11.071,18.966L10.746,18.237L9.857,17.131L8.738,16.212L7.516,15.606L6.302,15.433L5.760,14.924L5.308,13.864L5.073,12.685L5.191,11.819L5.475,11.890L5.755,11.896L6.034,11.834L7.566,11.217L8.772,11.171L13.400,11.815L14.094,11.758L14.649,11.526L15.972,10.376L17.189,9.876L19.817,9.820L20.439,9.670L20.451,9.667L21.102,9.510L22.243,9.002L22.809,8.942L24.011,9.276L24.610,9.168L25.167,8.871L25.613,8.432L25.758,8.070L25.777,7.756L25.850,7.480L26.187,7.244L26.490,7.240L27.259,7.555L28.632,8.496L29.157,8.693L29.824,8.584L30.087,8.408L30.291,8.176L30.522,7.971L30.858,7.863L31.209,7.903L32.722,8.810L33.342,9.034L33.980,9.078L34.670,8.881L35.241,8.250L35.426,8.110L35.731,8.101L35.881,8.381L35.983,8.760L36.139,9.042L36.721,9.207L37.139,8.839L37.485,8.250L37.852,7.769L38.462,7.497L39.037,7.574L40.223,8.040L44.383,8.124L45.128,8.024L45.410,7.637L45.300,7.483L45.108,7.214L44.043,6.708L43.809,6.184L44.360,5.634L47.099,6.064L48.176,6.029L48.522,5.795L49.164,5.222L49.516,5.000ZM48.865,12.729L48.425,13.036L48.333,13.550L48.510,14.109L48.865,14.561L49.894,14.910L50.299,14.055L49.984,12.994L48.865,12.729ZM55.405,16.959L55.705,16.549L54.892,15.853L54.775,15.832L54.663,15.849L54.564,15.905L54.476,16.001L54.748,16.854L55.405,16.959ZM64.025,30.534L63.049,30.242L62.879,29.886L62.823,29.499L62.881,29.112L63.049,28.744L63.404,28.489L63.795,28.374L64.210,28.366L64.621,28.422L65.360,28.839L64.976,29.807L64.025,30.534Z" fill="currentColor" stroke="currentColor" stroke-width="1.5" stroke-linejoin="round"/>
</svg>