<svg xmlns="http://www.w3.org/2000/svg" viewBox="0 0 100 100" role="img" aria-label="American Samoa">
  <title>American Samoa</title>
  <path d="M25.610,88.070L25.982,87.753L26.209,87.908L26.178,88.228L25.782,88.405L24.316,88.480L23.889,88.598L23.276,89.053L22.313,90.361L21.636,90.910L21.464,90.715L20.431,90.012L19.766,89.671L19.554,89.482L20.628,88.838L21.033,88.758L21.908,88.775L22.320,88.701L22.901,87.959L23.834,87.748L24.878,87.805L25.610,88.070ZM54.025,86.995L54.524,87.187L54.623,87.565L54.446,87.833L54.118,87.698L53.918,87.913L53.714,88.007L53.492,87.997L53.243,87.875L53.155,88.102L53.006,88.220L52.798,88.249L52.538,88.228L52.471,87.919L52.375,87.656L52.237,87.458L52.038,87.344L52.419,87.067L52.951,86.970L54.025,86.995ZM86.854,95.000L86.564,94.762L86.805,94.661L86.882,94.691L86.854,95.000ZM48.671,85.746L48.874,85.596L49.126,85.590L49.404,85.674L49.695,85.800L49.076,86.114L48.834,86.082L48.671,85.746ZM13.464,5.029L13.448,5.278L13.244,5.381L13.118,5.231L13.141,5.000L13.464,5.029Z" fill="currentColor" stroke="currentColor" stroke-width="1" stroke-linejoin="round"/>
</svg>