<svg xmlns="http://www.w3.org/2000/svg" viewBox="0 0 100 100" role="img" aria-label="French Southern and Antarctic Lands">
  <title>French Southern and Antarctic Lands</title>
  <path d="M17.733,18.028L17.678,17.998L17.706,17.984L17.748,17.992L17.733,18.028ZM72.902,94.577L72.867,94.575L72.843,94.563L72.821,94.546L72.791,94.529L72.759,94.520L72.703,94.511L72.679,94.496L72.679,94.480L72.768,94.460L72.851,94.470L72.957,94.561L73.021,94.599L73.045,94.629L73.027,94.657L72.998,94.653L72.902,94.577ZM70.568,94.109L70.550,94.140L70.523,94.156L70.491,94.156L70.456,94.139L70.353,94.139L70.305,94.130L70.260,94.109L70.299,94.059L70.321,94.046L70.357,94.043L70.393,94.050L70.460,94.074L70.496,94.076L70.560,94.062L70.574,94.070L70.568,94.109ZM72.179,93.769L72.150,93.780L72.120,93.785L72.092,93.777L72.067,93.753L72.285,93.662L72.359,93.656L72.359,93.673L72.313,93.697L72.285,93.750L72.249,93.790L72.179,93.769ZM71.373,93.267L71.387,93.241L71.407,93.225L71.430,93.211L71.449,93.195L71.519,93.114L71.561,93.077L71.618,93.045L71.679,93.026L71.735,93.026L71.712,93.075L71.648,93.119L71.623,93.155L71.790,93.130L71.818,93.130L71.808,93.164L71.783,93.201L71.756,93.233L71.735,93.253L71.664,93.294L71.636,93.323L71.644,93.357L71.663,93.401L71.637,93.425L71.592,93.441L71.615,93.462L71.435,93.521L71.401,93.503L71.401,93.381L71.395,93.350L71.376,93.284L71.373,93.267ZM71.443,92.961L71.452,93.011L71.474,93.008L71.484,93.018L71.478,93.039L71.464,93.050L71.445,93.059L71.428,93.074L71.408,93.107L71.378,93.176L71.344,93.226L71.321,93.247L71.295,93.259L71.275,93.253L71.262,93.230L71.267,93.224L71.291,93.141L71.289,93.138L71.314,93.078L71.350,93.018L71.395,92.974L71.443,92.961ZM71.929,93.026L71.890,93.007L71.853,92.979L71.823,92.942L71.804,92.895L71.871,92.896L71.969,92.958L72.038,92.961L72.023,92.992L71.997,93.012L71.965,93.022L71.929,93.026ZM74.126,93.731L74.166,93.816L74.140,93.928L74.075,94.024L73.953,94.139L73.807,94.121L73.741,94.096L73.694,94.128L73.684,94.169L73.644,94.191L73.811,94.251L73.959,94.334L73.774,94.313L73.597,94.334L73.506,94.147L73.296,94.097L73.218,94.118L73.139,94.144L73.045,94.147L72.951,94.131L72.800,94.104L72.652,94.123L72.758,94.164L72.861,94.221L72.835,94.232L72.810,94.242L72.855,94.281L72.902,94.318L72.853,94.333L72.806,94.343L72.746,94.293L72.689,94.235L72.638,94.222L72.596,94.252L72.601,94.292L72.638,94.368L72.518,94.296L72.387,94.252L72.433,94.307L72.493,94.341L72.537,94.375L72.554,94.411L72.583,94.428L72.610,94.448L72.617,94.504L72.634,94.554L72.795,94.620L72.967,94.644L73.128,94.701L73.290,94.755L73.145,94.651L73.112,94.526L73.200,94.502L73.293,94.491L73.377,94.509L73.458,94.539L73.612,94.549L73.669,94.653L73.533,94.748L73.347,94.755L73.475,94.785L73.572,94.841L73.508,94.915L73.402,94.913L73.324,94.932L73.262,94.981L73.150,94.984L73.038,94.946L72.868,94.953L72.719,94.900L72.648,94.809L72.582,94.722L72.572,94.623L72.563,94.525L72.482,94.475L72.387,94.480L72.418,94.514L72.415,94.561L72.349,94.507L72.276,94.488L72.347,94.582L72.434,94.670L72.429,94.800L72.330,94.866L72.255,94.847L72.185,94.817L72.061,94.809L71.936,94.787L71.833,94.717L71.741,94.633L71.645,94.626L71.554,94.625L71.507,94.530L71.445,94.450L71.397,94.469L71.414,94.518L71.400,94.523L71.386,94.529L71.426,94.585L71.454,94.650L71.357,94.608L71.275,94.511L71.299,94.576L71.323,94.642L71.345,94.675L71.296,94.710L71.289,94.770L71.216,94.721L71.198,94.620L71.157,94.572L71.130,94.670L71.194,94.818L71.119,94.928L71.035,94.972L70.947,95.000L70.925,94.990L70.908,94.979L70.876,94.982L70.838,94.985L70.739,94.988L70.642,94.990L70.560,94.973L70.506,94.890L70.508,94.834L70.530,94.785L70.533,94.695L70.575,94.630L70.626,94.560L70.665,94.496L70.623,94.441L70.710,94.389L70.784,94.315L70.730,94.234L70.718,94.166L70.673,94.155L70.591,94.161L70.694,94.073L70.829,94.059L70.823,94.018L70.829,93.978L70.764,93.998L70.651,94.014L70.608,93.962L70.643,93.951L70.678,93.946L70.563,93.884L70.525,93.784L70.505,93.744L70.518,93.713L70.549,93.747L70.595,93.784L70.695,93.708L70.843,93.640L70.688,93.650L70.580,93.608L70.626,93.577L70.678,93.560L70.599,93.559L70.521,93.560L70.529,93.527L70.538,93.494L70.474,93.480L70.488,93.411L70.567,93.395L70.633,93.426L70.604,93.338L70.605,93.216L70.701,93.218L70.787,93.239L70.737,93.168L70.680,93.102L70.624,93.037L70.574,92.979L70.561,92.936L70.609,92.917L70.691,92.878L70.774,92.881L70.777,92.830L70.787,92.783L70.844,92.747L70.851,92.677L70.823,92.645L70.858,92.588L70.896,92.524L71.015,92.484L71.137,92.493L71.107,92.523L71.150,92.573L71.137,92.622L71.220,92.654L70.949,92.824L70.797,93.049L70.827,93.025L70.856,93.000L70.903,92.989L70.955,93.009L70.930,92.929L70.999,92.904L71.025,92.961L71.134,92.805L71.289,92.720L71.337,92.725L71.367,92.763L71.295,92.810L71.205,92.847L71.261,92.901L71.317,92.847L71.316,92.936L71.249,93.018L71.147,93.078L71.094,93.172L71.150,93.136L71.210,93.108L71.153,93.236L71.029,93.323L70.999,93.411L70.983,93.512L71.053,93.535L71.122,93.560L71.099,93.391L71.198,93.283L71.275,93.318L71.327,93.401L71.336,93.486L71.346,93.559L71.419,93.585L71.484,93.557L71.698,93.490L71.872,93.333L71.898,93.369L71.911,93.413L71.894,93.461L71.871,93.485L71.901,93.508L71.940,93.490L72.041,93.288L72.179,93.187L72.179,93.251L72.196,93.313L72.233,93.333L72.164,93.365L72.136,93.414L72.237,93.412L72.318,93.446L72.254,93.477L72.164,93.512L72.290,93.535L72.290,93.592L72.175,93.613L72.060,93.624L72.014,93.608L71.967,93.591L71.795,93.567L71.673,93.653L71.617,93.692L71.557,93.733L71.586,93.759L71.641,93.733L71.697,93.701L71.835,93.621L71.941,93.656L71.850,93.698L71.756,93.729L71.887,93.761L71.872,93.806L71.941,93.817L71.990,93.864L72.067,93.864L72.067,93.873L72.067,93.882L71.941,93.897L71.818,93.946L71.990,93.935L72.162,93.923L72.315,93.897L72.456,93.882L72.330,93.969L72.164,94.011L72.300,94.027L72.428,94.022L72.507,93.962L72.582,93.898L72.591,93.940L72.610,93.978L72.666,93.909L72.730,93.865L72.723,93.825L72.716,93.792L72.759,93.781L72.805,93.784L72.804,93.741L72.846,93.724L72.893,93.711L72.922,93.674L72.998,93.645L73.077,93.616L73.195,93.584L73.319,93.624L73.311,93.650L73.302,93.674L73.406,93.669L73.489,93.611L73.566,93.479L73.694,93.426L73.840,93.431L73.980,93.471L74.071,93.525L74.085,93.640L74.126,93.731ZM70.316,92.413L70.337,92.441L70.310,92.462L70.261,92.470L70.219,92.460L70.193,92.444L70.225,92.426L70.278,92.413L70.316,92.413ZM70.595,92.364L70.558,92.393L70.537,92.367L70.539,92.319L70.568,92.282L70.615,92.277L70.640,92.302L70.636,92.338L70.595,92.364ZM36.159,87.113L36.180,87.128L36.197,87.146L36.228,87.192L36.137,87.289L36.067,87.276L36.033,87.275L36.005,87.289L35.945,87.280L35.898,87.257L35.860,87.221L35.825,87.178L35.799,87.117L35.821,87.082L35.960,86.997L36.008,87.002L36.045,87.034L36.061,87.088L36.075,87.103L36.108,87.110L36.159,87.113ZM32.794,86.378L32.823,86.359L32.982,86.328L33.009,86.362L33.033,86.405L33.043,86.453L33.031,86.499L33.001,86.525L32.967,86.525L32.891,86.499L32.846,86.493L32.816,86.468L32.799,86.429L32.794,86.378ZM88.235,66.946L88.317,66.939L88.379,66.994L88.400,67.066L88.360,67.111L88.302,67.130L88.237,67.085L88.202,67.013L88.235,66.946ZM88.294,69.035L88.319,69.068L88.328,69.087L88.318,69.101L88.301,69.104L88.261,69.097L88.253,69.084L88.241,69.044L88.250,69.027L88.266,69.019L88.283,69.027L88.294,69.035ZM12.921,30.401L12.920,30.380L12.933,30.387L12.934,30.438L12.899,30.493L12.859,30.499L12.839,30.486L12.824,30.458L12.820,30.419L12.833,30.393L12.857,30.385L12.878,30.383L12.890,30.390L12.896,30.415L12.888,30.427L12.878,30.436L12.872,30.451L12.883,30.465L12.910,30.462L12.925,30.437L12.921,30.401ZM11.600,28.328L11.601,28.322L11.605,28.327L11.600,28.328ZM41.597,15.230L41.610,15.220L41.610,15.241L41.597,15.230ZM26.936,5.035L26.960,5.000L26.973,5.045L26.936,5.035Z" fill="currentColor" stroke="currentColor" stroke-width="1" stroke-linejoin="round"/>
</svg>