<svg xmlns="http://www.w3.org/2000/svg" viewBox="0 0 100 100" role="img" aria-label="Antigua and Barbuda">
  <title>Antigua and Barbuda</title>
  <path d="M63.422,81.761L63.896,80.468L63.510,79.364L63.549,78.392L65.302,77.481L64.529,77.177L62.284,75.935L63.475,74.807L65.390,73.979L67.877,73.233L67.003,71.737L67.183,70.398L68.167,69.225L69.722,68.217L73.166,68.649L74.537,70.661L75.363,72.994L77.156,74.393L77.261,73.390L77.551,72.727L78.570,71.300L79.185,72.267L80.024,72.828L81.079,73.012L82.318,72.847L81.791,73.445L81.487,73.868L81.030,74.172L80.046,74.393L80.538,76.013L81.646,76.777L83.069,76.736L84.532,75.935L85.336,75.935L85.890,76.492L86.259,77.053L86.746,78.323L86.013,78.268L84.528,78.379L83.794,78.323L84.796,79.584L85.723,80.187L86.250,80.795L86.008,82.116L84.791,84.076L83.570,84.159L82.173,83.441L80.415,82.953L79.576,83.363L79.537,84.389L80.046,87.174L79.238,88.522L77.468,87.666L75.714,86.064L74.950,85.208L74.221,85.392L72.011,86.479L70.522,86.746L68.272,86.759L66.866,86.442L63.418,84.334L62.693,83.303L63.422,81.761ZM68.246,20.197L66.858,20.961L66.264,19.331L66.040,14.715L65.548,12.640L64.920,10.905L64.476,9.133L64.564,6.928L64.960,7.301L65.127,7.669L65.302,8.544L65.961,9.915L67.675,11.982L68.246,13.174L68.215,14.757L67.789,16.096L67.789,17.159L69.054,17.877L69.590,15.769L69.748,12.888L69.081,10.339L67.139,9.248L66.357,8.010L66.871,5.838L68.369,5.000L70.522,7.771L69.797,8.203L69.054,8.544L70.482,9.055L72.745,8.268L74.146,8.544L75.886,9.869L77.388,11.664L78.575,13.634L79.370,15.493L80.143,18.880L80.248,20.749L80.046,22.516L79.317,24.642L78.575,25.029L77.463,24.928L75.618,25.600L74.937,23.579L73.017,22.143L68.246,20.197ZM13.542,94.189L13.648,94.046L13.815,93.990L13.831,94.277L13.815,94.650L13.664,94.936L13.383,95.000L13.254,94.809L13.360,94.388L13.542,94.189Z" fill="currentColor" stroke="currentColor" stroke-width="1" stroke-linejoin="round"/>
</svg>