<svg xmlns="http://www.w3.org/2000/svg" viewBox="0 0 100 100" role="img" aria-label="Austria">
  <title>Austria</title>
  <path d="M92.601,34.048L92.711,34.867L92.648,35.088L92.623,35.177L92.429,35.379L92.234,35.535L92.146,35.700L92.084,35.933L91.776,36.373L91.656,36.609L91.607,36.859L91.502,37.795L91.472,37.905L91.443,37.958L91.422,38.037L91.415,38.230L91.451,38.335L91.543,38.390L91.780,38.415L91.847,38.454L91.972,38.555L92.093,38.689L92.146,38.828L92.119,38.906L92.073,39.008L92.051,39.096L92.102,39.133L92.134,39.170L92.174,39.258L92.212,39.358L92.227,39.438L92.266,39.541L92.356,39.599L92.463,39.648L92.594,39.765L92.667,39.790L92.711,39.851L92.722,39.927L92.706,40.128L92.711,40.212L92.895,40.841L92.951,41.158L92.952,41.538L93.037,41.811L93.334,42.136L93.496,42.235L93.685,42.263L93.810,42.343L93.987,42.663L94.043,42.764L94.196,42.928L94.076,43.076L94.015,43.254L93.948,43.580L93.994,43.609L94.135,43.726L94.072,44.014L94.343,44.161L94.724,44.297L95.000,44.544L94.260,45.163L94.384,45.307L94.379,45.415L94.322,45.525L94.289,45.675L94.266,45.705L94.156,45.779L94.124,45.829L94.137,45.905L94.195,45.941L94.257,45.961L94.282,45.996L94.233,46.308L94.165,46.537L94.048,46.714L93.854,46.867L93.445,46.959L93.297,47.036L93.301,47.227L93.376,47.306L93.623,47.421L93.716,47.490L93.829,47.818L93.906,47.929L93.729,48.126L93.745,48.428L93.824,48.783L93.846,49.355L93.905,49.532L94.005,49.665L94.139,49.750L93.896,49.863L93.037,49.978L92.101,50.214L91.654,50.131L91.482,49.672L91.325,49.805L91.094,50.175L90.963,50.304L90.860,50.329L90.195,50.224L90.068,50.146L89.936,50.008L89.846,49.827L89.802,49.642L89.739,49.485L89.590,49.380L88.645,49.011L88.150,48.948L87.717,49.145L87.646,49.314L87.667,49.545L87.602,49.696L87.502,49.793L87.031,50.043L86.891,50.170L86.813,50.218L86.758,50.207L86.700,50.152L86.631,50.065L86.545,50.153L86.366,50.445L86.262,50.576L86.475,50.700L87.136,50.969L87.463,50.895L88.240,51.214L88.629,51.147L88.886,51.266L89.092,51.544L89.192,51.898L89.127,52.238L89.327,52.351L89.490,52.518L89.582,52.738L89.568,53.008L89.442,53.232L89.099,53.378L88.964,53.524L89.012,54.230L88.848,54.359L88.405,54.708L87.136,55.293L86.995,55.061L86.838,54.950L86.690,54.991L86.570,55.213L86.600,55.885L86.574,55.937L86.516,55.968L86.464,56.015L86.457,56.118L86.490,56.186L86.544,56.215L86.596,56.235L86.628,56.270L86.986,57.029L87.034,57.318L86.956,57.552L86.789,57.707L86.422,57.908L86.422,57.910L86.461,58.215L86.279,58.599L86.320,58.889L86.391,58.950L86.485,58.942L86.584,58.952L86.663,59.065L86.667,59.219L86.570,59.518L86.567,59.615L86.725,59.721L87.124,59.527L87.318,59.546L87.462,59.759L87.406,59.964L87.136,60.325L86.888,60.482L86.811,60.738L86.899,60.969L87.136,61.050L87.275,61.122L87.317,61.213L87.269,61.309L87.136,61.395L86.608,61.613L86.461,61.748L86.799,61.790L86.967,61.847L87.136,62.006L87.189,62.196L86.966,62.250L86.658,62.254L86.462,62.291L86.462,62.293L86.411,62.341L86.353,62.355L86.292,62.338L86.229,62.290L86.025,62.134L85.775,62.103L85.295,62.162L84.855,62.072L84.694,62.095L84.581,62.288L84.530,62.554L84.435,62.634L84.318,62.661L84.198,62.765L84.168,62.872L84.178,62.969L84.172,63.076L84.092,63.203L84.011,63.268L83.764,63.375L83.464,63.598L83.328,63.742L82.900,64.338L82.748,64.486L82.559,64.576L82.074,64.869L81.828,65.018L81.785,65.029L81.303,65.150L81.234,65.191L81.119,65.315L81.130,65.353L81.182,65.392L81.192,65.516L81.111,66.061L81.107,66.114L81.092,66.368L81.102,66.675L81.237,67.104L81.489,67.268L81.621,67.540L81.647,67.943L81.646,67.942L81.425,67.659L81.296,67.566L80.817,67.479L80.017,67.066L79.689,67.000L79.360,67.029L78.908,67.216L78.560,67.359L78.248,67.377L77.345,67.240L77.154,67.122L77.118,67.386L77.119,67.611L77.048,67.765L76.986,67.812L76.926,67.858L76.774,67.903L76.596,67.851L76.344,67.854L76.092,67.922L75.912,68.063L75.796,68.313L75.789,68.346L75.758,68.512L75.714,68.612L75.682,68.685L75.463,68.862L75.109,68.926L74.842,68.755L74.787,68.706L74.577,68.517L74.230,68.384L73.577,68.419L72.068,68.500L71.686,68.457L70.896,68.370L70.661,68.345L70.381,68.314L69.702,68.537L69.263,69.178L69.036,68.845L68.866,68.812L68.700,68.919L68.443,69.085L68.400,69.091L68.199,69.119L68.033,69.098L67.884,69.163L67.687,69.456L67.553,69.752L67.461,70.036L67.375,70.304L67.250,70.596L67.155,70.819L67.089,70.879L66.828,71.001L66.526,71.052L66.421,70.976L66.225,71.067L66.154,71.150L66.095,71.269L65.958,71.440L65.873,71.657L65.786,71.641L65.716,71.628L65.662,71.642L65.426,71.896L65.304,71.977L65.184,72.014L64.928,72.037L64.814,72.085L64.639,72.343L64.540,72.682L64.483,72.834L64.431,72.970L64.226,73.063L64.070,72.895L63.937,72.595L63.776,72.367L63.368,72.467L63.171,72.435L63.008,72.358L62.806,72.262L62.740,72.180L62.703,72.082L62.646,71.999L62.521,71.970L62.123,72.060L60.709,72.018L59.618,71.986L59.596,71.980L59.470,71.945L58.806,71.357L58.633,71.268L58.440,71.209L58.233,71.204L58.026,71.242L57.835,71.277L57.641,71.253L56.562,70.729L56.206,70.668L55.440,70.797L55.279,70.799L54.500,70.605L54.321,70.590L54.137,70.627L53.959,70.608L52.531,70.132L52.030,70.113L51.939,70.048L51.772,69.853L51.691,69.821L50.971,69.875L50.455,69.782L49.253,70.046L48.777,70.021L48.528,69.919L47.778,69.446L46.811,69.217L44.049,69.014L43.378,68.566L43.082,68.464L42.981,68.429L42.888,68.442L42.699,68.517L42.588,68.521L42.479,68.472L42.265,68.306L42.172,68.263L42.151,68.253L41.568,68.192L40.882,68.285L40.709,68.268L40.513,68.172L40.149,67.918L39.792,67.854L39.508,67.803L39.029,67.603L38.621,67.234L38.397,66.671L38.294,66.288L38.097,66.159L37.852,66.124L37.606,66.027L37.493,65.946L37.425,65.877L37.397,65.758L37.400,65.532L37.432,65.329L37.475,65.207L37.508,65.081L37.505,64.865L37.396,64.482L37.210,64.351L36.713,64.333L36.552,64.272L36.480,64.187L36.416,64.077L36.282,63.938L36.150,63.870L35.872,63.819L35.747,63.768L35.921,63.593L35.922,63.433L35.840,63.267L35.763,63.072L35.691,62.667L35.640,62.467L35.562,62.293L35.686,61.986L36.401,61.581L36.652,61.235L36.656,60.995L36.660,60.773L36.382,60.676L35.821,60.788L35.622,60.828L34.427,61.460L33.585,61.501L33.064,61.684L32.563,61.960L32.156,62.288L31.620,62.375L31.490,62.461L31.258,62.653L31.122,62.685L30.901,62.600L30.519,62.312L30.295,62.288L30.206,62.301L30.117,62.293L30.102,62.288L30.096,62.288L29.489,62.162L29.208,62.189L28.865,62.291L28.864,62.291L28.862,62.293L28.861,62.293L28.750,62.354L28.639,62.374L28.531,62.355L28.433,62.293L28.370,62.208L28.302,62.142L28.225,62.096L28.018,62.046L27.900,62.074L27.795,62.155L27.704,62.291L27.703,62.293L27.302,62.687L26.941,62.669L26.574,62.487L26.153,62.393L25.326,62.534L24.509,62.804L24.298,62.933L23.535,63.705L23.437,63.921L23.313,64.537L23.091,65.078L23.081,65.145L23.095,65.327L23.074,65.415L23.023,65.471L22.892,65.532L22.843,65.579L22.579,66.041L22.414,66.218L22.246,66.242L22.046,66.174L21.635,66.132L21.432,66.161L21.038,66.297L20.921,66.306L20.801,66.255L20.599,66.079L20.493,66.023L20.372,66.021L20.148,66.086L20.032,66.082L19.693,65.885L19.557,65.838L19.308,65.918L19.181,65.914L19.110,65.760L19.165,65.674L19.427,65.457L19.485,65.336L19.370,65.158L18.468,64.608L18.286,64.559L18.077,64.582L16.877,64.919L16.388,64.864L16.005,64.547L15.977,64.173L16.124,63.577L16.060,63.281L15.955,63.154L15.554,62.829L15.308,62.426L15.186,62.293L15.186,62.290L15.184,62.290L15.122,62.249L15.056,62.236L14.992,62.249L14.649,62.449L14.352,62.796L14.145,63.198L14.139,63.525L13.845,63.539L13.616,63.478L13.425,63.515L13.245,63.822L13.189,64.044L13.180,64.192L13.148,64.326L13.027,64.505L12.512,64.772L12.208,64.860L12.128,64.857L11.964,64.850L11.454,64.684L11.188,64.527L10.732,64.085L9.470,63.671L9.177,63.443L9.027,63.226L9.007,63.062L9.045,62.873L9.075,62.461L9.123,62.294L9.123,62.191L9.078,62.136L9.005,62.142L8.955,62.099L8.975,61.899L6.745,61.185L6.548,61.155L5.929,61.233L5.709,61.173L6.034,60.754L6.116,60.298L5.996,59.851L5.716,59.455L5.365,59.244L5.363,59.092L5.481,58.829L5.493,58.704L5.391,58.460L5.279,58.308L5.227,58.154L5.306,57.910L5.107,57.723L5.000,57.563L5.379,56.913L5.782,56.423L5.827,56.303L5.888,55.994L5.943,55.837L6.400,55.254L6.515,54.987L6.524,54.245L6.187,53.945L5.748,53.743L5.399,53.214L5.376,53.109L5.311,52.799L5.339,52.817L5.389,52.831L6.079,53.021L6.835,53.008L7.157,52.854L7.328,52.586L7.474,52.267L7.732,51.966L7.903,51.875L8.079,51.855L8.246,51.915L8.384,52.067L8.423,52.274L8.400,52.487L8.445,52.673L8.685,52.798L8.781,52.791L8.926,52.696L8.985,52.680L9.340,52.812L9.692,52.840L9.870,52.805L10.012,52.690L10.045,52.980L10.168,53.144L10.316,53.292L10.423,53.528L10.423,53.581L10.427,53.635L10.445,53.737L10.575,53.815L10.678,53.770L10.783,53.677L10.917,53.616L11.498,54.472L11.601,54.678L11.547,54.862L11.278,55.073L11.408,55.225L11.439,55.407L11.450,55.595L11.514,55.763L11.628,55.875L11.708,55.872L11.798,55.804L11.953,55.729L12.011,55.737L12.133,55.812L12.194,55.812L12.244,55.773L12.384,55.617L12.903,55.522L13.120,55.640L13.111,55.956L12.898,56.605L12.925,56.720L12.931,56.825L12.901,56.942L12.844,56.999L12.688,57.046L12.641,57.079L12.532,57.277L12.484,57.386L12.537,57.417L12.715,57.395L13.475,57.301L13.732,57.200L14.260,56.873L14.491,56.660L14.703,56.372L14.965,55.839L15.036,55.729L15.158,55.647L15.406,55.559L15.508,55.490L15.704,55.227L15.876,54.872L15.983,54.478L15.981,54.102L15.932,53.885L15.869,53.731L15.767,53.618L15.602,53.527L15.721,52.828L15.736,52.665L15.658,52.469L15.555,52.276L15.538,52.125L15.715,52.054L15.913,52.019L16.003,51.983L16.044,52.015L16.097,52.179L16.082,52.248L16.025,52.332L15.981,52.444L16.002,52.594L16.064,52.675L16.160,52.743L16.344,52.829L16.847,52.906L16.986,52.881L17.136,52.760L17.375,52.424L17.538,52.309L17.824,52.313L19.381,52.906L19.429,52.961L19.468,53.051L19.526,53.135L19.627,53.166L19.976,53.123L20.452,52.904L20.619,52.856L20.782,52.867L20.908,52.939L21.179,53.144L21.080,53.264L20.699,53.526L20.780,53.665L21.387,53.948L21.976,54.588L22.012,54.668L22.015,54.785L21.988,54.907L21.951,54.987L21.923,54.989L22.043,55.227L22.208,55.324L23.438,55.342L23.669,55.271L24.440,54.732L24.737,54.650L24.990,54.755L24.964,55.231L25.247,55.264L25.504,55.145L25.673,54.963L25.829,54.751L26.057,54.537L26.276,54.467L26.789,54.454L26.980,54.371L27.081,54.197L27.036,54.067L26.908,53.982L26.763,53.942L27.319,53.298L27.587,53.234L27.878,53.274L28.145,53.359L28.698,53.267L28.954,53.165L29.169,52.925L29.229,52.762L29.322,52.357L29.402,52.171L29.731,51.884L29.772,51.833L29.990,51.840L30.505,51.943L31.466,51.948L32.130,52.085L32.252,52.044L32.370,51.746L32.503,51.666L33.494,51.463L36.205,51.582L36.299,51.563L36.635,51.129L36.678,51.017L36.690,50.853L36.671,50.384L36.638,50.288L36.578,50.248L36.482,50.152L36.395,50.036L36.357,49.940L36.334,49.796L36.521,49.720L36.805,49.483L36.907,49.419L37.079,49.343L37.108,49.337L37.072,49.417L37.041,49.604L37.000,49.743L36.924,49.848L36.885,49.970L36.950,50.164L37.067,50.268L37.195,50.249L37.458,50.111L37.716,50.074L38.397,50.219L38.597,50.187L39.061,50.008L39.255,50.046L39.310,50.147L39.433,50.521L39.498,50.665L39.593,50.779L39.944,51.063L40.110,51.145L40.352,51.151L40.601,51.102L40.785,51.020L40.898,50.919L41.311,50.549L41.535,50.436L41.956,50.335L42.377,50.335L43.039,50.506L43.242,50.479L43.120,50.786L43.305,51.014L43.611,51.217L43.845,51.444L43.523,51.605L43.379,52.011L43.442,52.444L43.733,52.680L43.915,52.712L44.026,52.752L44.126,52.832L44.665,53.430L45.243,53.869L45.372,53.922L45.472,53.887L45.570,53.834L45.693,53.830L45.806,53.891L45.872,53.961L45.945,54.006L46.072,54.000L46.154,53.929L46.490,53.527L46.487,53.381L46.456,53.274L46.418,53.185L46.392,53.089L46.382,52.980L46.382,52.675L46.411,52.629L46.523,52.345L46.537,52.319L46.511,52.329L46.501,51.932L46.533,51.943L46.723,51.693L46.731,51.644L46.871,51.297L46.900,51.259L46.926,51.047L46.933,50.834L46.900,50.609L46.806,50.354L46.576,49.959L46.431,49.782L46.284,49.672L46.101,49.642L45.803,49.774L45.626,49.805L44.968,49.682L44.776,49.486L44.995,49.146L44.998,49.143L45.073,49.019L45.094,48.903L45.098,48.791L45.121,48.679L45.186,48.542L45.947,47.320L45.892,47.264L45.637,46.884L45.237,45.956L45.038,45.761L44.943,45.710L44.705,45.465L44.422,45.296L44.327,45.157L44.264,44.973L44.259,44.948L44.228,44.759L44.051,44.368L43.221,43.502L43.111,43.329L43.006,43.118L42.946,42.887L42.970,42.650L43.042,42.524L43.117,42.499L43.194,42.502L43.266,42.470L43.434,42.207L43.482,42.149L43.951,41.822L44.105,41.647L44.321,41.309L44.428,41.192L44.606,41.097L45.260,40.971L45.244,40.929L45.427,40.782L45.807,40.572L46.247,40.153L46.437,40.019L47.660,39.537L49.286,39.255L49.682,39.036L50.836,38.037L51.000,37.764L51.067,37.392L51.091,37.302L51.144,37.211L51.197,37.091L51.221,36.908L51.199,36.413L51.221,36.250L51.277,36.089L51.436,35.757L51.469,35.586L51.443,35.432L51.333,35.263L51.286,34.947L51.250,34.868L51.243,34.805L51.308,34.683L51.414,34.586L51.799,34.443L52.194,34.391L53.417,34.728L53.624,34.838L53.815,34.978L53.996,35.252L54.479,35.467L54.505,35.493L54.610,35.025L54.710,34.826L54.750,34.835L54.995,34.796L55.089,34.756L55.186,34.660L55.243,34.578L55.445,34.145L55.518,33.915L55.555,33.662L55.563,33.368L55.501,32.802L55.532,32.593L55.689,32.445L55.541,32.375L55.483,32.322L55.357,32.078L55.296,32.100L55.323,31.933L55.675,31.203L56.150,31.328L56.374,31.448L56.589,31.613L56.847,31.824L57.641,32.254L57.745,32.364L57.941,32.661L58.017,32.805L58.077,32.860L58.159,32.892L58.229,32.941L58.260,33.048L58.238,33.158L58.184,33.174L58.127,33.163L58.091,33.189L58.012,33.353L57.945,33.377L57.923,33.428L57.978,33.667L58.029,33.763L58.233,34.013L58.332,34.100L58.733,34.266L60.405,34.451L61.576,34.858L61.689,34.846L61.782,34.809L62.020,34.621L62.633,34.361L62.820,34.172L63.084,33.480L63.256,33.364L63.539,33.691L64.010,33.934L64.149,33.968L64.326,33.929L64.679,33.761L64.861,33.747L64.937,33.812L64.951,33.924L64.953,34.041L64.990,34.115L65.082,34.125L65.262,34.063L65.339,34.080L65.466,34.245L65.536,34.410L65.628,34.524L65.822,34.537L66.005,34.357L66.059,34.304L66.119,33.848L66.112,33.312L66.155,32.839L66.378,32.483L66.999,31.947L67.059,31.611L67.177,31.406L67.225,31.193L67.294,31.026L67.472,30.959L68.088,31.043L68.698,31.288L68.937,31.266L69.072,30.959L69.047,30.927L68.994,30.814L68.943,30.676L68.920,30.565L68.939,30.443L69.025,30.222L69.275,29.124L69.276,28.639L69.227,28.103L69.232,27.604L69.393,27.234L69.382,27.139L69.382,27.057L69.400,26.998L69.438,26.969L69.697,26.937L70.353,27.157L71.271,27.230L71.358,27.478L71.408,27.716L71.403,27.954L71.325,28.204L71.559,28.209L72.459,27.971L72.520,27.933L72.683,27.741L72.722,27.649L72.752,27.413L72.799,27.342L72.889,27.341L72.949,27.413L72.998,27.500L73.057,27.540L73.609,27.547L73.872,27.620L74.440,27.903L74.964,28.076L75.218,28.218L75.801,28.712L76.071,28.815L76.774,29.083L77.690,29.589L77.954,29.651L78.226,29.651L78.425,29.589L78.845,29.372L78.947,29.348L79.308,29.347L79.376,29.397L79.424,29.613L79.482,29.703L79.563,29.736L79.789,29.752L79.918,29.845L80.006,29.884L80.104,29.877L79.984,30.034L80.132,30.000L80.265,30.005L80.353,30.084L80.365,30.269L80.565,30.218L80.628,30.293L80.628,30.415L80.645,30.502L81.831,31.350L82.457,31.616L83.547,31.552L85.197,31.792L85.211,31.780L85.456,31.744L85.612,31.869L85.678,31.890L85.863,31.836L85.992,31.717L86.591,30.710L86.796,30.576L87.136,30.625L87.258,30.619L87.472,30.531L87.580,30.516L87.689,30.552L87.890,30.679L88.595,30.880L88.813,30.906L89.039,30.995L89.132,31.207L89.175,31.458L89.261,31.666L89.416,31.773L89.603,31.805L90.052,31.787L90.233,31.848L90.660,32.126L90.877,32.206L91.104,32.179L91.557,32.020L91.751,32.035L92.030,32.420L92.194,33.581L92.601,34.048Z" fill="currentColor" stroke="currentColor" stroke-width="1" stroke-linejoin="round"/>
</svg>