<svg xmlns="http://www.w3.org/2000/svg" viewBox="0 0 100 100" role="img" aria-label="Azerbaijan">
  <title>Azerbaijan</title>
  <path d="M8.152,31.076L8.758,31.220L8.929,31.796L8.710,32.260L8.152,32.070L7.959,31.825L7.863,31.521L7.913,31.243L8.152,31.076ZM8.505,26.883L9.972,25.686L12.307,23.783L12.801,23.614L13.304,23.640L13.591,23.786L14.332,24.164L14.571,24.211L14.881,24.184L15.390,24.031L15.617,24.071L15.840,24.323L16.340,24.788L18.552,25.637L19.553,25.838L19.912,25.979L19.931,26.104L19.712,26.223L19.359,26.346L19.017,26.766L19.385,27.340L20.020,27.878L20.317,28.057L21.092,28.526L23.375,29.341L24.117,29.431L24.489,29.398L24.793,29.288L25.197,29.032L25.589,28.783L25.932,28.705L27.088,28.699L27.365,28.795L27.608,29.030L28.055,29.582L28.961,30.395L29.281,30.583L30.196,30.879L30.448,31.098L30.878,31.672L31.154,31.840L31.490,31.825L31.625,31.615L31.711,31.299L31.885,30.977L32.210,30.775L32.511,30.804L32.803,30.883L33.105,30.835L33.317,30.541L33.403,30.421L33.532,29.775L33.613,29.084L33.762,28.542L33.853,28.418L34.056,28.229L34.147,28.102L34.179,27.969L34.196,27.617L34.226,27.462L34.361,27.305L34.489,27.324L34.536,27.299L34.439,27.006L33.956,26.276L33.659,25.947L33.555,25.775L33.537,25.763L33.430,25.692L33.191,25.785L32.948,25.223L32.193,24.779L30.695,24.157L29.975,23.497L29.662,23.422L29.483,23.339L28.678,22.792L28.413,22.458L28.277,22.020L28.154,21.235L28.131,21.089L27.789,20.447L27.754,20.334L27.541,20.343L27.440,20.495L27.363,20.680L27.228,20.789L26.814,20.450L26.618,19.545L26.611,18.524L26.756,17.835L27.053,17.525L27.389,17.489L28.109,17.650L28.429,17.620L28.675,17.503L28.899,17.306L29.560,16.516L29.890,15.993L30.477,14.811L30.807,14.896L31.222,14.880L31.932,14.974L32.210,15.136L32.296,15.516L32.222,16.333L32.307,16.675L32.579,16.898L32.872,16.896L33.139,16.727L33.640,16.298L33.956,16.188L34.578,16.062L34.763,15.925L34.856,15.856L35.115,15.596L35.244,15.599L35.309,15.823L35.447,16.613L35.530,16.886L35.679,17.119L36.690,18.034L36.953,18.193L37.147,18.247L37.547,18.299L37.727,18.386L37.798,18.503L37.881,18.871L37.938,19.026L38.146,19.302L38.911,19.940L39.291,20.545L39.425,21.148L39.646,21.521L39.665,21.518L40.294,21.433L40.588,21.319L40.884,21.260L41.162,21.333L41.405,21.612L41.518,21.961L41.572,22.302L41.681,22.596L41.953,22.798L41.988,22.833L42.108,22.956L42.181,23.136L42.232,23.331L42.315,23.535L42.791,24.124L42.908,24.363L42.965,24.854L42.936,25.908L43.089,26.368L43.359,26.634L44.529,27.330L44.880,27.460L45.008,27.507L46.601,27.658L46.936,27.771L47.370,28.370L47.649,28.589L47.964,28.592L48.508,28.235L48.806,28.118L49.114,28.155L49.919,28.559L50.375,28.789L50.670,28.850L51.743,28.755L51.978,28.735L52.630,28.538L52.991,28.315L53.057,28.118L52.979,27.860L52.909,27.446L52.953,27.027L53.096,26.832L53.301,26.686L53.527,26.418L53.657,26.052L53.731,25.737L53.893,25.569L54.292,25.636L54.637,25.442L55.144,24.002L55.436,23.445L55.943,23.137L57.717,22.798L58.171,22.556L58.976,21.871L60.306,21.054L60.658,20.677L60.969,20.099L61.617,18.353L61.722,18.220L62.774,16.884L63.517,15.719L63.677,15.858L64.151,16.139L64.694,16.618L66.051,18.463L66.577,18.984L66.792,19.298L66.881,19.787L67.931,20.948L68.518,22.196L68.830,22.308L69.089,22.574L69.284,22.886L69.412,23.147L69.768,23.662L69.831,23.783L69.909,23.866L70.289,23.979L70.418,24.051L70.647,24.390L71.203,25.533L71.669,26.494L71.891,26.818L72.084,27.194L72.177,27.633L72.367,29.378L72.465,29.747L72.634,29.903L72.739,30.134L73.000,31.575L73.734,32.783L75.579,34.855L75.732,35.085L75.870,35.410L76.195,35.690L76.896,36.122L77.239,36.032L77.529,36.286L77.805,36.626L78.113,36.796L78.282,36.991L78.213,37.432L77.945,38.182L77.854,38.571L77.831,38.783L77.850,39.006L77.914,39.134L78.120,39.390L78.165,39.493L78.175,39.510L78.283,39.689L78.556,39.947L78.856,40.173L79.063,40.269L79.731,40.309L80.032,40.389L80.276,40.530L80.824,41.015L81.127,41.163L81.898,41.266L82.556,41.472L82.919,41.504L83.201,41.447L84.056,41.091L84.424,41.028L86.175,41.091L86.304,41.219L86.372,41.360L86.422,41.506L86.491,41.642L86.765,41.978L87.058,42.243L87.369,42.416L88.760,42.714L89.029,42.865L89.198,43.166L89.386,43.631L89.619,44.063L89.923,44.252L90.257,44.373L90.543,44.680L90.768,45.084L90.921,45.500L91.078,47.161L91.185,47.327L91.312,47.703L91.391,48.119L91.341,48.399L91.046,47.824L90.727,47.327L90.345,46.881L89.585,46.262L89.261,46.081L88.913,45.951L88.226,45.856L87.647,45.666L87.339,45.626L87.167,45.645L86.958,45.737L86.815,45.775L86.224,45.775L85.954,45.891L85.433,46.325L85.125,46.325L85.015,46.227L84.817,45.910L84.696,45.775L84.534,45.711L84.139,45.642L83.736,45.422L83.430,45.593L82.919,46.050L83.025,46.527L82.591,46.971L81.966,47.298L80.944,47.529L80.048,48.051L78.871,48.487L78.596,48.689L78.005,49.342L77.740,49.529L77.569,49.749L77.537,50.184L77.621,50.731L77.632,50.946L76.802,51.270L76.648,51.581L76.686,51.987L76.896,52.395L77.034,52.545L77.253,52.717L77.373,52.869L77.437,53.076L77.350,53.204L77.196,53.303L76.926,53.556L76.806,53.615L76.691,53.700L76.580,53.905L76.510,54.146L76.502,54.327L76.580,54.730L76.757,55.162L76.810,55.396L76.738,55.629L76.603,55.779L76.485,55.878L76.400,55.992L76.370,56.185L76.398,56.297L76.449,56.403L76.490,56.524L76.475,56.666L76.410,56.754L76.160,56.940L76.066,57.225L76.072,57.351L76.160,57.490L76.090,57.754L76.177,58.029L76.528,58.520L76.509,58.692L76.298,58.857L75.900,59.083L75.512,59.557L75.181,59.962L74.886,60.466L74.901,60.812L74.722,61.146L74.564,61.589L74.443,62.056L74.376,62.462L74.390,63.005L74.543,63.377L75.975,64.703L76.160,64.933L76.284,65.194L76.270,65.282L76.201,65.353L76.105,66.024L76.126,66.225L76.255,66.456L76.066,66.356L75.925,66.229L75.818,66.078L75.732,65.907L75.637,65.907L75.694,66.205L75.824,66.534L76.013,66.822L76.255,66.994L76.255,67.144L75.908,67.060L75.691,66.815L75.495,66.527L74.707,65.997L74.195,66.197L73.798,66.717L73.640,67.356L73.651,69.558L73.598,69.823L73.526,70.179L73.310,70.829L73.236,71.143L73.191,71.854L73.121,72.282L72.975,72.640L71.821,73.465L71.213,73.707L70.786,73.351L70.835,73.115L70.830,72.953L70.852,72.818L70.996,72.665L71.687,72.527L71.924,72.403L72.127,72.095L72.252,71.693L72.266,71.290L72.092,70.911L71.784,70.750L71.049,70.727L71.049,70.548L70.959,69.723L70.900,69.492L70.627,69.259L70.336,69.182L69.678,69.205L69.496,69.270L69.405,69.431L69.345,69.635L69.218,69.925L69.205,70.027L69.210,70.246L69.178,70.403L69.104,70.446L69.029,70.445L68.991,70.466L68.962,71.405L69.015,71.900L69.265,72.332L69.203,72.823L68.790,74.268L68.736,74.399L68.435,75.121L68.398,75.167L67.962,75.709L67.406,75.561L67.418,76.276L67.451,76.605L67.520,76.922L67.888,77.865L67.971,80.967L68.060,84.353L68.060,84.356L67.067,84.143L66.575,84.140L66.231,84.333L65.927,84.648L65.537,84.898L65.121,85.081L64.751,85.189L64.040,85.129L63.962,85.122L63.471,84.632L63.051,83.909L62.851,83.650L62.469,83.155L62.240,82.822L61.981,82.531L61.728,82.125L61.482,81.894L61.283,81.621L61.176,81.089L61.000,80.653L60.638,80.653L59.858,81.026L59.385,81.014L59.107,80.744L58.865,80.378L58.120,79.766L58.091,79.426L58.155,79.033L58.083,78.740L58.042,78.573L57.848,78.406L55.811,77.377L54.812,76.559L54.506,75.985L54.470,75.158L54.613,74.929L55.419,74.419L55.463,74.289L55.460,74.138L55.513,74.008L58.353,73.495L58.986,73.094L58.988,73.090L58.990,73.090L59.129,72.876L59.248,72.617L59.251,72.608L59.323,72.336L59.331,72.055L59.249,71.801L58.785,70.790L58.554,70.559L57.675,70.188L56.799,69.323L56.424,68.783L56.217,68.244L56.245,67.553L56.528,66.981L56.974,66.549L57.492,66.277L58.455,66.080L59.264,65.526L59.663,65.397L59.826,65.344L59.484,64.615L59.051,64.014L57.997,63.029L55.412,59.889L54.470,59.000L54.172,58.793L53.962,58.738L53.955,58.736L53.777,59.006L53.616,59.156L53.427,59.203L52.257,59.180L51.891,59.280L51.594,59.489L51.355,59.736L50.694,60.418L48.844,61.472L48.567,61.629L47.753,62.466L47.554,62.603L47.210,62.643L46.133,63.015L45.489,63.375L44.987,63.802L44.222,64.800L44.221,64.802L43.712,65.331L43.250,65.597L43.071,65.700L41.539,66.306L40.803,66.764L40.653,66.936L40.601,67.137L40.045,68.040L39.785,68.804L39.706,68.953L39.545,69.147L39.440,69.207L38.519,69.736L38.332,69.772L38.102,69.708L37.673,69.513L37.431,69.520L37.176,69.640L37.172,69.642L36.938,69.840L36.729,70.087L36.334,70.785L36.247,70.909L36.124,71.009L35.870,71.150L35.751,71.251L35.564,71.549L35.306,72.159L35.053,72.406L34.161,72.870L33.880,73.111L33.675,73.382L33.242,74.297L33.066,74.585L32.853,74.826L32.614,75.027L32.366,75.186L32.033,75.323L31.756,75.340L31.222,74.189L31.156,73.954L31.141,73.709L31.168,73.460L31.222,73.215L31.244,73.158L31.255,73.094L31.457,72.455L31.501,71.892L31.416,71.321L31.222,70.660L30.850,70.354L30.338,70.059L29.944,69.660L29.929,69.042L30.284,68.705L30.823,68.776L31.757,69.258L31.947,69.230L32.660,68.713L32.983,68.701L33.118,68.633L33.065,68.492L33.045,68.440L32.942,68.320L32.840,68.225L32.183,67.757L31.811,67.358L31.662,67.062L31.581,66.742L31.467,66.450L31.222,66.244L30.115,65.742L29.611,65.346L29.400,64.714L29.602,64.196L30.090,63.891L31.216,63.676L31.222,63.675L31.408,63.584L31.513,63.436L31.518,63.248L31.412,63.036L31.417,62.703L31.597,62.537L31.821,62.396L31.959,62.141L31.913,61.809L31.725,61.549L31.470,61.381L31.222,61.325L30.250,61.419L29.947,61.366L29.716,61.198L29.354,60.702L29.136,60.522L28.610,60.483L27.559,61.027L27.025,61.139L26.683,61.032L26.457,60.814L26.096,60.122L25.875,59.847L25.610,59.696L25.027,59.526L24.543,59.135L23.950,57.920L23.530,57.506L22.559,57.211L22.052,56.950L21.725,56.781L21.032,56.084L20.914,55.841L20.226,54.416L19.893,54.045L19.472,53.836L17.868,53.670L17.380,53.448L17.352,53.170L17.331,52.971L18.305,52.337L20.833,52.758L21.907,52.652L22.114,52.477L22.219,52.263L22.400,51.337L22.458,51.185L22.799,50.885L23.092,50.490L23.279,49.997L23.558,48.704L23.569,48.584L23.558,48.466L23.530,48.349L23.135,47.826L22.914,47.611L22.690,47.492L22.353,47.513L22.134,47.577L22.030,47.608L21.721,47.591L21.067,46.869L21.055,46.856L17.472,44.825L16.561,43.974L16.064,42.915L15.934,42.681L15.615,42.471L15.473,42.312L15.402,42.096L15.367,41.651L15.307,41.452L15.039,41.119L14.728,40.874L14.433,40.584L14.213,40.117L14.214,39.743L14.215,39.260L14.602,38.584L15.204,38.092L15.825,37.794L17.018,37.222L17.423,36.764L17.711,35.935L17.684,35.490L17.417,35.350L17.054,35.324L16.741,35.224L16.498,34.978L15.840,34.137L15.433,33.806L15.279,33.766L15.062,33.709L14.873,33.505L15.008,32.854L14.914,32.378L14.490,32.424L14.343,32.497L13.626,32.851L13.275,32.795L12.601,32.521L11.876,32.436L11.624,32.226L11.385,31.972L11.070,31.778L10.568,31.260L10.314,31.125L10.269,31.491L10.175,31.730L9.878,31.700L9.545,31.478L9.347,31.142L9.511,30.495L11.032,30.559L11.560,30.177L11.540,29.857L11.341,29.571L10.535,28.947L10.272,28.863L9.268,28.862L9.004,28.749L8.919,28.500L9.074,28.076L8.505,26.883ZM16.369,40.736L16.884,40.342L17.092,39.817L16.692,39.590L16.469,39.560L16.244,39.564L16.032,39.626L15.840,39.765L15.749,39.964L15.717,40.174L15.747,40.384L15.840,40.578L16.369,40.736ZM25.939,75.711L25.788,75.732L24.895,75.502L23.877,75.032L20.636,74.335L20.282,74.194L19.494,73.879L18.124,73.864L17.248,73.645L16.822,73.630L16.705,73.604L16.633,73.587L16.316,73.398L16.074,73.333L15.890,73.283L15.541,73.107L15.214,72.884L15.037,72.669L15.009,72.453L15.054,72.283L15.117,72.114L15.151,71.907L15.077,71.772L14.710,71.603L14.565,71.493L14.487,71.324L14.366,70.891L14.302,70.732L14.158,70.575L14.015,70.490L13.881,70.387L13.778,70.183L13.911,69.886L13.824,69.671L13.619,69.540L13.404,69.496L13.253,69.422L13.256,69.250L13.296,69.060L13.253,68.934L13.108,68.917L12.968,68.973L12.862,69.047L12.822,69.084L11.220,68.546L10.817,68.673L10.717,68.368L10.557,67.366L10.450,67.148L10.319,66.955L10.226,66.744L9.945,66.105L9.821,65.912L9.679,65.831L9.524,65.641L9.398,65.432L9.347,65.288L9.263,65.185L8.708,64.800L8.654,64.730L8.621,64.638L8.566,64.559L8.446,64.526L8.279,64.531L8.199,64.514L7.807,64.226L7.749,64.083L7.877,63.839L7.555,63.551L7.366,63.145L6.905,61.211L6.721,60.777L6.397,60.543L6.457,60.483L6.503,60.392L6.149,60.381L5.819,60.317L5.760,60.282L5.540,60.153L5.499,60.093L5.326,59.843L5.150,59.081L5.000,58.828L5.436,58.635L6.150,58.504L6.823,58.514L7.347,58.387L7.748,58.161L7.838,58.109L8.406,57.668L8.983,57.468L9.506,57.733L9.621,57.882L10.640,59.198L10.799,59.534L10.865,59.906L10.840,60.376L10.689,61.101L10.749,61.394L11.050,61.590L11.617,61.453L12.054,61.043L12.466,60.902L12.562,61.039L12.945,61.583L13.127,62.001L13.282,62.228L13.506,62.320L14.234,62.388L14.503,62.531L14.988,63.033L14.991,63.035L15.156,63.133L15.329,63.160L15.504,63.124L15.676,63.036L15.840,62.965L17.076,62.168L17.488,61.995L19.374,61.532L19.460,61.511L19.817,61.504L20.241,61.670L20.590,61.923L20.728,62.177L20.731,62.518L20.681,63.030L20.681,63.032L20.820,63.951L20.752,64.268L20.234,65.132L20.137,65.535L20.225,65.743L20.265,65.838L21.138,66.066L21.454,66.328L21.747,66.650L22.114,66.939L22.338,67.051L23.216,67.487L23.530,67.792L23.631,67.950L23.666,68.102L23.634,68.247L23.530,68.382L23.159,68.879L23.065,69.392L23.205,69.920L23.530,70.465L23.930,71.048L24.241,71.686L25.042,73.965L25.939,75.711ZM11.697,33.371L11.341,33.314L11.193,32.851L11.240,32.799L11.294,32.769L11.355,32.760L11.419,32.771L11.859,33.149L11.697,33.371ZM94.895,46.812L94.606,46.737L94.413,46.800L94.185,46.610L94.035,46.312L94.070,46.050L94.270,46.208L94.418,46.161L94.553,46.058L94.711,46.050L94.931,46.287L95.000,46.603L94.895,46.812ZM91.350,44.766L91.121,44.818L90.815,44.802L90.892,44.312L90.390,43.631L90.396,43.152L90.584,43.253L90.815,43.177L90.921,43.302L90.956,43.722L91.106,43.943L91.297,44.116L91.455,44.389L91.470,44.628L91.350,44.766Z" fill="currentColor" stroke="currentColor" stroke-width="1" stroke-linejoin="round"/>
</svg>