<svg xmlns="http://www.w3.org/2000/svg" viewBox="0 0 100 100" role="img" aria-label="Burundi">
  <title>Burundi</title>
  <path d="M76.790,9.065L75.413,10.800L74.856,11.683L73.279,15.528L72.939,16.850L72.758,17.289L72.359,17.810L71.366,18.753L71.026,19.269L70.865,20.294L71.327,20.742L72.135,20.751L73.012,20.462L74.504,19.782L75.458,19.429L75.189,20.217L72.797,22.731L72.462,23.278L72.326,23.924L72.311,24.983L71.404,26.210L70.927,27.136L71.018,27.855L72.058,29.203L72.690,29.797L73.446,30.004L73.257,30.460L73.498,30.792L73.859,31.149L74.034,31.667L74.039,31.683L74.239,31.588L75.062,30.452L75.557,30.043L76.137,29.827L76.474,29.883L79.176,31.502L79.726,31.735L79.907,31.855L80.014,32.109L80.130,32.790L80.242,32.971L80.796,33.091L81.230,32.983L81.645,32.820L82.159,32.785L82.670,32.975L83.622,33.599L84.170,33.763L85.142,33.677L87.085,33.134L88.056,33.143L87.779,33.639L87.654,33.862L86.367,35.347L86.092,36.010L86.298,36.622L87.321,37.586L87.732,38.163L87.738,38.383L87.540,38.938L87.506,39.179L87.654,39.494L88.194,39.890L88.366,40.187L88.409,40.712L88.335,41.233L87.974,42.228L87.386,43.068L87.407,43.373L87.592,44.114L87.613,44.355L86.986,45.475L85.984,46.159L84.830,46.288L83.730,45.742L83.603,46.237L83.337,46.611L82.930,46.840L82.419,46.904L81.282,47.335L80.364,47.903L79.580,48.635L78.815,49.557L79.105,49.715L80.360,50.400L80.306,51.511L79.215,52.571L77.263,53.479L76.721,54.125L76.391,54.413L76.105,54.517L74.998,54.771L74.933,54.874L74.862,55.236L74.817,55.326L74.022,55.391L74.001,55.313L73.919,55.305L73.227,55.408L73.119,55.537L72.965,56.028L72.862,56.196L71.703,57.027L71.478,57.527L71.576,58.362L71.561,59.124L71.250,59.899L69.535,62.599L69.242,63.348L69.241,63.379L69.195,64.153L69.371,64.855L69.608,65.497L69.737,66.147L69.595,66.879L67.740,66.272L66.689,66.943L65.090,69.708L62.907,71.947L62.408,72.799L61.686,75.800L61.039,77.363L60.930,77.626L59.954,79.314L58.699,80.843L55.866,83.202L55.436,83.822L54.375,86.363L53.850,87.026L52.926,87.547L52.505,87.887L51.078,88.696L49.586,90.096L47.377,91.133L47.012,91.258L46.315,91.142L45.864,90.914L45.421,90.858L44.746,91.271L44.671,91.418L44.583,92.098L44.368,92.455L43.659,92.787L43.397,93.032L43.242,93.622L43.221,94.160L43.094,94.630L42.614,95.000L42.425,94.927L40.727,94.793L38.681,94.311L28.946,94.436L27.639,84.369L27.409,83.572L26.255,79.581L23.687,75.236L22.109,73.531L21.475,72.636L21.080,71.525L20.727,66.612L21.166,63.584L21.422,61.824L21.501,58.556L20.732,47.972L20.818,46.753L20.998,46.198L21.956,45.313L22.155,45.130L21.445,44.562L21.157,43.748L21.041,40.971L21.183,40.127L21.495,39.425L22.026,39.128L22.215,38.650L22.182,38.376L21.894,35.976L21.510,35.360L20.934,34.917L20.225,34.646L19.455,34.555L18.656,34.236L18.299,33.492L18.136,32.630L17.893,31.967L17.267,31.545L16.507,31.291L15.870,30.955L15.600,30.288L15.535,29.616L15.363,29.203L14.744,28.294L14.362,27.179L14.177,26.848L13.554,26.572L12.683,26.490L11.925,26.271L11.591,25.569L11.671,24.682L11.950,23.971L12.479,23.515L13.326,23.407L12.776,22.400L13.491,18.232L14.435,17.306L16.855,17.147L17.532,17.246L20.057,18.348L20.985,18.632L22.741,18.852L23.620,19.063L24.381,19.498L24.888,19.877L24.918,20.070L24.865,20.561L25.007,21.126L25.017,21.164L25.920,22.012L26.173,22.529L26.083,23.003L25.507,23.709L25.365,24.144L25.460,24.626L25.847,25.491L25.896,26.012L26.264,26.805L27.287,26.710L29.081,25.931L29.827,25.844L30.630,25.994L32.135,26.275L33.102,26.822L33.893,26.555L34.671,26.060L35.582,25.939L36.012,25.956L36.343,25.827L36.653,25.638L37.891,25.190L38.187,25.207L38.632,25.354L40.362,25.926L41.147,26.047L42.077,25.931L42.481,25.685L42.662,25.298L42.799,24.424L43.109,24.036L43.586,24.032L44.514,24.312L45.548,24.342L46.388,24.182L47.171,23.722L48.022,22.856L48.576,22.103L49.083,21.242L49.479,20.333L49.702,19.416L49.721,18.952L49.896,14.679L50.796,11.532L50.498,8.328L50.768,6.197L50.764,5.810L50.884,5.577L51.310,5.564L51.643,5.754L51.928,5.999L52.000,6.061L52.733,6.692L53.055,6.740L53.405,6.705L53.805,6.718L54.280,6.886L54.787,7.278L56.077,8.806L56.760,9.405L57.628,9.982L58.583,10.352L59.511,10.322L60.220,9.831L62.099,7.472L62.185,7.179L62.206,6.787L62.354,6.507L62.838,6.554L64.136,7.187L64.652,7.304L65.322,7.273L66.118,7.110L66.900,6.856L67.497,6.550L68.032,6.055L68.223,5.804L68.396,5.577L68.802,5.198L69.470,5.000L69.672,5.103L70.988,5.418L71.129,5.366L71.327,5.594L71.542,6.180L71.781,6.507L74.039,8.363L75.423,9.013L76.790,9.065Z" fill="currentColor" stroke="currentColor" stroke-width="1.5" stroke-linejoin="round"/>
</svg>