<svg xmlns="http://www.w3.org/2000/svg" viewBox="0 0 100 100" role="img" aria-label="Belgium">
  <title>Belgium</title>
  <path d="M5.000,28.268L5.472,27.925L6.358,27.634L9.529,25.258L14.386,22.431L19.087,19.377L24.323,17.706L24.333,17.703L24.535,19.118L24.439,20.028L24.422,20.884L24.753,21.807L25.320,22.420L25.487,22.497L26.027,22.743L26.773,22.829L27.879,22.659L27.947,22.311L27.886,21.846L27.930,21.422L28.186,21.162L28.529,21.078L28.903,21.056L29.832,20.850L30.409,20.817L31.006,20.913L33.862,21.849L34.304,22.136L34.424,22.617L34.386,23.025L34.424,23.408L34.772,23.816L35.062,23.942L37.826,23.908L38.350,23.742L39.415,22.918L42.310,21.479L43.469,20.581L44.388,19.342L44.519,18.977L44.693,18.122L44.705,17.969L44.721,17.978L45.162,18.387L45.348,18.752L45.514,19.421L45.900,19.885L46.324,20.249L46.609,20.609L46.694,20.842L46.729,21.067L46.666,21.325L46.508,21.582L46.462,21.657L46.734,21.522L46.922,21.316L47.259,20.609L46.472,20.276L46.289,20.130L46.198,19.804L46.215,19.009L46.143,18.627L45.970,18.332L45.629,17.918L46.098,17.934L46.308,17.941L47.153,18.394L47.604,18.545L48.693,18.615L49.137,18.382L49.253,17.749L49.111,17.389L48.587,16.774L48.406,16.444L48.423,16.072L48.575,15.785L48.623,15.523L48.341,15.219L49.562,14.518L50.815,14.064L51.506,13.952L51.800,14.005L51.986,14.312L51.955,14.926L51.757,15.383L51.713,15.742L52.160,16.057L52.469,16.085L53.143,15.964L53.889,16.149L54.251,16.125L54.565,16.007L54.806,15.831L56.612,13.649L57.382,13.259L57.720,13.292L58.145,13.451L58.536,13.704L58.778,14.016L58.828,14.570L58.684,15.096L58.580,15.652L58.749,16.291L57.730,15.823L57.467,15.861L57.334,16.302L57.829,16.513L59.463,16.568L59.893,16.682L60.796,17.091L61.301,16.954L61.890,16.390L62.428,15.672L62.793,15.078L62.955,14.627L63.034,14.285L63.174,14.064L63.534,13.973L63.599,14.060L64.299,14.518L64.758,15.378L64.676,15.989L64.415,16.577L64.333,17.372L64.483,17.728L65.287,18.605L65.410,18.924L65.649,19.734L65.762,19.974L66.166,20.194L67.069,20.117L67.501,20.159L67.911,20.674L67.923,21.981L68.334,22.085L68.485,22.047L69.215,21.867L71.979,21.982L72.467,21.805L73.447,21.122L73.908,20.903L74.413,20.960L74.961,21.302L75.393,21.860L75.560,22.571L75.635,23.406L75.772,23.522L76.168,23.857L77.491,24.252L77.808,24.472L78.032,24.727L78.286,24.906L78.686,24.903L79.664,24.703L79.964,24.735L80.345,24.960L80.833,25.627L81.144,25.886L81.861,25.705L82.260,25.737L82.467,26.204L82.525,26.381L82.197,26.702L82.122,27.122L82.653,27.686L82.438,27.829L82.202,27.924L81.951,27.962L81.695,27.934L81.753,28.200L81.789,28.312L81.854,28.460L81.680,28.964L81.552,29.224L81.376,29.463L81.103,29.231L80.912,29.348L80.794,29.704L80.739,30.190L81.055,30.617L80.685,31.513L79.766,32.972L80.287,32.832L80.512,32.838L80.739,32.972L80.471,33.420L80.067,34.274L79.766,34.726L79.655,34.815L79.384,34.912L79.114,35.020L77.428,36.893L77.479,37.715L77.858,38.274L78.249,38.546L78.385,38.641L78.889,38.882L79.254,38.990L79.213,39.422L78.971,40.265L79.396,40.508L79.650,40.559L79.894,40.510L80.009,40.338L80.261,39.961L80.468,39.802L80.702,39.891L81.180,40.417L81.419,40.584L83.445,40.533L83.712,40.617L83.967,40.698L85.661,40.753L86.132,40.665L86.094,40.734L86.079,40.800L86.081,40.867L86.115,40.935L86.504,41.138L86.516,41.491L86.429,41.878L86.521,42.185L86.830,42.222L87.755,41.967L88.143,42.003L88.592,42.451L90.014,44.622L89.703,44.821L89.976,45.349L90.456,45.601L92.069,45.641L92.122,45.861L91.958,46.188L91.692,46.510L91.692,46.643L91.171,46.954L90.435,47.567L90.005,48.243L90.393,48.734L90.210,49.017L90.241,49.184L90.430,49.264L90.702,49.285L90.517,49.602L90.705,49.776L90.905,50.195L91.091,50.345L91.323,50.357L92.112,50.112L92.163,50.061L92.221,50.042L92.274,50.061L92.327,50.112L92.685,50.283L93.696,50.516L94.121,50.541L93.860,50.797L93.802,51.091L93.870,51.421L93.998,51.793L94.198,52.125L94.365,52.158L94.454,52.283L94.437,52.896L94.271,53.761L94.109,54.253L94.141,54.687L94.952,56.107L94.974,56.340L95.000,56.619L94.708,56.932L94.087,57.046L93.774,56.989L93.508,56.885L93.247,56.862L92.931,57.046L92.699,57.331L92.545,57.684L92.496,58.054L92.600,58.384L92.170,58.775L91.166,59.059L90.681,59.291L90.451,59.648L89.923,60.025L89.681,60.344L89.993,60.693L90.123,61.111L90.109,61.524L89.969,61.872L89.795,61.986L89.329,62.024L89.128,62.149L89.085,62.270L89.008,62.682L88.957,62.862L89.194,63.056L89.276,63.282L89.208,63.528L88.996,63.781L88.648,63.623L88.595,63.333L88.621,62.986L88.520,62.648L88.218,62.354L88.037,62.378L87.887,62.542L87.685,62.669L87.153,62.754L86.890,62.716L86.788,62.666L86.581,62.564L86.439,62.295L86.362,61.944L86.212,61.779L85.852,62.069L85.355,62.122L85.157,62.462L85.060,62.965L84.874,63.492L84.527,63.859L83.657,64.289L83.271,64.646L83.187,64.880L83.141,65.475L83.083,65.726L82.940,65.935L82.600,66.234L82.460,66.462L82.487,66.887L82.487,67.233L82.429,67.523L82.260,67.705L81.786,67.918L81.642,68.113L81.615,68.620L81.779,68.825L81.873,69.028L81.617,69.533L81.424,69.717L81.079,69.798L80.915,69.910L80.731,70.157L80.644,70.349L80.589,70.535L80.495,70.768L79.686,72.193L79.592,72.542L79.867,72.677L80.384,73.077L80.601,73.411L79.988,73.347L79.990,73.559L79.956,73.669L79.913,73.755L79.872,73.888L80.096,74.100L79.819,74.290L79.715,74.641L79.749,75.079L79.891,75.541L80.137,75.958L80.374,76.076L80.625,76.119L80.922,76.305L81.077,76.539L81.627,77.647L81.663,77.820L81.714,78.332L81.704,78.417L81.854,78.541L82.180,78.641L82.320,78.721L82.450,78.746L82.600,78.694L82.752,78.706L82.887,78.924L82.897,79.007L82.919,79.205L82.832,79.357L82.718,79.488L82.682,79.691L82.670,79.930L82.600,80.047L82.566,80.178L82.648,80.448L82.808,80.571L83.276,80.626L83.445,80.772L83.575,81.294L83.445,81.613L83.213,81.833L83.027,82.057L82.728,82.903L82.542,83.272L82.279,83.526L82.675,83.748L82.453,84.321L81.917,84.907L81.361,85.179L81.089,85.110L80.577,84.788L80.326,84.750L80.075,84.886L79.773,85.295L79.483,85.424L78.979,85.334L78.476,85.080L77.950,84.957L77.368,85.260L77.090,85.649L77.037,85.913L76.960,86.061L76.615,86.109L76.414,86.054L75.683,85.704L75.244,85.906L74.657,86.378L74.051,86.741L73.546,86.604L73.401,86.277L73.426,85.949L73.500,85.604L73.505,85.220L73.409,84.885L72.284,82.803L72.029,82.569L71.849,82.404L71.125,82.133L70.859,81.970L70.714,81.945L70.627,82.044L70.528,82.245L70.405,82.431L70.239,82.484L69.850,82.406L69.736,82.262L69.681,81.924L69.753,81.404L69.942,81.281L70.048,81.148L69.886,80.598L69.435,80.032L68.947,79.539L68.442,79.552L67.387,79.852L66.849,79.691L66.424,79.368L66.076,79.025L65.082,77.556L64.804,77.284L63.971,77.040L63.505,76.770L62.636,75.895L62.213,75.656L62.152,75.659L61.723,75.681L60.709,76.045L60.185,76.131L59.575,76.042L59.364,75.763L59.369,74.389L59.311,74.170L59.082,73.785L59.034,73.601L59.077,73.377L59.285,73.131L59.362,72.939L59.488,72.489L59.606,72.182L59.666,71.865L59.625,71.387L59.261,70.711L58.155,70.250L57.843,69.736L57.945,69.149L58.843,66.882L58.865,66.489L58.828,66.183L58.855,65.851L59.294,64.874L59.437,64.840L59.688,65.117L59.741,64.473L59.867,63.714L59.898,63.071L59.683,62.785L58.952,62.938L58.688,62.826L58.582,62.280L57.952,62.572L55.460,65.122L55.325,65.411L55.263,65.773L55.318,65.993L55.405,66.178L55.429,66.430L55.250,67.603L55.086,68.185L54.871,68.605L54.618,68.774L53.645,68.931L50.388,70.569L49.695,70.692L49.521,70.644L46.016,69.667L44.576,69.878L44.229,69.929L43.915,69.838L42.607,69.123L42.623,69.124L42.792,69.140L42.764,68.601L42.636,68.039L42.525,67.992L42.621,67.559L42.739,67.284L42.908,67.073L43.336,66.669L43.877,66.278L44.437,65.995L44.444,65.754L44.282,65.462L44.142,65.117L43.749,63.532L43.517,63.413L43.266,63.452L42.800,63.667L42.469,63.498L42.525,62.834L42.974,61.361L43.099,60.693L43.205,60.393L43.454,60.035L44.004,59.600L44.234,59.335L44.289,58.951L44.147,58.712L43.857,58.456L43.543,58.257L43.333,58.181L43.041,58.306L43.029,58.541L43.058,58.794L42.887,58.965L42.457,58.761L41.817,57.378L41.334,56.944L40.837,56.653L40.062,55.788L39.608,55.570L39.113,55.623L37.628,56.253L37.099,56.258L36.682,56.057L36.281,55.775L35.798,55.528L34.828,55.408L33.809,55.486L33.492,55.604L33.304,55.820L32.884,56.539L32.783,56.845L32.720,56.955L32.614,57.029L32.575,56.995L32.541,57.016L32.449,57.253L31.629,56.479L31.423,54.978L31.421,53.264L31.223,51.845L30.844,51.152L30.380,50.706L29.869,50.450L29.340,50.338L27.831,50.328L27.541,50.112L27.768,49.704L27.804,49.408L27.652,49.216L27.317,49.114L26.983,49.140L26.744,49.298L26.513,49.531L26.196,49.776L25.173,50.150L24.605,50.218L24.197,50.102L23.176,49.569L22.869,49.326L22.502,48.854L22.382,48.436L22.345,47.265L21.727,45.199L21.539,44.136L21.865,43.523L21.599,42.648L21.414,42.309L21.100,42.206L20.771,42.161L20.585,41.944L20.298,41.246L19.974,40.665L19.586,39.969L19.190,39.595L18.584,39.411L16.727,39.992L15.503,40.375L14.965,40.711L14.540,41.168L13.837,42.385L13.528,42.622L13.164,42.544L13.058,42.496L11.189,41.641L10.757,41.278L10.634,41.053L10.320,40.311L10.187,40.068L9.318,39.238L9.163,38.963L9.091,38.715L8.973,38.502L8.666,38.341L8.444,38.316L8.009,38.377L7.818,38.369L7.476,38.297L7.304,38.221L7.181,38.013L6.981,37.548L6.874,37.428L6.592,37.284L6.517,37.159L6.541,36.990L6.722,36.582L6.749,36.343L6.288,34.731L6.423,34.396L6.961,33.860L7.099,33.640L7.024,32.910L6.657,32.359L5.822,31.439L5.590,30.730L5.356,29.110L5.000,28.268Z" fill="currentColor" stroke="currentColor" stroke-width="1" stroke-linejoin="round"/>
</svg>