<svg xmlns="http://www.w3.org/2000/svg" viewBox="0 0 100 100" role="img" aria-label="Benin">
  <title>Benin</title>
  <path d="M68.634,15.236L68.318,15.567L67.321,17.262L67.150,17.917L67.060,18.139L66.772,18.921L66.797,19.256L67.011,19.652L69.584,23.277L69.931,23.607L70.050,23.627L70.185,23.602L70.202,23.603L70.319,23.609L70.439,23.725L70.292,24.290L70.292,24.605L70.350,24.896L70.457,25.163L70.604,25.411L70.604,25.415L70.899,26.711L70.883,27.139L70.571,27.906L70.553,28.158L70.626,28.331L70.742,28.452L70.868,28.558L70.976,28.683L71.047,28.839L71.182,29.317L71.318,29.478L71.502,29.534L71.705,29.572L71.887,29.678L72.019,29.959L72.091,30.382L72.093,30.735L72.095,31.181L71.987,31.572L71.620,32.298L71.491,32.686L71.476,33.437L71.381,33.706L71.163,33.979L70.939,34.014L70.019,33.532L69.716,33.478L69.434,33.569L69.154,33.848L69.059,33.984L69.019,34.077L69.004,34.363L68.948,34.536L68.585,35.095L68.290,35.753L68.303,36.025L68.508,36.357L69.485,37.367L69.614,37.550L69.655,37.778L69.617,38.038L69.605,38.120L69.474,38.439L69.295,38.573L69.086,38.674L68.863,38.887L68.769,39.123L68.680,40.366L68.535,40.655L68.070,41.212L67.692,41.904L67.438,42.142L66.575,42.048L66.015,42.197L64.982,42.623L64.751,42.795L64.624,43.086L64.592,43.416L64.642,43.702L64.819,44.150L64.933,44.592L64.832,44.973L64.365,45.236L64.111,45.221L63.831,45.169L63.599,45.240L63.491,45.599L63.508,45.697L63.584,45.882L63.568,45.957L62.692,47.108L62.585,47.202L62.354,47.280L62.250,47.358L61.974,47.807L61.918,48.210L62.014,48.616L62.197,49.073L62.246,49.316L62.244,50.261L62.155,50.563L61.860,51.129L61.382,52.621L61.162,53.076L60.809,53.323L59.828,53.579L59.660,53.580L59.516,53.510L59.377,53.415L59.220,53.339L59.064,53.321L58.623,53.335L58.469,53.364L58.316,53.463L58.194,53.592L58.056,53.695L57.863,53.722L56.756,53.631L56.802,54.016L56.771,54.939L56.692,55.337L56.646,55.426L56.485,55.670L56.449,55.700L56.474,55.820L56.535,55.851L56.606,55.877L56.661,55.979L56.655,56.201L56.476,56.615L56.422,56.840L56.440,56.968L56.514,57.192L56.496,57.321L56.419,57.398L56.177,57.509L56.096,57.619L56.091,57.774L56.093,57.790L56.372,61.336L56.406,61.761L56.293,62.252L56.179,62.424L55.892,62.749L55.817,62.931L55.814,63.060L55.849,63.329L55.849,63.464L55.740,64.066L55.722,64.345L55.774,64.691L55.885,65.012L56.167,65.618L56.265,65.928L56.257,66.247L56.145,66.514L55.995,66.757L55.883,67.004L55.845,67.270L55.814,68.140L55.633,69.061L55.578,69.979L55.527,70.108L55.380,70.385L55.348,70.497L55.357,70.562L55.364,70.618L55.480,70.796L55.642,71.213L55.986,71.600L56.114,71.809L56.154,72.018L56.016,73.980L55.983,74.456L56.059,75.027L56.346,75.568L56.771,76.079L57.089,76.612L57.050,77.220L57.016,77.350L57.005,77.432L56.959,77.462L56.649,77.399L56.499,77.398L56.390,77.462L56.354,77.623L56.655,81.202L56.640,81.403L56.593,81.541L56.479,81.691L56.346,81.967L56.284,82.064L56.269,82.165L56.324,82.354L56.447,82.511L56.824,82.823L56.907,82.960L56.851,83.118L56.704,83.197L56.520,83.251L56.352,83.332L55.980,83.855L56.027,84.383L56.222,84.941L56.293,85.551L56.140,86.161L56.102,86.476L56.174,86.763L56.284,86.911L56.406,86.999L56.553,87.043L56.731,87.060L56.815,87.126L56.844,87.274L56.891,87.945L56.811,88.109L56.634,88.227L56.375,88.460L56.210,88.773L56.206,89.071L56.329,89.685L56.299,89.993L56.033,90.774L55.984,90.917L55.934,91.215L55.824,91.866L55.818,92.753L55.810,92.753L50.120,93.289L48.969,93.548L44.054,94.114L40.250,95.000L40.147,94.696L40.444,94.537L42.288,94.096L42.586,94.078L42.316,93.010L42.037,91.918L41.668,91.317L41.545,91.224L41.236,91.063L41.141,90.985L41.110,90.858L41.145,90.546L41.128,90.400L41.037,90.275L40.798,90.077L40.761,89.975L40.742,89.809L40.638,89.772L40.497,89.786L40.362,89.770L40.249,89.702L40.129,89.605L40.016,89.490L39.930,89.370L39.884,89.221L39.893,89.087L39.918,88.965L39.915,88.852L39.758,88.561L39.572,88.408L39.480,88.245L39.599,87.919L39.813,87.629L39.926,87.476L39.983,87.251L39.899,86.900L39.789,86.602L39.727,86.352L39.718,86.103L39.826,85.492L39.796,85.290L39.667,85.133L39.454,84.972L39.431,84.954L39.270,84.713L38.991,83.679L40.075,83.687L40.337,83.609L40.326,81.472L40.317,79.359L40.308,77.187L40.302,75.757L40.296,74.505L40.295,74.249L40.283,71.364L40.274,69.061L40.310,66.743L40.335,65.076L40.182,63.827L40.110,63.693L40.025,63.664L39.983,63.604L40.055,63.249L40.055,62.996L40.077,62.873L40.549,62.088L40.602,61.831L40.541,61.689L40.170,61.215L40.098,61.053L40.077,60.881L40.072,60.447L40.047,58.499L40.029,57.149L40.009,55.561L39.985,53.740L39.908,53.343L39.794,52.993L39.498,52.471L38.606,51.529L37.459,50.321L37.386,50.207L37.113,49.786L36.906,49.206L36.808,47.732L36.643,47.319L36.397,47.439L36.184,47.222L36.039,46.866L35.993,46.570L36.052,46.381L36.307,45.987L36.397,45.802L36.414,45.654L36.410,45.361L36.444,45.217L36.465,45.040L36.352,44.360L36.334,43.230L36.307,41.640L36.291,40.569L36.290,40.457L36.106,39.962L34.590,38.949L32.534,37.576L31.311,36.759L30.484,36.207L29.119,35.295L28.032,34.569L27.917,34.350L27.905,34.015L28.105,32.516L28.316,31.706L28.326,31.137L28.212,29.826L28.418,29.340L29.199,28.594L29.384,28.327L29.429,28.177L29.451,27.845L29.479,27.689L29.703,27.260L29.683,27.103L29.563,26.807L29.528,26.650L29.570,26.361L29.938,25.465L30.376,25.707L30.569,25.734L30.825,25.736L30.886,25.658L30.922,25.488L30.909,25.318L30.825,25.239L30.711,25.185L30.661,25.053L30.653,24.890L30.670,24.743L30.720,24.709L30.842,24.524L30.926,24.349L31.021,24.219L31.085,24.194L31.152,24.218L31.467,24.268L31.563,24.336L31.636,24.404L31.713,24.436L31.754,24.467L31.830,24.609L31.855,24.643L31.946,24.638L32.102,24.559L32.158,24.544L32.600,24.592L32.746,24.643L32.784,24.714L32.887,24.859L32.992,24.957L33.040,24.891L33.056,24.658L32.893,24.490L32.802,24.335L32.778,24.177L32.775,24.012L32.746,23.839L32.719,23.840L32.583,23.778L32.541,23.749L32.532,23.682L32.557,23.501L32.541,23.442L32.406,23.411L32.315,23.492L32.262,23.512L32.247,23.293L32.321,23.260L32.795,23.154L32.878,23.095L32.976,22.830L33.040,22.755L33.192,22.757L33.479,22.893L33.627,22.945L33.553,22.695L33.497,22.199L33.228,21.757L33.299,21.575L33.448,21.433L33.598,21.205L33.736,21.315L33.844,21.481L33.825,21.555L33.951,21.557L34.027,21.520L34.101,21.475L34.225,21.446L34.497,21.459L34.730,21.526L35.206,21.753L35.389,21.415L35.411,21.302L35.378,21.159L35.237,21.020L35.206,20.904L35.278,20.729L35.438,20.809L35.606,21.000L35.696,21.157L35.794,21.037L35.895,20.996L35.997,21.037L36.097,21.157L36.348,20.944L36.319,20.757L36.180,20.558L36.097,20.308L36.221,20.033L36.508,19.847L36.833,19.704L37.069,19.559L36.932,19.248L36.950,19.126L37.069,18.953L37.256,18.814L37.430,18.757L37.435,18.756L37.582,18.675L37.665,18.466L37.900,18.598L38.177,18.655L39.528,18.764L39.498,18.860L39.466,19.065L39.440,19.161L39.690,19.146L39.991,19.704L40.271,19.608L40.516,19.478L41.180,19.338L41.454,19.206L41.678,19.135L42.313,19.180L42.585,19.161L43.149,18.934L43.423,18.878L43.673,18.953L43.811,18.861L43.986,18.887L44.358,19.062L44.965,19.296L45.473,19.336L45.866,19.148L45.933,19.080L47.822,17.157L48.871,16.301L49.640,15.872L49.839,15.679L49.891,15.541L49.879,15.382L49.888,15.128L50.042,14.716L50.594,14.100L50.796,13.722L51.314,12.315L51.286,12.166L51.118,11.914L51.099,11.754L51.181,11.567L51.302,11.536L51.437,11.554L51.562,11.519L51.658,11.410L51.771,11.200L51.871,11.095L52.015,11.082L52.164,11.136L52.270,11.114L52.279,10.864L52.249,10.683L52.156,10.615L52.019,10.582L51.866,10.513L51.718,10.392L51.615,10.274L51.535,10.130L51.051,8.766L50.910,7.955L50.899,7.624L51.025,7.372L51.372,7.212L51.569,7.187L51.899,7.201L52.083,7.183L52.117,7.145L52.236,6.982L52.310,6.928L52.417,6.953L52.498,7.037L52.571,7.061L52.653,6.909L52.720,6.729L52.820,6.688L52.955,6.708L53.125,6.714L53.165,6.747L53.187,6.827L53.232,6.893L53.340,6.885L53.421,6.836L53.552,6.711L53.617,6.669L54.128,6.531L54.184,6.541L54.307,6.614L54.379,6.621L54.466,6.578L54.638,6.451L54.738,6.432L55.244,6.567L55.374,6.492L55.575,6.176L55.622,6.063L55.650,5.949L55.692,5.844L55.769,5.759L55.925,5.699L56.076,5.800L56.226,5.763L56.358,5.656L56.588,5.383L56.747,5.279L56.885,5.252L57.176,5.262L57.323,5.233L57.664,5.221L57.835,5.000L58.524,5.614L58.816,5.770L58.960,5.926L59.071,6.105L59.163,6.432L59.280,6.553L59.439,6.635L59.608,6.698L60.085,6.751L60.205,6.789L60.258,6.865L60.399,7.135L60.981,7.990L63.451,10.234L63.495,10.312L63.690,10.458L63.734,10.536L63.770,10.847L63.841,11.177L63.946,11.442L64.274,11.993L64.479,12.230L64.601,12.343L64.777,12.462L64.976,12.513L65.169,12.424L65.371,12.303L65.540,12.336L65.694,12.427L65.855,12.479L66.499,12.876L67.024,13.062L67.184,13.173L67.300,13.283L67.781,13.968L67.878,14.053L67.958,14.101L68.021,14.161L68.075,14.275L68.148,14.505L68.201,14.616L68.229,14.745L68.280,14.856L68.400,14.922L68.533,15.152L68.634,15.236Z" fill="currentColor" stroke="currentColor" stroke-width="1.5" stroke-linejoin="round"/>
</svg>