<svg xmlns="http://www.w3.org/2000/svg" viewBox="0 0 100 100" role="img" aria-label="Burkina Faso">
  <title>Burkina Faso</title>
  <path d="M95.000,53.950L94.590,55.075L94.430,55.377L93.993,55.870L93.870,56.200L93.863,56.403L93.873,56.530L93.832,56.641L93.674,56.795L93.065,57.138L92.234,57.823L90.738,59.361L90.685,59.415L90.373,59.565L89.971,59.534L89.490,59.346L89.195,59.206L89.056,59.186L88.947,59.259L88.750,59.199L88.532,59.244L88.085,59.426L87.870,59.441L87.367,59.405L87.190,59.462L86.972,59.567L86.447,59.679L86.253,59.784L86.031,59.860L85.792,59.414L85.595,59.426L85.614,59.349L85.640,59.185L85.664,59.108L84.594,59.021L84.374,58.975L84.189,58.870L84.123,59.037L84.006,59.101L84.002,59.103L83.864,59.148L83.716,59.259L83.622,59.398L83.608,59.496L83.716,59.744L83.529,59.860L83.272,59.974L83.045,60.123L82.946,60.343L83.012,60.543L83.122,60.702L83.145,60.852L82.946,61.022L82.867,60.926L82.786,60.894L82.706,60.926L82.629,61.022L82.557,60.897L82.424,60.744L82.297,60.680L82.241,60.820L82.265,60.912L82.377,61.024L82.403,61.138L82.385,61.229L82.241,61.499L81.863,61.317L81.679,61.264L81.464,61.253L81.365,61.276L81.306,61.313L81.246,61.342L81.146,61.341L81.162,61.281L81.076,61.148L80.966,61.061L80.848,61.243L80.730,61.357L80.674,61.502L80.886,61.855L80.931,62.252L80.990,62.453L80.872,62.411L80.645,62.302L80.524,62.301L80.474,62.360L80.396,62.572L80.330,62.619L79.955,62.705L79.897,62.731L79.908,62.906L79.951,62.890L80.022,62.825L80.129,62.850L80.142,62.897L80.122,63.042L80.129,63.096L80.162,63.118L80.270,63.168L80.292,63.168L80.315,63.306L80.317,63.438L80.336,63.564L80.408,63.688L80.537,63.822L80.524,64.009L80.487,64.062L80.403,63.983L80.322,63.868L80.292,63.810L80.176,63.770L79.826,63.731L79.781,63.744L79.658,63.807L79.586,63.810L79.566,63.784L79.506,63.670L79.473,63.645L79.412,63.619L79.355,63.565L79.278,63.510L79.029,63.470L78.976,63.451L78.926,63.472L78.850,63.575L78.783,63.716L78.687,63.863L78.647,63.890L78.634,64.008L78.640,64.138L78.680,64.244L78.770,64.288L78.836,64.350L78.847,64.487L78.819,64.623L78.770,64.685L78.567,64.683L78.414,64.662L78.068,64.468L76.590,64.496L75.495,64.517L74.782,64.657L73.361,65.161L73.498,64.667L73.315,64.620L73.355,64.574L73.371,64.526L73.379,64.478L73.395,64.426L73.389,64.390L73.374,64.363L73.349,64.347L72.077,64.084L71.085,63.878L68.492,63.343L67.096,63.055L66.505,62.933L65.925,62.813L64.383,62.488L64.351,62.676L64.396,62.785L64.421,62.890L64.332,63.063L64.188,63.204L63.618,63.625L63.413,63.378L63.198,63.203L62.978,63.203L62.760,63.483L62.707,63.652L62.681,63.916L62.620,64.039L62.485,64.150L62.186,64.293L62.079,64.426L62.079,64.428L62.051,64.458L62.017,64.483L61.980,64.503L61.940,64.516L61.496,64.501L61.260,64.526L61.097,64.588L60.992,64.782L60.909,65.068L60.794,65.331L60.594,65.455L60.048,64.924L60.082,64.843L60.168,64.750L60.216,64.657L60.149,64.576L60.043,64.566L59.964,64.596L59.913,64.585L59.898,64.453L59.818,64.452L58.522,64.428L58.522,64.425L58.463,64.342L58.399,64.316L58.332,64.344L58.267,64.425L58.023,64.466L57.769,64.749L57.571,64.777L57.647,64.618L57.528,64.623L57.470,64.585L57.390,64.428L57.304,64.367L57.208,64.348L55.640,64.222L55.317,64.273L55.217,64.450L53.846,64.437L52.399,64.422L52.114,64.369L51.736,64.220L51.622,64.175L51.480,64.120L50.043,64.074L49.845,64.137L49.763,64.341L49.631,64.417L47.863,64.435L45.375,64.459L42.815,64.485L40.064,64.513L37.844,64.535L36.777,64.546L36.527,64.549L36.523,64.425L35.542,64.407L35.558,64.474L35.526,64.557L35.595,64.779L35.719,64.986L35.787,65.208L35.723,65.475L35.570,65.645L35.389,65.786L35.236,65.964L35.152,66.206L35.027,66.746L34.835,67.061L34.794,67.327L34.732,67.437L34.610,67.559L34.575,67.629L34.602,67.746L34.614,67.799L34.637,67.799L34.686,67.808L34.738,67.833L34.771,67.885L34.771,67.960L34.746,68.011L34.714,68.056L34.645,68.247L34.492,68.525L34.460,68.640L34.508,68.862L34.849,69.474L34.876,69.589L34.895,69.837L34.926,69.951L34.978,70.019L35.132,70.174L35.166,70.229L35.200,70.456L35.289,70.603L35.689,70.959L35.829,71.032L36.014,71.063L36.292,71.070L36.336,71.120L36.286,71.229L36.182,71.339L36.058,71.388L35.911,71.401L35.800,71.440L35.713,71.511L35.632,71.620L35.554,71.790L35.497,72.027L35.497,72.271L35.589,72.461L35.689,72.505L35.805,72.518L35.902,72.542L35.943,72.620L35.971,72.753L36.044,72.780L36.144,72.777L36.253,72.819L36.366,72.890L36.440,72.925L36.479,72.987L36.486,73.137L36.448,73.291L36.363,73.394L36.133,73.577L35.984,73.816L35.979,74.048L36.098,74.574L36.098,75.571L36.154,75.807L36.412,76.200L36.486,76.409L36.472,76.707L36.366,77.236L36.416,77.529L36.686,77.971L36.718,78.085L36.646,78.203L36.253,78.649L36.062,79.037L36.020,79.281L36.098,79.523L36.191,79.627L36.253,79.638L36.316,79.631L36.416,79.682L36.473,79.776L36.487,79.882L36.524,79.989L36.610,80.057L36.647,80.086L36.502,80.213L36.405,80.384L36.348,80.574L36.331,80.761L36.350,80.951L36.409,81.071L36.817,81.447L37.227,81.973L36.871,82.316L36.593,82.911L36.380,83.100L36.108,83.079L35.848,82.876L34.714,81.344L34.148,80.228L33.944,79.686L33.806,79.416L33.627,79.233L33.412,79.181L33.020,79.298L32.815,79.288L32.616,79.120L32.505,78.849L32.362,78.288L32.134,78.006L31.871,77.946L31.615,77.941L31.417,77.822L31.367,77.589L31.392,77.315L31.388,77.090L31.249,77.004L31.073,77.131L30.689,77.686L30.532,77.844L30.260,77.871L30.145,77.720L30.125,77.482L30.135,77.250L30.084,77.171L29.967,77.218L29.833,77.301L29.730,77.338L29.608,77.273L29.409,77.087L29.266,77.032L27.476,76.882L26.796,76.975L26.602,76.933L26.481,76.846L26.406,76.751L26.320,76.667L26.166,76.617L26.128,76.644L26.022,76.776L25.962,76.811L25.890,76.797L25.742,76.711L25.657,76.699L25.104,76.769L24.938,76.822L24.823,76.899L24.641,77.097L24.544,77.170L24.326,77.236L23.572,77.251L23.551,77.257L23.340,77.320L22.912,77.601L22.668,77.664L22.499,77.755L22.451,77.945L22.379,78.108L22.014,78.114L21.920,78.145L21.746,78.230L21.734,78.262L21.730,78.323L21.707,78.378L21.637,78.393L21.570,78.372L21.452,78.306L20.805,78.112L20.609,78.137L20.404,78.294L20.077,78.758L19.868,78.875L19.439,78.931L19.243,79.003L19.092,79.141L19.142,79.151L19.275,79.197L18.931,79.562L18.868,79.668L18.866,79.771L18.900,80.046L18.872,80.192L18.724,80.484L18.650,80.573L18.649,80.574L18.341,80.445L18.166,80.396L18.132,80.580L18.134,80.771L18.096,80.876L17.940,80.801L17.864,80.674L17.766,80.292L17.665,80.122L17.389,80.055L16.981,80.075L16.611,80.037L16.450,79.797L16.476,79.584L16.587,79.282L16.613,79.082L16.586,79.025L16.518,78.989L16.429,78.971L16.222,78.971L16.186,78.994L16.177,79.039L16.141,79.118L16.085,79.278L16.080,79.435L16.037,79.555L15.872,79.602L15.740,79.554L15.576,79.306L15.448,79.198L15.301,79.353L15.167,79.424L15.026,79.444L14.859,79.443L14.871,79.473L14.831,79.542L14.756,79.620L14.664,79.682L14.571,79.723L14.563,79.714L14.566,79.668L14.508,79.602L14.355,79.538L14.294,79.489L14.269,79.400L14.253,79.277L14.210,79.201L14.079,79.082L14.015,78.999L13.977,78.936L13.920,78.895L13.803,78.880L13.690,78.893L13.649,78.933L13.668,78.986L13.733,79.046L13.560,79.079L13.410,78.835L13.259,78.880L13.226,78.786L13.205,78.740L13.104,78.649L13.104,78.562L13.214,78.570L13.311,78.555L13.493,78.490L13.385,78.294L13.329,78.030L13.236,77.855L13.019,77.926L12.943,77.687L12.781,77.542L12.555,77.469L12.289,77.449L12.194,77.425L12.155,77.370L12.104,77.315L11.974,77.290L11.887,77.344L11.827,77.449L11.763,77.524L11.664,77.489L11.330,77.174L11.316,77.042L11.479,76.565L11.458,76.491L11.334,76.219L11.206,76.050L11.155,75.932L11.396,75.924L11.440,75.766L11.361,75.553L11.234,75.376L11.096,75.286L10.946,75.214L10.824,75.102L10.767,74.892L10.653,74.990L10.520,75.048L10.394,75.029L10.301,74.892L10.456,74.820L10.382,74.796L10.317,74.765L10.242,74.741L10.147,74.740L10.250,74.644L10.516,74.550L10.495,74.459L10.208,74.267L10.139,74.148L10.216,73.939L9.912,73.951L9.918,73.825L10.016,73.614L9.984,73.375L9.950,73.452L9.898,73.528L9.831,73.587L9.751,73.614L9.612,73.601L9.599,73.549L9.643,73.482L9.672,73.419L9.672,72.779L9.588,72.606L9.580,72.601L9.401,72.481L9.214,72.465L9.130,72.620L9.028,72.632L8.469,72.299L8.287,72.348L7.761,72.270L7.570,72.263L7.485,72.316L7.427,72.397L7.355,72.470L7.224,72.501L7.094,72.505L7.034,72.495L6.984,72.461L6.925,72.435L6.883,72.480L6.840,72.545L6.786,72.581L6.556,72.572L6.365,72.524L6.210,72.443L6.087,72.335L6.052,72.264L6.013,72.160L5.964,72.065L5.896,72.024L5.791,72.019L5.712,72.005L5.551,71.945L5.538,71.743L5.399,71.449L5.199,71.186L5.000,71.070L5.062,70.902L5.155,70.309L5.198,70.213L5.466,69.792L5.620,69.181L5.586,69.070L5.501,68.990L5.514,68.812L5.592,68.625L5.705,68.521L5.531,68.453L5.517,68.355L5.460,68.164L5.454,68.059L5.563,67.435L5.621,67.262L5.698,67.177L5.792,67.131L5.866,67.076L5.882,66.961L5.879,66.863L6.037,66.191L5.995,66.049L5.859,65.804L5.648,64.990L5.494,64.669L5.236,64.731L5.307,64.428L5.193,63.825L5.173,63.721L5.209,63.538L5.373,63.428L6.506,63.282L6.701,63.223L6.891,63.140L7.162,62.969L7.278,62.806L7.348,62.332L7.455,62.063L7.813,61.699L7.954,61.456L7.976,61.268L7.897,60.054L7.947,59.843L8.121,59.691L8.369,59.572L8.461,59.470L8.451,59.320L8.389,59.053L8.389,58.090L8.283,57.680L7.879,57.353L7.751,57.334L7.634,57.349L7.532,57.326L7.445,57.196L7.443,57.063L7.506,56.937L7.591,56.815L7.654,56.698L7.751,56.243L7.775,55.987L7.764,55.783L7.678,55.551L7.543,55.391L7.363,55.277L7.142,55.180L7.024,55.144L6.926,55.137L6.728,55.177L6.684,55.128L6.389,54.955L6.326,54.930L6.255,54.799L6.254,54.741L6.327,54.719L6.482,54.697L6.532,54.715L6.672,54.814L6.737,54.839L6.797,54.820L6.883,54.728L6.920,54.704L7.315,54.638L7.363,54.615L7.406,54.574L7.457,54.537L7.530,54.534L7.606,54.570L7.668,54.618L7.731,54.649L7.814,54.638L7.893,54.572L8.120,54.253L8.561,53.892L8.863,53.550L9.035,53.401L9.386,53.291L9.762,53.062L9.928,52.987L10.105,52.972L10.554,52.987L10.761,52.963L10.890,52.970L11.009,52.940L11.120,52.878L11.223,52.789L11.470,52.686L11.716,52.709L11.960,52.767L12.195,52.770L12.681,52.593L12.920,52.598L13.141,52.789L13.338,52.724L13.659,52.669L13.823,52.570L13.913,52.452L13.989,52.312L14.070,52.162L14.190,52.059L14.310,52.030L14.541,52.058L14.656,52.050L14.882,51.941L14.894,51.912L14.940,51.792L14.963,51.605L15.083,51.377L15.490,51.145L15.832,51.129L15.943,51.006L15.658,50.450L16.660,49.618L16.704,49.570L16.719,49.500L16.699,49.369L16.739,49.187L16.737,49.093L16.765,49.013L16.890,48.936L17.058,48.926L17.169,49.018L17.259,49.144L17.361,49.234L17.698,49.167L17.594,48.668L17.181,47.679L17.271,47.398L17.465,47.163L17.682,46.950L17.843,46.735L17.917,46.575L17.913,46.531L17.852,46.491L17.752,46.340L17.512,45.795L17.324,45.608L16.829,45.224L16.730,45.032L16.799,44.428L16.839,44.396L16.916,44.415L17.036,44.398L17.367,44.268L17.745,44.173L18.123,44.145L18.457,44.217L18.781,44.412L18.937,44.457L19.175,44.428L19.387,44.355L19.526,44.262L19.543,44.250L19.655,44.106L19.892,43.351L19.908,43.211L19.763,42.684L19.801,42.023L19.710,41.701L19.499,41.433L19.168,41.151L19.022,40.950L18.719,40.282L18.390,39.977L18.325,39.872L18.325,39.730L18.384,39.627L18.455,39.532L18.598,39.145L18.790,39.064L19.518,39.100L19.647,39.063L19.727,38.960L19.702,38.859L19.461,38.724L19.382,38.615L19.434,38.441L19.602,38.235L19.808,38.048L19.981,37.930L20.090,37.910L20.197,37.932L20.306,37.937L20.430,37.870L20.645,37.620L20.821,37.338L21.014,36.864L21.132,36.653L21.322,36.475L21.416,36.427L21.720,36.347L21.823,36.283L21.997,36.085L22.136,36.035L22.257,35.992L22.429,35.880L22.581,35.746L22.641,35.637L22.551,35.574L22.406,35.564L22.341,35.514L22.494,35.334L22.531,35.300L22.571,35.289L22.613,35.300L22.655,35.333L22.711,35.413L22.722,35.430L22.781,35.661L22.818,35.734L22.915,35.774L23.189,35.826L23.251,35.857L23.244,35.982L23.165,36.029L23.058,36.046L22.969,36.080L22.739,36.298L22.641,36.355L22.499,36.493L22.641,36.606L22.905,36.675L23.127,36.681L23.354,36.661L23.539,36.697L23.932,36.853L24.398,36.979L24.608,37.067L25.452,37.746L25.972,38.061L26.903,38.786L26.983,38.810L27.134,38.787L27.209,38.817L27.392,39.009L27.493,39.076L27.567,39.089L27.822,39.083L28.302,39.156L28.442,39.178L28.580,39.142L28.693,38.956L28.681,38.746L28.548,38.343L28.590,38.014L28.841,37.915L30.707,37.803L30.864,37.700L30.462,34.797L30.630,34.367L30.690,34.093L30.738,33.445L30.663,33.166L30.428,32.986L30.654,32.762L30.957,32.867L31.465,33.252L31.782,33.285L32.031,33.232L32.269,33.225L32.554,33.394L32.757,33.586L32.813,33.696L32.844,33.866L32.924,34.045L33.055,33.998L33.253,33.780L33.385,33.713L33.475,33.687L33.751,33.717L33.847,33.751L33.927,33.803L34.007,33.839L34.090,33.825L34.483,33.676L34.883,33.523L34.563,32.424L34.510,31.801L34.691,31.355L34.892,31.021L35.337,29.513L35.318,29.494L35.300,29.466L35.267,29.448L35.201,29.462L35.502,28.968L37.182,28.035L37.374,27.819L38.017,27.099L38.271,26.881L39.195,26.351L39.815,26.199L40.680,26.388L43.339,27.651L43.703,27.737L43.879,27.709L44.099,27.610L44.657,27.359L44.756,27.279L44.800,27.157L45.009,24.298L45.099,23.990L45.441,23.839L45.986,23.814L46.920,23.887L47.720,23.845L48.513,23.695L52.456,21.147L52.940,20.918L55.113,20.385L55.546,20.200L55.947,19.949L55.949,19.948L58.301,17.877L58.303,17.876L58.910,17.267L59.042,17.171L59.251,17.019L59.628,16.917L62.123,16.902L62.492,16.900L62.597,16.952L62.860,17.654L62.972,17.800L63.291,17.805L63.703,17.624L64.411,17.193L65.122,17.066L65.915,17.252L67.434,17.877L67.437,17.877L70.299,18.866L70.326,19.131L70.224,19.287L70.066,19.415L69.927,19.597L69.908,19.930L70.238,20.604L70.313,20.958L69.554,23.106L69.621,23.695L69.960,24.257L70.116,24.400L71.754,25.889L72.236,26.540L72.269,26.606L72.257,26.703L72.149,26.842L72.107,26.948L72.047,27.308L71.993,27.446L71.721,27.868L71.672,28.005L71.722,28.138L71.866,28.355L71.937,28.434L72.008,28.489L72.070,28.551L72.119,28.649L72.106,28.724L72.012,28.912L72.013,29.014L72.118,29.133L72.266,29.206L72.385,29.308L72.408,29.514L72.499,29.720L72.686,29.847L72.886,29.951L73.009,30.087L73.004,30.188L72.910,30.398L72.917,30.520L72.987,30.605L73.224,30.761L73.314,30.861L73.410,31.077L73.500,31.203L73.548,31.268L73.720,31.428L74.104,31.679L74.220,31.834L74.348,31.971L74.567,32.051L74.644,32.160L74.576,32.380L74.466,32.623L74.416,32.800L74.574,33.090L74.874,33.193L76.383,33.145L76.498,33.169L76.531,33.250L76.529,33.345L76.538,33.415L76.530,33.458L76.491,33.507L76.501,33.584L76.637,33.713L76.860,33.822L77.062,33.833L77.490,33.791L78.016,33.950L78.631,34.319L79.090,34.809L79.149,35.334L79.362,35.687L79.737,35.963L80.976,36.537L81.179,36.604L81.661,36.664L81.853,36.713L82.027,36.835L82.244,37.079L81.935,37.202L81.714,37.096L81.528,36.930L81.323,36.869L81.263,36.932L81.209,37.061L81.095,37.459L81.016,37.484L80.763,37.378L80.152,37.225L79.242,36.861L79.001,36.819L78.852,37.286L78.856,38.273L78.862,39.368L78.866,40.109L78.867,40.324L78.900,40.545L79.001,40.730L79.328,40.911L80.141,40.979L80.484,41.151L81.132,41.698L81.813,42.274L82.655,42.987L82.948,43.235L83.875,44.018L84.501,44.547L85.283,45.210L85.602,45.388L85.979,45.487L87.144,45.589L88.584,45.714L88.785,45.691L88.978,45.564L89.114,45.364L89.234,45.134L89.427,44.849L89.504,44.694L89.555,44.638L89.648,44.618L89.728,44.657L89.817,44.674L89.943,44.589L90.136,44.376L90.240,44.316L91.346,44.409L91.803,44.533L92.100,44.882L92.166,45.109L92.209,45.172L92.330,45.297L92.450,45.393L92.658,45.522L92.761,45.652L92.837,45.810L92.873,45.957L92.960,46.658L93.016,46.806L93.109,46.986L93.173,47.076L93.318,47.235L93.364,47.323L93.364,47.372L93.327,47.494L93.326,47.553L93.348,47.809L93.268,47.933L93.102,47.977L92.426,48.035L92.368,48.024L92.246,47.965L92.212,47.953L92.140,47.993L92.058,48.107L92.006,48.147L91.350,48.284L91.178,48.428L91.151,48.766L91.369,49.174L91.857,49.859L92.707,51.053L93.506,52.178L94.408,53.443L95.000,53.950Z" fill="currentColor" stroke="currentColor" stroke-width="1" stroke-linejoin="round"/>
</svg>