<svg xmlns="http://www.w3.org/2000/svg" viewBox="0 0 100 100" role="img" aria-label="Bangladesh">
  <title>Bangladesh</title>
  <path d="M81.423,76.053L81.624,76.977L81.663,77.440L81.418,79.779L81.624,83.425L81.659,83.814L81.806,84.579L82.310,86.130L82.335,86.285L82.361,86.440L82.233,86.688L81.961,86.980L81.633,87.198L81.349,87.222L81.182,87.030L81.083,86.714L80.975,86.096L80.703,85.481L80.341,85.397L79.875,85.501L79.283,85.442L78.963,85.330L78.814,85.246L78.696,85.119L78.599,84.851L78.570,84.595L78.510,84.345L78.325,84.094L77.876,83.940L77.342,84.595L76.899,84.588L76.666,84.625L76.510,84.926L76.320,85.577L75.929,86.153L75.854,86.420L75.851,86.720L75.951,87.327L75.934,87.626L75.856,88.079L75.808,88.318L75.889,88.589L75.994,88.800L76.323,89.115L76.416,89.343L76.498,89.579L77.071,90.070L76.978,90.659L76.958,91.293L77.019,91.918L77.166,92.480L77.568,93.109L77.635,93.268L77.666,93.555L77.922,94.360L78.025,94.556L78.067,94.718L78.035,94.882L77.916,95.000L77.830,94.950L77.758,94.839L77.686,94.778L77.573,94.640L77.252,93.847L76.295,92.062L76.059,91.070L75.966,90.915L75.236,90.277L75.099,90.079L74.871,89.629L74.714,89.385L74.092,88.637L73.993,88.389L73.973,88.067L74.089,87.079L74.064,86.715L73.991,86.423L73.214,84.975L73.084,84.829L72.929,84.740L72.793,84.520L72.698,84.247L72.653,83.993L72.740,83.993L72.769,84.045L72.781,84.054L72.799,84.057L72.844,84.089L72.949,83.815L73.118,83.528L73.344,83.365L73.608,83.463L73.433,83.291L73.292,83.011L73.214,82.693L73.217,82.409L73.337,82.238L73.532,82.051L73.667,81.838L73.608,81.583L73.819,81.323L73.859,81.209L73.802,81.061L73.886,80.917L73.860,80.786L73.757,80.684L73.676,80.653L73.715,80.494L73.768,80.356L73.768,80.224L73.713,80.102L73.692,80.227L73.667,80.275L73.608,80.321L73.713,80.321L73.531,80.846L73.368,81.066L73.132,81.061L73.022,80.879L73.061,80.639L73.136,80.398L73.132,80.216L73.036,80.216L72.964,80.479L72.834,80.459L72.708,80.277L72.653,80.054L72.698,79.712L72.824,79.628L73.004,79.588L73.217,79.381L73.132,79.276L72.899,79.451L72.801,79.322L72.889,79.092L73.217,78.954L73.217,78.848L72.569,78.901L72.294,78.995L72.078,79.057L71.946,78.930L71.969,78.566L72.116,78.238L72.368,78.109L72.260,77.952L72.314,77.808L72.465,77.686L72.653,77.596L72.653,77.482L72.506,77.499L72.376,77.566L72.267,77.675L72.176,77.814L72.101,77.624L72.035,77.307L71.974,76.699L71.931,76.553L71.733,76.320L71.689,76.182L71.689,75.603L71.330,74.040L71.306,73.514L71.452,73.576L71.497,73.609L71.425,73.407L71.302,73.436L71.201,73.631L71.201,73.923L71.114,73.923L70.964,73.660L70.827,73.325L70.738,72.953L70.724,72.575L70.793,72.342L70.918,72.192L71.042,72.076L71.114,71.938L71.094,71.687L70.974,71.561L70.825,71.492L70.724,71.407L70.680,71.025L70.927,70.843L71.290,70.735L71.593,70.572L71.746,70.299L72.069,69.215L71.983,69.225L71.784,69.215L71.754,69.445L71.617,70.035L71.641,70.154L71.543,70.234L71.384,70.409L71.172,70.588L70.925,70.676L70.882,70.753L70.536,70.940L70.435,71.093L70.471,71.336L70.619,71.452L70.797,71.519L70.925,71.615L70.919,71.910L70.681,72.097L70.376,72.071L70.159,71.729L69.917,69.981L69.767,69.424L68.820,67.534L67.028,65.000L66.583,64.818L66.336,64.588L66.139,64.309L66.030,64.069L65.920,64.132L65.828,64.058L65.766,63.899L65.742,63.708L65.771,63.520L65.903,63.333L65.990,62.889L66.214,62.244L66.221,61.877L66.117,61.877L66.069,62.162L65.828,62.964L65.689,63.129L65.380,63.226L65.188,63.476L65.117,63.815L65.160,64.183L64.949,64.021L64.744,63.924L64.510,63.873L64.204,63.860L64.204,63.974L64.498,64.062L64.535,64.207L64.395,64.341L64.150,64.402L63.424,64.417L63.677,64.499L63.904,64.605L64.012,64.696L63.972,64.918L63.797,65.048L63.561,65.108L63.335,65.123L63.321,65.107L62.892,65.016L62.830,65.032L62.780,65.030L62.761,64.971L62.767,64.738L62.761,64.696L62.590,64.633L62.378,64.606L61.899,64.600L61.899,64.696L62.077,64.857L62.142,65.023L62.043,65.133L61.718,65.123L61.718,65.236L62.529,65.447L62.901,65.606L63.056,65.910L63.008,66.108L62.896,66.323L62.735,66.911L62.452,67.189L62.191,67.403L61.824,67.507L61.135,67.650L60.601,67.384L60.326,66.969L60.172,66.315L60.033,66.134L59.883,65.863L59.725,65.399L59.608,65.264L59.404,65.331L59.614,65.549L59.803,65.970L59.915,66.416L59.883,66.709L59.598,66.851L59.143,66.926L58.720,66.904L58.535,66.750L58.449,66.539L58.066,66.261L57.979,66.120L57.934,65.981L57.728,65.701L57.621,65.268L57.467,65.201L57.054,65.236L56.989,65.149L56.823,64.600L56.715,64.510L56.586,64.448L56.479,64.372L56.387,64.099L56.189,63.811L56.144,63.708L56.124,63.547L55.953,63.129L55.850,62.608L55.737,62.341L55.611,62.113L55.508,61.859L55.467,61.511L55.394,61.325L54.311,59.835L54.161,59.432L54.129,59.257L54.130,59.092L54.291,58.155L54.311,57.528L54.391,57.191L54.548,56.894L54.662,56.612L54.605,56.324L54.692,56.324L54.462,55.825L54.452,55.622L54.605,55.489L54.558,55.474L54.517,55.472L54.494,55.452L54.501,55.374L54.147,55.500L53.908,55.179L53.773,54.721L53.737,54.434L53.753,53.536L53.871,53.187L54.216,52.973L55.032,52.977L55.360,52.795L55.371,52.233L55.306,52.024L55.228,51.936L55.091,51.922L54.845,51.928L54.806,51.991L54.930,52.132L55.180,52.336L55.084,52.650L54.838,52.506L54.684,52.492L54.414,52.650L54.058,52.769L53.858,52.906L53.796,52.851L53.583,52.248L53.638,51.814L53.863,51.459L54.216,51.292L54.129,51.188L54.104,51.251L54.103,51.266L54.086,51.270L54.024,51.292L53.917,51.147L53.686,51.174L53.172,51.388L53.251,51.602L53.181,51.731L53.010,51.795L52.790,51.814L52.554,51.795L52.373,51.731L52.017,51.501L52.130,51.739L52.326,51.894L52.558,51.984L52.790,52.024L53.311,52.043L53.425,52.166L53.454,53.537L53.412,53.704L53.303,53.796L53.188,54.018L53.101,54.289L53.076,54.530L52.605,54.326L49.862,53.790L49.329,53.593L48.852,53.276L48.838,53.452L48.970,53.618L50.787,54.722L51.006,54.905L51.136,55.095L51.224,55.284L51.347,55.429L51.791,55.527L52.180,55.724L52.399,55.802L53.316,55.905L53.431,56.006L53.842,56.636L53.901,56.887L53.952,57.428L53.894,57.340L53.787,57.190L53.658,57.054L53.727,57.352L53.789,58.256L53.737,58.620L53.356,59.167L53.267,59.257L53.101,59.215L53.067,59.088L53.132,58.936L53.267,58.829L53.267,58.724L53.172,58.724L53.015,58.937L52.862,59.089L52.668,59.191L52.399,59.257L51.873,59.242L51.699,59.311L51.633,59.565L51.650,59.662L51.709,59.996L51.904,60.477L52.166,60.935L52.447,61.303L52.479,61.380L52.455,61.558L52.495,61.668L52.530,61.685L52.585,61.689L52.643,61.707L52.686,61.763L52.852,61.894L52.909,61.999L52.838,62.143L52.629,62.249L52.420,62.227L52.215,62.173L52.017,62.189L51.749,62.531L51.621,63.041L51.453,63.466L51.060,63.557L51.284,63.756L51.227,63.961L51.038,64.040L50.868,63.860L50.564,64.066L50.769,64.221L51.169,64.355L51.441,64.496L51.572,64.215L51.812,64.258L52.055,64.470L52.207,64.696L52.249,64.853L52.303,65.331L52.474,65.824L52.526,66.359L52.489,66.470L52.351,66.651L52.228,66.720L51.909,66.768L51.778,66.851L51.697,67.082L51.538,67.930L51.537,68.161L51.578,68.000L51.665,67.908L51.760,67.840L51.825,67.743L51.838,67.583L51.795,67.281L51.825,67.116L51.963,66.908L52.171,66.783L52.420,66.745L52.686,66.793L53.185,67.111L53.438,67.549L53.605,68.057L53.842,68.587L53.627,68.514L53.556,68.473L53.559,68.819L53.659,69.099L53.938,69.641L54.007,69.950L54.020,70.267L53.938,70.895L53.491,72.067L53.160,72.600L52.885,72.669L52.513,72.877L52.365,73.008L52.303,73.144L52.270,73.352L52.185,73.591L51.783,74.304L51.649,74.475L51.489,74.548L51.305,74.505L51.066,74.396L50.861,74.262L50.772,74.141L50.853,73.762L51.193,73.034L51.251,72.669L51.088,72.235L51.060,72.034L51.145,71.554L51.101,71.363L50.868,71.302L50.930,71.620L50.789,72.297L50.820,72.517L50.935,72.618L51.025,72.659L51.095,72.717L51.147,72.869L51.128,72.988L51.063,73.092L50.956,73.202L50.936,73.228L50.908,73.254L50.881,73.306L50.844,73.523L50.789,73.516L50.721,73.482L50.669,73.514L50.628,73.667L50.581,74.141L50.526,74.337L50.468,74.469L50.212,74.864L50.034,75.071L49.998,75.128L49.938,75.397L49.668,75.955L49.609,76.234L49.547,76.816L49.417,77.388L49.308,77.686L49.165,77.891L48.394,78.563L48.200,78.699L47.934,78.754L47.648,78.704L47.122,78.482L46.873,78.431L46.647,78.306L46.586,78.054L46.682,77.860L46.921,77.909L46.816,77.695L46.898,77.544L47.038,77.403L47.114,77.222L47.090,77.091L47.052,77.005L47.045,76.910L47.114,76.751L46.973,76.944L46.725,77.567L46.590,77.701L46.457,77.746L46.283,77.952L46.156,78.014L46.036,77.989L45.854,77.834L45.688,77.814L45.783,77.405L45.821,76.574L45.975,76.228L46.105,76.118L46.267,76.018L46.426,75.894L46.547,75.707L46.614,75.474L46.642,75.283L46.690,75.097L46.825,74.881L47.401,74.349L47.469,74.259L47.571,74.075L47.644,73.979L47.767,73.921L47.892,73.955L48.003,74.016L48.078,74.035L48.373,73.826L48.591,73.483L48.694,73.076L48.652,72.669L48.403,73.329L48.228,73.677L48.030,73.828L47.654,73.878L47.422,74.016L46.590,74.928L46.491,75.083L46.378,75.416L46.201,75.698L46.157,75.807L46.080,75.879L45.879,75.916L45.740,75.892L45.294,75.707L45.375,75.495L45.390,75.261L45.496,75.080L45.628,74.964L45.752,74.900L45.842,74.796L45.879,74.558L45.831,74.102L45.893,73.932L45.944,73.703L46.075,73.553L46.231,73.482L46.362,73.385L46.443,73.202L46.082,73.333L45.907,73.599L45.688,74.349L45.561,74.520L45.185,74.899L45.104,75.028L45.138,75.719L45.104,75.916L44.894,76.100L44.641,76.003L44.427,75.746L44.340,75.446L44.313,75.295L44.190,74.948L44.149,74.767L44.118,73.637L43.988,73.005L43.957,72.622L43.921,72.473L43.742,72.183L43.670,72.034L43.618,71.834L43.600,71.673L43.620,71.509L43.670,71.302L43.947,70.603L45.104,68.901L45.182,68.710L45.233,68.524L45.316,68.356L45.487,68.213L45.104,68.473L45.059,68.521L44.609,68.986L44.416,69.233L44.340,69.475L44.231,69.718L43.988,69.648L43.565,69.308L43.593,69.629L43.673,69.890L43.723,70.151L43.670,70.477L43.087,71.615L43.257,71.940L43.404,72.483L43.565,73.514L43.585,74.046L43.544,74.306L43.426,74.502L43.192,74.630L42.986,74.610L42.771,74.548L42.505,74.548L42.505,74.663L42.802,74.792L43.048,74.954L43.215,75.192L43.278,75.551L43.260,75.697L43.188,75.972L43.192,76.134L43.249,76.274L43.438,76.578L43.551,76.869L43.687,77.041L43.766,77.238L43.670,77.482L43.570,77.522L43.258,77.584L42.897,77.909L42.819,78.011L42.791,78.082L42.744,78.145L42.610,78.222L42.354,78.327L42.204,78.347L42.141,78.275L42.067,78.054L41.892,78.098L41.682,78.243L41.506,78.327L41.272,78.309L41.010,78.253L40.771,78.156L40.602,78.014L40.540,77.896L40.488,77.733L40.480,77.563L40.630,77.296L40.602,77.151L40.401,76.856L40.009,77.701L40.169,77.982L40.440,78.366L40.752,78.704L41.033,78.848L41.154,79.001L41.003,79.301L40.699,79.520L40.353,79.428L40.185,79.319L40.029,79.314L39.680,79.381L39.642,79.467L39.796,79.875L39.827,80.007L39.560,80.286L39.263,80.094L38.863,79.476L38.888,79.205L38.726,78.573L38.767,78.222L38.880,78.026L39.140,77.717L39.246,77.482L39.290,77.229L39.232,76.121L39.341,75.233L39.417,74.920L39.752,74.315L39.827,73.979L39.779,73.653L39.656,73.334L39.483,73.048L39.293,72.821L39.284,72.609L39.714,72.035L39.827,71.781L39.843,71.455L39.892,71.139L39.981,70.841L40.114,70.572L39.960,70.690L39.830,70.884L39.638,71.302L39.475,71.470L39.423,71.604L39.550,71.957L39.468,72.090L39.198,72.299L39.031,72.571L39.047,72.772L39.341,73.296L39.412,73.485L39.446,73.632L39.454,73.979L39.421,74.162L39.277,74.455L39.246,74.606L39.134,75.581L39.063,75.802L38.803,75.945L38.689,75.708L38.671,75.028L38.709,74.867L38.853,74.551L38.863,74.349L38.231,72.829L38.195,72.517L38.261,71.833L38.245,71.528L38.107,71.198L38.003,71.198L37.887,72.208L38.003,74.141L38.107,74.141L38.119,73.926L38.186,73.729L38.261,73.617L38.298,73.661L38.318,73.794L38.367,73.981L38.439,74.166L38.524,74.297L38.599,74.472L38.587,74.694L38.471,75.080L38.401,75.149L38.229,75.182L38.195,75.233L38.208,75.344L38.240,75.417L38.298,75.498L38.350,75.671L38.521,76.045L38.623,76.182L38.648,76.287L38.518,77.100L38.375,77.278L38.190,77.418L38.003,77.596L37.847,77.864L37.833,78.080L37.881,78.332L37.915,78.702L37.864,79.055L37.730,79.344L37.540,79.585L37.032,80.033L36.875,80.048L36.517,79.636L36.442,79.408L36.421,79.016L36.464,78.327L36.540,78.048L36.722,77.579L36.760,77.222L36.699,76.914L36.438,76.398L36.377,76.134L36.273,76.134L36.185,76.368L36.225,76.564L36.315,76.756L36.377,76.970L36.377,77.214L36.325,77.354L36.089,77.596L35.946,77.780L35.858,77.934L35.628,78.500L35.559,78.626L35.489,78.630L35.411,78.431L35.317,78.431L35.324,78.818L35.467,79.415L35.411,79.789L35.173,80.317L35.214,80.489L35.507,80.633L35.344,80.825L35.104,81.002L34.823,81.126L34.551,81.156L34.287,81.000L34.203,80.716L34.257,80.442L34.401,80.321L34.431,80.154L33.997,78.903L33.976,78.774L33.968,78.593L33.908,78.530L33.778,78.616L33.645,78.766L33.587,78.902L33.504,78.970L33.319,78.919L33.012,78.754L32.867,78.624L32.806,78.527L32.459,77.279L32.430,77.022L32.466,76.706L32.615,76.065L32.621,75.707L32.520,75.386L32.208,74.953L32.144,74.715L32.229,74.012L32.186,73.724L32.190,73.715L32.435,73.404L32.407,73.034L32.330,72.731L32.212,72.475L31.601,71.662L31.468,71.342L31.669,71.202L31.437,70.795L31.361,70.607L31.194,69.793L31.193,69.644L31.230,69.487L31.350,69.285L31.375,69.165L31.317,68.809L31.059,68.202L30.933,67.637L30.766,67.501L30.331,67.328L30.644,67.116L30.729,66.764L30.668,66.352L30.532,65.961L30.359,65.638L30.302,65.298L30.255,65.101L30.087,64.659L30.053,64.381L30.149,64.173L30.307,63.980L30.456,63.746L30.517,63.542L30.572,63.245L30.595,62.948L30.563,62.741L30.403,62.587L30.011,62.460L29.848,62.258L29.550,61.537L29.403,61.298L29.138,60.959L29.082,60.787L29.091,60.488L29.221,60.052L29.257,59.268L29.446,58.883L30.207,58.064L30.582,57.750L30.705,57.606L30.777,57.443L30.779,57.317L30.699,57.245L30.317,57.259L30.192,57.227L30.074,57.168L29.094,56.826L28.856,56.778L28.672,56.807L28.552,56.888L28.457,56.976L28.345,57.029L28.198,57.027L27.278,56.728L27.090,56.558L26.951,56.263L26.941,55.931L27.068,55.636L27.408,55.090L28.089,53.271L28.121,52.941L27.934,52.788L27.750,52.933L27.585,53.189L27.410,53.258L27.203,52.844L27.051,52.773L26.641,52.490L26.405,52.234L26.077,51.641L25.867,51.412L25.756,51.388L25.479,51.419L25.337,51.358L25.201,51.210L25.192,51.109L25.239,50.993L25.266,50.801L25.195,50.744L25.051,50.714L24.919,50.648L24.899,50.477L25.194,49.084L25.174,48.942L25.072,48.711L25.075,48.565L25.145,48.401L25.350,48.077L25.423,47.899L25.424,47.760L25.394,47.623L25.378,47.484L25.424,47.338L25.648,47.159L25.922,47.144L26.213,47.171L26.482,47.115L26.669,46.966L27.200,46.443L27.336,46.268L27.378,45.993L27.339,45.668L27.255,45.375L27.160,45.196L27.332,44.899L27.495,44.681L27.488,44.536L27.151,44.456L27.108,44.263L26.844,44.034L26.775,43.859L26.793,43.719L26.883,43.400L26.900,43.222L26.834,42.911L26.831,42.764L26.911,42.576L27.051,42.442L27.361,42.326L27.579,42.221L27.581,42.220L27.626,42.089L27.788,41.849L27.836,41.709L27.803,41.652L27.768,41.401L27.741,41.338L27.663,40.733L27.342,40.299L26.883,40.017L26.580,39.950L26.431,40.300L26.221,40.625L25.912,40.644L25.221,40.410L24.314,40.367L23.992,40.299L22.955,39.474L19.278,37.549L18.874,37.461L18.846,37.355L18.718,37.133L18.595,36.972L18.539,36.915L18.524,36.838L18.524,36.041L18.480,35.949L18.276,35.738L18.136,35.426L17.907,35.329L17.639,35.250L17.715,34.789L17.830,34.512L18.013,34.246L18.079,33.577L18.234,33.513L18.412,33.482L18.511,33.340L18.529,33.133L18.570,32.948L18.662,32.841L18.844,32.872L18.978,32.594L19.172,32.403L19.308,32.207L19.268,31.917L19.084,31.387L19.019,31.256L18.943,31.175L18.943,31.108L19.638,30.730L19.897,30.641L20.170,30.666L20.398,30.822L20.595,31.080L20.722,31.378L20.734,31.656L20.903,31.666L21.491,31.823L21.726,31.844L21.854,31.746L22.109,31.296L22.596,30.662L22.766,30.308L22.811,29.905L23.134,29.501L23.298,29.049L23.415,28.046L23.377,27.183L23.515,26.928L23.992,26.846L24.223,26.907L24.661,27.080L25.038,27.182L25.103,27.213L25.169,27.218L25.327,27.180L25.426,27.115L25.599,26.922L25.725,26.876L26.217,26.889L26.642,26.972L27.482,27.284L28.318,27.368L28.431,27.282L28.574,26.953L28.667,26.844L28.778,26.820L28.869,26.850L28.962,26.904L29.920,27.240L30.278,27.262L30.074,26.937L30.330,26.882L30.370,26.731L30.331,26.527L30.346,26.321L30.468,26.157L30.994,25.773L31.093,25.626L31.129,25.472L31.098,25.326L30.994,25.201L30.310,25.234L29.979,25.189L29.745,24.950L29.662,24.883L29.369,24.864L29.225,24.826L29.127,24.740L28.795,24.330L28.735,24.165L28.724,24.017L28.684,23.889L28.533,23.780L28.529,23.686L28.767,23.143L28.748,22.816L28.620,22.616L28.442,22.459L28.272,22.257L28.151,22.153L27.726,21.988L27.734,22.257L27.595,22.321L27.462,22.314L27.336,22.293L27.225,22.310L27.077,22.434L26.957,22.582L26.831,22.705L26.667,22.751L26.374,22.683L25.922,22.391L25.648,22.258L25.051,22.237L24.761,22.180L24.624,22.041L24.516,21.820L24.135,21.531L23.992,21.226L23.466,20.962L23.269,20.772L23.209,19.831L22.838,19.419L21.820,18.738L20.974,17.763L20.520,17.530L19.893,17.711L19.662,17.845L19.385,17.966L19.123,17.979L18.943,17.790L18.847,17.499L18.781,17.368L18.561,17.121L18.561,16.984L18.580,16.851L18.483,16.618L18.376,15.941L18.418,15.870L18.492,15.822L18.567,15.710L18.826,14.843L19.097,14.331L19.449,14.057L19.546,13.765L19.525,13.597L19.449,13.512L19.362,13.458L19.311,13.382L19.294,13.231L19.314,13.152L19.357,13.070L19.514,12.571L19.628,12.388L20.092,12.095L20.214,11.991L20.303,11.879L20.400,11.781L20.552,11.722L20.840,11.661L21.658,11.384L21.904,11.234L22.019,11.006L21.997,10.449L22.048,10.226L22.260,9.933L22.471,9.743L23.130,9.333L23.233,9.203L23.301,9.062L23.380,8.997L23.525,9.090L23.618,9.131L23.749,9.137L23.888,9.122L23.992,9.095L24.304,9.142L24.273,8.754L23.992,7.929L23.793,7.595L23.421,7.422L22.613,7.267L22.286,7.125L22.187,7.134L22.138,7.238L22.099,7.591L22.035,7.682L21.852,7.627L21.747,7.424L21.730,7.172L21.807,6.967L21.989,6.665L22.276,5.686L22.380,5.465L22.551,5.183L22.730,5.000L22.858,5.085L22.879,5.367L22.866,5.691L22.907,5.992L23.091,6.200L23.587,6.346L23.810,6.449L23.992,6.660L24.168,6.801L24.318,6.968L24.433,7.079L24.713,7.266L25.034,7.399L25.149,7.414L25.446,7.409L25.614,7.482L25.708,7.632L25.787,7.804L25.899,7.947L26.051,8.044L26.200,8.111L26.526,8.187L26.465,8.311L26.436,8.443L26.469,8.549L26.593,8.589L26.697,8.637L26.682,8.906L26.765,9.020L27.086,9.179L27.274,9.327L27.310,9.516L27.180,9.800L27.000,9.951L26.484,10.207L26.379,10.315L26.626,10.492L27.810,10.063L28.315,10.255L28.427,10.490L28.517,10.749L28.651,10.966L28.887,11.071L29.108,10.987L29.318,10.482L29.600,10.294L29.977,10.362L30.595,10.974L30.994,11.105L31.612,10.950L31.896,10.756L31.821,10.471L31.669,10.425L31.502,10.419L31.401,10.320L31.452,9.992L31.321,10.078L31.195,10.110L31.084,10.073L30.994,9.949L30.864,9.513L30.517,9.335L30.113,9.200L29.825,8.896L29.817,8.636L29.932,8.350L30.107,8.094L30.283,7.927L30.514,7.816L30.642,7.854L30.770,7.982L30.994,8.145L31.151,8.224L31.365,8.462L31.492,8.569L31.645,8.629L31.952,8.708L32.077,8.807L32.142,8.990L32.097,9.123L32.113,9.229L32.346,9.327L32.681,9.420L32.781,9.530L32.790,9.739L32.668,9.803L32.465,9.709L32.304,9.730L32.312,10.141L32.403,10.391L32.683,10.850L32.788,11.093L32.904,12.020L33.009,12.294L33.183,12.491L34.111,12.889L34.318,13.022L34.464,13.212L34.551,13.509L34.668,13.648L35.163,13.871L35.498,14.259L35.754,14.432L36.036,14.558L36.263,14.584L36.491,14.453L36.658,14.302L36.822,14.300L37.035,14.612L37.100,14.640L37.168,14.649L37.239,14.640L37.311,14.613L37.312,14.612L38.071,14.548L38.141,14.556L38.212,14.577L38.277,14.612L38.475,14.955L38.597,15.116L38.741,15.192L38.927,15.152L39.030,15.013L39.069,14.819L39.053,14.612L39.171,14.196L39.784,13.691L39.902,13.432L39.797,13.241L39.614,13.236L39.420,13.272L39.281,13.204L39.280,13.022L39.433,12.896L39.639,12.793L39.802,12.690L39.544,12.657L39.315,12.547L39.222,12.355L39.371,12.078L39.462,11.996L39.558,11.948L39.659,11.941L39.945,12.025L39.957,11.950L39.862,11.773L39.833,11.309L39.930,11.181L40.232,11.082L40.486,11.130L40.561,11.357L40.553,11.674L40.545,12.007L40.525,12.069L40.558,12.101L40.729,12.179L40.832,12.194L41.111,12.169L41.236,12.178L41.403,12.310L41.485,12.538L41.547,12.790L41.658,12.998L41.842,13.253L41.860,13.442L41.826,13.633L41.847,13.901L41.926,14.040L42.214,14.410L42.320,14.611L42.396,14.720L42.482,14.751L42.573,14.710L42.669,14.611L42.673,14.611L42.675,14.609L42.699,14.597L42.722,14.592L42.742,14.595L42.758,14.611L42.946,14.851L42.903,15.061L42.706,15.221L42.433,15.314L42.695,15.472L42.915,15.492L43.026,15.580L42.965,15.944L42.362,16.996L42.308,17.374L42.566,18.747L42.884,19.520L43.026,20.122L42.896,21.197L42.870,22.349L42.664,23.108L42.554,23.516L42.534,23.668L42.475,24.107L42.524,24.629L42.648,25.173L42.811,25.472L43.029,25.510L43.528,25.310L44.059,25.289L47.168,26.594L49.364,27.076L50.453,27.536L50.945,27.551L52.368,27.248L53.516,27.352L54.077,27.208L54.276,27.213L54.435,27.263L54.737,27.402L55.257,27.490L55.379,27.481L55.458,27.435L55.607,27.277L55.681,27.239L55.906,27.267L56.087,27.375L56.262,27.506L56.466,27.606L56.858,27.654L58.438,27.438L58.559,27.422L59.003,27.263L61.247,26.905L62.024,26.932L62.197,26.904L62.502,26.746L62.653,26.742L63.329,27.093L65.400,27.720L65.949,27.782L66.085,27.761L66.367,27.671L66.517,27.650L66.682,27.609L66.917,27.419L67.037,27.366L67.280,27.383L67.383,27.501L67.477,27.675L67.702,27.858L67.939,27.916L68.296,27.933L68.624,27.884L68.767,27.742L68.839,27.496L69.000,27.490L69.181,27.579L69.305,27.617L69.404,27.538L69.488,27.353L69.578,27.269L69.790,27.240L70.468,27.301L71.965,27.114L72.745,27.233L73.008,27.148L73.382,27.032L73.833,27.051L74.282,27.160L74.658,27.311L74.764,27.397L74.903,27.614L74.984,27.697L75.096,27.735L75.298,27.744L75.395,27.816L75.472,27.846L75.664,27.787L75.776,27.812L75.867,27.892L76.076,28.160L76.271,28.329L76.440,28.448L76.630,28.530L76.880,28.594L77.608,28.694L77.729,28.781L77.953,29.096L78.347,29.264L78.694,29.471L78.748,29.757L78.776,29.899L78.776,29.903L78.777,29.905L78.885,29.933L79.126,30.021L79.129,30.022L79.131,30.023L79.134,30.069L79.134,30.073L79.582,30.404L79.583,30.405L79.713,30.469L79.716,30.470L79.769,30.540L79.773,30.544L79.660,30.646L79.657,30.649L80.000,30.798L80.001,30.798L80.133,30.928L80.238,31.169L80.239,31.171L80.284,31.438L80.242,31.608L80.048,31.911L79.548,32.041L78.690,32.327L78.552,32.309L78.450,32.261L78.448,32.260L78.390,32.182L78.390,32.178L78.376,32.068L78.373,32.066L77.425,31.492L77.422,31.491L76.889,31.314L76.481,31.491L76.406,31.748L76.463,32.016L76.463,32.018L76.647,32.506L76.649,32.510L76.675,32.757L76.669,32.995L76.631,33.232L75.919,35.224L75.786,35.819L75.722,36.340L75.649,36.571L75.502,36.795L75.458,36.831L75.298,36.961L75.083,37.088L74.910,37.258L74.841,37.549L74.915,38.481L74.864,38.914L74.593,39.287L74.236,39.449L73.825,39.482L72.656,39.382L72.641,39.564L72.956,40.081L72.968,40.290L72.700,40.184L72.390,39.970L72.263,39.855L71.954,39.953L71.907,40.228L72.053,40.836L72.040,41.137L71.737,42.438L71.636,42.706L71.459,42.820L71.176,42.748L70.749,42.323L70.715,42.186L70.692,41.842L70.655,41.741L70.508,41.734L69.617,41.540L69.478,41.744L69.517,42.033L69.604,42.345L69.612,42.610L69.452,42.845L69.207,42.937L68.933,42.898L68.682,42.739L68.556,42.503L68.308,41.886L68.162,41.830L68.098,42.012L67.948,42.981L67.839,43.305L67.706,43.518L67.500,43.654L67.176,43.752L66.600,43.820L66.080,43.777L65.018,43.546L64.436,43.596L64.265,43.988L64.243,44.572L64.100,45.196L63.932,45.309L63.780,45.284L63.671,45.238L63.622,45.217L63.436,45.203L63.191,45.303L63.006,45.471L62.858,45.673L62.380,46.524L62.320,46.737L62.331,46.947L62.489,47.303L62.547,47.494L62.506,47.782L62.226,48.617L62.082,48.868L61.825,49.000L61.558,49.023L61.337,49.101L61.205,49.396L61.264,49.728L61.486,49.849L61.717,49.935L61.806,50.165L61.683,50.414L61.484,50.398L61.308,50.421L61.260,50.789L61.324,51.056L61.730,51.822L61.838,52.093L61.955,52.593L62.084,52.844L62.199,52.955L62.444,53.108L62.535,53.248L62.569,53.364L62.635,53.745L62.823,54.395L62.967,54.703L63.146,54.841L63.329,54.889L63.375,54.979L63.314,55.100L63.174,55.240L63.074,55.380L63.098,55.499L63.174,55.623L63.234,55.779L63.560,58.240L63.743,58.872L64.077,59.330L64.546,59.457L64.598,58.953L64.336,57.669L64.333,56.989L64.407,56.631L64.563,56.412L64.875,56.400L65.144,56.614L65.348,56.907L65.465,57.131L65.461,57.118L65.509,57.012L65.513,56.998L65.604,57.121L65.608,57.224L65.590,57.312L65.604,57.390L65.811,57.596L65.844,57.601L65.940,58.073L66.005,58.229L66.328,59.347L66.400,59.738L66.439,59.787L66.572,59.823L66.609,59.880L66.626,60.331L66.685,60.490L66.866,60.694L67.052,60.765L67.238,60.800L67.429,60.894L67.518,61.062L67.516,61.214L67.560,61.266L67.788,61.136L67.871,61.024L67.923,60.878L67.988,60.752L68.116,60.699L68.214,60.718L68.314,60.753L68.412,60.775L68.512,60.752L68.702,60.683L69.081,60.598L69.253,60.488L69.358,60.369L69.593,60.152L69.692,60.040L69.926,59.679L69.944,59.619L69.934,59.548L69.939,59.476L70.009,59.415L70.055,59.413L70.188,59.424L70.223,59.419L70.435,59.188L70.494,59.048L70.443,58.870L70.262,58.402L70.051,57.349L69.844,56.863L69.767,56.252L70.032,55.499L70.439,54.784L70.804,54.285L71.029,54.087L71.804,53.750L72.028,53.586L72.211,53.383L72.528,52.844L72.549,52.244L72.180,50.474L72.159,49.890L72.187,49.560L72.274,49.360L72.470,49.351L72.645,49.562L72.820,49.847L73.406,50.516L73.623,50.628L73.951,50.544L74.192,50.331L74.648,49.691L74.876,49.432L75.469,49.227L75.747,49.656L75.889,50.241L76.078,50.504L76.290,50.299L76.468,49.592L76.701,49.454L76.989,49.612L76.995,49.671L77.022,49.939L76.859,50.589L76.898,51.098L77.433,52.842L77.514,53.587L77.580,53.813L77.653,53.934L77.836,54.113L77.914,54.246L77.936,54.360L77.914,54.572L77.933,54.678L78.002,54.779L78.188,54.925L78.240,55.001L78.253,55.141L78.214,55.442L78.218,55.593L78.290,55.847L78.355,55.995L78.364,56.151L78.269,56.426L78.017,56.957L77.959,57.187L77.946,57.795L78.302,59.959L78.290,61.024L78.397,61.539L78.661,61.940L79.126,62.131L79.328,62.389L79.450,63.578L79.548,64.043L79.712,64.271L80.090,64.605L80.242,64.836L80.302,65.072L80.401,66.250L80.372,67.138L80.424,67.394L80.603,67.871L80.625,68.134L81.439,73.131L81.418,73.519L81.259,73.595L81.051,73.592L80.883,73.743L81.200,74.772L81.384,75.781L81.413,75.916L81.423,76.053ZM72.455,79.381L72.499,80.072L73.005,81.082L73.132,81.687L73.101,82.010L72.971,82.652L72.940,82.997L72.812,83.263L72.506,83.275L72.154,83.212L71.880,83.254L71.880,83.336L71.945,83.451L71.952,83.571L71.784,83.661L71.636,83.647L71.514,83.560L71.432,83.435L71.372,83.164L71.330,83.059L71.333,82.949L71.552,82.628L71.588,82.470L71.593,82.105L71.521,81.488L71.227,80.470L71.306,79.904L71.438,79.601L71.569,79.460L71.723,79.474L71.928,79.636L71.996,79.835L71.931,80.072L71.829,80.314L71.784,80.528L72.003,80.255L72.090,79.889L72.074,79.500L71.974,79.162L72.224,79.123L72.455,79.057L72.459,79.303L72.455,79.381ZM32.961,79.057L33.287,79.276L33.367,79.697L33.196,79.968L32.773,79.736L32.061,78.873L32.060,78.813L32.149,78.719L32.239,78.431L32.234,78.135L32.092,77.626L32.056,77.388L31.966,77.121L31.979,76.979L32.144,76.970L32.202,77.011L32.250,77.083L32.287,77.173L32.342,77.388L32.479,78.418L32.639,78.870L32.961,79.057ZM71.784,77.757L71.739,78.000L71.542,78.393L71.436,78.922L71.131,79.757L71.012,79.904L70.892,79.647L71.114,78.379L71.012,77.596L71.063,77.330L71.164,77.133L71.497,76.751L71.552,76.798L71.575,76.848L71.593,76.970L71.762,77.541L71.784,77.757ZM53.658,75.916L53.658,76.228L53.712,76.302L53.761,76.405L53.842,76.647L53.621,76.703L53.480,77.049L53.364,76.970L53.267,76.970L53.149,77.278L52.920,77.608L52.646,77.829L52.399,77.814L52.399,77.701L52.499,77.677L52.677,77.612L52.790,77.596L52.670,77.422L52.599,77.343L52.495,77.273L52.586,77.171L52.585,77.054L52.564,76.914L52.598,76.751L52.656,76.647L52.718,76.573L53.658,75.916ZM49.998,76.647L50.304,76.066L50.548,75.790L50.868,75.707L50.817,76.043L50.465,76.648L50.129,77.847L49.998,78.012L49.868,78.098L49.808,78.062L49.808,77.350L49.863,76.985L49.998,76.647ZM50.772,74.976L50.683,75.357L50.287,75.818L50.191,76.134L50.102,76.134L50.190,75.808L50.369,75.363L50.582,75.014L50.772,74.976ZM51.441,75.080L51.975,75.655L52.155,76.065L52.017,76.551L51.716,76.734L51.395,77.121L51.166,77.232L50.981,77.134L50.871,76.912L50.868,76.647L50.944,76.430L51.038,76.271L51.114,76.077L51.147,75.754L51.114,75.271L51.166,75.124L51.347,74.976L51.441,75.080ZM52.971,74.767L52.885,74.663L52.284,75.022L52.207,75.175L52.120,75.175L52.147,74.818L52.232,74.485L52.392,74.237L52.640,74.141L52.817,74.027L53.190,73.605L53.364,73.609L53.484,73.434L53.648,73.273L53.812,73.178L53.938,73.202L53.658,74.141L53.657,73.989L53.634,73.889L53.556,73.714L53.393,74.240L53.311,74.822L53.185,75.347L52.885,75.707L52.622,75.792L52.475,75.719L52.414,75.550L52.399,75.342L52.474,75.203L52.971,74.767ZM58.535,72.575L58.611,72.474L58.668,72.461L58.709,72.528L58.745,72.669L58.745,73.495L58.637,73.850L58.362,73.923L58.220,73.689L58.235,73.263L58.336,72.801L58.449,72.461L58.535,72.575ZM59.021,72.869L59.030,72.052L59.112,71.747L59.308,71.834L59.321,72.115L59.279,72.440L59.181,72.722L59.021,72.869ZM58.692,72.243L58.472,72.151L58.514,71.936L58.659,71.679L58.745,71.464L58.794,70.771L58.877,70.398L59.021,70.154L59.126,70.267L59.204,70.499L59.260,70.781L59.273,71.091L59.212,71.407L58.692,72.243ZM61.436,70.250L61.543,70.632L61.752,70.822L61.892,71.373L61.899,71.729L61.967,72.227L61.740,72.695L61.605,72.926L61.513,73.116L61.333,73.475L61.042,73.718L60.841,73.850L60.664,73.893L60.506,74.160L60.238,74.336L59.892,74.317L59.666,74.259L59.509,74.149L59.423,73.924L59.827,73.435L60.083,73.027L60.179,72.773L60.308,72.029L60.319,70.954L60.399,69.768L60.643,69.726L61.129,69.977L61.436,70.250ZM54.024,69.215L53.940,69.155L53.846,69.173L53.769,69.147L53.737,68.949L53.771,68.854L53.855,68.823L53.951,68.843L54.024,68.901L54.213,69.109L54.417,69.483L54.571,69.906L54.605,70.267L54.452,69.958L54.414,69.841L54.315,70.112L54.404,70.724L54.311,70.989L54.240,70.853L54.226,70.689L54.229,70.518L54.216,70.363L54.311,70.363L54.222,70.088L54.115,69.486L54.024,69.215ZM54.414,69.215L54.498,68.317L54.534,68.359L54.605,68.369L54.664,68.536L54.687,68.699L54.692,68.996L54.548,69.078L54.501,69.118L54.414,69.215ZM61.573,68.011L62.152,67.839L62.304,68.132L62.167,68.489L61.876,68.687L61.586,68.818L61.230,68.836L60.944,68.654L61.082,68.230L61.573,68.011ZM65.900,66.744L67.144,68.397L67.245,69.048L67.127,69.562L66.460,69.642L66.019,69.389L65.605,68.779L65.369,68.171L65.287,67.677L65.609,66.897L65.900,66.744ZM56.418,68.135L57.035,68.701L57.321,69.063L57.041,70.517L57.057,72.986L56.941,73.380L56.197,74.549L55.953,74.767L55.932,74.701L55.850,74.548L55.529,74.889L55.399,74.970L55.033,75.603L54.910,75.650L54.735,75.746L54.558,75.820L54.414,75.802L54.301,75.464L54.466,75.028L54.729,74.564L54.895,74.141L54.113,75.295L53.890,75.342L53.798,75.037L53.858,74.604L54.015,74.161L54.216,73.828L54.061,73.492L54.195,72.925L54.779,71.636L54.848,71.386L54.895,71.093L54.896,70.198L54.982,69.935L54.869,69.483L54.838,69.185L54.895,68.996L54.895,68.901L54.738,68.616L54.575,67.691L54.414,67.325L54.188,67.122L53.398,66.552L53.172,66.489L53.104,65.926L53.137,65.392L53.450,64.133L53.545,63.964L53.696,63.852L53.938,63.756L54.184,63.695L54.457,63.668L54.598,64.121L54.751,64.662L54.927,65.091L55.169,65.588L55.367,65.949L55.588,66.220L55.808,66.582L55.913,67.323L56.087,67.796L56.418,68.135ZM54.383,62.722L54.640,63.033L54.845,63.348L54.623,63.392L54.142,63.291L53.622,63.263L53.214,63.647L53.001,63.725L52.790,63.946L52.764,64.326L52.833,64.565L52.643,64.825L52.502,64.657L52.324,64.488L52.303,64.345L52.248,64.191L52.109,64.091L51.729,63.974L51.847,63.799L51.868,63.658L51.825,63.234L51.832,62.955L51.873,62.684L51.976,62.479L52.164,62.398L52.645,62.487L52.875,62.455L52.971,62.242L53.087,62.225L53.641,62.223L53.842,62.294L54.124,62.601L54.383,62.722ZM54.692,61.135L54.332,61.146L54.216,61.135L54.375,61.243L54.514,61.375L54.623,61.521L54.692,61.668L54.257,61.620L54.129,61.563L54.024,61.449L53.857,61.142L53.737,61.041L53.591,60.997L53.535,61.023L53.486,61.082L53.364,61.135L53.213,61.158L52.832,61.163L52.686,61.135L52.461,60.787L52.741,60.300L53.207,59.918L53.556,59.883L53.851,60.140L54.384,60.802L54.692,61.041L54.692,61.135ZM52.495,59.361L52.588,59.510L52.567,59.622L52.351,59.835L52.037,60.227L51.921,60.300L51.802,59.675L51.729,59.456L52.270,59.454L52.383,59.425L52.495,59.361ZM52.686,55.489L52.434,55.612L52.167,55.538L51.911,55.345L51.470,54.884L51.321,54.667L51.364,54.526L51.729,54.530L52.235,54.712L52.900,55.064L53.436,55.467L53.556,55.802L53.043,55.428L52.762,55.316L52.686,55.489Z" fill="currentColor" stroke="currentColor" stroke-width="1.5" stroke-linejoin="round"/>
</svg>