<svg xmlns="http://www.w3.org/2000/svg" viewBox="0 0 100 100" role="img" aria-label="Bulgaria">
  <title>Bulgaria</title>
  <path d="M62.354,69.974L61.801,70.027L61.499,69.938L61.314,69.778L60.932,69.332L60.813,69.257L60.606,69.241L60.291,69.550L59.503,69.575L59.118,69.683L58.732,70.004L58.625,70.050L58.527,70.056L58.430,70.086L58.332,70.200L58.252,70.443L58.243,70.726L58.283,71.004L58.352,71.233L58.416,71.330L58.522,71.492L58.728,71.591L58.930,71.631L59.095,71.712L59.218,71.861L59.301,72.026L59.434,72.526L59.444,72.674L59.422,72.982L59.447,73.114L59.527,73.182L59.753,73.224L59.833,73.316L59.906,73.574L59.925,73.798L59.903,74.018L59.851,74.266L59.683,74.443L59.658,74.575L59.807,74.920L59.867,75.009L60.067,75.202L60.111,75.321L60.086,75.478L60.013,75.524L59.922,75.557L59.847,75.676L59.686,76.163L59.465,76.660L59.298,76.929L59.209,76.980L59.104,76.952L57.874,77.245L57.689,77.340L57.305,77.605L56.980,77.767L56.821,77.787L56.627,77.749L56.427,77.747L56.069,77.938L55.864,77.981L55.586,77.863L55.163,77.382L54.842,77.257L54.695,77.316L54.159,77.688L53.659,77.726L53.497,77.784L53.321,77.918L53.218,78.023L53.120,78.092L52.958,78.116L52.821,78.076L52.521,77.894L52.380,77.844L51.110,77.754L50.916,77.822L50.804,78.007L50.711,78.223L50.584,78.384L50.443,78.441L50.332,78.429L50.219,78.392L50.069,78.378L49.701,78.444L47.289,79.247L46.951,79.272L46.618,79.218L46.339,79.045L45.726,78.181L45.450,77.941L45.392,77.913L44.856,77.655L44.799,77.588L44.688,77.394L44.644,77.343L44.572,77.342L44.335,77.394L41.986,76.370L41.546,76.090L41.352,76.066L41.210,76.097L40.910,76.206L40.351,76.246L40.306,76.507L40.345,76.848L40.221,77.133L39.936,77.119L39.622,76.832L39.135,76.187L38.854,75.928L38.591,75.799L38.309,75.757L37.977,75.757L38.065,75.561L37.564,75.569L37.368,75.520L37.146,75.309L37.136,75.238L37.172,75.021L37.155,74.924L37.100,74.858L36.963,74.769L36.911,74.711L36.834,74.598L36.760,74.521L36.700,74.430L36.659,74.269L36.613,73.727L36.434,73.214L36.136,72.938L35.721,73.103L35.403,73.176L35.110,73.603L34.896,73.651L34.593,73.600L34.371,73.623L33.888,73.771L33.761,73.785L33.376,73.738L33.251,73.757L33.157,73.813L33.058,73.846L32.924,73.800L32.899,73.692L32.931,73.526L32.918,73.355L32.637,73.171L32.405,72.903L32.154,72.935L31.882,73.053L31.642,73.211L31.622,73.224L31.411,73.413L31.351,73.538L31.289,73.845L31.247,73.918L31.140,73.909L31.078,73.825L31.014,73.712L30.903,73.621L30.474,73.491L29.901,73.440L29.480,73.641L29.516,74.269L29.554,74.703L29.547,74.869L29.459,75.017L29.299,75.098L29.128,75.064L28.810,74.847L28.758,74.987L28.689,75.033L28.611,75.051L28.530,75.107L28.291,75.352L28.079,75.367L27.402,74.859L27.286,74.843L26.897,75.212L26.665,75.328L26.368,75.406L26.063,75.441L25.809,75.428L25.594,75.534L25.268,76.089L25.035,76.152L24.562,76.041L24.085,76.045L23.807,76.149L23.446,76.523L23.404,76.551L23.226,76.670L22.744,76.651L21.796,76.147L20.380,76.105L20.106,76.196L19.669,76.522L19.412,76.666L19.108,76.704L18.957,76.556L18.822,76.330L18.556,76.138L18.301,76.156L17.965,76.304L17.644,76.513L17.436,76.718L17.386,76.867L17.364,77.225L17.288,77.415L17.161,77.550L17.003,77.642L16.679,77.741L16.076,77.812L13.225,77.360L13.568,77.085L13.620,76.721L13.547,76.310L13.518,75.892L13.564,75.772L13.730,75.560L13.766,75.468L13.748,75.355L13.665,75.156L13.646,75.061L13.608,73.691L13.600,73.390L13.669,73.065L13.681,72.951L13.649,72.819L13.512,72.600L13.466,72.489L13.442,72.227L13.455,71.945L13.500,71.675L13.568,71.450L13.640,71.383L13.866,71.316L13.944,71.266L13.989,71.168L14.083,70.884L14.209,70.676L14.399,70.364L14.557,69.909L14.546,69.448L14.292,69.035L14.139,68.962L13.799,68.944L13.641,68.872L13.552,68.728L13.244,67.991L13.091,67.320L13.001,67.089L12.934,67.010L12.766,66.918L12.723,66.869L12.705,66.848L12.668,66.700L12.674,66.411L12.651,66.274L12.497,65.827L12.390,65.376L12.364,64.906L12.330,64.696L12.217,64.484L12.213,64.480L12.201,64.221L12.199,64.211L12.171,64.073L12.092,63.975L11.930,63.865L11.849,63.859L11.629,63.937L11.528,63.940L11.415,63.851L11.366,63.718L11.331,63.590L11.268,63.511L11.120,63.495L10.465,63.524L10.370,63.485L10.306,63.404L10.252,63.319L10.187,63.261L9.758,63.169L9.057,62.807L8.922,62.737L7.675,61.828L7.375,61.521L7.328,61.440L7.152,61.134L6.962,60.571L6.418,60.158L5.000,58.219L5.275,58.072L5.874,58.061L6.136,57.976L6.344,57.698L6.572,56.980L6.794,56.687L7.014,56.580L7.194,56.540L7.356,56.428L7.509,56.115L7.705,55.397L7.754,54.990L7.696,54.696L7.696,54.693L7.586,54.417L7.403,54.191L6.962,53.870L6.217,53.169L6.155,53.141L6.205,52.751L6.385,51.965L6.431,51.762L6.498,51.279L6.396,51.010L6.770,50.293L6.962,50.109L6.978,50.051L6.983,49.990L6.978,49.930L6.962,49.872L6.748,49.701L6.555,49.406L6.213,48.574L6.162,48.501L6.185,48.427L6.228,48.359L6.320,48.218L6.445,48.103L6.810,47.908L6.962,47.778L7.186,47.432L7.316,47.321L7.513,47.316L7.769,47.356L7.868,47.296L7.873,47.290L7.947,47.179L8.143,47.043L8.536,46.992L9.619,47.285L10.056,47.178L10.493,46.992L10.663,46.787L10.674,46.758L10.759,46.539L11.013,45.588L11.103,45.340L11.204,45.175L11.372,45.074L11.770,44.980L11.957,44.906L11.959,44.906L11.960,44.905L11.960,44.902L12.150,44.631L12.754,44.060L12.830,43.909L12.934,43.550L13.005,43.412L13.127,43.304L13.371,43.189L13.488,43.103L13.781,42.658L14.045,42.014L14.197,41.359L14.173,41.111L14.151,40.882L13.912,40.776L13.204,40.623L12.949,40.464L12.748,40.263L12.367,39.747L12.020,39.401L11.930,39.269L11.886,39.114L11.841,38.757L11.789,38.601L11.608,38.337L10.579,37.309L10.455,37.220L10.383,37.169L10.147,37.063L10.007,37.047L9.734,37.061L9.597,37.011L9.514,36.921L9.480,36.884L9.319,36.549L9.211,36.431L9.077,36.394L8.766,36.410L8.613,36.376L8.476,36.273L8.274,36.004L8.175,35.902L7.698,35.677L7.500,35.493L7.363,35.119L7.094,34.189L6.919,33.829L6.907,33.733L6.922,33.635L6.962,33.538L6.980,33.487L6.986,33.437L6.980,33.389L6.962,33.342L6.914,33.274L6.899,33.202L6.914,33.131L6.962,33.060L6.966,33.052L6.969,33.042L6.966,33.032L6.962,33.018L6.852,32.777L6.839,32.327L6.743,32.069L6.595,31.927L6.171,31.696L5.991,31.530L5.861,31.324L5.746,31.085L5.654,30.830L5.590,30.574L5.587,30.411L5.641,30.084L5.626,29.932L5.253,29.491L5.064,28.960L5.140,28.534L5.324,28.083L5.461,27.480L5.489,26.894L5.532,26.794L5.675,26.534L5.712,26.446L5.745,26.141L5.752,25.573L5.785,25.330L5.960,25.064L6.284,24.927L6.738,24.855L6.962,24.820L7.281,24.810L7.443,24.607L7.553,24.325L7.720,24.081L8.014,23.978L8.310,23.998L8.566,23.948L8.735,23.646L8.733,23.474L8.640,23.060L8.625,22.869L8.653,22.648L8.802,22.069L8.781,22.068L8.753,22.006L8.736,21.902L8.756,21.782L8.790,21.757L9.023,21.492L9.242,21.141L9.368,21.010L9.985,20.728L13.073,22.794L13.594,23.018L14.248,23.105L14.538,23.233L14.864,23.378L14.995,23.980L14.750,24.581L14.248,24.854L13.934,24.895L13.362,25.080L13.064,25.122L12.778,25.307L12.617,25.747L12.269,27.217L12.277,27.660L12.455,28.031L12.819,28.342L13.262,28.446L15.175,28.277L16.315,28.177L16.747,27.993L17.251,27.887L17.791,27.602L19.095,27.420L21.389,27.538L22.942,28.383L23.347,28.450L23.566,28.486L24.784,28.218L25.102,28.280L25.922,28.754L30.951,30.002L31.091,30.037L33.641,29.913L33.951,29.898L34.199,29.823L35.000,29.230L35.505,29.068L35.991,29.125L38.316,29.984L38.946,30.217L39.622,30.314L42.657,30.102L44.353,30.703L46.218,30.841L46.808,30.982L47.284,31.261L47.332,31.289L47.825,31.666L48.351,31.968L48.977,32.051L49.307,31.966L49.901,31.705L50.118,31.666L50.208,31.650L50.856,31.687L51.183,31.654L51.449,31.516L51.720,31.452L52.045,31.313L52.353,31.127L52.577,30.914L52.835,30.734L53.720,30.706L53.815,30.703L54.413,30.447L54.747,29.900L54.774,29.827L55.250,29.342L55.681,29.098L56.358,28.247L56.474,27.968L56.611,27.739L58.341,26.486L58.447,26.183L58.701,25.806L59.231,25.222L59.728,24.957L60.889,24.662L62.026,24.170L62.339,24.125L63.539,23.951L66.392,23.539L66.875,23.372L67.164,23.338L67.300,23.300L67.586,23.123L67.751,23.083L68.399,23.083L68.913,22.930L70.274,22.135L71.963,21.967L72.336,21.734L73.382,22.371L74.897,22.670L75.201,22.837L75.552,22.804L75.574,22.821L75.809,22.999L75.741,23.443L76.044,23.781L76.854,24.161L77.025,24.314L77.303,24.794L77.460,24.904L80.202,24.881L81.050,24.617L81.378,24.733L81.663,25.326L81.755,25.449L82.319,26.204L83.263,25.975L84.257,25.422L85.057,25.330L85.057,25.332L85.398,25.897L86.048,28.150L86.534,28.527L89.503,29.860L92.570,30.384L94.638,30.265L94.607,30.534L94.562,32.911L94.597,33.162L94.744,33.504L94.890,33.742L94.988,33.957L95.000,34.242L94.871,34.744L94.640,35.365L94.379,35.893L94.161,36.114L94.015,36.191L93.348,36.821L93.213,37.009L93.136,37.255L93.125,37.596L92.929,37.325L92.283,36.969L92.145,36.855L91.984,36.667L91.623,36.520L90.946,36.393L90.623,36.457L90.082,36.732L89.818,36.794L88.881,36.751L88.582,36.794L88.030,37.112L87.638,37.652L87.572,37.823L86.768,39.904L86.574,40.222L86.324,40.408L85.343,40.671L85.179,40.783L85.082,40.817L84.940,40.817L84.940,40.950L85.440,41.322L85.538,41.472L85.521,41.702L85.245,42.554L85.047,43.502L84.945,43.684L84.819,43.814L84.706,43.953L84.647,44.171L84.673,44.609L84.889,45.505L84.940,45.908L84.861,47.232L84.940,47.525L84.652,47.746L84.647,48.068L84.762,48.491L84.842,49.007L84.842,49.942L84.807,50.309L84.772,50.445L84.036,50.488L83.263,50.355L82.628,50.337L82.477,50.367L82.375,50.485L82.280,50.758L82.235,50.970L82.251,51.150L82.354,51.298L82.575,51.413L82.190,51.480L81.564,51.754L81.241,51.815L80.978,52.042L81.006,52.556L81.165,53.103L81.290,53.430L81.058,53.320L79.718,53.285L79.296,53.528L79.110,53.932L79.008,54.415L78.845,54.902L78.588,54.771L78.453,54.956L78.460,55.248L78.637,55.436L78.586,55.571L78.572,55.672L78.637,55.971L78.677,55.824L78.698,55.799L78.691,55.796L78.637,55.715L78.738,55.314L79.187,55.794L79.335,55.837L79.510,55.670L79.626,55.443L79.770,55.350L80.023,55.581L80.153,55.380L80.275,55.404L80.393,55.517L80.505,55.581L80.707,55.523L80.849,55.431L80.992,55.377L81.192,55.436L81.185,55.536L81.170,55.555L81.142,55.550L81.094,55.581L81.179,55.920L81.319,56.162L81.543,56.210L81.887,55.971L81.914,56.155L81.993,56.253L82.120,56.275L82.280,56.237L82.280,56.384L82.197,56.408L81.978,56.517L82.085,56.709L82.146,56.757L82.280,56.785L82.143,56.979L82.127,57.247L82.213,57.520L82.379,57.720L82.588,57.811L82.756,57.790L82.934,57.732L83.164,57.720L83.164,57.842L83.079,57.950L83.077,58.057L83.145,58.163L83.270,58.268L82.912,58.569L82.742,58.932L82.810,59.295L83.164,59.592L83.101,59.644L83.095,59.664L83.067,59.737L83.585,60.080L83.665,60.206L83.733,60.349L83.896,60.538L84.091,60.712L84.253,60.806L84.224,60.873L84.184,61.026L84.155,61.085L84.582,61.336L84.692,61.471L84.940,62.010L85.714,62.510L85.809,62.699L85.928,62.880L86.128,62.945L86.068,63.160L86.139,63.343L86.277,63.494L86.422,63.614L86.430,63.712L86.409,63.738L86.370,63.740L86.324,63.760L86.487,63.937L86.595,64.191L86.614,64.462L86.520,64.696L86.562,64.893L86.048,64.776L85.831,64.706L85.128,64.789L84.932,64.727L84.551,64.538L84.196,64.445L84.064,64.439L83.790,64.484L83.732,64.460L83.674,64.451L83.616,64.460L83.560,64.484L83.516,64.680L83.515,64.945L83.484,65.138L83.708,65.279L83.665,65.398L83.486,65.470L83.298,65.478L83.102,65.411L82.352,64.990L81.821,64.971L80.703,65.267L80.668,65.462L80.617,65.557L80.541,65.558L80.433,65.474L80.315,65.631L80.169,65.729L79.861,65.840L79.880,65.886L79.920,65.916L79.964,65.940L80.003,65.968L79.957,66.010L79.868,66.057L79.834,66.101L80.033,66.188L79.798,66.291L79.608,66.156L79.267,65.664L79.049,65.475L77.992,64.870L77.648,64.565L77.331,64.186L76.722,63.231L76.331,62.837L75.872,62.560L75.366,62.439L75.053,62.484L74.871,62.631L74.552,63.066L74.515,63.144L74.503,63.213L74.440,63.239L74.092,63.146L73.770,63.131L73.609,63.146L73.388,62.964L73.144,62.821L72.883,62.737L72.629,62.733L72.610,62.732L72.266,62.909L71.946,63.518L71.668,63.713L71.468,63.798L71.340,63.999L71.223,64.235L71.062,64.430L70.937,64.463L70.667,64.419L70.518,64.484L70.363,64.641L70.231,64.639L70.096,64.588L69.938,64.593L69.784,64.691L69.610,64.841L69.463,64.967L69.344,65.028L69.186,64.985L68.920,64.749L68.785,64.680L68.613,64.732L68.302,65.051L68.155,65.159L67.879,65.192L66.527,64.962L66.270,64.994L66.037,65.163L65.622,65.615L65.517,65.696L65.428,65.787L65.368,65.915L65.393,65.992L65.567,66.103L65.610,66.170L65.599,66.280L65.538,66.452L65.521,66.554L65.511,66.673L65.499,66.814L65.438,67.170L65.319,67.528L65.126,67.797L64.439,68.011L62.960,67.946L62.366,68.476L62.162,68.948L62.109,69.373L62.208,69.766L62.354,69.974Z" fill="currentColor" stroke="currentColor" stroke-width="1.5" stroke-linejoin="round"/>
</svg>