<svg xmlns="http://www.w3.org/2000/svg" viewBox="0 0 100 100" role="img" aria-label="Bahrain">
  <title>Bahrain</title>
  <path d="M44.441,16.855L49.375,21.171L50.534,19.336L52.253,17.971L52.990,19.883L53.726,22.886L55.200,23.023L54.039,24.469L53.972,26.846L51.665,27.424L52.335,34.825L52.084,46.046L50.380,60.062L49.347,62.842L46.023,68.312L46.005,68.333L45.242,64.487L43.938,60.269L42.132,56.160L39.842,52.625L34.853,46.957L34.015,43.432L36.249,39.162L36.873,37.310L37.496,35.457L36.845,30.669L35.104,25.964L33.158,22.538L32.693,21.006L32.767,18.925L34.098,12.911L34.936,11.431L36.416,10.706L36.435,10.711L36.547,10.711L38.986,10.778L40.410,11.074L42.244,11.912L43.733,12.595L43.743,12.590L48.453,10.716L49.207,11.213L49.682,12.875L50.520,14.024L50.771,14.546L51.022,15.069L50.380,16.420L49.300,16.720L46.042,16.265L44.441,16.855ZM26.836,19.336L28.064,19.746L29.292,20.429L29.292,22.613L29.537,24.388L29.783,26.300L27.696,25.754L25.485,25.890L24.871,23.842L25.117,21.248L26.836,19.336ZM50.166,6.092L53.726,5.000L56.305,6.365L56.428,8.277L56.428,10.188L58.147,12.646L59.620,13.329L59.006,15.104L58.392,15.786L56.551,14.694L56.059,12.919L55.446,11.144L53.849,10.735L52.376,10.461L51.393,10.871L49.920,8.140L50.166,6.092ZM69.916,76.969L70.857,77.130L71.799,76.405L72.957,75.761L72.957,76.566L72.667,77.693L71.799,78.981L70.930,80.108L71.509,80.671L72.378,81.637L71.943,82.281L70.568,81.959L69.916,82.442L68.975,83.328L68.541,83.811L69.048,85.501L69.916,86.709L70.134,87.514L69.337,87.836L68.903,88.641L68.758,89.687L69.410,90.170L69.916,90.895L69.192,91.619L68.541,92.746L67.962,93.873L68.251,94.678L67.889,95.000L66.586,94.356L65.718,92.988L66.152,91.780L67.021,89.768L66.948,88.560L66.948,86.789L65.935,85.662L66.007,84.535L66.152,83.006L66.586,81.315L67.745,79.464L69.265,77.613L69.916,76.969ZM70.061,73.024L70.930,72.622L71.726,72.702L71.871,73.507L70.640,73.990L70.061,73.024ZM73.391,82.362L75.129,82.442L74.767,83.650L73.826,84.294L73.319,83.569L73.102,82.925L73.391,82.362ZM72.088,85.823L72.812,85.904L74.187,86.145L74.767,86.789L74.622,87.755L74.187,88.399L73.753,88.238L73.174,88.077L72.378,88.238L71.799,88.560L71.292,87.514L71.509,86.870L71.147,86.306L71.364,85.743L72.088,85.823Z" fill="currentColor" stroke="currentColor" stroke-width="1.5" stroke-linejoin="round"/>
</svg>