<svg xmlns="http://www.w3.org/2000/svg" viewBox="0 0 100 100" role="img" aria-label="The Bahamas">
  <title>The Bahamas</title>
  <path d="M91.670,85.493L91.222,85.720L91.089,85.861L90.967,85.878L90.942,85.726L90.978,85.549L90.885,85.272L90.712,84.995L90.662,84.701L90.794,84.595L91.101,84.491L91.348,84.336L91.578,84.049L91.775,83.907L91.898,83.985L92.058,84.196L92.197,84.322L92.458,84.467L92.719,84.585L92.841,84.728L92.786,85.013L92.539,85.180L92.048,85.238L91.819,85.458L91.670,85.493ZM89.835,72.386L89.609,72.324L89.482,72.230L89.512,72.093L89.754,71.904L89.678,71.802L89.673,71.735L89.754,71.591L89.815,71.405L89.792,71.251L89.795,71.120L89.933,71.003L90.158,71.305L90.270,71.377L90.471,71.405L90.470,71.375L90.545,71.310L90.651,71.243L90.741,71.208L90.834,71.216L91.030,71.282L91.140,71.298L91.464,71.421L92.141,71.893L92.453,71.904L92.389,71.823L92.274,71.591L92.712,71.817L92.931,71.872L93.073,71.797L93.279,71.959L93.482,72.048L93.718,72.084L94.024,72.092L94.111,72.132L94.214,72.229L94.387,72.440L94.512,72.531L94.770,72.531L94.884,72.582L95.000,72.847L94.938,73.135L94.768,73.370L94.563,73.466L94.329,73.388L93.718,72.779L93.451,72.579L93.241,72.460L93.010,72.402L92.677,72.386L92.529,72.403L92.333,72.477L92.229,72.493L92.074,72.461L91.988,72.391L91.921,72.321L91.817,72.288L91.534,72.348L91.013,72.626L90.695,72.689L90.556,72.658L90.468,72.591L90.403,72.524L90.333,72.493L89.835,72.386ZM85.504,69.161L85.418,69.182L84.864,69.009L84.618,68.934L84.352,68.890L84.320,68.815L84.554,68.783L84.779,68.751L85.077,68.826L85.376,68.967L85.504,69.161ZM83.160,91.102L83.185,90.829L83.031,90.636L82.887,90.477L82.887,90.330L83.339,90.553L83.607,90.450L83.833,90.367L83.988,90.242L84.398,90.115L84.491,89.834L84.782,89.567L84.901,89.300L85.190,89.369L85.451,89.216L85.834,89.213L85.969,89.208L86.102,89.141L86.237,89.037L86.431,88.754L86.540,88.633L86.588,88.695L86.673,88.993L86.882,89.251L87.145,89.609L87.486,89.772L88.311,90.045L88.601,89.859L88.891,89.714L89.549,89.545L89.854,89.145L90.121,88.584L90.768,87.532L90.967,87.252L91.220,87.093L91.504,87.213L91.603,87.466L91.589,87.797L91.328,89.333L91.218,89.733L90.381,90.816L89.958,92.078L89.677,92.244L88.700,92.670L88.130,92.580L87.963,92.633L87.839,92.697L87.584,92.883L87.494,92.883L87.494,92.777L87.581,92.698L87.387,92.543L87.105,92.507L86.421,92.910L85.968,92.883L85.190,93.073L84.609,92.832L83.768,92.756L83.579,92.784L83.366,92.897L83.311,93.004L83.234,93.132L83.186,93.246L83.100,93.226L82.946,93.121L82.778,92.919L82.741,92.763L82.709,92.515L82.698,92.191L82.465,91.781L82.422,91.703L82.466,91.600L82.858,91.558L83.078,91.413L83.160,91.102ZM74.793,67.951L74.725,68.355L74.349,68.948L73.860,69.511L73.455,69.825L73.571,69.208L73.953,68.797L74.422,68.432L74.793,67.951ZM78.578,68.156L78.494,68.063L78.309,67.763L78.743,67.891L78.847,67.951L78.891,67.791L78.988,67.668L79.106,67.612L79.214,67.657L79.294,67.596L79.330,67.576L79.385,67.568L79.385,67.460L79.278,67.430L79.233,67.399L79.198,67.348L79.117,67.255L79.795,67.263L80.119,67.210L80.471,67.067L80.485,67.123L80.490,67.169L80.509,67.213L80.561,67.255L80.250,67.812L80.103,67.951L80.096,67.806L80.050,67.692L79.964,67.611L79.842,67.568L79.888,67.763L79.996,67.951L80.139,68.042L80.291,67.951L80.380,68.162L80.500,69.236L80.572,69.456L80.740,69.825L80.515,69.881L80.420,70.124L80.373,70.440L80.291,70.708L80.163,70.874L79.973,71.068L79.773,71.230L79.614,71.298L79.463,71.426L79.027,72.288L78.341,72.864L78.219,72.926L78.080,72.937L77.281,73.269L76.953,73.342L76.752,73.528L76.424,74.064L76.318,74.182L75.970,74.492L75.838,74.555L75.540,74.602L75.305,74.729L74.882,75.144L74.865,75.014L74.882,74.506L74.941,74.364L75.079,74.325L75.597,74.367L75.708,74.315L76.105,73.957L76.116,73.865L75.976,73.760L75.976,73.672L76.233,73.504L76.326,73.466L76.249,73.442L76.189,73.416L76.150,73.364L76.139,73.269L76.403,73.164L76.789,72.924L77.093,72.877L77.164,72.830L77.308,72.628L77.481,72.503L77.467,72.323L77.417,72.124L77.420,71.994L77.662,71.894L78.022,71.856L78.347,71.775L78.488,71.547L78.543,71.199L78.694,71.032L78.925,70.964L79.214,70.913L79.735,70.717L80.096,70.379L80.219,69.914L80.021,69.334L79.659,69.063L78.725,69.047L78.309,68.835L78.111,68.643L78.134,68.589L78.293,68.329L78.379,68.246L78.475,68.191L78.578,68.156ZM74.752,67.067L73.896,65.782L73.946,65.736L73.967,65.689L73.977,65.640L73.994,65.587L74.138,65.578L74.357,65.501L74.442,65.487L74.600,65.533L74.972,65.782L75.104,65.817L75.389,65.843L75.519,65.881L75.886,66.185L75.926,66.308L75.941,66.561L75.976,66.666L76.023,66.680L76.183,66.659L76.236,66.666L76.264,66.708L76.326,66.872L76.583,66.961L77.055,66.994L77.330,67.067L77.232,66.872L77.524,66.944L78.309,67.255L77.330,68.156L77.285,68.039L77.279,68.008L77.142,67.951L77.154,67.714L76.913,67.758L76.571,67.865L75.601,67.609L75.465,67.495L75.250,67.255L75.178,67.424L75.020,67.567L74.864,67.644L74.793,67.612L74.869,67.301L74.866,67.137L74.752,67.067ZM82.909,61.945L81.739,62.183L81.185,62.172L80.927,61.740L81.915,61.838L82.652,61.759L82.909,61.838L82.909,61.945ZM56.791,56.627L57.232,56.661L57.797,56.822L58.286,57.084L58.495,57.412L58.023,57.258L57.470,57.145L57.004,56.972L56.791,56.627ZM54.890,55.489L55.095,55.936L55.590,56.292L56.692,56.725L56.504,56.928L56.203,56.845L55.615,56.519L54.948,56.468L54.699,56.338L54.808,56.038L54.564,55.866L54.315,55.634L54.087,55.504L53.902,55.636L53.446,55.147L52.954,54.778L52.399,54.595L51.749,54.655L51.749,54.557L52.137,54.437L52.198,54.405L52.172,54.276L52.085,54.146L52.099,54.066L51.960,53.972L51.851,53.806L51.824,53.621L51.928,53.468L52.090,53.500L52.203,53.454L52.289,53.391L52.369,53.370L52.471,53.418L52.539,53.493L52.655,53.673L52.800,53.818L52.961,53.904L53.167,53.948L53.446,53.959L53.401,54.020L53.378,54.067L53.343,54.108L53.266,54.155L54.126,55.077L54.748,55.441L54.890,55.489ZM67.231,63.516L67.390,63.662L67.503,64.032L67.569,64.467L67.587,65.031L67.562,65.183L67.483,65.246L67.321,65.194L67.245,65.094L67.149,64.605L67.101,64.639L66.970,64.702L66.885,64.328L66.509,63.652L66.373,63.064L66.248,62.863L65.805,62.314L65.669,62.184L65.504,62.103L64.001,61.801L63.675,61.594L63.506,61.454L62.568,60.854L62.362,60.768L62.400,60.627L62.462,60.500L62.544,60.383L62.647,60.268L62.729,60.268L62.860,60.475L63.230,60.659L63.365,60.857L63.026,60.809L62.917,60.768L63.007,60.934L63.142,61.077L63.299,61.160L63.455,61.151L63.615,61.259L63.865,61.473L63.985,61.543L64.133,61.580L64.346,61.598L64.480,61.556L64.393,61.401L63.642,60.559L63.545,60.317L63.594,59.929L63.705,59.649L63.825,59.421L63.895,59.188L63.885,58.847L63.798,58.460L63.649,58.118L63.455,57.902L63.408,57.968L63.267,58.100L63.289,57.761L62.792,57.336L62.818,57.020L62.641,56.975L62.481,56.910L62.398,56.803L62.459,56.627L62.193,56.414L62.093,56.185L62.011,55.539L61.741,54.852L61.615,54.784L61.529,54.816L61.435,54.887L61.285,54.940L61.375,54.248L61.300,54.040L61.024,54.262L61.148,54.072L61.202,54.009L61.285,53.959L61.120,53.907L61.012,54.010L60.907,54.164L60.746,54.262L60.746,54.155L60.880,54.011L60.983,53.842L61.037,53.634L61.024,53.370L61.104,53.391L61.170,53.433L61.229,53.493L61.285,53.566L62.056,54.852L62.234,54.964L62.471,55.238L62.691,55.565L62.818,55.841L62.978,56.814L63.136,57.063L63.366,57.321L64.144,58.843L64.124,58.992L64.227,59.124L64.261,59.436L64.262,60.072L64.369,60.764L64.592,61.196L64.964,61.459L66.085,61.885L66.567,62.265L67.419,63.231L67.363,63.304L67.291,63.445L67.231,63.516ZM66.693,53.075L67.355,52.880L67.846,52.886L68.013,52.960L68.308,53.174L68.176,53.398L68.091,53.581L67.958,53.686L67.680,53.673L67.680,53.763L67.762,53.872L67.525,53.876L67.210,53.774L67.052,53.566L66.814,53.676L66.380,53.680L66.147,53.763L66.098,53.434L66.186,53.250L66.391,53.151L66.693,53.075ZM47.964,49.229L47.767,49.026L47.524,48.515L47.309,48.186L47.148,47.757L47.012,47.526L46.961,47.376L46.961,47.168L47.286,47.398L48.046,49.140L47.964,49.229ZM72.363,48.542L72.254,48.712L72.065,49.299L72.052,49.425L71.187,49.523L71.187,49.425L71.411,49.143L71.561,48.697L71.616,48.198L71.555,47.757L71.561,47.412L71.705,47.203L71.934,47.075L72.191,46.972L72.263,46.912L72.335,46.833L72.413,46.786L72.501,46.824L72.697,47.178L72.729,47.213L72.755,47.363L72.875,47.565L72.909,47.659L72.901,47.789L72.828,48.073L72.811,48.203L72.273,49.140L72.233,48.975L72.257,48.832L72.363,48.542ZM27.521,46.178L27.351,46.302L26.682,46.638L26.445,46.668L26.360,46.561L26.292,46.371L26.266,46.170L26.303,46.035L26.423,46.021L26.588,46.067L26.734,46.072L26.796,45.936L26.927,45.888L27.649,45.392L27.711,45.366L27.924,45.241L28.060,45.196L28.599,45.196L28.550,45.341L28.471,45.413L28.240,45.482L28.132,45.483L28.075,45.435L28.009,45.410L27.873,45.482L27.782,45.617L27.655,46.010L27.521,46.178ZM26.983,45.088L26.789,45.095L26.707,45.217L26.717,45.398L26.796,45.589L26.607,45.541L26.274,45.590L26.078,45.589L25.936,45.528L25.783,45.410L25.731,45.284L25.891,45.196L26.233,45.129L26.573,44.967L26.844,44.892L26.983,45.088ZM46.153,45.785L45.906,45.782L45.756,45.710L45.203,44.997L45.081,44.787L45.076,44.606L45.278,44.723L45.398,44.902L45.490,45.105L45.615,45.294L45.771,45.417L45.912,45.487L46.039,45.583L46.153,45.785ZM32.196,49.818L32.307,50.022L32.227,50.566L32.294,50.809L32.070,51.320L31.895,51.411L31.568,51.308L31.612,51.489L31.850,51.686L31.927,51.898L31.907,52.091L31.833,52.303L31.738,52.483L31.658,52.584L31.245,52.729L30.931,52.593L30.645,52.380L30.312,52.290L30.538,52.566L30.534,52.692L30.410,52.879L30.312,52.879L30.094,52.573L29.704,52.468L28.868,52.496L29.317,52.290L29.251,52.044L29.532,52.051L30.222,52.290L30.303,52.030L30.436,51.845L30.619,51.710L31.324,51.373L31.523,51.216L31.523,51.054L31.288,50.962L31.057,51.096L30.835,51.296L30.622,51.398L29.855,51.898L29.906,51.938L29.945,51.987L29.630,51.949L29.314,51.495L29.047,51.398L29.911,51.082L30.348,50.819L30.410,50.514L30.222,50.717L29.964,50.801L29.268,50.809L29.080,50.846L28.920,50.915L28.767,50.959L28.599,50.916L28.492,50.801L28.413,50.629L28.221,49.662L28.204,49.299L28.285,49.140L28.092,49.074L28.085,48.914L28.142,48.718L28.142,48.542L27.992,48.376L27.811,48.267L27.707,48.172L27.792,48.051L27.792,47.954L27.535,47.792L26.715,47.463L26.793,47.354L26.885,47.256L27.074,47.382L27.148,47.342L27.159,47.237L27.155,47.168L27.163,47.033L27.126,46.967L27.123,46.903L27.237,46.775L27.370,46.704L27.726,46.585L27.873,46.471L27.926,46.350L28.011,45.996L28.060,45.883L28.511,45.852L28.681,45.785L28.813,45.670L28.859,45.580L28.888,45.469L28.966,45.294L29.163,45.128L29.706,44.901L29.855,44.705L30.222,44.500L30.345,44.694L30.441,44.923L30.550,45.115L30.712,45.196L30.800,45.274L30.675,45.444L29.863,46.120L29.542,46.299L29.137,46.374L29.137,46.471L29.370,46.491L29.468,46.598L29.411,46.719L29.178,46.775L29.127,46.832L29.263,46.961L29.586,47.168L29.795,47.077L29.866,47.235L29.832,47.495L29.616,47.903L29.573,48.090L29.504,48.243L29.317,48.346L29.561,48.415L29.770,48.228L30.178,47.393L30.452,47.080L30.581,46.873L30.634,46.591L30.649,46.227L30.696,45.887L30.851,45.677L31.111,45.718L31.307,46.006L31.467,46.366L31.613,46.623L31.780,46.828L31.874,47.045L31.917,47.299L31.942,47.774L32.009,48.077L32.025,48.203L32.009,48.368L31.942,48.644L31.927,48.793L31.969,48.872L32.154,49.145L32.196,49.282L32.154,49.451L32.061,49.566L31.969,49.637L31.927,49.680L31.791,49.743L31.505,49.750L31.249,49.857L31.201,50.220L31.660,49.891L31.932,49.767L32.196,49.818ZM29.006,44.160L28.754,44.333L28.584,44.294L28.523,44.151L28.599,44.009L28.888,43.865L29.133,43.689L29.380,43.577L29.643,43.511L29.855,43.528L29.946,43.578L30.052,43.669L30.127,43.784L30.124,43.911L30.023,43.990L29.888,43.946L29.748,43.860L29.635,43.813L29.403,43.828L29.265,43.882L29.006,44.160ZM61.244,45.731L61.345,45.944L61.563,46.775L60.967,46.577L60.695,46.553L60.387,46.578L59.793,46.700L59.585,46.814L59.355,47.017L59.030,47.048L58.678,46.813L58.529,46.518L58.814,46.374L59.007,46.322L59.287,46.187L59.546,45.999L59.677,45.785L59.930,45.792L60.047,45.401L59.991,44.932L59.719,44.705L59.335,44.620L59.064,44.408L58.362,43.260L58.258,42.854L58.006,42.481L57.948,42.286L57.869,41.829L57.646,41.485L57.306,41.285L56.872,41.251L56.923,41.100L56.934,40.927L56.914,40.745L56.872,40.573L56.801,40.397L56.734,40.331L56.644,40.287L56.064,39.779L55.640,39.566L55.525,39.485L55.437,39.362L55.424,39.253L55.484,39.137L55.757,38.811L55.867,38.765L56.064,38.789L56.151,38.853L56.504,39.190L56.846,39.323L57.004,39.410L57.148,39.582L57.251,40.499L57.329,40.769L57.457,40.921L57.668,41.113L57.862,41.341L58.021,41.790L58.385,42.459L59.123,43.528L59.359,43.718L59.873,43.999L60.118,44.205L60.444,44.888L60.522,44.999L60.668,45.097L61.244,45.731ZM32.788,34.603L32.589,34.488L32.334,34.462L32.091,34.468L31.927,34.451L31.711,34.207L31.854,33.932L32.167,33.697L32.465,33.569L32.658,33.535L33.102,33.372L33.302,33.350L33.864,33.372L34.422,33.270L34.627,33.274L34.810,33.338L35.125,33.528L35.628,33.643L35.485,33.816L34.108,34.457L33.790,34.448L33.370,34.265L33.294,34.385L33.144,34.556L32.961,34.665L32.788,34.603ZM21.306,39.378L21.448,39.290L21.550,39.182L21.573,39.049L21.477,38.886L21.650,38.639L21.860,38.646L22.038,38.837L22.114,39.137L22.098,39.384L22.050,39.600L21.965,39.794L21.845,39.976L21.614,40.137L21.575,40.172L21.602,40.314L21.665,40.439L21.761,40.492L22.115,40.267L22.310,40.211L22.416,40.097L22.383,39.779L22.639,39.902L22.641,40.160L22.573,40.462L22.612,40.716L22.829,40.850L22.953,40.668L22.984,40.351L22.921,40.074L23.047,40.130L23.184,40.211L23.302,40.247L23.370,40.172L23.362,39.966L23.266,39.822L23.133,39.708L23.019,39.582L23.003,39.497L23.033,39.279L23.019,39.190L22.939,39.083L22.734,38.894L22.653,38.789L22.600,38.588L22.564,38.362L22.483,38.226L22.293,38.298L22.433,38.417L22.482,38.641L22.473,39.190L22.349,39.037L22.265,38.803L22.162,38.588L21.980,38.494L21.957,38.386L21.996,38.140L22.114,37.709L22.315,37.498L22.603,37.261L22.804,36.975L22.750,36.621L22.875,36.533L23.218,36.466L23.289,36.379L23.329,36.198L23.508,35.848L23.549,35.648L23.667,35.634L23.621,35.522L23.515,35.372L23.460,35.245L23.488,35.132L23.558,34.932L23.659,34.742L23.778,34.657L23.881,34.476L23.852,34.072L23.729,33.426L23.587,32.970L23.313,32.373L23.136,31.824L23.289,31.506L23.510,31.519L23.988,31.610L24.187,31.694L24.347,31.845L24.437,32.005L24.546,32.134L24.765,32.186L24.965,32.101L25.159,31.943L25.360,31.846L25.585,31.945L25.753,32.066L25.937,32.165L26.115,32.290L26.257,32.489L26.061,32.713L26.028,32.967L26.132,33.202L26.348,33.372L26.183,33.939L26.130,34.293L26.208,34.451L26.449,34.488L26.646,34.606L26.818,34.820L27.618,36.800L28.198,37.667L28.416,37.902L28.640,38.003L28.798,38.098L29.285,38.583L29.407,38.789L29.421,39.048L29.399,39.400L29.346,39.730L29.268,39.926L29.192,40.200L29.298,40.552L29.586,41.162L29.650,41.670L29.529,42.038L29.224,42.264L28.730,42.340L28.528,42.403L28.390,42.548L28.275,42.712L28.142,42.830L27.743,42.883L27.639,43.007L27.792,43.322L27.635,43.482L27.155,43.813L26.918,43.885L26.460,43.888L26.303,43.960L25.785,44.339L25.719,44.455L25.746,44.581L25.790,44.697L25.799,44.803L25.719,44.901L25.592,44.933L25.467,44.888L25.355,44.802L25.271,44.705L25.121,44.309L25.037,43.818L24.900,43.400L24.594,43.223L24.190,43.048L24.102,42.623L24.187,41.644L23.950,41.829L23.788,42.021L23.587,42.172L23.240,42.233L22.977,42.163L21.332,41.229L20.545,40.502L20.295,40.204L20.131,39.877L20.307,39.834L20.580,39.709L20.830,39.558L20.939,39.431L20.980,39.231L21.076,39.250L21.198,39.346L21.306,39.378ZM50.118,32.096L50.513,32.354L50.683,32.553L50.754,32.827L50.643,34.046L50.587,34.276L50.574,34.402L50.521,34.553L50.401,34.644L50.276,34.701L50.208,34.746L50.162,35.023L50.220,35.279L50.386,35.648L50.438,35.885L50.386,36.571L50.317,36.862L50.008,37.357L49.938,37.557L49.905,38.565L49.951,39.118L50.118,39.582L49.682,39.390L49.454,38.932L49.312,38.404L49.130,38.003L48.913,37.846L48.338,37.612L48.094,37.459L47.817,37.139L47.852,37.007L48.066,36.991L49.355,37.210L49.441,37.171L49.502,37.079L49.557,36.967L49.624,36.870L49.840,36.653L49.903,36.525L49.938,36.326L49.928,35.995L49.820,36.070L49.669,36.301L49.531,36.433L49.451,36.270L49.466,35.902L49.579,35.245L49.654,35.004L49.690,34.947L49.767,34.853L50.145,34.505L50.208,34.402L50.309,33.581L50.305,33.274L50.070,32.612L49.657,32.261L49.185,32.021L48.771,31.694L47.687,30.115L47.354,29.842L46.855,29.660L45.803,29.428L45.261,29.153L44.468,28.404L43.951,28.250L43.664,28.219L43.121,28.084L42.870,28.053L42.587,28.126L42.126,28.382L41.928,28.348L42.256,28.009L42.440,27.445L42.646,26.375L42.556,26.375L43.008,26.371L43.212,26.398L43.364,26.474L43.220,26.696L43.156,26.917L43.152,27.163L43.184,27.465L43.391,27.194L43.538,27.330L43.656,27.607L43.775,27.760L44.029,27.830L45.698,29.109L46.180,29.381L46.790,29.526L47.398,29.551L47.616,29.610L47.825,29.776L48.503,30.713L49.298,31.487L50.118,32.096ZM28.329,24.306L28.168,24.290L28.003,24.097L27.792,23.717L27.524,23.423L27.434,23.244L27.521,23.127L27.688,23.158L27.816,23.304L28.307,24.176L28.329,24.306ZM32.025,15.694L31.968,15.803L31.568,16.238L31.643,15.918L31.576,15.718L31.482,15.529L31.478,15.248L31.599,15.318L31.952,15.609L32.025,15.694ZM18.198,12.393L17.968,12.543L17.687,12.682L17.458,12.843L17.335,12.945L17.060,12.969L16.936,13.029L16.399,12.979L15.875,12.797L15.557,12.486L14.985,12.142L13.605,10.745L12.978,10.236L12.839,10.019L12.980,10.016L13.095,10.046L13.193,10.111L13.280,10.215L14.969,11.266L15.360,11.794L15.621,11.747L15.829,11.715L16.252,11.895L16.566,11.899L16.862,11.763L17.132,11.577L17.312,11.496L17.466,11.402L17.569,11.336L17.618,11.219L17.784,11.087L17.818,10.907L18.010,10.749L18.171,10.425L18.414,10.265L18.384,10.113L18.068,9.920L17.521,9.822L17.612,9.636L17.971,9.234L18.048,9.056L18.149,8.449L18.399,8.625L18.630,8.908L18.800,9.218L18.867,9.474L19.116,9.621L20.199,10.040L20.472,9.969L21.078,10.116L21.748,10.231L22.180,10.246L22.357,9.986L22.629,9.852L23.040,10.033L23.290,10.079L23.758,9.888L24.390,9.976L24.807,9.849L25.225,9.664L25.491,9.627L26.326,9.613L26.528,9.529L26.652,9.368L26.741,9.183L26.858,9.024L27.065,8.939L27.096,9.206L27.030,9.499L26.994,9.794L27.229,10.302L27.239,10.578L27.129,10.810L26.885,10.911L26.791,10.875L26.568,10.687L26.445,10.617L26.276,10.587L25.418,10.635L24.635,10.813L22.829,11.169L22.097,11.169L19.337,11.863L19.100,11.901L18.854,11.978L18.456,12.315L18.198,12.393ZM28.419,7.064L28.178,7.027L27.139,7.104L26.722,7.255L26.445,7.262L26.484,7.206L26.523,7.185L26.618,7.164L27.091,6.861L27.686,6.754L28.917,6.771L30.128,7.041L30.819,7.102L31.120,6.869L31.820,7.191L32.376,7.600L34.785,9.906L35.059,10.089L35.367,10.186L35.802,10.215L35.690,10.373L35.513,10.426L35.084,10.411L35.276,10.800L35.548,11.115L35.890,11.324L36.693,11.471L37.055,11.647L37.686,12.098L38.168,12.359L38.322,12.491L38.441,12.678L38.539,12.941L38.542,13.174L38.367,13.275L38.325,13.375L38.322,14.017L38.367,14.251L38.488,14.404L38.662,14.496L38.869,14.553L38.701,14.887L38.681,14.994L38.711,15.150L38.775,15.248L38.840,15.318L38.869,15.391L38.884,15.508L38.901,15.563L38.878,15.620L38.770,15.739L38.666,15.825L38.556,15.878L38.322,15.926L38.350,15.865L38.412,15.650L37.985,15.700L37.580,15.926L37.221,16.245L36.928,16.573L36.804,16.929L36.688,18.027L36.707,18.300L36.569,19.110L36.636,20.267L36.589,21.305L36.116,21.754L35.770,21.574L35.465,21.165L35.248,20.716L35.166,20.419L34.955,20.232L33.994,20.023L33.730,19.674L33.943,19.672L34.181,19.592L34.376,19.442L34.523,19.086L34.685,19.042L34.876,19.021L35.035,18.942L35.516,18.401L35.824,18.146L36.161,18.005L36.075,17.888L36.023,17.769L35.996,17.633L35.990,17.461L35.937,17.362L35.826,17.276L35.725,17.170L35.704,17.014L35.786,16.852L35.908,16.730L36.022,16.593L36.071,16.382L36.065,16.003L36.028,15.817L35.805,15.601L36.222,14.994L36.206,14.855L36.091,14.682L36.071,13.669L36.264,13.665L36.407,13.584L36.517,13.447L36.609,13.275L36.623,13.203L36.609,12.928L36.645,12.828L36.728,12.768L36.822,12.728L36.886,12.686L37.020,12.461L37.077,12.202L36.983,11.990L36.517,11.869L36.210,11.728L34.993,11.552L34.762,11.410L34.614,11.166L34.456,10.813L34.516,10.725L34.531,10.608L34.494,10.483L34.345,10.292L34.278,10.138L34.231,10.068L34.162,10.044L34.101,10.099L34.037,10.177L33.959,10.215L33.691,10.190L33.484,10.108L33.392,9.958L33.469,9.733L33.251,9.246L32.653,8.265L32.294,7.850L32.072,7.692L31.785,7.586L31.493,7.577L31.250,7.708L31.022,7.788L30.710,7.738L29.937,7.488L29.699,7.459L29.178,7.458L29.023,7.410L28.652,7.166L28.419,7.064ZM6.056,56.106L6.009,56.130L5.759,55.951L5.735,55.897L6.056,56.106ZM5.407,55.373L5.545,55.559L5.523,55.568L5.000,54.971L5.074,55.018L5.407,55.373ZM9.280,26.736L9.309,26.746L9.366,26.887L9.337,26.876L9.280,26.736ZM9.014,26.440L9.020,26.385L9.139,26.547L9.133,26.603L9.014,26.440ZM55.890,74.697L55.941,74.795L55.987,74.980L55.892,75.089L55.729,75.093L55.619,74.975L55.542,74.782L55.526,74.669L55.588,74.652L55.666,74.678L55.746,74.738L55.733,74.649L55.661,74.406L55.704,74.378L55.767,74.473L55.890,74.697ZM55.576,74.216L55.528,74.233L55.478,74.197L55.499,73.825L55.555,73.851L55.591,74.092L55.576,74.216ZM54.713,72.268L54.763,72.352L54.831,72.532L54.794,72.612L54.693,72.488L54.601,72.271L54.555,72.064L54.609,72.025L54.687,72.177L54.713,72.268ZM83.540,68.966L83.700,68.847L83.860,68.955L83.679,69.310L83.444,69.354L83.540,68.966ZM63.947,51.057L63.986,51.122L63.989,51.279L63.925,51.463L63.837,51.514L63.755,51.285L63.838,51.078L63.947,51.057ZM27.672,43.869L28.059,43.823L28.150,43.830L28.095,43.936L27.943,44.146L27.697,44.262L27.482,44.150L27.483,43.951L27.672,43.869ZM42.061,41.112L42.078,41.211L42.084,41.392L42.001,41.461L41.864,41.401L41.789,41.215L41.824,40.961L41.925,40.906L42.020,41.037L42.061,41.112ZM27.739,28.614L27.537,28.615L27.420,28.602L27.179,28.597L27.190,28.570L27.267,28.505L27.367,28.459L27.447,28.452L27.598,28.465L27.805,28.451L27.960,28.356L28.061,28.225L28.098,28.232L28.028,28.394L27.898,28.545L27.739,28.614ZM9.525,23.340L9.577,23.497L9.614,23.798L9.579,23.918L9.551,23.855L9.465,23.897L9.303,23.948L9.280,23.817L9.372,23.600L9.321,23.529L9.144,23.696L9.049,23.818L8.979,23.928L8.949,24.117L9.088,24.231L9.287,24.313L9.420,24.429L9.370,24.505L9.011,24.448L8.860,24.444L8.812,24.381L8.852,24.172L8.950,23.897L9.127,23.592L9.380,23.381L9.525,23.340ZM35.885,13.223L35.973,13.286L35.993,13.339L35.986,13.353L35.962,13.342L35.914,13.336L35.902,13.358L35.932,13.382L35.935,13.393L35.908,13.399L35.895,13.569L35.928,13.735L35.854,13.795L35.802,13.801L35.750,13.803L35.635,13.744L35.581,13.585L35.516,13.478L35.439,13.405L35.459,13.345L35.516,13.352L35.579,13.308L35.654,13.232L35.760,13.200L35.885,13.223ZM27.874,11.464L27.945,11.396L28.089,11.281L28.127,11.324L28.008,11.465L27.963,11.549L27.962,11.612L27.900,11.715L27.851,11.867L27.768,11.991L27.683,11.995L27.655,11.954L27.624,11.899L27.444,11.682L27.384,11.561L27.358,11.438L27.428,11.381L27.825,11.306L27.884,11.375L27.761,11.524L27.734,11.567L27.831,11.506L27.874,11.464ZM42.116,26.553L42.270,26.586L42.435,26.643L42.383,26.722L42.239,26.710L41.889,26.688L41.971,26.598L42.116,26.553ZM41.343,26.834L41.487,26.823L41.601,26.868L41.580,26.947L41.343,27.048L41.086,27.048L40.921,27.172L40.777,27.195L40.767,27.082L40.973,26.947L41.137,26.913L41.343,26.834Z" fill="currentColor" stroke="currentColor" stroke-width="1" stroke-linejoin="round"/>
</svg>