<svg xmlns="http://www.w3.org/2000/svg" viewBox="0 0 100 100" role="img" aria-label="Bosnia and Herzegovina">
  <title>Bosnia and Herzegovina</title>
  <path d="M49.674,83.006L49.662,82.998L47.441,81.603L47.844,81.618L48.469,81.908L48.857,82.018L48.514,81.673L47.998,81.368L49.240,81.102L49.890,80.612L49.812,79.725L49.809,79.724L49.807,79.718L49.805,79.717L49.099,78.023L48.398,77.180L48.153,76.885L45.006,74.771L44.802,74.634L44.449,74.209L44.182,73.592L43.989,72.937L43.837,72.597L43.594,72.371L43.126,72.069L42.187,71.179L41.294,69.800L40.779,68.202L41.213,65.511L40.846,64.684L40.131,64.198L37.900,63.848L36.558,63.083L36.045,62.618L35.311,61.954L34.191,60.635L30.545,56.869L27.980,54.814L27.649,54.283L27.454,53.603L27.370,53.065L27.196,52.599L26.245,51.712L25.494,50.666L24.365,49.500L23.711,48.528L23.459,48.154L23.102,47.732L22.696,47.417L21.686,47.050L21.498,46.673L21.393,46.201L21.095,45.712L20.864,45.617L20.263,45.662L20.015,45.637L19.789,45.508L19.529,45.306L19.086,44.861L18.747,44.297L18.235,43.045L17.901,42.461L16.900,41.384L16.523,40.834L16.092,39.458L15.873,38.457L15.851,37.971L15.918,37.621L16.152,37.104L16.233,36.836L16.295,36.300L16.290,36.276L16.226,35.980L15.978,35.735L15.499,35.426L15.079,35.318L14.822,35.309L14.736,35.409L14.748,35.160L14.900,35.026L15.096,34.898L15.234,34.670L15.229,34.177L15.074,33.570L14.507,31.993L14.386,31.366L14.233,30.803L13.966,30.454L13.478,30.373L12.639,30.744L12.162,30.684L11.688,30.178L11.869,29.665L12.250,29.179L12.353,28.757L12.543,28.659L12.579,28.630L12.496,28.199L12.381,27.799L12.200,27.498L11.916,27.362L11.354,27.283L11.066,27.189L10.832,27.033L10.525,26.586L10.351,25.789L10.103,25.441L9.929,25.425L9.738,25.532L9.543,25.584L9.366,25.403L9.288,25.125L9.226,24.793L9.140,24.493L8.983,24.311L8.694,24.293L8.532,24.493L8.408,24.768L8.237,24.973L8.039,25.039L7.626,25.071L7.405,25.144L7.066,25.195L6.866,24.983L6.716,24.659L6.540,24.364L5.996,23.994L5.868,23.830L5.286,22.875L5.029,22.319L5.000,21.783L5.336,21.342L5.810,21.196L6.213,21.011L6.323,20.445L6.106,19.836L5.736,19.260L5.419,18.617L5.341,17.813L5.416,17.582L5.524,17.249L6.096,16.266L6.185,15.700L5.910,14.729L5.920,14.132L6.461,12.750L6.561,12.252L6.475,10.351L6.497,10.105L6.759,9.407L6.995,9.193L7.507,8.728L8.754,8.528L10.961,8.588L11.490,8.487L11.742,8.498L12.019,8.634L12.222,8.918L12.210,9.200L12.124,9.435L12.110,9.582L12.310,9.729L12.815,9.835L13.103,10.053L13.456,10.629L13.947,11.880L14.350,12.404L16.459,14.476L17.110,14.876L17.989,15.253L18.840,15.444L19.403,15.293L19.527,14.842L19.779,13.926L20.249,13.063L20.356,12.803L20.404,12.428L20.356,12.219L20.351,12.039L20.523,11.743L20.737,11.595L21.343,11.408L21.590,11.230L21.905,10.742L22.661,9.096L23.745,8.368L25.084,8.412L29.680,9.757L30.266,9.681L30.554,9.430L30.590,9.196L30.573,8.918L30.704,8.536L30.936,8.311L31.193,8.202L31.419,8.048L31.548,7.691L31.734,7.577L31.975,7.312L32.163,7.046L32.232,6.898L32.864,6.374L33.054,6.558L33.240,7.231L33.274,7.484L33.259,7.760L33.393,7.937L33.869,7.886L33.808,7.664L33.712,7.449L34.053,7.570L34.334,7.911L34.577,8.075L34.799,7.666L34.885,7.913L34.921,8.101L34.897,8.296L34.799,8.563L34.940,8.447L35.304,8.217L35.445,8.105L35.893,9.066L36.877,9.795L37.482,10.071L38.922,10.727L39.170,10.586L40.269,10.508L40.367,10.364L40.810,9.415L41.706,9.996L42.137,10.171L42.895,10.659L43.107,10.838L43.427,11.013L43.851,10.968L44.618,10.727L44.666,10.619L44.726,10.421L44.831,10.295L45.012,10.409L45.145,10.623L45.171,10.805L45.100,10.982L44.933,11.183L45.224,11.281L45.500,11.233L46.051,10.947L45.839,11.614L45.720,11.820L45.891,11.761L47.049,11.610L47.555,11.662L47.807,11.628L48.284,11.334L49.135,10.446L49.633,10.189L50.398,10.234L51.084,10.616L51.704,11.217L52.998,12.859L53.415,13.237L53.880,13.420L54.109,13.394L54.791,13.114L55.422,12.993L55.620,12.887L56.001,12.537L57.403,10.879L57.748,10.702L58.108,10.699L58.475,10.894L59.750,12.026L60.260,12.262L60.708,12.350L60.982,12.355L61.211,12.360L61.702,12.257L62.107,12.009L62.265,11.673L62.281,11.269L62.334,10.871L62.586,10.560L63.154,10.442L63.709,10.659L64.758,11.400L65.101,11.549L66.729,11.685L67.170,11.883L67.568,12.211L68.087,12.763L68.416,13.112L68.776,13.341L68.986,13.473L69.591,13.695L70.146,13.713L70.104,13.263L69.992,12.873L70.001,12.653L70.003,12.588L70.342,12.449L70.528,12.461L70.900,12.552L71.085,12.558L71.240,12.499L71.562,12.305L71.715,12.279L71.889,12.356L71.991,12.502L72.148,12.921L72.280,13.179L72.439,13.390L72.627,13.476L72.844,13.361L72.916,13.207L72.964,13.013L73.028,12.826L73.149,12.702L73.307,12.686L73.443,12.768L73.557,12.914L74.417,14.646L74.694,14.974L74.966,15.091L75.609,15.152L75.769,15.212L75.862,15.300L75.926,15.434L75.993,15.629L76.005,15.697L76.005,15.867L76.019,15.961L76.069,16.052L76.186,16.210L76.222,16.320L76.152,16.636L75.652,17.012L75.485,17.325L75.733,18.245L76.527,19.083L77.088,19.445L77.470,19.692L78.183,19.927L80.150,19.877L80.843,19.859L81.093,19.785L81.830,19.558L82.306,19.490L82.678,19.358L84.747,17.871L85.038,17.803L85.183,17.995L85.269,18.263L85.383,18.417L85.614,18.417L86.022,18.245L86.251,18.200L87.273,18.417L87.485,18.384L87.676,18.289L87.881,18.289L88.343,18.726L88.572,18.805L88.806,18.781L88.868,18.746L88.872,18.716L88.960,18.817L89.094,18.969L89.230,19.097L89.325,19.279L89.392,19.545L89.413,19.869L89.332,19.957L89.211,19.988L89.116,20.137L88.300,24.000L88.062,24.593L87.840,24.924L87.376,25.311L87.130,25.572L86.956,25.868L86.625,26.828L85.540,28.661L85.436,28.765L85.185,28.911L85.071,29.056L85.023,29.271L85.047,29.784L85.002,30.011L84.871,30.266L84.721,30.484L84.539,30.636L83.724,30.904L83.665,31.409L84.034,32.829L83.989,33.705L83.717,34.175L83.398,34.577L83.200,35.246L83.241,35.856L83.419,36.495L83.932,37.595L84.349,38.100L84.814,38.311L85.803,38.526L86.279,38.768L86.482,38.831L86.808,38.849L87.552,38.669L87.817,38.720L88.207,39.048L88.605,39.628L88.891,40.317L88.939,40.967L89.085,41.377L89.518,41.829L90.526,42.575L90.772,42.821L90.934,42.914L91.070,42.874L91.330,42.610L91.468,42.606L91.663,42.859L91.713,43.432L91.859,43.635L92.216,43.970L92.632,44.579L92.767,44.777L93.518,45.217L93.894,45.677L94.109,45.849L94.192,45.760L94.333,45.568L94.540,45.495L94.828,45.753L95.000,46.355L94.805,46.881L94.411,47.320L93.463,48.030L92.917,48.228L92.352,48.278L91.039,48.145L89.814,48.233L89.471,48.336L89.137,48.354L88.839,48.167L88.243,47.608L87.659,47.194L87.354,47.082L87.018,47.101L86.541,47.259L86.344,47.434L86.217,47.738L86.220,47.967L86.329,48.369L86.279,48.595L86.017,48.853L86.286,49.024L87.080,49.635L87.783,50.548L89.018,52.550L91.375,55.114L91.837,56.168L92.390,57.947L92.428,58.794L91.837,59.379L91.740,59.761L91.697,60.223L91.725,60.667L91.837,61.005L92.004,61.163L92.068,61.310L92.018,61.443L91.837,61.559L90.965,61.206L90.686,61.229L90.398,61.929L90.200,62.202L90.019,61.917L89.828,61.378L89.502,60.766L89.108,60.254L88.720,60.022L88.472,60.096L87.938,60.524L87.666,60.679L87.397,60.691L86.808,60.594L86.556,60.669L86.236,61.197L86.020,61.914L85.743,62.456L85.233,62.456L84.134,62.285L83.560,62.355L82.943,63.093L82.490,63.274L81.996,63.292L81.608,63.154L81.305,62.769L81.057,62.297L80.733,61.973L80.209,62.026L79.868,62.280L79.320,62.900L78.896,63.116L78.676,63.274L78.541,63.537L78.553,63.806L78.774,63.974L79.129,64.074L79.296,64.180L79.604,64.665L79.592,64.873L79.492,65.137L79.489,65.301L79.997,65.168L80.159,65.290L80.957,66.356L81.641,68.286L82.335,69.627L82.170,69.769L81.565,69.803L81.298,69.950L81.248,70.020L81.124,70.193L80.979,70.475L80.795,70.743L80.555,70.963L80.486,70.805L80.473,70.776L80.004,70.159L79.794,69.799L79.739,69.531L79.758,69.302L79.744,69.082L79.582,68.851L78.962,68.410L78.402,68.248L77.030,68.378L76.605,68.584L76.684,68.712L76.815,69.008L76.889,69.136L76.281,69.332L73.338,71.527L72.987,72.049L73.543,72.328L72.549,73.745L72.175,74.555L71.991,75.526L71.979,75.590L71.991,76.426L72.403,78.866L71.467,78.731L70.096,78.749L68.807,79.045L68.109,79.725L67.665,80.980L67.677,81.535L67.906,82.176L68.452,83.301L68.583,83.914L68.414,84.226L68.125,84.455L67.899,84.814L67.920,85.370L68.135,86.136L68.447,86.903L69.248,88.240L69.717,88.738L70.113,89.264L70.351,90.141L70.342,91.074L70.186,91.474L70.084,91.734L69.596,92.225L69.355,92.369L68.890,92.646L69.052,92.966L69.103,93.253L69.017,93.448L68.778,93.483L68.519,93.311L68.252,93.289L67.992,93.402L67.754,93.626L67.377,93.485L66.552,93.392L66.212,93.164L66.195,93.140L65.730,92.439L65.477,92.240L64.853,92.281L63.597,91.843L62.837,91.422L58.806,88.646L57.560,87.824L57.019,87.359L56.027,86.212L55.465,85.772L54.657,85.539L54.404,85.374L53.682,84.216L53.635,83.851L53.661,83.079L53.594,82.768L53.327,82.400L53.117,82.407L52.934,82.569L52.750,82.671L52.259,82.583L51.294,82.195L50.787,82.091L50.276,82.214L49.964,82.550L49.674,83.006Z" fill="currentColor" stroke="currentColor" stroke-width="1.5" stroke-linejoin="round"/>
</svg>