<svg xmlns="http://www.w3.org/2000/svg" viewBox="0 0 100 100" role="img" aria-label="Belarus">
  <title>Belarus</title>
  <path d="M9.150,84.663L9.114,84.450L8.985,84.369L8.835,84.309L8.718,84.060L8.782,84.066L8.847,84.060L8.640,83.686L8.559,83.464L8.525,83.236L8.575,82.806L8.562,82.652L8.455,82.529L8.455,82.410L8.540,82.398L8.597,82.361L8.718,82.204L8.671,82.135L8.614,82.025L8.584,81.922L8.621,81.878L8.708,81.834L8.686,81.735L8.623,81.624L8.589,81.541L8.642,81.175L8.680,81.004L8.718,80.890L8.878,80.697L9.076,80.570L9.257,80.381L9.362,80.011L9.188,79.766L9.040,79.478L9.146,79.346L9.185,79.001L9.298,78.935L9.293,78.861L9.286,78.842L9.269,78.842L9.232,78.826L9.294,78.646L9.300,78.131L9.362,77.838L9.540,77.397L9.664,77.193L9.812,77.078L9.704,76.807L9.570,76.206L9.492,76.007L9.483,75.824L9.445,75.640L9.330,75.557L9.241,75.516L9.185,75.415L9.137,75.286L9.075,75.162L8.897,75.050L8.450,75.065L8.267,75.004L8.006,74.461L8.044,74.405L8.070,74.214L8.034,74.095L7.876,74.254L7.814,74.178L7.720,74.097L7.683,74.026L7.554,74.189L7.464,74.172L7.379,74.081L7.262,74.026L7.126,74.081L7.099,74.054L7.168,73.908L7.168,73.809L6.971,73.787L6.385,73.559L6.262,73.429L6.117,73.488L5.439,73.298L5.227,73.157L5.302,72.874L5.272,72.665L5.168,72.509L5.098,72.448L5.029,72.387L5.000,72.380L5.437,71.455L5.610,71.176L5.988,70.698L7.135,68.876L7.966,68.163L8.800,67.662L10.374,67.201L11.625,66.324L12.000,65.849L12.130,65.169L12.110,64.691L12.031,62.763L12.007,62.641L11.969,62.561L11.937,62.465L11.928,62.295L11.954,62.169L12.059,61.955L12.087,61.856L12.083,61.729L12.003,61.286L12.002,61.184L12.025,60.993L12.009,60.871L11.901,60.635L11.616,60.262L11.535,59.992L11.548,59.682L11.638,59.463L11.752,59.271L11.837,59.042L11.858,58.656L11.759,58.464L11.597,58.337L11.429,58.149L11.317,57.903L11.244,57.671L11.151,57.447L10.982,57.216L10.815,56.763L10.439,55.259L10.250,54.755L9.806,53.823L9.006,51.348L8.782,50.238L8.760,49.261L8.759,49.261L8.530,48.924L8.431,48.597L8.344,47.751L8.248,47.351L8.123,46.984L8.026,46.595L8.014,46.129L8.339,46.214L9.186,46.725L9.347,46.782L9.493,46.770L9.958,46.571L10.547,46.487L10.710,46.367L10.855,46.310L10.921,46.323L11.090,46.422L11.170,46.447L11.243,46.435L11.962,46.021L12.104,45.994L12.251,46.055L12.529,46.233L12.684,46.270L13.287,46.263L13.566,46.186L14.148,45.872L14.458,45.816L14.755,45.919L15.018,46.239L15.181,46.696L15.281,46.849L15.463,46.884L15.782,46.870L16.081,46.960L16.419,46.963L16.760,46.791L17.840,45.825L18.315,45.551L18.917,45.433L19.142,45.261L19.177,45.254L19.212,45.263L19.246,45.285L19.368,45.595L19.507,45.733L19.679,45.745L20.290,45.645L20.456,45.556L20.576,45.285L20.577,45.284L20.578,45.282L20.579,45.281L20.597,44.846L20.514,44.544L20.387,44.271L20.275,43.928L20.231,43.685L20.248,43.632L20.307,43.626L20.391,43.521L20.567,43.411L20.572,43.350L20.560,43.244L20.561,43.123L20.599,43.023L20.876,42.857L20.923,42.828L21.360,42.780L21.793,42.842L22.536,43.129L22.958,43.060L23.369,42.796L23.755,42.367L23.910,42.035L24.103,41.286L24.223,41.077L24.391,41.049L24.989,41.261L25.763,41.219L25.992,41.071L26.370,40.520L26.607,40.407L26.727,40.435L26.789,40.496L26.835,40.586L27.499,41.483L27.419,41.543L27.199,41.525L27.006,41.635L26.984,41.793L27.210,41.913L27.263,42.050L27.195,42.168L26.926,42.260L26.856,42.372L26.927,42.657L27.141,42.860L27.395,42.984L28.230,43.121L28.436,43.115L28.535,43.057L28.684,42.851L28.786,42.805L29.139,42.852L29.251,42.836L29.468,42.674L29.543,42.424L29.552,41.696L29.581,41.623L29.692,41.475L29.715,41.404L29.690,41.307L29.644,41.274L29.593,41.255L29.555,41.202L29.493,41.026L29.419,40.883L29.335,40.766L29.244,40.667L29.202,40.657L29.093,40.692L29.055,40.683L29.019,40.625L28.919,40.342L28.891,40.187L28.836,40.056L28.708,39.982L28.567,40.019L28.002,40.313L27.593,40.340L27.389,40.262L27.260,40.056L27.273,39.656L27.450,39.312L27.882,38.797L28.051,38.452L28.086,38.145L28.079,37.814L28.120,37.397L28.223,37.075L28.367,36.883L28.943,36.547L29.124,36.365L29.255,36.118L29.304,35.801L29.250,35.494L29.017,34.929L28.953,34.614L28.964,34.413L29.005,34.255L29.054,34.109L29.091,33.940L29.106,33.776L29.074,32.964L29.103,32.751L29.203,32.608L29.409,32.428L29.501,32.382L29.566,32.381L29.613,32.350L29.655,32.216L29.649,32.085L29.569,31.767L29.555,31.625L29.653,31.326L29.840,31.136L30.059,30.971L30.256,30.744L30.316,30.582L30.333,30.438L30.367,30.319L30.478,30.226L30.832,30.078L31.005,30.083L31.347,30.161L31.523,30.164L32.667,29.936L33.006,29.746L33.148,29.594L33.305,29.359L33.470,29.113L33.816,28.379L33.861,28.243L33.879,28.052L33.870,27.657L33.895,27.476L34.191,27.023L34.616,26.951L35.659,27.214L35.739,27.212L35.832,27.183L35.890,27.121L35.946,27.027L36.026,26.949L36.160,26.934L37.154,27.366L37.361,27.330L37.506,27.098L37.612,26.636L37.672,26.194L37.740,26.025L37.889,25.826L38.160,25.567L38.305,25.484L38.670,25.389L38.912,25.327L39.139,25.160L39.243,24.904L39.157,24.635L38.941,24.475L37.378,24.210L36.809,24.358L36.650,24.350L36.088,24.147L35.940,24.048L35.897,23.882L35.989,23.586L36.213,23.184L36.279,23.034L36.403,22.441L36.484,22.265L36.818,21.939L36.848,21.754L36.671,21.421L36.713,21.038L36.897,20.748L37.128,20.492L37.311,20.214L37.401,19.863L37.425,19.444L37.389,19.017L37.301,18.640L37.500,18.306L37.730,18.185L37.982,18.211L38.484,18.403L38.700,18.387L39.452,18.018L39.640,17.807L40.180,16.862L40.723,16.228L40.927,16.105L40.942,16.096L42.164,15.946L42.547,16.007L42.752,16.114L43.339,16.590L43.598,16.727L43.781,16.653L44.221,16.244L44.414,16.027L44.649,16.288L44.944,16.454L45.254,16.544L46.439,16.647L46.704,16.615L46.787,16.371L46.868,16.031L46.934,15.274L47.197,14.569L48.133,13.982L48.440,13.462L48.480,13.081L48.775,12.792L49.417,12.325L49.530,12.115L49.613,11.920L49.707,11.747L49.854,11.601L49.972,11.543L50.362,11.464L50.765,11.279L51.022,11.103L51.184,10.993L51.586,10.847L51.944,11.076L52.134,11.349L52.787,12.027L53.078,12.415L53.271,12.600L53.470,12.662L53.682,12.542L53.994,12.083L54.213,11.932L55.607,11.787L56.143,11.872L56.301,11.934L56.388,12.021L56.542,12.296L56.871,12.744L56.952,12.906L57.041,13.280L57.093,13.657L57.195,13.980L57.436,14.188L58.162,14.383L58.368,14.333L58.388,13.962L58.640,13.716L59.228,13.467L59.229,13.466L59.231,13.465L59.781,13.126L60.251,12.957L60.796,12.972L61.331,13.150L61.778,13.467L62.072,13.689L63.516,14.073L63.688,14.173L63.852,14.328L64.027,14.548L64.116,14.695L64.148,14.822L64.111,14.924L64.047,14.940L63.970,14.933L63.893,14.964L63.803,15.030L63.726,15.062L63.654,15.118L63.580,15.252L63.548,15.390L63.500,15.779L63.465,15.945L63.241,16.478L63.198,16.731L63.265,17.064L63.384,17.296L63.852,17.673L64.304,18.317L64.491,18.415L64.748,18.346L65.475,17.510L66.406,16.991L66.657,16.941L67.308,17.100L67.551,16.978L67.919,16.324L68.152,16.038L68.513,15.836L68.889,15.757L69.270,15.779L70.382,16.175L70.628,16.096L71.051,15.706L71.268,15.601L71.433,15.646L71.751,15.925L71.932,16.036L73.798,16.627L73.879,16.719L73.882,16.856L73.826,16.986L73.802,17.118L73.910,17.256L74.747,17.645L74.846,17.721L74.915,17.823L74.954,18.024L74.924,18.169L74.880,18.297L74.880,18.447L74.999,18.667L75.190,18.792L75.402,18.839L75.787,18.809L75.916,18.876L76.007,19.032L76.098,19.281L76.373,19.795L76.642,19.840L76.956,19.669L77.366,19.530L77.729,19.698L77.927,20.059L77.980,20.158L78.046,20.748L77.854,21.310L77.995,21.403L78.043,21.419L77.984,21.620L77.739,21.805L77.683,22.069L77.757,22.356L77.909,22.556L78.035,22.767L78.032,23.082L77.916,23.270L77.347,23.665L77.023,24.112L76.891,24.411L76.864,24.709L76.956,24.909L77.119,25.046L77.453,25.219L77.575,25.409L77.733,25.998L77.866,26.195L78.305,26.526L78.423,26.666L78.436,26.730L78.395,26.874L78.414,26.954L78.446,26.979L78.542,27.011L78.566,27.032L78.608,27.116L78.651,27.170L78.665,27.250L78.619,27.417L78.544,27.525L78.522,27.638L78.548,27.757L78.619,27.879L78.747,28.186L78.862,28.577L78.855,28.886L78.619,28.955L78.175,28.844L77.984,28.861L77.922,29.052L78.019,29.315L78.156,29.488L78.199,29.678L78.023,29.985L77.855,30.106L77.281,30.220L77.057,30.398L77.082,30.563L77.176,30.803L77.163,31.202L77.018,31.456L76.803,31.675L76.617,31.958L76.566,32.403L76.641,32.657L76.786,32.763L77.175,32.895L78.619,33.935L78.759,34.187L78.792,34.481L78.999,34.444L79.792,34.530L80.013,34.974L80.384,35.273L80.115,35.889L79.645,36.636L79.411,37.330L79.683,37.535L80.383,37.732L80.488,37.950L80.490,37.954L80.771,38.034L80.925,38.352L81.145,39.168L81.267,39.364L81.384,39.489L81.484,39.636L81.552,39.892L81.620,40.826L81.720,41.275L81.860,41.515L83.329,42.671L83.572,42.873L83.803,42.976L84.295,43.102L85.084,43.542L85.375,43.605L85.639,43.612L85.742,43.665L85.849,43.790L85.921,43.971L85.985,44.203L86.067,44.391L86.183,44.434L86.418,44.272L86.468,44.255L86.551,44.313L86.563,44.365L86.560,44.439L86.776,45.285L86.728,45.409L86.712,45.525L86.708,45.644L86.695,45.765L86.587,46.115L86.433,47.031L86.268,47.431L85.903,48.033L85.816,48.427L86.218,48.434L87.027,48.709L89.009,48.192L89.221,48.235L89.775,48.637L90.958,48.968L91.291,49.213L91.588,49.622L91.724,49.707L92.193,49.685L92.387,49.714L92.570,49.828L92.749,50.062L92.817,50.180L92.840,50.300L92.817,50.419L92.749,50.534L92.048,50.900L91.981,50.964L91.971,51.091L92.000,51.370L92.098,51.808L92.267,52.138L92.489,52.380L92.749,52.551L93.222,52.777L93.443,52.947L93.590,53.236L93.590,53.239L93.655,53.340L93.726,53.369L93.803,53.334L93.879,53.239L94.045,53.210L94.210,53.235L94.348,53.315L94.322,53.447L94.266,53.612L94.315,53.787L94.423,53.824L94.708,53.719L94.828,53.721L95.000,54.081L94.984,54.215L94.858,55.244L94.981,55.745L94.797,55.888L94.645,55.874L94.502,55.802L94.344,55.765L93.685,55.913L93.718,55.963L93.798,56.112L93.836,56.169L93.583,56.319L93.284,56.379L92.985,56.345L92.749,56.218L92.507,56.293L92.435,56.479L92.517,56.654L92.735,56.700L92.642,57.009L92.514,57.308L92.213,57.821L92.042,58.008L91.887,58.088L91.546,58.203L91.239,58.484L91.002,58.832L90.746,59.088L90.254,59.077L90.205,59.136L90.191,59.223L90.169,59.285L90.167,59.326L90.172,59.401L90.162,59.477L90.116,59.521L90.081,59.519L89.999,59.495L89.657,59.541L89.414,59.734L89.327,59.783L89.002,59.770L88.315,59.483L88.039,59.514L87.795,59.642L87.569,59.668L87.347,59.611L86.861,59.320L86.739,59.289L86.402,59.323L86.303,59.285L86.154,59.039L86.053,58.381L85.926,58.105L85.759,58.010L85.344,58.004L85.160,57.967L84.586,57.736L84.393,57.722L84.206,57.779L83.850,57.973L83.625,57.986L83.173,57.892L82.724,57.892L82.367,58.177L82.192,58.944L82.204,59.144L82.208,59.164L82.239,59.328L82.259,59.500L82.228,59.661L82.138,59.767L81.905,59.811L81.809,59.858L81.338,60.621L81.129,60.845L81.841,61.438L81.996,61.741L82.252,62.529L82.456,62.856L82.740,63.138L83.050,63.345L83.329,63.445L83.560,63.478L83.632,63.603L83.655,63.804L83.737,64.070L83.873,64.258L83.988,64.340L84.085,64.462L84.167,64.773L84.173,65.445L83.963,65.756L83.329,66.126L83.434,66.370L83.852,66.953L84.133,67.595L84.256,67.791L84.597,68.097L84.724,68.264L84.683,68.423L84.555,68.456L84.212,68.372L84.070,68.384L84.111,68.439L84.227,68.636L84.060,68.711L83.988,68.840L84.011,68.993L84.129,69.146L84.340,69.306L84.354,69.697L84.297,70.170L84.292,70.576L84.363,70.750L84.459,70.884L84.530,71.058L84.535,71.345L84.480,71.560L84.381,71.756L84.262,71.917L84.146,72.030L84.427,72.461L84.582,72.641L84.750,72.772L84.912,72.832L85.240,72.892L85.390,72.983L85.291,73.115L85.225,73.318L85.203,73.550L85.230,73.771L85.297,73.936L85.384,74.034L85.858,74.376L85.985,74.600L86.023,74.915L86.002,75.384L84.924,75.443L83.275,75.110L82.410,75.115L81.669,75.433L81.479,75.692L81.334,76.010L81.180,76.276L80.959,76.376L80.732,76.285L80.301,75.901L80.072,75.765L79.709,75.718L78.418,75.796L78.184,75.875L78.037,76.043L78.092,76.312L78.046,76.391L78.018,76.470L77.997,76.546L77.966,76.625L78.241,76.665L78.332,76.877L78.248,77.083L78.003,77.102L77.938,77.011L77.886,76.985L77.830,77.011L77.753,77.074L77.679,77.173L77.662,77.270L77.668,77.352L77.665,77.404L77.568,77.541L77.464,77.658L77.347,77.758L77.213,77.845L76.946,77.953L76.941,78.010L76.967,78.109L77.017,78.175L77.017,78.283L76.890,78.468L76.806,78.566L76.724,78.609L76.444,78.581L76.368,78.609L76.332,78.709L76.326,78.858L76.301,78.993L76.107,79.101L76.047,79.206L76.002,79.311L75.950,79.359L75.924,79.414L75.719,79.696L75.658,79.810L75.617,79.857L75.620,79.918L75.689,80.070L75.698,80.317L75.531,80.498L75.320,80.644L75.205,80.782L75.392,80.881L75.468,80.890L75.468,81.009L75.364,81.126L75.335,81.312L75.321,81.509L75.269,81.661L75.164,81.711L74.872,81.721L74.754,81.759L74.807,81.974L74.697,82.310L74.754,82.529L74.690,82.596L74.613,82.716L74.562,82.757L74.589,82.818L74.625,82.973L74.505,83.028L74.234,83.290L74.234,83.408L74.417,83.574L74.498,83.626L74.498,83.724L74.424,83.746L74.384,83.773L74.353,83.805L74.304,83.843L74.304,83.942L74.413,84.092L74.727,84.188L74.883,84.267L74.811,84.445L74.764,84.519L74.684,84.593L74.799,84.684L74.896,84.790L74.937,84.908L74.883,85.038L74.929,85.229L75.008,85.349L75.105,85.420L75.205,85.462L75.205,85.582L75.079,85.557L74.973,85.594L74.902,85.706L74.883,85.907L74.919,86.096L74.992,86.134L75.090,86.140L75.205,86.233L75.246,86.338L75.339,86.786L75.387,86.871L75.453,86.965L75.463,87.049L75.339,87.102L75.394,87.551L75.132,87.843L74.844,88.064L74.819,88.297L74.651,88.610L74.625,88.642L74.613,89.021L74.606,89.037L74.569,89.127L74.465,89.153L74.393,89.003L74.287,88.879L74.168,88.795L74.041,88.760L73.910,88.776L73.762,88.727L73.552,88.392L73.414,88.253L73.277,88.216L72.996,88.219L72.852,88.159L72.727,88.038L72.439,87.645L72.368,87.476L72.395,87.460L72.474,87.128L72.490,87.002L72.491,86.838L72.481,86.712L72.454,86.606L72.398,86.498L72.277,86.378L71.801,86.132L71.668,85.983L71.316,85.473L71.052,85.266L70.781,85.187L69.463,85.225L69.247,85.292L68.676,85.610L68.558,85.617L68.407,85.509L68.310,85.500L68.191,85.589L68.032,85.897L67.937,86.007L67.767,86.054L66.912,85.902L66.794,85.728L66.711,85.486L66.555,85.199L66.392,85.080L66.186,85.049L65.969,85.085L65.783,85.168L65.588,85.354L65.455,85.563L65.314,85.741L65.096,85.836L64.850,85.866L64.723,85.935L64.629,86.123L64.491,86.511L64.354,86.769L64.166,86.771L63.755,86.592L63.538,86.665L63.289,86.896L63.169,87.007L62.975,87.079L62.759,86.949L62.642,86.662L62.562,86.315L62.456,86.007L62.263,85.769L62.107,85.646L62.043,85.465L62.132,85.053L62.095,84.637L61.985,84.376L61.670,83.874L61.472,83.296L61.355,83.100L61.128,82.950L60.749,82.852L60.557,82.862L60.372,82.932L60.184,83.125L59.961,83.629L59.781,83.835L59.533,83.933L58.952,83.939L58.677,84.002L58.378,84.172L58.076,84.421L57.812,84.760L57.627,85.199L57.601,85.467L57.621,86.073L57.575,86.308L57.406,86.511L57.307,86.346L57.240,86.050L57.172,85.853L57.052,85.840L56.927,85.925L56.792,85.990L56.636,85.910L56.544,85.741L56.484,85.518L56.336,84.628L56.313,84.304L56.230,84.088L55.986,83.983L55.141,83.794L54.886,83.800L54.642,83.888L54.173,84.223L53.929,84.473L53.809,84.540L53.686,84.488L53.632,84.361L53.531,83.922L53.470,83.755L53.353,83.619L53.082,83.440L52.969,83.321L52.890,83.141L52.881,82.997L52.886,82.862L52.850,82.702L52.711,82.535L52.519,82.522L52.308,82.630L52.107,82.822L51.923,83.120L51.617,83.737L51.390,83.952L51.208,84.023L50.288,84.020L50.115,83.973L49.938,83.874L49.369,83.221L49.167,83.105L48.951,83.143L48.775,83.317L48.652,83.584L48.593,83.905L48.598,84.107L48.622,84.279L48.630,84.453L48.587,84.665L48.537,84.766L48.097,85.395L47.999,85.494L47.849,85.517L47.715,85.456L47.562,85.329L47.435,85.181L47.396,85.096L47.377,85.053L47.689,84.253L47.763,83.852L47.646,83.520L47.497,83.431L46.967,83.414L45.948,82.981L45.947,82.981L45.617,82.972L45.442,83.070L45.180,83.374L44.974,83.481L44.779,83.496L44.220,83.397L43.846,83.524L43.640,83.548L43.514,83.422L43.567,83.153L43.706,82.811L43.735,82.535L43.456,82.463L43.227,82.494L43.038,82.471L42.901,82.334L42.826,82.022L42.830,81.596L42.855,81.257L42.796,81.009L42.544,80.854L42.156,80.764L41.324,80.731L40.375,81.081L39.753,80.972L37.972,80.144L35.898,80.077L35.766,80.004L35.650,79.834L35.628,79.679L35.657,79.534L35.655,79.421L35.542,79.361L33.352,79.264L33.070,79.135L32.461,78.565L32.177,78.499L31.523,78.520L29.514,78.122L28.719,78.289L27.437,78.266L25.596,78.234L24.007,77.784L23.580,77.797L23.153,77.943L22.306,78.409L19.660,78.856L19.464,78.847L18.887,78.701L16.541,78.893L16.342,78.972L16.137,79.194L15.794,79.728L15.649,80.037L15.425,81.075L15.160,81.468L14.092,82.238L12.684,83.571L12.307,83.636L12.039,83.371L11.775,83.032L11.402,82.874L11.167,82.851L10.502,82.641L10.281,82.635L9.365,82.887L9.249,82.954L9.152,83.060L9.039,83.270L9.029,83.397L9.083,83.524L9.339,84.289L9.362,84.443L9.319,84.687L9.237,84.731L9.150,84.663Z" fill="currentColor" stroke="currentColor" stroke-width="1.5" stroke-linejoin="round"/>
</svg>