<svg xmlns="http://www.w3.org/2000/svg" viewBox="0 0 100 100" role="img" aria-label="Belize">
  <title>Belize</title>
  <path d="M27.498,77.319L27.787,73.760L28.389,64.070L28.945,55.133L28.894,45.318L28.714,35.763L28.573,28.316L28.544,25.313L28.789,23.947L29.492,22.940L32.230,21.943L32.935,22.189L33.478,22.680L33.970,23.231L34.524,23.658L34.917,23.699L35.290,23.621L35.602,23.692L36.054,24.661L36.477,24.985L37.798,25.760L38.094,25.674L38.291,25.396L38.440,24.634L38.586,24.387L40.267,23.122L40.577,22.757L41.049,21.408L41.205,21.097L41.694,20.687L42.144,20.423L42.538,20.126L42.859,19.616L42.963,19.244L43.063,18.466L43.153,18.123L43.972,16.745L44.082,16.358L43.969,15.878L43.848,15.778L44.785,15.082L45.747,14.622L46.139,14.322L46.470,13.801L46.567,13.401L46.596,13.279L46.651,12.734L46.775,12.148L47.093,11.593L48.110,10.420L48.518,9.775L48.632,9.380L48.761,8.505L49.058,7.677L49.234,6.635L49.406,6.262L49.657,6.006L50.677,5.216L51.008,5.253L51.312,5.422L51.652,5.518L51.942,5.478L52.599,5.240L52.958,5.061L53.180,5.000L53.352,5.062L53.669,5.367L53.919,5.519L54.112,5.487L54.305,5.381L54.556,5.309L56.595,5.292L56.782,5.324L56.782,5.448L57.349,5.964L56.702,6.808L54.152,8.647L53.912,9.142L54.289,9.682L54.755,9.711L56.332,8.996L56.147,9.498L55.840,10.031L55.086,10.986L54.905,11.291L54.999,11.448L55.254,11.431L55.544,11.222L56.099,10.599L57.191,9.812L57.707,9.568L58.254,9.467L58.989,9.571L59.946,10.037L60.377,10.174L61.077,10.068L62.074,9.378L63.214,9.027L63.601,8.975L63.773,9.103L63.708,9.589L63.526,9.908L62.872,10.410L62.121,10.732L61.975,10.878L61.964,11.256L62.201,11.335L62.489,11.215L62.736,10.805L63.005,10.616L63.341,10.469L63.660,10.410L63.769,10.598L64.035,14.673L63.773,17.835L63.665,18.373L63.205,19.198L63.097,19.738L61.859,22.903L61.297,23.289L61.292,23.296L59.927,25.983L60.127,26.874L59.729,29.736L58.925,32.588L58.664,33.164L57.807,34.187L57.462,34.819L57.313,35.557L57.458,36.383L57.856,36.802L59.029,37.401L59.275,37.923L59.589,38.209L60.970,38.452L61.278,38.735L60.881,39.404L60.032,39.396L59.188,39.269L58.807,39.581L58.721,40.115L58.218,41.801L57.360,44.676L57.041,48.177L57.008,48.898L56.891,50.251L57.124,50.979L57.253,51.635L57.258,51.704L57.285,52.008L57.458,52.801L57.586,53.231L57.899,53.408L58.601,53.646L59.000,54.171L59.273,54.837L59.429,55.586L59.514,56.679L59.705,57.517L59.627,57.919L59.421,58.005L59.131,58.001L58.807,58.119L58.447,58.454L57.996,58.977L57.617,59.575L57.458,60.129L57.604,60.763L58.247,61.781L58.374,62.376L58.432,62.378L58.547,62.470L58.631,62.625L58.601,62.825L58.479,62.858L58.045,62.799L57.907,62.825L57.489,63.160L57.320,63.369L57.253,63.681L57.180,63.850L57.017,64.018L56.855,64.252L56.782,64.611L56.816,65.024L56.971,65.568L57.008,65.904L56.703,68.348L56.500,68.722L56.212,69.018L55.882,69.458L55.505,70.867L55.326,71.297L55.213,71.904L55.432,72.771L55.295,73.089L55.061,73.394L54.838,73.416L54.739,72.879L55.771,68.962L56.325,68.370L56.537,68.024L55.669,68.474L54.779,70.733L54.064,71.575L54.281,71.610L54.739,71.831L54.517,71.945L54.345,71.994L54.141,71.963L53.840,71.831L53.908,72.134L53.993,72.277L54.166,72.315L54.511,72.303L54.511,72.516L54.162,72.753L53.914,73.099L53.856,73.514L53.943,73.700L54.064,73.949L53.445,74.418L52.771,75.781L52.152,76.068L52.087,76.258L52.027,77.077L52.040,77.245L51.853,77.360L51.679,77.363L51.569,77.305L51.569,77.245L51.360,77.385L51.292,77.457L51.251,77.545L51.121,77.714L50.698,78.744L50.568,78.913L50.311,79.060L49.444,80.207L49.346,80.390L49.209,80.844L49.117,81.009L49.095,81.109L49.138,81.404L49.117,81.500L49.026,81.523L48.758,81.479L48.667,81.500L48.522,81.585L48.124,81.674L47.973,81.758L47.903,81.893L47.747,82.443L47.747,81.009L47.522,81.009L47.296,81.758L46.834,81.868L46.379,81.580L46.174,81.138L46.046,80.942L45.768,80.920L45.494,80.973L45.376,81.009L45.334,81.133L45.349,81.739L45.254,81.972L45.017,82.050L43.905,82.207L43.714,82.336L43.559,82.499L43.323,82.641L42.884,82.699L42.417,82.918L42.281,83.458L42.352,84.796L42.231,85.514L41.919,86.036L41.455,86.359L40.880,86.465L40.713,86.555L40.519,86.772L40.357,87.040L40.212,87.639L40.011,87.814L39.727,87.927L39.409,88.112L39.044,88.429L38.880,88.605L38.734,88.819L38.655,89.200L38.682,89.582L38.591,89.878L37.730,90.131L37.162,90.479L36.612,90.938L36.240,91.408L36.125,92.263L36.813,93.699L36.691,94.507L35.442,95.000L32.530,94.239L31.474,94.247L30.535,94.409L28.015,94.289L27.411,94.542L27.113,94.560L26.727,94.690L26.416,94.849L26.342,94.959L26.070,94.508L26.086,94.075L26.148,92.405L26.991,84.436L27.498,77.319ZM72.112,42.993L72.524,42.626L72.905,43.241L73.460,44.898L73.307,45.151L73.251,45.492L73.255,46.309L73.030,46.309L73.042,45.952L73.030,45.837L72.844,45.896L72.718,45.993L72.635,46.129L72.562,46.309L72.589,44.219L72.477,43.351L72.112,42.993ZM72.459,37.579L72.854,37.593L73.323,37.708L73.728,38.048L73.930,38.735L73.795,39.257L73.114,40.603L72.678,41.192L72.343,41.778L71.866,42.093L71.212,41.579L70.874,42.140L70.457,42.463L70.078,42.879L69.842,43.719L69.637,45.261L69.557,45.512L69.388,45.863L69.239,46.292L69.207,46.780L68.738,46.309L68.862,46.194L68.904,46.079L68.918,45.961L68.963,45.837L69.042,45.105L69.347,43.889L69.505,42.236L69.766,41.691L70.188,41.297L70.762,40.875L71.437,40.170L71.769,40.140L72.260,40.345L72.672,40.404L72.990,40.104L73.243,39.428L73.305,38.704L73.030,38.267L72.667,38.592L72.363,38.766L72.112,38.735L72.128,38.516L72.459,37.579ZM64.243,34.262L64.695,34.649L65.021,35.487L65.344,37.324L65.121,37.324L64.954,36.990L64.665,36.173L64.243,34.262ZM61.503,32.850L62.193,32.530L64.062,31.248L64.445,31.074L64.142,32.194L63.373,32.882L62.346,33.227L61.278,33.321L61.275,33.160L61.321,33.055L61.503,32.850ZM69.637,21.021L69.842,21.021L69.582,22.511L68.942,23.882L67.913,24.888L66.490,25.276L66.490,25.044L66.832,25.055L66.940,25.044L68.141,24.181L68.568,23.577L68.738,22.690L68.218,22.717L68.358,21.648L68.963,19.492L69.034,19.341L69.187,19.218L69.344,19.056L69.412,18.786L69.432,18.449L69.920,16.634L70.244,16.328L70.762,16.549L71.486,16.068L71.815,16.539L71.760,17.305L71.324,17.706L71.080,18.096L70.408,19.950L70.088,20.571L69.861,20.415L69.637,20.314L69.557,20.676L69.432,20.933L69.242,21.118L68.963,21.257L68.963,21.490L69.207,21.985L69.517,21.530L69.590,21.324L69.637,21.021ZM63.639,38.550L64.251,39.021L64.558,39.475L64.488,39.816L64.396,39.972L64.388,40.180L64.250,40.491L64.022,40.466L63.962,40.180L63.917,39.463L63.873,39.311L63.609,39.346L63.325,39.215L63.135,38.975L63.025,38.802L62.924,38.705L62.929,38.502L63.150,38.356L63.639,38.550ZM67.806,18.783L67.996,18.703L68.094,18.800L68.021,19.159L67.755,19.394L67.398,19.459L67.302,19.241L67.539,18.901L67.707,18.788L67.806,18.783ZM68.778,17.826L68.858,17.964L68.882,18.334L68.689,18.693L68.417,18.896L68.301,18.873L68.259,18.696L68.206,18.560L68.261,18.441L68.430,18.345L68.604,18.197L68.663,18.004L68.725,17.877L68.778,17.826ZM70.791,14.738L70.912,14.798L70.932,14.937L70.912,15.114L70.795,15.459L70.481,15.863L70.293,15.699L70.384,15.110L70.514,14.903L70.617,14.985L70.634,14.915L70.579,14.765L70.593,14.706L70.707,14.730L70.791,14.738Z" fill="currentColor" stroke="currentColor" stroke-width="1.5" stroke-linejoin="round"/>
</svg>