<svg xmlns="http://www.w3.org/2000/svg" viewBox="0 0 100 100" role="img" aria-label="Bermuda">
  <title>Bermuda</title>
  <path d="M84.252,18.595L95.000,27.723L92.073,31.706L91.927,35.689L90.171,34.303L87.537,31.879L82.483,30.625L80.805,32.572L78.463,29.628L72.171,35.169L73.342,38.979L77.146,40.364L83.586,42.789L75.829,46.425L68.805,51.274L59.901,58.009L54.508,61.281L51.098,65.993L43.780,72.746L33.976,77.768L24.610,81.405L18.902,81.232L14.512,81.058L8.659,77.076L6.171,70.841L5.000,65.993L8.534,67.628L8.027,64.428L9.322,60.136L7.341,55.776L10.122,56.815L11.439,54.217L13.195,56.815L15.537,59.239L12.171,62.183L11.112,67.238L10.268,68.763L12.171,70.322L19.049,71.188L19.049,72.573L13.633,72.053L13.195,74.998L15.683,78.461L19.781,78.461L25.049,76.210L26.512,73.093L30.025,72.746L36.317,68.937L44.676,63.772L45.390,62.183L39.536,62.876L35.439,61.144L32.196,56.429L33.379,54.829L44.967,56.682L51.881,53.319L55.891,52.119L60.024,47.464L61.634,47.983L68.220,47.637L69.976,45.040L73.195,42.096L70.268,39.152L65.924,40.877L62.805,43.135L62.110,45.829L60.317,45.386L59.497,43.430L61.488,38.633L66.913,34.745L70.268,29.455L76.263,25.358L84.252,18.595ZM31.634,63.222L32.951,62.703L34.561,64.261L37.488,65.647L36.463,66.685L33.244,66.166L29.732,66.685L26.219,66.339L25.195,63.915L26.366,63.049L29.585,63.915L31.634,63.222Z" fill="currentColor" stroke="currentColor" stroke-width="1" stroke-linejoin="round"/>
</svg>