<svg xmlns="http://www.w3.org/2000/svg" viewBox="0 0 100 100" role="img" aria-label="Bolivia">
  <title>Bolivia</title>
  <path d="M11.151,58.294L11.151,58.286L11.162,57.800L11.142,57.559L11.069,57.358L10.974,57.235L10.844,57.102L10.581,56.891L10.478,56.854L10.142,56.809L10.128,56.808L10.240,56.634L10.342,56.256L10.414,56.108L10.443,56.099L10.556,56.081L10.595,56.068L10.949,55.745L11.151,55.608L11.329,55.537L11.516,55.502L11.691,55.436L11.831,55.273L11.862,55.166L11.831,55.123L11.783,55.102L11.762,55.062L11.781,54.996L11.823,54.951L12.103,54.784L12.181,54.693L12.354,54.315L13.018,53.607L13.108,53.463L13.232,53.095L13.293,52.997L13.397,52.932L13.631,52.909L13.752,52.880L14.133,52.681L14.242,52.599L14.350,52.458L14.430,52.354L14.255,52.107L14.222,51.994L14.239,51.782L14.230,51.384L14.244,51.246L14.302,51.128L14.473,50.914L14.691,50.802L15.427,50.508L15.573,50.275L15.506,50.092L15.356,49.989L15.016,49.851L14.749,49.556L14.602,49.465L14.418,49.527L14.205,49.460L14.135,49.454L14.063,49.479L13.936,49.578L13.862,49.610L13.695,49.610L13.539,49.557L13.398,49.468L13.276,49.363L13.049,49.075L12.902,48.704L12.625,48.002L12.346,47.300L12.069,46.598L11.790,45.896L11.711,45.695L11.674,45.491L11.732,45.287L12.155,44.640L12.190,44.507L12.207,44.371L12.240,44.237L12.325,44.115L12.391,44.078L12.570,44.017L12.616,43.987L12.619,43.928L12.544,43.725L12.582,43.615L12.686,43.475L12.812,43.360L13.030,43.284L13.118,43.021L13.245,43.013L13.399,43.023L13.501,42.939L13.517,42.815L13.362,42.661L13.200,42.429L13.095,42.324L12.705,42.031L12.598,41.920L12.222,41.338L12.113,41.235L11.973,41.102L11.931,40.984L11.960,40.857L12.067,40.602L12.081,40.549L12.053,39.991L12.063,39.875L12.122,39.782L12.269,39.692L12.632,39.590L12.735,39.528L12.826,39.332L12.867,38.459L12.951,38.327L13.080,38.314L13.228,38.345L13.371,38.350L13.409,38.274L13.390,37.960L13.411,37.842L13.451,37.811L13.562,37.782L13.609,37.758L13.866,37.457L13.993,37.362L14.418,37.121L14.548,36.998L14.520,36.861L14.430,36.725L14.379,36.604L14.372,36.340L14.382,36.209L14.418,36.091L14.583,35.972L14.803,35.915L15.245,35.857L15.371,35.719L15.341,35.480L15.179,35.024L15.138,34.790L15.100,34.684L15.032,34.587L14.683,34.352L14.596,34.228L14.556,34.009L14.555,33.761L14.530,33.530L14.418,33.357L14.334,33.096L14.326,33.004L14.348,32.894L14.380,32.814L14.380,32.736L14.308,32.634L13.955,32.343L13.821,32.147L13.912,31.992L13.997,31.984L14.197,32.020L14.271,32.006L14.329,31.931L14.330,31.852L14.318,31.766L14.333,31.672L14.384,31.594L14.522,31.442L14.578,31.354L14.636,31.191L14.676,31.022L14.652,30.868L14.728,29.539L14.635,29.003L14.617,28.728L14.667,27.922L14.655,27.824L14.575,27.154L14.572,26.862L14.609,26.709L14.815,26.545L14.885,26.380L14.964,26.253L15.108,26.273L15.190,26.081L15.291,25.939L15.424,25.847L15.963,25.697L16.013,25.637L16.165,25.332L16.099,25.257L15.888,25.197L15.827,25.133L15.835,25.022L15.897,24.923L15.987,24.846L16.182,24.738L16.275,24.652L16.350,24.552L16.404,24.448L16.444,24.312L16.482,24.250L16.548,24.220L16.514,24.158L16.352,23.865L15.670,22.632L14.989,21.399L14.306,20.166L13.624,18.933L12.942,17.700L12.260,16.466L11.579,15.233L10.897,14.001L10.874,13.959L10.850,13.917L10.826,13.874L10.803,13.832L10.780,13.790L10.756,13.748L10.733,13.707L10.709,13.665L11.198,13.685L11.456,13.658L11.897,13.547L12.112,13.582L12.330,13.645L12.566,13.683L12.937,13.669L13.449,13.731L13.691,13.789L13.917,13.766L14.018,13.785L14.504,14.001L14.534,14.006L14.593,14.006L14.622,14.001L14.776,13.993L15.085,14.080L15.242,14.101L15.407,14.061L15.585,13.992L15.761,13.953L15.958,14.013L16.069,14.071L15.962,14.228L15.886,14.393L15.849,14.569L15.877,14.848L15.896,14.911L15.949,14.947L16.064,14.950L16.996,14.755L17.177,14.661L17.517,14.408L17.796,14.312L17.906,14.294L18.016,14.294L18.129,14.314L18.222,14.287L18.430,14.088L18.548,14.023L18.856,13.993L18.969,13.945L19.103,13.846L19.227,13.717L19.337,13.572L19.427,13.424L19.598,13.023L19.690,12.893L20.058,12.489L20.288,12.042L20.381,11.931L20.533,11.822L20.734,11.722L20.843,11.686L20.954,11.672L21.139,11.704L21.918,11.666L22.015,11.681L22.110,11.708L22.234,11.783L22.491,11.991L22.617,12.043L22.839,11.984L22.948,11.788L23.007,11.541L23.081,11.337L23.152,11.261L23.351,11.092L23.433,10.990L23.562,10.781L23.635,10.690L23.735,10.597L23.863,10.557L24.097,10.439L24.365,10.345L24.497,10.260L24.612,10.149L24.703,10.023L24.731,9.945L24.734,9.890L24.751,9.838L24.822,9.778L24.882,9.759L25.171,9.755L25.246,9.742L25.316,9.717L25.365,9.674L25.375,9.609L25.338,9.460L25.348,9.401L25.442,9.351L25.591,9.326L25.862,9.316L25.981,9.334L26.238,9.405L26.349,9.405L26.430,9.356L26.479,9.281L26.517,9.203L26.565,9.148L26.630,9.125L26.767,9.118L26.837,9.104L27.136,8.930L28.193,7.814L29.055,7.130L29.180,7.062L29.713,6.850L29.778,6.808L29.812,6.752L29.828,6.677L29.851,6.607L29.892,6.553L29.962,6.529L30.734,6.390L31.132,6.422L31.264,6.405L31.391,6.358L31.663,6.199L31.770,6.156L32.410,6.056L32.530,6.010L32.733,5.873L32.846,5.824L33.207,5.785L33.231,5.798L33.256,5.826L33.284,5.853L33.320,5.859L33.353,5.835L33.399,5.753L33.426,5.733L33.524,5.713L33.558,5.721L33.639,5.751L33.813,5.852L33.900,5.875L34.024,5.846L34.317,5.660L34.439,5.624L34.554,5.616L34.646,5.626L34.913,5.691L34.991,5.695L35.070,5.650L35.177,5.534L35.192,5.582L35.220,5.641L35.255,5.695L35.291,5.723L35.357,5.712L35.375,5.652L35.374,5.578L35.382,5.528L35.435,5.394L35.474,5.362L35.516,5.453L35.530,5.519L35.547,5.569L35.579,5.606L35.640,5.630L35.886,5.524L35.988,5.519L35.963,5.673L35.940,5.759L35.967,5.779L36.020,5.773L36.072,5.780L36.090,5.776L36.160,5.749L36.190,5.746L36.232,5.768L36.290,5.838L36.324,5.868L36.518,6.001L36.612,6.049L36.732,6.077L36.811,6.072L36.841,6.042L36.857,5.997L36.890,5.947L36.899,5.926L36.903,5.859L36.916,5.833L36.950,5.813L37.028,5.798L37.054,5.785L37.129,5.699L37.194,5.600L37.220,5.536L37.248,5.431L37.290,5.369L37.587,5.113L37.675,5.011L37.736,5.000L37.908,5.002L38.027,5.047L38.207,5.210L38.301,5.421L38.316,5.444L38.405,5.748L38.469,5.823L38.559,5.904L38.639,5.993L38.673,6.099L38.644,6.258L38.502,6.534L38.450,6.682L38.427,6.957L38.452,7.237L38.509,7.496L38.631,7.850L38.658,7.995L38.673,8.290L38.688,8.360L38.753,8.518L38.766,8.588L38.745,8.652L38.632,8.829L38.565,9.163L38.485,9.321L38.242,9.442L38.149,9.573L38.078,9.727L38.049,9.850L38.048,9.852L38.059,9.905L38.070,9.928L38.097,9.949L37.942,10.239L37.848,10.334L37.687,10.367L37.687,10.414L37.766,10.534L37.780,10.579L37.774,10.612L37.743,10.676L37.736,10.717L37.742,10.774L37.757,10.845L37.779,10.904L37.805,10.930L37.823,11.003L37.781,11.339L37.780,11.441L37.892,11.569L38.009,11.643L38.100,11.739L38.137,11.933L38.130,12.053L38.081,12.313L37.983,12.622L38.016,12.711L38.273,12.781L38.392,12.865L38.490,12.971L38.543,13.073L38.584,13.655L38.601,13.693L38.638,13.731L38.670,13.783L38.673,13.867L38.648,13.926L38.604,13.966L38.551,14.003L38.494,14.053L38.393,14.213L38.388,14.334L38.425,14.451L38.450,14.592L38.399,14.715L38.147,14.918L38.048,15.034L38.026,15.202L38.110,15.308L38.221,15.388L38.275,15.480L38.236,15.583L38.153,15.637L38.088,15.713L38.097,15.879L38.180,16.004L38.315,16.104L38.440,16.176L38.494,16.221L38.471,16.308L38.357,16.446L38.316,16.525L38.309,16.593L38.321,16.649L38.540,17.233L38.717,17.426L38.945,17.362L39.105,17.451L39.173,17.513L39.216,17.599L39.216,17.666L39.167,17.789L39.168,17.878L39.195,17.969L39.226,17.990L39.273,17.991L39.351,18.021L39.491,18.119L39.534,18.181L39.380,18.233L39.364,18.295L39.391,18.463L39.377,18.530L39.319,18.633L39.306,18.698L39.309,18.946L39.346,19.040L39.436,19.142L39.553,19.231L39.638,19.254L39.690,19.190L39.726,18.860L39.752,18.774L39.792,18.719L39.887,18.691L39.906,18.755L39.886,18.910L39.980,19.002L40.098,19.052L40.200,19.117L40.260,19.339L40.345,19.489L40.377,19.564L40.383,19.630L40.372,19.768L40.377,19.835L40.408,19.980L40.444,20.042L40.511,20.074L40.533,20.076L40.598,20.107L40.640,20.178L40.651,20.262L40.622,20.329L40.532,20.460L40.521,20.584L40.566,20.691L40.645,20.773L40.736,20.825L40.840,20.853L41.117,20.866L41.252,20.894L41.389,20.944L41.529,20.967L41.675,20.912L41.755,20.950L41.874,20.974L41.984,21.020L42.032,21.121L42.063,21.259L42.141,21.388L42.348,21.614L42.300,21.708L42.330,21.783L42.403,21.819L42.482,21.796L42.500,21.741L42.522,21.561L42.547,21.521L42.655,21.509L42.677,21.547L42.709,21.661L42.709,21.717L42.663,21.801L42.661,21.846L42.681,21.882L42.738,21.940L42.750,21.963L42.818,22.031L42.977,22.127L43.285,22.269L43.366,22.279L43.537,22.281L43.579,22.290L43.686,22.380L43.821,22.451L43.828,22.430L43.829,22.414L43.838,22.406L43.934,22.419L43.965,22.429L44.072,22.523L44.098,22.576L44.104,22.655L44.097,22.806L44.063,22.953L43.945,23.226L43.963,23.343L44.003,23.370L44.147,23.422L44.206,23.457L44.262,23.521L44.338,23.665L44.387,23.736L44.475,23.830L44.577,23.913L44.701,23.971L44.855,23.993L45.120,23.944L45.218,23.970L45.285,24.183L45.345,24.198L45.408,24.184L45.439,24.171L45.485,24.141L45.558,24.063L45.618,24.036L45.757,24.024L45.873,24.058L45.967,24.121L46.149,24.319L46.218,24.342L46.283,24.277L46.381,24.133L46.481,24.252L46.873,24.265L47.015,24.461L47.137,24.445L47.344,24.366L47.430,24.394L47.491,24.454L47.562,24.504L47.679,24.505L47.758,24.437L47.801,24.376L47.838,24.310L48.058,24.031L48.060,23.993L48.173,23.978L48.373,23.912L48.462,23.896L49.401,24.036L49.420,24.055L49.775,24.245L50.048,24.475L50.156,24.530L50.300,24.552L50.383,24.554L50.457,24.566L50.525,24.594L50.587,24.644L50.636,24.719L50.648,24.787L50.652,24.852L50.677,24.919L50.731,24.966L50.789,24.985L50.836,25.015L50.855,25.091L50.880,25.136L51.129,25.324L51.274,25.360L51.350,25.393L51.540,25.545L51.622,25.578L52.083,25.574L52.158,25.555L52.183,25.504L52.244,25.446L52.381,25.346L52.410,25.339L52.487,25.350L52.519,25.346L52.549,25.317L52.578,25.241L52.608,25.207L52.788,25.127L52.806,25.114L52.882,25.129L53.012,25.192L53.209,25.243L53.277,25.335L53.322,25.578L53.350,25.622L53.392,25.657L53.416,25.695L53.366,25.775L53.359,25.813L53.366,25.852L53.387,25.883L53.532,26.013L53.604,26.094L53.634,26.164L53.654,26.314L53.705,26.444L53.778,26.545L53.861,26.606L53.932,26.631L53.993,26.637L54.049,26.622L54.105,26.583L54.165,26.559L54.198,26.606L54.220,26.670L54.563,27.124L54.582,27.169L54.614,27.201L54.687,27.214L54.753,27.218L54.802,27.233L54.833,27.267L54.843,27.326L54.875,27.437L54.959,27.532L55.073,27.612L55.200,27.679L55.212,27.544L55.282,27.507L55.391,27.508L55.517,27.489L55.601,27.435L55.667,27.381L55.748,27.369L55.873,27.447L55.936,27.503L55.979,27.557L56.004,27.618L56.019,27.780L56.042,27.812L56.611,28.063L57.016,28.051L57.150,28.074L57.239,28.139L57.419,28.355L57.434,28.388L57.442,28.456L57.464,28.469L57.554,28.464L57.578,28.469L57.689,28.541L57.740,28.560L58.046,28.596L58.134,28.586L58.206,28.520L58.338,28.575L58.447,28.550L58.542,28.498L58.787,28.433L58.853,28.427L58.922,28.443L59.099,28.566L59.109,28.410L59.174,28.430L59.322,28.609L59.392,28.635L59.448,28.621L59.486,28.630L59.500,28.730L59.501,29.186L59.521,29.303L59.587,29.396L59.728,29.500L60.016,29.824L60.107,29.872L60.114,29.901L60.214,30.062L60.250,30.087L60.397,30.155L60.508,30.233L60.825,30.549L60.893,30.599L61.021,30.666L61.070,30.713L61.095,30.767L61.229,31.222L61.305,31.289L61.452,31.314L61.580,31.287L61.711,31.240L61.841,31.219L61.967,31.271L62.094,31.193L62.243,31.135L62.405,31.097L62.869,31.054L62.895,31.059L62.928,31.064L63.106,31.235L63.172,31.271L63.481,31.340L63.773,31.310L64.056,31.204L64.499,30.969L64.599,30.977L64.699,31.019L64.934,31.062L65.072,31.149L65.147,31.178L65.217,31.178L65.366,31.131L65.797,31.147L65.861,31.108L65.899,30.972L65.996,30.907L66.275,30.865L66.300,30.838L66.379,30.789L66.463,30.771L66.502,30.839L66.502,31.116L66.628,31.252L66.916,31.305L67.234,31.327L67.446,31.373L67.567,31.492L67.617,31.526L68.066,31.722L68.565,32.121L69.041,32.502L69.268,32.625L69.418,32.658L69.460,32.677L69.485,32.708L69.519,32.790L69.548,32.821L69.608,32.851L70.101,32.972L70.218,33.041L70.266,33.168L70.280,33.351L70.318,33.538L70.374,33.714L70.441,33.861L70.494,33.918L70.637,34.039L70.649,34.079L70.617,34.148L70.658,34.190L70.721,34.219L70.760,34.246L70.777,34.303L70.772,34.345L70.716,34.474L70.632,34.794L70.566,34.941L70.450,35.043L70.292,35.088L70.247,35.123L70.213,35.215L70.186,35.370L70.177,35.525L70.198,35.616L70.285,35.768L70.288,35.941L70.264,36.126L70.273,36.312L70.338,36.437L70.694,36.737L70.750,36.849L70.845,37.276L71.060,37.760L71.095,38.043L70.894,38.113L71.002,38.335L71.320,38.558L71.401,38.707L71.420,39.120L71.446,39.678L71.472,40.236L71.498,40.794L71.524,41.353L71.544,41.794L71.510,41.874L70.763,41.883L69.502,41.899L69.847,42.205L70.300,42.753L71.006,43.607L71.605,44.331L71.697,44.483L71.752,44.649L71.838,45.662L71.955,47.035L72.041,48.045L72.085,48.776L72.132,49.547L72.257,49.838L72.459,49.895L72.913,49.911L74.157,49.957L75.402,50.002L76.647,50.047L77.891,50.092L79.136,50.137L80.381,50.183L81.625,50.229L82.870,50.274L83.342,50.291L83.489,50.272L83.624,50.204L83.672,50.139L83.763,49.971L83.811,49.938L84.093,49.945L84.160,50.005L84.193,50.668L84.165,50.762L84.011,50.890L84.003,51.009L84.140,51.257L84.052,51.505L83.400,52.251L83.290,52.458L83.240,52.691L83.264,52.985L83.397,53.499L83.419,53.764L83.405,53.812L83.346,53.933L83.329,53.997L83.332,54.077L83.397,54.415L83.509,54.622L83.553,54.745L83.590,55.221L83.624,55.325L83.693,55.445L83.724,55.594L83.733,56.204L83.770,56.461L83.888,56.664L84.133,56.798L84.339,56.825L84.404,56.845L84.469,56.885L84.586,56.983L84.650,57.024L84.705,57.040L84.811,57.059L84.866,57.090L84.940,57.189L85.045,57.414L85.148,57.490L85.238,57.514L85.313,57.523L85.384,57.544L85.468,57.599L85.647,57.796L85.718,57.849L85.950,57.949L86.028,57.993L86.313,58.227L86.500,58.309L86.748,58.371L86.996,58.387L87.183,58.333L87.333,58.307L87.446,58.324L87.592,58.383L87.682,58.477L87.747,58.629L87.763,58.798L87.755,58.958L87.768,59.069L87.765,59.331L87.779,59.458L87.831,59.580L87.898,59.670L87.981,59.751L88.076,59.817L88.180,59.860L88.124,60.077L88.148,60.151L88.266,60.297L88.361,60.463L88.348,60.585L88.143,60.606L88.752,61.661L89.088,62.490L89.313,62.904L89.574,63.053L89.708,63.053L89.813,63.070L89.872,63.136L89.864,63.285L89.414,63.291L89.295,63.319L89.211,63.397L89.105,63.735L88.797,64.707L88.490,65.678L88.183,66.649L87.875,67.621L87.802,67.853L88.064,67.875L88.132,67.932L88.160,68.068L88.198,68.471L88.237,68.766L87.870,68.794L87.758,68.866L87.608,69.178L87.405,69.599L86.957,70.525L86.510,71.451L86.306,71.872L86.306,71.873L86.306,71.873L86.225,72.042L86.049,72.413L85.873,72.785L85.793,72.953L85.565,73.433L85.615,73.624L86.110,74.070L86.638,74.544L87.296,75.137L87.230,75.224L87.156,75.334L87.061,75.436L86.916,75.505L86.750,75.463L86.646,75.451L86.599,75.484L86.582,75.543L86.537,75.596L86.473,75.634L86.398,75.648L86.233,75.714L86.029,76.005L85.859,76.071L85.816,76.095L85.737,76.213L85.702,76.253L85.619,76.296L85.341,76.396L85.337,76.219L85.433,75.859L85.444,75.717L85.435,75.429L85.452,75.278L85.430,75.065L85.319,74.675L85.306,74.457L85.326,74.232L85.304,74.135L85.234,74.056L84.978,73.899L84.368,73.527L83.758,73.154L83.149,72.781L82.539,72.408L81.929,72.036L81.320,71.664L80.710,71.291L80.100,70.918L79.771,70.716L79.584,70.585L79.388,70.448L79.258,70.415L78.727,70.422L77.496,70.438L76.265,70.454L75.034,70.470L73.802,70.486L73.266,70.493L72.281,70.703L70.069,71.176L67.857,71.649L65.645,72.123L63.433,72.595L63.293,72.617L62.984,72.663L62.675,72.709L62.535,72.731L61.953,72.818L61.849,72.861L61.796,72.942L61.673,73.277L61.489,73.776L61.306,74.277L61.122,74.778L60.938,75.278L60.853,75.454L60.769,75.630L60.728,75.715L60.684,75.805L60.600,75.981L60.491,76.144L60.382,76.306L60.274,76.468L60.165,76.631L59.873,77.045L59.581,77.459L59.288,77.874L58.996,78.287L58.859,78.481L58.717,78.684L58.479,79.038L58.423,79.220L58.431,79.839L58.438,80.438L58.446,81.093L58.459,82.084L58.459,82.088L58.434,82.534L58.223,83.234L58.011,83.939L57.782,84.699L57.543,85.492L57.319,86.214L57.015,87.200L56.777,87.972L56.492,88.896L56.318,89.502L56.134,90.147L55.985,90.487L55.929,90.468L55.910,90.419L55.901,90.358L55.873,90.297L55.796,90.217L55.517,90.022L55.207,89.876L55.115,89.782L55.066,89.661L55.065,89.446L55.021,89.363L55.039,89.307L55.040,89.239L54.998,88.982L54.979,88.918L54.886,88.896L54.602,88.844L53.635,88.895L53.632,88.896L51.576,88.884L49.521,88.873L49.270,88.915L49.164,88.972L48.861,89.235L48.786,89.202L48.517,88.969L48.385,88.911L47.776,88.871L47.601,88.903L47.506,88.942L47.485,88.964L47.481,89.004L47.419,89.157L47.395,89.289L47.372,89.343L47.322,89.393L47.272,89.417L47.227,89.431L47.192,89.455L47.135,89.566L47.035,89.948L46.830,90.451L46.780,90.527L46.648,90.597L46.600,90.647L46.115,91.876L45.957,92.099L45.619,92.409L45.525,92.572L45.243,93.595L45.238,94.085L45.180,94.217L45.027,94.741L45.038,94.828L44.916,94.771L44.891,94.453L44.811,94.358L44.861,94.196L44.839,94.011L44.752,93.859L44.610,93.797L44.538,93.741L44.365,93.378L44.300,93.329L44.241,93.307L44.199,93.268L44.182,93.167L44.189,93.089L44.220,92.956L44.227,92.888L44.252,92.814L44.306,92.754L44.355,92.684L44.365,92.583L44.002,92.235L43.908,92.110L43.870,91.954L43.845,91.913L43.728,91.839L43.691,91.789L43.693,91.720L43.744,91.588L43.735,91.514L43.648,91.439L43.511,91.346L43.425,91.227L43.490,91.068L43.575,90.970L43.620,90.875L43.616,90.766L43.557,90.627L43.502,90.546L43.328,90.339L43.267,90.297L43.136,90.267L42.989,90.196L42.865,90.105L42.726,90.085L42.671,90.067L42.620,90.077L42.499,90.128L42.439,90.138L42.181,90.078L41.723,89.827L40.495,89.548L39.383,89.561L37.639,89.581L37.292,89.543L36.838,89.479L36.782,89.485L36.749,89.511L36.720,89.542L36.672,89.565L35.761,89.667L35.561,89.606L35.370,89.475L34.532,88.513L34.390,88.435L33.788,88.332L33.754,88.295L33.677,87.965L33.475,87.753L33.191,87.613L32.638,87.440L32.524,87.477L32.213,88.597L32.150,89.233L32.122,89.333L32.082,89.415L32.067,89.423L32.040,89.407L31.957,89.417L31.901,89.451L31.850,89.507L31.810,89.573L31.783,89.637L31.625,89.756L30.757,90.000L29.996,90.202L29.971,90.234L29.953,90.286L29.933,90.329L29.900,90.338L29.793,90.302L29.665,90.287L29.593,90.264L29.522,90.257L29.433,90.296L29.282,90.423L29.198,90.558L29.150,90.717L29.073,91.223L29.026,91.377L28.942,91.478L28.925,91.535L28.965,91.732L28.961,91.802L28.887,91.851L28.153,92.074L27.979,92.162L27.847,92.300L27.784,92.393L27.699,92.448L27.598,92.471L27.454,92.457L27.342,92.462L27.397,93.096L27.382,93.244L27.310,93.348L26.816,93.726L26.624,93.948L26.289,94.489L24.221,94.922L23.980,94.968L23.525,95.000L22.514,94.942L22.304,94.873L22.254,94.825L22.112,94.611L22.080,94.616L21.829,94.566L21.758,94.465L21.730,94.289L21.731,93.764L21.944,92.750L21.941,92.617L21.741,92.235L21.686,91.896L21.629,91.751L21.378,91.303L21.335,91.165L21.333,91.029L21.447,90.604L21.439,90.472L21.380,90.309L21.197,90.052L21.173,89.979L21.195,89.915L21.278,89.801L21.300,89.739L21.278,89.591L21.199,89.427L21.085,89.283L20.954,89.196L20.636,88.896L20.480,88.756L20.419,88.675L20.392,88.577L20.317,87.458L20.181,86.932L19.775,86.210L19.723,85.975L19.754,84.318L19.664,84.017L18.299,81.808L18.196,81.707L18.054,81.671L17.779,81.684L17.686,81.674L17.546,81.589L17.392,81.495L17.282,81.212L17.277,80.330L17.327,80.171L17.424,80.032L17.873,79.651L17.877,79.526L17.686,79.370L17.515,79.301L17.208,79.106L16.540,78.791L16.396,78.683L16.251,78.535L16.114,78.349L16.018,78.140L15.994,77.931L16.068,77.753L16.216,77.639L16.586,77.510L16.327,77.056L16.253,76.829L16.260,76.563L16.293,76.368L16.274,76.300L16.060,76.254L15.861,76.129L15.840,75.998L15.952,75.883L16.753,75.641L16.954,75.622L17.048,75.637L17.117,75.658L17.175,75.650L17.234,75.581L17.265,75.512L17.320,75.278L17.328,75.145L17.461,74.828L17.481,74.730L17.472,74.688L17.446,74.647L17.416,74.553L17.409,74.352L17.403,74.304L17.353,74.212L17.290,74.166L17.089,74.083L16.975,74.002L16.770,73.785L16.456,73.545L16.410,73.460L16.424,73.335L16.509,73.198L16.781,72.959L16.896,72.834L17.251,72.307L17.543,71.874L17.543,71.873L17.686,71.674L17.776,71.584L18.039,71.467L18.095,71.422L18.046,71.291L17.932,71.156L17.797,71.030L17.098,70.529L16.865,70.441L16.685,70.326L16.455,69.931L16.306,69.768L15.691,69.234L15.482,69.089L15.172,68.984L15.083,68.925L15.009,68.829L14.856,68.471L14.735,68.255L14.655,68.165L14.552,68.098L14.747,67.835L14.800,67.709L14.802,67.559L14.781,67.489L14.418,66.728L14.416,66.723L14.415,66.718L14.416,66.713L14.464,66.621L14.477,66.531L14.462,66.438L14.418,66.350L14.263,66.076L14.205,65.742L14.212,65.391L14.256,65.065L14.260,64.911L14.212,64.770L13.976,64.369L13.949,64.258L13.966,63.887L13.955,63.827L13.859,63.538L13.852,63.478L13.851,63.407L13.829,63.249L13.761,63.138L13.562,62.926L13.469,62.609L13.661,62.410L13.901,62.219L13.950,61.926L13.947,61.920L13.883,61.813L13.804,61.815L13.701,61.857L13.564,61.863L13.454,61.829L13.348,61.782L13.150,61.661L12.996,61.623L12.950,61.606L12.904,61.563L12.772,61.409L12.670,61.433L12.589,61.495L12.508,61.492L12.407,61.324L12.348,61.076L12.343,60.575L12.300,60.331L12.136,60.015L11.904,59.755L11.375,59.287L11.235,59.076L11.177,58.829L11.151,58.294Z" fill="currentColor" stroke="currentColor" stroke-width="1" stroke-linejoin="round"/>
</svg>