<svg xmlns="http://www.w3.org/2000/svg" viewBox="0 0 100 100" role="img" aria-label="Barbados">
  <title>Barbados</title>
  <path d="M83.943,61.497L83.007,72.069L75.339,80.008L69.347,84.165L65.835,86.599L59.467,93.115L57.122,93.402L55.214,93.377L53.366,93.702L51.325,95.000L48.384,89.932L42.866,86.761L36.158,85.176L32.172,84.889L29.814,84.727L25.804,81.868L22.352,75.140L18.487,61.497L16.057,20.167L16.652,15.411L18.767,11.391L23.008,7.022L28.404,5.000L33.897,7.996L38.005,14.212L39.439,17.320L41.517,21.839L47.241,34.259L51.179,39.714L56.721,43.971L64.559,49.975L69.080,52.596L74.926,54.506L80.443,57.053L83.943,61.497Z" fill="currentColor" stroke="currentColor" stroke-width="1.5" stroke-linejoin="round"/>
</svg>