<svg xmlns="http://www.w3.org/2000/svg" viewBox="0 0 100 100" role="img" aria-label="Brunei">
  <title>Brunei</title>
  <path d="M80.821,25.368L80.862,26.886L81.470,27.504L82.351,27.922L83.205,28.503L84.865,30.865L89.181,43.382L89.468,44.954L89.365,46.102L88.833,48.723L88.799,51.331L89.167,54.128L90.035,56.733L91.558,58.766L93.880,60.955L94.836,62.374L95.000,63.747L94.044,64.794L92.596,64.739L91.066,64.069L89.871,63.269L89.290,63.054L88.020,63.105L87.330,62.812L86.299,61.944L85.746,61.745L83.772,61.944L82.392,61.646L78.629,60.246L77.755,59.659L77.229,58.718L76.437,52.186L75.665,49.574L73.507,44.411L72.933,41.841L72.667,36.449L73.129,31.193L74.341,32.441L75.551,31.664L76.857,30.199L78.336,29.414L79.767,29.112L79.810,28.338L79.245,27.300L78.858,26.194L79.003,25.684L79.433,25.425L80.052,25.347L80.799,25.368L80.821,25.368ZM69.952,26.658L68.446,28.167L68.234,29.186L68.180,30.295L67.749,31.307L66.698,31.956L65.537,31.983L64.321,31.778L63.112,31.713L61.630,32.120L60.435,32.872L58.304,34.911L57.184,35.618L54.759,36.637L54.191,37.163L54.110,37.238L54.069,38.333L54.561,39.563L55.838,42.008L56.221,43.379L56.446,44.848L56.767,52.595L57.163,55.021L58.345,56.869L59.642,57.341L60.619,57.180L61.111,57.504L60.961,59.402L60.353,61.913L59.861,63.023L59.151,64.151L57.560,65.691L57.143,66.094L56.754,66.705L56.794,68.065L58.857,67.224L59.082,68.380L58.604,69.598L57.095,71.857L56.631,73.147L56.262,75.884L55.756,76.855L49.678,82.672L46.564,84.488L43.845,84.172L43.517,83.648L43.026,82.004L42.705,81.324L42.179,80.819L40.779,79.830L36.626,75.983L35.684,74.713L35.035,73.416L33.662,69.225L32.829,68.350L31.606,68.278L28.902,68.764L26.013,68.192L23.759,68.033L23.452,67.426L23.336,66.435L23.547,66.046L24.469,65.239L24.688,64.602L24.237,61.642L23.336,60.281L23.336,58.432L22.823,56.576L22.434,55.848L21.737,55.077L21.519,54.644L21.457,54.121L21.307,53.679L20.829,53.494L19.811,53.467L19.402,53.267L18.896,51.908L18.118,51.400L16.492,50.776L14.334,49.091L12.941,48.363L9.321,47.806L5.000,45.744L21.714,46.305L26.667,45.364L31.233,42.788L37.756,40.433L40.057,39.602L41.445,38.235L42.461,36.317L44.849,33.889L52.835,27.521L55.314,26.016L66.430,19.267L74.981,15.717L76.637,15.512L77.885,15.998L77.981,16.861L77.019,17.541L74.954,18.466L74.405,19.359L73.308,21.994L73.114,22.787L72.668,23.696L70.614,25.603L69.952,26.658Z" fill="currentColor" stroke="currentColor" stroke-width="1" stroke-linejoin="round"/>
</svg>