<svg xmlns="http://www.w3.org/2000/svg" viewBox="0 0 100 100" role="img" aria-label="Bhutan">
  <title>Bhutan</title>
  <path d="M51.763,33.530L52.229,33.467L52.697,33.477L54.444,33.726L55.037,33.583L55.693,33.511L56.474,33.087L56.915,32.986L57.355,33.085L58.507,33.851L59.268,34.049L60.163,34.281L61.830,34.385L63.401,34.729L64.769,35.875L65.159,36.257L66.062,36.720L67.217,36.840L68.305,36.571L69.025,35.875L69.031,35.870L69.410,35.290L70.538,33.979L71.042,33.583L71.737,33.453L72.421,33.556L73.052,33.514L73.601,32.954L74.121,34.011L74.974,34.792L77.048,35.875L77.521,36.037L77.788,36.128L78.176,36.188L79.156,36.197L80.228,36.642L81.330,36.782L81.920,36.946L82.485,37.205L82.920,37.536L83.318,38.231L83.213,38.822L82.898,39.425L82.662,40.167L80.948,40.207L80.992,41.122L82.046,41.437L82.861,42.287L82.839,43.374L82.618,44.285L81.363,46.051L81.186,47.207L81.770,49.423L82.022,49.853L82.784,50.472L83.019,50.976L83.440,51.454L84.052,51.645L84.714,51.768L85.307,52.033L85.308,52.035L86.714,52.139L87.697,51.992L88.778,51.844L89.957,52.041L91.638,51.763L91.954,51.657L93.253,52.432L94.895,56.740L95.000,57.099L94.814,57.619L93.978,58.336L93.607,58.787L93.510,59.060L93.424,59.633L93.347,59.894L93.197,60.136L92.848,60.509L92.776,60.611L92.701,60.717L92.510,61.157L92.375,61.679L92.297,62.238L92.291,62.789L92.618,63.771L93.953,65.122L94.416,66.085L94.416,66.088L94.870,67.826L94.775,68.302L94.571,69.324L93.582,70.319L91.954,70.567L91.480,70.336L90.630,69.599L90.162,69.402L89.757,69.518L89.821,69.913L89.821,70.359L89.245,70.637L89.564,71.043L89.591,71.540L89.370,71.885L88.952,71.832L88.666,71.416L88.589,70.926L88.439,70.484L87.935,70.209L87.135,70.359L85.429,71.487L84.640,71.871L83.343,72.038L82.920,72.007L81.734,71.651L81.250,71.669L80.278,72.011L79.776,72.049L79.422,71.733L78.807,70.383L78.555,69.995L78.167,69.880L77.084,69.814L76.713,69.875L76.234,70.209L75.957,70.682L75.741,71.230L75.428,71.790L75.085,72.136L74.670,72.414L74.218,72.620L73.772,72.744L73.221,72.759L72.844,72.609L72.055,72.122L71.136,71.905L69.230,71.949L68.289,71.832L67.488,71.838L66.168,72.449L66.023,72.516L64.338,72.614L58.244,72.972L54.779,72.578L51.763,70.996L49.282,69.202L48.376,69.055L47.834,69.236L47.449,69.547L47.091,69.913L46.651,70.251L46.157,70.417L45.169,70.378L44.681,70.420L43.783,71.007L43.108,72.829L42.437,73.445L41.418,73.737L38.366,74.035L36.674,74.492L36.093,74.549L35.821,74.507L35.276,74.336L35.243,74.331L35.030,74.297L34.929,74.247L34.716,74.054L34.607,74.044L34.467,74.163L34.411,74.319L34.400,74.457L34.387,74.524L34.388,74.589L34.346,74.766L34.262,74.967L34.133,75.112L34.036,75.114L33.779,75.005L33.672,74.983L32.606,74.992L32.455,74.968L32.028,74.898L30.592,74.255L30.005,74.227L29.069,74.619L28.573,74.628L28.244,74.364L28.672,73.531L28.615,73.004L27.938,72.458L26.877,72.050L25.776,71.864L24.101,72.066L23.148,71.571L22.118,70.847L21.388,70.334L20.276,70.634L19.907,70.617L19.564,70.650L19.279,70.878L19.002,71.166L18.687,71.379L17.936,71.582L17.180,71.657L15.665,71.569L14.819,71.329L14.442,70.887L14.225,70.272L13.859,69.514L13.436,69.041L12.811,68.571L12.142,68.267L11.572,68.298L11.317,68.487L11.015,68.573L10.700,68.540L10.420,68.373L10.231,68.067L10.234,67.775L10.276,67.461L10.209,67.091L9.732,66.504L9.190,66.568L8.672,67.013L8.260,67.581L8.096,66.088L8.096,66.085L8.096,64.435L7.967,63.659L7.614,62.975L7.015,62.517L5.335,61.619L5.081,61.431L5.000,61.371L5.224,60.500L5.651,59.508L6.227,58.654L6.905,58.184L8.520,57.763L8.914,57.457L9.142,57.280L9.348,56.398L9.960,55.935L10.915,56.015L11.481,56.493L12.153,55.935L11.729,55.217L11.269,54.060L10.922,52.844L11.096,52.125L11.327,51.488L11.777,51.047L11.698,50.885L11.569,50.617L11.508,50.291L11.653,49.909L12.040,49.691L12.366,49.323L12.306,48.996L12.668,48.533L13.127,48.438L13.296,47.975L13.598,47.552L13.949,47.321L14.686,47.021L14.976,47.089L15.070,47.109L15.169,47.130L15.435,47.252L15.573,47.354L15.646,46.978L16.414,45.818L17.544,43.857L18.037,42.631L18.260,41.523L19.166,40.927L20.258,40.422L21.237,39.672L22.151,38.455L23.417,36.059L23.514,35.875L23.519,35.875L24.145,34.773L24.527,34.271L24.970,33.862L25.506,33.661L26.034,33.241L27.279,31.647L27.759,31.345L28.252,31.189L31.468,30.607L32.487,30.144L32.963,29.286L33.157,28.803L33.564,28.458L34.467,27.885L34.705,27.620L35.118,27.035L35.356,26.778L35.643,26.633L35.849,26.725L36.782,26.179L37.757,26.401L38.268,26.106L38.773,26.027L40.928,25.284L42.339,25.582L43.133,25.980L43.751,25.881L44.368,25.184L45.074,24.886L46.044,25.582L46.044,26.677L46.839,27.819L47.859,27.986L48.514,26.677L49.397,26.677L50.191,27.174L51.249,27.174L52.572,28.169L53.719,28.268L54.778,28.666L55.042,29.661L54.249,29.959L53.719,30.954L52.837,31.054L52.043,31.949L51.763,33.530Z" fill="currentColor" stroke="currentColor" stroke-width="1" stroke-linejoin="round"/>
</svg>