<svg xmlns="http://www.w3.org/2000/svg" viewBox="0 0 100 100" role="img" aria-label="Botswana">
  <title>Botswana</title>
  <path d="M55.442,5.122L55.073,5.968L55.073,6.247L55.134,6.483L55.399,7.167L55.777,7.833L56.024,8.110L56.335,8.300L56.610,8.529L56.804,8.894L57.097,9.657L57.393,10.153L57.465,10.350L57.551,10.767L57.597,10.899L57.715,11.099L58.318,11.756L58.628,11.974L58.753,12.107L59.187,12.748L59.449,12.987L59.802,13.169L60.031,13.383L60.136,13.731L60.191,14.454L60.518,15.197L61.665,16.257L61.909,17.034L61.912,17.044L61.881,17.249L61.732,17.615L61.703,17.817L61.737,18.055L61.809,18.241L62.034,18.633L62.311,19.009L62.520,19.443L63.397,21.985L63.627,22.342L63.983,22.569L64.391,22.681L64.881,22.691L64.980,22.738L65.068,22.806L65.140,22.884L65.231,23.011L65.254,23.091L65.188,23.297L65.122,23.420L65.062,23.452L65.059,23.470L65.170,23.546L65.243,23.579L65.521,23.630L65.727,23.743L65.979,24.144L66.153,24.311L66.321,24.379L66.682,24.463L66.856,24.536L67.226,24.781L67.381,24.946L67.459,25.131L67.524,25.355L67.649,25.487L67.818,25.565L68.232,25.686L68.364,25.762L68.394,25.796L68.464,25.872L68.590,26.050L68.730,26.197L68.886,26.281L69.067,26.317L69.284,26.320L69.625,26.385L70.660,26.923L70.989,26.985L71.292,26.981L71.588,27.014L71.894,27.186L71.977,27.283L72.135,27.512L72.234,27.595L72.346,27.638L72.439,27.644L72.530,27.635L72.641,27.639L72.833,27.670L73.023,27.728L73.188,27.833L73.308,28.005L73.775,29.227L73.940,30.386L73.797,31.812L74.141,31.630L74.458,31.587L75.492,31.590L76.225,31.686L76.744,31.590L77.063,31.741L77.430,31.746L77.593,31.815L77.724,31.943L77.792,32.117L77.765,32.507L77.653,32.856L77.581,33.211L77.808,33.995L77.829,34.390L77.690,35.190L77.641,35.302L77.575,35.386L77.522,35.476L77.511,35.607L77.513,35.719L77.491,35.941L77.491,36.038L77.561,36.592L77.549,36.801L77.438,37.324L77.436,37.497L77.511,37.684L77.825,38.122L77.964,38.272L78.598,38.744L78.870,39.083L79.104,39.457L79.431,39.858L79.517,39.998L79.538,40.077L79.533,40.230L79.549,40.305L79.607,40.397L79.756,40.559L80.027,41.124L80.053,41.226L80.022,41.303L79.952,41.422L79.933,41.516L79.965,41.534L80.029,41.556L80.066,41.613L80.019,41.740L80.055,41.836L80.099,41.847L80.151,41.836L80.213,41.875L80.261,41.956L80.343,42.157L80.395,42.246L80.506,42.367L80.634,42.453L80.783,42.502L81.312,42.536L81.997,42.674L83.086,42.690L83.424,42.755L83.788,42.882L84.531,43.272L84.728,43.317L84.881,43.288L85.027,43.230L85.348,43.146L85.444,43.099L85.545,43.082L85.837,43.160L86.109,43.186L86.237,43.228L86.590,43.511L87.009,43.645L88.349,44.276L88.625,44.350L89.181,44.384L89.445,44.448L89.609,44.559L89.974,44.676L90.125,44.795L90.147,44.985L90.036,45.216L89.885,45.454L89.784,45.666L89.747,46.084L89.817,46.503L89.991,46.879L90.267,47.177L90.607,47.356L90.944,47.416L91.807,47.390L91.854,47.421L91.942,47.533L91.992,47.622L92.063,47.817L92.121,47.909L92.819,48.517L92.650,48.577L92.388,48.552L91.889,48.444L91.650,48.472L91.474,48.594L91.326,48.724L91.163,48.787L90.057,48.849L89.974,48.885L89.783,49.146L89.785,49.192L89.646,49.275L89.472,49.459L89.257,49.737L89.327,50.431L89.286,50.547L89.195,50.632L88.984,51.028L88.821,51.155L88.427,51.108L88.219,51.118L88.129,51.248L88.078,51.437L87.947,51.543L87.763,51.595L87.562,51.626L87.165,51.750L86.504,52.126L86.183,52.233L85.940,52.232L85.760,52.205L85.598,52.235L85.403,52.405L85.257,52.450L84.680,52.300L83.926,52.353L83.576,52.448L83.240,52.638L83.103,52.757L82.772,53.150L82.682,53.202L82.459,53.224L82.360,53.252L82.275,53.308L81.987,53.673L81.942,53.767L81.924,53.895L81.942,54.016L81.969,54.092L81.967,54.171L81.898,54.299L81.815,54.376L81.722,54.412L81.630,54.433L81.556,54.472L81.517,54.530L81.467,54.681L81.430,54.742L81.294,54.800L81.083,54.861L80.913,54.941L80.897,55.048L80.976,55.259L80.937,55.479L80.825,55.677L80.682,55.827L80.558,55.908L80.385,55.996L80.194,56.068L80.018,56.096L79.911,56.194L79.915,56.420L79.990,56.839L79.843,57.115L79.528,57.337L79.146,57.496L78.799,57.586L78.858,57.767L78.714,57.820L78.517,57.807L78.419,57.788L78.396,57.866L78.423,57.942L78.463,58.011L78.481,58.059L78.500,58.087L78.539,58.130L78.557,58.170L78.514,58.188L78.502,58.201L78.433,58.256L78.419,58.261L78.284,58.641L78.231,58.733L78.099,58.800L77.976,58.742L77.727,58.463L77.364,58.759L77.258,58.800L77.133,58.759L77.002,58.696L76.900,58.693L76.820,58.969L76.648,59.159L76.609,59.310L76.601,59.366L76.581,59.422L76.550,59.465L76.516,59.481L76.492,59.508L76.507,59.573L76.533,59.652L76.547,59.717L76.495,59.939L76.360,60.116L76.177,60.238L75.980,60.297L75.600,60.310L75.481,60.358L75.394,60.455L75.319,60.569L75.230,60.629L75.101,60.560L75.168,60.418L75.096,60.398L74.961,60.445L74.851,60.499L74.825,60.556L74.738,60.672L74.645,60.726L74.543,60.420L74.411,60.528L74.196,60.870L74.045,61.015L73.886,61.132L73.535,61.308L73.195,61.413L73.094,61.529L73.224,61.719L73.132,61.759L73.050,61.761L72.977,61.724L72.911,61.646L72.888,61.705L72.820,61.787L72.781,61.854L72.707,61.763L72.602,61.722L72.509,61.739L72.469,61.817L72.509,61.939L72.584,62.004L72.634,62.068L72.594,62.185L72.481,62.116L72.380,62.127L72.292,62.200L72.220,62.320L72.281,62.320L72.113,62.440L72.060,62.499L72.032,62.590L71.969,62.552L71.907,62.523L71.921,62.719L71.979,62.892L71.985,63.033L71.845,63.136L71.688,63.128L71.617,63.020L71.566,62.900L71.471,62.860L71.383,62.932L71.222,63.339L71.044,63.652L70.998,63.837L71.020,63.933L71.039,64.013L70.779,64.484L70.842,64.685L70.807,64.952L70.165,67.576L70.147,68.016L69.971,68.883L69.875,69.055L69.729,69.186L69.538,69.293L68.731,69.552L68.538,69.658L68.458,69.805L67.904,70.377L67.309,70.760L67.060,70.962L66.831,71.261L66.564,71.963L66.496,72.076L65.901,72.683L65.898,72.682L65.694,72.650L65.528,72.636L65.355,72.596L65.183,72.580L64.754,72.640L63.723,72.960L62.331,73.392L62.034,73.607L61.896,73.678L61.427,73.661L61.125,73.763L61.056,73.775L61.004,73.822L60.990,74.064L61.085,74.786L61.080,75.184L60.984,75.502L60.717,76.104L60.700,76.472L60.424,76.951L60.223,77.608L59.424,79.373L59.132,80.657L59.034,80.888L58.632,81.836L58.435,82.431L57.258,83.337L56.600,83.656L54.693,83.851L54.311,83.785L53.893,83.657L53.541,83.600L53.190,83.651L52.775,83.847L52.231,84.254L52.050,84.329L51.505,84.471L51.228,84.503L50.973,84.437L50.674,84.371L50.007,84.444L49.684,84.373L49.201,84.049L48.507,83.797L48.104,83.651L47.922,83.673L47.739,83.750L47.487,83.813L47.027,83.738L46.642,83.458L46.011,82.722L45.607,82.494L45.127,82.497L44.178,82.749L43.983,82.778L43.969,82.731L44.018,82.646L44.010,82.566L43.915,82.488L43.821,82.431L43.715,82.411L43.243,82.527L43.069,82.421L42.931,82.227L42.518,81.933L42.171,81.483L42.090,81.433L41.905,81.374L41.820,81.323L41.758,81.235L41.665,81.029L41.579,80.953L41.068,80.799L40.954,80.683L40.885,80.585L39.920,79.840L39.689,79.702L39.422,79.580L39.330,79.514L39.210,79.388L39.071,79.178L38.989,79.098L38.858,79.058L38.740,79.080L38.441,79.189L38.278,79.201L38.136,79.169L37.720,79.011L37.220,78.918L36.767,78.950L36.333,79.077L35.646,79.397L35.559,79.469L35.448,79.531L35.391,79.480L35.351,79.380L35.291,79.299L35.073,79.269L34.856,79.381L34.500,79.737L34.450,79.825L34.430,79.910L34.392,79.986L34.288,80.052L34.161,80.107L34.066,80.168L33.988,80.253L33.912,80.374L33.766,80.758L33.666,80.875L33.434,80.967L33.373,81.064L33.190,81.675L33.119,81.827L33.093,81.908L33.087,81.992L33.140,82.089L33.227,82.194L33.270,82.298L33.188,82.394L33.064,82.488L33.053,82.567L33.087,82.652L33.102,82.760L33.082,82.901L33.058,83.003L33.005,83.100L32.597,83.570L32.475,83.773L32.421,83.987L32.427,84.124L32.462,84.155L32.516,84.175L32.580,84.273L32.637,84.415L32.649,84.476L32.551,84.642L32.412,84.792L32.229,84.948L32.132,85.113L32.249,85.291L32.296,85.415L32.300,85.636L32.272,85.869L32.228,86.034L32.147,86.159L32.057,86.222L31.797,86.317L31.700,86.397L31.705,86.484L31.739,86.583L31.731,86.698L31.350,87.270L31.328,87.292L31.239,87.381L31.060,87.505L30.957,87.637L30.807,87.979L30.636,88.239L30.479,88.301L30.064,88.213L29.774,88.265L29.573,88.428L29.264,88.876L28.787,89.325L28.567,89.438L28.425,89.485L28.005,89.558L27.923,89.617L27.827,89.813L27.459,90.182L27.284,90.536L26.990,91.319L26.643,91.840L26.182,92.291L25.645,92.614L25.068,92.749L24.181,92.755L23.893,92.805L23.650,92.889L23.541,92.994L23.530,93.148L23.612,93.591L23.621,93.782L23.584,93.963L23.483,94.137L23.314,94.295L22.796,94.639L22.589,94.716L22.396,94.713L21.852,94.571L21.073,94.552L20.624,94.354L20.415,94.317L19.997,94.330L19.230,94.532L19.101,94.537L18.845,94.506L18.715,94.508L17.919,94.730L17.636,94.739L16.429,94.474L16.061,94.252L15.673,94.093L15.163,94.158L14.927,94.279L14.501,94.568L13.912,94.835L13.716,94.972L13.691,95.000L13.644,94.901L13.551,94.588L13.461,94.479L13.323,94.386L13.271,94.335L13.215,94.261L13.088,93.988L12.996,93.631L12.945,93.265L12.943,92.968L13.142,92.298L13.157,92.071L13.115,91.928L12.966,91.721L12.910,91.601L12.882,91.349L12.910,91.063L13.028,90.534L13.067,90.413L13.337,90.218L13.464,90.060L13.734,89.568L14.262,88.919L14.472,88.566L14.641,88.184L15.036,87.640L15.068,87.487L14.725,86.894L14.694,86.708L14.714,85.997L14.635,85.142L14.389,84.554L14.387,84.517L14.285,84.401L14.232,84.396L14.141,84.442L14.017,84.484L14.023,84.393L14.120,84.203L13.928,83.548L13.838,83.372L13.744,83.296L13.510,83.181L13.436,83.080L13.435,82.978L13.514,82.765L13.508,82.655L13.438,82.596L13.331,82.580L13.236,82.546L13.208,82.439L13.257,82.369L13.457,82.248L13.514,82.151L13.440,81.890L13.030,81.531L13.047,81.256L13.107,81.099L13.378,80.932L13.259,80.829L13.176,80.832L13.096,80.882L13.013,80.916L12.922,80.875L12.915,80.774L12.965,80.651L12.971,80.568L12.833,80.587L12.803,80.393L12.752,80.302L12.485,80.184L12.333,80.087L12.275,79.977L12.214,79.670L12.177,79.592L12.081,79.465L12.044,79.395L12.043,79.321L12.083,79.266L12.117,79.205L12.097,79.112L12.038,79.052L11.873,78.968L11.815,78.910L11.797,78.846L11.780,78.588L11.604,78.520L11.434,78.418L11.348,78.284L11.429,78.119L11.443,77.974L11.344,77.761L11.096,77.376L10.810,76.766L10.713,76.638L9.532,75.679L8.834,75.260L8.741,75.233L8.552,75.221L8.465,75.198L8.364,75.128L8.119,74.855L7.646,74.485L7.474,74.217L7.314,74.096L7.254,74.027L7.209,73.865L7.208,72.165L7.206,70.466L7.203,68.768L7.202,67.068L7.200,65.369L7.200,65.092L7.199,63.671L7.197,61.972L7.195,60.272L7.194,59.600L7.194,58.572L7.192,56.873L7.189,55.175L7.188,53.475L7.186,51.989L7.185,50.502L7.183,49.016L7.182,47.530L7.181,46.679L9.320,46.679L11.459,46.679L13.598,46.679L15.737,46.679L16.260,46.679L16.378,46.317L16.377,45.910L16.375,45.341L16.373,44.772L16.371,44.203L16.369,43.633L16.367,43.064L16.365,42.494L16.362,41.924L16.362,41.356L16.360,40.786L16.358,40.216L16.356,39.647L16.354,39.078L16.353,38.509L16.351,37.940L16.348,37.370L16.347,36.801L16.347,36.793L16.344,35.566L16.340,34.331L16.336,33.096L16.332,31.861L16.328,30.626L16.328,30.382L16.326,29.392L16.322,28.157L16.318,26.922L16.315,25.688L16.311,24.452L16.307,23.218L16.304,21.983L16.300,20.748L16.295,19.513L16.294,18.735L16.293,18.279L16.289,17.044L16.289,16.640L16.289,16.237L16.289,15.833L16.289,15.431L16.289,15.028L16.289,14.624L16.289,14.221L16.289,13.818L16.289,13.414L16.289,13.011L16.289,12.609L16.289,12.205L16.289,11.800L16.289,11.397L16.289,10.995L16.289,10.591L16.289,10.310L16.457,10.303L16.737,10.291L17.253,10.270L17.768,10.247L18.284,10.226L18.800,10.203L19.229,10.185L19.659,10.167L20.088,10.148L20.518,10.130L20.691,10.122L20.864,10.114L21.020,10.084L21.175,10.052L21.332,10.021L21.488,9.989L22.260,9.835L23.029,9.680L23.801,9.525L24.572,9.370L25.344,9.216L26.114,9.061L26.884,8.907L27.656,8.751L28.428,8.596L29.198,8.442L29.969,8.287L30.740,8.132L31.511,7.977L32.282,7.822L33.053,7.668L33.824,7.513L34.622,7.354L35.703,7.257L36.490,7.186L37.122,7.130L37.468,7.145L37.586,7.210L37.639,7.252L37.651,7.319L37.650,7.452L37.679,7.522L37.746,7.542L37.813,7.551L37.843,7.583L37.831,7.818L37.843,7.887L37.868,7.940L37.973,8.089L38.078,8.333L38.354,8.670L38.409,8.770L38.414,8.829L38.397,8.995L38.409,9.046L38.459,9.075L38.542,9.106L38.620,9.116L38.716,9.018L38.852,9.138L38.985,9.306L39.034,9.383L39.158,9.436L39.282,9.459L39.376,9.502L39.413,9.619L39.464,9.727L39.560,9.805L39.611,9.899L39.533,10.057L39.832,10.391L39.917,10.598L39.787,10.806L39.869,10.940L40.013,11.364L40.085,11.778L40.204,11.880L40.365,11.875L40.690,11.759L40.731,11.734L40.791,11.683L41.008,11.418L41.197,11.384L41.333,11.296L42.193,10.334L42.336,10.288L42.443,10.177L42.607,9.922L42.720,9.817L42.989,9.627L43.134,9.484L43.163,9.143L43.481,8.911L43.534,8.900L43.583,8.913L43.626,8.940L43.667,8.972L43.701,8.904L43.745,8.853L43.855,8.770L44.116,8.653L44.187,8.596L44.451,8.332L44.526,8.294L44.859,8.231L45.165,8.000L45.603,7.446L45.925,7.280L46.108,7.253L46.299,7.280L46.398,7.312L46.557,7.397L46.639,7.415L46.725,7.347L46.985,6.875L47.134,6.721L47.268,6.669L47.581,6.685L47.783,6.726L47.895,6.832L48.052,7.145L48.120,7.213L48.181,7.241L48.223,7.298L48.239,7.452L48.551,7.752L48.668,7.722L49.088,7.677L49.181,7.654L49.210,7.594L49.338,7.436L49.368,7.381L49.401,7.361L49.863,6.788L49.999,6.660L50.313,6.453L50.559,6.127L50.608,6.087L50.676,6.046L50.755,6.012L50.839,5.998L50.917,5.967L50.973,5.827L51.030,5.795L51.217,5.754L51.431,5.568L51.589,5.526L51.766,5.512L52.439,5.284L52.499,5.250L52.567,5.180L52.599,5.113L52.642,5.065L52.742,5.048L52.686,5.189L52.782,5.255L52.841,5.341L52.916,5.382L53.055,5.318L53.133,5.434L53.248,5.415L53.502,5.250L53.589,5.453L53.872,5.444L54.173,5.313L54.475,5.000L54.843,5.005L55.442,5.122Z" fill="currentColor" stroke="currentColor" stroke-width="1.5" stroke-linejoin="round"/>
</svg>