<svg xmlns="http://www.w3.org/2000/svg" viewBox="0 0 100 100" role="img" aria-label="Central African Republic">
  <title>Central African Republic</title>
  <path d="M63.422,20.152L63.437,20.341L64.418,21.764L65.134,22.266L66.388,23.479L67.535,25.325L68.682,27.171L68.825,27.481L69.027,28.680L68.993,28.946L68.899,29.151L68.644,29.543L68.559,29.743L68.563,29.819L68.630,29.991L68.644,30.083L68.635,30.299L68.654,30.364L68.706,30.452L68.758,30.450L68.798,30.466L68.836,30.522L68.840,30.568L68.667,31.108L68.658,31.231L68.728,31.444L68.738,31.545L68.677,31.628L68.586,31.699L68.319,32.033L68.168,32.186L68.088,32.235L67.977,32.255L67.754,32.245L67.650,32.287L67.571,32.405L67.536,32.457L67.384,33.340L67.402,33.510L67.492,33.651L67.676,33.757L67.865,33.742L68.121,33.491L68.242,33.496L68.292,33.646L68.282,33.888L68.197,34.283L68.080,34.474L67.796,34.794L67.705,34.975L67.702,35.142L67.759,35.328L67.863,35.479L68.004,35.544L68.106,35.521L68.269,35.396L68.365,35.342L68.492,35.317L68.609,35.330L68.717,35.376L68.820,35.449L68.910,35.484L69.131,35.480L69.353,35.540L69.464,35.506L69.681,35.406L69.919,35.400L70.355,35.500L70.738,35.461L71.013,35.575L71.145,35.594L71.341,35.562L72.060,35.681L72.449,35.628L72.518,35.618L72.775,35.613L72.900,35.679L72.884,35.778L72.757,35.961L72.731,36.060L72.780,36.158L72.967,36.305L73.002,36.389L72.955,36.455L72.675,36.640L72.606,36.717L72.220,37.366L72.137,37.602L72.112,37.828L72.180,38.031L72.328,38.206L72.515,38.346L72.699,38.446L72.808,38.489L73.046,38.544L73.089,38.549L73.212,38.563L73.312,38.563L73.361,38.570L73.413,38.597L73.527,38.687L73.564,38.707L74.008,38.554L74.246,38.529L74.410,38.686L74.438,38.748L74.475,38.794L74.525,38.824L74.593,38.839L74.810,38.975L75.029,38.982L75.513,38.905L75.900,38.977L76.034,38.978L76.173,38.994L76.392,39.116L76.791,39.161L77.011,39.262L77.603,39.808L77.671,39.920L77.687,40.166L77.828,40.313L77.842,40.436L77.880,40.488L77.926,40.533L77.980,40.572L78.039,40.604L78.371,40.976L78.577,41.134L78.786,41.211L78.882,41.205L79.095,41.158L79.193,41.158L79.363,41.186L79.413,41.217L79.447,41.260L79.489,41.298L79.664,41.356L79.752,41.442L79.819,41.551L79.890,41.771L79.992,41.955L80.030,42.073L80.035,42.174L80.008,42.473L80.035,42.577L80.074,42.673L80.095,42.776L80.064,42.897L79.910,43.033L79.454,43.188L79.308,43.328L79.303,43.415L79.334,43.528L79.482,43.874L79.892,44.091L79.984,44.153L80.027,44.200L80.094,44.311L80.134,44.358L80.188,44.388L80.304,44.424L80.349,44.457L80.404,44.557L80.448,44.756L80.485,44.857L80.560,44.958L80.651,45.024L81.038,45.217L81.306,45.422L81.486,45.506L81.618,45.460L81.731,45.480L81.834,45.544L82.144,45.827L82.253,45.887L82.678,45.997L82.807,46.049L82.974,46.183L83.030,46.198L83.164,46.196L83.232,46.226L83.341,46.336L83.417,46.355L83.589,46.363L83.626,46.420L83.627,46.512L83.690,46.625L83.793,46.661L84.103,46.690L84.218,46.744L84.248,46.799L84.264,46.929L84.296,46.993L84.513,47.116L84.583,47.134L84.721,47.155L84.790,47.183L84.830,47.232L84.834,47.285L84.852,47.328L84.933,47.351L85.243,47.376L85.286,47.533L85.310,47.893L85.376,48.049L85.412,48.070L85.455,48.065L85.500,48.054L85.540,48.054L85.571,48.081L85.567,48.119L85.554,48.161L85.556,48.204L85.585,48.293L85.596,48.371L85.621,48.447L85.692,48.531L85.847,48.627L85.972,48.660L86.081,48.709L86.295,48.978L86.576,49.175L86.692,49.296L86.929,49.418L87.336,49.570L87.669,49.760L87.678,49.912L87.682,49.992L87.630,50.061L87.518,50.272L87.299,50.565L87.166,50.845L87.107,50.896L87.038,50.933L86.973,50.981L86.926,51.062L87.056,51.105L87.067,51.207L87.029,51.338L87.013,51.463L87.060,51.606L87.136,51.671L87.240,51.715L87.374,51.791L87.488,51.904L87.654,52.124L87.784,52.208L88.070,52.269L88.179,52.348L88.202,52.528L88.204,52.694L88.268,52.736L88.369,52.732L88.482,52.759L88.572,52.868L88.576,53.000L88.511,53.128L88.397,53.222L88.271,53.292L88.135,53.390L88.023,53.509L87.968,53.644L87.992,53.791L88.101,53.759L88.380,53.565L88.502,53.601L88.578,53.720L88.635,53.869L88.703,53.994L88.811,54.080L89.215,54.220L89.436,54.249L89.924,54.226L90.415,54.420L90.540,54.499L90.613,54.591L90.653,54.902L90.709,55.025L90.869,55.097L91.029,55.085L91.144,55.044L91.228,55.060L91.294,55.217L91.382,55.337L91.526,55.345L91.827,55.271L91.901,55.351L91.982,55.548L92.109,55.647L92.161,55.752L92.206,55.785L92.270,55.787L92.396,55.745L92.459,55.743L92.749,55.853L92.811,55.899L92.860,56.014L92.864,56.088L92.897,56.140L93.035,56.185L93.132,56.235L93.215,56.324L93.273,56.433L93.294,56.540L93.297,56.603L93.312,56.643L93.344,56.675L93.463,56.756L93.469,56.792L93.452,56.838L93.441,56.958L93.410,57.059L93.415,57.106L93.456,57.171L93.492,57.179L93.525,57.162L93.551,57.156L93.575,57.148L93.613,57.126L93.664,57.121L93.730,57.167L93.757,57.226L93.742,57.348L93.755,57.415L93.475,58.174L93.461,58.281L93.475,58.367L93.531,58.544L93.568,58.887L93.597,58.991L93.781,59.429L93.894,59.634L94.035,59.810L94.429,60.077L94.617,60.236L94.730,60.509L94.930,60.654L95.000,60.744L94.818,60.674L94.752,60.659L94.656,60.594L94.580,60.579L94.448,60.572L94.380,60.559L94.321,60.536L94.223,60.465L94.134,60.385L94.039,60.318L93.918,60.291L93.769,60.274L93.610,60.229L93.043,59.948L92.760,59.844L92.465,59.823L92.147,59.916L91.900,60.046L91.693,60.185L91.500,60.356L91.295,60.579L91.263,60.638L91.196,60.803L91.159,60.864L91.080,60.944L91.041,60.974L90.918,60.963L90.912,60.947L90.889,60.913L90.851,60.879L90.804,60.864L90.759,60.882L90.687,60.956L90.636,60.963L90.591,60.925L90.307,60.623L90.259,60.594L90.161,60.579L89.832,60.579L89.760,60.615L89.666,60.691L89.597,60.726L89.503,60.691L89.446,60.696L89.404,60.769L89.362,60.769L89.307,60.691L89.188,60.675L89.061,60.718L88.980,60.821L88.933,60.769L88.884,60.819L88.796,60.866L88.705,60.901L88.647,60.915L88.528,60.905L88.339,60.837L88.253,60.821L88.239,60.776L88.110,60.511L88.023,60.445L87.919,60.383L87.822,60.307L87.756,60.200L87.610,60.259L87.564,60.291L87.499,60.209L87.382,60.203L87.251,60.218L87.075,60.187L86.942,60.130L86.814,60.038L86.764,59.916L86.732,59.929L86.654,59.949L86.622,59.963L86.619,59.853L86.622,59.817L86.536,59.852L86.491,59.793L86.430,59.580L86.409,59.605L86.335,59.670L86.316,59.641L86.272,59.613L86.241,59.580L86.148,59.621L86.103,59.569L86.057,59.487L85.959,59.438L85.926,59.509L85.888,59.558L85.839,59.580L85.784,59.578L85.742,59.572L85.707,59.559L85.673,59.537L85.695,59.714L85.720,59.770L85.656,59.741L85.595,59.733L85.549,59.761L85.531,59.840L85.495,59.845L85.415,59.845L85.321,59.861L85.249,59.916L85.159,59.852L85.040,59.713L84.966,59.670L84.870,59.654L84.807,59.676L84.776,59.743L84.778,59.864L84.671,59.818L84.550,59.834L84.460,59.913L84.448,60.054L84.325,59.949L84.260,59.822L84.183,59.728L84.024,59.722L84.002,59.765L83.934,59.846L83.864,59.883L83.815,59.745L83.782,59.696L83.763,59.632L83.785,59.537L83.754,59.550L83.680,59.568L83.648,59.580L83.631,59.410L83.535,59.366L83.472,59.394L83.554,59.438L83.489,59.531L83.395,59.538L83.296,59.495L83.221,59.438L83.030,59.224L82.934,59.154L82.780,59.110L82.771,59.102L82.740,59.089L82.690,59.029L82.651,59.011L82.567,59.028L82.520,59.070L82.467,59.083L82.368,59.011L82.368,58.968L82.403,58.944L82.424,58.919L82.442,58.894L82.463,58.869L82.309,58.872L82.252,58.811L82.230,58.720L82.176,58.632L82.133,58.632L82.042,58.646L81.917,58.630L81.842,58.651L81.897,58.774L81.816,58.792L81.647,58.859L81.585,58.843L81.512,58.768L81.492,58.758L81.477,58.783L81.168,58.953L81.019,58.989L80.897,58.917L80.825,59.003L80.724,59.035L80.676,59.079L80.764,59.201L80.622,59.246L80.536,59.347L80.493,59.487L80.482,59.649L80.436,59.735L80.349,59.831L80.290,59.948L80.337,60.101L80.385,60.130L80.521,60.154L80.572,60.200L80.577,60.251L80.539,60.389L80.529,60.461L80.507,60.505L80.409,60.623L80.388,60.700L80.382,60.872L80.353,60.941L80.290,61.010L80.184,61.038L79.882,61.067L79.819,61.127L79.737,61.168L79.297,61.195L79.234,61.170L79.187,61.136L79.135,61.110L79.061,61.105L79.008,61.175L78.956,61.222L78.894,61.243L78.864,61.272L78.793,61.412L78.753,61.552L78.693,61.569L78.448,61.498L78.213,61.367L77.957,61.294L77.880,61.295L77.830,61.320L77.702,61.412L77.666,61.432L77.509,61.465L77.260,61.621L77.123,61.674L77.044,61.667L76.980,61.638L76.924,61.620L76.866,61.648L76.790,61.728L76.717,61.791L76.640,61.800L76.558,61.721L76.444,61.798L76.311,61.807L75.855,61.759L75.785,61.724L75.807,61.652L75.899,61.531L75.803,61.462L75.600,61.395L75.518,61.338L75.480,61.257L75.481,61.118L75.419,61.053L75.332,61.019L75.158,60.992L75.090,60.963L75.048,60.912L74.988,60.779L74.949,60.726L74.816,60.629L74.633,60.535L74.589,60.524L74.443,60.489L74.285,60.536L74.260,60.614L74.263,60.710L74.244,60.767L74.149,60.726L74.111,60.666L74.043,60.461L74.007,60.386L73.911,60.486L73.810,60.648L73.765,60.798L73.839,60.864L74.011,60.900L74.023,60.984L73.936,61.079L73.815,61.148L73.319,61.212L73.250,61.269L73.237,61.287L73.156,61.484L73.133,61.564L73.133,61.629L73.120,61.681L73.061,61.721L73.019,61.721L72.972,61.553L72.858,61.504L72.719,61.539L72.590,61.622L72.397,61.874L72.327,61.911L72.234,61.891L72.101,61.797L72.022,61.768L71.892,61.788L71.774,61.857L71.598,62.005L71.245,62.171L71.123,62.247L71.020,62.146L70.979,62.131L70.935,62.152L70.905,62.195L70.882,62.264L70.880,62.341L70.912,62.410L70.918,62.500L70.753,62.499L70.460,62.436L70.411,62.449L70.339,62.511L70.276,62.531L70.225,62.525L70.090,62.488L70.010,62.480L69.885,62.520L69.620,62.710L69.467,62.768L69.157,62.807L69.018,62.850L68.751,63.003L68.434,63.081L68.286,63.147L67.869,63.480L67.747,63.526L67.586,63.544L67.471,63.598L67.394,63.688L67.345,63.811L67.332,63.890L67.333,63.951L67.327,64.001L67.293,64.052L67.238,64.074L67.110,64.069L67.057,64.099L66.939,64.030L66.820,63.986L66.695,63.964L66.561,63.957L66.538,63.940L66.462,63.860L66.445,63.836L66.415,63.819L66.263,63.789L66.206,63.767L66.116,63.574L65.926,63.455L65.902,63.431L65.818,63.382L65.647,63.141L65.543,63.052L65.234,63.208L65.065,63.236L64.913,63.171L64.839,63.107L64.760,63.054L64.675,63.018L64.582,63.005L64.499,62.966L64.457,62.875L64.429,62.772L64.354,62.626L64.281,62.439L64.224,62.384L64.139,62.378L64.056,62.409L63.976,62.451L63.895,62.480L63.795,62.476L63.731,62.455L63.679,62.459L63.613,62.531L63.572,62.617L63.569,62.702L63.599,62.784L63.660,62.863L63.603,62.931L63.451,63.048L63.372,63.238L63.258,63.218L63.125,63.146L63.021,63.104L62.905,63.146L62.838,63.247L62.761,63.483L62.707,63.589L62.647,63.676L62.573,63.749L62.474,63.811L62.476,63.893L62.517,64.033L62.526,64.099L62.509,64.148L62.442,64.269L62.427,64.313L62.406,64.349L62.312,64.420L62.291,64.457L62.292,64.621L62.278,64.695L62.239,64.763L62.144,64.811L61.997,64.824L61.693,64.814L61.570,64.887L61.532,65.056L61.546,65.247L61.581,65.383L61.700,65.525L61.717,65.577L61.686,65.653L61.621,65.728L61.539,65.786L61.460,65.809L61.405,65.874L61.204,66.244L61.207,66.323L61.248,66.468L61.251,66.529L61.212,66.598L61.085,66.708L61.058,66.740L61.005,66.848L60.882,66.967L60.639,67.140L60.598,67.157L60.463,67.213L60.399,67.240L59.576,67.282L58.914,67.132L58.759,67.033L58.601,66.973L58.531,66.930L58.403,66.796L58.367,66.766L58.233,66.719L57.884,66.651L57.738,66.583L57.547,66.493L57.496,66.477L57.414,66.480L57.379,66.489L57.350,66.505L57.284,66.529L57.140,66.555L56.738,66.529L56.574,66.499L56.465,66.428L56.369,66.348L56.244,66.288L56.182,66.279L55.983,66.288L55.907,66.277L55.872,66.251L55.853,66.220L55.820,66.193L55.674,66.139L55.575,66.127L55.341,66.145L55.080,66.123L54.963,66.133L54.301,66.477L54.230,66.445L54.094,66.444L54.019,66.430L53.968,66.397L53.917,66.349L53.853,66.306L53.764,66.288L53.465,66.301L53.333,66.290L53.175,66.244L53.061,66.193L52.731,65.981L52.697,65.932L52.652,65.883L52.579,65.861L52.489,65.867L52.424,65.884L52.372,65.913L52.320,65.952L52.278,65.997L52.240,66.054L52.193,66.108L52.131,66.145L52.045,66.151L51.990,66.116L51.940,66.073L51.871,66.051L51.732,66.043L51.681,66.022L51.626,65.908L51.542,65.866L51.374,65.809L51.304,65.723L51.172,65.481L51.115,65.430L51.002,65.409L50.339,65.165L49.705,65.028L49.435,65.047L49.341,65.097L49.261,65.161L49.156,65.217L48.990,65.241L48.443,65.241L47.855,65.331L47.697,65.295L47.556,65.202L46.845,64.533L46.815,64.504L46.744,64.354L46.779,64.221L46.849,64.105L46.889,64.004L46.844,63.861L46.732,63.705L46.596,63.578L46.480,63.526L46.423,63.476L46.273,63.147L46.137,62.932L46.033,62.818L45.920,62.768L45.777,62.750L45.453,62.643L45.328,62.579L45.194,62.467L44.880,62.079L44.749,61.993L44.292,61.816L44.073,61.666L43.911,61.526L43.724,61.412L43.113,61.282L42.944,61.220L42.872,61.127L42.838,61.019L42.719,60.816L42.664,60.723L42.584,60.627L42.488,60.561L42.174,60.414L41.965,60.371L41.826,60.305L41.763,60.291L40.977,60.275L40.723,60.157L40.584,60.184L40.367,60.291L40.225,60.306L39.777,60.291L39.622,60.329L39.520,60.423L39.375,60.627L38.759,61.010L38.436,61.160L38.386,61.219L38.282,61.400L38.151,61.579L38.036,61.606L37.719,61.603L37.603,61.648L37.538,61.710L37.376,61.864L37.278,61.989L37.200,62.152L37.140,62.369L37.106,62.436L37.049,62.498L36.987,62.543L36.938,62.600L36.882,62.865L36.789,62.965L36.668,63.043L36.542,63.147L36.307,63.550L36.277,63.574L36.144,63.623L36.114,63.649L36.098,63.659L36.020,63.862L35.785,64.052L35.618,64.288L35.264,65.167L35.101,65.395L34.879,65.556L34.557,65.667L34.417,65.696L34.278,65.705L34.143,65.678L34.015,65.598L33.882,65.588L33.747,65.717L33.644,65.900L33.611,66.051L33.665,66.169L33.855,66.331L33.897,66.406L33.933,66.539L34.180,66.998L34.270,67.270L34.365,67.856L34.357,68.297L34.331,68.465L34.283,68.621L34.139,68.859L34.125,69.014L34.127,69.101L34.133,69.329L33.996,70.190L34.226,71.806L33.923,71.802L33.839,71.718L33.730,71.462L33.447,71.005L33.335,70.872L33.162,70.729L33.073,70.734L32.996,70.826L32.870,70.950L32.808,70.977L32.691,70.970L32.612,70.980L32.582,71.009L32.553,71.104L32.527,71.129L32.478,71.128L32.401,71.089L32.359,71.080L31.810,71.129L31.734,71.127L31.672,71.109L31.621,71.126L31.580,71.221L31.531,71.431L31.504,71.499L31.425,71.618L31.304,71.733L31.159,71.802L31.010,71.782L30.919,71.681L30.832,71.404L30.711,71.285L30.473,71.205L30.232,71.207L29.998,71.271L29.783,71.376L29.697,71.385L29.631,71.360L29.387,71.205L29.351,71.190L29.312,71.220L29.048,71.349L28.918,71.387L28.819,71.367L28.772,71.258L28.740,71.120L28.675,70.993L28.586,70.892L28.482,70.830L28.422,70.825L28.289,70.852L28.225,70.851L28.182,70.826L28.115,70.749L28.068,70.728L28.019,70.730L27.939,70.761L27.902,70.768L27.338,70.769L27.059,70.728L26.809,70.617L26.553,70.402L26.522,70.384L26.426,70.374L26.392,70.347L26.365,70.255L26.335,70.224L26.177,70.200L26.065,70.249L25.961,70.326L25.871,70.372L25.604,70.511L25.466,70.685L25.319,70.823L25.068,70.841L24.890,70.781L24.802,70.772L24.702,70.808L24.607,70.888L24.550,70.962L24.488,71.026L24.373,71.078L24.274,71.093L23.998,71.084L23.903,71.111L23.717,71.183L23.623,71.198L23.437,71.186L23.375,71.201L23.260,71.256L23.212,71.288L23.135,71.355L23.077,71.381L23.035,71.384L22.942,71.371L22.889,71.382L22.797,71.413L22.741,71.379L22.691,71.320L22.615,71.277L22.547,71.271L22.356,71.294L22.293,71.282L22.167,71.235L22.102,71.218L22.001,71.228L21.992,71.285L22.011,71.359L21.997,71.418L21.862,71.487L21.717,71.495L21.149,71.352L21.010,71.342L20.851,71.352L20.527,71.447L20.245,71.634L20.033,71.893L19.922,72.202L19.861,72.783L19.689,73.219L19.684,73.390L19.645,73.539L19.408,73.871L19.328,74.030L19.323,74.201L19.378,74.348L19.450,74.490L19.503,74.645L19.457,74.894L19.191,75.410L19.210,75.716L19.294,75.847L19.394,75.960L19.454,76.085L19.422,76.252L19.226,76.673L19.066,77.014L18.971,77.217L18.678,77.844L18.364,78.513L18.142,78.988L17.829,79.658L17.475,80.415L17.448,80.394L17.358,80.342L17.369,80.276L17.408,80.187L17.405,80.129L17.380,80.105L17.284,80.044L17.263,80.010L17.255,79.872L17.242,79.809L17.217,79.746L17.169,79.674L17.039,79.524L16.952,79.353L16.898,79.208L16.888,79.151L16.888,78.892L16.857,78.765L16.769,78.603L16.742,78.513L16.748,78.359L16.856,78.121L16.888,77.988L16.867,77.846L16.761,77.604L16.742,77.462L16.765,77.385L16.818,77.282L16.880,77.188L16.802,77.170L16.714,77.164L16.621,77.178L16.551,77.176L16.528,77.116L16.533,77.019L16.506,76.783L16.532,76.600L16.718,76.413L16.775,76.249L16.756,76.065L16.687,75.909L16.603,75.764L16.501,75.534L16.355,75.320L16.300,75.262L16.228,75.230L16.161,75.227L16.087,75.244L15.995,75.277L15.966,75.248L15.941,75.215L15.923,75.177L15.831,74.828L15.775,74.692L15.660,74.548L15.526,74.436L15.414,74.397L15.118,74.429L15.091,74.419L15.017,74.370L14.976,74.362L14.941,74.376L14.861,74.421L14.833,74.429L14.747,74.416L14.693,74.399L14.641,74.366L14.124,73.815L13.477,73.125L12.795,72.398L12.079,71.632L11.498,71.014L11.033,70.517L10.966,70.446L10.405,69.848L9.810,68.968L9.404,67.994L9.522,67.994L9.743,68.050L9.857,68.065L9.991,68.037L10.262,67.908L10.413,67.871L10.549,67.813L10.533,67.737L10.450,67.679L10.344,67.662L10.248,67.662L10.207,67.617L10.185,67.519L10.140,67.422L10.036,67.382L9.932,67.395L9.853,67.330L9.807,67.144L9.796,66.749L9.726,66.329L9.664,66.139L9.559,65.943L9.320,65.647L9.275,65.553L9.228,65.377L9.183,65.307L9.101,65.257L8.799,65.149L7.706,64.392L7.458,64.150L7.275,63.858L7.185,63.529L7.138,63.003L7.092,62.885L7.100,62.840L7.129,62.763L7.160,62.593L7.166,62.523L7.066,61.867L7.029,61.783L6.989,61.715L6.964,61.645L6.980,61.459L6.948,61.393L6.904,61.334L6.877,61.255L6.881,61.155L6.883,61.125L6.932,60.868L6.901,60.600L6.903,60.250L6.873,60.092L6.822,59.933L6.746,59.789L6.635,59.679L6.491,59.609L6.194,59.509L6.051,59.417L5.942,59.293L5.914,59.218L5.971,59.201L6.050,59.127L6.111,59.010L6.149,58.887L6.163,58.796L6.196,58.767L6.266,58.660L6.324,58.544L6.326,58.490L6.417,58.458L6.448,58.379L6.441,58.180L6.464,58.065L6.564,57.869L6.587,57.797L6.597,57.587L6.585,57.501L6.540,57.392L6.443,57.228L6.408,57.133L6.399,57.013L6.417,56.904L6.540,56.590L6.635,56.212L6.681,56.112L6.632,55.971L6.587,55.231L6.487,55.103L6.453,54.964L6.362,54.825L6.277,54.820L6.090,54.935L5.988,54.947L5.772,54.922L5.654,54.921L5.541,54.844L5.489,54.735L5.459,54.614L5.411,54.502L5.311,54.395L5.209,54.313L5.130,54.217L5.072,54.161L5.015,54.078L5.000,54.023L5.021,53.976L5.072,53.919L5.105,53.913L5.177,53.967L5.213,53.967L5.243,53.937L5.267,53.878L5.289,53.848L5.319,53.781L5.313,53.745L5.307,53.706L5.299,53.682L5.390,53.598L5.550,53.443L5.654,53.412L5.853,53.216L5.956,53.086L6.018,52.974L6.304,52.977L7.287,52.504L7.396,52.417L7.654,52.084L7.724,51.956L7.740,51.880L7.738,51.804L7.708,51.641L7.723,51.562L7.896,51.325L8.686,49.530L8.759,49.364L8.853,49.257L8.965,49.181L9.379,48.973L9.463,48.902L9.515,48.805L9.632,48.489L9.778,48.199L10.005,47.598L10.113,47.169L10.163,47.039L10.238,46.924L10.301,46.883L10.459,46.809L10.517,46.738L10.536,46.667L10.502,46.264L10.511,46.199L10.543,46.122L10.638,45.963L10.768,45.635L10.924,45.502L11.026,45.415L11.556,45.117L11.881,44.866L11.908,44.826L11.965,44.711L12.004,44.671L12.049,44.662L12.178,44.655L12.208,44.648L12.223,44.557L12.089,44.432L12.116,44.323L12.488,43.820L12.541,43.721L12.779,43.798L13.030,43.814L13.532,43.746L13.834,43.770L14.188,44.100L14.453,44.191L14.698,44.174L15.604,43.965L15.727,43.915L15.951,43.777L16.052,43.679L16.204,43.464L16.300,43.363L16.415,43.300L16.568,43.250L17.007,43.192L17.240,43.112L17.399,43.114L17.547,43.095L17.686,43.011L17.924,42.829L18.068,42.772L18.675,42.685L18.759,42.629L18.788,42.532L18.787,42.060L18.823,41.914L18.928,41.828L19.002,41.829L19.064,41.860L19.134,41.881L19.228,41.856L19.271,41.803L19.355,41.621L19.399,41.552L19.509,41.459L19.630,41.396L19.902,41.315L19.912,41.372L19.916,41.435L19.912,41.499L19.875,41.710L19.906,41.837L19.981,41.941L20.093,42.024L20.165,42.054L20.231,42.070L20.291,42.098L20.346,42.160L20.381,42.257L20.367,42.329L20.337,42.398L20.324,42.484L20.353,42.636L20.425,42.712L20.691,42.790L20.854,42.871L21.013,42.996L21.267,43.282L21.418,43.534L21.513,43.597L21.672,43.580L21.723,43.552L21.738,43.539L21.888,43.414L21.908,43.415L21.982,43.425L22.006,43.414L22.019,43.359L21.996,43.326L21.966,43.295L21.960,43.247L22.012,43.109L22.086,43.019L22.190,42.961L22.459,42.883L22.756,42.837L22.889,42.850L22.937,42.767L22.996,42.726L23.070,42.719L23.282,42.755L23.303,42.723L23.296,42.665L23.328,42.601L23.422,42.519L23.559,42.565L23.636,42.607L23.672,42.646L23.716,42.649L23.815,42.586L23.948,42.459L24.189,42.165L24.314,42.050L24.367,42.042L24.424,42.052L24.469,42.021L24.492,41.892L24.535,41.813L24.625,41.726L24.631,41.720L24.743,41.642L25.673,41.311L25.812,41.224L25.903,41.119L26.229,41.217L26.311,41.163L26.372,41.006L26.486,40.924L26.625,40.891L26.873,40.866L27.017,40.825L27.150,40.757L27.292,40.560L27.425,40.516L27.576,40.508L27.700,40.515L28.648,40.675L28.934,40.687L29.203,40.638L29.751,40.432L30.393,40.279L33.412,40.200L33.970,40.080L34.168,39.787L34.173,39.450L34.310,39.179L34.545,38.972L34.838,38.825L35.242,38.687L35.363,38.626L35.513,38.494L35.802,38.054L36.026,37.838L36.122,37.715L36.184,37.546L36.254,37.413L36.943,36.626L37.225,36.070L37.300,36.027L37.365,35.990L37.433,35.881L37.658,35.727L37.518,35.567L37.309,35.411L37.200,35.348L37.138,35.237L36.313,34.884L36.232,34.824L36.199,34.732L36.179,34.615L36.133,34.549L36.020,34.611L35.904,34.517L35.904,34.415L36.063,34.180L36.122,34.208L36.186,34.206L36.235,34.174L36.256,34.111L36.271,34.039L36.310,34.015L36.364,34.004L36.472,33.944L36.608,33.901L36.636,33.874L36.654,33.823L36.697,33.774L36.799,33.683L36.953,33.574L37.220,33.443L37.495,33.366L37.676,33.422L37.724,33.422L37.782,33.412L37.966,33.456L38.006,33.446L38.041,33.366L38.126,33.332L38.408,33.317L38.549,33.278L38.617,33.276L38.700,33.319L38.772,33.383L38.839,33.406L38.904,33.327L38.983,33.381L39.100,33.426L39.231,33.457L39.349,33.469L39.440,33.450L39.704,33.351L39.768,33.382L40.295,33.375L40.331,33.386L40.359,33.406L40.396,33.410L40.462,33.375L40.620,33.379L40.822,33.296L41.033,33.252L41.215,33.375L41.328,33.324L41.628,33.329L41.690,33.301L41.725,33.270L41.891,33.198L41.951,33.185L42.031,33.180L42.212,33.133L42.356,33.117L42.934,33.150L43.022,33.112L43.107,32.991L43.205,33.037L43.228,33.032L43.306,33.014L43.483,32.896L43.534,32.888L43.596,32.894L43.648,32.885L43.671,32.827L43.677,32.787L43.693,32.748L43.717,32.719L43.744,32.707L43.796,32.734L43.820,32.840L43.864,32.849L43.906,32.820L43.903,32.785L43.892,32.746L43.911,32.707L44.114,32.539L44.170,32.513L44.227,32.523L44.321,32.562L44.382,32.565L44.389,32.541L44.383,32.492L44.393,32.444L44.452,32.423L44.504,32.460L44.563,32.543L44.645,32.626L44.762,32.664L44.865,32.633L45.061,32.497L45.163,32.466L45.234,32.487L45.313,32.538L45.468,32.664L45.605,32.634L46.174,32.664L46.305,32.638L46.347,32.614L46.474,32.521L46.540,32.486L46.613,32.478L46.697,32.513L46.836,32.366L46.921,32.194L47.018,32.051L47.193,31.992L47.233,31.918L47.162,31.754L47.117,31.592L47.242,31.518L47.326,31.503L47.376,31.461L47.401,31.395L47.407,31.307L47.432,31.239L47.495,31.249L47.642,31.333L47.651,31.326L47.780,31.334L47.784,31.333L47.900,31.370L47.948,31.376L48.301,31.376L48.212,31.091L48.494,30.949L48.805,30.854L48.871,30.803L48.922,30.854L48.982,30.789L49.013,30.709L49.050,30.641L49.132,30.613L49.159,30.598L49.200,30.533L49.226,30.518L49.258,30.534L49.303,30.563L49.308,30.565L49.352,30.583L49.392,30.570L49.437,30.437L49.449,30.262L49.498,30.110L49.652,30.045L49.724,29.984L49.989,29.694L50.048,29.592L50.074,29.518L50.138,29.467L50.287,29.381L50.319,29.320L50.331,29.259L50.368,29.234L50.475,29.282L50.465,29.191L50.454,29.169L50.424,29.140L50.424,29.092L50.522,29.060L50.564,28.972L50.570,28.737L50.592,28.631L50.689,28.443L50.711,28.311L50.728,28.281L50.768,28.244L50.814,28.211L50.852,28.192L50.860,28.182L50.867,28.164L50.885,28.148L50.924,28.140L50.956,28.156L51.020,28.223L51.045,28.235L51.095,28.213L51.145,28.179L51.233,28.097L51.260,28.090L51.291,28.098L51.316,28.099L51.327,28.071L51.321,27.976L51.327,27.951L51.430,27.698L51.501,27.576L51.882,27.328L51.938,27.313L51.959,27.204L52.009,27.108L52.362,26.699L52.461,26.620L52.557,26.680L52.839,26.790L52.932,26.809L53.172,26.718L53.396,26.492L53.579,26.211L53.938,25.391L54.129,25.139L54.348,25.004L54.414,25.013L54.498,25.042L54.585,25.058L54.657,25.028L54.682,25.042L54.902,24.973L54.939,24.952L55.116,24.909L55.203,24.801L55.258,24.663L55.341,24.526L55.399,24.501L55.478,24.494L55.547,24.472L55.576,24.407L55.570,24.350L55.540,24.248L55.533,24.173L55.558,24.027L55.769,23.673L55.718,23.623L55.712,23.576L55.723,23.530L55.722,23.483L55.679,23.422L55.558,23.283L55.533,23.218L55.518,23.104L55.455,22.838L55.440,22.697L55.455,22.562L55.518,22.357L55.533,22.221L55.573,22.112L55.669,22.046L55.785,22.015L55.889,22.006L55.929,21.984L55.960,21.934L56.002,21.886L56.075,21.864L56.131,21.855L56.262,21.820L56.333,21.812L56.470,21.880L56.545,21.895L56.578,21.838L56.603,21.828L56.762,21.678L56.973,21.533L57.093,21.476L57.512,21.372L57.586,21.294L57.519,21.148L57.564,21.053L57.612,20.910L57.689,20.779L57.821,20.722L58.398,20.780L58.507,20.765L58.701,20.866L58.794,20.720L58.869,20.502L59.067,20.340L59.141,20.244L59.230,20.178L59.336,20.222L59.392,20.225L59.466,20.174L59.595,20.058L59.683,20.011L59.826,19.953L59.975,19.912L60.000,19.908L60.187,19.878L60.292,19.847L60.376,19.794L60.503,19.649L60.568,19.602L60.660,19.585L60.769,19.605L60.869,19.638L60.952,19.645L61.015,19.585L61.172,19.726L61.317,19.736L61.464,19.694L61.628,19.675L61.685,19.693L61.817,19.756L61.886,19.770L62.126,19.763L62.192,19.770L62.449,19.836L62.622,19.980L63.042,20.114L63.422,20.152Z" fill="currentColor" stroke="currentColor" stroke-width="1" stroke-linejoin="round"/>
</svg>