<svg xmlns="http://www.w3.org/2000/svg" viewBox="0 0 100 100" role="img" aria-label="Switzerland">
  <title>Switzerland</title>
  <path d="M94.744,48.441L94.639,49.379L94.567,49.642L94.450,49.827L94.015,50.352L94.052,50.786L94.194,51.210L94.243,51.612L94.002,51.980L93.664,52.197L93.584,52.464L93.602,52.796L93.559,53.210L93.367,53.554L93.151,53.761L93.056,54.038L93.223,54.595L93.584,55.017L94.433,55.109L94.849,55.461L95.000,56.023L94.986,56.775L94.827,57.498L94.705,57.701L94.549,57.963L94.188,58.033L92.759,57.654L92.064,57.721L91.809,57.678L91.584,57.574L91.458,57.440L91.353,57.293L91.196,57.153L90.374,56.868L90.285,56.552L90.394,55.953L90.355,55.624L90.038,55.362L89.524,55.366L87.636,55.914L87.444,56.020L87.357,56.235L87.112,57.186L86.947,57.409L86.516,57.843L86.345,58.102L86.318,58.311L86.314,58.951L86.228,59.261L86.252,59.531L86.300,59.743L86.397,59.906L86.570,60.025L86.217,60.629L86.531,61.024L87.116,61.254L88.009,61.429L88.353,61.569L88.500,61.893L88.349,62.528L88.205,62.724L87.786,63.104L87.636,63.387L87.535,63.781L87.522,64.048L87.603,64.293L87.784,64.619L88.607,65.467L88.862,65.986L88.601,66.544L88.044,66.899L87.203,67.223L86.543,67.209L86.527,66.551L86.325,66.056L85.537,65.348L85.244,64.947L85.114,64.308L85.106,63.732L84.974,63.257L84.475,62.926L84.065,62.818L83.677,62.789L82.807,62.940L81.480,63.630L81.065,63.766L80.810,63.710L80.323,63.414L80.109,63.408L79.892,63.656L79.853,63.989L79.884,64.320L79.876,64.549L79.571,64.977L79.195,65.131L76.909,65.104L76.445,64.932L76.023,64.641L75.769,64.287L75.371,63.236L75.194,63.088L74.753,62.841L74.608,62.698L74.569,62.534L74.598,62.090L74.478,59.294L74.414,59.111L74.258,59.147L73.936,59.386L73.800,59.572L73.730,59.779L73.633,59.954L73.417,60.041L73.266,59.975L72.757,59.486L72.742,59.125L72.347,59.019L71.376,59.139L70.994,59.496L70.648,60.198L70.491,60.912L70.683,61.306L70.949,61.492L70.988,61.784L70.936,62.152L70.939,62.568L71.207,63.602L71.233,63.977L71.110,64.619L70.526,65.854L70.229,66.898L70.048,67.193L69.817,67.411L69.578,67.526L69.361,67.688L69.250,67.977L69.157,68.313L69.011,68.594L69.001,68.615L67.551,69.609L67.182,70.170L67.104,70.547L67.147,71.204L67.083,71.562L66.925,71.835L66.735,71.948L66.298,72.088L65.787,72.490L65.700,72.821L66.055,73.836L65.399,74.452L65.356,74.525L65.341,74.600L65.356,74.674L65.399,74.748L65.613,74.969L65.778,75.499L65.960,75.773L66.153,75.886L66.588,75.975L66.776,76.097L67.003,76.581L66.927,77.076L66.430,78.063L65.793,78.861L65.193,78.746L64.539,78.450L63.750,78.695L63.824,78.246L63.943,77.900L64.024,77.538L63.991,77.034L63.879,76.653L63.713,76.272L63.366,75.644L63.170,75.178L63.040,74.993L62.906,74.886L61.762,74.261L61.457,74.151L61.115,74.129L61.148,74.050L61.224,73.910L61.575,73.091L62.146,72.384L62.440,71.701L61.933,71.020L61.632,70.913L61.020,70.928L60.700,70.883L60.548,70.777L60.402,70.505L60.338,70.481L60.237,70.443L60.113,70.502L59.804,70.780L59.661,70.862L59.311,70.844L58.381,70.292L57.996,70.157L57.802,70.056L56.542,68.167L55.975,67.577L55.425,67.295L54.903,67.083L54.536,66.776L54.318,66.307L54.239,65.596L54.307,64.846L54.631,63.336L54.699,62.497L54.689,61.617L54.606,60.959L54.332,60.558L53.759,60.456L53.495,60.514L52.648,60.698L52.105,60.996L51.681,61.451L51.514,61.821L51.590,61.945L51.722,62.046L51.730,62.341L51.611,62.608L51.413,62.848L51.184,63.025L50.619,63.314L49.638,64.625L49.225,64.915L48.359,65.111L47.929,65.313L47.539,65.714L47.339,65.998L47.254,66.244L47.325,66.357L47.790,66.768L48.380,67.922L48.436,68.991L48.003,69.935L47.131,70.704L46.914,70.777L46.502,70.823L46.302,70.979L46.160,71.279L46.116,71.613L46.114,71.940L46.009,72.770L45.972,72.829L45.778,73.262L45.764,73.326L45.514,73.656L45.372,73.776L45.180,73.836L43.766,74.162L43.478,74.397L43.262,74.819L43.207,75.374L42.797,75.393L42.772,75.440L42.711,75.740L42.727,75.892L42.680,75.990L42.430,76.129L42.315,76.123L41.958,76.011L41.410,76.022L40.451,75.665L40.255,75.687L40.105,75.760L39.938,75.800L39.692,75.714L39.663,75.641L39.288,75.083L38.989,74.800L38.676,74.617L36.643,74.098L36.309,74.275L36.115,74.606L35.897,74.897L35.478,74.951L34.885,75.213L33.705,76.093L33.066,76.321L31.567,76.159L31.306,76.251L30.745,76.605L29.514,77.120L28.912,77.234L28.260,77.246L27.648,77.118L27.184,76.835L26.290,75.814L26.151,75.579L26.044,75.285L25.904,74.752L25.675,74.147L25.603,73.836L25.506,73.770L24.156,72.219L23.702,72.015L23.535,72.085L23.393,72.234L23.240,72.351L23.051,72.324L22.875,72.189L22.863,72.098L22.904,71.976L22.896,71.750L22.925,71.722L22.919,71.417L22.884,71.128L22.828,71.157L22.919,71.006L23.080,70.807L23.220,70.585L23.240,70.362L22.935,70.062L21.348,69.706L21.175,69.217L21.358,68.218L21.704,67.175L22.412,65.781L21.958,64.991L21.251,64.231L20.870,63.565L20.977,63.229L21.502,62.605L21.645,62.117L21.622,61.831L21.601,61.564L21.415,61.275L21.115,61.124L18.143,60.348L16.813,60.305L15.535,60.561L13.834,61.739L13.187,61.906L12.531,61.937L11.917,62.138L11.269,62.705L10.700,63.465L10.280,64.043L10.173,64.441L10.255,64.732L10.439,65.227L10.449,65.345L10.641,65.827L10.725,65.950L10.933,66.060L11.267,65.905L11.408,65.967L11.511,66.638L10.995,67.191L9.719,68.048L8.701,69.258L8.053,69.595L7.375,69.288L6.466,69.324L5.561,69.542L5.080,69.833L5.346,69.200L5.499,68.907L5.561,68.657L5.208,68.208L5.000,67.809L5.074,67.458L5.561,67.145L6.757,66.551L6.790,66.541L6.822,66.538L6.860,66.541L7.016,66.592L7.136,66.607L7.251,66.593L7.690,66.455L7.777,66.260L7.758,65.991L7.769,65.676L7.911,64.851L7.977,64.623L8.267,63.966L8.622,63.162L8.596,62.840L8.352,62.399L8.059,62.079L7.079,61.471L6.983,61.411L7.212,61.190L7.249,60.998L7.208,60.801L7.208,60.578L7.194,60.489L7.146,60.368L7.103,60.231L7.103,60.082L7.181,59.904L7.408,59.657L8.103,58.456L8.808,57.558L8.325,57.014L8.264,56.630L8.532,56.276L11.214,53.806L12.643,53.018L12.840,52.850L13.366,52.254L14.028,51.902L14.238,51.744L14.463,51.461L14.539,51.219L14.531,50.727L14.383,50.563L14.277,50.420L14.222,50.256L14.251,50.114L14.564,49.166L14.702,48.916L14.741,48.819L14.813,48.637L14.846,48.233L14.783,47.911L14.517,47.403L14.434,47.140L14.731,46.117L15.698,45.557L17.844,44.882L19.175,43.869L19.630,43.212L19.391,42.671L19.659,42.208L19.847,42.023L20.348,41.844L20.422,41.659L20.496,41.608L20.783,41.460L20.758,40.962L21.356,40.754L22.619,39.589L22.663,39.549L23.042,38.925L23.622,38.331L24.976,37.342L24.896,36.619L25.024,36.021L25.399,35.637L25.580,35.615L25.688,35.573L25.978,35.182L26.186,35.060L26.391,35.005L26.578,34.886L26.733,34.566L26.525,34.270L26.226,34.000L25.929,33.760L25.562,33.935L23.189,34.167L23.288,33.795L23.535,33.339L23.830,32.956L24.343,32.657L24.374,32.107L24.898,31.991L25.222,31.806L25.519,31.555L25.669,31.309L25.572,30.962L25.366,30.559L25.316,30.235L25.688,30.123L25.865,29.985L26.044,29.939L26.226,29.985L26.407,30.123L26.925,30.197L27.918,30.025L28.388,30.123L28.648,30.271L28.685,30.277L28.914,30.313L29.456,30.259L29.093,31.086L29.207,31.562L29.640,31.819L30.225,32.001L30.308,32.067L30.363,32.172L30.444,32.277L30.598,32.342L30.732,32.315L31.487,31.989L32.015,31.880L32.570,31.903L33.400,31.938L33.593,31.861L33.955,31.717L34.238,31.349L34.349,31.206L34.412,30.934L34.379,30.769L34.283,30.633L34.217,30.562L34.116,30.382L34.114,30.203L34.346,30.135L34.656,30.242L34.746,30.299L34.915,30.406L35.173,30.444L35.478,30.172L35.513,30.123L35.540,30.040L35.542,29.964L35.539,29.953L35.522,29.891L35.379,29.693L35.336,29.575L35.363,29.483L35.478,29.421L35.684,29.465L35.845,29.412L35.932,29.246L35.926,28.955L35.858,28.956L35.526,28.705L35.478,28.685L36.239,28.069L36.348,27.980L36.827,27.716L37.528,27.455L37.539,27.451L38.556,27.149L39.008,27.102L38.746,27.832L38.534,28.034L38.064,28.030L38.012,28.030L38.753,28.417L39.043,28.569L39.482,28.627L40.357,28.447L41.144,28.286L41.519,28.075L41.836,27.699L42.199,27.138L42.480,27.280L43.766,27.357L43.888,27.482L43.952,27.755L43.991,28.028L44.044,28.152L46.640,28.152L47.537,27.953L47.731,27.823L47.819,27.696L47.900,27.549L48.069,27.357L48.232,27.232L48.665,27.000L49.029,26.893L49.166,26.750L49.265,26.608L49.368,26.542L50.444,26.362L50.805,26.361L51.322,26.518L51.553,26.542L51.660,26.668L51.767,26.949L51.908,27.230L52.103,27.357L52.860,27.555L54.136,27.563L54.197,27.553L54.751,27.460L54.775,27.322L55.008,26.823L55.618,26.424L56.216,26.364L56.524,26.649L56.761,27.043L56.802,27.094L56.981,27.311L57.249,27.222L57.293,27.147L57.379,26.997L57.402,26.779L57.392,26.572L57.416,26.373L57.408,26.273L57.361,26.159L57.328,26.027L57.373,25.865L57.445,25.804L57.550,25.765L57.637,25.762L57.655,25.808L57.668,25.987L57.798,26.052L57.911,25.362L57.730,25.344L57.637,25.307L57.410,25.215L57.132,25.168L56.163,25.331L55.864,25.479L55.588,25.674L55.293,25.825L54.938,25.840L54.526,25.608L54.015,25.223L53.916,25.208L53.602,25.094L53.730,24.779L53.681,24.530L53.596,24.317L53.619,24.102L53.815,23.881L54.320,23.608L54.532,23.412L54.683,22.829L54.775,22.617L55.045,22.225L55.202,22.133L55.425,22.139L56.499,21.928L56.800,21.778L56.614,21.318L56.932,21.139L57.429,21.166L57.798,21.330L57.829,21.543L57.847,21.919L57.917,22.273L58.113,22.417L58.360,22.257L58.464,21.622L58.645,21.435L58.903,21.519L59.094,21.806L59.251,22.144L59.400,22.376L59.606,22.422L59.826,22.376L60.022,22.414L60.154,22.709L60.101,22.818L59.835,23.212L59.769,23.403L59.853,23.641L60.012,23.834L60.061,24.057L60.101,24.246L61.154,24.231L60.991,24.051L61.171,23.480L61.707,23.504L62.358,23.878L62.873,24.359L62.506,24.444L62.509,24.646L62.791,24.925L62.805,24.939L63.385,25.366L63.873,25.493L64.655,25.420L65.380,25.191L65.698,24.850L66.075,24.703L68.300,24.950L69.403,24.950L69.673,25.366L70.419,25.365L71.194,25.542L76.665,28.910L76.776,29.425L76.814,29.599L77.404,30.479L78.146,30.815L78.717,31.313L78.701,32.548L78.507,32.991L77.734,33.960L77.641,34.222L77.538,34.735L77.462,34.935L76.781,35.750L76.140,36.830L75.810,37.386L75.466,38.369L75.419,39.350L75.571,39.832L75.788,40.252L75.955,40.719L75.965,41.341L75.775,41.730L75.470,42.043L75.237,42.356L75.260,42.627L75.709,42.760L76.928,42.963L77.338,42.832L77.711,42.931L78.756,42.801L79.090,42.852L82.859,44.039L82.826,44.371L82.911,44.443L83.034,44.433L83.111,44.524L83.111,44.695L83.028,44.974L82.979,45.658L82.915,45.972L82.948,46.245L83.201,46.605L83.696,46.985L85.830,47.674L86.601,48.408L87.050,48.669L87.912,48.946L88.189,48.956L88.324,48.962L88.840,48.815L89.710,48.371L89.914,48.074L89.968,47.851L89.984,47.605L90.079,47.236L90.382,46.725L90.706,46.665L91.093,46.766L91.590,46.743L91.600,46.198L91.949,45.530L92.452,44.953L93.031,44.621L93.140,44.599L93.252,44.621L93.357,44.689L93.359,44.689L93.359,44.694L93.565,44.915L93.982,45.585L94.660,46.125L94.837,46.337L94.944,46.829L94.697,47.819L94.744,48.441Z" fill="currentColor" stroke="currentColor" stroke-width="1" stroke-linejoin="round"/>
</svg>