<svg xmlns="http://www.w3.org/2000/svg" viewBox="0 0 100 100" role="img" aria-label="Ivory Coast">
  <title>Ivory Coast</title>
  <path d="M16.070,12.960L16.332,13.058L16.626,13.053L16.917,12.975L17.170,12.855L17.432,12.638L17.563,12.553L17.921,12.503L18.058,12.453L18.181,12.372L18.316,12.260L18.650,11.834L18.704,11.727L18.753,11.574L18.844,11.496L18.947,11.431L19.025,11.319L19.052,11.116L19.219,10.832L19.035,10.593L19.316,10.534L19.625,10.350L19.784,10.117L19.615,9.910L19.745,9.845L19.808,9.823L19.808,9.726L19.998,9.569L20.122,9.540L20.288,9.560L20.412,9.520L20.483,9.373L20.538,9.198L20.617,9.080L20.906,9.033L21.408,9.340L21.735,9.371L21.876,9.357L22.127,9.360L22.252,9.315L22.361,9.214L22.694,8.789L22.894,8.777L23.057,8.813L23.191,8.895L23.312,9.024L23.388,9.188L23.399,9.350L23.388,9.498L23.398,9.623L23.454,9.764L23.688,10.156L23.708,10.309L23.673,10.444L23.692,10.532L23.874,10.538L24.003,10.505L24.383,10.362L24.700,10.383L24.784,10.599L24.695,11.175L24.707,11.514L24.825,11.688L25.054,11.749L25.934,11.767L27.043,11.938L28.418,12.322L28.654,12.458L28.883,12.727L29.091,13.045L29.338,13.269L29.684,13.258L30.011,13.142L30.301,12.926L30.473,12.628L30.441,12.268L30.308,12.113L30.124,11.996L29.976,11.868L29.945,11.680L30.280,10.559L30.447,10.381L30.762,10.332L31.554,10.432L31.823,10.396L32.646,10.015L32.951,9.984L33.257,10.082L33.783,10.393L34.094,10.426L34.415,10.322L34.533,10.153L34.542,10.085L34.603,9.632L34.663,9.528L34.755,9.420L34.827,9.295L34.829,9.143L34.742,9.039L34.593,8.975L34.439,8.929L34.335,8.875L34.158,8.600L34.133,8.359L34.270,7.905L34.339,7.263L34.300,7.150L34.249,7.052L34.223,6.933L34.253,6.673L34.319,6.409L34.351,6.397L34.548,6.066L34.530,6.020L34.838,5.919L35.022,6.036L35.306,6.523L35.516,6.714L35.803,6.908L36.370,7.211L36.596,7.288L37.356,7.439L37.650,7.457L37.992,7.396L38.254,7.219L38.303,6.890L38.199,6.757L38.026,6.675L37.864,6.573L37.791,6.379L37.817,5.826L37.915,5.569L38.155,5.453L38.460,5.436L38.746,5.482L39.108,5.494L39.380,5.367L39.641,5.188L39.970,5.045L40.306,5.000L40.448,5.081L40.467,5.277L40.397,5.858L40.437,5.971L40.700,6.066L40.852,6.148L40.979,6.254L41.026,6.366L40.952,6.533L40.812,6.616L40.659,6.686L40.548,6.812L40.629,7.008L40.669,7.178L40.650,7.344L40.558,7.461L40.302,7.669L40.237,7.783L40.232,7.995L40.305,8.030L40.422,7.999L40.548,8.014L40.620,8.087L40.695,8.186L40.775,8.269L40.869,8.298L41.030,8.273L41.143,8.269L41.224,8.319L41.287,8.457L41.263,8.540L41.114,8.794L41.083,8.916L41.132,9.052L41.360,9.319L41.149,9.756L41.106,10.015L41.313,10.184L40.972,10.563L40.979,10.612L41.013,10.695L41.033,10.788L41.002,10.861L40.888,10.904L40.793,10.868L40.726,10.810L40.692,10.787L40.520,10.978L40.483,11.169L40.529,11.692L40.742,11.648L40.893,11.749L41.168,12.083L41.356,12.201L42.412,12.575L43.662,12.567L43.925,12.309L44.091,12.039L44.187,11.738L44.237,11.386L44.401,11.257L45.053,11.484L45.216,11.362L45.157,10.590L45.215,10.333L45.376,10.097L45.589,9.941L46.592,9.414L48.392,9.018L49.171,8.942L49.559,8.843L49.694,8.839L49.871,8.900L50.179,9.101L50.558,9.244L50.803,9.384L51.049,9.703L51.219,10.059L51.235,10.304L51.434,10.377L51.531,10.394L51.660,10.400L51.743,10.450L51.804,10.564L51.852,10.690L51.895,10.776L52.045,10.908L52.237,11.006L52.471,11.064L52.754,11.074L52.820,11.031L52.872,10.952L52.924,10.897L52.997,10.929L53.058,10.970L53.132,10.983L53.291,10.978L53.453,10.940L53.541,10.852L53.612,10.754L53.717,10.689L53.952,10.698L54.599,10.793L54.822,10.733L55.509,11.136L55.634,11.122L55.738,10.935L55.967,10.953L56.188,11.099L56.198,11.105L56.301,11.315L56.301,12.090L56.264,12.166L56.211,12.248L56.227,12.311L56.397,12.326L56.496,12.293L56.579,12.222L56.643,12.130L56.684,12.037L56.723,12.327L56.604,12.582L56.596,12.735L56.970,12.719L56.875,12.974L56.959,13.118L57.312,13.350L57.338,13.461L57.011,13.574L56.884,13.691L57.001,13.692L57.093,13.721L57.174,13.759L57.265,13.787L57.074,13.875L57.188,14.041L57.343,14.063L57.507,13.993L57.646,13.875L57.717,14.130L57.867,14.265L58.051,14.352L58.220,14.461L58.376,14.676L58.473,14.934L58.420,15.125L58.124,15.135L58.186,15.278L58.343,15.482L58.496,15.812L58.522,15.902L58.321,16.480L58.338,16.640L58.749,17.021L58.870,17.064L58.949,16.972L59.023,16.845L59.131,16.781L59.289,16.811L59.353,16.877L59.401,16.943L59.517,16.973L59.844,16.997L60.122,17.085L60.320,17.261L60.414,17.550L60.681,17.465L60.795,17.676L60.864,17.996L60.997,18.234L60.773,18.313L60.654,18.331L60.518,18.321L60.518,18.426L60.643,18.537L60.669,18.593L60.709,18.706L60.895,18.651L61.080,18.948L61.292,18.908L61.213,18.835L61.189,18.770L61.239,18.723L61.378,18.706L61.522,18.725L61.592,18.775L61.638,18.851L61.717,18.951L61.879,19.096L61.931,19.188L61.951,19.337L61.981,19.445L62.056,19.504L62.245,19.582L62.316,19.662L62.312,19.716L62.322,19.727L62.436,19.678L62.549,19.604L62.641,19.508L62.691,19.425L62.675,19.389L62.881,19.390L63.054,19.366L63.219,19.279L63.399,19.092L63.557,19.223L63.759,19.524L63.921,19.582L64.124,19.524L64.177,19.379L64.183,19.189L64.252,18.995L64.296,18.900L64.307,18.844L64.351,18.817L64.605,18.817L64.714,18.839L64.798,18.882L64.831,18.951L64.800,19.194L64.663,19.559L64.631,19.817L64.830,20.109L65.284,20.155L65.785,20.131L66.124,20.212L66.249,20.418L66.369,20.881L66.463,21.034L66.654,21.125L66.701,20.998L66.698,20.767L66.740,20.544L66.955,20.602L67.334,20.759L67.335,20.758L67.427,20.650L67.608,20.297L67.643,20.119L67.601,19.786L67.603,19.662L67.680,19.533L68.104,19.090L67.940,19.036L67.878,19.023L68.064,18.855L68.305,18.769L68.832,18.701L69.090,18.559L69.491,17.996L69.743,17.807L69.983,17.777L70.779,18.011L70.925,18.091L71.006,18.117L71.093,18.098L71.120,18.031L71.125,17.958L71.140,17.919L71.354,17.816L71.470,17.778L71.919,17.772L72.007,17.574L72.066,17.343L72.274,17.233L72.574,17.157L73.100,16.817L73.358,16.740L73.385,16.732L74.311,16.715L74.580,16.635L74.698,16.546L74.922,16.306L75.064,16.213L75.268,16.148L75.947,16.065L76.051,16.079L76.234,16.183L76.322,16.200L76.396,16.157L76.526,15.997L76.573,15.964L76.762,16.026L76.868,16.127L76.960,16.242L77.109,16.348L77.348,16.398L78.183,16.286L80.382,16.468L80.559,16.535L80.804,16.760L80.953,16.838L81.080,16.794L81.244,16.692L81.389,16.636L81.451,16.732L81.439,17.013L81.464,17.301L81.605,17.484L81.938,17.452L82.131,17.260L82.604,16.588L82.820,16.434L82.991,16.538L82.996,16.810L82.965,17.143L83.027,17.425L83.271,17.569L83.584,17.575L83.908,17.648L84.188,17.990L84.364,18.669L84.501,18.997L84.745,19.201L84.997,19.213L85.478,19.071L85.743,19.134L85.963,19.356L86.133,19.684L86.383,20.340L87.079,21.692L88.473,23.548L88.792,23.794L89.126,23.819L89.389,23.591L89.730,22.870L90.167,22.454L90.357,22.694L90.372,22.894L90.315,23.345L90.333,23.454L90.402,23.691L90.402,24.071L90.331,24.311L90.164,24.417L89.974,24.505L89.830,24.693L89.807,24.959L89.917,25.177L90.115,25.322L90.359,25.376L90.578,25.497L90.560,25.765L90.393,26.033L89.949,26.266L89.786,26.521L89.543,27.021L89.245,27.327L89.186,27.444L89.160,28.150L89.102,28.371L88.970,28.570L89.107,28.648L89.196,28.741L89.306,28.818L89.500,28.850L89.858,28.868L90.211,28.947L90.565,29.135L90.655,29.362L90.669,29.650L90.888,30.312L90.971,30.375L91.065,30.389L91.143,30.423L91.174,30.544L91.192,30.786L91.476,31.770L91.461,31.963L91.313,32.045L91.210,32.139L91.174,32.318L91.241,32.429L91.245,32.434L91.371,32.375L91.437,32.596L92.081,36.546L92.724,40.496L92.628,40.711L92.000,41.082L91.809,41.147L91.648,41.129L91.471,41.046L91.355,41.038L91.265,41.122L91.168,41.310L91.109,41.533L91.143,41.711L91.328,42.117L91.418,42.454L91.405,42.700L91.267,42.883L90.979,43.029L90.144,43.309L89.887,43.493L89.249,44.231L89.021,44.423L89.001,44.378L88.931,44.298L88.837,44.236L88.750,44.246L88.709,44.350L88.648,45.403L88.602,45.559L88.491,45.679L88.180,45.867L88.059,45.981L88.048,46.052L88.089,46.235L88.085,46.312L88.031,46.404L87.891,46.575L87.837,46.668L86.827,48.838L86.640,49.409L85.956,53.731L85.969,53.897L86.057,54.093L86.151,54.210L86.213,54.324L86.203,54.517L86.079,54.791L85.438,55.596L85.367,55.738L85.251,56.443L85.181,56.543L84.488,56.770L84.472,56.780L84.463,56.786L84.291,56.894L82.678,59.672L82.444,60.214L82.425,60.724L82.485,60.867L82.660,61.093L82.849,61.459L82.881,61.553L82.607,62.327L82.531,62.419L82.273,62.562L82.172,62.710L82.153,62.947L83.256,67.928L83.422,68.130L83.463,68.180L83.874,68.557L84.172,69.344L84.596,71.696L84.799,72.200L85.337,73.190L85.508,73.701L85.544,74.211L85.407,75.820L86.315,75.742L86.174,76.623L86.249,76.987L86.580,77.173L86.853,77.139L87.308,76.862L87.535,76.771L88.531,77.029L88.710,77.175L88.820,77.360L88.873,77.587L88.906,78.326L89.154,79.336L89.535,80.235L89.595,80.488L89.560,80.734L89.421,80.912L89.235,80.946L88.764,80.859L88.673,81.732L88.712,81.928L88.908,82.210L88.970,82.372L88.962,82.493L88.903,82.787L88.915,82.916L88.959,82.965L89.143,83.123L89.220,83.214L89.085,83.480L88.886,83.623L88.565,83.670L88.008,83.648L87.973,83.255L87.509,83.193L86.935,83.262L86.568,83.254L86.683,83.538L86.612,83.822L86.410,84.042L86.133,84.129L85.915,84.065L85.176,83.718L84.945,83.542L84.666,83.620L84.112,83.636L83.877,83.744L83.770,83.476L83.552,83.154L83.294,82.885L83.070,82.773L82.956,82.667L83.106,82.445L83.323,82.241L83.408,82.194L83.475,81.995L83.516,81.578L83.599,81.415L83.790,81.295L83.939,81.258L84.034,81.169L84.069,80.891L84.037,80.680L83.943,80.579L83.781,80.549L83.548,80.549L83.483,80.580L83.400,80.649L83.296,80.719L83.170,80.750L83.053,80.732L82.862,80.653L82.740,80.645L82.604,80.693L82.336,80.880L82.159,80.944L82.299,81.265L82.371,81.554L82.268,81.751L81.872,81.800L81.934,81.907L81.934,82.007L81.879,82.102L81.777,82.194L81.905,82.279L81.967,82.299L81.872,82.299L82.005,82.350L82.149,82.383L82.300,82.396L82.454,82.387L82.454,82.484L82.322,82.544L82.108,82.525L81.967,82.571L81.848,82.661L81.741,82.782L81.652,82.921L81.586,83.069L81.439,82.969L81.339,83.022L81.363,83.145L81.586,83.254L81.503,83.441L81.586,83.555L81.761,83.616L81.967,83.648L81.459,84.059L80.538,84.013L76.988,83.254L76.337,83.215L75.896,83.126L75.785,83.089L75.738,83.017L75.763,82.886L75.796,82.787L75.773,82.690L75.633,82.571L75.738,82.387L75.594,82.506L75.483,82.689L75.405,82.892L75.366,83.069L75.261,83.069L75.094,82.972L74.823,82.945L74.255,82.964L74.068,82.914L73.439,82.571L72.461,82.443L72.024,82.310L71.816,81.992L72.075,82.080L72.370,82.050L72.628,81.918L72.780,81.704L72.983,81.957L73.083,82.058L73.201,82.099L73.292,82.062L73.330,81.979L73.313,81.880L73.248,81.800L73.248,81.704L73.441,81.747L73.924,81.946L74.020,81.949L74.162,81.903L74.476,82.026L74.983,82.299L74.950,82.208L74.926,82.068L74.888,81.992L75.105,81.999L75.480,82.050L75.633,81.992L75.818,81.770L75.731,81.647L75.551,81.541L75.452,81.372L75.292,80.902L75.261,80.697L75.214,80.587L75.097,80.511L74.945,80.494L74.793,80.549L74.702,80.488L74.570,80.449L74.453,80.471L74.402,80.597L74.443,80.677L74.741,80.891L75.095,81.370L75.305,81.596L75.548,81.704L75.422,81.887L75.206,81.867L74.971,81.816L74.793,81.905L74.688,81.905L74.513,81.692L74.383,81.637L74.238,81.644L74.020,81.617L73.872,81.564L73.707,81.469L73.578,81.331L73.543,81.144L73.477,81.207L73.393,81.269L73.353,81.328L73.295,81.212L73.258,81.102L73.240,80.984L73.248,80.838L73.153,80.838L73.134,81.036L73.065,81.207L72.948,81.291L72.780,81.232L72.672,81.314L72.519,81.338L72.353,81.310L72.198,81.232L71.872,81.283L71.713,81.328L71.849,81.455L72.067,81.507L72.298,81.493L72.476,81.415L72.674,81.617L72.488,81.761L72.248,81.901L71.996,81.956L71.765,81.852L71.590,81.751L71.284,81.613L70.992,81.526L70.862,81.568L70.746,81.692L70.488,81.623L70.089,81.415L69.904,81.472L69.755,81.568L69.605,81.613L69.412,81.520L69.331,81.602L69.240,81.603L69.141,81.537L69.040,81.415L68.659,81.675L68.474,81.747L68.268,81.704L68.296,81.640L68.336,81.478L68.363,81.415L68.005,81.345L67.850,81.372L67.686,81.520L67.582,81.424L67.456,81.362L67.350,81.365L67.263,81.587L67.041,81.765L66.932,81.905L66.832,81.802L66.664,81.672L66.485,81.562L66.358,81.520L66.211,81.600L66.064,81.731L65.919,81.780L65.777,81.617L65.820,81.585L65.837,81.582L65.850,81.571L65.881,81.520L65.363,81.545L65.165,81.642L65.110,81.905L65.243,81.837L65.360,81.857L65.449,81.949L65.500,82.099L65.234,82.037L64.242,81.992L64.187,81.858L64.120,81.739L63.964,81.520L63.884,81.655L63.879,81.766L63.937,81.851L64.050,81.905L64.050,81.992L63.798,82.042L63.607,82.132L63.286,82.387L63.028,82.217L62.729,82.237L62.469,82.356L62.333,82.484L62.237,82.484L62.144,82.442L62.023,82.368L61.915,82.279L61.855,82.194L62.019,82.121L62.155,82.137L62.308,82.183L62.515,82.194L62.485,82.058L62.441,81.971L62.363,81.924L62.237,81.905L62.237,81.800L62.380,81.734L62.471,81.634L62.515,81.500L62.515,81.328L62.429,81.328L62.256,81.653L62.023,81.826L61.727,81.894L61.369,81.905L61.748,82.193L61.468,82.443L60.948,82.664L60.606,82.868L60.519,83.072L60.540,83.205L60.666,83.290L60.892,83.349L61.143,83.363L61.391,83.320L61.534,83.221L61.465,83.069L61.465,82.964L61.818,82.868L61.991,82.770L62.053,82.835L62.122,82.928L62.237,82.964L62.410,82.921L62.693,82.797L62.905,82.773L63.339,82.773L63.471,82.801L63.560,82.863L63.620,82.928L63.668,82.964L63.876,82.994L64.021,82.973L64.345,82.868L64.201,82.885L64.031,82.871L63.898,82.807L63.861,82.676L63.946,82.603L64.432,82.484L64.432,82.676L64.536,82.676L64.845,82.525L65.669,82.577L66.072,82.387L66.139,82.597L66.247,82.512L66.362,82.316L66.453,82.194L66.709,82.201L66.927,82.305L67.122,82.354L67.304,82.194L67.568,82.302L67.841,82.255L68.121,82.154L68.695,82.051L69.053,81.847L69.273,81.800L70.998,81.755L71.435,81.905L71.304,81.966L71.164,81.997L71.016,82.004L70.862,81.992L71.903,82.484L67.536,82.843L63.169,83.202L60.874,83.721L59.606,83.830L59.364,83.936L59.213,83.856L59.049,83.827L58.296,83.813L58.115,83.831L58.115,83.744L58.161,83.740L58.253,83.748L58.297,83.744L58.297,83.648L57.905,83.653L57.811,83.486L57.818,83.229L57.725,82.964L57.905,82.750L57.727,82.704L56.965,82.800L56.715,82.879L56.484,83.004L56.294,83.166L56.060,82.963L55.657,82.758L55.188,82.659L54.766,82.773L54.712,82.712L54.616,82.637L54.592,82.605L54.567,82.571L54.480,82.571L54.326,82.731L54.077,82.657L53.811,82.539L53.603,82.571L53.517,82.571L53.369,82.504L53.289,82.563L53.276,82.698L53.335,82.868L53.292,82.852L53.135,82.773L53.142,82.921L53.135,82.964L53.250,82.932L53.271,82.975L53.328,83.060L53.335,83.069L53.433,83.013L53.509,82.990L53.707,82.964L53.707,83.069L53.600,83.189L53.272,83.352L53.135,83.445L53.135,83.166L52.936,83.750L52.840,83.936L52.371,83.254L52.267,83.254L52.261,83.297L52.267,83.445L52.077,83.349L52.286,83.748L52.861,84.009L53.547,84.084L54.098,83.936L53.873,83.765L53.637,83.770L53.388,83.810L53.135,83.744L53.135,83.648L53.277,83.656L53.391,83.638L53.494,83.599L53.603,83.542L53.677,83.481L53.854,83.296L53.907,83.254L54.115,83.301L54.346,83.418L54.572,83.476L54.766,83.349L54.937,83.454L55.108,83.492L55.251,83.434L55.338,83.254L55.082,83.291L54.970,83.178L54.875,83.029L54.671,82.964L54.671,82.868L54.862,82.964L55.328,82.897L56.176,83.396L56.536,83.301L56.733,83.145L56.917,83.114L57.400,83.166L57.457,83.272L57.536,83.515L57.656,83.775L57.830,83.936L54.294,84.044L53.750,84.255L50.934,84.407L50.527,84.343L50.168,84.129L49.778,84.417L50.068,84.503L50.168,84.514L49.053,84.859L45.963,85.328L45.860,85.360L44.284,85.855L44.046,85.978L43.946,86.106L43.780,86.100L43.049,86.374L41.947,86.946L38.122,88.234L38.002,88.329L37.920,88.543L37.712,88.656L36.235,89.022L35.946,89.056L35.722,89.129L35.346,89.491L35.122,89.634L33.353,90.160L31.950,90.254L31.589,90.433L31.259,90.516L31.105,90.605L30.714,91.087L29.961,91.723L29.091,92.251L28.518,92.427L27.480,92.536L26.650,92.895L26.477,93.014L26.337,93.287L26.186,93.314L26.012,93.312L25.877,93.358L25.627,93.570L24.874,93.984L23.772,94.902L23.519,95.000L23.183,94.971L22.575,94.850L22.347,94.876L21.884,94.558L21.808,94.392L21.827,94.250L21.973,93.987L22.016,93.847L21.997,93.715L21.897,93.430L21.924,93.073L21.898,92.926L21.861,92.796L21.840,92.669L21.902,89.651L21.840,88.919L21.803,88.792L21.719,88.690L21.609,88.607L21.503,88.505L21.433,88.342L21.433,88.326L21.435,88.216L21.514,87.925L21.533,87.766L21.434,87.330L21.440,87.197L21.867,86.857L22.051,86.876L22.168,86.960L22.223,86.965L22.222,86.751L22.142,86.478L22.012,86.292L21.914,86.098L21.934,85.794L21.932,85.794L21.822,84.979L21.856,84.734L22.031,84.479L22.260,84.373L22.497,84.377L22.694,84.456L23.070,83.767L23.152,83.519L23.163,83.282L23.048,82.617L23.196,82.152L23.255,82.025L23.359,81.894L23.720,81.698L23.755,81.659L23.915,81.687L23.892,81.742L23.821,81.812L23.837,81.886L23.881,81.978L23.882,82.084L23.915,82.139L24.050,82.078L24.120,81.990L24.172,81.757L24.206,81.663L24.375,81.424L24.456,81.278L24.469,81.120L24.433,80.848L24.356,80.583L24.252,80.561L24.105,80.590L23.898,80.472L23.766,80.282L23.670,80.041L23.615,79.789L23.611,79.564L23.807,79.668L23.870,79.519L23.860,78.988L23.961,78.782L24.125,78.651L24.199,78.534L24.175,78.511L24.034,78.374L24.125,78.378L24.402,78.362L24.214,78.116L24.146,77.849L24.242,77.679L24.535,77.727L24.360,77.500L24.062,76.898L23.879,76.529L23.621,75.423L23.634,74.906L23.725,74.310L23.662,73.822L23.215,73.625L23.171,74.043L23.102,74.275L22.993,74.382L22.861,74.299L22.792,74.100L22.697,73.916L22.481,73.877L22.527,73.640L22.423,73.682L22.250,73.829L22.088,73.908L21.989,73.853L21.804,73.619L21.696,73.528L21.809,73.381L21.739,73.289L21.437,73.156L21.398,73.148L21.110,72.990L21.089,72.938L20.841,72.900L20.635,72.734L20.482,72.555L20.392,72.482L20.237,72.668L20.074,72.948L19.879,73.049L19.631,72.698L19.460,72.529L18.908,72.239L18.726,72.009L18.712,71.907L18.722,71.506L18.753,71.441L18.881,71.370L18.910,71.295L18.879,71.205L18.807,71.169L18.732,71.146L18.687,71.096L18.642,70.774L18.586,70.645L18.450,70.520L18.325,70.511L18.150,70.558L18.015,70.631L18.010,70.696L17.857,70.500L17.820,70.215L17.854,69.895L17.919,69.599L18.104,69.055L18.070,68.865L17.853,68.598L17.232,68.096L17.183,68.028L17.146,67.864L17.122,67.817L17.036,67.788L16.971,67.806L16.911,67.831L16.836,67.822L15.934,67.606L15.706,67.450L15.464,67.394L15.085,67.403L14.435,67.494L14.272,67.561L13.960,67.735L13.768,67.782L13.541,67.785L13.422,67.745L13.329,67.675L13.177,67.586L13.011,67.524L11.928,67.277L11.800,67.230L11.780,67.172L11.780,67.075L11.764,66.959L11.694,66.846L11.592,66.790L11.533,66.833L11.487,66.897L11.419,66.905L11.271,66.771L11.136,66.616L10.991,66.558L10.809,66.713L10.661,66.647L10.490,66.642L10.319,66.708L10.169,66.854L10.002,66.686L10.052,66.600L10.180,66.528L10.250,66.400L10.218,66.292L10.093,66.034L10.067,65.901L10.140,65.668L10.243,65.578L10.262,65.496L10.078,65.287L9.640,65.051L9.478,64.840L9.390,64.781L9.322,64.900L9.258,65.161L9.148,65.423L8.974,65.566L8.717,65.479L8.302,64.920L8.146,64.782L7.984,64.734L7.648,64.744L7.512,64.715L7.276,64.700L7.620,64.262L7.686,64.231L7.855,64.203L7.919,64.164L7.949,64.103L8.011,63.907L7.996,63.885L8.011,63.881L8.244,63.751L8.277,63.752L8.467,63.522L9.476,62.717L9.751,62.409L11.008,60.998L11.207,60.689L11.382,60.280L11.499,59.857L11.522,59.659L11.512,59.468L11.444,59.386L11.329,59.309L11.261,59.204L11.439,58.815L11.452,58.594L11.435,58.362L11.452,58.112L11.528,57.991L11.813,57.768L11.918,57.636L11.954,57.296L11.714,55.952L11.695,55.608L11.657,55.476L11.571,55.330L11.365,55.122L11.316,55.033L11.304,54.943L11.334,54.765L11.327,54.671L11.270,54.560L11.103,54.350L11.037,54.238L10.927,53.801L10.837,53.615L10.598,53.275L10.506,53.107L10.431,52.833L10.262,51.466L9.976,50.470L9.724,49.974L9.139,49.680L9.774,49.089L10.127,48.905L10.461,49.288L10.721,49.266L11.217,49.118L11.686,49.238L12.216,49.650L12.724,49.873L13.126,49.421L13.133,49.322L13.087,49.093L13.093,48.986L13.159,48.826L13.439,48.469L13.501,48.413L13.659,48.324L13.716,48.266L13.725,48.208L13.686,48.069L13.695,48.011L14.145,47.494L14.211,47.289L14.262,46.819L14.316,46.593L14.381,46.515L14.473,46.459L14.552,46.382L14.579,46.240L14.507,46.086L14.195,45.815L14.091,45.669L14.124,45.103L14.819,44.044L14.962,43.495L14.986,43.154L14.960,43.034L15.173,43.041L15.758,42.945L15.895,42.989L16.030,43.106L16.200,43.213L16.448,43.233L16.406,43.067L16.370,42.925L16.199,42.615L15.967,42.356L15.706,42.199L15.628,41.999L15.622,41.787L15.706,41.357L15.810,41.184L15.891,40.989L15.879,40.851L15.706,40.854L14.863,41.143L14.730,41.162L13.368,40.744L12.207,39.978L12.227,39.830L12.455,39.589L12.496,39.427L12.464,39.162L12.464,38.898L12.636,38.095L12.614,37.805L12.541,37.626L12.443,37.471L12.370,37.320L12.369,37.150L12.446,37.051L13.125,36.511L13.320,36.485L13.821,36.587L14.106,36.557L14.571,36.372L14.854,36.350L14.973,36.390L15.126,36.525L15.217,36.570L15.332,36.577L15.577,36.557L15.706,36.576L16.123,36.468L16.337,36.439L16.537,36.476L16.710,36.613L16.807,36.799L16.882,37.002L16.990,37.189L17.143,37.324L17.343,37.436L17.570,37.504L17.804,37.512L18.042,37.402L18.067,37.204L18.031,36.971L18.082,36.758L18.388,36.708L18.687,37.112L19.126,37.996L19.444,38.197L19.829,38.250L20.644,38.161L20.354,37.562L20.265,37.261L20.308,36.924L20.409,36.569L20.409,36.324L20.235,35.738L20.204,35.440L20.237,34.899L20.164,34.636L20.064,34.514L19.674,34.252L19.543,34.099L19.209,33.490L19.112,33.371L18.848,33.140L18.781,33.062L18.670,32.884L18.579,32.823L18.497,32.821L18.350,32.896L18.288,32.904L17.450,32.650L17.140,32.614L16.500,32.420L16.360,31.985L16.615,30.762L16.674,30.070L16.742,29.737L16.878,29.395L16.878,29.394L17.089,29.171L18.343,28.530L18.612,28.499L18.888,28.499L19.222,28.449L19.445,28.282L19.465,28.267L19.289,28.053L18.707,27.727L18.395,27.484L18.243,27.329L18.051,26.969L17.935,26.945L17.794,27.004L17.621,27.034L16.910,26.752L16.895,26.239L17.394,25.015L17.439,24.689L17.807,23.565L17.734,23.443L17.157,23.442L16.862,23.504L16.330,23.804L16.043,23.912L15.787,23.936L15.474,23.921L15.170,23.859L14.941,23.740L14.707,23.488L13.893,22.335L13.789,22.110L13.722,21.860L13.674,21.539L13.666,21.228L13.685,21.099L14.199,17.432L14.135,17.130L13.872,17.152L13.815,17.132L13.757,17.004L13.799,16.953L13.866,16.935L13.889,16.901L13.867,16.825L13.835,16.579L13.783,16.500L13.703,16.480L13.625,16.476L13.578,16.447L13.528,16.332L13.483,16.188L13.495,16.064L13.795,15.949L13.967,15.812L14.020,15.675L13.844,15.612L13.710,15.457L13.860,15.103L14.143,14.721L14.405,14.480L15.116,14.214L15.438,14.034L15.706,13.688L15.753,13.484L15.824,13.294L15.928,13.119L16.070,12.960ZM84.211,84.230L84.151,84.463L84.142,84.460L83.533,84.318L82.159,84.185L81.959,84.085L82.016,83.884L82.282,83.641L82.550,83.445L82.924,83.542L83.023,83.610L83.063,83.693L83.083,83.773L83.122,83.831L83.237,83.885L83.538,83.981L83.599,83.980L83.654,83.947L83.777,84.036L83.982,84.226L84.169,84.242L84.211,84.230Z" fill="currentColor" stroke="currentColor" stroke-width="1" stroke-linejoin="round"/>
</svg>