<svg xmlns="http://www.w3.org/2000/svg" viewBox="0 0 100 100" role="img" aria-label="Cameroon">
  <title>Cameroon</title>
  <path d="M41.921,90.974L39.584,90.974L37.247,90.974L34.911,90.974L34.794,90.974L33.077,90.975L32.574,90.975L31.523,90.975L31.365,90.949L30.871,90.700L30.735,90.668L30.595,90.615L30.397,90.479L30.216,90.318L30.116,90.193L30.099,90.030L30.124,89.868L30.118,89.720L30.028,89.587L30.126,89.494L30.126,89.445L30.181,89.310L30.210,87.845L30.447,86.790L30.582,86.466L30.611,86.336L30.639,85.337L30.718,84.978L30.838,84.652L30.985,84.424L31.151,84.221L31.248,84.005L31.266,83.755L30.966,82.606L30.829,82.420L30.829,82.371L30.903,82.373L30.953,82.359L31.042,82.317L31.042,82.264L30.921,82.274L30.836,82.253L30.774,82.211L30.718,82.156L30.668,82.084L30.463,81.697L29.882,80.963L29.555,80.677L28.798,80.157L28.971,80.119L29.161,80.023L29.803,79.529L29.975,79.463L30.184,79.457L29.934,79.385L29.716,79.471L29.513,79.604L29.304,79.673L28.769,79.721L28.674,79.677L28.636,79.576L28.672,79.469L28.798,79.404L28.567,78.850L28.196,78.331L28.090,78.132L28.046,77.947L28.242,78.137L28.287,78.162L28.325,78.198L28.388,78.369L28.424,78.431L28.523,78.478L28.659,78.494L28.958,78.490L28.879,78.448L28.634,78.378L28.555,78.333L28.524,78.301L28.502,78.259L28.449,78.189L28.385,78.026L28.407,77.825L28.498,77.637L28.634,77.512L28.930,77.779L29.091,77.817L29.170,77.624L29.433,77.757L29.534,77.832L29.597,77.947L29.643,77.863L29.645,77.781L29.608,77.701L29.549,77.624L29.574,77.621L29.656,77.624L29.289,77.491L29.116,77.389L29.065,77.243L29.166,77.137L29.367,77.067L29.589,77.031L29.753,77.028L29.753,76.993L29.742,76.969L29.704,76.920L29.725,76.909L29.742,76.910L29.753,76.902L29.753,76.861L28.975,76.996L28.739,76.974L28.617,76.839L28.654,76.638L28.781,76.457L28.931,76.378L29.060,76.260L29.398,75.742L29.627,75.625L29.660,75.583L29.694,75.504L29.676,75.458L29.549,75.512L29.402,75.621L29.336,75.694L29.277,75.786L29.224,75.786L29.224,75.625L29.085,75.731L28.831,76.121L28.691,76.275L28.521,76.364L28.308,76.424L28.151,76.394L28.153,76.216L28.046,76.324L27.896,76.244L27.755,76.100L27.676,75.918L27.721,75.733L27.610,75.614L27.520,75.649L27.300,75.894L27.320,75.920L27.354,75.966L27.416,75.990L27.487,76.005L27.566,76.055L27.573,76.091L27.654,76.278L27.743,76.373L27.872,76.478L27.942,76.610L27.833,76.759L27.721,76.714L27.665,76.702L27.610,76.679L27.507,76.598L27.407,76.432L27.362,76.399L27.327,76.380L27.306,76.347L27.300,76.275L27.203,76.286L27.135,76.317L27.095,76.373L27.081,76.460L27.292,76.588L27.348,76.652L27.366,76.744L27.347,76.814L27.316,76.889L27.300,77.001L27.323,77.061L27.446,77.130L27.507,77.189L27.407,77.235L27.284,77.269L27.001,77.297L26.855,77.280L26.588,77.206L26.465,77.189L26.233,77.071L26.146,76.802L26.185,76.511L26.330,76.324L26.330,76.275L26.137,76.319L26.050,76.450L26.003,76.587L25.738,76.835L25.506,76.794L25.428,76.808L25.431,76.664L25.448,76.553L25.427,76.462L25.317,76.378L25.225,76.362L25.083,76.362L24.944,76.377L24.865,76.405L24.746,76.385L24.330,76.121L23.653,75.798L23.557,75.733L23.543,75.511L23.692,75.038L23.712,74.813L23.472,74.589L23.284,74.325L23.149,74.021L22.960,72.899L23.002,72.706L23.204,72.355L23.280,72.168L23.107,72.363L23.005,72.418L22.960,72.306L22.979,72.210L23.013,72.114L23.035,72.012L23.014,71.900L22.953,71.843L22.782,71.781L22.721,71.653L22.660,71.565L22.587,71.488L22.529,71.465L22.499,71.567L22.741,71.937L22.796,72.115L22.750,72.237L22.679,72.267L22.615,72.215L22.587,72.090L22.209,71.792L22.204,71.893L22.216,71.976L22.253,72.036L22.320,72.066L22.217,72.256L22.182,72.281L22.129,72.262L21.974,72.170L21.942,72.142L21.884,72.076L21.756,72.027L21.627,71.954L21.568,71.818L21.485,71.527L21.136,71.022L21.088,70.712L20.960,70.910L21.012,71.138L21.130,71.375L21.327,72.106L21.398,72.168L21.488,72.213L21.568,72.281L21.616,72.485L21.452,72.578L20.475,72.652L20.388,72.610L20.426,72.512L20.522,72.404L20.609,72.330L20.515,72.285L20.428,72.284L20.366,72.327L20.317,72.496L20.254,72.527L20.168,72.521L20.076,72.496L19.957,72.375L19.916,72.187L19.954,72.046L20.076,72.066L20.117,71.964L20.283,71.685L20.176,71.764L20.077,71.766L20.002,71.698L19.964,71.572L19.983,71.467L20.042,71.360L20.178,71.200L20.405,71.045L20.449,70.981L20.451,70.884L20.421,70.790L20.405,70.696L20.449,70.599L20.502,70.658L20.474,70.346L20.489,70.188L20.580,70.120L20.612,70.105L20.619,70.105L20.753,69.974L20.724,69.861L20.700,69.752L20.675,69.585L20.744,69.464L20.957,69.305L21.005,69.163L21.311,68.675L21.311,68.673L21.428,68.510L21.500,68.354L21.616,68.011L21.664,67.905L21.816,67.672L21.894,67.588L21.981,67.548L22.073,67.532L22.155,67.494L22.211,67.393L22.421,66.323L22.412,66.239L22.348,66.048L22.339,65.944L22.389,65.754L22.557,65.421L22.609,65.245L22.605,65.078L22.577,64.926L22.566,64.772L22.614,64.602L22.731,64.448L22.878,64.307L22.997,64.153L23.032,63.963L22.952,63.753L22.805,63.598L22.630,63.462L22.473,63.309L22.371,63.109L22.430,62.996L22.568,62.893L22.706,62.724L22.740,62.527L22.672,62.389L22.588,62.264L22.573,62.104L22.656,61.975L22.932,61.789L23.037,61.655L23.171,61.526L23.338,61.550L23.509,61.612L23.647,61.595L23.675,61.492L23.692,61.268L23.734,61.214L23.859,61.149L23.958,61.043L24.125,60.800L24.125,60.799L24.846,60.045L25.917,59.177L26.116,58.896L26.339,58.423L26.446,58.301L26.553,58.241L26.645,58.232L26.744,58.241L26.867,58.233L27.085,58.101L27.322,57.641L27.552,57.497L27.599,57.480L27.911,57.363L28.070,57.283L28.194,57.162L28.376,56.814L28.492,56.716L28.724,56.669L28.819,56.668L29.098,56.667L29.196,56.589L29.203,56.565L29.795,54.680L29.942,54.514L30.127,54.527L30.279,54.602L30.431,54.647L30.614,54.569L32.527,52.941L32.710,52.837L32.819,52.860L32.883,52.988L32.995,53.567L33.076,53.721L33.240,53.849L33.456,53.913L35.468,53.884L35.473,53.707L35.505,53.584L35.569,53.477L35.665,53.348L35.714,53.311L35.758,53.300L35.791,53.274L35.837,52.671L35.904,52.375L36.001,52.089L36.114,51.867L36.258,52.052L36.300,52.440L36.441,52.553L36.647,52.621L37.194,52.912L37.836,53.155L38.092,53.329L38.219,53.643L38.291,54.002L38.448,54.346L38.697,54.597L39.425,54.730L39.692,54.941L39.842,55.257L39.866,55.633L39.853,55.945L39.878,56.253L40.010,56.861L40.163,57.236L40.291,57.355L40.501,57.385L40.985,57.334L41.215,57.310L41.257,57.323L41.344,57.379L41.401,57.387L41.448,57.367L41.531,57.292L41.560,57.275L41.645,57.283L41.815,57.325L41.900,57.329L42.093,57.283L42.294,57.184L42.446,57.041L42.495,56.861L42.543,56.535L42.660,56.268L42.866,56.101L43.174,56.070L43.387,55.951L43.572,55.693L43.798,55.162L43.849,54.952L43.869,54.739L43.831,54.597L43.659,54.402L43.608,54.284L43.652,54.073L43.793,53.873L44.273,53.431L44.725,53.144L44.754,53.103L44.783,53.000L44.814,52.963L44.851,52.954L44.931,52.962L45.018,52.941L45.140,52.936L45.194,52.917L45.239,52.855L45.252,52.779L45.275,52.709L45.391,52.633L45.723,52.331L45.813,52.277L45.919,52.244L46.007,52.252L46.077,52.284L46.143,52.303L46.218,52.272L46.289,52.094L46.192,51.896L45.888,51.563L45.500,50.999L45.390,50.905L45.204,50.870L45.159,50.824L45.221,50.754L45.361,50.648L45.519,50.499L46.003,49.775L46.463,49.325L46.952,48.845L47.160,48.534L47.283,48.448L47.381,48.359L47.411,48.198L47.300,47.736L47.287,47.570L47.311,47.397L47.364,47.235L47.645,46.723L48.421,45.641L48.717,45.331L48.761,45.216L48.740,45.086L48.686,44.893L48.643,44.590L48.642,44.285L48.687,44.093L49.006,43.639L49.042,43.537L49.065,43.469L49.073,43.313L48.948,42.676L48.929,42.318L48.990,41.978L49.169,41.723L49.339,41.652L49.639,41.702L49.804,41.679L49.897,41.612L49.959,41.522L50.009,41.426L50.068,41.346L50.303,41.182L50.371,41.110L50.366,40.892L50.344,40.780L50.161,40.334L50.097,40.220L50.312,40.289L50.423,40.307L50.532,40.297L50.655,40.243L50.746,40.179L50.843,40.128L50.985,40.112L51.087,40.141L51.339,40.257L51.454,40.279L51.575,40.250L52.375,39.828L52.514,39.675L52.628,39.422L52.697,39.199L52.753,39.106L52.842,39.063L52.954,39.067L53.053,39.085L53.150,39.087L53.254,39.042L53.423,38.810L53.510,38.472L53.686,36.987L53.629,36.700L53.638,36.382L53.795,36.007L54.156,35.359L54.204,35.223L54.234,35.078L54.241,34.766L54.178,34.530L54.102,34.370L53.880,34.336L53.843,34.309L53.898,34.166L53.950,34.129L54.408,33.911L54.473,33.867L54.559,33.781L54.785,33.489L54.890,33.407L55.431,33.171L56.046,33.076L56.554,32.874L56.773,32.315L56.812,31.805L56.913,31.274L56.989,31.086L57.062,30.956L57.081,30.830L56.996,30.653L56.769,30.417L56.689,30.291L56.676,30.113L56.736,29.953L56.920,29.664L56.952,29.477L56.922,29.326L56.828,29.068L56.825,28.911L56.964,28.643L57.225,28.543L57.838,28.476L57.983,28.413L58.095,28.347L58.167,28.304L58.334,28.177L58.425,28.060L58.549,27.794L58.566,27.689L58.553,27.597L58.500,27.437L58.502,27.335L58.677,26.846L58.943,25.359L59.236,24.374L59.451,23.920L60.842,21.939L60.885,21.845L60.941,21.721L60.889,21.422L60.924,21.260L61.010,21.125L61.136,21.018L61.433,20.846L61.527,20.724L61.661,20.411L61.848,20.080L62.107,19.753L62.400,19.456L62.701,19.216L62.941,19.215L63.249,19.303L63.796,19.535L63.958,19.559L64.131,19.515L64.298,19.429L64.437,19.327L64.652,19.105L64.747,19.065L64.958,19.040L65.019,19.014L65.715,18.375L65.862,18.293L66.325,18.149L66.489,18.053L66.775,17.798L66.939,17.699L67.343,17.553L67.477,17.482L67.571,17.338L67.652,17.149L67.712,16.954L67.741,16.789L67.738,16.590L67.692,16.431L67.605,16.297L67.478,16.170L67.437,16.117L67.409,16.061L67.377,16.010L67.319,15.975L67.185,15.977L67.154,15.965L67.083,15.870L67.072,15.801L67.108,15.732L67.395,15.356L67.453,15.223L67.620,14.422L67.709,14.173L67.738,13.909L67.736,13.853L67.722,13.767L67.575,13.427L67.559,13.276L67.699,13.185L67.681,13.102L67.816,12.537L67.863,12.445L67.902,12.398L67.921,12.349L68.072,12.197L68.059,12.113L68.021,12.038L67.928,11.989L67.863,12.014L67.755,12.070L67.653,12.106L67.608,12.070L67.558,11.906L67.434,11.805L67.277,11.722L67.123,11.613L67.200,11.571L67.230,11.559L67.230,11.500L67.144,11.464L66.913,11.292L66.857,11.236L66.842,11.163L66.882,11.047L66.857,10.967L66.644,10.855L66.144,10.734L64.538,10.685L64.418,10.660L64.315,10.598L64.244,10.478L64.238,10.386L64.285,10.145L64.287,9.994L64.247,9.865L64.235,9.827L64.224,9.218L63.785,7.122L63.346,5.025L66.105,5.000L66.240,5.085L66.596,5.635L66.605,5.648L66.716,5.767L66.781,5.883L66.804,6.014L66.792,6.174L66.671,6.534L66.667,6.635L66.748,6.749L66.987,6.929L67.127,7.071L67.127,7.368L67.143,7.438L67.173,7.475L67.219,7.480L67.286,7.455L67.286,7.532L67.297,7.605L67.332,7.648L67.407,7.637L67.557,7.523L67.608,7.511L67.669,7.536L67.684,7.576L67.688,7.625L67.715,7.672L67.851,7.759L67.902,7.804L68.029,7.876L68.260,7.815L68.384,7.858L68.438,7.988L68.323,8.246L68.413,8.376L68.532,8.181L68.573,8.156L68.645,8.182L68.714,8.247L68.765,8.326L68.786,8.401L68.844,8.528L68.980,8.544L69.238,8.484L69.328,8.646L69.586,9.613L69.557,9.655L69.494,9.777L69.480,9.828L69.475,9.916L69.486,9.930L69.521,9.935L69.586,9.994L69.571,9.955L69.603,9.951L69.653,9.968L69.693,9.994L69.701,10.026L69.688,10.116L69.693,10.151L69.800,10.344L69.934,10.941L69.918,11.011L69.907,11.559L69.893,11.655L69.854,11.787L69.854,11.881L69.876,11.940L69.915,11.975L69.948,12.016L69.959,12.097L69.927,12.149L69.868,12.163L69.829,12.197L69.854,12.312L69.893,12.366L70.093,12.502L70.265,12.701L70.375,12.787L70.469,12.774L70.602,12.675L70.743,12.660L70.888,12.721L71.036,12.849L70.998,12.898L70.969,12.983L70.967,13.077L71.007,13.152L71.065,13.216L71.069,13.264L71.050,13.325L71.036,13.422L71.116,13.537L71.250,13.651L71.284,13.739L71.061,13.774L71.027,13.809L71.045,13.887L71.084,13.969L71.114,14.013L71.145,14.088L71.092,14.158L71.017,14.223L70.978,14.284L70.995,14.482L71.048,14.606L71.141,14.669L71.274,14.687L71.325,14.772L71.517,15.225L71.473,15.306L71.346,15.424L71.303,15.499L71.317,15.532L71.400,15.610L71.409,15.661L71.377,15.698L71.325,15.704L71.274,15.700L71.245,15.709L71.183,15.877L71.170,16.031L71.192,16.187L71.316,16.541L71.398,16.681L71.618,16.956L71.710,17.211L71.606,17.428L71.245,17.821L71.174,17.961L71.124,18.114L71.074,18.524L71.036,18.645L71.036,18.735L71.061,18.794L71.102,18.829L71.136,18.871L71.143,18.951L71.090,19.081L70.910,19.342L70.871,19.466L70.816,19.954L70.875,20.760L70.925,21.434L71.138,21.938L71.218,22.055L71.267,22.194L71.241,22.388L71.143,22.725L71.165,23.021L71.761,24.171L71.821,24.360L71.810,24.485L71.731,24.624L71.684,24.815L71.679,25.009L71.730,25.159L71.778,25.202L71.850,25.236L71.937,25.259L72.025,25.267L72.108,25.284L72.160,25.321L72.198,25.358L72.356,25.431L72.425,25.565L72.534,25.858L72.647,25.983L72.750,26.068L72.825,26.163L72.854,26.318L72.871,26.517L72.920,26.677L73.005,26.813L74.081,27.809L74.371,28.223L74.483,28.288L74.479,28.322L74.838,28.634L75.359,28.945L75.633,29.032L75.972,29.337L75.835,29.378L74.082,29.806L73.642,29.818L72.329,29.393L71.865,29.374L71.506,29.414L71.437,29.434L71.349,29.487L71.210,29.615L71.128,29.668L70.908,29.718L70.669,29.701L70.214,29.593L69.854,29.579L68.874,29.885L68.560,29.868L66.280,29.305L64.372,29.432L64.258,29.440L64.194,29.465L64.176,29.523L64.172,29.600L64.154,29.680L63.775,30.434L63.530,30.768L62.891,31.322L62.417,32.004L62.429,32.121L63.124,32.665L65.349,35.229L65.425,35.568L65.569,35.819L67.305,37.216L69.040,38.613L69.165,38.652L69.238,38.628L69.306,38.616L69.375,38.617L69.448,38.633L69.556,38.694L69.864,38.922L69.934,38.997L69.973,39.094L70.025,39.132L70.082,39.152L70.138,39.200L70.182,39.274L70.252,39.474L70.271,39.570L70.271,39.643L70.299,39.695L70.404,39.727L70.696,39.770L70.894,39.832L71.056,39.950L71.186,40.107L71.515,40.648L71.966,41.094L72.085,41.247L72.296,41.698L73.348,43.950L73.826,45.639L74.093,46.286L74.461,46.557L74.629,46.565L74.874,46.621L75.047,46.656L75.042,47.461L74.938,47.929L74.727,48.360L74.408,48.776L74.347,48.887L73.927,49.459L73.896,49.583L74.048,49.724L74.031,49.828L73.997,49.835L73.850,49.844L73.800,49.854L73.755,49.898L73.690,50.029L73.660,50.075L73.292,50.360L72.691,50.698L72.576,50.796L72.399,50.948L72.252,51.320L72.144,51.500L72.108,51.587L72.098,51.662L72.136,52.119L72.115,52.199L72.049,52.280L71.870,52.363L71.798,52.410L71.714,52.540L71.657,52.689L71.534,53.175L71.277,53.858L71.111,54.187L70.980,54.545L70.920,54.656L70.825,54.736L70.356,54.971L70.229,55.057L70.122,55.179L70.040,55.367L69.145,57.404L68.949,57.673L68.932,57.763L68.966,57.949L68.968,58.034L68.950,58.121L68.871,58.266L68.579,58.644L68.455,58.743L67.341,59.279L67.018,59.276L66.947,59.403L66.830,59.550L66.605,59.773L66.487,59.808L66.306,59.984L66.202,60.080L66.212,60.107L66.219,60.150L66.226,60.192L66.191,60.268L66.167,60.302L66.139,60.369L66.105,60.402L66.064,60.403L65.983,60.341L65.945,60.349L65.887,60.413L65.864,60.466L65.881,60.529L65.945,60.623L66.011,60.687L66.100,60.795L66.216,60.888L66.330,61.010L66.384,61.137L66.418,61.275L66.477,61.398L66.605,61.485L66.738,61.486L66.984,61.515L67.099,61.502L67.311,61.371L67.407,61.377L67.510,61.534L67.549,61.692L67.662,61.837L67.713,62.677L67.768,62.837L67.716,62.951L67.608,63.380L67.470,63.736L67.449,63.859L67.459,63.995L67.499,64.104L67.608,64.289L67.660,64.413L67.673,64.511L67.662,64.749L67.636,64.831L67.522,65.053L67.496,65.184L67.504,65.409L67.470,65.499L67.366,65.536L67.364,65.597L67.298,65.728L67.219,65.850L67.181,65.883L67.166,65.986L67.122,66.126L67.054,66.259L66.963,66.342L66.900,66.361L66.931,66.447L67.055,66.588L67.217,66.692L67.554,66.805L67.717,66.885L67.842,67.010L67.928,67.173L67.985,67.354L68.019,67.533L68.018,67.930L68.053,68.234L67.997,68.526L67.995,68.560L67.990,68.673L68.021,68.763L68.071,68.830L68.107,68.905L68.089,69.116L68.118,69.195L68.163,69.273L68.205,69.368L68.318,70.112L68.312,70.192L68.276,70.385L68.243,70.472L68.234,70.524L68.286,70.657L68.340,71.254L68.442,71.627L68.648,71.958L68.929,72.233L70.169,73.093L70.510,73.215L70.603,73.271L70.655,73.351L70.708,73.551L70.759,73.657L71.029,73.993L71.149,74.215L71.219,74.432L71.298,74.908L71.310,75.356L71.363,75.567L71.451,75.641L71.570,75.626L71.688,75.672L71.738,75.781L71.764,75.893L71.810,75.944L71.919,75.944L72.038,75.964L72.133,76.029L72.150,76.115L71.997,76.181L71.825,76.223L71.519,76.369L71.367,76.402L71.237,76.385L70.987,76.321L70.853,76.321L71.313,77.426L71.988,78.425L72.624,79.103L72.699,79.184L73.226,79.748L73.884,80.450L74.696,81.318L75.469,82.144L76.202,82.926L76.787,83.552L76.846,83.589L76.907,83.608L77.005,83.623L77.036,83.614L77.127,83.563L77.166,83.548L77.213,83.557L77.297,83.612L77.327,83.623L77.663,83.587L77.790,83.631L77.941,83.759L78.071,83.922L78.135,84.076L78.239,84.472L78.260,84.515L78.288,84.553L78.321,84.586L78.426,84.549L78.509,84.529L78.585,84.533L78.666,84.568L78.729,84.634L78.894,84.877L79.010,85.138L79.106,85.303L79.183,85.480L79.205,85.688L79.140,85.874L78.930,86.087L78.901,86.294L78.930,86.562L78.925,86.673L78.951,86.740L79.030,86.743L79.135,86.727L79.236,86.734L79.324,86.754L79.253,86.861L79.194,86.977L79.167,87.066L79.189,87.226L79.309,87.501L79.332,87.662L79.296,87.813L79.174,88.083L79.167,88.258L79.198,88.360L79.298,88.544L79.332,88.689L79.332,88.982L79.344,89.046L79.406,89.211L79.504,89.406L79.651,89.575L79.705,89.657L79.734,89.728L79.748,89.800L79.758,89.957L79.782,89.996L79.890,90.065L79.919,90.092L79.922,90.158L79.877,90.258L79.865,90.334L79.968,90.393L79.998,90.417L80.042,90.452L80.084,90.522L80.019,90.608L79.705,90.845L79.560,90.705L79.402,90.678L79.277,90.755L79.225,90.928L79.131,91.104L79.114,91.194L79.130,91.295L79.163,91.364L79.184,91.437L79.167,91.549L79.150,91.556L79.118,91.558L79.084,91.568L79.060,91.602L79.051,91.649L79.051,91.685L79.056,91.706L79.060,91.710L79.072,91.779L79.098,91.841L79.100,91.910L78.980,92.078L78.959,92.154L78.968,92.445L78.998,92.487L79.047,92.511L79.114,92.570L79.253,92.808L79.516,93.497L79.704,94.368L79.679,94.492L79.595,94.529L79.427,94.472L79.358,94.492L79.007,95.000L78.699,94.599L78.633,94.463L78.633,94.382L78.656,94.307L78.667,94.230L78.633,94.140L78.570,94.080L78.483,94.044L78.389,94.042L78.309,94.086L78.174,94.033L78.022,93.999L77.907,93.941L77.882,93.817L77.799,93.863L77.694,93.904L77.602,93.907L77.563,93.841L77.543,93.723L77.490,93.667L77.414,93.630L77.228,93.507L77.019,93.434L76.922,93.382L76.623,92.998L76.567,92.964L76.384,92.935L76.286,92.897L76.205,92.851L76.171,92.815L75.429,92.732L74.764,92.533L74.422,92.469L74.081,92.517L73.682,92.755L73.525,92.808L73.378,92.883L73.286,92.898L73.289,92.880L73.106,92.797L73.068,92.790L73.006,92.724L72.995,92.691L73.009,92.647L73.019,92.544L73.002,92.486L72.958,92.425L72.896,92.375L72.631,92.277L72.588,92.253L72.557,92.200L72.515,92.080L72.476,92.033L72.311,91.967L72.189,92.004L72.084,92.048L71.835,91.956L71.732,92.188L71.618,92.145L71.570,92.145L71.491,92.273L71.366,92.402L71.235,92.442L71.143,92.301L70.991,92.351L70.871,92.316L70.500,92.018L70.424,92.008L70.361,92.197L70.290,92.233L70.120,92.253L69.810,92.229L69.842,92.035L69.926,91.815L69.774,91.710L69.749,91.632L69.646,91.478L69.533,91.366L69.480,91.414L69.480,91.512L69.465,91.608L69.410,91.681L69.293,91.710L68.813,91.764L68.788,91.726L68.795,91.550L68.786,91.495L68.747,91.495L68.678,91.514L68.597,91.522L68.520,91.495L68.568,91.476L68.681,91.387L68.470,91.274L68.413,91.303L68.467,91.495L68.351,91.448L68.197,91.288L68.088,91.221L67.885,91.229L67.809,91.190L67.876,91.065L67.689,90.981L67.431,90.690L67.230,90.634L67.190,90.685L67.118,90.754L67.119,90.827L67.137,90.899L67.112,90.967L67.042,90.992L66.426,91.125L66.266,91.224L66.221,91.238L66.109,91.214L65.958,91.073L65.836,91.002L65.341,90.935L64.997,91.070L64.924,91.079L64.102,91.071L62.861,91.060L61.464,91.047L60.201,91.037L59.873,91.034L58.672,91.023L57.328,91.011L57.326,90.816L57.358,90.579L57.325,90.464L57.251,90.371L57.134,90.265L57.013,90.177L56.925,90.141L56.871,90.153L56.758,90.200L56.686,90.199L56.634,90.177L56.525,90.092L56.307,90.049L56.069,90.038L56.001,90.065L55.911,90.131L55.754,90.283L55.680,90.314L55.347,90.356L55.128,90.260L55.003,90.231L54.896,90.283L54.810,90.307L54.675,90.284L54.440,90.199L54.360,90.274L54.271,90.307L54.172,90.299L54.062,90.254L53.995,90.350L53.841,90.315L53.662,90.237L53.529,90.199L53.431,90.241L53.341,90.314L53.232,90.383L53.074,90.415L52.017,90.256L51.831,90.186L51.706,90.092L51.524,90.135L51.389,90.092L50.953,89.949L50.653,89.928L50.222,90.027L50.081,89.998L49.825,89.841L49.728,89.805L49.654,89.814L49.491,89.902L49.409,89.924L49.255,89.946L48.955,90.048L48.799,90.077L48.460,90.063L48.144,90.012L48.003,90.007L47.544,90.042L46.952,90.005L46.355,90.057L45.671,90.036L45.405,90.072L45.285,90.059L44.884,89.926L44.724,89.795L44.648,89.751L44.539,89.739L44.440,89.761L44.237,89.834L42.152,89.912L42.137,89.983L42.173,90.086L42.185,90.190L42.139,90.301L42.078,90.384L42.029,90.474L42.015,90.603L42.015,90.702L42.001,90.798L41.971,90.890L41.921,90.974Z" fill="currentColor" stroke="currentColor" stroke-width="1" stroke-linejoin="round"/>
</svg>