<svg xmlns="http://www.w3.org/2000/svg" viewBox="0 0 100 100" role="img" aria-label="Democratic Republic of the Congo">
  <title>Democratic Republic of the Congo</title>
  <path d="M35.279,14.429L35.122,13.327L35.216,12.740L35.212,12.585L35.210,12.526L35.219,12.420L35.318,12.258L35.351,12.151L35.369,12.037L35.375,11.736L35.309,11.336L35.248,11.151L35.079,10.838L35.054,10.748L35.025,10.697L34.896,10.586L34.858,10.505L34.881,10.402L34.951,10.278L35.044,10.190L35.135,10.197L35.222,10.251L35.315,10.269L35.410,10.263L35.506,10.244L35.726,10.168L35.878,10.058L35.990,9.903L36.232,9.304L36.346,9.143L36.507,9.014L36.561,8.875L36.572,8.868L36.592,8.850L36.683,8.817L36.704,8.800L36.865,8.526L36.951,8.455L37.033,8.402L37.097,8.334L37.136,8.153L37.170,8.114L37.212,8.083L37.251,8.041L37.274,7.996L37.315,7.848L37.369,7.737L37.436,7.651L37.546,7.546L37.591,7.504L37.671,7.473L37.888,7.476L37.966,7.457L38.056,7.335L38.127,7.212L38.161,7.171L38.382,7.070L38.804,6.808L38.903,6.669L38.973,6.605L39.079,6.579L39.386,6.589L39.483,6.579L39.632,6.506L39.727,6.488L39.901,6.568L40.439,6.579L40.482,6.589L40.577,6.634L40.720,6.663L40.935,6.763L41.001,6.808L41.055,6.873L41.093,6.937L41.175,7.075L41.198,7.149L41.247,7.212L41.363,7.255L41.781,7.343L41.909,7.421L42.020,7.517L42.170,7.618L42.482,7.739L42.573,7.798L42.787,8.062L42.879,8.139L42.965,8.182L43.186,8.255L43.284,8.268L43.362,8.301L43.433,8.380L43.526,8.526L43.629,8.750L43.668,8.784L43.747,8.820L43.840,8.906L43.916,9.013L43.948,9.110L43.920,9.179L43.872,9.258L43.849,9.349L43.897,9.451L43.918,9.471L44.404,9.927L44.501,9.990L44.609,10.015L45.011,9.953L45.386,9.953L45.499,9.937L45.571,9.899L45.626,9.855L45.690,9.821L45.875,9.809L46.309,9.901L46.763,10.068L46.841,10.082L46.879,10.117L46.970,10.282L47.018,10.341L47.133,10.380L47.190,10.408L47.228,10.486L47.263,10.500L47.358,10.505L47.405,10.520L47.440,10.550L47.477,10.574L47.536,10.570L47.579,10.544L47.610,10.508L47.636,10.469L47.665,10.438L47.701,10.411L47.737,10.392L47.781,10.380L47.842,10.376L47.892,10.391L47.923,10.425L47.946,10.458L48.173,10.603L48.251,10.637L48.359,10.668L48.449,10.676L48.654,10.667L48.715,10.679L48.759,10.709L48.794,10.741L48.828,10.764L48.879,10.774L48.973,10.774L49.021,10.796L49.475,10.562L49.555,10.555L49.733,10.570L49.894,10.557L49.961,10.565L50.061,10.602L50.084,10.621L50.097,10.642L50.120,10.660L50.173,10.667L50.309,10.661L50.351,10.667L50.437,10.708L50.502,10.763L50.577,10.811L50.690,10.831L50.965,10.849L51.063,10.831L51.108,10.815L51.128,10.804L51.152,10.798L51.208,10.796L51.243,10.807L51.374,10.868L51.474,10.915L51.713,10.961L51.805,10.993L51.829,11.014L51.917,11.104L51.965,11.134L52.073,11.175L52.179,11.242L52.632,11.345L53.196,11.316L53.239,11.298L53.332,11.260L53.360,11.248L53.526,11.130L53.610,11.049L53.647,10.975L53.666,10.954L53.752,10.878L53.779,10.831L53.777,10.790L53.748,10.691L53.746,10.637L53.885,10.385L53.922,10.341L53.976,10.325L54.032,10.286L54.077,10.234L54.098,10.182L54.086,10.147L54.005,10.050L53.981,9.957L53.971,9.827L53.997,9.712L54.082,9.663L54.289,9.669L54.390,9.660L54.455,9.627L54.482,9.581L54.491,9.531L54.491,9.419L54.505,9.394L54.569,9.346L54.584,9.321L54.594,9.291L54.640,9.208L54.652,9.175L54.645,9.130L54.617,9.034L54.616,8.978L54.683,8.936L54.735,8.886L54.776,8.827L54.812,8.755L54.865,8.594L54.911,8.525L54.990,8.497L55.062,8.525L55.153,8.574L55.231,8.588L55.285,8.459L55.389,8.379L55.428,8.332L55.386,8.279L55.365,8.223L55.368,8.165L55.396,8.106L55.441,8.057L55.477,8.054L55.521,8.068L55.589,8.071L55.644,8.052L55.699,8.023L55.756,8.002L55.814,8.006L55.853,8.044L55.903,8.171L55.955,8.271L55.973,8.341L56.002,8.403L56.059,8.429L56.122,8.438L56.181,8.463L56.235,8.499L56.286,8.542L56.390,8.587L56.505,8.568L56.717,8.461L56.788,8.522L56.905,8.686L56.963,8.720L56.979,8.736L57.109,8.817L57.171,8.949L57.210,8.963L57.314,8.984L57.335,8.996L57.346,9.012L57.398,9.066L57.414,9.078L57.506,9.083L57.591,9.098L57.673,9.128L57.754,9.175L57.790,9.155L57.877,9.158L57.915,9.143L57.938,9.108L57.942,9.074L57.942,9.033L57.950,8.978L57.984,8.894L58.036,8.834L58.115,8.797L58.226,8.784L58.309,8.753L58.594,8.526L58.696,8.481L58.913,8.428L59.095,8.324L59.190,8.294L59.403,8.268L59.508,8.228L59.689,8.099L59.775,8.071L59.829,8.077L59.922,8.102L59.957,8.106L60.000,8.092L60.049,8.050L60.083,8.041L60.283,8.084L60.396,8.085L60.392,8.024L60.370,7.977L60.372,7.924L60.387,7.877L60.408,7.848L60.438,7.833L60.466,7.844L60.536,7.912L60.620,7.861L60.862,7.748L60.982,7.647L61.063,7.600L61.152,7.586L61.206,7.606L61.297,7.670L61.361,7.683L61.409,7.659L61.541,7.486L61.629,7.430L61.724,7.406L61.802,7.440L61.834,7.554L61.863,7.554L61.903,7.526L61.912,7.491L61.913,7.447L61.928,7.393L61.983,7.258L61.992,7.246L62.040,7.207L62.379,7.163L62.462,7.117L62.521,7.052L62.513,6.994L62.396,6.970L62.345,6.924L62.376,6.822L62.445,6.712L62.511,6.644L62.536,6.695L62.582,6.835L62.608,6.876L62.673,6.903L62.686,6.865L62.684,6.800L62.701,6.746L62.809,6.714L62.909,6.738L62.940,6.745L63.064,6.810L63.156,6.876L63.182,6.912L63.223,7.002L63.252,7.037L63.299,7.057L63.418,7.075L63.478,7.099L63.519,7.143L63.519,7.238L63.545,7.293L63.601,7.332L63.740,7.377L63.806,7.425L63.743,7.507L63.728,7.556L63.776,7.580L64.088,7.613L64.179,7.607L64.257,7.554L64.313,7.608L64.366,7.601L64.416,7.559L64.468,7.504L64.508,7.485L64.546,7.497L64.590,7.517L64.644,7.522L64.737,7.485L64.908,7.379L65.015,7.357L65.040,7.343L65.128,7.281L65.162,7.263L65.215,7.263L65.390,7.312L65.551,7.402L65.719,7.450L65.760,7.439L65.787,7.343L65.836,7.248L65.856,7.228L65.899,7.214L65.934,7.181L65.971,7.134L66.021,7.137L66.056,7.155L66.089,7.178L66.132,7.196L66.433,7.177L66.489,7.149L66.532,7.108L66.739,7.089L66.811,7.070L66.855,7.022L66.874,6.975L66.879,6.858L66.893,6.805L66.960,6.725L66.975,6.695L66.982,6.646L67.008,6.552L67.005,6.517L66.970,6.486L66.877,6.469L66.844,6.450L66.812,6.346L66.852,6.265L66.912,6.200L66.943,6.141L66.951,6.031L66.980,5.936L67.039,5.867L67.136,5.836L67.076,5.753L67.109,5.723L67.178,5.701L67.227,5.642L67.310,5.691L67.413,5.667L67.625,5.551L67.634,5.534L67.648,5.541L67.698,5.592L67.740,5.603L67.856,5.557L67.912,5.545L67.874,5.461L67.926,5.447L68.011,5.458L68.074,5.448L68.103,5.448L68.139,5.508L68.155,5.570L68.194,5.612L68.299,5.610L68.285,5.627L68.273,5.644L68.258,5.661L68.235,5.677L68.235,5.707L68.302,5.756L68.338,5.747L68.370,5.718L68.428,5.707L68.454,5.719L68.489,5.760L68.510,5.769L68.516,5.774L68.621,5.804L68.687,5.852L68.818,5.997L68.870,6.037L68.937,6.066L69.002,6.061L69.046,5.997L68.990,5.968L69.033,5.949L69.099,5.979L69.110,6.094L69.132,6.086L69.183,6.074L69.204,6.065L69.189,6.130L69.202,6.174L69.225,6.207L69.258,6.301L69.306,6.276L69.352,6.221L69.368,6.191L69.477,6.195L69.530,6.259L69.574,6.346L69.658,6.418L69.666,6.322L69.728,6.268L69.811,6.257L69.884,6.288L69.883,6.206L69.904,6.160L69.947,6.145L70.013,6.156L70.063,6.185L70.145,6.280L70.206,6.324L70.255,6.286L70.320,6.275L70.375,6.275L70.399,6.272L70.412,6.218L70.443,6.199L70.485,6.204L70.529,6.224L70.512,6.186L70.496,6.065L70.520,6.080L70.544,6.089L70.572,6.093L70.610,6.094L70.644,6.080L70.669,6.046L70.692,5.997L70.760,6.031L70.791,6.087L70.822,6.122L70.886,6.094L70.907,6.117L70.937,6.136L70.950,6.156L71.000,6.112L71.015,6.094L71.057,6.240L71.087,6.280L71.147,6.256L71.144,6.281L71.147,6.356L71.168,6.346L71.222,6.333L71.243,6.324L71.278,6.407L71.365,6.470L71.456,6.508L71.577,6.529L71.666,6.519L71.746,6.523L71.791,6.579L71.823,6.557L71.923,6.517L71.967,6.590L72.034,6.642L72.105,6.684L72.164,6.729L72.253,6.910L72.263,6.940L72.322,6.951L72.451,6.998L72.532,7.005L72.572,6.995L72.635,6.971L72.695,6.939L72.728,6.905L72.761,6.940L72.816,6.871L72.903,6.841L72.984,6.852L73.021,6.905L73.051,6.905L73.079,6.855L73.119,6.852L73.182,6.876L73.230,6.852L73.294,6.800L73.343,6.776L73.569,6.776L73.636,6.786L73.669,6.805L73.863,7.012L73.894,7.037L73.929,7.032L73.978,6.982L74.009,6.970L74.041,6.980L74.067,7.003L74.083,7.027L74.087,7.037L74.171,7.045L74.198,7.025L74.252,6.970L74.278,6.928L74.323,6.815L74.345,6.776L74.486,6.623L74.617,6.507L74.759,6.412L74.928,6.324L75.146,6.260L75.348,6.275L75.542,6.345L75.930,6.537L76.039,6.567L76.141,6.579L76.223,6.598L76.289,6.643L76.350,6.698L76.416,6.746L76.457,6.762L76.503,6.771L76.593,6.776L76.646,6.786L76.711,6.830L76.756,6.840L76.881,6.888L76.890,6.949L76.858,7.160L76.884,7.185L76.912,7.206L76.944,7.223L76.977,7.237L77.124,7.350L77.165,7.396L77.182,7.441L77.202,7.542L77.227,7.589L77.312,7.660L77.407,7.693L77.824,7.738L77.908,7.792L77.969,7.904L78.007,8.100L78.036,8.178L78.098,8.228L78.133,8.228L78.224,8.203L78.267,8.201L78.311,8.226L78.350,8.274L78.382,8.328L78.400,8.372L78.418,8.474L78.380,8.750L78.389,8.944L78.410,9.058L78.444,9.135L78.465,9.135L78.581,9.159L78.618,9.172L78.666,9.211L78.752,9.304L78.806,9.336L78.843,9.340L78.978,9.320L79.004,9.324L79.084,9.358L79.112,9.355L79.124,9.334L79.126,9.311L79.130,9.300L79.122,9.294L79.142,9.279L79.184,9.257L79.208,9.265L79.256,9.317L79.288,9.323L79.341,9.316L79.584,9.351L79.599,9.403L79.575,9.485L79.560,9.592L79.563,9.643L79.571,9.682L79.585,9.719L79.608,9.764L79.753,9.970L79.800,9.966L79.878,9.883L79.922,9.856L79.998,9.862L80.029,9.900L80.048,9.992L80.180,10.159L80.267,10.247L80.356,10.311L80.542,10.335L80.750,10.296L80.949,10.287L81.108,10.404L81.150,10.504L81.166,10.570L81.205,10.615L81.318,10.651L81.425,10.639L81.526,10.578L81.613,10.494L81.795,10.255L81.863,10.208L81.969,10.182L82.014,10.185L82.059,10.194L82.105,10.199L82.148,10.186L82.181,10.143L82.193,10.089L82.211,10.037L82.267,10.001L82.461,9.955L82.532,9.909L82.603,9.812L82.799,9.434L82.841,9.427L82.937,9.427L83.002,9.394L83.043,9.355L83.083,9.332L83.148,9.352L83.216,9.444L83.223,9.550L83.246,9.642L83.366,9.691L83.415,9.690L83.559,9.671L83.783,9.689L83.886,9.679L84.172,9.607L84.210,9.647L84.437,9.799L84.489,9.821L84.502,9.888L84.515,9.883L84.703,9.964L84.756,10.003L85.056,10.307L85.163,10.359L85.282,10.342L85.317,10.266L85.330,10.177L85.384,10.121L85.500,10.118L85.594,10.139L85.672,10.122L85.742,10.009L85.790,9.896L85.837,9.827L86.079,9.617L86.138,9.531L86.177,9.435L86.207,9.325L86.238,9.275L86.327,9.193L86.336,9.141L86.331,9.093L86.346,9.010L86.358,8.845L86.397,8.786L86.468,8.773L86.569,8.792L86.588,8.804L86.637,8.853L86.660,8.868L86.733,8.832L86.763,8.828L86.816,8.843L86.959,8.905L87.101,8.907L87.157,8.918L87.354,9.010L87.408,9.049L87.545,9.170L87.613,9.211L87.649,9.218L87.754,9.191L87.785,9.203L87.893,9.269L87.940,9.288L87.998,9.323L87.981,9.373L87.958,9.402L87.936,9.428L87.908,9.475L87.912,9.516L87.944,9.595L87.952,9.637L87.945,9.686L87.903,9.828L87.901,10.034L87.956,10.209L88.083,10.313L88.299,10.310L88.403,10.326L88.525,10.396L88.628,10.493L88.674,10.589L88.659,10.637L88.623,10.684L88.595,10.734L88.599,10.792L88.637,10.836L88.686,10.847L88.741,10.847L88.797,10.857L88.907,10.923L88.979,11.011L89.089,11.223L89.159,11.324L89.230,11.369L89.428,11.409L89.536,11.469L89.585,11.562L89.611,11.671L89.653,11.780L89.767,11.915L89.797,11.967L89.808,12.019L89.809,12.069L89.816,12.117L89.851,12.161L89.929,12.188L90.236,12.193L90.552,12.295L90.934,12.523L91.113,12.580L91.155,12.587L91.250,12.590L91.295,12.582L91.343,12.570L91.390,12.565L91.436,12.580L91.500,12.703L91.613,13.397L91.610,13.490L91.576,13.674L91.550,13.732L91.522,13.761L91.520,13.785L91.569,13.825L91.610,13.840L91.659,13.841L91.753,13.829L91.812,13.814L91.961,13.732L92.042,13.701L92.097,13.694L92.229,13.695L92.330,13.639L92.408,13.546L92.482,13.492L92.568,13.554L92.587,13.601L92.602,13.763L92.634,13.834L92.695,13.881L92.842,13.939L92.910,14.023L92.863,14.267L92.919,14.366L93.022,14.328L93.111,14.251L93.187,14.225L93.248,14.337L93.250,14.380L93.218,14.514L93.225,14.568L93.273,14.667L93.282,14.722L93.252,14.823L93.228,14.858L93.192,14.910L93.056,15.060L92.962,15.222L92.954,15.245L92.948,15.294L92.933,15.319L92.911,15.330L92.854,15.343L92.837,15.353L92.752,15.521L92.560,16.101L92.487,16.322L92.467,16.422L92.473,16.513L92.530,16.583L92.750,16.736L92.831,16.812L92.940,17.003L92.991,17.190L92.985,17.379L92.868,17.697L92.836,17.744L92.817,17.753L92.760,17.764L92.740,17.777L92.728,17.804L92.727,17.851L92.722,17.875L92.564,18.301L92.553,18.361L92.550,18.380L92.539,18.417L92.447,18.562L92.427,18.610L92.421,18.698L92.439,18.873L92.435,18.958L92.399,19.034L92.340,19.130L92.297,19.229L92.310,19.310L92.378,19.331L92.709,19.334L92.756,19.361L92.766,19.419L92.766,19.490L92.778,19.560L92.826,19.637L92.904,19.730L92.992,19.809L93.071,19.845L93.207,19.779L93.273,19.627L93.350,19.497L93.525,19.498L93.605,19.549L93.871,19.849L93.882,19.869L93.893,19.904L93.886,19.931L93.860,19.945L93.844,19.964L93.868,20.007L93.937,20.043L94.144,20.078L94.208,20.081L94.286,20.069L94.514,19.983L94.521,20.187L94.538,20.287L94.574,20.368L94.672,20.444L94.939,20.596L94.992,20.678L95.000,20.690L94.998,20.700L94.958,20.929L94.822,21.174L94.541,21.529L94.239,21.911L94.130,22.048L93.798,22.465L93.461,22.738L92.813,23.264L92.174,23.780L91.776,24.294L91.570,24.559L91.214,25.018L91.120,25.098L91.060,25.140L90.994,25.168L90.905,25.191L90.841,25.198L90.734,25.186L90.679,25.191L90.600,25.253L90.543,25.348L90.485,25.410L90.404,25.372L90.353,25.330L90.309,25.323L90.269,25.335L90.228,25.356L90.084,25.504L90.072,25.535L90.062,25.636L90.050,25.685L90.033,25.726L89.973,25.783L89.974,25.874L90.000,26.066L89.967,26.154L89.861,26.266L89.839,26.342L89.824,26.360L89.739,26.519L89.688,26.579L89.642,26.605L89.138,26.720L88.940,26.810L88.873,26.862L88.769,26.942L88.708,26.977L88.618,27.164L88.612,27.212L88.638,27.457L88.579,27.857L88.577,27.954L88.664,28.337L88.676,28.521L88.608,28.669L88.593,28.701L88.503,28.805L88.254,29.094L88.200,29.182L88.167,29.284L88.016,30.063L88.000,30.099L87.953,30.129L87.920,30.116L87.886,30.086L87.830,30.064L87.804,30.117L87.597,30.407L87.556,30.535L87.549,30.617L87.605,30.823L87.609,30.914L87.584,31.003L87.513,31.177L87.431,31.660L87.402,31.829L87.324,32.293L87.310,32.376L87.208,32.972L87.220,33.061L87.233,33.088L87.282,33.192L87.304,33.265L87.320,33.554L87.309,33.621L87.271,33.646L87.221,33.650L87.177,33.663L87.158,33.714L87.166,33.743L87.202,33.793L87.213,33.821L87.207,33.858L87.184,33.882L87.158,33.902L87.142,33.926L87.083,34.299L87.080,34.398L87.122,34.582L87.132,34.682L87.120,34.966L87.107,35.035L87.054,35.098L86.914,35.146L86.862,35.229L86.855,35.272L86.858,35.319L86.876,35.408L86.882,35.478L86.864,35.524L86.840,35.564L86.840,35.565L86.826,35.622L86.839,35.705L86.908,35.887L86.928,35.978L86.923,36.063L86.866,36.356L86.866,36.470L86.905,36.546L86.954,36.618L86.982,36.721L86.977,36.761L86.932,36.881L86.935,36.931L86.990,37.026L87.008,37.079L87.009,37.170L86.965,37.447L86.780,37.513L86.591,37.649L86.429,37.819L86.338,37.963L86.322,37.988L86.312,37.998L86.302,38.005L86.290,38.008L85.929,38.022L85.855,38.054L85.801,38.124L85.671,38.391L85.624,38.453L85.396,38.642L85.339,38.726L85.239,38.915L85.118,39.109L84.942,39.392L84.853,39.600L84.830,39.769L84.840,39.942L84.966,40.685L84.975,40.855L84.948,41.053L84.874,41.277L84.756,41.461L84.593,41.590L84.383,41.645L84.248,41.641L84.208,41.655L84.159,41.701L84.153,41.742L84.137,41.792L84.102,41.863L84.047,41.948L83.980,42.017L83.898,42.065L83.800,42.094L83.673,42.138L83.607,42.195L83.571,42.320L83.581,42.421L83.598,42.515L83.646,42.600L83.663,42.658L83.581,42.731L83.564,42.793L83.581,42.854L83.623,42.883L83.676,42.908L83.725,42.958L83.756,43.068L83.725,43.429L83.761,43.467L83.937,43.582L84.000,43.607L84.141,43.622L84.238,43.670L84.310,43.751L84.372,43.865L84.276,43.878L84.216,43.929L84.185,44.010L84.176,44.111L84.213,44.190L84.300,44.215L84.398,44.225L84.469,44.256L84.490,44.294L84.533,44.420L84.604,44.523L84.623,44.570L84.630,44.647L84.661,44.722L84.733,44.761L84.820,44.789L84.891,44.837L84.918,44.913L84.937,45.010L84.977,45.095L85.068,45.131L85.155,45.142L85.236,45.172L85.301,45.223L85.345,45.293L85.377,45.565L85.381,45.596L85.360,45.651L85.299,45.684L85.264,45.764L85.248,45.860L85.261,46.175L85.294,46.268L85.374,46.332L85.352,46.353L85.243,46.453L85.223,46.517L85.213,46.655L85.300,47.857L85.291,48.228L85.262,48.428L85.212,48.772L85.252,49.330L85.297,49.456L85.369,49.558L85.548,49.751L85.840,50.245L85.971,50.698L85.997,50.788L86.145,51.932L86.160,51.992L86.177,52.180L86.132,52.580L85.846,53.360L85.753,53.760L85.766,54.157L85.855,54.535L85.862,54.563L86.021,54.949L86.388,55.623L86.580,56.388L87.039,57.470L87.128,57.867L87.083,58.233L86.932,58.499L86.579,58.976L86.484,59.276L86.497,59.464L86.639,59.993L86.718,60.558L86.775,60.744L86.909,60.967L87.229,61.381L87.467,62.017L87.574,62.196L87.723,62.353L88.358,62.834L88.811,63.065L89.017,63.170L89.386,63.477L90.064,64.268L90.347,64.704L90.701,65.465L90.868,66.060L90.914,66.372L91.041,66.819L92.048,68.385L92.393,69.221L92.507,69.647L91.703,69.769L90.491,69.954L89.540,70.098L88.287,70.289L87.033,70.480L86.955,70.492L85.965,70.642L85.220,70.756L84.403,70.880L83.838,70.966L83.714,71.014L83.732,71.103L83.933,71.524L83.909,71.945L83.733,72.351L83.130,73.148L82.345,73.916L81.907,74.238L81.477,74.439L81.275,74.572L81.181,74.747L81.257,74.920L81.459,74.997L81.691,75.045L81.856,75.131L81.953,75.250L81.963,75.340L81.955,75.426L81.947,75.494L81.971,75.568L82.027,75.621L82.140,75.704L82.174,75.754L82.193,75.806L82.202,75.868L82.204,75.948L82.227,76.011L82.285,76.034L82.434,76.030L82.402,76.067L82.296,76.101L82.272,76.127L82.291,76.171L82.380,76.272L82.401,76.336L82.411,76.381L82.453,76.480L82.462,76.531L82.468,76.751L82.497,76.845L82.562,76.938L82.609,76.970L82.650,76.985L82.680,77.013L82.691,77.081L82.814,77.207L82.805,77.228L82.718,77.263L82.673,77.347L82.627,77.551L82.482,77.857L82.462,77.959L82.497,78.300L82.484,78.677L82.442,78.862L82.369,79.008L82.252,79.143L82.208,79.230L82.369,79.366L82.378,79.388L82.388,79.438L82.401,79.463L82.413,79.472L82.454,79.496L82.462,79.499L82.488,79.591L82.475,79.664L82.447,79.740L82.434,79.839L82.448,79.957L82.485,80.041L82.528,80.117L82.562,80.209L82.567,80.265L82.560,80.325L82.541,80.380L82.514,80.422L82.494,80.467L82.533,80.539L82.514,80.584L82.515,80.649L82.576,80.735L82.691,80.861L82.693,80.917L82.667,81.017L82.659,81.072L82.684,81.120L82.794,81.204L82.820,81.234L82.795,81.329L82.734,81.417L82.661,81.491L82.595,81.543L82.568,81.549L82.508,81.545L82.480,81.558L82.459,81.583L82.388,81.698L82.354,81.802L82.319,81.848L82.239,81.932L82.177,82.032L82.135,82.142L82.111,82.253L82.111,82.463L82.100,82.514L82.054,82.610L82.043,82.659L82.026,82.710L81.943,82.794L81.915,82.837L81.909,82.885L81.918,82.986L81.915,83.034L81.897,83.085L81.835,83.200L81.768,83.291L81.765,83.337L81.816,83.589L81.818,83.648L81.806,83.693L81.766,83.752L81.754,83.780L81.748,83.830L81.754,83.990L81.666,84.170L81.621,84.221L81.577,84.290L81.557,84.394L81.593,84.570L81.567,84.584L81.462,84.665L81.446,84.684L81.203,85.037L81.191,85.121L81.197,85.374L81.219,85.447L81.243,85.485L81.299,85.624L81.335,85.672L81.404,85.742L81.432,85.785L81.513,86.067L81.510,86.115L81.493,86.134L81.524,86.178L81.593,86.241L81.607,86.289L81.654,86.616L81.692,86.676L81.768,86.699L81.825,86.748L81.864,86.979L81.915,87.051L81.977,87.018L82.027,87.022L82.069,87.048L82.111,87.084L82.134,87.110L82.190,87.202L82.204,87.245L82.315,87.182L82.379,87.229L82.462,87.406L82.524,87.453L82.756,87.578L82.855,87.604L83.020,87.579L83.063,87.617L83.077,87.749L83.104,87.820L83.169,87.870L83.335,87.959L83.395,88.012L83.459,88.090L83.511,88.180L83.532,88.269L83.574,88.324L83.854,88.478L83.976,88.628L84.361,89.324L84.372,89.371L84.381,89.433L84.403,89.446L84.439,89.446L84.487,89.469L84.555,89.474L84.636,89.434L84.710,89.423L84.762,89.515L84.842,89.465L84.940,89.422L85.056,89.393L85.441,89.386L85.488,89.408L85.573,89.501L85.632,89.551L85.676,89.569L85.731,89.578L85.920,89.582L85.957,89.590L86.153,89.696L86.279,89.741L86.310,89.745L86.377,89.739L86.408,89.741L86.433,89.755L86.450,89.775L86.470,89.794L86.505,89.806L86.596,89.797L86.666,89.754L86.714,89.684L86.730,89.596L86.708,89.511L86.651,89.486L86.579,89.481L86.505,89.454L86.363,89.276L86.345,89.239L86.353,89.200L86.370,89.157L86.389,89.046L86.446,88.861L86.476,88.802L86.548,88.749L86.755,88.679L86.848,88.624L86.916,88.560L86.959,88.543L87.023,88.543L87.084,88.566L87.169,88.648L87.220,88.675L87.300,88.660L87.547,88.548L87.706,88.433L87.806,88.399L88.010,88.382L88.010,88.391L88.011,88.406L88.011,88.408L88.010,88.911L88.009,89.462L88.008,90.249L88.007,90.957L88.006,91.784L88.005,92.492L88.003,93.162L88.002,93.869L88.002,94.392L87.929,94.541L87.858,94.553L87.555,94.550L87.367,94.499L87.265,94.459L87.192,94.418L87.151,94.378L87.120,94.329L87.095,94.277L87.077,94.222L87.077,94.156L87.114,94.131L87.159,94.122L87.188,94.108L87.197,94.064L87.187,93.969L87.195,93.929L87.228,93.894L87.312,93.873L87.347,93.849L87.369,93.813L87.388,93.766L87.396,93.715L87.383,93.668L87.341,93.615L87.304,93.614L87.263,93.628L87.206,93.622L87.116,93.565L87.035,93.499L86.948,93.451L86.838,93.445L86.729,93.492L86.456,93.746L86.359,93.806L85.692,94.058L85.418,94.237L85.311,94.281L85.247,94.317L85.157,94.424L85.107,94.452L85.035,94.437L84.993,94.382L84.961,94.310L84.919,94.251L84.814,94.203L84.700,94.205L84.582,94.223L84.546,94.224L84.458,94.225L84.372,94.256L84.286,94.275L84.209,94.258L84.147,94.184L84.003,94.045L83.927,93.850L83.782,93.153L83.727,93.082L83.684,93.064L83.592,93.060L83.547,93.033L83.502,92.869L83.487,92.858L83.461,92.853L83.434,92.844L83.415,92.824L83.410,92.798L83.416,92.748L83.413,92.727L83.414,92.706L83.436,92.654L83.439,92.630L83.421,92.610L83.358,92.587L83.338,92.566L83.296,92.396L83.262,92.345L83.179,92.274L82.859,91.863L82.670,91.672L82.450,91.625L82.388,91.665L82.320,91.801L82.274,91.858L82.201,91.890L82.130,91.888L82.080,91.844L82.064,91.599L81.989,91.487L81.885,91.384L81.788,91.259L81.755,91.138L81.802,91.070L81.878,91.017L81.933,90.939L81.936,90.816L81.887,90.727L81.728,90.561L81.670,90.455L81.578,90.222L81.513,90.120L81.121,89.785L81.040,89.740L80.951,89.713L80.858,89.707L80.763,89.721L80.639,89.721L80.557,89.666L80.485,89.597L80.395,89.558L80.277,89.587L80.207,89.655L80.138,89.684L80.023,89.594L80.002,89.552L79.992,89.506L79.975,89.466L79.932,89.440L79.584,89.406L79.513,89.411L79.428,89.425L79.323,89.394L79.293,89.293L79.275,89.174L79.206,89.089L78.938,88.931L78.842,88.895L78.722,88.883L78.660,88.920L78.608,88.985L78.519,89.056L78.370,89.093L78.153,89.103L77.943,89.086L77.810,89.043L77.608,88.824L77.582,88.803L77.329,88.600L77.255,88.503L77.025,87.850L77.005,87.661L76.784,87.284L75.904,86.750L75.790,86.338L75.799,86.179L75.778,85.947L75.729,85.731L75.649,85.617L75.618,85.622L75.483,85.672L75.281,85.690L75.102,85.747L75.056,85.749L74.952,85.734L74.911,85.740L74.847,85.807L74.850,85.897L74.908,86.097L74.900,86.224L74.851,86.296L74.781,86.362L74.709,86.466L74.663,86.653L74.644,87.040L74.552,87.224L74.387,87.382L74.205,87.485L74.004,87.527L73.784,87.504L73.663,87.505L73.591,87.564L73.536,87.646L73.465,87.715L73.369,87.736L73.287,87.699L73.207,87.637L73.116,87.585L72.939,87.548L72.556,87.522L72.387,87.468L72.301,87.403L72.228,87.332L72.148,87.271L72.036,87.236L71.855,87.241L71.680,87.270L71.631,87.291L71.538,87.353L71.486,87.375L71.430,87.372L71.332,87.326L71.163,87.337L71.067,87.292L70.971,87.232L70.866,87.192L70.051,87.203L69.990,87.195L69.907,87.157L69.842,87.010L69.775,86.961L69.674,86.923L69.416,86.716L69.398,86.694L69.374,86.678L69.323,86.669L69.289,86.678L69.195,86.721L69.143,86.727L68.871,86.725L68.784,86.710L68.604,86.606L68.454,86.473L68.293,86.371L68.076,86.363L68.039,86.394L68.026,86.442L68.007,86.486L67.956,86.502L67.897,86.510L67.864,86.538L67.835,86.570L67.791,86.593L67.698,86.596L67.627,86.564L67.597,86.500L67.638,86.382L67.640,86.356L67.638,86.331L67.630,86.306L67.547,86.234L67.277,86.107L67.236,86.068L67.213,86.028L67.183,85.997L67.121,85.984L67.061,85.984L67.021,85.979L66.988,85.961L66.949,85.919L66.905,85.840L66.777,85.453L66.764,85.369L66.765,85.325L66.784,85.280L66.848,85.205L66.854,85.160L66.819,85.077L66.712,84.893L66.676,84.797L66.671,84.681L66.711,84.629L66.766,84.585L66.806,84.498L66.782,84.457L66.729,84.417L66.703,84.376L66.758,84.334L66.856,84.296L66.893,84.264L66.895,84.218L66.886,84.121L66.891,84.000L66.882,83.894L66.824,83.844L66.675,83.868L66.228,84.089L65.946,84.148L65.271,84.208L65.090,84.193L64.893,84.253L64.542,84.425L64.359,84.464L64.003,84.465L63.821,84.539L63.771,84.586L63.684,84.701L63.638,84.748L63.588,84.771L63.482,84.794L63.440,84.813L63.399,84.850L63.371,84.889L63.351,84.934L63.336,84.987L63.305,85.026L63.256,85.034L63.200,85.029L63.154,85.033L62.957,85.106L62.857,85.125L62.747,85.116L62.653,85.071L62.493,84.925L62.387,84.863L62.300,84.848L62.103,84.846L62.027,84.811L61.987,84.726L62.048,84.675L62.244,84.616L62.303,84.555L62.455,84.319L62.491,84.243L62.509,84.151L62.518,84.050L62.512,83.951L62.487,83.868L62.454,83.827L62.374,83.756L62.347,83.701L62.351,83.634L62.386,83.589L62.425,83.547L62.442,83.493L62.389,83.396L62.270,83.293L62.133,83.207L62.027,83.160L61.939,83.149L61.763,83.149L61.670,83.136L61.496,83.085L61.417,83.083L61.322,83.113L61.226,83.127L61.196,83.068L61.204,82.911L61.195,82.856L61.162,82.761L61.150,82.709L61.153,82.666L61.180,82.581L61.179,82.540L61.072,82.439L60.868,82.365L60.647,82.323L60.487,82.318L60.398,82.362L60.360,82.456L60.339,82.568L60.300,82.664L60.256,82.705L60.155,82.764L60.110,82.801L60.082,82.849L60.046,82.955L60.014,83.000L59.855,83.057L59.667,83.022L59.471,82.961L59.291,82.941L59.106,82.955L58.949,82.943L58.550,82.834L58.256,82.753L58.073,82.738L57.881,82.748L57.682,82.805L57.367,82.978L56.849,83.262L56.462,83.327L55.988,83.407L55.777,83.407L55.596,83.380L55.501,83.340L55.324,83.224L55.227,83.173L55.115,83.169L55.009,83.221L54.907,83.294L54.808,83.350L54.636,83.380L54.453,83.362L54.273,83.312L54.097,83.242L53.738,83.098L53.566,83.123L53.416,83.501L53.279,83.617L52.807,83.775L52.738,83.823L52.531,84.042L52.443,84.096L52.323,84.103L52.390,83.909L52.407,83.710L52.352,83.293L52.321,83.203L52.242,83.064L52.226,82.983L52.211,82.960L52.142,82.910L52.127,82.886L52.127,82.705L52.026,82.375L51.983,82.301L51.982,82.224L52.064,82.120L52.173,82.023L52.258,81.962L52.456,81.881L52.573,81.847L52.663,81.833L52.709,81.793L52.723,81.702L52.709,81.521L52.716,81.506L52.742,81.477L52.665,81.355L52.653,81.188L52.657,81.089L52.662,80.996L52.645,80.796L52.600,80.697L52.542,80.634L52.494,80.571L52.484,80.470L52.516,80.372L52.622,80.201L52.645,80.130L52.650,80.081L52.675,79.989L52.680,79.935L52.665,79.880L52.596,79.796L52.555,79.654L52.445,79.460L52.361,79.237L52.245,79.025L52.158,78.809L52.191,78.656L52.168,78.597L52.127,78.397L52.030,78.139L51.992,77.972L51.956,77.867L51.891,77.792L51.709,77.677L51.631,77.610L51.578,77.584L51.545,77.618L51.512,77.628L51.465,77.601L51.193,77.288L51.136,77.155L51.128,77.002L51.098,77.018L51.025,77.048L50.996,77.064L50.929,76.880L50.630,76.569L50.513,76.383L50.463,76.186L50.409,75.770L50.351,75.578L50.319,75.529L50.239,75.433L50.219,75.381L50.226,75.322L50.275,75.224L50.305,75.060L50.451,74.765L50.501,74.566L50.502,74.372L50.445,73.897L50.513,73.355L50.501,73.109L50.540,72.733L50.588,72.619L50.624,72.462L50.657,72.430L50.706,72.129L50.762,71.782L50.813,71.639L50.899,71.487L50.863,71.485L50.844,71.476L50.830,71.466L50.806,71.458L50.918,71.094L50.936,70.886L50.899,70.683L50.783,70.499L50.729,70.379L50.754,70.324L50.791,70.304L50.826,70.285L50.779,70.198L50.641,70.063L50.603,69.978L50.552,69.753L50.541,69.551L50.528,69.471L50.499,69.407L50.380,69.270L50.329,69.186L50.297,69.091L50.287,68.977L50.255,68.922L50.107,68.838L50.061,68.800L50.040,68.716L50.026,68.394L50.042,68.348L50.110,68.255L50.126,68.200L50.120,68.144L50.090,68.022L50.118,67.814L50.145,67.736L50.197,67.586L50.234,67.481L50.295,67.306L50.350,67.146L50.383,67.052L50.404,66.991L50.413,66.903L50.428,66.875L50.497,66.806L50.513,66.770L50.513,66.592L50.500,66.545L50.485,66.519L50.474,66.490L50.477,66.430L50.493,66.377L50.536,66.281L50.545,66.220L50.534,66.193L50.488,66.149L50.477,66.122L50.483,66.098L50.507,66.055L50.513,66.026L50.501,65.968L50.473,65.933L50.440,65.899L50.413,65.846L50.422,65.820L50.446,65.786L50.457,65.747L50.432,65.703L50.405,65.673L50.299,65.447L50.269,65.411L50.233,65.388L50.202,65.378L50.185,65.355L50.186,65.338L50.090,65.335L49.931,65.336L49.588,65.337L49.245,65.338L48.901,65.339L48.558,65.340L48.214,65.341L47.871,65.342L47.528,65.343L47.184,65.344L46.842,65.344L46.498,65.345L46.155,65.347L45.811,65.347L45.468,65.348L45.125,65.350L44.782,65.350L44.438,65.351L44.219,65.352L44.213,65.119L44.208,64.895L44.237,64.674L44.336,64.416L44.410,64.224L44.538,63.888L44.648,63.600L44.375,63.601L43.968,63.602L43.573,63.603L43.325,63.604L43.270,63.612L43.231,63.643L43.193,63.714L43.172,63.782L43.151,63.938L43.151,64.006L42.924,64.006L42.725,64.006L42.527,64.006L42.329,64.006L42.131,64.006L41.933,64.006L41.734,64.006L41.588,64.006L41.536,64.006L41.338,64.006L41.140,64.006L40.941,64.006L40.743,64.006L40.544,64.006L40.346,64.006L40.148,64.006L39.950,64.006L39.752,64.006L39.505,64.006L39.592,64.194L39.604,64.245L39.573,64.321L39.443,64.486L39.388,64.573L39.342,64.725L39.291,65.492L39.306,65.642L39.342,65.804L39.467,66.119L39.465,66.266L39.330,66.372L39.326,66.374L39.323,66.377L39.319,66.379L39.255,66.463L39.206,66.648L39.138,66.719L39.047,66.740L38.721,66.713L38.712,66.837L38.750,66.964L38.804,67.090L38.841,67.213L38.843,67.328L38.826,67.451L38.732,67.742L38.688,67.884L38.618,68.101L38.605,68.249L38.619,68.370L38.721,68.738L38.592,68.738L37.990,68.738L37.388,68.738L36.785,68.738L36.184,68.738L35.975,68.738L35.902,68.625L35.873,68.567L35.850,68.434L35.809,68.408L35.471,68.408L35.101,68.408L34.761,68.408L34.703,68.448L34.694,68.540L34.719,68.717L34.626,68.720L34.597,68.716L34.308,68.720L34.229,68.732L34.126,68.787L34.053,68.808L33.992,68.804L33.816,68.736L33.585,68.728L33.233,68.714L33.157,68.725L32.964,68.816L32.891,68.835L32.805,68.886L32.762,68.995L32.756,69.127L32.786,69.245L32.364,69.255L32.238,69.227L31.997,69.022L31.858,68.956L31.700,68.939L31.624,68.954L31.330,69.115L31.272,69.123L31.112,69.063L30.970,69.052L30.570,69.192L30.436,69.195L30.172,69.130L30.136,69.088L30.134,69.085L30.097,69.015L30.152,68.880L30.136,68.800L30.097,68.765L29.993,68.712L29.946,68.668L29.921,68.622L29.878,68.471L29.856,68.494L29.827,68.518L29.814,68.539L29.799,68.504L29.789,68.491L29.792,68.477L29.814,68.442L29.713,68.392L29.670,68.361L29.653,68.330L29.677,68.266L29.721,68.222L29.739,68.179L29.685,68.119L29.616,68.139L29.600,68.104L29.603,68.043L29.589,67.990L29.543,67.978L29.480,67.978L29.448,67.968L29.492,67.925L29.492,67.893L29.402,67.892L29.379,67.849L29.383,67.790L29.375,67.746L29.329,67.722L29.220,67.707L29.198,67.681L29.180,67.639L29.095,67.563L29.070,67.502L29.087,67.460L29.117,67.415L29.116,67.374L29.037,67.341L29.058,67.320L29.058,67.318L29.048,67.310L29.037,67.273L28.967,67.307L28.956,67.232L28.960,67.121L28.938,67.044L28.955,66.955L28.862,66.885L28.632,66.770L28.561,66.667L28.483,66.440L28.419,66.334L28.375,66.293L28.335,66.264L28.305,66.233L28.294,66.188L28.319,66.132L28.374,66.105L28.429,66.087L28.455,66.057L28.437,66.023L28.394,66.001L28.294,65.975L28.256,65.955L28.228,65.935L28.199,65.944L28.161,66.010L28.095,65.966L28.067,65.901L28.066,65.787L28.065,65.735L28.044,65.664L27.993,65.617L27.871,65.558L27.712,65.445L27.585,65.407L27.564,65.351L27.564,65.277L27.552,65.203L27.476,65.096L27.418,65.034L27.372,65.006L27.347,64.965L27.356,64.712L27.260,64.403L27.269,64.284L27.420,64.325L27.426,64.222L27.459,64.141L27.477,64.067L27.437,63.984L27.412,63.947L27.393,63.910L27.363,63.881L27.309,63.870L27.267,63.849L27.267,63.804L27.283,63.760L27.295,63.740L27.259,63.470L27.202,63.354L27.088,63.274L27.035,63.262L26.921,63.250L26.870,63.233L26.815,63.182L26.795,63.119L26.787,63.050L26.769,62.981L26.509,62.617L26.473,62.540L26.452,62.455L26.438,62.281L26.418,62.197L26.348,62.039L26.333,61.962L26.351,61.879L26.409,61.781L26.411,61.736L26.369,61.682L26.320,61.637L26.290,61.593L26.288,61.539L26.319,61.471L26.217,61.466L26.217,61.420L26.260,61.354L26.287,61.293L26.277,61.231L26.252,61.225L26.221,61.231L26.190,61.212L26.163,61.169L26.155,61.151L26.158,60.968L26.176,60.921L26.217,60.906L26.260,60.903L26.287,60.886L26.293,60.839L26.283,60.792L26.268,60.748L26.261,60.708L26.258,60.362L26.269,60.284L26.303,60.224L26.314,60.161L26.272,60.090L26.190,59.996L26.168,59.933L26.118,59.901L26.055,59.882L26.000,59.852L25.919,59.742L25.862,59.700L25.768,59.691L25.868,59.575L25.850,59.528L25.808,59.534L25.764,59.556L25.736,59.559L25.722,59.505L25.703,59.208L25.694,59.164L25.670,59.115L25.625,59.055L25.624,59.025L25.688,58.950L25.704,58.910L25.528,58.823L25.494,58.804L25.315,58.732L25.231,58.712L25.146,58.709L25.053,58.723L24.902,58.767L24.831,58.778L24.754,58.765L24.651,58.712L24.576,58.652L24.495,58.603L24.374,58.578L24.097,58.583L23.666,58.589L23.360,58.595L23.236,58.597L22.805,58.604L22.375,58.611L21.944,58.619L21.514,58.626L21.083,58.633L20.652,58.640L20.221,58.647L19.791,58.654L19.361,58.661L18.930,58.669L18.499,58.676L18.068,58.683L17.638,58.690L17.208,58.697L17.030,58.700L16.767,58.705L16.167,58.815L16.021,58.801L15.721,58.724L15.506,58.762L15.079,58.753L14.587,58.743L14.494,58.731L14.215,58.632L14.107,58.620L13.545,58.663L13.475,58.636L13.362,58.572L13.179,58.517L12.535,58.568L11.753,58.631L11.381,58.591L11.336,58.601L11.250,58.637L11.193,58.639L11.054,58.596L10.676,58.589L10.521,58.586L10.490,58.608L10.395,58.711L10.342,58.748L10.194,58.670L9.997,58.620L9.599,58.586L9.594,58.587L9.596,58.586L9.531,58.556L9.456,58.566L9.306,58.615L9.234,58.618L9.150,58.606L9.043,58.616L8.897,58.590L8.675,58.489L8.612,58.475L8.447,58.410L8.369,58.389L8.236,58.389L8.059,58.412L7.888,58.461L7.768,58.534L7.731,58.553L7.624,58.629L7.567,58.707L7.515,58.795L7.393,58.941L7.417,59.168L7.178,59.267L6.871,59.257L6.632,59.386L6.253,59.480L6.128,59.512L6.060,59.507L6.044,59.429L6.065,59.392L6.164,59.330L6.165,59.217L6.164,59.180L6.117,59.154L6.039,59.149L5.961,59.164L5.946,59.201L5.914,59.222L5.878,59.294L5.822,59.192L5.798,59.105L5.782,59.070L5.758,59.049L5.700,59.018L5.682,59.006L5.583,58.880L5.265,58.560L5.183,58.456L5.000,58.147L5.229,58.020L5.632,57.963L6.062,57.967L6.408,57.971L6.425,57.533L6.437,57.226L6.459,56.636L6.481,56.071L6.497,55.668L6.511,55.304L6.480,55.145L6.423,55.105L6.132,55.002L6.105,54.977L6.087,54.932L6.078,54.881L6.080,54.841L6.104,54.795L6.133,54.786L6.169,54.791L6.208,54.786L6.604,54.649L6.780,54.536L6.857,54.358L6.871,54.261L6.913,54.229L7.095,54.216L7.210,54.177L7.245,54.122L7.255,54.047L7.296,53.946L7.366,53.888L7.579,53.765L7.623,53.708L7.632,53.598L7.663,53.491L7.717,53.392L7.796,53.304L7.939,53.223L8.865,53.006L9.034,52.945L9.074,52.809L9.063,52.650L9.141,52.545L9.256,52.533L9.359,52.653L9.397,52.724L9.481,52.847L9.539,53.003L9.585,53.049L9.711,53.130L9.933,53.323L10.019,53.380L10.305,53.482L10.375,53.520L10.419,53.564L10.444,53.621L10.478,53.786L10.579,53.992L10.629,53.952L10.759,53.794L11.002,53.615L11.055,53.587L11.069,53.551L11.050,53.511L11.002,53.469L11.155,53.380L11.209,53.372L11.269,53.399L11.362,53.496L11.419,53.522L11.462,53.508L11.517,53.491L11.619,53.301L11.718,53.237L11.764,53.240L11.872,53.270L11.913,53.266L11.938,53.232L11.925,53.145L11.944,53.093L11.983,53.073L12.022,53.085L12.057,53.089L12.088,53.047L12.025,52.844L12.042,52.740L12.115,52.549L12.132,52.458L12.082,52.001L12.100,51.947L12.155,51.917L12.454,51.812L12.551,51.822L12.657,51.891L12.700,51.949L12.766,52.073L12.818,52.118L12.861,52.130L12.994,52.121L12.999,52.122L13.137,52.162L13.183,52.160L13.233,52.131L13.312,52.035L13.387,51.981L13.398,51.970L13.406,51.957L13.545,51.769L13.721,51.698L14.136,51.648L14.317,51.589L14.494,51.506L14.671,51.350L14.767,51.283L14.981,51.231L15.185,51.121L15.272,51.115L15.299,51.137L15.311,51.174L15.311,51.225L15.302,51.285L15.282,51.353L15.266,51.379L15.267,51.404L15.299,51.472L15.376,51.590L15.468,51.698L15.632,51.803L15.662,51.835L15.647,51.923L15.581,52.018L15.502,52.106L15.449,52.180L15.393,52.238L15.214,52.312L15.139,52.380L15.101,52.448L15.097,52.486L15.133,52.591L15.172,52.771L15.243,52.861L15.313,52.927L15.366,53.002L15.385,53.120L15.376,53.165L15.340,53.248L15.329,53.293L15.332,53.349L15.351,53.394L15.374,53.436L15.393,53.485L15.316,53.853L15.336,53.997L15.419,53.982L15.509,53.968L15.567,53.938L15.664,53.835L15.720,53.805L15.812,53.781L15.899,53.784L15.937,53.835L15.958,53.854L16.059,53.849L16.098,53.853L16.121,53.875L16.159,53.937L16.181,53.950L16.240,53.970L16.387,54.059L16.440,54.079L16.620,54.061L16.759,54.012L17.072,53.817L17.294,53.721L17.368,53.660L17.416,53.589L17.452,53.512L17.839,52.864L18.204,52.505L18.234,52.444L18.272,52.392L18.524,52.264L18.627,52.169L18.876,51.815L19.052,51.564L19.078,51.501L19.127,51.407L19.242,51.340L19.372,51.285L19.464,51.225L19.989,50.960L20.173,50.893L20.290,50.831L20.331,50.815L20.349,50.783L20.454,50.673L20.479,50.632L20.624,50.167L20.684,50.078L20.756,50.022L20.840,49.983L21.521,49.766L21.729,49.736L21.940,49.703L22.149,49.641L22.332,49.545L22.356,49.522L22.470,49.413L22.555,49.135L22.583,49.087L22.616,49.050L22.763,48.793L22.842,48.568L22.909,48.501L22.944,48.395L23.136,48.006L23.430,47.647L23.535,47.441L23.632,47.188L23.865,46.785L23.926,46.642L23.949,46.554L23.958,46.444L23.932,46.393L23.877,46.355L23.822,46.300L23.797,46.200L23.826,45.994L23.825,45.885L23.781,45.796L23.761,45.718L23.780,45.462L23.755,45.196L23.773,44.961L23.753,44.790L23.720,44.516L23.725,44.448L23.738,44.382L23.849,44.044L23.949,43.346L23.792,42.211L23.789,41.982L23.780,41.938L23.769,41.913L23.726,41.848L23.710,41.775L23.719,41.698L23.781,41.485L23.781,41.455L23.774,41.418L23.769,41.309L23.803,41.202L23.860,41.103L23.976,40.951L24.093,40.846L24.227,40.755L24.490,40.503L24.690,40.351L24.987,40.059L25.060,39.967L25.103,39.928L25.125,39.916L25.198,39.885L25.281,39.822L25.310,39.808L25.325,39.744L25.350,39.687L25.362,39.672L25.736,39.177L25.797,39.058L25.825,38.918L25.822,38.757L25.828,38.703L25.852,38.625L25.887,38.547L25.980,38.403L26.044,38.304L26.153,38.084L26.308,37.881L26.484,37.530L26.562,37.419L26.635,37.244L26.744,37.049L26.795,36.917L26.817,36.883L26.847,36.852L26.955,36.787L27.175,36.609L27.323,36.437L27.507,36.273L27.619,36.144L27.632,36.115L27.660,36.103L27.710,36.069L27.739,36.057L27.889,36.032L28.117,35.968L28.432,35.838L28.523,35.813L28.762,35.779L29.009,35.709L29.057,35.681L29.150,35.571L29.163,35.546L29.290,35.485L29.326,35.455L29.423,35.337L29.546,35.223L30.180,34.458L30.446,34.137L30.544,34.064L30.605,33.994L30.660,33.954L30.676,33.936L30.683,33.917L30.692,33.847L30.712,33.811L30.738,33.777L31.040,33.495L31.106,33.402L31.141,33.355L31.100,32.516L30.984,32.044L30.972,31.924L30.985,31.805L31.177,30.923L31.263,30.754L31.634,29.738L32.040,29.169L32.066,29.093L32.097,28.634L32.087,28.553L32.057,28.462L32.007,28.385L31.938,28.346L31.848,28.119L31.819,28.004L31.816,27.870L31.887,27.505L31.887,27.375L31.747,26.772L31.748,26.397L31.694,26.069L31.725,25.960L31.816,25.781L31.921,25.665L32.117,25.335L32.150,25.241L32.167,24.947L32.333,24.417L32.355,24.243L32.381,24.151L32.660,23.538L32.671,23.439L32.635,22.083L32.645,22.002L32.693,21.845L32.708,21.764L32.709,21.688L32.682,21.471L32.704,21.018L32.693,20.873L32.665,20.729L32.665,20.659L32.848,20.161L32.883,20.106L32.997,19.970L33.016,19.921L33.096,19.897L33.144,19.826L33.210,19.661L33.263,19.575L33.304,19.486L33.334,19.393L33.386,19.114L33.423,19.038L33.485,18.961L33.756,18.707L33.804,18.691L33.818,18.651L34.179,18.039L34.298,17.717L34.314,17.589L34.330,17.526L34.443,17.286L34.529,17.163L34.550,17.114L34.569,17.010L34.587,16.962L34.661,16.845L34.817,16.378L34.878,16.293L34.976,16.227L35.142,16.142L35.217,16.078L35.248,16.000L35.258,15.944L35.302,15.838L35.355,15.153L35.318,14.559L35.279,14.429ZM8.279,58.648L8.414,58.669L8.508,58.658L8.596,58.643L8.700,58.643L8.581,58.736L8.446,58.778L8.180,58.830L8.113,58.877L7.967,58.924L7.817,59.048L7.702,59.079L7.598,59.069L7.523,58.983L7.619,58.888L7.759,58.779L7.915,58.659L8.040,58.644L8.279,58.648Z" fill="currentColor" stroke="currentColor" stroke-width="1.5" stroke-linejoin="round"/>
</svg>