<svg xmlns="http://www.w3.org/2000/svg" viewBox="0 0 100 100" role="img" aria-label="Republic of the Congo">
  <title>Republic of the Congo</title>
  <path d="M88.648,7.386L88.732,7.671L88.813,8.964L88.697,10.458L88.601,10.688L88.578,10.811L88.510,10.982L88.348,11.121L87.985,11.305L87.772,11.450L87.637,11.636L87.296,12.653L87.134,12.908L87.095,13.013L87.053,13.240L87.008,13.346L86.821,13.613L86.573,14.137L86.539,14.275L86.503,14.554L86.244,15.256L85.455,16.590L85.424,16.676L85.319,16.711L84.727,17.264L84.592,17.433L84.511,17.599L84.397,18.205L84.332,18.408L84.242,18.603L84.127,18.791L83.983,19.149L83.878,19.305L83.702,19.358L83.660,19.463L83.412,19.759L83.335,19.880L82.936,20.965L82.936,21.118L82.996,21.431L83.022,21.747L82.973,22.734L83.032,23.209L83.029,23.373L82.996,23.551L82.892,23.892L82.871,24.069L82.948,27.025L82.925,27.241L82.315,28.576L82.258,28.778L82.210,29.155L81.849,30.311L81.811,30.953L81.738,31.157L81.311,31.875L81.080,32.129L80.882,32.518L80.814,32.756L80.933,33.472L80.930,34.289L81.237,35.603L81.236,35.886L81.081,36.682L81.088,36.973L81.151,37.224L81.348,37.720L81.499,37.804L81.608,37.971L81.673,38.171L81.694,38.348L81.627,39.348L81.569,39.513L80.684,40.753L79.873,42.967L79.684,43.336L79.264,45.258L79.237,45.517L79.263,45.778L79.516,46.809L79.606,48.636L79.529,48.739L79.385,48.942L78.726,49.557L78.670,49.630L78.626,49.710L78.606,49.861L78.590,49.903L78.556,49.941L78.434,50.029L78.302,50.182L78.087,50.340L77.506,51.040L76.121,52.709L75.852,52.957L75.641,53.213L75.562,53.278L75.285,53.412L75.256,53.465L75.054,53.705L74.947,53.768L74.408,53.920L73.887,53.994L73.687,54.048L72.998,54.331L72.502,54.470L72.173,54.525L72.111,54.551L72.002,54.626L71.939,54.651L71.910,54.714L71.667,54.997L71.264,55.353L70.941,55.728L70.461,56.117L70.225,56.257L70.158,56.325L70.111,56.399L69.999,56.687L69.761,57.113L69.602,57.494L69.431,57.736L69.048,58.500L68.708,58.943L68.470,59.422L68.331,59.637L68.127,59.952L68.051,60.122L67.999,60.292L67.985,60.410L67.992,60.760L67.931,61.065L67.797,61.326L66.980,62.404L66.955,62.437L66.899,62.560L66.866,62.701L66.802,62.731L66.622,62.868L66.462,62.935L66.413,62.962L66.320,63.046L66.162,63.249L65.512,63.885L65.075,64.214L64.499,64.765L64.207,64.964L63.952,65.193L63.699,65.522L63.573,65.739L63.499,65.972L63.512,66.210L63.526,66.290L63.525,66.357L63.391,66.820L63.370,66.987L63.405,67.146L63.500,67.289L63.524,67.342L63.544,67.439L63.550,67.937L63.893,70.413L63.676,71.934L63.432,72.670L63.404,72.814L63.392,72.962L63.464,73.560L63.508,73.931L63.469,74.443L63.524,75.023L63.482,75.581L63.525,75.752L63.621,75.946L63.623,76.183L63.561,76.632L63.615,76.850L63.736,76.969L63.857,77.052L63.912,77.163L63.893,77.404L63.843,77.595L63.709,77.906L63.200,78.786L62.988,79.337L62.758,79.786L62.117,80.567L61.698,81.416L61.621,81.648L61.475,81.794L61.301,82.284L60.981,82.844L60.908,82.924L60.848,83.028L60.661,83.634L60.412,83.873L60.360,83.922L59.961,84.131L59.505,84.267L59.042,84.338L58.589,84.405L57.100,84.878L56.917,84.962L56.759,85.084L56.629,85.278L56.312,86.292L56.256,86.382L56.028,86.622L55.988,86.691L55.898,86.726L55.643,86.859L55.242,87.005L54.094,87.583L53.893,87.714L53.610,87.836L53.359,87.982L53.250,88.185L53.195,88.324L52.809,88.870L52.265,89.641L52.041,89.849L51.491,90.127L51.406,90.240L51.340,90.374L50.544,91.156L49.699,92.568L49.620,92.737L49.515,92.890L49.353,93.024L48.868,93.233L48.185,93.659L47.881,93.765L47.487,93.804L47.372,93.761L47.050,93.566L46.921,93.522L46.874,93.495L46.790,93.359L46.741,93.311L46.656,93.304L46.435,93.315L46.389,93.273L46.305,93.161L46.115,93.155L45.914,93.208L45.791,93.273L45.579,93.498L45.454,93.562L45.256,93.593L45.076,93.625L45.033,93.311L45.199,92.510L45.159,92.403L45.107,92.311L45.066,92.213L45.059,92.091L45.085,91.994L45.164,91.813L45.182,91.715L45.140,91.457L45.026,91.293L44.873,91.149L44.716,90.954L44.631,90.561L44.553,90.332L44.562,90.251L44.646,90.101L44.809,89.953L45.199,89.791L45.323,89.665L45.438,89.505L45.610,89.312L45.755,89.106L45.788,88.913L45.721,88.844L45.364,88.615L45.163,88.379L44.994,88.123L44.925,87.974L44.922,87.919L44.957,87.863L45.002,87.715L45.020,87.583L45.021,87.473L44.995,87.391L44.936,87.343L44.745,87.357L44.301,87.598L43.832,87.711L43.622,87.857L43.236,88.196L42.849,88.378L42.454,88.506L41.547,88.616L41.162,88.769L40.858,89.178L40.840,89.208L40.818,89.231L40.654,89.349L40.480,89.558L40.372,89.622L40.270,89.626L39.970,89.540L39.959,89.537L39.669,89.556L39.574,89.531L39.461,89.432L39.316,89.161L39.222,89.036L38.990,88.885L38.779,88.864L38.125,89.092L38.006,89.157L37.965,89.275L38.076,90.271L38.039,90.470L37.878,90.887L37.842,91.113L37.980,91.556L37.912,91.646L37.835,91.637L37.749,91.613L37.665,91.656L37.622,91.769L37.651,91.959L37.597,92.031L37.506,92.041L37.271,91.975L37.171,91.969L36.955,92.108L36.732,92.523L36.613,92.560L36.518,92.590L36.394,92.533L36.190,92.322L36.059,92.264L35.941,92.281L35.606,92.476L35.711,92.565L35.752,92.654L35.722,92.732L35.606,92.792L35.075,93.182L34.791,93.528L34.682,93.615L34.463,93.165L34.388,92.806L34.333,92.682L34.236,92.587L34.083,92.504L33.459,92.280L33.271,92.157L32.786,91.736L32.511,91.560L32.411,91.458L32.283,91.120L32.099,90.852L32.016,90.697L31.792,90.435L31.541,90.462L31.371,90.690L31.394,91.037L30.914,90.798L30.237,89.991L29.829,89.665L29.628,89.437L29.442,88.942L29.292,88.734L29.131,88.642L29.008,88.655L28.884,88.711L28.724,88.744L28.582,88.714L28.393,88.611L28.318,88.571L28.176,88.520L27.931,88.662L27.814,88.899L27.731,89.145L27.591,89.312L27.405,89.418L27.236,89.553L27.092,89.718L26.869,90.133L26.755,90.253L26.593,90.312L25.449,90.521L24.747,90.750L24.592,90.764L24.313,90.729L24.216,90.873L24.229,91.315L24.180,91.531L23.749,92.383L23.642,92.510L23.495,92.566L23.145,92.603L22.989,92.640L22.839,92.698L22.748,92.776L22.618,92.536L22.524,92.417L22.427,92.359L22.304,92.359L22.256,92.406L21.943,93.463L21.671,93.900L20.509,94.886L20.422,95.000L20.264,94.857L20.121,94.689L19.888,94.302L19.500,93.833L19.247,93.587L19.150,93.305L18.576,92.705L18.469,92.578L18.459,92.520L18.509,92.450L18.569,92.462L18.707,92.620L18.760,92.591L18.808,92.466L18.780,92.249L18.508,91.897L18.071,91.502L18.022,91.373L18.030,91.268L18.274,91.270L18.468,91.057L18.514,90.825L18.326,90.437L17.157,89.265L16.086,88.350L15.145,87.518L14.658,87.216L14.150,86.768L13.955,86.455L13.906,86.390L13.773,86.164L13.745,86.064L13.756,85.838L13.746,85.721L13.705,85.640L12.797,84.916L11.789,84.254L11.446,84.002L11.187,83.835L11.348,83.536L12.033,81.689L12.203,81.364L12.471,81.135L12.823,80.907L13.130,80.655L13.462,80.450L13.887,80.365L14.280,80.234L14.510,79.938L14.703,79.621L14.987,79.426L15.504,79.500L15.887,79.793L16.705,81.117L16.878,81.304L17.102,81.379L17.663,81.307L17.870,81.330L18.464,81.500L18.656,81.505L18.681,81.495L18.862,81.426L19.085,81.260L19.267,81.043L19.348,80.810L19.276,80.592L19.078,80.485L18.833,80.406L18.620,80.279L18.518,80.064L18.547,79.825L19.135,78.436L19.275,78.187L19.719,77.855L19.858,77.633L19.749,77.301L19.350,77.114L18.861,76.980L18.486,76.802L18.070,76.460L17.853,76.330L17.269,76.086L17.189,76.026L17.101,75.938L17.082,75.898L17.099,75.840L17.108,75.125L17.159,74.944L17.296,74.689L17.403,74.624L17.545,74.635L17.783,74.611L18.037,74.454L18.037,74.232L17.886,73.995L17.102,73.161L16.746,72.644L16.577,72.455L16.372,72.388L16.079,72.477L15.661,72.770L15.484,72.800L15.431,72.558L15.534,72.163L15.553,72.088L16.305,70.862L16.399,70.601L16.450,70.387L16.450,70.173L16.394,69.910L16.297,69.678L16.036,69.262L15.956,69.044L15.952,68.864L16.026,68.293L15.989,68.066L15.768,67.465L15.850,67.262L15.872,67.256L16.253,67.269L16.775,67.427L16.916,67.499L16.980,67.579L17.022,67.665L17.101,67.757L17.449,68.030L17.637,68.129L17.807,68.143L17.979,68.043L18.328,67.721L18.557,67.629L18.929,67.555L19.364,67.416L19.687,67.256L19.794,67.319L19.980,67.456L20.330,67.890L20.645,68.106L20.965,68.142L25.058,67.265L24.941,67.038L25.015,66.704L25.154,66.349L25.225,66.053L25.152,65.626L25.171,65.474L25.245,65.317L25.430,65.025L25.476,64.847L25.074,64.665L24.860,64.335L24.771,63.918L24.685,62.806L24.725,62.667L24.840,62.694L24.963,62.824L25.158,63.031L25.339,63.088L25.473,63.015L25.517,62.911L25.525,62.799L25.543,62.710L25.606,62.578L25.657,62.511L25.720,62.453L26.225,62.114L26.336,62.073L26.843,62.059L27.282,62.242L27.963,62.735L28.009,62.768L28.445,62.909L28.619,63.028L28.738,63.280L28.965,64.028L29.058,64.246L29.117,64.322L29.278,64.480L29.324,64.542L29.365,64.777L29.346,64.781L29.346,64.829L29.336,64.891L29.358,64.944L29.552,64.994L29.546,65.054L29.505,65.122L29.486,65.171L29.442,65.249L29.424,65.314L29.449,65.382L29.584,65.515L29.623,65.587L29.631,65.694L29.676,65.877L29.823,65.872L30.073,65.744L30.163,65.831L30.356,66.147L30.453,66.265L30.505,66.543L30.533,66.626L30.606,66.705L30.669,66.703L30.718,66.714L30.744,66.830L30.657,66.921L30.600,67.006L30.578,67.110L30.571,67.198L30.542,67.289L30.501,67.375L30.453,67.448L30.337,67.545L30.284,67.641L30.314,67.703L30.453,67.695L30.572,67.576L30.758,67.389L30.892,67.350L31.147,67.396L31.812,67.697L32.028,67.749L32.141,67.726L32.338,67.611L32.457,67.595L32.558,67.617L34.356,68.284L34.539,68.306L34.738,68.257L34.961,68.293L35.015,68.294L35.160,68.249L35.226,68.266L35.312,68.393L35.365,68.410L35.474,68.348L35.521,68.265L35.550,68.169L35.606,68.070L35.709,67.971L36.043,67.740L36.131,67.654L36.281,67.465L36.383,67.373L36.506,67.311L36.752,67.233L36.855,67.162L36.901,67.071L36.931,66.852L37.000,66.745L37.784,65.986L37.868,65.871L37.905,65.763L37.921,65.559L37.949,65.445L38.058,65.240L38.273,64.919L38.297,64.863L38.330,64.876L38.438,64.954L38.580,65.090L38.705,65.285L38.794,65.503L38.888,65.929L39.122,66.408L39.249,66.597L39.438,66.789L39.507,66.890L39.541,67.177L39.621,67.253L39.730,67.305L39.836,67.381L39.977,67.573L39.933,67.640L39.811,67.715L39.665,68.027L39.451,68.134L39.374,68.225L39.366,68.622L39.355,68.673L39.523,68.822L39.759,68.899L40.011,68.912L40.228,68.867L40.405,68.760L40.505,68.715L40.605,68.715L40.700,68.784L40.731,68.973L40.797,69.034L40.875,69.035L41.350,68.887L41.415,68.875L41.518,68.883L41.677,68.975L41.779,69.018L41.873,69.004L41.935,68.926L41.982,68.792L42.046,68.608L42.133,68.517L42.232,68.439L42.305,68.349L42.300,68.079L42.347,67.974L42.431,67.886L42.628,67.719L42.722,67.656L42.825,67.609L43.317,67.494L43.362,67.522L43.285,67.194L42.504,66.533L42.471,66.181L42.610,66.072L42.964,65.943L43.102,65.793L43.104,65.717L43.040,65.533L43.052,65.431L43.107,65.382L43.285,65.320L43.355,65.249L43.403,65.102L43.461,64.559L43.529,64.355L43.540,64.253L43.490,64.165L43.405,64.104L43.352,64.050L43.346,63.986L43.400,63.889L43.395,63.771L43.420,63.679L43.471,63.603L43.545,63.528L44.745,63.059L44.767,63.051L45.041,62.901L45.116,62.760L45.037,62.310L45.043,62.222L45.106,61.957L45.138,61.135L45.204,60.913L45.329,60.774L45.572,60.627L45.493,60.559L45.276,60.523L45.100,60.468L44.975,60.050L44.775,59.939L44.707,59.862L44.799,59.780L45.010,59.705L45.107,59.657L45.205,59.586L45.275,59.481L45.316,59.362L45.382,59.272L45.720,59.209L45.716,59.053L45.601,58.867L45.465,58.733L45.595,58.435L45.612,58.186L45.650,58.089L45.769,57.974L45.900,57.890L45.974,57.772L45.916,57.558L45.554,57.318L45.402,57.161L45.341,56.964L45.369,56.850L45.441,56.775L45.526,56.709L45.601,56.625L45.658,56.516L45.696,56.417L45.737,56.186L45.748,55.864L45.731,55.771L45.651,55.638L45.476,55.466L45.433,55.424L45.361,55.298L45.358,55.210L45.415,55.032L45.424,54.943L45.389,54.823L45.279,54.600L44.985,53.791L44.987,53.643L45.096,53.424L45.147,52.978L45.201,52.742L45.360,52.488L45.542,52.288L45.658,52.067L45.615,51.754L45.545,51.491L45.543,51.238L45.601,50.985L46.019,50.079L46.090,49.745L45.997,49.436L45.755,48.938L45.628,48.803L45.218,48.520L44.990,48.213L44.643,47.996L44.250,47.822L43.963,47.739L43.786,47.767L43.626,47.842L43.468,47.896L43.301,47.856L43.112,47.779L42.935,47.780L42.765,47.839L42.591,47.932L42.573,47.546L42.497,47.121L42.371,46.707L42.197,46.355L41.928,46.091L41.551,45.908L41.138,45.844L40.762,45.943L40.688,45.843L40.605,45.774L40.505,45.734L40.136,45.692L40.056,45.719L40.017,45.788L39.989,45.862L39.945,45.908L39.809,45.958L39.743,45.971L39.681,45.925L39.204,45.357L39.214,45.065L39.323,44.809L39.790,44.188L39.918,44.018L40.024,43.918L40.132,43.785L40.121,43.676L40.068,43.561L40.047,43.410L40.091,43.308L40.237,43.119L40.253,43.011L40.172,42.884L40.048,42.862L39.928,42.859L39.861,42.789L39.817,42.044L39.768,41.792L39.668,41.472L39.617,41.213L39.664,40.967L40.014,40.445L40.380,39.625L40.599,39.392L41.361,38.972L41.554,38.750L41.595,38.537L41.531,38.326L41.415,38.111L41.728,37.676L42.238,37.607L42.817,37.672L43.335,37.644L43.474,37.591L43.532,37.548L43.571,37.494L44.335,36.833L44.403,36.613L44.434,36.083L44.732,35.654L45.207,35.247L45.560,34.822L45.492,34.342L45.457,34.215L45.535,34.131L45.657,34.058L45.752,33.962L45.771,33.822L45.692,33.739L45.446,33.615L45.250,33.437L45.077,33.233L44.932,33.007L44.818,32.766L44.658,32.239L44.517,32.029L44.022,31.801L43.861,31.585L43.777,31.322L43.788,30.544L43.760,30.275L43.607,29.631L43.545,29.516L43.434,29.429L43.317,29.380L43.228,29.323L43.213,29.266L43.196,29.209L43.074,29.186L42.996,29.129L42.930,29.061L42.841,29.000L42.435,28.889L42.228,28.869L42.042,28.916L41.674,29.059L41.455,29.046L41.293,28.930L41.141,28.780L40.953,28.668L40.775,28.629L38.828,28.447L38.682,28.482L38.674,28.531L38.577,28.798L38.451,29.045L38.417,29.067L38.306,29.109L38.275,29.098L38.155,29.040L38.103,29.030L38.032,29.056L37.909,29.153L37.842,29.186L37.652,29.221L37.557,29.227L37.460,29.223L37.256,29.242L37.110,29.337L36.976,29.447L36.606,29.591L36.370,29.908L36.237,30.004L35.892,30.068L35.581,30.069L35.262,30.008L34.902,29.880L34.745,29.865L34.520,29.891L34.319,29.946L34.236,30.024L34.170,30.206L33.995,30.253L33.807,30.280L33.616,30.514L33.427,30.596L33.214,30.640L32.859,30.613L32.649,30.647L32.540,30.633L32.540,30.631L32.508,30.489L32.410,30.423L32.287,30.373L32.182,30.281L32.378,30.261L32.455,30.134L32.493,29.990L32.575,29.922L32.720,29.901L32.895,29.842L33.042,29.743L33.139,29.536L33.202,29.500L33.224,29.445L33.138,29.320L33.104,29.251L33.100,29.172L33.106,29.088L33.092,28.600L33.103,28.514L32.938,28.411L32.752,27.912L32.540,27.803L32.602,27.657L32.589,27.516L32.517,27.394L32.400,27.305L32.329,27.381L32.138,27.117L31.970,26.818L32.147,26.614L32.180,26.366L32.118,25.896L32.158,25.679L32.228,25.486L32.258,25.305L32.182,25.128L32.312,25.053L32.418,24.915L32.497,24.760L32.603,24.381L32.618,24.216L32.575,24.094L32.522,24.017L32.439,23.831L32.306,23.648L32.348,23.601L32.471,23.566L32.540,23.405L32.611,23.285L32.680,23.202L32.748,23.138L32.801,23.066L32.823,22.962L32.764,22.768L32.767,22.682L32.861,22.645L32.915,22.607L33.103,22.402L33.165,22.354L33.532,22.152L33.638,21.904L33.674,21.573L33.671,20.955L35.444,20.971L37.030,20.985L37.462,20.989L39.130,21.002L40.973,21.019L42.613,21.033L43.697,21.044L43.793,21.032L44.247,20.855L44.901,20.944L45.063,21.036L45.262,21.220L45.409,21.253L45.469,21.234L45.680,21.104L46.493,20.931L46.585,20.898L46.618,20.809L46.595,20.714L46.593,20.618L46.689,20.528L46.741,20.462L47.006,20.535L47.347,20.916L47.593,21.025L47.506,21.189L47.606,21.240L47.874,21.230L48.018,21.317L48.221,21.527L48.374,21.588L48.303,21.337L48.378,21.300L48.656,21.448L48.508,21.563L48.444,21.588L48.545,21.625L48.653,21.613L48.743,21.588L48.796,21.588L48.807,21.661L48.798,21.892L48.831,21.940L49.465,21.870L49.618,21.832L49.691,21.737L49.711,21.611L49.711,21.483L49.781,21.420L49.931,21.567L50.066,21.769L50.099,21.870L50.300,22.008L50.189,22.296L50.147,22.549L50.556,22.581L50.780,22.555L50.875,22.508L50.957,22.260L51.057,22.274L51.547,22.664L51.706,22.710L51.906,22.645L52.028,22.828L52.200,22.776L52.366,22.607L52.470,22.440L52.533,22.440L52.684,22.497L52.820,22.193L53.149,22.313L53.287,22.255L53.448,22.207L53.666,22.293L53.717,22.354L53.773,22.512L53.814,22.581L53.870,22.612L54.221,22.741L54.302,22.806L54.361,22.886L54.383,22.962L54.369,23.097L54.351,23.155L54.366,23.197L54.447,23.285L54.497,23.293L54.739,23.401L54.735,23.425L54.856,23.406L55.050,23.308L55.258,23.239L55.784,22.926L56.235,22.864L56.686,22.947L57.564,23.208L58.543,23.317L58.588,23.364L58.696,23.424L58.825,23.474L59.066,23.513L59.140,23.557L59.534,24.059L59.663,24.127L59.938,24.222L60.185,24.384L60.285,24.433L60.354,24.505L60.381,24.661L60.432,24.747L60.554,24.742L60.693,24.688L60.803,24.629L60.835,24.791L60.987,24.867L61.187,24.911L61.365,24.981L61.472,24.923L61.595,24.926L61.709,24.973L61.794,25.051L61.838,25.170L61.824,25.271L61.794,25.368L61.794,25.474L61.881,25.653L62.287,26.177L62.751,25.512L62.841,25.486L63.063,25.561L63.174,25.512L63.207,25.350L62.960,24.210L62.612,23.308L62.428,22.997L62.339,22.918L62.275,22.888L62.236,22.832L62.224,22.452L62.252,22.353L62.410,22.132L62.408,22.042L62.372,21.961L62.357,21.870L62.352,21.864L62.346,21.837L62.346,21.791L62.357,21.729L62.388,21.685L62.434,21.671L62.476,21.669L62.498,21.659L62.520,21.513L62.493,21.418L62.449,21.327L62.428,21.195L62.451,21.077L62.575,20.846L62.643,20.619L62.808,20.519L63.017,20.555L63.209,20.738L63.623,20.428L63.709,20.315L63.653,20.223L63.595,20.177L64.124,19.052L64.593,18.057L64.925,17.351L65.394,16.357L65.833,15.426L65.975,15.124L66.213,14.618L66.507,13.991L66.555,13.743L66.465,13.558L66.315,13.390L66.190,13.196L66.161,12.740L66.559,11.975L66.628,11.604L66.549,11.374L66.441,11.163L66.359,10.944L66.366,10.690L66.486,10.454L66.841,9.960L66.899,9.739L66.906,9.486L67.164,8.837L67.255,7.975L67.420,7.515L67.738,7.130L68.160,6.853L68.644,6.712L68.882,6.697L69.089,6.712L69.939,6.924L70.156,6.912L70.359,6.809L70.379,6.721L70.350,6.612L70.364,6.528L70.515,6.513L70.612,6.538L70.801,6.608L70.896,6.626L71.181,6.592L71.282,6.600L71.395,6.664L71.471,6.751L71.554,6.802L71.692,6.756L71.772,6.741L71.910,6.759L71.973,6.754L72.059,6.717L72.176,6.616L72.247,6.569L72.418,6.488L72.511,6.466L72.789,6.483L72.931,6.461L73.208,6.353L73.350,6.314L73.763,6.327L73.912,6.305L74.084,6.227L74.177,6.132L74.261,6.023L74.404,5.904L74.553,5.849L74.685,5.863L74.952,5.953L75.326,5.926L75.546,5.720L75.752,5.462L76.152,5.256L76.286,5.187L76.443,5.072L76.610,5.000L76.846,5.036L76.891,5.082L76.932,5.218L76.982,5.258L77.126,5.273L77.172,5.300L77.554,5.620L77.928,5.784L78.346,5.845L79.190,5.844L79.245,5.833L79.365,5.788L79.438,5.784L79.507,5.816L79.608,5.930L79.673,5.967L79.767,5.969L79.967,5.929L80.056,5.936L80.213,6.028L80.345,6.178L80.442,6.367L80.491,6.572L80.561,6.734L80.708,6.763L80.903,6.707L81.298,6.515L81.356,6.471L81.411,6.493L81.775,6.724L81.874,6.761L82.002,6.748L82.324,6.591L82.675,6.497L83.035,6.493L83.390,6.611L83.571,6.789L83.702,7.200L83.837,7.351L84.061,7.381L84.277,7.278L84.457,7.107L84.577,6.930L84.616,6.829L84.690,6.517L84.752,6.375L84.827,6.351L84.920,6.377L85.034,6.381L85.856,6.308L85.917,6.321L86.034,6.379L86.106,6.381L86.146,6.343L86.188,6.202L86.234,6.159L86.351,6.144L86.526,6.154L86.620,6.114L86.808,5.931L86.922,5.793L87.057,5.786L87.315,5.998L87.483,6.197L87.905,6.876L88.069,7.255L88.195,7.381L88.648,7.386Z" fill="currentColor" stroke="currentColor" stroke-width="1" stroke-linejoin="round"/>
</svg>