<svg xmlns="http://www.w3.org/2000/svg" viewBox="0 0 100 100" role="img" aria-label="Cook Islands">
  <title>Cook Islands</title>
  <path d="M74.266,94.575L74.354,94.608L74.427,94.673L74.564,94.837L74.583,94.913L74.506,94.964L74.395,94.992L74.311,95.000L74.213,94.988L74.143,94.954L74.089,94.896L74.038,94.816L74.069,94.734L74.128,94.653L74.199,94.595L74.266,94.575ZM75.778,79.956L75.765,80.103L75.783,80.293L75.777,80.469L75.687,80.571L75.687,80.476L75.652,80.407L75.607,80.363L75.567,80.311L75.550,80.215L75.581,80.160L75.728,79.998L75.778,79.956ZM74.224,5.236L74.083,5.236L73.971,5.203L73.848,5.124L73.773,5.043L73.809,5.000L74.224,5.193L74.224,5.236ZM61.824,89.785L61.954,89.791L62.087,89.825L62.192,89.893L62.234,89.997L62.237,90.138L62.225,90.202L62.189,90.258L62.004,90.229L61.981,90.234L61.855,90.170L61.589,90.190L61.501,90.116L61.551,90.064L61.590,89.934L61.600,89.851L61.653,89.806L61.824,89.785ZM78.417,82.644L78.382,82.759L78.312,82.810L78.233,82.786L78.173,82.682L78.175,82.562L78.245,82.520L78.340,82.550L78.417,82.644ZM73.306,81.529L73.283,81.657L73.184,81.705L73.060,81.678L72.961,81.574L72.926,81.406L73.025,81.381L73.178,81.441L73.306,81.529ZM72.037,80.409L71.952,80.335L71.983,80.346L72.004,80.365L72.037,80.409ZM71.908,80.257L71.867,80.298L71.843,80.303L71.852,80.284L71.908,80.257ZM67.651,76.507L67.569,76.472L67.484,76.404L67.448,76.341L67.514,76.319L67.548,76.355L67.566,76.423L67.604,76.472L67.698,76.451L67.693,76.471L67.683,76.485L67.651,76.507ZM21.583,18.405L21.641,18.394L21.668,18.393L21.695,18.401L21.653,18.455L21.622,18.472L21.599,18.455L21.583,18.405ZM53.889,14.943L53.835,14.892L53.821,14.870L53.931,14.935L54.210,15.225L53.889,14.943ZM53.210,12.539L53.329,12.486L53.293,12.548L53.214,12.605L53.210,12.539ZM61.909,73.470L61.993,73.457L62.063,73.514L62.068,73.571L62.044,73.545L62.032,73.500L62.012,73.494L61.948,73.622L61.946,73.647L61.967,73.798L61.924,73.865L61.852,73.862L61.804,73.798L61.794,73.712L61.824,73.578L61.851,73.533L61.909,73.470Z" fill="currentColor" stroke="currentColor" stroke-width="1" stroke-linejoin="round"/>
</svg>