<svg xmlns="http://www.w3.org/2000/svg" viewBox="0 0 100 100" role="img" aria-label="Colombia">
  <title>Colombia</title>
  <path d="M27.194,66.351L27.274,66.313L27.240,66.223L27.178,66.169L27.111,66.126L27.064,66.069L27.058,65.992L27.069,65.896L27.070,65.800L27.033,65.724L27.001,65.715L26.936,65.746L26.837,65.790L26.795,65.741L26.744,65.695L26.679,65.685L26.630,65.641L26.520,65.580L26.475,65.558L26.342,65.474L26.268,65.395L26.223,65.321L26.248,65.237L26.287,65.187L26.366,65.157L26.465,65.133L26.554,65.049L26.633,64.895L26.702,64.801L26.830,64.672L26.934,64.553L27.003,64.479L27.107,64.395L27.342,64.342L27.455,64.360L27.543,64.350L27.653,64.374L27.748,64.417L27.856,64.443L28.025,64.455L28.136,64.479L28.282,64.497L28.308,64.510L28.343,64.552L28.391,64.587L28.442,64.603L28.490,64.594L28.487,64.523L28.494,64.484L28.513,64.404L28.581,64.330L28.616,64.201L28.577,64.119L28.583,64.043L28.591,64.027L28.608,64.002L28.622,63.969L28.620,63.924L28.606,63.895L28.586,63.915L28.555,63.978L28.489,64.015L28.389,64.015L28.358,63.949L28.355,63.854L28.377,63.752L28.383,63.675L28.409,63.552L28.414,63.491L28.398,63.448L28.357,63.396L28.305,63.352L28.255,63.335L28.199,63.365L28.158,63.431L28.107,63.591L28.052,63.620L28.015,63.580L28.006,63.475L27.990,63.337L27.928,63.165L27.884,62.925L27.839,62.752L27.826,62.535L27.884,62.410L27.946,62.273L27.982,62.144L28.117,62.088L28.160,61.945L28.308,61.676L28.418,61.457L28.476,61.305L28.552,61.224L28.520,61.308L28.515,61.394L28.529,61.481L28.552,61.566L28.623,61.338L28.667,61.093L28.723,60.990L28.817,61.014L28.943,60.855L29.069,60.705L29.190,60.528L29.298,60.486L29.386,60.402L29.494,60.299L29.624,60.220L29.685,60.225L29.732,60.342L29.788,60.477L29.867,60.608L29.969,60.753L30.084,60.756L30.030,60.585L30.002,60.440L30.007,60.286L30.049,60.211L30.123,60.141L30.179,60.230L30.216,60.384L30.184,60.496L30.235,60.580L30.282,60.688L30.321,60.779L30.394,60.859L30.438,60.891L30.617,60.980L30.700,61.004L30.748,61.000L30.830,60.945L30.930,60.914L30.937,60.886L30.938,60.848L30.935,60.817L30.930,60.807L30.948,60.778L30.956,60.758L30.957,60.576L30.938,60.501L30.915,60.422L30.864,60.338L30.836,60.249L30.883,60.202L30.995,60.226L31.046,60.188L31.167,60.184L31.260,60.189L31.344,60.184L31.409,60.142L31.521,60.076L31.619,60.086L31.690,60.149L31.742,60.244L31.782,60.299L31.836,60.313L31.930,60.287L31.885,60.366L31.843,60.471L31.849,60.563L31.949,60.603L32.008,60.610L32.110,60.634L32.174,60.635L32.304,60.608L32.362,60.603L32.485,60.575L32.573,60.505L32.619,60.414L32.618,60.325L32.587,60.260L32.530,60.173L32.458,60.102L32.380,60.080L32.380,60.049L32.484,60.049L32.484,60.011L32.417,59.998L32.386,59.964L32.385,59.918L32.412,59.873L32.359,59.859L32.342,59.828L32.351,59.785L32.380,59.735L32.336,59.726L32.315,59.712L32.309,59.684L32.311,59.631L32.400,59.668L32.470,59.638L32.533,59.587L32.602,59.559L32.635,59.555L32.680,59.543L32.708,59.522L32.690,59.494L32.648,59.486L32.565,59.525L32.521,59.525L32.445,59.478L32.465,59.441L32.521,59.408L32.552,59.373L32.587,59.385L32.668,59.401L32.760,59.408L32.830,59.390L32.851,59.423L32.885,59.464L32.896,59.494L32.933,59.494L32.884,59.386L32.699,59.338L32.759,59.249L32.836,59.207L32.910,59.198L32.977,59.181L33.037,59.111L33.086,59.131L33.125,59.153L33.155,59.180L33.171,59.218L33.199,59.100L33.090,59.063L32.937,59.086L32.830,59.145L32.802,59.070L32.798,58.959L32.827,58.855L32.896,58.801L32.965,58.809L33.011,58.850L33.053,58.900L33.106,58.939L33.162,58.956L33.179,58.946L33.184,58.916L33.209,58.869L33.255,58.823L33.276,58.807L33.282,58.787L33.277,58.731L33.260,58.704L33.191,58.685L33.171,58.663L33.172,58.637L33.200,58.619L33.224,58.553L33.250,58.544L33.264,58.533L33.243,58.487L33.210,58.467L33.168,58.470L33.130,58.464L33.106,58.418L33.098,58.454L33.091,58.463L33.091,58.466L33.106,58.487L33.051,58.519L32.995,58.531L32.951,58.513L32.933,58.455L32.807,58.569L32.759,58.593L32.768,58.532L32.953,58.311L33.067,58.146L33.141,58.068L33.525,57.744L33.625,57.557L33.685,57.447L33.758,57.424L33.841,57.459L33.856,57.408L33.862,57.364L33.875,57.313L33.910,57.312L33.956,57.323L33.987,57.292L33.958,57.241L33.880,57.205L33.803,57.231L33.690,57.244L33.674,57.198L33.735,57.121L33.858,57.014L33.942,56.963L34.061,56.918L33.997,56.859L34.002,56.756L34.042,56.700L34.099,56.642L34.159,56.607L34.208,56.618L34.292,56.596L34.363,56.587L34.385,56.572L34.484,56.483L34.597,56.695L34.671,56.777L34.796,56.825L34.773,56.769L34.606,56.568L34.561,56.493L34.554,56.410L34.577,56.331L34.624,56.270L34.642,56.313L34.676,56.360L34.710,56.384L34.724,56.361L34.714,56.323L34.669,56.259L34.659,56.239L34.684,56.137L34.732,56.050L34.759,55.963L34.724,55.856L34.776,55.853L34.827,55.856L34.812,55.881L34.802,55.907L34.797,55.938L34.796,55.978L34.810,56.015L34.842,56.016L34.890,55.983L34.978,55.990L35.001,56.003L35.047,56.047L35.071,56.063L35.065,56.014L35.045,55.976L35.013,55.948L34.968,55.928L34.989,55.917L35.013,55.900L35.034,55.891L34.939,55.857L34.896,55.856L34.918,55.809L34.937,55.796L34.962,55.805L35.002,55.825L35.018,55.750L34.946,55.723L34.843,55.729L34.762,55.753L34.782,55.674L34.838,55.662L34.917,55.678L35.002,55.684L34.976,55.670L34.924,55.633L34.896,55.618L34.925,55.606L34.942,55.595L34.962,55.585L35.002,55.580L34.987,55.560L34.968,55.508L35.069,55.486L35.174,55.477L35.174,55.508L35.150,55.554L35.199,55.553L35.346,55.508L35.275,55.490L35.258,55.456L35.281,55.409L35.370,55.303L35.402,55.241L35.449,55.094L35.507,55.135L35.548,55.146L35.587,55.128L35.640,55.078L35.695,55.058L35.773,55.038L35.806,55.016L35.727,54.991L35.661,55.001L35.593,55.025L35.542,55.020L35.521,54.942L35.557,54.931L35.635,54.916L35.718,54.883L35.765,54.818L35.678,54.829L35.468,54.887L35.401,54.854L35.380,54.776L35.391,54.685L35.418,54.611L35.559,54.713L35.635,54.738L35.746,54.746L35.769,54.736L35.756,54.713L35.720,54.690L35.675,54.680L35.620,54.681L35.579,54.676L35.547,54.656L35.521,54.611L35.604,54.618L35.675,54.604L35.729,54.568L35.765,54.507L35.687,54.458L35.639,54.398L35.645,54.331L35.727,54.263L35.767,54.291L35.790,54.317L35.799,54.352L35.796,54.404L35.870,54.332L35.839,54.228L35.825,54.134L36.056,54.058L36.118,53.974L36.170,53.881L36.243,53.815L36.243,53.783L35.934,53.849L35.934,53.815L35.969,53.803L36.002,53.783L35.875,53.785L35.817,53.774L35.765,53.746L35.782,53.965L35.490,54.132L35.127,54.194L34.934,54.094L34.944,54.047L35.016,54.007L35.034,53.968L35.016,53.949L34.928,53.906L34.867,53.865L34.845,53.865L34.832,53.852L34.827,53.799L34.833,53.756L34.845,53.719L34.865,53.677L34.890,53.545L34.916,53.501L34.968,53.470L35.040,53.458L35.088,53.475L35.093,53.514L35.034,53.570L35.274,53.531L35.346,53.504L35.346,53.470L35.174,53.504L35.197,53.440L35.232,53.383L35.368,53.225L35.449,53.049L35.396,53.052L35.371,53.046L35.360,53.025L35.346,52.984L35.269,53.001L35.210,52.958L35.150,52.893L35.071,52.843L35.093,52.892L35.100,52.947L35.093,53.001L35.071,53.049L35.028,53.025L34.984,53.018L34.940,53.027L34.896,53.049L34.896,53.087L34.921,53.109L34.923,53.112L34.911,53.120L34.896,53.159L34.874,53.138L34.859,53.132L34.837,53.131L34.796,53.122L34.812,53.217L34.796,53.357L34.759,53.484L34.707,53.539L34.691,53.569L34.674,53.708L34.659,53.746L34.578,53.753L34.515,53.711L34.490,53.642L34.521,53.570L34.262,53.366L34.233,53.326L34.211,53.241L34.235,53.167L34.346,53.159L34.288,53.085L34.267,53.049L34.231,52.913L34.211,52.759L34.211,52.605L34.222,52.536L34.254,52.478L34.312,52.429L34.382,52.413L34.449,52.421L34.501,52.412L34.521,52.344L34.541,52.309L34.589,52.272L34.649,52.254L34.707,52.275L34.792,52.375L34.825,52.385L34.896,52.363L34.987,52.310L35.068,52.234L35.212,52.049L34.786,52.044L34.707,52.032L34.638,51.946L34.452,51.635L34.594,51.433L34.624,51.356L34.664,51.139L34.715,51.061L34.827,51.008L34.827,50.974L34.724,51.008L34.738,50.865L34.793,50.628L34.796,49.936L34.812,49.983L34.833,50.019L34.860,50.049L34.896,50.077L34.919,50.026L34.934,49.944L34.917,49.867L34.796,49.804L34.780,49.738L34.775,49.657L34.762,49.588L34.875,49.605L34.963,49.666L35.028,49.749L35.071,49.833L35.103,49.833L35.044,49.671L34.830,49.413L34.796,49.243L34.773,49.253L34.713,49.270L34.690,49.280L34.647,49.074L34.587,48.426L34.556,48.343L34.524,47.584L34.549,47.412L34.594,47.248L34.659,47.101L34.586,47.057L34.581,46.947L34.593,46.836L34.571,46.784L34.524,46.743L34.497,46.644L34.484,46.443L34.409,46.467L34.364,46.445L34.345,46.387L34.346,46.302L34.380,46.302L34.403,46.325L34.421,46.337L34.444,46.332L34.484,46.302L34.432,46.268L34.411,46.222L34.375,46.066L34.380,46.048L34.376,46.028L34.346,45.991L34.323,45.982L34.240,45.969L34.208,45.956L34.152,45.902L34.116,45.849L34.075,45.806L34.002,45.784L33.930,45.784L33.878,45.799L33.844,45.833L33.831,45.888L33.770,45.834L33.710,45.837L33.659,45.856L33.621,45.853L33.586,45.796L33.598,45.751L33.643,45.722L33.709,45.712L33.752,45.659L33.870,45.411L33.930,45.333L33.976,45.319L34.088,45.311L34.137,45.298L34.197,45.255L34.241,45.211L34.290,45.177L34.363,45.163L34.452,45.189L34.528,45.238L34.611,45.267L34.724,45.229L34.757,45.199L34.768,45.168L34.776,45.132L34.796,45.091L34.801,45.069L34.792,45.011L34.796,44.988L34.819,44.982L34.852,44.988L34.883,44.990L34.896,44.972L34.920,44.918L34.976,44.873L35.039,44.834L35.087,44.797L35.120,44.746L35.146,44.688L35.164,44.628L35.174,44.570L35.161,44.360L35.085,44.182L34.879,43.850L34.862,43.834L34.827,43.809L34.824,43.698L34.624,43.153L34.587,43.153L34.587,43.291L34.556,43.291L34.474,43.070L34.345,42.871L34.037,42.495L33.982,42.406L33.963,42.332L33.968,42.131L34.002,41.952L34.007,41.863L33.968,41.799L34.002,41.767L34.191,41.924L34.312,42.078L34.363,42.042L34.414,41.954L34.484,41.767L34.501,41.673L34.505,41.584L34.499,41.508L34.484,41.454L34.391,41.327L34.406,41.286L34.521,41.244L34.535,41.275L34.551,41.290L34.568,41.300L34.587,41.316L34.608,41.239L34.590,41.168L34.545,41.111L34.484,41.074L34.484,41.040L34.560,40.911L34.585,40.830L34.587,40.726L34.652,40.651L34.675,40.539L34.663,40.426L34.624,40.347L34.452,40.209L34.417,40.170L34.394,40.135L34.364,40.102L34.312,40.071L34.314,40.015L34.340,39.909L34.346,39.845L34.331,39.781L34.294,39.756L34.243,39.741L34.072,39.645L33.954,39.673L33.856,39.749L33.796,39.826L33.817,39.861L33.831,39.895L33.790,39.903L33.762,39.914L33.724,39.933L33.693,39.933L33.692,39.805L33.701,39.745L33.724,39.688L33.515,39.239L33.415,39.102L33.271,38.961L33.198,38.914L33.066,38.881L33.045,38.856L33.023,38.841L32.965,38.860L32.948,38.889L32.949,38.931L32.941,38.971L32.896,38.996L32.871,38.646L32.916,38.500L33.055,38.441L33.115,38.352L33.053,38.155L32.896,37.857L32.862,37.857L32.894,37.917L32.909,37.937L32.933,37.958L32.933,37.995L32.896,37.995L32.811,37.877L32.440,37.482L32.385,37.451L32.294,37.440L32.245,37.411L32.213,37.348L32.174,37.288L32.102,37.264L32.137,37.233L32.072,37.214L32.014,37.167L31.930,37.057L31.891,37.046L32.097,36.388L32.272,35.826L32.392,35.853L32.503,35.835L32.600,35.778L32.675,35.684L32.720,35.554L32.705,35.446L32.591,35.225L32.546,35.069L32.522,34.854L32.554,34.668L32.675,34.602L32.727,34.630L32.978,34.844L33.027,34.900L33.025,34.913L33.004,34.958L33.004,34.977L33.019,34.990L33.062,35.001L33.075,35.010L33.214,35.199L33.253,35.266L33.314,35.518L33.367,35.576L33.482,35.564L33.608,35.463L33.837,35.232L34.543,34.794L34.691,34.661L34.660,34.567L34.556,34.469L34.489,34.321L34.505,34.260L34.654,34.072L34.783,33.783L34.889,33.676L35.044,33.595L35.213,33.539L35.364,33.508L35.551,33.510L35.580,33.489L35.540,33.409L35.491,33.358L35.437,33.319L35.389,33.273L35.356,33.199L35.346,33.077L35.238,32.683L35.092,32.404L35.045,32.334L34.915,32.144L34.806,31.914L34.769,31.862L34.704,31.835L34.637,31.831L34.573,31.807L34.517,31.720L34.473,31.540L34.432,31.193L34.359,31.017L34.275,30.876L34.223,30.832L34.138,30.804L33.987,30.818L33.941,30.789L33.941,30.673L33.983,30.523L34.038,30.465L34.181,30.314L34.241,30.188L34.236,30.098L34.211,30.046L34.217,30.008L34.299,29.956L34.380,29.938L34.461,29.930L34.514,29.893L34.521,29.823L34.523,29.800L34.532,29.786L34.544,29.773L34.556,29.754L34.631,29.800L34.683,29.986L34.743,30.082L34.805,30.143L34.855,30.206L34.897,30.280L34.934,30.375L34.976,30.571L35.019,30.677L35.346,30.899L35.600,31.001L35.675,31.054L35.729,31.118L36.136,31.786L36.243,31.868L36.313,31.880L36.453,31.882L36.475,31.888L36.521,31.899L36.552,31.834L36.593,31.835L36.623,31.886L36.621,31.968L36.590,31.968L36.573,31.952L36.553,31.937L36.552,32.063L36.588,32.153L36.649,32.186L36.728,32.144L36.728,32.247L36.796,32.175L36.817,32.227L36.769,32.309L36.762,32.385L36.739,32.375L36.682,32.361L36.659,32.351L36.691,32.531L36.813,32.606L36.927,32.589L36.937,32.492L37.246,32.492L37.216,32.536L37.189,32.586L37.174,32.640L37.175,32.699L37.212,32.699L37.230,32.685L37.281,32.661L37.281,32.699L37.106,32.765L37.106,32.799L37.151,32.807L37.181,32.820L37.222,32.866L37.216,32.875L37.217,32.889L37.212,32.906L37.190,32.882L37.161,32.867L37.123,32.862L37.074,32.868L37.116,32.912L37.165,32.944L37.213,32.982L37.246,33.044L37.120,32.985L36.984,32.948L36.867,32.959L36.796,33.044L36.794,33.065L36.801,33.071L36.813,33.071L36.828,33.075L36.736,33.361L36.870,33.538L37.139,33.622L37.453,33.630L37.512,33.620L37.572,33.599L37.624,33.568L37.659,33.527L37.675,33.482L37.673,33.452L37.664,33.421L37.659,33.373L37.670,33.332L37.717,33.281L37.728,33.234L37.758,32.922L37.751,32.781L37.690,32.661L37.678,32.701L37.672,32.727L37.676,32.755L37.690,32.799L37.659,32.799L37.633,32.719L37.614,32.602L37.613,32.485L37.671,32.315L37.652,32.207L37.587,32.040L37.559,31.876L37.560,31.171L37.536,31.077L37.470,31.037L37.398,31.009L37.367,30.938L37.347,30.848L37.315,30.761L37.214,30.653L37.057,30.547L36.873,30.460L36.728,30.444L36.728,30.482L36.668,30.426L36.750,30.298L36.873,30.154L36.937,30.048L37.435,29.892L37.557,29.883L38.047,29.744L38.113,29.709L38.140,29.667L38.141,29.612L38.149,29.554L38.170,29.504L38.212,29.475L38.212,29.444L38.178,29.444L38.178,29.406L38.274,29.390L38.615,29.264L38.684,29.218L38.905,28.995L39.166,28.815L39.281,28.713L39.281,28.682L39.244,28.622L39.288,28.582L39.594,28.506L39.712,28.437L39.806,28.426L39.848,28.394L39.874,28.345L39.920,28.282L40.106,28.148L40.147,28.092L40.103,27.917L40.153,27.772L40.251,27.657L40.421,27.508L40.467,27.448L40.498,27.373L40.557,26.953L40.591,26.882L40.619,26.876L40.760,26.823L40.783,26.810L40.848,26.787L40.870,26.734L40.869,26.641L40.879,26.553L40.898,26.505L40.953,26.446L41.001,26.412L41.044,26.393L41.248,26.328L41.410,26.279L41.553,26.197L41.672,26.097L41.684,25.974L41.720,25.903L41.833,25.915L41.890,25.967L42.054,25.957L42.228,25.924L42.350,25.876L42.389,25.889L42.428,25.914L42.454,25.956L42.453,26.017L42.384,25.987L42.310,25.978L42.239,25.995L42.178,26.048L42.218,26.075L42.248,26.084L42.279,26.076L42.319,26.048L42.348,26.078L42.367,26.092L42.379,26.110L42.384,26.152L42.539,26.046L42.635,25.999L42.750,25.979L42.863,25.997L42.956,26.024L42.961,26.025L43.086,26.058L43.156,26.008L43.347,25.842L43.468,25.610L43.566,25.289L43.570,24.992L43.516,24.853L43.453,24.779L43.418,24.749L43.360,24.648L43.281,24.648L43.213,24.596L43.160,24.567L43.059,24.571L42.992,24.598L42.933,24.640L42.922,24.590L43.203,24.308L43.250,24.173L43.336,23.894L43.332,23.778L43.363,23.670L43.428,23.531L43.483,23.361L43.504,23.259L43.502,23.154L43.571,22.866L43.583,22.704L43.509,22.530L43.505,22.430L43.532,22.391L43.552,22.375L43.590,22.366L43.625,22.348L43.644,22.320L43.697,22.207L43.733,22.155L43.749,22.125L43.766,22.069L43.772,22.012L43.772,21.961L43.776,21.913L43.800,21.862L43.638,21.951L43.431,22.087L43.231,22.298L43.024,22.413L42.930,22.399L43.003,22.229L43.148,22.148L43.217,22.100L43.261,22.049L43.296,21.999L43.323,21.937L43.369,21.878L43.382,21.821L43.362,21.758L43.375,21.716L43.491,21.721L43.464,21.678L43.454,21.635L43.464,21.591L43.491,21.548L43.533,21.651L43.636,21.627L43.817,21.514L43.876,21.466L43.872,21.353L43.845,21.217L43.835,21.100L43.800,21.100L43.757,21.126L43.732,21.092L43.697,20.959L43.663,20.959L43.648,21.007L43.631,21.038L43.605,21.056L43.559,21.065L43.579,21.022L43.605,20.929L43.625,20.890L43.656,20.860L43.717,20.833L43.750,20.805L43.894,20.644L43.941,20.614L43.915,20.699L43.861,20.803L43.843,20.891L43.922,20.928L43.989,20.882L44.019,20.775L44.024,20.648L44.009,20.545L43.989,20.523L43.953,20.514L43.903,20.510L43.906,20.480L43.934,20.416L43.941,20.404L43.933,20.346L43.932,20.291L43.914,20.250L43.851,20.234L43.831,20.213L43.856,20.165L43.905,20.118L43.957,20.097L44.015,20.089L44.078,20.067L44.137,20.033L44.182,19.990L44.182,19.964L44.143,19.913L44.147,19.890L44.163,19.880L44.201,19.865L44.216,19.855L44.259,19.834L44.303,19.838L44.336,19.828L44.350,19.767L44.369,19.765L44.408,19.720L44.440,19.667L44.439,19.642L44.470,19.633L44.594,19.576L44.925,19.493L44.975,19.454L45.025,19.372L45.064,19.325L45.094,19.317L45.119,19.332L45.148,19.340L45.172,19.354L45.182,19.385L45.171,19.404L45.153,19.419L45.149,19.439L45.182,19.473L45.182,19.494L45.182,19.507L45.216,19.507L45.245,19.467L45.353,19.366L45.332,19.325L45.321,19.288L45.316,19.248L45.316,19.197L45.238,19.264L45.216,19.300L45.113,19.243L45.085,19.148L45.126,19.060L45.306,18.999L45.386,18.902L45.441,18.880L45.498,18.875L45.555,18.862L45.609,18.840L45.929,18.630L46.120,18.584L46.223,18.525L46.291,18.447L46.285,18.366L46.307,18.315L46.333,18.200L46.353,18.156L46.401,18.125L46.470,18.094L46.563,18.089L46.660,18.052L46.724,17.978L46.846,17.881L46.857,17.795L46.998,17.795L47.170,17.779L47.251,17.712L47.243,17.619L47.236,17.531L47.226,17.503L47.256,17.472L47.382,17.531L47.496,17.569L47.765,17.659L48.258,17.859L48.626,17.982L48.874,18.046L49.135,18.078L49.476,18.112L49.809,18.092L50.008,18.069L49.934,18.122L49.686,18.169L49.201,18.156L49.142,18.147L49.087,18.132L49.032,18.129L48.976,18.156L48.961,18.199L48.967,18.257L48.965,18.309L48.922,18.331L48.902,18.396L48.958,18.542L49.082,18.779L49.004,18.738L48.931,18.660L48.864,18.615L48.807,18.673L48.772,18.625L48.651,18.625L48.580,18.591L48.541,18.608L48.501,18.694L48.472,18.796L48.460,18.864L48.454,19.018L48.463,19.092L48.494,19.127L48.564,19.103L48.593,19.023L48.616,18.934L48.666,18.880L48.666,18.933L48.683,18.968L48.718,18.988L48.769,18.990L48.761,19.039L48.769,19.228L48.846,19.262L48.928,19.258L48.992,19.214L49.013,19.127L48.956,19.158L48.911,19.146L48.883,19.098L48.873,19.021L48.893,18.955L48.932,18.909L48.959,18.867L48.941,18.811L49.042,18.829L49.105,18.897L49.138,18.997L49.163,19.240L49.208,19.299L49.285,19.310L49.483,19.299L49.518,19.291L49.566,19.266L49.662,19.174L49.684,19.159L49.695,19.113L49.841,18.849L49.845,18.812L49.841,18.673L49.898,18.563L49.907,18.521L49.923,18.495L49.994,18.412L50.010,18.383L50.048,18.190L50.095,18.078L50.409,17.626L50.425,17.586L50.411,17.527L50.340,17.441L50.319,17.394L50.321,17.339L50.350,17.253L50.357,17.204L50.347,17.153L50.302,17.062L50.288,17.014L50.297,16.994L50.346,16.951L50.357,16.926L50.351,16.896L50.338,16.882L50.325,16.874L50.319,16.860L50.331,16.807L50.359,16.758L50.425,16.666L50.452,16.637L50.475,16.623L50.491,16.601L50.498,16.547L50.563,16.424L50.642,16.419L50.707,16.434L50.743,16.411L50.735,16.290L50.773,16.290L50.776,16.322L50.784,16.344L50.807,16.390L50.860,16.319L50.873,16.290L50.890,16.300L50.896,16.301L50.900,16.303L50.910,16.321L50.941,16.321L50.941,16.218L50.992,16.258L51.030,16.336L51.085,16.355L51.134,16.331L51.157,16.279L51.178,16.249L51.219,16.290L51.257,16.290L51.266,16.253L51.286,16.234L51.316,16.225L51.357,16.218L51.484,16.231L51.582,16.269L51.666,16.329L51.754,16.408L51.791,16.422L52.022,16.471L52.185,16.566L52.383,16.628L52.992,16.671L53.560,16.626L53.695,16.626L54.516,16.625L55.070,16.540L55.120,16.512L55.152,16.470L55.305,16.354L55.435,16.283L55.460,16.263L55.498,16.218L55.557,16.098L55.583,16.080L55.641,16.062L55.685,16.021L55.756,15.923L55.811,15.876L55.979,15.801L56.267,15.530L56.875,15.213L57.753,14.504L57.845,14.449L58.030,14.387L58.336,14.321L58.414,14.285L58.567,14.176L58.670,14.206L58.777,14.153L58.887,14.077L59.002,14.038L59.302,14.028L59.395,14.004L59.475,13.958L59.604,13.852L59.767,13.813L59.986,13.656L60.253,13.550L60.316,13.471L60.409,13.379L60.430,13.327L60.438,13.282L60.502,13.101L60.682,12.823L60.733,12.654L60.845,12.506L60.880,12.446L60.887,12.347L60.867,12.063L60.846,11.959L60.817,11.921L60.770,11.880L60.726,11.853L60.708,11.856L60.719,11.790L60.762,11.747L60.880,11.680L61.036,11.736L61.553,11.646L61.731,11.685L61.711,11.779L61.502,11.994L61.577,12.033L61.654,12.161L61.743,12.201L61.892,12.133L61.918,12.116L61.931,12.050L61.964,11.993L62.009,11.949L62.055,11.925L62.120,11.921L62.188,11.929L62.242,11.922L62.264,11.873L62.244,11.821L62.208,11.776L62.190,11.731L62.227,11.680L62.176,11.641L62.149,11.603L62.118,11.570L62.055,11.546L61.989,11.539L61.927,11.550L61.876,11.575L61.845,11.615L61.814,11.615L61.777,11.546L62.007,11.389L62.193,11.232L62.205,11.208L62.226,11.142L62.245,11.128L62.336,11.133L62.361,11.128L62.438,11.073L62.480,11.065L62.539,11.094L62.450,11.138L62.383,11.197L62.368,11.266L62.433,11.339L62.470,11.358L62.496,11.361L62.571,11.339L62.576,11.325L62.570,11.300L62.569,11.277L62.588,11.266L62.658,11.271L62.677,11.266L62.770,11.218L62.831,11.174L62.867,11.117L62.883,11.025L62.870,11.018L62.843,11.014L62.827,10.999L62.846,10.956L62.879,10.924L62.925,10.901L62.974,10.888L63.021,10.884L62.988,10.973L63.019,11.019L63.067,11.058L63.089,11.128L63.121,11.128L63.134,11.110L63.153,11.075L63.162,11.040L63.139,11.025L63.105,11.013L63.130,10.986L63.174,10.962L63.193,10.956L63.252,10.924L63.321,10.902L63.387,10.872L63.436,10.815L63.373,10.822L63.321,10.846L63.278,10.872L63.246,10.884L63.194,10.867L63.203,10.828L63.246,10.783L63.296,10.749L63.239,10.749L63.189,10.759L63.148,10.781L63.121,10.815L63.129,10.734L63.137,10.705L63.158,10.677L63.092,10.719L62.959,10.834L62.915,10.884L62.883,10.852L62.935,10.761L63.009,10.683L63.102,10.628L63.211,10.608L63.309,10.623L63.461,10.693L63.571,10.715L63.936,10.715L64.039,10.734L64.143,10.782L64.299,10.884L64.368,10.950L64.402,10.972L64.468,10.991L64.648,10.987L64.694,11.008L64.794,11.082L64.896,11.119L65.127,11.163L65.295,11.247L65.393,11.318L65.447,11.403L65.469,11.431L65.492,11.472L65.510,11.568L65.815,12.081L65.849,12.218L66.040,12.497L66.072,12.595L66.041,12.709L65.978,12.816L65.918,12.894L65.783,12.993L65.435,13.181L65.333,13.292L65.260,13.332L65.175,13.363L65.108,13.377L65.084,13.420L64.986,13.690L64.964,13.731L64.964,13.732L64.812,13.728L64.723,13.777L64.550,13.922L64.350,14.007L64.214,14.042L63.919,14.118L63.624,14.194L63.329,14.269L63.034,14.345L62.739,14.421L62.444,14.497L62.149,14.573L61.854,14.648L61.723,14.682L61.625,14.747L61.538,14.870L61.487,14.964L61.337,15.241L61.187,15.517L61.037,15.794L60.887,16.071L60.737,16.347L60.586,16.624L60.436,16.901L60.286,17.178L60.233,17.243L60.145,17.266L59.957,17.217L59.859,17.207L59.758,17.228L59.478,17.331L59.262,17.340L59.153,17.356L59.064,17.416L59.041,17.461L59.037,17.557L59.023,17.606L58.985,17.660L58.889,17.761L58.848,17.818L58.675,18.241L58.584,18.364L58.491,18.454L58.271,18.606L58.139,18.755L58.022,18.979L57.779,19.668L57.643,19.888L57.333,20.246L57.240,20.511L57.170,20.604L57.086,20.689L57.008,20.792L56.971,20.891L56.969,20.915L56.964,20.987L56.968,21.086L56.867,22.193L56.605,23.081L56.604,23.278L56.562,23.475L56.558,23.579L56.591,23.709L56.635,23.802L56.655,23.896L56.615,24.027L56.458,24.348L56.181,24.775L56.053,25.117L56.001,25.210L55.920,25.294L55.718,25.420L55.644,25.487L55.549,25.711L55.146,26.302L54.973,26.734L54.909,26.837L54.820,26.921L54.634,27.049L54.575,27.147L54.573,27.257L54.640,27.298L54.712,27.296L55.264,27.282L55.474,27.253L55.656,27.165L55.828,27.003L55.917,26.945L56.045,26.909L56.160,26.845L56.378,26.641L56.494,26.637L56.525,26.675L56.587,26.858L56.586,26.877L56.565,26.922L56.565,26.941L56.582,26.966L56.629,27.013L56.643,27.036L56.663,27.159L56.650,27.371L56.678,27.481L56.768,27.604L56.863,27.629L56.965,27.589L57.137,27.476L57.177,27.456L57.239,27.437L57.297,27.439L57.341,27.454L57.378,27.455L57.415,27.414L57.511,27.505L57.595,27.554L57.622,27.612L57.550,27.728L57.635,27.827L57.660,27.922L57.718,28.143L57.776,28.363L57.834,28.584L57.892,28.805L57.950,29.025L58.008,29.246L58.066,29.467L58.124,29.687L58.177,29.890L58.278,30.060L58.370,30.160L58.469,30.266L58.568,30.373L58.667,30.480L58.765,30.586L58.865,30.693L58.963,30.800L59.063,30.906L59.161,31.013L59.280,31.141L59.339,31.191L59.390,31.210L59.438,31.223L59.485,31.248L59.488,31.250L59.547,31.310L59.596,31.386L59.630,31.471L59.644,31.556L59.635,31.638L59.590,31.803L59.584,31.885L59.611,31.998L59.779,32.312L59.887,32.657L59.897,32.851L59.815,32.967L59.729,32.966L59.623,32.948L59.528,32.961L59.478,33.052L59.454,33.150L59.412,33.230L59.353,33.297L59.278,33.359L59.224,33.385L59.167,33.406L59.122,33.438L59.105,33.497L59.127,33.542L59.233,33.664L59.268,33.720L59.290,33.807L59.303,34.026L59.291,34.115L59.190,34.424L59.144,34.953L59.159,35.056L59.227,35.254L59.245,35.350L59.224,35.461L59.182,35.563L59.151,35.667L59.167,35.786L59.305,36.010L59.490,36.143L59.585,36.175L59.711,36.217L59.957,36.263L60.371,36.257L60.540,36.304L60.713,36.529L60.740,36.546L60.752,36.572L60.704,36.778L60.701,36.821L60.714,36.971L60.751,37.118L60.806,37.261L61.083,37.795L61.170,37.897L61.227,37.935L61.366,37.997L61.433,38.037L61.551,38.137L61.608,38.168L61.609,38.169L61.759,38.204L62.177,38.301L62.342,38.315L62.421,38.302L62.475,38.269L62.524,38.228L62.587,38.187L62.642,38.185L62.697,38.196L62.728,38.177L62.716,38.088L62.860,38.085L62.979,38.065L63.098,38.057L63.241,38.094L63.222,38.010L63.254,37.973L63.318,37.964L63.489,37.970L63.531,38.000L63.559,38.040L63.618,38.082L63.653,38.086L63.690,38.074L63.758,38.035L63.801,38.025L63.826,38.045L63.838,38.073L63.847,38.086L63.851,38.091L63.950,38.097L63.949,38.091L63.954,38.083L64.045,38.059L64.158,38.088L64.258,38.171L64.318,38.154L64.451,38.094L64.529,38.077L64.608,38.085L64.770,38.129L64.854,38.135L65.063,38.095L65.140,38.103L65.185,38.138L65.196,38.197L65.200,38.261L65.226,38.313L65.294,38.341L65.539,38.347L65.598,38.376L65.637,38.409L65.686,38.423L65.776,38.395L65.840,38.349L65.881,38.303L65.928,38.273L66.283,38.312L66.556,38.280L66.808,38.186L67.022,38.034L67.076,37.964L67.099,37.914L67.139,37.888L67.243,37.884L67.436,37.820L67.655,37.804L67.958,37.732L68.107,37.729L68.140,37.745L68.211,37.806L68.259,37.824L68.429,37.862L68.512,37.859L68.654,37.814L68.735,37.800L68.771,37.833L69.025,38.155L69.077,38.185L69.157,38.206L69.210,38.207L69.325,38.192L69.374,38.195L69.397,38.210L69.428,38.255L69.444,38.269L69.519,38.295L70.042,38.545L70.200,38.552L70.484,38.393L70.666,38.347L70.854,38.337L70.998,38.372L71.162,38.514L71.248,38.623L71.630,39.106L72.012,39.588L72.394,40.071L72.776,40.553L73.158,41.036L73.540,41.519L73.922,42.001L74.304,42.484L74.450,42.668L74.508,42.668L74.513,42.668L74.638,42.632L74.880,42.520L75.015,42.496L75.116,42.547L75.331,42.793L75.444,42.878L75.731,42.717L76.029,42.427L76.138,42.363L76.280,42.228L76.376,42.185L76.498,42.180L76.602,42.205L76.791,42.289L76.880,42.263L76.994,42.290L77.114,42.332L77.223,42.354L77.544,42.337L77.651,42.354L77.972,42.452L78.085,42.465L78.189,42.488L78.399,42.585L78.520,42.599L78.587,42.569L78.719,42.452L78.774,42.427L79.088,42.410L79.458,42.300L79.566,42.289L79.671,42.301L80.001,42.392L80.187,42.391L80.761,42.185L80.981,42.155L81.623,42.217L81.829,42.185L82.004,42.125L82.053,42.116L82.101,42.101L82.140,42.062L82.166,42.011L82.176,41.959L82.200,41.896L82.258,41.880L82.326,41.881L82.383,41.872L82.435,41.828L82.529,41.732L82.589,41.702L82.632,41.701L82.722,41.727L83.073,41.756L83.864,41.941L84.010,42.032L84.144,42.161L84.284,42.267L84.483,42.285L84.488,42.286L84.456,42.309L84.356,42.384L84.302,42.443L84.279,42.513L84.280,42.707L84.466,42.999L84.596,43.091L84.634,43.193L84.646,43.309L84.627,43.396L84.565,43.446L84.383,43.524L84.311,43.568L84.073,43.828L84.027,43.908L83.727,44.192L83.606,44.374L83.525,44.575L83.485,44.791L83.486,45.023L83.543,45.320L83.551,45.420L83.569,45.442L83.644,45.516L83.661,45.540L83.647,45.601L83.617,45.643L83.582,45.676L83.551,45.713L83.496,45.896L83.468,45.923L83.408,45.938L83.354,45.977L83.261,46.078L83.218,46.108L83.070,46.165L83.043,46.186L82.994,46.244L82.967,46.268L82.944,46.272L82.887,46.264L82.864,46.268L82.676,46.424L82.551,46.623L82.506,46.836L82.554,47.030L82.600,47.111L82.632,47.187L82.651,47.275L82.658,47.395L82.647,47.439L82.602,47.558L82.589,47.620L82.587,47.677L82.592,47.729L82.602,47.779L82.620,47.829L82.651,47.878L82.742,47.983L82.760,48.018L82.750,48.071L82.726,48.106L82.703,48.131L82.692,48.157L82.701,48.382L82.692,48.478L82.627,48.674L82.593,48.869L82.589,48.987L82.599,49.020L82.644,49.109L82.658,49.143L82.656,49.205L82.639,49.239L82.632,49.269L82.658,49.316L82.622,49.410L82.611,49.633L82.572,49.714L82.521,49.795L82.496,49.905L82.480,50.186L82.448,50.319L82.455,50.481L82.448,50.529L82.420,50.571L82.385,50.595L82.356,50.629L82.348,50.699L82.364,50.755L82.398,50.803L82.441,50.842L82.486,50.874L82.486,50.840L82.579,50.907L82.615,50.974L82.658,51.150L82.678,51.170L82.740,51.192L82.760,51.222L82.762,51.263L82.734,51.334L82.726,51.374L82.742,51.440L82.813,51.552L82.829,51.617L82.816,51.678L82.726,51.843L82.701,52.033L82.728,52.201L82.772,52.358L82.795,52.516L82.838,52.612L82.932,52.690L83.027,52.790L83.070,52.953L83.125,53.011L83.158,53.104L83.144,53.188L83.143,53.191L83.177,53.209L83.221,53.329L83.236,53.642L83.260,53.750L83.461,54.101L83.509,54.225L83.537,54.475L83.573,54.593L83.661,54.700L83.759,54.749L83.851,54.750L83.945,54.733L84.048,54.726L84.237,54.815L84.380,55.006L84.720,55.893L84.789,55.991L84.864,56.042L85.053,56.117L85.220,56.291L85.196,56.502L85.066,56.713L84.761,57.095L84.699,57.142L84.647,57.160L84.537,57.181L84.477,57.210L84.382,57.298L84.167,57.498L83.951,57.699L83.735,57.899L83.520,58.099L83.304,58.299L83.088,58.499L82.873,58.699L82.657,58.900L82.531,59.017L82.447,59.158L82.444,59.504L82.518,59.445L82.558,59.375L82.608,59.314L82.709,59.287L82.819,59.293L82.876,59.288L82.972,59.239L83.015,59.257L83.070,59.319L83.277,59.420L83.402,59.445L83.503,59.408L83.599,59.384L83.690,59.459L83.761,59.573L83.798,59.663L83.826,59.891L83.856,60.002L83.915,60.049L84.142,60.053L84.235,60.082L84.311,60.150L84.332,60.192L84.362,60.287L84.383,60.325L84.429,60.359L84.537,60.412L84.558,60.444L84.575,60.486L84.654,60.585L84.675,60.604L84.738,60.623L84.774,60.668L84.800,60.724L84.833,60.777L84.881,60.814L84.992,60.874L85.039,60.914L85.063,60.966L85.086,61.035L85.115,61.096L85.159,61.122L85.215,61.138L85.270,61.178L85.366,61.274L85.412,61.302L85.589,61.360L85.759,61.462L85.799,61.501L85.817,61.551L85.819,61.647L85.847,61.692L85.879,61.794L85.812,61.897L85.715,61.989L85.658,62.056L85.660,62.149L85.740,62.342L85.776,62.498L85.858,62.713L85.902,62.780L85.978,62.823L86.069,62.851L86.145,62.892L86.177,62.973L86.194,63.247L86.177,63.335L86.154,63.372L86.073,63.477L86.086,63.540L86.122,63.592L86.159,63.633L86.198,63.698L86.293,63.764L86.314,63.803L86.327,63.857L86.417,64.028L86.850,65.181L86.864,65.290L86.864,65.516L86.884,65.615L86.933,65.725L87.040,65.902L87.088,66.011L87.108,66.123L87.073,66.330L87.092,66.400L87.140,66.452L87.197,66.498L87.249,66.553L87.302,66.653L87.340,66.778L87.345,66.898L87.253,67.086L87.278,67.205L87.383,67.421L87.190,67.460L86.864,67.551L86.425,67.673L86.320,67.656L86.278,67.529L86.259,67.265L86.383,65.811L86.336,65.491L86.164,64.960L85.970,64.564L85.421,63.834L85.300,63.620L85.140,63.225L85.039,63.038L84.912,62.913L84.832,62.873L84.616,62.796L84.540,62.788L84.492,62.816L84.407,62.906L84.360,62.928L84.184,62.951L84.099,63.006L83.962,63.124L83.768,63.217L83.382,63.628L82.774,64.440L82.621,64.585L82.421,64.698L82.256,64.758L82.077,64.800L81.895,64.806L81.727,64.757L81.559,64.617L81.423,64.421L81.320,64.201L81.209,63.877L81.159,63.784L81.083,63.715L80.968,63.668L80.864,63.646L80.827,63.629L80.786,63.591L80.776,63.553L80.775,63.452L80.751,63.418L80.707,63.454L80.405,64.210L80.307,64.355L80.341,64.376L80.468,64.392L80.515,64.452L80.504,64.563L80.515,64.654L80.704,64.662L80.744,64.687L80.758,64.731L80.753,64.795L80.768,64.828L80.810,64.859L80.896,64.902L80.517,64.902L80.276,64.902L79.641,64.903L78.743,64.904L77.713,64.905L76.683,64.906L75.785,64.906L75.150,64.907L74.909,64.907L74.703,64.881L74.321,64.719L73.955,64.642L73.761,64.654L73.415,64.812L73.209,64.830L73.101,64.814L73.012,64.812L72.925,64.831L72.710,64.944L72.617,64.972L72.448,64.971L72.372,64.970L72.409,65.166L72.407,65.513L72.405,65.860L72.404,66.207L72.402,66.555L72.400,66.902L72.398,67.249L72.396,67.596L72.394,67.943L72.392,68.245L72.507,68.256L72.717,68.120L72.844,68.085L72.909,68.088L72.973,68.099L73.017,68.126L73.025,68.237L73.078,68.249L73.562,68.178L73.679,68.182L73.897,68.258L73.949,68.265L74.115,68.262L74.275,68.239L74.323,68.245L74.368,68.267L74.390,68.289L74.406,68.312L74.431,68.335L74.526,68.391L74.578,68.401L74.816,68.227L74.896,68.207L74.978,68.222L75.229,68.351L75.302,68.403L75.388,68.511L75.474,68.567L75.511,68.604L75.524,68.651L75.530,68.710L75.545,68.762L75.655,68.830L75.626,69.013L75.707,69.091L75.824,69.136L75.883,69.171L75.916,69.213L75.916,69.282L75.879,69.305L75.831,69.313L75.800,69.331L75.789,69.437L75.839,69.662L75.839,69.778L75.804,69.832L75.752,69.871L75.715,69.915L75.730,69.984L75.771,70.023L75.880,70.075L75.918,70.109L75.972,70.222L75.991,70.313L75.960,70.377L75.866,70.407L75.820,70.401L75.726,70.366L75.673,70.367L75.634,70.391L75.580,70.467L75.545,70.491L75.463,70.497L75.279,70.469L75.188,70.475L75.209,70.336L75.162,70.281L75.071,70.282L74.960,70.312L74.858,70.359L74.826,70.342L74.469,69.981L74.378,69.919L74.276,69.895L74.147,69.911L74.048,69.955L73.886,70.060L73.792,70.071L73.692,70.115L73.639,70.226L73.566,70.310L73.404,70.276L73.262,70.212L73.186,70.219L72.993,70.369L72.819,70.462L72.628,70.531L72.424,70.573L72.079,70.594L71.981,70.622L71.886,70.638L71.767,70.615L71.652,70.618L71.544,70.668L71.450,70.695L71.375,70.626L71.366,70.978L71.362,71.107L71.353,71.446L71.339,71.926L71.325,72.476L71.309,73.026L71.296,73.506L71.287,73.846L71.283,73.975L71.277,74.228L71.306,74.406L71.364,74.512L71.560,74.737L71.816,74.973L71.928,75.141L71.982,75.185L72.076,75.223L72.276,75.267L72.363,75.322L72.395,75.370L72.442,75.483L72.480,75.533L72.530,75.569L72.646,75.623L72.698,75.660L72.849,75.825L72.925,75.886L73.327,76.037L73.413,76.083L73.501,76.158L73.563,76.248L73.603,76.349L73.627,76.461L73.629,76.611L73.639,76.661L73.666,76.712L73.699,76.750L73.728,76.793L73.742,76.854L73.709,76.973L73.552,77.211L73.519,77.303L73.570,77.421L73.760,77.636L73.800,77.707L73.785,77.837L73.797,77.888L73.843,77.960L73.876,77.990L73.913,78.009L73.948,78.036L73.978,78.091L73.983,78.150L73.971,78.198L73.968,78.248L74.002,78.316L74.044,78.351L74.153,78.398L74.200,78.428L74.311,78.589L74.341,78.614L74.392,78.622L74.418,78.633L74.433,78.654L74.453,78.692L74.443,78.704L74.469,78.895L74.458,78.952L74.426,79.056L74.427,79.115L74.617,79.421L74.672,79.572L74.563,79.855L74.563,79.858L74.577,80.085L74.495,80.551L74.498,80.782L74.406,81.127L74.408,81.230L74.335,81.484L74.279,81.794L74.131,82.608L73.983,83.423L73.835,84.237L73.687,85.051L73.540,85.865L73.392,86.679L73.244,87.494L73.096,88.308L72.949,89.122L72.800,89.936L72.653,90.750L72.505,91.565L72.357,92.379L72.210,93.193L72.062,94.007L71.914,94.821L71.908,94.833L71.903,94.844L71.897,94.855L71.891,94.866L71.886,94.877L71.880,94.888L71.874,94.900L71.869,94.911L71.864,94.921L71.858,94.933L71.853,94.944L71.847,94.955L71.841,94.966L71.836,94.978L71.830,94.989L71.825,95.000L71.685,94.719L71.597,94.589L71.495,94.470L71.344,94.347L70.834,94.086L70.700,93.952L70.647,93.785L70.618,93.604L70.556,93.426L70.435,93.254L70.271,93.081L70.082,92.943L69.888,92.875L69.746,92.890L69.638,92.956L69.440,93.137L69.311,93.193L69.177,93.191L68.908,93.124L68.854,93.087L68.171,92.728L67.952,92.704L68.121,92.439L68.516,91.821L68.910,91.204L69.305,90.585L69.700,89.967L70.096,89.348L70.490,88.730L70.885,88.112L71.280,87.494L71.393,87.314L71.394,87.310L71.366,87.301L71.308,87.255L71.267,87.194L71.235,87.119L71.170,86.897L71.116,86.860L71.013,86.928L70.984,86.975L70.961,87.029L70.934,87.071L70.891,87.082L70.844,87.056L70.835,87.011L70.837,86.960L70.822,86.910L70.722,86.831L70.637,86.856L70.553,86.895L70.460,86.859L70.403,86.769L70.332,86.554L70.269,86.461L70.158,86.406L70.062,86.439L69.961,86.500L69.838,86.534L69.812,86.518L69.781,86.481L69.756,86.435L69.753,86.392L69.777,86.369L69.863,86.336L69.888,86.320L69.911,86.210L69.848,86.161L69.741,86.150L69.633,86.151L69.577,86.164L69.459,86.216L69.406,86.220L69.347,86.191L69.319,86.148L69.301,86.096L69.272,86.041L69.209,85.987L69.121,85.944L69.025,85.914L68.941,85.903L68.863,85.864L68.801,85.792L68.735,85.750L68.647,85.806L68.634,85.853L68.638,85.910L68.634,85.958L68.595,85.979L68.387,85.979L68.353,85.951L68.344,85.889L68.344,85.819L68.337,85.768L68.306,85.713L68.148,85.581L68.128,85.571L68.128,85.425L68.116,85.385L68.090,85.360L67.960,85.343L67.867,85.321L67.681,85.254L67.507,85.140L67.246,84.861L67.094,84.768L66.989,84.814L66.863,84.790L66.650,84.699L66.505,84.695L66.452,84.766L66.463,84.881L66.509,85.009L66.464,85.035L66.404,85.042L66.341,85.028L66.215,84.952L66.149,84.950L66.009,84.975L65.894,85.029L65.798,85.268L65.655,85.341L65.560,85.415L65.506,85.427L65.453,85.409L65.392,85.364L65.337,85.351L65.263,85.381L65.158,85.436L65.064,85.458L65.025,85.389L64.664,85.565L64.494,85.601L64.437,85.496L64.457,85.457L64.527,85.394L64.540,85.351L64.522,85.299L64.403,85.147L64.315,84.990L64.263,84.972L64.193,85.044L64.144,85.233L64.105,85.293L64.025,85.254L63.990,85.177L63.983,84.966L63.959,84.871L63.902,84.828L63.612,84.768L63.508,84.711L63.414,84.639L63.315,84.579L63.196,84.558L63.028,84.645L62.930,84.661L62.887,84.575L62.895,84.397L62.856,84.370L62.746,84.420L62.453,84.606L62.403,84.610L62.378,84.662L62.196,84.941L61.958,85.125L61.921,85.165L61.898,85.277L61.836,85.339L61.748,85.361L61.432,85.316L61.268,85.318L61.128,85.373L60.987,85.496L60.765,85.751L60.690,85.774L60.365,85.699L60.314,85.703L60.185,85.730L60.159,85.751L60.163,85.854L60.149,85.890L60.106,85.903L59.988,85.916L59.787,85.969L59.674,85.979L59.581,85.957L59.492,85.910L59.425,85.849L59.399,85.787L59.354,85.748L58.838,85.667L58.743,85.637L58.514,85.451L58.426,85.403L58.334,85.389L58.271,85.471L58.138,85.746L58.074,85.806L57.991,85.834L57.961,85.822L57.944,85.690L57.929,85.639L57.908,85.594L57.883,85.558L57.821,85.588L57.780,85.625L57.756,85.672L57.743,85.734L57.610,85.639L57.526,85.610L57.401,85.673L57.257,85.724L57.197,85.782L57.128,85.807L56.914,85.850L56.868,85.850L56.828,85.818L56.780,85.734L56.695,85.500L56.622,85.436L56.605,85.407L56.258,85.216L56.246,85.271L56.187,85.385L56.121,85.445L56.090,85.337L56.045,85.292L55.825,85.238L55.742,85.182L55.730,85.143L55.705,84.992L55.689,84.965L55.621,84.912L55.605,84.887L55.594,84.857L55.547,84.780L55.536,84.731L55.543,84.681L55.559,84.647L55.605,84.592L55.788,84.427L55.835,84.317L55.983,84.072L55.916,84.009L55.876,83.903L55.849,83.787L55.815,83.692L55.727,83.562L55.693,83.496L55.674,83.416L55.681,83.345L55.731,83.219L55.742,83.172L55.713,83.087L55.594,82.947L55.568,82.877L55.605,82.689L55.571,82.634L55.529,82.607L55.482,82.586L55.433,82.551L55.299,82.400L55.247,82.400L55.227,82.533L55.195,82.551L55.026,82.507L54.949,82.516L54.867,82.596L54.829,82.651L54.778,82.644L54.657,82.533L54.594,82.493L54.533,82.485L54.477,82.488L54.406,82.479L54.350,82.487L54.327,82.482L54.319,82.465L54.303,82.397L54.295,82.378L53.970,82.178L53.869,82.053L53.880,81.858L53.937,81.691L53.981,81.614L54.103,81.541L54.108,81.445L54.055,81.234L54.048,81.168L54.049,81.114L54.039,81.064L54.000,81.010L53.894,80.932L53.838,80.843L53.651,80.756L53.605,80.679L53.684,80.583L53.708,80.530L53.629,80.493L53.601,80.460L53.577,80.419L53.567,80.384L53.561,80.275L53.552,80.232L53.536,80.196L53.517,80.191L53.450,80.201L53.430,80.196L53.421,80.173L53.413,80.118L53.376,80.039L53.363,79.983L53.337,79.938L53.219,79.904L53.123,79.833L53.067,79.817L52.951,79.797L52.855,79.743L52.785,79.666L52.742,79.576L52.667,79.604L52.586,79.732L52.502,79.779L52.442,79.778L52.361,79.760L52.227,79.713L52.157,79.667L52.108,79.614L52.017,79.472L51.940,79.271L51.911,79.224L51.828,79.194L51.670,79.229L51.602,79.192L51.595,79.151L51.642,79.062L51.636,79.020L51.594,78.984L51.569,78.998L51.551,79.030L51.533,79.052L51.478,79.078L51.452,79.104L51.423,79.112L51.361,79.086L51.320,79.052L51.296,79.009L51.178,78.657L51.120,78.603L51.042,78.751L50.905,78.755L50.598,78.638L50.298,78.583L50.164,78.509L50.052,78.362L49.980,78.133L49.930,78.066L49.804,77.981L49.773,77.935L49.808,77.876L49.870,77.864L49.951,77.878L50.021,77.878L50.052,77.822L50.024,77.759L49.973,77.705L49.944,77.646L49.983,77.565L49.944,77.548L49.857,77.546L49.808,77.531L49.774,77.508L49.603,77.318L49.568,77.245L49.570,77.148L49.593,77.105L49.658,77.049L49.670,77.013L49.430,76.493L49.419,76.447L49.419,76.446L49.414,76.390L49.403,76.339L49.378,76.317L49.309,76.314L49.282,76.303L49.239,76.232L49.172,76.158L49.113,76.105L48.807,75.921L48.676,75.817L48.464,75.593L48.322,75.353L48.273,75.314L48.219,75.325L48.177,75.349L48.145,75.373L48.120,75.386L48.050,75.383L48.020,75.364L48.005,75.338L47.979,75.314L47.944,75.288L47.923,75.266L47.892,75.251L47.766,75.239L47.667,75.213L47.615,75.207L47.526,75.177L47.566,75.109L47.704,75.003L47.532,74.653L47.461,74.552L47.355,74.459L47.295,74.473L47.170,74.674L47.113,74.719L47.063,74.723L46.979,74.693L46.807,74.656L46.699,74.608L46.632,74.556L46.426,74.331L46.395,74.307L46.348,74.293L46.260,74.291L46.217,74.276L46.159,74.220L45.960,73.946L45.865,73.871L45.759,73.817L45.532,73.755L45.431,73.744L45.354,73.761L45.306,73.813L45.288,73.910L45.263,73.975L45.201,74.050L45.121,74.111L45.045,74.138L44.952,74.083L44.632,73.965L44.350,73.911L44.252,73.840L44.131,73.798L43.838,73.618L43.602,73.406L43.512,73.376L43.460,73.343L43.396,73.271L43.316,73.199L43.216,73.166L43.121,73.177L42.904,73.227L42.788,73.238L42.676,73.229L42.579,73.205L42.496,73.171L42.354,73.092L42.152,72.942L42.110,72.872L41.804,72.683L41.679,72.567L41.623,72.486L41.601,72.388L41.576,72.325L41.238,71.897L41.216,71.837L41.168,71.761L41.054,71.775L40.927,71.816L40.835,71.820L40.809,71.781L40.781,71.647L40.751,71.593L40.709,71.574L40.652,71.570L40.543,71.576L40.420,71.568L40.310,71.543L40.210,71.499L40.113,71.435L39.974,71.288L39.924,71.265L39.868,71.281L39.777,71.350L39.751,71.366L39.722,71.392L39.597,71.542L39.550,71.559L39.497,71.569L39.388,71.576L39.340,71.567L39.343,71.600L39.331,71.976L39.383,72.312L39.294,72.371L38.794,72.429L38.664,72.496L38.590,72.506L38.495,72.473L38.360,72.347L38.281,72.291L38.208,72.270L37.963,72.243L37.789,72.195L37.727,72.219L37.739,72.420L37.663,72.422L37.483,72.341L37.420,72.335L37.070,72.387L36.994,72.384L36.921,72.358L36.836,72.295L36.726,72.184L36.674,72.147L36.591,72.118L36.528,72.107L36.327,72.104L36.177,72.053L35.985,71.835L35.879,71.808L35.811,71.791L35.723,71.807L35.469,71.903L35.360,71.909L35.281,71.886L35.207,71.847L35.112,71.813L34.576,71.704L34.401,71.639L34.265,71.535L34.213,71.406L34.191,71.255L34.145,71.085L34.113,70.554L34.045,70.309L33.837,70.257L33.813,70.260L33.666,70.281L33.482,70.208L33.151,69.979L33.044,69.820L33.012,69.457L32.861,69.338L32.737,69.337L32.335,69.490L32.234,69.511L32.132,69.509L32.025,69.485L31.907,69.439L31.854,69.394L31.844,69.339L31.845,69.283L31.827,69.232L31.778,69.180L31.754,69.177L31.728,69.190L31.674,69.189L31.331,69.060L30.974,69.047L30.762,68.943L30.107,68.446L30.004,68.391L29.705,68.311L29.608,68.264L29.490,68.173L29.016,67.644L28.959,67.600L28.924,67.572L28.645,67.508L28.569,67.514L28.496,67.556L28.468,67.475L28.363,67.363L28.343,67.311L28.335,67.214L28.288,67.199L28.217,67.222L28.138,67.235L28.020,67.198L27.921,67.121L27.845,67.020L27.796,66.908L27.744,66.822L27.595,66.702L27.490,66.554L27.194,66.351ZM30.705,60.325L30.712,60.349L30.830,60.494L30.877,60.603L30.882,60.765L30.826,60.904L30.690,60.945L30.573,60.876L30.437,60.738L30.324,60.587L30.277,60.478L30.293,60.408L30.327,60.377L30.361,60.354L30.385,60.300L30.349,60.245L30.276,60.108L30.285,60.048L30.335,60.021L30.422,60.067L30.531,60.030L30.636,60.090L30.664,60.182L30.704,60.229L30.717,60.292L30.705,60.325ZM31.858,59.976L31.931,60.021L32.119,60.270L32.196,60.329L32.366,60.427L32.449,60.494L32.331,60.570L32.173,60.577L32.023,60.541L31.930,60.494L31.967,60.462L31.930,60.425L32.035,60.325L32.034,60.261L31.967,60.228L31.877,60.218L31.799,60.166L31.768,60.059L31.788,59.971L31.858,59.976ZM32.343,60.149L32.536,60.298L32.605,60.371L32.580,60.447L32.495,60.457L32.365,60.392L32.137,60.218L31.998,60.034L31.967,59.976L31.951,59.917L31.945,59.858L31.958,59.833L31.999,59.873L32.015,59.885L32.071,59.907L32.084,59.876L32.099,59.861L32.117,59.852L32.137,59.835L32.277,59.976L32.297,60.015L32.321,60.112L32.343,60.149ZM34.624,52.049L34.728,52.101L34.833,52.088L34.936,52.064L35.034,52.084L34.942,52.230L34.876,52.290L34.812,52.264L34.724,52.153L34.600,52.200L34.481,52.219L34.216,52.217L34.117,52.195L34.054,52.190L33.977,52.205L33.932,52.241L33.900,52.285L33.862,52.325L33.676,52.382L33.655,52.398L33.635,52.355L33.637,52.285L33.661,52.219L33.709,52.190L33.776,52.169L33.886,52.071L33.949,52.049L34.016,52.057L34.138,52.085L34.208,52.084L34.185,52.043L34.108,51.990L34.071,51.946L34.246,51.946L34.126,51.916L34.139,51.868L34.222,51.814L34.312,51.770L34.284,51.761L34.267,51.751L34.247,51.742L34.208,51.736L34.215,51.715L34.222,51.700L34.246,51.667L34.380,51.736L34.458,51.800L34.512,51.872L34.552,51.954L34.624,52.049ZM12.679,10.332L12.637,10.230L12.651,10.128L12.704,10.042L12.782,9.987L12.805,10.043L12.713,10.425L12.649,10.436L12.617,10.390L12.679,10.332ZM14.334,6.309L14.317,6.197L14.354,6.089L14.422,6.033L14.492,6.072L14.517,6.160L14.488,6.234L14.422,6.286L14.334,6.309ZM13.181,53.597L13.163,53.585L13.158,53.572L13.166,53.545L13.190,53.516L13.219,53.506L13.228,53.493L13.233,53.448L13.259,53.434L13.288,53.438L13.315,53.428L13.329,53.432L13.347,53.500L13.339,53.511L13.316,53.518L13.295,53.540L13.269,53.537L13.208,53.591L13.181,53.597ZM30.427,58.490L30.497,58.429L30.540,58.433L30.530,58.504L30.530,58.575L30.525,58.645L30.450,58.730L30.394,58.777L30.319,58.796L30.257,58.777L30.257,58.725L30.337,58.716L30.361,58.640L30.385,58.542L30.427,58.490ZM43.518,21.220L43.573,21.169L43.612,21.194L43.673,21.220L43.764,21.246L43.777,21.306L43.722,21.364L43.673,21.357L43.615,21.341L43.573,21.367L43.560,21.431L43.540,21.466L43.498,21.466L43.479,21.405L43.472,21.322L43.488,21.258L43.518,21.220ZM20.844,5.000L20.844,5.003L20.846,5.002L20.846,5.008L20.841,5.009L20.841,5.005L20.839,5.006L20.839,5.002L20.844,5.000Z" fill="currentColor" stroke="currentColor" stroke-width="1" stroke-linejoin="round"/>
</svg>