<svg xmlns="http://www.w3.org/2000/svg" viewBox="0 0 100 100" role="img" aria-label="Comoros">
  <title>Comoros</title>
  <path d="M44.364,80.561L44.932,80.811L48.561,83.223L49.346,84.429L49.112,84.986L48.071,85.134L46.457,85.134L41.815,84.190L37.022,84.059L35.915,83.666L35.614,83.143L35.681,81.937L35.486,81.277L34.890,80.714L34.267,80.447L33.777,80.072L33.577,79.144L33.499,76.625L33.900,75.590L35.019,75.988L35.993,76.511L38.865,77.057L40.156,77.455L43.719,79.833L44.364,80.561ZM95.000,75.305L94.961,83.826L94.583,85.088L93.798,85.612L93.197,85.361L92.495,84.770L91.927,84.053L91.694,83.445L91.560,82.574L91.187,82.079L86.144,78.598L85.582,77.694L85.165,76.625L84.129,76.107L81.424,75.544L77.171,73.360L76.598,72.899L73.854,71.261L72.930,70.254L74.032,70.220L74.945,70.448L76.704,71.210L77.895,71.517L80.105,71.841L80.912,72.166L81.274,71.875L81.958,71.517L82.309,71.210L84.363,71.637L86.178,69.970L87.218,67.371L86.979,65.010L87.647,64.811L88.588,64.259L89.323,64.055L89.662,63.907L89.957,63.685L90.285,63.514L90.759,63.531L91.154,63.821L91.694,64.794L91.927,65.010L94.816,74.327L95.000,75.305ZM22.328,46.570L22.500,47.270L22.929,48.060L24.532,50.199L24.498,50.785L23.725,52.031L23.502,52.736L23.424,53.242L23.246,53.635L22.745,53.993L22.094,54.203L21.164,54.340L20.352,54.249L19.990,53.726L19.550,52.850L15.721,49.289L14.707,48.868L11.774,48.697L11.056,48.515L10.271,48.083L8.952,47.025L8.395,46.314L8.206,45.694L8.117,45.086L7.805,44.403L6.063,42.697L5.312,41.576L5.000,39.864L5.189,39.182L5.635,38.334L7.115,36.173L7.132,35.428L6.937,34.677L6.870,33.858L7.816,21.504L7.672,20.685L7.299,19.934L7.967,18.722L8.618,17.005L9.331,15.668L10.138,15.640L13.043,14.650L14.746,14.388L15.999,14.900L16.817,15.981L17.424,17.107L17.735,18.381L16.210,31.429L16.823,34.262L19.862,38.636L20.964,41.497L20.997,42.213L20.891,43.692L20.964,44.403L21.276,44.915L21.726,45.359L22.144,45.865L22.328,46.570Z" fill="currentColor" stroke="currentColor" stroke-width="1" stroke-linejoin="round"/>
</svg>