<svg xmlns="http://www.w3.org/2000/svg" viewBox="0 0 100 100" role="img" aria-label="Cabo Verde">
  <title>Cabo Verde</title>
  <path d="M26.920,88.212L27.295,88.564L27.507,89.069L27.601,89.651L27.624,90.240L27.503,90.790L27.221,91.042L26.917,91.229L26.712,91.580L26.463,91.580L26.214,91.226L25.574,90.792L25.343,90.369L25.095,90.609L25.237,90.298L25.285,90.001L25.237,89.706L25.095,89.400L25.549,89.400L25.413,88.745L25.807,88.518L26.418,88.434L26.920,88.212ZM40.544,87.631L40.378,88.016L40.488,88.399L40.653,88.785L40.667,89.184L40.443,89.526L39.277,90.609L37.871,91.161L36.585,90.991L35.447,90.393L33.526,88.764L33.066,88.103L32.870,87.382L33.057,86.668L33.521,85.836L34.116,85.094L34.929,84.497L36.973,83.444L37.569,83.253L38.261,83.188L38.983,83.350L39.452,83.767L39.755,84.313L40.186,85.480L40.570,87.181L40.544,87.631ZM68.600,83.943L68.673,84.107L68.763,84.240L68.881,84.334L69.057,84.394L68.899,84.913L68.670,85.255L67.894,85.841L68.143,86.078L67.817,86.621L67.613,87.169L67.356,87.591L66.879,87.761L66.614,87.795L66.092,87.941L65.843,87.976L65.574,87.945L65.291,87.796L65.043,87.761L63.934,87.736L63.008,87.611L62.153,87.320L61.259,87.006L59.970,85.862L59.453,85.258L59.448,84.122L59.069,83.849L58.526,83.677L58.066,83.445L58.045,83.316L57.817,82.519L57.724,82.383L57.591,82.249L57.463,82.065L57.380,81.785L57.471,81.505L57.947,80.656L58.066,80.339L58.037,79.884L57.609,78.700L57.928,78.605L58.131,78.371L58.244,78.031L58.274,77.623L58.347,77.248L58.513,77.012L58.676,76.838L58.751,76.651L58.638,76.065L58.359,75.390L57.988,74.838L57.609,74.623L57.830,74.542L58.522,74.169L58.033,73.970L57.817,73.933L58.751,73.200L58.999,73.200L59.019,73.465L59.070,73.610L59.141,73.736L59.206,73.933L59.831,73.543L60.366,73.871L60.546,74.466L60.117,74.882L60.563,75.520L61.083,75.909L62.193,76.521L61.941,76.781L62.519,76.901L62.803,77.147L63.310,77.987L64.342,79.120L64.905,79.479L65.406,79.413L65.514,79.574L65.570,79.693L65.653,79.791L65.843,79.887L65.794,79.932L66.006,80.143L66.245,80.338L66.297,80.339L66.389,80.362L66.686,80.317L66.775,80.339L66.794,80.448L66.754,80.730L66.775,80.837L68.143,83.445L68.274,83.575L68.371,83.613L68.469,83.690L68.600,83.943ZM79.591,73.933L79.788,74.368L79.834,74.917L79.799,75.853L80.170,77.835L80.121,78.789L79.591,79.669L79.424,79.735L78.893,79.803L78.677,79.887L78.554,80.054L78.393,80.465L78.220,80.600L77.756,80.643L77.314,80.523L76.606,80.124L75.821,79.550L75.439,79.141L75.235,78.700L75.337,78.272L75.598,77.842L75.733,77.420L75.464,77.019L75.937,76.736L76.147,76.286L76.014,75.909L75.464,75.853L75.651,75.344L76.373,74.801L76.852,73.933L76.695,73.868L76.672,73.837L76.679,73.789L76.606,73.673L77.069,73.473L77.518,73.200L77.527,73.313L77.518,73.673L77.805,73.444L77.882,73.367L77.972,73.200L78.220,73.458L77.972,73.673L78.450,73.902L79.199,73.721L79.591,73.933ZM94.481,46.061L94.606,46.121L94.859,46.456L95.000,46.831L94.802,47.009L94.698,47.159L94.648,47.484L94.558,47.812L94.002,48.170L92.176,49.642L90.957,50.301L90.337,50.499L88.415,50.622L88.074,50.570L87.747,50.402L87.276,49.993L86.891,49.880L85.680,49.325L85.272,48.938L85.064,48.195L85.088,47.535L85.272,46.916L85.617,46.456L86.112,46.276L86.748,45.646L86.385,42.608L86.680,41.530L86.814,41.782L86.960,41.966L87.365,42.264L87.939,42.540L88.787,42.829L89.560,42.919L89.897,42.608L90.152,42.070L90.749,41.969L92.724,42.472L93.086,42.619L93.420,42.858L93.555,43.106L93.758,43.768L93.898,43.903L94.468,44.148L94.595,44.735L94.481,46.061ZM48.195,28.672L48.849,29.197L49.201,29.399L49.354,29.266L49.354,30.463L48.978,30.550L46.618,30.571L44.038,29.417L42.656,29.082L41.353,29.600L40.884,30.173L39.916,31.922L39.603,33.234L39.312,32.807L38.842,31.520L38.645,31.226L38.418,30.991L38.235,30.699L38.159,30.228L38.138,29.867L38.059,29.603L37.886,29.441L37.586,29.385L36.811,29.150L36.262,28.560L36.063,27.784L36.332,26.991L38.374,26.320L38.616,26.354L39.073,26.537L39.470,26.800L40.256,27.491L40.667,27.702L41.017,27.719L42.874,27.432L43.197,27.498L44.418,28.084L44.689,28.145L47.444,28.375L48.195,28.672ZM86.226,29.385L85.818,26.745L85.313,25.699L84.608,26.061L84.470,25.558L84.424,24.879L84.527,24.251L84.836,23.906L84.836,23.669L84.437,23.547L84.220,23.215L84.142,22.749L84.168,21.660L84.859,21.112L86.452,20.109L86.634,20.357L87.238,20.925L87.365,21.187L87.325,21.335L87.110,21.747L86.875,22.088L86.936,22.184L87.066,22.254L87.140,22.375L87.046,24.435L87.140,25.091L87.289,25.323L87.730,25.735L87.825,25.934L87.790,26.322L87.648,27.012L87.616,27.368L87.550,27.561L87.242,27.784L87.140,27.959L87.152,28.145L87.221,28.403L87.307,28.618L87.365,28.672L87.144,28.951L86.906,29.079L86.612,29.184L86.226,29.385ZM19.723,18.900L19.617,19.048L19.899,19.375L20.378,19.702L20.854,19.850L21.014,20.040L21.175,20.472L21.264,20.956L21.215,21.296L20.680,21.720L19.864,22.014L18.951,22.188L18.106,22.243L17.893,22.319L17.569,22.645L17.442,22.721L17.201,22.687L15.098,21.870L14.762,21.680L14.497,21.424L14.331,21.081L13.896,21.296L14.043,20.554L14.429,19.944L14.917,19.528L15.367,19.375L16.414,19.354L16.842,19.157L16.634,18.685L17.576,18.174L17.773,17.930L18.002,17.930L18.204,18.419L18.539,18.354L19.122,17.930L19.456,18.111L19.755,18.442L19.891,18.758L19.723,18.900ZM15.472,14.035L15.185,14.391L13.170,15.342L12.250,16.295L11.597,17.155L10.765,17.750L9.313,17.930L8.048,17.930L7.659,18.009L7.364,18.132L7.062,18.125L6.659,17.822L6.571,17.392L6.555,15.081L6.098,14.273L5.982,14.178L5.405,14.067L5.186,13.916L5.000,13.333L5.162,12.836L5.986,11.888L6.457,11.566L6.947,11.498L7.382,11.535L7.694,11.523L8.034,11.280L8.844,10.502L9.481,10.225L10.269,9.736L11.043,9.541L13.078,8.551L13.613,8.420L13.999,8.545L14.386,8.811L15.239,8.783L15.720,8.913L16.033,9.154L16.164,9.425L16.177,10.217L16.354,10.375L17.140,10.590L17.316,10.703L17.420,10.884L17.878,11.274L18.002,11.523L17.943,11.895L17.743,12.233L16.536,13.546L16.384,13.550L16.243,13.676L15.614,13.916L15.472,14.035ZM30.651,28.311L31.424,28.462L31.231,28.965L30.747,28.914L30.361,28.814L30.264,28.411L30.651,28.311ZM24.609,22.126L25.430,22.428L25.865,22.931L26.204,23.685L26.832,23.836L27.219,23.584L27.605,23.735L27.557,24.188L26.977,24.439L26.300,24.489L25.720,24.489L25.430,24.188L25.237,23.785L24.609,23.534L24.125,23.082L24.125,22.579L24.609,22.126Z" fill="currentColor" stroke="currentColor" stroke-width="1.5" stroke-linejoin="round"/>
</svg>