<svg xmlns="http://www.w3.org/2000/svg" viewBox="0 0 100 100" role="img" aria-label="Costa Rica">
  <title>Costa Rica</title>
  <path d="M67.883,9.320L68.034,9.298L68.114,9.338L68.167,9.330L68.251,9.373L68.251,9.404L68.211,9.433L68.211,9.488L68.278,9.479L68.357,9.405L68.370,9.340L68.442,9.355L68.699,9.488L69.013,9.852L69.412,10.584L69.696,11.363L69.660,11.863L69.430,11.580L69.019,10.568L69.284,11.830L69.257,12.340L68.806,12.726L69.045,12.682L69.206,12.571L69.358,12.434L69.563,12.304L69.491,12.385L69.475,12.481L69.502,12.596L69.563,12.726L69.622,12.540L69.689,12.177L69.776,11.980L70.534,14.069L71.485,16.306L72.605,18.179L75.588,22.077L75.828,22.261L76.824,23.480L77.440,24.088L77.812,23.879L77.954,23.970L78.367,24.042L78.452,24.163L78.463,24.458L78.513,24.704L78.627,24.923L78.831,25.134L79.559,26.214L79.792,26.380L80.693,27.597L81.372,28.239L81.772,28.116L81.862,28.365L81.948,29.001L82.092,29.293L82.333,29.478L83.383,29.844L83.755,29.882L84.122,29.869L84.467,29.898L84.771,30.058L85.162,30.649L85.425,30.810L85.441,30.819L85.609,31.412L85.487,31.419L85.249,31.293L85.011,31.254L84.900,31.425L84.834,32.031L84.733,32.233L84.525,32.266L84.235,32.215L83.961,32.131L83.808,32.059L83.642,31.874L83.442,31.493L83.282,31.312L83.156,31.370L83.005,31.314L82.353,30.761L81.447,30.400L81.159,30.433L80.868,30.679L80.691,30.930L80.662,31.077L80.851,31.413L80.959,31.846L81.026,31.937L81.129,31.968L81.201,32.013L81.176,32.141L80.942,32.275L80.109,32.389L79.816,32.492L79.685,32.713L79.645,33.017L79.662,34.326L79.686,36.220L79.719,38.809L79.722,38.984L80.189,38.787L80.334,38.786L80.442,38.867L80.498,38.987L80.542,39.112L80.612,39.209L80.704,39.263L81.055,39.420L81.773,39.951L82.484,40.194L82.696,40.335L83.099,41.017L83.162,41.165L83.149,41.186L82.935,41.537L82.467,41.823L80.854,42.484L80.672,42.616L80.520,42.818L80.594,42.890L80.718,42.967L80.716,43.182L80.570,43.352L80.104,43.642L79.978,43.779L79.959,44.015L80.037,44.239L80.176,44.446L80.666,44.997L80.928,45.366L81.122,45.775L81.246,46.255L81.338,47.357L81.292,47.912L81.146,48.378L80.800,48.805L80.392,49.007L79.950,49.143L79.501,49.374L78.808,50.037L78.097,50.439L77.959,50.551L77.941,50.749L78.085,50.903L78.522,51.162L78.605,51.251L78.756,51.474L78.844,51.544L78.943,51.550L79.131,51.474L79.274,51.494L79.547,51.639L79.654,51.801L79.726,52.302L80.550,54.114L80.472,54.820L80.374,55.180L80.161,55.012L80.186,54.771L80.304,54.505L80.375,54.262L80.331,54.069L79.266,52.233L78.890,51.835L76.947,50.417L76.415,49.893L76.874,49.330L76.959,49.285L77.046,49.122L77.216,48.912L77.324,48.670L77.225,48.416L76.714,47.777L76.628,47.597L76.620,47.364L76.732,47.282L76.926,47.224L77.172,47.068L76.987,47.009L76.531,47.033L76.308,46.950L76.191,46.820L75.880,46.204L75.932,46.123L75.957,46.067L75.987,45.979L76.094,45.979L76.245,46.235L76.291,46.361L76.308,46.572L76.377,46.607L76.842,46.420L76.842,46.303L76.628,46.212L76.401,46.044L76.209,45.842L76.094,45.654L75.987,45.654L75.869,45.849L75.584,45.860L75.259,45.822L75.017,45.871L74.902,45.658L74.719,45.436L74.502,45.323L74.280,45.440L73.785,45.147L73.640,44.910L73.736,44.576L73.629,44.568L73.523,44.576L73.587,44.318L73.366,44.193L73.036,44.125L72.775,44.037L72.683,44.222L72.601,44.209L72.498,44.134L72.339,44.134L72.265,44.219L72.246,44.330L72.181,44.427L71.969,44.468L71.452,44.390L71.242,44.467L71.164,44.782L71.282,44.691L71.280,44.684L71.378,44.684L71.927,45.513L71.999,45.764L72.320,46.271L72.445,46.420L72.651,46.526L73.235,46.704L73.470,46.734L73.685,46.863L73.890,47.115L74.087,47.284L74.280,47.166L74.288,47.556L74.257,47.716L74.162,47.823L74.162,47.931L74.399,48.255L74.494,48.808L74.453,49.383L74.280,49.775L73.929,49.788L73.357,49.603L72.818,49.342L72.562,49.128L72.658,49.128L72.728,49.184L72.786,49.210L72.998,49.235L72.697,49.099L72.574,49.019L72.445,48.903L72.445,49.128L71.543,48.733L71.223,48.686L70.265,48.803L70.000,48.804L69.774,48.697L69.566,48.482L69.185,47.985L67.825,46.716L67.738,46.572L67.671,46.555L67.350,46.424L67.253,46.362L67.205,45.871L67.681,45.135L67.791,45.008L68.037,44.861L68.205,44.796L68.282,44.842L68.332,44.936L68.440,44.827L68.820,44.244L68.923,44.134L68.727,43.884L68.963,43.601L69.392,43.370L69.776,43.271L69.776,43.174L69.438,43.133L69.268,43.148L69.152,43.242L68.971,43.438L68.788,43.524L68.727,43.372L68.801,43.104L69.020,42.840L69.407,42.651L69.586,42.527L69.660,42.349L69.563,42.189L69.360,42.078L69.175,41.929L69.136,41.653L69.439,41.808L69.585,41.853L69.776,41.859L69.683,41.743L69.565,41.655L69.339,41.535L69.244,41.456L69.190,41.383L69.106,41.332L68.923,41.320L69.112,41.205L69.085,41.122L68.977,41.059L68.923,41.005L68.993,40.832L69.073,40.702L69.183,40.588L69.339,40.457L68.925,39.367L68.849,39.228L68.592,38.946L68.486,39.053L68.134,38.596L67.814,38.063L67.403,37.645L66.778,37.533L66.814,37.125L66.470,36.776L65.997,36.535L65.647,36.444L64.419,35.267L63.214,34.706L63.022,34.556L61.518,33.963L61.420,33.963L61.319,34.037L61.231,34.036L61.158,33.969L61.100,33.845L60.885,33.938L60.757,33.836L60.612,33.687L60.344,33.639L60.512,33.348L60.288,32.937L59.880,32.577L59.489,32.443L59.489,32.550L59.626,32.577L59.719,32.615L59.926,32.766L59.519,32.694L58.874,32.314L58.465,32.227L58.069,32.196L55.978,31.612L55.578,31.579L55.391,31.612L55.190,31.676L54.982,31.718L54.772,31.687L54.589,31.532L54.528,31.346L54.454,31.195L54.239,31.147L54.279,31.211L54.302,31.258L54.335,31.373L54.077,31.164L53.497,30.790L53.385,30.554L53.329,30.337L53.192,30.232L53.018,30.163L52.850,30.058L52.797,29.898L52.819,29.733L52.776,29.626L52.531,29.637L52.593,29.457L52.576,29.285L52.536,29.123L52.531,28.980L52.623,28.803L52.892,28.534L52.999,28.267L53.108,28.134L53.218,27.961L53.268,27.734L53.216,27.545L53.094,27.381L52.850,27.136L52.218,26.194L52.041,26.056L51.787,25.947L51.821,25.708L52.041,25.345L51.657,25.029L51.586,24.875L51.667,24.644L51.219,24.506L49.833,24.644L49.833,24.526L50.025,24.451L50.271,24.424L50.813,24.428L50.813,24.320L50.315,24.296L49.870,24.217L49.468,24.080L49.095,23.879L48.624,23.488L48.552,23.403L48.451,23.380L48.252,23.245L48.113,23.096L48.188,23.025L47.926,22.890L47.285,22.288L46.943,22.119L46.782,21.970L46.684,21.937L46.605,21.972L46.538,22.031L46.449,22.045L46.311,21.937L46.403,21.769L46.434,21.661L46.363,21.613L46.302,21.584L46.097,21.397L45.815,21.489L44.757,21.505L44.477,21.433L44.227,21.258L43.835,20.849L43.835,20.750L43.925,20.461L43.652,20.129L42.981,19.661L43.076,19.980L43.528,20.310L43.632,20.696L43.673,21.429L43.767,21.859L43.952,22.153L43.748,22.284L43.777,22.503L43.961,22.709L44.439,22.877L44.609,23.061L44.815,23.457L44.912,23.457L45.038,23.405L45.093,23.447L45.117,23.555L44.980,23.566L44.840,23.548L44.706,23.508L44.592,23.457L44.592,23.555L44.885,23.815L45.243,24.132L46.191,24.518L46.311,24.585L46.422,24.542L46.671,24.644L47.275,24.991L47.554,25.081L47.853,25.089L48.134,24.967L48.319,25.115L48.712,25.363L48.892,25.517L48.892,25.616L48.580,25.691L48.594,25.918L48.783,26.183L48.989,26.380L48.861,26.424L48.741,26.509L48.552,26.704L48.783,26.808L49.056,26.839L49.619,26.821L49.619,26.920L49.399,27.068L49.119,27.186L48.878,27.348L48.775,27.626L48.716,27.690L48.348,27.900L48.279,28.016L48.198,28.307L48.134,28.430L47.644,28.187L47.383,28.166L47.271,28.376L47.340,28.505L47.581,28.811L47.542,28.872L47.036,29.120L46.951,29.141L46.894,29.222L46.523,29.411L46.447,29.536L46.105,30.624L45.962,30.900L45.775,31.147L45.660,31.147L45.223,30.244L43.920,28.477L43.835,28.273L43.771,28.199L43.626,28.108L43.234,27.946L43.202,27.821L43.207,27.677L43.195,27.567L42.822,27.156L42.304,26.862L40.623,26.262L40.473,26.295L40.249,26.451L40.148,26.488L39.997,26.453L39.785,26.298L39.613,26.262L39.513,26.254L39.478,26.229L39.457,26.181L39.400,26.110L39.291,26.059L39.200,26.083L39.140,26.133L39.128,26.164L38.245,25.880L37.822,25.814L37.722,25.753L37.642,25.677L37.518,25.616L37.342,25.623L37.226,25.693L37.123,25.700L36.984,25.517L37.096,25.223L36.930,24.825L35.329,22.859L35.234,22.685L35.108,22.259L34.915,21.962L34.305,20.470L34.250,20.023L34.183,19.751L34.092,19.553L34.307,19.342L34.397,19.190L34.363,19.062L34.030,18.638L33.821,18.510L33.937,18.355L34.208,18.140L34.391,17.872L34.519,17.610L34.786,17.716L34.931,17.548L35.045,17.303L35.377,17.053L35.248,16.769L35.012,16.473L34.849,16.306L34.947,16.239L34.989,16.215L35.062,16.198L35.062,16.090L34.849,16.090L34.849,15.982L35.027,15.949L35.142,15.839L35.276,15.540L35.382,15.540L35.600,15.717L35.907,15.590L36.220,15.415L36.459,15.443L36.556,15.443L36.535,15.235L36.589,15.135L36.678,15.080L36.760,15.011L36.904,14.764L36.960,14.778L37.154,14.796L37.624,14.305L37.589,14.174L37.506,14.073L37.304,13.933L36.663,14.579L36.648,14.527L36.650,14.481L36.633,14.455L36.556,14.462L36.556,14.363L36.738,14.166L36.848,14.083L36.984,14.041L36.877,13.933L36.863,13.947L36.842,13.977L36.809,14.010L36.760,14.041L36.800,13.909L36.808,13.864L36.984,13.815L36.984,13.716L36.877,13.716L36.877,13.599L37.138,13.391L37.189,12.854L37.100,11.813L36.865,11.537L36.348,11.307L35.830,11.223L35.596,11.382L35.502,11.382L35.071,11.026L34.945,10.891L35.020,10.915L35.113,10.873L35.151,10.785L35.062,10.675L34.947,10.649L34.645,10.679L34.519,10.675L34.059,10.502L33.697,10.291L33.292,10.113L32.704,10.038L32.704,9.921L33.058,9.832L33.719,9.532L34.092,9.488L34.032,9.391L33.985,9.331L33.913,9.295L33.772,9.272L33.772,9.166L34.545,9.119L34.741,9.166L34.823,9.287L34.803,9.429L34.765,9.546L34.796,9.596L34.861,9.627L35.062,9.812L35.159,9.812L35.276,9.695L35.276,9.596L35.097,9.420L35.268,9.306L35.601,9.257L35.916,9.272L36.023,9.322L36.163,9.461L36.290,9.488L36.392,9.451L36.435,9.360L36.418,9.253L36.342,9.166L36.342,9.048L36.575,8.962L36.640,8.788L36.586,8.583L36.459,8.400L36.346,8.317L36.082,8.209L35.970,8.130L35.838,7.991L35.838,7.954L35.917,7.937L36.023,7.860L36.262,7.640L36.401,7.715L36.563,7.865L36.877,7.860L37.065,7.688L37.023,7.458L36.854,7.237L36.663,7.096L36.530,7.040L36.908,6.427L37.193,5.808L37.634,5.217L38.155,5.000L38.603,5.230L39.044,5.626L39.549,5.909L41.132,6.493L43.244,7.272L43.805,7.479L46.051,8.308L48.575,9.236L48.934,9.276L49.301,9.145L50.914,8.083L52.071,7.321L52.561,7.205L52.838,7.326L53.433,7.753L53.706,7.792L54.043,7.773L54.404,7.888L55.183,8.230L55.268,8.254L55.349,8.286L55.425,8.327L55.490,8.375L55.846,8.816L55.979,8.929L56.119,9.008L56.286,9.073L56.458,9.090L56.606,9.028L57.447,8.482L57.580,8.403L57.728,8.477L57.765,8.596L57.761,8.756L57.794,8.952L57.862,9.066L58.070,9.326L58.114,9.437L58.279,9.591L59.006,9.869L59.172,9.982L59.311,10.137L59.610,10.288L59.880,10.515L59.938,10.894L59.721,11.007L59.657,11.051L59.587,11.173L59.616,11.262L59.680,11.330L59.715,11.384L60.060,11.660L60.142,11.767L60.317,11.640L60.561,11.645L60.672,11.661L60.808,11.681L60.996,11.650L61.286,11.933L61.466,12.001L61.646,11.865L61.753,11.865L61.943,12.050L62.331,11.802L62.598,11.865L62.783,11.680L62.994,11.645L63.166,11.762L63.238,12.032L64.180,12.774L64.286,12.823L64.431,12.846L64.584,12.816L64.802,12.665L64.907,12.630L65.334,12.715L65.392,12.680L65.712,12.306L66.750,11.914L66.831,11.894L67.858,11.650L68.407,11.368L68.452,10.938L68.309,10.376L68.300,10.029L68.144,9.945L68.191,9.735L68.160,9.643L68.126,9.628L68.004,9.352L67.883,9.320ZM45.449,22.562L45.601,22.598L45.688,22.672L45.815,22.706L45.981,22.702L45.981,22.800L45.790,22.868L45.550,22.926L45.285,22.949L45.019,22.918L44.748,22.806L44.605,22.661L44.389,22.261L44.683,22.162L44.815,22.153L45.314,22.238L45.775,22.378L45.775,22.486L45.233,22.486L45.381,22.566L45.449,22.562ZM14.682,94.985L14.391,95.000L14.595,94.647L14.784,94.500L15.003,94.368L15.221,94.324L15.221,94.486L15.206,94.691L15.003,94.912L14.682,94.985ZM64.754,44.564L64.960,44.461L65.184,44.452L65.166,44.638L65.044,44.685L64.848,44.648L64.754,44.564Z" fill="currentColor" stroke="currentColor" stroke-width="1" stroke-linejoin="round"/>
</svg>