<svg xmlns="http://www.w3.org/2000/svg" viewBox="0 0 100 100" role="img" aria-label="Cuba">
  <title>Cuba</title>
  <path d="M86.995,64.755L86.995,64.090L86.645,64.091L86.661,64.048L86.706,64.005L86.828,63.920L86.936,63.900L87.035,63.710L87.079,63.604L87.030,63.519L87.016,63.288L86.847,63.322L86.767,63.443L86.715,63.536L86.655,63.646L86.589,63.604L86.501,63.557L86.376,63.607L86.325,63.713L86.310,63.801L86.337,63.894L86.382,63.908L86.436,63.922L86.470,63.913L86.492,63.881L86.510,63.844L86.527,63.885L86.562,63.977L86.461,64.035L86.452,64.099L86.297,64.098L85.880,64.396L85.848,64.730L85.417,64.836L84.596,64.887L84.505,64.878L84.227,64.814L84.145,64.770L84.088,64.760L84.063,64.778L83.994,64.861L83.943,64.887L83.717,64.918L83.451,64.913L83.202,64.863L83.029,64.760L82.754,64.802L82.413,64.618L82.069,64.369L81.779,64.216L81.597,64.195L81.002,64.216L80.843,64.196L80.518,64.108L80.348,64.088L80.030,64.125L79.862,64.174L79.752,64.244L79.630,64.262L78.532,63.993L77.782,63.905L77.400,63.920L76.736,64.103L76.418,64.149L75.814,64.149L75.635,64.175L75.286,64.298L75.101,64.338L74.043,64.273L72.966,64.366L72.794,64.456L72.612,64.448L72.429,64.406L72.256,64.393L72.128,64.450L71.859,64.671L71.683,64.760L71.486,64.811L70.412,64.861L70.201,64.826L69.785,64.658L69.572,64.618L69.457,64.705L69.400,64.705L69.338,64.645L69.253,64.632L69.171,64.669L69.116,64.760L68.905,64.690L68.663,64.671L68.448,64.728L68.315,64.887L68.542,64.887L68.542,64.949L68.395,64.956L68.161,65.048L68.005,65.071L67.234,65.092L66.707,65.223L66.407,65.254L66.057,65.226L65.543,65.366L65.382,65.376L65.270,65.357L65.157,65.304L65.066,65.225L65.010,65.127L65.021,64.962L65.176,64.666L65.185,64.582L65.247,64.563L65.352,64.552L65.413,64.521L65.469,64.466L65.526,64.374L65.584,64.338L65.558,64.241L65.597,64.172L65.754,64.027L65.939,63.766L65.953,63.722L65.982,63.654L66.379,63.289L66.363,63.212L66.251,63.098L66.265,63.044L66.340,63.049L66.560,63.122L66.642,63.042L66.802,62.990L66.839,62.955L66.862,62.902L67.009,62.678L67.154,62.576L67.511,62.383L67.648,62.181L67.805,62.064L68.643,61.665L68.803,61.640L68.927,61.571L69.058,61.248L69.178,61.146L69.202,61.142L69.232,61.140L69.286,61.146L69.239,61.250L69.289,61.301L69.396,61.306L69.518,61.273L69.632,61.198L69.720,61.087L69.777,60.954L69.798,60.810L69.859,60.758L70.201,60.540L70.227,60.111L70.283,60.046L70.347,59.988L70.458,59.674L70.201,59.252L70.119,59.176L69.895,59.024L69.597,58.908L69.516,58.897L69.570,58.997L69.518,59.058L69.364,58.950L69.235,58.890L69.148,58.799L69.116,58.600L69.144,58.539L69.210,58.504L69.286,58.479L69.343,58.447L69.518,58.202L69.518,58.142L69.217,57.947L69.055,57.913L68.997,58.081L68.830,57.914L68.688,57.690L68.525,57.493L68.289,57.409L68.051,57.430L67.790,57.492L67.572,57.588L67.464,57.714L67.384,57.664L67.336,57.665L67.294,57.691L67.236,57.714L67.148,57.737L67.095,57.760L67.039,57.776L66.947,57.775L66.801,57.750L66.379,57.592L66.055,57.767L65.981,57.775L65.861,57.682L65.805,57.653L65.742,57.641L65.496,57.653L65.431,57.645L65.269,57.597L65.214,57.564L65.183,57.584L65.076,57.592L64.667,57.567L64.525,57.522L64.304,57.368L64.148,57.321L63.843,57.286L63.662,57.330L63.538,57.428L63.432,57.530L63.306,57.592L62.765,57.608L62.482,57.534L62.392,57.342L62.330,57.342L62.279,57.470L62.005,57.144L61.906,57.098L61.725,57.061L61.625,56.964L61.478,56.676L61.390,56.574L61.236,56.433L61.068,56.326L60.936,56.331L60.846,56.381L60.816,56.335L60.812,56.251L60.796,56.187L60.696,56.066L60.643,55.980L60.621,55.904L60.560,55.775L59.973,55.343L59.859,55.311L59.567,55.327L59.463,55.267L59.371,55.131L59.247,54.893L59.144,54.791L58.838,54.554L58.764,54.546L58.707,54.462L58.656,54.156L58.627,53.574L58.561,53.324L58.434,53.072L58.346,52.818L58.400,52.561L58.476,52.651L58.568,52.664L58.646,52.604L58.679,52.476L58.618,52.384L58.348,52.293L58.286,52.228L58.269,52.072L58.190,51.782L58.173,51.612L58.137,51.460L57.981,51.188L57.945,51.060L57.895,50.759L57.767,50.474L57.597,50.229L57.424,50.052L57.288,49.960L57.158,49.911L56.717,49.842L56.614,49.809L56.574,49.742L56.628,49.619L56.722,49.673L56.828,49.691L57.057,49.686L57.090,49.645L57.048,49.553L56.943,49.410L56.886,49.357L56.800,49.295L56.628,49.196L56.506,49.160L56.446,49.168L56.392,49.204L56.288,49.252L55.902,49.342L55.515,49.380L55.474,49.396L55.427,49.437L55.389,49.486L55.374,49.530L55.346,49.563L55.282,49.571L55.027,49.556L54.926,49.534L54.837,49.527L54.748,49.563L54.692,49.497L54.549,49.576L54.397,49.612L54.038,49.619L53.875,49.648L53.437,49.863L53.095,49.955L52.765,49.984L52.428,49.953L51.761,49.759L51.624,49.674L51.469,49.530L51.352,49.512L50.920,49.564L50.757,49.563L50.574,49.505L50.495,49.457L50.415,49.380L50.289,49.167L50.216,49.089L50.183,49.164L50.158,49.255L50.096,49.313L50.013,49.327L49.930,49.283L49.851,49.210L49.803,49.184L49.446,49.085L49.397,49.064L49.331,49.008L49.282,48.924L49.242,48.824L49.184,48.738L49.078,48.703L48.490,48.687L47.929,48.525L47.716,48.528L47.622,48.672L47.565,48.828L47.424,48.807L47.240,48.710L47.054,48.642L47.054,48.580L47.224,48.514L47.224,48.458L47.095,48.428L47.068,48.328L47.076,48.201L47.054,48.092L46.912,48.196L46.765,48.241L46.604,48.243L46.419,48.214L46.249,48.152L46.153,48.129L46.077,48.147L46.055,48.211L46.108,48.271L46.190,48.315L46.258,48.330L46.156,48.442L46.002,48.367L45.860,48.207L45.798,48.061L45.780,47.869L45.723,47.701L45.623,47.582L45.481,47.536L45.310,47.507L44.969,47.377L44.617,47.301L44.372,47.095L43.937,46.956L43.680,46.735L42.772,45.760L42.756,45.720L42.756,45.674L42.750,45.624L42.716,45.576L42.679,45.570L42.578,45.585L42.545,45.576L42.455,45.495L42.430,45.438L42.431,45.332L42.549,45.355L42.694,45.349L42.837,45.304L42.948,45.210L42.820,45.243L42.772,45.265L42.806,45.187L42.852,45.112L42.887,45.038L42.886,44.965L42.819,44.938L42.719,44.964L42.644,44.960L42.654,44.844L42.489,44.843L42.384,44.778L42.374,44.668L42.493,44.532L42.295,44.410L42.217,44.333L42.152,44.227L42.095,44.318L41.993,44.351L41.869,44.335L41.750,44.283L41.705,44.474L41.783,44.595L42.034,44.777L42.156,44.944L42.265,45.148L42.317,45.366L42.266,45.576L41.908,45.441L40.874,45.470L39.850,45.398L38.651,45.532L37.928,45.460L37.766,45.403L37.453,45.243L37.127,45.177L37.000,45.087L36.916,44.950L36.702,44.497L36.673,44.410L36.668,44.269L36.730,43.889L36.692,43.863L36.472,43.522L36.360,43.450L36.249,43.426L36.155,43.458L36.100,43.550L36.102,43.661L36.219,44.044L36.224,45.129L36.159,45.406L35.986,45.393L36.105,45.198L36.070,44.916L35.950,44.657L35.873,44.594L35.640,44.678L35.589,44.716L35.562,44.792L35.572,44.959L35.537,45.027L35.439,45.072L35.372,45.039L35.316,44.984L35.248,44.965L35.187,45.008L35.177,45.070L35.153,45.125L35.051,45.149L34.750,45.013L34.567,44.418L34.251,44.283L33.851,44.283L33.756,44.255L33.596,44.138L33.507,44.111L33.442,44.138L33.321,44.255L33.223,44.283L33.201,44.293L33.185,44.316L33.160,44.339L33.110,44.349L33.084,44.334L33.064,44.255L33.027,44.227L32.681,44.111L32.639,44.085L32.541,44.042L32.442,44.040L32.397,44.138L32.316,44.175L32.133,44.184L31.939,44.163L31.824,44.111L31.772,44.111L31.750,44.220L31.696,44.249L31.540,44.227L31.565,44.263L31.579,44.287L31.601,44.349L31.510,44.349L31.121,44.301L31.003,44.255L30.793,44.022L30.717,43.897L30.687,43.766L30.543,43.616L29.364,43.142L29.244,43.074L29.118,42.970L29.043,42.928L28.877,42.910L28.808,42.884L28.767,42.833L28.671,42.669L28.663,42.633L28.550,42.635L28.397,42.616L28.256,42.547L28.178,42.395L28.224,42.255L28.324,42.168L28.450,42.115L28.554,42.082L29.512,42.115L29.824,42.035L30.046,42.070L30.299,42.049L30.453,42.022L30.675,42.075L30.864,42.092L31.292,42.024L31.622,41.884L31.715,41.901L31.801,41.855L31.966,41.855L32.056,41.834L32.176,41.798L32.285,41.687L32.363,41.614L32.441,41.581L32.431,41.394L32.464,41.308L32.443,41.169L32.515,40.918L32.510,40.821L32.390,40.781L32.266,40.777L32.038,40.581L31.881,40.455L31.594,40.237L31.303,40.129L30.561,39.864L30.271,39.875L29.604,39.936L28.720,40.086L28.452,39.970L27.888,39.810L27.255,39.812L26.903,39.853L26.721,39.874L26.548,39.855L26.284,39.787L25.737,39.859L25.299,39.752L25.201,39.771L25.040,39.855L24.958,39.874L24.571,39.790L24.276,39.860L23.398,39.626L23.220,39.630L23.047,39.718L22.962,39.863L22.933,40.037L22.931,40.212L22.880,40.374L22.757,40.457L22.476,40.551L21.976,40.975L21.877,41.040L21.688,41.056L21.560,41.096L21.005,41.385L20.733,41.567L20.505,41.805L20.030,42.713L19.833,42.908L19.563,42.939L19.289,42.861L19.176,42.850L19.057,42.884L19.054,42.906L19.057,43.031L19.043,43.065L19.011,43.062L18.973,43.051L18.913,43.073L18.876,43.062L18.844,43.058L18.830,43.094L18.834,43.220L18.830,43.244L18.529,43.438L18.428,43.550L18.383,43.625L18.376,43.668L18.381,43.699L18.371,43.739L18.316,43.868L18.275,43.925L18.200,43.983L18.173,43.955L18.160,43.927L18.156,44.032L18.097,44.093L18.050,44.002L17.981,43.974L17.908,43.983L17.902,44.131L17.765,44.280L17.350,44.316L16.920,44.261L16.553,44.111L16.622,44.036L16.600,43.945L16.538,43.844L16.491,43.739L16.434,43.739L16.316,43.978L16.110,44.194L15.866,44.350L15.639,44.410L15.656,44.379L15.674,44.317L15.690,44.283L14.769,44.418L14.724,44.410L14.692,44.376L14.669,44.314L14.659,44.254L14.668,44.227L14.572,44.256L14.474,44.382L14.353,44.410L13.706,44.373L13.522,44.410L13.180,44.746L13.170,44.815L13.106,45.061L13.067,45.149L13.111,45.207L13.123,45.261L13.129,45.393L13.034,45.314L12.943,45.334L12.886,45.430L12.896,45.576L12.959,45.695L13.041,45.738L13.137,45.714L13.243,45.632L13.195,45.826L12.907,46.039L12.839,46.221L12.869,46.263L12.926,46.315L12.959,46.380L12.922,46.465L12.844,46.542L12.754,46.612L12.657,46.662L12.555,46.681L12.399,46.643L12.084,46.475L11.899,46.437L11.718,46.479L11.397,46.676L11.244,46.743L11.159,46.749L10.987,46.736L10.903,46.743L10.811,46.781L10.622,46.900L10.362,46.978L9.380,47.803L9.022,47.998L8.671,48.031L8.563,47.854L8.896,47.151L8.961,46.798L8.773,46.537L8.441,46.480L8.071,46.536L7.410,46.732L7.088,46.886L6.247,47.447L5.913,47.529L5.551,47.523L5.201,47.414L5.087,47.322L5.020,47.194L5.000,47.047L5.030,46.897L5.057,46.839L5.100,46.767L5.153,46.708L5.209,46.685L5.248,46.708L5.275,46.754L5.297,46.806L5.323,46.849L5.383,46.897L5.451,46.924L5.524,46.933L5.599,46.926L5.741,46.866L5.839,46.764L5.844,46.651L5.707,46.554L5.849,46.476L5.975,46.477L6.054,46.563L6.054,46.743L6.735,46.376L7.339,46.197L8.048,45.878L8.501,45.548L8.563,45.515L8.674,45.506L8.775,45.521L8.827,45.562L8.791,45.632L9.052,45.748L9.246,45.693L9.434,45.578L9.679,45.515L9.799,45.552L9.941,45.640L10.058,45.751L10.107,45.852L10.147,45.904L10.373,45.740L10.500,45.760L10.619,45.265L10.519,45.378L10.431,45.534L10.337,45.617L10.221,45.515L10.172,45.344L10.182,45.213L10.154,45.110L9.989,45.027L10.066,44.836L10.107,44.777L9.953,44.760L9.785,44.699L9.633,44.616L9.529,44.532L9.461,44.406L9.406,44.257L9.330,44.140L9.193,44.111L9.276,44.033L9.369,43.895L9.445,43.732L9.477,43.583L9.493,43.375L9.529,43.183L9.648,42.789L9.668,42.768L9.790,42.540L9.833,42.516L9.922,42.508L9.963,42.481L9.996,42.424L10.030,42.311L10.051,42.268L10.228,42.008L10.351,41.869L10.500,41.778L10.500,41.712L10.330,41.712L10.473,41.595L10.829,41.530L10.985,41.440L11.084,41.304L11.189,41.104L11.227,40.910L11.130,40.796L11.130,40.729L11.217,40.756L11.301,40.796L11.419,40.706L11.531,40.688L11.628,40.738L11.698,40.851L11.772,40.516L11.817,40.430L11.898,40.396L12.114,40.377L12.158,40.335L12.164,40.245L12.190,40.093L12.250,39.985L12.356,40.029L12.468,40.101L12.555,40.055L12.635,39.957L12.726,39.874L12.663,39.772L12.577,39.709L12.466,39.684L12.328,39.697L12.366,39.627L12.427,39.564L12.502,39.520L12.581,39.502L12.715,39.551L12.787,39.660L12.841,39.769L12.922,39.818L13.034,39.799L13.134,39.750L13.640,39.385L13.753,39.502L13.833,39.312L13.960,39.229L14.322,39.202L14.460,39.175L15.034,38.886L15.321,38.782L15.458,38.769L15.551,38.785L15.656,38.834L15.747,38.836L15.804,38.817L15.919,38.743L15.979,38.714L15.979,38.647L15.920,38.675L15.860,38.714L15.849,38.681L15.852,38.661L15.845,38.651L15.803,38.647L15.981,38.535L16.164,38.481L16.579,38.464L16.614,38.411L16.718,38.128L16.770,38.099L17.115,38.097L17.094,38.159L17.081,38.185L17.058,38.220L17.221,38.249L17.318,38.157L17.386,38.019L17.457,37.914L17.581,37.863L17.676,37.901L17.777,37.976L17.916,38.036L17.857,38.129L17.948,38.101L18.081,38.018L18.148,37.948L18.198,37.800L18.322,37.607L18.479,37.437L18.629,37.365L18.741,37.327L19.171,37.053L19.340,36.983L19.494,36.975L19.628,37.023L19.739,37.120L19.739,37.176L19.663,37.234L19.631,37.341L19.646,37.466L19.710,37.578L19.812,37.624L19.897,37.570L19.969,37.480L20.028,37.420L19.876,37.295L19.886,37.179L20.008,37.076L20.193,36.998L20.540,36.931L20.605,36.898L20.713,36.824L20.762,36.810L20.848,36.825L20.963,36.904L21.050,36.931L21.094,36.907L21.144,36.856L21.205,36.827L21.283,36.871L21.336,36.963L21.281,36.991L21.198,37.004L21.164,37.053L21.198,37.146L21.249,37.177L21.314,37.146L21.391,37.053L21.374,37.230L21.519,37.242L21.684,37.133L21.700,37.122L21.790,36.900L21.907,36.709L22.177,36.703L22.475,36.751L22.675,36.718L22.858,36.652L23.612,36.687L24.384,36.587L24.583,36.504L24.754,36.516L25.115,36.310L25.299,36.254L25.345,36.226L25.427,36.099L25.469,36.071L25.572,36.059L25.651,36.028L25.781,35.948L26.028,35.757L26.157,35.680L26.488,35.631L26.871,35.466L27.453,35.370L27.717,35.262L28.292,35.399L28.474,35.380L28.709,35.321L28.808,35.296L29.001,35.277L29.085,35.257L29.176,35.222L29.266,35.206L29.347,35.246L29.660,35.466L29.907,35.536L30.440,35.587L30.687,35.648L30.873,35.588L32.172,35.596L32.387,35.597L32.518,35.578L32.629,35.521L32.724,35.572L32.817,35.578L32.915,35.574L33.027,35.588L33.084,35.622L33.230,35.740L33.407,35.842L33.435,36.021L33.409,36.227L33.368,36.382L33.318,36.452L33.266,36.486L33.265,36.513L33.368,36.565L33.463,36.577L33.555,36.554L33.680,36.504L33.713,36.458L33.764,36.240L33.794,36.165L33.863,36.102L33.925,36.082L34.000,36.079L34.700,35.958L34.793,35.918L34.883,35.821L35.089,35.763L35.481,35.704L35.604,35.661L35.914,35.510L36.117,35.356L36.485,35.140L36.621,35.099L36.776,35.160L36.658,35.261L36.428,35.356L36.050,35.455L35.598,35.729L35.481,35.832L35.481,35.888L35.850,35.982L36.324,36.534L36.621,36.687L36.787,36.691L36.858,36.651L36.917,36.559L37.043,36.409L37.083,36.336L37.171,36.116L37.213,36.071L37.307,36.060L37.478,36.017L37.531,36.009L37.876,36.071L37.934,36.068L37.966,36.052L37.981,36.085L37.985,36.226L38.047,36.423L38.201,36.471L38.389,36.436L38.558,36.382L39.865,36.132L40.069,36.126L40.457,36.207L40.665,36.198L40.839,36.124L40.995,35.989L41.041,35.821L40.887,35.648L40.996,35.597L41.109,35.584L41.213,35.603L41.295,35.648L41.295,35.704L41.224,35.770L41.006,36.198L41.238,36.372L41.248,36.391L41.550,36.933L41.721,37.053L41.853,37.063L42.190,37.128L42.318,37.176L42.397,37.249L42.483,37.354L42.593,37.447L42.744,37.487L43.213,37.486L43.317,37.517L43.442,37.627L43.576,37.703L43.714,37.754L43.856,37.786L44.130,37.795L44.388,37.741L44.884,37.548L44.822,37.334L44.962,37.330L45.404,37.549L45.600,37.610L45.767,37.579L45.798,37.365L45.888,37.412L45.979,37.476L46.049,37.554L46.077,37.639L46.266,37.978L46.284,38.036L46.599,38.220L46.644,38.227L46.792,38.220L46.850,38.240L46.874,38.284L46.878,38.327L46.878,38.347L47.050,38.295L47.322,38.040L47.833,37.896L47.906,37.914L47.906,37.982L47.827,38.054L47.673,38.158L47.482,38.067L47.390,38.140L47.281,38.464L47.371,38.603L47.424,38.662L47.503,38.714L47.591,38.738L47.934,38.769L48.081,38.819L48.570,39.166L48.596,39.208L48.628,39.247L48.678,39.264L48.724,39.243L48.774,39.199L48.811,39.155L48.820,39.136L49.009,39.112L49.081,39.157L49.286,40.063L49.291,40.068L49.416,40.109L49.517,40.161L49.607,40.233L49.700,40.335L49.796,40.478L49.910,40.754L49.987,40.885L50.198,41.122L50.245,41.163L50.369,41.186L50.609,41.191L50.705,41.217L50.927,41.560L50.970,41.662L51.036,41.718L51.660,42.249L51.903,42.364L52.125,42.328L52.209,42.413L52.366,42.525L52.517,42.578L52.585,42.481L52.674,42.470L53.110,42.565L53.266,42.567L53.357,42.502L53.375,42.446L53.396,42.406L53.499,42.395L53.583,42.415L53.713,42.494L53.809,42.512L53.988,42.486L54.300,42.367L54.460,42.328L54.649,42.326L55.109,42.378L55.929,42.471L56.319,42.451L56.361,42.541L56.520,43.062L56.550,43.039L56.628,43.000L56.712,43.116L56.789,43.045L56.917,42.761L56.811,42.611L56.754,42.553L56.685,42.512L56.685,42.451L56.932,42.484L57.198,42.751L58.107,43.073L58.224,43.155L58.295,43.270L58.461,43.411L58.652,43.540L58.797,43.616L58.996,43.676L59.497,43.762L59.650,43.739L59.646,43.799L59.654,43.923L59.650,43.983L59.735,43.941L59.768,43.917L59.824,44.006L59.902,44.177L59.962,44.255L60.038,44.312L60.187,44.389L60.251,44.444L60.316,44.480L60.398,44.481L60.485,44.472L60.564,44.477L60.848,44.594L60.977,44.630L61.390,44.660L61.462,44.698L61.479,44.787L61.485,44.888L61.529,44.965L61.598,44.983L61.811,44.980L61.784,44.994L61.756,45.027L61.844,45.109L61.947,45.149L62.055,45.173L62.143,45.204L62.160,45.210L62.283,45.167L62.361,45.252L62.472,45.487L62.630,45.638L62.676,45.699L62.731,45.862L62.880,46.127L62.947,46.213L63.045,46.248L63.146,46.319L63.528,46.712L63.556,46.786L63.697,47.046L63.755,47.109L63.855,47.094L63.903,47.005L63.942,46.336L63.988,46.248L64.079,46.209L64.303,46.245L64.437,46.248L64.363,46.341L64.097,46.389L64.039,46.465L64.051,46.625L64.084,46.745L64.137,46.840L64.209,46.926L64.305,47.016L64.377,47.050L64.582,47.048L64.671,47.108L64.734,47.246L64.771,47.400L64.783,47.506L64.813,47.615L64.891,47.693L65.001,47.746L65.236,47.822L65.283,47.830L65.405,47.771L65.476,47.808L65.543,47.871L65.614,47.903L66.120,47.826L66.265,47.842L66.405,47.908L66.776,48.147L66.781,48.023L66.846,47.961L67.060,47.903L67.074,47.991L67.122,48.037L67.198,48.047L67.293,48.031L67.276,47.997L67.254,47.933L67.236,47.903L67.353,47.941L67.465,48.033L67.633,48.214L67.514,48.230L67.431,48.179L67.379,48.175L67.350,48.330L67.369,48.494L67.491,48.773L67.520,48.916L67.564,49.008L67.671,49.043L67.923,49.075L68.121,49.181L68.176,49.196L68.256,49.178L68.297,49.136L68.320,49.094L68.344,49.075L68.341,49.026L68.291,48.919L68.212,48.812L67.996,48.714L67.906,48.594L67.804,48.330L67.757,48.123L67.719,48.061L67.662,48.027L67.497,47.959L67.464,47.933L67.452,47.839L67.410,47.717L67.324,47.651L67.179,47.725L67.060,47.598L66.948,47.702L66.830,47.628L66.606,47.348L66.293,47.079L66.205,46.940L66.148,46.925L66.033,46.981L66.104,46.828L66.236,46.667L66.388,46.564L66.518,46.584L66.807,46.829L66.839,46.902L66.892,47.128L66.921,47.175L67.805,47.819L67.974,47.903L68.398,48.035L68.517,48.120L68.635,48.241L68.917,48.472L69.028,48.514L69.518,48.885L69.641,48.948L69.757,48.985L69.881,48.986L70.030,48.947L69.965,49.115L70.010,49.224L70.094,49.302L70.144,49.380L70.115,49.557L69.914,49.774L69.860,49.929L69.786,49.881L69.643,49.720L69.602,49.686L69.066,49.436L68.931,49.396L68.775,49.380L68.779,49.396L68.759,49.429L68.731,49.459L68.718,49.469L68.700,49.501L68.658,49.487L68.609,49.457L68.535,49.423L68.445,49.341L68.372,49.313L68.181,49.330L68.114,49.418L68.141,49.516L68.235,49.563L68.332,49.586L68.401,49.639L68.465,49.700L68.542,49.746L68.625,49.765L68.858,49.746L69.022,49.814L69.064,49.963L69.004,50.111L68.858,50.179L68.835,50.253L68.888,50.414L68.960,50.569L68.997,50.629L69.091,50.648L69.278,50.617L69.410,50.632L69.343,50.790L69.425,50.768L69.632,50.662L69.640,50.652L69.719,50.606L69.798,50.595L69.871,50.460L69.973,49.985L70.184,49.584L70.252,49.497L70.410,49.468L70.562,49.561L71.455,50.662L71.587,50.784L71.603,50.796L71.727,50.883L72.029,51.029L72.488,51.128L72.597,51.212L72.540,51.334L72.711,51.334L72.662,51.519L72.596,51.611L72.495,51.642L72.200,51.661L72.081,51.709L71.998,51.794L71.966,51.920L72.082,52.141L72.507,51.916L72.483,52.139L72.563,52.081L72.600,51.989L72.621,51.880L72.654,51.773L72.597,51.773L72.713,51.598L72.748,51.508L72.762,51.401L73.273,51.578L73.321,51.576L73.386,51.536L73.423,51.551L73.563,51.645L73.788,51.700L73.878,51.706L74.006,51.764L74.119,51.889L74.168,52.016L74.107,52.073L73.972,52.103L73.506,52.317L73.538,52.183L73.462,52.104L73.379,52.100L73.392,52.195L73.352,52.336L73.463,52.394L73.631,52.423L73.764,52.476L73.889,52.573L74.029,52.637L74.186,52.672L74.363,52.683L74.363,52.628L74.182,52.564L74.127,52.523L74.079,52.445L74.023,52.316L74.027,52.259L74.187,52.195L74.333,52.191L74.531,52.253L74.716,52.364L74.823,52.506L74.875,52.506L74.875,52.317L74.931,52.317L74.902,52.675L74.806,52.793L74.363,52.812L74.363,52.873L74.533,52.873L74.453,52.921L74.420,52.934L74.487,53.049L74.569,53.044L74.661,53.000L74.761,52.994L74.832,53.055L74.916,53.210L74.993,53.239L75.035,53.220L75.092,53.177L75.142,53.126L75.163,53.083L75.183,53.054L75.230,53.052L75.284,53.059L75.329,53.055L75.574,52.911L75.670,52.873L75.541,52.827L75.269,52.790L75.163,52.750L75.063,52.631L75.035,52.488L75.092,52.367L75.244,52.317L76.240,52.347L76.444,52.412L76.563,52.510L76.831,52.616L76.856,52.637L77.050,52.800L77.169,52.877L78.053,53.216L78.318,53.395L78.355,53.605L78.383,53.678L78.377,53.869L78.412,53.977L78.493,54.072L78.551,54.065L78.634,53.977L78.767,53.902L78.860,53.880L78.980,53.910L79.065,53.962L79.124,54.026L79.155,54.109L79.155,54.222L79.208,54.222L79.224,54.179L79.251,54.134L79.269,54.094L79.326,54.231L79.397,54.262L79.447,54.192L79.439,54.033L79.510,54.045L79.732,54.050L79.837,54.033L79.889,53.998L80.018,53.880L80.090,53.855L80.193,53.860L80.298,53.882L80.378,53.927L80.447,54.083L80.517,54.096L80.561,54.058L80.518,53.977L80.948,53.666L80.993,53.677L81.118,53.734L81.144,53.758L81.179,53.826L81.260,53.829L81.405,53.788L81.692,53.788L81.928,53.826L82.091,53.968L82.166,54.277L82.494,54.207L82.684,54.331L82.972,54.771L82.802,55.138L82.753,55.200L82.659,55.278L82.626,55.327L82.610,55.384L82.592,55.518L82.574,55.571L82.503,55.673L82.387,55.790L82.251,55.874L82.114,55.871L82.073,55.785L82.042,55.649L81.991,55.563L81.887,55.627L81.819,55.583L81.764,55.576L81.716,55.593L81.665,55.627L81.733,55.637L81.783,55.656L81.815,55.693L81.830,55.754L81.595,55.771L81.600,55.880L81.707,56.034L81.779,56.187L81.830,56.187L81.923,56.046L82.143,55.980L82.392,55.968L82.574,55.993L82.919,56.171L82.972,56.215L82.981,56.339L83.015,56.433L83.085,56.487L83.199,56.487L83.133,56.700L83.016,56.700L82.884,56.611L82.771,56.553L82.708,56.532L82.681,56.478L82.662,56.414L82.626,56.359L82.565,56.309L82.538,56.294L82.083,56.366L81.921,56.423L81.376,56.359L81.420,56.461L81.409,56.576L81.325,56.792L81.331,56.847L81.324,56.960L81.301,57.065L81.263,57.159L81.340,57.238L81.436,57.431L81.757,57.614L81.887,57.658L81.944,57.564L82.036,57.369L82.434,57.031L82.517,56.853L82.649,56.960L82.729,57.099L82.745,57.252L82.688,57.409L82.903,57.382L82.980,57.409L82.944,57.503L82.930,57.590L83.015,57.651L83.199,57.714L83.153,57.517L83.643,57.633L83.773,57.470L83.824,57.470L83.864,57.519L83.919,57.569L83.984,57.614L84.057,57.653L84.119,57.470L83.981,57.414L83.908,57.402L83.824,57.409L83.928,57.269L84.127,57.211L84.344,57.206L84.506,57.226L84.652,57.286L84.823,57.396L84.879,57.498L84.681,57.536L84.754,57.651L84.795,57.775L84.851,57.775L84.861,57.736L84.908,57.653L84.979,57.846L85.182,57.890L85.652,57.836L85.507,57.739L85.193,57.579L85.028,57.536L85.133,57.421L85.336,57.367L85.556,57.365L85.709,57.409L85.652,57.342L85.780,57.352L86.168,57.434L86.271,57.492L86.299,57.554L86.164,57.592L86.164,57.653L86.396,57.714L86.411,57.696L86.413,57.683L86.421,57.671L86.448,57.653L86.545,57.725L86.688,57.687L86.825,57.694L86.902,57.903L86.919,57.855L86.956,57.774L86.964,57.714L87.041,57.774L87.116,57.810L87.187,57.814L87.248,57.775L87.130,57.653L87.799,57.567L87.961,57.623L88.041,57.668L88.126,57.688L88.192,57.721L88.219,57.806L88.278,57.857L88.412,57.860L88.617,57.836L88.754,57.937L88.873,58.058L89.026,58.159L89.684,58.238L89.855,58.294L89.985,58.386L89.901,58.433L89.866,58.447L89.985,58.661L89.991,58.758L90.010,58.783L90.045,58.787L90.099,58.819L90.155,58.862L90.200,58.896L90.502,58.997L90.531,59.116L90.691,59.246L91.070,59.491L91.136,59.571L91.226,59.759L91.489,60.129L91.552,60.168L91.580,60.226L91.987,60.659L92.064,60.698L92.178,60.712L92.359,60.767L92.583,60.906L92.768,61.087L92.836,61.273L92.898,61.273L93.009,61.148L93.178,61.148L93.362,61.195L93.523,61.207L93.662,61.144L93.807,61.052L93.966,60.977L94.142,60.962L94.246,60.997L94.328,61.054L94.494,61.207L94.777,61.390L94.878,61.518L94.944,61.668L94.982,61.834L95.000,62.006L94.925,62.203L94.750,62.310L94.574,62.381L94.458,62.504L94.289,62.603L94.233,62.622L94.189,62.670L94.142,62.989L93.881,63.225L93.572,63.216L93.222,63.124L92.836,63.111L92.312,63.222L91.959,63.249L91.276,63.410L90.958,63.348L90.696,63.459L90.172,63.373L89.546,63.483L89.341,63.503L89.133,63.600L88.991,63.722L88.861,63.863L88.719,63.979L88.534,64.027L88.338,64.031L88.223,64.051L88.155,64.124L88.105,64.310L87.969,64.525L87.701,64.627L87.405,64.663L87.361,64.557L87.301,64.525L87.257,64.537L87.233,64.602L87.233,64.687L87.022,64.756L86.995,64.755ZM60.052,58.875L60.111,59.049L60.092,59.173L60.003,59.202L59.851,59.091L59.754,59.037L59.630,59.000L59.524,58.948L59.414,58.705L59.264,58.597L58.968,58.447L59.086,58.353L59.217,58.384L59.338,58.477L59.428,58.569L59.550,58.737L59.627,58.807L59.768,58.875L59.791,58.735L59.868,58.706L59.965,58.761L60.052,58.875ZM59.195,57.342L59.087,57.470L58.699,57.563L58.565,57.653L58.432,57.581L58.286,57.536L58.387,57.460L58.677,57.394L58.797,57.286L58.842,57.304L58.843,57.313L58.859,57.342L58.947,57.295L59.031,57.290L59.195,57.342ZM55.946,57.098L56.109,57.062L56.284,57.136L56.577,57.342L56.433,57.465L56.231,57.396L56.044,57.239L55.946,57.098ZM83.483,56.731L83.557,56.800L83.677,57.028L83.744,57.129L83.773,57.236L83.618,57.235L83.341,57.159L83.194,57.136L83.063,57.066L82.978,56.952L82.972,56.792L83.382,56.717L83.483,56.731ZM55.120,56.609L55.530,56.597L55.680,56.684L55.776,56.920L55.714,56.920L55.573,56.815L54.989,56.746L54.800,56.553L54.902,56.399L54.984,56.326L55.063,56.331L55.102,56.401L55.118,56.494L55.120,56.609ZM54.294,55.904L54.391,55.944L54.587,55.967L54.743,56.022L54.720,56.154L54.647,56.280L54.596,56.330L54.573,56.273L54.544,56.240L54.346,56.187L53.928,55.911L53.839,55.809L53.946,55.793L54.097,55.803L54.235,55.841L54.294,55.904ZM53.891,55.627L53.849,55.622L53.721,55.627L53.744,55.677L53.778,55.809L53.542,55.688L53.384,55.543L53.096,55.204L53.096,55.138L53.241,55.194L53.348,55.296L53.442,55.412L53.550,55.509L53.441,55.330L53.257,55.098L53.047,54.917L52.864,54.893L52.864,54.960L52.891,54.991L52.899,55.009L52.904,55.031L52.926,55.077L52.831,55.048L52.750,55.000L52.684,54.931L52.636,54.838L52.988,54.819L53.358,55.046L53.680,55.365L53.891,55.627ZM51.268,53.788L51.530,53.749L51.742,53.878L52.069,54.222L51.941,54.275L51.801,54.279L51.668,54.238L51.557,54.155L51.613,54.160L51.784,54.155L51.748,54.059L51.687,53.997L51.618,53.985L51.557,54.033L51.340,53.872L51.268,53.788ZM34.765,48.580L34.730,48.601L34.388,48.916L33.730,49.358L33.472,49.471L33.198,49.497L33.197,49.323L33.275,49.276L33.507,49.313L33.599,49.247L33.677,49.114L33.756,49.013L33.851,49.041L33.960,49.092L34.081,49.060L34.179,48.987L34.220,48.916L34.271,48.763L34.390,48.654L34.651,48.486L34.720,48.459L34.770,48.497L34.789,48.552L34.765,48.580ZM24.816,49.196L24.756,49.302L24.823,49.416L24.944,49.511L25.043,49.563L24.958,49.700L24.787,49.883L24.594,50.044L24.444,50.113L24.288,50.143L23.225,50.681L22.590,50.912L22.002,50.977L21.903,50.940L21.827,50.856L21.283,50.846L21.203,50.820L21.040,50.748L20.942,50.724L20.643,50.729L20.568,50.693L20.297,50.331L20.193,50.235L19.959,50.079L19.873,49.977L19.796,49.807L19.739,49.563L19.645,49.342L19.626,49.252L19.682,49.252L19.774,49.343L20.193,49.652L20.248,49.776L20.379,49.883L20.539,49.957L20.679,49.985L21.023,49.985L21.050,49.948L21.283,49.746L21.414,49.659L21.478,49.601L21.505,49.530L21.531,49.538L21.574,49.592L21.583,49.683L21.505,49.807L21.562,49.863L21.712,49.585L21.670,49.482L21.422,49.441L21.324,49.346L20.610,48.087L20.509,47.732L20.596,47.348L20.949,47.069L20.994,46.953L21.066,46.860L21.234,46.742L21.424,46.644L21.562,46.615L21.471,46.571L21.380,46.554L21.283,46.554L21.182,46.503L21.178,46.485L21.232,46.465L21.309,46.406L22.395,46.538L23.073,46.707L23.540,46.839L23.687,46.904L23.800,47.002L23.845,47.142L23.816,47.308L23.772,47.417L23.780,47.519L23.902,47.664L24.276,47.970L24.387,47.964L24.470,48.006L24.525,48.105L24.567,48.217L24.611,48.300L24.613,48.369L24.569,48.473L24.475,48.642L24.413,48.642L24.458,48.717L24.471,48.793L24.455,48.871L24.413,48.947L24.601,49.066L24.700,49.114L24.816,49.130L24.816,49.196ZM65.868,45.460L65.931,45.569L65.949,45.679L65.927,45.800L65.747,46.203L65.773,46.289L65.868,46.437L65.739,46.442L65.640,46.481L65.465,46.615L65.504,46.455L65.451,46.382L65.361,46.410L65.294,46.554L65.316,46.581L65.352,46.640L65.358,46.704L65.294,46.743L65.246,46.731L65.215,46.688L65.188,46.633L65.086,46.493L65.046,46.408L64.994,46.328L64.891,46.248L64.773,46.305L64.594,46.266L64.416,46.181L64.300,46.096L64.279,46.018L64.312,45.923L64.361,45.823L64.385,45.729L64.345,45.665L64.255,45.622L64.096,45.576L64.138,45.653L64.155,45.730L64.141,45.807L64.096,45.882L64.039,45.699L63.988,45.699L63.904,45.826L63.768,45.862L63.641,45.809L63.585,45.666L63.513,45.559L63.369,45.443L63.264,45.294L63.306,45.088L63.244,45.027L63.405,45.031L63.521,45.106L63.626,45.200L63.755,45.265L63.891,45.268L63.985,45.221L64.065,45.152L64.158,45.088L64.301,45.046L64.417,45.054L64.518,45.095L64.613,45.149L64.644,45.187L64.721,45.307L64.757,45.332L64.828,45.313L64.948,45.229L65.010,45.210L65.101,45.251L65.368,45.426L65.465,45.460L65.572,45.401L65.641,45.325L65.722,45.316L65.868,45.460ZM64.096,43.616L64.159,43.496L64.066,43.361L63.918,43.246L63.817,43.183L64.021,43.150L64.203,43.298L64.335,43.519L64.440,43.903L64.570,44.053L64.721,44.191L64.840,44.349L64.640,44.354L64.429,44.133L64.096,43.616ZM62.846,44.627L62.789,44.493L62.524,44.304L62.443,44.166L62.579,44.115L62.687,44.000L62.758,43.853L62.784,43.708L62.796,43.383L62.767,43.282L62.676,43.128L62.802,43.148L62.931,43.191L63.033,43.271L63.074,43.397L63.026,43.479L62.936,43.569L62.879,43.681L62.929,43.827L63.002,43.859L63.207,43.829L63.306,43.861L63.364,43.941L63.402,44.032L63.461,44.099L63.585,44.111L63.476,44.044L63.509,43.988L63.546,43.938L63.589,43.897L63.637,43.861L63.699,43.969L63.782,44.024L63.863,44.010L63.926,43.917L63.992,44.070L63.902,44.136L63.750,44.170L63.637,44.227L63.733,44.253L63.804,44.305L63.865,44.364L63.926,44.410L64.014,44.440L64.185,44.476L64.272,44.532L64.084,44.907L63.960,45.058L63.869,44.965L63.831,44.983L63.735,45.009L63.698,45.027L63.672,44.958L63.650,44.921L63.585,44.844L63.549,44.664L63.373,44.601L63.234,44.673L63.306,44.899L63.199,44.851L62.906,44.676L62.846,44.627ZM61.189,43.000L61.365,42.889L61.286,42.740L61.117,42.653L61.023,42.728L61.013,42.811L60.981,42.904L60.926,42.962L60.848,42.939L60.796,42.844L60.792,42.732L60.830,42.663L60.904,42.695L60.906,42.539L60.774,42.361L60.579,42.276L60.393,42.395L60.351,42.348L60.313,42.338L60.273,42.340L60.223,42.328L60.338,42.184L60.502,42.139L60.796,42.145L61.063,42.039L61.180,42.034L61.246,42.145L61.411,42.053L61.624,42.108L61.833,42.244L61.989,42.395L62.069,42.506L62.141,42.638L62.195,42.778L62.228,43.075L62.266,43.168L62.443,43.367L62.514,43.368L62.630,43.413L62.733,43.428L62.594,43.565L62.395,43.510L61.989,43.244L61.808,43.209L61.607,43.209L61.397,43.165L61.189,43.000ZM59.278,41.807L59.116,41.879L58.890,41.909L58.513,41.901L58.324,41.844L58.096,41.684L57.752,41.620L57.512,41.544L57.366,41.444L57.486,41.346L57.358,41.204L57.188,41.332L57.053,41.405L57.031,41.101L57.062,41.126L57.140,41.163L57.168,40.985L57.244,40.966L57.332,41.008L57.398,41.010L57.488,40.995L57.857,41.071L58.060,41.200L58.294,41.218L58.531,41.200L58.740,41.217L58.943,41.205L59.075,41.099L59.189,40.977L59.337,40.918L59.526,40.937L59.725,40.993L59.895,41.087L59.990,41.217L59.960,41.205L59.882,41.163L59.919,41.283L60.476,41.853L60.507,41.931L60.482,42.020L60.422,42.019L60.347,41.981L60.280,41.962L59.247,42.200L59.247,42.145L59.264,42.118L59.285,42.095L59.302,42.059L59.309,41.990L59.333,41.956L59.388,41.961L59.445,41.973L59.479,41.962L59.486,41.878L59.457,41.792L59.389,41.751L59.278,41.807ZM54.635,40.241L54.588,40.117L54.466,40.070L53.967,40.038L53.883,40.003L53.778,39.935L53.918,39.915L54.699,39.965L54.829,40.040L54.827,40.138L54.635,40.241ZM51.529,40.241L51.455,40.226L51.379,40.191L51.268,40.119L51.144,40.008L50.864,39.697L50.714,39.752L50.562,39.734L50.419,39.665L50.230,39.518L50.176,39.498L50.143,39.459L50.131,39.357L50.103,39.323L49.970,39.223L49.930,39.202L49.861,39.145L49.818,39.019L49.746,38.893L49.589,38.836L49.342,38.939L49.231,38.933L49.217,38.769L49.454,38.697L49.623,38.688L49.761,38.752L50.194,39.240L50.374,39.387L50.757,39.505L51.068,39.760L51.408,39.892L51.575,40.065L51.711,40.267L51.784,40.430L51.596,40.262L51.529,40.241ZM47.054,37.365L47.122,37.360L47.116,37.480L47.027,37.566L46.850,37.453L46.771,37.478L46.684,37.600L46.602,37.640L46.537,37.420L46.657,37.347L46.788,37.301L46.924,37.300L47.054,37.365ZM43.516,37.120L43.921,36.922L44.105,36.902L44.254,36.998L44.211,37.024L44.130,37.094L44.089,37.120L44.165,37.155L44.219,37.207L44.248,37.277L44.254,37.365L43.416,37.220L43.289,37.120L43.340,37.080L43.389,37.059L43.446,37.069L43.516,37.120ZM44.544,35.888L44.596,36.003L44.687,36.103L44.798,36.172L44.913,36.198L45.047,36.203L45.091,36.221L45.067,36.258L44.998,36.321L44.832,36.397L44.663,36.365L44.311,36.198L44.330,36.107L44.374,36.041L44.429,35.976L44.482,35.888L44.544,35.888ZM39.292,35.399L39.354,35.399L39.434,35.530L39.487,35.590L39.486,35.632L39.410,35.704L39.272,35.786L39.172,35.777L39.084,35.731L38.981,35.704L38.713,35.731L38.510,35.802L38.098,36.009L38.192,35.907L38.696,35.576L38.845,35.543L39.006,35.549L39.183,35.588L39.151,35.539L39.104,35.446L39.069,35.399L39.126,35.343L39.163,35.405L39.292,35.521L39.292,35.399ZM42.091,35.277L42.136,35.266L42.194,35.243L42.244,35.246L42.266,35.310L42.247,35.375L42.198,35.412L42.133,35.444L42.062,35.493L41.979,35.481L41.832,35.418L41.664,35.370L41.522,35.399L41.490,35.347L41.453,35.343L41.352,35.399L41.382,35.277L41.437,35.202L41.526,35.165L41.662,35.154L41.696,35.172L41.762,35.251L41.807,35.277L41.879,35.284L42.091,35.277ZM57.984,57.918L58.011,57.953L58.012,58.036L57.951,58.079L57.882,58.085L57.823,58.064L57.779,58.020L57.734,57.989L57.720,57.950L57.756,57.926L57.798,57.947L57.998,57.986L57.992,57.956L57.987,57.941L57.984,57.918ZM57.403,57.888L57.469,57.903L57.584,57.942L57.572,57.993L57.445,58.001L57.364,57.945L57.377,57.898L57.403,57.888ZM29.699,49.096L29.762,49.166L29.769,49.324L29.627,49.444L29.297,49.566L29.055,49.689L28.999,49.704L28.956,49.734L28.924,49.772L28.807,49.808L28.627,49.814L28.592,49.789L28.692,49.752L28.858,49.612L28.950,49.586L29.028,49.538L29.089,49.468L29.140,49.428L29.378,49.335L29.477,49.331L29.570,49.285L29.645,49.212L29.674,49.148L29.684,49.109L29.699,49.096ZM30.769,48.955L30.882,48.931L30.892,48.977L30.768,49.077L30.623,49.170L30.363,49.383L30.217,49.385L30.105,49.268L30.077,49.148L30.101,49.164L30.190,49.261L30.327,49.246L30.439,49.156L30.473,49.102L30.440,49.099L30.464,49.082L30.714,48.972L30.769,48.955ZM24.174,46.352L24.485,46.493L24.623,46.601L24.526,46.643L24.299,46.654L24.068,46.553L23.983,46.400L24.174,46.352ZM16.622,46.291L16.642,46.289L16.684,46.292L16.640,46.308L16.478,46.313L16.291,46.302L16.164,46.245L16.248,46.198L16.495,46.247L16.622,46.291ZM33.234,45.355L33.291,45.422L33.311,45.546L33.245,45.551L33.158,45.499L33.072,45.506L33.021,45.492L32.984,45.437L32.963,45.369L32.963,45.295L33.016,45.260L33.107,45.282L33.194,45.326L33.234,45.355ZM56.686,41.039L56.705,41.014L56.764,41.044L56.760,41.100L56.698,41.199L56.677,41.255L56.525,41.306L56.451,41.304L56.435,41.247L56.433,41.100L56.482,41.083L56.598,41.116L56.676,41.105L56.686,41.039ZM25.261,40.353L25.292,40.460L25.318,40.666L25.269,40.824L25.226,40.884L25.192,40.942L25.153,40.904L25.171,40.342L25.150,40.267L25.146,40.219L25.177,40.212L25.217,40.250L25.249,40.317L25.261,40.353ZM52.635,40.222L52.708,40.193L53.032,40.178L52.924,40.269L52.786,40.359L52.729,40.359L52.729,40.300L52.703,40.250L52.635,40.222ZM48.845,38.257L48.959,38.322L49.005,38.385L48.930,38.464L48.801,38.487L48.743,38.429L48.743,38.367L48.719,38.337L48.687,38.319L48.641,38.326L48.583,38.310L48.422,38.197L48.347,38.110L48.357,38.021L48.461,37.992L48.444,37.936L48.450,37.859L48.495,37.829L48.551,37.928L48.527,38.073L48.585,38.092L48.746,38.127L48.797,38.204L48.845,38.257ZM47.628,37.315L47.693,37.408L47.705,37.471L47.655,37.514L47.555,37.545L47.496,37.610L47.534,37.660L47.606,37.673L47.619,37.723L47.556,37.788L47.460,37.801L47.364,37.742L47.310,37.662L47.336,37.608L47.387,37.566L47.407,37.521L47.332,37.510L47.255,37.467L47.339,37.334L47.526,37.285L47.628,37.315ZM45.672,36.554L45.704,36.620L45.737,36.738L45.715,36.761L45.668,36.693L45.629,36.652L45.595,36.654L45.540,36.666L45.473,36.657L45.424,36.616L45.394,36.567L45.397,36.546L45.425,36.552L45.439,36.503L45.454,36.396L45.544,36.374L45.645,36.480L45.672,36.554ZM44.147,36.038L44.168,36.066L44.201,36.126L44.191,36.185L44.148,36.237L44.100,36.240L44.044,36.201L44.005,36.139L43.971,36.071L43.905,36.049L43.782,35.979L43.745,35.963L43.731,35.922L43.716,35.902L43.662,35.869L43.639,35.796L43.720,35.743L43.782,35.731L43.844,35.726L43.916,35.747L43.915,35.796L43.974,35.859L44.096,35.968L44.147,36.038ZM42.843,35.616L42.938,35.617L43.052,35.638L43.038,35.678L42.970,35.695L42.905,35.689L42.691,35.717L42.611,35.781L42.485,35.835L42.372,35.865L42.357,35.849L42.337,35.790L42.369,35.772L42.443,35.781L42.430,35.701L42.471,35.652L42.590,35.635L42.651,35.633L42.843,35.616ZM40.621,35.101L40.643,35.128L40.661,35.198L40.641,35.260L40.604,35.257L40.578,35.264L40.569,35.328L40.526,35.339L40.431,35.320L40.368,35.354L40.352,35.414L40.323,35.386L40.318,35.272L40.401,35.175L40.545,35.118L40.621,35.101ZM39.735,35.151L40.255,35.211L40.267,35.237L40.260,35.292L40.211,35.309L40.149,35.275L40.090,35.272L40.052,35.329L40.019,35.351L39.842,35.271L39.744,35.241L39.687,35.231L39.533,35.247L39.443,35.241L39.206,35.154L39.125,35.134L39.064,35.052L39.015,35.028L39.050,34.979L39.211,35.000L39.444,35.087L39.735,35.151ZM38.871,34.759L38.910,34.772L38.937,34.849L38.873,34.923L38.777,34.907L38.684,34.877L38.585,34.864L38.491,34.825L38.450,34.762L38.414,34.723L38.339,34.698L38.396,34.646L38.586,34.624L38.814,34.762L38.871,34.759Z" fill="currentColor" stroke="currentColor" stroke-width="1.5" stroke-linejoin="round"/>
</svg>