<svg xmlns="http://www.w3.org/2000/svg" viewBox="0 0 100 100" role="img" aria-label="Curaçao">
  <title>Curaçao</title>
  <path d="M86.455,75.283L93.855,82.863L95.000,84.824L93.143,86.107L88.727,86.983L83.539,87.322L79.360,86.931L73.867,84.303L62.982,76.835L52.293,73.617L45.410,69.576L39.230,64.545L36.560,59.948L35.110,55.612L31.694,54.207L27.676,53.834L24.404,52.593L21.632,49.263L15.223,38.785L12.782,37.016L9.925,35.507L7.543,33.599L6.551,30.702L7.034,23.052L6.653,18.993L5.000,15.367L6.170,13.459L7.195,12.678L8.230,12.869L9.400,13.910L18.326,17.726L22.115,20.059L25.879,23.364L28.193,27.371L30.371,37.276L32.287,41.552L39.942,48.881L48.843,53.209L75.096,59.671L78.114,61.527L79.360,64.242L79.979,68.561L81.606,71.189L86.455,75.283Z" fill="currentColor" stroke="currentColor" stroke-width="1.5" stroke-linejoin="round"/>
</svg>