<svg xmlns="http://www.w3.org/2000/svg" viewBox="0 0 100 100" role="img" aria-label="Cayman Islands">
  <title>Cayman Islands</title>
  <path d="M19.936,58.807L20.924,58.926L21.884,59.234L22.417,59.908L22.573,61.347L21.503,62.172L19.989,62.431L18.157,61.932L16.895,62.127L15.760,62.322L14.751,62.516L13.932,63.089L12.993,63.825L12.466,63.894L9.009,63.430L8.124,63.371L7.174,63.474L6.547,63.949L5.991,63.368L6.098,62.497L6.286,62.117L6.472,61.484L6.657,60.534L6.653,59.712L6.396,58.955L5.571,58.327L5.000,57.951L5.123,57.255L5.436,56.811L6.194,56.553L7.174,56.880L7.021,57.624L7.532,58.569L7.980,59.642L7.796,60.781L8.559,61.788L10.012,61.780L11.020,61.396L11.140,60.742L11.536,59.965L11.842,60.135L12.628,60.349L12.622,60.094L12.544,59.915L12.297,59.547L12.628,59.965L12.527,59.728L12.394,59.570L12.379,59.418L12.628,59.193L12.384,58.977L12.232,58.728L11.937,58.039L12.904,58.163L14.852,58.995L15.903,59.193L18.781,58.797L19.936,58.807ZM78.427,39.079L79.976,39.084L81.452,38.499L82.345,39.030L82.137,39.126L81.617,39.451L80.233,39.857L76.289,41.905L74.415,41.643L75.193,40.614L76.099,40.102L77.135,39.268L78.427,39.079ZM87.265,39.045L90.942,37.452L92.750,36.367L93.974,36.051L94.740,36.363L95.000,37.213L92.484,38.552L88.164,39.820L86.100,40.455L87.265,39.045Z" fill="currentColor" stroke="currentColor" stroke-width="1" stroke-linejoin="round"/>
</svg>