<svg xmlns="http://www.w3.org/2000/svg" viewBox="0 0 100 100" role="img" aria-label="Northern Cyprus">
  <title>Northern Cyprus</title>
  <path d="M68.766,65.717L68.613,65.943L66.534,65.467L65.548,65.943L64.838,65.774L64.272,65.599L63.987,65.426L63.983,65.423L64.062,65.333L64.342,65.204L64.660,64.780L64.305,64.215L63.954,64.215L63.954,63.912L63.852,63.737L63.637,63.221L63.319,63.130L63.212,62.657L62.613,62.657L62.403,63.697L62.403,64.516L62.646,64.995L62.403,65.204L62.193,65.553L61.590,66.029L61.099,66.115L60.744,65.728L60.254,65.553L59.090,66.335L58.913,67.025L58.557,67.117L58.062,67.025L57.637,67.501L56.441,66.636L55.483,67.458L54.990,67.630L55.165,66.982L55.523,65.774L55.312,65.553L54.887,65.553L54.396,66.029L53.691,66.160L53.476,66.679L53.546,67.200L53.717,67.374L53.336,67.544L52.663,67.458L52.485,67.544L51.822,67.544L50.761,66.679L50.228,66.942L49.742,67.372L49.175,67.286L48.607,66.851L48.397,66.029L48.112,65.553L47.724,65.204L47.443,65.204L47.268,65.553L47.196,66.115L46.915,66.160L46.348,65.943L45.929,65.857L45.612,65.857L45.327,66.115L44.981,67.117L44.766,67.501L44.626,68.194L44.556,68.755L44.556,69.102L44.093,68.970L44.060,68.455L44.308,67.117L44.556,66.072L44.556,64.995L44.556,63.998L44.238,63.479L43.387,61.924L42.892,61.013L42.336,59.933L42.191,59.154L42.051,58.507L41.696,58.200L41.098,58.292L40.565,58.810L40.215,59.372L39.932,59.589L38.588,60.016L37.747,60.016L37.252,60.280L36.544,60.237L35.243,59.887L33.860,59.758L33.126,59.323L31.600,58.724L30.119,58.982L29.416,59.240L28.430,60.366L27.932,60.452L27.332,59.844L26.556,60.102L25.535,60.623L24.407,60.970L23.631,61.403L22.505,61.967L21.622,63.001L20.598,63.565L20.031,63.697L19.505,63.780L19.010,63.697L17.954,63.565L17.426,63.697L17.141,63.823L16.715,64.387L16.440,64.866L15.729,64.823L15.309,63.697L14.603,62.789L13.720,62.225L12.131,61.838L11.423,61.617L10.860,61.317L10.365,60.752L10.010,60.194L9.914,59.535L9.950,59.185L11.487,59.384L12.888,59.783L14.022,60.543L15.240,61.017L16.906,60.552L18.143,59.551L19.143,58.121L19.806,56.339L20.048,54.255L20.107,50.595L19.931,48.950L19.401,47.205L20.483,47.385L22.337,48.490L23.275,48.752L26.154,49.369L29.332,49.179L34.865,49.889L35.686,50.270L42.327,51.021L52.853,49.336L56.584,47.205L58.422,46.155L60.734,46.528L63.144,45.756L69.821,43.124L71.660,41.853L74.142,40.909L76.423,38.535L77.722,38.260L80.318,37.533L82.663,36.762L84.553,35.535L92.814,31.651L94.363,31.020L95.000,30.898L94.753,31.078L94.599,31.286L94.492,31.493L94.382,31.651L94.227,33.216L94.106,33.582L93.775,33.713L92.730,33.929L92.502,34.112L88.167,36.902L84.139,40.391L74.436,46.244L73.141,47.399L72.074,48.752L71.294,50.534L70.875,51.287L70.190,51.779L69.105,51.828L67.979,51.555L66.916,51.445L66.025,51.986L64.756,53.813L64.237,54.842L64.024,55.789L63.685,60.137L64.311,60.593L66.114,62.456L66.489,63.011L66.710,63.705L67.247,64.405L68.766,65.717ZM6.754,58.883L6.697,59.068L6.487,59.672L6.099,60.102L5.601,60.194L5.038,59.589L5.000,59.352L5.791,59.005L6.754,58.883Z" fill="currentColor" stroke="currentColor" stroke-width="1.5" stroke-linejoin="round"/>
</svg>