<svg xmlns="http://www.w3.org/2000/svg" viewBox="0 0 100 100" role="img" aria-label="Czechia">
  <title>Czechia</title>
  <path d="M41.396,28.151L41.679,28.161L42.161,28.029L43.681,28.138L43.708,27.960L43.692,27.244L43.677,27.186L43.669,27.107L43.681,26.992L43.718,26.921L43.849,26.776L43.890,26.672L43.875,26.073L43.673,25.784L43.457,25.617L43.400,25.384L43.402,25.384L43.462,25.313L43.530,25.259L43.605,25.224L43.681,25.208L43.873,25.070L43.935,24.975L43.973,24.805L44.226,25.033L44.900,25.178L45.013,25.381L45.169,25.533L45.357,25.623L45.506,25.593L45.551,25.384L45.551,25.381L45.670,25.112L45.842,24.993L45.998,25.070L46.060,25.384L46.185,25.686L46.943,25.698L47.298,25.871L47.511,26.208L47.497,26.408L47.382,26.624L47.288,27.003L47.328,27.296L47.452,27.660L47.609,28.001L47.750,28.225L48.016,28.433L48.257,28.538L48.459,28.702L48.618,29.089L48.623,29.289L48.585,29.496L48.574,29.692L48.660,29.863L48.826,29.914L48.848,29.921L48.995,29.769L49.122,29.549L49.246,29.398L49.800,29.352L52.464,30.269L52.615,30.368L52.791,30.633L52.889,30.727L53.029,30.771L54.135,30.507L54.465,30.538L54.494,30.679L54.537,30.805L55.210,31.931L55.295,31.961L55.664,31.950L56.452,31.658L56.672,31.689L56.851,31.860L57.024,32.184L57.140,32.463L57.213,32.747L57.182,32.992L56.991,33.146L56.965,33.213L56.954,33.279L56.964,33.344L56.991,33.406L57.557,33.304L58.382,32.516L58.943,32.573L59.364,32.890L59.567,32.984L59.791,32.933L59.953,32.731L60.049,32.468L60.147,32.261L60.319,32.225L60.802,32.235L61.237,32.345L61.645,32.573L62.779,33.757L62.900,34.150L62.482,34.319L62.533,34.475L62.533,34.543L62.495,34.601L62.438,34.720L62.417,34.824L62.399,34.983L62.401,35.105L62.438,35.093L62.323,35.251L62.050,35.518L61.925,35.692L61.696,35.742L61.270,35.625L61.061,35.692L60.957,35.958L60.758,36.128L60.524,36.265L60.319,36.435L60.246,36.463L60.124,36.540L60.043,36.548L60.107,36.777L60.132,36.840L59.866,36.780L59.762,37.107L59.887,37.476L60.319,37.551L60.491,38.083L60.554,38.203L60.725,38.339L60.823,38.318L60.918,38.236L61.073,38.186L61.680,38.186L61.806,38.225L61.900,38.417L61.909,38.609L61.898,38.796L61.933,38.976L62.169,39.289L62.762,39.504L63.058,39.709L63.249,39.977L63.588,40.589L63.780,40.849L63.950,41.152L64.353,41.570L64.497,41.960L64.648,42.664L64.774,42.921L65.008,43.226L65.466,43.647L66.024,43.936L66.565,43.897L66.975,43.339L67.271,43.126L67.433,42.897L67.577,42.618L67.817,42.258L68.115,42.003L68.379,41.964L68.646,41.983L68.808,41.942L68.957,41.904L69.082,41.793L69.304,41.487L69.464,41.377L69.581,41.373L69.827,41.460L69.946,41.452L69.979,41.376L69.977,41.127L70.014,41.070L70.209,41.074L70.289,41.128L70.351,41.253L70.493,41.464L70.654,41.524L70.739,41.349L70.713,41.077L70.539,40.849L70.520,40.348L70.380,39.978L70.138,39.714L69.813,39.525L69.564,39.270L69.433,38.871L69.334,38.432L69.183,38.054L68.756,37.431L68.755,37.143L69.117,36.926L69.421,36.964L69.796,37.187L69.993,37.304L70.301,37.268L71.669,37.647L71.815,37.736L72.124,37.994L72.295,38.083L72.478,38.085L72.884,38.002L73.039,38.049L73.010,38.107L73.056,38.330L73.138,38.597L73.218,38.776L73.349,38.917L73.818,39.211L74.134,39.301L74.759,39.283L75.034,39.399L74.789,39.497L74.826,39.575L74.873,39.644L74.928,39.704L74.989,39.756L74.972,40.025L74.998,40.286L75.090,40.498L75.268,40.631L75.412,40.254L75.707,40.232L75.997,40.465L76.121,40.849L76.188,40.893L76.260,40.909L76.330,40.895L76.399,40.849L76.789,40.378L77.424,40.320L78.614,40.529L78.922,40.449L79.150,40.264L79.545,39.721L79.619,39.553L79.654,39.412L79.740,39.357L79.966,39.440L80.040,39.509L80.285,39.837L80.318,39.884L80.325,39.940L80.315,40.001L80.285,40.066L80.141,40.452L80.115,40.641L80.145,40.849L80.285,40.987L80.493,41.369L80.368,41.681L80.098,41.913L79.531,42.251L79.176,42.390L78.534,42.414L78.388,42.488L78.290,42.696L78.318,42.846L78.964,43.661L79.172,43.755L79.307,43.730L79.420,43.665L79.561,43.632L79.736,43.679L80.098,43.858L80.285,43.898L80.291,43.918L80.293,43.937L80.291,43.953L80.285,43.968L80.161,44.073L80.119,44.186L80.160,44.305L80.285,44.429L80.432,44.605L80.523,44.833L80.597,45.088L80.702,45.334L80.852,45.541L81.715,46.398L82.199,46.500L82.683,46.353L83.075,46.003L83.317,45.941L83.851,45.925L84.284,45.796L84.352,45.705L84.328,45.499L84.235,45.357L84.121,45.353L84.015,45.386L83.945,45.357L83.885,44.890L84.107,44.945L84.295,44.992L85.073,45.499L84.986,45.880L85.159,46.080L86.010,46.241L86.212,46.353L86.631,46.714L86.788,46.785L87.101,46.850L87.259,46.967L87.315,47.080L87.407,47.399L87.482,47.539L87.746,47.755L87.938,47.717L88.311,47.392L88.296,47.357L88.278,47.333L88.255,47.322L88.226,47.322L88.762,47.256L89.277,47.439L90.266,47.986L90.576,47.985L91.100,47.649L91.297,47.768L91.379,48.142L91.346,48.459L91.404,48.711L91.757,48.902L91.391,49.327L91.397,49.880L91.628,50.507L91.942,51.155L92.075,51.755L92.159,51.909L92.337,52.034L92.747,52.070L92.936,52.128L93.110,52.271L93.371,52.581L93.539,52.682L93.733,52.666L93.941,52.575L94.148,52.539L94.348,52.688L94.403,52.849L94.492,53.559L94.554,53.757L94.711,54.118L94.770,54.304L94.961,55.183L95.000,55.609L94.944,55.954L94.399,55.969L94.150,56.065L93.604,56.572L93.231,56.593L92.846,56.474L92.409,56.252L92.317,56.233L92.225,56.252L91.845,56.455L91.257,56.368L90.983,56.543L90.914,56.712L90.881,57.096L90.814,57.277L90.704,57.390L90.266,57.628L89.699,58.329L89.401,58.527L89.013,58.439L88.980,59.418L88.666,59.667L88.174,60.058L86.382,60.765L85.990,61.141L85.670,61.670L85.421,62.299L85.252,62.975L85.203,63.529L85.206,63.653L85.223,64.574L85.135,65.027L84.858,65.503L84.466,65.875L84.024,66.082L83.310,66.025L82.988,66.077L82.709,66.260L82.533,66.620L82.451,66.926L82.347,67.564L82.239,67.847L81.994,68.091L81.739,68.106L81.459,68.057L81.131,68.114L80.917,68.296L80.457,69.104L80.222,69.304L77.664,70.333L77.177,70.255L76.770,69.815L76.576,69.719L76.260,69.814L76.016,69.978L75.756,70.152L75.525,70.197L74.006,69.409L73.367,69.239L72.771,69.369L72.055,69.901L71.934,70.093L71.856,70.482L71.665,70.730L71.207,71.136L70.879,71.708L70.206,73.697L70.054,73.984L69.843,74.248L69.810,74.639L69.351,74.091L69.166,72.725L68.851,72.271L68.633,72.254L68.121,72.441L67.865,72.473L67.620,72.379L67.139,72.052L66.935,71.981L66.429,72.002L66.217,71.963L66.042,71.838L65.946,71.594L65.896,71.297L65.792,71.049L65.537,70.944L65.291,70.914L64.496,70.677L64.269,70.528L64.146,70.485L64.024,70.502L63.783,70.607L63.646,70.613L63.262,70.556L63.031,70.713L62.355,71.898L62.209,72.038L62.000,72.101L61.926,72.076L61.750,71.929L61.473,71.972L61.458,71.986L59.597,71.703L58.367,71.779L57.661,71.466L56.323,70.468L56.303,70.366L56.303,70.223L56.233,70.135L56.007,70.194L55.994,69.977L55.895,69.884L55.745,69.878L55.577,69.918L55.713,69.734L55.602,69.742L55.503,69.696L55.357,69.587L55.102,69.568L55.011,69.528L54.945,69.423L54.892,69.169L54.815,69.110L54.408,69.111L54.292,69.139L53.819,69.395L53.594,69.468L53.288,69.468L52.989,69.395L51.956,68.799L51.163,68.485L50.858,68.364L50.201,67.782L49.914,67.614L49.323,67.411L48.683,67.078L48.386,66.992L47.763,66.985L47.697,66.938L47.642,66.835L47.574,66.750L47.472,66.751L47.419,66.835L47.386,67.112L47.342,67.221L47.157,67.447L47.089,67.492L46.073,67.771L45.809,67.766L45.897,67.472L45.903,67.191L45.846,66.911L45.749,66.620L44.713,66.534L43.973,66.275L43.681,66.313L43.638,66.347L43.618,66.417L43.618,66.512L43.630,66.624L43.448,67.059L43.443,67.646L43.498,68.277L43.497,68.847L43.215,70.139L43.118,70.399L43.096,70.543L43.122,70.673L43.180,70.836L43.239,70.969L43.268,71.006L43.115,71.368L42.846,71.393L42.158,71.105L41.463,71.006L41.262,71.085L41.184,71.281L41.130,71.532L40.997,71.774L40.929,72.168L40.229,72.799L39.977,73.218L39.929,73.775L39.936,74.405L39.869,74.941L39.808,75.003L39.602,75.215L39.383,75.200L39.279,75.066L39.200,74.872L39.057,74.677L38.970,74.658L38.767,74.731L38.664,74.719L38.621,74.632L38.620,74.494L38.603,74.363L38.518,74.286L38.313,74.303L37.914,74.500L37.714,74.546L37.557,74.506L37.026,74.221L36.707,73.835L36.513,73.972L36.215,74.786L36.004,75.008L35.312,75.315L35.044,75.536L34.939,75.578L34.812,75.593L33.491,75.114L31.605,74.896L31.152,74.701L31.041,74.599L30.811,74.305L30.753,74.192L30.691,73.910L30.716,73.851L30.792,73.822L30.881,73.629L30.921,73.599L30.986,73.612L31.046,73.593L31.071,73.464L31.037,73.338L30.957,73.281L30.865,73.242L30.797,73.177L30.712,73.008L30.490,72.659L30.373,72.529L29.478,72.024L29.186,71.776L28.944,71.582L28.691,71.440L28.156,71.293L27.896,71.017L27.253,69.706L26.944,69.213L26.757,69.106L26.261,69.026L26.009,68.905L25.782,68.674L25.574,68.352L25.432,67.977L25.399,67.587L25.157,67.614L24.930,67.487L24.705,67.302L24.471,67.156L24.251,67.109L24.165,67.090L23.981,67.176L23.854,67.403L23.717,67.763L23.406,67.610L22.985,67.302L22.603,66.937L22.411,66.620L22.403,66.041L22.254,65.682L21.689,65.096L21.285,64.545L21.122,64.402L20.855,64.298L20.051,64.260L19.674,64.036L19.462,63.689L19.287,63.283L18.041,61.565L17.876,61.470L17.873,61.468L17.448,60.954L17.387,60.762L17.369,60.563L17.295,60.394L17.064,60.297L16.690,59.896L16.497,59.738L16.271,59.615L15.762,59.474L15.579,59.532L15.639,59.798L15.390,59.832L14.605,59.716L14.341,59.619L14.131,59.398L13.695,58.410L13.426,58.130L12.813,57.838L12.553,57.619L12.401,57.321L12.335,56.986L12.297,56.310L12.279,55.962L12.180,55.881L12.040,55.901L11.890,55.856L11.745,55.703L11.641,55.549L11.557,55.364L11.471,55.117L11.418,54.875L11.356,54.418L11.262,54.194L11.122,54.039L10.804,53.863L10.668,53.697L10.678,53.647L10.741,53.485L10.635,53.432L10.601,53.405L10.713,53.152L10.704,52.878L10.594,52.660L10.409,52.563L9.966,52.350L9.763,52.210L9.572,52.036L9.296,51.639L9.159,51.374L9.093,51.157L9.250,50.847L9.800,50.613L10.012,50.397L10.054,50.058L10.061,49.626L10.143,49.335L10.409,49.417L10.507,49.098L10.814,48.530L10.921,48.215L10.962,47.814L10.880,47.665L10.690,47.591L10.145,47.272L10.160,47.048L10.253,46.770L10.218,46.468L9.994,46.255L9.504,46.204L9.301,46.003L9.287,46.003L7.273,44.927L7.230,44.796L7.227,44.608L7.200,44.397L7.081,44.194L6.889,44.028L6.676,43.905L6.487,43.734L6.372,43.421L6.363,43.112L6.457,42.643L6.418,42.333L6.317,42.088L6.167,41.858L5.841,41.502L5.183,41.094L5.045,40.849L5.212,40.599L5.349,40.510L5.439,40.414L5.464,40.150L5.414,39.855L5.307,39.672L5.000,39.355L5.335,39.379L5.974,39.426L6.230,39.606L6.308,39.797L6.304,40.151L6.356,40.312L6.505,40.442L6.699,40.501L7.081,40.511L7.176,40.563L7.220,40.638L7.214,40.733L7.154,40.849L7.134,40.852L7.116,40.858L7.098,40.870L7.081,40.885L7.046,40.924L7.033,40.966L7.047,41.012L7.081,41.060L7.314,41.293L7.372,41.371L7.427,41.505L7.450,41.626L7.464,41.732L7.624,42.300L7.758,42.509L7.985,42.538L8.171,42.404L8.171,42.220L8.094,42.000L8.054,41.744L8.095,41.377L8.167,41.183L8.430,40.849L8.465,40.522L8.574,40.361L8.723,40.257L8.874,40.100L9.287,39.355L9.430,39.214L9.821,38.997L9.979,38.856L10.027,38.828L10.147,38.832L10.200,38.804L10.229,38.728L10.221,38.647L10.203,38.578L10.200,38.535L10.236,38.442L10.264,38.338L10.310,38.236L10.409,38.150L10.778,37.837L11.315,37.680L12.311,37.607L13.022,37.735L13.195,37.716L13.344,37.574L13.638,37.122L13.809,36.955L14.026,36.877L14.239,36.864L14.477,36.897L14.560,36.865L14.747,36.743L14.867,36.718L14.978,36.751L16.211,37.494L16.666,37.520L16.774,37.415L17.064,37.132L17.252,36.911L17.339,36.535L17.426,35.694L17.536,35.618L17.647,35.592L17.757,35.615L17.860,35.692L17.977,35.726L18.101,35.737L18.226,35.727L18.347,35.694L18.349,35.694L18.352,35.692L18.727,35.564L19.429,35.604L19.756,35.363L19.947,35.020L20.390,33.851L20.649,33.875L20.865,34.024L21.086,34.121L21.366,33.980L21.507,33.563L21.582,33.432L22.081,33.082L22.161,32.997L22.169,32.922L22.206,32.897L22.369,32.955L22.440,33.035L22.627,33.345L22.715,33.454L23.013,33.598L23.260,33.537L23.486,33.335L23.717,33.050L23.849,32.977L23.929,32.880L23.941,32.755L23.864,32.590L24.086,32.424L24.263,32.199L24.315,31.920L24.161,31.604L24.706,31.280L25.310,31.168L26.506,31.174L26.762,31.124L27.268,30.940L27.556,30.911L28.167,30.978L28.406,30.930L28.791,30.694L28.872,30.692L28.950,30.665L29.040,30.537L29.047,30.428L29.016,30.284L28.999,30.109L29.055,29.908L29.178,29.760L29.291,29.756L29.420,29.794L29.588,29.770L29.724,29.670L29.928,29.414L30.071,29.314L30.331,29.258L30.818,29.320L31.074,29.303L33.148,28.368L33.311,28.219L33.554,27.859L33.699,27.719L34.177,27.621L35.221,27.702L35.612,27.377L35.692,26.864L35.337,26.662L34.846,26.521L34.506,26.191L34.518,25.975L34.631,25.898L34.652,25.857L34.386,25.751L33.937,25.694L33.781,25.593L33.930,25.384L34.117,24.790L34.436,24.472L34.860,24.407L35.355,24.565L35.455,24.655L35.526,24.769L35.612,24.882L35.757,24.958L35.904,24.961L36.277,24.800L36.760,24.827L36.911,24.750L37.026,24.465L37.104,24.640L37.132,24.764L37.178,24.887L37.303,25.056L37.468,25.169L37.827,25.258L37.991,25.384L38.152,25.574L38.254,25.737L38.295,25.939L38.270,26.249L38.167,26.497L38.007,26.793L37.934,27.045L38.087,27.163L38.823,26.864L38.984,26.867L39.056,27.100L38.979,27.374L38.753,27.893L38.706,28.262L38.771,28.416L39.233,28.544L39.423,28.648L39.932,29.027L40.426,29.136L40.715,29.146L40.929,29.089L41.059,28.943L41.185,28.704L41.396,28.151Z" fill="currentColor" stroke="currentColor" stroke-width="1.5" stroke-linejoin="round"/>
</svg>