<svg xmlns="http://www.w3.org/2000/svg" viewBox="0 0 100 100" role="img" aria-label="Germany">
  <title>Germany</title>
  <path d="M74.461,77.734L74.245,78.215L74.229,78.324L74.266,78.310L74.343,78.471L74.379,78.506L74.470,78.552L74.373,78.649L74.354,78.787L74.392,79.160L74.387,79.354L74.365,79.520L74.320,79.672L74.196,79.956L74.161,80.011L74.101,80.074L74.044,80.100L73.893,80.126L73.869,80.120L73.807,80.251L73.743,80.560L73.727,80.542L73.431,80.400L73.320,80.220L73.202,80.128L73.076,80.055L72.325,79.833L72.083,79.868L71.846,79.962L71.781,80.026L71.742,80.106L71.746,80.148L71.768,80.200L71.797,80.408L71.864,80.519L71.880,80.621L71.860,80.733L71.763,80.952L71.728,81.058L71.715,81.165L71.728,81.491L71.713,81.612L71.681,81.691L71.648,81.751L71.634,81.810L71.593,82.055L71.492,82.235L70.784,82.893L70.541,83.037L69.543,83.223L68.792,83.540L68.676,83.629L68.406,83.904L68.173,84.043L68.061,84.140L68.070,84.167L67.669,84.251L67.560,84.313L67.494,84.390L67.362,84.612L67.267,84.728L66.979,84.944L66.950,84.982L66.847,85.155L66.803,85.176L66.756,85.174L66.709,85.191L66.665,85.274L66.651,85.429L66.687,85.582L66.752,85.721L66.819,85.835L67.329,86.405L67.437,86.663L67.456,86.787L67.459,86.804L67.498,86.924L67.556,87.016L67.730,87.128L67.876,87.289L67.934,87.323L68.056,87.451L68.302,88.062L68.458,88.313L68.492,88.349L68.025,89.154L67.985,89.245L67.971,89.318L67.969,89.392L67.956,89.469L67.909,89.550L67.908,89.552L67.773,89.776L67.891,89.905L68.295,89.986L68.403,89.966L68.587,89.879L68.699,89.898L68.789,89.971L68.878,90.087L69.019,90.348L69.077,90.516L69.097,90.664L69.093,90.804L69.077,90.944L69.059,90.969L68.973,91.197L68.968,91.229L68.852,91.395L68.832,91.387L68.838,91.649L68.854,91.642L68.846,91.659L68.777,91.846L68.759,91.876L68.759,92.077L68.765,92.149L68.781,92.212L68.804,92.271L68.823,92.341L68.825,92.437L68.619,92.702L68.569,92.750L68.491,92.753L68.446,92.724L68.406,92.678L68.336,92.637L68.260,92.640L68.201,92.675L68.139,92.698L68.060,92.663L67.705,92.374L67.374,91.980L67.313,91.927L67.245,91.901L67.133,91.880L66.955,91.724L66.916,91.439L67.005,91.172L67.202,91.066L67.059,90.916L66.871,90.782L66.757,90.632L66.832,90.430L66.708,90.448L66.301,90.335L66.043,90.335L65.785,90.402L65.647,90.476L65.394,90.720L65.325,90.787L65.212,90.841L65.059,90.873L64.910,90.869L64.808,90.815L64.593,90.628L64.535,90.552L64.495,90.458L64.419,90.212L64.386,90.145L64.267,90.120L63.982,90.238L63.860,90.259L63.441,90.163L63.283,90.188L63.122,90.279L63.043,90.291L62.971,90.222L62.932,90.095L62.956,90.014L63.002,89.945L63.027,89.854L63.046,89.731L63.069,89.678L63.051,89.682L62.945,89.732L62.882,89.774L62.708,89.930L62.593,89.980L62.608,90.075L62.631,90.139L62.684,90.214L62.743,90.278L62.780,90.304L62.800,90.368L62.812,90.676L62.804,90.784L62.778,90.858L62.572,91.144L62.514,91.157L60.851,91.078L60.243,91.212L60.161,91.265L60.089,91.461L60.014,91.488L59.606,91.397L59.016,91.395L58.701,91.327L58.567,91.322L58.542,91.355L58.340,91.544L58.291,91.667L58.234,91.934L58.197,92.041L58.065,92.199L57.908,92.266L57.568,92.327L57.405,92.271L57.226,92.245L57.062,92.287L56.721,92.711L56.810,92.738L56.888,92.793L56.916,92.879L56.854,92.994L56.736,93.048L56.422,93.057L56.287,93.103L56.147,93.244L56.052,93.384L55.948,93.503L55.790,93.582L55.617,93.560L55.633,93.246L55.478,93.178L55.295,93.232L54.822,93.586L54.681,93.633L53.926,93.621L53.825,93.557L53.751,93.401L53.768,93.400L53.791,93.347L53.807,93.267L53.805,93.189L53.783,93.136L53.422,92.715L53.049,92.528L53.000,92.437L53.233,92.265L53.294,92.185L53.128,92.050L53.051,92.003L52.951,91.996L52.848,92.027L52.556,92.172L52.342,92.200L52.280,92.179L52.244,92.124L52.220,92.065L52.191,92.028L51.235,91.638L51.060,91.636L50.960,91.711L50.813,91.932L50.721,92.012L50.636,92.028L50.328,91.978L50.215,91.922L50.156,91.876L50.117,91.823L50.105,91.724L50.132,91.651L50.167,91.595L50.176,91.550L50.144,91.442L50.118,91.421L50.063,91.444L49.942,91.468L49.833,91.514L49.844,91.614L49.906,91.741L49.954,91.870L49.945,91.977L49.872,92.437L49.974,92.497L50.036,92.572L50.075,92.674L50.105,92.817L50.106,93.064L50.040,93.324L49.935,93.557L49.814,93.731L49.752,93.776L49.600,93.834L49.525,93.888L49.481,93.961L49.321,94.311L49.190,94.501L49.049,94.641L48.725,94.857L48.567,94.924L48.101,94.986L47.992,95.000L47.959,94.980L47.989,94.908L48.055,94.777L48.084,94.755L48.180,94.724L48.215,94.687L48.233,94.610L48.229,94.541L48.213,94.465L48.344,94.038L48.349,93.830L48.216,93.752L47.898,93.814L47.812,93.917L47.781,93.943L47.744,93.943L47.669,93.893L47.633,93.888L47.538,93.938L47.483,93.982L47.434,93.984L47.364,93.910L47.325,93.800L47.318,93.676L47.299,93.556L47.219,93.456L47.384,93.317L47.418,93.196L47.354,93.060L46.998,92.496L46.915,92.537L46.851,92.598L46.787,92.627L46.708,92.576L46.697,92.509L46.695,92.474L46.695,92.439L46.629,92.283L46.538,92.185L46.463,92.077L46.443,91.886L46.355,91.962L46.246,91.985L46.030,91.967L45.812,91.880L45.776,91.891L45.687,91.953L45.628,91.957L45.481,91.875L45.453,91.753L45.467,91.612L45.444,91.476L45.359,91.376L45.256,91.336L45.148,91.349L45.043,91.410L44.885,91.608L44.795,91.818L44.691,91.994L44.493,92.096L44.029,92.104L43.606,91.979L43.575,91.970L43.558,91.958L41.572,90.624L41.290,90.554L41.019,90.554L40.921,90.389L40.521,90.389L39.714,90.291L39.577,90.350L39.461,90.485L39.198,90.575L38.914,90.604L38.737,90.554L38.527,90.385L38.522,90.379L38.419,90.269L38.418,90.189L38.552,90.155L38.364,89.965L38.128,89.816L37.933,89.807L37.868,90.033L37.927,90.105L37.545,90.111L37.531,90.035L37.513,89.947L37.455,89.871L37.425,89.776L37.448,89.701L37.545,89.545L37.564,89.501L37.517,89.385L37.446,89.370L37.365,89.388L37.291,89.369L37.237,89.278L37.180,89.144L37.110,89.030L37.017,88.997L36.951,89.071L36.913,89.323L36.824,89.386L36.753,89.329L36.727,89.189L36.720,89.039L36.709,88.955L36.575,88.890L36.395,88.880L36.280,88.951L36.347,89.133L36.238,89.192L35.848,89.276L35.767,89.273L35.710,89.310L35.612,89.465L35.578,89.549L35.524,89.780L35.447,89.858L35.263,89.966L35.192,90.053L35.184,90.139L35.215,90.223L35.233,90.322L35.186,90.447L35.300,90.492L35.336,90.498L35.522,90.650L35.671,90.742L35.800,90.736L35.907,90.676L36.007,90.599L36.116,90.540L36.467,90.476L36.568,90.494L36.651,90.531L36.684,90.546L36.750,90.552L36.709,90.826L36.662,90.800L36.658,90.729L36.651,90.711L36.619,90.712L36.581,90.728L36.555,90.752L36.539,90.816L36.551,90.868L36.568,90.913L36.571,90.953L36.562,91.032L36.565,91.114L36.557,91.200L36.526,91.260L36.510,91.290L36.413,91.325L36.348,91.239L36.333,91.219L36.247,91.062L36.135,90.950L35.918,90.973L35.697,91.132L35.612,91.329L35.603,91.384L35.402,91.421L35.380,91.425L34.917,91.422L34.642,91.343L34.571,91.293L34.520,91.181L34.481,91.070L34.443,91.020L34.359,91.010L34.171,90.948L34.040,90.949L33.649,91.020L33.612,91.046L33.576,91.103L33.527,91.159L33.394,91.202L33.237,91.293L33.178,91.343L33.116,91.419L33.087,91.477L33.055,91.527L32.985,91.579L32.659,91.658L31.717,91.658L31.698,91.609L31.683,91.501L31.660,91.392L31.616,91.343L31.149,91.312L31.047,91.256L30.916,91.479L30.800,91.627L30.664,91.711L30.379,91.775L30.061,91.846L29.902,91.823L29.797,91.763L29.528,91.610L29.546,91.610L29.717,91.611L29.794,91.531L29.889,91.242L29.725,91.260L29.356,91.380L29.385,91.262L29.403,91.221L29.387,91.111L29.349,91.050L29.302,91.007L29.259,90.948L29.096,90.597L28.998,90.450L28.891,90.389L28.862,90.336L28.839,90.212L28.819,89.963L28.844,89.894L28.964,89.757L29.007,89.680L29.010,89.492L28.921,89.088L28.940,88.927L29.043,88.553L29.084,88.498L29.182,88.440L29.198,88.311L29.160,88.096L29.162,88.045L29.156,88.016L29.152,87.986L29.160,87.938L29.182,87.888L29.230,87.838L29.259,87.781L29.305,87.665L29.318,87.614L29.309,87.426L29.348,87.272L29.541,87.052L29.610,86.913L29.594,86.553L29.281,85.963L29.259,85.487L29.305,85.262L29.353,85.086L29.406,84.982L29.455,84.913L29.492,84.822L29.506,84.655L29.554,84.514L30.012,83.831L30.088,83.663L30.134,83.467L30.149,83.233L30.199,82.990L30.316,82.889L30.449,82.812L30.548,82.642L30.557,82.480L30.521,82.326L30.473,82.179L30.450,82.040L30.458,81.889L30.512,81.584L30.548,81.452L30.598,81.343L30.646,81.268L30.682,81.156L30.697,80.936L30.735,80.831L30.821,80.737L31.002,80.585L31.002,80.506L30.917,80.261L30.918,79.859L30.979,79.482L31.285,78.978L31.369,78.915L31.489,78.873L31.600,78.772L31.798,78.521L31.884,78.462L31.980,78.364L32.058,78.254L32.090,78.163L32.099,77.942L32.137,77.839L32.219,77.811L32.423,77.807L32.478,77.787L32.519,77.749L32.535,77.685L32.551,77.577L32.584,77.515L32.618,77.481L32.634,77.453L32.697,77.450L32.963,77.299L33.007,77.259L33.097,77.100L33.426,76.148L33.652,75.698L33.800,75.519L33.803,75.515L33.720,75.432L33.008,75.277L31.860,74.634L31.729,74.619L31.317,74.664L30.714,74.481L30.634,74.504L30.464,74.601L30.376,74.625L30.307,74.614L30.153,74.557L30.073,74.542L29.982,74.563L29.897,74.601L29.810,74.624L29.782,74.617L29.710,74.600L29.643,74.540L29.572,74.390L29.519,74.321L29.358,74.233L29.042,74.175L28.884,74.070L28.789,73.945L28.625,73.666L28.523,73.555L28.536,73.517L28.554,73.490L28.608,73.454L28.560,73.287L28.429,73.237L28.116,73.215L28.085,73.086L27.944,73.073L27.804,73.118L27.774,73.127L27.654,73.199L27.620,73.256L27.568,73.424L27.531,73.487L27.476,73.514L27.328,73.534L27.264,73.557L27.218,73.615L27.142,73.778L27.099,73.824L27.054,73.817L26.859,73.721L26.235,73.715L26.121,73.675L26.007,73.613L25.731,73.402L25.691,73.397L25.625,73.465L25.631,73.529L25.654,73.589L25.643,73.647L25.421,73.794L25.261,73.663L25.178,73.346L25.181,72.938L25.025,72.930L24.573,72.663L24.493,72.650L24.282,72.672L23.980,72.600L23.907,72.618L23.865,72.779L23.920,72.965L23.947,73.157L23.822,73.330L23.730,73.353L23.448,73.243L23.126,73.240L23.040,73.202L22.948,73.041L22.968,72.899L23.004,72.753L22.959,72.570L22.930,72.570L22.832,72.637L22.800,72.641L22.781,72.600L22.767,72.509L22.758,72.483L22.735,72.435L22.678,72.221L22.648,72.187L22.547,72.150L22.508,72.118L22.500,72.071L22.515,71.954L22.504,71.906L22.022,71.421L21.901,71.268L21.855,71.133L21.895,71.028L22.024,71.021L22.055,70.928L22.031,70.859L21.679,70.470L21.629,70.393L21.643,70.388L21.641,70.324L21.622,70.228L21.577,70.132L21.453,70.007L20.788,69.662L20.708,69.648L20.649,69.671L20.511,69.770L20.434,69.785L20.373,69.779L20.373,69.694L20.351,69.344L20.398,68.971L20.412,68.860L20.412,68.494L20.453,68.367L20.562,68.189L20.751,67.948L20.824,67.792L20.879,67.708L20.898,67.656L20.892,67.580L20.847,67.535L20.801,67.502L20.788,67.464L20.901,67.301L21.433,66.945L21.418,66.919L21.369,66.860L21.394,66.804L21.427,66.787L21.490,66.813L21.439,66.741L21.404,66.658L21.388,66.564L21.393,66.461L21.463,66.397L21.466,66.352L21.447,66.301L21.448,66.219L21.482,65.968L21.493,65.960L21.493,65.863L21.509,65.847L21.511,65.849L21.472,65.805L21.444,65.804L21.221,65.736L20.874,65.736L20.747,65.700L20.624,65.619L20.416,65.415L20.294,65.335L20.230,65.333L20.122,65.401L20.063,65.395L20.056,65.357L20.012,65.238L19.983,65.157L19.949,65.094L19.843,65.024L19.598,64.911L19.485,64.793L19.247,64.202L19.123,63.995L19.045,64.154L18.987,64.053L18.877,63.728L18.752,63.533L18.721,63.439L18.741,63.311L18.696,63.069L18.649,62.975L18.570,62.928L18.638,62.793L18.665,62.756L18.648,62.753L18.605,62.757L18.592,62.749L18.638,62.424L18.673,62.266L18.723,62.099L18.789,62.019L18.810,61.942L18.784,61.871L18.711,61.810L18.727,61.753L18.751,61.624L18.764,61.585L18.826,61.546L18.971,61.534L19.025,61.498L19.068,61.389L19.072,61.259L19.032,61.128L18.936,61.018L19.010,60.918L19.174,60.799L19.245,60.687L19.396,60.614L19.707,60.525L19.840,60.402L19.808,60.298L19.823,60.181L19.871,60.070L19.943,59.981L20.041,59.923L20.122,59.930L20.204,59.963L20.301,59.981L20.494,59.945L20.584,59.847L20.576,59.759L20.569,59.686L20.318,59.239L20.308,59.103L20.358,58.948L20.410,58.676L20.415,58.483L20.387,58.444L20.336,58.434L20.274,58.329L20.234,58.212L20.213,58.108L20.231,58.016L20.312,57.935L20.180,57.928L19.866,57.854L19.756,57.801L19.739,57.784L19.723,57.778L19.705,57.784L19.689,57.801L19.444,57.878L19.373,57.874L19.315,57.827L19.253,57.695L19.194,57.640L19.252,57.540L19.168,57.534L19.109,57.509L19.099,57.456L19.156,57.367L19.036,57.213L19.169,57.000L19.397,56.808L19.559,56.710L19.559,56.668L19.641,56.567L19.692,56.464L19.676,56.395L19.176,56.382L19.027,56.303L18.942,56.137L19.039,56.074L18.598,55.392L18.459,55.251L18.338,55.239L18.052,55.319L17.956,55.308L17.928,55.211L17.954,55.090L17.951,54.979L17.830,54.915L17.820,54.893L17.819,54.872L17.824,54.852L17.835,54.830L17.851,54.680L17.804,54.609L17.732,54.559L17.677,54.462L17.646,54.314L17.756,54.342L17.860,54.244L17.898,54.106L17.883,54.000L17.876,53.900L17.940,53.785L18.039,53.727L18.202,53.742L18.283,53.644L18.327,53.525L18.329,53.433L18.268,53.196L18.281,53.119L18.320,53.057L18.334,53.010L18.097,52.927L17.927,52.819L17.871,52.758L17.853,52.666L17.842,52.499L17.870,52.403L17.914,52.306L17.899,52.246L17.639,52.277L17.449,52.214L17.349,52.200L17.251,52.228L17.063,52.322L16.964,52.342L16.957,52.051L16.845,51.719L16.804,51.449L17.007,51.341L17.107,51.398L17.193,51.511L17.290,51.600L17.423,51.585L17.512,51.487L17.651,51.193L17.749,51.080L18.418,50.553L18.831,50.328L18.939,50.184L18.787,50.042L18.952,49.906L19.010,49.873L18.843,49.815L18.483,50.064L18.313,49.969L18.261,49.756L18.282,49.498L18.344,49.268L18.418,49.141L18.571,48.954L18.942,48.269L19.018,48.194L19.202,48.066L19.274,47.964L19.313,47.821L19.335,47.568L19.377,47.466L19.268,47.336L19.278,47.123L19.333,46.877L19.359,46.649L19.324,46.440L19.272,46.061L18.980,45.725L18.499,45.066L18.467,44.924L18.506,44.759L18.591,44.501L18.100,44.287L17.934,44.077L18.032,43.750L17.960,43.676L17.798,43.555L17.715,43.516L17.505,43.520L17.433,43.491L17.439,43.367L17.482,43.325L17.600,43.209L17.613,42.976L17.516,42.752L17.351,42.627L17.376,42.524L17.497,42.440L17.792,42.388L17.932,42.329L18.082,42.219L18.186,42.164L18.481,42.085L18.716,42.147L18.886,42.191L19.003,42.219L18.906,42.068L18.635,41.787L18.546,41.720L18.792,41.588L19.025,41.697L19.258,41.883L19.503,41.983L19.729,41.933L19.789,41.941L19.840,41.990L19.920,42.132L19.953,42.172L20.231,42.214L20.348,42.281L20.370,42.461L20.642,42.386L20.672,42.271L20.613,42.011L21.076,42.146L21.224,42.146L21.344,42.093L21.700,41.822L22.420,41.579L23.061,41.559L23.257,41.454L23.426,41.256L23.591,40.960L23.650,40.895L23.706,40.886L23.742,40.851L23.749,40.710L23.731,40.632L23.694,40.576L23.507,40.381L23.034,40.120L22.875,40.074L22.760,39.994L22.745,39.818L22.795,39.697L22.860,39.667L22.936,39.661L23.023,39.619L23.082,39.546L23.141,39.399L23.179,39.333L23.302,39.208L23.418,39.144L23.459,39.139L23.887,39.092L23.978,39.010L24.138,38.689L24.279,38.544L24.589,38.410L24.734,38.285L24.904,38.014L24.982,37.924L25.303,37.732L25.324,37.673L25.305,37.640L25.263,37.563L25.199,37.317L25.203,37.105L25.255,36.931L25.401,36.601L25.462,36.180L25.360,35.883L24.919,35.183L24.874,35.204L24.829,35.282L24.762,35.344L24.580,35.396L24.390,35.408L24.186,35.376L23.812,35.236L23.239,35.157L23.048,35.066L22.905,34.904L22.861,34.731L22.850,34.528L22.825,34.322L22.736,34.141L22.856,34.130L23.257,33.932L23.020,33.737L22.969,33.663L22.967,33.567L23.000,33.471L23.014,33.367L22.954,33.247L23.079,33.158L23.209,33.067L23.451,32.994L24.138,32.983L24.522,33.096L24.879,33.044L24.988,33.089L25.246,33.167L25.378,32.920L25.431,32.513L25.499,31.267L25.561,30.881L25.635,30.681L25.691,30.529L26.285,29.626L26.442,29.240L26.509,28.871L26.520,28.458L26.453,27.631L26.426,27.530L26.391,27.470L26.363,27.396L26.358,27.258L26.376,27.165L26.478,26.911L26.528,26.712L26.550,26.532L26.543,26.347L26.522,26.019L26.593,25.982L26.675,25.897L26.739,25.812L26.804,25.689L26.829,25.551L26.774,25.424L26.957,25.159L27.056,25.111L27.223,25.108L27.380,25.148L27.630,25.299L27.767,25.352L27.593,25.107L27.306,25.006L25.657,24.950L25.390,24.823L25.284,24.502L25.281,23.646L25.313,23.452L25.453,23.101L25.485,22.929L25.545,22.824L25.687,22.826L25.979,22.887L26.018,22.794L26.087,22.758L26.139,22.646L26.126,22.500L26.062,22.417L25.851,22.316L25.756,22.224L25.741,22.072L25.843,21.945L26.077,21.790L26.340,21.511L26.481,21.418L26.750,21.152L27.321,20.941L28.435,20.822L28.513,20.872L28.590,20.973L28.761,21.012L29.829,20.801L32.001,20.513L32.581,20.672L32.581,20.758L32.534,21.082L32.736,21.501L33.034,21.866L33.277,22.027L33.277,22.098L33.216,22.244L33.328,22.296L33.488,22.340L33.569,22.461L33.547,22.668L33.479,22.774L33.322,22.887L33.191,22.951L32.906,22.976L32.779,23.052L32.911,23.436L32.977,23.582L33.076,23.682L33.168,23.640L33.250,23.606L33.371,23.611L33.456,23.655L33.594,23.807L33.646,23.840L33.705,23.889L33.764,23.997L33.840,24.106L33.944,24.155L34.066,24.152L34.154,24.133L34.232,24.088L34.321,24.004L34.473,23.762L34.635,23.365L34.674,22.968L34.464,22.736L34.179,22.808L34.027,22.784L34.041,22.615L34.103,22.425L34.155,22.033L34.216,21.869L34.313,21.772L34.436,21.725L34.738,21.711L34.876,21.772L34.984,21.914L35.072,22.072L35.160,22.184L35.453,22.327L36.071,22.443L36.351,22.571L36.351,22.657L36.177,22.799L36.018,22.983L35.901,23.232L35.857,23.568L35.865,24.216L35.907,24.502L36.005,24.714L36.026,24.428L35.950,23.707L35.956,23.366L36.067,23.116L36.233,23.004L36.384,22.865L36.450,22.536L36.414,22.478L36.228,22.027L36.173,21.959L36.097,21.803L36.034,21.630L35.982,21.410L35.880,21.147L35.857,20.955L35.873,20.761L35.917,20.591L36.188,19.949L36.380,19.253L36.504,18.945L36.607,18.798L36.749,18.669L36.909,18.579L37.073,18.543L37.224,18.553L37.310,18.589L37.488,18.780L37.745,18.986L38.019,19.120L38.585,19.253L38.895,19.244L39.422,19.121L39.711,19.143L39.847,18.992L40.423,18.859L40.995,18.864L41.119,18.780L41.218,18.850L41.337,18.870L41.582,18.859L41.645,18.899L41.804,19.096L42.509,20.276L42.800,20.600L43.003,20.758L43.103,20.880L43.202,21.229L43.699,21.925L43.810,22.021L43.944,22.078L44.117,22.098L44.207,22.140L44.637,22.421L45.125,22.524L45.524,22.609L45.618,22.571L45.528,22.421L45.256,22.270L44.607,22.198L44.342,22.098L43.820,21.776L43.582,21.521L43.497,21.152L43.475,20.838L43.447,20.637L43.375,20.574L43.035,20.394L42.926,20.357L42.749,20.203L42.580,19.856L42.466,19.484L42.455,19.253L42.191,19.154L41.734,18.781L41.460,18.623L41.190,18.563L40.270,18.543L39.995,18.423L39.810,18.374L39.726,18.425L39.650,18.543L39.482,18.490L39.228,18.307L38.986,18.024L38.387,16.881L38.666,16.759L38.802,16.750L38.975,16.795L39.260,16.975L39.415,17.023L39.574,16.953L39.629,16.826L39.688,16.597L39.728,16.350L39.726,16.171L39.642,16.053L39.508,15.940L39.409,15.823L39.429,15.691L39.429,15.619L39.252,15.568L39.000,15.612L38.764,15.719L38.634,15.856L38.585,15.856L38.387,15.533L38.259,15.274L38.238,15.217L38.297,14.986L38.408,14.787L38.484,14.605L38.432,14.429L38.432,14.350L38.521,14.287L38.828,14.204L38.953,14.193L39.029,14.135L39.141,13.991L39.254,13.808L39.327,13.634L39.161,13.664L38.888,13.885L38.733,13.950L38.747,13.911L38.768,13.829L38.782,13.792L38.562,13.816L38.185,13.925L37.962,13.950L37.703,13.908L37.591,13.950L37.350,14.167L37.266,14.193L37.073,14.128L36.867,13.952L36.717,13.698L36.696,13.398L36.799,13.279L36.997,13.195L37.219,13.153L37.389,13.161L37.389,13.082L37.259,13.053L37.160,12.965L37.064,12.937L36.949,13.082L36.887,12.955L36.909,12.825L36.976,12.704L37.048,12.609L37.203,12.673L37.789,12.523L38.585,12.523L38.769,12.477L38.922,12.388L39.228,12.136L39.507,12.008L39.628,11.922L39.677,11.734L39.677,11.455L39.493,11.190L38.902,10.597L38.818,10.474L38.782,10.352L38.716,10.298L38.567,10.302L38.414,10.342L38.333,10.395L38.283,10.308L38.531,10.150L38.278,9.523L38.185,9.362L37.977,9.242L37.586,8.924L37.340,8.811L37.340,8.732L37.381,8.523L37.286,8.288L37.145,8.057L37.048,7.858L37.007,7.554L37.039,7.286L37.137,6.952L37.392,7.025L37.659,7.036L38.152,6.865L38.321,6.841L38.899,6.933L39.468,7.148L41.004,7.482L41.125,7.581L41.158,7.697L41.180,7.858L41.233,7.996L41.361,8.043L41.889,8.045L41.998,8.027L42.068,7.959L42.171,7.933L42.250,7.867L42.381,7.840L42.527,7.967L42.650,7.980L42.757,7.947L42.761,7.944L42.862,7.944L43.293,7.743L43.431,7.585L43.607,7.520L43.698,7.369L43.792,7.299L43.816,7.714L44.167,7.834L44.611,7.856L44.913,7.979L45.039,8.068L45.227,8.143L45.399,8.256L45.474,8.456L45.558,8.563L45.747,8.533L46.076,8.416L46.048,8.176L46.219,8.165L46.454,8.300L46.620,8.495L46.719,8.889L46.765,8.982L46.830,9.069L46.966,9.204L46.873,9.270L46.777,9.259L46.688,9.221L46.620,9.204L46.624,9.230L46.445,9.361L46.422,9.362L46.376,9.392L46.344,9.389L46.327,9.414L46.323,9.520L46.429,9.527L46.618,9.473L46.808,9.464L46.917,9.599L46.994,9.537L47.077,9.531L47.117,9.602L47.065,9.764L47.102,9.924L47.106,10.153L47.065,10.631L47.028,10.836L46.979,10.999L46.909,11.132L46.818,11.255L46.585,11.457L46.293,11.607L45.980,11.703L45.676,11.734L45.676,11.813L45.989,11.966L47.737,11.577L47.872,11.622L48.310,11.978L48.166,12.113L48.165,12.239L48.222,12.380L48.261,12.566L48.219,12.721L48.116,12.864L47.985,12.968L47.860,13.003L47.879,13.029L47.904,13.049L47.908,13.085L47.860,13.161L47.938,13.239L47.960,13.336L47.932,13.445L47.860,13.555L48.020,13.501L48.140,13.362L48.310,13.003L48.406,12.620L48.459,12.523L48.531,12.478L48.804,12.451L48.903,12.397L48.952,12.334L48.989,12.270L49.056,12.208L49.139,12.183L49.447,12.208L49.606,12.281L50.044,12.609L51.186,13.082L51.831,13.650L52.129,13.719L52.461,13.663L52.704,13.521L53.118,13.161L53.357,13.017L53.606,12.919L54.211,12.846L54.211,12.924L54.080,12.930L53.899,12.932L54.025,12.985L54.150,12.946L54.320,13.057L54.829,12.765L55.055,12.846L54.787,13.127L54.710,13.240L54.667,13.206L54.556,13.161L54.635,13.350L54.701,13.809L54.759,14.028L54.705,14.173L54.710,14.370L54.759,14.702L54.727,14.900L54.658,15.005L54.588,15.078L54.556,15.178L53.716,15.691L53.425,16.041L53.298,16.118L53.006,16.212L52.949,16.211L52.888,16.262L52.839,16.229L52.788,16.177L52.723,16.171L52.666,16.206L52.637,16.236L52.357,16.645L52.283,16.723L52.283,16.795L52.379,17.020L52.485,17.186L52.624,17.295L52.821,17.354L53.101,17.327L53.173,17.354L53.224,17.474L53.231,17.612L53.259,17.718L53.366,17.747L53.394,17.749L53.478,17.755L53.514,17.747L53.607,17.679L53.819,17.470L53.938,17.426L54.076,17.398L54.462,17.203L55.342,17.093L55.405,17.116L55.456,17.182L55.503,17.345L55.554,17.426L55.811,17.492L55.851,17.551L55.817,17.814L55.833,17.934L55.925,17.984L56.141,17.998L56.201,17.984L56.494,17.747L56.549,17.783L56.623,17.946L56.668,17.984L56.970,17.984L56.973,18.020L57.251,18.351L57.306,18.385L57.388,18.385L57.398,18.263L57.471,18.078L57.527,17.848L57.495,17.662L57.549,17.577L57.619,17.525L57.679,17.511L57.665,17.459L57.647,17.329L57.635,17.274L57.882,17.038L57.882,16.953L57.833,16.953L57.833,16.881L58.018,16.953L58.080,16.953L58.227,16.851L58.356,16.544L58.453,16.479L58.511,16.460L58.559,16.409L58.596,16.336L58.628,16.250L58.633,16.193L58.578,16.152L58.578,16.093L58.601,16.033L58.632,15.994L58.659,15.963L58.838,15.659L59.068,15.509L59.351,15.471L59.955,15.572L61.681,15.224L61.953,15.060L61.990,15.391L61.963,15.712L61.978,15.985L62.147,16.171L62.077,16.031L62.041,15.731L62.003,15.619L62.078,15.484L62.287,15.373L62.349,15.217L62.268,15.210L62.190,15.223L62.116,15.253L62.048,15.296L62.103,15.188L62.349,14.886L62.496,14.762L62.668,14.491L62.770,14.429L62.865,14.404L63.410,14.125L63.685,13.909L63.792,13.792L64.053,13.319L64.488,12.731L64.536,12.620L64.834,12.136L64.949,11.833L65.032,11.733L65.180,11.663L65.180,11.734L65.131,11.734L65.285,11.966L65.597,12.085L67.245,12.085L67.517,12.208L67.684,12.119L67.892,12.167L67.984,12.296L67.805,12.451L67.620,12.488L66.844,12.426L66.535,12.318L66.344,12.294L66.287,12.317L66.210,12.422L66.169,12.451L66.022,12.451L65.834,12.418L65.764,12.455L65.720,12.609L65.675,12.523L65.637,12.545L65.573,12.597L65.527,12.609L65.540,12.707L65.570,12.752L65.616,12.766L65.675,12.774L65.649,12.780L65.629,12.781L65.619,12.796L65.621,12.846L65.482,12.775L65.326,12.789L65.195,12.870L65.131,13.003L65.013,12.864L64.870,12.797L64.607,12.774L64.490,12.827L64.392,12.961L64.345,13.137L64.385,13.319L64.281,13.299L64.239,13.282L64.187,13.240L64.138,13.319L64.186,13.457L64.150,13.594L64.059,13.694L63.940,13.719L63.991,13.877L64.051,14.000L64.067,14.102L63.985,14.193L64.301,14.398L64.477,14.441L64.632,14.350L64.520,14.355L64.434,14.315L64.286,14.193L64.333,14.057L64.401,13.957L64.583,13.792L64.626,13.765L64.705,13.741L64.735,13.719L64.758,13.663L64.765,13.516L64.781,13.470L64.903,13.372L65.373,13.161L65.276,13.093L65.230,13.082L65.230,13.003L65.365,12.956L65.413,12.961L65.472,13.003L65.472,12.924L65.608,13.037L65.824,12.984L66.218,12.774L66.202,12.736L66.183,12.648L66.169,12.609L66.244,12.557L66.329,12.525L66.418,12.514L66.510,12.523L66.510,12.609L66.401,12.635L66.328,12.727L66.286,12.859L66.268,13.003L66.359,12.856L66.392,12.779L66.416,12.687L66.481,12.797L66.555,12.899L66.637,12.935L66.717,12.846L66.802,12.916L66.879,12.913L66.950,12.859L67.014,12.774L67.034,12.863L67.069,12.947L67.114,13.020L67.238,13.168L67.265,13.189L67.291,13.176L67.364,13.161L67.503,13.169L67.576,13.150L67.657,13.082L67.719,12.989L67.794,12.801L67.859,12.687L68.044,12.517L68.331,12.343L68.619,12.243L68.803,12.294L68.711,12.377L68.707,12.515L68.762,12.661L68.847,12.774L69.161,12.925L69.247,13.003L69.110,13.231L69.140,13.408L69.346,13.719L69.367,13.845L69.367,13.970L69.387,14.068L69.467,14.108L69.791,14.108L69.791,14.193L69.723,14.195L69.675,14.215L69.593,14.264L69.830,14.243L70.209,14.445L70.461,14.501L70.646,14.596L70.885,15.055L71.081,15.217L70.969,15.292L70.883,15.375L71.064,15.374L71.334,15.245L71.477,15.296L71.420,15.432L71.385,15.485L71.328,15.533L71.414,15.582L71.467,15.554L71.514,15.516L71.580,15.533L71.619,15.591L71.724,15.856L71.816,16.026L71.923,16.165L72.056,16.247L72.227,16.250L72.227,16.171L72.167,16.118L72.085,15.986L72.025,15.935L72.025,15.856L72.919,15.691L73.134,15.598L73.504,15.361L73.710,15.296L73.743,15.356L73.730,15.407L73.683,15.444L73.611,15.462L73.611,15.533L73.832,15.640L74.406,16.093L74.406,16.171L74.302,16.341L74.242,16.563L74.153,16.766L73.957,16.881L74.044,16.944L74.254,17.196L74.330,17.314L74.373,17.344L74.578,17.426L74.627,17.459L74.660,17.537L74.682,17.622L74.703,17.676L74.711,17.717L74.702,17.770L74.700,17.815L74.728,17.834L74.832,17.825L74.855,17.834L74.894,17.864L74.938,17.890L74.984,17.907L75.025,17.912L75.115,17.959L75.126,18.069L75.081,18.199L75.000,18.307L74.482,18.710L74.406,18.859L74.471,19.000L74.607,19.063L74.741,19.092L74.802,19.134L74.848,19.261L74.954,19.407L75.071,19.505L75.149,19.490L75.681,19.911L75.921,19.963L76.038,20.101L76.067,20.127L76.241,20.114L76.294,20.127L76.476,20.231L76.564,20.265L77.146,20.306L77.350,20.248L77.436,20.088L77.491,20.052L77.607,20.073L77.711,20.170L77.732,20.357L77.675,20.443L77.336,20.672L77.427,20.722L77.533,20.757L77.651,20.772L77.706,20.766L77.706,20.767L77.715,21.092L77.685,21.271L77.794,21.497L77.946,21.946L77.960,22.060L77.940,22.483L77.945,22.739L77.998,22.977L78.174,23.236L78.249,23.477L78.401,23.721L78.477,24.319L78.628,24.992L78.677,25.209L78.689,25.306L78.693,25.516L78.716,25.629L78.760,25.703L78.870,25.792L78.899,25.857L78.993,25.940L78.805,26.297L78.751,26.373L78.675,26.412L78.603,26.515L78.552,26.656L78.531,26.810L78.558,26.998L78.601,27.161L78.616,27.328L78.399,27.982L78.379,28.078L78.281,28.287L78.059,28.511L77.633,28.838L77.192,29.060L76.842,29.311L76.842,29.383L76.885,29.499L76.973,29.909L76.990,30.053L76.960,30.272L76.885,30.412L76.693,30.573L76.776,30.735L76.902,30.831L77.054,30.877L77.214,30.888L77.360,30.950L77.596,31.220L77.794,31.323L78.563,31.872L78.675,31.999L78.923,32.473L78.998,32.544L79.136,32.606L79.344,32.883L79.777,33.049L80.197,33.508L80.239,33.554L80.464,33.734L80.262,34.148L80.205,34.416L80.340,34.536L80.374,34.660L80.254,34.930L80.079,35.202L79.704,35.524L79.744,35.983L79.917,36.487L80.068,36.823L80.025,37.033L80.187,37.211L80.433,37.335L80.639,37.382L80.841,37.469L80.954,37.671L80.951,37.908L80.810,38.091L80.810,38.163L80.915,38.323L80.887,38.488L80.809,38.698L80.765,38.998L80.838,39.164L81.308,39.510L81.175,39.673L81.120,39.772L81.097,39.875L81.083,39.981L81.053,40.090L80.896,40.370L80.857,40.482L80.832,41.187L80.770,41.413L80.659,41.621L80.526,41.797L80.110,42.215L80.015,42.415L80.037,42.660L80.156,42.840L80.287,42.930L80.387,43.063L80.416,43.367L80.491,43.661L80.654,43.851L81.005,44.141L81.099,44.341L81.170,44.634L81.182,44.938L81.097,45.169L80.956,45.390L80.897,45.615L80.913,45.698L80.937,45.820L81.097,45.986L81.570,46.145L81.722,46.253L81.722,46.255L81.888,46.349L82.227,46.449L82.391,46.527L82.504,46.616L82.638,46.756L82.713,46.915L82.652,47.059L82.679,47.364L82.722,47.853L82.722,47.864L82.753,48.071L82.774,48.151L82.908,48.386L83.071,48.579L83.177,48.805L83.140,49.141L83.166,49.176L83.196,49.209L83.071,49.453L82.973,49.760L82.914,50.085L82.906,50.376L82.891,50.525L82.843,50.602L82.787,50.655L82.748,50.735L82.735,50.849L82.734,51.071L82.712,51.203L82.389,52.027L82.024,52.903L81.766,53.192L81.664,53.362L81.663,53.577L81.549,53.887L81.480,54.020L81.409,54.102L81.293,54.134L81.136,54.128L80.867,54.068L80.590,53.855L80.487,53.797L80.235,53.726L80.200,53.639L80.226,53.433L80.348,53.142L80.390,52.989L80.351,52.858L80.264,52.856L79.863,53.024L79.780,52.958L79.820,52.817L79.907,52.651L79.963,52.512L79.976,52.338L79.954,52.225L79.899,52.134L79.811,52.027L79.722,51.957L79.527,51.907L79.437,51.844L79.369,51.750L79.344,51.680L79.328,51.611L79.286,51.513L79.224,51.673L79.141,51.716L78.879,51.701L78.676,51.791L78.596,51.789L78.517,51.746L78.470,51.683L78.432,51.619L78.377,51.569L78.108,51.481L77.877,51.517L77.704,51.695L77.602,52.027L77.521,52.145L77.606,52.201L77.850,52.233L77.995,52.292L77.984,52.316L77.922,52.359L77.916,52.480L78.100,52.664L78.368,52.743L78.561,52.856L78.517,53.144L78.305,53.326L77.737,53.280L77.476,53.335L77.398,53.414L77.265,53.615L77.177,53.699L76.049,54.222L75.909,54.232L75.644,54.197L75.503,54.228L75.425,54.284L75.314,54.427L75.240,54.483L75.149,54.497L75.079,54.476L75.017,54.478L74.951,54.561L74.920,54.673L74.929,54.771L74.946,54.852L74.943,54.913L74.893,54.985L74.851,55.000L74.807,55.001L74.598,55.133L74.467,55.160L74.135,55.123L73.979,55.139L73.703,55.242L73.564,55.270L72.913,55.266L72.585,55.329L72.289,55.510L72.372,55.688L72.344,55.843L72.247,55.970L72.127,56.062L72.169,56.155L72.162,56.225L72.119,56.279L72.047,56.320L71.921,56.479L71.798,56.593L71.664,56.627L71.502,56.546L71.454,56.485L71.352,56.312L71.314,56.267L71.225,56.234L71.205,56.249L71.201,56.290L71.157,56.338L70.886,56.534L70.845,56.607L70.768,56.841L70.616,56.920L70.496,56.866L70.378,56.782L70.237,56.769L69.997,57.423L69.892,57.615L69.714,57.750L69.333,57.728L69.128,57.799L69.127,57.801L69.126,57.801L69.060,57.819L68.992,57.824L68.925,57.818L68.861,57.799L68.805,57.756L68.745,57.743L68.685,57.758L68.625,57.801L68.578,58.271L68.531,58.482L68.428,58.606L68.270,58.764L68.212,58.823L67.964,58.808L67.294,58.392L67.233,58.374L67.168,58.388L67.066,58.456L67.021,58.474L66.892,58.456L66.776,58.463L66.658,58.506L66.565,58.600L66.405,58.853L66.324,58.933L66.229,58.943L65.843,58.872L65.301,58.913L65.009,59.001L64.808,59.176L64.755,59.224L64.729,59.281L64.714,59.339L64.695,59.391L64.696,59.415L64.706,59.454L64.710,59.499L64.695,59.542L64.666,59.558L64.600,59.555L64.574,59.571L64.488,59.650L64.276,59.771L64.198,59.850L63.973,60.267L63.891,60.356L63.810,60.414L63.751,60.504L63.732,60.687L63.589,60.874L63.550,60.983L63.527,61.188L63.549,61.331L63.591,61.455L63.591,61.557L63.490,61.633L63.366,61.617L63.293,61.500L63.206,61.182L63.199,61.122L63.186,61.054L63.156,60.979L63.125,60.936L62.998,60.805L62.980,60.778L62.972,60.752L62.979,60.729L62.998,60.707L63.007,60.699L63.017,60.692L63.027,60.689L63.038,60.687L63.070,60.622L63.074,60.569L63.050,60.527L62.998,60.498L62.790,60.492L62.685,60.459L62.604,60.386L62.575,60.296L62.578,60.098L62.535,59.991L62.396,59.890L62.049,59.864L61.866,59.850L62.033,60.028L62.091,60.131L62.118,60.295L62.105,60.443L62.056,60.497L61.981,60.547L61.891,60.687L61.966,60.824L62.323,61.053L62.501,61.252L62.582,61.381L62.638,61.518L62.659,61.692L62.608,61.954L62.612,62.127L62.675,62.302L62.778,62.398L62.893,62.467L62.998,62.560L63.063,62.674L63.078,62.792L63.079,62.897L63.102,62.970L64.198,63.573L64.205,63.573L64.316,63.685L64.582,63.714L64.704,63.833L64.723,64.002L64.673,64.158L64.665,64.283L64.961,64.462L65.064,64.503L65.109,64.587L65.087,64.811L65.028,64.988L64.862,65.306L64.808,65.484L64.663,65.438L64.619,65.601L64.615,65.844L64.592,66.033L64.477,66.154L64.178,66.285L64.092,66.459L64.128,66.581L64.203,66.729L64.353,66.951L64.457,67.048L64.567,67.127L64.808,67.246L64.909,67.300L64.969,67.422L64.974,67.576L64.912,67.717L64.931,67.733L64.989,67.762L64.954,67.853L64.949,67.881L65.023,67.974L65.196,68.072L65.272,68.159L65.323,68.285L65.357,68.541L65.386,68.676L65.433,68.815L65.478,68.918L65.535,69.004L65.614,69.090L65.695,69.115L65.772,69.104L65.825,69.149L65.835,69.344L65.856,69.723L65.892,69.910L65.974,70.077L66.116,70.200L66.449,70.363L66.595,70.520L66.833,71.073L66.947,71.197L67.091,71.251L67.517,71.316L67.653,71.297L67.621,71.148L67.720,71.116L67.997,71.195L68.120,71.264L68.224,71.352L68.428,71.577L68.554,71.631L68.594,71.725L68.604,71.837L68.637,71.944L68.868,72.232L68.870,72.233L68.959,72.286L69.637,73.249L69.732,73.476L69.848,73.670L70.053,73.795L70.490,73.817L70.636,73.875L70.724,73.955L70.944,74.264L71.251,74.592L71.332,74.793L71.337,75.117L71.441,75.294L71.649,75.499L71.878,75.671L72.047,75.757L72.122,75.556L72.191,75.429L72.291,75.380L72.338,75.391L72.457,75.417L72.584,75.499L72.707,75.602L72.830,75.674L72.962,75.658L72.980,75.877L73.057,76.087L73.170,76.267L73.294,76.396L73.431,76.464L73.700,76.509L73.802,76.569L73.970,76.845L74.320,77.579L74.461,77.734ZM77.316,18.012L77.193,18.323L77.134,18.362L77.065,18.381L77.191,18.528L77.250,18.708L76.428,18.798L76.267,18.775L76.146,18.694L75.977,18.874L75.766,18.990L75.350,19.095L74.892,19.102L74.638,19.030L74.505,18.859L74.599,18.826L74.749,18.717L74.983,18.669L75.234,18.533L75.301,18.464L75.354,18.130L75.085,17.650L75.104,17.354L75.469,17.375L75.598,17.426L75.548,17.511L75.566,17.576L75.508,17.801L75.499,17.984L75.612,17.794L75.705,17.747L75.997,17.747L75.959,17.775L75.930,17.805L75.911,17.848L75.899,17.912L76.146,17.984L76.087,17.834L76.180,17.551L76.167,17.243L76.067,17.051L75.899,17.116L75.840,16.929L75.761,16.773L75.663,16.651L75.548,16.565L75.405,16.532L75.261,16.562L75.186,16.650L75.251,16.795L75.251,16.881L75.189,16.913L75.124,16.984L75.071,17.074L75.050,17.160L75.005,17.184L74.753,17.274L74.768,17.119L74.822,17.023L74.880,16.955L74.900,16.881L74.862,16.740L74.808,16.724L74.746,16.766L74.514,16.864L74.407,16.998L74.305,17.092L74.160,17.038L74.218,16.815L74.414,16.434L74.456,16.132L74.392,15.955L74.096,15.663L74.007,15.533L74.074,15.402L74.185,15.292L74.320,15.243L74.456,15.296L74.519,15.408L74.667,15.785L74.753,15.935L74.945,16.119L75.422,16.380L75.695,16.479L75.916,16.609L77.189,17.924L77.312,18.010L77.316,18.012ZM23.651,21.869L23.488,21.892L23.237,21.996L23.103,22.027L23.103,22.098L23.184,22.128L23.246,22.170L23.299,22.239L23.350,22.349L23.285,22.313L23.191,22.207L23.129,22.184L23.056,22.196L22.949,22.250L22.905,22.263L22.775,22.202L22.675,22.066L22.648,21.931L22.732,21.869L23.283,21.708L23.554,21.689L23.651,21.869ZM24.199,21.080L24.467,20.954L25.453,20.833L25.732,20.916L24.199,21.080ZM26.077,20.672L26.409,20.488L26.799,20.426L27.619,20.443L27.623,20.498L27.611,20.511L27.591,20.510L27.254,20.638L26.370,20.749L26.077,20.672ZM27.767,20.443L27.886,20.363L28.034,20.342L28.173,20.371L28.266,20.443L28.243,20.488L28.219,20.506L28.163,20.521L27.873,20.436L27.767,20.443ZM33.223,20.521L33.314,20.373L33.456,20.313L33.619,20.338L33.772,20.443L33.668,20.443L33.596,20.470L33.481,20.576L33.446,20.600L33.383,20.585L33.343,20.558L33.300,20.552L33.223,20.600L33.223,20.521ZM28.859,20.048L29.505,20.043L29.650,20.127L29.654,20.178L29.643,20.189L29.626,20.188L29.606,20.199L29.078,20.183L28.834,20.240L28.814,20.443L28.602,20.452L28.537,20.397L28.513,20.242L28.549,20.109L28.639,20.056L28.859,20.048ZM29.898,20.048L30.082,19.830L30.386,19.766L30.998,19.805L30.998,19.884L30.895,19.884L30.733,19.981L30.530,20.062L30.322,20.074L30.145,19.963L30.079,20.052L30.015,20.098L29.954,20.097L29.898,20.048ZM31.439,19.884L31.300,19.789L31.332,19.716L31.461,19.670L31.612,19.654L31.731,19.664L31.839,19.697L32.032,19.808L31.963,19.796L31.885,19.805L31.580,19.738L31.450,19.745L31.439,19.884ZM56.794,17.511L56.901,17.249L57.163,17.037L57.463,16.944L57.679,17.038L57.465,17.640L57.388,17.747L57.299,17.750L57.293,17.670L57.343,17.468L57.311,17.334L57.251,17.333L57.211,17.431L57.244,17.590L57.138,17.674L57.022,17.669L56.905,17.602L56.794,17.511ZM57.901,16.434L57.901,16.407L57.940,16.321L58.432,16.099L58.534,16.007L58.411,16.169L58.076,16.458L57.981,16.644L57.940,16.644L57.901,16.434ZM39.327,11.255L39.293,11.269L39.277,11.303L39.274,11.355L39.281,11.419L39.148,11.538L39.056,11.681L38.951,11.811L38.782,11.892L38.468,11.915L38.319,11.865L38.238,11.734L38.317,11.695L38.330,11.630L38.297,11.560L38.238,11.506L38.468,11.300L38.722,11.192L39.009,11.176L39.327,11.255ZM55.925,11.774L56.349,12.523L55.439,12.380L55.307,12.451L55.339,12.498L55.371,12.519L55.080,12.536L54.890,12.507L54.808,12.411L54.822,12.176L54.789,12.086L54.685,12.050L54.495,12.044L54.417,12.067L54.363,12.136L54.310,12.136L54.285,12.052L54.261,12.004L54.222,12.002L54.136,12.052L54.116,11.892L54.318,11.426L54.602,11.168L54.952,11.113L55.570,11.361L55.755,11.509L55.812,11.579L55.925,11.774ZM69.593,10.395L69.416,10.530L69.374,10.719L69.367,10.943L69.298,11.182L69.245,11.247L69.142,11.330L69.099,11.419L69.073,11.532L69.059,11.647L69.049,11.892L69.000,11.892L69.000,11.734L69.020,11.469L69.247,10.711L69.296,10.418L69.349,10.337L69.467,10.308L69.568,10.304L69.649,10.316L69.694,10.384L69.692,10.512L69.688,10.500L69.668,10.476L69.639,10.473L69.639,10.631L69.593,10.631L69.593,10.395ZM73.611,12.774L73.803,13.103L73.927,13.254L74.105,13.319L74.008,13.384L73.914,13.493L73.842,13.643L73.813,13.831L73.813,14.015L73.791,14.087L73.716,14.080L73.558,14.028L73.643,14.028L73.710,13.992L73.739,13.915L73.710,13.792L73.660,13.792L73.586,13.867L73.475,13.906L73.358,13.908L73.270,13.870L73.270,13.792L73.538,13.684L73.650,13.601L73.710,13.470L73.333,13.493L73.165,13.543L73.022,13.634L73.422,13.372L73.558,13.319L73.558,13.240L73.363,13.222L73.262,13.232L73.191,13.279L73.093,13.386L73.032,13.360L72.976,13.283L72.894,13.240L72.173,13.319L72.043,13.395L71.660,13.711L71.580,13.831L71.495,14.008L71.318,14.043L71.159,14.121L71.131,14.429L71.230,14.350L71.232,14.292L71.216,14.277L71.196,14.276L71.184,14.264L71.530,14.208L71.580,14.229L71.633,14.493L71.618,14.614L71.504,14.666L71.297,14.636L71.068,14.560L70.811,14.402L70.869,14.341L70.907,14.204L70.982,14.028L70.876,14.087L70.828,14.133L70.784,14.193L70.813,14.225L70.834,14.264L70.689,14.252L70.613,14.266L70.560,14.308L70.495,14.340L70.423,14.294L70.357,14.227L70.311,14.193L70.204,14.174L70.077,14.116L69.998,14.017L70.038,13.870L69.933,13.840L69.711,13.942L69.639,13.950L69.589,13.860L69.634,13.782L69.730,13.749L69.840,13.792L69.840,13.719L69.391,13.398L69.491,13.150L69.634,12.945L69.817,12.868L70.038,13.003L70.088,12.924L70.172,13.000L70.272,12.983L70.487,12.846L70.374,12.834L70.288,12.756L70.252,12.644L70.286,12.523L70.286,12.451L70.187,12.442L70.133,12.386L70.087,12.324L70.014,12.294L69.692,12.373L69.817,12.132L69.872,12.070L70.067,12.025L70.286,11.918L70.434,11.892L70.434,11.813L70.443,11.811L70.487,11.788L70.533,11.734L70.332,11.662L70.244,11.608L70.187,11.506L70.212,11.478L70.235,11.459L70.247,11.421L70.240,11.340L70.027,11.419L69.897,11.432L69.840,11.380L69.824,11.343L69.791,11.334L69.757,11.307L69.741,11.218L69.733,11.118L69.705,11.058L69.658,11.032L69.593,11.032L69.760,10.958L70.314,10.882L70.434,10.907L70.473,10.976L70.557,11.007L70.642,11.067L70.681,11.218L70.712,11.301L70.767,11.257L70.794,11.126L70.735,10.946L70.839,10.813L70.971,10.684L71.108,10.587L71.230,10.545L71.149,10.780L71.095,10.882L71.032,10.946L71.078,10.945L71.117,10.952L71.152,10.979L71.184,11.032L71.148,11.087L71.081,11.255L71.186,11.261L71.269,11.233L71.334,11.160L71.378,11.032L71.316,11.015L71.247,10.963L71.184,10.946L71.184,10.867L71.283,10.781L71.363,10.936L71.491,11.086L71.577,11.244L71.530,11.419L71.673,11.612L71.854,11.672L72.227,11.663L72.173,11.577L72.243,11.424L72.278,11.376L72.326,11.340L72.326,11.255L72.269,11.094L72.230,11.012L72.173,10.946L72.173,10.867L72.216,10.838L72.239,10.814L72.269,10.794L72.326,10.781L72.326,10.711L72.236,10.715L72.177,10.765L72.131,10.827L72.078,10.867L72.000,10.880L71.751,10.867L71.712,10.831L71.673,10.749L71.624,10.667L71.555,10.631L71.446,10.609L71.401,10.552L71.376,10.477L71.328,10.395L71.244,10.280L71.228,10.233L71.131,10.308L71.074,10.364L70.958,10.514L70.788,10.609L70.665,10.734L70.534,10.824L70.389,10.781L70.364,10.645L70.415,10.432L70.509,10.237L70.611,10.150L70.633,10.102L70.664,9.993L70.680,9.885L70.659,9.836L70.335,9.914L70.229,9.982L70.183,9.970L70.187,9.836L70.227,9.758L70.304,9.681L70.391,9.622L71.385,9.355L71.587,9.352L71.778,9.449L71.778,9.520L71.666,9.603L71.517,9.683L71.385,9.790L71.328,9.953L71.350,10.158L71.412,10.322L71.507,10.449L71.629,10.545L71.931,10.640L72.870,10.473L73.192,10.539L73.411,10.763L73.459,11.061L73.270,11.340L72.948,11.540L72.789,11.684L72.722,11.853L72.748,12.047L72.812,12.249L72.893,12.421L72.969,12.523L73.117,12.596L73.460,12.673L73.611,12.774ZM34.760,9.290L35.121,9.921L35.259,9.993L35.160,10.072L34.914,10.154L34.744,10.010L34.608,9.780L34.464,9.599L34.674,9.233L34.803,9.101L34.962,9.047L34.965,9.103L34.953,9.115L34.933,9.113L34.913,9.126L34.833,9.202L34.760,9.290ZM35.956,8.567L36.359,8.590L36.523,8.683L36.652,8.889L36.652,8.968L36.592,9.061L36.510,9.283L36.450,9.362L36.351,9.392L36.228,9.378L36.117,9.339L36.055,9.290L35.866,9.356L35.632,9.290L35.210,9.047L35.352,8.805L35.516,8.659L35.714,8.586L35.956,8.567ZM34.962,6.353L34.920,6.762L35.165,6.976L35.514,7.056L37.092,6.983L36.910,7.115L36.005,7.069L35.892,7.125L35.692,7.269L35.583,7.299L35.084,7.299L35.037,7.276L34.974,7.175L34.913,7.148L34.843,7.150L34.796,7.168L34.577,7.309L34.540,7.341L34.520,7.425L34.510,7.653L34.489,7.700L34.513,8.330L34.494,8.536L34.458,8.695L34.413,8.729L34.365,8.567L34.359,8.263L34.443,7.010L34.511,6.764L35.059,5.350L35.364,5.000L35.708,5.169L35.266,5.191L35.210,5.248L35.410,5.267L35.470,5.408L35.405,5.567L35.111,5.719L34.974,5.907L34.899,6.138L34.962,6.353ZM36.947,11.036L37.414,10.852L37.428,10.976L37.370,11.259L37.203,11.506L36.996,11.616L36.834,11.613L36.742,11.537L36.668,11.370L36.712,11.184L36.843,11.090L36.896,11.067L36.947,11.036ZM31.659,15.218L31.623,15.244L31.613,15.196L31.583,15.187L31.560,15.136L31.527,15.100L31.484,15.062L31.590,15.054L31.634,15.100L31.659,15.218ZM31.719,15.081L31.845,15.046L31.871,15.109L31.757,15.142L31.719,15.081Z" fill="currentColor" stroke="currentColor" stroke-width="1" stroke-linejoin="round"/>
</svg>