<svg xmlns="http://www.w3.org/2000/svg" viewBox="0 0 100 100" role="img" aria-label="Djibouti">
  <title>Djibouti</title>
  <path d="M82.541,66.754L79.969,70.809L66.835,91.509L66.062,91.236L65.565,91.666L65.068,92.280L64.336,92.549L63.686,92.439L62.462,92.084L60.414,91.873L59.308,91.627L58.468,90.914L57.219,88.157L56.266,87.798L55.084,87.751L51.571,86.910L51.201,86.939L49.298,87.088L44.838,88.456L41.545,90.641L40.480,91.150L39.733,91.111L38.965,90.846L37.843,90.663L36.225,91.215L35.800,91.257L34.914,91.226L34.489,91.270L32.723,92.070L32.052,92.240L31.115,92.230L28.570,91.640L25.841,91.941L24.510,92.384L22.973,93.956L21.606,94.303L18.800,94.421L18.462,94.559L18.237,94.812L17.976,95.000L17.546,94.937L17.249,94.686L17.121,94.387L16.952,94.128L11.099,92.932L9.865,92.458L9.504,91.981L9.246,91.640L10.137,90.199L10.449,88.037L10.567,78.302L9.957,72.800L8.677,66.981L8.641,64.219L10.106,59.628L10.787,55.791L11.570,54.183L12.302,53.683L14.248,52.825L14.740,52.176L15.016,51.454L15.436,51.156L15.994,50.986L16.686,50.654L17.372,50.123L17.920,49.566L19.817,46.860L23.910,41.021L25.913,37.280L26.460,36.676L27.628,36.100L28.022,35.475L28.775,33.631L35.375,24.584L36.886,21.275L39.871,17.249L42.421,14.495L43.291,14.341L44.638,14.697L46.911,15.714L54.674,22.609L55.329,21.657L55.563,21.591L57.127,21.152L57.803,20.176L58.222,19.721L59.702,19.441L60.322,19.109L60.609,17.746L60.148,16.159L59.974,14.652L62.134,12.607L63.287,9.868L64.116,9.138L64.556,9.193L65.171,9.682L65.678,9.633L76.445,5.000L77.251,5.542L77.715,6.438L78.102,7.439L78.630,8.299L83.476,13.836L84.646,15.700L85.347,16.435L86.121,16.653L86.932,16.093L86.932,17.874L87.024,18.727L87.270,19.578L87.661,20.274L88.113,20.828L88.476,21.446L88.625,22.342L88.686,24.274L88.839,25.299L89.145,26.004L90.996,28.595L91.141,29.447L90.996,32.397L91.359,36.213L91.093,37.832L90.371,39.337L89.298,40.587L87.976,41.442L87.585,41.558L86.254,41.788L84.900,42.480L83.912,42.663L81.783,42.711L80.848,42.966L79.235,44.122L75.429,48.700L75.171,48.865L74.876,48.988L74.389,49.199L74.042,49.423L73.820,49.769L73.631,50.471L73.365,50.772L72.671,51.030L69.962,51.153L69.252,51.419L68.510,51.944L67.772,52.280L66.430,51.785L65.486,51.938L60.874,53.588L59.576,54.385L58.431,55.614L54.963,61.976L54.633,62.411L54.165,62.670L52.629,63.125L52.169,63.150L50.984,62.932L49.678,62.981L49.262,62.932L48.988,62.738L48.520,62.077L48.250,61.898L47.174,61.966L46.593,62.388L46.585,62.738L47.234,62.586L47.452,63.686L47.452,63.737L47.480,64.950L47.762,65.988L49.391,66.623L50.379,67.533L50.984,67.772L51.673,67.644L52.460,66.909L53.016,66.736L53.447,66.853L53.911,67.069L54.391,67.166L54.842,66.923L55.133,66.281L54.794,65.898L54.286,65.636L54.032,65.352L54.467,64.514L55.459,63.813L57.721,62.932L61.076,62.532L62.148,62.244L62.664,61.865L63.059,61.447L63.470,61.292L64.023,61.706L64.430,61.904L65.696,61.886L72.623,61.791L73.679,61.577L74.667,61.608L75.735,62.244L76.711,62.015L77.231,61.317L77.606,60.644L78.138,60.483L78.437,61.012L79.146,63.970L79.191,64.032L79.723,64.796L80.283,65.214L81.827,66.044L82.541,66.754Z" fill="currentColor" stroke="currentColor" stroke-width="1" stroke-linejoin="round"/>
</svg>