<svg xmlns="http://www.w3.org/2000/svg" viewBox="0 0 100 100" role="img" aria-label="Dominica">
  <title>Dominica</title>
  <path d="M51.250,95.000L48.995,94.373L48.586,92.703L49.256,87.626L49.158,81.540L49.256,80.650L48.153,78.285L45.612,75.318L45.154,72.818L44.795,67.656L43.880,63.892L41.036,57.764L40.644,56.289L40.162,52.475L39.533,50.644L34.916,46.042L34.181,44.313L33.797,42.329L32.898,40.210L31.738,38.532L30.626,37.854L29.319,36.760L28.878,34.243L28.690,29.183L27.856,27.581L26.753,26.563L25.936,25.445L25.944,23.495L26.925,22.139L30.283,19.766L31.313,17.680L29.924,17.409L27.488,16.519L25.944,16.375L27.603,13.925L29.940,5.000L33.911,5.161L36.313,5.254L38.585,6.119L41.036,7.975L44.280,12.756L46.879,14.476L49.869,12.900L52.361,12.408L62.330,16.375L62.690,17.791L63.964,20.969L65.958,24.351L67.078,26.343L70.175,30.819L70.469,31.259L72.373,38.591L72.708,46.228L71.318,52.068L72.234,52.399L73.067,53.094L74.064,53.492L72.806,61.095L73.100,67.741L73.165,69.402L72.577,77.598L68.450,84.913L67.004,86.041L66.024,86.295L65.239,86.236L63.196,86.507L61.489,86.100L60.222,86.337L59.135,87.338L58.106,90.050L55.303,91.279L54.649,92.805L54.560,92.940L53.685,94.305L51.250,95.000Z" fill="currentColor" stroke="currentColor" stroke-width="1" stroke-linejoin="round"/>
</svg>