<svg xmlns="http://www.w3.org/2000/svg" viewBox="0 0 100 100" role="img" aria-label="Denmark">
  <title>Denmark</title>
  <path d="M12.228,78.936L12.330,78.542L12.236,78.386L12.407,77.754L12.299,77.172L12.096,76.607L11.975,76.026L12.024,75.285L12.173,74.672L12.357,74.108L12.497,73.511L11.141,73.261L10.989,73.278L10.941,73.468L10.909,74.354L10.829,74.469L10.705,74.494L10.542,74.684L10.367,74.940L10.169,75.060L9.972,75.013L9.798,74.762L9.653,74.192L9.670,73.644L9.750,73.090L9.798,72.495L10.036,72.046L10.567,71.964L11.103,72.126L11.373,72.417L11.202,72.464L11.064,72.582L10.842,72.885L10.881,73.141L11.641,73.256L12.336,73.426L12.594,73.319L12.565,72.884L12.330,72.104L12.166,71.123L12.071,70.143L12.096,69.881L12.210,69.558L12.236,69.361L12.214,69.068L12.071,68.494L11.955,67.461L11.862,66.972L11.678,66.533L11.358,66.273L10.900,66.158L10.050,66.135L9.437,65.937L8.917,65.440L7.760,63.676L7.770,63.514L8.040,63.462L8.040,63.319L7.795,63.217L7.502,63.192L7.217,63.268L6.996,63.462L6.849,63.785L6.888,64.000L7.267,64.414L7.148,64.443L7.070,64.498L6.909,64.727L7.203,64.782L7.550,65.012L7.840,65.354L7.961,65.750L7.797,65.814L6.270,64.517L5.959,64.331L5.212,64.190L5.016,63.988L5.000,63.648L5.717,61.694L5.958,60.808L6.118,59.866L6.140,58.937L5.530,54.440L5.468,54.208L5.431,54.160L5.418,54.051L5.431,53.945L5.468,53.896L5.545,53.922L5.579,53.981L5.601,54.040L5.638,54.066L5.721,54.187L6.039,55.944L6.267,56.550L6.300,56.804L6.270,57.023L6.146,57.337L6.118,57.592L6.161,57.906L6.270,57.970L6.843,57.644L7.452,57.154L7.740,57.051L8.237,56.654L8.745,56.114L8.817,55.741L8.735,55.344L8.557,54.957L8.353,54.607L7.876,53.981L7.876,53.271L7.730,52.449L7.403,51.924L6.960,51.604L5.977,51.152L5.710,51.116L5.595,51.309L5.607,52.287L5.585,52.751L5.507,53.271L5.554,53.652L5.520,53.799L5.333,53.740L5.280,53.619L5.225,53.380L5.177,53.104L5.119,51.443L5.159,50.926L5.467,49.495L5.507,48.956L5.362,41.028L5.416,40.644L5.507,40.250L6.080,38.271L6.339,37.657L6.529,37.360L6.607,37.421L6.657,37.621L6.775,37.735L6.765,37.897L6.479,38.640L6.379,38.844L6.379,39.000L6.458,39.079L6.544,39.121L6.775,39.143L6.818,39.241L6.868,39.462L6.936,39.683L7.039,39.781L7.562,39.875L7.702,39.971L7.519,40.081L7.565,40.292L7.531,40.661L7.606,40.876L7.721,40.967L7.821,40.909L7.857,40.754L7.780,40.563L7.780,40.407L8.182,40.275L8.801,40.258L9.368,40.374L9.615,40.641L9.733,40.680L10.364,41.188L10.541,41.108L10.705,40.910L10.842,40.653L10.937,40.407L11.016,40.407L11.402,41.483L11.413,41.658L11.364,41.755L11.384,41.971L11.467,42.185L11.675,42.353L11.924,42.675L12.071,42.767L12.289,42.763L13.067,42.595L13.151,42.553L13.219,42.439L13.264,42.263L13.282,42.049L13.285,41.715L13.301,41.488L13.376,41.019L13.431,40.887L13.499,40.834L13.526,40.760L13.462,40.563L13.067,40.250L12.939,40.238L12.843,40.183L12.785,40.065L12.766,39.867L12.709,39.664L12.492,39.548L12.497,39.314L12.666,39.160L13.250,39.121L14.073,37.735L14.265,37.622L14.789,37.460L15.492,37.429L15.517,37.379L15.212,37.265L14.655,37.247L14.524,37.119L14.642,36.711L14.829,36.352L14.981,36.158L15.386,35.858L15.989,35.273L16.226,35.218L16.365,35.246L16.601,35.363L16.744,35.391L16.893,35.350L16.971,35.255L17.033,35.146L17.135,35.062L17.359,35.053L17.652,35.148L17.905,35.338L18.014,35.616L18.090,36.152L18.268,36.470L18.474,36.694L18.631,36.952L18.799,37.435L18.444,37.523L18.069,38.117L17.745,38.204L17.745,38.374L17.797,38.583L17.659,38.785L17.311,39.143L17.191,39.467L17.177,39.757L17.230,40.485L17.326,40.706L17.536,40.668L17.745,40.423L17.916,39.674L18.104,39.623L18.335,39.669L18.536,39.625L18.456,39.406L18.354,39.325L18.231,39.353L18.101,39.455L18.198,39.205L18.297,39.027L18.387,38.829L18.449,38.517L18.536,38.517L18.459,39.031L18.793,39.109L19.247,39.031L19.533,39.070L19.707,39.188L19.901,39.149L20.076,39.166L20.193,39.455L20.155,39.680L19.862,40.106L19.746,40.407L19.885,40.462L19.912,40.563L19.921,40.702L20.008,40.876L20.132,41.002L20.452,41.188L20.504,41.283L20.535,41.407L20.589,41.505L20.713,41.516L20.897,41.133L20.975,41.019L21.156,41.186L21.311,41.004L21.307,40.714L21.022,40.563L20.626,40.798L20.601,40.868L20.543,40.888L20.408,40.876L20.299,40.814L20.292,40.681L20.331,40.571L20.365,40.563L20.388,39.712L20.597,38.980L20.711,38.331L20.710,38.327L20.452,37.735L20.327,37.595L20.261,37.543L20.008,37.578L19.495,37.812L19.368,37.991L19.092,38.167L18.823,38.184L18.711,37.891L18.854,37.614L19.441,37.259L19.574,36.874L19.647,36.553L19.621,36.395L19.302,36.283L19.171,36.170L19.060,36.018L18.973,35.858L18.906,35.707L18.833,35.475L18.785,35.202L18.799,34.919L18.864,34.844L19.157,34.388L19.190,34.280L19.250,34.162L19.240,33.896L19.180,33.633L19.099,33.513L18.949,33.482L18.836,33.404L18.631,33.186L18.868,32.614L19.107,32.160L19.365,31.790L19.761,31.389L19.850,31.337L19.946,31.306L20.057,31.296L20.124,31.224L20.195,30.899L20.236,30.827L22.127,30.202L22.548,30.215L24.037,30.827L24.037,30.997L23.874,31.104L23.862,31.246L23.961,31.380L24.132,31.467L24.306,31.451L24.431,31.333L24.896,30.606L25.107,30.192L25.340,29.865L25.840,29.683L26.262,29.420L26.872,29.576L28.232,29.420L27.478,28.730L27.096,28.588L26.838,28.374L26.701,28.325L26.598,28.381L26.150,28.980L25.905,29.231L25.633,29.358L25.394,29.177L25.164,28.948L24.921,29.012L24.475,29.420L23.961,29.632L22.853,29.649L19.935,30.683L19.683,30.707L19.441,30.600L18.014,29.420L18.095,29.721L17.992,29.876L17.572,30.046L17.261,30.277L17.098,30.355L16.882,30.359L16.962,30.215L16.732,30.070L16.512,30.118L16.294,30.292L16.084,30.527L15.877,30.505L15.616,30.758L15.394,31.032L15.299,31.075L15.190,30.769L14.937,30.650L14.646,30.681L14.429,30.827L14.615,31.025L14.152,31.451L13.519,31.781L13.065,31.648L12.766,31.713L12.467,31.848L12.330,32.014L12.261,32.457L12.089,32.727L11.888,32.932L11.722,33.186L11.649,33.838L11.635,33.890L11.613,34.089L11.554,34.203L11.470,34.299L11.065,34.919L10.777,34.944L10.640,35.009L10.582,35.140L10.487,35.232L10.277,35.316L10.068,35.473L9.972,35.773L10.081,36.549L10.069,36.912L9.877,37.124L9.877,37.265L10.386,37.214L10.504,37.265L10.599,37.544L10.522,37.739L10.356,37.854L10.190,37.891L10.041,37.843L9.742,37.628L9.577,37.578L9.424,37.622L9.169,37.829L9.007,37.891L9.007,38.061L9.615,37.891L9.798,37.949L10.066,38.158L10.190,38.204L11.090,37.815L11.278,37.891L11.313,38.058L11.278,38.494L11.278,38.687L11.470,38.991L11.556,39.210L11.367,39.546L11.236,39.708L11.065,39.781L10.884,39.809L10.772,39.882L10.777,39.979L10.937,40.081L10.679,40.087L10.324,39.761L10.012,39.341L9.877,39.070L9.760,38.729L9.474,38.454L9.116,38.271L8.789,38.204L8.563,38.084L8.293,37.793L8.042,37.439L7.876,37.124L7.734,36.298L7.653,36.171L7.479,36.112L7.120,35.875L6.909,35.858L7.092,36.703L7.158,37.197L7.126,37.508L6.937,37.539L6.840,37.058L6.813,36.001L6.963,35.056L7.249,34.351L9.536,30.670L10.223,29.967L11.278,28.325L11.682,27.947L12.139,27.956L13.202,28.325L13.799,28.361L14.952,28.102L15.464,27.843L16.077,27.176L16.305,27.073L19.495,27.530L20.654,27.394L21.809,26.973L22.902,26.249L23.864,25.198L26.608,20.243L27.093,19.541L27.972,18.588L28.412,17.766L28.581,17.651L28.885,17.218L29.503,17.098L30.680,17.182L31.826,16.993L32.871,16.542L33.777,15.899L35.332,14.342L36.181,13.727L36.526,13.598L36.907,13.559L37.277,13.643L37.582,13.883L36.887,14.138L36.225,14.756L35.179,16.321L34.796,17.695L35.152,18.728L35.797,19.676L36.277,20.793L35.905,21.800L35.911,22.994L36.181,25.340L35.963,25.683L35.311,26.154L35.004,26.527L34.554,27.453L34.350,28.076L34.204,29.062L33.887,30.163L33.734,30.527L33.626,30.687L33.522,30.776L33.383,30.818L32.781,30.810L32.596,30.856L32.364,30.925L31.296,30.215L30.505,29.376L29.979,29.164L29.554,28.736L29.238,28.638L28.981,28.780L28.620,29.360L28.375,29.420L28.611,29.448L28.880,29.107L29.104,28.951L29.331,28.840L29.595,28.950L30.853,30.254L31.270,30.458L31.760,30.897L32.040,30.997L33.070,31.022L33.307,31.154L32.949,31.593L32.871,31.780L32.810,32.083L32.741,32.707L32.697,32.875L32.789,33.249L32.929,34.418L32.984,35.338L33.074,35.825L33.387,36.796L33.495,36.949L33.620,37.083L33.650,37.234L33.474,37.435L33.371,37.442L33.071,37.304L32.910,37.265L32.336,37.265L32.136,37.354L31.906,37.578L31.691,37.351L31.451,37.172L31.175,37.119L30.853,37.265L30.569,37.491L30.449,37.538L30.244,37.578L30.051,37.672L29.657,37.991L29.190,38.159L28.612,38.589L26.831,38.844L26.831,39.000L27.410,39.103L29.325,38.517L29.752,38.253L29.939,38.204L29.981,38.154L29.988,38.047L30.013,37.940L30.108,37.891L30.212,37.918L30.382,38.035L30.462,38.061L30.599,38.028L30.755,37.935L30.885,37.807L30.940,37.657L31.025,37.347L31.227,37.301L31.645,37.435L31.613,37.519L31.548,37.735L31.770,37.778L32.392,37.897L32.922,37.865L33.264,37.657L33.569,37.543L33.805,38.047L33.868,38.805L33.647,39.455L32.787,40.111L32.154,40.823L32.040,40.876L31.950,41.621L31.906,41.829L32.003,42.089L31.944,42.418L31.799,42.722L31.645,42.908L32.037,42.888L32.183,42.767L32.168,41.899L32.208,41.270L32.337,40.966L32.871,40.563L33.294,39.998L33.519,39.847L33.782,40.015L33.827,40.161L33.896,40.652L33.908,40.798L33.964,40.873L34.342,41.188L35.299,41.732L36.340,41.855L39.369,41.378L39.793,41.427L40.210,41.658L40.400,41.874L40.811,42.595L41.602,43.392L41.602,43.535L41.306,43.825L41.147,44.353L41.084,44.962L41.072,45.503L40.932,46.011L39.758,47.686L39.164,48.097L38.940,48.410L38.871,48.714L38.904,49.426L38.726,50.123L38.323,50.206L37.879,49.878L37.582,49.347L37.910,49.291L38.045,49.167L38.111,48.878L38.076,48.572L37.947,48.479L37.781,48.449L37.629,48.332L37.323,48.222L37.006,48.600L36.719,49.099L36.310,49.580L36.399,50.113L36.567,50.697L36.623,51.082L36.499,51.243L36.295,51.342L36.078,51.367L35.919,51.309L35.791,51.119L35.664,50.680L35.571,50.456L35.673,50.347L35.888,50.190L36.007,50.143L35.915,49.888L35.803,49.766L35.276,49.606L35.160,49.629L34.875,49.816L34.518,49.886L34.298,49.707L34.104,49.386L33.829,49.034L34.114,49.005L34.540,48.658L34.780,48.566L34.961,48.701L35.182,48.939L35.400,49.028L35.571,48.708L35.355,48.343L35.369,48.058L35.743,47.300L35.571,47.303L35.387,47.228L35.219,47.092L35.091,46.917L34.951,46.822L34.621,46.977L34.446,46.831L34.398,47.138L34.329,47.329L34.216,47.429L34.039,47.457L33.946,47.580L33.603,48.332L33.292,48.734L32.603,49.304L32.293,49.738L32.115,50.274L32.200,50.610L32.411,50.923L32.610,51.394L32.694,51.973L32.641,52.415L32.484,52.815L32.254,53.271L32.560,53.120L32.784,53.092L32.846,53.254L32.526,53.977L32.495,54.269L32.515,54.848L32.504,55.247L32.485,55.424L32.436,55.617L32.129,56.022L32.081,56.184L32.018,56.183L31.880,56.274L31.732,56.416L31.645,56.553L31.708,56.612L31.800,56.837L31.849,57.079L31.737,57.245L31.696,57.357L31.629,57.470L31.509,57.520L31.352,57.478L31.233,57.368L31.035,57.051L30.977,56.902L30.940,56.733L30.885,56.563L30.767,56.412L30.605,56.354L29.366,56.412L29.201,56.470L29.098,56.606L29.018,56.763L28.930,56.880L28.599,57.014L27.926,56.973L27.616,57.051L27.937,57.411L29.761,57.819L29.890,57.922L29.844,58.163L29.633,58.630L29.528,59.030L29.559,59.206L29.736,59.248L30.069,59.239L30.069,59.398L29.546,59.701L29.394,59.958L29.539,60.335L29.491,60.374L29.373,60.506L29.073,60.316L27.672,60.732L27.034,61.082L26.657,61.116L25.876,60.803L25.425,60.399L25.309,60.335L23.989,60.328L23.690,60.179L23.649,60.266L23.626,60.330L23.612,60.399L23.603,60.506L23.868,60.635L24.786,60.648L24.952,60.752L25.612,61.444L25.748,61.716L25.840,61.962L25.969,62.141L26.222,62.211L27.442,62.211L27.233,62.473L26.571,63.006L26.216,63.472L26.044,63.592L25.747,63.632L25.639,63.731L25.616,63.945L25.612,64.159L25.568,64.257L24.765,64.463L24.475,64.677L24.298,64.727L24.144,64.690L23.858,64.564L23.690,64.570L23.723,64.664L23.777,64.727L23.592,64.994L23.120,65.153L22.905,65.353L23.130,65.497L23.369,65.482L23.997,65.314L24.113,65.242L24.236,65.208L24.973,65.616L25.025,65.874L24.970,66.187L24.829,66.461L24.655,66.583L24.223,66.672L24.037,66.773L24.104,67.027L24.261,67.374L24.306,67.556L24.271,67.813L24.196,68.011L24.216,68.182L24.475,68.351L24.632,68.501L24.783,68.713L24.821,68.938L24.647,69.118L24.647,69.289L24.778,69.441L25.250,70.272L25.406,70.341L25.558,70.491L25.612,70.867L25.564,71.134L25.474,71.299L25.390,71.500L25.350,71.869L25.282,72.037L25.118,72.154L24.917,72.223L24.742,72.247L23.993,72.104L23.821,72.152L23.715,72.275L23.631,72.426L23.516,72.574L23.208,72.773L23.022,72.853L22.859,72.885L22.756,72.984L22.756,73.186L22.862,73.354L23.082,73.354L23.082,73.511L22.706,73.498L22.532,73.544L22.376,73.683L22.505,73.781L22.665,73.820L23.033,73.824L23.202,73.908L23.387,74.114L23.690,74.606L23.360,75.054L23.142,75.267L22.905,75.401L22.323,75.523L22.093,75.702L22.202,76.026L22.359,76.031L23.082,75.729L23.407,75.751L23.516,75.729L23.609,75.654L23.698,75.544L23.804,75.445L23.949,75.401L24.225,75.522L24.739,76.110L25.004,76.339L25.704,76.535L25.876,76.666L25.973,77.000L26.255,78.738L26.287,78.841L26.266,78.911L26.143,79.012L25.953,79.017L25.774,78.905L25.626,78.884L25.525,79.168L25.685,79.223L25.836,79.322L25.963,79.458L26.048,79.624L26.097,79.817L26.122,80.082L26.067,80.317L25.879,80.419L25.730,80.321L25.549,79.892L25.438,79.793L24.907,79.834L24.742,79.793L24.503,79.646L24.520,79.555L24.624,79.467L24.647,79.325L24.422,78.984L24.338,78.778L24.429,78.684L24.769,78.547L24.701,78.285L24.397,78.103L24.037,78.217L23.966,78.353L23.798,78.819L23.655,79.073L23.575,79.247L23.516,79.325L23.419,79.357L23.213,79.326L23.123,79.403L22.905,79.668L22.374,80.138L22.202,80.419L22.118,80.902L22.133,80.903L22.126,80.909L21.937,80.975L21.721,80.949L21.464,80.697L21.233,80.752L21.094,80.882L20.912,80.934L20.788,81.068L20.597,81.104L19.666,81.101L19.441,81.006L19.347,80.734L19.309,80.415L19.251,80.184L19.038,79.987L16.333,79.325L15.331,78.899L14.312,78.716L14.015,78.764L13.146,79.102L12.676,79.081L12.228,78.936ZM52.838,82.701L52.693,82.869L52.562,82.925L52.449,83.003L52.350,83.248L52.853,83.481L52.805,83.976L52.398,84.460L51.829,84.656L49.845,84.201L49.201,84.356L48.591,84.656L48.109,85.123L47.821,85.072L46.634,84.335L45.855,83.625L44.453,82.693L43.821,82.548L43.139,82.215L42.448,82.043L42.177,81.791L42.049,81.444L42.132,81.058L42.451,80.863L42.841,80.928L43.203,80.898L43.438,80.419L43.232,80.339L43.059,80.200L42.381,79.322L42.299,79.168L42.299,78.774L42.472,78.411L43.003,77.748L43.183,77.840L45.014,77.449L45.324,77.602L45.929,78.109L46.153,78.217L46.381,78.413L46.764,79.285L47.068,79.481L47.374,79.554L49.644,80.887L49.521,80.488L49.374,80.241L49.363,80.043L49.644,79.793L49.992,79.793L50.301,79.644L50.428,79.624L50.313,79.375L50.282,79.089L50.301,78.799L50.341,78.542L51.314,79.462L51.393,79.793L51.695,80.200L51.887,80.356L52.099,80.419L51.970,80.546L51.916,80.576L52.103,80.984L52.742,81.536L52.881,81.756L52.916,82.130L52.969,82.299L52.969,82.433L52.838,82.701ZM35.048,78.856L35.257,79.067L35.500,79.225L35.673,79.434L35.666,79.793L35.787,79.884L35.919,79.951L34.919,80.191L34.645,80.504L34.487,80.576L34.197,80.437L32.003,77.950L31.795,77.435L31.719,77.077L31.906,77.292L32.989,77.919L33.307,78.217L33.607,78.716L33.765,78.927L33.952,79.012L34.145,79.011L34.297,78.956L34.354,78.772L34.265,78.386L34.447,78.659L34.601,79.344L34.740,79.481L35.004,79.484L35.185,79.435L35.219,79.253L35.048,78.856ZM60.132,75.869L61.248,76.109L61.668,76.507L61.873,77.292L61.848,77.542L61.732,77.680L61.522,77.737L61.223,77.748L59.716,77.407L59.255,77.477L58.816,77.686L58.383,78.060L57.704,79.020L57.461,79.168L57.091,79.104L56.278,78.684L56.278,78.542L56.459,78.542L56.402,78.308L56.456,78.127L56.574,77.999L56.713,77.917L56.649,77.849L56.527,77.670L56.459,77.605L56.742,77.274L56.908,77.188L57.069,77.292L57.162,77.122L57.069,76.809L57.275,76.828L57.583,77.050L57.773,77.122L57.900,77.097L58.315,76.918L58.470,76.809L58.402,76.582L58.398,76.398L58.455,76.261L58.563,76.183L58.563,76.026L58.147,75.718L58.034,75.557L57.969,75.328L58.012,75.171L58.153,75.090L58.383,75.090L58.660,75.598L59.088,75.800L60.132,75.869ZM29.452,77.122L29.637,77.482L30.137,79.062L30.129,79.286L29.950,79.336L29.587,79.325L29.397,79.428L29.148,79.632L28.899,79.778L28.715,79.708L28.505,79.518L27.918,79.326L27.703,79.168L27.703,79.012L28.043,78.835L28.443,79.016L28.846,79.311L29.199,79.481L29.199,79.325L28.588,78.768L28.009,78.554L27.877,78.542L27.750,78.592L27.566,78.781L27.442,78.856L26.943,78.827L26.513,78.466L26.262,77.865L26.302,77.122L26.222,77.122L26.222,76.979L26.504,77.183L26.808,77.542L27.105,77.810L27.362,77.748L27.308,77.667L27.224,77.510L27.174,77.359L27.224,77.292L27.293,77.242L27.205,77.130L26.676,76.741L26.587,76.558L26.744,76.339L26.744,76.183L25.743,76.280L25.568,76.261L25.442,76.160L25.287,76.137L25.151,76.079L25.083,75.869L25.128,75.768L25.369,75.582L25.438,75.401L25.203,75.412L24.991,75.496L24.786,75.534L24.568,75.401L24.568,75.232L25.693,74.679L26.143,74.606L26.673,74.712L27.432,75.643L27.837,75.869L28.402,75.962L28.808,76.217L29.135,76.613L29.452,77.122ZM40.210,75.557L40.299,74.911L40.727,73.778L41.221,72.905L41.507,73.041L40.898,75.869L40.655,76.621L39.990,77.999L38.757,82.232L38.632,82.514L38.457,82.612L38.155,82.623L38.002,82.405L37.678,81.058L37.538,80.807L37.367,80.605L36.972,80.264L37.281,80.242L37.479,80.152L37.640,79.959L37.842,79.624L37.960,79.240L38.035,79.130L38.155,79.246L38.219,79.283L38.545,79.168L38.516,78.942L38.460,78.684L38.348,78.783L38.238,78.816L38.130,78.783L38.016,78.684L38.195,78.134L38.466,77.726L39.178,76.869L39.485,76.640L40.210,75.557ZM95.000,73.511L94.940,73.625L94.913,73.703L94.885,73.764L94.826,73.824L94.919,74.160L94.953,74.372L94.915,74.567L94.782,74.847L94.508,75.310L94.429,75.539L94.477,75.729L94.477,75.869L94.514,76.143L94.311,76.382L94.175,76.579L93.996,76.753L93.371,76.577L92.851,76.538L92.142,76.248L91.266,75.686L90.275,75.391L89.238,74.519L89.042,74.241L89.206,73.753L89.262,72.790L89.317,71.394L89.362,71.161L89.467,70.910L89.717,70.455L89.819,70.114L89.908,69.719L90.021,69.479L90.195,69.602L90.710,70.369L90.888,70.568L91.175,70.878L91.654,71.221L92.136,71.620L92.487,71.541L92.730,71.612L92.939,72.072L93.076,72.247L93.234,72.352L94.148,73.022L94.748,73.231L95.000,73.511ZM9.877,68.651L9.561,68.781L9.225,68.420L8.932,67.859L8.532,66.773L8.447,66.278L8.575,65.952L9.007,65.835L9.055,66.515L9.266,66.633L9.526,66.588L9.711,66.773L9.706,67.041L9.542,67.553L9.577,67.782L9.673,68.034L9.763,68.462L9.877,68.651ZM37.803,75.090L37.231,75.090L37.019,75.129L36.781,75.244L36.561,75.419L36.402,75.643L36.171,75.881L35.898,75.844L35.396,75.557L34.543,75.486L34.265,75.401L34.142,75.313L34.042,75.210L33.930,75.125L33.782,75.090L33.463,75.121L33.295,75.104L32.293,74.449L31.924,74.416L31.826,74.590L31.819,75.090L31.626,74.939L31.326,74.577L31.114,74.449L30.853,74.444L30.371,74.570L30.147,74.449L31.125,73.681L31.296,73.354L31.075,73.028L30.915,72.654L30.747,72.353L30.505,72.247L30.313,72.303L30.168,72.387L30.018,72.445L29.808,72.417L29.518,72.112L29.352,72.043L29.199,72.247L29.236,72.604L29.678,73.300L29.633,73.683L29.570,73.711L29.122,73.636L29.089,73.571L29.107,73.477L29.104,73.354L29.141,73.370L29.176,73.278L29.163,73.084L28.979,72.576L28.950,72.331L28.979,72.090L29.061,71.869L29.045,71.687L28.849,71.565L28.337,71.433L28.176,71.329L28.033,71.200L27.972,71.088L27.945,70.963L27.827,70.757L27.798,70.619L27.827,70.479L27.945,70.272L27.972,70.143L27.945,69.892L27.827,69.490L27.798,69.361L27.837,68.572L27.706,68.470L27.507,68.453L27.137,68.494L26.967,68.427L26.787,68.263L26.476,67.853L26.691,67.771L26.930,67.741L27.140,67.656L27.267,67.399L26.571,67.086L26.676,67.109L27.006,67.086L26.874,66.818L26.641,66.672L26.135,66.603L25.957,66.527L25.525,65.978L25.525,65.835L25.866,65.993L26.226,66.314L26.581,66.549L26.911,66.461L25.651,65.317L25.178,65.210L25.276,64.973L25.398,64.878L25.541,64.827L25.707,64.727L26.184,64.101L26.872,63.960L27.105,64.003L27.149,64.124L27.155,64.316L27.267,64.570L27.881,64.912L28.545,64.671L29.808,63.789L31.457,63.228L32.018,62.806L32.333,62.695L32.675,62.669L32.777,62.695L32.785,62.764L32.865,63.089L32.871,63.162L33.051,63.094L33.096,62.921L33.053,62.452L33.229,62.404L33.622,62.590L34.502,63.212L34.701,63.462L34.859,63.744L34.971,63.894L35.091,63.960L35.325,63.989L35.537,64.070L35.923,64.346L35.714,64.260L35.515,64.260L35.367,64.379L35.309,64.649L35.356,64.749L35.544,64.903L35.571,65.040L35.504,65.231L35.400,65.283L35.272,65.292L35.135,65.353L34.658,66.055L34.867,66.437L35.320,66.415L35.571,65.907L35.714,65.946L36.536,65.509L37.019,65.353L37.075,65.281L37.050,65.125L36.987,64.968L36.928,64.897L36.814,64.867L36.692,64.788L36.589,64.683L36.536,64.570L36.573,64.369L36.732,64.445L36.901,64.622L36.972,64.727L37.134,64.472L37.092,64.112L36.969,63.709L36.885,63.319L36.947,63.424L37.144,63.632L37.149,63.246L37.065,62.678L37.067,62.524L37.310,62.510L37.684,62.939L38.286,63.960L38.311,64.106L38.323,64.310L38.351,64.492L38.416,64.570L38.448,64.621L38.720,64.897L38.800,65.213L38.773,65.398L38.655,65.526L38.284,65.772L37.691,66.034L36.810,65.950L36.592,65.999L36.440,66.135L36.372,66.426L36.490,66.572L36.696,66.580L36.885,66.461L36.826,66.343L36.812,66.270L36.906,66.035L37.159,66.099L38.016,66.304L38.207,66.480L39.466,68.351L39.548,68.552L39.870,69.541L39.946,69.914L39.852,69.914L39.701,69.672L39.469,69.515L39.257,69.579L39.164,69.987L39.236,70.267L39.577,70.826L39.678,71.167L39.702,71.660L39.670,72.112L39.585,72.499L39.391,72.968L39.354,73.138L39.338,73.597L39.297,73.717L38.983,74.150L38.863,74.430L38.778,74.691L38.662,74.916L38.460,75.090L38.304,75.129L37.803,75.090ZM62.664,60.803L63.405,62.695L63.414,62.792L62.966,63.319L62.772,63.379L62.536,63.525L62.321,63.706L62.182,63.874L61.906,63.955L61.632,63.524L61.450,62.896L61.445,62.381L61.584,62.091L61.749,61.897L61.913,61.746L62.047,61.585L62.184,61.300L62.400,60.729L62.570,60.506L62.623,60.643L62.643,60.704L62.664,60.803ZM36.440,56.724L36.615,56.436L36.717,56.077L36.706,55.687L36.536,55.303L36.302,55.133L36.044,55.021L35.879,54.778L35.919,54.208L36.050,53.908L36.243,53.707L36.407,53.758L36.502,54.718L36.706,55.115L36.994,55.373L37.318,55.474L37.205,55.700L37.154,55.944L37.167,56.185L37.231,56.412L37.451,56.727L37.604,56.636L37.713,56.392L37.803,56.256L37.842,56.409L37.660,56.744L37.318,57.193L37.255,57.607L37.269,58.371L37.144,58.772L36.731,59.163L36.284,59.038L35.941,58.503L35.830,57.663L35.903,57.199L36.036,57.007L36.220,56.910L36.440,56.724ZM55.327,79.012L55.563,78.981L55.810,78.901L56.042,78.895L56.238,79.090L56.596,79.654L56.982,80.121L56.982,80.264L55.854,81.223L55.668,81.444L55.169,82.434L55.101,82.623L54.974,82.719L54.631,83.150L54.496,83.248L54.311,83.567L54.304,84.294L54.448,85.593L54.416,86.414L54.162,86.441L53.896,86.089L53.838,85.764L53.656,85.503L53.238,84.646L53.143,84.356L53.162,83.881L53.315,83.513L53.666,82.935L53.408,82.878L53.228,82.751L53.183,82.517L53.317,82.140L53.172,82.050L53.093,81.933L52.969,81.670L52.377,81.029L52.330,80.924L52.273,80.733L52.246,80.549L52.262,80.427L52.259,80.304L52.178,80.121L51.956,79.856L51.759,79.694L51.619,79.467L51.568,79.012L51.564,78.592L51.522,78.269L51.393,78.043L51.132,77.917L51.132,77.748L51.621,77.346L51.742,77.292L51.925,77.362L52.172,77.676L52.312,77.748L52.450,77.659L52.740,77.337L52.794,77.371L52.877,77.497L53.058,77.393L53.317,77.122L53.317,76.979L53.183,76.800L52.944,76.101L52.794,75.869L51.938,75.449L51.695,75.401L51.627,75.352L51.458,75.137L51.353,75.090L50.546,75.041L50.306,74.905L50.098,74.704L49.913,74.449L50.598,74.600L51.945,75.246L52.612,75.401L52.329,74.870L51.540,74.259L51.211,73.683L52.312,73.474L52.383,73.382L52.350,73.198L52.075,72.961L51.350,73.017L51.132,72.716L51.321,72.509L51.429,72.241L51.408,71.978L51.211,71.791L50.923,71.797L50.708,71.996L50.525,72.249L50.341,72.417L50.173,72.402L49.703,72.180L48.744,71.933L48.512,71.791L48.338,71.886L47.456,71.480L47.292,71.521L46.943,71.726L46.764,71.791L45.885,71.791L45.885,71.947L46.146,72.104L45.705,72.087L45.387,71.968L45.188,71.643L45.101,71.010L45.287,71.151L45.475,71.159L45.630,71.012L45.710,70.697L45.579,70.799L45.443,70.849L45.145,70.867L45.104,70.742L45.139,70.184L45.057,70.058L44.828,69.915L44.127,69.253L44.008,69.040L44.124,68.984L44.309,68.962L44.460,68.884L44.484,68.651L44.384,68.537L44.201,68.483L44.005,68.473L43.874,68.494L43.786,68.618L43.728,68.811L43.635,68.962L43.438,68.962L43.359,68.859L43.178,68.351L43.178,68.181L43.520,68.216L43.703,68.199L43.831,68.103L43.943,67.953L44.089,67.830L44.249,67.743L44.396,67.712L44.665,67.588L44.791,67.314L44.777,67.041L44.622,66.916L44.671,66.684L44.564,66.168L44.309,65.353L44.149,65.068L43.986,64.875L43.788,64.765L43.526,64.727L43.298,64.894L43.153,64.938L43.091,64.812L43.115,64.503L43.188,64.336L43.311,64.271L43.482,64.257L43.818,64.129L43.952,63.799L43.917,63.368L43.744,62.929L43.180,62.204L42.559,61.826L41.166,61.444L41.166,61.273L43.178,61.444L42.965,61.059L42.169,60.708L41.863,60.506L41.731,60.283L41.654,60.110L41.552,59.974L41.340,59.866L40.675,59.815L40.471,59.695L40.471,59.552L42.481,59.866L42.897,59.793L43.694,59.470L44.135,59.398L44.135,59.552L43.994,59.532L43.859,59.541L43.728,59.592L43.613,59.695L43.813,60.095L44.143,60.408L44.516,60.523L44.839,60.335L44.309,59.866L44.484,59.695L44.603,59.819L44.816,59.873L45.275,59.866L45.482,59.782L45.916,59.466L46.353,59.365L46.551,59.253L46.701,59.040L46.764,58.700L46.777,58.521L46.837,58.205L46.850,58.060L46.804,57.878L46.582,57.549L46.502,57.364L46.827,57.583L47.140,57.637L47.437,57.509L47.713,57.193L48.149,57.290L48.502,56.668L48.569,55.762L48.147,55.004L47.778,54.848L46.960,54.787L45.943,54.398L45.654,54.143L45.536,53.740L47.167,54.532L47.504,54.451L49.469,54.764L49.703,54.988L50.232,54.957L51.132,54.677L51.596,54.388L51.857,54.336L52.003,54.535L51.947,54.764L51.589,55.200L51.480,55.474L51.630,55.713L51.547,55.865L51.341,55.899L51.132,55.787L51.159,55.703L51.211,55.474L50.805,55.496L50.640,55.587L50.515,55.787L51.147,56.911L51.389,57.538L51.211,57.990L51.017,58.024L50.619,57.914L50.428,57.990L50.195,58.331L50.045,58.457L49.810,58.459L49.810,58.630L50.020,58.699L50.649,58.630L50.820,58.552L51.022,58.392L51.246,58.272L51.480,58.302L51.566,58.485L51.698,58.861L51.798,59.230L51.786,59.398L50.760,59.586L50.534,59.681L50.441,59.825L50.602,60.008L50.786,60.036L51.359,59.991L51.480,59.936L51.577,59.821L51.790,60.042L52.099,60.506L52.190,60.808L52.182,60.920L52.107,61.059L52.003,61.444L52.231,61.227L52.396,61.010L52.928,59.824L52.955,59.795L52.969,59.780L52.941,59.616L52.822,59.325L52.794,59.239L52.835,58.977L52.933,58.647L53.143,58.132L53.333,57.928L53.784,57.797L54.013,57.663L54.220,57.016L53.959,56.269L53.658,55.597L53.751,55.161L53.979,55.180L54.429,55.663L54.667,55.787L54.789,55.887L54.785,56.117L54.733,56.374L54.710,56.553L54.765,56.843L54.814,56.947L54.874,57.017L54.971,57.193L55.210,57.861L55.437,58.806L55.474,59.692L55.145,60.179L54.684,60.009L54.463,60.041L54.370,60.419L54.278,60.682L53.830,61.124L53.666,61.444L53.924,61.502L54.291,61.330L54.585,61.015L54.623,60.648L54.826,60.562L55.036,60.630L55.219,60.824L55.327,61.116L54.930,60.978L54.877,61.031L54.957,61.241L55.151,61.400L55.581,61.585L55.693,61.105L55.986,60.377L56.024,59.866L55.494,57.364L55.494,56.553L55.447,56.226L55.145,55.004L54.947,54.686L54.715,54.564L54.438,54.580L53.464,54.983L53.096,55.050L52.881,54.848L53.097,54.286L53.757,53.716L54.971,52.958L56.921,51.286L57.938,50.713L59.000,50.755L60.103,51.394L61.011,51.394L61.257,51.528L61.703,51.935L62.082,52.098L62.743,52.659L62.570,53.020L62.047,53.740L61.861,54.127L61.514,55.038L61.350,55.303L61.350,55.474L61.702,55.991L61.882,56.343L61.960,56.640L62.018,57.070L62.157,57.573L62.332,58.024L62.492,58.302L62.438,58.526L62.411,58.831L62.396,59.318L62.323,59.713L62.309,59.866L62.326,59.976L62.371,60.093L62.492,60.335L62.224,60.690L61.711,61.702L61.230,62.042L61.147,62.323L61.024,62.596L60.742,62.695L60.532,62.618L60.382,62.491L60.215,62.390L59.958,62.381L59.037,62.927L58.791,63.188L57.979,64.052L57.977,64.055L57.338,65.398L57.679,66.603L58.299,67.167L58.517,67.243L59.301,67.300L59.515,67.399L60.067,67.879L60.356,68.233L60.481,68.572L60.503,68.966L60.561,69.297L60.742,69.914L60.553,70.157L60.481,70.228L59.816,70.715L57.143,71.359L56.941,71.584L56.614,71.798L56.356,72.186L56.202,72.652L56.278,73.041L56.182,73.239L56.074,73.323L55.961,73.304L55.841,73.198L55.936,72.706L55.789,72.395L55.531,72.309L55.281,72.495L55.167,72.607L55.067,72.646L54.999,72.726L54.971,72.963L55.040,73.057L55.406,73.354L56.476,73.450L56.962,73.619L57.069,74.150L56.997,74.376L56.916,74.471L56.823,74.519L56.713,74.606L56.449,74.756L56.323,74.877L56.415,74.933L56.895,76.026L56.881,76.461L56.711,76.696L56.449,76.791L56.151,76.809L55.953,76.890L55.525,77.231L55.232,77.292L54.787,77.099L54.096,76.422L53.666,76.339L53.658,76.448L53.679,76.474L53.713,76.473L53.751,76.496L53.682,76.540L53.643,76.593L53.595,76.640L53.500,76.666L53.556,77.102L53.465,77.363L53.345,77.589L53.317,77.917L53.411,78.173L53.579,78.325L53.772,78.349L53.934,78.217L53.901,78.133L53.838,77.917L53.949,77.902L54.274,77.748L54.378,77.876L54.560,78.296L54.585,78.386L54.703,78.478L55.117,78.897L55.327,79.012ZM48.591,37.735L48.557,37.399L48.701,37.278L49.789,37.164L50.341,36.952L50.341,37.124L50.287,37.127L50.245,37.158L50.167,37.265L49.940,37.372L49.765,37.605L49.615,37.864L49.469,38.061L49.254,38.148L48.993,38.120L48.749,37.981L48.591,37.735ZM14.333,36.627L14.165,36.840L13.637,37.265L13.571,37.660L12.554,37.938L12.197,38.132L12.071,38.065L11.730,37.312L11.591,37.124L11.278,36.796L10.972,36.641L10.891,36.627L10.495,36.777L10.364,36.756L10.408,36.485L10.468,36.370L10.564,36.272L10.678,36.199L10.798,36.171L10.856,36.071L10.836,35.850L10.790,35.633L10.755,35.545L11.109,35.282L12.011,35.157L12.330,34.749L12.170,34.765L12.011,34.749L11.861,34.698L11.722,34.608L11.794,34.390L12.049,34.051L12.156,33.810L12.114,33.829L12.087,33.641L12.071,33.264L12.111,33.184L12.210,33.178L12.323,33.193L12.410,33.186L12.776,33.050L13.525,32.927L13.898,32.718L14.177,32.814L14.434,32.484L14.863,31.609L15.156,31.796L15.343,31.539L15.486,31.240L15.647,31.296L15.573,31.481L15.424,31.766L15.386,31.935L15.411,32.034L15.539,32.353L15.568,32.547L15.539,32.595L15.386,33.342L15.284,33.628L15.218,33.731L15.125,33.810L15.122,33.538L15.057,33.363L14.960,33.255L14.863,33.186L14.561,33.430L14.508,33.513L14.468,33.754L14.501,33.902L14.559,34.008L14.603,34.125L14.707,34.888L14.819,35.123L15.038,35.218L14.957,35.333L14.876,35.385L14.786,35.397L14.683,35.391L14.777,35.458L14.863,35.545L14.694,35.801L14.502,36.320L14.333,36.627ZM43.874,23.150L44.226,23.142L44.373,23.197L44.484,23.307L44.575,23.585L44.565,23.826L44.471,24.022L44.187,23.965L43.886,23.860L42.908,24.090L43.114,24.260L43.260,24.601L43.221,24.972L42.916,25.302L42.742,25.581L42.635,25.890L42.427,26.137L42.032,26.229L41.778,26.027L41.445,25.409L40.995,25.325L40.641,25.143L40.415,24.930L40.210,24.701L40.210,24.557L40.636,24.467L41.055,24.068L41.378,23.785L41.892,23.754L42.188,23.665L42.413,23.417L43.359,23.423L43.874,23.150Z" fill="currentColor" stroke="currentColor" stroke-width="1.5" stroke-linejoin="round"/>
</svg>