<svg xmlns="http://www.w3.org/2000/svg" viewBox="0 0 100 100" role="img" aria-label="Dominican Republic">
  <title>Dominican Republic</title>
  <path d="M11.171,24.996L11.639,25.099L12.078,25.323L11.986,24.814L11.552,23.817L11.578,23.561L11.578,23.368L10.921,23.334L10.838,23.059L11.102,22.652L11.487,22.231L11.598,22.153L11.723,22.126L11.995,22.134L12.162,22.065L12.433,21.734L12.579,21.604L12.871,21.488L13.088,21.434L13.302,21.333L13.582,21.076L13.415,20.752L13.388,20.463L13.518,20.259L13.832,20.179L14.021,20.208L14.313,20.341L14.500,20.370L14.582,20.315L14.752,20.073L14.841,20.019L17.352,19.827L17.990,19.916L18.621,20.143L20.955,21.352L21.640,21.491L22.291,21.238L22.783,21.597L23.135,21.759L24.219,21.797L24.504,21.718L24.571,21.519L24.584,21.257L24.713,20.988L25.001,20.876L25.207,21.116L25.478,21.797L25.669,21.679L25.813,21.553L25.914,21.408L25.979,21.238L25.772,21.173L25.728,21.141L25.724,21.074L25.645,20.899L26.028,21.049L26.350,21.031L26.677,20.949L27.072,20.899L27.322,20.708L27.775,19.858L28.074,19.666L28.446,19.572L29.238,19.178L29.667,19.121L30.062,19.223L30.438,19.443L30.641,19.767L30.516,20.179L30.987,20.370L31.169,20.370L31.047,19.972L30.987,19.827L32.170,20.019L32.518,19.983L33.241,19.814L33.521,19.827L33.822,20.029L34.897,21.311L34.986,21.557L34.856,21.797L35.777,21.803L36.129,21.976L37.061,22.758L37.947,23.208L38.889,23.539L39.979,23.703L41.456,23.715L41.579,23.640L41.704,23.467L42.000,23.263L42.334,23.092L42.580,23.015L43.534,23.316L45.025,24.891L45.918,25.835L46.324,26.124L46.770,26.351L47.271,26.502L48.386,26.620L49.283,26.944L50.924,27.268L51.290,27.261L51.535,27.170L51.753,26.982L52.645,26.029L53.108,25.814L54.463,25.835L55.126,25.771L55.427,25.808L55.799,26.028L56.632,26.910L56.895,27.510L56.881,28.166L56.480,29.585L56.970,29.791L57.156,30.249L57.149,31.428L57.208,31.940L57.365,32.350L58.993,34.787L59.724,35.500L59.817,35.591L60.653,35.931L61.149,35.849L62.098,35.485L62.587,35.403L63.688,35.358L64.175,35.254L64.675,35.050L65.398,34.567L65.677,34.506L65.930,34.560L66.448,34.815L66.769,34.872L67.361,34.724L67.618,34.697L67.760,34.702L67.893,34.734L67.989,34.812L68.029,34.962L68.106,35.088L68.276,35.039L68.544,34.872L69.963,35.452L70.381,35.755L70.657,35.195L71.107,34.781L72.217,34.167L72.931,33.949L73.100,34.247L72.911,34.863L72.551,35.594L73.039,35.774L73.590,35.770L74.125,35.632L74.569,35.403L74.714,35.969L74.396,36.413L73.957,36.817L73.735,37.261L73.630,37.729L73.345,38.150L72.918,38.459L72.384,38.591L70.465,38.238L68.363,38.399L67.868,38.257L66.961,37.804L63.845,37.418L63.494,37.514L63.359,37.860L63.280,39.088L63.097,40.136L63.172,40.529L63.406,40.697L63.709,40.917L65.058,40.710L65.524,40.882L66.105,40.695L67.255,41.143L67.862,41.074L67.713,40.945L67.517,40.828L67.283,40.740L67.012,40.706L67.012,40.529L68.317,40.460L68.697,40.529L69.131,40.849L69.467,41.642L69.880,41.956L70.298,42.067L71.139,42.171L73.409,42.788L74.350,43.042L74.736,43.015L75.195,42.754L75.043,42.565L74.739,42.382L74.736,42.132L75.175,42.007L75.557,42.354L76.071,43.191L76.403,43.384L76.773,43.496L77.090,43.634L77.255,43.911L77.547,43.671L78.144,43.395L78.425,43.191L78.238,42.983L78.327,42.933L78.547,42.926L78.757,42.853L79.013,42.586L79.090,42.481L79.187,42.474L80.063,42.521L80.575,42.625L81.035,42.790L81.443,43.015L81.490,43.086L81.491,43.180L81.510,43.277L81.610,43.366L82.110,43.542L82.155,43.534L83.030,43.719L83.576,43.740L83.797,43.819L83.838,43.849L84.038,43.992L84.262,44.118L84.698,44.153L84.949,44.248L87.790,46.895L88.834,48.168L90.309,49.297L91.365,50.036L91.665,50.171L91.823,50.274L92.927,51.343L94.326,52.196L95.000,53.230L94.867,54.242L92.569,57.755L92.407,57.896L92.245,58.071L92.171,58.316L92.216,59.213L92.171,59.470L91.893,59.908L91.490,60.115L90.985,60.176L90.404,60.176L89.956,60.024L88.987,59.384L88.635,59.278L88.231,59.550L88.295,59.965L88.425,60.456L88.217,60.960L87.917,61.364L87.727,61.831L87.350,63.334L87.214,63.600L86.936,63.701L84.869,63.866L84.447,63.716L84.391,62.770L83.797,61.520L82.983,60.305L82.263,59.470L81.496,58.936L80.480,58.502L79.457,58.356L78.278,58.843L76.497,58.926L76.034,58.843L74.963,58.478L74.477,58.398L74.055,58.260L73.348,57.655L72.808,57.516L72.336,57.615L71.857,57.778L71.372,57.812L70.882,57.516L70.371,57.992L67.194,58.238L66.245,58.589L65.744,58.602L64.406,57.671L63.865,57.381L63.505,57.339L63.350,57.581L63.363,57.871L63.407,58.162L63.339,58.398L63.120,58.471L62.777,58.470L62.462,58.409L62.324,58.316L61.913,57.613L61.718,57.423L61.536,57.365L57.768,56.949L57.086,56.981L56.982,56.986L56.587,57.104L55.819,57.478L55.186,57.909L54.946,58.024L54.296,58.238L54.039,58.369L53.732,58.526L53.185,59.014L52.774,59.665L52.611,60.440L52.482,60.651L51.920,60.949L51.792,61.137L51.692,61.422L50.867,62.195L50.273,62.883L49.937,63.172L49.788,63.100L49.195,63.117L48.740,63.195L48.437,63.365L48.005,63.097L47.546,62.999L44.417,63.012L43.892,63.179L42.886,63.753L42.315,63.878L40.621,63.874L40.228,63.716L40.194,63.494L40.371,63.321L40.600,63.170L40.714,63.012L40.644,62.733L40.478,62.579L40.306,62.481L40.121,62.227L39.653,61.922L39.547,61.682L39.606,61.426L39.751,61.308L39.917,61.219L40.045,61.041L40.158,60.522L40.173,59.977L40.107,59.499L39.970,59.190L39.433,58.514L39.110,58.282L38.544,58.061L38.061,57.948L37.452,57.900L36.929,58.042L36.708,58.493L36.792,59.033L36.730,59.249L36.004,59.971L35.804,60.100L35.541,60.176L35.255,60.165L34.747,60.006L34.522,59.983L34.333,60.058L33.993,60.300L33.764,60.352L33.453,60.312L33.345,60.380L33.103,60.609L33.036,60.705L32.882,61.025L32.853,61.137L32.787,61.239L32.459,61.348L32.337,61.409L31.687,62.186L31.339,62.394L30.760,62.467L30.525,62.379L30.373,62.170L30.244,61.911L30.085,61.682L29.829,61.489L29.570,61.375L28.509,61.143L28.018,61.134L27.636,61.288L27.483,61.682L27.431,61.900L27.214,62.277L27.162,62.565L27.209,62.895L27.328,63.077L27.491,63.242L27.664,63.526L28.063,64.930L28.191,65.171L28.195,65.479L27.719,66.206L27.314,67.244L25.000,70.649L24.797,71.233L24.695,71.441L24.463,71.603L23.977,71.858L23.677,72.114L23.462,72.366L23.295,72.678L23.141,73.107L22.960,73.043L22.891,72.999L22.792,72.916L22.755,73.103L22.717,73.169L22.625,73.251L22.792,73.251L22.694,73.469L22.566,73.635L22.410,73.743L22.216,73.781L22.127,73.887L21.967,74.402L21.874,74.589L21.575,75.023L20.752,77.449L20.499,77.921L19.488,79.350L19.244,79.234L19.033,79.032L19.021,78.924L18.782,78.716L17.101,75.917L16.692,75.470L15.869,75.149L13.916,75.413L13.081,75.206L13.317,75.023L14.097,74.206L14.264,73.876L14.228,73.321L14.125,72.930L13.748,72.194L13.484,71.788L13.432,71.639L13.415,71.329L13.582,70.352L13.400,69.901L12.970,69.400L12.078,68.653L10.711,68.133L11.004,67.353L11.092,66.906L11.038,66.156L11.054,65.726L10.996,65.437L10.733,64.698L10.697,64.453L10.765,63.945L10.958,63.460L12.044,61.582L12.059,61.557L12.347,61.059L12.294,60.985L12.069,60.783L11.720,60.551L10.406,60.053L9.484,59.435L9.285,59.205L8.914,58.653L8.708,58.470L7.754,58.229L7.388,58.026L7.241,57.549L7.334,57.265L7.517,57.160L7.647,57.018L7.586,56.631L7.428,56.386L5.217,54.109L5.000,53.687L5.421,53.369L6.329,53.176L8.167,53.517L9.114,53.192L9.432,52.848L9.935,51.987L10.268,51.612L10.331,51.573L10.499,51.469L11.155,51.061L11.498,50.779L11.791,50.298L11.958,49.862L12.078,49.385L12.114,48.900L11.917,47.885L11.892,46.839L11.757,46.361L11.575,46.128L11.015,45.614L10.791,45.351L10.445,44.619L10.222,44.438L9.649,44.419L9.042,44.627L8.603,44.696L8.531,44.248L8.953,43.962L10.208,43.624L10.529,43.425L11.589,42.248L12.320,41.221L12.690,40.889L13.519,40.294L13.827,39.837L13.952,39.393L14.064,37.853L13.755,37.703L12.171,36.933L11.364,36.108L11.261,36.003L10.826,35.389L10.704,34.874L10.865,34.711L11.524,34.335L11.757,34.152L12.066,33.365L12.201,33.218L12.481,32.625L12.497,31.472L12.205,29.454L11.522,27.837L11.409,27.251L11.449,26.574L11.474,26.164L11.387,25.707L11.171,24.996ZM16.866,80.879L16.458,80.645L16.453,80.089L16.677,79.440L16.950,78.924L17.295,79.121L17.646,79.379L18.269,79.983L17.892,80.103L17.284,80.732L16.866,80.879ZM86.799,64.775L88.062,64.737L88.395,64.856L88.641,65.187L88.915,65.694L89.094,66.159L89.053,66.362L88.682,66.279L87.893,65.916L87.482,65.833L87.047,65.886L86.290,66.129L85.874,66.186L85.014,65.956L84.402,65.399L84.008,64.706L83.795,64.069L84.158,63.961L84.586,64.044L85.011,64.254L85.374,64.519L85.657,64.619L86.799,64.775Z" fill="currentColor" stroke="currentColor" stroke-width="1.5" stroke-linejoin="round"/>
</svg>