<svg xmlns="http://www.w3.org/2000/svg" viewBox="0 0 100 100" role="img" aria-label="Algeria">
  <title>Algeria</title>
  <path d="M21.826,65.008L21.069,64.480L20.313,63.951L19.556,63.423L18.800,62.894L18.272,62.542L18.165,62.471L17.542,62.056L16.811,61.569L16.080,61.082L15.350,60.595L14.487,60.021L13.625,59.446L12.763,58.872L11.900,58.297L11.037,57.722L10.175,57.147L9.313,56.573L8.450,55.998L7.588,55.424L6.726,54.849L5.863,54.275L5.000,53.700L5.000,53.235L5.000,52.771L5.000,52.307L5.000,51.843L5.000,51.547L5.000,51.251L5.000,50.956L5.000,50.660L5.000,50.364L5.000,50.068L5.000,49.772L5.000,49.476L5.000,49.180L5.000,48.884L5.000,48.589L5.000,48.293L5.000,47.997L5.000,47.701L5.000,47.405L5.000,47.109L5.000,46.884L5.016,46.751L5.064,46.658L5.146,46.587L5.704,46.285L5.900,46.129L6.098,46.019L6.153,45.963L6.303,45.699L6.368,45.646L6.522,45.578L6.593,45.535L6.882,45.260L7.179,45.059L7.670,44.842L7.816,44.741L8.214,44.364L8.675,44.054L8.941,43.806L9.151,43.698L9.217,43.645L9.483,43.377L9.632,43.311L9.836,43.320L10.029,43.353L10.126,43.357L10.222,43.346L10.313,43.313L10.808,43.341L11.204,42.927L11.692,42.720L12.027,42.685L12.514,42.720L13.275,43.030L13.641,42.685L14.250,42.616L14.890,42.444L15.499,42.375L16.138,42.375L16.687,42.375L17.205,42.271L17.753,42.202L17.905,42.651L18.271,42.789L18.697,42.651L19.154,42.064L19.550,41.443L19.854,40.856L20.281,40.408L20.738,40.097L21.225,39.683L21.590,39.407L22.047,39.166L22.687,38.890L23.296,38.406L23.783,37.785L24.210,37.544L24.728,37.406L25.398,37.371L26.129,37.199L26.951,36.785L26.921,36.474L26.890,36.163L27.103,35.956L27.347,35.577L27.111,35.207L27.106,35.111L27.086,35.023L27.044,34.932L26.993,34.887L26.836,34.812L26.758,34.739L26.639,34.553L26.577,34.489L26.501,34.469L26.436,34.503L26.309,34.620L26.231,34.654L26.158,34.649L26.107,34.605L26.091,34.519L26.120,34.422L26.213,34.270L26.222,34.158L26.194,33.785L26.212,33.695L26.267,33.628L26.507,33.458L26.829,33.437L26.890,32.161L27.187,32.010L27.373,32.051L27.535,32.038L28.809,31.816L29.753,31.540L30.515,31.436L30.332,30.953L30.031,30.182L30.282,30.045L31.091,29.979L31.873,29.769L32.472,29.796L32.749,29.808L33.062,29.822L33.403,29.838L33.766,29.854L34.142,29.871L34.525,29.889L34.907,29.906L35.280,29.923L35.637,29.939L35.971,29.954L36.274,29.968L36.538,29.980L36.757,29.990L36.923,29.997L37.027,30.002L37.064,30.004L37.393,30.019L37.564,29.979L37.650,29.804L37.628,29.701L37.557,29.640L37.466,29.613L37.383,29.614L37.221,29.677L37.151,29.675L37.131,29.595L37.148,29.564L37.220,29.509L37.247,29.483L37.275,29.430L37.281,29.390L37.280,29.348L37.289,29.289L37.358,28.838L37.417,28.660L37.460,28.572L37.531,28.483L37.601,28.448L37.782,28.422L37.944,28.358L38.088,28.252L38.341,27.981L38.274,27.869L37.055,26.971L36.779,26.873L36.636,26.756L36.045,25.812L36.230,25.684L36.263,25.651L36.289,25.610L36.307,25.563L36.317,25.513L36.330,25.405L36.332,25.289L36.304,25.187L36.230,25.119L36.103,25.031L35.990,24.931L35.900,24.810L35.841,24.655L35.763,24.514L35.542,24.309L35.502,24.147L35.503,23.661L35.548,23.536L35.608,23.412L35.690,23.137L35.755,23.044L35.810,22.910L35.790,22.747L35.594,22.301L35.546,22.243L35.470,22.190L35.319,22.138L35.252,22.094L35.226,22.016L35.246,21.940L35.288,21.891L35.339,21.849L35.383,21.796L35.416,21.723L35.419,21.669L35.373,21.525L35.334,21.282L35.348,21.050L35.551,20.255L35.562,20.156L35.552,20.093L35.540,20.024L35.229,19.114L35.119,18.894L34.952,18.708L35.417,18.179L35.368,18.152L35.209,18.107L34.684,17.601L34.720,17.517L34.948,17.186L35.055,16.963L35.111,16.923L35.127,16.887L35.048,16.811L34.590,16.539L34.442,16.409L34.211,16.275L34.151,16.208L34.129,16.139L34.124,16.072L34.107,16.014L34.051,15.974L33.856,15.957L33.709,15.868L33.573,15.748L33.411,15.639L33.278,15.592L33.200,15.494L33.159,15.363L33.152,15.169L33.250,15.135L33.268,15.141L33.283,15.143L33.297,15.150L33.310,15.172L33.439,15.111L33.590,15.142L33.747,15.205L33.894,15.239L34.176,15.202L34.276,15.233L34.312,15.239L34.341,15.229L34.417,15.172L34.825,15.062L34.939,14.985L34.975,14.977L35.106,14.981L35.163,14.970L35.231,14.924L35.374,14.767L35.653,14.679L35.701,14.649L35.737,14.562L36.256,14.151L36.341,14.124L36.755,14.082L36.870,14.050L36.894,14.038L36.916,14.019L37.031,13.885L37.113,13.863L37.196,13.809L37.266,13.743L37.314,13.682L37.351,13.584L37.403,13.349L37.447,13.261L37.498,13.184L37.651,12.814L37.682,12.763L37.733,12.741L37.835,12.735L37.858,12.712L37.971,12.564L38.017,12.532L38.120,12.463L38.254,12.346L38.304,12.270L38.337,12.239L38.495,12.205L38.578,12.154L38.648,12.098L38.715,12.058L38.818,12.029L38.872,12.033L38.896,12.075L38.919,12.095L38.971,12.074L39.137,11.984L39.243,11.815L39.345,11.788L39.380,11.807L39.413,11.842L39.452,11.875L39.509,11.890L39.553,11.895L39.638,11.920L39.687,11.926L39.739,11.941L39.762,11.977L39.782,12.021L39.821,12.058L39.864,12.068L40.030,12.058L40.108,12.040L40.197,12.001L40.270,11.943L40.323,11.804L40.376,11.796L40.436,11.812L40.481,11.819L40.527,11.793L40.557,11.760L40.760,11.366L40.764,11.313L40.754,11.300L40.745,11.269L40.743,11.236L40.749,11.215L40.774,11.209L40.799,11.221L40.821,11.239L40.838,11.246L40.882,11.243L40.973,11.251L41.017,11.246L41.199,11.164L41.320,11.131L41.374,11.162L41.394,11.217L41.441,11.244L41.491,11.259L41.523,11.276L41.538,11.328L41.511,11.395L41.523,11.448L41.594,11.520L41.708,11.573L42.019,11.634L42.206,11.707L42.299,11.724L42.343,11.715L42.477,11.687L42.671,11.594L42.851,11.472L42.989,11.347L43.143,11.058L43.188,10.934L43.336,10.622L43.372,10.507L43.378,10.452L43.393,10.421L43.430,10.398L43.473,10.376L43.510,10.351L43.720,10.146L43.795,10.097L44.074,10.008L44.122,9.977L44.142,9.944L44.238,9.888L44.274,9.857L44.289,9.814L44.310,9.697L44.330,9.655L44.408,9.616L44.514,9.596L44.706,9.588L44.806,9.570L44.879,9.525L44.944,9.469L45.265,9.269L45.430,9.225L45.505,9.164L45.572,9.096L45.645,9.048L45.729,9.030L46.065,9.004L46.121,9.000L46.189,8.970L46.335,8.877L46.607,8.809L46.676,8.761L46.721,8.715L46.821,8.652L46.870,8.607L46.890,8.569L46.901,8.526L46.919,8.482L46.959,8.439L47.034,8.410L47.228,8.367L47.392,8.268L47.706,8.267L47.802,8.236L47.976,8.150L48.080,8.132L48.266,8.136L48.354,8.128L48.453,8.099L48.708,7.981L48.799,7.967L48.879,7.980L49.069,8.044L49.170,8.065L49.273,8.060L49.452,8.012L50.251,7.970L50.320,7.967L50.364,7.957L50.466,7.911L50.514,7.899L50.553,7.905L50.646,7.929L50.696,7.930L50.934,7.870L51.179,7.857L51.382,7.896L51.436,7.899L51.816,7.857L52.905,7.559L52.991,7.526L53.087,7.520L53.182,7.542L53.263,7.590L53.290,7.634L53.299,7.679L53.316,7.714L53.368,7.728L53.415,7.733L53.504,7.756L53.547,7.761L54.173,7.728L54.313,7.684L54.726,7.388L55.011,7.251L55.123,7.162L55.231,7.016L55.259,6.949L55.371,6.847L55.621,6.680L55.813,6.644L55.847,6.648L55.975,6.664L56.121,6.747L56.235,6.863L56.357,6.960L56.524,7.010L56.668,7.005L56.695,7.004L56.830,6.933L56.877,6.863L56.898,6.790L56.904,6.661L56.949,6.658L57.233,6.778L57.397,6.817L57.921,6.845L58.007,6.834L58.175,6.788L58.265,6.778L58.312,6.764L58.345,6.734L58.372,6.701L58.399,6.680L58.442,6.673L58.536,6.682L58.580,6.680L58.744,6.604L59.005,6.361L59.146,6.272L59.519,6.165L59.721,6.143L59.890,6.171L60.045,6.261L60.114,6.272L60.161,6.267L60.255,6.244L60.408,6.239L60.443,6.244L60.643,6.268L60.728,6.309L60.909,6.220L60.966,6.208L61.019,6.218L61.130,6.262L61.188,6.272L61.242,6.257L61.357,6.190L61.413,6.171L61.485,6.177L61.605,6.226L61.667,6.238L62.192,6.171L62.245,6.179L62.311,6.199L62.373,6.226L62.415,6.255L62.468,6.281L62.609,6.285L62.670,6.309L62.805,6.253L62.849,6.252L62.986,6.246L63.313,6.272L63.623,6.238L63.701,6.251L64.411,6.526L64.491,6.595L64.514,6.629L64.567,6.638L64.627,6.638L64.670,6.643L64.701,6.668L64.739,6.729L64.756,6.747L64.829,6.779L64.915,6.804L65.005,6.817L65.086,6.814L64.999,7.055L65.022,7.133L65.145,7.219L65.657,7.458L65.802,7.492L65.956,7.497L66.252,7.458L66.495,7.394L66.520,7.388L66.655,7.388L66.676,7.375L66.730,7.313L66.761,7.289L66.935,7.227L67.022,7.168L67.082,6.989L67.140,6.913L67.217,6.851L67.296,6.814L67.488,6.763L67.569,6.724L67.725,6.596L67.827,6.562L67.936,6.557L68.237,6.615L68.415,6.609L69.149,6.458L69.846,6.217L70.014,6.124L70.107,6.002L70.114,5.899L70.097,5.817L70.096,5.740L70.150,5.647L70.183,5.615L70.358,5.494L70.420,5.429L70.463,5.393L70.607,5.322L70.799,5.276L71.002,5.271L71.178,5.325L71.334,5.437L71.359,5.444L71.361,5.495L71.371,5.531L71.394,5.554L71.433,5.561L71.483,5.598L71.529,5.785L71.600,5.868L71.663,5.844L71.740,5.871L71.825,5.913L71.912,5.935L72.570,5.969L72.625,5.986L72.704,6.029L72.777,6.084L72.823,6.137L72.821,6.218L72.951,6.263L73.121,6.278L73.239,6.272L73.626,6.163L73.747,6.100L73.816,6.128L73.926,6.153L74.029,6.156L74.075,6.119L74.114,6.071L74.299,5.928L74.360,5.898L74.387,5.875L74.422,5.822L74.453,5.761L74.467,5.714L74.459,5.659L74.437,5.620L74.265,5.453L74.137,5.356L74.137,5.325L74.185,5.318L74.270,5.294L74.316,5.291L74.360,5.304L74.440,5.347L74.481,5.356L74.490,5.359L74.506,5.366L74.525,5.384L74.543,5.392L74.570,5.374L74.602,5.338L74.621,5.327L74.643,5.325L74.685,5.339L74.765,5.383L74.809,5.393L74.846,5.382L74.958,5.325L75.016,5.325L75.029,5.329L75.031,5.349L75.063,5.393L75.081,5.448L75.109,5.480L75.168,5.494L75.256,5.495L75.294,5.504L75.333,5.527L75.404,5.488L75.482,5.463L75.638,5.571L75.768,5.696L75.912,5.796L76.106,5.831L76.149,5.820L76.188,5.803L76.230,5.792L76.285,5.800L76.334,5.822L76.378,5.848L76.417,5.880L76.451,5.916L76.661,5.898L76.704,5.882L76.784,5.801L76.826,5.766L76.793,5.867L76.738,5.976L76.720,6.073L76.793,6.137L76.716,6.278L76.717,6.279L76.875,6.386L77.121,6.454L77.304,6.477L77.921,6.339L78.022,6.291L78.109,6.220L78.719,5.942L78.798,5.988L78.874,6.062L78.959,6.100L79.156,6.091L79.255,6.100L79.333,6.137L79.398,6.114L79.454,6.137L79.509,6.178L79.572,6.208L79.722,6.221L79.872,6.208L80.326,6.034L80.329,6.033L80.343,6.164L80.339,6.224L80.354,6.274L80.504,6.483L80.500,6.543L80.422,6.593L80.120,6.704L79.970,6.732L79.807,6.722L79.638,6.741L79.504,6.802L79.476,6.880L79.628,6.953L79.716,7.054L79.678,7.227L79.579,7.400L79.481,7.499L78.954,7.792L78.672,7.889L78.547,7.962L78.444,8.076L78.435,8.243L78.435,8.246L78.613,8.313L78.992,8.358L79.076,8.398L79.158,8.419L79.225,8.456L79.262,8.547L79.271,8.642L79.264,8.846L79.252,8.914L79.248,8.939L79.042,9.469L79.021,9.673L79.042,9.771L79.074,9.863L79.085,9.952L79.046,10.045L78.997,10.127L78.905,10.490L78.891,10.762L78.873,10.821L78.781,11.130L78.756,11.523L78.774,11.732L78.826,11.905L79.039,12.228L79.114,12.389L79.129,12.541L79.172,12.954L79.171,13.099L79.015,13.450L78.967,13.622L78.958,13.802L78.986,14.004L79.087,14.180L79.251,14.255L79.433,14.308L79.583,14.416L79.540,14.513L79.276,14.889L79.070,15.101L79.013,15.275L78.936,15.639L78.832,15.903L78.788,16.094L78.796,16.277L78.877,16.775L78.865,16.842L78.831,16.887L78.825,16.895L78.685,17.033L78.633,17.107L78.621,17.184L78.734,17.349L78.701,17.405L78.544,17.497L78.516,17.537L78.486,17.623L78.467,17.657L78.432,17.690L78.329,17.749L78.150,17.899L78.113,17.929L77.699,18.107L77.517,18.229L77.139,18.385L76.969,18.501L76.884,18.674L76.720,19.258L76.680,19.339L76.626,19.401L76.544,19.442L76.267,19.484L76.097,19.564L75.978,19.681L75.871,19.814L75.695,19.985L75.600,20.078L75.540,20.211L75.527,20.575L75.436,21.071L75.458,21.263L75.518,21.535L75.548,21.619L75.673,21.849L75.718,22.106L75.755,22.232L76.032,22.690L76.366,23.242L76.432,23.436L76.432,23.457L76.438,24.111L76.505,24.342L76.617,24.459L76.777,24.505L76.986,24.524L77.145,24.575L77.628,24.908L77.713,24.949L77.802,24.976L77.893,24.982L77.984,24.962L78.082,25.019L78.494,25.633L78.936,26.292L78.995,26.450L79.054,27.144L79.096,27.654L79.147,27.817L79.153,27.823L79.272,27.948L79.807,28.275L80.503,28.760L81.414,29.394L82.148,29.904L82.208,29.974L82.258,30.067L82.337,30.421L82.349,30.473L82.473,31.016L82.596,31.560L82.720,32.103L82.844,32.646L82.967,33.190L83.091,33.733L83.214,34.276L83.338,34.820L83.462,35.363L83.585,35.906L83.708,36.450L83.832,36.993L83.956,37.536L84.080,38.080L84.203,38.623L84.326,39.167L83.310,39.718L83.412,39.880L83.672,40.184L83.899,40.451L84.457,41.273L84.971,42.231L85.317,43.415L85.662,44.600L85.758,45.354L85.771,46.291L85.667,47.117L85.447,48.850L85.504,49.137L86.140,50.830L86.133,51.024L86.120,51.067L85.824,52.052L85.751,52.150L85.629,52.217L85.521,52.296L85.535,52.399L85.599,52.509L85.642,52.612L85.607,52.707L85.420,52.916L85.357,53.020L85.300,53.311L85.228,53.506L85.207,53.586L85.205,53.668L85.574,54.985L85.659,55.501L85.701,55.598L85.749,55.642L85.944,55.753L86.013,55.813L86.030,55.884L85.920,56.409L85.908,56.581L85.958,56.719L85.968,56.823L85.786,57.457L85.704,57.557L84.165,58.306L84.159,58.404L84.143,58.488L84.105,58.560L83.956,58.704L83.876,58.900L83.816,58.979L83.708,59.212L83.810,59.487L84.421,60.361L85.086,61.313L85.621,62.078L86.287,63.032L86.454,63.347L86.513,63.661L86.531,64.310L86.550,65.008L86.559,65.693L86.614,65.825L87.262,66.219L87.344,66.352L87.421,66.811L87.475,66.983L87.554,67.074L88.127,67.551L88.209,67.584L88.382,67.567L88.890,67.371L89.372,67.187L89.466,67.175L89.560,67.194L90.391,67.480L91.431,67.836L92.814,68.310L92.994,68.372L93.137,68.452L93.249,68.604L93.551,69.242L93.866,69.907L93.872,69.921L94.361,70.955L94.667,71.600L95.000,72.304L94.704,72.503L94.407,72.701L94.110,72.899L93.814,73.097L93.517,73.295L93.220,73.493L92.924,73.691L92.628,73.889L92.331,74.087L92.035,74.285L91.738,74.483L91.441,74.682L91.145,74.880L90.848,75.078L90.552,75.276L90.255,75.474L89.958,75.672L89.662,75.870L89.365,76.068L89.068,76.266L88.772,76.464L88.475,76.662L88.179,76.860L87.882,77.058L87.586,77.257L87.289,77.455L86.993,77.653L86.696,77.851L86.400,78.049L86.103,78.247L85.806,78.445L85.510,78.643L85.214,78.841L84.917,79.039L84.620,79.237L84.324,79.435L84.027,79.634L83.731,79.832L83.434,80.030L83.138,80.228L82.841,80.426L82.545,80.624L82.248,80.822L81.952,81.020L81.655,81.218L81.358,81.416L81.062,81.614L80.765,81.812L80.469,82.011L80.172,82.209L79.875,82.407L79.578,82.605L79.282,82.803L78.986,83.001L78.689,83.199L78.392,83.397L78.096,83.595L77.799,83.793L77.502,83.991L77.207,84.189L76.910,84.388L76.613,84.586L76.317,84.784L76.020,84.982L75.449,85.363L75.017,85.762L74.706,86.050L74.395,86.337L74.084,86.625L73.773,86.912L73.435,87.225L73.270,87.382L73.019,87.627L72.744,87.895L72.469,88.163L72.195,88.430L71.920,88.698L71.645,88.966L71.371,89.233L71.095,89.501L70.822,89.769L70.546,90.037L70.272,90.305L69.997,90.572L69.722,90.840L69.447,91.108L69.173,91.376L68.897,91.643L68.623,91.911L68.279,92.245L68.091,92.388L67.895,92.467L67.333,92.589L66.899,92.683L65.944,92.890L64.990,93.098L64.556,93.192L63.733,93.370L62.911,93.549L62.089,93.728L61.267,93.906L60.522,94.063L59.776,94.220L59.357,94.308L59.031,94.377L58.286,94.534L57.830,94.630L57.829,94.630L57.476,94.723L57.364,94.729L57.300,94.719L57.257,94.699L57.154,94.630L56.898,94.356L56.696,94.263L56.604,94.206L56.518,94.134L56.440,94.051L56.367,93.939L56.360,93.850L56.400,93.763L56.464,93.654L56.498,93.558L56.520,93.513L56.578,93.472L56.673,93.366L56.692,93.282L56.714,93.090L56.754,93.000L56.835,92.926L56.927,92.871L57.007,92.804L57.050,92.691L57.038,92.582L56.991,92.503L56.936,92.429L56.898,92.339L56.899,92.292L56.923,92.194L56.925,92.162L56.907,92.119L56.884,92.100L56.861,92.085L56.838,92.055L56.782,91.874L56.777,91.684L56.858,90.688L56.840,90.620L56.779,90.557L56.711,90.522L56.554,90.471L56.482,90.435L56.229,90.220L55.678,89.959L54.483,89.690L54.243,89.679L53.846,89.596L53.798,89.592L53.714,89.572L53.557,89.480L53.472,89.443L53.366,89.418L53.300,89.392L53.249,89.338L53.072,88.992L52.934,88.782L52.773,88.595L52.506,88.367L52.430,88.319L52.350,88.296L52.258,88.314L52.157,88.384L51.980,88.564L51.865,88.618L51.800,88.609L51.526,88.506L51.482,88.477L51.449,88.444L51.412,88.420L51.360,88.412L51.299,88.431L51.225,88.505L51.177,88.530L51.081,88.527L51.049,88.466L51.033,88.372L50.991,88.271L50.923,88.215L50.853,88.210L50.774,88.221L50.680,88.215L50.588,88.169L50.069,87.708L50.026,87.636L50.030,87.266L50.003,87.090L49.915,86.949L49.636,86.721L49.464,86.625L49.304,86.597L49.227,86.543L49.147,86.517L48.971,86.486L48.783,86.424L48.709,86.367L48.642,86.274L48.550,86.103L48.490,86.050L48.388,86.020L48.296,86.022L48.123,86.062L48.030,86.064L47.931,86.050L47.870,86.023L47.838,85.961L47.827,85.838L47.830,85.741L47.927,85.296L47.982,84.757L47.972,84.648L47.891,84.331L47.835,84.231L47.324,83.853L46.947,83.573L46.569,83.294L46.192,83.014L45.814,82.734L45.436,82.455L45.059,82.175L44.681,81.895L44.304,81.615L43.926,81.335L43.549,81.056L43.171,80.776L42.855,80.542L42.793,80.497L42.416,80.217L42.038,79.937L41.660,79.657L41.283,79.378L40.905,79.098L40.527,78.818L40.150,78.538L39.772,78.259L39.394,77.979L39.017,77.700L38.639,77.420L38.262,77.140L37.884,76.860L37.506,76.581L37.129,76.301L36.751,76.021L36.373,75.742L35.996,75.462L35.619,75.182L35.241,74.902L34.863,74.623L34.486,74.343L34.108,74.064L33.731,73.784L33.353,73.504L32.975,73.224L32.598,72.944L32.220,72.665L31.842,72.385L31.465,72.105L31.087,71.825L30.710,71.546L30.332,71.266L29.954,70.987L29.577,70.707L29.199,70.427L28.851,70.170L28.504,69.912L28.157,69.655L27.810,69.398L27.462,69.141L27.115,68.883L26.768,68.626L26.420,68.369L26.073,68.111L25.726,67.854L25.378,67.597L25.031,67.340L24.683,67.082L24.336,66.825L23.989,66.568L23.641,66.311L23.157,65.952L22.825,65.716L22.492,65.481L22.160,65.245L21.827,65.010L21.827,65.010L21.826,65.009L21.826,65.008Z" fill="currentColor" stroke="currentColor" stroke-width="1" stroke-linejoin="round"/>
</svg>