<svg xmlns="http://www.w3.org/2000/svg" viewBox="0 0 100 100" role="img" aria-label="Ecuador">
  <title>Ecuador</title>
  <path d="M75.689,33.328L76.004,33.544L76.116,33.701L76.274,33.829L76.329,33.919L76.382,34.038L76.463,34.146L76.568,34.228L76.694,34.267L76.778,34.253L76.853,34.229L76.903,34.244L76.913,34.347L76.933,34.402L77.045,34.521L77.075,34.608L77.153,34.563L77.233,34.557L77.530,34.625L77.568,34.654L77.629,34.701L78.133,35.262L78.260,35.359L78.362,35.409L78.681,35.495L78.791,35.553L79.489,36.081L79.714,36.190L80.094,36.204L80.459,36.342L80.517,36.343L80.545,36.329L80.570,36.332L80.623,36.387L80.642,36.441L80.640,36.501L80.651,36.559L80.708,36.607L80.833,36.656L80.947,36.681L81.056,36.683L81.164,36.661L81.591,36.499L81.724,36.500L81.884,36.626L81.919,37.012L82.033,37.180L82.385,37.424L82.581,37.501L82.737,37.479L82.763,37.476L82.985,37.531L83.057,37.791L83.091,38.355L83.140,38.535L83.163,38.695L83.219,38.832L83.363,38.943L83.550,39.012L84.121,39.128L84.222,39.164L84.301,39.205L84.385,39.230L84.501,39.223L84.772,39.122L84.865,39.105L84.937,39.123L85.050,39.151L85.255,39.383L85.414,39.437L85.629,39.441L85.696,39.452L85.785,39.483L85.839,39.521L85.956,39.640L86.048,39.707L86.125,39.734L86.206,39.738L86.578,39.682L86.646,39.688L86.837,39.774L86.919,39.772L86.905,39.559L86.971,39.534L87.157,39.584L87.418,39.613L87.495,39.636L87.580,39.695L87.723,39.829L87.825,39.864L87.903,39.854L88.042,39.782L88.574,39.721L88.669,39.657L88.613,39.301L88.626,38.902L88.624,38.867L88.674,38.876L88.790,38.869L88.847,38.858L88.897,38.840L89.031,38.680L89.060,38.653L89.088,38.637L89.186,38.563L89.245,38.546L89.299,38.570L89.447,38.726L89.550,38.794L89.657,38.841L89.773,38.867L89.904,38.876L90.021,38.870L90.081,38.874L90.126,38.894L90.158,38.952L90.188,39.093L90.215,39.136L90.313,39.131L90.449,39.087L90.570,39.072L90.621,39.153L90.645,39.217L91.004,39.671L91.031,39.739L91.055,39.842L91.114,39.928L91.247,40.052L91.573,40.253L91.618,40.327L91.833,40.486L91.984,40.570L92.072,40.605L92.176,40.631L92.296,40.641L92.419,40.629L92.650,40.577L92.751,40.564L92.858,40.599L92.943,40.676L93.011,40.752L93.066,40.787L93.161,40.819L93.414,41.044L93.726,41.236L93.854,41.281L93.959,41.356L94.259,41.413L94.599,41.538L94.699,41.597L94.635,41.679L94.514,41.765L94.445,41.799L94.374,41.822L94.288,41.827L94.105,41.801L94.060,41.805L93.916,41.901L93.777,41.887L93.399,41.684L93.327,41.667L93.252,41.665L93.156,41.675L93.072,41.659L92.974,41.620L92.878,41.595L92.800,41.621L92.770,41.714L92.795,41.832L92.848,41.937L92.896,41.993L92.947,42.004L93.062,41.995L93.114,42.003L93.179,42.042L93.291,42.148L93.358,42.182L93.472,42.219L93.558,42.273L93.619,42.351L93.791,42.957L93.890,43.185L94.044,43.396L94.143,43.490L94.204,43.528L94.259,43.537L94.325,43.532L94.356,43.549L94.378,43.580L94.587,43.743L94.610,43.768L94.638,43.829L94.658,43.855L94.685,43.860L94.736,43.834L94.760,43.843L94.821,43.938L94.840,44.037L94.824,44.248L94.828,44.292L94.841,44.331L94.848,44.372L94.837,44.419L94.789,44.470L94.724,44.504L94.667,44.542L94.642,44.606L94.648,44.658L94.671,44.757L94.674,44.811L94.662,44.866L94.628,44.963L94.626,45.030L94.864,45.839L94.866,45.887L94.857,45.980L94.867,46.030L94.908,46.091L94.960,46.136L94.999,46.189L95.000,46.225L94.952,46.228L94.699,46.228L94.471,46.256L94.349,46.253L94.296,46.210L94.265,46.156L94.191,46.072L94.039,45.932L94.006,45.979L93.938,46.244L93.777,46.876L93.616,47.509L93.455,48.141L93.294,48.773L93.216,49.083L93.146,49.269L93.105,49.319L93.020,49.422L92.725,49.695L92.509,49.947L92.242,50.259L91.974,50.571L91.706,50.883L91.438,51.195L91.171,51.507L90.903,51.819L90.635,52.131L90.367,52.443L90.047,52.688L89.728,52.933L89.407,53.178L89.088,53.423L88.767,53.668L88.447,53.913L88.127,54.158L87.807,54.403L87.504,54.636L87.266,54.780L87.186,54.829L86.692,55.001L86.017,55.237L85.343,55.473L84.668,55.709L83.994,55.945L83.320,56.180L82.646,56.417L81.971,56.652L81.297,56.888L81.149,56.940L80.942,57.012L80.841,57.064L80.446,57.409L79.904,58.135L79.645,58.350L79.570,58.433L79.404,58.750L79.338,58.846L79.142,58.991L79.079,59.067L79.078,59.184L79.140,59.282L79.225,59.342L79.292,59.419L79.304,59.566L79.254,59.676L79.172,59.711L79.077,59.732L78.992,59.801L78.919,59.836L78.867,59.738L78.793,59.393L78.753,59.313L78.686,59.259L78.454,59.194L78.341,59.179L78.251,59.206L78.193,59.307L78.198,59.342L78.230,59.447L78.227,59.506L78.186,59.738L78.117,59.956L78.109,59.979L78.011,60.194L77.974,60.304L77.962,60.409L77.965,60.601L77.987,60.711L77.983,60.763L77.942,60.794L77.874,60.805L77.849,60.814L77.846,60.842L77.846,60.910L77.915,61.256L77.882,61.359L77.751,61.487L77.708,61.514L77.642,61.545L77.610,61.570L77.555,61.673L77.516,61.776L77.463,62.173L77.464,62.210L77.442,62.232L77.367,62.273L77.298,62.295L77.233,62.300L77.173,62.315L77.118,62.372L77.092,62.460L77.098,62.779L77.040,63.017L76.713,63.700L76.662,63.935L76.616,64.039L76.517,64.122L76.473,64.234L76.479,64.435L76.523,64.634L76.588,64.737L76.715,64.815L76.701,64.901L76.618,65.003L76.541,65.127L76.527,65.226L76.532,65.333L76.525,65.436L76.477,65.523L76.331,65.619L76.273,65.657L75.782,65.853L75.558,65.979L75.314,66.205L75.213,66.343L75.153,66.490L75.157,66.637L75.278,66.878L75.305,67.006L75.248,67.113L75.124,67.140L74.983,67.142L74.875,67.169L74.818,67.257L74.759,67.518L74.720,67.631L74.582,67.778L74.427,67.906L74.328,67.808L74.269,67.765L74.212,67.738L74.156,67.731L74.069,67.753L74.015,67.755L73.921,67.734L73.742,67.671L73.648,67.656L73.517,67.661L73.267,67.670L73.144,67.637L73.069,67.547L73.012,67.433L72.941,67.331L72.894,67.300L72.789,67.261L72.743,67.227L72.714,67.181L72.679,67.075L72.650,67.027L72.557,66.959L72.447,66.900L72.354,66.827L72.315,66.713L72.299,66.613L72.298,66.606L72.158,66.343L72.096,66.024L71.940,65.796L71.943,65.681L72.067,65.461L72.080,65.382L72.050,65.332L71.941,65.268L71.812,65.269L71.779,65.251L71.703,65.195L71.661,65.175L71.390,64.908L71.242,64.834L71.048,64.860L70.863,64.970L70.503,65.081L70.304,65.050L70.171,64.912L70.058,64.744L69.922,64.619L69.781,64.583L69.644,64.582L69.504,64.565L69.359,64.486L69.251,64.410L69.077,64.221L68.981,64.138L68.888,64.105L68.779,64.085L68.690,64.057L68.656,63.999L68.641,64.005L68.422,64.033L68.364,64.053L68.308,64.080L68.263,64.116L68.218,64.191L68.163,64.379L68.123,64.464L68.038,64.555L67.626,64.871L67.406,64.989L67.355,65.035L67.313,65.039L67.217,65.042L67.128,65.010L66.888,64.873L66.815,64.808L66.768,64.696L66.788,64.604L67.497,63.664L67.556,63.545L67.309,63.575L67.077,63.644L66.890,63.624L66.776,63.387L66.777,63.337L66.797,63.235L66.796,63.185L66.766,63.116L66.678,62.994L66.651,62.928L66.661,62.829L66.661,62.825L66.708,62.690L66.770,62.560L66.828,62.474L66.908,62.417L67.007,62.388L67.116,62.380L67.225,62.386L67.336,62.421L67.562,62.543L67.662,62.563L67.774,62.508L67.865,62.397L67.942,62.273L68.019,62.178L68.437,61.986L68.522,61.891L68.523,61.840L68.523,61.834L68.490,61.802L68.442,61.771L68.396,61.717L68.381,61.671L68.381,61.572L68.374,61.523L68.327,61.415L68.219,61.243L68.194,61.135L68.204,61.094L68.227,61.057L68.245,61.016L68.240,60.963L68.207,60.863L68.202,60.821L68.202,60.767L68.211,60.720L68.245,60.616L68.254,60.563L68.248,60.504L68.217,60.401L68.216,60.341L68.201,60.291L68.155,60.269L68.102,60.252L68.067,60.215L68.068,60.173L68.110,60.029L68.120,59.926L68.119,59.874L68.107,59.826L68.072,59.787L67.984,59.750L67.951,59.720L67.939,59.608L67.972,59.497L67.983,59.403L67.908,59.345L67.705,59.291L67.617,59.246L67.581,59.227L67.569,59.188L67.563,59.148L67.579,59.093L67.651,59.050L67.684,58.987L67.711,58.912L67.762,58.836L67.708,58.987L67.689,59.023L67.722,59.133L67.787,59.084L67.817,58.915L67.872,58.836L68.019,58.983L68.091,58.953L68.479,58.873L68.546,58.880L68.590,58.891L68.629,58.893L68.681,58.873L68.803,58.729L68.827,58.708L69.030,58.286L69.087,58.210L69.207,58.233L69.232,58.361L69.194,58.617L69.251,58.583L69.287,58.531L69.317,58.472L69.360,58.413L69.409,58.375L69.579,58.267L69.659,58.175L69.711,58.063L69.740,57.942L69.765,57.735L69.853,57.541L70.033,57.253L70.079,57.145L70.025,57.052L70.045,56.930L70.116,56.721L70.127,56.627L70.295,56.080L70.408,55.877L70.420,55.841L70.473,55.726L70.493,55.602L70.607,55.289L70.668,55.197L70.829,55.032L70.875,54.937L70.882,54.808L70.848,54.568L70.775,54.381L70.758,54.351L70.640,54.358L70.580,54.353L70.536,54.332L70.472,54.233L70.368,53.945L70.301,53.840L70.269,53.774L70.259,53.698L70.263,53.386L70.227,53.136L70.225,53.066L70.258,52.948L70.267,52.876L70.242,52.843L70.233,52.822L70.165,52.730L70.148,52.715L70.140,52.678L70.124,52.651L70.112,52.615L70.116,52.550L70.142,52.491L70.178,52.445L70.190,52.397L70.148,52.331L70.231,52.244L70.316,52.219L70.382,52.180L70.408,52.054L70.449,51.994L70.537,51.954L70.626,51.894L70.665,51.778L70.347,51.959L70.312,51.985L70.298,52.032L70.295,52.127L70.256,52.144L70.082,52.156L70.042,52.201L70.033,52.243L69.987,52.373L69.942,52.588L69.934,52.743L69.967,52.898L70.130,53.183L70.142,53.345L70.059,54.390L70.002,54.608L69.965,54.666L69.818,54.830L69.766,54.864L69.680,54.890L69.494,54.998L69.416,55.014L69.363,54.987L69.331,54.915L69.288,54.901L69.174,54.914L69.135,54.900L69.067,54.848L69.038,54.760L69.110,54.676L69.270,54.568L69.319,54.456L69.343,54.375L69.398,54.327L69.543,54.312L69.577,54.334L69.609,54.380L69.649,54.421L69.709,54.425L69.761,54.394L69.785,54.349L69.781,54.294L69.749,54.235L69.725,54.348L69.653,54.324L69.526,54.202L69.409,54.215L69.301,54.270L69.224,54.294L69.194,54.219L69.216,54.101L69.317,53.871L69.340,53.743L69.360,53.676L69.408,53.650L69.469,53.638L69.526,53.615L69.567,53.573L69.676,53.400L69.627,53.413L69.599,53.429L69.543,53.488L69.498,53.506L69.390,53.497L69.340,53.503L69.279,53.544L69.232,53.610L69.000,54.207L68.634,54.720L68.469,54.899L68.295,54.974L68.255,55.045L68.214,55.095L68.165,55.124L68.114,55.123L68.086,55.101L68.066,55.068L68.039,55.032L67.960,54.997L67.909,55.038L67.890,55.126L67.909,55.234L67.929,55.250L68.075,55.399L68.094,55.443L68.098,55.504L68.092,55.620L68.038,55.669L67.915,55.652L67.689,55.564L67.463,55.371L67.384,55.327L67.314,55.258L67.283,55.234L67.249,55.224L67.154,55.211L67.103,55.197L66.899,55.066L66.330,54.395L65.887,53.982L65.714,53.926L65.558,53.850L65.384,53.856L65.100,53.762L65.001,53.717L64.775,53.518L64.657,53.473L64.573,53.474L64.509,53.462L64.468,53.413L64.437,53.232L64.395,53.151L64.308,53.026L64.233,52.949L64.035,52.790L64.013,52.756L63.987,52.699L63.976,52.647L63.996,52.623L64.039,52.634L64.059,52.657L64.070,52.682L64.088,52.697L64.224,52.729L64.289,52.733L64.317,52.750L64.344,52.842L64.414,52.917L64.548,52.912L64.740,52.842L65.013,52.622L65.222,52.518L65.413,52.304L65.454,51.985L65.378,51.822L65.335,51.655L65.319,51.611L65.343,51.555L65.401,51.544L65.476,51.503L65.492,51.373L65.477,51.236L65.330,50.665L65.249,50.440L65.214,50.341L65.167,50.258L65.116,50.197L65.053,50.097L64.926,49.786L64.853,49.691L64.828,49.622L64.820,49.543L64.842,49.482L65.030,49.350L65.007,49.224L65.008,49.069L65.056,49.024L65.120,48.966L65.186,48.950L65.274,48.950L65.298,48.881L65.295,48.804L65.306,48.700L65.334,48.607L65.310,48.484L65.333,48.407L65.426,48.362L65.417,48.231L65.257,48.010L64.938,47.628L64.678,47.169L64.565,46.895L64.495,46.739L64.530,46.628L64.595,46.563L64.670,46.500L64.740,46.424L64.781,46.372L64.822,46.320L64.891,46.244L64.955,46.169L64.972,46.122L65.030,46.099L65.106,46.122L65.181,46.122L65.257,46.076L65.326,46.047L65.408,46.064L65.471,46.041L65.535,46.018L65.524,46.065L65.622,46.111L65.703,46.117L65.767,46.061L65.808,46.044L65.848,45.992L65.906,45.974L65.958,46.050L66.005,46.061L66.103,46.073L66.236,46.021L66.352,45.916L66.474,45.789L66.551,45.455L66.571,45.350L66.641,45.004L66.740,44.737L66.861,44.494L66.928,44.337L66.954,44.309L67.000,44.274L67.076,44.262L67.145,44.239L67.157,44.378L67.232,44.488L67.377,44.552L67.516,44.569L67.805,44.575L67.805,44.511L67.655,44.471L67.493,44.436L67.383,44.436L67.307,44.378L67.249,44.227L67.180,44.100L67.104,44.072L67.064,44.013L67.058,43.886L67.000,43.735L66.984,43.580L66.908,43.411L66.809,43.295L66.746,43.068L66.804,42.993L66.914,42.982L67.088,42.842L67.255,42.589L67.309,42.494L67.323,42.422L67.371,42.305L67.417,42.218L67.533,42.177L67.602,42.067L67.672,41.952L67.771,42.038L67.887,41.981L68.014,41.882L68.165,41.772L68.484,41.424L68.739,41.096L68.829,40.985L68.867,40.878L68.878,40.812L68.905,40.790L68.940,40.778L69.052,40.743L69.133,40.540L69.179,40.360L69.210,40.079L69.202,39.950L69.160,39.721L69.148,39.315L69.197,39.173L69.198,39.127L69.212,39.107L69.270,39.135L69.295,39.162L69.315,39.201L69.340,39.282L69.380,39.282L69.388,39.214L69.443,39.109L69.456,39.062L69.444,38.994L69.413,38.947L69.340,38.876L69.212,38.667L69.174,38.561L69.160,38.453L69.175,38.334L69.212,38.272L69.260,38.222L69.306,38.136L69.317,38.024L69.288,37.916L69.250,37.822L69.213,37.669L69.164,37.605L69.089,37.564L68.992,37.550L68.924,37.524L68.876,37.460L68.845,37.377L68.827,37.294L68.825,37.063L68.886,36.837L69.001,36.644L69.160,36.518L69.252,36.565L69.330,36.574L69.508,36.558L69.588,36.535L69.693,36.437L69.766,36.415L69.843,36.403L69.977,36.350L70.147,36.321L70.248,36.245L70.315,36.228L70.355,36.208L70.518,36.079L70.557,36.038L70.625,35.938L70.665,35.899L70.792,35.841L71.113,35.739L71.254,35.639L71.283,35.694L71.285,35.743L71.177,36.079L71.202,36.159L71.246,36.206L71.303,36.245L71.363,36.302L71.435,36.447L71.473,36.488L71.385,36.248L71.316,36.189L71.294,36.155L71.294,36.125L71.321,36.076L71.327,36.045L71.319,35.911L71.331,35.808L71.378,35.733L71.473,35.679L71.704,35.746L71.958,35.602L72.322,35.270L72.437,35.240L72.815,35.270L72.861,35.258L72.984,35.210L73.036,35.199L73.183,35.202L73.250,35.191L73.310,35.159L73.439,35.228L73.591,35.206L73.745,35.153L73.881,35.123L73.980,35.070L74.385,34.534L74.463,34.491L74.595,34.537L74.700,34.624L74.767,34.734L74.803,34.865L74.815,35.016L74.917,34.962L74.973,34.882L74.997,34.782L75.014,34.546L75.047,34.484L75.094,34.435L75.151,34.354L75.169,34.400L75.200,34.421L75.244,34.418L75.297,34.390L75.346,34.345L75.353,34.307L75.351,34.265L75.371,34.207L75.458,34.108L75.547,34.094L75.774,34.171L75.734,34.093L75.638,34.068L75.526,34.057L75.440,34.021L75.403,33.945L75.422,33.875L75.469,33.812L75.669,33.613L75.700,33.541L75.698,33.460L75.679,33.387L75.689,33.328ZM69.087,55.307L69.330,55.315L69.699,55.542L69.929,55.600L69.920,55.642L69.905,55.680L69.884,55.715L69.856,55.747L69.796,55.797L69.526,55.913L69.509,55.960L69.434,56.032L69.416,56.061L69.384,56.144L69.340,56.226L69.295,56.273L69.284,56.274L69.227,56.371L69.163,56.500L69.095,56.623L69.060,56.710L68.973,56.745L68.902,56.826L68.905,56.951L68.823,57.028L68.791,57.105L68.705,57.228L68.513,57.209L68.406,57.271L68.315,57.299L68.185,57.288L68.059,57.256L67.982,57.215L67.950,57.097L67.983,56.906L68.002,56.262L68.021,56.190L68.202,55.857L68.278,55.640L68.355,55.585L68.681,55.490L68.974,55.345L69.087,55.307ZM17.603,48.212L17.745,48.258L17.853,48.372L17.860,48.488L17.699,48.542L17.523,48.520L17.090,48.322L17.200,48.212L17.284,48.228L17.536,48.225L17.603,48.212ZM13.745,47.752L13.757,47.767L13.782,47.784L13.808,47.808L13.822,47.846L13.818,47.882L13.805,47.903L13.792,47.918L13.785,47.936L13.771,47.956L13.701,47.976L13.675,47.988L13.670,48.012L13.680,48.077L13.675,48.101L13.645,48.135L13.469,48.243L13.434,48.251L13.238,48.222L13.162,48.166L13.088,48.095L12.976,48.028L13.026,47.973L13.072,47.902L13.106,47.826L13.142,47.664L13.194,47.579L13.256,47.550L13.306,47.626L13.413,47.598L13.559,47.627L13.689,47.688L13.745,47.752ZM19.497,44.701L19.563,44.743L19.633,44.742L19.704,44.715L19.769,44.679L19.782,44.881L19.684,45.099L19.529,45.293L19.370,45.418L19.179,45.474L19.150,45.508L19.140,45.558L19.077,45.714L18.968,45.878L18.896,45.954L18.818,46.008L18.734,46.034L18.652,46.044L18.470,46.041L18.414,46.058L18.303,46.137L18.228,46.154L18.176,46.139L18.060,46.065L18.009,46.041L17.818,46.013L17.771,45.989L17.763,45.940L17.797,45.882L17.862,45.803L17.907,45.760L18.120,45.659L18.192,45.602L18.248,45.418L18.304,45.412L18.527,45.358L18.590,45.297L18.671,45.125L18.719,45.063L18.861,44.929L18.891,44.884L18.933,44.850L19.126,44.779L19.184,44.722L19.265,44.718L19.431,44.675L19.497,44.701ZM14.757,43.910L14.818,43.965L14.805,44.091L14.737,44.316L14.740,44.379L14.770,44.458L14.777,44.518L14.764,44.533L14.718,44.651L14.720,44.679L14.631,44.715L14.566,44.798L14.509,44.897L14.444,44.976L14.395,45.010L14.367,45.019L14.105,45.013L14.078,45.031L14.050,45.136L13.979,45.191L13.884,45.206L13.785,45.198L13.602,45.136L13.487,45.113L13.451,45.087L13.425,45.060L13.397,45.049L13.357,45.013L13.243,44.845L13.196,44.792L13.118,44.801L13.018,44.778L12.924,44.734L12.866,44.679L12.857,44.611L12.866,44.350L12.898,44.210L12.957,44.080L13.035,43.966L13.119,43.876L13.171,43.842L13.317,43.779L13.379,43.763L13.437,43.766L13.558,43.795L13.599,43.800L13.650,43.786L13.711,43.745L13.745,43.730L14.253,43.672L14.371,43.614L14.401,43.625L14.432,43.643L14.462,43.666L14.484,43.690L14.496,43.742L14.491,43.804L14.496,43.855L14.537,43.876L14.592,43.881L14.697,43.905L14.757,43.910ZM8.273,43.452L8.221,43.482L7.850,43.631L7.757,43.651L7.703,43.653L7.652,43.636L7.538,43.560L7.439,43.535L7.279,43.470L7.253,43.467L7.197,43.474L7.172,43.470L7.146,43.452L7.145,43.435L7.149,43.416L7.135,43.394L7.043,43.297L6.973,43.188L6.928,43.067L6.892,42.821L6.824,42.619L6.839,42.551L7.309,42.563L7.508,42.462L7.758,42.404L7.882,42.360L7.918,42.366L7.981,42.404L8.167,42.595L8.217,42.624L8.282,42.674L8.296,42.788L8.273,42.991L8.273,43.452ZM12.757,42.551L12.829,42.593L12.793,42.690L12.680,42.863L12.640,42.974L12.543,43.006L12.422,42.991L12.192,42.921L11.818,42.921L11.714,42.889L11.619,42.829L11.519,42.796L11.399,42.844L11.325,42.754L11.290,42.616L11.234,42.501L11.099,42.478L11.327,42.163L11.341,42.092L11.309,41.997L11.353,41.903L11.441,41.834L11.542,41.815L11.581,41.843L11.597,41.841L11.619,41.815L11.724,41.891L12.090,42.014L12.221,42.035L12.395,42.102L12.674,42.416L12.827,42.514L12.804,42.520L12.789,42.527L12.757,42.551ZM11.435,44.942L11.485,44.968L11.518,44.968L11.536,44.987L11.542,45.067L11.515,45.099L11.386,45.152L11.341,45.178L11.172,45.704L11.193,45.835L11.182,45.934L11.066,45.898L11.004,45.987L10.866,46.141L10.807,46.228L10.716,46.186L10.627,46.177L10.457,46.191L10.354,46.219L10.182,46.346L9.568,46.549L9.448,46.520L9.366,46.546L8.884,46.478L8.281,46.486L8.168,46.450L8.087,46.374L8.064,46.317L8.054,46.260L8.054,46.134L8.034,46.073L7.985,46.058L7.923,46.058L7.864,46.041L7.731,45.831L7.779,45.586L7.926,45.356L8.087,45.198L8.713,44.792L8.741,44.749L8.741,44.713L8.760,44.688L8.843,44.679L8.979,44.623L9.165,44.573L9.229,44.572L9.288,44.589L9.321,44.612L9.345,44.633L9.372,44.649L9.465,44.681L9.523,44.685L9.578,44.664L9.606,44.632L9.657,44.552L9.687,44.536L9.688,44.479L9.736,44.367L9.811,44.284L9.891,44.316L9.955,44.227L9.959,44.147L9.919,44.077L9.851,44.020L9.780,43.986L9.622,43.939L9.558,43.910L9.431,43.794L9.304,43.622L9.202,43.430L9.152,43.250L9.160,43.095L9.144,43.040L9.079,42.991L9.037,42.977L8.966,42.970L8.933,42.954L8.914,42.931L8.863,42.844L8.537,42.671L8.414,42.535L8.420,42.365L8.313,42.301L8.245,42.184L8.255,42.073L8.383,42.035L8.286,41.896L8.249,41.817L8.234,41.724L8.234,41.539L8.228,41.492L8.206,41.405L8.201,41.354L8.154,41.176L8.035,41.087L7.870,41.082L7.684,41.153L7.499,41.280L7.405,41.300L7.299,41.244L7.189,41.099L7.172,41.062L7.184,41.015L7.214,40.991L7.255,40.975L7.617,40.774L7.719,40.668L7.758,40.453L7.890,40.496L7.997,40.466L8.098,40.413L8.273,40.365L8.310,40.322L8.342,40.272L8.383,40.234L8.447,40.215L8.546,40.219L8.603,40.198L8.689,40.275L8.730,40.399L8.749,40.513L8.770,40.563L8.841,40.615L8.904,40.845L8.951,40.897L8.984,40.919L9.060,41.020L9.098,41.043L9.213,41.048L9.266,41.059L9.302,41.080L9.340,41.174L9.348,41.306L9.336,41.556L9.435,42.155L9.494,42.248L9.717,42.451L9.738,42.475L9.742,42.506L9.741,42.569L9.759,42.630L9.796,42.655L9.834,42.664L9.851,42.679L10.397,43.024L10.437,43.084L10.450,43.133L10.480,43.177L10.550,43.250L10.574,43.266L10.660,43.287L10.662,43.319L10.648,43.351L10.633,43.378L10.627,43.394L10.674,43.598L10.697,43.820L10.665,43.921L10.521,44.045L10.477,44.130L10.597,44.051L10.632,44.097L10.636,44.198L10.660,44.279L10.887,44.321L10.998,44.379L10.989,44.499L11.064,44.509L11.127,44.538L11.176,44.585L11.212,44.649L11.176,44.722L11.248,44.752L11.435,44.942ZM13.031,39.502L12.979,39.483L12.928,39.438L12.886,39.390L12.866,39.355L12.878,39.233L12.963,39.144L13.081,39.086L13.196,39.062L13.317,39.101L13.446,39.163L13.551,39.248L13.599,39.355L13.564,39.433L13.469,39.520L13.349,39.588L13.236,39.611L13.172,39.590L13.101,39.517L13.031,39.502ZM11.509,37.517L11.727,37.640L11.794,37.882L11.708,38.052L11.469,37.956L11.507,37.843L11.470,37.613L11.509,37.517ZM75.297,33.651L75.298,33.702L75.306,33.738L75.331,33.801L75.336,33.981L75.310,34.202L75.239,34.342L75.111,34.280L75.060,34.341L75.001,34.390L74.892,34.308L74.812,34.219L74.795,34.120L74.873,34.004L75.297,33.651ZM6.032,33.585L6.056,33.594L6.076,33.635L6.066,33.661L6.039,33.684L6.013,33.668L5.999,33.636L5.999,33.605L6.032,33.585ZM6.017,33.542L6.041,33.541L6.025,33.559L6.017,33.542ZM5.000,32.125L5.029,32.094L5.063,32.118L5.063,32.165L5.026,32.173L5.000,32.125ZM70.375,54.358L70.432,54.496L70.562,54.545L70.627,54.659L70.514,54.830L70.326,54.928L70.302,55.163L70.172,55.245L70.066,55.237L70.042,55.115L70.115,54.911L70.229,54.618L70.375,54.358Z" fill="currentColor" stroke="currentColor" stroke-width="1" stroke-linejoin="round"/>
</svg>