<svg xmlns="http://www.w3.org/2000/svg" viewBox="0 0 100 100" role="img" aria-label="Egypt">
  <title>Egypt</title>
  <path d="M73.598,50.609L73.653,50.775L73.658,50.968L73.555,50.868L73.504,50.754L73.301,50.292L73.415,50.287L73.415,50.287L73.452,50.292L73.598,50.609ZM76.343,16.286L76.718,17.245L77.172,18.402L77.333,19.059L77.349,19.400L77.393,19.540L77.511,19.695L77.584,19.798L77.582,19.910L77.512,20.157L77.499,20.302L77.515,20.397L77.566,20.475L77.968,20.817L78.050,20.935L78.294,21.616L78.729,22.834L79.015,23.630L79.036,23.676L79.049,23.725L79.053,23.774L79.049,23.825L79.096,24.274L79.419,25.137L79.708,25.914L79.897,26.764L79.884,27.335L79.935,27.532L80.104,27.874L80.167,27.992L80.083,28.035L80.021,28.082L79.968,28.140L79.915,28.217L79.875,28.314L79.851,28.399L79.809,28.464L79.715,28.499L79.741,28.507L79.762,28.507L79.773,28.520L79.770,28.561L79.707,28.592L79.658,28.635L79.640,28.683L79.669,28.730L79.599,28.743L79.566,28.765L79.572,28.797L79.618,28.838L79.533,28.918L79.363,29.181L79.327,29.216L79.248,29.257L79.211,29.289L79.181,29.338L79.158,29.387L79.122,29.431L79.061,29.469L79.061,29.519L79.125,29.633L79.100,29.752L79.043,29.866L79.005,29.971L79.005,30.397L78.965,30.498L78.880,30.574L78.794,30.632L78.754,30.681L78.746,30.797L78.718,30.929L78.672,31.056L78.604,31.160L78.622,31.256L78.604,31.755L78.619,31.835L78.692,31.937L78.708,32.036L78.686,32.133L78.630,32.179L78.563,32.203L78.398,32.308L78.373,32.353L78.351,32.462L78.356,32.513L78.393,32.681L78.401,33.172L78.205,33.313L78.205,33.364L78.226,33.439L78.248,33.551L78.248,33.672L78.205,33.769L78.231,33.798L78.255,33.836L78.301,33.933L78.233,33.978L78.222,34.023L78.238,34.074L78.251,34.133L78.235,34.220L78.200,34.276L78.166,34.317L78.150,34.359L78.110,34.505L77.938,34.746L77.835,35.127L77.539,35.569L77.445,35.805L77.437,35.826L77.438,35.847L77.430,35.860L77.395,35.855L77.491,36.109L77.402,36.270L77.234,36.394L77.088,36.538L77.110,36.555L77.117,36.559L77.135,36.599L77.034,36.648L76.980,36.756L76.910,37.123L76.883,37.214L76.796,37.352L76.782,37.358L76.759,37.452L76.655,37.656L76.631,37.755L76.638,37.894L76.658,38.002L76.691,38.093L76.731,38.183L76.731,38.234L76.675,38.373L76.736,38.497L76.833,38.610L76.898,38.744L76.967,38.809L76.988,38.854L76.987,38.916L76.968,38.951L76.948,38.974L76.938,39.001L76.932,39.104L76.865,39.394L76.777,39.625L76.904,39.857L76.782,40.439L76.837,40.501L76.645,40.529L76.585,40.557L76.561,40.604L76.538,40.680L76.506,40.751L76.410,40.809L76.365,40.929L76.304,40.957L76.248,40.964L76.146,40.997L76.073,41.008L76.088,41.041L76.090,41.049L76.097,41.052L76.128,41.070L76.073,41.195L75.997,41.445L75.926,41.521L75.876,41.521L75.852,41.477L75.791,41.456L75.742,41.419L75.691,41.469L75.642,41.652L75.574,41.746L75.634,41.848L75.541,41.937L75.397,41.999L75.298,42.023L75.230,42.017L75.210,42.021L75.239,42.151L75.262,42.200L75.528,42.202L75.528,42.254L75.473,42.254L75.473,42.310L75.511,42.344L75.537,42.382L75.574,42.479L75.502,42.443L75.473,42.423L75.483,42.454L75.483,42.469L75.492,42.475L75.528,42.479L75.528,42.541L75.473,42.541L75.437,42.468L75.309,42.296L75.168,42.149L75.105,42.098L75.030,42.060L74.920,42.023L74.210,41.945L74.033,41.831L73.540,41.235L73.502,41.208L73.439,41.214L73.018,40.830L72.924,40.780L72.827,40.773L72.743,40.839L72.641,40.618L72.592,40.669L72.525,40.589L72.269,40.373L72.208,40.344L72.189,40.332L72.161,40.295L72.135,40.224L72.111,40.190L72.060,40.150L72.004,40.127L71.887,40.101L71.892,39.894L71.538,39.677L71.535,39.531L71.431,39.441L71.305,39.272L71.218,39.093L71.233,38.973L71.198,38.947L71.168,38.930L71.144,38.905L71.128,38.854L71.082,38.854L71.082,38.916L71.027,38.916L71.004,38.876L70.940,38.801L70.927,38.775L70.817,38.372L70.778,38.311L70.725,38.347L70.668,38.236L70.495,37.980L70.423,37.845L69.459,37.273L69.412,37.186L69.380,37.175L69.210,36.876L69.068,36.745L68.981,36.645L68.982,36.599L68.510,36.254L68.434,36.174L68.401,36.112L68.377,36.045L68.316,35.942L68.235,35.848L68.149,35.805L68.196,35.743L68.196,35.805L68.250,35.805L68.199,35.533L68.075,35.513L68.013,35.623L68.149,35.743L68.026,35.702L67.947,35.596L67.906,35.444L67.875,35.112L67.828,34.971L67.697,34.723L67.770,34.558L67.866,34.178L67.944,33.990L67.852,33.880L67.810,33.815L67.770,33.649L67.717,33.609L67.652,33.585L67.595,33.538L67.548,33.386L67.524,33.019L67.494,32.913L67.494,32.862L67.559,32.785L67.570,32.714L67.541,32.524L67.526,32.480L67.497,32.361L67.484,32.237L67.518,32.180L67.572,32.126L67.520,32.014L67.434,31.923L67.389,31.929L67.374,31.840L67.330,31.777L67.267,31.754L67.193,31.780L67.116,31.683L66.917,31.577L66.841,31.504L66.749,31.296L66.735,31.247L66.712,31.202L66.605,31.118L66.580,31.078L66.557,31.064L66.434,30.878L66.411,30.863L66.350,30.835L66.328,30.822L66.316,30.798L66.297,30.731L66.283,30.709L65.950,30.370L65.834,30.333L65.670,30.243L65.514,30.131L65.418,30.032L65.378,29.901L65.343,29.731L65.291,29.583L65.194,29.519L65.126,29.493L65.077,29.428L64.928,29.074L64.915,29.068L64.942,28.760L64.914,28.620L64.715,28.526L64.356,28.274L64.413,28.274L64.384,28.214L64.353,28.185L64.313,28.171L64.260,28.161L64.278,28.142L64.298,28.126L64.311,28.097L64.306,28.043L64.260,28.043L64.225,28.114L64.208,28.178L64.219,28.233L64.260,28.274L64.161,28.274L64.216,27.970L64.228,27.583L64.141,27.245L63.909,27.085L63.909,27.033L63.953,26.934L63.947,26.817L63.921,26.695L63.909,26.577L63.927,26.455L63.990,26.287L64.005,26.208L63.999,26.069L63.981,25.980L63.952,25.912L63.909,25.838L63.729,25.621L63.704,25.529L63.670,25.476L63.501,25.306L63.346,25.232L63.383,25.152L63.460,25.075L63.501,25.049L63.500,24.819L63.405,24.658L63.103,24.367L63.169,24.325L63.197,24.286L63.191,24.247L63.149,24.203L63.191,24.188L63.206,24.173L63.191,24.157L63.149,24.142L63.119,24.093L63.085,24.048L63.044,24.008L63.030,23.975L63.038,23.954L63.063,23.937L63.092,23.923L63.149,23.916L63.149,23.865L63.132,23.805L63.132,23.756L63.149,23.686L63.103,23.686L63.008,23.886L62.999,23.975L63.019,24.040L63.059,24.085L63.095,24.146L63.103,24.254L63.049,24.254L63.031,24.150L62.974,24.093L62.891,24.089L62.797,24.142L62.675,24.098L62.531,24.188L62.406,24.340L62.340,24.480L62.331,24.632L62.376,24.755L62.480,24.841L62.646,24.880L62.514,24.985L61.898,25.829L61.861,25.895L61.786,25.974L61.573,26.355L61.530,26.490L61.525,26.831L61.482,26.971L61.379,27.085L61.379,27.146L61.458,27.208L61.541,27.321L61.608,27.437L61.668,27.612L61.748,27.698L62.124,27.936L62.217,28.015L62.556,28.405L62.786,28.540L62.996,28.753L63.175,28.991L63.250,29.153L63.279,29.356L63.353,29.628L63.450,29.882L63.551,30.032L63.551,30.084L63.524,30.231L63.727,31.043L63.747,31.124L63.753,31.304L63.712,31.371L63.639,31.437L63.600,31.533L63.521,31.568L63.495,31.642L63.551,31.729L63.513,31.974L63.501,32.265L63.549,32.354L63.776,32.584L63.854,32.688L63.877,32.775L63.882,32.942L63.909,33.026L64.075,33.206L64.105,33.226L64.413,33.651L64.673,33.696L64.838,33.872L64.939,34.122L65.268,35.347L65.295,35.517L65.373,35.546L65.725,35.743L65.903,35.913L65.992,36.023L66.061,36.171L66.133,36.197L66.216,36.217L66.283,36.256L66.307,36.307L66.357,36.474L66.569,36.878L66.635,36.938L66.637,36.974L66.626,36.984L66.605,36.983L66.580,36.989L66.907,37.254L67.048,37.432L67.037,37.609L67.094,37.656L67.144,37.748L67.180,37.851L67.193,37.924L67.223,37.952L67.389,38.183L67.739,38.553L67.825,38.730L67.899,38.774L67.983,38.809L68.044,38.854L68.080,38.965L68.075,39.056L68.099,39.119L68.223,39.142L68.349,39.205L68.593,39.503L68.753,39.593L68.743,39.645L68.753,39.712L68.753,39.762L68.738,39.830L68.794,39.881L68.881,39.902L68.959,39.880L69.023,40.002L69.185,40.074L69.517,40.162L70.039,40.637L70.207,40.989L70.296,41.070L70.347,41.154L70.508,41.534L70.524,41.633L70.524,41.685L70.560,41.748L70.588,41.908L70.625,41.972L70.625,42.023L70.574,42.023L70.474,42.023L70.389,41.840L70.215,41.735L70.018,41.662L69.865,41.572L69.815,41.572L69.770,41.690L69.751,41.759L69.765,41.820L69.815,41.910L69.955,42.054L70.033,42.156L70.066,42.282L70.114,42.348L70.220,42.316L70.325,42.268L70.373,42.282L70.362,42.394L70.333,42.513L70.285,42.624L70.218,42.710L70.247,42.739L70.287,42.792L70.318,42.817L70.451,42.915L70.499,42.930L70.520,42.963L70.592,43.115L70.625,43.161L70.625,43.217L70.547,43.153L70.373,42.930L70.318,42.930L70.318,42.992L70.344,43.036L70.373,43.110L70.318,43.110L70.272,42.949L70.142,42.962L69.999,43.076L69.919,43.217L70.092,43.307L70.214,43.469L70.423,43.838L70.394,43.890L70.376,43.957L70.366,44.035L70.373,44.125L70.495,44.215L70.817,44.361L70.927,44.463L70.948,44.538L70.958,44.719L70.981,44.802L71.031,44.871L71.156,45.004L71.208,45.086L71.255,45.253L71.309,45.620L71.359,45.735L71.603,45.967L71.887,46.160L72.199,46.311L72.344,46.413L72.440,46.555L72.456,46.641L72.440,46.955L72.424,46.982L72.356,47.037L72.340,47.067L72.344,47.116L72.381,47.188L72.390,47.237L72.397,47.419L72.428,47.561L72.505,47.674L72.644,47.772L72.770,47.891L72.905,48.073L72.959,48.210L72.848,48.195L72.850,48.328L72.901,48.441L73.049,48.646L73.112,48.771L73.205,49.016L73.275,49.128L73.369,49.203L73.476,49.261L73.565,49.323L73.603,49.413L73.651,49.674L73.658,49.806L73.603,49.897L73.482,49.904L73.401,49.827L73.334,49.799L73.250,49.954L73.232,50.063L73.232,50.210L73.247,50.355L73.275,50.464L73.277,50.678L73.131,51.180L73.200,51.420L73.303,51.507L73.542,51.580L73.658,51.650L73.735,51.766L73.808,52.021L74.047,52.338L74.152,52.565L74.404,53.294L74.513,53.511L74.663,53.742L74.762,53.951L74.940,54.217L75.562,55.666L75.850,56.092L76.128,56.803L76.709,57.617L76.764,57.724L76.836,57.958L77.330,58.704L77.599,59.001L77.660,59.088L78.301,60.374L78.401,60.765L78.580,61.115L78.657,61.536L78.791,61.765L79.110,62.175L79.155,62.278L79.224,62.519L79.270,62.631L79.491,62.976L79.579,63.329L79.920,63.930L80.554,65.049L80.582,65.314L80.661,65.538L80.780,65.685L80.927,65.861L80.951,66.013L80.957,66.321L80.977,66.476L81.018,66.600L81.078,66.692L81.163,66.769L81.279,66.845L81.470,67.025L81.597,67.262L81.769,67.911L81.810,68.019L81.938,68.235L82.078,68.497L82.183,68.590L82.186,68.723L82.067,68.978L82.068,69.205L82.371,69.325L82.738,70.031L83.734,70.808L83.890,71.001L84.161,71.800L84.361,72.023L84.642,72.437L84.765,72.417L84.710,72.303L84.641,72.188L84.716,72.175L84.866,72.334L85.071,72.423L85.339,72.710L85.444,72.939L85.463,73.181L85.687,73.321L85.917,73.276L86.097,73.327L86.290,73.391L86.446,73.474L86.558,73.595L86.713,73.965L86.843,74.143L86.794,74.219L86.682,74.060L86.533,73.894L86.427,73.888L86.159,74.015L86.047,74.072L85.898,74.008L85.762,73.951L85.625,73.925L85.525,73.938L85.414,73.919L85.277,73.862L85.227,73.792L85.143,73.690L85.066,73.663L85.060,73.621L84.947,73.569L84.790,73.525L84.724,73.576L84.623,73.769L84.568,74.015L84.618,74.410L84.550,74.754L84.501,75.005L84.564,75.215L84.700,75.247L84.762,75.348L84.756,75.469L84.732,75.528L84.744,75.667L84.750,75.762L84.763,75.947L84.728,76.289L84.714,77.006L84.698,77.136L84.626,77.365L84.609,77.490L84.638,77.611L84.707,77.736L84.866,77.970L84.992,78.213L85.038,78.341L85.066,78.477L85.058,78.868L85.116,79.266L85.184,79.568L85.238,79.840L85.580,80.445L85.684,80.679L85.827,80.986L85.924,81.739L85.978,81.871L86.127,82.156L86.435,82.554L86.631,82.666L86.542,82.537L86.334,82.158L86.478,82.163L86.572,82.237L86.636,82.358L86.686,82.502L86.765,82.908L86.787,82.973L86.908,83.061L86.969,83.154L87.021,83.256L87.117,83.373L87.249,83.553L87.532,83.778L87.799,83.891L87.932,83.936L87.953,83.968L88.047,84.036L88.148,84.090L88.258,84.124L88.668,84.154L89.262,84.274L89.830,84.472L90.039,84.606L90.397,84.962L90.514,85.162L90.557,85.543L90.683,85.794L90.902,85.997L91.133,86.177L91.246,86.231L91.356,86.279L91.332,86.150L91.371,86.150L91.528,86.336L91.489,86.571L91.614,86.911L92.115,87.145L92.357,87.291L92.521,87.404L92.967,87.793L93.633,88.458L93.773,88.536L93.883,88.525L93.910,88.476L93.925,88.425L93.951,88.394L94.010,88.410L94.138,88.496L94.198,88.553L94.237,88.609L94.338,88.857L94.403,88.956L94.514,89.063L94.799,89.243L94.972,89.309L95.000,89.608L94.995,89.710L94.946,89.799L94.887,89.882L94.885,89.890L93.163,89.890L91.448,89.891L89.733,89.891L88.018,89.891L86.303,89.891L84.587,89.891L82.873,89.891L81.158,89.891L79.443,89.891L77.728,89.892L76.013,89.892L74.298,89.892L74.252,89.892L74.193,89.892L72.583,89.892L70.868,89.892L69.153,89.892L67.596,89.893L67.439,89.893L67.431,89.893L66.684,89.893L65.930,89.893L65.175,89.893L64.421,89.893L63.666,89.893L62.911,89.893L62.757,89.893L62.156,89.893L61.402,89.893L60.647,89.893L59.893,89.893L59.138,89.893L58.384,89.893L57.629,89.893L56.875,89.893L56.120,89.893L55.366,89.893L55.166,89.893L54.730,89.893L54.965,89.160L55.136,88.631L55.145,88.424L55.079,88.241L54.917,88.075L54.782,88.003L54.640,87.980L54.498,88.007L54.360,88.083L54.170,88.301L53.837,89.010L53.812,89.064L53.448,89.840L53.351,89.901L53.069,89.901L52.352,89.901L51.635,89.901L50.917,89.900L50.199,89.900L49.482,89.900L48.764,89.900L48.047,89.900L47.330,89.900L46.613,89.900L45.896,89.900L45.177,89.900L44.460,89.900L43.743,89.900L43.026,89.900L42.309,89.899L41.592,89.899L40.874,89.899L40.156,89.899L39.439,89.899L38.722,89.899L38.005,89.899L37.288,89.899L36.570,89.899L35.853,89.898L35.136,89.898L34.418,89.898L33.701,89.898L32.983,89.898L32.266,89.898L31.549,89.898L30.831,89.897L30.114,89.897L29.397,89.897L28.679,89.897L27.961,89.897L27.245,89.897L26.527,89.897L25.809,89.897L25.092,89.897L24.374,89.897L23.657,89.896L22.940,89.896L22.222,89.896L21.505,89.896L20.788,89.896L20.071,89.896L19.354,89.895L18.636,89.895L17.918,89.895L17.202,89.895L16.485,89.895L15.767,89.895L15.050,89.895L14.332,89.894L13.614,89.894L12.898,89.894L12.181,89.894L11.463,89.894L10.746,89.894L10.029,89.894L9.311,89.894L8.593,89.894L7.876,89.894L7.159,89.893L7.159,87.483L7.159,85.073L7.159,82.663L7.159,80.252L7.159,77.842L7.159,75.432L7.159,73.021L7.159,70.611L7.159,68.201L7.159,65.791L7.159,63.380L7.159,60.970L7.159,58.560L7.159,56.150L7.159,53.739L7.159,51.329L7.159,49.715L7.159,48.151L7.159,47.418L7.159,44.631L7.159,43.373L7.159,43.053L7.159,40.146L7.159,39.500L7.159,36.239L7.159,32.947L7.159,31.561L7.159,30.541L7.108,30.066L6.978,29.622L6.367,28.171L6.293,27.886L6.277,27.567L6.343,26.968L6.344,26.767L6.237,26.427L5.859,25.805L5.810,25.462L5.933,25.031L5.942,24.867L5.909,24.681L5.274,23.133L5.066,22.768L5.000,22.590L5.002,22.271L5.120,21.980L5.426,21.445L5.549,21.161L5.619,21.046L5.819,20.800L6.042,20.579L6.472,19.945L6.616,19.662L6.686,19.382L6.710,19.218L6.933,18.649L7.011,18.195L7.102,17.864L7.213,17.581L7.259,17.296L7.159,16.963L6.837,16.299L6.741,15.878L6.483,15.365L6.432,15.198L6.261,14.315L6.255,13.638L6.181,12.944L6.184,12.641L6.274,12.379L7.472,11.437L7.742,10.736L7.949,10.454L8.409,10.099L8.398,10.162L8.490,10.701L8.571,10.965L8.704,11.131L8.864,11.174L9.239,11.196L9.524,11.337L9.676,11.338L10.013,11.290L10.084,11.311L10.169,11.349L10.259,11.365L10.394,11.290L10.576,11.245L10.790,11.222L11.988,10.890L13.371,10.442L13.701,10.392L14.423,10.428L17.337,11.210L19.463,11.484L19.586,11.549L19.702,11.588L20.070,11.563L20.219,11.577L20.746,11.822L21.048,11.913L21.387,11.916L21.654,11.819L21.784,11.807L21.910,11.887L22.012,11.980L22.086,12.010L22.155,12.015L22.237,12.033L22.439,12.146L22.903,12.296L23.402,12.346L23.586,12.398L23.706,12.484L23.751,12.446L23.822,12.404L23.852,12.372L23.940,12.382L24.401,12.374L24.452,12.389L24.506,12.422L24.561,12.479L24.559,12.509L24.545,12.539L24.561,12.597L24.616,12.702L24.650,12.748L24.687,12.766L24.709,12.791L24.719,12.915L24.739,12.963L24.791,13.056L24.864,13.303L24.939,13.417L25.115,13.562L25.328,13.677L25.561,13.754L26.022,13.821L26.206,13.894L26.370,13.926L26.533,13.843L26.905,14.032L27.341,13.958L28.198,13.556L28.324,13.536L28.401,13.592L28.439,13.709L28.450,13.871L28.471,13.938L28.600,14.237L28.629,14.508L28.650,14.576L28.870,14.703L29.225,14.752L30.548,14.750L30.634,14.771L30.701,14.820L30.759,14.874L30.819,14.914L30.911,14.939L31.130,14.914L31.298,14.932L31.613,15.009L31.755,15.027L31.904,14.991L32.225,14.837L32.393,14.806L32.536,14.832L32.668,14.890L32.783,14.969L32.871,15.058L32.936,15.093L33.198,15.089L33.297,15.107L33.376,15.136L33.499,15.201L34.809,15.652L35.071,15.796L35.215,15.854L35.394,15.878L35.438,15.924L35.489,16.145L35.518,16.221L35.568,16.258L35.705,16.298L36.986,16.949L38.174,16.898L38.393,16.859L39.401,16.387L40.488,15.879L40.879,15.596L41.187,15.442L41.229,15.421L41.283,15.340L41.339,15.279L42.425,14.517L42.539,14.299L42.744,14.345L42.958,14.248L43.299,13.956L43.233,13.862L43.205,13.868L43.144,13.899L43.185,13.815L43.243,13.757L43.300,13.755L43.345,13.843L43.399,13.843L43.484,13.753L43.827,13.455L43.928,13.392L44.025,13.347L44.172,13.150L44.232,13.105L44.334,13.085L44.393,13.040L44.441,12.984L44.511,12.935L44.488,12.926L44.468,12.926L44.457,12.915L44.461,12.874L44.662,12.766L44.641,13.003L44.849,13.162L44.875,13.170L45.152,13.251L45.422,13.279L45.361,13.316L45.278,13.408L45.216,13.443L45.211,13.484L45.222,13.496L45.245,13.497L45.271,13.505L45.183,13.561L45.209,13.625L45.289,13.686L45.367,13.730L45.674,13.556L45.636,13.650L45.677,13.696L45.740,13.709L45.775,13.702L45.803,13.647L46.026,13.443L46.046,13.482L46.052,13.486L46.076,13.505L46.094,13.457L46.110,13.429L46.123,13.396L46.131,13.330L46.177,13.330L46.173,13.418L46.188,13.486L46.224,13.531L46.278,13.556L46.307,13.501L46.383,13.279L46.269,13.223L46.165,13.247L46.056,13.300L45.925,13.330L45.925,13.279L45.948,13.275L46.002,13.282L46.026,13.279L46.026,13.223L45.907,13.258L45.472,13.279L45.472,13.223L45.746,13.155L46.005,13.015L46.455,12.625L46.615,12.374L46.717,12.041L46.747,11.695L46.684,11.408L46.735,11.408L46.771,11.566L46.837,11.721L46.939,11.832L47.088,11.859L46.881,11.708L46.771,11.465L46.819,11.319L47.088,11.464L47.287,11.609L47.513,11.699L47.780,11.728L48.099,11.690L49.136,11.423L51.328,10.675L51.328,10.731L51.216,10.746L50.535,10.992L49.965,11.306L49.575,11.484L49.260,11.690L49.219,11.708L49.118,11.724L49.059,11.746L48.779,11.934L48.651,11.976L48.358,11.998L48.294,12.033L48.261,12.034L48.149,12.197L48.149,12.259L48.301,12.298L48.353,12.299L48.400,12.259L48.450,12.259L48.562,12.322L48.769,12.311L48.969,12.252L49.059,12.172L49.125,12.039L49.273,12.078L49.427,12.200L49.512,12.315L49.562,12.315L49.609,12.172L49.723,12.027L49.859,11.913L49.969,11.859L50.035,11.833L50.117,11.870L50.213,11.930L50.322,11.976L50.391,11.968L50.486,11.942L50.589,11.932L50.678,11.976L50.655,11.985L50.635,11.984L50.624,11.994L50.628,12.033L50.727,12.059L50.853,12.020L50.978,11.944L51.076,11.859L51.058,11.850L51.040,11.852L51.028,11.844L51.031,11.807L51.056,11.790L51.060,11.782L51.061,11.773L51.076,11.746L51.328,11.853L51.378,11.916L51.446,11.860L51.497,11.795L51.580,11.628L51.536,11.559L51.562,11.505L51.680,11.408L51.702,11.358L51.694,11.315L51.692,11.277L51.735,11.238L51.777,11.229L52.046,11.248L52.115,11.274L52.238,11.351L52.258,11.383L52.256,11.421L52.269,11.453L52.339,11.464L52.398,11.448L52.443,11.409L52.473,11.354L52.339,11.290L52.386,11.259L52.431,11.243L52.481,11.251L52.339,11.063L52.042,10.851L51.691,10.706L51.358,10.695L51.428,10.657L51.611,10.591L52.238,10.500L52.468,10.525L53.149,10.731L54.099,11.146L54.310,11.238L54.613,11.464L55.380,11.807L55.624,11.859L55.733,11.856L55.923,11.850L57.035,11.543L57.696,11.182L57.965,11.097L58.249,11.103L58.484,11.218L58.590,11.438L58.627,11.536L58.859,11.839L58.957,12.075L59.074,12.217L59.311,12.422L59.389,12.456L59.568,12.495L59.582,12.501L59.659,12.535L59.843,12.734L59.888,12.766L59.994,12.814L60.287,13.037L60.361,13.084L60.136,13.037L59.407,12.597L59.448,12.601L59.481,12.597L59.501,12.607L59.558,12.654L59.540,12.593L59.506,12.557L59.454,12.540L59.303,12.524L59.270,12.494L59.251,12.457L59.215,12.422L59.018,12.320L58.939,12.256L58.909,12.259L58.853,12.259L58.831,12.147L58.785,12.049L58.725,11.970L58.657,11.916L58.753,11.916L58.843,11.905L58.471,11.460L58.392,11.327L58.286,11.193L58.202,11.147L58.200,11.182L58.076,11.126L58.028,11.156L57.998,11.238L57.897,11.182L57.896,11.208L57.901,11.265L57.897,11.290L57.871,11.273L57.820,11.255L57.792,11.238L57.795,11.303L57.781,11.349L57.746,11.408L57.897,11.408L57.857,11.499L57.969,11.694L57.948,11.807L57.998,11.807L57.998,11.859L57.948,11.859L57.964,11.896L57.987,11.935L57.998,11.976L57.948,11.976L57.923,11.876L57.874,11.799L57.799,11.754L57.696,11.746L57.723,11.684L57.694,11.676L57.641,11.731L57.595,11.859L57.641,11.865L57.665,11.855L57.696,11.807L57.748,11.847L57.789,11.862L57.847,11.859L57.847,11.916L57.792,11.916L57.792,11.976L57.821,12.026L57.863,12.060L57.921,12.080L57.998,12.084L57.946,12.136L57.871,12.154L57.798,12.137L57.746,12.084L57.696,12.084L57.701,12.128L57.687,12.137L57.665,12.136L57.641,12.146L57.674,12.170L57.701,12.197L57.746,12.259L57.643,12.384L57.622,12.478L57.689,12.532L57.847,12.535L57.847,12.597L57.749,12.579L57.668,12.548L57.601,12.542L57.540,12.597L57.494,12.597L57.445,12.547L57.396,12.551L57.359,12.600L57.344,12.684L57.374,12.725L57.426,12.755L57.437,12.785L57.344,12.823L57.344,12.874L57.386,12.952L57.335,12.982L57.251,13.002L57.188,13.053L57.173,13.170L57.219,13.242L57.300,13.263L57.379,13.227L57.390,13.223L57.376,13.208L57.366,13.204L57.356,13.196L57.344,13.166L57.449,13.208L57.499,13.219L57.568,13.223L57.627,13.257L57.639,13.333L57.640,13.408L57.668,13.443L57.751,13.465L57.866,13.519L57.977,13.594L58.049,13.674L58.105,13.539L58.143,13.484L58.200,13.443L58.169,13.519L58.158,13.571L58.168,13.616L58.200,13.674L58.099,13.674L58.099,13.730L58.200,13.730L58.176,13.748L58.155,13.761L58.142,13.787L58.149,13.843L58.184,13.837L58.204,13.822L58.221,13.802L58.249,13.781L58.258,13.795L58.256,13.815L58.264,13.834L58.299,13.843L58.299,13.781L58.350,13.781L58.313,13.898L58.348,13.976L58.410,13.972L58.450,13.843L58.536,13.831L58.651,13.714L58.792,13.619L58.959,13.674L58.853,13.674L58.853,13.730L58.959,13.781L58.979,13.747L59.025,13.712L59.059,13.674L59.164,13.730L59.164,13.781L59.134,13.818L59.121,13.845L59.109,13.956L59.191,13.919L59.215,13.899L59.203,13.969L59.188,14.015L59.162,14.046L59.109,14.068L59.109,14.120L59.159,14.190L59.162,14.279L59.009,14.407L59.009,14.463L59.089,14.466L59.150,14.450L59.193,14.412L59.215,14.350L59.260,14.350L59.270,14.437L59.276,14.457L59.293,14.505L59.337,14.551L59.407,14.576L59.407,14.638L59.332,14.657L59.278,14.688L59.242,14.737L59.215,14.806L59.252,14.823L59.311,14.863L59.381,14.819L59.447,14.807L59.508,14.824L59.558,14.863L59.558,14.914L59.508,14.914L59.508,14.976L59.582,15.037L59.675,15.080L59.774,15.084L59.864,15.027L59.864,14.976L59.756,14.973L59.682,14.919L59.637,14.837L59.613,14.750L59.723,14.773L59.872,14.846L59.942,14.858L59.969,14.863L59.910,14.750L60.028,14.746L60.066,14.750L60.066,14.688L60.033,14.680L60.026,14.674L60.028,14.662L60.017,14.640L60.028,14.631L60.116,14.576L60.120,14.626L60.141,14.636L60.174,14.632L60.217,14.638L60.188,14.548L60.246,14.489L60.327,14.482L60.407,14.619L60.501,14.652L60.616,14.655L60.720,14.638L60.897,14.539L60.980,14.393L60.958,14.241L60.825,14.120L61.002,14.114L61.009,14.115L61.027,14.120L61.063,13.874L61.066,13.759L61.027,13.617L60.902,13.466L60.884,13.394L60.976,13.330L60.865,13.269L60.709,13.214L60.559,13.191L60.469,13.223L60.417,13.084L60.508,13.094L60.606,13.102L60.782,13.136L61.105,13.196L61.204,13.269L61.250,13.269L61.333,13.279L61.351,13.417L61.428,13.523L61.538,13.593L61.764,13.650L61.849,13.728L61.987,13.899L62.301,14.191L62.437,14.291L62.646,14.638L62.840,14.805L63.060,14.938L63.311,15.013L63.324,15.017L63.648,15.027L63.958,14.989L64.507,14.850L65.161,14.540L65.288,14.445L65.592,14.297L65.675,14.237L65.725,14.237L65.725,14.299L65.490,14.386L65.079,14.685L64.840,14.750L64.437,14.931L63.803,15.089L64.161,15.089L64.161,15.145L64.055,15.201L64.281,15.201L64.366,15.169L64.413,15.089L64.458,15.089L64.464,15.136L64.488,15.144L64.520,15.138L64.562,15.145L65.016,14.863L65.397,14.748L65.473,14.688L65.519,14.688L65.550,14.733L65.655,14.759L65.630,14.800L65.574,14.806L65.574,14.863L65.651,14.837L65.826,14.750L65.826,14.688L65.624,14.688L65.624,14.638L65.724,14.597L65.848,14.630L65.962,14.708L66.031,14.806L66.049,14.853L66.064,14.934L66.078,14.976L65.976,14.976L66.220,15.062L66.334,15.056L66.434,14.976L66.434,14.914L66.364,14.875L66.328,14.863L66.328,14.806L66.614,14.735L66.685,14.688L66.648,14.626L66.664,14.567L66.704,14.497L66.735,14.407L66.685,14.407L66.637,14.463L66.484,14.576L66.461,14.606L66.436,14.631L66.436,14.657L66.484,14.688L66.386,14.710L66.218,14.708L66.044,14.683L65.925,14.638L66.148,14.616L66.274,14.490L66.367,14.324L66.484,14.181L66.573,14.140L66.755,14.109L66.841,14.068L66.982,13.939L67.067,13.898L67.193,13.899L67.193,13.956L66.988,13.956L66.988,14.007L67.080,14.072L67.344,14.407L67.424,14.547L67.393,14.593L67.300,14.616L67.193,14.688L67.184,14.668L67.184,14.646L67.175,14.632L67.138,14.638L67.138,14.688L67.262,14.771L67.328,14.878L67.325,15.004L67.244,15.145L67.508,15.042L67.644,15.011L67.742,15.027L67.792,15.017L67.827,15.017L67.893,15.027L67.893,14.976L67.792,14.914L67.742,14.914L67.742,14.976L67.697,14.976L67.697,14.914L68.088,14.767L68.196,14.688L68.250,14.688L68.196,14.750L68.250,14.806L68.304,14.760L68.365,14.755L68.417,14.790L68.447,14.863L68.501,14.863L68.508,14.793L68.506,14.710L68.496,14.697L68.602,14.688L68.532,14.653L68.459,14.663L68.389,14.655L68.304,14.638L69.110,14.576L69.045,14.426L69.140,14.396L69.257,14.387L69.257,14.237L69.336,14.275L69.362,14.299L69.412,14.299L69.511,14.272L69.805,14.420L69.943,14.463L70.481,14.517L70.625,14.576L70.625,14.519L70.792,14.568L71.037,14.552L72.558,14.171L73.978,13.628L75.095,12.933L75.108,12.925L75.287,13.244L75.330,13.380L75.462,13.774L75.538,14.000L75.828,14.870L76.060,15.566L76.343,16.286ZM84.166,81.774L82.565,83.361L83.550,82.408L84.589,81.403L85.580,80.445L84.166,81.774ZM79.363,85.727L79.736,84.842L79.985,84.237L79.363,85.727ZM77.329,87.690L78.659,87.394L76.748,87.796L74.719,88.270L75.998,87.986L77.329,87.690ZM74.010,44.802L74.010,44.853L73.957,44.845L73.861,44.829L73.728,44.677L73.684,44.626L73.527,44.576L73.455,44.533L73.385,44.448L73.310,44.392L73.310,44.392L73.143,44.472L73.075,44.417L73.023,44.320L72.995,44.232L73.036,44.179L73.085,44.145L73.139,44.128L73.200,44.125L73.367,44.147L73.425,44.184L73.490,44.225L73.549,44.278L73.587,44.310L73.680,44.350L73.842,44.412L73.889,44.552L73.915,44.704L74.010,44.802ZM78.509,40.875L78.657,40.640L79.026,40.653L79.028,40.968L78.826,41.056L78.651,40.999L78.509,40.875ZM78.205,40.957L77.923,40.977L77.665,40.962L77.450,40.874L77.303,40.686L77.290,40.669L77.301,40.557L77.276,40.396L77.240,40.332L77.265,40.292L77.276,40.284L77.276,40.285L77.290,40.332L77.291,40.330L77.317,40.267L77.353,40.217L77.396,40.182L77.445,40.162L77.445,40.162L77.574,40.231L77.616,40.273L77.643,40.332L77.451,40.370L77.367,40.413L77.340,40.501L77.375,40.537L77.404,40.567L77.529,40.581L77.744,40.545L77.837,40.513L77.853,40.529L77.869,40.529L77.904,40.584L77.936,40.646L77.944,40.669L77.945,40.670L78.064,40.773L78.205,40.895L78.205,40.957ZM66.136,14.778L66.165,14.830L66.182,14.914L66.103,14.846L66.078,14.806L66.038,14.806L66.092,14.767L66.136,14.778ZM69.610,14.243L68.462,13.763L68.250,13.730L68.480,13.738L68.860,13.911L69.032,13.956L69.254,13.997L69.452,14.100L69.769,14.350L69.610,14.243ZM68.056,13.710L67.828,13.668L67.609,13.638L67.389,13.607L67.138,13.674L67.017,13.648L66.824,13.714L65.936,14.173L65.780,14.299L65.866,14.172L66.038,14.092L66.181,14.017L66.272,13.966L66.370,13.896L66.754,13.725L66.841,13.645L67.033,13.536L68.196,13.674L68.149,13.710L68.056,13.710Z" fill="currentColor" stroke="currentColor" stroke-width="1.5" stroke-linejoin="round"/>
</svg>