<svg xmlns="http://www.w3.org/2000/svg" viewBox="0 0 100 100" role="img" aria-label="Eritrea">
  <title>Eritrea</title>
  <path d="M94.917,84.441L91.998,85.715L91.860,85.728L91.694,85.594L91.574,85.579L91.349,85.779L91.037,86.532L90.451,87.095L90.498,87.509L90.623,87.946L90.546,88.320L90.378,88.412L89.976,88.489L89.863,88.614L89.679,88.882L89.255,89.003L89.192,89.021L89.014,89.283L86.910,87.387L86.293,87.107L85.928,87.009L85.692,87.052L85.001,87.809L84.359,87.119L83.264,85.609L82.388,84.091L81.748,83.530L81.001,83.104L80.235,82.784L79.187,82.099L78.484,81.100L77.440,78.806L77.013,78.085L76.556,77.476L76.033,76.925L75.008,76.070L73.600,74.895L71.268,73.385L69.456,72.211L69.051,71.804L68.101,70.101L67.057,68.232L65.636,66.597L64.231,64.982L63.413,64.392L62.501,64.046L61.288,63.871L60.909,63.747L59.484,63.056L58.703,62.647L57.790,61.791L56.760,60.826L56.232,60.508L55.650,60.268L54.443,59.972L54.206,59.975L53.542,60.173L53.351,60.178L53.037,60.121L52.768,60.072L52.522,60.135L52.108,60.489L51.846,60.564L51.592,60.520L51.388,60.422L50.681,59.802L50.311,59.566L49.908,59.432L49.480,59.446L49.318,59.474L48.710,59.578L48.350,59.546L47.659,59.336L47.583,59.295L47.501,59.216L47.227,58.881L47.023,58.709L46.757,58.557L46.525,58.554L46.419,58.833L46.180,59.157L45.632,59.427L44.531,59.736L44.276,59.751L43.548,59.633L43.214,59.687L43.032,59.854L42.739,60.327L42.403,60.331L42.125,59.815L41.735,58.661L41.551,58.363L41.319,58.076L41.048,57.826L40.755,57.640L40.620,57.586L40.237,57.497L39.757,57.442L39.737,57.393L39.564,57.565L39.543,57.796L39.564,58.056L39.524,58.313L39.333,58.564L39.059,58.738L38.499,59.001L38.056,59.411L37.808,59.586L37.209,59.645L36.408,59.979L36.153,60.040L35.904,60.063L35.660,60.039L35.416,59.956L35.153,59.947L34.322,60.382L33.822,60.517L32.796,60.635L32.134,60.630L32.020,60.663L31.908,60.651L31.741,60.524L31.669,60.399L31.579,60.098L31.470,59.995L30.750,59.600L30.540,59.434L30.383,59.229L30.274,58.984L30.146,58.456L30.060,58.277L29.920,58.169L29.763,58.082L29.635,57.961L29.568,57.825L29.503,57.442L29.476,57.376L29.392,57.166L29.255,56.997L29.048,56.911L28.730,56.891L27.965,57.024L27.722,56.979L26.264,56.375L26.153,56.284L26.077,56.147L26.067,56.025L26.038,55.917L25.906,55.816L25.755,55.790L25.696,55.724L25.667,55.631L25.616,55.530L25.608,55.487L25.612,55.340L25.605,55.283L25.558,55.236L25.427,55.220L25.369,55.171L25.112,54.661L24.950,54.422L24.716,54.216L24.168,55.547L23.295,57.658L22.430,59.752L21.587,61.792L20.815,63.661L20.331,64.833L20.179,64.989L19.938,64.831L19.798,64.664L19.735,64.433L19.720,64.077L19.680,63.944L19.576,63.839L19.438,63.770L19.299,63.745L19.127,63.679L19.047,63.523L18.979,63.175L18.880,62.914L18.822,62.830L18.279,62.371L18.085,62.258L18.047,62.109L18.054,61.792L18.035,61.585L17.983,61.472L17.778,61.265L17.270,60.523L17.016,60.373L16.688,60.090L16.503,60.118L16.210,60.220L15.216,60.200L14.753,60.306L14.368,60.600L14.164,60.901L14.056,61.175L14.010,61.458L14.002,61.792L13.964,62.084L13.863,62.313L13.718,62.486L13.550,62.604L13.446,62.625L13.202,62.595L13.092,62.604L12.897,62.768L12.817,62.794L12.680,62.782L12.563,62.743L12.458,62.684L12.351,62.604L12.108,62.268L12.029,62.216L11.583,62.156L10.707,61.895L10.275,61.835L9.358,61.835L9.227,61.867L9.009,62.003L8.895,62.034L8.290,62.034L8.021,62.079L7.606,62.276L7.420,62.319L7.134,62.327L6.907,62.380L6.738,62.522L6.640,62.794L6.380,62.789L6.083,60.231L5.880,58.507L5.676,56.759L5.518,55.409L5.428,54.640L5.154,52.308L5.000,50.987L5.019,50.682L5.128,50.439L6.116,49.472L6.361,49.089L7.041,47.063L7.303,46.633L7.743,46.337L7.559,45.729L7.593,45.141L8.322,42.474L8.487,42.167L9.151,41.478L9.512,40.883L10.156,39.048L10.763,37.317L11.210,36.048L11.428,35.684L11.990,35.102L12.127,34.748L12.091,34.451L11.847,33.887L11.778,33.595L11.797,33.298L11.844,33.048L11.851,32.802L11.765,32.561L11.751,32.521L11.561,32.266L11.350,32.041L11.175,31.795L11.083,31.473L11.093,31.282L11.258,30.726L11.299,30.457L11.274,30.004L11.296,29.757L11.418,29.494L11.622,29.310L12.065,28.992L12.209,28.800L12.540,27.964L12.591,27.131L12.616,27.069L12.713,26.958L12.738,26.900L12.722,26.819L12.642,26.694L12.624,26.640L12.649,26.082L12.616,25.905L12.499,25.733L12.359,25.596L12.313,25.446L12.640,24.978L12.702,24.709L12.654,24.443L12.387,24.073L12.356,23.950L12.384,23.839L12.386,23.832L12.474,23.728L12.748,23.692L12.962,23.786L13.164,23.926L13.405,24.024L13.750,24.083L13.889,24.134L14.408,24.452L14.542,24.474L15.270,24.356L15.470,24.386L15.877,24.360L16.516,23.965L16.903,23.932L18.161,24.286L18.917,23.384L19.029,23.107L19.092,22.796L19.387,22.272L19.471,21.988L19.534,21.407L19.521,21.154L19.371,20.517L19.405,20.358L19.549,20.270L21.328,19.720L21.870,19.644L22.419,19.360L23.003,18.313L23.472,18.062L23.746,18.137L24.148,18.523L24.455,18.616L24.776,18.543L25.040,18.342L25.460,17.803L26.368,17.196L26.381,17.187L26.696,17.073L27.004,17.074L27.131,17.213L27.144,17.445L27.125,17.723L27.201,18.024L27.403,18.022L27.625,17.830L27.765,17.564L27.769,17.418L27.734,17.322L27.718,17.233L27.779,17.109L27.858,17.096L28.331,16.946L28.549,17.082L28.753,17.288L28.991,17.433L29.309,17.386L29.535,17.161L29.570,16.886L29.553,16.591L29.621,16.316L29.853,16.104L30.519,15.783L30.791,15.573L31.162,14.976L31.971,12.845L32.343,12.305L34.255,10.717L34.283,10.863L34.409,11.015L34.507,11.444L35.079,12.246L35.124,12.386L35.140,12.671L35.171,12.817L35.413,13.159L35.455,13.239L35.521,13.476L36.782,15.393L37.721,17.559L38.654,19.175L38.979,20.357L39.132,20.634L38.971,21.175L39.220,21.594L39.587,21.975L39.774,22.401L39.843,22.939L39.958,23.407L40.358,24.228L40.417,24.496L40.462,25.061L40.531,25.344L40.741,25.748L40.816,26.314L40.882,26.543L41.325,27.558L41.617,28.642L41.433,28.547L41.701,29.168L41.774,29.474L41.801,29.878L41.552,30.140L41.769,30.774L41.709,31.131L41.617,31.036L41.633,31.252L41.765,31.312L41.912,31.316L41.984,31.363L41.965,31.848L41.984,31.977L42.033,32.104L42.092,32.211L42.145,32.332L42.167,32.505L42.148,33.055L42.167,33.230L42.214,33.358L42.335,33.580L42.358,33.752L42.338,33.923L42.256,34.267L42.259,34.465L42.670,36.282L42.725,36.897L42.771,37.108L43.085,37.800L43.557,39.612L43.817,40.097L44.620,40.591L44.744,40.807L44.850,40.899L45.342,41.121L45.477,41.238L45.483,41.418L45.418,41.569L45.335,41.709L45.293,41.856L45.336,42.020L45.526,42.227L45.569,42.335L45.588,42.705L45.663,42.929L46.026,43.337L45.794,43.358L45.634,43.495L45.578,43.698L45.660,43.916L45.717,43.797L45.840,43.655L45.986,43.595L46.120,43.717L46.091,43.980L45.831,44.106L45.529,44.144L45.385,44.145L45.416,44.276L45.660,44.667L45.722,45.136L45.752,45.237L45.942,45.309L46.254,45.336L46.549,45.300L46.677,45.190L46.779,45.026L47.018,44.991L47.290,45.046L47.494,45.143L47.818,45.580L48.520,47.860L48.576,47.911L48.828,48.007L48.885,48.054L48.916,48.299L48.996,48.530L49.113,48.727L49.255,48.866L49.055,49.625L48.986,50.819L49.015,50.875L49.141,50.966L49.172,51.017L49.219,51.230L49.347,51.340L49.521,51.347L49.712,51.250L49.845,51.510L49.999,51.550L50.210,51.487L50.504,51.441L50.597,51.370L50.671,51.208L50.704,51.033L50.685,50.917L50.617,50.788L50.668,50.698L50.831,50.585L51.087,50.124L51.115,49.854L50.846,49.382L50.701,48.824L50.590,48.625L50.412,48.622L50.304,48.837L50.214,48.955L50.096,48.668L50.064,48.397L50.096,47.678L50.079,47.523L50.011,47.259L49.996,47.104L50.026,46.934L50.101,46.878L50.190,46.851L50.269,46.767L50.359,46.291L50.448,46.152L50.639,46.291L50.730,46.291L50.744,46.180L50.831,45.912L50.912,45.912L50.917,45.956L50.912,46.093L51.061,45.975L51.239,45.678L51.363,45.523L51.561,45.883L51.830,46.173L53.108,47.236L53.305,47.337L53.614,47.405L53.721,47.443L53.856,47.527L54.012,47.657L54.113,47.797L54.156,47.943L54.131,48.097L54.034,48.262L53.793,48.455L53.673,48.581L53.600,48.714L53.397,49.238L53.546,49.224L53.660,49.257L53.738,49.344L53.764,49.488L53.731,49.529L53.593,49.582L53.573,49.626L53.597,49.686L53.660,49.742L53.673,49.777L53.744,49.893L54.059,50.129L54.131,50.249L54.169,50.426L54.344,50.787L54.407,50.966L54.399,51.121L54.362,51.303L54.349,51.484L54.407,51.639L54.574,51.578L54.757,51.617L54.905,51.723L54.964,51.864L54.990,51.980L55.049,52.006L55.112,52.020L55.149,52.105L55.141,52.232L55.066,52.441L55.048,52.538L55.181,52.786L55.492,52.945L56.486,53.301L56.701,53.408L56.799,53.488L56.891,53.743L57.092,53.696L57.399,53.436L57.702,53.317L57.914,53.039L58.086,52.724L58.275,52.494L58.258,52.715L58.306,52.907L58.430,53.010L58.650,52.970L58.721,52.847L58.691,52.689L58.717,52.553L58.958,52.494L59.103,52.485L59.143,52.477L59.283,52.581L59.261,52.628L59.233,52.726L59.260,52.822L59.424,52.866L59.521,52.907L59.562,52.989L59.614,53.060L59.742,53.065L59.831,53.022L59.909,52.949L59.975,52.864L60.026,52.779L59.959,52.667L59.929,52.556L59.926,52.296L60.001,52.365L60.066,52.515L60.118,52.581L60.483,52.676L60.516,52.794L60.505,52.915L60.506,53.039L60.575,53.160L60.678,53.228L60.746,53.214L60.821,53.174L60.942,53.160L61.188,53.194L61.318,53.253L61.375,53.384L61.425,53.930L61.470,54.042L61.858,54.205L61.797,53.971L61.910,53.895L62.276,53.919L62.368,53.983L62.407,54.106L62.344,54.183L62.134,54.110L62.051,54.205L62.694,54.879L62.700,54.847L62.746,54.823L62.810,54.848L62.877,54.965L62.895,55.070L62.877,55.448L62.766,55.764L62.763,55.920L62.877,56.106L63.221,56.352L63.333,56.511L63.334,56.780L63.476,56.689L63.605,56.630L63.743,56.620L63.894,56.675L63.894,56.407L64.202,56.544L64.919,56.512L65.315,56.727L65.728,57.030L66.104,57.137L67.011,57.168L68.568,57.527L68.721,57.592L68.883,57.803L69.099,58.314L69.275,58.550L69.872,58.974L70.272,59.254L70.593,59.652L70.804,60.131L70.881,60.645L70.984,60.862L71.205,60.999L71.428,61.102L71.530,61.220L71.590,61.324L71.840,61.632L72.016,62.191L72.296,62.530L72.914,63.077L73.266,63.486L73.382,63.685L73.474,63.933L73.577,64.386L73.637,64.551L73.748,64.701L73.932,64.844L74.378,65.119L74.611,65.319L74.812,65.572L75.300,66.506L75.442,67.081L75.559,67.289L76.412,67.549L76.592,67.561L77.025,67.392L77.192,67.370L77.298,67.436L77.559,67.894L77.776,68.123L77.875,68.181L78.067,68.225L78.215,68.222L78.513,68.144L78.618,68.130L78.850,68.223L79.323,68.538L79.497,68.605L79.648,68.715L79.716,68.970L79.755,69.258L79.819,69.469L80.373,69.905L80.459,70.088L80.518,70.090L80.826,70.515L80.918,70.705L80.949,70.724L81.069,70.778L81.102,70.800L81.161,70.960L81.242,71.268L81.336,71.418L81.475,71.457L81.640,71.390L81.777,71.312L81.835,71.323L81.882,71.411L82.114,71.574L82.203,71.655L82.256,71.784L82.333,72.106L82.386,72.225L82.698,72.462L82.754,72.476L82.805,72.667L82.911,72.666L82.996,72.581L82.987,72.527L82.917,72.475L82.724,72.223L82.678,72.139L82.652,72.115L82.609,72.092L82.573,72.043L82.570,71.941L82.613,71.936L82.800,71.946L82.845,71.941L82.855,71.571L82.675,71.414L82.445,71.290L82.157,71.276L82.052,71.237L82.085,71.157L82.209,71.089L82.386,71.085L82.845,71.465L83.341,72.136L83.535,72.225L83.778,72.378L83.863,72.721L83.862,73.288L84.013,73.748L84.132,73.959L84.275,74.049L84.406,74.203L84.505,74.556L84.714,76.165L84.905,76.497L84.977,77.174L84.965,77.237L85.000,77.277L85.413,77.528L85.697,77.614L86.309,77.668L86.565,77.621L86.721,77.495L86.814,77.313L86.898,77.098L87.076,77.138L87.127,77.226L87.132,77.345L87.181,77.478L87.261,77.546L87.351,77.597L87.425,77.671L87.455,77.815L87.561,77.996L88.238,78.575L88.708,79.369L88.881,79.482L89.148,79.522L89.368,79.623L89.552,79.763L89.706,79.914L89.812,80.129L89.941,80.908L90.162,81.416L90.214,81.677L90.249,82.071L90.300,82.294L90.398,82.437L90.588,82.486L90.763,82.431L90.939,82.333L91.130,82.255L91.312,82.632L91.575,82.862L91.943,82.976L92.425,83.007L92.361,83.078L92.241,83.292L92.369,83.302L92.473,83.271L92.606,83.196L92.592,83.180L92.842,83.014L92.884,83.007L93.041,82.826L93.166,82.627L93.201,82.500L93.195,82.406L93.221,82.329L93.349,82.255L93.267,82.116L93.249,81.982L93.281,81.860L93.349,81.763L93.732,82.062L93.916,82.246L93.992,82.389L94.051,82.534L94.191,82.653L94.359,82.759L94.497,82.869L94.589,83.051L94.606,83.472L94.641,83.681L95.000,84.338L94.917,84.441ZM58.229,43.614L58.427,43.621L58.496,43.657L58.603,44.212L58.520,44.466L58.330,44.573L58.325,44.571L58.048,44.430L57.954,44.409L57.829,44.381L57.178,44.543L56.899,44.564L56.611,44.467L56.144,44.238L55.836,44.193L55.171,44.334L55.037,44.310L54.964,44.296L54.911,44.246L54.831,44.143L54.777,44.073L54.745,44.044L54.690,43.995L54.689,43.994L54.567,44.222L54.412,44.340L54.185,44.360L53.856,44.296L53.312,44.083L53.242,44.069L53.059,44.031L52.757,44.097L52.755,44.097L52.641,43.942L52.554,43.822L52.197,42.767L52.350,42.771L52.444,42.801L52.458,42.853L52.460,42.861L52.380,42.957L52.488,43.020L52.570,43.104L52.600,43.162L52.623,43.208L52.655,43.337L52.657,43.337L52.755,43.337L52.882,43.288L53.059,43.358L53.246,43.465L53.397,43.528L53.398,43.527L53.567,43.519L54.131,43.337L53.885,42.896L53.557,42.532L53.157,42.287L52.705,42.197L52.262,42.290L52.104,42.246L52.013,41.999L52.031,41.724L52.149,41.568L52.324,41.546L52.643,41.755L52.726,41.808L52.905,41.823L52.957,41.712L52.796,41.471L52.722,41.238L52.707,41.191L52.971,41.061L53.324,41.028L53.471,41.038L53.488,41.039L53.542,40.870L53.452,40.649L53.299,40.457L53.165,40.375L53.164,40.374L52.695,40.406L52.544,40.331L52.381,40.098L52.380,40.097L52.871,40.137L53.391,40.254L53.881,40.446L54.178,40.649L54.269,40.711L54.396,40.908L54.458,41.005L54.457,41.006L54.390,41.207L54.250,41.361L54.223,41.514L54.325,41.619L54.451,41.624L54.578,41.574L54.689,41.514L54.666,41.463L54.600,41.369L54.589,41.279L54.731,41.238L54.872,41.318L54.903,41.497L54.905,41.513L54.826,42.641L54.865,42.854L54.937,43.017L54.952,43.054L55.190,43.459L55.240,43.571L55.371,43.581L56.157,43.812L56.362,43.422L56.440,43.337L56.552,43.308L56.371,43.240L56.099,43.158L55.983,43.000L55.982,43.000L56.082,42.845L56.323,42.767L56.625,42.747L56.899,42.767L57.050,42.796L57.171,42.835L57.223,42.862L57.272,42.888L57.358,42.957L57.411,43.063L57.430,43.189L57.471,43.294L57.587,43.337L57.777,43.381L58.057,43.571L58.229,43.614ZM54.320,37.962L54.121,38.145L54.079,38.356L54.163,38.435L54.279,38.499L54.374,38.592L54.512,38.689L54.577,38.817L54.338,38.885L53.944,38.754L53.616,38.573L53.039,38.513L52.905,38.374L52.908,38.144L53.015,37.930L53.252,37.840L53.554,37.815L53.673,37.738L53.627,37.621L53.600,37.485L53.594,37.339L53.620,37.186L53.717,37.128L54.056,37.395L54.154,37.452L54.287,37.483L54.530,37.591L54.635,37.758L54.543,37.885L54.320,37.962Z" fill="currentColor" stroke="currentColor" stroke-width="1.5" stroke-linejoin="round"/>
</svg>