<svg xmlns="http://www.w3.org/2000/svg" viewBox="0 0 100 100" role="img" aria-label="Western Sahara">
  <title>Western Sahara</title>
  <path d="M93.545,9.616L93.550,9.616L94.233,9.617L94.983,9.617L94.983,10.718L94.983,11.819L94.983,12.920L94.983,14.022L94.984,14.183L94.985,14.639L94.985,15.349L94.986,16.268L94.988,17.355L94.989,18.570L94.991,19.868L94.992,21.209L94.993,22.550L94.995,23.848L94.996,25.062L94.998,26.149L94.999,27.069L94.999,27.778L94.999,28.234L95.000,28.396L95.000,28.926L94.927,29.080L94.718,29.138L93.812,29.138L92.734,29.139L91.658,29.139L90.583,29.139L89.506,29.139L88.430,29.139L87.354,29.139L86.278,29.139L85.202,29.139L84.125,29.139L83.049,29.139L81.974,29.139L80.897,29.139L79.821,29.139L78.745,29.139L77.669,29.139L76.593,29.139L75.516,29.139L74.440,29.139L73.364,29.139L72.288,29.139L71.212,29.139L70.135,29.139L69.060,29.139L67.983,29.139L66.907,29.139L65.831,29.139L64.755,29.139L63.679,29.139L62.602,29.139L61.527,29.139L60.450,29.139L59.374,29.140L59.374,30.026L59.374,30.911L59.374,31.797L59.374,32.682L59.374,33.567L59.374,34.453L59.374,35.339L59.374,36.224L59.374,37.109L59.374,37.996L59.374,38.881L59.374,39.766L59.374,40.651L59.374,41.537L59.374,42.423L59.374,43.308L59.374,44.193L59.374,45.079L59.374,45.965L59.374,46.850L59.374,47.736L59.374,48.621L59.374,49.507L59.374,50.392L59.374,51.278L59.374,52.163L59.374,53.049L59.374,53.935L59.374,54.820L59.374,55.706L59.374,56.592L59.374,57.477L59.374,58.423L59.331,58.823L59.188,59.011L58.100,59.311L55.757,60.446L55.372,60.563L53.572,60.823L52.920,61.051L52.249,61.521L51.098,62.328L49.761,63.263L48.691,64.013L48.487,64.280L47.573,65.588L47.227,66.332L47.086,67.121L47.198,67.869L47.718,69.376L47.857,70.134L48.033,73.063L48.209,75.992L48.511,80.836L48.574,81.850L48.691,83.747L47.126,83.747L46.684,83.748L45.437,83.748L43.497,83.748L40.981,83.748L38.004,83.749L35.012,83.749L34.682,83.750L31.129,83.750L27.462,83.750L23.794,83.751L20.241,83.751L16.919,83.752L13.942,83.753L11.426,83.753L9.487,83.753L8.240,83.754L7.797,83.754L6.558,83.754L6.456,83.851L6.271,84.867L6.065,85.991L5.612,87.332L5.541,87.706L5.291,88.772L5.251,89.120L5.510,90.384L5.388,90.084L5.047,89.556L5.000,89.264L5.035,89.104L5.132,88.826L5.152,88.660L5.152,88.100L5.196,87.895L5.393,87.291L5.832,83.800L5.932,83.377L5.955,83.204L5.971,82.733L6.651,82.619L9.003,82.150L10.605,82.024L14.773,82.024L16.374,81.795L17.658,81.795L19.473,81.909L20.971,82.150L22.572,82.378L24.388,82.378L25.885,82.493L27.805,82.493L29.197,82.378L30.157,81.795L31.013,80.628L31.331,79.690L31.655,78.866L31.545,78.043L31.441,77.574L31.973,76.990L32.614,76.052L33.256,75.469L33.470,74.999L34.112,74.530L34.857,73.707L35.285,73.123L35.817,72.311L35.927,71.602L36.141,70.664L36.141,69.028L36.355,67.037L36.673,65.745L36.887,64.692L37.101,63.056L37.743,60.242L37.956,59.418L38.384,58.137L38.916,56.959L39.344,56.135L39.882,55.437L40.627,54.968L41.801,54.499L42.657,54.030L43.726,53.561L44.686,53.206L45.542,52.737L45.865,52.280L46.397,51.456L47.143,49.934L47.571,48.996L48.213,47.818L48.959,47.006L49.421,46.690L49.814,46.422L50.779,45.827L51.953,45.129L52.809,44.546L53.555,43.951L54.196,43.494L54.942,42.784L55.266,42.201L55.693,41.148L56.226,39.501L56.654,37.751L57.081,35.874L57.399,34.708L57.723,33.300L58.151,32.236L58.469,31.070L58.683,30.600L58.683,30.017L58.897,29.193L58.941,29.129L59.220,28.724L59.966,28.495L60.821,28.255L62.167,28.072L62.559,27.867L62.762,27.180L62.919,26.585L63.425,25.624L63.993,24.858L64.322,24.389L64.766,23.576L65.203,22.993L65.960,22.249L66.622,21.666L66.847,21.071L66.847,20.362L66.372,19.790L66.038,18.737L67.416,18.417L68.626,18.062L69.732,17.719L71.057,17.250L72.048,17.250L72.820,17.136L73.926,17.365L75.027,17.479L75.799,17.833L77.124,18.531L78.230,19.000L78.892,19.000L79.602,18.771L80.202,18.440L80.567,18.417L81.120,18.657L81.981,19.126L82.862,19.126L83.744,19.000L84.406,18.417L85.512,17.479L86.394,16.781L87.187,16.335L87.829,16.220L88.549,16.220L89.373,16.197L90.698,16.312L91.580,16.312L92.785,16.152L93.792,15.957L94.230,15.603L94.230,15.134L94.011,14.436L93.771,13.761L93.708,13.143L93.855,12.491L94.011,11.976L93.902,11.152L93.589,10.180L93.529,9.641L93.545,9.616Z" fill="currentColor" stroke="currentColor" stroke-width="1" stroke-linejoin="round"/>
</svg>