<svg xmlns="http://www.w3.org/2000/svg" viewBox="0 0 100 100" role="img" aria-label="Estonia">
  <title>Estonia</title>
  <path d="M40.039,69.710L40.188,69.464L40.297,69.205L40.347,68.896L40.381,68.571L40.431,68.266L41.101,66.567L41.344,65.495L42.027,64.646L42.276,64.166L42.276,62.851L42.380,62.255L42.401,61.922L42.325,61.636L42.215,61.385L42.148,61.093L42.145,60.788L42.325,60.207L42.333,59.908L42.326,59.609L42.373,59.307L42.664,58.906L43.089,58.623L43.472,58.265L43.640,57.639L43.507,57.057L43.193,56.597L41.994,55.632L41.413,55.382L40.827,55.329L40.334,55.578L40.177,55.800L40.016,56.123L39.891,56.479L39.842,56.802L39.821,57.225L39.766,57.469L39.327,58.258L39.149,58.511L38.944,58.677L38.688,58.751L38.169,58.604L37.912,58.603L37.670,58.844L37.414,59.463L37.284,59.576L37.035,59.477L36.885,59.309L36.456,58.564L35.803,57.959L35.423,57.473L34.482,57.068L33.914,57.017L33.644,56.895L33.570,56.811L33.413,56.577L33.344,56.507L33.216,56.491L33.130,56.567L33.051,56.661L32.950,56.710L32.822,56.646L32.684,56.530L32.545,56.479L32.418,56.608L32.332,56.767L32.241,56.885L32.141,56.912L32.034,56.802L31.947,56.577L31.868,56.265L31.811,55.938L31.788,55.671L31.721,55.267L31.560,55.055L31.371,54.898L31.218,54.652L31.133,54.297L31.135,54.018L31.218,53.352L31.231,52.547L31.155,51.881L30.941,51.553L30.532,51.766L30.354,51.746L30.082,51.560L29.815,51.318L29.661,51.125L29.559,50.746L29.543,50.434L29.487,50.277L29.274,50.366L29.084,50.628L28.971,50.919L28.852,51.052L28.641,50.839L28.593,50.575L28.683,50.283L28.812,49.987L28.879,49.717L28.797,49.211L28.634,48.539L28.524,47.824L28.588,47.194L28.713,46.955L28.830,46.919L29.129,47.026L29.233,46.968L29.281,46.840L29.275,46.713L29.046,46.480L29.008,46.119L29.089,45.811L29.274,45.803L29.817,46.070L30.345,45.976L30.872,45.771L31.411,45.711L31.689,45.823L32.235,46.188L32.471,46.267L32.905,46.267L32.947,46.181L32.964,45.988L32.939,45.797L32.857,45.711L32.634,45.583L32.580,45.296L32.664,44.982L32.862,44.781L33.099,44.801L33.651,45.110L33.923,45.153L33.541,44.703L33.092,44.384L32.646,44.357L32.270,44.781L32.013,44.438L31.724,44.409L31.121,44.596L30.085,44.524L29.758,44.596L29.475,44.768L29.331,44.902L29.226,45.052L29.139,45.077L28.690,44.951L28.415,44.999L27.621,45.339L28.147,44.363L28.418,44.121L28.887,44.039L28.991,43.846L28.105,42.639L27.984,42.127L27.521,41.429L27.516,40.885L27.823,40.468L28.764,40.535L29.072,40.124L29.317,40.283L29.568,40.302L29.817,40.209L30.274,39.826L30.389,39.692L30.429,39.514L30.435,39.181L30.343,38.530L30.114,38.059L29.803,37.731L29.468,37.512L29.644,37.867L30.064,38.282L30.241,38.640L30.121,38.716L29.861,38.744L29.758,38.809L29.468,39.181L29.448,39.275L29.451,39.436L29.371,39.738L29.234,39.766L29.146,39.644L29.074,39.476L28.984,39.383L28.072,39.154L27.697,38.843L27.323,38.252L27.420,38.268L27.621,38.244L27.718,38.252L27.618,37.762L27.698,37.422L28.342,36.674L28.489,36.547L28.638,36.625L28.879,36.954L28.895,35.550L28.425,34.214L28.208,33.181L28.984,32.684L29.142,32.704L29.439,32.825L29.607,32.853L29.732,32.796L29.935,32.542L30.256,32.376L30.429,32.150L30.630,31.951L30.919,31.927L31.673,32.650L31.716,32.657L31.885,32.684L32.051,32.440L32.061,32.148L31.963,31.891L31.788,31.742L31.947,31.398L32.258,31.238L33.513,31.210L34.128,31.370L34.790,31.321L35.527,31.040L36.249,30.976L36.844,31.573L37.120,30.942L37.006,30.451L36.101,29.226L35.977,28.965L36.017,28.670L36.196,28.383L36.385,28.208L36.595,28.146L36.844,28.198L37.241,28.487L38.038,29.323L38.448,29.496L38.846,29.293L38.725,28.829L38.355,28.328L38.013,28.013L38.293,27.837L39.545,27.746L40.039,27.556L40.203,27.233L40.371,26.340L40.431,26.156L41.363,25.932L41.687,25.970L41.965,26.176L42.477,26.759L42.760,26.883L43.022,26.764L43.243,26.532L43.467,26.364L43.736,26.443L44.553,27.017L44.804,27.085L45.058,26.971L45.002,26.719L44.773,26.470L44.510,26.359L44.510,26.156L44.883,26.193L45.030,26.116L45.090,25.869L45.140,25.572L45.263,25.464L45.423,25.491L45.582,25.600L45.838,26.012L46.018,26.483L46.246,26.792L46.646,26.713L46.810,26.586L46.893,26.473L47.221,25.791L47.257,25.647L47.130,25.229L47.038,25.070L46.911,24.957L46.801,24.817L46.752,24.570L46.750,24.313L46.736,24.121L46.704,23.939L46.646,23.727L47.083,23.440L47.624,23.877L48.580,25.043L48.938,25.138L50.040,24.857L50.374,24.943L50.959,25.328L51.252,25.415L51.516,25.272L51.395,24.569L51.596,24.283L51.928,24.293L52.616,24.741L55.642,25.600L55.666,25.600L55.566,24.968L55.756,24.621L56.100,24.483L57.419,24.486L57.568,24.402L57.562,24.209L57.461,24.017L57.313,23.930L56.907,23.430L56.693,22.336L56.644,21.238L56.734,20.741L56.983,20.946L57.449,21.851L57.710,22.057L58.012,22.180L58.252,22.475L58.681,23.169L58.996,23.404L59.452,23.561L59.865,23.474L60.044,22.976L59.934,22.515L59.719,22.206L59.566,21.860L59.649,21.297L59.560,21.274L59.432,21.168L59.366,21.130L59.706,20.712L60.140,20.849L60.922,21.669L60.817,21.871L60.991,22.218L61.109,22.878L61.302,23.169L61.569,23.311L61.721,23.278L61.828,23.255L62.067,23.016L62.278,22.614L62.173,22.428L62.374,21.787L62.678,21.986L62.996,22.495L63.245,22.783L63.535,22.712L63.564,22.535L63.503,22.298L63.526,22.057L63.703,21.789L63.868,21.705L64.056,21.752L64.546,22.007L65.085,22.521L65.141,22.631L65.168,22.783L65.188,22.984L65.319,23.029L67.997,22.984L68.270,23.068L68.848,23.440L69.720,23.643L70.513,24.110L71.082,24.270L71.394,24.283L71.629,24.197L72.109,23.813L72.313,23.727L72.902,23.779L73.450,23.945L73.978,24.231L74.498,24.655L75.091,25.287L75.743,25.983L76.435,26.234L77.026,26.602L77.312,26.713L79.841,26.932L82.091,26.798L83.988,26.664L86.171,27.203L88.351,27.337L90.564,27.868L91.151,27.680L91.700,27.309L92.120,26.798L92.629,25.853L92.905,26.363L93.541,26.691L93.844,27.009L94.177,27.818L94.311,28.065L94.477,28.260L94.843,28.568L95.000,28.756L94.934,29.269L94.590,29.053L93.967,29.558L92.817,29.652L92.368,29.876L93.396,30.277L93.731,30.265L93.444,30.650L91.788,30.617L90.998,31.054L90.692,31.454L90.812,31.933L90.567,32.519L90.127,34.566L89.304,36.850L89.061,37.427L88.455,38.555L88.298,39.167L88.051,39.567L88.030,39.601L86.769,40.722L84.962,42.333L84.516,43.870L84.011,45.610L84.269,46.846L84.558,48.228L85.261,51.598L86.054,55.385L85.193,57.442L85.034,58.826L85.211,60.108L85.554,60.841L85.843,61.458L86.405,62.707L87.124,63.728L87.211,64.519L87.120,65.231L87.140,66.015L87.410,66.126L87.672,66.346L87.758,67.003L87.691,67.352L87.588,67.651L87.534,67.963L87.613,68.346L87.729,68.497L89.163,69.098L89.396,69.366L89.516,69.904L89.339,70.271L89.008,70.513L88.120,70.889L86.075,71.208L85.810,71.250L85.625,71.365L85.738,71.426L86.040,71.706L85.647,71.910L85.452,72.072L85.311,72.310L85.246,72.769L85.403,73.536L85.387,73.880L85.141,74.156L83.970,74.581L83.739,74.820L83.643,74.978L83.573,75.194L83.535,75.458L83.548,75.595L83.580,75.703L83.617,76.063L83.650,76.152L83.676,76.249L83.646,76.810L83.606,76.927L83.504,77.058L83.330,77.148L83.137,77.161L82.962,77.225L82.841,77.458L82.848,77.800L82.948,78.253L83.081,78.683L83.194,78.968L82.727,79.280L80.541,78.449L79.404,78.374L79.066,78.205L78.780,77.857L78.260,77.029L77.927,76.756L77.438,76.583L77.192,76.577L76.943,76.635L76.723,76.593L76.565,76.399L76.391,76.261L76.129,76.387L75.908,76.732L75.763,77.135L75.593,77.511L75.302,77.780L75.051,77.857L73.952,77.795L73.478,77.955L73.015,78.239L72.597,78.622L72.506,78.798L72.456,78.998L72.389,79.164L72.244,79.233L72.108,79.186L71.846,78.989L71.711,78.952L71.519,79.069L71.326,79.249L71.106,79.288L70.844,78.980L70.370,78.280L70.134,78.041L70.131,78.039L69.007,77.538L68.827,77.458L68.240,77.023L67.758,76.434L66.417,74.172L65.946,73.609L64.381,72.261L64.258,71.926L64.216,71.365L64.258,71.116L64.339,70.955L64.388,70.792L64.342,70.532L64.236,70.400L64.069,70.314L61.093,70.042L60.738,69.690L60.556,69.148L60.424,68.596L60.211,68.217L59.994,68.210L59.835,68.266L59.075,68.535L58.720,68.566L58.386,68.514L58.073,68.317L57.775,67.915L57.698,67.699L57.687,67.519L57.683,67.491L57.660,67.342L57.539,67.138L57.401,67.040L56.901,66.927L56.342,66.561L55.484,65.498L54.916,65.183L54.773,65.192L54.681,65.242L54.593,65.263L54.464,65.183L54.375,65.024L54.206,64.531L54.110,64.345L53.856,64.132L53.599,64.085L53.417,64.266L53.401,64.736L53.798,65.472L53.895,65.906L53.613,66.286L53.160,66.525L52.937,66.525L52.729,66.346L52.557,65.760L52.426,65.090L52.232,64.531L51.864,64.279L51.201,64.298L50.867,64.399L50.558,64.600L50.360,64.807L49.510,65.697L49.149,65.953L48.061,66.116L47.718,66.341L47.422,66.620L47.272,66.762L46.903,66.699L46.534,66.456L46.092,66.340L45.884,66.621L45.624,67.373L45.402,67.553L44.542,67.651L43.548,67.557L43.264,67.621L42.520,68.321L41.958,68.626L41.781,68.836L41.548,69.483L41.390,69.757L41.059,69.948L40.655,69.970L40.039,69.710ZM34.900,63.051L34.824,62.396L35.070,62.002L35.479,61.857L35.892,61.955L36.016,62.598L35.737,63.177L35.288,63.421L34.900,63.051ZM24.805,52.406L25.152,52.536L25.626,52.858L26.048,53.285L26.259,53.723L26.141,54.106L25.241,53.465L24.904,53.723L25.083,53.773L25.246,53.853L25.382,54.005L25.476,54.263L24.865,54.171L24.593,54.009L24.315,53.723L24.261,53.594L24.205,53.402L24.115,53.226L23.973,53.149L23.755,53.148L23.731,53.204L23.648,53.352L23.620,53.451L23.544,53.846L23.494,54.002L23.385,54.181L23.288,54.285L23.077,54.467L22.982,54.451L22.849,54.398L22.732,54.450L22.680,54.752L22.687,54.918L22.704,55.093L22.732,55.256L22.767,55.392L22.442,55.651L22.140,56.030L21.850,56.255L21.220,55.754L20.899,55.771L20.795,55.999L21.106,56.338L20.160,57.652L19.938,57.773L19.710,57.846L19.471,58.008L19.058,58.539L18.864,58.696L18.544,58.751L17.897,58.685L17.590,58.780L17.433,59.122L18.092,59.543L17.617,60.001L16.853,60.107L16.651,59.477L16.437,59.326L16.175,59.258L15.909,59.275L15.677,59.393L15.462,59.619L15.376,59.735L15.311,59.679L15.152,59.393L14.952,59.222L14.827,59.404L14.706,59.865L14.604,59.952L14.558,60.014L14.515,60.052L14.417,60.065L14.412,59.971L14.337,59.563L14.329,59.477L14.128,59.466L13.880,59.580L13.650,59.765L13.499,59.964L13.347,60.104L13.182,60.039L13.018,59.938L12.869,59.964L12.764,60.054L12.495,60.210L12.385,60.235L11.955,60.512L11.554,60.886L11.369,61.166L11.266,61.255L11.223,61.391L11.197,62.403L11.133,63.000L11.012,63.593L10.622,64.709L10.505,64.960L10.346,65.179L10.205,65.420L10.185,65.683L10.249,66.292L10.065,66.567L8.059,68.435L7.613,68.452L7.234,67.878L7.295,67.561L7.243,67.263L7.102,67.038L6.904,66.951L6.866,66.906L6.845,66.799L6.840,66.672L6.856,66.562L7.229,66.597L7.340,66.562L7.439,66.374L7.592,65.801L7.677,65.551L8.209,64.706L8.453,64.133L8.588,63.883L8.737,63.779L8.942,63.843L9.124,63.966L9.294,64.042L9.467,63.965L9.544,63.783L9.627,63.216L9.712,62.951L10.249,62.108L9.929,61.756L9.384,61.521L8.398,61.348L8.125,61.056L7.613,59.771L7.287,59.477L6.367,59.466L5.908,59.313L5.503,58.936L5.269,58.466L5.161,58.147L5.154,57.915L5.330,57.787L6.074,58.008L5.911,57.595L5.669,57.171L5.580,56.842L5.881,56.710L6.133,56.893L6.360,57.245L6.590,57.464L6.856,57.250L6.736,56.776L6.922,56.491L7.240,56.401L7.534,56.507L7.406,56.195L7.234,55.610L6.609,54.378L6.305,53.979L5.974,53.396L5.784,53.149L5.383,52.758L5.000,52.239L5.746,52.586L5.977,52.592L6.188,52.506L6.220,52.409L6.226,52.267L6.361,52.038L6.902,52.060L7.312,52.197L7.668,52.558L8.284,53.715L8.364,53.992L8.395,54.364L8.417,54.524L8.476,54.609L8.555,54.644L8.640,54.652L8.769,54.546L8.772,54.311L8.693,53.909L8.774,53.196L8.843,52.885L8.984,52.592L9.170,52.412L9.626,52.167L9.809,51.952L9.970,51.573L10.034,51.372L10.131,51.291L10.390,51.277L10.428,51.337L10.476,51.477L10.521,51.640L10.540,51.766L10.559,52.091L10.616,52.250L10.821,52.406L11.244,52.482L11.381,51.938L11.396,51.191L11.458,50.653L11.934,50.233L13.933,50.012L15.169,49.015L15.635,48.881L15.789,49.027L16.052,49.664L16.210,49.810L16.300,49.868L16.451,50.122L16.554,50.180L16.697,50.122L16.946,49.866L17.036,49.810L17.327,49.898L17.562,50.058L17.804,50.143L18.111,50.012L18.574,49.417L18.867,49.195L19.362,49.454L20.117,49.268L20.434,49.346L20.746,49.543L21.393,49.772L22.055,50.249L22.828,50.609L23.115,51.023L23.321,51.583L23.430,51.749L23.639,51.952L24.210,52.255L24.805,52.406ZM26.943,50.366L27.164,50.807L27.207,51.031L26.919,51.245L26.802,51.484L26.668,51.655L26.452,51.573L26.225,51.410L25.982,51.323L25.484,51.277L25.287,51.345L24.865,51.595L24.708,51.573L23.445,50.366L22.718,50.077L22.379,49.725L22.428,49.151L22.607,49.009L23.042,49.161L23.251,49.049L23.288,48.903L23.385,48.338L23.445,48.139L23.729,47.755L24.028,47.615L24.340,47.628L25.623,48.012L26.216,48.377L26.407,48.604L26.484,48.866L26.470,49.135L26.439,49.393L26.460,49.625L26.576,49.865L26.836,50.190L26.943,50.366ZM26.694,38.160L27.058,38.743L27.115,39.049L26.988,39.476L26.840,39.612L26.670,39.559L26.502,39.440L26.356,39.383L26.205,39.441L25.775,39.738L25.484,39.744L25.000,39.454L24.703,39.383L24.620,39.440L24.585,39.562L24.524,39.682L24.005,39.808L23.851,39.791L23.639,39.653L23.230,38.509L23.155,38.355L23.223,38.036L23.399,37.840L23.638,37.740L23.949,37.700L24.485,37.749L25.476,38.067L26.100,37.887L26.414,37.879L26.694,38.160ZM11.507,41.795L10.588,42.033L10.136,41.991L8.260,40.963L8.007,40.682L8.161,40.233L8.709,40.142L9.757,40.296L13.933,39.738L13.657,39.552L13.636,39.363L13.813,39.295L14.127,39.476L14.293,39.459L14.280,38.501L14.516,38.252L14.837,38.231L15.086,38.129L15.296,37.903L15.489,37.512L15.539,37.270L15.539,37.041L15.565,36.815L15.691,36.583L15.840,36.514L16.446,36.581L16.455,36.583L16.817,36.639L17.240,36.795L17.489,37.056L17.170,37.828L17.308,38.268L17.579,38.631L17.809,38.809L19.232,38.713L20.605,39.381L20.824,39.738L20.868,40.018L20.796,40.438L20.824,40.682L20.951,40.939L21.248,41.186L21.362,41.341L21.453,41.507L21.653,41.736L21.753,41.888L21.794,42.013L21.808,42.154L21.801,42.462L21.846,42.641L21.942,42.694L22.041,42.698L22.092,42.724L22.113,43.275L22.013,43.559L21.808,43.593L21.224,43.182L21.075,43.119L20.927,43.095L20.824,43.189L20.788,43.363L20.720,43.453L20.536,43.296L20.301,43.416L20.059,43.418L19.833,43.494L19.657,43.838L19.791,43.842L19.882,43.913L19.938,44.061L19.955,44.300L19.934,44.642L19.868,44.709L19.758,44.712L19.607,44.867L19.348,45.021L18.942,45.037L18.565,44.900L18.399,44.596L18.554,44.311L18.864,44.088L19.087,43.862L18.980,43.577L18.738,43.557L18.388,43.721L18.043,43.972L17.809,44.207L17.504,44.871L17.020,46.447L16.651,47.026L16.031,47.360L15.245,47.455L14.481,47.243L13.933,46.654L14.062,46.560L14.187,46.427L14.417,46.081L14.221,45.791L13.963,45.291L13.741,44.742L13.644,44.300L13.644,43.643L13.604,43.259L13.464,42.958L12.786,42.147L12.399,41.880L11.977,41.757L11.507,41.795ZM43.009,22.691L43.223,23.074L43.494,23.787L43.391,24.058L43.015,24.154L42.630,23.736L42.605,23.223L42.792,22.740L43.009,22.691ZM25.228,71.196L25.372,71.352L25.435,71.598L25.365,71.954L25.083,71.989L24.789,71.790L24.623,71.539L24.635,71.305L24.662,71.083L24.715,70.919L24.932,70.950L25.228,71.196Z" fill="currentColor" stroke="currentColor" stroke-width="1.5" stroke-linejoin="round"/>
</svg>