<svg xmlns="http://www.w3.org/2000/svg" viewBox="0 0 100 100" role="img" aria-label="Ethiopia">
  <title>Ethiopia</title>
  <path d="M11.490,48.096L11.467,47.630L11.655,46.726L12.398,44.620L12.752,44.291L12.888,44.088L12.897,44.021L12.876,43.873L12.878,43.804L12.894,43.771L12.952,43.712L12.971,43.676L13.022,43.419L13.016,43.145L12.724,41.807L12.697,41.555L12.744,41.340L13.261,40.608L13.493,40.158L13.588,40.030L13.691,39.940L14.415,39.440L14.517,39.402L14.590,39.431L15.317,40.071L15.493,40.185L15.573,40.254L15.611,40.346L15.586,40.529L15.595,40.618L15.658,40.642L15.706,40.593L15.786,40.406L15.860,40.341L15.961,40.331L16.034,40.353L16.100,40.344L16.177,40.243L16.213,40.135L16.214,40.061L16.239,39.989L16.348,39.885L16.672,39.638L16.774,39.493L16.819,39.284L16.787,39.193L16.608,39.062L16.551,38.983L16.555,38.916L16.952,37.753L16.975,37.564L16.898,37.439L16.793,37.322L16.735,37.157L16.752,37.026L17.509,35.359L17.531,35.239L17.516,35.125L17.391,34.877L17.348,34.752L17.359,34.504L17.313,34.273L17.317,34.151L17.359,34.006L17.424,33.857L17.506,33.717L17.598,33.600L17.830,33.449L17.962,33.399L18.364,33.245L18.545,33.042L18.558,32.983L18.561,32.872L18.562,32.844L18.579,32.788L18.633,32.735L18.858,32.606L18.975,32.471L19.027,32.327L19.087,31.993L19.194,31.728L19.239,31.659L19.298,31.609L19.429,31.541L19.492,31.490L19.547,31.408L19.564,31.332L19.580,31.162L19.644,30.992L20.774,29.118L20.828,29.057L20.879,29.036L20.995,29.027L21.047,29.005L21.107,28.941L21.129,28.878L21.137,28.813L21.178,28.658L21.177,28.626L21.199,28.607L21.281,28.569L21.289,28.565L21.443,28.514L23.254,28.254L23.305,28.252L23.378,28.265L23.418,28.285L23.453,28.310L23.507,28.340L23.671,28.385L23.765,28.348L23.816,28.228L23.934,27.552L23.933,27.404L23.907,27.313L23.767,27.071L23.761,26.936L23.830,26.832L23.920,26.744L23.974,26.654L23.972,26.602L23.953,26.550L23.905,26.453L23.896,26.337L24.476,24.335L25.368,23.061L25.423,22.889L25.445,22.545L25.466,22.423L25.716,21.814L25.825,21.546L25.808,21.243L25.704,20.939L25.671,20.790L25.669,20.636L25.695,20.506L26.235,18.850L26.351,18.852L26.395,18.733L26.470,18.671L26.571,18.648L26.699,18.644L26.782,18.625L26.968,18.540L27.088,18.520L27.359,18.520L27.410,18.506L27.507,18.447L27.566,18.433L27.976,18.433L28.169,18.459L28.560,18.573L28.760,18.599L28.795,18.622L28.904,18.769L28.951,18.804L28.998,18.830L29.051,18.847L29.112,18.852L29.147,18.841L29.235,18.769L29.284,18.765L29.393,18.778L29.440,18.769L29.515,18.718L29.579,18.642L29.625,18.542L29.641,18.414L29.645,18.268L29.666,18.145L29.714,18.025L29.805,17.893L29.977,17.765L30.184,17.719L30.629,17.727L30.760,17.683L30.842,17.671L30.989,17.794L31.102,17.860L31.329,18.184L31.421,18.274L31.444,18.324L31.453,18.414L31.450,18.553L31.466,18.618L31.553,18.667L31.796,18.868L31.822,18.904L31.866,19.018L31.896,19.171L31.932,19.239L32.009,19.267L32.071,19.278L32.133,19.309L32.179,19.355L32.197,19.413L32.204,19.568L32.232,19.669L32.295,19.742L32.403,19.811L32.471,19.743L32.687,19.231L33.032,18.414L33.409,17.523L33.795,16.608L34.186,15.685L34.431,15.104L34.535,15.194L34.608,15.298L34.723,15.521L34.749,15.543L34.807,15.549L34.828,15.570L34.831,15.595L34.829,15.659L34.833,15.678L34.856,15.722L34.869,15.763L34.895,15.792L34.963,15.803L35.022,15.847L35.035,15.894L35.039,15.948L35.073,16.008L35.123,16.047L35.774,16.311L35.883,16.331L36.225,16.273L36.367,16.281L36.459,16.319L36.521,16.393L36.559,16.485L36.571,16.514L36.600,16.681L36.629,16.740L36.687,16.793L36.757,16.831L36.819,16.878L36.858,16.957L36.915,17.187L36.964,17.294L37.034,17.384L37.128,17.456L37.450,17.629L37.498,17.674L37.539,17.806L37.571,17.860L37.645,17.916L37.696,17.921L37.746,17.907L38.042,17.909L38.501,17.857L38.724,17.798L39.096,17.608L39.213,17.612L39.323,17.648L39.432,17.659L39.543,17.649L39.657,17.622L40.015,17.476L40.283,17.450L40.394,17.374L40.592,17.195L40.842,17.080L40.965,17.004L41.050,16.894L41.068,16.782L41.058,16.668L41.068,16.567L41.145,16.492L41.154,16.513L41.369,16.538L41.540,16.576L41.600,16.600L41.731,16.681L41.852,16.790L41.956,16.916L42.038,17.046L42.213,17.551L42.337,17.776L42.487,17.774L42.618,17.567L42.699,17.494L42.849,17.471L43.174,17.523L43.288,17.516L43.780,17.381L44.025,17.263L44.132,17.121L44.179,16.999L44.283,17.001L44.402,17.067L44.493,17.142L44.615,17.289L44.652,17.323L44.686,17.341L44.995,17.433L45.156,17.447L45.428,17.401L45.500,17.389L45.691,17.383L45.871,17.442L46.037,17.545L46.353,17.816L46.444,17.859L46.558,17.878L46.675,17.845L46.860,17.690L46.970,17.663L47.090,17.684L47.230,17.709L47.316,17.707L47.613,17.620L47.719,17.619L48.258,17.749L48.518,17.853L48.755,17.992L49.215,18.414L49.623,18.788L49.972,18.966L50.609,19.269L50.778,19.323L51.321,19.399L51.728,19.550L52.094,19.808L52.722,20.514L53.357,21.228L53.824,22.045L54.248,22.789L54.430,22.967L55.239,23.480L56.282,24.139L56.911,24.653L57.369,25.026L57.603,25.267L57.807,25.533L57.998,25.848L58.465,26.851L58.779,27.287L59.248,27.586L59.590,27.727L59.924,27.913L60.210,28.158L60.602,28.821L61.091,29.481L61.378,29.782L61.016,30.266L60.833,30.663L60.033,31.750L59.942,31.972L59.894,32.047L59.753,32.116L59.686,32.189L59.444,32.638L58.948,33.340L58.718,33.665L58.651,33.732L58.568,33.796L58.484,33.836L58.417,33.856L58.366,33.892L58.332,33.979L58.273,34.057L58.037,34.160L57.948,34.220L57.853,34.413L57.771,34.874L57.593,35.426L57.597,35.757L57.753,36.457L57.826,37.118L57.812,38.287L57.774,38.547L57.666,38.720L57.698,38.761L57.741,38.818L57.891,38.875L58.600,39.019L58.621,39.050L58.636,39.086L58.672,39.116L58.724,39.124L58.756,39.101L58.783,39.071L58.824,39.054L59.164,39.040L59.330,38.999L59.516,38.810L59.678,38.756L60.008,38.720L60.317,38.791L60.430,38.792L60.512,38.772L60.726,38.676L60.777,38.670L60.885,38.674L60.936,38.669L61.132,38.603L61.268,38.625L61.361,38.657L61.452,38.661L61.581,38.600L61.980,38.338L62.520,38.173L62.751,38.155L62.796,38.152L63.222,38.253L63.365,38.259L63.480,38.302L63.632,38.633L63.734,38.719L63.868,38.748L64.116,38.773L64.264,38.816L64.343,38.829L64.432,38.797L64.492,38.723L64.552,38.672L64.646,38.705L64.571,38.835L64.510,39.083L64.465,39.186L64.364,39.270L64.112,39.376L64.020,39.472L63.972,39.593L63.949,39.694L63.910,39.787L63.817,39.887L63.602,40.060L63.531,40.158L63.474,40.306L63.416,40.553L63.372,40.673L63.300,40.774L63.184,40.840L63.064,40.877L62.986,40.934L62.994,41.063L63.114,41.335L63.274,41.588L63.605,41.910L63.698,42.030L63.763,42.196L63.840,42.752L63.952,43.142L64.121,43.513L64.277,43.701L64.853,44.076L64.995,44.221L65.103,44.402L65.179,44.601L65.228,44.800L65.343,45.083L65.510,45.250L65.730,45.339L66.004,45.387L66.228,45.488L66.343,45.683L66.516,46.653L66.598,46.893L66.729,47.039L66.891,47.080L66.941,47.104L66.999,47.165L67.056,47.297L67.096,47.363L67.153,47.416L67.274,47.496L67.329,47.550L67.466,47.826L67.502,47.935L67.517,48.139L67.543,48.253L67.620,48.348L67.933,48.537L68.395,48.816L68.507,48.827L68.654,48.771L68.750,48.764L68.835,48.811L69.297,49.235L69.833,49.725L70.597,50.425L71.017,50.810L71.251,50.948L71.733,51.108L72.262,51.284L72.792,51.460L73.321,51.636L73.850,51.812L74.379,51.988L74.909,52.163L75.438,52.339L75.967,52.515L76.496,52.691L77.026,52.867L77.554,53.042L78.084,53.219L78.613,53.394L79.142,53.570L79.671,53.746L80.201,53.922L80.705,54.093L81.209,54.264L81.714,54.435L82.217,54.606L82.721,54.777L83.225,54.948L83.729,55.119L84.233,55.290L84.737,55.460L85.241,55.631L85.745,55.802L86.249,55.973L86.753,56.144L87.257,56.315L87.761,56.486L88.264,56.657L88.644,56.786L88.996,56.962L89.530,56.963L90.385,56.963L91.319,56.963L92.265,56.963L93.047,56.963L94.145,56.963L95.000,56.962L94.708,57.248L94.415,57.533L94.123,57.818L93.832,58.102L93.540,58.388L93.249,58.672L92.957,58.957L92.665,59.243L92.373,59.527L92.317,59.582L92.082,59.813L91.790,60.098L91.498,60.383L91.207,60.668L90.915,60.953L90.623,61.238L90.330,61.523L90.039,61.808L89.747,62.093L89.455,62.378L89.163,62.663L88.872,62.948L88.580,63.233L88.289,63.518L87.996,63.804L87.704,64.088L87.413,64.373L87.121,64.658L86.830,64.943L86.707,65.063L86.438,65.325L86.169,65.588L86.047,65.707L85.920,65.831L85.662,66.084L85.296,66.464L84.930,66.844L84.563,67.224L84.197,67.604L83.830,67.984L83.464,68.364L83.097,68.745L82.732,69.125L82.088,69.837L81.444,70.550L80.800,71.263L80.225,71.899L80.156,71.976L79.512,72.688L78.868,73.401L78.223,74.114L77.579,74.827L77.238,75.205L77.236,75.205L76.761,75.724L76.587,75.798L76.262,75.779L75.951,75.761L75.640,75.742L75.328,75.724L75.017,75.706L74.706,75.688L74.691,75.687L74.395,75.670L74.084,75.652L73.772,75.633L73.462,75.615L73.150,75.597L72.839,75.578L72.528,75.560L72.217,75.542L71.905,75.524L71.594,75.506L71.283,75.487L70.922,75.466L70.701,75.519L70.178,75.707L69.998,75.749L69.406,75.887L68.950,75.993L68.277,76.150L67.862,76.349L67.187,76.672L66.502,77.001L65.820,77.329L65.317,77.747L64.866,78.121L64.819,78.181L64.779,78.246L64.699,78.451L64.592,78.876L64.501,79.072L64.324,79.272L64.317,79.280L64.093,79.429L63.842,79.531L63.415,79.604L62.512,79.760L61.591,79.919L60.885,80.041L60.432,80.045L59.912,80.051L59.717,80.101L59.510,80.206L59.171,80.480L58.747,80.743L58.640,80.839L58.599,80.957L58.604,81.143L58.572,81.219L58.490,81.286L58.409,81.406L58.114,81.575L57.847,81.522L57.583,81.381L57.297,81.286L57.043,81.434L56.956,81.453L56.870,81.437L56.711,81.371L56.616,81.364L56.135,81.484L55.976,81.493L55.674,81.578L55.001,81.618L54.388,81.653L54.074,81.616L53.783,81.497L53.516,81.286L53.131,80.740L52.974,80.594L52.877,80.536L52.590,80.437L52.481,80.380L52.419,80.319L52.318,80.130L52.171,79.960L51.809,79.712L51.677,79.535L51.298,79.787L50.799,79.981L50.164,80.227L49.389,80.529L49.355,80.562L49.319,80.660L49.287,80.691L48.813,80.857L48.205,81.072L48.189,81.073L48.171,81.068L48.153,81.058L48.095,81.052L48.089,81.076L48.094,81.114L48.066,81.150L47.795,81.286L47.212,81.571L46.696,81.823L46.181,82.075L46.060,82.225L45.942,82.543L45.775,82.991L45.675,83.179L45.561,83.332L45.088,83.769L44.694,84.133L44.539,84.321L44.408,84.726L44.307,84.886L44.115,84.896L44.020,84.832L43.974,84.751L43.943,84.668L43.891,84.600L43.706,84.537L42.956,84.515L43.011,84.402L42.983,84.339L42.905,84.335L42.866,84.357L42.633,84.493L42.404,84.499L42.170,84.448L41.630,84.197L41.552,84.161L41.495,84.147L41.150,84.220L41.057,84.222L40.967,84.188L40.866,84.174L40.614,84.223L40.458,84.226L40.010,84.103L39.418,83.941L39.308,83.880L39.214,83.784L39.052,83.567L39.054,83.607L39.046,83.692L39.047,83.734L38.697,83.708L38.665,83.687L38.659,83.655L38.648,83.634L38.563,83.668L38.530,83.672L38.451,83.664L38.368,83.642L38.344,83.607L38.332,83.559L38.284,83.501L38.170,83.405L38.139,83.391L38.081,83.415L38.069,83.466L38.074,83.520L38.066,83.555L37.760,83.690L37.424,83.719L36.782,83.646L36.145,83.573L35.957,83.588L35.768,83.636L35.694,83.623L35.556,83.501L35.377,83.446L35.300,83.403L35.207,83.292L35.055,83.044L34.943,82.931L34.758,82.811L34.159,82.421L33.588,82.049L32.968,81.645L32.417,81.287L31.931,80.970L31.246,80.524L30.660,80.143L30.075,79.762L29.750,79.551L29.715,79.541L29.679,79.542L29.648,79.535L29.628,79.502L29.597,79.367L29.574,79.308L29.534,79.254L29.489,79.240L29.369,79.249L29.325,79.219L29.231,79.058L29.172,79.014L28.927,78.957L28.500,78.739L28.142,78.639L26.985,78.649L26.970,78.645L26.935,78.637L26.846,78.583L26.794,78.571L25.854,78.591L24.738,78.613L24.661,78.603L24.552,78.549L24.493,78.533L24.429,78.533L24.223,78.562L23.346,78.569L23.322,78.569L23.184,78.536L23.057,78.452L22.824,78.246L22.717,78.178L22.676,78.092L22.678,77.988L22.696,77.866L22.690,77.749L22.610,77.606L22.599,77.501L21.780,76.620L21.633,76.368L21.583,76.072L21.608,74.800L21.639,74.722L21.868,74.428L21.917,74.306L21.916,74.181L21.863,74.035L21.744,73.805L21.725,73.687L21.765,73.545L21.928,73.306L21.898,73.252L21.569,73.124L21.175,72.878L21.022,72.836L20.911,72.863L20.804,72.913L20.661,72.944L20.515,72.904L20.257,72.692L20.120,72.611L20.013,72.583L19.887,72.566L19.761,72.566L19.653,72.588L19.521,72.677L19.276,72.948L19.141,73.043L18.996,73.065L18.885,73.013L18.796,72.911L18.599,72.596L18.575,72.540L18.582,72.465L18.625,72.400L18.677,72.337L18.713,72.268L18.687,72.195L18.643,72.073L18.411,71.884L17.930,71.600L17.662,71.401L17.599,71.283L17.547,70.930L17.462,70.768L16.976,70.071L16.916,69.937L16.906,69.857L16.917,69.790L16.936,69.721L16.949,69.635L16.931,69.567L16.832,69.459L16.801,69.393L16.804,69.322L16.825,69.254L16.888,69.125L16.877,69.055L16.826,68.729L16.778,68.611L16.676,68.482L16.563,68.377L16.463,68.261L16.349,67.964L16.137,67.592L16.108,67.471L16.103,67.112L16.065,66.955L15.825,66.540L15.774,66.418L15.725,66.067L15.592,65.721L15.530,65.475L15.470,65.227L15.428,65.201L15.356,65.117L15.326,65.006L15.290,64.939L14.881,64.666L14.779,64.625L14.648,64.609L14.392,64.609L14.286,64.586L14.216,64.526L14.175,64.277L14.168,64.251L14.140,64.189L14.134,64.152L14.147,64.146L14.203,64.107L14.216,64.090L14.208,63.971L14.182,63.864L14.142,63.772L14.090,63.692L13.702,63.419L12.852,63.214L12.834,63.192L12.793,63.173L12.751,63.144L12.721,63.039L12.691,63.002L12.446,62.820L12.386,62.743L12.349,62.707L12.302,62.692L12.256,62.632L12.241,62.494L12.241,62.429L12.241,62.238L12.212,62.114L12.155,62.006L12.073,61.957L11.973,62.005L11.861,62.029L11.745,61.943L11.581,61.737L11.306,61.519L11.267,61.501L11.252,61.470L11.249,60.902L11.208,60.697L11.105,60.530L10.359,59.763L10.180,59.657L10.117,59.642L9.993,59.627L9.934,59.611L9.631,59.386L9.441,59.118L9.361,59.027L9.304,58.998L9.114,58.943L8.950,58.835L8.887,58.819L8.497,58.856L8.369,58.819L8.306,58.773L8.223,58.662L8.164,58.607L8.104,58.578L7.994,58.546L7.941,58.504L7.837,58.465L7.682,58.471L7.423,58.524L7.369,58.551L7.222,58.649L7.146,58.651L6.812,58.565L6.703,58.467L6.609,58.356L6.517,58.275L6.466,58.260L6.271,58.230L6.100,58.160L6.049,58.151L5.855,58.195L5.823,58.209L5.787,58.259L5.707,58.248L5.574,58.188L5.411,58.170L5.369,58.151L5.348,58.114L5.329,58.058L5.306,58.007L5.202,57.945L5.151,57.850L5.000,57.445L5.023,57.379L5.102,57.292L5.107,57.282L5.133,57.226L5.162,57.195L5.191,57.153L5.218,57.025L5.248,56.964L5.325,56.860L5.665,56.510L5.701,56.452L5.730,56.390L5.742,56.339L5.767,56.308L5.947,56.278L6.051,56.230L6.126,56.169L6.173,56.084L6.189,55.963L6.170,55.931L6.088,55.872L6.070,55.839L6.072,55.753L6.082,55.692L6.106,55.637L6.152,55.569L6.205,55.528L6.261,55.509L6.303,55.478L6.312,55.399L6.231,55.365L6.177,55.333L6.133,55.265L6.090,55.220L6.048,55.161L6.029,55.089L6.041,55.044L6.093,54.929L6.106,54.855L6.096,54.834L6.042,54.795L6.029,54.776L6.033,54.743L6.063,54.702L6.070,54.674L6.069,54.572L6.079,54.525L6.106,54.482L6.189,54.442L6.280,54.423L6.324,54.383L6.306,54.347L6.301,54.323L6.473,54.171L6.579,54.155L7.231,54.300L7.288,54.282L7.371,54.217L7.416,54.194L7.464,54.189L7.542,54.207L7.946,54.158L8.003,54.126L8.005,54.105L7.972,54.059L8.094,54.054L8.195,54.112L8.286,54.185L8.376,54.224L8.491,54.204L8.576,54.156L8.664,54.120L8.786,54.140L8.974,54.299L9.092,54.507L9.237,54.674L9.511,54.709L9.576,54.699L9.602,54.691L9.851,54.475L9.913,54.432L10.009,54.391L10.110,54.363L10.316,54.339L10.655,54.338L10.767,54.307L10.890,54.233L11.483,53.696L11.607,53.557L11.685,53.418L11.709,53.283L11.737,53.131L11.651,51.372L11.564,49.613L11.490,48.096Z" fill="currentColor" stroke="currentColor" stroke-width="1.5" stroke-linejoin="round"/>
</svg>