<svg xmlns="http://www.w3.org/2000/svg" viewBox="0 0 100 100" role="img" aria-label="Fiji">
  <title>Fiji</title>
  <path d="M66.893,41.000L66.893,40.800L67.009,40.693L67.144,40.624L67.465,40.529L67.372,40.733L67.248,40.855L67.089,40.933L66.893,41.000ZM66.893,44.620L66.893,44.121L66.973,43.983L67.221,43.805L67.274,43.702L67.349,43.665L67.714,43.553L67.846,43.535L67.846,43.600L67.758,43.618L67.720,43.646L67.731,43.684L67.789,43.735L67.789,43.807L67.732,43.826L67.691,43.845L67.641,43.860L67.560,43.867L67.514,43.908L67.475,44.000L67.479,44.092L67.560,44.133L67.619,44.195L67.500,44.325L67.339,44.444L66.893,44.620ZM66.893,48.742L66.893,47.014L66.987,46.862L67.676,46.115L67.846,46.008L68.037,45.952L68.158,45.987L68.237,46.101L68.322,46.376L68.356,46.541L68.360,46.643L68.476,46.715L68.561,46.787L68.609,46.872L68.560,46.948L68.228,47.278L68.136,47.451L68.110,47.538L68.089,47.765L68.054,47.781L67.997,47.772L67.916,47.804L67.347,48.175L67.052,48.433L66.893,48.742ZM66.893,44.117L66.893,44.381L66.893,44.622L66.885,44.623L66.823,44.640L66.776,44.633L66.749,44.592L66.747,44.514L66.773,44.398L66.885,44.135L66.893,44.117ZM66.893,47.000L66.893,48.729L66.883,48.747L66.820,48.849L66.718,48.939L66.583,49.027L66.464,49.080L66.344,49.110L66.229,49.113L66.124,49.080L66.077,48.926L65.907,48.775L65.869,48.642L65.917,48.499L66.028,48.381L66.251,48.209L66.588,47.711L66.641,47.580L66.683,47.418L66.885,47.015L66.893,47.000ZM66.893,40.800L66.893,40.994L66.883,41.003L66.315,41.533L66.240,41.561L66.074,41.569L65.997,41.600L65.921,41.673L65.835,41.827L65.772,41.902L65.639,42.022L65.572,42.102L65.581,42.137L65.507,42.182L65.385,42.408L65.012,42.948L64.852,43.063L64.853,43.274L64.689,43.565L64.456,43.822L64.246,43.933L64.041,43.998L63.147,44.607L63.091,44.661L63.052,44.735L63.002,44.872L62.987,44.992L62.990,45.145L62.972,45.305L62.901,45.443L62.795,45.531L62.556,45.686L62.455,45.768L62.410,45.829L62.297,46.008L62.242,46.044L62.088,46.102L62.037,46.141L62.131,46.243L62.163,46.412L62.131,46.596L62.037,46.741L62.106,46.812L62.254,46.701L62.424,46.652L62.581,46.681L62.683,46.812L62.818,46.703L63.029,46.455L63.161,46.408L63.256,46.390L63.372,46.343L63.470,46.268L63.511,46.174L63.548,46.044L63.638,45.995L63.743,45.976L63.829,45.943L63.844,45.905L63.876,45.772L63.892,45.735L63.932,45.721L64.047,45.695L64.083,45.676L64.152,45.565L64.249,45.325L64.309,45.237L64.397,45.186L64.490,45.159L64.562,45.121L64.591,45.037L64.626,44.967L64.707,44.921L64.852,44.872L65.161,44.671L65.339,44.515L65.419,44.366L65.505,44.303L65.997,44.067L66.044,44.013L66.079,43.950L66.121,43.897L66.188,43.867L66.329,43.862L66.356,43.902L66.356,43.984L66.459,44.216L66.418,44.308L66.350,44.381L66.298,44.460L66.188,44.738L65.869,45.337L65.862,45.383L65.878,45.499L65.869,45.543L65.833,45.553L65.716,45.534L65.678,45.543L65.483,45.802L65.728,45.821L65.886,45.934L65.972,46.117L65.997,46.341L66.124,46.330L66.292,46.367L66.424,46.462L66.442,46.614L66.351,46.681L66.208,46.652L65.927,46.541L65.960,46.600L66.027,46.753L66.060,46.812L65.922,46.771L65.869,46.741L65.735,46.845L65.622,46.800L65.569,46.674L65.609,46.541L65.275,46.530L65.142,46.473L65.048,46.341L64.851,46.412L64.650,46.400L64.473,46.357L64.343,46.341L64.252,46.382L64.097,46.512L63.989,46.541L63.875,46.543L63.784,46.565L63.724,46.624L63.695,46.741L63.650,46.649L63.638,46.614L63.575,46.614L63.477,46.810L63.138,47.033L63.002,47.212L62.842,47.062L62.654,47.053L62.265,47.145L61.969,47.155L61.806,47.193L61.660,47.278L61.340,47.166L61.078,47.153L60.344,47.209L60.353,47.186L60.447,47.118L60.505,46.980L60.591,46.862L60.759,46.803L60.882,46.738L60.828,46.614L60.851,46.474L60.742,46.406L60.447,46.341L60.214,46.158L60.059,46.070L59.990,46.108L59.890,46.111L59.181,46.389L59.002,46.504L58.723,46.741L58.784,46.907L58.728,47.042L58.605,47.143L58.470,47.212L58.188,47.132L57.992,47.375L57.763,48.071L58.001,47.924L58.106,47.903L58.279,47.937L58.189,48.054L57.926,48.241L57.829,48.343L57.763,48.343L57.642,48.290L57.275,48.179L57.154,48.108L57.115,48.027L57.102,47.952L57.069,47.898L56.889,47.856L56.836,47.795L56.808,47.711L56.805,47.611L56.740,47.611L56.740,47.804L56.596,47.721L56.496,47.705L56.405,47.738L56.290,47.804L55.914,48.143L55.874,48.235L55.782,48.609L55.711,48.675L55.624,48.722L55.602,48.779L55.724,48.875L55.394,49.103L55.368,49.141L55.100,49.160L54.978,49.146L54.834,49.080L54.709,48.953L54.604,48.685L54.534,48.371L54.509,48.108L54.415,47.918L54.231,47.733L54.108,47.510L54.192,47.212L53.992,47.140L53.910,47.074L53.874,46.945L53.300,47.232L53.029,47.282L52.787,47.079L52.830,47.057L52.832,47.048L52.851,47.013L52.746,46.921L52.726,46.810L52.768,46.753L52.851,46.812L52.914,46.812L52.889,46.628L52.982,46.465L53.296,46.208L53.296,46.408L53.373,46.327L53.410,46.216L53.453,46.152L53.555,46.208L53.600,46.060L53.719,45.829L53.747,45.676L53.546,45.780L53.412,45.768L53.320,45.661L53.237,45.477L53.590,45.345L53.683,45.337L53.752,45.383L53.860,45.540L53.931,45.603L54.028,45.634L54.319,45.676L54.606,45.857L54.701,45.875L54.824,45.848L54.868,45.808L54.891,45.753L54.948,45.676L55.467,45.226L55.607,45.164L55.694,45.259L55.724,45.543L55.846,45.486L55.877,45.416L55.846,45.171L55.887,45.066L56.169,44.671L56.184,44.721L56.225,44.807L56.232,44.872L56.306,44.826L56.348,44.776L56.364,44.707L56.360,44.606L56.423,44.606L56.519,44.730L56.625,44.639L56.735,44.478L56.837,44.393L56.935,44.343L56.907,44.219L56.837,44.068L56.805,43.933L56.845,43.954L56.953,43.987L56.995,44.006L57.045,43.833L57.133,43.826L57.216,43.892L57.253,43.933L57.393,43.910L57.651,43.826L58.083,43.772L58.571,43.597L58.852,43.535L59.138,43.550L59.232,43.535L59.257,43.502L59.328,43.364L59.360,43.323L59.432,43.297L59.593,43.269L59.649,43.236L59.818,43.227L60.091,43.301L60.357,43.334L60.505,43.202L60.645,43.323L60.729,43.284L60.803,43.185L60.920,43.129L60.985,43.160L61.044,43.293L61.114,43.323L61.193,43.315L61.233,43.304L61.271,43.301L61.337,43.323L61.323,43.177L61.265,43.039L61.178,42.928L61.082,42.863L61.178,42.771L61.283,42.737L61.384,42.749L61.470,42.796L61.515,42.630L61.597,42.456L61.706,42.370L61.846,42.465L61.910,42.297L61.926,42.143L61.967,42.017L62.106,41.932L62.437,41.959L62.568,41.905L62.424,41.733L62.547,41.734L62.631,41.791L62.692,41.886L62.742,42.004L62.824,41.661L62.869,41.533L62.915,41.651L62.998,41.705L63.101,41.741L63.193,41.804L63.274,41.718L63.343,41.711L63.398,41.767L63.448,41.871L63.448,41.719L63.484,41.665L63.541,41.662L63.606,41.672L63.664,41.640L63.689,41.569L63.693,41.497L63.692,41.466L63.757,41.473L63.795,41.497L63.825,41.521L63.861,41.533L64.038,41.547L64.115,41.521L64.147,41.433L64.194,41.372L64.422,41.276L64.698,41.115L64.757,41.262L64.776,41.485L64.852,41.600L64.964,41.554L65.164,41.371L65.298,41.339L65.399,41.371L65.415,41.427L65.371,41.486L65.298,41.533L65.399,41.570L65.503,41.569L65.551,41.600L65.665,41.452L65.992,41.186L66.060,41.100L66.736,40.800L66.881,40.800L66.893,40.800ZM80.039,69.778L80.100,69.919L80.246,70.053L80.416,70.133L80.554,70.111L80.519,70.308L80.344,70.286L80.010,70.111L79.929,70.021L79.959,69.833L80.103,69.668L80.363,69.645L80.308,69.739L80.246,69.759L80.161,69.756L80.039,69.778ZM76.466,68.241L76.495,68.022L76.599,67.879L76.732,67.864L76.847,68.036L76.850,68.302L76.724,68.457L76.565,68.452L76.466,68.241ZM68.168,68.248L68.170,68.241L68.293,67.835L68.637,67.873L68.875,68.146L68.679,68.449L68.599,68.116L68.404,68.082L68.241,68.222L68.263,68.412L68.342,68.602L68.213,68.639L68.085,68.520L68.168,68.248ZM78.380,60.700L78.543,60.817L78.576,60.996L78.518,61.160L78.411,61.232L78.093,61.232L78.008,61.212L77.937,61.165L77.881,61.120L77.839,61.098L77.647,60.955L77.838,60.680L78.165,60.514L78.380,60.699L78.380,60.700ZM75.738,58.407L75.910,58.508L75.946,58.738L75.947,58.866L75.776,58.910L75.656,58.843L75.561,58.732L75.474,58.511L75.652,58.374L75.738,58.407ZM82.790,57.694L82.903,57.753L83.072,57.875L83.226,58.033L83.294,58.196L83.205,58.374L82.995,58.463L82.743,58.479L82.531,58.431L82.240,58.308L82.189,58.002L82.374,57.726L82.790,57.694ZM76.535,50.816L76.831,50.958L76.977,51.053L77.038,51.182L76.896,51.501L76.882,51.554L76.707,51.618L76.524,51.772L76.384,51.967L76.339,52.148L76.200,52.040L76.228,51.851L76.343,51.662L76.466,51.554L76.432,51.429L76.480,51.370L76.553,51.335L76.593,51.282L76.595,51.151L76.577,51.094L76.466,51.016L76.374,50.968L76.172,50.930L76.084,50.883L76.048,50.812L76.034,50.621L76.021,50.545L76.150,50.600L76.236,50.711L76.342,50.806L76.535,50.816ZM64.820,69.778L64.923,69.852L64.975,70.024L65.007,70.222L65.048,70.377L64.770,70.446L64.661,70.455L64.526,70.434L64.488,70.396L64.471,70.310L64.538,70.276L64.555,70.270L64.560,70.252L64.591,70.178L64.638,70.196L64.743,70.224L64.788,70.244L64.730,70.096L64.637,69.944L64.625,69.826L64.820,69.778ZM52.272,68.145L52.345,68.140L52.685,68.197L52.787,68.241L52.858,68.369L52.906,68.550L52.889,68.711L52.694,68.807L52.557,68.899L52.492,68.842L52.398,68.814L52.214,68.780L52.256,68.868L52.260,68.940L52.224,69.001L52.145,69.047L52.037,69.015L51.828,68.999L51.602,69.007L51.445,69.047L51.467,68.982L51.490,68.847L51.508,68.780L51.425,68.821L51.364,68.831L51.311,68.817L51.249,68.780L51.293,68.736L51.339,68.674L51.375,68.647L51.126,68.554L50.886,68.653L50.486,68.980L50.341,69.018L50.195,69.021L50.081,69.044L50.035,69.144L50.038,69.348L50.022,69.396L49.977,69.253L49.888,69.320L49.856,69.431L49.876,69.534L49.942,69.578L50.080,69.610L50.122,69.692L50.104,69.939L50.077,70.010L50.014,70.075L49.931,70.116L49.849,70.111L49.770,70.048L49.756,69.964L49.781,69.711L49.645,69.824L49.595,69.845L49.463,69.845L49.374,69.941L49.324,70.027L49.257,70.087L49.118,70.111L48.972,70.089L48.731,69.994L48.610,69.972L48.407,70.101L48.298,70.116L48.254,69.972L48.190,69.972L48.116,70.014L48.022,69.992L47.916,69.927L47.809,69.845L48.091,69.568L48.260,69.505L48.445,69.578L48.542,69.496L48.576,69.283L48.648,69.180L48.746,69.134L48.853,69.131L49.377,69.267L49.463,69.253L49.521,69.180L49.535,69.085L49.563,68.990L49.659,68.914L49.785,69.010L49.867,68.925L49.908,68.750L49.908,68.574L50.040,68.359L50.370,68.232L50.741,68.212L51.000,68.314L51.076,68.036L51.141,67.992L51.283,67.983L51.325,67.960L51.358,67.916L51.401,67.870L51.477,67.849L51.571,67.867L51.649,67.897L51.728,67.902L51.828,67.849L51.895,67.979L52.201,67.994L52.272,68.145ZM53.168,67.378L53.246,67.456L53.278,67.531L53.271,67.611L53.237,67.710L53.112,67.667L53.049,67.762L52.999,67.864L52.914,67.849L52.660,67.676L52.680,67.561L52.767,67.415L52.787,67.345L52.883,67.246L53.074,67.191L53.215,67.221L53.168,67.378ZM66.366,64.258L66.409,64.328L66.449,64.377L66.377,64.494L66.155,64.547L66.052,64.643L65.885,64.777L65.950,64.853L66.080,64.795L66.124,64.795L66.157,64.904L65.978,65.055L65.968,65.254L65.800,65.293L65.702,65.131L65.696,64.964L65.593,64.888L65.523,64.791L65.338,64.686L65.315,64.579L65.500,64.497L65.851,64.361L66.219,64.274L66.366,64.258ZM44.993,63.639L45.042,63.749L45.059,63.875L45.062,64.105L45.126,64.571L44.993,64.481L44.878,64.320L44.790,64.135L44.740,63.972L44.715,63.825L44.732,63.749L44.865,63.573L44.896,63.608L44.928,63.621L44.958,63.627L44.993,63.639ZM49.403,62.435L49.453,62.263L49.558,62.235L49.662,62.324L49.717,62.502L49.685,62.709L49.590,62.850L49.447,62.885L49.277,62.768L49.365,62.749L49.399,62.726L49.390,62.692L49.347,62.635L49.385,62.588L49.395,62.544L49.397,62.495L49.403,62.435ZM60.796,58.825L60.939,59.090L60.959,59.614L60.841,59.994L60.568,59.829L60.474,59.711L60.403,59.443L60.348,59.328L60.171,59.105L60.109,58.990L60.065,58.825L60.028,58.929L60.054,59.128L60.027,59.194L59.945,59.218L59.902,59.150L59.864,58.872L59.874,58.592L59.855,58.546L59.768,58.395L59.746,58.298L59.846,58.358L59.910,58.362L60.113,58.198L60.163,58.194L60.223,58.216L60.348,58.232L60.489,58.324L60.715,58.733L60.796,58.825ZM61.591,56.830L61.591,56.873L61.578,56.901L61.528,56.956L61.558,57.021L61.588,57.111L61.605,57.207L61.591,57.288L61.515,57.380L61.461,57.331L61.401,57.161L61.329,57.069L61.258,56.950L61.227,56.820L61.274,56.696L61.432,56.780L61.591,56.830ZM55.024,56.154L55.174,56.396L55.368,56.517L55.525,56.557L55.502,56.626L55.489,56.658L55.461,56.696L55.398,56.623L55.335,56.669L55.274,56.655L55.229,56.595L55.107,56.572L54.965,56.204L54.907,56.020L55.024,56.154ZM55.495,55.220L55.554,55.162L55.696,55.120L55.872,55.221L55.955,55.446L55.997,55.580L56.013,55.713L56.047,55.846L56.021,55.988L55.988,56.097L55.929,56.197L55.694,56.263L55.577,56.305L55.418,56.373L55.326,56.205L55.274,56.040L55.151,55.653L55.260,55.361L55.495,55.220ZM57.628,55.147L57.554,55.017L57.565,54.910L57.642,54.872L57.762,54.947L57.821,55.042L57.933,55.348L57.958,55.486L57.889,55.486L57.848,55.370L57.794,55.284L57.724,55.213L57.628,55.147ZM54.891,58.758L54.868,58.829L54.791,58.962L54.769,59.025L54.765,59.166L54.769,59.257L54.733,59.391L54.640,59.523L54.534,59.630L54.445,59.695L53.973,59.932L53.747,60.162L53.747,59.962L53.478,60.075L53.365,60.094L53.474,59.935L53.485,59.895L53.434,59.803L53.394,59.789L53.347,59.784L53.265,59.726L53.174,59.714L52.906,59.854L52.787,59.895L52.808,60.094L52.644,60.219L52.441,60.274L52.341,60.265L52.351,60.119L52.362,60.065L52.345,60.035L52.191,59.889L52.112,59.845L52.019,59.824L51.896,59.829L51.921,59.872L51.928,59.875L51.954,59.895L51.909,59.987L51.857,60.043L51.789,60.076L51.700,60.094L51.705,60.071L51.674,60.025L51.625,59.981L51.573,59.962L51.509,59.975L51.398,60.018L51.346,60.028L51.272,60.060L51.216,60.132L51.145,60.203L51.029,60.235L50.911,60.241L50.844,60.262L50.796,60.301L50.741,60.361L50.703,60.423L50.654,60.568L50.613,60.627L50.532,60.675L50.340,60.747L50.259,60.796L49.991,61.115L49.832,61.258L49.659,61.299L49.581,61.299L49.526,61.365L49.317,61.170L48.627,61.418L48.323,61.365L48.185,61.359L48.126,61.345L48.063,61.299L48.003,61.358L47.890,61.426L47.759,61.455L47.650,61.398L47.529,61.377L47.389,61.461L47.277,61.498L47.230,61.331L47.200,61.289L47.132,61.308L47.057,61.356L47.010,61.398L46.954,61.427L46.901,61.400L46.722,61.240L46.694,61.174L46.654,61.121L46.246,61.011L45.457,60.799L45.219,60.766L44.958,60.699L44.461,60.461L44.237,60.494L43.950,60.365L43.839,60.351L43.369,60.374L43.282,60.361L43.181,60.317L43.119,60.260L43.072,60.203L43.022,60.162L42.366,59.997L42.079,59.865L41.871,59.557L41.808,59.629L41.765,59.527L41.759,59.334L41.745,59.224L41.713,59.171L41.668,59.124L41.629,59.052L41.612,58.924L41.568,58.872L41.399,58.776L41.395,58.725L41.432,58.636L41.391,58.557L41.326,58.474L41.294,58.371L41.321,58.297L41.445,58.127L41.485,58.027L41.479,57.903L41.435,57.827L41.386,57.758L41.363,57.661L41.424,57.468L41.577,57.392L41.999,57.361L42.249,57.264L42.317,57.228L42.409,57.116L42.423,57.036L42.402,56.964L42.386,56.863L42.386,56.523L42.399,56.397L42.436,56.376L42.497,56.402L42.825,56.496L42.895,56.490L42.995,56.402L43.004,56.335L42.973,56.269L42.952,56.188L42.943,56.079L42.904,55.889L42.895,55.792L42.867,55.702L42.799,55.661L42.713,55.626L42.635,55.553L42.572,55.334L42.695,55.236L42.866,55.156L42.952,54.984L42.995,54.918L43.202,54.868L43.282,54.822L43.318,54.708L43.301,54.601L43.304,54.504L43.404,54.416L43.510,54.538L43.603,54.508L43.643,54.398L43.600,54.282L43.666,54.138L43.748,54.013L43.834,53.971L43.918,54.082L43.975,54.082L44.364,53.751L44.744,53.523L44.771,53.485L44.801,53.462L44.808,53.418L44.828,53.372L44.901,53.351L44.961,53.362L45.028,53.385L45.062,53.407L45.028,53.418L44.975,53.494L45.005,53.666L45.072,53.847L45.126,53.949L45.184,53.890L45.126,53.766L45.090,53.653L45.087,53.542L45.126,53.418L45.196,53.364L45.508,53.188L45.564,53.164L45.924,53.285L45.972,53.232L45.993,53.119L46.037,53.005L46.080,52.957L46.155,52.919L46.218,52.875L46.283,52.839L46.472,52.804L46.509,52.757L46.533,52.710L46.638,52.665L46.680,52.639L46.711,52.663L46.722,52.788L46.715,52.895L46.691,52.988L46.650,53.075L46.589,53.157L46.739,53.197L46.866,53.118L46.982,52.990L47.109,52.886L47.308,53.018L47.580,53.048L47.856,53.014L48.063,52.957L48.331,52.829L48.445,52.748L48.544,52.653L48.658,52.569L48.878,52.560L49.022,52.486L49.324,52.534L49.671,52.472L49.948,52.301L50.035,52.021L50.236,52.090L50.491,52.211L50.711,52.362L50.804,52.519L50.831,52.636L50.932,52.831L50.931,52.957L50.868,53.062L50.634,53.300L50.550,53.418L50.649,53.473L50.668,53.550L50.628,53.628L50.550,53.684L50.673,53.661L50.928,53.361L51.093,53.285L51.314,53.309L51.508,53.381L51.660,53.505L51.764,53.684L51.777,53.767L51.750,53.880L51.764,53.949L51.798,53.967L51.966,54.113L51.989,54.149L52.023,54.182L52.413,54.450L52.507,54.463L52.605,54.461L52.723,54.482L52.886,54.599L53.135,54.947L53.203,55.020L53.405,55.044L53.601,55.113L53.767,55.240L53.874,55.426L53.883,55.665L53.787,55.849L53.672,56.011L53.613,56.188L53.597,56.281L53.567,56.366L53.552,56.449L53.584,56.523L53.657,56.588L53.829,56.711L53.874,56.757L53.881,56.872L53.849,56.979L53.842,57.077L53.931,57.161L54.045,57.117L54.106,57.149L54.098,57.220L54.001,57.288L54.113,57.334L54.179,57.408L54.188,57.508L54.128,57.627L54.093,57.605L54.001,57.561L54.020,57.607L54.064,57.767L53.769,57.838L53.805,58.116L53.975,58.417L54.096,58.558L54.279,58.576L54.358,58.626L54.408,58.710L54.509,58.825L54.543,58.879L54.547,58.921L54.570,58.948L54.669,58.957L54.727,58.933L54.777,58.874L54.815,58.807L54.834,58.758L54.891,58.758ZM39.825,51.482L40.069,51.581L40.185,51.572L40.339,51.482L40.467,51.682L40.403,51.694L40.376,51.730L40.364,51.773L40.233,51.965L40.110,52.082L39.991,52.116L39.894,52.021L39.876,51.859L39.919,51.726L39.930,51.623L39.825,51.554L39.825,51.482ZM61.788,51.921L61.769,52.172L61.708,52.392L61.610,52.584L61.470,52.753L61.219,52.953L61.150,52.898L61.150,52.320L61.130,52.163L61.083,52.021L61.014,51.887L61.044,51.756L61.037,51.624L61.105,51.523L61.487,51.467L61.576,51.442L61.656,51.448L61.753,51.519L61.752,51.578L61.788,51.921ZM41.485,49.879L41.520,49.814L41.612,49.546L41.672,49.662L41.676,49.797L41.631,49.922L41.554,50.012L41.481,50.190L41.201,50.385L41.167,50.545L41.126,50.512L41.095,50.493L41.068,50.468L41.039,50.412L40.949,50.469L40.883,50.536L40.848,50.625L40.848,50.745L40.589,50.684L40.589,50.611L40.690,50.615L40.721,50.611L40.686,50.517L40.668,50.384L40.683,50.264L40.753,50.212L40.836,50.174L40.871,50.081L40.885,49.971L40.917,49.879L40.983,49.811L41.191,49.646L41.265,49.613L41.276,49.654L41.385,49.832L41.426,49.879L41.485,49.879ZM43.083,47.804L42.796,48.033L42.710,48.143L42.829,48.209L42.799,48.285L42.754,48.356L42.700,48.420L42.632,48.476L42.607,48.423L42.541,48.336L42.425,48.146L42.479,48.056L42.702,47.937L42.636,47.787L42.752,47.738L42.939,47.756L43.083,47.804ZM51.375,47.079L51.339,47.280L51.390,47.388L51.372,47.424L51.127,47.412L50.967,47.478L50.900,47.361L50.872,47.013L50.931,47.013L51.009,47.066L51.118,47.083L51.375,47.079ZM44.173,45.943L44.351,45.956L44.456,46.034L44.483,46.168L44.421,46.341L44.355,46.446L44.203,46.557L44.173,46.643L44.133,46.693L43.546,47.169L43.414,47.309L43.340,47.478L43.248,47.437L43.214,47.412L43.170,47.466L43.100,47.519L43.022,47.533L42.952,47.478L42.958,47.418L43.014,47.178L43.022,47.079L43.086,47.079L43.202,47.197L43.377,47.110L43.728,46.741L44.153,46.377L44.282,46.163L44.173,45.943ZM66.124,45.735L65.806,45.735L65.962,45.683L66.028,45.676L66.063,45.645L66.056,45.507L66.092,45.477L66.179,45.469L66.283,45.439L66.380,45.377L66.442,45.270L66.451,45.470L66.403,45.627L66.295,45.721L66.124,45.735ZM53.743,44.931L53.822,44.983L53.901,44.999L53.981,44.980L54.063,44.931L53.999,45.036L53.910,45.113L53.782,45.151L53.610,45.137L53.543,45.121L53.514,45.105L53.484,45.071L53.743,44.931ZM60.953,42.530L61.086,42.552L61.208,42.598L61.094,42.651L60.942,42.668L60.780,42.650L60.635,42.598L60.635,42.530L60.953,42.530ZM40.112,5.105L40.152,5.257L40.008,5.352L39.798,5.400L39.634,5.405L39.505,5.358L39.356,5.324L39.202,5.312L39.057,5.333L39.011,5.190L39.005,5.139L39.144,5.178L39.257,5.157L39.506,5.000L39.650,5.052L39.985,5.052L40.112,5.105ZM16.744,95.000L16.566,94.876L16.492,94.712L16.540,94.587L16.727,94.582L16.844,94.663L16.886,94.791L16.855,94.917L16.744,95.000ZM78.823,84.864L78.747,84.803L78.712,84.734L78.719,84.661L78.768,84.585L78.775,84.669L78.807,84.750L78.859,84.818L78.925,84.868L78.898,84.872L78.823,84.864ZM83.408,76.767L83.374,76.720L83.388,76.660L83.438,76.593L83.508,76.525L83.494,76.590L83.471,76.649L83.408,76.767ZM81.611,70.213L81.785,69.882L81.861,69.824L81.895,70.008L81.870,70.197L81.799,70.247L81.708,70.255L81.620,70.322L81.593,70.298L81.590,70.274L81.611,70.213ZM77.141,67.384L77.071,67.427L77.000,67.451L76.928,67.454L76.853,67.432L76.956,67.340L77.070,67.256L77.194,67.194L77.326,67.161L77.288,67.224L77.245,67.283L77.196,67.336L77.141,67.384ZM80.797,65.319L80.712,65.171L80.760,65.053L80.871,65.012L80.976,65.086L80.994,65.188L80.954,65.275L80.881,65.326L80.797,65.319ZM73.202,56.597L73.076,56.483L73.094,56.303L73.223,56.155L73.430,56.140L73.601,56.297L73.592,56.500L73.445,56.636L73.202,56.597ZM74.748,53.685L74.597,53.554L74.572,53.377L74.661,53.239L74.851,53.226L74.952,53.334L74.988,53.513L74.930,53.661L74.748,53.685ZM74.742,51.749L74.747,51.568L74.842,51.508L74.955,51.549L75.016,51.673L74.988,51.791L74.910,51.852L74.814,51.841L74.742,51.749Z" fill="none" stroke="currentColor" stroke-width="1" stroke-linejoin="round"/>
  <path d="M66.893,41.000L66.893,40.800L67.009,40.693L67.144,40.624L67.465,40.529L67.372,40.733L67.248,40.855L67.089,40.933L66.893,41.000ZM66.893,44.620L66.893,44.121L66.973,43.983L67.221,43.805L67.274,43.702L67.349,43.665L67.714,43.553L67.846,43.535L67.846,43.600L67.758,43.618L67.720,43.646L67.731,43.684L67.789,43.735L67.789,43.807L67.732,43.826L67.691,43.845L67.641,43.860L67.560,43.867L67.514,43.908L67.475,44.000L67.479,44.092L67.560,44.133L67.619,44.195L67.500,44.325L67.339,44.444L66.893,44.620ZM66.893,48.742L66.893,47.014L66.987,46.862L67.676,46.115L67.846,46.008L68.037,45.952L68.158,45.987L68.237,46.101L68.322,46.376L68.356,46.541L68.360,46.643L68.476,46.715L68.561,46.787L68.609,46.872L68.560,46.948L68.228,47.278L68.136,47.451L68.110,47.538L68.089,47.765L68.054,47.781L67.997,47.772L67.916,47.804L67.347,48.175L67.052,48.433L66.893,48.742ZM66.893,44.117L66.893,44.381L66.893,44.622L66.885,44.623L66.823,44.640L66.776,44.633L66.749,44.592L66.747,44.514L66.773,44.398L66.885,44.135L66.893,44.117ZM66.893,47.000L66.893,48.729L66.883,48.747L66.820,48.849L66.718,48.939L66.583,49.027L66.464,49.080L66.344,49.110L66.229,49.113L66.124,49.080L66.077,48.926L65.907,48.775L65.869,48.642L65.917,48.499L66.028,48.381L66.251,48.209L66.588,47.711L66.641,47.580L66.683,47.418L66.885,47.015L66.893,47.000ZM66.893,40.800L66.893,40.994L66.883,41.003L66.315,41.533L66.240,41.561L66.074,41.569L65.997,41.600L65.921,41.673L65.835,41.827L65.772,41.902L65.639,42.022L65.572,42.102L65.581,42.137L65.507,42.182L65.385,42.408L65.012,42.948L64.852,43.063L64.853,43.274L64.689,43.565L64.456,43.822L64.246,43.933L64.041,43.998L63.147,44.607L63.091,44.661L63.052,44.735L63.002,44.872L62.987,44.992L62.990,45.145L62.972,45.305L62.901,45.443L62.795,45.531L62.556,45.686L62.455,45.768L62.410,45.829L62.297,46.008L62.242,46.044L62.088,46.102L62.037,46.141L62.131,46.243L62.163,46.412L62.131,46.596L62.037,46.741L62.106,46.812L62.254,46.701L62.424,46.652L62.581,46.681L62.683,46.812L62.818,46.703L63.029,46.455L63.161,46.408L63.256,46.390L63.372,46.343L63.470,46.268L63.511,46.174L63.548,46.044L63.638,45.995L63.743,45.976L63.829,45.943L63.844,45.905L63.876,45.772L63.892,45.735L63.932,45.721L64.047,45.695L64.083,45.676L64.152,45.565L64.249,45.325L64.309,45.237L64.397,45.186L64.490,45.159L64.562,45.121L64.591,45.037L64.626,44.967L64.707,44.921L64.852,44.872L65.161,44.671L65.339,44.515L65.419,44.366L65.505,44.303L65.997,44.067L66.044,44.013L66.079,43.950L66.121,43.897L66.188,43.867L66.329,43.862L66.356,43.902L66.356,43.984L66.459,44.216L66.418,44.308L66.350,44.381L66.298,44.460L66.188,44.738L65.869,45.337L65.862,45.383L65.878,45.499L65.869,45.543L65.833,45.553L65.716,45.534L65.678,45.543L65.483,45.802L65.728,45.821L65.886,45.934L65.972,46.117L65.997,46.341L66.124,46.330L66.292,46.367L66.424,46.462L66.442,46.614L66.351,46.681L66.208,46.652L65.927,46.541L65.960,46.600L66.027,46.753L66.060,46.812L65.922,46.771L65.869,46.741L65.735,46.845L65.622,46.800L65.569,46.674L65.609,46.541L65.275,46.530L65.142,46.473L65.048,46.341L64.851,46.412L64.650,46.400L64.473,46.357L64.343,46.341L64.252,46.382L64.097,46.512L63.989,46.541L63.875,46.543L63.784,46.565L63.724,46.624L63.695,46.741L63.650,46.649L63.638,46.614L63.575,46.614L63.477,46.810L63.138,47.033L63.002,47.212L62.842,47.062L62.654,47.053L62.265,47.145L61.969,47.155L61.806,47.193L61.660,47.278L61.340,47.166L61.078,47.153L60.344,47.209L60.353,47.186L60.447,47.118L60.505,46.980L60.591,46.862L60.759,46.803L60.882,46.738L60.828,46.614L60.851,46.474L60.742,46.406L60.447,46.341L60.214,46.158L60.059,46.070L59.990,46.108L59.890,46.111L59.181,46.389L59.002,46.504L58.723,46.741L58.784,46.907L58.728,47.042L58.605,47.143L58.470,47.212L58.188,47.132L57.992,47.375L57.763,48.071L58.001,47.924L58.106,47.903L58.279,47.937L58.189,48.054L57.926,48.241L57.829,48.343L57.763,48.343L57.642,48.290L57.275,48.179L57.154,48.108L57.115,48.027L57.102,47.952L57.069,47.898L56.889,47.856L56.836,47.795L56.808,47.711L56.805,47.611L56.740,47.611L56.740,47.804L56.596,47.721L56.496,47.705L56.405,47.738L56.290,47.804L55.914,48.143L55.874,48.235L55.782,48.609L55.711,48.675L55.624,48.722L55.602,48.779L55.724,48.875L55.394,49.103L55.368,49.141L55.100,49.160L54.978,49.146L54.834,49.080L54.709,48.953L54.604,48.685L54.534,48.371L54.509,48.108L54.415,47.918L54.231,47.733L54.108,47.510L54.192,47.212L53.992,47.140L53.910,47.074L53.874,46.945L53.300,47.232L53.029,47.282L52.787,47.079L52.830,47.057L52.832,47.048L52.851,47.013L52.746,46.921L52.726,46.810L52.768,46.753L52.851,46.812L52.914,46.812L52.889,46.628L52.982,46.465L53.296,46.208L53.296,46.408L53.373,46.327L53.410,46.216L53.453,46.152L53.555,46.208L53.600,46.060L53.719,45.829L53.747,45.676L53.546,45.780L53.412,45.768L53.320,45.661L53.237,45.477L53.590,45.345L53.683,45.337L53.752,45.383L53.860,45.540L53.931,45.603L54.028,45.634L54.319,45.676L54.606,45.857L54.701,45.875L54.824,45.848L54.868,45.808L54.891,45.753L54.948,45.676L55.467,45.226L55.607,45.164L55.694,45.259L55.724,45.543L55.846,45.486L55.877,45.416L55.846,45.171L55.887,45.066L56.169,44.671L56.184,44.721L56.225,44.807L56.232,44.872L56.306,44.826L56.348,44.776L56.364,44.707L56.360,44.606L56.423,44.606L56.519,44.730L56.625,44.639L56.735,44.478L56.837,44.393L56.935,44.343L56.907,44.219L56.837,44.068L56.805,43.933L56.845,43.954L56.953,43.987L56.995,44.006L57.045,43.833L57.133,43.826L57.216,43.892L57.253,43.933L57.393,43.910L57.651,43.826L58.083,43.772L58.571,43.597L58.852,43.535L59.138,43.550L59.232,43.535L59.257,43.502L59.328,43.364L59.360,43.323L59.432,43.297L59.593,43.269L59.649,43.236L59.818,43.227L60.091,43.301L60.357,43.334L60.505,43.202L60.645,43.323L60.729,43.284L60.803,43.185L60.920,43.129L60.985,43.160L61.044,43.293L61.114,43.323L61.193,43.315L61.233,43.304L61.271,43.301L61.337,43.323L61.323,43.177L61.265,43.039L61.178,42.928L61.082,42.863L61.178,42.771L61.283,42.737L61.384,42.749L61.470,42.796L61.515,42.630L61.597,42.456L61.706,42.370L61.846,42.465L61.910,42.297L61.926,42.143L61.967,42.017L62.106,41.932L62.437,41.959L62.568,41.905L62.424,41.733L62.547,41.734L62.631,41.791L62.692,41.886L62.742,42.004L62.824,41.661L62.869,41.533L62.915,41.651L62.998,41.705L63.101,41.741L63.193,41.804L63.274,41.718L63.343,41.711L63.398,41.767L63.448,41.871L63.448,41.719L63.484,41.665L63.541,41.662L63.606,41.672L63.664,41.640L63.689,41.569L63.693,41.497L63.692,41.466L63.757,41.473L63.795,41.497L63.825,41.521L63.861,41.533L64.038,41.547L64.115,41.521L64.147,41.433L64.194,41.372L64.422,41.276L64.698,41.115L64.757,41.262L64.776,41.485L64.852,41.600L64.964,41.554L65.164,41.371L65.298,41.339L65.399,41.371L65.415,41.427L65.371,41.486L65.298,41.533L65.399,41.570L65.503,41.569L65.551,41.600L65.665,41.452L65.992,41.186L66.060,41.100L66.736,40.800L66.881,40.800L66.893,40.800ZM80.039,69.778L80.100,69.919L80.246,70.053L80.416,70.133L80.554,70.111L80.519,70.308L80.344,70.286L80.010,70.111L79.929,70.021L79.959,69.833L80.103,69.668L80.363,69.645L80.308,69.739L80.246,69.759L80.161,69.756L80.039,69.778ZM76.466,68.241L76.495,68.022L76.599,67.879L76.732,67.864L76.847,68.036L76.850,68.302L76.724,68.457L76.565,68.452L76.466,68.241ZM68.168,68.248L68.170,68.241L68.293,67.835L68.637,67.873L68.875,68.146L68.679,68.449L68.599,68.116L68.404,68.082L68.241,68.222L68.263,68.412L68.342,68.602L68.213,68.639L68.085,68.520L68.168,68.248ZM78.380,60.700L78.543,60.817L78.576,60.996L78.518,61.160L78.411,61.232L78.093,61.232L78.008,61.212L77.937,61.165L77.881,61.120L77.839,61.098L77.647,60.955L77.838,60.680L78.165,60.514L78.380,60.699L78.380,60.700ZM75.738,58.407L75.910,58.508L75.946,58.738L75.947,58.866L75.776,58.910L75.656,58.843L75.561,58.732L75.474,58.511L75.652,58.374L75.738,58.407ZM82.790,57.694L82.903,57.753L83.072,57.875L83.226,58.033L83.294,58.196L83.205,58.374L82.995,58.463L82.743,58.479L82.531,58.431L82.240,58.308L82.189,58.002L82.374,57.726L82.790,57.694ZM76.535,50.816L76.831,50.958L76.977,51.053L77.038,51.182L76.896,51.501L76.882,51.554L76.707,51.618L76.524,51.772L76.384,51.967L76.339,52.148L76.200,52.040L76.228,51.851L76.343,51.662L76.466,51.554L76.432,51.429L76.480,51.370L76.553,51.335L76.593,51.282L76.595,51.151L76.577,51.094L76.466,51.016L76.374,50.968L76.172,50.930L76.084,50.883L76.048,50.812L76.034,50.621L76.021,50.545L76.150,50.600L76.236,50.711L76.342,50.806L76.535,50.816ZM64.820,69.778L64.923,69.852L64.975,70.024L65.007,70.222L65.048,70.377L64.770,70.446L64.661,70.455L64.526,70.434L64.488,70.396L64.471,70.310L64.538,70.276L64.555,70.270L64.560,70.252L64.591,70.178L64.638,70.196L64.743,70.224L64.788,70.244L64.730,70.096L64.637,69.944L64.625,69.826L64.820,69.778ZM52.272,68.145L52.345,68.140L52.685,68.197L52.787,68.241L52.858,68.369L52.906,68.550L52.889,68.711L52.694,68.807L52.557,68.899L52.492,68.842L52.398,68.814L52.214,68.780L52.256,68.868L52.260,68.940L52.224,69.001L52.145,69.047L52.037,69.015L51.828,68.999L51.602,69.007L51.445,69.047L51.467,68.982L51.490,68.847L51.508,68.780L51.425,68.821L51.364,68.831L51.311,68.817L51.249,68.780L51.293,68.736L51.339,68.674L51.375,68.647L51.126,68.554L50.886,68.653L50.486,68.980L50.341,69.018L50.195,69.021L50.081,69.044L50.035,69.144L50.038,69.348L50.022,69.396L49.977,69.253L49.888,69.320L49.856,69.431L49.876,69.534L49.942,69.578L50.080,69.610L50.122,69.692L50.104,69.939L50.077,70.010L50.014,70.075L49.931,70.116L49.849,70.111L49.770,70.048L49.756,69.964L49.781,69.711L49.645,69.824L49.595,69.845L49.463,69.845L49.374,69.941L49.324,70.027L49.257,70.087L49.118,70.111L48.972,70.089L48.731,69.994L48.610,69.972L48.407,70.101L48.298,70.116L48.254,69.972L48.190,69.972L48.116,70.014L48.022,69.992L47.916,69.927L47.809,69.845L48.091,69.568L48.260,69.505L48.445,69.578L48.542,69.496L48.576,69.283L48.648,69.180L48.746,69.134L48.853,69.131L49.377,69.267L49.463,69.253L49.521,69.180L49.535,69.085L49.563,68.990L49.659,68.914L49.785,69.010L49.867,68.925L49.908,68.750L49.908,68.574L50.040,68.359L50.370,68.232L50.741,68.212L51.000,68.314L51.076,68.036L51.141,67.992L51.283,67.983L51.325,67.960L51.358,67.916L51.401,67.870L51.477,67.849L51.571,67.867L51.649,67.897L51.728,67.902L51.828,67.849L51.895,67.979L52.201,67.994L52.272,68.145ZM53.168,67.378L53.246,67.456L53.278,67.531L53.271,67.611L53.237,67.710L53.112,67.667L53.049,67.762L52.999,67.864L52.914,67.849L52.660,67.676L52.680,67.561L52.767,67.415L52.787,67.345L52.883,67.246L53.074,67.191L53.215,67.221L53.168,67.378ZM66.366,64.258L66.409,64.328L66.449,64.377L66.377,64.494L66.155,64.547L66.052,64.643L65.885,64.777L65.950,64.853L66.080,64.795L66.124,64.795L66.157,64.904L65.978,65.055L65.968,65.254L65.800,65.293L65.702,65.131L65.696,64.964L65.593,64.888L65.523,64.791L65.338,64.686L65.315,64.579L65.500,64.497L65.851,64.361L66.219,64.274L66.366,64.258ZM44.993,63.639L45.042,63.749L45.059,63.875L45.062,64.105L45.126,64.571L44.993,64.481L44.878,64.320L44.790,64.135L44.740,63.972L44.715,63.825L44.732,63.749L44.865,63.573L44.896,63.608L44.928,63.621L44.958,63.627L44.993,63.639ZM49.403,62.435L49.453,62.263L49.558,62.235L49.662,62.324L49.717,62.502L49.685,62.709L49.590,62.850L49.447,62.885L49.277,62.768L49.365,62.749L49.399,62.726L49.390,62.692L49.347,62.635L49.385,62.588L49.395,62.544L49.397,62.495L49.403,62.435ZM60.796,58.825L60.939,59.090L60.959,59.614L60.841,59.994L60.568,59.829L60.474,59.711L60.403,59.443L60.348,59.328L60.171,59.105L60.109,58.990L60.065,58.825L60.028,58.929L60.054,59.128L60.027,59.194L59.945,59.218L59.902,59.150L59.864,58.872L59.874,58.592L59.855,58.546L59.768,58.395L59.746,58.298L59.846,58.358L59.910,58.362L60.113,58.198L60.163,58.194L60.223,58.216L60.348,58.232L60.489,58.324L60.715,58.733L60.796,58.825ZM61.591,56.830L61.591,56.873L61.578,56.901L61.528,56.956L61.558,57.021L61.588,57.111L61.605,57.207L61.591,57.288L61.515,57.380L61.461,57.331L61.401,57.161L61.329,57.069L61.258,56.950L61.227,56.820L61.274,56.696L61.432,56.780L61.591,56.830ZM55.024,56.154L55.174,56.396L55.368,56.517L55.525,56.557L55.502,56.626L55.489,56.658L55.461,56.696L55.398,56.623L55.335,56.669L55.274,56.655L55.229,56.595L55.107,56.572L54.965,56.204L54.907,56.020L55.024,56.154ZM55.495,55.220L55.554,55.162L55.696,55.120L55.872,55.221L55.955,55.446L55.997,55.580L56.013,55.713L56.047,55.846L56.021,55.988L55.988,56.097L55.929,56.197L55.694,56.263L55.577,56.305L55.418,56.373L55.326,56.205L55.274,56.040L55.151,55.653L55.260,55.361L55.495,55.220ZM57.628,55.147L57.554,55.017L57.565,54.910L57.642,54.872L57.762,54.947L57.821,55.042L57.933,55.348L57.958,55.486L57.889,55.486L57.848,55.370L57.794,55.284L57.724,55.213L57.628,55.147ZM54.891,58.758L54.868,58.829L54.791,58.962L54.769,59.025L54.765,59.166L54.769,59.257L54.733,59.391L54.640,59.523L54.534,59.630L54.445,59.695L53.973,59.932L53.747,60.162L53.747,59.962L53.478,60.075L53.365,60.094L53.474,59.935L53.485,59.895L53.434,59.803L53.394,59.789L53.347,59.784L53.265,59.726L53.174,59.714L52.906,59.854L52.787,59.895L52.808,60.094L52.644,60.219L52.441,60.274L52.341,60.265L52.351,60.119L52.362,60.065L52.345,60.035L52.191,59.889L52.112,59.845L52.019,59.824L51.896,59.829L51.921,59.872L51.928,59.875L51.954,59.895L51.909,59.987L51.857,60.043L51.789,60.076L51.700,60.094L51.705,60.071L51.674,60.025L51.625,59.981L51.573,59.962L51.509,59.975L51.398,60.018L51.346,60.028L51.272,60.060L51.216,60.132L51.145,60.203L51.029,60.235L50.911,60.241L50.844,60.262L50.796,60.301L50.741,60.361L50.703,60.423L50.654,60.568L50.613,60.627L50.532,60.675L50.340,60.747L50.259,60.796L49.991,61.115L49.832,61.258L49.659,61.299L49.581,61.299L49.526,61.365L49.317,61.170L48.627,61.418L48.323,61.365L48.185,61.359L48.126,61.345L48.063,61.299L48.003,61.358L47.890,61.426L47.759,61.455L47.650,61.398L47.529,61.377L47.389,61.461L47.277,61.498L47.230,61.331L47.200,61.289L47.132,61.308L47.057,61.356L47.010,61.398L46.954,61.427L46.901,61.400L46.722,61.240L46.694,61.174L46.654,61.121L46.246,61.011L45.457,60.799L45.219,60.766L44.958,60.699L44.461,60.461L44.237,60.494L43.950,60.365L43.839,60.351L43.369,60.374L43.282,60.361L43.181,60.317L43.119,60.260L43.072,60.203L43.022,60.162L42.366,59.997L42.079,59.865L41.871,59.557L41.808,59.629L41.765,59.527L41.759,59.334L41.745,59.224L41.713,59.171L41.668,59.124L41.629,59.052L41.612,58.924L41.568,58.872L41.399,58.776L41.395,58.725L41.432,58.636L41.391,58.557L41.326,58.474L41.294,58.371L41.321,58.297L41.445,58.127L41.485,58.027L41.479,57.903L41.435,57.827L41.386,57.758L41.363,57.661L41.424,57.468L41.577,57.392L41.999,57.361L42.249,57.264L42.317,57.228L42.409,57.116L42.423,57.036L42.402,56.964L42.386,56.863L42.386,56.523L42.399,56.397L42.436,56.376L42.497,56.402L42.825,56.496L42.895,56.490L42.995,56.402L43.004,56.335L42.973,56.269L42.952,56.188L42.943,56.079L42.904,55.889L42.895,55.792L42.867,55.702L42.799,55.661L42.713,55.626L42.635,55.553L42.572,55.334L42.695,55.236L42.866,55.156L42.952,54.984L42.995,54.918L43.202,54.868L43.282,54.822L43.318,54.708L43.301,54.601L43.304,54.504L43.404,54.416L43.510,54.538L43.603,54.508L43.643,54.398L43.600,54.282L43.666,54.138L43.748,54.013L43.834,53.971L43.918,54.082L43.975,54.082L44.364,53.751L44.744,53.523L44.771,53.485L44.801,53.462L44.808,53.418L44.828,53.372L44.901,53.351L44.961,53.362L45.028,53.385L45.062,53.407L45.028,53.418L44.975,53.494L45.005,53.666L45.072,53.847L45.126,53.949L45.184,53.890L45.126,53.766L45.090,53.653L45.087,53.542L45.126,53.418L45.196,53.364L45.508,53.188L45.564,53.164L45.924,53.285L45.972,53.232L45.993,53.119L46.037,53.005L46.080,52.957L46.155,52.919L46.218,52.875L46.283,52.839L46.472,52.804L46.509,52.757L46.533,52.710L46.638,52.665L46.680,52.639L46.711,52.663L46.722,52.788L46.715,52.895L46.691,52.988L46.650,53.075L46.589,53.157L46.739,53.197L46.866,53.118L46.982,52.990L47.109,52.886L47.308,53.018L47.580,53.048L47.856,53.014L48.063,52.957L48.331,52.829L48.445,52.748L48.544,52.653L48.658,52.569L48.878,52.560L49.022,52.486L49.324,52.534L49.671,52.472L49.948,52.301L50.035,52.021L50.236,52.090L50.491,52.211L50.711,52.362L50.804,52.519L50.831,52.636L50.932,52.831L50.931,52.957L50.868,53.062L50.634,53.300L50.550,53.418L50.649,53.473L50.668,53.550L50.628,53.628L50.550,53.684L50.673,53.661L50.928,53.361L51.093,53.285L51.314,53.309L51.508,53.381L51.660,53.505L51.764,53.684L51.777,53.767L51.750,53.880L51.764,53.949L51.798,53.967L51.966,54.113L51.989,54.149L52.023,54.182L52.413,54.450L52.507,54.463L52.605,54.461L52.723,54.482L52.886,54.599L53.135,54.947L53.203,55.020L53.405,55.044L53.601,55.113L53.767,55.240L53.874,55.426L53.883,55.665L53.787,55.849L53.672,56.011L53.613,56.188L53.597,56.281L53.567,56.366L53.552,56.449L53.584,56.523L53.657,56.588L53.829,56.711L53.874,56.757L53.881,56.872L53.849,56.979L53.842,57.077L53.931,57.161L54.045,57.117L54.106,57.149L54.098,57.220L54.001,57.288L54.113,57.334L54.179,57.408L54.188,57.508L54.128,57.627L54.093,57.605L54.001,57.561L54.020,57.607L54.064,57.767L53.769,57.838L53.805,58.116L53.975,58.417L54.096,58.558L54.279,58.576L54.358,58.626L54.408,58.710L54.509,58.825L54.543,58.879L54.547,58.921L54.570,58.948L54.669,58.957L54.727,58.933L54.777,58.874L54.815,58.807L54.834,58.758L54.891,58.758ZM39.825,51.482L40.069,51.581L40.185,51.572L40.339,51.482L40.467,51.682L40.403,51.694L40.376,51.730L40.364,51.773L40.233,51.965L40.110,52.082L39.991,52.116L39.894,52.021L39.876,51.859L39.919,51.726L39.930,51.623L39.825,51.554L39.825,51.482ZM61.788,51.921L61.769,52.172L61.708,52.392L61.610,52.584L61.470,52.753L61.219,52.953L61.150,52.898L61.150,52.320L61.130,52.163L61.083,52.021L61.014,51.887L61.044,51.756L61.037,51.624L61.105,51.523L61.487,51.467L61.576,51.442L61.656,51.448L61.753,51.519L61.752,51.578L61.788,51.921ZM41.485,49.879L41.520,49.814L41.612,49.546L41.672,49.662L41.676,49.797L41.631,49.922L41.554,50.012L41.481,50.190L41.201,50.385L41.167,50.545L41.126,50.512L41.095,50.493L41.068,50.468L41.039,50.412L40.949,50.469L40.883,50.536L40.848,50.625L40.848,50.745L40.589,50.684L40.589,50.611L40.690,50.615L40.721,50.611L40.686,50.517L40.668,50.384L40.683,50.264L40.753,50.212L40.836,50.174L40.871,50.081L40.885,49.971L40.917,49.879L40.983,49.811L41.191,49.646L41.265,49.613L41.276,49.654L41.385,49.832L41.426,49.879L41.485,49.879ZM43.083,47.804L42.796,48.033L42.710,48.143L42.829,48.209L42.799,48.285L42.754,48.356L42.700,48.420L42.632,48.476L42.607,48.423L42.541,48.336L42.425,48.146L42.479,48.056L42.702,47.937L42.636,47.787L42.752,47.738L42.939,47.756L43.083,47.804ZM51.375,47.079L51.339,47.280L51.390,47.388L51.372,47.424L51.127,47.412L50.967,47.478L50.900,47.361L50.872,47.013L50.931,47.013L51.009,47.066L51.118,47.083L51.375,47.079ZM44.173,45.943L44.351,45.956L44.456,46.034L44.483,46.168L44.421,46.341L44.355,46.446L44.203,46.557L44.173,46.643L44.133,46.693L43.546,47.169L43.414,47.309L43.340,47.478L43.248,47.437L43.214,47.412L43.170,47.466L43.100,47.519L43.022,47.533L42.952,47.478L42.958,47.418L43.014,47.178L43.022,47.079L43.086,47.079L43.202,47.197L43.377,47.110L43.728,46.741L44.153,46.377L44.282,46.163L44.173,45.943ZM66.124,45.735L65.806,45.735L65.962,45.683L66.028,45.676L66.063,45.645L66.056,45.507L66.092,45.477L66.179,45.469L66.283,45.439L66.380,45.377L66.442,45.270L66.451,45.470L66.403,45.627L66.295,45.721L66.124,45.735ZM53.743,44.931L53.822,44.983L53.901,44.999L53.981,44.980L54.063,44.931L53.999,45.036L53.910,45.113L53.782,45.151L53.610,45.137L53.543,45.121L53.514,45.105L53.484,45.071L53.743,44.931ZM60.953,42.530L61.086,42.552L61.208,42.598L61.094,42.651L60.942,42.668L60.780,42.650L60.635,42.598L60.635,42.530L60.953,42.530ZM40.112,5.105L40.152,5.257L40.008,5.352L39.798,5.400L39.634,5.405L39.505,5.358L39.356,5.324L39.202,5.312L39.057,5.333L39.011,5.190L39.005,5.139L39.144,5.178L39.257,5.157L39.506,5.000L39.650,5.052L39.985,5.052L40.112,5.105ZM16.744,95.000L16.566,94.876L16.492,94.712L16.540,94.587L16.727,94.582L16.844,94.663L16.886,94.791L16.855,94.917L16.744,95.000ZM78.823,84.864L78.747,84.803L78.712,84.734L78.719,84.661L78.768,84.585L78.775,84.669L78.807,84.750L78.859,84.818L78.925,84.868L78.898,84.872L78.823,84.864ZM83.408,76.767L83.374,76.720L83.388,76.660L83.438,76.593L83.508,76.525L83.494,76.590L83.471,76.649L83.408,76.767ZM81.611,70.213L81.785,69.882L81.861,69.824L81.895,70.008L81.870,70.197L81.799,70.247L81.708,70.255L81.620,70.322L81.593,70.298L81.590,70.274L81.611,70.213ZM77.141,67.384L77.071,67.427L77.000,67.451L76.928,67.454L76.853,67.432L76.956,67.340L77.070,67.256L77.194,67.194L77.326,67.161L77.288,67.224L77.245,67.283L77.196,67.336L77.141,67.384ZM80.797,65.319L80.712,65.171L80.760,65.053L80.871,65.012L80.976,65.086L80.994,65.188L80.954,65.275L80.881,65.326L80.797,65.319ZM73.202,56.597L73.076,56.483L73.094,56.303L73.223,56.155L73.430,56.140L73.601,56.297L73.592,56.500L73.445,56.636L73.202,56.597ZM74.748,53.685L74.597,53.554L74.572,53.377L74.661,53.239L74.851,53.226L74.952,53.334L74.988,53.513L74.930,53.661L74.748,53.685ZM74.742,51.749L74.747,51.568L74.842,51.508L74.955,51.549L75.016,51.673L74.988,51.791L74.910,51.852L74.814,51.841L74.742,51.749Z" fill="currentColor" stroke="none"/>
</svg>