<svg xmlns="http://www.w3.org/2000/svg" viewBox="0 0 100 100" role="img" aria-label="Falkland Islands">
  <title>Falkland Islands</title>
  <path d="M45.776,69.900L46.217,70.204L46.159,70.758L45.805,71.292L45.354,71.530L45.141,71.586L44.884,71.734L44.667,71.959L44.464,72.572L44.230,72.556L44.023,72.262L44.004,71.774L43.992,71.708L43.970,71.649L43.940,71.589L43.891,71.530L44.162,71.226L44.393,70.699L44.507,70.039L44.421,69.320L44.105,68.799L43.703,68.538L43.351,68.221L43.204,67.525L43.322,66.757L43.582,67.090L43.982,68.211L45.221,68.073L45.757,68.205L46.134,68.739L46.018,68.934L45.916,69.211L45.831,69.537L45.776,69.900ZM8.119,54.050L7.843,54.139L7.090,54.628L7.090,54.878L7.324,55.017L7.577,55.056L7.844,55.004L8.119,54.878L7.528,55.875L6.655,55.871L5.738,55.238L5.000,54.351L5.123,54.225L5.247,54.139L5.515,54.050L5.740,54.159L6.277,54.318L6.696,54.727L6.811,54.562L6.903,54.050L6.984,53.852L7.033,53.575L7.142,53.321L7.408,53.219L7.628,53.275L7.813,53.437L7.976,53.704L8.119,54.050ZM14.306,59.331L13.582,59.576L13.073,59.549L11.890,59.058L11.997,58.652L12.062,58.504L11.701,58.494L11.544,58.236L11.470,57.907L11.360,57.672L11.112,57.570L10.581,57.514L10.332,57.395L10.241,57.296L10.183,57.194L10.112,57.118L9.989,57.118L10.183,56.227L10.011,55.650L9.617,55.317L9.147,55.179L9.584,54.644L9.929,54.407L10.330,54.344L11.352,54.364L11.497,54.327L11.804,53.645L12.277,52.893L12.572,52.596L12.933,52.411L13.049,52.388L13.320,52.388L13.434,52.411L13.628,52.550L13.698,52.705L13.720,52.843L13.777,52.942L14.286,53.199L14.502,53.496L14.392,53.922L13.916,54.327L12.684,55.043L12.232,55.733L12.171,56.069L12.301,56.165L14.122,55.538L14.885,54.839L15.380,54.562L15.789,54.139L16.021,53.219L15.912,52.883L15.670,52.754L15.553,52.583L15.833,52.111L16.154,51.814L16.434,51.774L16.630,52.009L16.706,52.543L16.659,52.902L16.542,53.315L16.397,53.684L16.271,53.922L16.130,54.291L16.077,55.287L16.021,55.733L15.862,56.211L15.318,57.395L16.363,57.395L16.164,57.768L15.989,58.507L15.833,58.804L15.482,59.058L14.306,59.331ZM6.201,48.512L6.741,48.499L7.642,48.934L8.119,49.043L7.687,49.300L6.700,49.238L6.294,49.469L6.102,49.874L6.026,50.346L6.029,51.557L5.719,51.435L5.404,51.237L5.145,50.923L5.000,50.448L5.155,49.640L5.347,49.099L5.662,48.746L6.201,48.512ZM47.334,50.979L46.653,51.804L44.992,53.328L42.337,57.207L41.833,58.250L41.595,58.880L41.324,59.397L40.939,59.754L39.834,60.047L38.232,61.245L38.040,60.057L37.959,59.886L37.326,59.790L36.990,59.668L36.844,59.483L36.738,59.041L36.491,59.058L36.229,59.275L36.072,59.483L36.014,59.905L36.313,60.737L36.243,61.119L35.739,61.413L33.572,61.245L32.990,61.575L32.692,61.611L32.542,61.245L32.626,61.001L33.078,60.519L33.229,60.186L31.577,60.875L31.171,61.245L30.907,61.984L31.054,62.604L31.343,63.283L31.498,64.187L31.369,64.794L31.063,65.295L29.052,67.690L28.755,67.934L28.201,67.901L27.421,67.334L26.869,67.380L26.972,67.439L27.006,67.651L26.990,67.905L26.947,68.073L26.776,68.178L26.603,68.013L26.432,67.783L26.013,67.486L25.544,66.727L25.397,66.555L25.105,66.440L24.615,66.005L24.282,66.001L24.126,66.173L24.081,66.450L24.158,66.714L24.834,67.054L25.216,67.611L25.492,68.330L25.653,69.043L24.627,70.263L23.217,71.061L21.862,70.913L20.994,69.320L21.320,69.353L21.566,69.445L21.791,69.471L22.054,69.320L21.582,68.957L20.963,68.258L20.411,67.469L20.152,66.833L20.342,66.707L20.675,66.311L20.811,65.889L20.417,65.698L17.889,65.589L17.564,65.698L17.358,65.995L17.507,66.166L17.834,66.252L18.156,66.278L18.664,66.523L19.232,67.129L19.714,67.865L19.965,68.515L18.506,68.515L18.094,68.439L17.886,68.244L17.756,67.967L16.620,66.417L16.323,66.133L15.998,66.080L15.658,66.094L15.318,66.001L14.876,65.572L14.055,64.425L13.604,64.062L12.448,63.798L12.063,63.353L12.232,62.379L12.494,61.970L13.123,62.109L14.477,62.680L15.572,62.759L15.833,62.934L15.944,63.329L15.931,63.788L16.046,64.108L16.534,64.062L16.176,62.680L17.875,62.452L19.465,61.825L19.465,61.548L18.666,61.093L17.987,60.968L17.401,60.651L16.878,59.632L19.057,59.612L20.199,59.899L20.665,60.740L20.836,60.740L20.934,60.443L21.039,60.255L21.351,59.886L21.393,60.305L21.522,60.661L21.718,60.809L21.966,60.601L22.227,60.321L22.469,60.301L22.736,60.400L23.436,60.519L23.693,60.651L24.110,60.994L24.526,61.452L24.742,61.462L24.967,60.994L24.624,60.740L24.624,60.463L25.263,60.479L25.973,60.341L26.650,60.051L27.196,59.632L27.846,58.434L27.984,58.250L28.060,58.085L27.919,57.768L27.639,57.583L27.290,57.811L26.381,58.645L25.177,59.107L23.931,59.081L22.895,58.504L24.889,58.639L25.397,58.375L25.580,58.243L26.068,58.029L26.168,57.811L26.249,57.445L26.440,57.079L26.672,56.765L26.869,56.564L26.635,56.086L26.661,55.769L26.791,55.505L26.869,55.179L26.838,54.793L26.710,53.912L26.683,53.358L26.941,52.665L27.548,52.160L28.236,51.952L28.755,52.111L28.561,52.451L28.351,52.747L27.898,53.219L28.667,53.031L28.984,53.031L29.113,53.358L29.044,53.737L28.567,54.878L28.862,55.070L29.596,55.733L29.634,55.076L29.832,54.575L30.172,54.308L30.642,54.351L30.343,53.754L30.251,53.288L30.298,51.972L30.393,51.593L30.625,51.349L30.911,51.250L31.171,51.280L31.336,51.468L31.515,52.114L31.670,52.411L31.841,52.368L32.070,52.173L32.269,52.131L32.355,52.543L32.465,52.648L32.711,52.487L33.480,51.784L33.552,51.039L33.523,50.191L33.572,49.597L32.900,49.360L32.281,49.495L31.682,49.756L31.077,49.897L29.603,49.676L28.962,49.878L29.113,50.725L28.913,51.191L28.729,51.191L28.517,51.022L28.241,50.979L27.114,51.718L26.776,51.834L25.645,51.834L25.291,51.976L25.101,52.309L24.967,52.675L24.780,52.942L24.275,52.945L24.017,52.345L23.779,51.626L23.330,51.280L22.780,51.039L22.308,50.419L22.028,49.601L22.054,48.766L22.408,48.073L22.812,48.149L23.287,48.532L25.795,49.320L26.511,49.343L27.104,49.073L28.259,48.156L28.841,47.958L30.821,48.162L32.588,47.450L33.109,47.539L34.161,48.608L34.760,48.895L36.159,49.043L35.794,48.291L35.189,47.875L34.490,47.697L33.836,47.658L33.336,47.410L31.856,45.721L31.589,45.563L31.081,45.365L30.813,45.144L30.127,44.059L29.475,43.986L25.788,42.271L25.482,41.974L25.219,41.136L25.163,40.651L25.397,40.437L26.869,40.437L28.077,40.760L28.339,40.569L27.984,39.744L27.468,39.197L26.800,38.827L26.099,38.593L25.142,38.464L24.447,38.524L24.110,38.474L23.323,38.016L22.981,37.943L22.733,37.851L22.453,37.607L22.264,37.290L22.294,36.980L22.386,36.538L22.258,36.050L21.881,35.179L22.165,35.209L22.426,35.186L22.668,35.080L22.895,34.875L23.722,35.449L26.511,36.564L27.386,37.109L29.955,39.306L32.003,40.345L34.257,40.691L38.388,39.883L37.784,39.167L36.003,39.009L36.243,38.088L36.769,37.386L37.359,36.841L37.499,36.307L37.664,36.139L37.959,36.426L38.051,36.673L38.232,37.693L39.749,36.406L40.577,36.043L41.319,36.287L41.319,36.564L41.177,36.693L41.105,36.822L41.055,36.967L40.975,37.119L43.336,37.574L44.078,37.943L43.680,38.141L43.256,38.227L42.362,38.227L43.079,39.052L44.418,39.052L49.143,37.943L49.590,37.758L50.436,36.970L50.950,36.841L50.950,37.119L49.184,38.415L48.535,38.751L49.672,39.405L50.877,39.424L53.351,38.474L53.179,38.095L52.878,37.745L52.533,37.488L52.229,37.389L52.066,37.158L52.051,35.964L51.980,35.456L52.192,35.482L52.627,35.426L52.838,35.456L52.791,35.271L52.727,34.813L52.680,34.625L53.038,34.618L53.495,34.717L53.886,34.941L54.053,35.318L54.242,35.581L56.787,36.634L57.462,37.109L57.840,37.693L56.763,37.633L56.322,37.841L56.112,38.474L56.205,39.085L56.526,39.108L56.940,38.966L57.309,39.052L56.640,39.454L55.475,40.793L54.893,41.268L54.727,40.820L54.464,40.674L54.160,40.760L53.866,40.991L53.866,41.268L53.958,41.483L53.927,41.720L53.709,42.373L53.888,42.264L54.411,42.119L54.411,42.373L53.616,43.505L53.526,43.762L53.445,44.887L53.267,45.144L52.956,45.326L52.337,46.117L51.980,46.272L51.698,46.111L51.560,45.758L51.550,45.319L51.652,44.890L50.871,45.837L50.442,46.190L50.093,45.995L48.722,47.381L49.418,47.325L49.313,47.767L48.449,48.905L47.334,50.979ZM40.632,33.239L40.267,33.477L40.104,33.497L40.104,33.800L40.451,34.275L40.161,34.671L39.585,34.895L39.074,34.875L38.583,34.565L38.148,34.110L37.788,33.556L37.530,32.936L38.712,32.560L39.099,32.557L39.485,32.665L40.466,33.229L40.632,33.239ZM33.836,36.841L32.044,37.191L31.672,37.128L31.212,36.921L30.853,36.545L30.783,35.997L31.135,35.416L31.755,35.080L32.963,34.875L33.239,35.054L33.747,35.832L34.007,36.010L34.378,35.981L34.702,35.891L35.003,35.720L35.301,35.456L34.845,35.007L33.468,34.209L32.503,33.899L31.325,33.022L30.983,32.665L30.574,32.078L30.547,31.804L30.813,31.557L31.224,31.508L31.449,31.768L31.595,32.171L31.764,32.537L32.282,32.982L32.935,33.210L33.625,33.286L34.257,33.239L35.612,32.913L36.237,33.091L36.503,33.932L36.615,34.100L36.809,34.532L36.869,34.974L36.579,35.179L35.629,36.287L35.236,37.224L35.114,37.389L34.854,37.366L34.126,36.947L33.836,36.841ZM92.942,49.043L93.941,48.684L94.432,48.618L95.000,48.766L95.000,49.043L94.295,49.102L91.747,50.369L91.229,50.468L89.525,50.504L89.192,50.626L89.171,50.940L88.852,51.230L88.518,51.375L84.701,51.830L82.751,51.517L81.765,51.557L81.765,51.834L82.074,51.896L82.951,52.411L83.365,52.563L84.682,52.665L84.682,52.942L83.978,53.160L82.497,53.064L81.765,53.219L80.024,54.324L79.350,54.351L79.891,54.614L80.408,54.575L81.970,53.810L83.653,53.796L83.308,54.252L82.678,54.704L81.992,55.043L80.918,55.357L79.006,56.564L77.804,57.095L75.489,56.722L74.192,56.818L73.286,57.118L69.297,57.059L68.687,56.818L67.832,56.010L66.670,55.571L66.111,55.083L65.570,54.783L65.315,54.489L65.189,54.146L65.097,53.730L64.963,53.381L64.714,53.219L64.401,53.457L64.126,54.027L63.931,54.644L63.857,55.030L63.991,55.538L64.321,56.033L64.744,56.416L65.913,56.778L66.928,57.313L67.848,58.032L68.330,58.804L67.976,59.516L68.635,59.727L70.060,59.331L70.787,59.378L71.735,59.642L72.448,60.166L72.461,60.994L73.147,61.548L71.841,62.439L71.431,62.934L71.725,63.214L71.907,63.580L72.022,64.042L72.236,65.427L72.225,65.836L72.031,65.982L71.604,66.001L71.373,65.807L70.591,64.312L70.303,63.887L70.010,63.534L69.657,63.293L69.196,63.211L68.972,63.125L68.670,62.759L68.509,62.680L68.356,62.759L68.290,62.940L68.184,63.125L67.908,63.211L67.688,63.165L67.320,62.973L67.130,62.934L66.804,63.072L66.820,63.389L66.952,63.768L66.958,64.062L66.618,64.431L65.836,64.916L65.493,65.292L65.079,65.586L64.815,65.114L64.527,63.758L64.004,64.342L63.720,64.002L63.542,63.270L63.342,62.680L62.800,62.403L62.244,62.541L61.811,62.531L61.627,61.825L61.172,62.069L60.800,61.957L60.068,61.245L59.883,60.941L59.742,60.789L59.555,60.740L59.253,60.869L59.138,61.076L59.061,61.317L58.868,61.548L58.509,61.730L58.186,61.772L57.863,61.700L57.498,61.548L57.274,61.390L57.107,61.199L56.916,61.053L56.624,60.994L56.445,61.080L56.077,61.456L55.861,61.548L55.599,61.786L55.744,62.244L56.119,62.525L56.859,62.046L58.176,62.379L58.543,62.640L58.593,63.217L58.582,63.798L58.774,64.062L59.269,63.969L59.608,63.818L59.941,63.785L60.411,64.062L59.555,65.144L60.467,65.084L60.913,65.163L61.286,65.447L60.864,65.846L59.886,66.245L59.555,66.555L59.362,67.311L59.727,67.552L60.307,67.499L61.747,66.998L62.238,66.971L62.314,67.380L62.047,67.723L60.755,68.515L61.072,69.049L61.642,69.544L61.985,70.078L61.627,70.732L61.088,70.850L60.464,70.586L59.383,69.900L58.727,69.821L58.160,69.920L57.648,69.864L57.155,69.320L57.026,68.970L56.970,68.634L56.874,68.297L56.624,67.934L56.333,67.763L56.028,67.690L55.727,67.532L55.441,67.103L55.006,67.301L54.002,66.133L53.522,66.001L53.415,66.252L53.304,66.734L53.179,67.525L53.048,67.786L52.760,67.509L52.323,66.833L51.763,67.228L52.006,67.947L52.838,69.043L52.744,69.036L52.569,69.287L52.397,69.656L52.323,70.026L52.452,70.299L52.756,70.395L53.351,70.454L53.972,70.817L54.371,71.279L54.528,71.879L54.411,72.665L54.258,72.813L53.964,73.192L53.826,73.588L54.138,73.773L54.194,73.931L54.758,74.555L54.893,74.604L54.703,75.317L54.201,75.073L53.351,74.050L52.772,73.707L51.495,73.450L50.950,72.968L51.049,72.183L50.739,71.682L50.236,71.398L49.081,71.108L48.645,70.774L48.634,70.270L49.237,69.597L48.811,69.372L47.946,69.663L47.591,69.458L47.529,69.231L47.547,68.706L47.506,68.515L46.720,67.624L45.791,66.918L45.552,66.668L45.274,66.278L45.095,65.827L45.150,65.391L45.321,65.253L45.540,65.289L45.763,65.414L45.938,65.559L46.466,66.163L46.649,66.278L47.112,66.245L47.437,65.949L47.496,65.474L47.162,64.893L48.198,64.675L48.658,64.359L48.893,63.758L48.443,63.541L47.941,63.165L47.526,62.676L47.334,62.102L47.365,61.739L47.491,61.571L47.690,61.627L47.943,61.964L48.185,62.129L48.550,62.162L49.237,62.102L48.842,61.311L48.638,61.020L48.363,60.740L48.781,60.532L49.675,60.384L50.093,60.186L50.093,59.886L48.685,59.490L48.029,59.054L48.020,58.250L48.617,57.870L49.448,58.177L50.299,58.662L50.950,58.804L51.478,58.309L51.105,57.808L50.441,57.306L50.093,56.818L50.240,56.369L50.564,56.343L50.951,56.422L51.294,56.287L51.450,55.954L51.440,55.597L51.270,55.317L50.950,55.179L51.386,54.901L53.267,54.199L53.771,54.694L54.080,54.265L54.411,52.411L54.806,52.813L55.210,52.893L56.112,52.665L55.686,51.705L55.597,51.280L58.012,49.597L58.430,50.151L58.754,49.891L59.071,49.343L59.469,49.043L61.386,48.684L61.799,48.766L61.943,49.079L61.948,49.439L61.918,49.812L61.955,50.174L62.090,50.478L62.262,50.748L62.409,51.045L62.470,51.418L62.397,51.797L62.259,52.160L62.163,52.497L62.308,53.091L62.291,53.434L62.222,53.773L62.142,54.050L62.563,53.872L63.046,53.754L63.464,53.506L63.685,52.942L63.567,52.358L63.264,51.656L63.025,50.927L63.117,49.858L62.789,49.521L62.504,49.053L62.657,48.212L62.880,48.004L63.166,47.964L63.409,47.872L63.514,47.519L63.436,47.140L63.237,47.100L62.985,47.133L62.459,46.816L60.686,46.134L59.555,45.144L59.000,44.184L59.447,43.501L60.160,42.667L60.411,41.268L61.685,43.742L62.484,44.600L63.015,43.505L62.347,42.561L62.182,41.638L62.559,41.156L63.514,41.542L62.857,40.866L60.569,39.810L60.068,39.454L60.159,38.840L60.398,38.187L60.728,37.653L61.098,37.389L61.251,37.462L61.746,37.838L61.955,37.943L62.268,37.950L63.093,37.693L63.311,37.521L63.439,37.128L63.522,36.736L63.599,36.564L65.298,36.515L65.890,36.337L66.389,36.000L66.615,35.456L66.468,34.902L65.750,33.823L65.486,33.121L65.251,32.804L64.985,32.527L64.800,32.415L64.677,32.237L64.371,31.003L64.903,31.221L65.704,32.190L66.087,32.415L66.638,32.494L67.824,32.956L69.907,34.239L70.497,34.348L71.776,34.348L72.064,34.476L72.316,34.684L72.596,34.852L72.974,34.875L72.974,34.625L72.880,34.123L73.262,33.685L73.849,33.365L76.237,33.131L76.677,33.368L77.093,33.708L78.116,34.057L78.563,34.486L79.698,35.865L79.864,36.426L79.956,37.247L80.063,37.805L79.944,38.260L79.350,38.751L78.859,38.972L78.209,39.147L77.571,39.197L77.105,39.052L76.859,38.590L76.438,37.211L76.076,36.841L75.652,36.954L75.250,37.406L74.535,38.474L75.383,38.497L75.536,39.045L75.220,40.839L75.548,41.126L77.141,40.236L77.721,40.298L77.831,40.721L77.788,41.235L77.690,41.770L77.635,42.251L77.663,42.951L77.750,43.201L78.134,43.205L78.232,43.142L78.408,42.766L78.563,42.680L78.667,42.805L78.825,43.406L78.913,43.637L79.251,43.861L79.648,43.838L79.999,43.604L80.192,43.205L80.719,43.521L81.035,43.937L81.194,44.507L81.236,45.293L81.384,45.840L81.739,46.533L82.166,47.133L82.530,47.381L82.969,47.120L82.763,46.513L82.109,45.444L82.377,44.949L82.918,45.062L83.995,45.721L83.809,44.768L83.205,44.362L82.562,44.112L82.264,43.637L82.434,43.340L82.767,43.086L82.998,42.759L82.873,42.251L82.550,42.073L81.783,42.433L81.409,42.373L81.158,42.053L81.136,41.743L81.163,41.407L81.065,40.991L80.946,40.767L80.768,40.513L80.606,40.463L80.535,40.839L80.433,41.229L80.186,41.443L79.876,41.532L79.593,41.542L79.303,41.387L79.421,41.027L79.864,40.437L81.013,38.059L81.322,37.693L81.605,37.564L82.278,36.970L82.616,36.841L87.878,36.446L89.259,36.004L90.011,36.010L90.678,36.198L90.958,36.426L91.227,36.841L91.653,38.504L91.819,38.751L92.084,38.966L92.856,40.298L93.122,40.576L93.471,40.780L94.158,40.991L93.953,41.394L93.471,41.697L93.284,42.119L93.925,42.113L94.124,42.482L93.904,42.944L93.284,43.205L90.155,42.772L88.042,41.493L87.521,41.374L87.301,41.697L87.610,42.680L86.270,42.106L84.682,42.927L85.125,43.676L85.971,44.293L86.903,44.719L87.610,44.890L89.054,44.531L89.756,44.969L92.102,45.213L93.040,45.490L93.827,46.038L94.158,46.965L93.696,47.483L92.653,47.872L90.869,48.212L90.869,48.512L92.378,49.066L92.942,49.043ZM44.421,32.415L43.363,32.144L43.126,31.999L42.959,31.656L42.905,31.306L43.028,31.052L43.391,31.003L43.960,30.706L44.602,30.937L45.260,31.346L45.869,31.557L48.449,31.280L48.671,31.339L48.688,31.488L48.654,31.682L48.722,31.884L48.887,32.161L48.970,32.415L49.122,32.596L49.492,32.665L49.666,32.557L49.774,32.303L49.848,32.042L49.921,31.884L50.178,31.676L50.361,31.590L50.608,31.557L51.174,31.775L51.600,32.349L51.873,33.154L51.980,34.071L51.370,34.222L50.785,34.552L49.323,34.625L48.731,34.318L47.894,32.972L47.248,32.665L44.421,32.415ZM43.918,74.718L44.338,73.999L44.976,73.783L45.829,73.776L45.919,74.238L45.323,74.411L45.328,74.959L44.863,75.425L44.569,75.975L45.128,76.349L46.109,76.214L46.789,75.871L47.093,76.373L46.457,76.842L45.950,77.352L45.741,77.943L45.054,77.612L44.495,77.238L44.107,76.820L43.467,76.910L43.164,76.407L42.605,75.991L43.369,75.354L44.007,75.180L43.918,74.718ZM77.891,61.225L78.227,61.551L78.232,61.608L78.119,61.670L78.086,61.957L78.011,62.284L77.718,62.294L77.246,62.089L77.020,62.096L77.020,62.264L77.172,62.663L77.053,62.835L76.774,62.798L76.744,62.907L77.008,63.085L77.282,62.960L77.496,62.716L77.541,62.802L77.424,63.171L77.367,63.560L77.410,63.936L77.625,64.405L77.602,64.642L77.528,64.814L77.545,65.065L77.711,65.371L77.589,65.546L77.069,65.450L76.872,65.236L77.053,65.015L77.068,64.738L76.926,64.735L76.656,64.827L76.259,64.616L75.897,64.342L75.320,64.045L75.258,63.837L75.250,63.481L75.128,63.155L74.807,62.854L74.597,62.501L74.776,62.234L75.085,62.010L75.436,61.819L75.800,61.720L76.049,61.551L76.282,61.502L76.350,61.449L76.170,61.264L76.259,61.152L76.634,61.172L76.927,61.294L77.071,61.489L77.177,61.667L77.314,61.690L77.541,61.654L77.684,61.469L77.652,61.195L77.760,61.156L77.891,61.225ZM46.141,60.070L46.290,60.265L46.347,60.677L46.131,60.968L45.883,61.057L45.740,61.007L45.696,60.888L45.635,60.756L45.542,60.641L45.414,60.631L45.264,60.661L45.162,60.499L45.310,60.004L45.262,59.694L45.353,59.272L45.664,58.969L45.920,59.058L45.930,59.325L45.846,59.655L45.979,59.958L46.141,60.070ZM44.525,34.266L44.870,34.653L45.214,34.997L45.903,35.512L45.942,34.691L46.499,34.774L46.631,35.422L47.191,35.764L48.136,35.888L48.224,36.362L47.495,36.540L46.554,37.021L45.783,37.457L45.054,37.547L44.323,37.075L44.406,36.470L44.919,36.036L44.318,35.866L43.333,36.043L42.559,35.570L42.387,35.139L43.072,35.050L43.800,34.961L44.011,34.225L44.525,34.266ZM24.707,32.418L25.040,32.797L25.130,33.286L25.016,33.701L24.868,33.764L24.789,33.536L24.764,33.309L24.682,33.131L24.379,33.012L23.887,32.890L23.380,32.468L23.119,31.607L23.465,31.267L24.159,31.847L24.511,32.276L24.707,32.418ZM11.595,23.809L11.744,23.987L11.768,24.188L11.570,24.244L11.227,24.142L10.401,23.753L10.057,23.673L9.831,23.574L9.818,23.363L10.026,23.172L10.172,22.994L10.154,22.799L9.982,22.407L9.997,22.057L10.338,22.146L10.670,22.486L11.019,22.997L11.135,23.231L11.235,23.502L11.292,23.627L11.595,23.809Z" fill="currentColor" stroke="currentColor" stroke-width="1.5" stroke-linejoin="round"/>
</svg>