<svg xmlns="http://www.w3.org/2000/svg" viewBox="0 0 100 100" role="img" aria-label="Faroe Islands">
  <title>Faroe Islands</title>
  <path d="M62.877,94.836L61.914,95.000L60.978,94.092L59.421,91.720L55.591,88.035L53.776,85.378L53.972,83.104L52.858,81.715L51.556,79.594L50.588,77.389L50.464,75.767L50.272,75.334L49.891,73.985L50.753,73.985L50.660,73.657L50.645,73.570L50.464,73.322L52.015,72.269L52.756,72.159L53.373,72.768L52.521,73.730L52.221,73.985L52.621,74.379L53.047,74.568L53.500,74.612L53.972,74.543L51.932,76.434L51.932,76.988L55.666,76.544L56.789,78.042L59.389,78.435L60.312,79.438L60.412,80.640L59.945,81.355L59.255,81.497L58.700,80.994L58.180,80.319L57.483,79.999L56.846,80.086L56.515,80.662L57.332,80.884L57.825,81.639L58.166,82.506L58.556,83.104L58.977,83.191L59.900,82.965L60.312,83.104L60.728,83.629L60.899,84.197L60.772,84.678L60.312,84.995L60.312,85.608L62.067,86.548L61.914,87.313L61.535,87.448L61.050,87.346L60.573,87.383L59.128,88.206L58.391,88.301L57.431,87.995L57.431,88.666L57.912,88.779L58.324,89.096L58.640,89.664L58.844,90.503L59.330,89.482L60.075,89.154L61.754,89.278L61.651,89.610L61.463,90.503L62.393,90.903L63.027,92.212L63.233,93.743L62.877,94.836ZM64.659,56.753L64.072,57.705L63.789,58.313L63.928,58.590L64.021,59.064L63.928,61.641L63.727,61.929L63.420,62.559L63.035,63.190L62.616,63.478L62.318,63.226L59.567,57.399L59.001,56.753L55.134,56.046L54.456,55.758L53.895,55.121L53.658,53.976L53.477,52.413L52.569,50.237L52.221,48.805L53.194,48.983L54.983,49.789L55.835,49.967L57.184,49.741L57.692,49.967L58.091,50.423L58.688,51.494L59.159,51.800L62.367,52.730L62.877,53.364L63.155,54.632L64.378,55.879L64.659,56.753ZM32.122,32.233L30.980,31.263L30.187,29.222L30.103,27.458L31.112,27.287L32.613,28.821L33.128,29.124L33.442,29.189L34.422,29.124L34.752,28.930L34.858,28.511L34.893,28.092L35.013,27.899L35.500,27.699L36.239,26.824L39.202,26.062L39.202,26.620L38.917,26.620L38.917,27.287L40.551,28.420L41.090,28.566L41.554,28.858L42.229,30.326L42.661,30.957L43.710,31.332L44.825,31.263L45.865,31.489L46.694,32.794L46.172,33.938L45.788,35.097L45.280,36.023L44.387,36.460L43.631,36.315L42.941,35.979L42.254,35.892L41.509,36.460L41.846,36.777L42.193,36.996L42.567,37.105L42.976,37.127L40.510,38.352L39.782,38.964L40.143,37.991L40.332,37.685L40.040,36.438L39.559,35.338L38.968,34.798L38.340,35.236L38.690,35.531L39.210,36.147L39.593,36.919L39.518,37.685L39.071,37.787L37.190,36.460L34.566,35.903L32.860,34.689L32.266,34.623L32.266,34.018L36.294,34.018L35.353,33.279L34.268,32.714L32.122,32.233ZM38.917,25.450L38.519,24.929L38.386,24.593L38.340,23.923L38.440,22.961L38.680,22.716L38.961,22.691L39.202,22.392L39.435,21.164L39.473,20.245L39.659,19.622L40.332,19.283L39.528,17.960L39.530,16.080L40.065,12.552L40.283,12.982L40.479,13.069L40.682,13.040L40.929,13.164L43.820,13.856L45.247,14.731L45.855,15.948L46.392,18.124L48.428,22.173L48.421,24.229L49.839,24.706L52.252,26.806L54.384,27.484L54.753,28.008L54.794,28.785L54.526,29.736L54.125,30.392L53.565,30.972L52.981,31.387L52.509,31.569L56.202,31.394L56.830,32.513L57.421,33.858L57.620,34.809L57.273,35.236L54.811,35.236L54.811,35.903L56.305,36.581L59.159,36.511L60.312,37.685L59.866,38.785L59.533,40.251L59.622,41.526L61.018,42.335L60.937,43.086L60.721,44.245L60.889,45.743L59.514,46.264L58.226,44.879L57.009,43.013L54.348,41.198L52.102,37.335L50.609,36.460L50.006,36.253L49.613,35.629L49.403,34.587L49.336,33.125L49.063,32.305L48.409,31.438L47.635,30.709L47.008,30.286L43.693,29.736L42.955,29.342L42.526,28.490L42.567,27.640L43.238,27.287L42.876,26.215L42.299,26.328L41.621,26.926L40.929,27.287L40.479,27.079L39.295,25.975L38.917,25.450ZM45.987,14.724L45.628,14.184L45.146,13.685L44.764,13.164L44.701,12.552L45.056,11.925L45.499,12.023L45.980,12.391L46.430,12.552L47.347,12.158L48.883,10.970L50.815,10.547L51.330,10.722L51.766,11.079L52.137,11.509L52.531,11.852L53.057,11.939L53.239,12.854L52.501,13.488L51.543,14.046L51.069,14.724L51.086,16.225L51.210,17.435L51.551,18.427L52.221,19.283L51.797,16.553L51.984,15.489L55.126,14.381L56.166,14.451L56.830,15.609L56.497,15.697L55.704,16.276L59.001,16.834L59.402,17.253L59.052,18.157L58.290,19.017L57.431,19.283L57.431,19.950L57.919,20.114L58.719,20.927L59.159,21.167L59.504,21.098L60.305,20.617L60.731,20.504L63.039,21.361L64.824,22.603L64.955,23.176L64.397,23.507L63.334,23.617L60.802,23.252L60.024,23.617L60.024,24.229L65.185,26.992L66.702,28.566L64.505,28.267L62.328,27.287L62.328,27.899L63.255,28.100L64.113,28.777L65.525,30.286L65.525,30.957L64.762,30.840L63.894,30.961L63.114,31.398L62.616,32.233L62.800,32.404L62.984,32.666L63.191,32.794L63.191,33.453L62.836,33.829L62.676,34.197L62.695,34.634L62.877,35.236L61.332,34.157L60.917,32.294L60.905,30.060L60.573,27.899L59.838,26.284L58.709,24.455L57.431,23.281L56.250,23.617L57.239,24.783L58.494,25.898L59.576,27.400L60.024,29.736L59.268,31.671L57.557,30.279L54.235,26.062L52.519,26.172L52.077,25.756L51.814,25.362L50.928,24.418L50.609,24.229L50.104,23.748L47.453,19.261L45.987,14.724ZM67.827,23.617L66.400,21.623L65.916,20.256L66.101,18.726L66.397,18.179L66.560,18.237L66.673,18.543L66.833,18.726L67.168,18.605L67.235,18.259L67.238,17.756L67.384,17.140L67.466,16.371L67.344,13.904L67.252,13.164L66.737,11.323L66.383,9.672L66.601,8.371L67.827,7.606L67.513,8.273L68.694,11.794L70.136,14.297L71.932,16.087L74.193,17.446L73.405,18.820L72.086,19.021L70.734,18.434L69.844,17.446L69.556,18.113L71.123,20.300L71.946,21.014L72.751,20.504L72.876,22.071L73.024,22.585L73.328,23.012L73.328,23.617L72.622,24.116L71.764,24.331L70.933,24.112L70.291,23.311L69.135,20.869L68.474,20.169L67.827,20.504L68.732,23.551L69.113,24.510L69.274,25.140L68.989,25.162L68.589,24.929L68.169,24.553L68.054,24.258L67.969,23.930L67.827,23.617ZM24.695,31.081L25.273,31.613L25.664,31.883L25.263,32.043L24.737,32.120L21.278,31.788L21.132,31.146L22.267,30.479L23.500,30.418L24.695,31.081ZM76.942,13.135L78.212,13.171L78.868,13.616L78.823,14.192L77.587,15.489L77.865,16.408L77.870,17.239L77.673,17.800L77.292,18.266L76.746,18.594L76.080,18.846L75.378,18.711L74.878,17.807L74.440,16.626L74.287,15.631L74.789,14.935L75.499,14.585L76.942,13.135ZM65.810,14.768L66.002,15.511L66.045,16.834L65.422,17.337L64.505,16.878L63.653,15.642L63.234,14.789L62.094,11.976L61.631,9.913L61.778,7.938L62.475,7.212L63.160,7.901L63.531,9.202L65.346,13.434L65.810,14.768ZM62.881,17.078L63.155,17.457L63.536,18.427L63.361,19.367L62.716,19.549L61.954,19.108L61.348,18.135L61.013,16.685L60.590,15.358L60.292,14.789L59.457,13.488L58.341,11.378L58.039,10.635L57.289,8.371L57.212,7.114L57.631,6.731L58.214,7.256L58.777,8.295L59.941,11.276L62.881,17.078ZM73.240,11.706L73.563,12.067L73.855,12.974L73.652,13.762L73.377,14.374L72.627,14.724L71.276,14.221L70.021,12.963L69.017,11.192L68.392,9.694L67.997,7.420L67.454,6.862L67.049,5.714L67.612,5.000L68.605,5.321L69.212,6.013L69.630,7.147L69.954,8.455L70.473,9.439L71.077,10.292L71.319,11.079L71.314,11.691L71.554,12.264L72.004,12.151L72.468,11.542L72.972,11.509L73.240,11.706Z" fill="currentColor" stroke="currentColor" stroke-width="1.5" stroke-linejoin="round"/>
</svg>