<svg xmlns="http://www.w3.org/2000/svg" viewBox="0 0 100 100" role="img" aria-label="Federated States of Micronesia">
  <title>Federated States of Micronesia</title>
  <path d="M94.926,50.022L94.942,50.040L94.967,50.048L94.990,50.058L95.000,50.084L94.987,50.130L94.925,50.242L94.901,50.268L94.852,50.279L94.809,50.268L94.765,50.250L94.716,50.241L94.638,50.242L94.585,50.235L94.530,50.217L94.516,50.154L94.559,50.093L94.729,49.946L94.799,49.899L94.870,49.881L94.926,49.920L94.931,49.943L94.925,49.997L94.926,50.022ZM77.867,44.243L77.887,44.279L77.918,44.292L77.954,44.287L77.991,44.268L78.038,44.456L78.040,44.492L78.011,44.501L77.932,44.494L77.917,44.504L77.924,44.542L77.957,44.610L77.964,44.653L77.950,44.711L77.917,44.745L77.874,44.760L77.701,44.785L77.632,44.780L77.595,44.739L77.517,44.766L77.469,44.733L77.434,44.679L77.398,44.641L77.413,44.593L77.418,44.547L77.407,44.504L77.371,44.468L77.382,44.453L77.398,44.416L77.299,44.410L77.273,44.354L77.297,44.231L77.331,44.196L77.400,44.195L77.462,44.178L77.472,44.095L77.546,44.127L77.570,44.144L77.605,44.124L77.631,44.126L77.657,44.138L77.693,44.144L77.783,44.140L77.816,44.144L77.819,44.152L77.879,44.191L77.890,44.194L77.913,44.225L77.903,44.233L77.867,44.243ZM53.723,42.631L53.845,42.601L53.895,42.618L53.945,42.682L53.947,42.737L53.924,42.803L53.887,42.832L53.846,42.779L53.821,42.779L53.791,42.802L53.749,42.800L53.702,42.787L53.649,42.779L53.660,42.766L53.671,42.760L53.698,42.756L53.732,42.740L53.826,42.720L53.846,42.695L53.830,42.659L53.753,42.670L53.723,42.631ZM54.761,42.359L54.786,42.341L54.817,42.345L54.856,42.356L54.908,42.359L54.872,42.402L54.811,42.444L54.744,42.475L54.687,42.482L54.685,42.438L54.689,42.401L54.712,42.334L54.727,42.337L54.738,42.341L54.761,42.359ZM5.463,34.698L5.425,34.760L5.434,34.812L5.482,34.832L5.559,34.797L5.541,34.839L5.499,34.896L5.450,34.948L5.411,34.972L5.361,34.956L5.334,34.880L5.288,34.896L5.254,34.930L5.058,35.243L5.016,35.291L5.000,35.204L5.033,35.080L5.091,34.969L5.152,34.921L5.177,34.895L5.207,34.774L5.225,34.734L5.279,34.704L5.300,34.729L5.311,34.824L5.317,34.789L5.328,34.753L5.344,34.721L5.362,34.698L5.394,34.675L5.436,34.652L5.468,34.652L5.463,34.698ZM65.321,65.989L65.343,65.997L65.355,66.010L65.338,66.024L65.298,66.024L65.287,66.001L65.303,65.992L65.321,65.989ZM64.985,65.853L65.011,65.839L65.050,65.847L65.028,65.870L64.986,65.868L64.985,65.853ZM65.267,65.829L65.279,65.852L65.264,65.862L65.233,65.859L65.213,65.841L65.214,65.823L65.236,65.817L65.267,65.829ZM65.577,55.771L65.568,55.713L65.623,55.674L65.632,55.731L65.577,55.771ZM65.253,55.627L65.262,55.682L65.197,55.719L65.188,55.664L65.253,55.627ZM61.213,50.220L61.227,50.178L61.276,50.134L61.332,50.108L61.368,50.117L61.357,50.150L61.308,50.182L61.251,50.208L61.213,50.220ZM73.801,48.455L73.796,48.447L73.790,48.440L73.788,48.436L73.797,48.433L73.808,48.437L73.808,48.443L73.803,48.448L73.801,48.455ZM45.535,45.115L45.536,45.090L45.539,45.068L45.546,45.050L45.563,45.034L45.571,45.059L45.567,45.078L45.554,45.096L45.535,45.115ZM76.591,45.042L76.601,45.005L76.611,44.994L76.636,44.989L76.633,45.011L76.625,45.022L76.591,45.042ZM54.689,42.873L54.676,42.738L54.681,42.680L54.710,42.710L54.721,42.750L54.719,42.793L54.707,42.835L54.689,42.873ZM45.067,42.674L45.049,42.639L45.072,42.638L45.076,42.644L45.070,42.658L45.067,42.674ZM49.468,38.318L49.458,38.280L49.475,38.285L49.476,38.293L49.471,38.304L49.468,38.318ZM46.806,38.321L46.794,38.274L46.803,38.214L46.831,38.170L46.873,38.171L46.879,38.203L46.858,38.250L46.827,38.296L46.806,38.321ZM48.426,36.868L48.448,36.835L48.459,36.827L48.479,36.833L48.470,36.851L48.458,36.858L48.442,36.861L48.426,36.868ZM13.827,34.004L13.855,33.979L13.889,33.976L13.895,33.989L13.865,34.016L13.832,34.028L13.827,34.004Z" fill="currentColor" stroke="currentColor" stroke-width="1" stroke-linejoin="round"/>
</svg>