<svg xmlns="http://www.w3.org/2000/svg" viewBox="0 0 100 100" role="img" aria-label="Gabon">
  <title>Gabon</title>
  <path d="M74.402,7.321L74.406,8.184L74.356,8.646L74.209,8.990L73.696,9.273L73.610,9.339L73.349,9.625L73.273,9.678L73.142,9.729L73.138,9.850L73.219,10.120L73.190,10.265L73.115,10.365L73.020,10.455L72.924,10.570L72.825,10.738L72.729,10.963L72.558,11.012L72.499,11.077L72.684,11.332L72.800,11.592L72.875,11.699L72.934,11.869L72.913,12.100L72.765,12.628L72.655,12.844L72.507,13.035L72.326,13.141L72.432,13.388L72.390,13.639L72.292,13.909L72.237,14.212L72.323,14.867L72.277,15.212L72.031,15.497L72.265,15.914L72.531,16.282L72.629,16.176L72.793,16.301L72.894,16.471L72.912,16.667L72.825,16.871L73.121,17.022L73.380,17.718L73.610,17.862L73.595,17.982L73.614,18.662L73.606,18.779L73.612,18.889L73.659,18.986L73.779,19.161L73.748,19.236L73.661,19.287L73.525,19.575L73.320,19.713L73.077,19.797L72.875,19.825L72.760,19.920L72.707,20.121L72.600,20.297L72.326,20.326L72.472,20.454L72.644,20.523L72.781,20.615L72.825,20.814L72.825,20.816L72.977,20.836L73.270,20.789L73.765,20.827L74.062,20.766L74.325,20.651L74.592,20.324L74.854,20.287L75.097,20.222L75.190,19.967L75.305,19.859L75.586,19.782L75.900,19.746L76.118,19.766L76.620,19.945L77.065,20.031L77.499,20.029L77.980,19.939L78.166,19.806L78.494,19.364L79.010,19.164L79.197,19.010L79.401,18.877L79.686,18.851L79.821,18.857L79.953,18.848L80.218,18.799L80.311,18.753L80.483,18.618L80.581,18.581L80.654,18.596L80.822,18.677L80.865,18.691L81.020,18.633L81.067,18.602L81.242,18.258L81.378,17.886L81.390,17.818L81.593,17.769L84.308,18.022L84.556,18.077L84.818,18.233L85.030,18.442L85.256,18.603L85.560,18.622L86.075,18.423L86.333,18.356L86.621,18.385L87.188,18.539L87.312,18.624L87.404,18.720L87.513,18.798L87.684,18.831L87.706,18.911L87.728,18.990L87.852,19.070L88.015,19.138L88.170,19.259L88.256,19.419L88.470,20.317L88.509,20.693L88.494,21.778L88.611,22.145L88.835,22.445L89.525,22.763L89.721,23.056L89.945,23.791L90.104,24.127L90.306,24.442L90.547,24.726L90.821,24.975L91.164,25.148L91.274,25.263L91.247,25.459L91.115,25.592L90.944,25.694L90.835,25.811L90.884,25.988L90.980,26.658L90.488,27.250L89.825,27.818L89.409,28.417L89.366,29.154L89.271,29.462L88.205,30.383L88.152,30.459L88.070,30.519L87.877,30.593L87.155,30.632L86.348,30.541L85.636,30.637L85.199,31.244L85.361,31.544L85.451,31.838L85.394,32.135L85.125,32.445L84.063,33.030L83.757,33.355L83.247,34.498L82.758,35.226L82.693,35.570L82.764,35.931L82.904,36.377L82.972,36.727L83.033,37.766L83.127,37.864L83.294,37.869L83.467,37.900L83.580,38.077L83.557,38.227L83.354,38.490L83.293,38.632L83.321,38.843L83.395,39.004L83.410,39.156L83.260,39.341L83.113,39.481L82.935,39.718L82.283,40.584L82.131,40.940L82.118,41.347L82.782,42.140L82.868,42.203L82.960,42.186L83.150,42.116L83.211,42.052L83.250,41.948L83.305,41.853L83.416,41.814L83.930,41.874L84.070,41.929L84.186,42.025L84.290,42.165L84.813,42.027L85.390,42.116L85.916,42.371L86.290,42.738L86.532,43.230L86.709,43.807L86.815,44.400L86.840,44.938L87.082,44.809L87.320,44.727L87.566,44.725L87.829,44.832L88.063,44.887L88.283,44.813L88.506,44.707L88.752,44.669L89.153,44.785L89.700,45.027L90.185,45.330L90.503,45.758L91.075,46.152L91.252,46.341L91.589,47.035L91.718,47.466L91.620,47.932L91.036,49.195L90.956,49.548L90.959,49.901L91.055,50.267L91.116,50.704L90.954,51.011L90.700,51.291L90.479,51.644L90.403,51.974L90.332,52.595L90.180,52.902L90.177,53.108L90.587,54.236L90.740,54.547L90.789,54.715L90.777,54.838L90.697,55.086L90.702,55.209L90.803,55.385L90.862,55.443L91.106,55.683L91.217,55.869L91.241,55.999L91.226,56.447L91.168,56.770L91.116,56.908L91.036,57.060L90.932,57.177L90.813,57.269L90.714,57.373L90.673,57.532L90.760,57.807L90.971,58.026L91.476,58.360L91.556,58.659L91.454,58.824L91.271,58.941L91.104,59.101L91.052,59.237L91.029,59.583L90.847,59.999L91.036,60.186L91.197,60.445L91.202,60.662L90.731,60.751L90.639,60.876L90.581,61.042L90.485,61.188L90.348,61.287L90.213,61.354L89.919,61.458L89.789,61.573L89.884,61.680L90.164,61.836L90.338,62.418L90.583,62.494L90.886,62.545L90.996,62.640L90.657,62.845L90.483,63.038L90.391,63.349L90.347,64.494L90.259,64.864L90.250,64.986L90.360,65.613L90.256,65.811L89.874,66.019L89.843,66.031L88.170,66.685L88.067,66.789L87.996,66.896L87.960,67.024L87.968,67.189L87.892,67.324L87.901,67.413L87.975,67.487L88.092,67.573L88.162,67.695L88.147,67.838L88.052,68.122L87.972,68.880L87.905,69.085L87.807,69.183L87.559,69.271L87.482,69.339L87.465,69.480L87.555,69.737L87.552,69.843L87.360,70.052L86.867,70.232L86.672,70.384L86.718,70.875L87.807,71.797L87.914,72.255L87.852,72.214L87.165,72.375L87.023,72.440L86.892,72.528L86.617,72.761L86.500,72.885L86.434,73.030L86.440,73.408L86.339,73.533L86.201,73.641L86.079,73.769L85.990,74.025L85.925,74.212L85.838,74.320L85.708,74.339L85.565,74.280L85.344,74.152L85.199,74.140L85.109,74.157L84.448,74.363L84.338,74.362L84.245,74.277L84.202,74.014L84.070,73.917L83.930,73.917L83.792,73.980L83.544,74.130L83.242,74.192L82.890,74.175L82.562,74.066L82.327,73.859L82.343,73.788L82.354,73.234L82.461,73.108L82.760,72.957L82.963,72.523L83.134,72.418L83.195,72.324L82.999,72.057L82.850,71.951L82.699,71.879L82.587,71.773L82.540,71.373L82.443,71.232L82.180,70.965L82.003,70.700L81.676,70.033L81.546,69.438L81.421,69.135L81.247,68.863L81.049,68.673L80.898,68.565L80.852,68.547L80.819,68.624L80.519,69.071L80.367,69.358L80.329,69.517L80.306,69.801L80.254,69.951L80.138,70.112L79.044,71.171L78.947,71.320L78.906,71.624L78.842,71.752L78.698,71.850L78.355,71.960L78.184,72.046L78.041,72.174L77.832,72.437L77.710,72.558L77.243,72.880L77.100,73.018L77.022,73.157L76.982,73.290L76.916,73.406L76.765,73.492L76.690,73.469L76.570,73.292L76.478,73.268L76.276,73.330L76.201,73.329L75.889,73.278L75.613,73.347L75.357,73.317L72.851,72.387L72.710,72.356L72.543,72.378L72.268,72.538L72.111,72.571L71.811,72.498L70.883,72.078L70.527,72.014L70.341,72.069L70.081,72.329L69.915,72.495L69.721,72.506L69.680,72.419L69.754,72.286L69.915,72.150L69.981,72.049L70.039,71.929L70.080,71.803L70.090,71.679L70.120,71.534L70.200,71.416L70.320,71.289L70.285,71.127L70.216,71.112L70.129,71.115L70.026,71.005L69.987,70.889L69.915,70.501L69.779,70.336L69.510,69.896L69.386,69.774L69.036,69.953L68.831,69.960L68.769,69.704L68.759,69.556L68.704,69.455L68.515,69.271L68.481,69.175L68.506,69.085L68.567,68.976L68.594,68.908L68.650,68.813L68.659,68.730L68.389,68.660L68.357,68.585L68.372,68.499L68.372,68.432L68.397,68.426L68.341,68.098L68.277,68.012L68.053,67.792L67.970,67.686L67.840,67.382L67.524,66.339L67.357,65.988L67.115,65.821L66.507,65.625L66.444,65.579L65.494,64.891L64.882,64.637L64.175,64.656L64.020,64.713L63.316,65.185L63.228,65.267L63.157,65.361L63.069,65.543L63.044,65.668L63.033,65.824L62.971,65.970L62.785,66.071L62.533,65.992L62.260,65.703L62.088,65.521L61.928,65.484L61.873,65.679L61.993,67.229L62.117,67.810L62.415,68.270L62.975,68.525L62.911,68.773L62.653,69.180L62.550,69.398L62.524,69.611L62.626,70.205L62.527,70.618L62.333,71.113L62.229,71.578L62.393,71.895L56.686,73.118L56.240,73.069L55.800,72.767L55.313,72.162L55.053,71.971L54.904,71.883L54.454,72.106L53.847,72.301L53.329,72.403L53.009,72.531L52.522,72.980L52.283,73.119L52.045,73.100L51.784,72.962L51.298,72.581L51.188,72.454L51.130,72.333L51.041,72.222L50.843,72.121L50.116,71.901L49.584,71.883L49.553,71.892L49.439,72.174L49.748,73.012L49.800,73.329L49.696,74.125L49.702,74.377L49.813,74.680L50.177,75.261L50.312,75.583L50.390,75.950L50.390,76.249L50.320,76.548L50.188,76.912L49.140,78.621L49.113,78.726L48.969,79.276L49.043,79.613L49.290,79.572L49.873,79.163L50.281,79.038L50.568,79.132L50.803,79.397L51.299,80.117L52.393,81.279L52.604,81.611L52.604,81.920L52.249,82.138L51.917,82.172L51.720,82.156L51.570,82.247L51.379,82.603L51.308,82.856L51.295,83.852L51.271,83.933L51.298,83.988L51.421,84.112L51.532,84.195L52.347,84.535L52.650,84.717L53.229,85.194L53.752,85.442L54.434,85.629L54.990,85.889L55.142,86.353L54.948,86.662L54.329,87.126L54.134,87.472L53.314,89.410L53.274,89.742L53.417,90.043L53.714,90.219L54.054,90.329L54.330,90.478L54.431,90.783L54.318,91.107L54.064,91.410L53.754,91.642L53.501,91.738L53.466,91.752L53.198,91.744L52.370,91.508L52.082,91.475L51.299,91.576L50.987,91.471L50.746,91.211L49.605,89.365L49.072,88.956L48.351,88.852L47.954,89.124L47.685,89.567L47.364,89.979L46.816,90.162L46.225,90.280L45.761,90.566L45.333,90.918L44.843,91.236L44.468,91.555L44.232,92.009L43.276,94.583L43.052,95.000L42.773,94.820L42.422,94.597L41.719,93.864L41.495,92.934L41.359,92.680L41.266,92.420L41.212,92.134L41.192,91.804L40.892,91.472L40.412,91.122L38.648,89.624L36.330,88.027L36.214,87.380L36.230,87.159L36.314,86.910L36.366,86.587L36.307,86.310L36.171,86.039L35.963,85.871L35.644,85.682L35.230,85.362L34.986,85.249L34.930,84.967L34.391,84.367L34.199,84.140L33.936,83.859L33.543,83.446L32.024,82.169L30.186,80.742L29.455,80.141L27.594,78.787L26.727,78.052L25.633,77.222L23.084,74.072L22.772,73.521L23.035,73.719L23.445,74.157L23.755,74.316L24.088,74.353L24.284,74.229L24.464,73.998L24.737,73.718L24.701,73.920L24.633,74.082L24.593,74.236L24.639,74.414L24.715,74.388L24.772,74.349L24.814,74.290L24.843,74.218L24.839,74.480L24.883,74.749L25.005,74.899L25.228,74.807L25.742,74.987L25.825,75.053L25.854,75.059L26.067,75.388L26.120,75.699L26.218,75.699L26.245,75.558L26.297,75.494L26.381,75.507L26.513,75.592L26.531,75.540L26.531,75.515L26.545,75.505L26.611,75.494L26.657,76.021L26.710,76.190L26.808,76.080L26.921,76.014L27.054,75.984L27.200,75.994L27.152,76.196L27.208,76.244L27.334,76.188L27.495,76.084L27.605,75.968L27.713,75.704L27.798,75.592L28.005,75.516L28.321,75.470L28.619,75.460L28.779,75.494L29.156,75.456L29.287,75.389L29.369,75.207L29.095,75.044L28.984,75.004L29.012,74.735L28.731,74.592L28.381,74.459L28.191,74.218L28.092,74.218L28.191,74.473L28.387,75.207L28.184,75.177L28.071,75.072L28.002,74.957L27.939,74.906L27.825,74.845L27.663,74.574L27.548,74.512L27.440,74.497L27.263,74.430L27.155,74.414L27.103,74.452L27.109,74.536L27.125,74.631L27.111,74.701L27.013,74.810L26.920,74.947L26.849,75.087L26.808,75.207L26.605,75.121L26.423,75.004L26.479,74.856L26.394,74.559L26.423,74.414L26.555,74.346L26.724,74.351L26.865,74.339L26.914,74.218L26.745,74.077L26.376,73.955L25.979,73.888L25.727,73.914L25.403,73.251L25.379,73.139L25.232,73.037L25.162,73.037L25.130,73.183L25.077,73.192L24.869,73.304L24.843,73.326L24.477,73.251L24.134,73.508L23.807,73.823L23.470,73.914L23.332,73.837L23.201,73.705L23.107,73.542L23.067,73.370L23.102,73.325L23.270,73.171L23.319,73.139L23.400,73.094L23.287,73.005L23.128,72.932L23.067,72.933L23.044,72.813L23.066,72.699L23.067,72.602L22.978,72.540L22.857,72.521L22.763,72.530L22.700,72.579L22.674,72.679L22.856,73.019L22.905,73.232L22.772,73.416L22.545,73.318L21.944,72.598L21.694,72.433L21.827,72.640L22.145,73.024L22.274,73.228L21.953,73.012L21.570,72.640L21.242,72.215L21.095,71.845L21.095,71.765L20.985,71.436L20.900,70.130L20.793,69.920L19.367,68.516L18.982,68.298L18.545,67.779L18.340,67.616L18.380,67.560L18.439,67.417L18.128,67.333L17.950,67.082L17.751,66.534L17.148,65.942L17.053,65.793L16.988,65.770L16.852,65.648L16.731,65.511L16.712,65.446L16.559,65.377L16.592,65.238L16.698,65.144L16.761,65.201L16.867,65.463L17.131,65.666L17.457,65.770L17.751,65.739L17.717,65.797L17.699,65.809L17.682,65.814L17.643,65.848L17.830,65.925L17.933,65.848L18.043,65.545L18.132,65.545L18.240,65.848L18.156,65.877L18.092,65.917L18.057,65.981L18.043,66.083L18.092,66.171L18.191,66.107L18.264,65.996L18.240,65.938L18.977,65.938L19.377,66.036L19.578,66.276L19.542,66.570L19.223,66.829L19.395,67.019L19.487,67.094L19.570,67.124L19.883,67.152L19.963,67.173L20.000,67.259L19.998,67.508L20.018,67.616L20.311,67.810L20.320,67.878L20.391,68.053L20.469,68.170L20.507,68.060L20.553,67.988L20.755,67.912L20.802,67.864L20.764,67.606L20.669,67.318L20.545,67.118L20.409,67.124L20.252,66.942L19.900,66.698L19.819,66.534L19.988,66.282L20.125,66.188L20.102,66.093L19.634,65.287L19.368,65.013L19.223,65.151L19.002,65.023L18.928,64.955L18.876,65.089L18.875,65.226L18.928,65.545L18.659,65.325L18.294,64.654L18.043,64.552L17.938,64.647L17.870,64.816L17.828,64.978L17.794,65.053L17.657,65.098L17.578,65.215L17.547,65.370L17.554,65.545L17.450,65.439L17.339,65.370L17.211,65.339L17.053,65.339L17.220,65.053L17.187,64.892L16.859,64.651L16.543,64.857L16.330,64.782L16.209,64.498L16.171,64.071L16.183,63.903L16.244,63.651L16.258,63.531L16.258,62.938L16.232,62.781L16.106,62.460L16.064,62.295L16.080,61.849L16.064,61.705L15.823,61.109L15.495,60.656L14.698,59.832L12.898,57.314L12.761,57.065L12.614,56.708L12.490,56.392L12.423,56.092L12.614,56.476L12.761,56.904L12.937,57.155L13.216,57.466L13.438,57.444L13.663,57.542L13.842,57.712L13.989,58.166L14.326,58.517L14.403,58.798L14.493,58.939L14.947,59.502L15.141,59.627L15.228,59.722L15.920,60.279L16.040,60.343L16.464,60.470L16.601,62.257L16.688,62.479L16.859,62.402L16.901,62.254L16.770,62.058L16.810,61.951L16.936,61.896L17.044,61.952L17.121,62.070L17.152,62.197L17.367,61.951L17.704,61.756L18.089,61.636L18.439,61.607L18.356,61.832L18.338,62.074L18.419,62.282L18.633,62.402L18.735,61.916L18.728,61.678L18.633,61.509L19.082,61.447L20.272,61.607L20.704,61.509L20.111,61.281L19.883,61.110L19.712,60.822L19.578,60.286L19.562,59.972L19.623,59.734L19.506,59.697L19.223,59.537L19.159,59.529L18.977,59.537L18.874,59.575L18.867,59.666L18.928,59.880L18.907,60.027L18.858,60.101L18.797,60.150L18.439,60.630L18.109,60.866L17.718,60.982L17.250,61.019L17.154,61.038L17.063,61.068L16.969,61.075L16.859,61.019L16.780,60.912L16.762,60.680L16.660,60.470L16.649,60.338L16.660,60.077L16.601,60.005L16.468,59.971L16.330,59.954L16.258,59.929L16.232,59.703L16.348,59.551L16.559,59.466L16.810,59.439L16.931,59.353L16.955,59.158L16.897,58.954L16.761,58.841L16.761,58.751L16.890,58.716L17.234,58.683L17.348,58.644L17.463,58.504L17.527,58.231L17.755,57.812L17.709,57.564L17.447,57.065L17.524,56.977L17.538,56.910L17.482,56.847L17.348,56.770L17.341,57.056L17.447,57.808L17.407,57.962L17.302,58.105L17.159,58.210L17.004,58.252L16.874,58.208L16.755,58.009L16.660,57.957L16.426,58.037L16.281,58.241L16.167,58.451L16.018,58.547L15.329,58.676L15.090,58.644L14.930,58.455L14.884,58.153L14.909,57.873L14.947,57.753L14.915,57.733L14.816,57.642L14.765,57.550L14.697,57.576L14.614,57.632L14.474,57.691L14.446,57.747L14.382,57.784L14.199,57.753L13.989,57.633L13.484,57.254L13.265,57.171L13.091,57.073L12.964,56.834L12.929,56.542L13.029,56.280L12.982,56.228L12.957,56.188L12.922,56.092L13.202,55.889L13.134,55.554L12.886,55.215L12.619,55.004L12.799,55.437L12.715,55.826L12.666,55.955L12.575,55.941L12.528,55.787L12.423,54.906L12.179,54.274L10.753,52.442L11.126,52.795L11.332,52.896L11.547,52.825L11.343,52.736L11.428,52.543L11.547,52.378L11.662,52.271L11.735,52.247L11.566,52.172L11.145,52.458L10.897,52.395L10.802,52.164L10.711,51.810L10.602,51.564L10.459,51.658L10.353,51.658L10.230,51.145L10.155,50.969L9.937,50.599L9.558,49.741L9.251,49.215L9.060,48.458L8.618,47.887L8.282,46.828L8.477,46.527L8.584,46.632L8.456,46.909L8.613,47.033L9.076,47.123L9.013,47.253L8.999,47.341L9.023,47.412L9.076,47.508L9.385,47.499L9.602,47.850L9.722,48.341L9.788,48.943L9.870,49.153L10.009,49.322L10.209,49.390L10.321,49.488L10.352,49.700L10.422,49.900L10.656,49.970L10.530,49.724L10.544,49.483L10.613,49.230L10.656,48.943L10.733,48.739L10.925,48.723L11.178,48.779L11.430,48.793L11.430,48.695L11.290,48.629L11.143,48.513L11.044,48.362L11.048,48.194L11.153,48.100L11.292,48.112L11.639,48.276L11.781,48.478L11.889,48.724L11.932,48.943L12.041,49.228L12.561,49.713L12.726,49.970L12.733,50.260L12.633,50.766L12.726,50.969L12.824,50.969L12.886,50.700L12.922,49.827L13.001,49.556L13.343,49.180L13.421,48.943L13.407,48.746L13.385,48.664L13.407,48.612L13.512,48.498L13.596,48.444L13.834,48.362L13.912,48.310L13.951,48.161L13.923,48.009L13.940,47.883L14.109,47.810L14.305,48.194L14.276,47.859L14.109,47.630L13.989,47.390L14.109,47.017L14.959,46.256L15.218,45.739L16.504,44.323L16.859,43.767L17.065,43.172L17.053,41.314L17.161,41.012L17.485,40.368L17.554,40.078L17.569,39.920L17.633,39.612L17.643,39.439L17.610,39.307L17.447,38.939L17.463,38.759L17.507,38.588L17.587,38.433L17.696,38.296L17.767,38.161L17.741,38.037L17.676,37.921L17.643,37.810L17.624,37.503L17.119,34.781L16.955,34.317L17.001,34.188L17.075,33.807L17.103,33.728L17.166,33.686L17.624,33.278L17.780,33.237L17.919,33.339L18.043,33.620L18.103,33.972L18.074,34.263L17.936,34.798L17.963,34.966L18.027,35.124L18.034,35.242L17.887,35.289L17.812,35.351L17.784,35.493L17.795,35.660L17.837,35.790L17.963,35.675L18.040,35.546L18.128,35.441L18.289,35.397L18.759,35.400L18.830,35.446L18.907,35.631L19.283,36.000L19.417,36.280L19.466,36.824L19.557,36.905L19.675,36.980L19.775,36.978L19.819,36.824L19.740,36.208L19.756,35.950L19.908,35.691L20.620,35.891L20.802,35.986L20.879,36.144L21.001,36.643L21.095,36.779L21.158,36.680L21.563,36.277L21.694,36.183L21.911,36.194L22.038,36.282L22.185,36.575L22.901,36.455L23.425,36.987L23.866,37.683L24.336,38.056L23.809,37.094L23.603,36.824L23.565,36.589L23.845,36.461L24.216,36.478L24.442,36.682L24.619,36.571L24.884,36.226L25.040,36.075L25.545,35.756L25.727,35.691L25.958,35.695L26.378,35.850L26.611,35.897L26.823,35.878L27.405,35.691L27.405,35.584L26.683,35.600L26.401,35.518L26.120,35.289L25.899,35.435L25.632,35.564L25.349,35.656L24.238,35.724L24.049,35.790L23.402,35.569L23.221,35.446L23.004,35.251L22.887,35.185L22.431,35.200L22.276,35.127L21.588,34.611L21.090,34.316L20.884,34.104L20.802,33.817L20.704,33.817L20.622,33.992L20.540,34.044L20.360,34.013L20.243,34.048L19.920,34.191L19.819,34.210L19.705,34.045L19.619,33.533L19.466,33.424L19.262,33.219L18.573,31.637L18.391,31.367L17.991,30.916L17.723,30.784L17.470,30.804L17.245,30.793L17.053,30.568L17.042,30.358L17.099,29.566L17.201,29.391L17.513,29.359L17.837,29.292L17.999,29.226L18.291,29.057L18.439,28.997L18.631,28.973L18.756,29.007L18.883,29.060L19.079,29.087L19.197,29.057L19.391,28.921L19.654,28.818L19.880,28.676L20.135,28.566L20.409,28.596L20.644,28.829L20.751,29.161L20.699,29.457L20.458,29.587L19.833,29.454L19.528,29.492L19.330,29.783L19.663,29.681L20.084,29.707L20.421,29.893L20.507,30.273L20.678,30.219L20.805,30.119L20.879,29.973L20.900,29.783L21.074,30.014L21.099,30.433L21.024,30.844L20.900,31.060L21.037,31.469L21.153,31.595L21.399,31.648L21.336,31.420L21.338,31.128L21.408,30.872L21.537,30.765L21.628,30.637L21.776,30.013L21.890,29.783L21.694,29.498L21.645,29.202L21.694,28.497L21.546,26.794L21.037,25.443L20.996,25.097L20.933,24.866L20.812,24.718L20.732,24.550L20.802,24.258L20.982,23.952L21.171,23.809L21.381,23.767L21.641,23.767L21.895,23.695L22.034,23.522L22.132,23.325L22.274,23.179L22.533,23.135L23.372,23.157L23.603,23.228L23.796,23.543L23.917,24.158L24.049,24.464L24.167,24.219L24.223,24.039L24.651,24.088L24.874,24.170L25.111,24.338L25.484,24.765L25.722,24.949L25.976,25.057L26.232,25.096L26.461,25.045L26.630,24.880L26.682,24.692L26.683,24.266L26.759,24.056L27.041,24.019L27.459,23.965L29.028,23.971L33.003,23.983L33.334,23.984L37.638,23.999L40.893,24.009L41.942,24.013L46.248,24.027L46.226,20.260L46.204,16.494L46.186,13.482L46.182,12.727L46.159,8.959L46.153,7.805L46.043,7.254L46.136,7.102L46.192,6.933L46.217,6.757L46.217,6.577L46.243,6.342L46.333,6.178L46.445,6.026L46.531,5.824L46.507,5.633L46.442,5.446L46.468,5.315L50.307,5.174L50.681,5.041L50.862,5.000L51.063,5.022L51.204,5.102L51.497,5.342L52.235,5.584L52.457,5.609L52.945,5.542L54.206,5.581L55.304,5.485L56.393,5.554L57.238,5.489L57.498,5.499L58.079,5.591L58.703,5.617L58.990,5.563L59.543,5.378L59.827,5.337L59.977,5.298L60.277,5.137L60.414,5.121L60.592,5.186L61.063,5.473L61.323,5.526L62.115,5.345L62.668,5.383L63.470,5.644L63.718,5.722L64.054,5.644L64.283,5.817L64.626,5.943L66.571,6.233L66.863,6.176L67.063,6.049L67.228,5.916L67.409,5.840L67.655,5.909L67.983,6.052L68.267,6.115L68.390,5.939L68.592,6.022L68.775,6.037L68.938,5.977L69.085,5.840L69.518,5.996L69.767,6.037L69.925,5.993L70.123,5.898L70.353,5.952L70.756,6.126L71.368,6.049L71.505,5.993L71.793,5.716L71.959,5.596L72.084,5.546L72.522,5.565L72.924,5.644L73.124,5.800L73.219,5.840L73.353,5.842L73.560,5.756L73.659,5.733L73.821,5.800L74.044,5.960L74.259,6.154L74.396,6.323L74.457,6.534L74.398,6.966L74.402,7.321ZM12.619,47.418L13.140,47.531L13.256,48.025L13.203,48.633L13.216,49.088L12.961,49.258L12.754,49.352L12.557,49.338L12.332,49.186L12.206,48.997L12.205,48.816L12.245,48.625L12.245,48.400L12.179,48.276L11.981,48.068L11.932,47.908L11.932,47.749L11.964,47.639L12.129,47.418L12.290,47.265L12.603,47.074L12.726,46.919L12.803,47.061L12.809,47.179L12.743,47.265L12.619,47.312L12.619,47.418ZM18.076,26.748L18.181,26.753L18.117,26.791L18.076,26.748Z" fill="currentColor" stroke="currentColor" stroke-width="1.5" stroke-linejoin="round"/>
</svg>