<svg xmlns="http://www.w3.org/2000/svg" viewBox="0 0 100 100" role="img" aria-label="United Kingdom">
  <title>United Kingdom</title>
  <path d="M32.132,52.546L32.087,52.699L32.161,52.703L32.374,52.639L32.458,52.648L32.662,52.756L32.822,52.779L32.983,52.756L33.036,52.715L33.138,52.582L33.207,52.531L33.204,52.425L33.241,52.275L33.297,52.140L33.351,52.082L33.405,52.002L33.434,51.630L33.463,51.515L33.537,51.509L33.738,51.646L33.831,51.684L34.435,51.653L34.968,51.402L35.292,51.378L35.370,51.318L35.442,51.218L35.532,51.136L35.634,51.083L35.737,51.070L35.905,51.174L36.018,51.208L36.194,51.090L36.313,51.120L36.766,51.381L36.841,51.402L36.945,51.385L37.123,51.309L37.214,51.290L37.397,51.324L37.490,51.369L37.530,51.430L37.568,51.453L37.741,51.647L37.789,51.735L37.772,52.194L37.740,52.329L37.672,52.506L37.708,52.580L37.797,52.593L37.884,52.587L37.946,52.597L38.015,52.627L38.076,52.680L38.111,52.756L38.101,52.904L38.017,53.210L38.027,53.266L38.163,53.290L38.288,53.356L38.399,53.462L38.494,53.603L38.514,53.659L38.545,53.792L38.573,53.854L38.604,53.890L38.677,53.954L38.714,53.997L38.757,54.061L38.799,54.144L38.832,54.245L38.845,54.364L38.895,54.591L39.013,54.667L39.151,54.724L39.263,54.896L39.291,54.896L39.207,54.719L38.908,54.395L38.983,54.254L39.123,54.294L39.268,54.425L39.355,54.559L39.412,54.819L39.399,55.048L39.332,55.231L39.228,55.350L39.089,55.421L38.811,55.506L38.685,55.575L38.563,55.689L38.473,55.813L38.363,56.022L38.302,56.136L38.359,56.175L38.378,56.247L38.383,56.321L38.395,56.361L38.454,56.368L38.489,56.327L38.514,56.275L38.565,56.224L38.669,56.052L38.715,55.998L38.879,55.917L39.040,55.794L39.140,55.746L39.213,55.774L39.287,55.833L39.389,55.842L39.950,55.749L39.977,55.774L40.034,55.891L40.079,55.917L40.128,55.935L40.144,55.982L40.146,56.052L40.159,56.136L40.232,56.425L40.288,56.543L40.366,56.591L40.398,56.659L40.426,56.983L40.446,57.097L40.594,57.330L40.623,57.352L40.591,57.431L40.596,57.476L40.611,57.508L40.609,57.551L40.586,57.601L40.495,57.745L40.467,57.845L40.499,57.982L40.481,58.118L40.436,58.182L40.374,58.238L40.350,58.303L40.417,58.394L40.348,58.434L40.290,58.550L40.226,58.563L40.170,58.503L40.127,58.388L40.079,58.225L40.024,58.196L39.975,58.123L39.941,58.030L39.933,57.940L39.964,57.842L40.072,57.701L40.095,57.577L40.078,57.320L40.028,57.132L39.948,56.992L39.622,56.673L39.496,56.598L39.355,56.591L39.355,56.648L39.390,56.728L39.377,56.809L39.336,56.879L39.291,56.928L39.357,56.931L39.409,56.967L39.451,57.009L39.486,57.036L39.659,57.049L39.712,57.097L39.636,57.126L39.533,57.146L39.503,57.184L39.645,57.265L39.623,57.364L39.624,57.460L39.652,57.530L39.712,57.551L39.707,57.587L39.701,57.610L39.677,57.664L39.712,57.715L39.582,58.144L39.545,58.221L39.374,58.363L39.323,58.450L39.513,58.377L39.729,58.245L39.927,58.187L40.063,58.338L40.109,58.651L40.052,58.888L39.928,59.076L39.773,59.242L39.752,59.248L39.699,59.234L39.677,59.242L39.645,59.410L39.613,59.434L39.571,59.455L39.536,59.445L39.520,59.379L39.464,59.319L39.192,59.295L38.993,59.316L38.791,59.393L38.700,59.410L38.607,59.447L38.579,59.547L38.588,59.829L38.589,59.859L38.577,60.017L38.548,60.188L38.508,60.351L38.459,60.483L38.374,60.593L38.178,60.697L38.034,60.856L37.835,61.013L37.773,61.044L37.590,61.060L37.516,61.045L37.434,60.983L37.434,60.932L37.527,60.884L37.565,60.876L37.207,60.738L37.147,60.733L37.093,60.582L36.969,60.534L36.829,60.524L36.730,60.483L36.701,60.539L36.632,60.479L36.562,60.488L36.495,60.524L36.433,60.539L36.378,60.497L36.342,60.440L36.303,60.434L36.241,60.544L36.236,60.595L36.244,60.658L36.247,60.726L36.227,60.795L36.197,60.824L36.088,60.843L35.967,60.888L35.934,60.889L35.904,60.867L35.876,60.831L35.858,60.796L35.854,60.781L35.725,60.787L35.326,60.942L35.289,60.937L35.217,60.905L35.180,60.913L35.156,60.942L35.133,60.978L35.106,61.022L35.080,61.038L35.014,61.000L34.890,60.841L34.818,60.781L34.891,60.588L34.897,60.494L34.847,60.400L34.952,60.260L34.996,60.109L34.969,59.962L34.931,59.915L34.863,59.832L34.765,59.745L34.715,59.715L34.659,59.708L34.609,59.739L34.574,59.792L34.536,59.834L34.481,59.829L34.379,59.762L34.279,59.674L34.188,59.564L34.110,59.433L34.083,59.350L34.067,59.270L34.046,59.201L34.004,59.152L33.838,59.063L33.920,59.018L33.958,58.935L33.949,58.816L33.895,58.662L33.850,58.534L33.821,58.501L33.765,58.496L33.727,58.472L33.685,58.333L33.652,58.278L33.362,58.028L33.204,57.945L33.057,57.958L32.920,58.097L32.694,58.467L32.540,58.586L32.502,58.588L32.420,58.572L32.402,58.582L32.388,58.590L32.381,58.629L32.392,58.680L32.410,58.721L32.423,58.734L32.424,58.739L32.388,58.815L32.382,58.814L32.356,58.847L32.321,58.836L32.299,58.842L32.310,58.930L32.467,59.010L32.439,59.125L32.605,59.270L32.541,59.364L32.571,59.499L32.471,59.566L32.215,59.637L32.161,59.680L32.123,59.720L32.093,59.774L32.067,59.856L32.089,59.889L32.133,59.927L32.139,59.970L32.047,60.018L32.068,60.101L32.056,60.184L32.022,60.256L31.978,60.306L31.914,60.340L31.897,60.308L31.902,60.234L31.902,60.139L31.908,60.066L31.922,60.006L31.906,59.986L31.764,60.072L31.730,60.115L31.730,60.170L31.837,60.401L31.808,60.404L31.759,60.410L31.532,60.330L31.463,60.347L31.443,60.341L31.433,60.305L31.399,60.233L31.360,60.222L31.314,60.230L31.297,60.217L31.349,60.146L31.232,60.135L31.040,60.294L30.939,60.315L30.440,60.193L30.385,60.152L30.370,60.083L30.362,60.010L30.330,59.958L29.993,59.696L29.910,59.680L29.631,59.699L29.375,59.663L29.284,59.605L29.222,59.478L29.203,59.114L29.172,58.983L29.104,58.929L28.921,58.900L28.884,58.885L28.843,58.869L28.762,58.776L28.701,58.657L28.602,58.399L28.466,58.398L28.349,58.334L28.239,58.216L28.040,57.928L27.929,57.800L27.883,57.732L27.874,57.665L27.859,57.602L27.800,57.545L27.825,57.531L27.911,57.482L28.159,57.407L28.274,57.337L28.328,57.285L28.352,57.250L28.409,57.130L28.504,56.986L28.602,56.873L28.957,56.958L29.140,56.966L29.319,56.894L29.785,56.439L29.978,56.373L29.978,56.368L29.966,56.208L29.916,56.195L29.843,56.249L29.765,56.288L29.692,56.259L29.542,56.121L29.478,56.083L29.442,56.094L29.370,56.151L29.331,56.149L29.294,56.108L29.247,56.004L29.208,55.978L29.127,55.954L29.049,55.903L29.011,55.818L29.047,55.694L29.018,55.678L28.942,55.612L29.173,55.494L29.333,55.329L29.397,55.333L29.531,55.452L29.686,55.535L29.844,55.523L30.004,55.429L30.167,55.266L30.250,55.215L30.411,55.261L30.551,55.217L30.639,55.267L30.688,55.269L30.749,55.242L30.749,55.224L30.724,55.196L30.708,55.135L30.718,54.930L30.747,54.819L31.086,54.389L31.160,54.244L31.208,54.067L31.208,53.981L31.189,53.772L31.206,53.675L31.245,53.624L31.337,53.585L31.344,53.574L31.377,53.519L31.383,53.450L31.356,53.240L31.375,53.182L31.400,53.173L31.412,53.159L31.393,53.087L31.525,52.879L31.572,52.824L31.628,52.780L31.926,52.733L31.965,52.690L32.001,52.632L32.042,52.580L32.132,52.546ZM53.551,80.950L53.418,81.123L53.327,81.202L53.106,81.258L52.930,81.392L52.845,81.457L52.647,81.535L52.251,81.564L52.191,81.538L52.154,81.480L52.129,81.422L52.105,81.396L52.061,81.433L51.938,81.601L51.913,81.654L51.642,81.845L51.629,81.850L51.571,81.873L51.493,81.937L51.371,82.075L51.355,82.109L51.328,82.204L51.307,82.244L51.274,82.267L51.207,82.276L51.180,82.299L51.179,82.300L51.238,82.475L51.205,82.651L51.122,82.757L51.033,82.724L50.963,82.714L50.633,82.867L49.466,82.749L49.380,82.695L49.297,82.569L49.159,82.361L48.886,82.110L48.822,82.103L48.735,82.149L48.630,82.091L48.538,81.989L48.490,81.907L48.483,81.870L48.491,81.857L48.506,81.851L48.518,81.845L48.483,81.683L48.471,81.642L48.439,81.529L48.386,81.393L48.330,81.284L48.292,81.240L48.210,81.181L48.167,81.120L48.094,80.964L48.052,80.914L47.990,80.895L47.841,80.915L47.487,80.963L47.421,80.994L47.358,81.038L47.317,81.089L47.312,81.166L47.348,81.247L47.397,81.325L47.430,81.396L47.236,81.396L47.236,81.418L47.214,81.455L47.188,81.470L47.175,81.427L47.162,81.395L47.131,81.369L47.094,81.351L47.063,81.345L47.048,81.363L47.005,81.441L46.983,81.457L46.953,81.446L46.904,81.405L46.787,81.374L46.743,81.371L46.694,81.396L46.644,81.446L46.579,81.533L46.534,81.564L46.487,81.550L46.434,81.513L46.392,81.508L46.374,81.595L46.314,81.592L46.038,81.464L45.956,81.457L45.940,81.428L45.932,81.405L45.922,81.345L46.011,81.271L45.999,81.184L45.957,81.079L45.956,80.952L46.116,80.895L46.134,80.869L46.184,80.768L46.214,80.722L46.243,80.783L46.214,80.783L46.214,80.834L46.246,80.860L46.278,80.895L46.423,80.842L46.662,80.826L46.885,80.763L46.983,80.579L46.985,80.524L46.983,80.480L46.982,80.466L46.959,80.451L46.904,80.525L46.865,80.556L46.812,80.563L46.627,80.540L46.374,80.385L46.307,80.436L45.939,80.497L45.838,80.454L45.711,80.344L45.599,80.199L45.539,80.048L45.731,80.077L45.816,80.064L45.860,79.991L45.775,79.997L45.689,79.974L45.617,79.916L45.574,79.818L45.588,79.800L45.615,79.743L45.638,79.667L45.637,79.593L45.605,79.536L45.575,79.561L45.539,79.649L45.512,79.677L45.475,79.744L45.446,79.762L45.398,79.749L45.358,79.710L45.318,79.649L45.228,79.666L45.211,79.723L45.248,79.802L45.318,79.880L45.158,79.974L44.979,79.982L44.627,79.930L44.491,79.946L44.323,79.996L44.295,80.004L44.141,80.125L44.131,80.329L44.089,80.338L44.078,80.352L44.078,80.384L44.068,80.446L43.982,80.679L43.939,80.663L43.876,80.604L43.844,80.630L43.763,80.722L43.346,80.710L43.275,80.729L43.203,80.783L43.161,80.845L43.124,80.918L43.082,80.978L42.994,81.021L42.955,81.100L42.913,81.120L42.889,81.111L42.840,81.069L42.536,80.960L42.423,80.870L42.466,80.783L42.398,80.623L42.167,80.559L42.077,80.446L42.107,80.390L42.466,80.446L42.456,80.418L42.444,80.356L42.434,80.329L42.503,80.327L42.625,80.372L42.692,80.385L42.756,80.368L42.913,80.268L43.139,80.216L43.253,80.131L43.300,80.118L43.362,80.155L43.362,80.104L43.229,79.958L43.202,79.758L43.280,79.591L43.458,79.542L43.458,79.481L43.404,79.522L43.268,79.584L43.005,79.610L42.947,79.649L43.024,79.649L43.080,79.683L43.102,79.758L43.075,79.880L43.141,79.944L43.125,80.037L43.055,80.119L42.692,80.212L42.591,80.216L41.939,80.120L41.857,80.155L41.903,80.289L41.849,80.360L41.782,80.357L41.792,80.268L41.792,80.216L41.561,80.021L41.471,79.991L41.570,79.989L41.637,79.975L41.689,79.933L41.743,79.849L41.810,79.778L41.967,79.743L42.048,79.705L42.121,79.623L42.136,79.544L42.112,79.337L42.107,79.209L42.088,79.086L42.048,78.985L41.984,78.919L41.952,78.976L41.869,78.897L41.684,78.868L41.601,78.807L41.534,78.861L41.275,78.919L41.183,78.919L41.215,78.890L41.247,78.868L41.247,78.807L41.231,78.771L41.223,78.745L41.234,78.719L41.279,78.689L41.279,78.638L41.242,78.533L41.286,78.484L41.455,78.470L41.542,78.434L41.682,78.275L41.743,78.240L41.887,78.216L42.078,78.138L42.225,77.998L42.239,77.785L42.306,77.785L42.306,77.734L42.250,77.681L42.257,77.626L42.309,77.583L42.386,77.566L42.513,77.575L42.567,77.592L42.816,77.738L42.906,77.739L43.040,77.678L43.008,77.566L43.097,77.583L43.276,77.660L43.378,77.678L43.421,77.644L43.414,77.564L43.393,77.470L43.394,77.397L43.430,77.365L43.586,77.336L43.677,77.266L43.744,77.176L43.859,76.971L43.945,76.868L44.009,76.867L44.163,76.999L44.153,76.756L44.331,76.661L44.910,76.684L44.964,76.662L44.994,76.620L45.017,76.563L45.048,76.514L45.186,76.467L45.279,76.399L45.370,76.307L45.509,76.126L45.576,76.078L45.653,76.055L45.749,76.049L45.835,76.021L46.390,75.502L46.662,75.083L46.799,74.795L46.862,74.609L46.903,74.261L46.942,74.073L46.994,73.903L47.047,73.786L47.023,73.711L47.012,73.611L47.019,73.514L47.047,73.444L47.085,73.436L47.187,73.494L47.236,73.506L47.317,73.473L47.558,73.281L47.558,73.220L47.431,73.221L47.191,73.313L47.063,73.337L46.992,73.274L46.778,72.957L46.725,72.831L46.740,72.627L46.816,72.423L46.915,72.266L46.998,72.203L47.015,72.180L47.037,72.069L47.047,72.035L47.065,72.022L47.115,72.002L47.307,71.842L47.366,71.759L47.243,71.775L47.162,71.844L47.083,71.863L46.727,71.396L46.637,71.195L46.615,71.119L46.628,71.052L46.709,71.023L46.763,70.965L46.752,70.837L46.714,70.710L46.694,70.656L46.695,70.539L46.705,70.484L46.734,70.451L47.012,70.237L46.978,70.222L46.963,70.208L46.949,70.176L46.895,70.240L46.842,70.279L46.795,70.266L46.757,70.176L46.637,70.274L46.509,70.284L46.243,70.237L45.906,70.349L45.828,70.400L45.735,70.461L45.411,70.457L45.314,70.511L45.226,70.593L45.060,70.799L45.077,70.820L45.089,70.855L45.015,70.904L44.970,70.997L44.968,71.103L45.025,71.192L44.965,71.259L44.931,71.288L44.897,71.304L44.841,71.296L44.776,71.212L44.675,71.175L44.586,71.097L44.532,71.080L44.476,71.094L44.444,71.127L44.417,71.164L44.384,71.192L44.280,71.221L44.018,71.192L43.949,71.238L43.884,71.321L43.818,71.354L43.746,71.304L43.794,71.228L43.799,71.192L43.780,71.141L43.809,71.100L43.876,70.967L44.525,70.161L44.596,70.120L44.684,70.111L44.771,70.083L44.862,70.031L45.239,69.719L45.331,69.551L45.637,69.338L45.676,69.231L45.696,69.083L45.704,68.741L45.718,68.645L45.749,68.612L45.780,68.629L45.794,68.685L45.813,68.737L45.852,68.672L45.887,68.577L45.892,68.541L46.080,68.301L46.132,68.261L46.215,68.223L46.277,68.132L46.374,67.919L46.480,67.782L46.603,67.696L46.740,67.651L46.888,67.637L46.927,67.651L46.964,67.674L46.999,67.688L47.059,67.644L47.161,67.592L47.270,67.561L47.430,67.418L47.941,67.193L48.100,67.193L48.053,67.043L47.916,66.893L47.880,66.795L47.966,66.805L48.057,66.834L48.139,66.885L48.199,66.963L48.291,66.911L48.392,66.946L48.489,67.040L48.565,67.163L48.638,67.211L49.171,67.195L49.358,67.150L50.247,66.685L50.442,66.678L50.620,66.771L50.718,66.853L50.761,66.935L50.814,67.001L51.415,67.414L51.484,67.500L51.542,67.603L51.576,67.641L51.591,67.609L51.591,67.445L51.591,67.306L51.538,67.210L51.467,67.081L51.353,66.826L51.184,66.592L51.121,66.468L51.115,66.341L51.166,66.259L51.251,66.209L51.450,66.177L51.546,66.138L51.714,65.995L51.820,66.003L51.929,66.144L52.206,66.907L52.290,67.026L52.405,67.134L52.540,67.199L52.685,67.193L52.689,67.176L52.695,67.140L52.711,67.103L52.746,67.081L52.788,67.084L52.859,67.122L52.893,67.132L52.969,67.125L53.036,67.105L53.164,67.025L53.138,66.919L53.151,66.844L53.187,66.787L53.228,66.738L53.267,66.758L53.307,66.752L53.349,66.724L53.390,66.678L53.323,66.673L53.088,66.732L53.036,66.767L53.004,66.887L52.922,66.931L52.873,66.925L52.717,66.907L52.517,66.828L52.337,66.693L52.188,66.523L52.076,66.341L51.535,65.094L51.510,64.981L51.521,64.866L51.577,64.737L51.884,64.201L52.133,63.862L52.172,63.833L52.212,63.746L52.400,63.607L52.458,63.521L52.057,63.516L51.886,63.436L51.756,63.241L51.723,62.965L51.776,62.344L51.722,62.116L51.796,61.974L51.904,61.904L52.334,61.733L52.411,61.724L52.472,61.774L52.507,61.788L52.522,61.752L52.538,61.702L52.575,61.660L52.617,61.628L52.650,61.611L52.598,61.519L52.760,61.346L52.781,61.213L52.699,61.275L52.618,61.309L52.475,61.325L52.452,61.304L52.379,61.126L52.369,61.062L52.401,61.015L52.450,60.975L52.491,60.932L52.582,60.755L52.646,60.678L52.796,60.614L52.850,60.532L52.940,60.314L52.861,60.193L52.751,59.965L52.683,59.825L52.668,59.747L52.768,59.707L52.873,59.601L52.944,59.456L52.940,59.298L52.908,59.298L52.890,59.421L52.824,59.520L52.685,59.635L52.517,59.729L52.432,59.800L52.395,59.888L52.358,60.011L52.271,60.068L52.060,60.084L51.997,60.031L51.933,59.912L51.905,59.780L51.948,59.696L51.915,59.601L51.872,59.521L51.819,59.485L51.756,59.517L51.778,59.630L51.763,59.745L51.736,59.853L51.722,59.944L51.701,60.012L51.562,60.197L51.483,60.369L51.435,60.449L51.307,60.521L51.297,60.615L51.311,60.726L51.307,60.819L51.142,60.580L51.099,60.539L51.025,60.534L50.960,60.515L50.906,60.479L50.860,60.422L50.873,60.295L50.899,60.154L50.896,60.035L50.825,59.972L50.825,59.916L50.980,59.865L51.020,59.625L51.009,59.347L51.017,59.180L50.943,59.225L50.905,59.310L50.860,59.517L50.901,59.678L50.831,59.716L50.724,59.706L50.649,59.722L50.552,59.766L50.451,59.660L50.282,59.349L50.144,59.169L50.082,59.059L50.056,58.927L50.068,58.864L50.088,58.797L50.097,58.723L50.063,58.606L50.054,58.522L50.040,58.506L49.929,58.450L49.769,58.107L49.660,58.005L49.220,57.369L49.143,57.327L49.120,57.299L49.071,57.180L49.022,57.124L49.056,57.062L49.106,57.003L49.127,56.984L49.227,56.698L49.351,56.056L49.508,55.683L49.574,55.479L49.606,55.406L49.646,55.371L49.748,55.330L49.798,55.294L49.857,55.214L49.932,55.079L49.972,54.923L49.929,54.783L50.081,54.301L50.173,54.076L50.282,53.941L50.374,53.918L50.428,53.961L50.478,54.022L50.554,54.053L50.604,54.047L50.796,53.941L50.737,53.894L50.503,53.772L50.624,53.637L50.694,53.582L50.988,53.491L51.047,53.510L51.081,53.539L51.108,53.573L51.144,53.603L51.319,53.663L51.412,53.670L51.802,53.551L51.884,53.491L51.562,53.491L51.562,53.435L51.652,53.420L51.724,53.373L51.795,53.343L51.884,53.379L51.884,53.318L51.770,53.263L51.751,53.268L51.353,53.379L49.865,53.266L49.786,53.244L49.713,53.203L49.644,53.178L49.578,53.205L49.591,53.222L49.595,53.224L49.598,53.232L49.606,53.266L49.527,53.305L49.453,53.275L49.319,53.154L49.258,53.379L49.295,53.467L49.319,53.630L49.328,53.807L49.319,53.941L49.267,54.074L49.189,54.120L48.753,54.077L48.632,54.097L48.531,54.270L48.199,54.217L48.210,54.259L48.215,54.261L48.231,54.278L48.189,54.308L48.154,54.302L48.125,54.269L48.100,54.217L48.153,54.115L48.176,54.127L48.199,54.165L48.192,54.103L48.185,54.078L48.167,54.053L48.112,54.145L48.039,54.217L48.061,54.302L48.071,54.334L48.040,54.342L47.976,54.395L48.135,54.559L48.089,54.597L47.846,54.709L47.479,54.993L47.257,55.023L47.111,55.013L47.111,54.952L47.093,54.943L47.077,54.938L47.062,54.927L47.051,54.906L47.064,54.882L47.077,54.852L47.079,54.844L47.070,54.762L47.089,54.655L47.078,54.571L47.014,54.541L47.012,54.503L46.944,54.563L46.891,54.682L46.875,54.822L46.920,54.952L46.737,54.984L46.499,54.825L46.334,54.546L46.374,54.217L46.305,54.260L46.191,54.408L46.116,54.447L46.046,54.438L45.698,54.267L45.643,54.223L45.602,54.165L45.558,54.047L45.536,53.956L45.504,53.900L45.428,53.879L45.400,53.914L45.363,53.998L45.332,54.101L45.318,54.190L45.361,54.384L45.398,54.505L45.428,54.559L45.504,54.563L45.571,54.582L45.631,54.625L45.686,54.702L45.701,54.807L45.661,54.901L45.637,55.001L45.704,55.121L45.645,55.240L45.660,55.413L45.684,55.569L45.653,55.636L45.627,55.654L45.604,55.692L45.573,55.731L45.524,55.749L45.417,55.732L45.318,55.687L45.200,55.595L45.156,55.575L44.990,55.580L44.948,55.546L44.677,55.121L44.522,54.965L43.972,54.615L43.761,54.553L43.660,54.490L43.574,54.258L43.474,54.214L43.295,54.217L43.184,54.268L43.077,54.352L42.984,54.454L42.913,54.559L42.872,54.632L42.853,54.680L42.848,54.723L42.849,54.783L42.857,54.853L42.880,54.948L42.916,55.033L42.963,55.069L42.996,55.158L43.049,55.353L43.123,55.547L43.257,55.666L43.259,55.737L43.235,55.887L43.233,55.963L43.235,56.002L43.295,56.136L43.195,56.110L42.995,55.998L42.898,55.973L42.853,55.916L42.825,55.786L42.829,55.651L42.883,55.575L42.848,55.523L42.829,55.469L42.828,55.413L42.849,55.350L42.761,55.340L42.723,55.324L42.692,55.294L42.671,55.220L42.651,55.104L42.622,54.998L42.576,54.952L42.482,54.907L42.037,54.359L41.902,54.111L41.816,53.819L41.792,53.491L41.807,53.194L41.838,53.045L41.904,52.980L42.003,52.986L42.055,52.978L42.077,52.952L42.099,52.857L42.145,52.901L42.190,52.992L42.207,53.036L42.277,53.153L42.312,53.231L42.335,53.318L42.339,53.408L42.332,53.607L42.352,53.683L42.415,53.772L42.492,53.846L42.576,53.860L42.658,53.772L42.673,53.740L42.692,53.711L42.692,53.655L42.524,53.311L42.498,53.236L42.485,53.168L42.483,53.155L42.417,52.992L42.402,52.896L42.405,52.713L42.414,52.658L42.434,52.587L42.516,52.387L42.548,52.275L42.561,52.107L42.600,51.955L42.692,51.860L42.883,51.735L43.187,51.318L43.209,51.299L43.257,51.286L43.267,51.260L43.265,51.172L43.269,51.130L43.376,50.853L43.394,50.780L43.398,50.699L43.386,50.520L43.394,50.442L43.420,50.392L43.575,50.198L43.660,50.125L43.698,50.077L43.725,49.997L43.765,49.806L43.809,49.712L43.960,49.574L44.271,49.426L44.384,49.262L44.424,49.039L44.382,48.840L44.269,48.697L44.099,48.639L44.197,48.491L44.196,48.482L44.174,48.308L44.073,48.137L43.937,48.022L43.682,47.909L43.531,47.903L43.487,47.874L43.522,47.797L43.522,47.735L43.251,47.557L43.100,47.420L43.008,47.286L43.215,47.067L43.286,46.890L43.267,46.612L43.237,46.514L43.208,46.443L43.185,46.358L43.157,46.003L43.157,45.997L43.139,45.770L43.168,45.549L43.235,45.405L43.341,45.314L43.487,45.253L43.575,45.235L43.638,45.242L43.935,45.381L44.014,45.395L44.068,45.371L44.168,45.433L44.946,45.554L45.060,45.478L44.551,45.370L44.366,45.330L44.163,45.202L43.925,44.902L43.735,44.830L43.649,44.743L43.575,44.634L43.522,44.528L43.461,44.282L43.458,44.242L43.389,44.225L43.365,44.288L43.367,44.370L43.396,44.472L43.618,44.804L43.670,44.953L43.641,45.020L43.555,45.036L43.441,45.034L43.331,44.987L43.281,44.871L43.266,44.722L43.259,44.408L43.266,44.339L43.449,43.866L43.780,43.338L43.801,43.221L43.780,43.189L43.730,43.226L43.666,43.313L43.398,43.865L43.330,43.962L43.230,43.967L43.195,43.902L43.203,43.650L43.183,43.539L43.135,43.455L43.071,43.431L43.008,43.507L43.062,43.654L43.127,43.944L43.169,44.227L43.155,44.355L43.095,44.379L43.084,44.441L43.104,44.608L43.104,44.768L43.114,44.879L43.139,44.973L43.074,45.006L43.004,44.982L42.929,44.939L42.849,44.917L42.849,44.973L42.908,45.001L42.969,45.043L43.018,45.108L43.040,45.202L43.023,45.321L42.977,45.401L42.923,45.467L42.883,45.540L42.861,45.636L42.847,45.716L42.828,45.792L42.782,45.877L42.716,45.949L42.662,45.959L42.514,45.927L42.438,45.837L42.372,45.626L42.325,45.392L42.306,45.228L42.119,44.979L42.094,44.874L42.059,44.807L41.984,44.866L42.058,45.001L42.236,45.449L42.271,45.621L42.232,45.701L42.143,45.670L41.835,45.419L41.792,45.313L41.792,45.141L41.745,45.203L41.704,45.312L41.675,45.427L41.665,45.509L41.643,45.570L41.505,45.770L41.617,46.002L41.664,46.129L41.697,46.275L41.611,46.275L41.407,46.157L41.250,46.100L41.201,46.037L41.172,45.831L41.144,45.801L41.107,45.781L41.072,45.739L41.056,45.680L41.052,45.604L41.056,45.453L41.066,45.389L41.112,45.298L41.122,45.228L41.114,45.158L41.056,44.917L41.171,44.787L41.681,43.906L41.952,43.793L42.148,43.642L42.193,43.593L42.359,43.217L42.434,43.109L42.575,43.016L42.754,42.938L42.917,42.820L43.008,42.603L42.926,42.659L42.753,42.848L42.675,42.889L42.484,42.904L42.405,42.938L42.335,43.002L42.284,43.103L42.172,43.391L42.128,43.451L41.570,43.825L41.183,44.411L41.141,44.436L41.057,44.443L41.021,44.467L41.023,44.509L41.000,44.626L40.971,44.726L40.957,44.718L40.914,44.811L40.812,44.842L40.697,44.832L40.609,44.804L40.605,44.765L40.605,44.694L40.593,44.641L40.559,44.661L40.543,44.705L40.542,44.756L40.544,44.811L40.510,45.253L40.527,45.271L40.597,45.308L40.623,45.315L40.670,45.478L40.689,45.573L40.692,45.650L40.709,45.714L40.765,45.770L40.765,45.821L40.733,45.821L40.733,45.877L40.753,45.886L40.800,45.927L40.778,45.945L40.755,45.972L40.733,45.989L40.992,46.267L41.109,46.463L41.151,46.674L41.120,46.787L41.054,46.841L40.896,46.893L40.825,46.943L40.611,47.184L40.559,47.261L40.515,47.352L40.481,47.454L40.470,47.523L40.458,47.668L40.446,47.735L40.346,47.813L40.354,47.848L40.373,47.886L40.382,47.909L40.375,48.097L40.418,48.147L40.474,48.163L40.510,48.246L40.481,48.354L40.407,48.386L40.352,48.434L40.382,48.589L40.283,48.784L40.255,48.864L40.250,48.908L40.255,49.063L40.248,49.130L40.233,49.135L40.212,49.124L40.191,49.145L40.087,49.421L40.012,49.533L39.904,49.599L39.904,49.651L39.962,49.642L40.009,49.662L40.051,49.706L40.095,49.768L40.171,49.954L40.175,49.987L40.230,50.042L40.182,50.166L40.029,50.386L39.952,50.467L39.860,50.540L39.756,50.594L39.645,50.616L39.601,50.605L39.509,50.559L39.454,50.555L39.405,50.577L39.299,50.655L39.245,50.672L39.110,50.670L39.027,50.638L38.977,50.537L38.922,50.184L38.913,49.997L38.937,49.836L39.068,49.726L39.246,49.516L39.291,49.431L39.293,49.258L39.271,49.072L39.262,48.888L39.328,48.646L39.308,48.585L39.276,48.531L39.263,48.471L39.280,48.379L39.390,48.134L39.489,47.845L39.508,47.680L39.454,47.567L39.708,47.352L39.741,47.258L39.770,47.145L39.840,47.003L39.920,46.883L39.982,46.831L40.116,46.773L40.278,46.621L40.423,46.405L40.510,46.157L40.058,46.669L39.891,46.804L39.835,46.828L39.773,46.831L39.805,46.724L39.677,46.676L39.614,46.637L39.550,46.556L39.514,46.443L39.509,46.223L39.486,46.157L39.683,45.861L39.712,45.795L39.742,45.685L39.812,45.599L39.896,45.519L39.967,45.427L39.862,45.481L39.703,45.667L39.581,45.731L39.497,45.819L39.454,45.821L39.421,45.766L39.392,45.670L39.381,45.580L39.894,44.789L39.933,44.687L39.913,44.650L39.941,44.621L39.967,44.579L39.907,44.553L39.849,44.585L39.786,44.641L39.712,44.687L39.684,44.840L39.482,45.072L39.486,45.253L39.408,45.401L39.390,45.427L39.344,45.409L39.330,45.361L39.337,45.303L39.355,45.253L39.381,45.035L39.552,44.697L39.904,44.192L39.918,44.162L39.925,44.124L39.937,44.090L39.967,44.074L39.998,44.081L40.035,44.099L40.063,44.119L40.063,44.130L40.076,44.148L40.115,44.174L40.152,44.178L40.159,44.130L40.137,44.078L40.106,44.045L40.077,44.025L40.063,44.013L40.033,43.883L40.025,43.812L40.044,43.758L40.194,43.525L40.226,43.451L40.255,43.338L40.113,43.379L40.007,43.507L39.913,43.649L39.805,43.737L39.835,43.567L39.896,43.398L39.975,43.241L40.063,43.109L40.022,43.000L40.079,42.912L40.180,42.854L40.271,42.833L40.324,42.806L40.333,42.746L40.303,42.686L40.240,42.659L40.046,42.720L40.004,42.746L39.960,42.800L39.915,42.842L39.869,42.833L39.841,42.761L39.853,42.667L39.904,42.496L39.960,42.189L40.006,42.082L40.095,41.985L40.182,42.036L40.308,42.022L40.542,41.929L40.542,41.878L40.430,41.886L40.228,41.952L40.124,41.929L40.219,41.657L40.255,41.592L40.305,41.558L40.365,41.530L40.402,41.491L40.382,41.423L40.500,41.261L40.657,41.186L41.128,41.145L41.505,41.250L41.661,41.212L41.787,41.106L42.083,40.711L42.236,40.373L42.335,40.238L42.232,40.293L42.171,40.415L42.120,40.562L42.048,40.688L41.857,40.856L41.748,41.032L41.697,41.086L41.497,41.110L41.000,40.997L40.869,41.112L40.794,41.058L40.718,40.744L40.654,40.774L40.599,40.847L40.510,41.025L40.446,40.974L40.611,40.580L40.638,40.463L40.749,40.572L40.864,40.616L40.970,40.612L41.056,40.576L41.279,40.407L41.398,40.353L41.456,40.311L41.505,40.238L41.348,40.333L41.296,40.346L41.203,40.340L41.183,40.346L41.105,40.407L41.054,40.426L40.952,40.509L40.896,40.525L40.840,40.499L40.765,40.415L40.702,40.407L40.716,40.346L40.733,40.319L40.754,40.302L40.783,40.267L40.801,40.227L40.817,40.158L40.830,40.126L40.951,39.900L40.992,39.845L41.184,39.675L41.213,39.621L41.242,39.570L41.151,39.508L41.151,39.447L41.192,39.423L41.296,39.335L41.415,39.348L41.477,39.342L41.614,39.222L41.719,39.222L41.920,39.283L42.017,39.256L42.200,39.137L42.577,39.052L42.658,38.997L41.886,39.163L41.523,38.992L41.522,38.943L41.569,38.829L41.599,38.787L41.914,38.452L41.999,38.316L42.077,38.154L41.800,38.394L41.760,38.461L41.740,38.515L41.691,38.560L41.633,38.592L41.585,38.604L41.546,38.629L41.529,38.690L41.520,38.763L41.505,38.829L41.444,38.951L41.382,39.021L41.312,39.052L41.230,39.058L41.189,39.075L41.145,39.149L41.047,39.186L41.008,39.234L40.957,39.335L40.823,39.497L40.749,39.546L40.654,39.565L40.606,39.599L40.539,39.749L40.495,39.784L40.436,39.800L40.381,39.842L40.331,39.899L40.143,40.175L39.834,40.535L39.517,40.787L39.486,40.800L39.444,40.769L39.389,40.660L39.339,40.637L39.263,40.622L39.174,40.583L39.093,40.528L39.036,40.463L39.107,40.330L39.126,40.264L39.135,40.182L39.100,40.182L38.926,40.418L38.643,40.359L37.946,39.798L37.916,39.733L37.924,39.604L37.971,39.541L38.039,39.517L38.273,39.501L38.434,39.533L38.585,39.610L38.714,39.733L38.749,39.672L38.637,39.584L38.591,39.528L38.589,39.447L39.084,39.123L39.199,39.110L39.493,39.259L39.611,39.283L39.859,39.266L39.997,39.230L40.095,39.166L39.661,39.222L39.558,39.205L39.323,39.058L39.131,39.009L38.621,39.283L38.445,39.334L38.395,39.335L38.335,39.310L38.230,39.238L38.170,39.222L37.846,39.246L37.501,39.154L37.383,39.165L37.291,39.253L37.206,39.308L37.090,39.284L36.982,39.224L36.921,39.166L36.896,39.120L36.875,39.075L36.862,39.027L36.857,38.972L36.866,38.894L36.889,38.890L36.921,38.905L36.956,38.885L37.058,38.730L37.118,38.679L37.836,38.604L37.893,38.577L38.056,38.458L38.125,38.431L38.204,38.450L38.252,38.496L38.296,38.553L38.366,38.604L38.612,38.711L38.653,38.742L38.648,38.653L38.625,38.565L38.577,38.505L38.494,38.492L38.494,38.431L38.551,38.424L38.608,38.429L38.663,38.450L38.714,38.492L38.782,38.408L38.887,38.373L39.007,38.405L39.100,38.431L38.749,38.262L38.660,38.158L38.658,38.068L38.722,38.005L39.206,37.937L39.399,37.854L39.550,37.705L39.488,37.676L39.402,37.686L39.325,37.725L39.251,37.863L39.157,37.860L38.972,37.813L39.012,37.730L39.199,37.532L38.988,37.493L38.547,37.589L38.331,37.532L38.488,37.490L38.653,37.480L38.653,37.420L38.617,37.396L38.523,37.302L38.605,37.206L38.657,37.037L38.698,36.846L38.749,36.684L38.831,36.582L38.962,36.491L39.106,36.442L39.228,36.464L39.272,36.516L39.365,36.676L39.419,36.745L39.486,36.795L39.558,36.829L39.712,36.853L39.966,36.793L40.191,36.684L40.191,36.628L40.111,36.651L40.035,36.693L39.966,36.715L39.904,36.684L39.799,36.755L39.697,36.727L39.599,36.663L39.503,36.628L39.432,36.581L39.450,36.476L39.458,36.363L39.355,36.291L39.314,36.297L39.218,36.339L39.167,36.347L39.119,36.326L39.039,36.251L38.990,36.235L38.939,36.173L39.008,36.036L39.203,35.793L39.259,35.702L39.291,35.672L39.349,35.667L39.488,35.681L39.535,35.642L39.618,35.595L39.735,35.639L39.933,35.785L40.027,35.834L40.487,35.839L40.510,35.813L40.545,35.754L40.623,35.749L40.700,35.770L40.733,35.785L40.765,35.785L40.765,35.724L40.673,35.667L40.281,35.733L40.171,35.776L40.110,35.785L40.076,35.755L39.957,35.608L39.904,35.560L39.512,35.446L39.454,35.361L39.487,35.221L39.651,34.995L39.712,34.881L39.626,34.741L39.738,34.586L39.934,34.466L40.095,34.431L40.245,34.541L40.393,34.710L40.551,34.825L40.733,34.769L40.733,34.713L40.539,34.668L40.495,34.631L40.426,34.511L40.379,34.455L40.335,34.431L40.290,34.376L40.351,34.254L40.464,34.137L40.577,34.095L40.577,34.033L40.463,33.987L40.385,34.054L40.326,34.156L40.271,34.207L40.190,34.232L40.026,34.345L39.933,34.376L39.835,34.363L39.657,34.282L39.566,34.263L39.364,34.327L39.268,34.320L39.228,34.207L39.247,34.179L39.355,33.926L39.394,33.887L39.496,33.826L39.535,33.783L39.578,33.748L39.611,33.781L39.638,33.836L39.661,33.865L39.770,33.847L40.294,33.608L40.502,33.422L40.542,33.191L40.463,33.173L40.337,33.297L40.124,33.584L40.003,33.673L39.894,33.657L39.781,33.604L39.645,33.584L39.759,33.513L39.799,33.459L39.789,33.387L39.749,33.286L39.740,33.232L39.720,33.234L39.645,33.303L39.331,33.700L39.213,33.758L38.969,33.792L38.861,33.740L38.781,33.416L38.793,33.423L38.816,33.409L38.837,33.385L38.845,33.359L38.832,33.332L38.789,33.268L38.781,33.242L38.779,33.131L38.795,33.077L38.845,33.022L38.797,32.995L38.652,32.955L38.621,32.936L38.611,32.847L38.568,32.705L38.557,32.598L38.571,32.539L38.635,32.400L38.653,32.348L38.658,32.230L38.657,32.126L38.677,32.062L38.749,32.062L38.739,32.025L38.724,31.931L38.714,31.894L38.797,31.862L38.880,31.877L38.961,31.928L39.212,32.174L39.291,32.230L39.332,32.198L39.412,32.317L39.454,32.348L39.594,32.442L39.645,32.455L39.620,32.409L39.606,32.366L39.596,32.326L39.582,32.287L39.918,32.230L40.111,32.263L40.221,32.260L40.240,32.205L40.098,32.091L39.886,32.044L39.679,32.072L39.550,32.180L39.390,32.001L39.415,31.975L39.454,31.894L39.298,31.866L39.217,31.738L39.158,31.576L39.071,31.444L38.999,31.416L38.927,31.406L38.870,31.373L38.845,31.270L38.872,31.171L38.967,31.069L38.940,30.995L38.940,30.934L39.114,30.839L39.203,30.835L39.341,30.982L39.400,30.974L39.449,30.911L39.486,30.821L39.434,30.807L39.401,30.765L39.370,30.711L39.323,30.658L39.269,30.626L38.879,30.540L38.865,30.451L38.887,30.238L38.879,30.142L38.891,30.074L38.851,29.908L38.845,29.805L38.863,29.716L38.897,29.636L38.946,29.568L39.007,29.519L39.126,29.474L39.249,29.473L39.371,29.510L39.486,29.580L39.468,29.692L39.482,29.855L39.514,30.021L39.550,30.142L39.596,30.228L39.657,30.290L39.729,30.323L39.805,30.321L39.770,30.282L39.748,30.241L39.712,30.142L39.771,30.139L39.817,30.151L39.904,30.203L39.873,30.042L39.893,29.925L39.901,29.819L39.837,29.692L39.656,29.532L39.597,29.438L39.645,29.355L39.609,29.346L39.595,29.331L39.582,29.299L39.627,29.221L39.735,29.083L39.773,29.018L39.840,29.099L39.891,29.131L40.063,29.131L40.037,29.356L40.169,29.522L40.360,29.618L40.510,29.636L40.481,29.580L40.538,29.509L40.593,29.275L40.638,29.187L40.697,29.188L40.910,29.276L40.974,29.327L41.106,29.475L41.263,29.567L41.601,29.692L41.532,29.578L41.480,29.527L41.343,29.468L41.138,29.267L40.838,29.139L40.800,29.105L40.793,29.059L40.782,29.039L40.780,29.017L40.800,28.962L40.830,28.955L40.865,28.993L40.899,29.000L40.925,28.901L41.014,28.953L41.145,29.134L41.247,29.187L41.300,29.183L41.389,29.140L41.439,29.131L41.498,29.149L41.604,29.222L41.649,29.238L41.708,29.274L41.878,29.432L42.076,29.519L42.211,29.746L42.306,29.805L42.279,29.761L42.247,29.687L42.219,29.607L42.207,29.550L42.183,29.494L41.715,29.108L41.601,29.080L41.601,29.018L41.693,29.019L41.730,28.959L41.723,28.863L41.681,28.760L41.624,28.713L41.473,28.684L41.407,28.625L41.269,28.592L41.076,28.362L40.957,28.339L40.967,28.317L40.970,28.310L40.992,28.288L40.922,28.195L40.830,28.165L40.638,28.176L40.653,28.140L40.663,28.112L40.675,28.086L40.702,28.058L40.702,28.002L40.547,27.738L40.636,27.626L40.814,27.674L40.925,27.889L41.027,27.811L41.128,27.842L41.231,27.855L41.343,27.721L41.314,27.721L41.337,27.640L41.334,27.565L41.311,27.499L41.279,27.440L41.343,27.440L41.343,27.384L41.247,27.323L41.309,27.280L41.442,27.249L41.505,27.215L41.505,27.154L41.351,27.161L41.277,27.146L41.212,27.099L41.247,27.047L41.212,27.006L41.173,26.973L41.132,26.949L41.087,26.935L41.097,26.896L41.112,26.800L41.122,26.761L41.062,26.761L41.016,26.730L40.800,26.419L40.804,26.282L40.880,26.258L40.987,26.302L41.184,26.430L41.263,26.450L41.342,26.430L41.528,26.313L41.627,26.281L41.729,26.293L41.827,26.368L41.863,26.308L41.925,26.253L41.990,26.214L42.032,26.199L42.115,26.225L42.257,26.342L42.320,26.368L42.554,26.349L42.626,26.368L42.947,26.597L42.901,26.510L42.848,26.459L42.721,26.368L42.782,26.320L42.916,26.297L42.979,26.255L42.683,26.199L42.591,26.199L42.553,26.222L42.500,26.295L42.450,26.312L42.403,26.294L42.306,26.217L42.255,26.199L42.186,26.155L42.048,25.962L42.000,25.918L41.994,25.888L41.906,25.761L41.888,25.745L41.853,25.641L41.837,25.580L41.827,25.520L41.920,25.520L41.873,25.433L41.875,25.351L41.908,25.269L41.952,25.183L41.957,25.141L41.951,25.087L41.950,25.039L41.968,25.020L42.004,25.028L42.066,25.062L42.094,25.070L42.366,25.246L42.561,25.239L42.432,25.140L42.387,25.087L42.402,25.020L42.370,24.959L42.328,25.000L42.281,25.022L42.231,25.027L42.179,25.020L42.179,24.959L42.225,24.961L42.239,24.959L42.239,24.902L42.208,24.896L42.188,24.882L42.144,24.841L42.403,24.698L42.518,24.749L42.658,24.841L42.144,24.422L42.143,24.273L42.152,24.201L42.189,24.163L42.437,24.027L42.506,23.956L42.561,23.830L42.530,23.830L42.566,23.660L42.583,23.491L42.614,23.350L42.692,23.263L43.294,23.387L43.404,23.454L43.487,23.554L43.488,23.598L43.512,23.726L43.540,23.838L43.554,23.830L43.550,23.921L43.538,23.992L43.517,24.055L43.487,24.116L43.573,24.051L43.610,23.976L43.619,23.893L43.618,23.804L43.638,23.684L43.679,23.633L43.705,23.575L43.682,23.437L43.764,23.503L43.908,23.681L43.986,23.717L44.118,23.812L44.178,23.830L44.226,23.859L44.230,23.927L44.211,24.002L44.192,24.055L44.137,24.122L43.972,24.272L43.888,24.479L43.798,24.634L43.754,24.746L43.841,24.734L44.119,24.445L44.163,24.422L44.194,24.294L44.271,24.236L44.365,24.195L44.450,24.116L44.502,23.973L44.530,23.825L44.577,23.708L44.691,23.661L44.893,23.697L45.089,23.778L45.318,23.937L45.318,23.998L45.311,24.028L45.308,24.033L45.318,24.116L45.208,24.234L45.139,24.384L45.079,24.554L44.996,24.734L45.077,24.700L45.156,24.627L45.283,24.453L45.289,24.420L45.283,24.381L45.282,24.349L45.301,24.335L45.321,24.326L45.510,24.134L45.524,24.116L45.704,23.998L45.830,23.942L45.877,23.937L45.969,23.965L46.109,24.088L46.214,24.116L46.148,24.055L46.198,24.019L46.226,23.969L46.247,23.922L46.278,23.891L46.331,23.883L46.420,23.925L46.484,23.937L46.525,23.912L46.561,23.804L46.614,23.778L46.792,23.778L46.890,23.808L46.931,23.810L46.983,23.778L47.024,23.719L47.083,23.581L47.126,23.554L47.168,23.544L47.176,23.535L47.182,23.555L47.268,23.715L47.294,23.737L47.398,23.717L47.799,23.778L48.199,23.717L48.401,23.629L48.722,23.404L48.902,23.324L49.193,23.272L49.343,23.277L49.450,23.324L49.404,23.368L49.386,23.380L49.499,23.478L49.630,23.468L49.897,23.380L50.156,23.490L50.284,23.489L50.346,23.324L50.267,23.292L50.182,23.234L50.106,23.150L50.056,23.038L50.163,22.905L50.234,22.861L50.312,22.875L50.330,22.918L50.342,22.995L50.360,23.067L50.394,23.099L50.538,23.099L50.845,23.010L51.032,22.993L51.276,23.156L51.431,23.157L51.739,23.099L51.897,23.164L51.868,23.313L51.779,23.482L51.756,23.605L51.704,23.673L51.634,23.822L51.591,23.891L51.469,24.000L51.435,24.055L51.382,24.214L51.382,24.348L51.431,24.446L51.530,24.504L51.589,24.497L51.641,24.469L51.685,24.458L51.722,24.504L51.737,24.600L51.717,24.673L51.674,24.720L51.626,24.734L51.583,25.024L51.380,25.394L51.132,25.730L50.955,25.918L50.760,26.025L50.351,26.161L50.187,26.255L49.938,26.490L49.897,26.567L49.861,26.703L49.773,26.841L49.578,27.047L48.550,27.839L48.204,28.005L48.118,28.086L48.077,28.174L48.031,28.340L48.005,28.400L47.963,28.441L47.846,28.503L47.698,28.536L47.398,28.732L47.354,28.758L47.323,28.807L47.305,28.876L47.303,28.962L47.226,28.921L47.204,28.901L47.236,28.850L47.171,28.818L47.051,28.803L46.917,28.727L46.895,28.760L46.908,28.828L46.949,28.901L47.019,28.951L47.164,28.957L47.236,28.990L47.268,29.027L47.366,29.187L47.270,29.341L47.247,29.425L47.268,29.519L47.194,29.518L47.055,29.466L46.983,29.468L46.941,29.500L46.859,29.606L46.821,29.636L46.690,29.632L46.421,29.501L46.292,29.468L45.914,29.561L45.811,29.493L45.661,29.295L45.571,29.218L45.477,29.187L45.724,29.537L45.873,29.655L46.052,29.692L46.241,29.607L46.338,29.591L46.421,29.664L46.501,29.757L46.612,29.833L46.688,29.830L46.662,29.692L46.961,29.887L47.125,29.928L47.389,29.729L47.538,29.763L47.622,29.867L47.558,29.974L47.710,30.015L47.883,29.940L48.051,29.791L48.183,29.608L48.254,29.531L48.312,29.540L48.343,29.620L48.330,29.754L48.293,29.825L47.658,30.614L47.551,30.696L47.428,30.874L47.366,30.934L47.274,30.952L47.201,30.919L47.178,30.837L47.236,30.709L47.111,30.594L46.947,30.652L46.585,30.962L46.524,30.988L46.405,30.995L46.100,31.076L46.013,31.060L45.934,31.064L45.899,31.159L45.868,31.272L45.797,31.326L45.731,31.353L45.427,31.645L45.385,31.699L45.347,31.781L45.309,31.908L45.332,31.914L45.395,31.868L45.536,31.811L45.605,31.746L45.671,31.663L45.718,31.582L45.775,31.507L45.988,31.383L46.169,31.205L46.368,31.107L46.406,31.102L46.460,31.125L46.522,31.199L46.757,31.249L46.859,31.245L46.934,31.189L46.993,31.129L47.196,31.006L47.268,30.995L47.291,31.098L47.194,31.269L47.058,31.430L46.922,31.531L46.757,31.781L46.772,31.824L46.787,31.854L46.803,31.876L46.821,31.894L46.604,31.914L46.514,31.964L46.435,32.062L46.479,32.139L46.447,32.150L46.339,32.118L46.084,32.118L46.084,32.180L46.218,32.175L46.282,32.189L46.339,32.230L46.254,32.419L46.202,32.503L46.148,32.567L46.317,32.611L46.401,32.615L46.499,32.567L46.575,32.477L46.610,32.423L46.614,32.399L46.719,32.391L46.768,32.367L46.856,32.244L46.924,32.181L46.997,32.135L47.063,32.118L47.148,32.078L47.094,31.988L46.920,31.838L47.050,31.846L47.478,31.781L47.927,31.823L48.071,31.781L48.785,31.276L49.064,31.214L49.029,31.304L49.005,31.343L48.968,31.383L49.030,31.430L49.090,31.426L49.153,31.399L49.224,31.383L49.127,31.163L49.299,31.221L49.392,31.231L49.482,31.214L49.549,31.166L49.624,31.076L49.668,30.972L49.641,30.878L49.687,30.793L49.729,30.785L49.775,30.810L49.833,30.821L49.893,30.798L50.017,30.725L50.074,30.709L50.655,30.733L51.004,30.950L51.619,31.152L51.823,31.159L52.012,31.102L52.301,30.904L52.379,30.878L53.117,30.878L53.149,30.896L53.197,30.976L53.244,30.995L53.296,30.978L53.335,30.950L53.372,30.944L53.422,30.995L53.581,30.922L53.981,31.053L54.127,31.046L54.202,31.159L54.239,31.147L54.272,31.083L54.333,31.046L54.417,31.055L54.638,31.163L54.672,31.100L54.708,31.113L54.750,31.151L54.800,31.163L54.854,31.135L54.934,31.061L54.976,31.046L55.067,31.099L55.123,31.114L55.148,31.074L55.163,31.028L55.196,30.984L55.240,30.950L55.279,30.934L55.379,30.952L55.585,31.072L55.680,31.102L55.801,31.078L56.080,30.878L56.156,30.860L56.672,30.878L56.675,30.909L56.704,30.980L56.744,31.056L56.785,31.102L56.842,31.109L56.919,31.044L56.977,31.046L57.008,31.080L57.062,31.191L57.458,31.613L57.500,31.754L57.517,31.903L57.543,32.049L57.615,32.180L57.615,32.230L57.596,32.334L57.645,32.424L57.778,32.567L57.711,32.575L57.680,32.637L57.684,32.708L57.728,32.742L57.786,32.764L57.755,32.814L57.647,32.905L57.455,33.154L57.374,33.302L57.362,33.416L56.874,33.854L56.753,34.033L56.452,34.797L56.341,35.224L56.315,35.392L56.327,35.545L56.416,35.612L56.431,35.683L56.356,35.833L56.353,35.839L55.931,36.490L55.787,36.786L55.726,37.082L55.740,37.152L55.767,37.202L55.790,37.263L55.790,37.364L55.767,37.410L55.681,37.518L55.662,37.560L55.633,37.708L55.564,37.801L55.404,37.925L55.278,38.098L55.166,38.293L55.090,38.381L54.829,38.543L54.751,38.611L54.668,38.707L54.623,38.796L54.601,38.842L54.550,39.203L54.493,39.303L54.429,39.386L54.382,39.508L54.382,39.573L54.411,39.685L54.414,39.733L54.388,39.791L54.305,39.879L54.256,40.022L54.183,40.110L53.745,40.417L53.665,40.590L53.569,40.657L53.390,40.744L53.348,40.807L53.260,41.025L53.214,41.046L53.181,41.025L53.144,40.991L53.086,40.974L52.831,41.011L51.726,41.168L51.703,41.172L51.522,41.253L51.360,41.375L50.873,41.863L50.677,41.944L50.474,41.878L50.530,41.955L50.612,41.986L50.811,41.985L50.908,41.959L51.106,41.842L51.287,41.798L52.219,41.335L52.267,41.280L52.311,41.202L52.411,41.139L52.524,41.120L52.604,41.171L52.687,41.251L52.852,41.265L52.908,41.367L52.917,41.524L52.883,41.671L52.820,41.793L52.746,41.878L52.861,41.878L52.878,41.903L52.899,42.016L52.908,42.046L52.961,42.070L53.003,42.078L53.037,42.096L53.068,42.154L53.496,42.186L53.598,42.238L53.757,42.384L53.795,42.404L53.965,42.552L53.965,42.603L53.715,42.844L53.630,43.007L53.520,43.058L53.294,43.109L52.998,43.309L52.893,43.338L52.778,43.319L52.491,43.170L52.267,43.165L52.153,43.196L52.105,43.257L52.069,43.332L51.820,43.507L51.561,43.800L51.484,43.844L51.390,43.877L51.340,43.965L51.275,44.242L51.222,44.363L51.153,44.410L50.825,44.428L50.732,44.469L50.570,44.579L50.384,44.665L50.201,44.696L50.018,44.684L49.263,44.463L48.847,44.470L48.667,44.410L48.502,44.294L48.497,44.290L48.330,44.130L48.232,44.007L48.167,43.965L48.071,43.962L48.071,44.013L48.351,44.207L48.391,44.270L48.430,44.292L48.591,44.575L48.614,44.636L48.655,44.650L48.745,44.632L48.777,44.636L48.810,44.679L48.832,44.734L48.862,44.783L48.919,44.804L49.183,44.747L49.287,44.748L50.091,44.973L50.312,44.973L50.393,44.934L50.439,44.937L50.488,45.003L50.568,45.073L51.417,45.141L51.450,45.167L51.534,45.284L51.562,45.315L51.621,45.326L51.913,45.296L52.267,45.141L52.376,45.048L52.454,44.920L52.534,44.819L52.650,44.804L52.624,44.705L52.611,44.668L52.590,44.636L52.675,44.561L52.813,44.397L52.908,44.355L53.692,44.411L53.782,44.451L53.914,44.634L53.999,44.687L53.957,44.823L53.933,44.866L53.999,44.889L54.118,44.866L54.188,44.917L54.208,44.884L54.256,44.841L54.287,44.804L54.355,44.876L54.546,45.010L54.724,45.067L55.021,45.315L55.222,45.423L55.975,45.569L56.016,45.591L56.041,45.658L56.048,45.734L56.059,45.795L56.096,45.821L56.196,45.861L56.286,45.963L56.554,46.489L56.616,46.609L57.232,47.399L57.301,47.590L57.348,47.691L57.449,47.762L57.474,47.821L57.495,47.880L57.519,47.909L57.563,47.896L57.592,47.857L57.613,47.816L57.631,47.797L57.683,47.804L57.743,47.835L57.799,47.903L57.841,48.022L57.746,48.022L57.746,48.073L57.802,48.107L57.966,48.060L58.068,48.073L58.387,48.302L58.387,48.358L58.361,48.413L58.369,48.472L58.402,48.532L58.451,48.589L58.387,48.639L58.387,48.695L58.427,48.722L58.517,48.808L58.517,48.864L58.478,48.936L58.501,48.976L58.548,49.003L58.581,49.038L58.601,49.136L58.618,49.688L58.610,49.768L58.586,49.903L58.582,49.947L58.581,50.018L58.609,50.198L58.725,50.410L58.738,50.555L58.732,50.593L58.723,50.631L58.709,50.666L58.691,50.700L58.671,50.761L58.680,50.816L58.698,50.868L58.708,50.922L58.734,51.018L58.793,51.110L58.900,51.229L58.862,51.337L58.886,51.388L58.932,51.431L58.961,51.515L58.948,51.596L58.916,51.666L58.895,51.738L58.915,51.823L58.995,51.950L59.017,52.009L59.033,52.187L59.074,52.362L59.092,52.414L59.110,52.428L59.170,52.456L59.187,52.470L59.194,52.493L59.210,52.560L59.287,52.768L59.329,52.843L59.353,52.916L59.375,53.020L59.406,53.114L59.459,53.154L59.474,53.177L59.605,53.318L59.640,53.406L59.645,53.456L59.636,53.493L59.634,53.543L59.640,53.726L59.651,53.799L59.685,53.828L59.672,53.904L59.948,54.927L60.048,55.186L60.212,55.406L60.284,55.461L60.531,55.575L60.531,55.636L60.435,55.636L60.436,55.673L60.444,55.698L60.470,55.749L60.482,55.815L60.500,55.875L60.527,55.927L60.566,55.973L60.527,56.044L60.483,56.085L60.371,56.136L60.383,56.196L60.406,56.230L60.439,56.245L60.484,56.249L60.497,56.235L60.502,56.208L60.508,56.187L60.531,56.193L60.543,56.213L60.562,56.254L60.574,56.293L60.566,56.310L60.622,56.299L60.650,56.256L60.690,56.025L60.772,56.136L60.851,56.205L60.942,56.239L61.139,56.267L61.366,56.423L62.327,56.730L63.379,57.417L63.511,57.551L63.566,57.666L63.571,57.740L63.563,57.804L63.578,57.888L63.626,57.958L63.782,58.076L63.847,58.144L63.917,58.274L63.998,58.470L64.054,58.678L64.056,58.844L64.073,58.898L64.099,58.952L64.135,58.994L64.184,59.012L64.165,59.097L64.152,59.129L64.191,59.172L64.279,59.306L64.315,59.349L64.505,59.402L64.552,59.438L64.608,59.496L64.715,59.553L64.750,59.636L64.783,59.854L64.793,59.888L64.917,60.024L65.490,60.262L65.658,60.422L65.244,60.658L65.100,60.832L64.985,61.157L65.088,61.387L65.222,61.926L65.304,62.173L65.799,62.980L66.634,64.285L66.708,64.557L66.650,64.824L66.624,64.854L66.523,64.941L66.625,64.687L66.646,64.548L66.572,64.487L66.475,64.452L66.273,64.296L66.172,64.257L66.080,64.280L65.899,64.398L65.800,64.425L65.686,64.414L65.579,64.380L65.484,64.327L65.403,64.257L64.957,63.649L64.793,63.521L64.628,63.494L64.584,63.486L63.995,63.695L63.908,63.695L63.624,63.695L63.466,63.735L63.432,63.721L63.317,63.602L63.303,63.583L63.033,63.549L62.933,63.583L62.614,63.808L62.657,63.824L62.698,63.848L62.737,63.880L62.774,63.920L62.844,63.789L62.973,63.726L63.114,63.715L63.224,63.746L63.414,63.891L63.464,63.948L63.533,63.996L63.608,63.967L63.737,63.858L64.574,63.695L64.705,63.754L64.793,63.920L65.129,64.467L65.337,64.581L65.481,64.762L65.562,64.824L65.726,64.850L65.793,64.879L66.011,65.168L66.459,65.554L66.549,65.596L66.637,65.618L66.720,65.657L66.795,65.750L66.809,65.812L66.820,65.896L66.832,65.971L66.859,66.003L66.902,66.019L67.037,66.121L67.001,66.177L67.083,66.242L67.155,66.356L67.208,66.486L67.228,66.598L67.610,67.710L67.676,68.021L67.678,68.373L67.580,68.803L67.552,68.861L67.500,68.884L67.408,68.904L67.331,68.956L66.913,69.407L66.826,69.445L66.762,69.498L66.394,70.077L66.296,70.189L66.186,70.237L66.114,70.292L66.051,70.406L66.059,70.507L66.201,70.518L66.443,70.457L66.504,70.483L66.634,70.599L66.698,70.625L66.809,70.707L67.050,71.105L67.164,71.253L67.247,71.188L67.346,71.172L67.532,71.192L67.608,71.239L67.740,71.440L67.808,71.478L67.808,71.422L67.783,71.293L67.878,71.140L68.000,70.993L68.061,70.883L68.086,70.683L68.146,70.461L68.219,70.260L68.281,70.120L68.443,69.940L68.673,69.825L68.925,69.773L69.151,69.783L69.116,69.721L69.212,69.684L69.315,69.710L69.419,69.758L69.519,69.783L69.917,69.783L70.103,69.834L70.316,69.945L70.538,70.004L70.750,69.900L70.701,69.862L70.646,69.840L70.587,69.832L70.527,69.839L70.527,69.783L71.969,70.155L72.536,70.466L73.697,71.417L73.833,71.583L73.944,71.785L74.032,72.174L74.117,72.414L74.178,72.656L74.148,72.831L74.177,72.958L74.185,73.120L74.180,73.417L74.290,73.802L74.271,73.876L74.212,73.955L74.094,74.381L74.099,74.460L74.088,74.539L73.881,75.130L73.733,75.421L73.682,75.482L73.633,75.575L73.622,75.786L73.634,76.157L73.609,76.316L73.525,76.600L73.507,76.748L73.440,76.971L73.432,77.085L73.407,77.130L73.040,77.299L72.961,77.397L72.892,77.338L72.867,77.405L72.854,77.511L72.816,77.566L72.784,77.595L72.671,77.785L72.344,78.178L72.291,78.270L72.239,78.293L71.921,77.847L71.783,77.798L71.551,77.594L71.423,77.566L71.423,77.622L71.590,77.794L71.687,77.871L71.902,77.925L71.951,77.952L71.972,77.990L71.968,78.122L71.952,78.159L71.857,78.133L71.802,78.141L71.703,78.176L71.647,78.183L71.588,78.166L71.458,78.072L71.354,78.080L71.127,78.163L71.008,78.183L71.132,78.247L71.910,78.301L72.004,78.240L71.987,78.393L71.618,78.807L71.677,78.856L71.751,78.892L71.921,78.919L71.970,78.867L72.005,78.783L72.025,78.774L72.033,78.947L71.977,79.077L71.710,79.349L71.470,79.526L71.318,79.596L70.991,79.649L70.903,79.635L70.860,79.593L70.785,79.425L70.633,79.197L70.591,79.087L70.578,79.243L70.508,79.332L70.335,79.425L70.191,79.573L70.157,79.593L70.154,79.638L70.141,79.736L70.119,79.835L70.095,79.880L70.040,79.894L69.965,79.966L69.917,79.991L69.860,79.990L69.757,79.942L69.712,79.930L69.597,79.944L69.380,80.037L69.276,80.104L69.349,80.143L69.434,80.155L69.513,80.199L69.567,80.329L69.699,80.185L69.998,80.113L70.141,80.048L70.276,79.927L70.358,79.910L70.431,79.991L70.440,80.061L70.426,80.141L70.407,80.203L70.396,80.216L70.406,80.282L70.424,80.346L70.460,80.446L70.413,80.491L70.395,80.561L70.396,80.752L70.380,80.796L70.343,80.837L70.271,80.895L70.398,80.886L70.443,80.914L70.460,80.952L70.332,81.188L70.093,81.425L69.883,81.570L69.826,81.608L69.616,81.682L69.246,81.615L69.116,81.626L69.113,81.622L69.052,81.620L69.033,81.623L69.021,81.626L69.015,81.639L68.925,81.733L68.856,81.758L68.793,81.761L68.733,81.778L68.670,81.845L68.594,81.766L68.569,81.768L68.467,81.775L68.143,81.869L68.118,81.928L68.105,82.011L68.075,82.103L68.014,82.185L67.946,82.228L67.877,82.257L67.808,82.300L68.107,82.244L68.146,82.218L68.168,82.160L68.184,82.102L68.206,82.075L68.511,81.983L69.259,82.103L69.327,82.157L69.385,82.274L69.391,82.353L69.344,82.398L69.247,82.412L69.080,82.371L69.007,82.374L68.859,82.530L68.688,82.576L68.603,82.637L68.639,82.683L68.671,82.740L68.706,82.790L68.750,82.811L69.151,82.811L69.343,82.867L69.306,82.770L69.285,82.656L69.308,82.577L69.406,82.581L69.415,82.686L69.466,82.836L69.533,82.971L69.584,83.030L70.579,83.155L71.157,82.957L72.667,82.802L72.781,82.878L72.738,83.148L72.721,83.200L72.699,83.249L72.673,83.289L72.642,83.316L72.476,83.315L72.451,83.344L72.465,83.521L72.498,83.659L72.575,83.878L72.616,84.204L72.578,84.518L72.482,84.780L72.355,84.950L72.043,85.070L71.914,85.179L71.862,85.185L71.760,85.175L71.705,85.197L71.659,85.249L71.619,85.308L71.583,85.349L71.490,85.392L71.184,85.400L71.093,85.428L70.998,85.498L70.814,85.686L70.575,86.074L70.529,86.170L70.541,86.383L70.591,86.702L70.429,86.774L70.077,86.644L69.761,86.529L69.575,86.597L69.116,87.095L68.928,87.191L67.915,87.433L67.742,87.519L67.718,87.518L67.667,87.595L67.621,87.682L67.611,87.714L67.451,87.831L67.277,88.107L67.104,88.110L67.012,88.094L66.797,88.004L66.746,87.994L66.581,87.996L66.539,87.969L66.457,87.879L66.371,87.847L66.172,87.831L66.093,87.799L65.201,87.435L65.047,87.418L65.034,87.426L64.921,87.493L64.750,87.416L64.152,87.657L63.351,87.657L62.585,87.943L62.544,87.927L62.505,87.889L62.466,87.862L62.422,87.882L62.397,87.954L62.428,88.109L62.406,88.193L62.318,88.249L62.211,88.211L61.784,87.905L61.750,87.856L61.776,87.772L61.838,87.718L61.973,87.657L61.973,87.606L61.927,87.567L61.835,87.465L61.781,87.433L61.759,87.460L61.702,87.496L61.668,87.486L61.714,87.376L61.664,87.345L61.620,87.318L61.472,87.287L61.360,87.287L61.327,87.286L61.239,87.315L61.179,87.461L61.137,87.658L61.073,87.814L60.949,87.831L60.854,87.711L60.898,87.567L60.984,87.427L61.012,87.315L60.928,87.264L60.924,87.264L60.635,87.290L60.566,87.315L60.729,87.467L60.757,87.519L60.769,87.679L60.752,87.767L60.690,87.831L60.629,87.827L60.544,87.790L60.468,87.736L60.435,87.685L60.404,87.609L60.254,87.518L60.143,87.411L59.989,87.352L59.927,87.315L59.846,87.206L59.751,87.076L59.236,86.752L59.155,86.702L59.155,86.753L59.202,86.779L59.288,86.840L59.346,86.850L59.461,87.006L59.826,87.462L59.867,87.574L59.853,87.672L59.747,87.714L59.447,87.743L59.379,87.769L59.413,87.798L59.443,87.831L59.443,87.882L59.230,87.926L59.110,87.975L59.057,88.022L59.036,88.025L58.883,87.994L58.731,88.305L58.721,88.339L58.712,88.341L58.621,88.310L58.521,88.235L58.201,88.167L58.190,88.167L58.096,88.168L57.993,88.202L57.813,88.309L57.728,88.331L57.608,88.306L57.432,88.269L57.328,88.275L57.234,88.309L57.146,88.363L57.143,88.365L57.064,88.436L56.992,88.531L56.942,88.572L56.921,88.516L56.913,88.432L56.898,88.387L56.719,88.331L56.596,88.341L56.558,88.331L56.542,88.300L56.539,88.290L56.503,88.191L56.479,88.168L56.436,88.210L56.275,88.505L56.336,88.496L56.391,88.473L56.443,88.437L56.495,88.387L56.595,88.589L56.649,88.651L56.735,88.673L56.813,88.672L56.882,88.689L56.914,88.753L56.881,88.893L56.950,88.943L56.977,88.954L56.814,89.179L56.824,89.301L56.737,89.347L56.356,89.356L56.277,89.337L55.926,89.151L55.059,89.042L54.898,88.928L54.799,88.945L54.623,89.011L54.569,89.090L54.510,89.266L54.484,89.442L54.527,89.521L54.645,89.564L54.657,89.669L54.608,89.798L54.542,89.915L54.513,89.915L54.509,89.603L54.401,89.398L53.422,88.556L52.618,88.219L52.513,88.214L52.241,88.284L52.160,88.305L51.995,88.429L51.884,88.443L51.707,88.387L51.653,88.406L51.546,88.505L51.522,88.521L51.445,88.596L51.400,88.618L51.351,88.612L51.261,88.568L51.208,88.556L51.119,88.573L50.962,88.655L50.772,88.706L50.718,88.789L50.675,88.898L50.605,89.011L50.265,89.179L50.160,89.173L50.081,89.144L50.018,89.077L49.961,88.954L49.900,88.758L49.881,88.725L49.867,88.717L49.857,88.699L49.843,88.681L49.815,88.673L49.800,88.691L49.794,88.730L49.799,88.768L49.858,88.843L49.920,89.126L49.961,89.235L49.877,89.324L49.802,89.438L49.734,89.578L49.673,89.746L49.621,89.971L49.625,90.132L49.708,90.476L49.603,90.484L49.499,90.514L49.418,90.582L49.386,90.701L49.419,90.837L49.500,90.881L49.708,90.870L49.708,90.926L49.661,91.069L49.657,91.099L49.615,91.107L49.579,91.130L49.555,91.172L49.523,91.378L49.467,91.422L49.394,91.396L49.319,91.324L49.285,91.508L49.186,91.575L49.081,91.607L49.032,91.687L49.007,91.826L48.959,91.997L48.932,92.191L48.968,92.397L48.898,92.438L48.710,92.499L48.630,92.509L48.525,92.480L48.440,92.432L48.367,92.422L48.298,92.509L48.124,92.329L47.853,91.949L47.546,91.632L47.494,91.605L47.451,91.617L47.331,91.694L47.285,91.712L47.259,91.731L47.196,91.811L47.158,91.830L47.106,91.817L47.058,91.785L46.983,91.712L46.994,91.682L47.012,91.605L46.910,91.572L46.806,91.487L46.757,91.361L46.821,91.206L46.649,91.220L46.598,91.206L46.538,91.160L46.510,91.107L46.490,91.040L46.452,90.956L46.417,90.820L46.452,90.704L46.515,90.594L46.566,90.476L46.473,90.528L46.425,90.523L46.374,90.476L46.359,90.542L46.355,90.565L46.319,90.624L46.271,90.653L46.214,90.650L46.214,90.701L46.282,90.752L46.301,90.836L46.285,90.923L46.243,90.987L46.183,91.009L45.956,90.987L46.035,91.114L46.301,91.066L46.406,91.155L46.243,91.206L46.243,91.263L46.283,91.251L46.374,91.263L46.339,91.324L46.470,91.324L46.470,91.375L46.417,91.397L46.386,91.440L46.381,91.497L46.406,91.554L46.406,91.605L46.307,91.597L46.257,91.497L46.213,91.380L46.132,91.324L45.733,91.206L45.518,91.233L45.179,91.474L44.996,91.554L44.227,91.605L44.228,91.618L44.214,91.642L44.190,91.662L44.163,91.661L44.099,91.436L44.066,91.430L44.038,91.451L44.013,91.479L43.986,91.493L43.892,91.503L43.796,91.539L43.743,91.606L43.780,91.712L43.780,91.774L43.748,91.804L43.704,91.857L43.666,91.917L43.650,91.970L43.657,92.020L43.682,92.075L43.682,92.110L43.626,92.264L43.618,92.310L43.571,92.367L43.339,92.326L43.251,92.368L43.164,92.487L43.082,92.541L42.883,92.616L42.821,92.689L42.626,93.071L42.569,92.968L42.542,92.677L42.482,92.616L42.389,92.645L42.386,92.718L42.394,92.812L42.335,92.902L42.335,92.953L42.363,92.977L42.434,93.071L42.394,93.067L42.364,93.082L42.306,93.127L42.261,93.164L42.255,93.225L42.258,93.292L42.239,93.352L42.198,93.388L42.048,93.464L42.101,93.461L42.141,93.474L42.207,93.520L42.231,93.524L42.285,93.512L42.306,93.520L42.317,93.556L42.333,93.665L42.352,93.688L42.373,93.758L42.312,93.909L42.179,94.138L42.135,94.149L42.041,94.129L41.984,94.138L41.952,94.169L41.814,94.356L41.759,94.548L41.743,94.593L41.701,94.574L41.654,94.530L41.513,94.352L41.491,94.313L41.471,94.256L41.454,94.152L41.458,94.086L41.456,94.028L41.423,93.946L41.289,93.699L41.214,93.596L41.122,93.520L40.841,93.368L40.652,93.329L40.495,93.221L40.417,93.183L40.320,93.190L40.197,93.238L40.108,93.323L40.110,93.435L40.138,93.579L40.087,93.689L40.003,93.766L39.933,93.806L39.741,93.876L39.517,93.904L39.341,93.826L39.291,93.576L39.337,93.569L39.370,93.554L39.390,93.520L39.391,93.468L39.378,93.429L39.363,93.407L39.355,93.407L39.330,93.252L39.322,93.165L39.339,93.127L39.348,93.099L39.436,92.927L39.473,92.898L39.611,92.841L39.909,92.645L40.068,92.582L40.248,92.451L40.350,92.448L40.495,92.605L40.589,92.657L40.686,92.590L40.753,92.468L40.786,92.387L40.800,92.310L40.825,92.279L40.992,92.279L41.165,92.170L41.701,91.535L41.872,91.399L41.936,91.375L41.952,91.333L41.956,91.238L41.950,91.135L41.919,90.969L41.971,90.928L42.042,90.922L42.077,90.926L42.402,90.729L42.412,90.682L42.456,90.571L42.498,90.251L42.503,90.085L42.519,89.943L42.564,89.829L42.658,89.746L42.753,89.746L42.787,89.718L42.848,89.639L42.883,89.629L42.910,89.674L42.931,89.769L42.943,89.882L42.947,89.976L42.979,89.954L42.991,89.941L43.008,89.915L43.093,89.973L43.287,89.984L43.362,90.027L43.311,89.917L43.229,89.862L43.075,89.797L43.002,89.691L43.010,89.614L43.033,89.546L43.008,89.460L43.008,89.409L43.125,89.435L43.473,89.409L43.607,89.359L43.681,89.238L43.735,89.089L43.809,88.954L43.780,88.831L43.797,88.743L43.843,88.703L43.908,88.725L44.239,88.405L44.294,88.303L44.330,88.158L44.418,88.046L44.613,87.882L44.740,87.595L44.718,86.869L44.770,86.529L44.802,86.460L44.868,86.253L44.850,86.190L44.832,86.072L44.828,85.957L44.851,85.905L45.267,85.905L45.318,85.924L45.415,86.005L45.462,86.023L45.733,86.056L45.828,86.023L45.898,85.966L46.214,85.573L46.240,85.526L46.261,85.476L46.290,85.432L46.339,85.400L46.310,85.321L46.254,85.097L46.243,85.037L46.227,84.986L46.148,84.853L46.116,84.782L46.272,84.796L46.307,84.782L46.338,84.693L46.331,84.606L46.296,84.536L46.243,84.496L46.243,84.445L46.600,84.287L47.454,84.198L47.630,84.125L47.717,84.108L48.055,84.108L48.158,84.086L48.307,83.998L48.391,83.990L48.996,84.166L49.372,84.152L49.957,84.302L50.096,84.448L50.187,84.496L50.721,84.470L51.057,84.353L51.226,84.327L51.534,84.345L51.717,84.316L51.849,84.215L51.884,84.271L51.820,84.389L51.884,84.445L51.964,84.275L51.980,84.215L51.988,84.109L51.979,84.056L51.963,84.012L51.948,83.934L51.951,83.626L51.937,83.470L51.884,83.372L51.975,83.403L52.023,83.380L52.023,83.378L52.041,83.304L52.043,83.176L52.080,83.100L52.145,83.026L52.175,82.949L52.105,82.867L52.206,82.749L52.356,82.783L52.528,82.597L52.845,82.131L52.928,82.057L53.011,82.004L53.103,81.973L53.213,81.963L53.312,81.918L53.407,81.810L53.820,81.031L53.858,80.998L53.907,80.974L53.948,80.938L53.965,80.865L53.976,80.798L54.001,80.722L54.033,80.652L54.060,80.604L54.328,80.295L54.487,80.056L54.568,80.006L54.768,79.930L54.845,79.854L54.881,79.759L54.869,79.666L54.800,79.593L54.780,79.746L54.696,79.832L54.588,79.870L54.495,79.880L54.407,79.916L54.343,80.005L54.286,80.116L54.220,80.216L53.942,80.419L53.898,80.471L53.855,80.552L53.551,80.950ZM60.949,88.387L61.044,88.556L61.044,88.618L61.023,88.618L61.010,88.632L61.000,88.653L60.984,88.673L60.809,88.732L60.734,88.773L60.605,88.902L60.577,88.941L60.566,88.983L60.569,89.160L60.564,89.252L60.548,89.291L60.031,89.463L59.861,89.409L59.251,88.923L59.219,88.873L59.064,88.749L59.010,88.725L58.834,88.749L58.758,88.784L58.674,88.842L58.787,88.611L58.971,88.433L59.379,88.219L59.368,88.246L59.356,88.302L59.347,88.331L59.462,88.316L59.571,88.215L59.730,87.994L59.847,87.903L59.953,87.895L60.661,88.219L60.777,88.215L60.826,88.226L60.882,88.275L60.885,88.296L60.879,88.365L60.882,88.387L60.895,88.393L60.936,88.381L60.949,88.387ZM61.523,87.606L61.523,87.657L61.548,87.684L61.590,87.741L61.622,87.769L61.622,87.831L61.239,87.769L61.239,87.714L61.342,87.666L61.464,87.429L61.523,87.433L61.568,87.478L61.580,87.527L61.563,87.572L61.523,87.606ZM70.271,82.637L70.370,82.756L70.415,82.877L70.388,82.975L70.271,83.030L69.726,82.979L69.634,82.940L69.552,82.849L69.486,82.736L69.441,82.637L69.502,82.411L69.535,82.361L69.596,82.343L70.175,82.564L70.220,82.593L70.271,82.637ZM44.613,67.334L44.634,67.380L44.675,67.429L44.701,67.493L44.677,67.582L44.638,67.602L44.591,67.581L44.496,67.490L44.400,67.302L44.355,67.244L44.314,67.233L44.178,67.244L44.148,67.227L44.068,67.081L44.068,67.025L44.192,66.907L44.247,66.941L44.300,66.943L44.384,66.932L44.419,66.963L44.489,67.037L44.551,67.124L44.596,67.223L44.613,67.334ZM46.853,67.025L46.989,67.019L47.054,67.034L47.111,67.081L47.015,67.192L46.853,67.514L46.741,67.582L46.626,67.605L46.508,67.668L46.398,67.760L46.307,67.867L46.290,67.893L46.281,67.915L46.278,67.948L46.278,68.008L46.274,68.074L46.260,68.081L46.239,68.073L46.075,68.199L46.002,68.297L45.704,68.486L45.655,68.503L45.597,68.491L45.477,68.434L45.476,68.453L45.448,68.480L45.411,68.498L45.382,68.486L45.375,68.438L45.378,68.362L45.386,68.292L45.396,68.261L45.433,68.225L45.487,68.148L45.511,68.071L45.462,68.036L45.391,68.073L45.288,68.232L45.219,68.261L45.215,68.235L45.060,68.092L45.047,68.086L45.009,68.097L44.996,68.092L44.993,68.070L44.999,68.002L44.996,67.980L44.997,67.956L44.991,67.895L44.976,67.834L44.881,67.739L44.726,67.417L44.642,67.306L44.642,67.244L44.669,67.161L44.679,67.036L44.677,66.857L44.700,66.583L44.690,66.464L44.642,66.341L44.724,66.276L45.323,66.061L45.382,66.059L45.706,66.116L45.794,66.121L45.972,66.228L46.018,66.273L46.041,66.371L46.052,66.470L46.068,66.514L46.064,66.536L46.122,66.584L46.189,66.624L46.214,66.626L46.219,66.668L46.214,66.724L46.212,66.774L46.229,66.795L46.234,66.814L46.307,66.907L46.333,67.002L46.342,67.072L46.362,67.116L46.421,67.132L46.480,67.124L46.588,67.089L46.646,67.081L46.673,67.062L46.714,66.982L46.741,66.963L46.773,66.973L46.832,67.015L46.853,67.025ZM36.857,50.555L37.098,50.592L37.147,50.616L37.159,50.704L37.130,50.808L37.085,50.900L37.051,50.953L37.059,50.887L37.061,50.847L37.066,50.818L37.083,50.780L36.975,50.686L36.860,50.675L36.744,50.689L36.637,50.672L36.688,50.623L36.740,50.586L36.795,50.563L36.857,50.555ZM42.306,48.925L42.202,48.999L42.211,49.107L42.259,49.235L42.271,49.370L42.207,49.446L42.086,49.498L41.872,49.538L41.621,49.513L41.407,49.437L41.213,49.314L41.021,49.145L41.021,49.089L41.019,49.035L40.976,48.814L40.957,48.752L40.957,48.695L40.981,48.675L40.990,48.654L40.999,48.628L41.021,48.589L40.905,48.424L40.818,48.260L40.777,48.063L40.800,47.797L40.863,47.619L40.976,47.442L41.121,47.315L41.279,47.286L41.269,47.258L41.257,47.197L41.247,47.169L41.368,47.161L41.407,47.169L41.710,47.321L41.792,47.399L41.889,47.552L41.954,47.727L42.048,48.134L41.994,48.245L42.196,48.455L42.207,48.639L42.162,48.667L42.094,48.670L42.051,48.698L42.077,48.808L42.115,48.838L42.306,48.925ZM42.498,46.949L42.548,46.984L42.584,47.047L42.593,47.116L42.561,47.169L42.502,47.165L42.457,47.094L42.402,46.949L42.097,46.663L42.048,46.526L41.994,46.295L41.984,46.188L41.822,46.078L41.792,46.017L41.755,45.891L41.698,45.748L41.704,45.620L41.857,45.540L42.001,45.662L42.144,45.821L42.186,45.847L42.227,45.854L42.259,45.879L42.285,46.066L42.319,46.105L42.362,46.121L42.402,46.157L42.459,46.267L42.502,46.375L42.535,46.488L42.583,46.744L42.577,46.794L42.547,46.837L42.498,46.949ZM37.820,47.118L37.809,47.211L37.811,47.304L37.825,47.388L37.852,47.454L37.852,47.506L37.797,47.534L37.748,47.569L37.712,47.617L37.690,47.685L37.661,47.623L37.577,47.751L37.469,47.849L37.346,47.918L37.214,47.960L37.015,47.928L36.956,47.960L36.921,48.134L36.901,48.165L36.856,48.216L36.738,48.313L36.619,48.357L36.507,48.317L36.442,48.134L36.470,47.947L36.572,47.830L36.825,47.685L36.724,47.394L36.667,47.324L36.481,47.233L36.442,47.230L36.462,47.081L36.581,46.930L36.794,46.724L36.692,46.674L36.558,46.651L36.425,46.673L36.331,46.753L36.221,47.038L36.155,47.173L36.006,47.278L35.857,47.500L35.798,47.567L35.667,47.589L35.608,47.510L35.613,47.376L35.673,47.230L35.650,47.215L35.631,47.183L35.607,47.169L35.656,47.034L35.865,46.724L35.708,46.612L35.769,46.559L35.808,46.508L35.827,46.430L35.833,46.301L35.846,46.198L35.881,46.132L36.050,46.011L36.305,45.897L36.360,45.835L36.413,45.794L36.474,45.821L36.439,45.873L36.381,46.106L36.381,46.157L36.416,46.305L36.451,46.365L36.509,46.382L36.509,46.326L36.474,46.164L36.574,45.981L36.724,45.831L36.891,45.734L37.007,45.575L37.067,45.540L37.134,45.521L37.204,45.477L37.265,45.421L37.307,45.371L37.354,45.387L37.384,45.419L37.400,45.469L37.420,45.820L37.484,46.277L37.498,46.526L37.527,46.602L37.592,46.686L37.663,46.753L37.707,46.781L37.729,46.811L37.718,46.879L37.696,46.955L37.690,47.005L37.713,47.050L37.744,47.081L37.820,47.118ZM37.001,44.043L37.036,44.014L37.109,44.044L37.147,44.013L37.133,43.981L37.125,43.959L37.112,43.906L37.191,43.894L37.264,43.860L37.317,43.862L37.339,43.962L37.188,44.218L37.134,44.383L37.147,44.528L37.054,44.598L36.926,44.635L36.797,44.631L36.701,44.579L36.773,44.521L36.808,44.426L36.832,44.317L36.875,44.217L36.972,44.090L37.001,44.043ZM38.908,43.962L39.147,43.722L39.290,43.628L39.390,43.676L39.407,43.754L39.421,43.867L39.415,43.969L39.341,44.041L39.271,44.163L39.177,44.259L38.990,44.718L38.596,45.491L38.494,45.821L38.444,45.802L38.329,45.947L38.251,45.989L38.217,46.052L38.171,46.369L38.140,46.495L38.020,46.578L37.838,46.566L37.670,46.456L37.597,46.247L37.556,45.851L37.565,45.708L37.611,45.580L37.681,45.523L37.761,45.481L37.836,45.399L37.974,45.286L38.341,45.214L38.494,45.085L38.383,45.082L38.211,45.130L38.052,45.136L37.983,45.003L38.040,44.815L38.172,44.603L38.315,44.428L38.411,44.355L38.553,44.311L38.908,43.962ZM39.419,43.226L39.454,43.287L39.488,43.416L39.392,43.501L39.247,43.549L39.135,43.563L39.185,43.428L39.261,43.349L39.419,43.226ZM39.677,42.720L39.702,42.749L39.725,42.769L39.748,42.765L39.773,42.720L39.783,42.836L39.747,42.954L39.700,43.074L39.657,43.331L39.610,43.281L39.520,43.058L39.568,42.979L39.620,42.783L39.677,42.720ZM39.677,42.266L39.735,42.221L39.842,42.240L39.904,42.209L39.877,42.308L39.832,42.375L39.807,42.445L39.837,42.552L39.731,42.617L39.644,42.562L39.614,42.430L39.677,42.266ZM40.029,41.480L40.176,41.486L40.242,41.470L40.287,41.423L40.215,41.565L40.130,41.661L40.029,41.709L39.904,41.704L39.926,41.627L39.954,41.573L40.029,41.480ZM37.214,41.025L36.969,41.039L36.852,41.021L36.730,40.912L36.778,40.833L36.831,40.778L36.889,40.747L36.956,40.744L37.024,40.816L37.165,40.929L37.214,41.025ZM34.135,40.463L34.376,40.375L34.494,40.381L34.553,40.525L34.487,40.628L34.205,40.662L34.196,40.800L34.103,40.879L33.999,40.899L33.898,40.942L33.813,41.086L33.841,41.233L33.743,41.237L33.450,41.105L33.409,41.009L33.382,40.880L33.335,40.744L33.436,40.688L33.753,40.637L33.857,40.599L34.030,40.489L34.135,40.463ZM39.419,41.311L39.460,41.367L39.528,41.483L39.563,41.596L39.503,41.648L39.350,41.652L39.283,41.619L39.291,41.530L39.263,41.496L39.234,41.480L39.202,41.476L39.167,41.480L39.182,41.587L39.126,41.684L38.972,41.816L38.972,41.878L39.047,41.821L39.131,41.785L39.307,41.760L39.384,41.799L39.352,41.889L39.271,41.986L38.856,42.264L38.672,42.308L38.523,42.209L38.553,42.185L38.604,42.131L38.647,42.060L38.653,41.985L38.615,41.940L38.557,41.945L38.443,41.985L38.419,42.011L38.393,42.069L38.361,42.128L38.317,42.154L38.159,42.189L37.787,42.377L37.707,42.465L37.654,42.509L37.595,42.493L37.537,42.455L37.484,42.434L37.436,42.451L37.325,42.527L37.275,42.552L36.841,42.552L36.813,42.578L36.792,42.636L36.763,42.694L36.715,42.720L36.657,42.715L36.560,42.683L36.431,42.607L36.347,42.516L36.278,42.390L36.251,42.238L36.293,42.121L36.394,42.053L36.512,42.030L36.605,42.046L36.679,42.133L36.741,42.253L36.807,42.324L36.892,42.266L36.892,42.209L36.855,42.201L36.835,42.187L36.819,42.171L36.794,42.154L36.879,42.116L37.090,42.163L37.163,42.126L37.243,42.051L37.565,41.985L37.776,41.835L37.865,41.745L37.836,41.704L37.743,41.729L37.469,41.878L37.242,41.935L37.126,41.927L37.034,41.847L37.012,41.759L37.033,41.677L37.078,41.615L37.130,41.592L37.192,41.576L37.227,41.536L37.295,41.367L37.309,41.307L37.331,41.249L37.371,41.199L37.416,41.183L37.581,41.199L37.860,41.070L37.916,41.025L37.943,40.942L37.947,40.862L37.927,40.794L37.884,40.744L37.583,40.897L37.484,40.912L37.448,40.933L37.408,40.970L37.366,40.985L37.323,40.944L37.247,40.774L37.204,40.698L37.147,40.637L37.051,40.582L36.614,40.509L36.524,40.467L36.446,40.410L36.381,40.346L36.605,40.182L36.566,40.106L36.470,40.001L36.442,39.901L36.614,39.886L36.690,39.851L36.764,39.784L36.806,39.848L36.847,39.881L36.886,39.881L36.921,39.845L36.932,39.686L37.071,39.582L37.255,39.525L37.406,39.508L37.470,39.552L37.690,39.621L37.682,39.658L37.669,39.747L37.661,39.784L37.806,39.797L37.921,39.962L38.111,40.407L38.125,40.464L38.125,40.519L38.137,40.560L38.186,40.576L38.653,40.576L38.691,40.605L38.725,40.654L38.759,40.685L38.832,40.637L38.878,40.628L38.924,40.637L38.956,40.662L39.060,40.822L39.100,40.856L39.145,40.870L39.232,40.855L39.263,40.856L39.316,40.899L39.380,40.975L39.432,41.070L39.454,41.171L39.489,41.188L39.557,41.172L39.606,41.204L39.582,41.367L39.543,41.339L39.505,41.325L39.419,41.311ZM35.815,39.309L35.771,39.391L35.706,39.557L35.673,39.621L35.638,39.669L35.602,39.704L35.558,39.726L35.497,39.733L35.325,39.962L35.081,40.156L35.003,40.182L34.890,40.134L34.835,40.134L34.812,40.210L34.793,40.295L34.751,40.250L34.707,40.149L34.681,40.070L34.809,40.047L34.933,39.928L35.144,39.593L35.198,39.525L35.348,39.415L35.458,39.369L35.597,39.249L35.673,39.222L35.801,39.201L35.847,39.224L35.815,39.309ZM31.446,36.576L31.469,36.631L31.483,36.699L31.502,36.763L31.541,36.801L31.406,36.797L31.366,36.827L31.328,36.880L31.290,36.919L31.254,36.946L31.220,36.965L31.245,37.041L31.206,37.096L31.133,37.128L31.060,37.139L30.757,37.082L30.685,37.047L30.687,36.968L30.740,36.888L30.819,36.853L30.873,36.815L30.896,36.729L30.885,36.636L30.836,36.576L30.951,36.495L31.064,36.471L31.151,36.401L31.188,36.178L31.209,36.179L31.224,36.190L31.254,36.235L31.286,36.238L31.310,36.248L31.330,36.265L31.350,36.291L31.283,36.432L31.254,36.464L31.404,36.540L31.446,36.576ZM36.442,36.178L36.686,36.329L36.789,36.442L36.701,36.516L36.701,36.576L36.825,36.576L36.762,36.876L36.672,37.046L36.543,37.121L36.364,37.139L36.280,37.094L36.204,36.898L36.138,36.853L36.067,36.821L35.920,36.673L35.833,36.628L36.114,36.315L36.259,36.202L36.442,36.178ZM35.128,36.235L35.200,36.175L35.362,36.083L35.450,36.061L35.504,36.108L35.618,36.137L35.673,36.178L35.550,36.243L35.399,36.269L35.249,36.262L35.128,36.235ZM38.156,34.320L38.033,34.271L37.926,34.162L37.897,34.048L38.009,33.982L38.169,34.014L38.292,34.133L38.311,34.260L38.156,34.320ZM32.148,33.982L32.203,34.037L32.247,34.105L32.297,34.152L32.374,34.146L32.351,34.266L32.307,34.312L32.252,34.339L32.197,34.403L32.169,34.478L32.121,34.647L32.087,34.713L31.997,34.753L31.637,34.662L31.637,34.713L31.937,34.802L32.020,34.881L32.062,35.008L32.083,35.181L32.072,35.345L32.020,35.443L31.939,35.393L31.849,35.378L31.669,35.387L31.669,35.443L31.752,35.458L31.920,35.435L31.991,35.443L32.072,35.508L32.126,35.595L32.184,35.663L32.278,35.672L32.278,35.724L32.170,35.833L31.784,35.756L31.637,35.841L31.502,35.687L31.461,35.599L31.340,35.166L31.322,35.033L31.350,34.937L31.350,34.881L31.270,34.773L31.220,34.730L31.158,34.713L31.218,34.646L31.254,34.588L31.315,34.431L31.337,34.345L31.348,34.273L31.371,34.225L31.431,34.207L31.466,34.094L31.410,33.843L31.286,33.471L31.378,33.406L31.591,33.304L31.637,33.303L32.055,33.584L32.016,33.614L31.983,33.617L31.892,33.584L31.892,33.640L31.996,33.659L32.143,33.793L32.247,33.809L32.247,33.865L32.117,33.930L32.017,33.884L31.931,33.802L31.737,33.691L31.645,33.561L31.553,33.471L31.446,33.527L31.475,33.554L31.506,33.591L31.531,33.632L31.541,33.669L31.556,33.738L31.590,33.754L31.632,33.750L31.669,33.758L31.782,33.809L31.801,33.826L31.860,33.926L31.931,33.959L32.075,33.961L32.148,33.982ZM32.055,32.685L32.047,32.721L32.045,32.727L32.039,32.726L32.020,32.742L32.060,32.776L32.099,32.770L32.139,32.751L32.183,32.742L32.215,32.756L32.343,32.854L32.313,32.905L32.250,32.868L32.144,32.961L32.055,32.966L32.080,33.047L32.120,33.079L32.229,33.079L32.296,33.104L32.333,33.160L32.327,33.216L31.922,33.330L31.800,33.303L31.436,33.090L31.382,32.994L31.405,32.840L31.468,32.712L31.560,32.634L31.669,32.629L31.724,32.669L31.782,32.687L31.839,32.677L31.892,32.629L31.920,32.667L31.958,32.687L32.003,32.692L32.055,32.685ZM37.661,33.809L37.610,33.739L37.602,33.601L37.639,33.072L37.674,32.936L37.749,32.870L37.884,32.854L37.884,32.798L37.852,32.759L37.826,32.716L37.789,32.629L37.841,32.577L37.888,32.573L37.983,32.629L37.983,32.567L37.916,32.455L37.958,32.466L37.993,32.489L38.022,32.523L38.044,32.567L38.024,32.692L37.948,32.935L37.880,33.219L37.884,33.471L37.921,33.532L37.985,33.668L38.011,33.803L37.932,33.865L37.855,33.894L37.781,33.947L37.706,33.975L37.626,33.926L37.638,33.867L37.646,33.842L37.661,33.809ZM38.111,32.399L38.038,32.362L38.009,32.275L38.022,32.165L38.076,32.062L38.055,32.041L38.054,32.033L38.044,32.001L38.076,31.951L38.109,31.916L38.140,31.910L38.172,31.950L38.112,32.267L38.111,32.399ZM32.683,31.288L32.752,31.293L32.855,31.295L32.941,31.342L32.983,31.444L32.935,31.490L32.856,31.629L32.824,31.663L32.759,31.652L32.712,31.594L32.676,31.530L32.646,31.500L32.594,31.482L32.487,31.383L32.278,31.383L32.278,31.444L32.333,31.449L32.365,31.466L32.370,31.500L32.343,31.551L32.343,31.613L32.478,31.603L32.519,31.642L32.534,31.753L32.566,31.828L32.642,31.831L32.792,31.781L32.700,31.961L32.586,32.039L32.313,32.062L32.279,32.074L32.211,32.115L32.183,32.118L32.150,32.085L32.109,31.976L32.087,31.950L32.026,31.966L31.829,32.118L31.829,32.180L32.165,32.180L32.440,32.103L32.534,32.118L32.614,32.147L32.644,32.175L32.662,32.230L32.646,32.282L32.551,32.455L32.356,32.442L32.260,32.457L32.183,32.517L32.107,32.461L31.944,32.474L31.860,32.455L31.816,32.426L31.799,32.406L31.745,32.309L31.729,32.264L31.707,32.219L31.669,32.180L31.709,32.176L31.800,32.118L31.646,32.105L31.363,31.928L31.220,31.894L31.188,31.947L31.156,31.983L31.124,32.001L31.086,31.993L31.028,31.958L30.953,31.929L30.741,31.781L30.741,31.725L30.846,31.655L30.919,31.513L30.983,31.350L31.060,31.214L31.159,31.267L31.478,31.214L31.478,31.270L31.441,31.276L31.350,31.326L31.434,31.433L31.573,31.300L31.720,31.097L31.829,30.995L31.829,31.046L31.800,31.075L31.778,31.109L31.733,31.214L31.988,31.316L32.087,31.326L32.087,31.270L32.056,31.263L31.991,31.214L32.091,31.173L32.310,31.016L32.438,30.995L32.497,31.072L32.514,31.149L32.486,31.217L32.403,31.270L32.479,31.316L32.621,31.245L32.683,31.288ZM35.325,33.809L35.248,33.873L34.819,33.732L34.709,33.662L34.621,33.562L34.585,33.444L34.542,33.229L34.348,33.089L34.298,32.905L34.585,32.905L34.520,32.833L34.478,32.745L34.470,32.646L34.504,32.542L34.567,32.452L34.615,32.429L34.660,32.456L34.907,32.804L34.936,32.879L34.979,32.931L35.064,32.995L35.126,33.008L35.099,32.905L35.099,32.854L35.119,32.838L35.138,32.812L35.160,32.798L35.079,32.704L35.067,32.685L35.053,32.658L35.011,32.599L35.003,32.567L35.014,32.532L35.057,32.515L35.067,32.486L35.104,32.446L35.187,32.456L35.325,32.517L35.279,32.368L35.160,32.237L35.018,32.147L34.901,32.118L34.963,32.037L35.012,31.914L35.022,31.797L34.968,31.725L34.968,31.663L35.065,31.665L35.131,31.727L35.184,31.802L35.287,31.868L35.305,31.935L35.312,32.011L35.325,32.062L35.370,32.115L35.402,32.139L35.619,32.254L35.670,32.297L35.723,32.374L35.789,32.443L35.851,32.437L35.916,32.405L35.995,32.399L35.889,32.644L35.936,32.658L36.036,32.535L36.091,32.374L36.153,32.404L36.509,32.854L36.509,32.798L36.486,32.770L36.462,32.717L36.442,32.685L36.445,32.573L36.380,32.468L36.219,32.287L36.141,32.115L36.158,32.031L36.221,31.949L36.280,31.781L36.223,31.791L36.170,31.782L36.124,31.759L36.091,31.725L36.112,31.613L36.087,31.546L36.048,31.499L36.024,31.444L36.019,31.347L36.029,31.318L36.061,31.309L36.249,31.195L36.280,31.163L36.320,31.064L36.348,30.965L36.382,30.908L36.442,30.934L36.478,30.920L36.493,30.908L36.509,30.878L36.549,30.964L36.591,31.016L36.701,31.102L36.744,31.159L36.859,31.344L36.875,31.383L37.083,31.551L37.173,31.661L37.222,31.741L37.243,31.810L37.286,32.382L37.331,32.628L37.339,32.742L37.326,32.865L37.284,33.051L37.275,33.163L37.249,33.225L37.126,33.340L37.083,33.416L37.140,33.362L37.218,33.308L37.300,33.280L37.371,33.303L37.411,33.387L37.385,33.466L37.335,33.533L37.307,33.584L37.330,33.720L37.398,33.805L37.468,33.866L37.498,33.926L37.464,33.999L37.306,34.090L37.243,34.146L37.643,34.095L37.750,34.124L37.770,34.191L37.715,34.266L37.597,34.320L37.597,34.376L37.724,34.363L37.827,34.313L37.923,34.301L38.027,34.403L38.071,34.436L38.133,34.443L38.251,34.431L38.321,34.464L38.365,34.539L38.396,34.616L38.427,34.662L38.494,34.668L38.536,34.630L38.564,34.577L38.589,34.545L38.783,34.553L38.917,34.424L39.047,34.378L39.185,34.379L39.263,34.483L39.611,34.483L39.533,34.687L39.535,34.741L39.556,34.830L39.538,34.910L39.502,34.976L39.407,35.101L39.237,35.239L39.167,35.274L38.981,35.292L38.949,35.348L38.940,35.530L38.895,35.642L38.797,35.719L38.698,35.772L38.653,35.813L38.616,35.876L38.342,36.248L38.266,36.321L38.180,36.380L37.931,36.427L37.865,36.398L37.820,36.291L37.835,36.149L37.961,35.970L37.948,35.897L37.948,35.841L37.976,35.823L37.989,35.800L38.009,35.724L38.023,35.688L38.055,35.647L38.141,35.491L38.183,35.436L38.235,35.387L38.685,35.167L38.685,35.111L38.556,35.179L38.426,35.216L38.027,35.224L38.001,35.202L37.995,35.153L37.993,35.096L37.983,35.050L37.872,34.870L37.812,34.797L37.756,34.769L37.776,34.855L37.797,34.920L37.852,35.050L37.803,35.170L37.771,35.228L37.724,35.274L37.756,35.335L37.699,35.402L37.660,35.494L37.617,35.576L37.548,35.612L37.488,35.548L37.461,35.401L37.442,35.235L37.434,35.111L37.397,35.066L37.371,35.054L37.345,35.071L37.307,35.111L37.273,35.060L37.235,35.024L37.193,35.004L37.147,34.999L37.147,35.050L37.215,35.116L37.134,35.169L36.474,35.335L36.474,35.274L36.527,35.230L36.669,35.050L36.669,34.999L36.582,34.995L36.499,35.016L36.420,35.056L36.347,35.111L36.257,34.977L36.187,34.825L36.238,34.803L36.282,34.773L36.318,34.728L36.347,34.662L36.132,34.681L36.054,34.658L35.833,34.376L35.821,34.348L35.798,34.271L35.784,34.235L35.760,34.200L35.739,34.180L35.722,34.153L35.708,34.095L35.923,33.947L36.016,33.908L36.120,33.926L36.203,33.996L36.286,34.095L36.384,34.180L36.509,34.207L36.448,34.098L36.155,33.865L36.095,33.793L36.064,33.768L36.010,33.758L35.958,33.768L35.856,33.809L35.798,33.809L35.865,33.758L35.865,33.696L35.828,33.689L35.737,33.640L35.771,33.628L35.785,33.616L35.798,33.584L35.755,33.562L35.724,33.518L35.714,33.451L35.737,33.359L35.668,33.377L35.575,33.488L35.514,33.527L35.537,33.455L35.542,33.378L35.526,33.304L35.482,33.242L35.443,33.350L35.389,33.385L35.334,33.407L35.290,33.471L35.283,33.566L35.334,33.716L35.325,33.809ZM32.247,30.821L32.445,30.615L32.534,30.596L32.577,30.684L32.493,30.776L32.357,30.835L32.247,30.821ZM25.710,29.805L25.783,29.861L25.952,29.883L26.031,29.922L25.953,30.016L25.850,30.039L25.758,29.973L25.710,29.805ZM33.079,29.238L33.063,29.331L33.030,29.385L32.981,29.411L32.917,29.417L32.927,29.349L32.929,29.332L32.923,29.328L32.917,29.299L33.111,29.121L33.215,29.075L33.300,29.131L33.301,29.308L33.245,29.341L33.079,29.238ZM33.880,26.649L33.929,26.651L33.944,26.649L33.944,26.597L33.885,26.566L33.838,26.488L33.819,26.395L33.848,26.312L33.937,26.348L34.087,26.509L34.135,26.480L34.177,26.521L34.213,26.572L34.242,26.632L34.263,26.705L33.880,26.705L33.880,26.649ZM33.497,30.540L33.411,30.626L33.377,30.612L33.140,30.346L33.094,30.321L32.811,29.984L32.760,29.947L32.739,29.888L32.705,29.825L32.703,29.774L32.776,29.754L32.834,29.765L32.873,29.803L32.898,29.871L32.917,29.974L33.300,29.636L33.358,29.544L33.464,29.512L33.689,29.519L33.463,29.355L33.463,29.299L33.701,29.168L33.840,29.138L33.980,29.168L34.072,29.238L34.027,29.197L33.981,29.161L33.944,29.130L33.928,29.107L33.915,29.080L34.003,29.025L34.040,29.018L34.040,28.962L33.769,28.962L33.704,28.935L33.582,28.815L33.512,28.788L33.242,28.800L33.118,28.756L33.079,28.625L33.020,28.672L32.980,28.671L32.760,28.513L32.836,28.453L32.891,28.384L32.952,28.334L33.045,28.339L33.045,28.288L33.031,28.270L33.027,28.262L33.025,28.252L33.015,28.227L33.157,28.206L33.310,28.155L33.593,28.002L33.153,28.116L33.015,28.114L33.037,28.039L33.074,27.999L33.121,27.989L33.175,28.002L33.175,27.951L33.045,27.951L33.087,27.924L33.124,27.886L33.153,27.838L33.175,27.778L32.972,27.916L32.934,27.920L32.797,27.652L32.760,27.609L32.785,27.511L32.758,27.475L32.717,27.457L32.696,27.412L32.711,27.308L32.763,27.236L32.760,27.154L32.801,27.140L32.819,27.121L32.831,27.091L32.853,27.047L32.819,27.033L32.785,27.000L32.760,26.985L32.760,26.935L33.111,26.913L33.207,26.874L33.084,26.820L33.035,26.776L33.015,26.677L33.025,26.576L33.053,26.520L33.143,26.419L33.212,26.469L33.394,26.562L33.430,26.567L33.465,26.539L33.721,26.649L33.721,26.705L33.582,26.696L33.613,26.813L33.710,26.953L33.769,27.016L33.763,27.143L33.811,27.314L33.882,27.471L33.944,27.553L33.935,27.479L33.933,27.433L33.944,27.323L33.911,27.271L33.841,27.127L33.813,27.047L33.860,27.016L33.877,26.956L33.883,26.899L33.898,26.874L34.105,26.825L34.151,26.789L34.230,26.767L34.351,26.824L34.463,26.927L34.518,27.047L34.646,26.874L34.529,26.806L34.489,26.761L34.471,26.711L34.444,26.583L34.423,26.537L34.395,26.526L34.326,26.544L34.298,26.537L34.289,26.515L34.271,26.441L34.263,26.419L34.210,26.345L34.186,26.304L34.167,26.255L34.191,26.239L34.210,26.219L34.232,26.203L34.263,26.199L34.239,26.140L34.217,26.101L34.186,26.084L34.135,26.087L34.517,25.770L34.617,25.638L34.674,25.669L34.709,25.648L34.738,25.607L34.777,25.581L34.936,25.581L35.061,25.547L35.356,25.400L35.398,25.365L35.516,25.217L36.347,24.621L36.577,24.341L36.712,24.219L36.825,24.228L36.919,24.325L37.002,24.473L37.061,24.631L37.083,24.762L37.168,24.894L37.182,24.981L37.098,25.020L37.063,25.066L36.956,25.408L36.995,25.461L37.048,25.501L37.110,25.522L37.179,25.520L37.179,25.581L37.079,25.628L36.870,25.776L36.794,25.857L36.817,25.930L36.810,25.984L36.776,26.019L36.715,26.031L36.659,26.057L36.615,26.173L36.476,26.225L36.467,26.285L36.480,26.358L36.474,26.419L36.431,26.460L36.380,26.477L36.251,26.480L36.337,26.613L36.509,26.663L36.696,26.651L36.825,26.597L37.051,26.368L37.122,26.330L37.209,26.302L37.258,26.307L37.214,26.368L37.214,26.419L37.243,26.419L37.221,26.459L37.199,26.510L37.179,26.537L37.191,26.567L37.214,26.649L37.091,26.705L37.050,26.733L37.017,26.771L36.973,26.850L36.956,26.874L36.870,26.916L36.806,26.906L36.669,26.817L36.590,26.792L36.381,26.817L36.303,26.792L36.164,26.707L36.091,26.705L36.200,27.005L36.251,27.099L36.212,27.135L36.195,27.168L36.199,27.209L36.219,27.272L36.136,27.334L35.900,27.384L35.743,27.567L35.673,27.609L35.629,27.606L35.558,27.559L35.514,27.553L35.386,27.665L35.142,27.728L35.067,27.721L35.067,27.778L35.245,27.782L35.852,27.645L35.996,27.563L36.059,27.553L36.120,27.595L36.168,27.677L36.192,27.782L36.187,27.889L36.206,27.904L36.251,27.951L36.215,27.997L36.177,28.030L36.136,28.051L36.091,28.058L36.142,28.093L36.197,28.113L36.255,28.120L36.315,28.114L36.228,28.208L36.162,28.301L36.088,28.372L35.978,28.400L35.540,28.328L35.441,28.290L35.415,28.288L35.388,28.349L35.427,28.386L35.528,28.426L35.601,28.494L35.767,28.540L35.833,28.625L35.833,28.682L35.788,28.715L35.713,28.846L35.673,28.901L35.590,28.959L35.531,28.954L35.471,28.923L35.386,28.901L35.386,28.962L35.407,28.977L35.429,29.001L35.450,29.018L35.450,29.080L35.345,29.130L35.258,29.113L35.186,29.051L35.128,28.962L35.087,28.851L35.062,28.806L35.018,28.788L34.994,28.831L35.019,28.924L35.064,29.023L35.099,29.080L35.067,29.131L34.918,29.059L34.872,29.018L34.848,28.976L34.819,28.875L34.691,28.628L34.654,28.518L34.646,28.400L34.715,28.185L34.850,28.065L35.020,28.013L35.195,28.002L35.195,27.951L34.745,27.951L34.745,28.002L34.724,28.095L34.615,28.227L34.482,28.346L34.391,28.400L34.452,28.490L34.549,28.737L34.601,28.788L34.668,28.818L34.722,28.884L34.767,28.961L34.812,29.018L34.786,29.034L34.767,29.056L34.744,29.074L34.710,29.080L34.742,29.132L34.782,29.156L34.819,29.168L34.840,29.187L34.853,29.242L34.872,29.417L34.489,29.327L34.327,29.238L34.283,29.265L34.258,29.307L34.235,29.359L34.196,29.417L34.249,29.451L34.349,29.492L34.391,29.519L34.500,29.707L34.518,29.754L34.494,29.819L34.430,29.860L34.346,29.875L34.263,29.866L34.263,29.922L34.298,29.922L34.298,29.974L34.194,29.957L33.976,29.805L33.944,29.866L33.969,29.885L34.008,29.943L34.040,29.974L33.988,30.054L33.937,30.108L33.813,30.203L33.836,30.219L33.859,30.244L33.880,30.259L33.783,30.353L33.497,30.540ZM52.206,21.521L52.421,21.537L52.530,21.585L52.522,21.685L52.390,21.764L52.363,21.797L52.355,21.870L52.380,21.927L52.389,21.975L52.331,22.022L52.382,22.161L52.402,22.272L52.370,22.357L52.267,22.420L52.043,22.201L52.043,22.139L52.106,22.080L52.057,21.956L51.913,21.746L51.968,21.783L52.027,21.795L52.085,21.783L52.140,21.746L52.140,21.685L51.820,21.685L51.820,21.633L52.000,21.560L52.206,21.521ZM50.825,21.914L50.965,21.905L51.238,21.784L51.371,21.797L51.256,21.959L51.024,22.022L50.587,22.022L50.564,21.983L50.474,21.772L50.454,21.699L50.408,21.653L50.354,21.616L50.312,21.577L50.216,21.409L50.211,21.362L50.229,21.327L50.240,21.291L50.216,21.240L50.183,21.230L50.128,21.278L50.106,21.268L50.060,21.233L50.013,21.241L49.975,21.234L49.961,21.151L50.030,20.990L50.040,20.959L50.148,20.861L50.353,20.792L50.410,20.791L50.482,20.833L50.642,20.978L50.745,21.010L50.836,21.059L51.083,21.409L51.017,21.460L51.017,21.521L51.072,21.526L51.111,21.550L51.179,21.633L51.179,21.685L51.090,21.696L50.979,21.733L50.880,21.803L50.825,21.914ZM53.260,20.444L53.325,20.477L53.353,20.542L53.360,20.637L53.358,20.760L53.320,20.818L53.231,20.861L53.052,20.898L52.991,20.939L52.884,21.126L52.810,21.179L52.737,21.170L52.384,21.034L52.328,20.987L52.280,20.918L52.110,20.584L52.074,20.533L52.016,20.543L51.950,20.624L51.875,20.694L51.788,20.673L51.741,20.708L51.698,20.703L51.651,20.683L51.591,20.673L51.658,20.791L51.513,20.779L51.457,20.808L51.435,20.898L51.320,20.853L51.038,20.896L50.921,20.791L50.871,20.608L50.886,20.430L50.943,20.275L51.017,20.163L51.017,20.111L50.982,20.061L50.956,20.006L50.936,19.948L50.921,19.887L50.870,19.915L50.837,19.953L50.831,20.000L50.860,20.055L50.860,20.111L50.816,20.085L50.775,20.074L50.736,20.083L50.697,20.111L50.740,20.146L50.757,20.197L50.752,20.261L50.761,20.275L50.785,20.383L50.746,20.458L50.633,20.561L50.633,20.613L50.475,20.557L50.335,20.346L50.272,20.072L50.346,19.826L50.378,19.770L50.349,19.398L50.473,19.156L50.681,19.023L50.906,18.983L51.132,18.994L51.256,19.034L51.418,19.184L51.480,19.182L51.538,19.157L51.591,19.151L51.639,19.186L51.713,19.285L51.756,19.315L51.689,19.365L51.658,19.371L51.746,19.463L52.012,19.601L51.978,19.614L51.963,19.626L51.948,19.657L51.969,19.674L51.991,19.698L52.012,19.713L51.735,19.815L51.693,19.797L51.654,19.929L51.561,20.050L51.454,20.137L51.371,20.163L51.441,20.219L51.531,20.253L51.707,20.275L51.778,20.221L51.850,20.119L51.930,20.061L52.106,20.212L52.172,20.195L52.234,20.142L52.299,20.111L52.373,20.154L52.423,20.233L52.475,20.278L52.555,20.219L52.545,20.257L52.531,20.353L52.522,20.393L52.619,20.411L52.699,20.367L52.776,20.306L52.861,20.275L52.967,20.268L53.012,20.284L53.036,20.336L53.006,20.419L52.816,20.545L52.746,20.613L52.799,20.719L52.866,20.787L52.946,20.812L53.036,20.791L52.971,20.617L52.940,20.561L53.026,20.554L53.183,20.458L53.260,20.444ZM54.127,19.212L54.097,19.307L54.126,19.357L54.255,19.432L54.171,19.517L53.968,19.546L53.869,19.601L53.859,19.415L53.789,19.322L53.695,19.311L53.614,19.371L53.626,19.501L53.526,19.534L53.454,19.471L53.550,19.315L53.620,19.285L53.693,19.277L53.751,19.246L53.773,19.151L53.743,19.103L53.598,18.960L53.550,18.927L53.736,18.868L53.802,18.876L53.802,18.927L53.787,18.952L53.773,18.983L53.903,18.979L53.959,18.993L53.999,19.034L53.939,19.020L53.890,19.064L53.879,19.139L53.933,19.212L53.989,19.227L54.049,19.210L54.159,19.151L54.161,19.193L54.153,19.204L54.140,19.203L54.127,19.212ZM51.964,19.151L51.816,19.142L51.680,19.105L51.557,19.029L51.450,18.901L51.423,18.751L51.508,18.639L51.639,18.579L51.756,18.585L51.762,18.601L51.770,18.634L51.787,18.671L51.820,18.697L51.850,18.704L51.884,18.704L52.076,18.662L52.136,18.662L52.206,18.697L52.209,18.738L52.202,18.750L52.188,18.750L52.172,18.758L52.093,18.860L52.108,18.991L52.102,19.104L51.964,19.151ZM52.781,18.585L52.840,18.631L52.888,18.626L52.934,18.600L52.987,18.585L52.992,18.556L52.967,18.414L52.972,18.360L52.959,18.255L52.978,18.170L53.027,18.123L53.103,18.130L53.103,18.192L53.068,18.192L53.068,18.247L53.130,18.235L53.185,18.245L53.229,18.284L53.260,18.360L53.229,18.431L53.125,18.575L53.103,18.616L53.103,18.745L53.113,18.853L53.150,18.920L53.228,18.927L53.228,18.983L53.089,19.031L53.008,19.041L52.972,19.009L52.956,18.899L52.914,18.821L52.852,18.774L52.781,18.758L52.781,18.585ZM54.574,17.793L54.675,17.650L54.740,17.580L54.768,17.601L54.812,17.777L54.826,17.856L54.605,17.866L54.516,17.908L54.478,17.998L54.427,18.042L54.336,18.236L54.303,18.284L54.255,18.309L54.248,18.130L54.169,18.138L53.965,18.360L53.988,18.274L53.999,18.247L53.999,18.192L53.909,18.241L53.871,18.237L53.837,18.192L53.664,18.411L53.567,18.500L53.486,18.477L53.474,18.589L53.447,18.640L53.423,18.622L53.422,18.529L53.445,18.411L53.478,18.368L53.522,18.350L53.581,18.309L53.624,18.255L53.701,18.129L53.741,18.079L53.797,18.052L53.843,18.053L53.877,18.025L53.898,17.911L53.872,17.886L53.802,17.793L53.914,17.792L54.103,17.689L54.220,17.681L54.220,17.742L54.151,17.782L54.081,17.839L53.965,17.972L54.000,17.981L54.014,17.993L54.028,18.023L54.082,17.976L54.236,17.947L54.359,17.823L54.430,17.812L54.505,17.813L54.574,17.793ZM51.756,17.573L51.712,17.547L51.673,17.549L51.643,17.534L51.626,17.456L51.723,17.454L51.873,17.486L51.948,17.456L52.078,17.283L52.149,17.235L52.236,17.292L52.237,17.328L52.231,17.337L52.219,17.336L52.206,17.343L52.155,17.405L52.152,17.445L52.172,17.517L52.075,17.523L52.043,17.517L52.043,17.573L52.409,17.678L52.475,17.712L52.564,17.926L52.590,17.972L52.643,18.003L52.693,18.009L52.739,18.023L52.781,18.079L52.781,18.130L52.687,18.130L52.631,18.170L52.522,18.309L52.529,18.236L52.537,18.180L52.555,18.131L52.590,18.079L52.359,17.875L52.232,17.808L52.105,17.793L52.105,17.855L52.128,17.885L52.172,17.972L52.105,17.911L52.069,17.983L52.035,18.007L51.997,17.998L51.948,17.972L51.916,17.943L51.892,17.898L51.824,17.726L51.815,17.681L51.800,17.637L51.756,17.573ZM58.291,15.852L58.327,15.715L58.413,15.631L58.518,15.595L58.610,15.597L58.613,15.637L58.606,15.649L58.594,15.649L58.581,15.659L58.514,15.671L58.493,15.701L58.482,15.765L58.546,15.765L58.546,15.827L58.468,15.872L58.385,15.951L58.318,15.974L58.291,15.852ZM62.343,6.915L62.415,6.931L62.465,6.977L62.482,7.048L62.454,7.140L62.340,7.234L62.209,7.200L62.074,7.136L61.941,7.140L61.941,7.201L61.967,7.227L61.981,7.252L61.992,7.278L62.008,7.308L61.880,7.282L61.778,7.148L61.622,6.864L61.622,6.803L62.167,6.803L62.217,6.827L62.224,6.881L62.218,6.938L62.228,6.971L62.269,6.974L62.301,6.953L62.325,6.928L62.343,6.915ZM60.882,8.550L60.924,8.414L60.996,8.319L61.084,8.270L61.175,8.269L61.108,8.411L60.778,8.757L60.751,8.819L60.757,8.886L60.786,8.900L60.822,8.860L60.867,8.779L60.894,8.755L60.955,8.716L61.017,8.716L61.044,8.805L61.042,8.851L61.030,8.936L61.007,9.018L60.966,9.055L60.601,9.090L60.531,9.116L60.627,9.201L60.863,9.252L60.984,9.336L60.760,9.538L60.708,9.566L60.691,9.584L60.688,9.627L60.695,9.674L60.708,9.709L60.730,9.722L60.764,9.679L60.789,9.683L60.825,9.704L60.888,9.713L60.916,9.734L60.729,9.896L60.645,9.929L60.566,9.908L60.519,9.799L60.481,9.739L60.435,9.734L60.405,9.780L60.410,9.832L60.436,9.879L60.470,9.908L60.470,9.959L60.425,9.958L60.386,9.970L60.310,10.015L60.310,10.066L60.499,10.066L60.468,10.122L60.443,10.179L60.403,10.296L60.490,10.184L60.536,10.145L60.598,10.128L60.460,10.403L60.435,10.525L60.511,10.430L60.611,10.392L60.663,10.433L60.598,10.577L60.757,10.694L60.757,10.745L60.627,10.745L60.627,10.807L60.661,10.807L60.661,10.863L60.584,10.815L60.537,10.856L60.487,10.913L60.403,10.914L60.470,10.975L60.448,11.044L60.424,11.082L60.389,11.097L60.339,11.093L60.339,11.144L60.376,11.152L60.470,11.200L60.390,11.293L60.434,11.402L60.520,11.480L60.566,11.481L60.541,11.598L60.470,11.661L60.383,11.676L60.310,11.649L60.330,11.761L60.435,11.997L60.395,12.088L60.327,12.084L60.180,11.997L60.200,12.167L60.189,12.340L60.150,12.495L60.084,12.610L60.065,12.570L60.052,12.553L60.090,12.649L60.104,12.740L60.093,12.836L60.052,12.947L60.103,13.006L60.116,13.076L60.097,13.138L60.052,13.176L60.034,13.136L59.957,13.008L59.920,13.093L59.881,13.083L59.873,13.020L59.927,12.947L59.927,12.891L59.856,12.832L59.710,12.865L59.634,12.830L59.578,12.728L59.662,12.622L59.634,12.492L59.673,12.425L59.719,12.385L59.771,12.370L59.826,12.380L59.826,12.333L59.741,12.242L59.701,12.216L59.701,12.160L59.826,12.160L59.799,12.013L59.849,11.885L59.920,11.746L59.991,11.354L60.059,11.193L60.108,11.030L60.084,10.807L60.059,10.774L60.032,10.783L60.006,10.776L59.985,10.694L59.989,10.663L60.002,10.622L60.077,10.451L60.029,10.453L59.961,10.498L59.942,10.525L59.890,10.519L59.875,10.490L59.890,10.421L59.958,10.204L59.995,10.123L60.038,10.057L60.084,10.015L60.084,9.959L59.994,9.950L59.926,10.036L59.797,10.296L59.732,10.105L59.664,9.966L59.566,9.880L59.414,9.847L59.414,9.908L59.504,9.948L59.578,10.019L59.641,10.117L59.701,10.240L59.669,10.357L59.578,10.272L59.535,10.244L59.475,10.240L59.477,10.391L59.444,10.499L59.402,10.520L59.379,10.408L59.322,10.455L59.303,10.541L59.290,10.632L59.251,10.694L59.207,10.691L59.025,10.577L59.015,10.560L58.915,10.458L58.900,10.465L58.871,10.389L58.874,10.351L58.900,10.296L58.954,10.249L59.095,10.215L59.155,10.189L59.096,10.148L58.981,9.974L58.961,10.040L58.936,10.153L58.881,10.229L58.827,10.241L58.801,10.159L58.773,10.086L58.706,10.105L58.564,10.189L58.460,10.201L58.416,10.189L58.390,10.159L58.385,10.118L58.378,10.082L58.340,10.066L58.244,10.052L58.205,10.005L58.160,9.790L58.109,9.630L58.127,9.583L58.195,9.510L58.263,9.457L58.350,9.414L58.440,9.390L58.517,9.397L58.586,9.450L58.637,9.518L58.693,9.568L58.772,9.566L58.738,9.453L58.900,9.510L58.900,9.453L58.866,9.453L58.866,9.397L59.085,9.372L59.150,9.438L59.155,9.683L59.179,9.675L59.231,9.642L59.251,9.622L59.228,9.576L59.202,9.489L59.187,9.453L59.283,9.453L59.271,9.420L59.251,9.336L59.360,9.293L59.483,9.328L59.586,9.439L59.634,9.622L59.700,9.526L59.765,9.453L59.634,9.336L59.730,9.116L59.762,9.150L59.792,9.162L59.861,9.168L59.802,9.074L59.886,9.048L60.119,9.055L60.007,8.985L59.869,8.958L59.758,8.895L59.730,8.718L59.641,8.811L59.590,8.841L59.539,8.830L59.489,8.768L59.473,8.688L59.488,8.610L59.539,8.550L59.539,8.493L59.393,8.495L59.330,8.478L59.283,8.432L59.296,8.330L59.288,8.187L59.251,7.926L59.188,8.086L59.139,8.173L59.092,8.212L59.019,8.184L59.003,8.117L59.031,8.040L59.092,7.982L58.997,7.984L58.920,8.005L58.848,8.001L58.772,7.926L58.730,8.022L58.662,8.054L58.500,8.044L58.487,7.999L58.512,7.903L58.554,7.807L58.596,7.763L58.711,7.774L58.738,7.763L58.761,7.706L58.764,7.646L58.761,7.588L58.772,7.538L58.817,7.459L58.872,7.395L58.933,7.387L58.996,7.477L59.054,7.650L59.208,7.790L59.384,7.844L59.539,7.763L59.486,7.725L59.416,7.709L59.298,7.706L59.264,7.677L59.223,7.614L59.167,7.555L59.092,7.538L59.131,7.480L59.195,7.337L59.219,7.308L59.271,7.296L59.414,7.201L59.366,7.153L59.347,7.140L59.389,7.080L59.400,7.040L59.393,7.008L59.379,6.971L59.493,6.922L59.621,6.939L59.748,7.001L59.861,7.088L59.875,7.054L59.893,7.028L59.811,6.948L59.821,6.864L59.927,6.685L59.974,6.849L59.977,6.915L59.957,6.971L59.970,7.043L59.964,7.095L59.937,7.128L59.893,7.140L59.927,7.329L59.889,7.417L59.821,7.480L59.765,7.589L59.861,7.589L59.838,7.630L59.817,7.644L59.765,7.650L59.791,7.666L59.806,7.684L59.824,7.699L59.861,7.706L59.765,7.982L59.809,7.974L59.852,7.954L59.891,7.921L59.927,7.875L59.957,7.926L59.891,8.051L59.878,8.102L59.893,8.151L59.893,8.212L59.803,8.248L59.691,8.534L59.605,8.606L59.605,8.667L59.665,8.673L59.723,8.666L59.777,8.644L59.826,8.606L59.820,8.457L59.947,8.373L60.244,8.325L60.022,8.176L59.957,8.100L60.005,8.038L60.064,7.992L60.111,8.014L60.119,8.151L60.161,8.102L60.257,7.955L60.275,7.901L60.319,7.879L60.404,7.925L60.465,8.008L60.435,8.100L60.494,8.124L60.542,8.166L60.577,8.230L60.598,8.325L60.573,8.362L60.566,8.381L60.627,8.432L60.569,8.476L60.467,8.425L60.419,8.462L60.381,8.519L60.335,8.562L60.288,8.591L60.304,8.610L60.360,8.597L60.470,8.550L60.452,8.570L60.403,8.606L60.403,8.667L60.562,8.586L60.617,8.620L60.627,8.779L60.661,8.779L60.680,8.694L60.696,8.689L60.718,8.702L60.757,8.667L60.776,8.618L60.790,8.556L60.812,8.491L60.852,8.432L60.869,8.459L60.876,8.486L60.882,8.550ZM61.396,6.236L61.345,6.335L61.350,6.414L61.431,6.573L61.403,6.662L61.366,6.746L61.215,6.591L61.137,6.533L61.044,6.522L61.100,6.582L61.164,6.687L61.271,6.915L61.209,6.957L61.144,6.974L61.077,6.962L61.012,6.915L61.035,7.006L61.092,7.059L61.166,7.083L61.239,7.088L61.230,7.116L61.229,7.123L61.204,7.140L61.284,7.223L61.286,7.323L61.230,7.405L61.140,7.426L61.210,7.568L61.231,7.638L61.239,7.735L61.225,7.838L61.187,7.857L61.076,7.814L60.962,7.820L60.906,7.799L60.882,7.735L60.865,7.739L60.838,7.771L60.832,7.821L60.882,7.875L60.882,7.926L60.726,7.895L60.616,7.794L60.551,7.612L60.494,6.837L60.535,6.661L60.690,6.634L60.690,6.685L60.677,6.783L60.728,6.881L60.801,6.937L60.852,6.915L60.838,6.877L60.772,6.660L60.757,6.547L60.770,6.493L60.815,6.372L60.803,6.348L60.777,6.316L60.773,6.242L60.784,6.157L60.803,6.095L60.850,6.005L60.905,5.926L60.962,5.924L61.012,6.067L61.067,5.972L61.163,5.944L61.366,5.961L61.368,6.071L61.360,6.105L61.332,6.123L61.332,6.185L61.355,6.197L61.375,6.221L61.396,6.236ZM61.781,6.348L61.641,6.364L61.568,6.346L61.494,6.298L61.517,6.217L61.523,6.139L61.514,6.069L61.494,6.011L61.576,6.069L61.601,6.003L61.589,5.885L61.558,5.786L61.636,5.756L61.681,5.644L61.681,5.520L61.622,5.454L61.622,5.393L61.695,5.360L61.784,5.279L61.848,5.183L61.845,5.107L61.890,5.023L61.943,5.022L61.989,5.085L62.008,5.197L61.989,5.288L61.943,5.341L61.889,5.387L61.845,5.454L61.858,5.478L61.915,5.454L61.981,5.408L62.022,5.365L62.122,5.063L62.167,5.000L62.198,5.040L62.225,5.051L62.292,5.057L62.351,5.080L62.402,5.119L62.439,5.185L62.454,5.286L62.417,5.290L62.327,5.337L62.418,5.386L62.454,5.393L62.384,5.463L62.291,5.512L62.231,5.570L62.263,5.669L62.263,5.731L62.171,5.735L62.203,5.747L62.233,5.763L62.263,5.786L62.263,5.848L62.071,6.019L62.037,6.067L62.070,6.167L62.136,6.259L62.168,6.340L62.101,6.409L62.055,6.415L62.016,6.395L61.980,6.368L61.941,6.348L61.849,6.341L61.781,6.348ZM36.565,94.787L36.596,94.815L36.634,94.892L36.618,94.964L36.573,95.000L36.517,94.967L36.525,94.853L36.565,94.787ZM36.402,94.588L36.429,94.613L36.436,94.674L36.408,94.736L36.367,94.711L36.335,94.617L36.331,94.550L36.364,94.556L36.388,94.578L36.402,94.588ZM44.201,84.518L44.208,84.571L44.210,84.672L44.177,84.711L44.140,84.654L44.134,84.543L44.150,84.439L44.174,84.423L44.194,84.484L44.201,84.518ZM59.863,11.205L59.895,11.202L59.911,11.264L59.888,11.348L59.850,11.431L59.808,11.560L59.776,11.618L59.751,11.615L59.756,11.556L59.775,11.470L59.779,11.370L59.772,11.348L59.766,11.400L59.754,11.450L59.682,11.555L59.616,11.608L59.607,11.572L59.667,11.498L59.690,11.404L59.711,11.290L59.756,11.207L59.744,11.156L59.714,11.116L59.720,11.080L59.803,11.060L59.835,11.025L59.859,11.026L59.863,11.101L59.832,11.210L59.824,11.251L59.863,11.205ZM56.412,10.697L56.433,10.766L56.436,10.913L56.367,11.006L56.255,10.962L56.168,10.890L56.136,10.841L56.145,10.781L56.178,10.742L56.250,10.697L56.359,10.682L56.412,10.697ZM61.042,10.627L61.100,10.581L61.100,10.637L61.089,10.755L61.058,10.844L61.024,10.913L60.991,11.090L60.944,11.111L60.808,11.020L60.764,10.963L60.778,10.696L60.702,10.594L60.705,10.506L60.795,10.494L60.880,10.531L60.917,10.510L60.932,10.442L60.964,10.427L60.985,10.472L60.994,10.553L61.009,10.625L61.042,10.627ZM61.716,8.799L61.744,8.794L61.751,8.831L61.720,8.877L61.657,8.945L61.576,9.048L61.448,9.176L61.265,9.227L61.176,9.178L61.201,9.132L61.226,9.101L61.235,9.060L61.259,8.998L61.306,8.941L61.358,8.918L61.412,8.913L61.455,8.883L61.487,8.841L61.652,8.827L61.701,8.812L61.716,8.799Z" fill="currentColor" stroke="currentColor" stroke-width="1.5" stroke-linejoin="round"/>
</svg>