<svg xmlns="http://www.w3.org/2000/svg" viewBox="0 0 100 100" role="img" aria-label="Georgia">
  <title>Georgia</title>
  <path d="M25.998,48.250L25.313,44.003L25.080,43.283L24.739,42.676L24.296,42.201L23.748,41.886L22.726,41.698L22.507,41.576L22.291,41.377L21.967,41.197L21.626,41.069L21.358,41.030L21.202,41.076L20.932,41.241L20.762,41.277L20.619,41.190L20.008,40.266L19.701,39.149L19.144,38.184L18.913,37.664L18.582,37.674L18.053,37.911L17.715,37.796L17.315,37.186L17.082,37.044L17.077,36.951L16.763,36.413L16.671,36.339L15.693,35.956L14.349,35.772L13.723,35.805L13.291,35.914L13.127,35.929L12.968,35.872L12.710,35.615L12.574,35.558L12.514,35.508L12.285,35.265L12.167,35.174L12.033,35.125L11.608,35.051L10.531,34.538L10.033,34.481L9.684,34.927L9.549,34.783L9.351,34.295L9.227,34.060L8.922,33.755L8.789,33.557L8.848,32.984L8.638,32.450L8.343,31.960L8.127,31.695L7.713,31.504L6.979,31.285L6.547,30.858L6.354,30.765L5.735,30.665L5.319,30.496L5.000,30.426L5.071,30.112L5.982,27.774L6.165,27.486L6.485,27.276L7.392,27.037L8.316,27.038L11.625,28.254L12.159,28.318L12.578,28.208L13.446,27.762L13.934,27.705L14.325,27.903L14.444,27.993L15.118,28.498L16.493,28.968L16.926,29.217L18.761,30.672L19.173,30.774L20.571,30.592L21.028,30.686L21.462,30.902L21.876,31.239L22.343,31.438L23.302,31.254L23.710,31.410L23.832,31.589L24.020,32.013L24.145,32.199L24.339,32.345L25.040,32.562L25.393,32.770L25.989,33.378L26.351,33.577L26.842,33.618L27.825,33.488L28.313,33.542L29.187,33.790L29.608,33.832L30.543,33.727L30.936,33.747L31.325,33.853L31.746,34.060L32.170,34.184L32.600,34.207L33.029,34.122L34.089,33.537L34.163,33.496L34.505,33.392L36.775,33.201L36.882,33.216L37.691,33.329L38.454,33.838L38.807,34.189L39.194,34.488L40.012,34.942L40.272,34.998L40.462,34.920L40.822,34.584L41.055,34.473L41.475,34.463L42.100,34.273L42.634,34.287L43.150,34.421L43.524,34.663L43.901,35.018L44.291,35.271L45.435,35.693L45.436,35.934L45.334,36.234L45.296,36.527L45.418,36.717L46.081,37.175L47.521,38.528L47.784,38.671L48.041,38.811L50.614,39.535L51.868,39.887L52.375,40.014L53.298,40.464L53.523,40.661L54.078,41.318L54.326,41.476L55.575,41.780L55.931,41.959L56.174,42.082L56.324,42.612L56.015,43.050L55.546,43.385L55.169,43.752L55.127,44.288L55.510,44.762L56.114,44.923L56.769,44.974L57.311,45.116L57.617,45.350L57.786,45.481L58.040,45.606L58.291,45.566L58.489,45.392L58.822,44.932L59.003,44.733L59.588,44.461L60.872,44.400L61.341,44.258L61.497,44.211L61.684,44.020L61.936,43.763L62.184,43.251L62.498,42.882L63.687,42.857L64.234,42.680L65.278,42.121L65.665,42.013L66.338,41.961L66.911,42.034L67.418,42.196L67.467,42.212L67.963,42.495L68.173,42.667L68.568,43.087L68.727,43.332L69.059,44.390L69.225,44.564L69.344,44.437L69.561,43.437L69.949,42.599L70.033,42.306L70.377,41.845L70.962,41.962L72.426,43.010L72.664,43.129L72.909,43.181L73.163,43.134L73.284,43.081L73.658,42.915L73.913,42.883L74.348,43.047L74.735,43.381L76.056,44.986L76.203,45.230L76.310,45.467L76.457,45.796L76.593,46.007L77.039,46.191L77.611,46.111L78.693,45.785L79.466,45.803L80.590,46.002L81.637,46.415L82.186,47.071L82.185,47.085L82.143,47.505L80.600,51.551L80.734,51.974L81.139,52.236L81.679,52.489L83.152,53.528L84.088,53.772L84.273,53.956L84.653,54.904L84.795,55.106L84.976,55.207L85.228,55.223L85.324,55.185L85.501,55.044L85.614,55.016L85.701,55.061L85.925,55.259L86.038,55.319L86.280,55.302L86.463,55.254L86.595,55.345L86.685,55.741L87.010,55.894L87.421,55.904L88.209,55.740L88.213,55.739L88.217,55.736L88.331,55.705L88.445,55.694L88.558,55.705L88.689,55.741L89.039,56.027L89.625,56.736L90.007,56.911L90.804,56.979L91.133,57.164L91.460,57.611L90.948,58.676L90.660,59.148L90.083,59.860L89.888,60.038L89.674,60.144L89.394,60.171L88.766,60.025L88.474,60.058L88.214,60.337L88.088,60.959L88.094,61.879L88.265,62.695L88.626,63.001L88.744,62.902L88.811,62.735L88.899,62.598L89.085,62.591L89.116,62.692L89.414,63.271L89.434,63.402L89.541,64.110L89.660,64.505L89.891,64.807L90.592,65.300L90.749,65.374L91.022,65.442L91.650,66.037L92.956,66.598L93.615,66.999L93.827,67.505L94.035,67.421L94.129,67.485L94.145,67.495L94.235,67.651L94.494,67.947L94.915,68.605L95.000,68.870L94.958,68.892L94.847,68.875L94.730,69.017L94.703,69.157L94.689,69.474L94.660,69.593L94.581,69.709L94.404,69.878L94.325,69.991L94.194,70.479L94.124,71.102L94.011,71.685L93.937,71.792L93.752,72.058L93.489,72.101L93.234,72.030L92.971,72.004L92.687,72.185L92.536,72.476L92.461,72.761L92.343,72.950L92.050,72.963L91.810,72.813L91.435,72.295L91.215,72.097L90.416,71.831L90.138,71.661L89.347,70.928L88.958,70.430L88.746,70.219L88.504,70.132L87.496,70.137L87.197,70.207L86.854,70.432L86.502,70.663L86.237,70.762L85.913,70.792L85.265,70.711L83.274,69.976L82.598,69.553L82.340,69.392L81.785,68.907L81.465,68.390L81.763,68.011L82.071,67.899L82.262,67.793L82.246,67.680L81.932,67.553L81.059,67.372L79.130,66.606L78.693,66.187L78.499,65.960L78.301,65.923L77.857,66.061L77.587,66.085L77.378,66.043L76.732,65.703L76.482,65.571L76.043,65.547L75.613,65.700L73.576,67.416L72.296,68.495L72.130,68.603L71.826,68.884L71.663,68.998L71.154,69.015L69.859,68.805L69.598,69.074L69.709,69.330L70.212,69.577L70.303,69.709L70.355,69.785L70.222,69.974L69.870,70.023L67.903,69.981L67.342,69.754L67.070,69.716L66.782,69.849L66.609,70.085L66.445,70.372L66.248,70.552L65.972,70.472L65.899,70.334L65.850,70.148L65.780,70.011L65.635,70.016L65.548,70.085L65.278,70.393L64.952,70.490L64.650,70.468L64.357,70.358L63.642,69.915L63.476,69.895L63.317,69.948L63.208,70.048L63.111,70.161L62.987,70.248L62.672,70.301L62.424,70.205L61.775,69.744L61.411,69.591L61.268,69.592L61.109,69.708L61.074,69.843L61.065,69.996L60.996,70.174L60.785,70.388L60.522,70.534L60.239,70.586L59.671,70.423L59.403,70.452L58.864,70.700L58.556,70.777L58.550,70.779L58.256,70.852L57.014,70.880L56.439,71.124L55.813,71.687L55.551,71.800L55.223,71.828L53.035,71.513L52.465,71.536L51.741,71.838L51.609,71.868L51.477,71.865L51.342,71.830L51.495,71.359L51.304,70.930L50.941,70.586L50.575,70.368L50.152,70.251L49.761,70.280L48.527,70.632L48.334,70.489L48.012,69.682L47.741,69.367L47.477,69.335L47.182,69.368L46.817,69.250L47.543,68.871L47.739,68.696L47.920,68.434L47.902,68.340L47.510,68.288L47.096,68.087L46.448,67.508L45.461,66.821L45.267,66.604L44.866,65.836L44.762,65.715L44.643,65.667L44.578,65.596L44.524,65.514L44.442,65.436L44.047,65.300L43.944,65.238L43.833,65.034L43.759,64.808L43.663,64.690L43.483,64.806L43.153,65.192L42.900,65.108L42.645,64.823L42.301,64.615L42.414,64.435L42.679,64.207L42.787,64.075L42.842,63.913L42.870,63.733L42.914,63.551L43.018,63.381L42.763,63.256L40.886,63.092L40.209,63.150L39.946,63.239L39.888,63.258L39.869,63.265L39.600,63.476L39.463,63.780L39.337,64.519L39.203,64.812L38.911,65.125L38.509,65.742L38.231,65.930L38.069,65.938L37.892,65.948L35.539,65.014L34.879,65.052L34.558,65.025L34.335,64.812L34.143,64.695L33.939,64.689L33.518,64.812L33.327,64.723L33.138,64.692L32.949,64.719L32.755,64.812L32.281,64.964L31.320,64.592L30.781,64.812L30.597,64.956L30.176,65.568L29.639,66.036L29.510,66.112L29.346,66.041L28.812,65.536L28.635,65.476L28.242,65.426L28.086,65.362L28.029,65.247L28.032,65.099L28.047,64.963L28.029,64.892L27.926,64.891L27.589,65.048L27.189,65.080L27.018,65.047L25.589,64.435L26.468,62.830L26.863,62.287L27.672,61.751L27.898,61.205L28.527,60.160L28.562,59.947L28.563,59.783L28.583,59.639L28.665,59.478L28.883,59.175L28.957,59.023L28.986,58.859L28.986,57.390L28.986,57.312L28.825,56.170L28.802,55.758L28.741,55.507L28.199,54.546L27.791,53.828L27.650,53.709L27.512,53.556L27.446,53.210L27.420,52.593L27.312,51.773L26.601,49.284L26.549,49.176L26.454,49.041L26.094,48.679L26.047,48.551L25.998,48.250Z" fill="currentColor" stroke="currentColor" stroke-width="1" stroke-linejoin="round"/>
</svg>