<svg xmlns="http://www.w3.org/2000/svg" viewBox="0 0 100 100" role="img" aria-label="Guernsey">
  <title>Guernsey</title>
  <path d="M21.675,71.482L25.373,69.900L29.194,67.004L32.768,65.433L35.723,67.880L34.995,70.270L32.069,75.242L31.247,81.168L30.133,85.478L30.162,86.567L29.929,87.308L28.517,88.778L26.712,89.934L25.526,89.800L24.427,89.160L22.949,88.778L5.735,88.778L5.000,88.060L5.480,86.601L6.878,85.220L8.865,84.827L8.021,80.910L9.149,79.732L11.354,79.687L13.734,79.171L21.675,71.482ZM60.397,84.378L61.722,86.163L62.072,89.631L60.237,92.370L58.651,94.110L57.835,93.784L58.418,92.010L58.723,90.608L58.228,88.913L58.301,87.521L58.811,86.803L59.306,85.692L59.975,84.682L60.397,84.378ZM94.257,5.890L95.000,6.620L95.000,8.146L91.856,11.615L89.541,12.973L86.673,13.713L84.999,12.389L86.382,9.392L88.850,7.900L90.618,7.709L93.515,6.025L94.257,5.890ZM44.312,74.715L45.360,74.142L45.826,76.724L44.370,80.158L44.166,79.058L44.064,76.600L44.312,74.715Z" fill="currentColor" stroke="currentColor" stroke-width="1.5" stroke-linejoin="round"/>
</svg>