<svg xmlns="http://www.w3.org/2000/svg" viewBox="0 0 100 100" role="img" aria-label="Ghana">
  <title>Ghana</title>
  <path d="M62.084,5.392L62.187,5.623L62.418,5.835L62.700,5.991L62.955,6.056L63.209,6.030L63.680,5.906L63.941,5.901L64.404,6.078L64.613,6.406L64.658,6.839L64.618,7.335L64.585,7.511L64.488,7.607L64.367,7.684L64.255,7.800L64.188,7.932L63.888,9.339L63.899,9.475L63.969,9.750L63.944,9.899L63.824,10.013L63.541,10.204L63.345,10.452L63.240,10.697L63.166,11.282L63.118,11.480L63.033,11.834L63.024,12.126L63.166,12.416L63.288,12.517L63.440,12.590L63.605,12.632L63.926,12.674L64.025,12.739L64.111,12.824L64.237,12.909L64.671,13.052L64.797,13.129L64.906,13.260L65.068,13.571L65.183,13.709L65.917,14.170L66.136,14.403L66.843,15.718L66.883,15.767L66.989,15.756L67.048,15.674L67.086,15.582L67.122,15.542L67.490,15.686L67.623,15.705L67.781,15.664L67.911,15.600L68.037,15.561L68.179,15.593L68.316,15.730L68.322,15.885L68.275,16.033L68.256,16.153L68.412,16.407L68.648,16.620L68.794,16.844L68.672,17.127L68.865,17.125L69.474,17.023L69.607,17.087L69.890,17.321L69.549,17.575L69.483,17.789L69.444,18.019L69.343,18.207L69.366,18.678L69.293,19.670L69.429,20.032L69.605,20.145L69.758,20.182L69.870,20.275L69.911,20.558L69.862,20.790L69.852,20.833L69.698,20.874L69.483,20.838L69.240,20.884L69.323,21.022L69.314,21.111L69.268,21.198L69.240,21.328L69.263,21.422L69.429,21.753L69.523,22.030L69.515,22.145L69.418,22.231L69.240,22.423L69.128,22.636L69.100,22.831L69.163,23.392L69.159,23.552L68.861,24.640L68.881,24.901L68.954,25.052L69.053,25.161L69.146,25.300L69.210,25.506L69.242,25.761L69.203,26.006L69.058,26.179L68.809,26.210L68.577,26.080L68.207,25.692L68.008,26.090L68.018,26.499L68.240,26.793L68.672,26.839L69.235,26.696L69.509,26.749L69.628,27.039L69.532,27.232L69.307,27.295L69.051,27.252L68.861,27.127L68.613,27.289L68.280,27.308L67.582,27.230L67.548,27.320L67.483,27.714L67.487,27.804L67.522,27.844L67.623,27.933L67.761,28.029L67.905,28.092L68.259,28.025L68.455,28.035L68.577,28.187L68.523,28.332L68.346,28.454L68.130,28.538L67.552,28.656L67.550,28.855L67.648,29.079L67.535,29.239L67.598,29.426L67.855,29.454L68.113,29.403L68.747,29.181L68.852,29.092L68.907,28.973L68.949,28.689L69.018,28.579L69.229,28.487L69.541,28.431L70.099,28.400L70.359,28.443L71.095,28.711L71.184,28.836L71.209,28.973L71.177,29.117L71.085,29.274L71.083,29.288L71.085,29.301L71.095,29.316L71.508,29.457L71.759,29.676L71.845,30.005L71.716,30.715L71.693,31.125L71.636,31.301L71.495,31.447L71.339,31.538L71.226,31.672L71.213,31.948L71.385,32.449L71.389,32.673L71.222,32.959L70.908,33.239L70.820,33.374L70.821,33.593L70.748,34.044L70.513,34.479L70.371,34.908L70.557,35.342L70.560,35.342L70.560,35.344L71.229,36.482L71.402,37.166L71.097,37.606L71.095,37.608L71.025,37.783L71.005,38.001L70.956,38.186L70.804,38.259L70.624,38.230L70.484,38.187L70.355,38.169L70.209,38.218L70.283,38.273L70.191,38.507L70.045,38.669L69.897,38.354L69.733,38.290L69.558,38.323L69.464,38.456L69.494,38.635L69.582,39.149L69.989,40.027L70.541,40.800L71.095,41.180L71.332,41.454L71.667,41.764L72.029,42.026L72.938,42.455L73.180,42.969L73.359,43.499L73.891,43.942L73.921,44.087L73.917,44.248L73.951,44.453L73.940,44.594L73.948,44.660L74.003,44.708L74.169,44.734L74.221,44.782L74.275,45.127L74.171,45.340L73.948,45.479L73.336,45.751L73.104,45.904L72.642,46.321L72.526,46.376L72.420,46.389L72.348,46.444L72.333,46.625L72.390,46.772L72.498,46.876L72.594,46.996L72.618,47.190L72.542,47.371L72.433,47.456L72.364,47.555L72.437,47.899L72.489,48.557L72.617,49.080L72.624,49.348L72.612,49.870L72.749,50.797L72.758,50.865L72.747,51.703L72.873,52.504L72.843,53.236L72.882,53.510L72.480,53.442L72.303,53.727L72.260,54.161L72.264,54.542L72.185,54.730L71.997,54.827L71.775,54.888L71.593,54.970L71.452,55.107L71.366,55.257L71.316,55.429L71.263,56.243L71.332,56.933L71.556,57.549L71.993,57.938L72.245,57.973L72.520,57.923L73.031,57.733L73.123,57.856L73.345,58.774L73.328,59.077L73.143,59.591L73.014,60.241L72.680,61.081L72.632,61.629L72.694,62.260L72.684,62.869L72.419,63.351L72.239,63.451L71.655,63.605L71.451,63.620L71.249,63.683L71.408,63.897L71.802,64.204L71.966,64.500L71.933,64.736L71.640,65.227L71.547,65.522L71.591,65.656L71.725,65.736L71.894,65.867L72.295,66.618L72.387,66.741L72.625,66.792L72.867,66.926L73.070,67.119L73.187,67.345L73.201,67.573L73.081,68.280L73.158,68.573L73.341,68.740L73.536,68.885L73.657,69.107L73.788,69.120L74.175,69.108L74.301,69.134L74.479,69.309L74.470,69.439L74.373,69.571L74.285,69.749L74.280,69.834L74.261,70.122L74.347,70.466L74.513,70.798L74.733,71.137L75.025,71.439L75.710,71.779L76.059,72.001L76.510,72.548L76.690,72.685L76.973,72.761L78.031,72.766L78.394,73.888L78.609,74.198L78.720,74.279L78.823,74.322L78.927,74.379L79.034,74.502L79.216,74.786L79.365,74.960L79.555,75.058L80.704,75.190L80.867,75.412L80.831,75.905L80.824,75.907L80.734,75.940L80.106,76.281L79.630,76.654L78.926,77.415L78.765,77.660L78.423,78.345L78.358,78.619L78.338,78.908L78.194,79.562L78.074,79.823L77.633,80.238L77.072,80.434L74.424,80.738L69.450,80.373L68.854,80.405L68.524,80.482L68.355,80.549L68.285,80.632L68.215,80.671L67.880,80.686L67.764,80.727L67.501,80.917L66.572,81.170L66.360,81.314L65.978,81.673L65.438,81.828L65.244,82.035L65.091,82.288L64.867,82.517L63.764,82.892L63.699,82.931L63.518,83.113L63.437,83.178L63.315,83.222L63.095,83.242L60.118,84.212L59.490,84.291L59.405,84.334L59.234,84.417L58.215,85.276L58.106,85.434L58.034,85.650L57.847,85.844L57.350,86.152L56.379,86.393L56.213,86.395L56.112,86.496L55.887,86.668L55.657,86.742L55.542,86.544L54.824,87.050L54.646,87.116L53.836,87.786L53.506,88.177L53.298,88.309L52.266,88.461L51.948,88.447L51.745,88.265L51.651,88.385L51.520,88.431L51.176,88.455L50.842,88.541L50.678,88.534L50.607,88.408L50.558,88.282L50.447,88.313L50.277,88.455L50.048,88.476L49.826,88.536L48.379,89.163L48.232,89.368L48.108,89.490L47.825,89.657L47.276,89.907L46.992,89.967L46.089,89.994L45.940,90.036L45.618,90.229L45.468,90.290L45.327,90.301L45.041,90.283L44.900,90.290L44.643,90.374L44.140,90.621L43.175,90.760L42.862,90.878L42.627,91.048L42.617,91.055L42.418,90.963L42.174,90.945L41.938,91.004L41.766,91.141L41.744,91.255L41.841,91.465L41.809,91.576L41.722,91.676L41.665,91.729L40.715,92.202L40.546,92.331L40.146,92.776L40.115,92.879L40.140,92.972L40.133,93.038L40.010,93.063L39.881,93.073L38.928,93.347L37.865,93.827L37.643,94.024L37.308,94.505L37.100,94.706L36.903,94.786L35.947,94.909L35.760,94.985L35.389,95.000L35.306,94.981L35.205,94.889L35.166,94.745L35.180,94.588L35.148,94.461L34.968,94.411L34.856,94.395L34.646,94.330L34.490,94.314L34.504,94.250L34.374,94.112L33.784,93.637L33.491,93.511L33.357,93.430L33.301,93.306L33.277,93.204L33.216,93.097L33.140,93.011L31.699,92.444L29.352,91.957L27.069,91.175L25.259,91.037L23.260,90.684L21.335,90.090L21.115,90.039L21.175,89.808L21.272,89.783L21.401,89.732L21.559,89.708L22.551,89.715L22.851,89.804L22.933,89.886L23.103,90.133L23.177,90.185L23.360,90.160L23.645,90.040L23.796,89.994L23.759,89.609L24.144,89.447L24.643,89.367L24.942,89.230L25.495,89.251L25.814,89.205L26.011,89.063L26.145,88.799L26.069,88.709L25.886,88.551L25.842,88.503L25.831,88.375L25.890,88.082L25.897,87.963L25.835,87.802L25.642,87.521L25.602,87.327L25.693,86.460L26.161,86.546L26.345,86.512L26.482,86.336L26.518,86.092L26.458,85.840L26.080,84.947L25.834,83.944L25.801,83.210L25.748,82.984L25.639,82.801L25.462,82.656L24.474,82.399L24.248,82.489L23.796,82.764L23.525,82.799L23.197,82.614L23.122,82.252L23.262,81.377L22.361,81.454L22.497,79.856L22.462,79.350L22.293,78.843L21.758,77.859L21.557,77.359L21.136,75.023L20.841,74.241L20.433,73.866L20.392,73.816L20.227,73.616L19.133,68.668L19.152,68.433L19.252,68.286L19.508,68.144L19.583,68.053L19.855,67.284L19.823,67.191L19.636,66.828L19.463,66.603L19.402,66.461L19.422,65.955L19.654,65.415L21.254,62.656L21.425,62.549L21.434,62.543L21.450,62.533L22.137,62.308L22.207,62.209L22.322,61.508L22.392,61.367L23.028,60.568L23.151,60.295L23.161,60.104L23.100,59.991L23.007,59.875L22.919,59.679L22.907,59.515L23.585,55.222L23.771,54.655L24.772,52.500L24.826,52.408L24.966,52.238L25.019,52.146L25.023,52.070L24.982,51.888L24.994,51.818L25.113,51.704L25.422,51.517L25.532,51.398L25.578,51.243L25.638,50.197L25.678,50.094L25.766,50.084L25.858,50.146L25.928,50.225L25.948,50.270L26.174,50.079L26.807,49.346L27.062,49.164L27.890,48.886L28.176,48.740L28.313,48.559L28.326,48.314L28.236,47.979L28.053,47.576L28.019,47.399L28.078,47.178L28.175,46.991L28.264,46.908L28.378,46.915L28.555,46.998L28.715,47.015L28.904,46.951L29.527,46.583L29.622,46.369L28.984,42.446L28.345,38.523L28.279,38.303L28.154,38.362L28.151,38.357L28.084,38.247L28.120,38.068L28.222,37.975L28.369,37.894L28.384,37.702L28.102,36.725L28.085,36.484L28.053,36.364L27.976,36.331L27.882,36.317L27.800,36.254L27.583,35.597L27.569,35.310L27.480,35.085L27.129,34.898L26.778,34.819L26.423,34.802L26.231,34.770L26.122,34.694L26.033,34.601L25.897,34.524L26.028,34.326L26.085,34.106L26.112,33.406L26.170,33.289L26.465,32.985L26.707,32.489L26.869,32.235L27.309,32.004L27.474,31.738L27.493,31.472L27.275,31.351L27.033,31.298L26.837,31.153L26.728,30.937L26.751,30.673L26.893,30.486L27.082,30.399L27.247,30.294L27.318,30.055L27.318,29.678L27.249,29.443L27.231,29.334L27.288,28.887L27.273,28.687L27.085,28.449L26.585,27.817L26.088,27.363L26.016,27.219L25.992,26.991L26.014,26.766L26.082,26.537L26.201,26.332L26.378,26.179L26.334,26.144L26.228,26.062L26.183,25.933L26.166,25.805L26.096,25.692L25.975,25.631L25.897,25.640L25.821,25.627L25.708,25.500L25.614,25.210L25.665,24.917L25.897,24.449L26.377,23.913L26.465,23.770L26.426,23.633L26.096,23.101L26.036,22.748L26.165,22.112L26.181,21.753L26.091,21.501L25.776,21.029L25.708,20.745L25.708,19.545L25.563,18.913L25.570,18.634L25.751,18.345L26.032,18.125L26.135,18.002L26.181,17.815L26.173,17.635L26.126,17.561L26.036,17.519L25.897,17.433L25.764,17.383L25.643,17.387L25.553,17.353L25.519,17.194L25.470,17.100L25.351,17.071L25.209,17.055L25.088,17.002L24.976,16.774L24.976,16.480L25.045,16.195L25.140,15.990L25.239,15.860L25.346,15.774L25.480,15.726L25.660,15.712L25.811,15.652L25.938,15.520L25.999,15.389L25.945,15.329L25.606,15.320L25.380,15.282L25.209,15.195L24.722,14.767L24.614,14.590L24.571,14.316L24.530,14.250L24.343,14.064L24.279,13.982L24.242,13.845L24.219,13.546L24.185,13.408L23.769,12.671L23.710,12.404L23.750,12.265L23.936,11.931L24.020,11.701L24.060,11.648L24.090,11.586L24.090,11.495L24.050,11.433L23.986,11.403L23.926,11.391L23.899,11.391L23.884,11.329L23.852,11.187L23.894,11.103L24.042,10.956L24.118,10.824L24.169,10.504L24.402,10.124L24.555,9.475L24.657,9.183L24.844,8.969L25.065,8.800L25.252,8.595L25.330,8.274L25.247,8.006L25.095,7.758L25.011,7.491L25.050,7.391L25.030,7.310L26.227,7.332L26.232,7.480L26.536,7.477L27.838,7.464L30.545,7.437L33.901,7.404L37.022,7.373L40.057,7.343L42.212,7.322L42.374,7.231L42.474,6.985L42.716,6.910L44.468,6.964L44.641,7.031L44.780,7.085L45.241,7.264L45.589,7.328L47.353,7.345L49.025,7.361L49.148,7.148L49.541,7.087L51.454,7.239L51.571,7.262L51.676,7.335L51.773,7.525L51.844,7.569L51.988,7.564L51.896,7.755L52.138,7.721L52.448,7.381L52.745,7.332L52.824,7.234L52.906,7.200L52.984,7.231L53.056,7.332L53.056,7.335L54.637,7.364L54.734,7.366L54.753,7.524L54.814,7.537L54.911,7.501L55.040,7.513L55.122,7.611L55.063,7.723L54.959,7.834L54.917,7.932L55.583,8.571L55.826,8.422L55.967,8.105L56.068,7.762L56.196,7.528L56.396,7.454L56.684,7.423L57.224,7.441L57.273,7.426L57.318,7.402L57.360,7.371L57.394,7.335L57.394,7.333L57.525,7.173L57.889,7.000L58.054,6.867L58.129,6.719L58.160,6.401L58.224,6.197L58.490,5.861L58.758,5.861L59.021,6.072L59.271,6.369L59.966,5.862L60.142,5.692L60.251,5.484L60.219,5.358L60.165,5.226L60.204,5.000L62.084,5.392Z" fill="currentColor" stroke="currentColor" stroke-width="1" stroke-linejoin="round"/>
</svg>