<svg xmlns="http://www.w3.org/2000/svg" viewBox="0 0 100 100" role="img" aria-label="Guinea">
  <title>Guinea</title>
  <path d="M26.594,60.965L26.458,60.881L26.346,60.779L26.295,60.641L26.339,60.453L26.372,60.447L26.553,60.453L26.600,60.434L26.596,60.390L26.582,60.337L26.594,60.292L26.926,59.949L27.155,59.568L27.298,59.386L27.506,59.268L27.721,59.258L28.110,59.337L28.334,59.268L28.334,59.192L27.597,59.219L27.247,59.185L27.099,59.058L27.121,59.010L27.228,58.910L27.265,58.847L27.265,58.687L27.361,58.438L27.423,58.183L27.155,58.461L27.038,58.761L26.967,59.086L26.843,59.444L26.548,59.315L26.422,59.234L26.339,59.100L26.443,59.038L26.467,58.924L26.430,58.603L26.443,58.605L26.472,58.545L26.499,58.461L26.512,58.393L26.486,58.350L26.369,58.283L26.339,58.259L26.304,58.011L26.300,57.646L26.381,57.418L26.594,57.586L26.561,57.316L26.567,57.201L26.594,57.081L26.512,57.081L26.439,57.171L26.339,57.222L26.209,57.245L26.052,57.250L25.967,57.304L25.906,57.431L25.784,58.001L25.704,58.117L25.425,57.980L25.300,57.941L25.249,57.863L25.345,57.678L25.224,57.569L25.106,57.376L25.021,57.140L25.006,56.906L25.089,56.674L25.354,56.326L25.435,56.065L25.345,56.065L25.050,56.294L24.601,56.326L24.191,56.195L24.012,55.939L23.928,55.571L23.930,55.378L24.057,55.182L24.174,55.050L24.264,54.889L24.322,54.695L24.343,54.467L24.260,54.467L23.992,55.017L23.829,55.248L23.606,55.316L23.437,55.207L23.268,54.982L23.144,54.713L23.108,54.467L22.738,54.624L22.444,54.794L22.022,55.039L21.685,55.140L21.669,55.168L21.581,55.224L21.483,55.247L21.437,55.182L21.463,55.078L21.526,55.044L21.606,55.027L21.685,54.972L22.079,54.409L22.329,54.122L22.474,53.794L22.655,53.504L22.689,53.312L22.673,52.605L22.687,52.518L22.743,52.460L22.909,52.395L22.942,52.315L23.024,52.177L23.202,52.091L23.375,51.980L23.440,51.768L23.189,51.904L23.037,51.941L22.918,51.867L22.389,51.235L22.347,51.096L22.299,51.109L22.263,51.124L22.182,51.172L22.316,51.559L22.355,51.906L22.225,52.183L21.851,52.357L21.404,52.312L21.183,52.020L21.151,51.625L21.271,51.264L21.776,50.629L21.974,50.226L21.934,49.819L21.828,49.729L21.786,49.894L21.765,50.129L21.731,50.248L21.600,50.328L21.361,50.678L21.189,50.752L21.204,50.804L21.152,50.842L20.728,51.004L20.679,51.007L20.425,50.987L20.206,50.941L20.022,50.875L19.945,50.790L19.874,50.652L19.703,50.438L19.498,50.242L19.321,50.156L18.994,49.949L18.926,49.858L18.778,49.567L18.671,49.518L18.466,49.507L18.365,49.476L18.273,49.401L18.034,49.147L17.852,49.070L17.724,49.049L17.595,49.002L17.408,48.848L17.365,48.543L17.556,48.181L17.869,47.997L18.191,48.222L18.103,48.074L17.936,47.869L17.774,47.724L17.702,47.756L17.611,47.912L17.427,47.847L17.287,47.705L17.321,47.626L17.584,47.519L17.789,47.264L18.117,46.701L17.940,46.786L17.814,46.897L17.574,47.163L17.443,47.247L17.111,47.400L17.032,47.457L17.010,47.608L17.032,48.176L16.996,48.315L16.896,48.442L16.740,48.532L16.535,48.558L16.257,48.475L16.048,48.288L15.934,48.048L15.947,47.802L16.141,47.601L16.439,47.381L16.616,47.158L16.444,46.953L16.397,47.134L16.258,47.235L16.070,47.279L15.872,47.289L15.902,47.565L15.687,47.772L15.418,47.853L15.284,47.756L15.246,47.671L15.161,47.567L15.076,47.429L15.037,47.247L15.077,47.158L15.155,47.080L15.203,47.003L15.157,46.915L15.092,46.891L15.025,46.908L14.973,46.948L14.954,46.995L14.839,47.193L14.572,47.044L13.841,46.374L13.716,46.313L13.546,46.273L13.362,46.286L13.196,46.335L13.038,46.352L12.875,46.273L12.626,46.517L12.503,46.387L12.464,46.085L12.461,45.810L12.557,45.413L12.552,45.256L12.498,45.095L12.431,45.019L12.349,44.969L11.598,44.189L11.468,43.918L11.433,43.660L11.437,43.345L11.498,43.063L11.618,42.910L11.625,42.901L11.620,42.901L11.426,42.918L11.293,43.010L11.181,43.132L11.045,43.238L10.880,43.298L10.673,43.330L10.485,43.294L10.383,43.153L10.300,43.153L10.216,43.309L10.136,43.254L10.076,43.074L10.052,42.859L10.063,42.642L10.095,42.477L10.225,42.137L10.359,42.181L10.522,42.049L10.699,41.857L10.880,41.724L10.587,41.717L10.489,41.558L10.504,41.333L10.652,40.646L10.748,40.472L10.880,40.547L10.955,40.547L10.979,40.363L11.071,40.267L11.171,40.215L11.219,40.157L11.377,39.606L11.670,39.018L11.838,38.949L11.933,38.784L11.948,38.587L11.881,38.422L11.929,38.366L12.047,38.185L11.808,38.255L11.776,38.351L11.818,38.488L11.791,38.681L11.384,38.967L11.335,39.018L11.159,39.154L10.953,39.464L10.784,39.794L10.643,40.194L10.476,40.459L10.135,40.875L9.792,41.177L9.626,41.239L9.554,41.090L9.578,40.898L9.647,40.763L9.752,40.675L9.886,40.624L9.796,40.604L9.724,40.607L9.650,40.639L9.554,40.707L9.389,40.547L9.540,40.056L9.635,39.846L9.765,39.652L9.840,39.581L10.011,39.466L10.093,39.396L10.157,39.300L10.190,39.213L10.214,39.184L10.151,39.160L10.052,39.102L9.891,39.312L9.343,39.737L9.202,39.946L9.060,40.406L8.892,40.547L8.774,40.307L8.620,40.154L8.497,39.984L8.470,39.698L8.634,39.704L8.774,39.591L8.886,39.425L8.967,39.271L9.026,39.109L9.065,38.923L9.078,38.764L9.057,38.681L9.091,38.610L9.109,38.556L9.133,38.422L8.909,38.587L8.832,38.687L8.802,38.804L8.743,38.858L8.395,39.018L8.305,39.018L8.293,38.879L8.300,38.745L8.332,38.624L8.395,38.513L8.322,38.401L8.314,38.291L8.364,38.189L8.470,38.093L8.242,38.071L8.171,37.928L8.207,37.741L8.305,37.588L8.457,37.490L8.670,37.409L8.897,37.356L9.095,37.336L9.238,37.257L9.321,37.084L9.374,36.911L9.426,36.832L9.630,36.776L9.857,36.505L10.052,36.403L9.961,36.333L9.900,36.258L9.804,36.060L9.781,36.176L9.744,36.287L9.685,36.370L9.596,36.403L9.528,36.419L9.338,36.496L9.299,36.526L9.250,36.772L9.120,36.978L8.934,37.076L8.719,36.992L8.660,37.050L8.598,37.077L8.515,37.086L8.395,37.084L8.465,36.848L8.395,36.697L8.281,36.666L8.222,36.786L7.883,37.244L7.505,37.173L7.265,36.471L6.972,36.487L7.179,36.700L7.212,36.927L7.147,37.146L7.062,37.336L6.810,37.144L6.665,37.090L6.474,37.084L6.877,37.391L7.022,37.554L7.062,37.756L6.944,37.981L6.714,38.210L6.492,38.369L6.392,38.384L6.366,38.348L6.309,38.336L6.252,38.348L6.226,38.384L6.239,38.459L6.297,38.577L6.309,38.640L6.309,39.060L6.360,39.130L6.474,39.184L6.589,39.261L6.640,39.396L6.619,39.460L6.474,39.698L6.257,39.590L5.815,39.521L5.601,39.396L5.346,39.130L5.142,38.850L5.020,38.584L5.000,38.344L5.082,38.114L5.270,37.879L5.358,37.834L5.597,37.762L5.647,37.714L5.660,37.624L5.698,37.539L5.749,37.465L5.805,37.413L5.805,37.336L5.750,37.340L5.737,37.320L5.740,37.285L5.730,37.244L6.074,36.891L6.074,36.889L6.481,36.403L7.644,34.151L7.886,33.184L8.068,32.721L9.272,30.957L9.489,30.716L9.784,30.554L10.286,30.500L11.295,30.617L11.796,30.527L12.872,29.940L14.000,29.324L14.155,29.201L14.236,29.079L14.377,28.783L14.472,28.676L14.601,28.606L14.665,28.615L14.734,28.653L15.750,28.719L16.029,28.681L16.152,28.704L16.259,28.779L16.363,28.870L16.479,28.940L16.677,28.986L16.846,28.979L17.210,28.916L17.402,28.912L17.932,28.997L18.159,28.914L18.682,28.596L18.778,28.522L19.041,28.653L19.285,28.649L19.494,28.524L19.650,28.290L19.685,28.172L19.711,27.890L19.656,27.750L19.692,27.685L19.874,27.688L19.981,27.764L20.021,28.010L20.123,28.074L20.298,28.123L20.305,28.202L20.279,28.294L20.351,28.385L20.594,28.419L20.906,28.362L21.200,28.245L21.392,28.102L21.455,27.938L21.518,27.408L21.520,27.188L21.335,25.737L21.375,25.225L21.481,24.726L21.465,24.494L21.332,24.290L21.216,24.233L20.789,24.166L20.592,24.081L20.448,23.982L20.182,23.689L20.115,23.570L20.084,23.476L20.028,23.403L19.696,23.287L19.574,23.202L19.337,22.973L19.106,22.831L18.860,22.751L18.542,22.706L18.449,22.661L18.499,22.526L18.501,22.262L18.531,22.135L18.796,21.835L19.533,21.493L19.827,21.252L20.057,21.115L20.389,21.035L20.594,21.095L20.438,21.374L21.260,21.363L21.612,21.233L21.816,20.920L21.864,20.595L21.961,20.357L21.973,20.213L21.935,19.858L21.947,19.700L21.973,19.597L22.187,19.090L22.232,18.879L22.199,18.668L22.062,18.418L21.451,17.654L21.335,17.319L21.315,17.044L21.412,16.234L25.337,16.377L25.882,16.526L25.921,16.536L25.976,16.559L26.081,16.633L26.139,16.655L26.210,16.650L26.243,16.620L26.272,16.585L26.330,16.565L26.694,16.489L26.800,16.481L26.902,16.509L27.052,16.606L27.157,16.623L27.263,16.607L27.468,16.549L27.560,16.542L27.627,16.575L27.743,16.699L27.798,16.727L27.847,16.719L28.000,16.673L28.109,16.673L28.194,16.661L28.274,16.668L28.371,16.734L28.484,16.597L28.703,16.709L28.925,16.702L29.135,16.668L29.320,16.696L29.475,16.864L29.528,17.095L29.514,17.343L29.468,17.555L29.288,17.974L29.244,18.177L29.298,18.416L29.438,18.615L29.617,18.711L29.827,18.732L30.062,18.706L30.279,18.790L30.477,18.776L30.617,18.655L30.657,18.418L30.860,17.927L31.301,17.922L31.775,18.168L32.077,18.431L32.071,18.480L32.052,18.562L32.078,18.667L32.205,18.784L32.321,18.828L32.681,18.855L32.874,18.947L32.926,19.068L32.998,19.170L33.248,19.202L34.032,19.158L34.281,19.187L34.517,19.284L34.717,19.445L35.058,19.824L35.123,19.941L35.132,20.027L35.177,20.075L35.350,20.080L35.365,20.075L35.456,20.049L35.810,19.854L36.047,19.763L36.251,19.721L36.462,19.731L36.716,19.793L37.242,19.982L37.459,20.138L37.804,20.665L38.000,20.764L40.049,20.232L40.498,19.983L40.900,19.617L41.117,19.511L41.418,19.501L42.150,19.744L42.408,19.769L42.569,19.737L43.031,19.485L43.165,19.392L43.217,19.371L43.301,19.370L43.325,19.383L43.342,19.404L44.075,19.711L44.325,19.765L45.317,19.807L45.775,19.731L46.709,19.384L47.213,19.291L48.258,19.212L48.667,19.254L49.463,19.540L49.798,19.553L49.796,19.793L49.566,19.824L49.273,19.811L49.085,19.915L49.033,20.191L49.113,20.679L49.117,20.962L48.890,21.449L48.546,21.807L48.350,22.168L48.571,22.666L48.799,22.870L49.542,23.199L49.758,23.373L50.248,24.030L50.450,24.205L50.687,24.364L50.935,24.490L51.174,24.574L51.411,24.575L51.801,24.413L51.999,24.403L52.191,24.350L52.371,24.164L52.501,23.929L52.577,23.573L52.658,23.532L52.760,23.526L52.857,23.480L53.029,23.207L53.085,23.140L53.096,23.127L53.488,22.846L53.627,22.687L53.785,22.158L53.876,22.034L54.040,22.000L54.323,22.010L54.850,21.836L55.091,21.825L55.388,21.905L55.605,22.063L56.092,22.823L56.374,23.033L56.659,23.167L56.877,23.346L56.954,23.689L56.922,23.799L56.803,24.016L56.786,24.116L56.842,24.247L57.167,24.574L57.660,25.514L58.012,25.878L58.514,25.857L58.695,25.772L58.815,25.656L58.949,25.446L59.056,25.219L59.102,25.049L59.196,24.926L59.416,24.775L59.666,24.647L59.855,24.587L59.769,24.315L59.903,24.166L60.147,24.051L60.393,23.876L60.396,23.787L60.362,23.657L60.366,23.538L60.480,23.486L60.522,23.440L60.423,23.192L60.435,23.074L60.655,22.995L61.235,23.041L61.353,22.863L61.438,22.762L61.855,22.414L62.015,22.309L62.094,22.375L62.175,22.416L62.355,22.477L62.346,22.300L62.415,22.252L62.525,22.244L62.640,22.183L62.692,22.067L62.716,22.040L62.802,22.103L62.837,22.174L62.869,22.175L62.942,22.029L63.403,21.845L63.500,21.895L63.559,21.976L63.635,22.051L64.035,22.131L64.461,22.333L64.698,22.379L64.994,22.366L65.081,22.379L65.200,22.432L65.366,22.574L65.462,22.635L65.546,22.661L65.586,22.673L65.788,22.682L65.912,22.711L66.058,22.787L66.306,22.980L66.453,23.051L66.685,23.122L67.108,23.345L67.351,23.385L67.574,23.449L67.991,23.782L68.210,23.886L68.327,23.889L68.575,23.850L68.660,23.849L68.789,23.901L68.986,24.054L69.109,24.129L69.327,24.199L70.002,24.215L70.296,23.900L70.448,23.688L70.505,23.532L70.479,23.278L70.496,23.068L70.583,22.878L70.767,22.683L71.153,22.432L72.518,21.978L72.758,21.761L72.955,21.623L73.449,21.390L73.660,21.362L74.404,21.490L74.687,21.204L74.747,21.045L74.709,20.752L74.869,20.707L74.978,20.512L75.031,20.278L75.023,20.122L74.954,20.061L74.750,20.016L74.659,19.963L74.601,19.846L74.595,19.737L74.562,19.645L74.228,19.464L74.008,19.256L73.833,19.045L73.768,18.919L73.943,18.699L74.517,18.559L74.719,18.415L74.803,18.400L74.873,18.412L75.035,18.506L75.206,18.569L75.299,18.516L75.389,18.438L75.548,18.429L76.475,18.625L76.986,18.795L78.437,19.543L78.848,19.755L79.066,19.987L79.201,20.263L79.221,20.535L79.111,20.808L78.952,21.053L78.823,21.313L78.803,21.636L78.843,21.759L78.961,21.955L79.002,22.078L79.091,22.218L79.238,22.212L79.477,22.116L79.659,22.220L79.818,22.436L79.913,22.708L79.902,22.984L79.720,23.468L79.668,23.736L79.718,23.969L79.942,24.154L80.209,24.168L80.487,24.136L80.739,24.181L80.960,24.372L81.012,24.581L81.000,24.813L81.019,25.077L81.079,25.212L81.161,25.329L81.226,25.450L81.236,25.596L80.627,28.741L80.854,28.725L81.058,28.817L81.258,28.938L81.476,29.012L81.727,28.976L81.923,28.886L82.091,28.845L82.257,28.961L82.526,29.848L82.566,30.070L82.667,30.318L82.801,30.552L82.938,30.730L83.600,31.030L83.927,31.052L84.238,30.807L84.305,30.961L84.361,31.224L84.408,31.448L84.505,31.629L84.648,31.684L84.983,31.693L85.716,31.916L86.081,32.091L86.352,32.316L86.133,32.373L85.881,32.491L85.736,32.651L85.834,32.835L86.058,32.876L86.280,32.840L86.404,32.896L86.335,33.215L86.193,33.378L85.971,33.453L85.726,33.467L85.512,33.441L85.043,33.335L84.929,33.423L84.801,33.698L84.811,33.745L84.848,33.805L84.875,33.879L84.854,33.968L84.813,33.997L84.693,34.008L84.650,34.023L84.547,34.088L84.298,34.196L84.211,34.248L84.063,34.462L83.994,34.900L83.891,35.094L83.784,35.151L83.538,35.155L83.439,35.193L83.327,35.341L83.324,35.462L83.354,35.580L83.346,35.720L83.217,35.966L82.658,36.534L82.550,36.689L82.450,36.893L82.404,37.109L82.459,37.303L82.644,37.431L82.835,37.374L83.044,37.265L83.284,37.240L83.488,37.273L83.707,37.279L83.922,37.253L84.117,37.194L84.335,37.044L84.455,36.856L84.769,36.194L84.972,36.194L85.215,36.273L85.461,36.264L85.589,36.231L85.700,36.249L85.925,36.328L86.045,36.310L86.279,36.180L86.424,36.176L86.691,36.313L86.943,36.550L87.130,36.834L87.204,37.112L87.221,38.385L87.194,38.614L87.122,38.725L87.036,38.820L86.782,39.506L86.757,39.760L87.076,39.885L87.130,40.104L87.320,42.541L87.454,42.863L87.825,43.374L88.128,43.945L88.350,44.060L88.612,44.066L88.891,44.011L89.078,43.931L89.182,43.868L89.262,43.897L89.383,44.090L89.424,44.240L89.438,44.566L89.504,44.723L89.739,44.890L90.055,44.949L90.714,44.981L90.950,45.117L91.129,45.379L91.254,45.689L91.334,45.971L91.359,46.287L91.293,46.574L91.030,47.165L90.907,47.304L90.817,47.456L90.755,47.622L90.714,47.801L90.482,48.103L90.203,48.260L89.585,48.493L89.358,48.703L89.113,49.036L88.982,49.346L89.099,49.482L89.252,49.536L89.205,49.656L89.056,49.776L88.796,49.876L88.785,49.985L88.824,50.110L88.868,50.211L88.909,50.235L88.977,50.239L89.046,50.257L89.091,50.326L89.119,50.540L89.138,50.607L89.118,50.636L89.059,50.652L89.024,50.697L89.073,50.809L89.123,50.826L89.351,50.807L89.407,51.071L88.960,54.273L88.945,54.386L88.952,54.658L88.993,54.938L89.051,55.157L89.141,55.353L89.847,56.360L90.051,56.580L90.249,56.684L90.513,56.739L90.785,56.751L91.007,56.730L91.256,56.636L91.717,56.374L91.974,56.320L92.475,56.321L92.538,56.428L92.218,57.409L92.180,57.693L91.746,58.763L91.759,59.211L92.376,59.457L92.527,59.431L92.649,59.380L92.750,59.400L92.916,59.715L93.048,59.851L93.319,60.062L93.824,60.347L93.977,60.535L93.960,60.547L93.766,60.693L93.476,60.737L93.236,60.737L93.003,60.764L91.915,61.324L91.732,61.519L91.731,61.520L91.613,61.818L91.554,62.109L91.503,62.713L91.282,63.781L91.403,64.161L91.959,64.331L92.228,64.362L92.955,64.584L93.009,64.577L93.136,64.512L93.208,64.514L93.287,64.567L93.383,64.722L93.441,64.790L93.670,64.992L93.754,65.096L94.045,65.628L94.158,65.761L94.497,65.990L94.583,66.097L94.646,66.327L94.618,66.799L94.645,67.059L94.796,67.572L94.796,67.785L94.708,68.095L94.671,68.390L94.748,68.653L95.000,69.175L94.293,69.253L93.958,69.207L93.683,69.032L93.302,68.260L93.042,67.907L92.776,67.951L92.732,68.137L92.764,68.340L92.742,68.513L92.536,68.609L92.332,68.602L92.135,68.542L91.962,68.445L91.829,68.327L91.735,68.163L91.670,67.986L91.586,67.824L91.435,67.704L91.262,67.672L91.076,67.697L90.714,67.792L90.603,67.775L90.390,67.792L90.290,67.786L90.211,67.747L90.079,67.628L89.975,67.594L89.730,67.613L89.326,67.775L89.079,67.801L88.644,67.712L88.475,67.735L87.886,68.206L87.819,68.293L87.820,68.441L87.883,68.573L87.968,68.709L88.031,68.865L88.051,69.118L87.901,69.819L87.901,70.050L87.929,70.281L87.893,70.423L87.695,70.633L87.678,70.763L88.686,71.432L89.867,71.797L89.983,71.780L90.714,71.527L90.865,71.525L90.876,71.645L90.805,71.816L90.714,71.967L90.642,72.342L90.647,72.528L90.714,72.703L90.941,72.840L91.143,73.066L91.291,73.336L91.322,73.461L91.358,73.605L91.143,73.588L90.996,73.495L90.879,73.393L90.760,73.354L90.252,73.438L90.067,73.432L90.089,73.537L90.069,73.835L89.945,74.314L89.341,75.239L89.313,75.733L89.404,75.861L89.674,76.098L89.736,76.232L89.713,76.356L89.644,76.424L89.565,76.472L89.508,76.540L89.461,76.738L89.417,77.149L89.360,77.327L88.970,77.779L88.962,77.830L88.995,77.950L88.988,78.001L88.938,78.052L88.801,78.130L88.747,78.178L88.505,78.490L88.447,78.630L88.442,78.724L88.481,78.924L88.476,79.010L88.127,79.405L87.686,79.211L87.226,78.850L86.819,78.745L86.389,78.875L86.163,78.894L85.873,78.560L85.567,78.720L85.016,79.236L84.650,79.000L84.259,78.709L84.032,78.430L83.956,78.094L84.021,77.632L82.576,77.556L82.480,77.802L82.162,78.192L82.078,78.448L82.049,78.873L82.031,78.943L81.960,79.071L81.938,79.141L81.951,79.218L82.000,79.240L82.055,79.256L82.087,79.312L82.101,79.599L82.054,79.843L81.933,80.067L81.728,80.290L81.389,80.496L81.316,80.556L81.273,80.671L81.255,80.922L81.209,81.032L81.106,81.126L80.908,81.184L80.794,81.257L80.573,81.533L80.464,81.704L80.407,81.836L80.432,82.045L80.521,82.268L80.577,82.501L80.498,82.745L80.364,82.824L79.839,83.027L79.678,83.047L79.448,82.676L79.293,82.580L79.227,82.870L79.100,82.812L79.044,82.830L79.004,83.022L78.950,83.029L78.681,83.110L78.583,83.166L78.375,83.149L78.207,83.242L78.054,83.382L77.886,83.505L77.725,83.556L77.555,83.586L77.486,83.608L77.391,83.640L77.252,83.766L77.366,83.341L77.322,83.178L77.085,83.055L76.991,82.979L76.984,82.766L76.916,82.716L76.645,82.726L76.572,82.713L76.271,82.434L76.106,81.662L75.931,81.412L75.744,81.390L75.331,81.501L75.140,81.470L75.067,81.385L74.983,81.141L74.899,81.035L74.797,80.972L74.709,80.940L74.537,80.916L74.334,80.922L74.222,80.944L74.173,80.987L74.146,81.121L74.085,81.161L74.015,81.184L73.832,81.452L73.694,81.333L73.459,80.916L73.323,81.119L72.970,81.466L72.870,81.517L72.864,81.512L72.820,81.477L72.954,81.362L73.029,81.236L73.061,81.091L73.069,80.923L73.118,80.770L73.233,80.652L73.483,80.461L73.758,80.046L73.861,79.783L73.815,79.612L74.032,79.356L74.119,79.217L74.178,78.888L74.248,78.702L74.353,78.543L74.485,78.442L74.228,78.141L74.209,77.726L74.329,77.288L74.461,76.971L74.151,76.571L74.046,76.361L73.731,75.955L73.452,75.440L73.333,74.927L73.363,74.407L73.519,73.873L73.536,73.835L73.623,73.721L73.650,73.598L73.628,73.470L73.566,73.338L73.424,73.169L73.296,73.155L73.166,73.257L73.020,73.437L73.038,73.295L73.170,73.073L73.195,72.945L72.974,72.052L72.973,71.911L72.933,71.764L72.813,71.699L72.518,71.638L72.342,71.508L72.321,71.177L72.399,70.827L72.518,70.632L72.577,70.577L72.597,70.521L72.577,70.466L72.518,70.413L72.450,70.289L72.403,70.154L72.341,70.024L72.230,69.918L72.362,69.781L72.437,69.720L72.518,69.674L72.568,69.652L72.718,69.562L72.655,69.529L72.568,69.435L72.355,69.281L71.747,69.022L71.591,68.803L71.493,68.732L71.405,68.830L71.347,68.911L71.257,68.955L71.154,68.969L71.056,68.957L70.847,68.963L70.665,69.004L70.557,68.970L70.574,68.747L70.688,68.590L70.847,68.478L70.947,68.331L70.881,68.068L70.724,67.907L70.481,67.794L70.242,67.791L70.093,67.963L70.063,68.217L70.061,68.394L70.013,68.427L69.846,68.244L69.720,68.028L69.664,67.808L69.586,67.231L69.517,67.019L69.389,66.858L69.182,66.829L69.189,66.981L69.131,67.086L69.044,67.176L68.961,67.284L68.961,67.382L69.002,67.477L68.986,67.557L68.685,67.646L68.465,67.761L68.357,67.794L68.298,67.714L68.241,67.658L68.185,67.630L68.014,67.676L67.954,67.684L67.717,67.688L67.514,67.715L67.319,67.778L67.114,67.886L66.640,68.259L66.152,68.550L65.894,68.593L65.732,68.538L65.679,68.374L65.801,67.796L65.719,67.616L65.537,67.510L64.847,67.335L64.642,67.331L64.436,67.393L64.026,67.799L63.822,67.917L63.727,67.711L63.477,67.808L63.350,67.830L63.218,67.824L63.079,67.843L62.975,67.808L62.878,67.753L62.547,67.652L62.465,67.646L62.096,67.698L61.913,67.768L61.760,67.868L61.619,68.001L61.501,68.169L61.207,68.772L61.059,68.962L60.342,69.669L59.917,69.952L59.695,70.041L59.566,70.012L59.219,69.786L59.039,69.709L58.638,69.688L58.294,69.801L58.054,70.059L57.966,70.472L57.722,70.254L57.847,69.853L58.125,69.438L58.346,69.175L58.525,68.877L58.700,67.813L58.831,67.796L58.865,67.698L58.863,67.552L58.892,67.389L58.976,67.240L59.163,67.061L59.357,66.702L59.549,66.441L59.782,66.245L60.028,66.196L60.308,66.174L60.536,66.014L60.701,65.774L60.796,65.510L60.276,64.807L60.209,64.689L60.026,64.555L59.529,63.889L59.495,63.858L59.408,63.801L59.367,63.750L59.361,63.705L59.374,63.575L59.371,63.520L59.260,63.172L59.240,63.049L59.219,62.152L59.277,61.724L59.463,60.995L59.458,60.963L59.447,60.890L59.434,60.810L59.290,60.691L59.007,60.610L58.525,60.559L58.023,60.577L57.588,60.444L57.501,59.997L57.633,59.465L57.850,59.081L57.968,58.996L58.104,58.935L58.233,58.855L58.329,58.711L58.345,58.597L58.296,58.388L58.295,58.283L58.351,58.128L58.421,57.992L58.467,57.855L58.451,57.702L57.934,57.248L57.808,57.188L57.646,57.079L57.501,56.949L57.356,56.732L57.243,56.706L57.114,56.707L56.995,56.691L56.916,56.706L56.702,56.697L56.551,56.646L56.668,56.539L56.798,56.448L56.774,56.379L56.584,56.255L56.403,56.054L56.271,55.869L56.220,55.651L56.285,55.344L56.299,55.169L56.207,55.090L56.080,55.030L55.994,54.916L55.932,54.577L55.889,54.476L55.771,54.354L55.460,54.137L55.371,54.016L55.289,53.694L55.237,53.598L55.158,53.534L54.960,53.461L54.892,53.418L54.819,53.301L54.676,52.883L54.388,52.328L53.965,51.782L53.468,51.301L52.566,50.727L52.476,50.583L52.311,49.771L52.223,49.498L52.089,49.380L51.921,49.365L51.510,49.241L51.202,49.209L48.628,49.224L43.469,49.252L43.411,50.004L43.328,50.118L41.047,50.617L40.664,50.701L40.458,50.692L40.258,50.648L40.030,50.563L39.742,50.385L39.521,50.185L39.302,50.042L39.022,50.031L37.199,50.421L36.649,50.622L36.212,50.880L36.139,50.991L36.131,51.068L36.146,51.151L36.148,51.281L35.982,52.194L35.990,52.231L36.036,52.369L36.041,52.430L36.003,52.460L35.940,52.450L35.880,52.451L35.856,52.511L35.858,52.661L35.843,52.708L35.803,52.715L35.426,52.946L35.315,53.060L35.117,53.411L35.081,53.450L35.066,53.971L35.017,54.078L34.920,54.085L34.801,54.071L34.689,54.113L34.632,54.217L34.526,54.621L34.494,54.676L34.468,54.709L34.429,54.730L34.360,54.751L34.267,54.796L34.259,54.847L34.283,54.903L34.281,54.965L33.867,56.301L33.812,56.378L33.728,56.449L33.687,56.495L33.656,56.570L33.608,56.647L33.549,56.634L33.487,56.593L33.435,56.584L33.231,56.700L33.162,56.761L33.064,56.891L33.067,56.988L33.116,57.100L33.108,57.194L32.941,57.241L32.731,57.349L32.441,57.833L32.239,58.003L31.983,58.046L31.750,58.029L31.513,58.046L31.248,58.188L31.011,57.940L30.758,58.121L30.566,58.501L30.510,58.855L30.563,58.978L30.730,59.184L30.743,59.286L30.699,59.300L30.508,59.318L30.439,59.354L30.322,59.522L30.222,59.701L30.062,60.087L29.897,60.294L29.677,60.435L29.209,60.663L28.841,60.935L28.657,60.965L28.381,60.869L27.921,60.577L27.730,60.531L27.413,60.589L26.882,60.754L26.594,60.965Z" fill="currentColor" stroke="currentColor" stroke-width="1" stroke-linejoin="round"/>
</svg>