<svg xmlns="http://www.w3.org/2000/svg" viewBox="0 0 100 100" role="img" aria-label="Gambia">
  <title>Gambia</title>
  <path d="M7.273,61.601L6.818,61.207L6.356,61.048L6.284,60.831L6.410,60.577L6.620,60.134L6.565,59.670L5.985,58.152L5.963,57.787L6.036,56.349L5.967,55.949L5.799,55.541L5.288,54.953L5.157,54.546L5.390,54.053L5.281,53.893L5.000,53.195L5.269,52.870L5.590,51.925L5.901,51.727L6.266,51.640L6.655,51.423L6.996,51.153L8.744,48.989L9.510,48.351L9.572,48.666L9.740,48.888L9.998,49.059L10.304,49.209L10.831,48.928L11.362,48.903L11.824,49.086L12.143,49.420L12.305,49.974L11.976,50.069L11.484,50.103L11.141,50.469L11.605,50.884L11.999,51.765L12.214,52.680L12.143,53.195L13.245,54.508L13.487,54.683L14.999,54.751L15.428,54.875L15.819,55.121L16.052,55.336L16.359,55.484L16.967,55.541L17.256,55.745L17.428,56.224L17.441,56.774L17.263,57.201L17.851,56.705L18.117,56.690L18.508,56.991L18.333,56.679L17.786,56.120L17.672,56.038L17.597,55.647L17.387,55.392L17.066,55.279L16.650,55.314L16.650,55.103L17.530,55.121L17.940,55.058L18.303,54.875L18.599,55.490L18.942,55.354L19.348,54.927L19.835,54.683L20.390,54.516L21.492,53.780L22.089,53.614L22.921,53.876L23.048,54.484L22.919,55.190L22.997,55.731L23.532,55.880L24.257,55.661L25.279,55.103L25.279,54.875L24.950,54.911L24.644,55.016L24.368,55.186L24.127,55.426L23.843,55.636L23.717,55.456L23.581,54.613L23.565,54.271L23.500,53.971L23.313,53.845L23.163,53.772L23.067,53.585L23.011,53.344L22.997,53.090L23.092,52.526L23.337,52.144L24.534,51.139L24.758,50.897L24.853,50.574L24.982,50.424L25.274,50.478L25.761,50.677L29.954,50.906L31.554,50.524L32.125,50.469L32.452,50.485L32.621,50.514L32.771,50.522L33.052,50.469L33.274,50.372L33.435,50.237L33.555,50.111L33.646,50.049L34.298,50.009L36.226,50.238L36.840,50.172L38.582,49.629L38.864,49.466L39.423,49.061L39.703,48.978L39.995,49.081L40.421,49.526L40.713,49.629L41.134,49.621L41.445,49.571L41.729,49.449L42.068,49.209L42.327,48.903L42.801,48.156L43.089,47.949L43.447,47.936L43.819,48.053L44.158,48.243L44.425,48.456L44.734,48.596L45.055,48.542L45.362,48.418L45.641,48.351L46.208,48.512L46.573,48.891L46.855,49.316L47.171,49.629L48.200,49.969L49.511,50.051L50.580,49.606L50.881,48.351L50.725,48.351L50.666,48.351L50.659,48.351L50.602,48.812L50.383,49.221L50.071,49.516L49.741,49.629L49.179,49.563L48.154,49.274L47.690,49.209L47.263,49.056L46.771,48.701L46.047,48.046L45.784,47.921L45.519,47.971L45.259,48.078L45.019,48.141L44.749,48.076L44.520,47.931L44.340,47.786L44.211,47.720L43.797,47.625L43.459,47.448L43.067,47.363L42.479,47.529L42.175,47.771L41.736,48.371L41.438,48.561L40.927,48.586L40.123,48.203L39.601,48.141L39.061,48.264L37.745,48.978L36.678,49.306L27.103,50.061L26.157,49.720L25.568,49.629L25.006,49.751L24.466,50.046L23.627,50.677L22.374,51.952L22.089,52.166L21.861,52.267L21.639,52.455L21.413,52.542L21.158,52.355L21.141,52.129L21.230,51.810L21.284,51.450L21.158,51.097L20.653,51.562L20.591,51.817L20.770,52.166L20.471,52.322L20.343,52.355L20.343,52.565L20.485,52.609L20.624,52.703L20.770,52.758L20.179,53.063L19.161,53.213L18.127,53.247L17.486,53.195L15.169,52.624L14.202,52.565L14.383,52.294L14.749,51.535L14.815,51.212L14.749,50.785L14.454,50.176L14.386,49.944L14.264,49.729L13.713,49.314L13.525,48.973L13.228,48.791L13.165,48.676L13.165,48.046L13.420,46.755L13.386,46.270L13.217,45.865L13.020,45.562L14.892,45.569L16.749,45.576L18.604,45.584L20.461,45.590L22.319,45.598L24.174,45.604L26.030,45.612L27.248,45.615L27.886,45.617L29.742,45.623L31.600,45.631L33.456,45.638L35.312,45.646L37.170,45.652L39.026,45.660L40.884,45.666L42.739,45.674L44.202,45.679L44.671,45.520L44.731,44.300L44.804,43.883L44.841,43.674L45.076,42.998L45.385,42.355L45.717,41.832L46.648,40.821L47.912,39.889L49.296,39.362L50.590,39.570L50.870,39.837L51.449,40.610L51.702,40.802L52.339,40.650L54.591,39.204L56.770,38.399L57.410,38.431L59.189,39.109L62.207,39.245L63.299,39.610L63.866,40.070L64.354,40.467L64.733,40.991L65.000,41.558L65.581,43.552L65.788,43.786L67.016,44.533L67.434,44.685L67.804,44.566L69.639,43.534L70.850,43.208L72.079,43.301L73.363,43.905L73.941,44.371L74.345,44.880L74.629,45.468L75.029,46.803L75.222,47.215L75.524,47.546L75.768,47.721L77.936,49.282L78.655,49.621L79.201,49.697L79.719,49.571L81.474,48.941L83.131,47.902L83.698,47.655L85.423,47.263L86.805,46.551L87.411,46.398L87.733,46.387L88.252,46.432L88.564,46.382L88.916,46.225L89.524,45.866L89.925,45.800L90.553,45.910L91.312,46.176L92.030,46.543L92.530,46.953L92.685,47.221L92.875,47.804L93.031,48.063L93.093,48.117L93.303,48.297L93.981,48.700L94.283,48.951L95.000,50.404L94.885,51.976L94.034,53.281L92.553,53.932L90.295,54.127L89.095,54.452L87.890,54.466L86.607,54.934L86.090,54.927L85.642,55.130L84.206,56.219L83.553,56.544L82.688,56.574L81.065,56.268L79.365,56.419L78.557,56.355L77.775,56.132L76.685,55.564L76.369,55.346L76.086,55.090L75.857,54.781L75.523,54.433L75.125,54.320L74.185,54.282L73.752,54.156L73.355,53.929L73.078,53.670L72.223,52.868L71.881,52.746L70.913,52.991L69.805,53.122L68.713,52.991L67.714,52.566L66.880,51.817L66.278,50.971L65.958,50.773L65.346,50.655L64.798,50.476L63.798,49.860L63.349,49.727L62.204,49.633L61.194,49.367L59.240,48.364L59.236,48.360L59.229,48.356L59.225,48.354L57.740,47.272L56.398,46.005L55.576,45.468L54.894,45.744L54.271,46.394L53.595,47.099L53.176,47.782L53.063,49.683L52.882,50.532L52.268,51.337L51.409,51.912L50.430,52.276L49.456,52.456L48.355,52.458L45.094,51.759L44.161,51.718L43.462,51.982L42.771,52.361L41.872,52.664L41.384,52.713L39.368,52.515L38.992,52.525L37.649,52.955L35.566,53.157L35.220,53.349L35.101,53.782L35.050,55.962L35.039,56.441L34.983,58.630L34.782,58.779L33.663,58.769L32.866,58.762L30.944,58.744L27.048,58.709L20.436,58.649L15.895,58.607L10.969,58.562L9.668,58.549L8.626,58.783L8.184,59.535L8.090,59.830L7.617,60.299L7.427,60.550L7.319,60.893L7.273,61.601Z" fill="currentColor" stroke="currentColor" stroke-width="1.5" stroke-linejoin="round"/>
</svg>