<svg xmlns="http://www.w3.org/2000/svg" viewBox="0 0 100 100" role="img" aria-label="Guinea-Bissau">
  <title>Guinea-Bissau</title>
  <path d="M93.018,23.929L92.782,25.901L92.831,26.568L93.112,27.383L94.590,29.243L94.921,29.852L95.000,30.365L94.891,30.879L94.375,32.113L94.312,32.363L94.283,32.747L94.375,33.612L94.346,33.961L94.111,34.542L93.993,35.332L93.501,36.094L92.649,36.411L90.663,36.436L91.040,35.758L90.543,35.612L89.740,35.806L89.184,36.140L88.474,36.726L86.691,37.559L86.051,38.290L85.977,38.598L85.974,39.239L85.852,39.569L86.077,39.679L86.846,39.788L87.440,39.983L88.000,40.328L88.573,40.884L88.868,41.093L89.670,41.375L89.807,41.552L89.881,41.781L90.044,42.071L90.686,42.785L91.034,43.025L91.511,43.232L92.544,43.395L92.823,43.534L93.145,44.028L93.185,44.595L92.928,45.808L92.831,47.053L93.279,50.584L93.273,51.122L93.121,52.410L92.969,52.809L92.505,53.157L91.794,53.442L91.040,53.581L90.451,53.498L90.277,53.276L90.341,53.053L90.323,52.861L89.900,52.740L89.653,52.586L89.556,51.986L89.299,51.802L88.858,51.794L88.770,51.954L88.903,52.293L88.840,52.979L88.757,53.267L88.379,53.835L87.873,54.141L87.283,54.151L86.647,53.832L86.415,54.012L85.150,54.786L84.602,54.988L83.320,54.780L82.856,54.789L81.975,54.944L81.568,54.961L81.088,54.848L80.807,54.680L80.555,54.457L80.298,54.274L80.001,54.220L79.325,54.311L76.869,54.150L76.700,54.057L76.547,54.037L76.233,54.207L76.004,54.466L75.664,55.186L75.468,55.483L75.094,55.782L72.364,57.282L69.763,58.711L68.551,58.929L66.112,58.646L64.898,58.776L64.185,59.170L63.659,59.757L60.748,64.049L60.307,65.176L59.723,67.530L56.910,73.011L55.926,74.192L55.926,74.197L55.093,75.058L53.954,75.869L53.209,76.252L52.870,76.201L52.951,75.806L53.155,75.603L53.414,75.469L53.671,75.281L54.104,74.606L54.291,74.443L54.291,74.238L54.072,74.238L53.949,74.520L53.799,74.762L53.586,74.948L53.271,75.058L52.926,75.073L52.604,74.999L52.364,74.827L52.271,74.554L52.794,72.354L52.970,71.988L53.281,71.823L53.464,71.432L53.605,70.988L53.780,70.649L53.950,70.564L54.317,70.587L54.473,70.537L54.493,70.423L54.450,70.024L54.473,69.922L55.692,69.820L55.637,69.570L55.487,69.366L55.293,69.213L55.093,69.105L55.483,68.686L55.716,68.120L55.682,67.586L55.274,67.264L55.009,68.044L54.572,68.610L53.986,68.963L53.271,69.105L53.435,69.586L53.307,69.881L53.016,69.943L52.690,69.718L52.625,69.874L52.545,69.993L52.486,70.127L52.471,70.332L52.354,70.257L52.052,70.127L52.039,70.704L51.870,70.976L51.569,71.164L51.168,71.476L50.831,71.912L50.399,72.757L49.638,73.796L49.316,74.108L48.957,74.238L48.578,74.070L48.126,73.675L47.789,73.230L47.755,72.908L48.077,72.673L48.954,72.230L49.266,71.988L49.415,71.642L49.647,70.332L49.332,67.807L49.647,67.076L48.987,67.179L48.815,67.622L48.911,68.201L49.064,68.714L49.105,69.169L49.073,69.893L48.858,70.410L48.100,70.108L47.061,70.127L46.752,70.035L46.529,69.907L46.365,69.786L46.243,69.718L45.559,69.818L45.199,69.760L45.040,69.422L44.960,69.093L44.750,68.875L44.459,68.752L44.129,68.714L43.694,68.401L43.590,67.675L43.621,66.241L43.694,65.918L43.678,65.715L43.520,65.626L43.335,65.622L43.241,65.589L43.206,65.496L43.201,65.310L43.235,64.989L43.386,64.596L43.420,64.278L43.565,64.000L44.308,62.996L44.621,62.743L44.811,62.786L45.402,63.065L45.741,63.132L46.036,63.039L46.450,62.632L46.744,62.538L47.042,62.370L47.391,61.969L47.694,61.495L47.844,61.105L46.230,62.420L45.642,62.743L45.192,62.474L45.097,62.121L45.242,61.208L45.416,60.915L45.760,60.544L45.996,60.217L45.842,60.064L45.341,60.197L44.958,60.573L44.709,61.083L44.621,61.608L44.437,61.953L44.015,62.171L43.537,62.339L43.201,62.538L42.926,63.010L42.778,63.409L42.522,63.681L41.918,63.783L41.534,63.907L41.207,64.076L40.961,63.993L40.832,63.356L40.922,63.037L41.362,61.954L41.508,61.719L41.596,61.514L42.417,60.286L41.904,60.264L41.723,60.058L41.735,59.710L41.817,59.264L42.047,59.408L42.308,59.425L42.573,59.304L42.838,59.041L42.859,59.232L43.020,59.673L43.150,59.278L43.368,58.939L43.611,58.866L43.819,59.264L44.037,59.264L44.010,58.967L43.933,58.697L43.801,58.448L43.621,58.221L43.759,58.198L43.781,58.170L43.772,58.119L43.819,58.017L44.089,58.134L44.409,58.198L44.822,58.221L45.312,58.347L45.473,58.250L45.242,57.812L45.340,57.583L45.441,57.198L45.642,57.198L45.878,57.526L46.288,57.471L46.627,57.483L46.643,58.017L47.204,57.815L47.189,57.409L46.845,56.948L46.424,56.586L46.301,56.664L46.194,56.700L45.842,56.790L45.842,56.586L46.481,56.362L46.784,56.193L47.061,55.953L47.278,56.326L47.647,56.756L48.126,56.992L48.664,56.790L48.307,56.736L48.281,56.534L48.343,56.251L48.263,55.953L48.030,55.836L47.783,55.839L47.574,55.751L47.461,55.356L47.796,55.468L48.435,55.605L48.664,55.748L49.064,55.543L49.001,55.739L48.922,56.166L48.847,56.362L49.573,56.881L49.792,56.837L50.067,56.362L49.917,56.099L49.542,55.595L49.467,55.449L49.547,55.244L49.749,55.010L50.004,54.817L50.247,54.725L50.311,54.790L50.534,54.932L50.843,55.071L51.168,55.133L51.354,55.237L51.458,55.495L51.497,55.828L51.485,56.158L52.052,55.953L51.995,55.851L51.927,55.639L51.870,55.543L52.309,55.569L52.612,55.733L52.847,56.010L53.070,56.362L51.913,56.590L51.485,56.586L51.621,56.747L51.688,56.860L51.798,56.937L52.052,56.993L51.927,57.466L52.092,57.734L52.342,57.709L52.625,56.912L52.970,56.878L53.316,56.949L53.470,56.893L54.403,56.837L54.674,56.790L55.012,56.620L55.246,56.425L55.397,56.150L55.494,55.748L55.126,55.869L54.861,56.015L54.559,56.128L53.581,56.234L53.363,56.161L53.271,55.850L53.331,55.715L53.481,55.616L53.679,55.558L53.889,55.543L53.775,55.272L53.768,55.111L53.889,54.725L53.556,54.647L53.291,54.804L53.121,55.126L53.070,55.543L52.668,55.082L52.414,54.942L52.052,54.947L52.052,54.725L52.261,54.607L52.690,54.110L52.690,53.905L52.471,53.498L52.271,53.498L51.870,54.520L51.519,54.605L51.077,54.351L50.666,54.315L50.972,53.856L51.387,53.654L51.743,53.417L51.870,52.865L51.622,53.125L51.347,53.267L51.078,53.260L50.849,53.070L50.666,53.070L50.640,53.378L50.552,53.568L50.369,53.670L50.067,53.700L50.154,54.138L49.938,54.256L49.638,54.098L49.467,53.700L49.019,54.344L48.775,54.173L48.921,53.664L49.647,53.293L49.388,53.103L49.280,52.859L49.310,52.578L49.467,52.268L49.647,52.268L49.775,52.351L49.888,52.388L50.247,52.455L50.118,52.042L49.857,51.768L49.266,51.451L49.064,51.451L48.983,51.939L48.783,52.329L48.625,52.740L48.664,53.293L48.360,53.417L48.100,53.798L47.844,53.905L47.665,53.805L47.744,53.527L48.045,53.070L47.701,52.917L47.640,52.549L47.844,51.654L47.558,51.827L47.374,52.081L47.274,52.400L47.243,52.771L47.124,52.795L46.512,52.786L46.243,52.865L46.643,53.070L46.643,53.293L46.980,53.529L47.319,53.739L47.461,54.007L47.346,54.409L47.085,54.507L46.808,54.383L46.643,54.110L46.502,54.347L46.390,54.598L46.304,54.859L46.243,55.133L46.020,53.976L45.839,53.571L45.693,53.618L45.441,53.700L45.642,54.110L45.242,54.110L45.356,54.899L45.497,55.237L45.842,55.543L45.642,55.953L45.201,55.637L44.807,55.210L44.220,54.315L44.129,54.844L44.335,55.342L44.632,55.837L44.822,56.362L44.683,56.298L44.220,56.158L44.089,56.561L43.840,56.566L43.633,56.261L43.621,55.748L43.420,55.748L43.296,56.022L43.214,56.327L43.179,56.655L43.201,56.993L42.941,56.864L42.838,56.790L42.838,57.386L42.532,57.186L42.417,56.919L42.336,56.600L42.118,56.260L41.953,55.927L42.078,55.693L42.417,55.449L42.562,54.995L42.863,54.532L43.138,53.988L43.201,53.293L42.247,54.212L41.739,54.471L41.217,54.110L41.357,53.851L41.353,53.220L41.398,52.865L41.014,52.846L40.777,52.967L40.605,53.143L40.414,53.293L40.407,53.390L40.184,53.655L39.922,53.816L39.797,53.600L39.696,53.099L39.536,52.612L39.532,52.110L40.075,51.295L40.313,50.632L40.515,50.326L41.616,49.199L41.940,48.976L42.121,48.907L42.200,48.804L42.218,48.466L42.290,48.168L42.462,47.907L42.838,47.545L43.020,47.545L43.100,47.739L43.191,47.823L43.296,47.876L43.420,47.971L43.532,47.693L43.678,47.583L43.850,47.611L44.037,47.545L44.714,47.566L45.891,47.890L46.533,47.971L50.158,47.971L50.311,47.868L50.802,47.422L50.960,47.320L51.730,47.134L52.217,46.705L52.604,46.232L53.070,45.906L53.744,45.906L53.864,46.360L53.664,46.968L53.370,47.432L53.152,47.998L53.173,48.745L53.370,49.481L53.671,49.998L54.238,50.256L54.982,50.381L55.633,50.600L55.913,51.134L56.224,51.481L56.907,51.637L57.589,51.515L57.897,51.022L57.134,51.285L56.604,50.812L56.199,50.137L55.802,49.795L54.935,49.689L54.674,49.609L54.338,49.403L54.169,49.192L54.025,48.957L53.780,48.671L53.648,48.285L53.913,47.926L54.283,47.578L54.473,47.227L55.012,45.763L55.032,45.578L55.161,45.498L55.594,45.478L55.891,45.394L55.884,45.200L55.704,44.993L55.494,44.866L55.496,44.761L55.193,44.666L54.860,44.646L54.573,44.772L54.341,44.817L53.691,44.551L53.370,44.473L52.955,44.600L52.049,45.149L51.578,45.276L51.325,45.474L50.491,46.407L50.067,46.707L49.399,46.821L48.843,46.712L47.663,46.316L46.524,46.126L46.161,45.951L45.741,45.580L45.191,45.215L44.532,45.065L43.844,45.094L43.201,45.276L42.984,45.416L42.505,45.822L42.317,45.906L41.684,45.873L41.359,45.893L41.116,46.000L40.197,46.930L40.020,47.037L39.597,47.210L39.414,47.320L38.547,48.570L38.304,48.771L37.716,48.937L36.413,49.726L35.853,49.963L35.772,49.998L33.874,50.348L33.587,50.520L33.307,50.776L31.908,51.510L31.347,51.654L31.947,49.221L32.488,48.211L33.200,48.167L33.365,48.277L33.588,48.350L33.858,48.379L34.169,48.363L34.169,48.159L33.616,48.124L32.932,47.538L32.368,47.545L31.898,47.898L31.774,48.412L31.717,48.979L30.766,50.845L30.464,51.022L29.890,50.874L29.771,50.493L29.963,49.385L29.472,49.620L29.355,50.107L29.341,50.700L29.143,51.246L28.964,51.343L28.314,51.578L28.042,51.759L27.746,52.016L27.574,52.060L27.457,51.925L27.340,51.654L27.264,51.057L27.433,50.457L27.943,49.385L28.366,47.721L28.544,47.320L28.663,47.201L28.847,47.073L29.057,46.973L29.254,46.930L29.368,46.822L29.562,46.093L30.321,44.944L30.563,44.678L30.979,44.428L31.600,44.176L32.254,44.011L32.767,44.027L32.925,44.202L33.036,44.485L33.190,44.749L33.476,44.866L34.059,44.900L34.314,44.968L34.570,45.088L34.663,44.663L34.876,44.230L34.988,43.863L34.770,43.638L34.601,43.751L34.324,44.027L33.917,44.263L33.369,44.252L33.194,44.132L32.994,43.784L32.767,43.638L32.509,43.561L32.388,43.571L32.261,43.612L31.151,43.696L30.772,43.588L30.563,43.228L30.364,43.228L30.155,43.722L29.611,44.034L28.938,44.200L28.343,44.252L28.416,44.466L28.460,44.556L28.544,44.678L28.443,44.706L28.374,44.702L28.337,44.734L28.343,44.866L28.108,44.737L27.943,44.602L27.950,44.741L28.047,45.146L27.992,45.518L27.741,45.906L27.313,46.300L26.911,46.471L24.738,46.502L24.454,46.600L23.869,46.872L23.635,46.930L23.480,47.029L23.293,47.249L23.048,47.461L22.716,47.545L22.432,47.443L22.174,47.224L21.713,46.707L20.997,46.872L20.057,46.695L19.241,46.346L18.893,46.000L18.292,44.678L18.010,44.515L17.224,44.393L16.888,44.252L16.637,43.973L16.454,43.602L16.343,43.176L16.241,42.258L15.952,41.494L15.889,41.080L16.687,39.341L16.995,38.966L17.334,38.680L17.695,38.464L18.073,38.297L18.089,38.653L18.231,38.918L18.453,38.977L18.709,38.707L18.738,38.458L18.478,38.014L18.490,37.685L18.819,37.213L19.319,36.905L19.864,36.673L22.016,35.400L22.498,35.005L22.725,34.724L23.055,34.214L23.316,33.983L23.581,33.863L24.226,33.705L24.518,33.591L23.738,33.562L23.216,33.781L22.814,34.185L22.407,34.707L21.812,35.119L20.304,35.435L19.693,35.639L18.682,36.291L18.392,36.549L17.399,37.685L16.848,37.453L16.891,36.897L17.110,36.224L17.088,35.639L16.938,36.083L16.562,36.675L16.384,37.768L16.096,38.201L15.652,38.347L15.086,38.092L14.886,38.297L14.801,38.168L14.467,37.888L14.407,38.285L14.176,38.463L13.811,38.507L13.366,38.502L13.296,38.614L13.123,38.829L12.945,38.958L12.865,38.819L12.815,38.700L12.691,38.600L12.526,38.529L11.960,38.424L11.683,38.219L11.516,37.923L11.462,37.583L11.280,37.427L10.578,36.624L10.560,36.438L10.356,36.327L9.736,35.800L9.460,35.639L9.322,35.669L8.880,35.838L8.658,35.824L8.486,35.680L8.214,35.212L8.056,35.005L6.964,34.151L6.636,33.983L6.199,33.983L5.867,34.124L5.564,34.300L5.216,34.411L5.000,34.145L5.670,33.681L6.747,33.420L10.724,33.687L11.265,33.665L12.797,33.283L14.275,33.270L15.163,32.908L17.513,31.638L19.539,30.538L19.846,30.473L20.160,30.530L20.794,30.781L21.035,30.823L21.173,30.767L21.300,30.668L21.499,30.581L23.715,30.196L24.757,30.289L26.591,30.904L27.155,31.007L29.484,30.842L29.775,30.859L34.834,31.158L35.845,30.945L43.251,27.476L43.336,27.414L44.893,26.268L46.678,25.449L48.382,24.222L49.143,23.875L49.984,23.748L51.418,23.754L59.459,23.788L61.819,23.798L72.217,23.843L74.980,23.854L82.618,23.886L93.018,23.929ZM27.943,68.081L28.513,68.513L28.961,69.098L29.257,69.819L29.456,71.120L29.662,71.405L29.869,71.620L29.963,71.876L29.813,72.266L29.462,72.454L29.062,72.484L28.763,72.398L28.530,72.542L28.222,72.526L27.449,72.398L27.381,72.466L27.198,72.591L27.011,72.642L26.922,72.498L26.915,72.257L26.927,72.098L27.019,72.014L27.241,71.988L27.546,71.908L28.369,71.520L28.544,71.374L28.410,71.037L28.079,70.925L27.782,71.088L27.741,71.579L27.528,71.377L27.340,71.151L27.601,70.705L27.735,70.353L27.768,69.994L27.741,69.533L27.584,68.859L27.628,68.471L27.943,68.081ZM27.140,69.310L27.202,70.191L27.119,70.601L26.832,71.048L26.210,71.810L25.870,72.025L25.722,71.671L25.621,71.198L25.451,70.829L25.418,70.442L25.722,69.922L25.051,69.925L24.724,69.630L24.699,69.181L24.936,68.714L25.357,68.374L26.922,67.876L27.042,68.125L27.106,68.527L27.140,69.310ZM24.936,70.537L24.518,70.537L24.518,70.762L24.806,71.340L24.690,71.886L24.545,72.332L24.738,72.601L24.136,73.001L23.617,73.024L23.098,72.987L22.498,73.215L22.399,72.954L22.364,72.709L22.396,72.459L22.498,72.175L22.313,72.175L21.933,72.808L22.116,73.215L21.748,73.103L21.651,73.020L21.515,72.808L20.842,72.896L20.118,72.418L19.484,71.666L19.094,70.946L19.477,70.551L19.957,70.199L20.455,70.018L20.894,70.127L20.493,70.298L20.311,70.332L20.338,70.464L20.369,70.558L20.421,70.646L20.512,70.762L20.773,70.499L21.107,70.347L21.391,70.119L21.622,69.102L21.869,68.922L22.138,68.815L22.313,68.491L22.464,68.647L22.916,68.901L22.994,68.165L23.438,67.843L24.024,67.902L24.518,68.304L24.709,68.532L24.623,68.703L24.439,68.901L24.334,69.205L24.385,69.651L24.514,69.929L24.936,70.537ZM30.563,65.011L31.324,65.003L31.480,65.311L31.166,66.425L31.136,67.669L30.874,68.059L30.146,68.081L29.420,67.543L29.408,66.629L29.869,65.674L30.563,65.011ZM36.391,65.011L36.301,65.553L36.449,66.539L36.391,67.076L36.245,67.193L36.065,66.855L35.793,66.466L35.372,66.425L35.372,66.649L35.592,66.649L35.592,66.854L35.370,67.258L35.212,67.464L34.990,67.654L34.826,67.418L34.746,67.342L34.386,67.466L34.546,67.785L34.576,68.220L34.511,68.688L34.386,69.105L34.326,68.977L34.232,68.835L34.169,68.714L33.992,68.730L33.924,68.751L33.875,68.751L33.767,68.714L33.587,68.714L33.300,69.051L33.021,68.896L32.824,68.491L32.767,68.081L32.971,67.887L33.308,67.654L33.426,67.433L32.968,67.264L32.968,67.076L33.587,66.425L33.615,66.296L33.559,65.939L33.587,65.813L33.727,65.778L33.924,65.815L34.096,65.825L34.169,65.720L34.481,65.121L35.186,64.917L35.937,64.942L36.391,65.011ZM21.296,67.466L19.373,67.631L18.994,67.559L18.208,67.179L18.073,67.170L18.108,66.811L18.218,66.518L18.416,66.315L18.709,66.241L18.669,65.732L19.075,65.259L19.643,64.969L20.093,65.011L20.311,64.788L20.577,65.139L20.908,65.174L21.290,65.117L21.713,65.198L21.841,65.415L21.925,65.805L21.959,66.198L21.933,66.425L21.586,66.570L21.300,66.753L21.169,67.035L21.296,67.466ZM36.191,59.264L36.252,59.332L36.305,59.414L36.403,59.466L36.592,59.450L36.570,59.591L36.538,59.681L36.391,59.878L36.561,60.115L36.416,60.356L35.772,60.883L35.629,60.603L35.592,60.491L35.372,60.491L35.035,60.815L34.560,60.815L34.142,60.600L33.987,60.286L34.132,60.014L34.372,59.984L34.617,60.052L34.770,60.064L34.990,59.839L35.157,59.595L35.281,59.330L35.372,59.041L35.592,59.264L35.743,59.136L36.191,58.836L36.338,58.956L36.344,59.042L36.191,59.264ZM18.893,60.678L18.277,60.686L17.926,60.634L17.507,60.491L17.862,60.249L18.396,59.970L18.879,59.615L19.094,59.151L19.427,58.858L20.180,58.637L20.999,58.543L21.515,58.631L21.658,58.931L21.554,59.215L20.684,60.145L20.512,60.286L20.412,60.417L20.340,60.588L20.251,60.756L20.093,60.883L19.844,60.893L18.893,60.678ZM18.287,59.232L18.105,59.303L17.805,59.304L17.507,59.450L17.372,59.498L17.277,59.617L17.164,59.681L16.988,59.561L16.606,59.122L16.489,59.041L16.422,59.059L14.886,59.041L14.621,59.278L14.386,59.420L14.066,59.450L14.156,59.245L14.284,59.041L14.098,58.666L14.137,58.581L14.284,58.426L13.992,58.259L13.865,58.221L14.954,57.669L16.164,57.643L17.277,57.495L18.073,56.586L18.210,56.627L18.237,56.644L18.234,56.681L18.292,56.790L18.510,56.793L18.729,56.761L18.926,56.693L19.094,56.586L19.201,56.673L19.254,56.765L19.292,56.993L19.197,57.534L18.972,57.978L18.490,58.631L18.374,58.893L18.345,59.070L18.287,59.232ZM25.722,58.733L25.810,58.236L26.037,57.590L26.332,57.028L26.631,56.790L27.106,56.597L27.771,55.898L28.143,55.953L28.178,56.428L28.398,56.739L28.646,56.759L28.763,56.362L29.126,56.747L29.032,57.548L29.363,57.812L29.000,58.417L28.910,59.147L29.046,59.881L29.363,60.491L28.782,60.698L28.022,61.132L27.377,61.294L27.140,60.678L26.922,60.678L26.883,60.819L26.797,60.966L26.740,61.105L26.647,60.994L26.433,60.791L26.339,60.678L26.167,61.005L25.905,61.247L25.612,61.408L25.337,61.495L25.057,61.104L24.047,60.387L23.918,60.064L24.936,59.450L25.600,58.730L25.722,58.733ZM41.817,55.133L41.804,55.543L41.482,55.888L41.398,56.260L41.566,56.593L41.842,56.897L41.871,57.115L41.308,57.198L40.940,57.144L40.685,56.955L40.414,56.993L40.370,57.076L39.797,57.608L39.650,57.643L38.995,57.608L38.995,57.812L39.619,58.044L39.507,58.512L39.094,58.783L38.815,58.426L38.483,58.517L38.085,58.476L37.752,58.382L37.609,58.323L37.468,58.425L37.217,58.228L37.139,57.951L37.502,57.812L37.888,57.595L38.157,57.144L38.526,56.773L39.213,56.790L39.271,56.334L39.564,56.004L39.927,55.710L40.197,55.356L40.692,55.488L41.135,55.354L41.513,55.168L41.817,55.133ZM21.515,47.971L22.027,47.790L22.594,47.810L23.635,47.971L24.025,47.911L24.462,47.756L25.337,47.320L25.225,47.200L25.229,47.179L25.286,47.132L25.708,47.120L26.094,47.100L26.521,47.135L26.736,47.395L26.794,47.485L26.691,48.262L26.460,48.629L26.168,48.966L25.939,49.385L25.681,50.549L25.508,51.029L25.156,51.451L24.855,51.239L24.511,51.284L24.183,51.412L23.918,51.451L23.547,51.217L22.816,50.112L22.475,49.942L22.116,49.942L21.830,49.873L21.713,49.498L21.701,48.665L21.644,48.273L21.515,47.971Z" fill="currentColor" stroke="currentColor" stroke-width="1.5" stroke-linejoin="round"/>
</svg>