<svg xmlns="http://www.w3.org/2000/svg" viewBox="0 0 100 100" role="img" aria-label="Equatorial Guinea">
  <title>Equatorial Guinea</title>
  <path d="M70.838,31.234L71.019,31.499L71.032,31.793L70.982,32.118L71.016,32.442L71.217,32.692L71.581,33.014L71.979,33.286L72.262,33.391L72.535,33.455L73.530,33.951L73.848,34.003L75.964,34.003L76.977,34.003L80.431,34.003L80.666,34.003L85.369,34.003L90.073,34.002L94.776,34.001L94.896,34.604L94.903,35.866L94.927,39.987L94.932,40.812L94.951,44.106L94.976,48.226L95.000,52.346L90.291,52.330L89.143,52.326L85.583,52.315L80.878,52.299L80.515,52.298L76.169,52.284L74.453,52.278L73.996,52.337L73.687,52.377L73.604,52.607L73.603,53.073L73.546,53.279L73.361,53.460L73.110,53.515L72.831,53.473L72.553,53.354L72.293,53.152L71.885,52.686L71.625,52.502L71.381,52.413L70.914,52.359L70.938,52.276L70.916,52.007L70.796,51.605L70.831,51.418L70.952,51.320L71.157,51.249L71.391,51.207L71.592,51.194L71.497,51.111L71.305,51.046L71.078,51.004L70.884,50.988L70.723,50.938L70.330,50.716L70.140,50.667L69.495,50.806L69.327,50.764L69.263,50.606L69.332,50.437L69.455,50.299L69.553,50.237L69.261,50.360L68.903,50.675L68.598,51.025L68.470,51.252L68.363,51.365L67.844,51.492L67.454,51.658L67.313,51.472L67.068,50.717L66.940,50.518L66.770,50.366L66.518,50.237L66.231,50.169L66.026,50.217L65.842,50.300L65.342,50.394L64.877,50.616L64.639,50.667L64.501,50.580L64.133,50.168L63.930,50.022L63.961,49.865L63.922,49.741L63.718,49.476L63.964,49.375L64.148,49.190L64.281,48.960L64.537,48.155L64.675,47.870L64.854,47.748L65.095,47.619L65.315,47.315L65.484,46.959L65.563,46.674L65.522,46.072L65.584,45.814L66.016,45.625L66.635,45.063L66.908,44.709L66.958,44.683L66.992,44.599L67.065,44.522L67.138,44.417L67.173,44.249L67.357,43.799L67.610,43.335L67.933,43.086L68.137,43.154L68.334,43.339L68.631,43.443L69.051,43.388L69.348,43.248L69.622,43.071L69.972,42.897L69.655,42.913L69.013,43.348L68.734,43.282L68.052,42.634L67.815,42.199L67.976,41.774L68.900,40.858L68.942,40.799L69.034,40.624L69.112,40.535L69.435,40.320L69.558,40.196L69.625,40.085L69.760,39.773L69.826,39.677L69.898,39.611L69.949,39.505L70.008,39.125L70.080,39.020L70.154,38.943L70.187,38.861L70.274,38.713L70.831,38.163L70.998,37.630L70.937,36.979L70.501,35.694L70.351,35.399L70.302,35.265L70.286,35.093L70.320,34.927L70.393,34.821L70.466,34.743L70.501,34.658L70.631,32.706L70.585,32.351L70.451,32.078L70.325,31.725L70.528,31.452L70.838,31.234ZM5.224,90.958L5.125,90.775L5.105,90.594L5.170,90.435L5.331,90.322L5.539,90.678L5.484,91.062L5.266,91.264L5.000,91.075L5.079,91.051L5.147,90.990L5.224,90.958ZM57.052,9.077L57.469,9.592L57.625,9.861L57.688,10.194L57.664,10.496L57.600,10.770L57.500,11.016L57.373,11.224L56.805,11.728L56.644,12.163L56.122,12.782L56.077,12.834L55.762,13.679L55.491,13.894L55.417,14.264L55.373,14.348L55.337,14.400L54.886,14.669L54.831,14.923L54.823,15.647L54.725,15.904L54.018,16.718L53.480,17.602L53.334,17.779L53.183,17.677L52.822,17.524L52.740,17.422L52.640,17.464L52.413,17.382L51.976,17.139L51.862,17.178L51.502,17.259L51.343,17.256L51.174,17.182L50.841,16.969L50.637,16.924L50.299,16.913L49.925,16.826L49.623,16.590L49.498,16.128L49.426,15.958L49.283,15.752L49.181,15.546L49.232,15.372L49.293,15.227L49.390,14.562L49.497,14.256L49.703,13.860L49.996,13.600L50.368,13.703L50.568,13.588L50.832,13.601L51.393,13.703L51.658,13.596L51.745,13.345L51.700,13.055L51.558,12.834L51.754,12.729L52.001,12.552L52.218,12.341L52.310,12.141L52.418,10.687L52.622,10.133L53.034,9.461L53.588,8.916L54.233,8.736L54.199,8.795L54.135,8.959L54.624,9.061L54.838,9.073L54.993,8.959L55.348,9.068L55.857,9.145L56.390,9.130L56.828,8.959L56.875,9.028L56.924,9.054L57.052,9.077Z" fill="currentColor" stroke="currentColor" stroke-width="1" stroke-linejoin="round"/>
</svg>