<svg xmlns="http://www.w3.org/2000/svg" viewBox="0 0 100 100" role="img" aria-label="Grenada">
  <title>Grenada</title>
  <path d="M48.852,58.858L50.251,61.757L50.550,64.238L49.959,72.634L49.559,73.829L48.825,75.011L47.711,77.624L47.765,78.959L48.703,81.753L48.282,82.281L47.412,82.684L46.923,83.692L46.720,85.026L46.665,86.423L45.742,87.952L38.590,91.719L38.590,90.448L37.164,91.149L36.097,92.109L35.418,93.388L35.167,95.000L33.612,94.708L32.111,94.242L30.691,93.596L29.374,92.783L27.649,94.305L24.817,94.903L21.713,94.743L19.213,94.055L25.000,90.315L26.059,89.280L26.650,86.785L26.168,84.783L25.346,82.816L24.905,80.481L25.801,76.679L29.265,69.979L29.374,67.018L39.086,55.161L42.584,54.535L46.394,55.049L50.007,57.329L49.898,57.857L48.852,58.858ZM79.714,17.823L76.773,16.948L73.954,17.740L71.170,19.179L68.331,20.263L68.908,19.220L70.029,16.531L70.599,15.488L70.083,15.405L68.331,15.488L68.575,14.807L69.560,13.153L73.166,14.251L75.326,11.304L77.139,7.252L79.714,5.000L80.787,7.794L80.501,10.901L79.822,14.279L79.714,17.823Z" fill="currentColor" stroke="currentColor" stroke-width="1.5" stroke-linejoin="round"/>
</svg>