<svg xmlns="http://www.w3.org/2000/svg" viewBox="0 0 100 100" role="img" aria-label="Guatemala">
  <title>Guatemala</title>
  <path d="M68.490,79.927L68.485,79.927L67.875,79.475L67.852,79.525L67.742,79.694L67.714,79.268L67.498,79.353L67.016,79.856L66.683,79.926L66.443,79.837L66.204,79.709L65.867,79.665L65.637,79.764L65.491,79.826L64.967,80.465L64.678,80.675L64.617,80.267L64.385,80.030L64.074,80.003L63.773,80.228L63.635,80.577L63.726,80.826L63.881,81.044L63.942,81.301L63.808,81.516L63.595,81.670L63.470,81.855L63.601,82.167L64.044,82.226L64.190,82.292L64.313,82.409L64.374,82.493L64.498,82.730L64.525,82.833L64.563,83.169L64.603,83.313L64.695,83.406L64.964,83.541L65.032,83.631L65.036,83.975L64.899,84.112L62.622,84.663L62.065,84.921L61.530,85.336L61.105,85.805L60.199,87.424L60.139,87.604L60.160,87.773L60.296,88.093L60.312,88.130L60.304,88.252L59.994,88.421L59.683,88.293L59.131,87.859L58.747,87.758L58.434,87.780L57.495,88.141L57.269,88.291L56.818,88.747L54.780,90.190L54.466,90.471L54.286,90.780L54.146,91.101L53.949,91.411L53.689,91.622L53.107,91.936L52.853,92.199L52.685,92.518L52.572,92.866L52.519,93.224L52.529,93.571L52.869,95.000L52.868,95.000L49.746,93.693L46.447,92.198L44.347,91.402L42.646,90.993L41.425,90.793L39.956,90.649L38.316,90.811L38.069,90.885L35.650,91.040L32.822,90.986L30.234,90.697L27.039,90.058L22.047,87.820L20.240,86.781L17.580,85.112L14.492,82.828L11.493,80.091L7.323,77.045L7.751,76.978L8.133,76.511L8.599,75.210L9.052,74.360L9.135,74.022L9.115,73.607L8.741,72.522L8.726,72.363L8.753,72.041L8.741,71.868L8.545,71.325L8.499,71.141L8.481,70.677L8.584,70.413L9.025,69.894L9.265,69.234L9.204,67.862L9.275,67.138L9.526,66.883L9.791,66.807L10.064,66.775L10.343,66.654L10.560,66.400L10.980,65.424L8.233,61.822L8.072,61.465L8.065,61.053L8.205,60.669L8.597,59.989L9.630,58.194L10.299,57.034L11.092,55.658L12.765,52.749L14.441,49.841L15.902,47.304L16.935,45.508L17.327,44.828L17.806,43.994L18.061,43.670L18.402,43.498L19.364,43.496L22.289,43.490L25.212,43.487L28.135,43.482L31.058,43.477L33.859,43.475L33.983,43.474L36.906,43.469L39.828,43.464L42.751,43.458L44.654,43.456L45.069,43.407L45.450,43.268L45.457,43.258L45.535,43.149L45.678,42.836L45.741,42.652L45.619,42.704L45.565,42.718L45.527,42.739L45.451,42.816L45.293,42.816L45.210,42.441L45.723,42.011L45.451,41.748L45.451,41.612L45.917,41.419L45.778,41.197L45.161,40.846L45.081,40.429L45.231,40.128L45.491,39.928L45.741,39.807L45.454,39.693L45.245,39.525L45.211,39.306L45.451,39.041L45.544,39.134L45.610,39.168L45.885,39.206L45.805,39.088L45.676,38.844L45.596,38.726L45.692,38.738L45.719,38.707L45.719,38.651L45.741,38.590L45.866,38.676L46.042,38.726L46.173,38.672L46.174,38.439L46.044,38.492L45.735,38.377L45.520,38.220L45.668,38.138L46.059,38.011L46.372,37.710L46.497,37.355L46.319,37.072L46.174,37.072L46.174,37.236L46.030,37.236L46.085,36.924L46.286,36.810L46.575,36.830L46.899,36.922L46.654,36.509L46.626,36.383L46.622,36.094L46.579,35.777L46.459,35.748L46.271,35.833L46.030,35.867L45.905,35.810L45.748,35.707L45.531,35.610L44.863,35.523L44.809,35.398L44.837,35.209L44.726,34.965L44.601,34.844L44.399,34.701L44.162,34.634L43.654,34.880L43.523,34.683L43.424,34.213L43.219,34.212L42.669,34.377L42.555,34.433L42.430,34.363L42.132,34.302L41.791,34.289L41.529,34.364L41.640,34.154L41.828,33.995L41.975,33.829L41.963,33.598L41.719,33.448L41.393,33.427L41.209,33.345L41.383,33.009L41.308,32.653L41.446,32.281L41.515,31.966L41.227,31.792L41.165,31.939L41.094,32.012L40.983,32.048L40.806,32.080L40.806,31.943L41.085,31.428L40.795,30.635L39.362,28.564L39.055,28.319L38.295,27.938L37.982,27.677L38.054,27.416L38.054,27.267L37.765,27.102L37.567,27.269L37.317,27.267L35.856,26.814L35.465,26.586L34.848,25.961L34.409,25.748L34.751,25.384L34.699,25.211L34.410,25.161L34.041,25.160L34.004,25.252L34.082,25.453L34.104,25.655L33.896,25.748L33.784,25.687L33.518,25.397L33.395,25.297L32.584,25.007L32.331,24.783L32.237,24.326L32.118,24.093L31.369,23.190L31.287,22.996L31.179,22.575L31.066,22.438L30.841,22.396L30.330,22.452L30.119,22.363L29.365,21.540L29.170,21.235L29.079,21.013L28.971,20.622L28.881,20.468L28.686,20.353L28.253,20.241L28.170,20.099L28.127,19.758L28.006,19.360L27.822,19.012L27.591,18.814L27.011,18.783L26.444,18.874L26.012,18.799L25.841,18.274L25.515,18.098L24.859,17.962L24.366,17.737L24.456,17.391L24.615,17.362L33.919,17.429L33.930,11.370L33.942,5.310L34.113,5.121L34.550,5.000L35.464,5.000L40.126,5.005L44.787,5.009L49.447,5.015L54.110,5.019L58.770,5.023L63.432,5.028L68.093,5.033L72.754,5.038L72.845,9.798L72.961,15.907L72.994,22.181L72.636,27.893L72.248,34.088L72.062,36.363L71.736,40.913L71.193,46.007L71.153,47.074L71.142,47.351L71.318,47.640L71.365,47.569L71.566,47.468L71.814,47.384L72.006,47.373L72.395,47.211L74.018,47.288L74.622,47.184L75.302,47.180L77.178,47.666L77.982,47.351L78.278,47.485L78.995,48.091L79.728,47.908L80.667,48.119L81.389,48.544L81.469,49.007L81.950,49.086L84.088,50.437L83.827,51.430L83.871,51.578L84.443,51.578L84.673,51.489L84.741,51.301L84.717,51.136L84.667,51.113L84.661,51.021L84.589,50.943L84.521,50.841L84.523,50.675L84.629,50.642L84.826,50.664L85.017,50.632L85.101,50.437L85.183,50.083L85.371,49.840L85.571,49.652L85.693,49.459L85.719,49.120L85.557,48.598L85.536,48.254L85.693,48.254L85.685,48.485L85.693,48.556L85.825,48.556L86.078,48.389L86.695,48.509L86.996,48.391L86.506,47.932L86.233,47.724L85.842,47.544L85.678,47.324L85.536,47.073L85.391,46.887L84.478,46.371L84.218,46.044L84.523,45.683L84.847,45.873L85.448,46.137L85.693,46.285L86.309,46.937L86.755,47.194L87.864,48.127L90.050,49.157L90.767,49.808L90.992,49.910L91.926,50.734L92.664,51.054L92.677,51.059L92.429,51.152L92.363,51.350L92.380,51.589L92.239,51.883L92.108,51.719L91.743,51.875L91.431,52.048L91.094,52.175L90.647,52.184L90.527,52.346L89.886,53.455L88.901,54.427L87.450,55.574L86.759,56.121L84.907,57.567L83.066,59.004L81.227,60.439L79.401,61.863L76.721,63.954L75.982,64.307L73.829,65.033L73.178,65.365L73.042,65.477L72.748,65.720L72.494,66.118L72.159,67.134L72.572,67.523L72.571,68.104L72.308,68.730L72.145,68.964L71.942,69.255L71.416,69.714L71.250,69.972L71.229,70.386L71.330,70.693L71.514,70.977L71.942,71.497L72.141,71.829L72.541,72.803L72.772,73.104L72.966,73.277L73.057,73.419L73.093,73.475L73.132,73.850L73.078,74.023L72.853,74.269L72.777,74.408L72.866,75.518L72.855,75.909L72.756,76.274L72.507,76.514L72.262,76.533L71.730,76.347L71.469,76.300L71.108,76.347L70.948,76.457L70.845,76.629L70.653,76.869L69.989,77.448L69.693,77.771L69.482,78.154L69.308,78.341L68.836,78.462L68.619,78.606L68.482,78.893L68.444,79.242L68.490,79.927Z" fill="currentColor" stroke="currentColor" stroke-width="1.5" stroke-linejoin="round"/>
</svg>