<svg xmlns="http://www.w3.org/2000/svg" viewBox="0 0 100 100" role="img" aria-label="Guam">
  <title>Guam</title>
  <path d="M70.814,8.032L72.987,12.872L76.729,15.612L80.988,16.826L84.696,17.101L84.747,19.654L81.678,25.390L75.177,34.947L67.727,41.808L54.259,50.390L49.000,55.904L46.017,64.911L44.051,85.284L38.860,93.227L35.135,94.823L30.790,95.000L27.220,93.750L25.047,89.814L22.150,86.064L21.478,84.982L20.185,76.729L19.512,75.266L18.494,73.989L17.253,72.979L15.701,72.269L17.874,70.080L19.253,67.837L19.978,65.053L20.185,61.188L19.770,59.388L18.701,57.145L17.494,55.239L15.253,53.564L16.201,51.915L17.856,50.975L18.736,52.128L21.667,51.835L34.463,44.362L37.412,41.720L49.000,34.947L51.259,32.677L53.190,30.053L54.880,26.897L59.329,12.287L60.692,9.654L63.192,7.261L66.641,5.239L69.590,5.000L70.814,8.032Z" fill="currentColor" stroke="currentColor" stroke-width="1.5" stroke-linejoin="round"/>
</svg>