<svg xmlns="http://www.w3.org/2000/svg" viewBox="0 0 100 100" role="img" aria-label="Guyana">
  <title>Guyana</title>
  <path d="M79.892,85.773L79.324,85.988L78.954,86.200L78.760,86.215L78.575,86.123L78.401,85.981L78.209,85.859L77.973,85.831L77.769,85.914L77.607,86.039L77.434,86.133L77.188,86.125L76.944,86.084L76.780,86.123L76.257,86.537L76.110,86.604L75.943,86.604L75.078,86.456L74.919,86.401L74.722,86.242L74.642,86.125L74.539,86.060L74.276,86.058L73.871,86.103L73.671,86.100L73.453,86.055L73.133,85.886L72.908,85.694L72.764,85.443L72.688,85.095L72.318,84.799L71.729,85.034L70.689,85.689L70.443,85.644L70.003,85.368L69.704,85.340L69.435,85.441L69.257,85.606L69.103,85.797L68.912,85.974L68.656,86.107L68.486,86.169L68.365,86.278L68.063,87.089L67.936,87.310L67.127,88.338L66.763,88.613L66.195,88.758L65.822,88.770L64.793,88.581L64.359,88.559L63.970,88.663L62.989,89.098L62.576,89.351L62.371,89.425L62.167,89.415L61.801,89.266L61.608,89.239L61.535,89.328L61.550,89.521L61.621,89.893L61.584,90.104L61.503,90.328L61.289,90.723L61.094,90.959L60.584,91.055L60.009,91.036L59.617,90.932L59.533,90.830L59.444,90.564L59.350,90.446L59.147,90.339L59.020,90.360L58.908,90.433L58.753,90.480L58.523,90.472L58.256,90.428L57.995,90.352L57.786,90.247L57.699,90.154L57.580,89.957L57.527,89.929L57.388,90.024L57.305,90.186L57.238,90.365L57.151,90.514L57.043,90.586L56.765,90.710L56.678,90.789L56.661,90.910L56.731,91.168L56.725,91.284L56.396,91.506L56.238,91.533L55.357,91.685L55.322,91.729L55.177,91.911L55.258,92.163L55.488,92.643L55.566,92.897L55.573,93.193L55.494,93.405L55.113,94.006L55.013,94.011L54.917,93.953L54.819,93.919L54.823,93.895L54.775,93.845L54.707,93.794L54.650,93.766L54.596,93.787L54.441,93.907L54.364,93.939L53.122,93.820L52.938,93.837L52.798,93.945L52.462,94.432L52.268,94.644L52.035,94.811L51.743,94.927L51.500,94.982L51.280,95.000L51.061,94.965L50.817,94.861L50.504,94.609L50.399,94.357L50.335,94.092L50.143,93.799L49.918,93.618L49.669,93.482L49.602,93.456L49.126,93.270L47.097,92.909L46.316,92.656L46.100,92.539L45.947,92.335L45.687,91.749L45.585,91.617L45.365,91.488L45.311,91.277L45.284,91.048L45.143,90.864L45.032,90.847L44.785,90.915L44.637,90.879L44.592,90.824L44.506,90.632L44.461,90.561L44.399,90.529L44.248,90.514L44.191,90.490L44.081,90.359L43.842,89.931L43.730,89.805L43.350,89.503L43.145,89.240L42.805,88.685L42.553,88.472L42.295,88.391L42.078,88.419L41.866,88.479L41.620,88.493L41.480,88.457L41.357,88.393L41.246,88.307L40.979,88.022L40.960,87.922L41.154,87.660L41.410,87.164L41.398,87.014L41.365,86.997L41.288,87.017L41.136,86.981L40.679,86.801L40.537,86.793L40.290,86.882L40.142,86.876L40.032,86.744L39.973,86.494L39.954,86.225L39.961,86.031L40.006,85.892L40.158,85.656L40.214,85.526L40.226,85.415L40.195,85.095L40.217,84.991L40.287,84.789L40.295,84.689L40.255,84.555L40.120,84.300L40.102,84.139L40.140,84.011L40.277,83.795L40.316,83.675L40.310,83.550L40.199,83.186L40.190,82.731L40.257,82.259L40.239,81.840L39.977,81.545L39.867,81.516L39.629,81.510L39.515,81.487L39.364,81.408L38.992,81.087L38.508,80.836L38.276,80.670L38.150,80.437L38.170,80.326L38.295,80.122L38.292,79.987L38.265,79.857L38.252,79.593L38.231,79.460L37.878,78.665L37.833,78.432L37.836,78.279L37.818,78.187L37.717,77.982L37.667,77.932L37.511,77.874L37.450,77.827L37.459,77.787L37.519,77.637L37.523,77.572L37.140,76.823L37.096,76.587L37.174,74.595L37.426,73.593L37.457,73.335L37.414,72.637L37.472,72.331L37.591,72.041L37.916,71.509L37.981,71.457L38.061,71.427L38.133,71.388L38.172,71.309L38.159,71.224L38.068,71.095L38.051,71.020L38.090,70.987L38.244,70.963L38.275,70.915L38.248,70.835L38.144,70.720L38.109,70.641L38.111,70.482L38.174,70.388L38.262,70.310L38.343,70.199L38.508,69.647L38.562,69.525L38.876,69.002L39.005,68.592L39.044,68.581L39.120,68.576L39.204,68.556L39.265,68.499L39.275,68.415L39.201,68.254L39.184,68.172L39.238,67.582L39.027,67.659L39.061,67.444L39.270,66.939L39.171,66.629L38.951,66.377L38.763,66.109L38.765,65.751L39.072,65.414L40.071,65.062L40.532,64.634L40.807,64.514L40.914,64.426L40.988,64.286L40.995,64.181L40.980,64.073L40.988,63.927L41.089,63.620L41.244,63.465L41.740,63.242L41.980,63.057L42.019,62.884L41.966,62.682L41.932,62.406L42.007,62.160L42.184,61.875L42.411,61.643L42.637,61.551L42.757,61.534L42.824,61.476L42.843,61.383L42.819,61.261L42.731,61.161L42.587,61.109L42.201,61.046L42.085,61.051L42.008,61.003L42.019,60.689L41.966,60.617L41.893,60.557L41.722,60.245L41.310,59.861L41.193,59.671L41.232,59.385L41.367,59.182L41.401,59.008L41.144,58.806L40.621,58.637L40.421,58.490L40.279,58.169L40.255,58.036L40.253,57.930L40.285,57.714L40.314,57.643L40.423,57.498L40.449,57.421L40.423,57.340L40.300,57.201L40.279,57.146L40.408,56.917L40.824,56.485L40.900,56.195L40.903,56.110L40.908,55.991L40.863,55.951L40.723,55.936L40.582,55.891L40.475,55.789L40.383,55.669L40.285,55.571L39.575,55.173L39.413,54.958L39.315,55.067L39.211,55.094L38.951,55.026L38.893,55.019L38.761,55.021L38.707,55.005L38.658,54.928L38.693,54.773L38.643,54.727L38.486,54.727L38.249,54.842L38.137,54.853L38.071,54.794L37.897,54.562L37.787,54.493L37.667,54.469L37.527,54.461L37.407,54.495L37.354,54.596L37.285,54.677L37.134,54.653L36.846,54.554L36.609,54.590L36.421,54.643L36.291,54.610L36.227,54.387L36.162,54.297L36.030,54.229L35.898,54.223L35.834,54.321L35.806,54.460L35.735,54.514L35.626,54.512L35.481,54.481L35.288,54.382L35.151,54.201L35.092,53.976L35.132,53.744L35.457,53.398L35.562,53.381L35.806,53.376L35.916,53.337L36.031,53.228L36.072,53.113L36.085,52.989L36.116,52.852L36.177,52.706L36.525,52.199L36.629,52.001L36.703,51.788L36.731,51.557L36.677,51.027L36.848,50.484L36.879,49.752L36.963,49.392L37.054,49.171L37.095,48.945L37.106,48.474L37.322,47.735L37.303,47.387L36.963,47.215L36.427,46.909L36.176,46.717L36.018,46.539L35.988,46.505L35.601,45.606L35.495,45.465L34.950,45.663L34.775,45.507L34.661,45.220L34.501,45.174L33.993,45.306L33.768,45.417L33.277,45.910L33.046,46.071L32.779,46.078L32.245,45.893L31.991,45.906L31.898,45.985L31.756,46.222L31.636,46.309L31.546,46.304L31.464,46.239L31.380,46.155L31.289,46.093L31.047,46.044L30.360,46.141L30.185,46.120L30.050,46.058L29.924,45.980L29.777,45.914L29.634,45.886L28.911,45.836L28.641,45.849L28.098,45.969L27.161,44.956L26.239,43.937L25.317,42.917L24.395,41.898L23.474,40.878L22.551,39.858L21.630,38.839L20.708,37.819L20.316,37.384L20.108,36.893L20.235,36.758L20.642,36.531L20.821,36.390L21.391,35.482L21.545,35.092L21.657,34.919L21.818,34.832L22.222,34.757L22.421,34.693L22.568,34.606L22.686,34.446L22.817,34.133L22.974,33.996L23.141,33.969L23.319,33.987L23.455,33.950L23.494,33.755L23.497,33.588L23.561,33.126L23.537,33.005L23.499,32.966L23.457,32.939L23.423,32.856L23.363,32.770L23.149,32.636L23.085,32.525L22.993,32.184L22.976,32.049L23.050,31.460L23.110,31.291L23.217,31.144L23.243,31.042L23.248,30.941L23.233,30.841L23.199,30.742L23.067,30.559L22.950,30.194L22.855,30.011L22.669,29.840L22.500,29.745L22.383,29.624L22.355,29.374L22.442,28.954L22.620,28.502L22.858,28.067L23.239,27.628L23.354,27.489L23.584,27.444L23.850,27.469L24.077,27.538L24.189,27.315L24.446,27.353L24.706,27.433L24.930,27.263L25.486,27.332L25.738,27.295L25.805,27.245L26.135,26.896L26.156,26.846L26.161,26.745L26.134,26.633L26.014,26.462L25.987,26.325L26.058,26.276L26.216,26.289L26.485,26.363L26.567,26.421L26.654,26.505L26.763,26.585L26.908,26.628L27.022,26.619L27.302,26.554L27.445,26.537L27.694,26.603L28.139,26.892L28.321,26.954L28.578,26.864L28.775,26.657L29.120,26.162L29.318,26.001L29.547,25.902L30.423,25.692L31.977,24.726L32.302,24.649L32.507,24.771L32.620,24.166L32.722,23.960L32.906,23.805L33.113,23.672L33.285,23.529L33.405,23.359L33.499,23.157L33.550,22.942L33.541,22.735L33.449,22.543L33.292,22.402L32.869,22.166L32.861,22.156L32.717,21.997L32.572,21.917L32.412,21.904L32.214,21.934L32.039,21.928L31.906,21.861L31.780,21.777L31.629,21.721L31.316,21.719L31.057,21.816L30.859,22.004L30.591,22.485L30.431,22.488L29.584,21.818L29.453,21.687L29.275,21.323L29.269,20.960L29.421,20.630L29.717,20.365L29.772,20.278L29.799,20.188L29.801,20.091L29.777,19.990L29.671,19.825L29.531,19.484L29.446,19.328L29.360,19.261L29.250,19.218L29.151,19.156L29.102,19.038L29.107,18.935L29.120,18.858L29.115,18.785L29.061,18.696L28.896,18.582L28.727,18.543L28.575,18.484L28.293,17.967L28.221,17.790L28.211,17.606L28.382,17.287L28.933,17.110L29.122,16.876L29.294,16.562L29.413,16.395L29.493,16.336L29.669,16.368L29.784,16.282L29.830,16.125L29.801,15.944L29.987,15.615L29.989,15.482L29.948,15.251L29.957,15.143L30.017,15.031L30.291,14.705L30.531,14.253L30.702,14.091L30.975,13.999L32.007,14.017L32.539,13.966L32.835,13.744L32.932,13.463L33.201,13.219L33.790,12.816L33.837,12.773L34.016,12.611L34.141,12.416L34.286,12.250L34.870,12.024L35.081,11.848L35.275,11.648L35.525,11.460L35.785,11.378L36.270,11.424L36.532,11.410L36.737,11.289L36.861,11.076L36.963,10.586L37.105,10.403L37.121,10.261L37.091,10.121L37.089,9.945L37.179,9.755L37.490,9.512L37.620,9.369L37.831,9.268L38.438,9.128L38.688,9.113L38.941,9.032L39.174,8.820L39.328,8.550L39.340,8.299L38.854,7.513L37.588,6.097L36.842,5.000L37.084,5.111L37.484,5.372L37.919,5.809L38.614,6.865L39.070,7.304L39.416,7.482L40.010,7.643L40.316,7.797L40.983,8.282L41.332,8.471L41.693,8.546L41.803,8.734L41.826,8.758L41.843,8.857L41.891,8.879L41.966,8.871L42.651,9.011L42.740,9.096L42.899,9.291L43.985,10.221L43.705,9.771L43.280,9.354L42.771,9.018L41.858,8.645L40.738,7.872L40.001,7.473L39.901,7.338L39.751,7.000L39.779,6.842L40.067,6.796L40.268,6.885L40.698,7.227L41.194,7.375L41.435,7.539L41.826,7.872L42.627,8.348L43.738,8.850L45.030,9.776L47.252,11.095L47.986,11.646L48.165,11.812L48.344,12.047L49.001,12.655L50.663,14.514L51.288,15.007L51.643,15.521L51.954,15.934L52.253,16.548L52.453,16.838L52.498,16.760L52.376,16.459L52.399,16.326L52.567,16.338L52.869,16.440L53.125,16.652L53.358,16.876L53.559,17.122L53.758,17.424L54.014,17.837L54.321,18.212L54.514,18.486L55.468,19.429L55.689,19.804L55.778,20.209L55.657,20.602L55.740,20.511L55.677,21.036L55.740,22.603L55.525,23.888L55.375,24.084L55.105,24.293L54.910,24.444L54.727,24.666L54.594,24.909L54.514,25.158L54.443,25.627L54.154,26.361L54.129,26.617L54.154,27.419L54.129,27.544L54.015,27.696L53.988,27.831L53.988,30.006L53.920,30.269L53.884,30.407L53.075,31.559L53.126,31.591L53.159,31.636L53.533,31.294L53.657,31.219L53.694,31.170L53.726,31.100L53.775,31.060L53.940,31.133L54.044,31.146L54.101,31.143L54.102,31.143L54.246,31.135L54.154,31.059L54.356,30.571L54.404,28.968L54.528,28.455L55.811,26.195L56.135,25.756L56.579,25.444L57.114,25.310L57.628,25.337L58.094,25.479L58.821,25.861L59.059,26.084L59.119,26.119L59.156,26.162L59.257,26.247L59.312,26.274L59.361,26.298L59.410,26.244L59.452,26.101L59.555,26.069L60.600,26.197L61.356,26.562L61.598,26.764L61.960,27.037L62.415,27.484L62.740,27.726L63.395,28.350L63.783,28.743L63.895,28.926L64.115,29.021L64.381,29.298L65.079,29.860L65.464,30.174L65.721,30.395L65.886,30.570L66.070,30.754L66.308,31.012L66.558,31.612L66.928,32.479L67.061,32.649L67.099,32.887L67.155,32.985L67.259,32.835L67.280,32.723L67.300,32.588L67.300,32.382L67.456,32.211L67.577,32.141L67.621,32.091L67.677,32.084L67.916,32.103L68.169,32.195L68.371,32.288L68.616,32.410L68.998,32.635L69.149,32.719L69.569,33.001L70.064,33.363L71.065,34.380L71.319,34.749L71.554,35.189L71.662,35.687L71.699,35.988L71.742,36.133L71.804,36.258L71.832,36.362L71.842,36.497L71.663,36.241L71.573,36.159L71.790,36.596L71.862,36.769L71.866,37.032L71.886,37.230L71.919,37.668L71.720,38.095L71.665,38.321L71.577,38.531L71.521,38.675L71.514,38.926L71.391,39.220L71.362,39.507L71.648,39.977L71.624,40.637L71.481,41.020L71.331,41.266L71.194,41.542L70.576,42.432L70.576,42.516L70.464,42.771L70.425,42.965L70.412,43.227L70.363,43.512L70.238,43.707L69.647,44.303L69.547,44.434L69.506,44.568L69.554,44.681L69.662,44.681L69.838,44.609L69.960,44.639L70.037,44.636L70.076,44.670L70.095,45.522L70.117,45.618L70.178,45.685L70.285,45.716L70.390,45.702L70.470,45.649L70.502,45.568L70.378,45.420L70.315,45.302L70.336,45.185L70.439,45.125L70.577,45.119L70.699,45.156L70.751,45.231L70.761,45.255L70.843,45.462L71.249,45.956L71.340,46.200L71.280,46.370L71.132,46.512L70.940,46.623L70.751,46.701L70.685,46.458L70.581,46.332L70.427,46.284L70.211,46.276L70.074,46.348L69.994,46.517L69.913,46.868L69.732,47.280L69.694,47.418L69.679,47.580L69.734,47.716L70.178,48.118L70.056,48.189L69.956,48.179L69.861,48.138L69.755,48.118L69.582,48.142L69.477,48.183L69.386,48.233L69.256,48.285L68.950,48.366L67.988,48.465L67.783,48.528L67.626,48.542L67.545,48.502L67.358,48.325L67.293,48.285L66.981,48.301L66.702,48.350L66.168,48.542L65.690,48.333L65.233,48.360L64.825,48.561L64.499,48.876L64.316,49.223L64.175,49.334L63.877,49.376L63.725,49.345L63.608,49.287L63.490,49.254L63.337,49.292L63.246,49.379L62.998,49.792L62.834,49.996L62.612,50.234L62.417,50.515L62.333,50.925L62.425,51.093L62.628,51.196L62.829,51.331L62.992,51.833L63.319,52.251L63.420,52.467L63.403,52.698L63.305,52.910L63.088,53.225L62.895,53.847L62.689,54.192L62.466,54.735L62.376,55.139L62.261,55.299L62.121,55.455L62.001,55.642L61.953,55.866L61.991,56.058L62.057,56.244L62.091,56.446L62.065,56.753L61.987,56.994L61.851,57.201L60.792,58.287L60.623,58.547L60.602,58.799L60.755,59.325L60.914,60.363L61.034,60.794L61.329,61.166L62.129,61.799L62.327,62.031L62.944,62.937L63.203,63.493L63.254,63.727L63.287,64.281L63.359,64.539L63.496,64.765L63.698,64.895L64.293,65.142L64.757,65.440L64.801,65.528L64.862,65.742L64.959,65.922L64.969,65.966L64.985,66.008L65.040,66.069L65.099,66.094L65.229,66.112L65.255,66.148L65.302,66.171L65.556,66.319L65.755,66.545L65.737,66.761L65.553,67.121L65.554,67.200L65.581,67.351L65.574,67.433L65.512,67.654L65.505,67.755L65.530,67.883L65.583,68.028L65.624,68.090L65.683,68.141L65.786,68.184L66.130,68.254L66.335,68.369L66.337,68.371L66.715,68.582L66.847,68.619L66.959,68.602L67.078,68.363L67.235,68.393L67.390,68.486L67.460,68.539L67.558,68.543L67.653,68.561L67.726,68.597L67.754,68.660L67.796,68.715L67.887,68.663L67.973,68.580L68.003,68.539L68.347,68.450L68.432,68.343L68.419,68.122L68.803,68.289L69.128,68.389L69.453,68.334L69.838,68.031L70.140,68.655L70.178,68.827L70.149,69.250L70.132,69.327L70.031,69.479L70.058,69.581L70.134,69.681L70.178,69.827L70.162,69.972L70.097,70.223L70.087,70.373L70.114,70.507L70.245,70.789L70.211,70.937L70.132,71.034L70.110,71.114L70.245,71.213L70.367,71.233L70.488,71.194L70.594,71.124L70.676,71.047L70.699,71.084L70.701,71.095L70.709,71.101L70.751,71.123L70.566,71.481L70.676,71.703L70.886,71.897L71.000,72.168L71.013,72.262L71.071,72.417L71.083,72.509L71.044,72.559L70.874,72.550L70.835,72.593L70.856,72.740L70.891,72.847L70.899,72.943L70.835,73.055L70.735,73.214L70.891,73.304L71.295,73.347L71.353,73.528L71.221,73.699L71.031,73.851L70.918,73.972L71.079,74.603L71.129,74.730L71.226,74.781L71.265,74.896L71.319,75.010L71.465,75.063L71.579,75.037L71.823,74.923L71.967,74.896L72.052,74.976L71.842,75.416L71.922,75.646L71.962,75.618L72.378,75.555L72.496,75.613L72.468,75.745L72.385,75.900L72.337,76.021L72.400,76.181L72.715,76.514L72.835,76.738L72.908,77.218L73.005,77.290L73.258,77.147L73.340,77.303L73.307,77.447L73.250,77.606L73.258,77.814L73.317,77.924L73.624,78.283L73.646,78.372L73.582,78.784L73.661,78.897L73.832,78.838L74.081,78.655L74.182,78.768L74.165,78.901L74.106,79.036L74.081,79.154L74.120,79.322L74.177,79.430L74.379,79.617L74.438,79.736L74.416,79.862L74.338,80.038L74.430,80.259L74.866,80.640L75.001,80.913L74.995,81.352L75.047,81.462L75.160,81.518L75.441,81.571L75.549,81.629L75.703,81.866L75.823,82.404L75.915,82.670L76.004,83.034L77.175,84.699L77.508,84.836L78.701,84.855L79.159,85.095L79.227,85.199L79.314,85.283L79.416,85.345L79.671,85.427L79.778,85.513L79.852,85.632L79.892,85.773ZM56.820,24.361L57.367,24.444L57.354,24.496L56.669,24.999L56.061,25.183L55.823,25.444L55.787,25.237L55.860,24.960L55.988,24.715L56.173,24.574L56.286,24.407L56.329,24.361L56.442,24.342L56.820,24.361Z" fill="currentColor" stroke="currentColor" stroke-width="1" stroke-linejoin="round"/>
</svg>