<svg xmlns="http://www.w3.org/2000/svg" viewBox="0 0 100 100" role="img" aria-label="Hong Kong S.A.R.">
  <title>Hong Kong S.A.R.</title>
  <path d="M67.636,18.021L68.416,17.958L67.221,19.531L66.416,20.500L65.247,21.701L64.468,21.701L64.364,23.562L65.740,23.162L65.857,22.501L67.727,21.968L68.351,21.280L69.584,18.990L70.208,18.857L70.701,19.398L71.584,18.857L72.078,19.398L71.377,20.844L72.325,20.613L73.351,21.568L73.273,22.740L74.052,23.239L75.325,22.501L75.610,23.162L75.610,24.250L75.273,25.640L76.468,25.725L77.117,26.757L78.597,27.480L83.078,26.139L84.065,25.591L84.442,26.546L81.442,28.969L79.701,30.584L77.818,31.405L75.714,32.332L73.844,33.688L73.104,34.888L71.455,35.977L70.208,35.977L67.857,32.866L65.610,33.287L64.753,32.733L64.364,33.554L64.623,35.022L65.364,35.422L65.610,36.637L64.468,36.370L64.364,35.576L63.234,34.888L61.377,35.155L60.753,35.977L57.688,36.616L59.130,37.451L60.883,38.673L62.909,40.049L64.753,41.355L64.468,42.711L65.247,43.378L64.364,45.140L65.364,44.852L66.610,42.318L68.338,40.639L68.974,38.807L69.870,38.778L71.091,39.607L73.597,39.607L73.948,40.506L73.597,42.156L74.455,43.244L75.078,41.489L77.078,40.422L75.078,37.318L77.078,35.710L79.091,35.155L78.961,33.688L82.623,31.096L82.831,31.932L83.740,32.122L82.831,33.821L84.533,34.256L84.909,36.910L84.065,38.006L84.805,39.460L85.662,38.406L86.429,40.955L87.182,40.822L87.065,37.838L88.390,34.355L89.662,35.422L89.584,36.925L90.039,38.006L92.520,38.139L94.753,38.673L94.377,40.007L95.000,42.711L93.091,41.819L91.883,41.622L90.039,45.260L90.805,44.817L92.390,47.092L93.156,50.786L92.649,50.912L92.520,50.056L91.026,49.979L91.520,51.453L90.896,52.942L90.039,53.742L88.545,54.269L88.026,56.572L87.182,55.357L87.182,53.209L85.532,54.269L85.065,53.075L84.065,51.853L84.312,49.171L82.091,48.230L81.805,46.741L80.442,47.710L78.844,48.090L76.597,46.468L75.325,46.468L73.844,48.630L74.584,51.186L75.610,52.675L75.078,53.876L73.597,52.542L73.468,50.786L72.195,51.453L71.740,52.521L73.377,54.171L74.455,58.595L75.195,58.854L77.442,59.311L77.571,61.277L78.195,61.277L79.455,61.010L80.688,62.632L79.740,63.763L78.468,64.647L77.325,64.247L77.078,64.381L77.195,65.328L77.169,66.670L78.844,66.129L79.338,67.484L79.338,68.699L78.312,69.366L77.078,68.278L75.377,67.267L75.610,65.729L74.584,62.899L73.221,61.832L73.351,60.476L73.468,59.409L71.740,58.314L71.091,61.277L71.338,62.899L69.091,65.328L67.364,63.573L64.753,60.343L65.247,61.965L64.870,61.965L62.156,59.016L60.727,60.659L61.507,61.832L61.507,62.358L60.273,61.832L59.948,63.131L59.130,63.706L58.390,64.114L57.649,63.173L57.805,61.221L57.403,60.343L57.273,59.542L56.416,59.542L56.416,58.328L55.247,57.246L53.013,55.954L50.805,54.880L50.675,55.758L49.052,53.075L48.675,50.786L47.688,50.112L46.519,51.292L43.584,50.786L43.454,51.320L42.195,51.320L41.688,51.987L40.208,51.587L38.974,51.987L37.325,52.675L34.234,53.475L33.351,52.942L33.351,51.987L30.740,51.987L29.662,51.109L28.195,50.646L27.247,48.497L26.636,48.363L26.273,47.142L25.273,48.244L26.909,49.733L23.766,50.112L22.156,51.453L19.896,50.245L19.143,50.245L17.299,49.031L17.922,47.008L16.688,45.140L14.519,43.399L16.506,41.700L19.896,41.489L21.545,40.288L23.636,36.370L27.377,34.755L30.740,29.629L31.740,29.629L32.987,30.050L32.831,31.096L32.740,32.332L33.351,31.932L35.234,31.405L35.727,31.405L35.974,30.717L35.844,29.783L35.844,28.428L37.701,27.480L40.208,26.813L40.818,26.139L41.455,24.917L42.688,24.517L43.454,24.250L44.571,23.695L44.104,22.586L45.556,21.719L48.261,21.719L49.151,22.682L49.646,22.896L51.526,21.077L53.011,20.863L54.693,21.077L55.518,18.704L56.804,17.206L58.602,16.618L60.169,17.956L62.857,17.956L66.182,18.141L67.636,18.021ZM52.883,83.087L48.649,83.382L49.169,81.886L49.169,76.641L47.597,76.669L47.935,75.560L47.987,73.249L49.039,73.671L49.701,75.651L51.026,77.104L52.156,76.641L52.156,77.708L51.026,78.523L53.013,78.382L54.844,78.382L55.636,78.804L53.792,80.096L53.156,80.960L54.156,83.101L52.883,83.087ZM65.364,64.647L66.351,65.729L67.364,65.462L68.597,65.996L69.844,68.278L71.091,69.233L71.091,70.988L70.104,72.196L70.701,73.811L71.455,75.286L70.701,75.560L71.831,78.804L69.844,79.204L69.338,78.523L68.104,77.441L68.091,75.630L67.584,73.628L66.494,72.723L65.558,73.502L66.494,73.811L66.494,75.152L65.857,75.286L64.753,76.641L65.857,78.389L65.364,79.604L65.987,80.826L64.104,81.226L63.844,78.523L64.364,78.123L63.922,77.287L62.247,78.123L61.507,77.708L62.247,76.781L61.130,76.107L61.870,75.019L61.507,74.078L60.117,73.811L60.299,72.344L58.273,73.678L57.649,74.619L57.273,74.619L56.909,73.678L56.649,72.456L55.247,71.655L52.662,71.529L51.559,70.988L50.909,69.633L50.675,68.833L49.922,67.484L48.922,67.084L49.052,65.996L49.416,65.729L50.182,65.328L51.559,64.647L53.156,64.114L54.883,64.647L56.026,65.328L57.403,65.729L59.506,65.729L60.987,64.381L62.364,63.573L63.896,64.198L65.364,64.647ZM6.454,79.927L5.299,78.579L5.091,76.325L5.000,74.485L5.299,73.523L6.896,73.523L6.896,71.810L8.104,71.487L8.104,70.405L7.117,69.633L7.195,69.570L8.597,68.474L9.727,67.519L9.831,67.217L11.299,66.951L12.441,65.729L13.805,63.426L16.805,63.426L18.429,63.573L19.532,64.781L21.169,64.114L24.883,61.965L27.247,62.499L28.364,60.610L29.753,60.343L30.883,58.328L33.727,56.038L34.234,57.246L37.948,54.269L38.831,54.880L39.714,55.898L39.221,57.246L38.974,58.728L38.325,58.173L37.078,57.927L35.974,57.927L35.688,60.617L32.987,60.209L32.987,62.499L34.493,61.839L33.766,64.057L33.974,68.278L31.623,68.278L30.221,67.730L32.117,70.433L29.753,72.315L33.351,74.752L30.987,76.641L28.078,78.003L27.870,76.781L27.870,72.997L26.026,72.997L24.507,72.997L22.286,72.997L19.532,75.286L18.429,75.286L17.922,76.107L19.532,76.508L19.532,77.568L18.052,78.558L16.000,78.734L14.052,76.781L13.805,75.560L12.441,75.974L10.805,77.168L8.480,79.183L6.454,79.927Z" fill="currentColor" stroke="currentColor" stroke-width="1.5" stroke-linejoin="round"/>
</svg>