<svg xmlns="http://www.w3.org/2000/svg" viewBox="0 0 100 100" role="img" aria-label="Heard Island and McDonald Islands">
  <title>Heard Island and McDonald Islands</title>
  <path d="M82.962,59.184L87.144,60.876L91.390,61.300L95.000,60.771L71.483,68.092L63.347,76.725L58.860,78.736L47.381,80.027L42.080,79.159L36.894,75.011L35.369,72.938L31.263,66.188L26.076,53.492L24.958,49.407L26.127,46.763L24.322,45.260L23.318,43.398L23.458,41.451L25.059,39.653L21.983,37.558L19.504,36.479L10.466,35.611L7.759,33.876L5.890,30.532L5.000,25.285L10.212,23.528L14.509,19.973L19.822,26.004L20.801,26.258L21.958,29.051L24.538,32.352L27.093,34.384L28.263,33.368L28.924,29.390L30.551,27.612L32.636,28.099L34.758,30.786L32.623,32.395L34.619,36.542L37.962,37.261L41.585,35.569L44.356,32.395L47.432,33.939L56.267,34.320L59.915,36.923L61.619,38.764L65.127,40.266L66.945,41.430L68.127,43.144L70.542,47.630L71.750,48.540L75.754,53.428L77.394,56.179L82.962,59.184Z" fill="currentColor" stroke="currentColor" stroke-width="1.5" stroke-linejoin="round"/>
</svg>