<svg xmlns="http://www.w3.org/2000/svg" viewBox="0 0 100 100" role="img" aria-label="Honduras">
  <title>Honduras</title>
  <path d="M5.031,61.726L5.000,61.261L5.026,61.024L5.120,60.829L5.267,60.731L5.588,60.649L5.707,60.522L5.851,60.262L6.052,60.043L6.504,59.650L6.635,59.486L6.705,59.369L6.815,59.295L7.060,59.263L7.238,59.295L7.600,59.421L7.767,59.408L7.937,59.245L8.004,58.998L8.011,58.732L7.951,57.978L8.002,57.884L8.156,57.717L8.192,57.600L8.166,57.345L8.141,57.307L8.079,57.210L7.947,57.093L7.790,56.889L7.518,56.227L7.382,56.002L7.091,55.649L6.965,55.456L6.897,55.247L6.911,54.966L7.024,54.791L7.382,54.480L7.521,54.281L7.632,54.123L7.810,53.698L7.811,53.304L7.530,53.039L7.758,52.349L7.931,52.079L8.131,51.914L8.224,51.838L8.667,51.612L10.133,51.119L10.636,50.880L12.461,49.460L13.705,48.493L14.957,47.519L16.210,46.542L17.472,45.561L17.942,45.189L18.930,44.410L19.601,43.751L20.037,42.997L20.119,42.887L20.423,42.881L20.653,42.795L20.865,42.678L21.114,42.572L21.203,42.683L21.299,42.484L21.287,42.321L21.332,42.187L21.501,42.123L21.586,42.160L22.240,42.628L22.594,42.739L22.975,42.569L23.812,41.673L24.167,41.446L24.090,41.210L24.235,41.163L24.803,41.241L25.645,40.730L25.750,40.527L25.780,40.380L25.699,40.312L25.538,40.265L25.407,40.159L25.347,40.054L25.399,40.006L26.008,39.993L26.251,39.920L26.488,39.750L26.914,39.607L28.155,39.521L28.415,39.448L28.498,39.237L28.613,39.201L28.703,39.172L28.960,39.205L29.203,39.291L29.845,39.676L30.090,39.699L30.090,39.605L29.942,39.462L30.092,39.291L30.592,38.984L30.316,39.364L30.217,39.596L30.342,39.699L30.421,39.803L31.771,41.031L32.208,41.220L32.671,41.129L32.751,41.045L32.899,40.802L32.967,40.730L33.107,40.719L33.481,40.735L33.558,40.675L33.644,40.420L33.860,40.288L34.147,40.258L35.639,40.601L36.939,41.058L38.278,41.205L39.815,41.560L40.330,41.604L40.880,41.548L41.766,41.282L42.023,41.241L42.063,41.197L42.303,41.008L42.359,40.981L42.441,40.913L42.617,40.976L42.790,41.077L42.861,41.129L43.474,41.181L46.294,40.935L46.774,40.948L47.216,41.129L47.246,41.148L47.581,41.364L47.807,41.424L48.157,41.446L48.443,41.400L48.684,41.289L50.056,40.433L50.413,40.038L50.577,39.904L51.076,39.702L51.578,39.580L53.642,39.504L53.824,39.452L53.970,39.378L54.532,38.966L54.836,38.628L54.966,38.266L54.735,37.963L53.821,37.831L53.384,37.720L53.454,37.554L53.830,37.523L54.946,37.744L55.719,37.888L56.261,37.951L56.942,38.145L57.620,38.322L57.853,38.371L58.014,38.445L58.052,38.617L58.050,38.820L58.087,38.984L58.195,38.984L58.187,38.883L58.216,38.836L58.260,38.810L58.293,38.779L58.532,38.785L58.660,38.977L58.917,39.185L59.221,39.409L59.862,39.681L60.952,39.970L61.706,39.907L62.780,39.798L64.335,39.753L65.171,39.403L66.219,38.639L66.912,38.225L68.007,38.199L68.717,38.438L70.108,39.070L71.853,39.589L72.677,39.871L72.883,40.029L72.793,40.215L72.614,40.489L72.613,40.724L72.611,41.097L72.915,41.393L73.200,41.433L73.555,41.318L73.606,41.014L73.646,40.877L73.784,40.887L73.881,41.074L74.136,41.252L74.500,41.195L74.844,41.236L75.551,41.329L75.680,41.173L75.907,41.076L75.603,40.947L75.240,40.866L74.100,40.673L73.668,40.485L73.305,40.306L73.178,40.070L73.758,40.191L75.743,40.565L77.040,40.701L77.896,40.746L78.191,40.846L78.974,41.500L80.033,42.362L81.603,43.701L83.125,45.008L83.973,45.721L85.079,46.399L85.346,46.557L85.609,46.674L86.117,46.759L86.245,46.826L86.344,46.973L86.353,47.089L86.258,47.166L86.043,47.194L85.790,47.095L85.243,46.661L84.835,46.520L84.561,46.326L84.426,46.265L83.988,46.260L83.797,46.218L83.628,46.051L83.695,46.026L83.756,45.981L83.825,45.958L83.700,45.771L83.225,45.234L83.127,45.234L82.969,45.312L82.775,45.197L82.572,45.026L82.387,44.937L82.091,44.974L81.955,45.068L81.851,45.197L81.647,45.336L81.556,45.274L81.155,45.132L81.339,44.968L81.418,44.876L81.451,44.779L81.382,44.744L81.227,44.719L81.056,44.712L80.949,44.733L80.908,44.895L81.001,45.152L81.169,45.427L81.351,45.643L81.315,45.676L81.299,45.686L81.285,45.703L81.254,45.754L81.155,45.754L80.723,44.912L80.563,44.733L80.398,44.705L80.208,44.741L79.962,44.825L79.791,44.813L79.543,44.753L79.371,44.733L79.483,45.073L79.576,45.189L79.840,45.283L79.844,45.407L79.796,45.575L79.766,45.754L79.865,45.754L79.909,45.525L80.198,45.389L80.329,44.974L80.465,44.930L80.600,45.012L80.795,45.501L81.029,45.897L81.114,46.234L80.805,46.377L80.652,46.543L80.762,46.921L81.008,47.331L81.254,47.593L81.626,47.791L81.934,47.866L82.071,47.726L81.934,47.287L82.128,47.440L82.299,47.643L82.368,47.874L82.249,48.113L82.446,48.360L82.725,48.406L83.430,48.317L83.430,48.419L83.291,48.414L83.197,48.441L83.037,48.521L83.037,48.614L83.157,48.869L83.335,49.102L83.571,49.272L83.874,49.339L84.137,49.307L84.473,49.221L84.796,49.091L85.017,48.930L84.834,48.752L84.220,48.419L84.116,48.317L84.068,48.218L84.009,48.142L83.874,48.113L83.719,48.101L82.616,47.709L82.436,47.593L82.101,47.107L81.934,46.980L82.062,46.866L82.204,46.791L82.526,46.674L83.815,47.242L84.023,47.546L84.104,47.705L84.303,47.851L84.547,47.959L84.958,48.047L85.129,48.168L85.277,48.335L85.403,48.521L85.306,48.586L85.189,48.691L85.106,48.726L85.106,48.819L85.344,48.872L85.545,48.725L85.700,48.706L85.806,49.144L85.774,49.701L85.806,49.849L85.913,49.957L86.022,49.950L86.095,49.843L86.092,49.646L86.200,49.646L86.328,49.937L86.450,49.867L86.693,49.431L86.917,49.301L87.216,49.212L87.733,49.144L87.796,49.074L87.766,48.734L87.787,48.614L87.883,48.551L87.975,48.558L88.083,48.593L89.019,48.776L89.265,48.726L89.265,48.819L89.179,48.909L89.188,48.969L89.236,49.035L89.265,49.144L89.265,49.595L89.190,49.820L89.023,49.914L88.857,49.849L88.781,49.595L88.728,49.519L88.603,49.468L88.453,49.440L88.328,49.431L88.242,49.493L88.164,49.629L88.073,49.849L88.008,49.927L87.944,49.975L87.896,50.049L87.876,50.207L87.911,50.345L87.992,50.370L88.090,50.326L88.171,50.258L88.098,50.132L88.083,50.034L88.112,49.946L88.171,49.849L88.279,49.849L88.309,50.216L88.408,50.479L88.589,50.580L88.871,50.463L88.949,50.377L89.080,50.158L89.166,50.063L89.280,49.990L89.927,49.755L89.922,49.703L89.856,49.544L89.796,49.451L89.714,49.383L89.631,49.296L89.570,49.144L89.522,48.932L89.416,48.646L89.237,48.477L88.969,48.614L88.540,48.356L88.327,48.309L88.073,48.419L87.984,48.317L88.016,48.261L88.073,48.113L87.840,48.081L87.216,47.850L87.088,47.755L86.936,47.586L86.635,47.488L86.411,47.357L86.497,47.082L86.733,46.966L86.958,47.089L87.162,47.286L87.334,47.388L87.489,47.440L89.049,48.257L90.992,48.994L91.739,49.544L91.909,49.825L92.141,50.787L92.395,51.388L92.779,51.958L93.219,52.313L95.000,53.025L94.809,53.057L94.322,53.028L94.121,53.067L93.740,53.242L93.100,53.232L93.041,53.242L92.865,53.173L92.759,53.099L92.770,53.020L92.942,52.935L92.306,52.867L92.058,52.884L91.839,53.028L91.764,52.830L91.614,52.736L91.428,52.663L91.248,52.517L91.110,52.777L90.885,53.026L90.592,53.202L90.253,53.242L90.121,53.169L89.945,52.898L89.868,52.824L89.679,52.791L89.533,52.808L89.484,52.883L89.582,53.028L89.505,53.128L89.482,53.220L89.473,53.447L89.332,53.314L89.251,53.379L89.232,53.552L89.276,53.753L89.195,53.713L88.981,53.651L89.013,53.696L89.051,53.802L89.080,53.855L88.872,53.917L88.512,54.206L88.159,54.339L88.088,54.501L88.057,54.703L87.995,54.885L87.887,54.885L87.765,54.728L87.499,54.649L87.179,54.632L86.892,54.672L86.623,54.801L86.567,54.967L86.704,55.397L86.597,55.397L86.543,55.269L86.435,55.201L86.287,55.180L86.104,55.192L86.134,55.424L85.834,55.542L85.029,55.592L85.132,55.767L85.203,55.840L85.315,55.916L85.049,55.919L84.762,56.012L84.505,56.156L84.330,56.315L84.246,56.208L84.196,56.171L84.139,56.155L84.034,56.112L84.105,56.252L84.123,56.315L83.939,56.266L83.706,56.015L83.532,55.916L83.461,56.259L83.458,56.397L83.532,56.520L82.105,56.596L81.856,56.566L81.829,56.451L81.755,56.410L81.511,56.418L81.359,56.397L81.305,56.344L81.267,56.275L80.937,56.064L80.831,56.071L80.673,56.204L80.841,56.556L80.941,56.693L81.067,56.817L81.067,56.929L80.968,56.992L80.907,56.985L80.839,56.950L80.718,56.929L80.586,56.958L80.512,57.020L80.454,57.092L80.369,57.142L80.017,57.245L79.804,57.262L79.629,57.189L79.288,56.819L79.176,56.724L79.046,56.650L78.847,56.580L78.665,56.593L78.585,56.771L78.660,57.473L78.586,57.802L78.290,57.960L78.130,57.948L77.779,57.868L77.559,57.848L77.449,57.769L77.345,57.380L77.205,57.235L77.014,57.518L76.814,57.896L76.548,58.226L76.009,58.417L75.636,58.627L75.476,58.674L75.254,58.607L75.103,58.477L74.951,58.393L74.732,58.461L74.775,58.168L74.830,58.062L73.776,58.030L73.450,57.960L72.891,57.717L72.615,57.687L72.348,57.848L72.130,57.336L71.979,57.086L71.684,56.884L71.699,56.685L71.659,56.504L71.371,56.468L71.379,56.439L71.492,56.292L71.537,56.250L71.325,55.896L71.008,55.658L70.633,55.544L70.253,55.561L69.389,55.719L69.153,55.858L68.491,56.502L68.232,56.688L68.007,56.840L67.978,56.861L67.780,57.048L67.652,57.282L67.576,57.835L67.529,57.924L67.455,57.960L67.228,58.022L67.306,58.168L67.715,58.461L67.397,58.764L67.311,58.879L67.686,58.879L67.665,58.927L67.579,59.131L67.064,59.650L66.759,59.795L66.514,59.611L66.284,59.355L66.021,59.287L65.906,59.500L65.843,59.915L65.814,60.671L65.763,60.769L65.429,61.126L65.412,61.221L65.446,61.449L65.429,61.544L65.035,61.851L65.267,62.005L65.525,62.242L65.710,62.540L65.725,62.881L65.557,63.128L65.260,63.310L64.899,63.430L64.542,63.494L63.995,63.494L63.845,63.526L63.502,63.698L63.367,63.733L63.288,63.817L63.229,63.918L63.127,64.042L63.086,64.152L63.045,64.200L62.985,64.213L62.830,64.189L62.767,64.200L62.628,64.335L62.462,64.554L62.323,64.789L62.218,65.172L62.099,65.456L61.940,65.745L61.773,65.955L61.399,66.251L61.153,66.395L60.634,66.539L60.550,66.737L60.518,66.976L60.384,67.181L60.114,67.271L59.876,67.314L59.752,67.336L59.436,67.442L59.299,67.650L59.158,67.797L58.652,67.953L58.699,68.110L58.655,68.125L58.616,68.124L58.593,68.142L58.600,68.212L58.511,68.212L58.388,68.175L58.095,68.431L57.911,68.518L57.654,68.501L57.505,68.466L57.435,68.548L57.417,68.876L57.275,69.326L57.214,69.614L57.269,69.744L57.485,69.812L57.567,69.986L57.537,70.217L57.417,70.459L57.318,70.551L57.286,70.580L57.277,70.576L57.250,70.565L57.058,70.347L56.764,70.322L56.427,70.333L56.107,70.221L55.877,69.939L55.736,69.632L55.566,69.372L55.249,69.231L55.052,69.244L54.921,69.299L54.788,69.327L54.587,69.258L54.490,69.166L54.178,68.749L53.158,68.001L53.117,67.605L53.273,67.283L53.276,67.117L52.171,67.283L51.973,67.387L51.811,67.535L51.736,67.665L51.679,67.809L51.575,68.000L51.407,68.178L51.232,68.270L51.062,68.336L50.910,68.438L50.412,69.224L49.466,70.251L49.238,70.616L49.124,71.059L49.041,71.285L48.873,71.477L48.657,71.583L48.392,71.649L47.647,71.697L47.546,71.683L47.410,71.638L47.324,71.576L47.096,71.339L46.885,71.370L46.691,71.473L46.481,71.541L46.225,71.468L45.747,71.202L45.177,71.236L44.000,71.463L43.370,71.383L43.068,71.410L42.740,71.576L42.574,71.693L42.505,71.754L42.481,71.845L42.447,72.053L42.434,72.313L42.392,73.110L42.419,73.246L42.476,73.323L42.535,73.369L42.661,73.465L42.716,73.562L42.726,73.801L42.637,74.280L42.644,74.535L43.110,76.330L43.087,76.563L42.903,76.976L42.881,77.190L42.936,77.339L43.022,77.385L43.120,77.408L43.213,77.493L43.318,77.684L43.348,77.775L43.434,78.203L43.403,78.433L43.291,78.630L43.093,78.815L42.989,78.887L42.886,78.959L42.749,78.995L42.614,78.952L41.783,78.536L41.535,78.515L41.303,78.583L41.112,78.716L40.418,79.320L40.301,79.467L40.198,79.667L40.094,80.089L40.069,80.128L40.096,80.215L40.205,80.456L40.231,80.493L40.106,81.280L40.143,81.375L40.224,81.411L40.281,81.465L40.242,81.612L40.169,81.689L39.956,81.796L39.874,81.861L39.536,82.397L39.372,82.577L39.003,82.813L38.702,82.963L38.624,83.207L38.453,83.195L38.121,82.988L37.907,82.965L34.595,83.180L34.601,83.176L34.741,83.077L34.786,82.886L34.891,82.739L35.046,82.632L35.243,82.557L35.243,82.464L34.844,82.450L34.557,82.392L34.339,82.266L34.151,82.047L34.057,81.899L34.035,81.819L34.061,81.582L34.152,81.546L34.595,81.477L34.741,81.433L33.906,81.208L33.433,81.156L33.165,81.238L33.075,81.238L33.035,80.661L32.838,80.070L32.559,79.548L32.277,79.176L32.187,78.937L32.170,78.925L32.134,78.863L32.050,78.869L31.954,78.889L31.882,78.871L31.782,78.735L31.734,78.615L31.759,78.491L31.882,78.350L32.005,78.270L32.247,78.156L32.376,78.043L32.664,77.629L32.771,77.532L32.966,77.577L33.194,77.521L33.657,77.338L33.637,77.212L33.638,77.125L33.657,77.022L33.444,76.823L33.345,76.753L33.213,76.725L32.923,76.779L32.809,76.754L32.671,76.613L32.425,76.796L32.349,76.875L32.277,77.022L32.251,77.223L32.299,77.332L32.311,77.413L32.170,77.532L32.080,77.543L31.579,77.532L31.353,77.588L31.223,77.593L31.085,77.532L31.085,77.430L31.292,77.430L31.292,77.338L31.018,77.279L30.736,77.176L30.483,77.154L30.296,77.338L30.198,77.338L30.225,77.191L30.386,76.818L30.188,76.740L30.143,76.575L30.198,76.153L30.120,75.928L29.940,75.967L29.739,76.137L29.598,76.307L29.730,76.732L29.518,77.129L29.127,77.421L28.720,77.532L28.461,77.482L28.124,77.273L27.848,77.180L27.825,77.078L27.825,76.975L27.774,76.929L27.633,76.922L27.535,76.899L27.331,76.821L28.468,76.296L28.717,76.009L28.751,75.817L28.725,75.618L28.651,75.439L28.540,75.308L28.330,75.225L28.024,75.328L27.875,75.274L27.724,74.932L27.809,74.519L28.155,73.674L28.188,73.401L28.176,72.846L28.228,72.582L28.354,72.398L28.499,72.259L28.570,72.099L28.476,71.851L28.549,71.606L28.840,70.928L28.971,70.710L28.716,70.607L28.307,70.252L28.079,70.054L27.991,70.005L27.789,69.926L27.714,69.880L27.597,69.703L27.457,69.309L27.320,69.201L27.104,69.210L26.959,69.332L26.839,69.485L26.699,69.585L26.560,69.595L26.278,69.535L26.133,69.526L26.021,69.565L25.835,69.710L25.769,69.744L25.670,69.715L25.457,69.575L25.376,69.558L25.344,69.551L25.128,69.610L24.470,69.942L24.350,69.571L24.114,69.287L23.848,69.042L23.639,68.789L23.427,68.234L23.261,68.095L22.881,68.073L22.128,68.164L21.898,68.159L21.548,68.080L21.514,68.072L21.297,68.049L21.155,68.103L21.148,68.153L21.163,68.450L21.192,68.503L21.322,68.623L21.347,68.663L21.278,68.868L21.186,68.890L21.058,68.869L20.885,68.943L20.790,69.049L20.732,69.153L20.684,69.239L20.570,69.349L20.413,69.403L20.238,69.416L20.081,69.474L19.981,69.662L19.889,69.623L19.774,69.588L19.658,69.568L19.564,69.574L19.519,69.627L19.509,69.720L19.509,69.808L19.492,69.852L19.386,69.841L19.156,69.749L19.018,69.741L18.436,69.871L18.173,69.984L17.903,70.149L17.518,70.169L17.645,69.957L17.635,69.718L17.479,69.325L17.439,69.183L17.469,68.962L17.518,68.780L17.528,68.605L17.455,68.442L17.439,68.407L17.498,68.415L17.502,68.416L17.514,68.405L17.522,68.398L17.527,68.361L17.538,68.314L17.409,68.186L17.269,68.127L16.633,68.079L15.539,67.726L15.171,67.701L14.803,67.758L14.715,67.793L14.717,67.766L14.722,67.689L14.690,67.564L14.618,67.463L14.514,67.373L14.447,67.349L14.137,67.307L13.911,67.157L13.919,66.947L14.006,66.700L14.018,66.447L13.914,66.277L13.788,66.290L13.639,66.383L13.467,66.450L12.834,66.402L12.581,66.440L12.486,66.018L12.269,65.571L11.967,65.186L11.610,64.956L11.384,64.952L11.182,65.040L11.011,65.140L10.871,65.172L10.744,65.079L10.697,64.920L10.682,64.798L10.674,64.728L10.620,64.540L10.490,64.320L10.357,64.158L9.991,63.877L9.926,63.743L9.868,63.285L9.776,63.100L9.545,62.983L9.053,62.925L8.888,62.783L8.945,62.635L8.958,62.483L8.926,62.334L8.854,62.197L8.772,62.084L8.701,62.018L8.616,62.002L8.489,62.037L8.374,62.156L8.166,62.560L8.029,62.686L7.363,62.486L6.996,62.225L6.260,62.066L5.812,61.852L5.254,61.762L5.031,61.726ZM30.248,78.564L30.294,78.672L30.266,78.905L30.115,79.120L29.794,79.176L29.621,79.149L29.560,79.123L29.498,79.074L29.498,78.981L29.598,78.981L29.543,78.902L29.455,78.737L29.401,78.657L29.634,78.578L29.819,78.553L30.248,78.564ZM30.144,77.385L30.287,77.428L30.677,77.342L30.888,77.338L30.888,77.430L30.638,77.548L30.809,78.138L30.592,78.350L29.924,78.129L29.614,77.942L29.651,77.682L29.839,77.402L29.969,77.316L30.144,77.385ZM40.880,36.115L40.970,36.208L40.845,36.454L40.880,36.625L40.608,36.615L40.383,36.670L39.993,36.829L39.653,37.025L39.434,36.855L39.167,36.763L39.292,36.590L39.934,36.276L40.308,36.193L40.517,36.161L40.710,36.106L40.880,36.115ZM44.810,33.754L44.915,33.391L45.332,33.045L45.906,32.690L46.349,32.499L47.209,32.086L48.147,31.775L48.773,31.593L49.207,31.542L49.780,31.576L50.232,31.603L50.944,31.612L50.648,31.698L50.336,31.853L50.058,31.766L49.624,31.870L49.318,31.806L49.061,31.847L48.963,31.894L48.765,32.027L48.675,32.066L48.547,32.071L48.338,32.120L48.078,32.310L47.548,32.569L47.026,32.759L46.478,33.149L45.984,33.303L45.654,33.338L45.428,33.554L45.184,33.788L44.898,33.987L44.810,33.754ZM54.846,31.106L55.076,30.706L55.241,30.495L55.717,30.280L55.992,30.381L56.211,30.563L56.137,30.745L55.817,30.781L55.743,30.999L55.550,31.253L55.266,31.270L55.074,31.488L54.332,31.986L54.278,31.850L54.425,31.587L54.626,31.214L54.846,31.106ZM83.295,16.793L83.404,16.805L83.511,16.828L83.615,16.862L83.711,16.906L83.572,16.936L83.451,16.931L83.356,16.885L83.295,16.793Z" fill="currentColor" stroke="currentColor" stroke-width="1" stroke-linejoin="round"/>
</svg>