<svg xmlns="http://www.w3.org/2000/svg" viewBox="0 0 100 100" role="img" aria-label="Croatia">
  <title>Croatia</title>
  <path d="M50.924,6.857L51.012,6.925L51.671,7.322L51.874,7.521L51.967,7.521L52.033,7.330L52.127,7.257L52.247,7.277L52.384,7.362L52.789,7.439L53.118,7.659L53.395,7.990L53.641,8.397L53.927,8.759L54.392,9.038L54.578,9.417L54.682,9.417L54.795,9.113L54.904,9.182L55.315,9.271L55.383,9.300L55.450,9.349L55.515,9.414L55.581,9.497L55.682,9.584L55.723,9.513L55.756,9.416L55.836,9.417L56.031,9.605L56.168,9.782L56.260,9.902L56.406,10.250L56.356,10.584L56.471,10.908L56.622,11.333L56.726,11.458L56.836,11.551L57.406,12.201L57.781,12.885L57.926,13.075L58.737,13.718L58.863,13.878L58.939,14.108L59.117,14.295L59.852,14.835L60.080,14.943L61.317,14.985L61.488,15.083L62.098,15.859L62.181,16.060L62.372,16.744L62.408,16.959L62.514,17.316L62.751,17.403L63.000,17.436L63.137,17.622L63.024,17.644L62.835,17.729L62.731,17.755L62.731,17.901L62.955,17.978L62.982,18.001L63.134,18.132L63.295,18.170L63.458,17.901L63.547,18.266L63.523,18.456L63.572,18.519L63.876,18.497L64.240,18.361L64.400,18.428L64.499,18.776L64.581,18.713L64.640,18.647L64.682,18.576L64.811,18.497L66.111,18.556L66.756,18.687L67.317,18.935L68.038,19.680L68.150,19.883L68.167,20.056L68.246,20.374L68.263,20.619L68.286,20.731L68.314,20.874L68.438,20.954L68.783,20.976L70.640,21.536L71.082,21.852L71.383,22.359L71.385,22.448L71.568,22.410L71.654,22.257L71.727,22.089L71.868,22.012L72.119,22.012L73.172,22.012L74.774,22.448L74.950,22.448L75.116,22.386L75.379,22.198L75.513,22.156L76.766,22.156L77.050,22.245L77.517,22.589L77.864,22.593L78.127,22.873L78.388,22.970L78.651,22.869L78.899,22.732L79.143,22.737L79.396,23.057L79.401,23.059L79.502,23.087L79.606,23.097L79.710,23.087L79.821,23.057L80.111,22.834L80.640,22.192L80.889,22.027L81.231,22.185L81.628,22.039L82.286,21.487L82.469,21.269L82.803,20.633L83.028,20.383L83.050,20.377L83.091,20.246L83.137,19.989L83.193,19.880L83.538,19.546L83.823,19.486L84.578,19.741L85.179,20.050L85.365,20.075L85.524,19.988L85.592,19.839L85.659,19.643L85.812,19.417L86.009,19.591L86.080,19.589L86.170,19.586L86.430,19.410L86.735,19.322L86.905,19.229L87.056,19.058L87.282,19.042L87.368,19.373L87.107,19.539L86.987,19.652L86.848,19.810L87.162,20.053L87.323,20.227L87.368,20.393L87.258,20.533L87.066,20.574L86.581,20.619L86.537,21.202L86.505,21.326L86.450,21.417L86.423,21.508L86.480,21.640L86.713,21.875L86.822,22.058L87.264,22.593L87.335,22.917L87.398,23.565L87.526,23.839L87.735,24.003L87.995,24.149L88.217,24.342L88.305,24.647L88.220,24.832L87.801,25.402L87.634,25.524L87.450,25.705L87.387,26.106L87.368,26.507L87.316,26.690L87.445,26.794L87.749,27.278L87.897,27.420L88.179,27.415L88.376,27.263L88.529,27.082L88.795,26.944L88.926,26.852L89.061,26.811L89.200,26.914L89.294,27.084L89.341,27.194L89.409,27.289L89.562,27.420L89.819,27.538L90.039,27.585L90.234,27.694L90.405,28.002L89.962,28.429L89.059,28.298L88.932,28.279L88.730,28.810L88.742,29.201L88.820,29.454L89.036,29.670L89.263,30.041L89.130,30.336L88.745,30.392L88.413,30.576L88.442,31.002L88.720,31.193L88.731,31.196L88.900,31.251L89.001,31.381L89.246,31.558L89.592,31.553L89.809,31.595L90.050,31.685L90.252,31.900L90.291,32.098L90.372,32.550L91.200,33.031L91.790,33.272L92.746,33.740L93.201,33.883L94.546,34.026L94.839,34.161L95.000,34.591L94.962,35.092L94.788,35.264L94.739,35.313L93.422,35.373L93.348,35.321L93.225,35.134L93.154,35.096L93.044,35.144L92.987,35.238L92.942,35.334L92.866,35.388L92.228,35.471L91.902,35.451L91.609,35.341L91.446,35.175L91.159,34.766L90.978,34.668L90.642,34.748L90.748,35.062L90.945,35.466L90.883,35.811L90.554,35.878L89.701,35.793L89.469,35.998L89.490,36.188L89.611,36.354L89.762,36.504L89.875,36.643L89.992,36.909L90.039,37.115L90.096,37.628L90.222,38.259L90.239,38.483L90.206,38.684L90.134,38.941L90.083,39.201L90.115,39.419L90.280,39.570L90.592,39.452L90.731,39.604L90.792,39.930L90.683,40.084L90.508,40.159L90.364,40.249L90.124,40.653L89.984,40.834L89.801,40.944L89.579,40.916L89.272,40.582L89.066,40.517L88.655,40.746L88.699,41.176L89.027,41.799L88.861,41.849L88.403,41.861L87.104,41.894L86.633,41.737L86.380,41.573L86.009,41.331L85.485,40.772L85.321,40.158L85.431,39.950L85.762,39.699L85.807,39.488L85.784,39.414L85.707,39.309L85.674,39.249L85.664,39.186L85.664,39.072L85.656,39.027L85.612,38.897L85.570,38.807L85.508,38.749L85.403,38.709L84.978,38.668L84.798,38.590L84.615,38.371L84.047,37.216L83.971,37.119L83.881,37.063L83.777,37.074L83.697,37.157L83.655,37.282L83.623,37.411L83.576,37.514L83.433,37.591L83.308,37.534L83.203,37.392L83.116,37.220L83.012,36.941L82.944,36.844L82.829,36.792L82.729,36.810L82.516,36.939L82.414,36.978L82.291,36.974L82.045,36.913L81.922,36.906L81.699,36.998L81.697,37.041L81.691,37.188L81.765,37.449L81.793,37.749L81.426,37.737L81.026,37.589L80.888,37.500L80.650,37.348L80.433,37.115L80.089,36.747L79.826,36.528L79.535,36.396L78.459,36.305L78.232,36.206L77.539,35.711L77.172,35.567L76.798,35.645L76.631,35.853L76.596,36.119L76.585,36.388L76.481,36.612L76.213,36.778L75.889,36.846L75.737,36.843L75.557,36.839L75.261,36.781L74.924,36.623L74.081,35.868L73.838,35.738L73.601,35.740L73.372,35.858L72.446,36.964L72.194,37.198L72.064,37.269L71.646,37.349L71.196,37.536L71.045,37.553L70.738,37.431L70.462,37.179L69.607,36.083L69.197,35.683L68.744,35.428L68.238,35.398L67.909,35.569L67.347,36.162L67.032,36.358L66.865,36.380L66.531,36.346L65.766,36.446L65.652,36.486L65.731,36.348L65.871,35.903L65.507,36.094L65.325,36.126L65.133,36.061L65.243,35.927L65.290,35.809L65.273,35.687L65.185,35.545L65.065,35.469L64.996,35.553L64.956,35.685L64.925,35.757L64.418,35.918L64.137,35.948L63.926,35.831L63.786,35.711L63.285,35.386L63.000,35.269L62.408,34.881L62.115,35.515L62.051,35.611L61.325,35.663L61.161,35.757L60.209,35.319L59.810,35.135L59.159,34.649L58.863,34.007L58.770,34.082L58.529,34.236L58.436,34.313L58.501,34.135L58.517,34.005L58.493,33.879L58.436,33.715L58.290,33.988L58.129,33.878L57.943,33.651L57.718,33.570L57.781,33.714L57.822,33.862L57.507,33.896L57.419,33.778L57.428,33.594L57.406,33.425L57.283,32.975L57.157,32.853L56.740,33.203L56.694,33.301L56.570,33.479L56.411,33.655L56.288,33.731L56.203,33.970L56.053,34.073L55.883,34.145L55.731,34.295L55.644,34.550L55.655,34.736L55.631,34.891L55.441,35.059L55.053,35.110L52.017,34.213L51.132,34.183L50.415,34.668L49.916,35.767L49.708,36.092L49.545,36.211L49.144,36.336L49.003,36.434L48.889,36.632L48.893,36.752L48.924,36.891L48.893,37.142L48.822,37.315L48.511,37.891L48.345,38.502L48.263,38.803L47.891,38.903L47.329,38.776L46.748,38.525L46.318,38.258L44.924,36.876L44.658,36.526L44.333,35.692L44.100,35.308L43.910,35.162L43.576,35.091L43.443,34.993L43.453,34.895L43.510,34.738L43.517,34.550L43.384,34.361L43.201,34.270L43.034,34.262L42.684,34.330L41.226,34.290L40.402,34.423L40.064,34.733L39.908,34.876L39.735,35.342L39.720,35.506L39.777,36.774L39.711,37.106L39.354,38.028L39.347,38.426L39.528,39.074L39.470,39.452L39.092,40.107L39.020,40.330L38.971,40.484L39.023,41.020L39.232,41.449L39.476,41.833L39.620,42.240L39.547,42.617L39.281,42.741L38.968,42.838L38.746,43.132L38.765,43.490L38.935,43.861L39.319,44.498L39.404,44.607L39.763,44.854L39.880,45.051L39.979,45.267L40.111,45.408L40.335,45.374L40.481,45.325L40.754,45.304L40.884,45.260L40.998,45.123L41.080,44.940L41.187,44.807L41.377,44.819L41.481,44.940L41.538,45.140L41.579,45.362L41.631,45.547L41.747,45.668L41.876,45.633L42.002,45.562L42.117,45.573L42.281,45.804L42.396,46.336L42.599,46.634L42.754,46.738L42.944,46.801L43.316,46.854L43.503,46.945L43.623,47.145L43.699,47.412L43.754,47.699L43.730,47.719L43.604,47.784L43.536,48.066L43.284,48.390L43.165,48.732L43.478,49.070L43.793,49.110L44.347,48.863L44.670,48.917L44.847,49.150L44.947,49.525L45.028,49.943L45.403,50.995L45.505,51.400L45.508,51.729L45.417,51.881L45.288,51.966L45.187,52.056L45.179,52.222L45.236,52.155L45.406,52.162L45.683,52.233L45.999,52.440L46.163,52.603L46.206,52.800L46.209,52.816L46.168,53.174L46.114,53.352L45.960,53.698L45.916,53.931L45.930,54.255L46.075,54.923L46.360,55.841L46.609,56.208L47.270,56.926L47.491,57.316L47.829,58.151L48.053,58.527L48.346,58.824L48.518,58.959L48.667,59.045L48.831,59.062L49.228,59.032L49.381,59.095L49.578,59.421L49.647,59.736L49.771,59.988L50.439,60.233L50.707,60.442L50.943,60.724L51.109,60.973L51.541,61.622L52.288,62.400L52.784,63.097L53.412,63.689L53.527,64.000L53.582,64.359L53.712,64.813L53.931,65.167L55.625,66.538L58.035,69.050L58.775,69.930L59.259,70.373L59.598,70.683L60.485,71.193L61.959,71.426L62.432,71.751L62.674,72.303L62.388,74.098L62.728,75.164L63.318,76.083L63.939,76.677L64.248,76.879L64.408,77.030L64.509,77.257L64.636,77.694L64.813,78.105L65.046,78.388L65.181,78.480L67.260,79.890L67.422,80.087L67.885,80.649L68.352,81.779L68.353,81.780L68.355,81.784L68.356,81.785L68.408,82.376L67.978,82.703L67.158,82.881L67.149,82.876L66.685,82.598L66.455,82.698L66.167,82.522L65.907,82.239L65.750,82.015L65.542,81.619L65.485,81.357L65.611,81.165L65.959,80.982L65.745,80.897L65.497,80.993L65.218,81.158L64.917,81.272L65.025,81.218L65.323,80.982L65.174,80.979L65.025,80.954L64.897,80.871L64.803,80.691L64.917,80.544L64.823,80.344L64.803,80.252L64.474,80.544L63.961,80.066L63.129,78.926L60.936,77.761L60.413,77.323L60.159,77.184L60.046,77.091L59.952,76.809L59.838,76.696L59.684,76.621L59.530,76.593L59.430,76.540L59.326,76.414L59.168,76.155L59.140,76.065L59.089,75.787L59.064,75.706L58.997,75.669L58.804,75.613L58.739,75.573L57.303,73.665L56.878,73.373L56.721,73.216L56.611,73.076L56.491,72.974L54.538,72.685L53.645,72.283L52.608,72.054L51.222,71.026L51.201,70.972L51.187,70.873L51.149,70.778L51.067,70.734L50.974,70.758L50.836,70.857L50.758,70.880L50.181,70.734L49.037,70.734L49.037,70.588L49.341,70.585L49.689,70.498L50.019,70.347L50.286,70.150L50.033,69.985L49.683,69.903L48.204,69.872L48.024,69.929L47.740,70.112L47.633,70.150L47.355,70.196L46.723,70.398L44.865,70.442L44.865,70.588L45.369,70.722L45.585,70.878L45.699,71.186L44.761,71.186L44.796,71.416L44.573,71.391L44.080,71.186L43.675,71.162L43.504,71.073L43.285,70.880L43.191,70.880L43.191,71.026L43.008,70.894L42.668,70.899L42.559,70.734L42.546,70.771L42.548,70.834L42.529,70.882L42.455,70.880L42.482,70.644L42.563,70.604L42.682,70.608L42.823,70.515L42.874,70.383L42.832,70.281L42.802,70.169L42.879,70.006L42.629,70.036L42.540,70.070L42.455,70.150L42.405,69.942L42.281,69.836L41.934,69.714L42.187,69.684L42.222,69.540L42.088,69.407L41.822,69.408L41.822,69.276L41.893,69.233L41.969,69.165L42.038,69.116L41.885,69.001L41.822,68.972L41.934,68.839L41.822,68.693L41.934,68.534L41.837,68.216L41.998,68.099L42.559,68.109L42.559,67.950L41.874,67.802L41.621,67.804L41.804,67.684L41.954,67.697L42.079,67.765L42.194,67.804L42.355,67.743L42.332,67.603L42.198,67.456L42.038,67.368L42.249,67.285L42.347,67.126L42.317,66.939L42.142,66.770L42.153,67.171L42.023,67.196L41.651,66.876L41.440,66.683L41.335,66.687L41.195,66.659L41.103,66.626L41.008,66.520L40.798,66.183L40.695,66.055L40.077,65.703L39.905,65.531L39.583,65.413L38.597,65.340L38.389,65.101L38.229,64.618L37.868,64.450L37.480,64.335L37.243,64.013L37.698,64.219L37.938,64.281L38.179,64.305L38.179,64.146L38.090,64.105L38.028,64.110L37.994,64.132L37.979,64.146L37.569,63.787L36.582,63.287L36.168,62.923L36.142,62.900L35.833,62.413L35.639,62.186L35.419,62.091L35.185,62.056L35.052,62.014L34.936,61.959L34.769,61.823L34.687,61.688L34.625,61.539L34.520,61.362L33.686,60.343L33.291,59.738L33.009,59.446L32.703,59.321L32.064,58.528L32.075,58.459L31.388,57.704L31.217,57.603L31.078,57.488L31.016,57.336L31.076,57.120L30.835,56.945L30.037,56.112L30.279,55.733L30.153,55.261L29.838,54.849L29.516,54.641L29.697,54.418L29.977,54.254L30.235,54.299L30.349,54.708L30.525,54.949L30.850,54.791L31.000,54.461L30.659,54.192L30.776,54.160L30.793,54.122L30.799,54.119L30.868,54.192L30.982,54.192L30.900,53.933L30.853,53.844L31.607,54.350L31.924,54.767L32.094,54.910L32.333,54.933L32.127,54.192L32.261,54.148L32.328,54.088L32.373,54.007L32.447,53.898L32.243,53.833L32.073,53.670L31.932,53.443L31.815,53.184L32.109,53.291L32.537,53.682L32.968,53.844L34.059,54.472L34.303,54.564L35.508,54.750L35.838,54.719L35.890,54.482L35.679,54.339L34.679,54.192L34.603,54.126L34.144,53.526L34.021,53.439L32.527,52.718L32.311,52.495L30.197,50.319L29.481,49.312L29.055,48.838L28.627,48.637L28.564,48.533L28.068,48.133L27.946,48.119L27.854,47.931L26.331,45.547L26.064,44.832L26.237,44.565L26.217,44.248L26.119,43.876L26.064,43.441L26.026,42.260L26.064,41.888L26.391,40.539L26.537,40.213L26.640,39.809L26.529,39.326L25.647,37.296L25.591,36.929L25.435,36.676L25.204,36.496L24.268,35.996L22.621,34.731L21.841,33.711L21.629,33.594L21.374,33.328L21.261,33.036L21.468,32.835L21.294,32.658L20.739,32.251L21.012,32.572L21.060,32.610L21.007,32.777L20.875,32.868L20.719,32.867L20.588,32.762L20.375,32.528L18.727,31.698L18.137,31.569L17.867,31.420L17.621,31.369L17.344,31.583L17.027,32.085L16.741,32.734L16.535,33.467L16.371,34.947L16.173,35.628L16.163,35.661L16.141,35.740L15.785,36.231L15.330,36.057L15.573,36.354L15.539,36.674L15.346,36.976L15.102,37.223L15.007,37.064L14.948,37.244L14.944,37.393L15.007,37.793L14.948,37.755L14.844,37.706L14.789,37.661L14.789,37.793L15.026,38.068L15.129,38.525L15.092,39.020L14.903,39.410L14.728,39.542L14.605,39.526L14.489,39.455L14.323,39.410L14.140,39.479L13.963,39.645L13.822,39.842L13.750,40.007L13.646,40.007L13.688,39.590L13.809,39.401L13.874,39.220L13.750,38.826L13.427,38.535L13.382,38.374L13.405,38.222L13.388,38.117L13.210,38.097L13.269,38.349L13.204,38.728L13.271,38.899L13.430,39.004L13.574,39.020L13.687,39.072L13.750,39.277L13.584,39.439L13.370,39.859L13.274,39.967L13.210,39.861L13.125,39.861L13.187,40.010L13.209,40.188L13.192,40.385L13.125,40.589L13.002,40.551L12.939,40.564L12.941,40.625L13.021,40.736L13.021,40.881L12.943,40.889L12.924,40.908L12.928,40.956L12.909,41.042L12.758,40.953L12.421,41.049L12.180,41.042L12.303,41.139L12.381,41.235L12.490,41.465L12.386,41.465L12.386,41.598L12.490,41.598L12.490,41.757L12.381,41.831L12.311,41.924L12.180,42.194L12.210,42.354L12.236,42.401L12.234,42.456L12.180,42.632L12.341,42.623L12.435,42.665L12.505,42.763L12.597,42.922L12.046,42.948L11.778,42.907L11.555,42.763L11.525,42.852L11.523,42.875L11.451,42.922L11.358,42.581L11.220,42.540L11.066,42.581L10.923,42.486L10.816,42.632L10.980,42.701L11.138,42.832L11.215,43.009L11.141,43.227L11.277,43.577L11.347,43.665L11.121,43.790L11.064,43.586L11.069,43.238L11.027,42.922L10.915,42.836L10.464,42.653L10.298,42.632L10.330,42.560L10.369,42.409L10.402,42.341L10.353,42.330L10.243,42.343L10.193,42.341L10.298,42.194L10.193,42.034L10.027,42.075L9.788,41.992L9.539,41.822L9.353,41.598L9.467,41.465L9.623,41.693L9.847,41.756L10.063,41.634L10.193,41.319L9.782,41.417L9.623,41.377L9.467,41.173L9.467,41.042L9.529,40.981L9.602,40.838L9.673,40.736L9.499,40.534L9.154,39.702L8.524,39.038L7.741,37.939L7.619,37.838L7.428,37.622L7.169,37.424L6.855,37.369L6.923,37.234L7.005,37.020L7.063,36.931L6.693,36.412L7.088,36.152L8.425,36.057L8.127,35.916L7.775,35.867L7.063,35.896L6.684,36.008L6.510,35.998L6.440,35.824L6.469,35.599L6.510,35.414L6.492,35.271L6.336,35.182L6.406,35.037L6.416,34.929L6.358,34.833L6.231,34.731L6.231,34.598L6.357,34.520L6.417,34.388L6.414,34.215L6.336,34.002L6.436,33.792L6.429,33.573L6.322,33.385L6.127,33.273L6.178,33.142L6.261,33.034L6.380,32.968L6.543,32.968L6.543,32.835L6.388,32.762L6.267,32.668L6.181,32.543L6.127,32.384L6.283,32.356L6.417,32.285L6.647,32.092L6.469,32.002L6.060,31.988L5.919,31.959L5.749,31.790L5.606,31.537L5.595,31.310L5.815,31.218L5.815,31.084L5.635,30.896L5.181,29.613L5.212,29.572L5.260,29.525L5.294,29.468L5.221,29.373L5.216,29.358L5.249,29.324L5.294,29.164L5.047,28.595L5.000,28.281L5.086,27.997L5.181,27.997L5.330,28.117L6.023,28.448L6.275,28.481L6.342,28.489L6.869,29.047L7.154,29.117L7.155,29.117L7.415,29.106L8.929,29.038L9.648,29.487L9.851,29.690L10.091,29.765L10.905,29.882L11.067,29.763L11.201,29.556L11.423,29.341L12.137,29.042L12.332,28.778L12.009,28.397L12.009,28.168L12.063,28.017L12.168,27.947L12.406,27.997L12.809,28.081L13.028,28.194L13.230,28.396L13.612,28.672L14.012,28.808L14.375,28.828L14.384,28.828L14.420,28.830L14.814,28.758L15.538,28.424L15.929,28.311L16.263,28.393L16.869,28.655L17.576,28.787L18.277,28.724L18.863,28.396L19.145,28.136L19.742,27.704L19.943,27.345L20.024,27.042L20.086,26.560L20.098,26.469L20.194,26.197L20.335,25.990L20.720,25.567L20.880,25.337L21.071,24.904L21.189,24.776L21.268,24.743L21.449,24.667L21.616,24.762L21.649,25.090L21.631,25.482L21.646,25.770L21.786,26.039L21.983,26.242L22.506,26.653L22.613,26.697L22.709,26.752L22.715,26.755L22.803,26.872L22.832,27.038L22.778,27.415L22.783,27.526L23.085,27.781L24.499,28.393L24.501,28.393L24.502,28.396L24.504,28.397L24.743,28.995L25.378,29.127L26.030,28.896L26.323,28.397L26.378,27.943L26.655,27.932L27.002,28.155L27.265,28.397L27.489,28.428L27.625,28.446L27.796,28.524L27.947,28.660L28.690,28.680L28.842,28.808L29.956,29.745L30.641,29.840L31.276,29.608L32.125,29.298L32.619,29.308L32.789,29.258L32.922,29.137L33.194,28.761L33.341,28.635L32.574,28.125L32.355,27.761L32.232,27.299L32.141,26.743L32.134,26.724L32.051,26.485L31.942,26.255L31.926,26.080L32.117,25.984L32.221,25.894L32.278,25.726L32.366,25.567L32.813,25.426L33.002,25.327L33.215,25.254L33.530,25.256L33.446,25.068L33.197,24.662L33.168,24.628L32.922,24.350L32.874,24.310L32.818,24.339L32.634,24.388L32.564,24.445L32.544,24.531L32.481,24.574L32.282,24.502L32.147,24.404L32.067,24.300L31.915,24.013L31.769,23.870L31.657,23.816L31.627,23.727L31.642,23.686L31.720,23.478L31.849,23.331L32.463,22.994L32.878,22.859L34.372,22.371L34.383,22.363L34.555,22.225L34.531,22.022L34.471,21.799L34.544,21.599L34.711,21.521L34.882,21.540L35.056,21.597L35.231,21.627L35.382,21.574L35.665,21.344L35.812,21.271L36.211,21.338L36.783,21.433L37.374,21.412L37.672,21.329L37.983,21.167L38.136,20.953L38.127,20.649L37.947,20.219L37.883,19.947L37.942,19.691L38.050,19.438L38.128,19.171L38.152,18.815L38.126,18.160L38.108,17.718L38.109,17.715L38.226,17.284L38.404,17.022L38.470,16.799L38.392,16.683L38.256,16.480L38.070,16.347L37.643,16.173L37.457,16.065L37.337,15.940L37.035,15.629L36.823,15.148L36.824,14.611L37.043,14.006L37.325,13.478L37.382,13.403L37.583,13.137L37.911,12.974L38.165,12.992L39.259,13.071L39.550,12.888L39.859,12.381L40.017,12.263L40.072,12.222L40.303,12.115L40.546,12.054L41.233,12.034L41.257,12.034L41.300,12.032L41.836,11.746L42.291,11.503L42.798,11.414L42.976,11.366L43.048,11.346L43.365,11.190L43.666,10.985L43.833,10.808L43.870,10.768L43.980,10.475L43.982,10.198L43.947,9.891L43.955,9.509L44.423,9.604L44.510,9.622L44.688,9.591L44.833,9.472L44.949,9.310L45.077,9.178L45.264,9.142L45.412,9.213L45.777,9.551L45.995,9.675L46.251,9.732L46.381,9.727L46.924,9.597L47.272,9.603L47.343,9.538L47.338,9.485L47.319,9.300L47.248,9.198L46.988,9.032L46.896,8.923L46.855,8.745L46.883,8.401L46.872,8.228L46.691,7.640L46.633,7.348L46.641,7.216L46.651,7.036L47.048,6.604L47.094,6.554L47.573,6.372L47.806,6.232L48.100,6.137L48.257,5.958L48.316,5.890L48.424,6.041L48.431,6.051L48.526,5.890L48.702,6.027L48.896,6.053L49.089,6.037L49.263,6.051L49.398,6.134L49.655,6.398L49.782,6.488L49.915,6.502L50.245,6.461L50.406,6.488L50.556,6.570L50.924,6.857ZM80.212,91.058L80.283,91.404L80.198,92.093L80.209,92.463L80.317,92.794L80.480,93.076L80.675,93.318L80.793,93.394L81.058,93.553L81.133,93.793L81.112,94.110L80.777,93.575L80.571,93.434L80.063,93.278L79.842,93.137L79.824,92.835L77.189,91.061L76.908,90.632L76.913,90.436L76.948,90.142L76.953,89.873L76.862,89.757L76.078,89.611L75.450,89.234L75.203,89.174L74.944,89.156L74.706,89.091L74.522,88.956L74.422,88.736L74.726,88.736L74.400,88.414L74.277,88.251L74.206,88.007L73.979,88.237L73.597,88.037L72.956,87.423L72.049,86.943L71.730,86.583L71.915,86.111L71.492,86.130L71.033,85.762L70.601,85.661L70.501,85.681L70.383,85.733L70.281,85.805L70.197,85.981L70.100,85.946L70.009,85.866L69.973,85.821L69.872,85.753L69.511,85.446L69.296,85.355L69.580,85.637L69.719,85.842L69.919,86.370L69.919,86.464L69.816,86.536L69.719,86.512L69.719,86.382L69.742,86.221L69.721,86.111L69.415,85.899L68.650,85.569L67.963,85.425L67.149,85.034L66.313,84.877L65.021,84.349L65.056,83.809L64.668,83.540L63.657,83.314L62.444,82.426L61.928,82.255L61.685,82.075L61.569,82.015L61.387,81.979L59.763,81.976L59.262,81.856L59.013,81.749L58.729,81.568L58.583,81.349L58.739,81.128L58.739,80.982L58.596,80.916L58.507,80.806L58.433,80.676L58.335,80.544L58.662,80.605L59.158,81.025L59.426,81.128L60.728,80.982L61.971,81.158L64.260,82.120L64.798,82.479L65.230,82.876L65.254,82.959L65.257,83.076L65.270,83.203L65.323,83.314L65.393,83.337L65.572,83.301L65.646,83.314L65.918,83.527L66.045,83.586L66.217,83.606L66.274,83.561L66.266,83.361L66.327,83.314L66.417,83.340L66.561,83.449L66.638,83.474L66.827,83.506L66.967,83.586L67.205,83.765L67.801,83.965L68.087,84.111L68.255,84.349L68.351,84.349L68.575,84.312L69.220,84.972L69.608,85.077L69.143,84.706L69.005,84.453L69.184,84.190L69.089,84.057L68.652,84.220L68.265,83.973L68.457,83.669L68.663,83.445L69.000,83.363L69.336,83.433L69.974,83.692L70.298,83.750L70.419,83.682L70.541,83.574L70.679,83.569L70.856,83.815L70.900,84.022L70.882,84.537L70.914,84.781L71.391,85.553L71.558,85.663L72.092,85.818L72.464,86.112L73.119,86.877L73.476,87.187L74.300,87.736L76.963,89.587L77.465,89.869L78.295,90.161L78.708,90.133L78.875,90.266L79.182,90.734L79.193,90.750L79.418,90.902L79.963,90.964L80.212,91.058ZM56.149,86.257L57.107,86.403L57.303,86.536L57.340,86.865L57.162,87.167L56.869,87.373L56.557,87.423L56.514,87.274L56.390,87.248L56.149,87.133L55.989,87.334L55.785,87.390L55.579,87.281L55.412,86.987L55.602,86.874L55.629,86.683L55.550,86.570L55.412,86.695L55.308,86.695L55.418,86.442L55.691,86.322L56.149,86.257ZM68.351,87.133L68.662,87.413L69.441,87.764L69.721,88.167L64.190,86.536L64.006,86.770L63.701,86.627L63.407,86.335L63.243,86.111L63.515,86.056L64.006,85.859L64.288,85.879L64.213,85.910L64.131,85.962L63.972,86.111L64.141,86.094L64.303,86.104L64.458,86.155L64.595,86.257L64.709,86.111L64.967,86.287L65.716,86.296L66.290,86.666L67.064,86.823L67.414,86.987L67.367,87.031L67.354,87.043L67.310,87.133L68.187,87.229L68.351,87.133ZM60.319,82.294L60.576,82.657L60.814,82.894L61.361,83.314L61.256,83.474L60.966,83.309L60.643,83.328L59.947,83.474L58.543,83.168L57.897,83.209L56.766,83.655L56.046,83.765L54.344,83.413L53.608,83.177L53.325,83.208L53.321,83.314L53.060,83.219L52.800,83.037L53.842,82.453L53.842,82.294L53.552,82.200L52.950,82.119L52.698,82.015L53.017,81.807L53.355,81.795L53.701,81.854L54.050,81.856L54.369,82.058L54.783,82.237L55.629,82.453L56.461,82.453L56.673,82.385L57.023,82.188L58.799,82.015L60.003,82.406L60.319,82.294ZM46.748,80.107L46.812,80.013L46.879,79.948L46.934,79.981L46.956,80.180L46.914,80.311L46.812,80.410L46.634,80.544L46.454,80.784L46.276,80.933L44.921,81.358L44.400,81.399L44.034,81.272L44.359,81.090L44.399,80.760L44.278,80.506L44.129,80.544L44.034,80.544L43.816,80.252L43.879,80.185L43.945,80.144L44.021,80.122L44.129,80.107L44.482,79.877L45.056,79.755L45.665,79.771L46.115,79.948L46.038,80.055L46.011,80.107L46.361,79.953L46.549,79.964L46.748,80.107ZM53.634,78.926L53.284,78.964L51.603,78.590L50.315,78.088L49.855,77.996L49.582,77.802L49.411,77.761L48.734,77.469L48.799,77.374L48.868,77.330L49.037,77.323L49.228,77.433L49.400,77.405L49.773,77.164L49.869,77.323L49.915,77.234L50.086,77.031L50.086,77.164L50.637,76.986L51.103,77.281L51.528,77.630L51.960,77.615L51.543,77.164L51.138,76.911L51.004,76.753L51.224,76.780L51.647,76.753L51.960,77.031L52.018,77.025L52.168,76.908L52.272,76.872L52.464,76.870L52.916,76.947L53.122,77.031L53.225,77.141L53.320,77.308L53.444,77.484L53.634,77.615L53.641,77.714L53.620,77.740L53.578,77.740L53.530,77.761L53.827,77.996L54.161,78.128L54.519,78.185L55.996,78.177L56.244,78.038L56.457,78.252L56.736,78.338L57.681,78.389L58.593,78.636L59.984,78.573L60.676,78.647L61.256,78.926L57.445,78.926L53.634,78.926ZM50.702,75.573L49.501,74.861L49.255,74.538L49.378,74.621L49.463,74.699L49.568,74.699L49.575,74.564L49.620,74.543L49.690,74.559L49.773,74.538L49.689,74.384L49.699,74.245L49.802,74.143L49.982,74.101L49.772,73.722L49.568,73.227L49.884,73.211L49.982,73.227L50.598,73.479L53.551,73.592L55.412,74.101L55.412,74.246L55.204,74.246L55.366,74.330L55.510,74.377L55.631,74.361L55.724,74.246L55.862,74.364L56.149,74.699L56.314,74.755L56.446,74.736L56.559,74.768L56.669,74.976L56.475,75.366L56.364,75.493L56.244,75.414L55.966,75.805L55.463,75.925L52.645,76.011L51.666,75.876L50.702,75.573ZM49.037,74.246L48.801,74.523L48.385,74.410L47.365,73.755L46.611,73.433L46.227,73.373L46.217,73.276L46.238,73.248L46.276,73.246L46.321,73.227L46.171,73.102L46.126,72.950L46.205,72.825L46.425,72.776L47.293,72.846L47.616,73.023L47.685,73.373L48.098,73.321L48.385,73.564L48.660,73.931L49.037,74.246ZM38.179,67.804L39.116,68.242L38.216,67.968L38.075,68.030L37.938,67.854L37.276,67.357L37.034,67.234L37.150,67.076L37.213,67.185L37.276,67.218L37.741,67.270L37.916,67.431L38.039,67.639L38.179,67.804ZM31.815,63.125L31.893,63.341L33.053,64.305L33.234,64.550L33.432,64.769L33.864,65.148L33.731,65.053L32.832,64.637L32.542,64.438L32.229,64.013L31.815,63.708L31.612,63.511L31.391,63.230L31.305,62.968L31.502,62.833L31.815,63.125ZM32.447,61.005L32.362,60.755L31.951,60.280L31.815,60.051L32.105,60.056L32.351,60.167L33.167,60.793L33.603,60.892L33.686,60.924L33.725,61.047L33.768,61.405L33.802,61.521L33.893,61.628L34.099,61.719L34.216,61.800L34.337,61.951L34.469,62.182L34.580,62.442L34.631,62.689L34.520,62.621L34.408,62.577L34.290,62.551L34.159,62.541L34.037,62.505L33.984,62.418L33.953,62.321L33.895,62.249L33.504,62.126L33.299,62.009L33.167,61.800L33.234,61.750L33.271,61.667L33.069,61.576L32.793,61.388L32.552,61.174L32.447,61.005ZM31.711,59.905L31.520,59.694L31.374,59.402L31.237,59.213L31.076,59.321L30.982,59.321L30.963,59.224L30.933,59.166L30.904,59.112L30.868,59.030L30.716,59.266L30.420,59.034L30.101,58.656L29.691,58.317L29.161,57.644L28.881,57.425L28.913,57.347L28.918,57.329L28.932,57.322L28.985,57.279L28.923,57.160L28.787,56.828L31.274,58.872L31.599,59.289L31.711,59.905ZM25.439,57.120L25.555,57.035L25.659,57.039L25.759,57.123L25.840,57.285L25.642,57.364L25.323,57.261L25.089,57.019L25.129,56.684L25.204,56.914L25.327,57.061L25.439,57.120ZM30.037,61.362L31.138,62.149L31.190,62.397L30.813,62.525L30.052,61.912L29.866,61.969L29.933,62.041L29.972,62.144L30.037,62.249L30.420,62.530L30.509,62.616L30.629,62.701L30.746,62.689L30.833,62.713L30.868,62.900L30.798,63.007L30.647,62.911L30.503,62.759L30.461,62.689L29.914,62.358L29.683,62.154L29.459,61.879L28.854,60.937L28.487,60.491L27.882,59.169L27.576,58.871L27.150,58.672L25.855,57.279L25.821,57.039L25.746,56.847L25.543,56.536L25.628,56.517L25.695,56.528L25.751,56.536L26.049,56.887L26.907,57.571L26.984,57.718L27.053,57.913L27.140,58.082L27.265,58.154L27.474,58.222L27.607,58.344L27.740,58.411L27.946,58.300L27.877,58.511L27.842,58.591L28.054,58.622L28.180,58.745L28.241,58.956L28.258,59.248L28.320,59.510L28.464,59.722L29.179,60.508L29.345,60.605L29.568,60.633L29.616,60.739L30.037,61.362ZM25.959,48.332L25.791,48.191L24.200,46.220L23.928,45.753L23.776,45.269L23.844,45.270L23.891,45.302L24.481,45.988L25.476,47.461L26.064,47.907L26.008,47.276L26.372,47.259L26.893,47.598L27.321,48.040L27.668,48.613L27.894,48.838L28.462,49.021L28.623,49.263L28.774,49.593L28.985,49.948L28.686,49.902L28.263,49.541L27.946,49.511L28.013,49.290L28.050,49.208L27.421,48.837L27.116,48.722L26.951,48.595L26.746,48.491L26.480,48.491L26.480,48.637L27.316,49.098L28.566,50.902L29.308,51.420L29.066,51.220L28.824,50.934L28.612,50.564L28.467,50.107L29.103,50.423L30.525,51.930L30.868,52.149L31.083,52.402L31.512,52.789L31.711,53.025L31.417,53.105L31.061,52.894L30.689,52.602L30.349,52.441L30.349,52.587L30.621,52.644L30.889,52.822L31.123,53.065L31.294,53.317L30.982,53.317L31.008,53.437L31.049,53.510L31.111,53.561L31.190,53.608L30.865,53.516L30.189,53.218L29.828,53.184L29.828,53.317L30.461,53.766L30.461,53.898L30.109,53.812L29.796,53.623L29.528,53.354L29.308,53.025L29.308,52.892L29.516,52.892L29.516,52.733L29.393,52.659L29.315,52.570L29.193,52.295L29.355,52.308L29.464,52.274L29.543,52.180L29.620,52.017L29.231,51.758L29.099,51.711L28.955,51.734L28.715,51.868L28.581,51.857L28.418,51.674L28.151,51.103L27.207,50.319L27.068,50.290L26.272,49.802L26.272,49.671L26.359,49.641L26.506,49.549L26.594,49.511L26.406,49.162L25.969,48.512L25.959,48.332ZM19.386,48.199L20.621,49.528L20.739,49.948L20.398,49.987L19.987,49.595L19.483,48.927L19.273,48.783L19.273,48.637L19.594,48.729L19.698,48.783L19.271,48.228L19.036,48.030L18.753,47.907L18.646,48.131L18.487,48.207L18.306,48.165L18.128,48.040L18.128,47.907L18.233,47.907L18.233,47.903L18.214,47.857L18.155,47.745L18.426,47.403L18.326,46.981L17.920,46.291L17.847,46.009L17.733,45.344L17.713,44.978L18.017,45.185L18.404,45.366L18.653,45.644L18.545,46.145L18.618,46.332L18.685,46.671L18.753,47.252L18.844,47.452L19.386,48.199ZM23.880,43.665L23.880,43.831L23.917,43.932L24.087,44.103L23.886,43.962L23.643,43.892L23.415,43.887L23.255,43.944L22.621,43.227L22.812,43.212L23.002,43.227L23.184,43.277L23.350,43.360L23.350,43.227L23.298,43.155L23.285,43.108L23.283,43.045L23.255,42.922L23.504,43.133L23.567,43.227L23.672,43.227L23.478,42.807L23.352,42.628L23.142,42.486L23.107,42.416L23.047,42.194L23.366,42.241L23.672,42.341L23.631,42.252L23.567,42.034L23.858,42.060L24.075,42.222L24.118,42.439L23.880,42.632L23.880,42.763L23.995,42.842L24.594,43.431L24.962,43.645L25.129,43.811L25.568,44.540L25.687,44.966L25.543,45.269L25.114,44.896L24.375,44.048L23.880,43.665ZM20.428,46.145L20.338,46.334L20.346,46.504L20.444,46.572L20.635,46.450L20.739,46.741L20.632,46.893L20.526,47.013L20.419,47.070L20.250,47.040L19.804,47.040L19.117,46.264L18.608,45.175L18.649,44.234L18.581,44.215L18.538,44.182L18.499,44.145L18.441,44.103L18.303,44.187L18.207,44.033L18.147,43.748L18.128,43.061L18.106,42.860L18.031,42.779L17.869,42.763L17.623,42.476L17.383,41.198L17.079,40.881L17.094,40.786L17.110,40.725L17.191,40.589L17.053,40.204L17.191,40.138L17.552,40.286L17.660,40.378L17.934,40.790L18.076,40.881L18.343,40.891L18.499,40.873L18.589,40.750L18.649,40.444L18.593,40.323L18.524,39.990L18.544,39.775L18.753,40.007L18.865,39.861L18.561,39.583L18.337,39.210L17.879,37.914L17.790,37.742L16.976,36.771L16.840,36.509L16.828,36.196L16.994,35.751L17.161,35.462L17.376,35.247L17.654,35.174L18.024,35.315L18.145,35.563L18.090,36.418L18.128,36.931L18.229,37.317L18.504,38.096L18.879,38.852L18.961,38.972L19.161,39.137L19.512,39.186L19.698,39.277L19.811,39.540L19.774,39.914L19.645,40.297L19.483,40.589L19.594,40.736L19.453,41.108L19.431,41.413L19.483,42.114L19.680,42.743L19.706,43.098L19.483,43.227L19.561,43.463L19.747,43.776L19.803,43.944L19.817,44.172L19.722,44.437L19.698,44.700L19.791,45.167L19.996,45.506L20.235,45.803L20.428,46.145ZM23.619,40.140L23.360,40.067L22.621,39.569L22.180,39.396L22.113,39.239L22.102,38.899L22.140,38.134L22.057,37.956L21.789,38.097L21.789,38.242L21.997,38.403L21.597,38.433L20.375,38.242L19.992,38.117L19.608,37.811L19.282,37.424L19.073,37.064L19.196,36.882L19.325,36.798L19.471,36.772L19.646,36.772L19.705,36.681L19.695,36.480L19.713,36.279L19.855,36.188L20.429,36.173L20.674,36.050L20.539,35.751L20.736,35.466L20.818,35.290L20.852,35.109L20.816,34.939L20.762,34.783L20.777,34.621L20.947,34.439L20.974,34.201L20.960,34.014L20.883,33.895L20.739,33.856L20.960,33.618L21.180,33.596L21.676,33.856L21.518,33.850L21.468,33.856L21.495,34.014L21.544,34.138L21.607,34.234L21.676,34.306L21.902,34.699L22.102,35.182L21.700,35.375L21.930,35.529L22.405,35.581L22.734,35.474L22.820,35.866L22.637,36.616L22.734,37.064L22.929,37.275L23.202,37.361L23.880,37.369L23.872,37.983L24.784,38.819L25.015,39.410L24.920,39.410L24.744,39.542L24.553,39.585L24.363,39.542L24.191,39.410L23.983,39.569L23.983,39.702L24.189,39.888L24.129,40.025L23.903,40.110L23.619,40.140ZM47.801,70.800L48.164,70.933L48.790,71.175L48.722,71.300L48.151,71.363L47.369,71.223L47.146,71.245L47.016,71.317L46.827,71.362L46.587,71.324L46.398,71.258L46.294,71.178L46.299,71.060L46.408,71.013L46.475,71.021L46.577,71.047L46.782,71.073L46.915,70.967L46.852,70.788L47.101,70.690L47.801,70.800ZM24.174,54.049L24.382,54.197L24.660,54.466L24.630,54.586L24.412,54.593L24.268,54.626L24.176,54.737L24.003,54.698L23.844,54.475L23.866,54.303L24.020,54.302L24.073,54.232L24.073,54.072L24.174,54.049ZM21.944,53.008L22.403,53.330L22.675,53.695L22.614,53.768L22.361,53.627L21.722,53.045L21.664,52.873L21.944,53.008ZM24.754,52.221L24.873,52.431L24.957,52.811L24.802,52.959L24.561,52.879L24.393,52.759L24.119,52.513L24.144,52.336L24.303,52.081L24.230,51.416L24.285,51.388L24.355,51.362L24.526,51.340L24.707,51.434L24.836,51.626L24.863,51.835L24.781,52.008L24.737,52.143L24.754,52.221ZM16.317,46.160L16.647,45.774L16.870,45.816L16.864,46.025L16.774,46.155L16.572,46.202L16.550,46.230L16.518,46.261L16.510,46.339L16.535,46.450L16.503,46.567L16.508,46.682L16.544,46.744L16.647,46.930L16.728,47.205L16.619,47.226L16.440,47.113L16.250,47.048L16.141,46.916L16.156,46.729L16.187,46.570L16.317,46.160Z" fill="currentColor" stroke="currentColor" stroke-width="1.5" stroke-linejoin="round"/>
</svg>