<svg xmlns="http://www.w3.org/2000/svg" viewBox="0 0 100 100" role="img" aria-label="Haiti">
  <title>Haiti</title>
  <path d="M91.263,28.209L91.542,29.128L91.655,29.719L91.623,30.250L91.571,31.126L91.717,31.885L92.600,33.977L92.976,36.589L92.955,38.081L92.595,38.848L92.420,39.039L92.020,40.058L91.720,40.294L90.868,40.781L90.661,40.992L90.818,41.658L91.381,42.452L91.514,42.588L92.555,43.656L94.601,44.653L95.000,44.847L94.856,46.839L94.695,47.413L94.297,48.005L93.226,48.775L92.748,49.205L91.803,50.534L90.434,52.057L90.020,52.314L88.399,52.752L87.854,53.122L87.947,53.701L88.513,53.612L89.298,53.343L90.038,53.368L90.326,53.603L90.773,54.549L91.062,54.890L91.785,55.554L92.020,55.857L92.195,56.475L92.227,57.829L92.482,59.142L92.435,59.770L92.280,60.387L92.064,60.951L91.686,61.574L91.243,61.939L90.396,62.466L90.179,62.602L90.098,62.652L89.667,63.137L89.018,64.252L88.606,64.696L87.384,65.117L85.010,64.676L83.836,64.925L83.293,65.337L83.574,65.883L86.429,68.829L86.633,69.146L86.712,69.648L86.544,69.831L86.307,69.967L86.188,70.334L86.377,70.952L86.851,71.215L88.083,71.526L88.349,71.764L88.828,72.478L89.085,72.775L90.276,73.576L91.973,74.220L92.423,74.519L92.714,74.781L92.782,74.877L92.411,75.521L92.392,75.554L90.989,77.984L90.739,78.612L90.651,79.270L90.698,79.585L91.038,80.543L91.113,80.917L91.092,81.473L91.162,82.443L91.048,83.021L90.670,84.031L90.153,83.677L87.947,80.781L86.983,79.904L85.875,79.203L83.391,78.345L82.363,77.804L81.337,77.407L80.108,77.404L77.587,77.831L74.302,77.800L69.700,77.861L67.221,78.315L66.587,77.978L66.206,77.834L66.037,77.964L66.250,79.250L65.952,79.578L65.583,79.586L64.721,79.250L64.238,79.162L60.524,79.506L59.762,79.457L59.825,79.611L59.916,79.987L59.978,80.141L59.509,80.107L59.322,80.055L59.098,79.892L58.224,80.460L56.482,80.288L55.629,80.618L54.799,80.134L53.683,79.694L52.488,79.374L49.158,79.000L48.323,79.041L48.060,79.000L47.142,78.410L46.865,78.315L42.671,77.633L40.788,77.828L40.496,77.747L40.662,77.312L41.081,77.146L42.222,77.155L42.222,76.947L40.112,76.719L37.555,76.739L36.811,76.947L35.795,77.554L35.409,77.633L35.157,77.499L34.885,76.886L34.654,76.699L34.232,76.956L34.003,77.608L33.770,78.098L33.342,77.861L33.145,77.861L32.772,78.100L32.459,77.929L32.320,77.497L32.478,76.947L32.030,77.082L31.638,77.956L31.184,78.315L31.206,77.865L31.310,77.464L31.616,76.699L31.368,76.901L31.012,77.374L30.755,77.633L30.729,77.551L30.544,77.478L30.205,77.404L30.092,77.461L30.105,77.595L30.142,77.744L30.107,77.861L28.727,78.970L26.469,80.025L25.895,80.598L25.346,81.511L26.674,82.940L26.873,83.461L27.034,84.117L26.958,84.374L26.541,84.476L24.449,84.468L24.143,84.416L23.836,84.268L23.606,84.036L23.485,83.543L21.465,80.618L21.365,80.542L21.126,80.436L21.014,80.369L20.902,80.243L20.877,80.141L20.861,80.035L20.776,79.892L20.188,79.337L17.130,77.070L16.581,76.801L15.617,76.638L15.213,76.469L14.868,76.216L14.722,75.901L14.655,75.545L14.476,75.436L14.208,75.418L13.879,75.330L13.064,75.010L12.800,74.854L12.586,75.101L11.990,74.887L11.358,75.156L10.691,75.572L9.997,75.786L9.415,75.664L8.694,75.370L8.081,75.027L7.823,74.749L7.553,74.375L6.366,73.770L6.097,73.155L6.027,72.502L5.820,72.040L5.000,70.997L6.097,69.381L6.002,69.248L5.863,68.924L6.442,68.511L6.813,66.964L7.283,66.621L7.369,66.447L7.315,66.056L7.191,65.637L7.067,65.377L6.986,65.022L7.231,64.713L8.301,64.084L9.704,63.513L10.302,63.407L11.030,63.587L11.353,63.576L11.486,63.304L11.643,63.073L11.994,62.971L12.365,62.948L14.138,63.049L15.395,63.320L19.527,65.172L21.346,65.254L21.411,65.304L21.617,65.536L21.660,65.606L21.732,65.865L21.908,65.846L22.128,65.732L22.326,65.710L23.243,66.193L23.651,66.340L25.071,66.393L25.407,66.458L25.777,66.621L26.457,67.208L26.657,67.327L26.983,67.351L27.139,67.257L27.245,67.139L27.413,67.078L27.728,67.130L28.118,67.323L28.401,67.327L28.594,67.237L28.997,66.937L29.128,66.870L29.167,66.790L29.568,66.291L29.780,66.183L30.030,66.173L30.290,66.194L30.539,66.185L31.971,65.767L32.382,65.710L33.507,65.993L33.525,66.567L32.885,67.000L32.048,66.870L32.048,67.078L31.367,66.847L30.759,66.764L30.149,66.833L29.460,67.078L29.668,67.221L30.192,67.502L30.713,67.630L30.747,67.826L30.735,68.081L30.873,68.342L31.430,68.592L32.433,68.446L32.929,68.696L34.037,68.024L35.394,67.853L40.388,68.239L41.027,68.383L42.285,69.027L42.986,69.171L45.516,69.079L46.752,69.188L47.866,69.606L48.452,69.949L48.930,70.133L49.462,70.169L50.259,70.027L52.481,69.627L55.215,70.292L55.052,70.838L55.654,70.720L56.500,70.419L57.057,70.417L57.519,70.615L59.762,70.997L60.979,70.719L61.836,69.986L62.467,68.957L62.996,67.783L63.764,66.829L64.766,66.605L70.033,67.078L70.224,67.007L70.305,66.850L70.356,66.692L70.464,66.621L70.662,66.662L70.755,66.746L70.816,66.831L70.917,66.870L71.573,67.612L71.875,67.783L72.430,67.633L72.687,67.072L72.759,66.295L72.707,64.261L72.759,63.885L72.980,63.432L73.224,63.163L73.339,62.913L73.169,62.514L72.885,62.309L71.444,61.602L71.055,61.534L70.287,61.510L69.916,61.395L69.276,60.842L68.707,60.149L68.096,59.668L67.329,59.757L66.250,59.095L65.980,58.795L65.714,58.160L64.095,55.630L63.648,55.172L63.016,54.653L62.351,54.229L61.812,54.054L61.223,53.753L57.913,50.165L57.762,49.309L59.098,48.766L60.310,48.685L60.979,48.460L61.272,47.970L61.084,47.342L60.624,47.015L60.051,46.795L59.527,46.485L59.193,46.061L58.435,44.717L58.234,44.185L58.450,44.030L58.475,43.970L58.440,43.905L58.468,43.728L58.777,43.437L59.124,42.668L59.332,42.359L59.677,42.188L60.179,42.089L60.687,42.067L61.057,42.131L60.604,41.230L60.278,41.046L59.645,40.989L59.270,40.702L59.147,40.050L59.196,39.356L59.332,38.938L59.531,39.146L59.794,39.326L60.098,39.423L60.410,39.374L60.758,39.121L60.776,38.876L60.664,38.600L60.612,37.832L60.532,37.687L60.604,37.714L61.057,37.796L61.216,37.896L61.437,38.085L61.740,38.244L62.136,38.252L61.526,37.037L61.208,36.858L59.576,36.754L59.162,36.453L58.885,36.007L58.468,35.495L57.875,35.067L55.863,34.147L54.187,33.108L53.588,32.964L53.070,32.722L51.956,31.772L51.746,31.722L51.430,31.863L49.474,31.140L49.150,31.103L48.528,30.948L48.211,30.916L48.168,30.911L48.009,30.988L47.863,31.151L47.654,31.315L47.318,31.389L46.849,31.273L46.151,30.982L45.470,30.604L45.043,30.229L44.406,30.850L43.049,31.028L40.040,30.876L39.444,30.720L39.094,30.686L38.871,30.540L38.313,29.914L38.006,29.772L37.568,29.476L37.393,28.810L37.334,28.110L37.243,27.718L38.370,25.909L38.537,25.531L38.846,25.523L40.496,24.753L40.496,24.504L38.752,24.504L39.263,24.120L39.864,24.056L40.508,24.109L41.144,24.068L44.991,22.301L46.116,21.482L46.749,20.606L47.126,21.064L47.487,21.186L48.384,21.083L48.846,21.151L49.678,21.452L50.119,21.519L50.495,21.511L50.705,21.480L51.336,21.311L51.802,21.250L52.285,21.291L52.723,21.454L53.059,21.768L53.285,21.250L53.880,20.928L54.605,20.857L55.215,21.083L56.058,20.736L57.064,20.474L58.116,20.340L59.098,20.398L62.321,21.151L63.115,21.643L63.771,21.955L65.645,22.537L65.756,22.676L66.414,23.493L67.260,24.065L68.139,24.382L68.622,24.068L69.197,24.375L70.153,24.745L71.049,24.973L71.444,24.856L71.644,25.384L73.169,26.806L73.169,27.015L73.019,26.947L72.523,26.806L72.922,27.779L73.061,27.926L73.620,28.051L73.738,28.008L73.620,27.718L74.033,27.241L73.929,27.236L73.723,27.252L73.620,27.241L73.628,27.200L73.693,27.059L73.771,26.950L73.817,27.015L73.817,26.806L73.744,26.703L73.620,26.352L73.817,26.352L74.286,26.607L74.931,26.667L75.506,26.480L75.758,25.988L76.076,25.659L76.699,25.642L77.123,26.001L76.854,26.806L77.390,27.127L77.907,27.181L79.156,26.961L79.264,26.969L79.441,27.015L79.659,27.162L80.114,27.622L80.420,27.718L81.510,27.718L81.765,27.790L81.905,27.947L82.006,28.103L82.301,28.247L82.730,28.560L83.018,28.632L83.262,28.517L83.423,28.269L83.625,28.027L83.987,27.926L84.587,27.467L85.483,27.473L87.027,27.926L87.875,28.043L88.101,28.212L87.910,28.632L87.636,28.810L87.261,28.872L86.379,28.860L86.711,29.472L87.258,29.536L87.852,29.370L88.320,29.294L88.890,29.774L89.242,29.994L89.398,29.888L89.567,29.430L89.499,29.190L88.803,29.008L88.579,28.803L88.466,28.509L88.518,28.175L88.759,27.967L89.120,27.991L89.937,28.175L91.263,28.209ZM32.166,82.195L32.698,82.227L33.322,82.358L33.773,82.633L33.773,83.106L33.380,83.359L32.736,83.420L31.508,83.356L30.955,83.233L30.472,82.937L29.678,82.195L29.780,81.862L29.922,81.725L30.102,81.772L30.304,81.986L30.666,81.731L30.840,81.822L30.966,82.049L31.184,82.195L32.166,82.195ZM26.873,64.340L27.625,63.982L28.658,64.065L29.448,64.513L29.460,65.254L28.733,65.691L27.725,65.686L26.939,65.235L26.873,64.340ZM56.744,15.566L57.656,15.524L58.265,15.610L58.810,15.850L59.527,16.273L62.516,17.445L63.787,18.248L63.428,19.030L62.915,18.811L60.240,18.443L58.999,17.956L57.465,17.611L56.942,17.371L56.579,17.441L56.204,17.581L55.863,17.641L55.202,17.507L54.429,17.249L53.727,16.894L53.277,16.478L53.416,16.480L53.503,16.436L53.687,16.273L55.148,15.784L56.744,15.566ZM43.857,55.993L43.268,55.572L43.102,55.425L42.871,55.134L42.661,54.790L42.564,54.422L42.671,54.054L43.062,53.614L43.615,53.242L44.258,52.989L44.937,52.894L45.685,52.979L50.070,54.829L52.234,55.540L54.639,56.763L56.885,57.710L57.803,58.845L58.042,59.568L58.155,60.430L58.065,61.274L57.695,61.934L57.358,62.075L57.135,61.870L56.852,61.270L56.582,61.031L56.341,60.966L55.629,60.920L52.815,60.289L51.854,60.214L50.844,59.965L48.060,58.160L45.249,57.392L44.493,56.894L43.857,55.993Z" fill="currentColor" stroke="currentColor" stroke-width="1.5" stroke-linejoin="round"/>
</svg>