<svg xmlns="http://www.w3.org/2000/svg" viewBox="0 0 100 100" role="img" aria-label="Hungary">
  <title>Hungary</title>
  <path d="M95.000,34.558L94.782,34.811L94.449,35.423L94.232,35.620L93.700,35.816L93.488,35.963L93.345,36.227L93.350,36.393L93.418,36.519L93.444,36.662L93.331,36.881L93.252,36.934L92.965,36.963L92.695,37.086L92.533,37.213L92.205,37.640L91.817,37.976L91.333,38.184L90.826,38.256L90.368,38.182L89.385,37.667L88.978,37.762L88.761,38.532L88.609,38.676L88.433,38.748L88.243,38.764L87.630,38.673L87.461,38.689L87.225,38.773L86.980,38.909L86.829,39.063L86.538,39.500L86.437,39.602L86.212,39.764L86.114,39.885L86.065,40.030L86.020,40.388L85.979,40.556L85.650,41.023L85.610,41.152L85.600,41.296L85.580,41.424L85.577,41.445L85.507,41.592L85.402,41.671L85.327,41.726L84.677,41.890L83.853,42.507L83.461,42.935L83.209,43.412L83.243,44.020L83.360,44.695L83.378,45.346L83.112,45.887L82.521,46.061L82.282,46.208L82.041,46.479L81.528,47.227L81.447,47.455L81.295,48.153L81.225,48.331L81.071,48.620L81.016,48.836L81.012,49.063L81.044,49.239L81.048,49.419L80.967,49.660L80.856,49.817L80.562,50.097L80.436,50.284L80.377,50.461L80.311,50.805L80.222,50.977L79.954,51.243L79.300,51.680L79.003,51.962L78.485,52.587L78.504,52.651L78.536,52.755L78.650,52.810L78.777,52.836L78.869,52.911L78.988,53.139L78.996,53.159L78.946,53.178L78.693,54.142L78.581,54.284L77.975,54.786L77.916,54.808L77.900,54.860L77.879,55.090L77.891,55.328L77.937,55.536L77.941,55.747L77.830,55.996L77.692,56.117L77.208,56.249L76.931,56.511L76.761,56.828L76.478,57.615L76.419,57.708L76.373,57.812L76.343,57.926L76.331,58.044L76.360,58.099L76.394,58.144L76.434,58.182L76.792,58.429L76.746,58.814L76.505,59.178L76.239,59.331L75.877,59.395L75.734,59.624L75.708,59.698L75.619,59.952L75.344,60.320L75.057,60.474L74.569,60.436L74.285,60.509L74.082,60.757L74.007,61.126L73.955,61.873L73.790,62.231L73.561,62.525L73.374,62.834L73.342,63.236L73.730,63.988L73.813,64.416L73.506,64.655L72.944,64.679L72.685,64.773L72.461,65.039L72.327,65.463L72.272,66.331L72.158,66.708L72.006,67.004L71.878,67.106L71.490,67.103L71.405,67.148L70.772,67.934L70.533,68.027L70.274,67.798L70.182,67.685L70.078,67.631L69.964,67.631L69.844,67.685L69.582,67.695L69.087,67.476L68.849,67.425L68.759,67.454L68.564,67.565L68.433,67.577L68.324,67.524L68.086,67.316L67.962,67.251L67.696,67.239L67.418,67.319L67.268,67.401L67.151,67.466L66.631,67.907L66.573,68.016L66.580,68.199L66.704,68.633L66.702,68.789L66.595,68.898L66.469,68.878L66.346,68.833L66.246,68.871L66.180,69.016L66.167,69.252L66.165,69.295L66.093,69.488L65.890,69.717L65.631,69.853L64.883,70.014L64.784,70.011L64.623,69.948L64.492,69.857L64.105,69.494L63.580,69.269L63.038,69.143L62.715,69.674L60.580,69.735L60.043,70.431L59.322,69.801L59.084,69.701L58.750,69.866L58.653,69.878L58.552,69.821L58.416,69.629L58.345,69.570L58.128,69.517L57.998,69.533L57.663,69.705L57.286,69.751L56.731,69.430L55.882,69.349L55.348,69.469L55.145,69.555L54.042,70.022L53.810,69.974L52.999,69.444L52.710,69.255L52.435,69.163L52.149,69.148L51.379,69.302L51.096,69.293L50.851,69.337L50.523,69.489L50.215,69.699L50.023,69.921L50.046,70.081L50.145,70.260L50.179,70.421L49.829,70.615L49.736,70.746L49.669,70.892L49.574,71.027L49.351,71.214L49.237,71.262L49.090,71.285L48.924,71.365L48.816,71.534L48.717,71.730L48.581,71.883L48.359,71.962L47.868,71.965L47.627,72.020L47.512,72.109L47.361,72.225L47.262,72.466L47.201,72.704L47.050,72.902L46.681,72.975L45.518,72.851L45.223,72.675L45.223,72.672L45.027,72.287L44.728,72.172L44.423,72.306L44.214,72.675L44.199,73.253L43.965,73.320L43.629,73.270L43.313,73.500L43.272,73.571L43.258,73.642L43.273,73.715L43.375,73.881L43.405,73.964L43.389,74.027L43.313,74.065L43.060,73.946L42.245,73.882L42.049,73.898L41.917,74.054L41.769,74.139L41.503,74.219L41.277,74.379L41.199,74.382L41.137,74.385L40.966,74.225L40.833,74.432L40.774,74.610L40.715,74.746L40.576,74.826L40.414,74.804L39.891,74.522L39.234,74.289L38.986,74.343L38.685,74.649L38.636,74.747L38.596,74.982L38.561,75.102L38.541,75.107L38.345,75.336L38.055,75.917L37.896,76.117L37.322,76.621L36.977,76.754L36.679,76.610L36.463,76.760L36.002,77.347L35.750,77.550L35.652,77.578L35.562,77.587L35.471,77.578L35.383,77.552L35.379,77.550L35.159,77.258L34.946,77.254L34.731,77.379L34.502,77.471L34.274,77.382L34.045,77.127L33.744,77.123L33.336,76.808L33.089,76.728L31.998,76.728L31.881,76.766L31.652,76.937L31.508,76.994L31.355,76.994L29.960,76.596L29.043,76.596L28.825,76.596L28.702,76.666L28.638,76.819L28.563,76.960L28.404,76.994L28.403,76.913L28.141,76.449L27.755,76.161L26.139,75.650L25.838,75.630L25.730,75.556L25.705,75.426L25.686,75.323L25.671,75.099L25.603,74.809L25.587,74.651L25.490,74.465L24.862,73.785L24.374,73.559L23.812,73.439L22.681,73.384L22.568,73.457L22.531,73.521L22.480,73.582L22.409,73.639L22.323,73.322L22.183,73.260L21.866,73.384L21.601,73.405L21.559,73.347L21.579,73.174L21.503,72.840L21.360,73.086L21.220,73.052L21.088,72.932L21.064,72.910L20.869,72.840L20.869,72.707L20.960,72.684L21.124,72.606L21.223,72.586L21.104,72.415L20.887,72.385L20.680,72.306L20.588,71.980L20.556,71.783L20.391,71.158L20.318,70.975L19.787,70.266L19.638,70.176L18.561,70.138L18.363,70.039L17.722,69.546L17.567,69.376L17.501,69.165L17.392,69.019L16.686,68.432L16.559,68.259L16.233,67.633L15.737,67.040L15.641,66.955L15.550,66.840L15.419,66.452L15.318,66.156L15.362,65.851L15.235,65.533L15.155,65.424L15.036,65.262L14.866,65.090L14.796,65.089L14.767,65.178L14.732,65.243L14.644,65.163L14.586,65.088L14.530,65.028L14.471,64.983L14.412,64.957L14.054,64.875L13.960,64.812L13.861,65.090L13.770,65.090L13.609,64.743L13.204,64.489L12.954,64.158L12.741,63.786L12.499,63.484L12.213,63.283L11.860,63.213L11.741,63.135L11.637,63.117L11.554,63.184L11.497,63.358L11.416,63.358L11.239,63.177L10.666,62.814L10.589,62.752L10.397,61.911L9.950,61.523L9.461,60.748L8.988,60.463L8.746,60.266L8.691,60.125L8.641,59.995L8.763,59.803L9.015,59.680L9.094,59.603L9.199,59.500L9.126,59.132L8.927,58.997L8.680,58.982L8.611,58.952L8.600,58.947L8.497,58.902L8.492,58.574L8.309,58.606L8.185,58.459L8.072,58.234L7.921,58.038L7.738,57.477L7.708,57.404L7.726,57.332L7.762,57.185L7.880,56.980L7.930,56.893L8.022,56.673L8.098,56.435L8.128,56.261L8.069,56.162L7.874,56.151L7.758,56.089L7.698,56.014L7.497,55.763L7.361,55.684L6.134,55.791L5.548,55.842L5.480,55.825L5.000,55.707L5.213,55.607L5.383,55.442L5.864,54.780L6.017,54.619L6.355,54.370L6.632,54.251L6.724,54.180L6.813,54.037L6.820,53.919L6.809,53.811L6.843,53.692L6.977,53.576L7.109,53.546L7.216,53.457L7.273,53.161L7.400,52.946L7.581,52.921L8.076,53.021L8.616,52.955L8.897,52.990L9.126,53.163L9.197,53.217L9.266,53.236L9.330,53.220L9.388,53.166L9.388,53.164L9.609,53.123L9.954,53.119L10.205,53.058L10.146,52.847L9.956,52.670L9.766,52.607L9.387,52.560L9.552,52.410L10.146,52.167L10.296,52.071L10.349,51.964L10.303,51.863L10.146,51.783L9.879,51.693L9.780,51.436L9.866,51.151L10.146,50.976L10.449,50.575L10.512,50.346L10.351,50.109L10.132,50.088L9.684,50.304L9.506,50.186L9.510,50.078L9.618,49.745L9.614,49.574L9.525,49.448L9.414,49.437L9.308,49.446L9.229,49.378L9.182,49.056L9.387,48.628L9.343,48.288L9.343,48.286L9.755,48.063L9.943,47.890L10.031,47.629L9.978,47.309L9.574,46.463L9.539,46.424L9.480,46.402L9.419,46.369L9.382,46.295L9.391,46.179L9.448,46.127L9.514,46.093L9.543,46.035L9.510,45.287L9.644,45.040L9.810,44.995L9.987,45.118L10.146,45.376L11.572,44.725L12.071,44.337L12.255,44.193L12.202,43.407L12.352,43.244L12.739,43.082L12.880,42.833L12.895,42.533L12.793,42.288L12.609,42.102L12.384,41.976L12.458,41.598L12.346,41.204L12.114,40.894L11.825,40.762L11.387,40.837L10.514,40.482L10.146,40.563L9.403,40.265L9.163,40.127L9.280,39.981L9.481,39.656L9.578,39.558L9.655,39.655L9.721,39.716L9.783,39.728L9.871,39.674L10.028,39.533L10.558,39.255L10.670,39.147L10.743,38.980L10.719,38.722L10.799,38.534L11.286,38.315L11.842,38.385L12.905,38.796L13.072,38.912L13.144,39.087L13.193,39.293L13.295,39.495L13.443,39.647L13.585,39.734L14.333,39.851L14.449,39.823L14.596,39.680L14.856,39.268L15.032,39.120L15.225,39.631L15.728,39.723L16.780,39.461L17.747,39.333L18.020,39.207L17.869,39.113L17.756,38.964L17.691,38.768L17.666,38.131L17.577,37.735L17.559,37.400L17.758,37.180L17.671,37.057L17.544,36.692L17.440,36.615L17.161,36.487L17.078,36.399L17.074,36.187L17.240,36.101L17.699,35.999L17.917,35.829L18.049,35.632L18.125,35.376L18.180,35.029L18.153,34.990L18.083,34.968L18.017,34.928L18.003,34.844L18.039,34.788L18.162,34.705L18.188,34.672L18.225,34.505L18.290,34.383L18.295,34.262L18.155,34.102L18.988,33.413L19.472,33.124L19.950,33.226L20.500,33.377L20.637,33.415L21.503,33.544L21.921,33.886L23.282,35.689L23.413,35.808L23.550,35.864L23.883,35.934L24.006,36.014L24.455,36.680L24.617,36.845L24.754,36.840L24.887,36.776L25.036,36.753L25.234,36.851L25.509,37.047L25.755,37.279L25.859,37.479L25.997,37.633L26.562,37.935L26.864,38.097L27.975,38.397L28.742,38.348L31.781,38.153L33.417,38.321L33.909,38.275L34.902,37.875L37.619,37.561L38.214,37.604L38.696,37.815L39.093,37.892L39.479,37.851L39.803,37.653L40.242,37.156L40.472,36.986L40.772,36.908L41.099,36.793L41.119,36.786L40.609,36.418L40.221,36.042L40.135,35.676L40.168,35.265L40.301,34.460L40.257,34.234L40.165,34.156L40.147,34.084L40.320,33.874L40.441,33.804L40.698,33.761L40.824,33.653L41.180,32.925L41.411,32.739L42.673,32.459L43.313,32.317L43.508,32.227L43.807,32.241L44.067,32.254L44.861,32.139L46.507,32.337L46.652,32.308L47.445,31.807L49.236,31.844L49.946,31.347L49.966,31.246L49.973,31.144L49.966,31.038L49.946,30.931L49.942,30.918L49.939,30.906L49.942,30.897L49.946,30.888L50.104,30.579L50.228,29.824L50.374,29.540L50.603,29.409L51.823,29.090L51.964,29.095L52.097,29.133L52.248,29.259L52.536,29.610L52.669,29.678L53.281,29.561L53.592,29.611L53.828,29.892L53.835,30.084L53.759,30.252L53.726,30.417L53.851,30.602L53.977,30.618L54.456,30.438L54.782,30.541L55.287,30.990L55.562,31.094L55.875,30.981L56.476,30.429L56.781,30.243L57.286,30.088L57.330,30.061L57.858,29.743L58.109,29.648L58.218,29.563L58.316,29.388L58.388,29.037L58.441,28.900L58.606,28.707L58.720,28.685L58.856,28.734L59.089,28.758L59.311,28.661L59.712,28.298L59.861,28.234L60.126,28.365L60.275,28.527L60.436,28.594L60.739,28.438L61.124,28.057L61.456,27.559L61.733,26.996L62.248,25.448L62.402,25.145L62.601,24.888L63.004,24.471L63.034,24.439L63.212,24.179L63.223,24.110L63.229,24.041L63.227,23.972L63.219,23.903L63.193,23.565L63.197,23.402L63.212,23.255L63.595,23.105L64.418,23.051L67.225,22.417L67.440,22.413L67.646,22.519L68.039,22.870L68.231,22.919L68.648,22.962L69.371,23.394L69.844,23.435L70.175,23.410L70.566,23.479L70.936,23.642L71.204,23.900L71.540,23.977L72.567,23.497L73.007,23.399L73.247,23.502L73.412,23.637L73.562,23.702L73.758,23.594L73.913,23.375L73.989,23.167L74.100,22.985L74.359,22.836L74.581,22.791L75.034,22.782L75.722,22.569L75.915,22.626L76.361,22.886L76.601,22.978L76.715,23.080L76.803,23.247L76.923,23.625L77.012,23.762L77.224,23.857L77.713,23.851L77.939,23.900L78.054,24.122L78.227,24.928L78.336,25.137L79.079,26.255L79.393,26.614L79.744,26.868L80.159,27.007L80.562,26.973L81.249,26.629L81.821,26.545L82.226,26.318L82.419,26.244L83.112,26.208L83.356,26.126L83.596,26.111L84.389,26.187L84.636,26.117L84.868,25.937L85.119,25.622L85.433,25.675L85.456,25.672L85.470,25.670L85.602,25.529L86.036,25.361L86.489,25.417L86.963,25.648L86.766,26.238L86.763,26.549L87.129,26.527L87.221,26.543L87.320,26.707L87.320,26.899L87.290,27.124L87.302,27.393L87.445,27.789L88.095,28.776L88.181,28.862L88.277,28.888L88.380,28.859L88.484,28.777L88.537,28.752L88.591,28.744L88.647,28.752L88.908,28.857L89.117,28.900L89.323,28.882L89.580,28.756L89.636,28.749L89.691,28.760L89.744,28.786L90.730,30.063L90.904,30.466L91.092,31.084L91.318,31.546L91.390,31.626L91.424,31.630L91.598,31.534L92.554,31.534L92.798,31.455L93.023,31.312L93.250,31.250L93.467,31.388L93.514,31.480L93.989,31.744L94.382,32.106L94.558,32.328L94.697,32.596L94.787,32.965L94.739,33.168L94.652,33.348L94.627,33.653L94.401,33.930L94.512,34.167L95.000,34.558Z" fill="currentColor" stroke="currentColor" stroke-width="1.5" stroke-linejoin="round"/>
</svg>