<svg xmlns="http://www.w3.org/2000/svg" viewBox="0 0 100 100" role="img" aria-label="Isle of Man">
  <title>Isle of Man</title>
  <path d="M41.124,95.000L39.871,91.844L38.346,91.601L36.608,92.603L34.693,93.301L32.571,92.492L29.858,88.891L27.706,88.061L24.585,89.518L21.736,92.411L18.739,94.433L15.263,93.301L15.263,91.450L16.037,90.995L16.546,90.570L17.160,90.206L18.236,89.902L18.065,85.087L22.959,78.108L24.272,73.719L24.342,66.254L24.904,63.058L26.258,59.356L26.748,56.979L26.577,55.310L26.867,54.309L30.082,53.530L33.593,51.103L36.632,47.158L41.077,43.173L43.122,40.401L49.483,24.845L52.911,18.149L58.089,13.233L65.839,8.641L71.295,7.326L74.014,5.819L76.621,5.000L79.015,6.295L78.176,9.875L75.202,19.201L75.486,22.569L76.266,24.420L77.206,28.547L78.010,30.206L79.133,30.914L81.793,31.247L82.881,32.047L83.649,33.442L84.548,35.678L84.737,37.771L83.425,38.682L82.585,39.471L80.540,43.779L79.458,44.649L78.572,46.632L77.786,48.938L76.934,50.728L76.036,51.669L72.064,53.955L73.281,60.752L70.113,64.393L65.130,67.114L60.974,71.089L61.104,74.154L53.160,79.555L51.055,82.195L50.180,84.137L48.141,85.087L45.853,85.684L44.204,86.524L43.040,88.304L41.124,95.000Z" fill="currentColor" stroke="currentColor" stroke-width="1" stroke-linejoin="round"/>
</svg>