<svg xmlns="http://www.w3.org/2000/svg" viewBox="0 0 100 100" role="img" aria-label="British Indian Ocean Territory">
  <title>British Indian Ocean Territory</title>
  <path d="M73.921,93.027L74.083,92.831L74.215,92.728L74.334,92.575L74.439,92.243L74.555,92.473L74.614,92.702L74.594,92.971L74.452,93.300L74.129,93.685L72.970,94.704L72.515,95.000L72.274,93.848L72.515,91.513L72.237,90.540L71.970,90.310L71.046,89.802L70.702,89.706L70.339,89.473L69.465,88.311L70.003,88.387L72.000,89.762L72.515,90.261L72.762,91.247L72.515,94.721L72.934,94.356L73.921,93.027ZM74.598,88.716L75.020,89.447L74.815,90.005L74.400,90.550L74.175,91.237L74.195,91.519L74.238,91.758L74.386,92.130L74.221,91.911L74.040,91.599L73.941,91.260L74.050,90.958L74.690,89.703L74.314,88.723L73.485,87.773L72.792,86.614L73.228,86.916L74.598,88.716ZM28.604,63.179L29.080,63.195L28.802,63.335L28.660,63.308L28.604,63.219L28.604,63.179ZM24.996,52.408L24.980,51.976L25.036,51.810L25.237,51.651L25.297,51.979L25.247,52.169L25.135,52.298L24.996,52.408ZM28.119,44.543L28.278,44.224L28.469,43.985L28.723,43.829L29.017,43.786L28.862,44.251L28.634,44.723L28.377,44.908L28.119,44.543ZM45.757,13.702L45.410,13.443L45.317,13.356L45.697,13.423L45.813,13.519L45.796,13.615L45.757,13.702ZM63.939,9.115L64.325,8.766L64.216,8.992L64.097,9.092L63.998,9.112L63.939,9.115ZM44.291,7.378L44.697,6.754L44.631,7.112L44.505,7.292L44.367,7.365L44.291,7.378ZM45.232,5.392L45.568,5.292L45.483,5.498L45.403,5.518L45.331,5.448L45.232,5.392ZM53.583,5.319L53.521,5.219L53.445,5.173L53.402,5.126L53.445,5.000L53.596,5.020L53.620,5.090L53.583,5.193L53.583,5.319Z" fill="currentColor" stroke="currentColor" stroke-width="1" stroke-linejoin="round"/>
</svg>