<svg xmlns="http://www.w3.org/2000/svg" viewBox="0 0 100 100" role="img" aria-label="Ireland">
  <title>Ireland</title>
  <path d="M63.459,12.241L63.195,12.336L63.075,12.480L62.970,12.641L62.859,12.760L61.990,12.890L61.827,13.012L61.691,13.165L61.306,13.743L61.362,13.942L61.326,13.981L61.254,14.006L61.199,14.168L61.276,14.751L61.260,14.941L61.163,15.095L61.144,15.125L60.874,15.234L60.762,15.374L60.711,15.644L60.769,16.225L60.769,16.463L60.628,16.953L60.413,17.358L59.426,18.550L59.339,18.858L59.312,19.427L59.358,19.598L59.431,19.676L59.430,19.724L59.252,19.800L59.109,19.793L58.854,19.655L58.446,19.777L57.979,19.651L57.736,19.790L57.263,20.245L56.796,20.506L56.334,20.539L55.884,20.307L55.495,19.977L55.308,19.967L54.842,20.424L54.168,20.751L54.391,20.935L54.474,20.980L54.370,21.323L54.481,21.560L54.707,21.702L54.942,21.767L55.057,21.839L55.194,22.128L55.301,22.242L55.415,22.246L55.626,22.089L55.729,22.059L55.916,22.165L56.353,22.549L56.565,22.629L56.794,22.520L57.005,22.369L57.150,22.406L57.186,22.851L57.187,22.865L56.623,23.048L55.268,24.309L54.747,24.510L54.212,24.489L53.180,24.252L52.893,24.566L52.617,24.964L52.450,25.300L52.380,25.396L52.224,25.539L51.889,25.733L51.166,25.943L50.917,26.078L50.844,26.118L51.016,26.276L51.058,26.452L51.086,26.636L51.218,26.826L51.544,27.180L52.122,27.980L52.442,28.307L52.784,28.486L53.180,28.489L53.469,29.205L53.646,29.533L53.880,29.792L53.999,29.837L54.107,29.879L54.640,29.958L54.840,30.108L54.930,30.473L54.984,31.482L55.164,31.835L55.430,31.996L56.177,32.095L56.986,32.042L57.229,32.087L58.210,32.814L58.305,32.959L58.328,33.161L58.372,33.352L58.532,33.468L59.985,33.806L60.278,33.748L60.838,33.307L61.178,33.336L61.027,33.535L61.075,33.569L61.211,33.547L61.324,33.579L61.423,33.780L61.450,33.879L61.511,33.895L61.711,33.847L62.372,34.069L62.514,34.053L62.598,34.044L62.287,33.403L62.287,33.251L62.385,33.133L62.799,32.892L62.846,32.949L62.806,33.114L62.787,33.317L62.789,33.580L62.775,33.788L62.823,33.876L63.010,33.782L63.137,33.643L63.235,33.443L63.271,33.211L63.210,32.983L63.477,32.850L63.460,32.729L63.333,32.623L63.268,32.532L63.344,32.304L63.432,32.154L63.544,32.042L63.698,31.923L64.444,31.728L64.735,31.542L64.648,31.167L64.836,30.906L64.352,30.502L64.433,30.185L63.977,29.962L63.944,29.716L64.009,29.700L64.111,29.733L64.186,29.639L64.203,29.643L64.309,29.432L64.304,29.417L64.268,29.382L64.216,29.266L64.182,29.127L64.203,29.019L64.243,28.996L64.295,28.968L64.535,29.011L64.646,29.008L65.093,28.675L65.754,27.648L66.152,27.265L66.579,27.227L67.039,27.457L67.884,28.151L67.979,28.306L68.102,28.692L68.212,28.757L68.375,28.770L68.460,28.862L68.592,29.218L68.749,29.644L68.773,29.976L68.664,30.206L68.426,30.331L68.909,30.578L69.031,30.713L69.093,30.906L69.140,31.128L69.219,31.357L69.444,31.722L69.710,32.027L70.001,32.270L70.296,32.457L70.459,32.471L70.569,32.355L70.671,32.206L70.817,32.120L70.979,32.141L71.124,32.224L71.409,32.465L71.608,32.697L71.718,32.826L71.797,33.234L71.669,33.652L71.363,34.042L71.508,34.304L71.490,34.563L71.280,35.100L71.487,35.267L71.850,35.708L72.043,35.812L72.117,35.767L72.196,35.647L72.263,35.545L72.334,35.466L72.442,35.445L72.650,35.532L72.757,35.545L73.920,35.117L74.297,35.100L74.306,35.140L74.360,35.237L74.441,35.339L74.528,35.400L74.625,35.398L74.975,35.273L75.295,35.218L75.382,35.138L75.440,34.948L75.430,34.758L75.407,34.582L75.423,34.440L75.604,34.136L75.715,34.154L75.820,34.312L75.981,34.428L76.163,34.386L76.356,34.287L76.560,34.260L76.760,34.427L77.616,35.254L77.829,35.362L77.925,35.435L78.121,35.758L78.204,35.831L78.495,35.859L78.612,35.901L78.712,35.973L78.974,36.352L78.923,36.634L78.480,37.156L78.246,37.247L77.909,37.126L77.588,36.924L77.402,36.768L77.207,36.804L76.255,36.392L75.536,36.297L75.536,36.469L75.700,36.581L75.617,36.795L75.448,37.097L75.358,37.476L75.285,38.150L75.276,38.561L75.358,38.963L75.659,39.371L76.115,39.608L77.123,39.743L77.123,39.914L76.976,40.319L76.963,40.724L77.099,41.074L77.402,41.316L77.123,41.630L77.052,42.241L77.088,42.838L77.149,43.843L77.216,44.181L77.305,44.507L77.402,44.747L77.534,44.872L77.739,45.011L77.888,45.112L78.123,45.669L78.495,45.925L78.903,46.124L79.176,46.321L79.284,46.529L79.382,46.835L79.414,47.175L79.324,47.490L79.093,47.861L79.030,48.010L78.999,48.192L78.899,48.386L78.741,48.800L78.619,48.971L78.517,48.742L78.279,48.703L78.003,48.798L77.782,48.971L78.656,49.393L78.722,49.645L78.770,49.913L78.897,50.077L78.849,50.150L78.760,50.317L78.712,50.389L78.933,50.503L79.494,50.537L79.742,50.700L79.590,51.111L79.418,51.123L79.233,50.961L79.041,50.858L78.985,50.805L78.816,50.582L78.763,50.532L78.633,50.558L78.395,50.674L78.297,50.700L77.503,51.324L77.464,51.573L77.557,51.767L77.875,52.104L78.142,52.505L78.322,52.664L78.704,52.755L78.847,52.872L78.949,52.899L79.114,52.980L79.114,53.162L79.044,53.350L78.999,53.445L78.984,53.949L79.006,54.262L79.083,54.599L79.224,54.841L79.227,54.847L79.386,55.043L79.467,55.293L79.371,55.706L79.554,55.976L80.021,56.966L79.997,57.053L79.989,57.066L79.976,57.066L79.929,57.108L79.992,57.482L79.974,58.037L79.898,58.580L79.788,58.923L79.731,59.290L79.910,59.643L80.481,60.303L80.522,60.474L80.346,60.552L80.273,60.652L80.137,61.080L80.067,61.177L79.918,61.337L79.455,62.425L79.557,62.595L78.974,63.161L78.814,63.374L78.663,63.705L78.340,64.792L78.422,65.299L78.378,65.404L78.141,65.970L77.503,67.131L77.432,67.557L77.447,67.899L77.588,68.548L77.624,68.899L77.588,69.874L77.409,70.273L76.583,71.672L76.337,71.979L76.109,72.110L75.898,72.414L75.586,72.999L75.458,73.354L75.449,73.771L75.474,74.169L75.451,74.474L75.356,74.301L75.248,74.193L75.125,74.145L74.335,74.212L74.052,74.118L74.132,73.708L74.009,73.755L73.891,73.822L73.781,73.910L73.676,74.020L73.676,74.162L73.881,74.241L74.070,74.419L74.225,74.670L74.327,74.971L74.241,75.209L74.666,75.308L74.791,75.495L74.865,75.734L75.032,75.533L75.358,74.971L75.358,75.113L75.129,75.589L75.401,76.115L76.101,76.841L75.710,77.836L75.536,78.088L75.400,78.230L75.302,78.271L75.172,78.245L74.996,78.104L75.026,77.986L75.125,77.880L75.248,77.600L75.230,77.499L75.071,77.480L74.989,77.523L74.870,77.700L74.705,77.848L74.681,77.892L74.641,77.915L74.049,77.919L74.049,77.778L74.327,77.778L74.141,77.609L74.002,77.614L73.769,77.778L73.118,77.919L72.543,78.271L72.306,78.239L71.952,77.848L71.703,77.709L70.694,77.393L69.731,77.544L69.469,77.480L69.469,77.308L69.675,77.215L69.871,77.014L70.009,76.728L70.034,76.373L69.871,76.611L69.640,76.850L69.372,76.967L69.105,76.841L69.012,76.983L69.027,77.167L69.047,77.240L69.049,77.311L69.012,77.480L69.160,77.371L69.207,77.308L69.292,77.308L69.247,77.642L69.205,77.774L69.105,77.919L69.198,77.929L69.292,77.919L69.292,78.088L69.246,78.098L69.151,78.087L69.105,78.088L69.207,78.245L68.223,78.868L68.085,79.016L67.931,79.303L67.746,79.494L67.517,79.350L67.642,79.070L67.804,78.919L67.977,78.804L68.130,78.634L68.133,78.408L67.897,77.480L67.819,77.323L67.684,77.109L67.526,76.922L67.382,76.841L67.229,76.691L67.030,75.977L66.858,75.735L66.897,76.002L66.933,76.247L66.950,76.365L66.960,76.593L67.002,76.702L67.191,77.083L67.238,77.308L67.063,77.873L67.095,78.094L67.433,78.088L67.433,78.245L67.217,78.429L66.824,78.990L66.588,79.180L66.285,79.253L65.671,79.272L65.379,79.350L65.460,79.094L65.844,78.556L65.544,78.417L65.375,78.390L65.186,78.414L65.186,78.556L65.264,78.623L65.302,78.692L65.331,78.771L65.379,78.868L65.237,78.843L65.062,78.737L64.953,78.712L64.785,78.771L64.694,78.904L64.631,79.060L64.543,79.180L64.272,79.309L64.019,79.309L63.504,79.180L60.895,79.470L59.958,79.995L59.453,80.116L59.387,80.173L59.336,80.291L59.264,80.401L59.127,80.428L59.033,80.340L58.975,80.179L58.935,80.028L58.892,79.960L58.656,80.033L58.396,80.234L58.232,80.535L58.283,80.909L58.416,80.737L58.626,80.703L58.874,80.774L59.280,80.965L59.379,80.987L59.402,81.084L59.322,81.363L58.892,81.689L58.840,82.384L58.792,82.543L58.679,82.590L58.543,82.616L58.430,82.710L58.173,82.872L57.451,82.789L57.167,82.938L57.054,83.256L57.057,83.491L56.977,83.607L55.533,83.404L55.491,83.309L55.469,83.100L55.409,82.891L55.254,82.794L55.228,82.863L55.211,82.908L55.196,83.451L55.161,83.646L54.982,83.950L54.786,84.188L54.555,84.335L54.269,84.355L54.672,84.742L54.836,84.807L54.688,85.038L54.379,85.177L53.813,85.305L53.099,85.634L52.896,85.913L53.154,86.225L52.930,86.362L51.902,86.586L51.384,86.800L50.526,86.887L50.151,86.850L49.995,86.861L49.859,86.846L49.800,86.764L49.835,86.602L49.927,86.485L50.047,86.406L50.171,86.368L50.141,86.285L50.078,86.069L50.275,86.030L50.466,85.949L50.648,85.813L50.823,85.603L50.738,85.554L50.667,85.498L50.582,85.454L50.450,85.447L50.552,85.149L50.617,85.056L50.730,84.978L50.664,84.781L50.573,84.729L50.467,84.804L50.349,84.978L50.171,84.851L49.895,84.787L49.336,84.807L49.336,84.667L49.219,84.549L48.986,84.606L48.734,84.729L48.482,84.807L47.922,84.774L47.645,84.812L47.366,84.978L47.819,85.155L48.390,85.241L48.729,85.508L48.482,86.225L48.992,86.175L49.150,86.225L49.150,86.368L49.056,86.368L49.056,86.538L49.177,86.644L49.234,86.680L49.038,86.729L48.949,86.780L48.862,86.850L49.336,86.850L49.100,87.231L49.056,87.316L49.075,87.443L49.132,87.554L49.163,87.684L49.103,87.863L48.653,88.387L48.505,88.629L48.139,88.838L47.629,88.969L47.460,89.100L47.282,89.359L47.197,89.103L47.006,88.911L46.787,88.821L46.623,88.877L46.823,89.041L46.892,89.306L46.827,89.556L46.623,89.685L46.525,89.222L46.235,89.054L45.609,89.047L45.609,89.189L45.747,89.275L46.023,89.306L46.166,89.359L46.293,89.210L46.376,89.184L46.438,89.359L46.410,89.490L46.316,89.593L46.202,89.660L46.117,89.685L45.908,90.226L45.871,90.371L45.884,90.622L45.948,90.967L45.973,91.230L45.800,91.067L45.605,90.608L45.415,90.449L45.192,90.428L44.524,90.621L42.897,90.449L43.093,90.672L43.321,90.760L43.818,90.761L43.818,90.931L43.728,90.997L43.642,91.088L43.920,91.230L43.771,91.369L43.685,91.539L43.671,91.747L43.734,92.009L43.219,91.938L43.100,92.033L43.000,91.946L42.905,91.796L42.796,91.698L42.294,91.698L42.150,91.660L42.046,91.599L41.958,91.587L41.867,91.698L41.588,91.569L41.395,91.831L41.252,92.225L41.123,92.491L40.642,92.660L40.566,92.710L40.508,92.953L40.387,92.898L40.272,92.731L40.236,92.632L40.144,92.586L39.872,92.374L39.719,92.322L39.560,92.340L39.358,92.462L38.607,92.632L38.432,92.568L38.126,92.370L37.955,92.322L37.955,92.491L38.015,92.524L38.132,92.632L38.023,92.894L37.854,93.091L37.648,93.215L37.440,93.257L37.086,93.162L36.978,93.198L37.018,93.427L37.018,93.569L36.822,93.577L36.728,93.721L36.662,93.909L36.552,94.050L36.403,94.069L36.280,94.004L36.154,93.962L35.995,94.050L35.986,93.894L35.957,93.786L35.922,93.692L35.894,93.569L35.522,93.817L35.491,94.018L35.414,94.050L35.307,94.043L35.192,94.129L35.034,94.285L34.845,94.353L34.407,94.362L34.563,94.249L34.689,94.129L34.792,93.968L34.880,93.739L34.682,93.884L34.522,93.959L34.469,93.883L34.592,93.569L34.738,93.368L35.074,93.128L35.244,92.959L35.203,92.907L35.186,92.891L35.174,92.866L35.141,92.788L35.028,92.909L34.592,93.187L34.539,93.318L34.411,93.477L34.129,93.739L33.965,93.506L33.982,93.287L34.074,93.035L34.129,92.710L34.033,92.568L33.813,92.445L33.565,92.401L33.384,92.491L33.501,92.763L33.112,92.959L32.146,93.182L32.093,93.275L32.074,93.498L32.026,93.574L31.787,93.555L31.694,93.569L31.432,93.831L31.277,93.901L31.045,93.895L31.028,93.667L30.862,93.413L30.670,93.299L30.578,93.498L29.836,94.207L29.923,94.309L29.960,94.341L30.022,94.362L29.092,94.831L29.132,94.575L29.009,94.623L28.619,95.000L28.527,94.831L28.434,95.000L28.451,94.708L28.477,94.602L28.527,94.504L28.527,94.362L28.407,94.322L28.351,94.269L28.248,94.050L28.546,93.954L28.793,93.768L29.278,93.257L29.525,93.080L30.002,92.944L30.300,92.788L30.541,92.582L31.137,91.868L31.394,91.659L31.884,91.424L32.168,91.230L31.540,91.163L28.913,92.561L28.062,92.632L28.637,92.236L28.763,92.179L28.895,92.082L28.991,91.868L29.113,91.654L29.646,91.456L31.323,90.508L31.505,90.208L31.950,90.148L32.456,89.870L32.957,89.747L33.356,89.558L33.384,89.189L33.449,89.078L33.508,88.944L33.569,88.877L33.569,88.735L33.374,88.631L33.163,88.762L32.931,88.860L32.618,88.601L32.500,88.609L32.446,88.578L32.433,88.489L32.459,88.201L32.446,88.112L32.361,88.015L32.244,87.915L32.110,87.833L31.973,87.785L32.032,88.080L32.013,88.291L32.022,88.486L32.168,88.735L31.893,88.811L31.708,88.950L31.332,89.359L31.066,89.534L30.777,89.630L29.887,89.730L29.417,89.936L27.700,90.193L27.139,90.458L26.938,90.621L26.914,90.683L26.911,90.767L26.900,90.853L26.853,90.931L26.778,90.989L25.922,91.281L25.595,91.556L25.438,91.530L25.171,91.413L25.033,91.386L24.406,91.470L24.099,91.615L23.862,91.868L23.770,91.698L23.873,91.617L23.901,91.492L23.908,91.352L23.955,91.230L24.036,91.166L24.965,90.896L25.173,90.761L25.173,90.661L25.156,90.639L25.123,90.643L25.079,90.621L25.134,90.338L25.025,90.173L24.825,90.108L24.614,90.123L24.787,89.840L25.083,89.777L25.636,89.826L25.935,89.694L26.574,89.047L26.574,88.877L26.017,88.877L26.249,88.464L26.676,88.118L27.145,87.878L27.504,87.785L27.461,87.890L27.388,88.125L27.317,88.252L27.559,88.201L27.785,88.082L27.940,87.854L27.968,87.473L28.147,87.600L28.385,87.644L28.906,87.628L28.906,87.473L28.799,87.452L28.527,87.316L28.527,87.176L28.711,87.051L29.058,86.630L29.328,86.473L29.486,86.167L29.558,86.069L29.664,86.040L30.022,86.069L30.464,85.926L31.261,85.458L31.694,85.305L31.694,85.134L30.708,85.269L29.280,85.835L29.020,86.001L28.906,86.147L28.821,86.296L28.373,86.295L28.163,86.368L28.248,86.538L27.840,86.811L27.690,86.850L27.719,86.741L27.757,86.482L27.783,86.368L27.590,86.368L27.477,86.461L27.401,86.586L27.317,86.680L27.154,86.741L26.826,86.794L26.668,86.850L26.073,87.343L25.759,87.487L25.451,87.316L25.178,87.623L24.836,87.915L24.473,88.141L24.141,88.252L24.220,87.951L22.933,87.316L23.453,87.145L23.576,86.596L23.343,86.015L22.793,85.743L22.637,85.867L22.295,86.413L22.140,86.538L21.974,86.625L21.552,87.041L21.344,87.176L21.269,86.883L21.431,86.217L21.344,85.913L21.145,85.867L20.870,85.894L20.693,85.854L20.788,85.603L20.780,85.493L20.748,85.462L20.714,85.460L20.695,85.447L20.723,85.361L20.751,85.305L20.776,85.244L20.788,85.134L20.741,85.127L20.647,85.138L20.601,85.134L20.601,84.978L21.050,84.917L22.181,84.497L22.418,84.497L22.527,84.426L22.572,84.270L22.562,84.114L22.515,84.043L22.322,83.921L22.205,83.666L22.066,83.440L21.809,83.404L21.809,83.263L21.967,83.157L22.303,83.032L22.469,82.938L22.363,82.604L22.646,82.453L23.028,82.365L23.376,82.116L24.242,81.689L25.534,81.402L26.086,81.064L26.381,80.287L26.482,80.287L26.480,80.697L26.608,80.875L26.799,80.917L26.989,80.909L26.945,80.698L27.233,79.350L27.654,79.611L28.080,79.633L29.092,79.493L28.996,79.404L28.879,79.248L28.805,79.180L29.278,78.868L26.574,79.024L26.752,79.493L26.666,79.755L26.604,79.856L26.523,79.487L26.391,79.334L26.211,79.237L26.017,79.180L25.605,79.152L23.776,79.629L23.451,79.841L23.303,79.704L23.169,79.484L23.026,79.350L22.885,79.408L22.793,79.546L22.692,79.605L22.342,79.239L22.190,79.226L21.809,79.350L21.809,79.493L21.944,79.492L22.059,79.526L22.283,79.648L22.283,79.789L21.938,79.728L21.292,79.494L20.973,79.493L20.985,79.646L21.027,79.717L21.167,79.789L20.872,79.799L20.334,80.064L20.044,80.116L19.715,79.988L19.623,79.711L19.598,79.325L19.478,78.868L19.596,78.798L19.849,78.556L19.849,78.414L19.708,78.230L19.865,78.026L20.158,77.856L20.415,77.778L20.315,78.088L20.615,78.349L20.786,78.414L20.922,78.330L20.960,78.146L20.914,77.987L20.907,77.823L21.066,77.620L20.929,77.508L20.871,77.480L20.997,77.128L21.158,77.036L21.362,77.045L21.623,76.983L21.781,76.816L22.080,76.320L22.233,76.217L23.647,75.790L23.862,75.977L23.697,76.844L23.724,76.983L24.614,76.841L25.014,76.602L25.375,76.191L25.496,75.709L25.173,75.269L25.649,75.258L25.802,75.344L25.737,75.579L25.802,75.912L25.812,76.269L25.867,76.554L26.063,76.671L26.284,76.713L26.701,76.914L27.161,77.018L27.726,77.027L27.919,76.912L28.202,76.533L28.361,76.443L28.527,76.515L28.434,76.587L28.348,76.671L28.572,76.811L29.558,76.671L29.343,76.442L29.149,76.380L28.720,76.373L28.276,76.114L28.072,76.061L27.867,76.217L27.765,76.102L27.689,75.963L27.637,75.790L27.605,75.579L27.770,75.746L27.898,75.838L28.039,75.838L28.248,75.735L28.072,75.629L27.983,75.594L27.867,75.579L27.867,75.410L28.002,75.405L28.348,75.269L28.197,74.886L28.240,73.771L28.015,73.538L27.297,73.398L26.916,73.209L26.668,72.929L26.872,72.713L27.132,72.620L28.050,72.556L29.404,71.909L29.586,71.752L29.790,71.441L30.022,71.297L30.378,71.306L30.732,71.402L30.960,71.525L30.903,71.215L30.744,71.062L30.528,71.017L30.300,71.044L30.379,70.928L30.408,70.811L30.382,70.691L30.300,70.576L30.300,70.420L30.412,70.281L30.435,70.147L30.402,69.874L30.452,69.713L30.774,69.314L30.849,69.384L30.935,69.319L31.043,69.213L31.188,69.158L31.745,69.314L32.827,69.314L32.934,69.364L33.060,69.464L33.196,69.509L33.333,69.399L33.433,69.250L33.520,69.180L33.631,69.160L34.664,69.199L34.716,69.200L34.829,69.236L35.027,69.139L35.894,69.158L36.380,69.057L36.600,68.966L36.785,68.767L36.980,68.626L38.637,68.085L38.885,67.911L38.997,68.161L39.245,68.218L39.522,68.161L39.719,68.067L39.799,67.937L39.884,67.727L39.993,67.530L40.144,67.443L42.525,67.131L42.986,66.971L42.738,66.966L41.852,66.601L41.402,66.506L40.515,66.649L40.283,66.607L40.131,66.498L40.115,66.353L40.288,66.195L40.288,66.039L40.231,65.842L40.251,65.570L40.218,65.333L40.008,65.246L40.124,65.062L40.275,64.766L40.380,64.636L40.022,64.736L39.595,64.973L39.277,65.277L39.247,65.571L38.806,66.427L37.600,68.095L37.342,68.236L36.130,68.377L36.060,68.441L35.844,68.747L35.708,68.847L35.541,68.872L35.369,68.851L35.205,68.787L35.065,68.689L35.282,68.490L35.580,68.288L35.805,68.050L35.801,67.740L35.370,68.015L34.376,68.338L33.684,68.363L33.389,68.307L33.127,68.190L33.013,67.989L32.919,67.859L32.454,67.792L32.269,67.599L32.340,67.245L32.191,67.115L31.694,67.131L31.694,67.287L31.821,67.333L31.930,67.425L32.017,67.563L32.074,67.740L31.045,68.236L30.441,68.372L30.146,68.509L30.022,68.767L29.977,69.089L29.873,69.126L29.749,69.043L29.651,69.002L29.288,69.278L26.853,69.626L26.853,69.484L27.100,69.366L27.679,68.938L28.381,68.748L31.137,66.039L31.101,65.954L31.045,65.727L31.193,65.654L31.388,65.492L31.518,65.416L31.694,65.363L32.120,65.416L32.273,65.388L32.527,65.273L32.679,65.246L32.811,65.154L32.866,64.937L32.911,64.678L33.013,64.466L32.940,64.371L32.938,64.359L32.974,64.326L33.013,64.167L32.911,63.997L33.056,63.914L33.204,63.769L33.344,63.582L33.468,63.374L33.548,63.171L33.590,62.993L33.643,62.849L33.756,62.751L33.756,62.595L33.780,62.294L34.626,61.463L34.779,61.021L34.523,60.937L33.454,60.995L33.097,60.865L33.481,60.472L33.642,60.261L34.046,59.570L34.173,59.408L34.322,59.305L34.221,59.149L34.948,57.744L35.244,57.421L35.470,57.038L35.656,56.551L35.893,56.152L36.181,56.032L36.502,56.224L37.141,56.835L37.440,56.966L37.699,56.866L37.979,56.685L38.283,56.601L38.607,56.796L38.645,56.431L38.450,56.225L37.854,56.032L37.854,55.861L38.652,55.706L38.864,55.792L39.280,56.141L39.543,56.173L39.543,56.032L38.977,55.706L38.977,55.534L39.291,55.678L39.467,55.709L39.624,55.530L39.780,55.460L39.886,55.488L39.814,55.706L39.949,55.895L40.095,56.035L40.264,56.127L40.464,56.173L40.344,55.707L40.278,55.534L40.186,55.394L40.361,55.048L40.576,54.800L41.030,54.457L40.886,54.462L40.631,54.571L40.515,54.599L39.170,54.555L38.977,54.457L39.216,54.305L39.835,54.148L40.100,54.131L40.100,53.977L39.719,53.977L39.719,53.833L39.847,53.718L40.199,53.612L40.380,53.523L40.380,53.367L39.298,53.211L39.024,53.259L38.550,53.473L34.134,53.838L33.705,54.053L33.502,54.206L33.200,54.289L32.633,54.287L32.344,54.148L32.188,53.939L32.069,53.715L31.889,53.523L32.149,53.127L32.050,52.862L31.821,52.868L31.694,53.289L31.633,53.782L31.474,54.073L31.264,54.108L31.045,53.833L31.045,53.664L31.307,53.191L31.196,52.160L31.467,51.964L31.512,51.984L31.646,52.082L31.745,52.104L31.799,52.055L31.887,51.842L31.930,51.792L31.965,51.709L31.416,51.168L31.565,50.997L32.074,50.700L31.583,50.677L31.342,50.716L31.137,50.858L31.316,51.129L31.342,51.523L31.221,51.859L30.960,51.964L30.717,51.708L30.779,51.282L30.917,50.880L30.908,50.700L30.830,50.654L30.773,50.571L30.715,50.531L30.630,50.616L30.444,50.858L30.278,50.932L30.168,51.106L30.022,51.467L29.695,52.055L29.484,52.321L28.840,52.614L28.618,52.614L28.391,52.346L28.125,52.118L27.530,52.257L27.317,52.104L27.377,52.014L27.446,51.724L27.474,51.466L27.522,51.298L27.616,51.209L27.736,51.176L27.919,51.168L28.147,51.099L28.702,50.722L28.906,50.532L28.906,50.389L28.434,50.389L28.434,50.219L28.720,50.077L28.720,49.921L28.517,49.921L28.366,49.985L28.062,50.219L28.070,50.381L27.890,50.498L27.683,50.476L27.605,50.219L27.678,50.014L27.946,49.823L28.062,49.596L27.888,49.624L27.782,49.739L27.689,49.862L27.555,49.921L27.430,49.874L27.316,49.790L27.192,49.773L27.039,49.921L26.999,50.144L27.038,50.402L27.044,50.612L26.896,50.700L26.742,50.726L26.512,50.833L25.972,50.841L25.794,50.795L25.636,50.700L25.497,50.509L25.415,50.306L25.315,50.142L25.126,50.077L24.578,50.174L24.250,50.141L24.057,49.921L23.945,50.025L23.835,50.073L23.584,50.077L23.705,49.709L23.850,49.461L24.050,49.323L24.335,49.284L24.855,49.393L25.061,49.365L25.266,49.142L25.266,48.971L25.108,48.951L24.976,48.864L24.875,48.714L24.800,48.505L25.097,48.558L25.432,48.709L25.706,48.758L25.822,48.505L25.553,48.533L25.042,48.430L24.526,48.209L24.242,47.880L24.229,47.735L24.152,47.464L24.038,47.203L23.909,47.087L23.513,47.200L23.353,47.214L23.220,47.087L23.533,46.815L23.850,46.823L24.179,46.925L24.521,46.945L24.493,46.843L24.448,46.581L24.420,46.477L25.025,46.483L25.636,46.646L25.714,46.735L25.915,47.087L26.045,47.027L26.236,46.740L26.381,46.646L25.553,46.092L25.350,45.815L25.869,45.697L26.929,45.803L27.317,45.697L27.785,45.402L27.968,45.385L28.111,45.445L28.398,45.652L29.049,45.769L30.114,45.839L30.114,45.697L29.878,45.574L28.930,45.655L28.338,45.429L27.233,44.747L27.039,43.726L27.120,43.238L27.271,42.864L27.354,42.513L27.233,42.096L27.363,42.006L27.879,41.912L28.248,41.771L28.570,41.732L28.716,41.682L28.856,41.537L28.934,41.526L29.210,41.705L29.362,41.771L31.889,41.316L31.889,41.147L31.683,41.109L31.137,40.835L31.210,40.788L31.266,40.738L31.329,40.697L31.416,40.679L31.416,40.523L31.357,40.336L31.502,40.130L31.973,39.743L31.862,39.734L31.610,39.587L31.718,39.492L31.801,39.353L31.859,39.174L31.889,38.963L31.797,38.981L31.739,39.003L31.684,39.044L31.610,39.119L31.221,38.974L29.278,38.963L27.939,39.717L27.201,39.890L26.752,39.418L26.921,39.286L27.005,38.649L27.233,38.482L27.194,38.271L27.190,38.171L27.233,38.014L27.233,37.872L27.132,37.872L27.132,37.717L27.783,37.545L27.903,37.607L28.204,37.824L28.391,37.872L28.551,37.994L28.605,38.530L28.763,38.652L28.879,38.580L28.875,38.393L28.851,38.142L28.906,37.872L28.778,37.735L28.667,37.565L28.537,37.433L28.348,37.403L28.348,37.545L28.434,37.717L28.278,37.662L28.184,37.495L28.026,36.926L28.035,36.816L28.034,36.720L27.968,36.610L27.881,36.592L27.652,36.620L27.605,36.541L27.560,36.397L27.461,36.273L27.363,36.084L27.317,35.745L27.379,35.404L27.529,35.299L27.709,35.243L27.867,35.036L27.676,34.954L27.673,34.822L27.792,34.682L27.968,34.584L27.867,34.428L28.248,34.102L28.117,33.991L27.959,33.982L27.605,34.102L27.639,34.289L27.624,34.374L27.552,34.403L27.411,34.428L27.411,34.584L27.504,34.584L27.111,35.071L26.728,35.151L26.386,34.869L26.110,34.272L26.374,34.283L26.989,34.102L27.233,33.960L26.819,33.656L26.652,33.437L26.574,33.166L26.662,33.221L26.849,33.285L26.938,33.336L26.766,33.067L26.296,32.541L26.480,32.667L26.640,32.675L26.769,32.577L26.853,32.385L26.147,31.796L25.838,31.677L25.636,31.918L25.831,32.162L25.755,32.354L25.526,32.444L25.266,32.385L25.387,32.621L25.451,32.697L25.451,32.853L25.258,32.825L25.091,32.863L24.800,33.024L24.800,33.166L24.978,33.232L25.045,33.368L25.079,33.804L24.963,33.810L24.699,33.960L24.878,34.083L25.046,34.296L25.076,34.495L24.844,34.584L24.590,34.567L24.388,34.473L24.264,34.242L24.242,33.804L24.323,33.534L24.631,32.884L24.699,32.621L24.745,32.210L24.860,32.021L25.014,31.874L25.173,31.591L24.746,31.582L24.573,31.496L24.420,31.295L24.679,31.292L24.802,31.083L24.877,30.783L24.986,30.515L25.136,30.381L25.737,30.034L25.793,29.937L25.826,29.820L25.883,29.731L26.017,29.722L26.096,29.796L26.126,29.932L26.145,30.078L26.194,30.188L26.371,30.331L26.606,30.452L26.846,30.481L27.039,30.346L27.139,30.525L27.250,30.623L27.371,30.623L27.504,30.515L27.526,30.587L27.524,30.623L27.539,30.640L27.605,30.656L27.303,31.229L26.978,31.484L26.640,31.444L26.296,31.125L26.209,31.571L26.420,31.707L26.743,31.729L26.989,31.841L27.213,31.995L27.401,31.830L27.581,31.573L27.783,31.451L27.597,31.173L27.686,30.805L27.906,30.484L28.112,30.346L28.408,30.430L28.885,30.776L29.185,30.826L29.106,30.630L28.999,30.506L28.720,30.346L28.720,30.188L28.853,30.135L28.981,30.125L29.278,30.188L29.024,30.040L28.311,29.883L28.163,29.650L28.083,29.322L28.110,29.155L28.906,28.942L29.195,29.014L29.712,29.337L29.976,29.409L32.311,29.578L32.462,29.552L32.717,29.437L32.869,29.409L32.987,29.449L33.175,29.650L33.283,29.722L34.365,29.876L34.496,29.840L34.663,29.749L34.819,29.625L34.921,29.494L35.049,29.393L35.215,29.421L35.825,29.707L35.945,29.722L36.046,29.818L36.157,30.247L36.227,30.346L36.469,30.303L36.609,30.255L36.637,30.188L36.726,30.368L36.747,30.552L36.713,30.715L36.637,30.826L36.637,30.983L36.932,31.125L36.932,31.295L36.671,31.476L36.735,31.688L37.394,32.277L37.566,32.538L37.676,32.887L37.676,33.336L37.761,33.336L37.772,32.923L37.824,32.573L37.844,32.254L37.761,31.918L38.067,31.791L38.371,31.487L38.605,31.027L38.699,30.431L38.901,30.051L39.360,29.997L40.186,30.188L40.281,30.157L40.355,30.080L40.428,30.040L40.585,30.174L40.820,30.316L41.039,30.394L41.343,30.608L41.550,30.656L42.221,30.656L42.516,30.569L42.796,30.346L43.172,30.631L44.003,30.467L44.385,30.656L44.465,30.871L44.505,31.134L44.590,31.356L44.974,31.510L45.132,31.660L45.415,32.088L45.597,31.944L45.807,31.898L46.252,31.918L46.252,31.763L46.057,31.664L45.811,31.589L45.598,31.462L45.508,31.208L45.423,31.033L45.216,30.900L44.967,30.826L44.757,30.826L44.757,30.656L44.849,30.547L45.007,30.275L45.128,30.188L45.429,30.333L45.612,30.378L45.693,30.266L45.850,30.169L46.809,30.346L46.596,30.071L46.348,29.876L46.087,29.761L45.829,29.722L45.552,29.742L45.454,29.681L45.415,29.494L45.490,29.260L45.658,29.321L45.973,29.578L46.245,29.415L46.144,29.201L45.853,29.020L45.559,28.942L44.208,28.943L44.134,28.870L44.114,28.630L44.174,28.458L44.311,28.307L44.475,28.203L44.868,28.088L46.451,26.991L46.675,26.915L46.757,26.843L46.796,26.662L46.809,26.207L46.858,25.815L46.960,25.886L47.059,26.134L47.097,26.277L47.151,26.296L47.170,26.307L47.180,26.447L47.576,26.168L47.981,25.969L48.015,25.962L49.125,25.747L49.299,25.713L49.915,25.295L50.349,25.199L50.349,25.028L49.899,25.011L49.699,24.919L49.522,24.703L50.265,24.094L50.231,23.650L50.862,23.086L50.823,22.519L50.969,22.610L51.065,22.713L51.168,22.797L51.338,22.832L51.494,22.095L51.566,21.897L51.524,21.849L51.510,21.843L51.501,21.827L51.472,21.755L51.212,21.999L50.942,22.135L50.012,22.289L49.517,22.686L49.234,22.832L49.234,22.690L49.376,22.491L49.394,22.283L49.300,22.120L49.103,22.051L48.899,22.150L48.550,22.591L48.204,22.763L47.568,23.454L47.385,23.606L47.193,23.720L46.995,23.767L46.995,23.627L47.326,23.239L47.533,23.070L47.790,23.003L47.973,22.831L47.933,22.506L47.765,22.307L47.561,22.519L47.468,22.519L47.511,22.017L47.335,22.017L47.108,22.329L46.995,22.761L46.928,22.895L46.785,22.780L46.653,22.596L46.592,22.436L46.606,22.334L46.593,22.245L46.484,22.207L46.393,22.228L46.251,22.326L46.166,22.363L45.836,22.384L45.677,22.443L45.533,22.758L45.359,22.711L45.085,22.519L44.055,22.516L43.818,22.363L43.928,22.142L43.799,22.017L42.673,21.593L42.432,21.598L42.478,21.512L42.506,21.430L42.546,21.352L42.618,21.272L42.618,21.131L42.442,21.021L42.351,20.860L42.382,20.712L42.572,20.648L42.771,20.625L42.931,20.545L43.036,20.377L43.075,20.103L43.229,19.931L44.198,19.245L44.545,19.113L45.912,19.148L46.626,19.379L46.995,19.388L46.995,19.245L46.042,19.014L45.786,18.763L45.997,18.665L46.609,18.635L46.767,18.693L46.938,18.967L47.157,19.234L47.403,19.369L47.654,19.245L46.931,18.540L46.420,18.364L45.928,18.016L45.609,17.984L45.665,17.763L45.765,17.709L45.899,17.712L46.066,17.672L46.199,17.570L46.379,17.330L46.531,17.205L46.799,17.467L47.097,17.492L47.739,17.375L48.497,17.668L48.777,17.672L48.777,17.517L48.538,17.481L48.237,17.355L48.020,17.114L48.026,16.736L48.219,16.540L48.754,16.633L48.955,16.580L48.775,16.432L48.623,16.025L48.440,15.942L48.190,15.921L48.119,15.942L48.063,16.045L48.041,16.206L48.036,16.354L48.026,16.424L47.639,16.404L47.322,16.073L47.074,15.604L46.902,15.176L47.079,15.051L47.209,15.116L47.337,15.247L47.515,15.319L47.703,15.293L47.883,15.225L48.221,15.008L47.818,14.846L47.512,14.553L46.995,13.929L46.995,13.759L47.111,13.650L47.252,13.600L47.406,13.628L47.561,13.759L47.702,13.530L47.739,13.446L47.654,13.446L47.722,13.124L47.830,13.067L47.965,13.084L48.119,12.994L48.385,12.442L48.482,12.356L48.611,12.490L48.649,13.024L48.777,13.134L48.855,13.040L48.942,12.621L49.056,12.499L48.902,11.827L48.849,11.428L48.909,11.250L49.068,11.102L49.285,10.396L49.420,10.158L49.630,10.146L50.399,10.470L50.646,10.422L51.065,10.207L51.287,10.158L51.202,10.358L51.110,10.507L51.038,10.656L51.009,10.868L51.080,10.981L51.241,10.851L51.647,10.291L52.472,9.783L52.736,9.691L52.925,9.513L53.050,9.141L53.216,8.808L53.526,8.756L53.888,9.022L53.773,9.275L53.154,9.691L53.154,9.847L53.728,9.549L53.813,9.606L53.904,9.717L54.109,9.699L54.326,9.610L54.455,9.521L54.641,9.847L54.641,9.989L54.588,10.252L54.702,10.210L54.904,10.057L55.115,9.989L55.047,10.212L54.941,10.362L54.803,10.446L54.641,10.470L54.641,10.625L54.891,10.615L55.045,10.661L55.165,10.650L55.300,10.470L55.460,10.056L55.422,9.808L55.115,9.379L55.033,8.916L55.249,8.635L55.607,8.375L55.950,7.976L55.986,8.091L56.000,8.095L56.052,8.145L55.739,9.214L55.718,9.379L55.746,9.420L55.790,9.515L55.857,9.619L55.950,9.691L56.072,9.694L56.206,9.543L56.331,9.521L56.514,9.605L56.795,9.790L57.054,10.020L57.167,10.236L57.193,10.319L57.314,10.619L57.353,10.782L57.349,10.946L57.279,11.355L57.260,11.562L57.366,11.356L57.582,10.753L57.679,10.625L57.727,10.462L57.638,10.101L57.511,9.747L57.446,9.606L57.425,9.382L57.361,9.086L57.245,8.835L57.075,8.756L56.968,8.924L56.995,9.251L57.084,9.602L57.167,9.847L56.979,9.811L56.847,9.680L56.735,9.516L56.610,9.379L56.210,9.265L56.045,9.120L56.094,8.832L56.466,8.105L56.466,7.976L56.952,8.054L57.167,7.976L57.655,7.570L57.826,7.508L58.057,7.595L58.202,7.816L58.311,8.043L58.430,8.145L58.500,8.311L58.476,8.668L58.417,9.015L58.384,9.145L58.458,9.348L58.635,9.502L59.026,9.691L59.033,9.961L59.144,10.267L59.302,10.520L59.453,10.625L59.638,10.797L59.665,11.172L59.586,11.548L59.453,11.718L59.249,11.775L59.088,11.913L58.840,12.200L58.097,12.667L58.097,12.823L58.911,12.672L59.175,12.808L59.026,13.290L58.865,13.458L58.190,13.929L57.736,14.551L57.547,14.709L57.547,14.866L57.818,14.785L58.065,14.617L59.357,13.403L59.499,13.369L59.617,13.123L59.890,13.003L60.203,12.928L60.437,12.823L60.613,12.542L60.697,12.172L60.637,11.855L60.387,11.718L60.322,11.623L60.379,11.416L60.522,11.094L60.522,10.548L60.424,10.509L59.879,9.691L59.558,9.431L59.453,9.301L59.395,9.148L59.342,8.905L59.344,8.682L59.648,8.417L59.795,8.020L59.831,7.558L59.685,7.195L59.916,7.221L60.115,7.307L60.308,7.340L60.522,7.195L60.485,7.119L60.473,7.068L60.465,7.004L60.437,6.884L60.708,7.110L60.997,7.280L61.297,7.271L61.816,6.730L62.092,6.647L62.364,6.779L62.574,7.195L62.287,7.210L62.195,7.195L62.455,7.380L62.755,7.515L63.057,7.525L63.327,7.338L62.457,6.669L62.049,6.169L62.017,5.636L61.656,5.427L61.492,5.289L61.375,5.139L61.589,5.000L61.836,5.055L62.296,5.310L63.234,5.636L63.456,5.667L63.979,5.942L64.162,6.091L64.860,7.118L65.066,7.296L65.742,7.597L66.252,7.684L66.870,7.938L67.153,8.145L67.455,8.016L67.645,8.364L67.601,8.832L67.196,9.067L66.814,9.139L66.358,9.329L65.927,9.600L65.464,10.045L65.021,10.274L64.651,10.381L64.470,10.547L63.874,11.350L63.660,11.726L63.488,12.147L63.459,12.241ZM30.578,53.211L30.910,53.768L30.638,54.188L30.174,54.332L29.929,54.053L29.885,53.721L29.812,53.554L29.797,53.425L29.929,53.211L30.085,53.092L30.278,53.052L30.459,53.090L30.578,53.211ZM26.482,37.717L26.643,37.626L26.796,37.578L26.931,37.598L27.039,37.717L27.039,37.872L26.929,38.050L26.839,38.410L26.801,38.811L26.853,39.119L26.558,39.390L26.302,39.247L26.043,38.924L25.737,38.652L25.560,38.635L25.376,38.671L25.231,38.634L25.173,38.411L25.201,38.075L25.243,37.816L25.227,37.604L25.079,37.403L24.799,37.317L23.770,37.545L23.398,37.496L22.727,37.241L22.367,37.234L22.367,37.078L22.718,37.066L23.012,36.982L23.244,36.751L23.406,36.297L23.511,36.431L23.624,36.472L23.742,36.427L23.862,36.297L24.157,36.656L24.505,36.558L24.847,36.295L25.126,36.143L26.315,36.180L26.574,36.297L26.853,36.909L26.574,36.909L26.609,37.095L26.604,37.272L26.561,37.428L26.482,37.545L26.482,37.717ZM46.066,13.603L46.282,13.697L46.451,13.809L46.565,14.012L46.623,14.383L46.031,14.566L45.733,14.546L45.508,14.383L45.508,14.241L45.542,14.141L45.550,14.135L45.539,14.104L45.508,13.929L45.711,13.789L45.786,13.759L45.759,13.702L45.717,13.642L45.693,13.603L45.812,13.474L45.909,13.446L45.991,13.497L46.066,13.603ZM28.478,90.589L28.611,90.556L28.718,90.636L28.609,90.798L28.525,90.845L27.454,91.219L27.311,91.149L27.104,91.034L27.137,90.813L27.334,90.639L27.597,90.538L27.916,90.508L28.381,90.588L28.478,90.589ZM21.731,84.042L21.881,84.058L21.935,84.204L21.841,84.380L21.595,84.550L21.065,84.806L20.593,84.857L20.462,84.988L20.188,85.029L20.147,84.857L20.378,84.530L21.074,84.037L21.200,83.913L21.452,83.925L21.549,83.948L21.654,84.055L21.731,84.042ZM30.773,57.179L30.818,57.158L30.874,57.183L30.854,57.359L30.608,57.432L28.999,56.682L28.553,56.359L28.693,56.157L29.015,56.149L29.360,56.409L29.525,56.414L29.857,56.344L30.115,56.383L30.464,56.521L30.568,56.688L30.448,56.855L30.458,57.008L30.773,57.179Z" fill="currentColor" stroke="currentColor" stroke-width="1" stroke-linejoin="round"/>
</svg>