<svg xmlns="http://www.w3.org/2000/svg" viewBox="0 0 100 100" role="img" aria-label="Iran">
  <title>Iran</title>
  <path d="M8.693,10.103L8.705,10.119L8.772,10.154L8.790,10.164L8.890,10.182L8.997,10.184L8.983,10.210L8.965,10.226L9.063,10.290L9.119,10.409L9.259,10.940L9.316,11.051L9.414,11.130L9.375,11.198L9.392,11.237L9.511,11.316L9.536,11.321L9.586,11.319L9.623,11.328L9.639,11.350L9.649,11.375L9.666,11.394L9.834,11.500L9.859,11.528L9.875,11.568L9.913,11.625L9.960,11.677L10.003,11.700L10.041,11.753L10.126,11.928L10.154,11.986L10.194,12.039L10.226,12.099L10.275,12.374L10.305,12.457L10.427,12.422L10.913,12.570L10.925,12.560L10.957,12.540L10.999,12.524L11.043,12.529L11.056,12.564L11.044,12.616L11.043,12.663L11.089,12.683L11.154,12.695L11.216,12.731L11.243,12.790L11.202,12.872L11.234,12.928L11.274,12.956L11.317,12.980L11.361,13.023L11.380,13.066L11.417,13.185L11.441,13.232L11.485,13.262L11.596,13.308L11.619,13.345L11.608,13.402L11.589,13.448L11.575,13.495L11.584,13.554L11.638,13.613L11.737,13.674L11.843,13.723L11.898,13.736L11.972,13.754L12.068,13.806L12.090,13.811L12.125,13.818L12.254,13.822L12.520,13.882L12.935,13.886L13.174,13.973L13.281,14.011L14.263,14.203L14.572,14.332L14.842,14.395L14.888,14.389L15.199,14.351L15.280,14.315L15.523,14.152L15.613,14.112L15.675,14.099L15.856,14.092L15.969,14.058L16.018,14.052L16.082,14.065L16.567,14.266L16.651,14.287L16.735,14.283L16.836,14.245L16.912,14.201L16.984,14.146L17.048,14.080L17.102,14.001L17.233,13.750L17.295,13.675L17.380,13.609L17.651,13.482L17.727,13.414L17.806,13.247L17.862,13.165L17.898,13.137L17.975,13.099L18.013,13.071L18.039,13.037L18.159,12.845L18.222,12.778L18.293,12.723L18.294,12.723L18.371,12.690L18.445,12.688L18.575,12.741L18.645,12.759L18.701,12.749L18.980,12.604L19.012,12.587L19.061,12.534L19.085,12.493L19.164,12.284L19.332,12.036L19.348,11.981L19.393,11.933L19.617,11.808L20.081,11.641L20.135,11.613L20.275,11.540L20.429,11.395L20.430,11.394L20.662,11.120L20.814,11.003L21.009,10.904L21.335,10.802L21.440,10.791L21.500,10.754L21.747,10.524L21.831,10.481L22.391,10.192L22.592,10.005L22.664,9.937L22.754,9.879L22.865,9.852L23.220,9.858L23.277,9.845L23.326,9.804L23.380,9.730L23.382,9.731L23.446,9.746L23.536,9.802L23.822,10.046L24.605,10.908L24.924,11.179L25.056,11.344L25.159,11.544L25.110,11.558L24.989,11.594L24.744,11.746L24.452,11.800L24.295,11.874L24.160,11.993L24.074,12.150L24.065,12.340L24.128,12.488L24.242,12.636L24.507,12.873L24.774,12.975L24.844,13.038L24.984,13.316L25.009,13.386L25.007,13.463L24.985,13.537L24.984,13.540L24.948,13.611L24.906,13.670L24.905,13.670L24.905,13.671L24.713,13.781L23.852,13.922L23.836,13.957L23.837,13.999L23.823,14.035L23.579,14.174L23.536,14.237L23.547,14.464L23.639,14.622L23.942,14.846L24.560,15.129L24.618,15.175L24.631,15.220L24.653,15.301L24.633,15.409L24.642,15.502L24.868,15.670L24.941,15.771L25.026,15.845L25.169,15.848L25.405,15.745L25.515,15.745L25.568,15.865L25.601,16.011L25.661,16.086L25.736,16.150L25.812,16.261L25.891,16.341L25.960,16.432L26.076,16.568L26.137,16.639L26.264,16.838L26.413,16.972L26.437,16.974L26.652,16.991L26.764,16.961L26.890,16.911L27.008,16.842L27.100,16.755L27.205,16.703L27.354,16.704L27.655,16.762L27.669,17.247L27.616,17.409L27.648,17.527L27.658,17.818L27.746,18.022L27.811,18.698L28.004,19.342L27.967,19.448L27.962,19.573L27.982,19.693L28.018,19.778L28.183,20.029L28.184,20.086L28.170,20.135L28.163,20.175L28.211,20.392L28.309,20.600L28.545,20.933L28.859,21.239L29.199,21.469L29.951,21.838L30.300,21.949L32.093,22.177L32.285,22.149L32.444,22.088L32.594,22.062L32.761,22.143L32.716,22.150L32.665,22.136L32.638,22.132L32.602,22.177L32.990,22.319L33.597,22.451L33.815,22.531L33.963,22.664L33.944,22.863L33.985,22.940L34.046,23.139L34.088,23.219L34.156,23.318L34.266,23.617L34.406,23.835L34.568,23.983L34.905,24.223L35.136,24.488L35.206,24.528L35.297,24.553L35.812,24.884L35.909,24.906L35.974,24.934L36.112,25.075L36.181,25.132L36.916,25.512L37.587,25.965L37.978,26.134L39.280,26.379L40.111,26.609L40.973,26.757L41.803,26.986L42.666,26.877L43.433,26.609L44.234,26.421L45.065,26.270L45.860,26.115L46.659,25.889L47.429,25.663L48.976,25.334L49.185,25.301L51.019,25.202L51.354,25.125L51.582,24.943L51.571,25.153L51.307,25.241L50.975,25.280L50.762,25.343L50.704,25.371L50.637,25.361L50.512,25.324L50.442,25.334L50.313,25.382L50.241,25.396L49.968,25.361L49.729,25.361L49.766,25.423L49.831,25.444L49.984,25.437L49.891,25.467L49.854,25.471L49.967,25.614L50.157,25.694L50.882,25.756L50.955,25.795L51.035,25.821L51.618,25.670L51.674,25.625L51.705,25.533L51.708,24.963L51.682,24.868L51.614,24.830L51.525,24.797L51.538,24.716L51.645,24.528L51.534,24.365L51.460,24.162L51.356,23.696L51.214,23.335L51.193,23.257L51.149,22.789L52.421,22.894L52.514,22.889L52.598,22.855L52.684,22.777L52.771,22.722L52.872,22.717L52.980,22.731L53.083,22.731L53.249,22.679L54.038,22.247L54.143,22.232L54.427,22.290L54.530,22.289L54.600,22.258L54.715,22.141L54.807,22.106L54.865,22.055L55.087,21.917L55.205,21.824L55.226,21.784L55.241,21.700L55.305,21.561L55.319,21.482L55.325,21.350L55.319,21.311L55.298,21.275L55.243,21.228L55.226,21.198L55.222,21.082L55.298,20.910L55.319,20.800L55.345,20.713L55.405,20.621L55.545,20.478L56.245,20.026L56.463,19.797L56.500,19.740L56.524,19.665L56.580,19.636L56.646,19.625L56.696,19.607L56.730,19.565L56.781,19.464L56.821,19.422L56.911,19.394L57.180,19.346L57.238,19.325L57.280,19.237L57.381,19.184L57.594,19.117L57.647,19.110L57.743,19.037L57.839,18.991L58.186,18.740L58.299,18.697L58.595,18.685L59.517,18.504L59.656,18.504L59.945,18.564L60.127,18.662L60.195,18.684L60.433,18.686L60.511,18.709L60.638,18.772L60.703,18.792L60.775,18.795L61.442,18.682L61.630,18.704L61.653,18.713L61.798,18.769L61.873,18.779L62.273,18.716L62.346,18.665L62.393,18.578L62.409,18.475L62.387,18.380L62.260,18.243L62.290,18.168L62.584,17.914L62.741,17.811L62.910,17.750L63.338,17.737L63.417,17.756L63.482,17.793L63.541,17.836L63.604,17.864L63.679,17.851L64.053,17.698L64.276,17.662L64.321,17.670L64.503,17.809L64.663,17.895L64.735,17.917L65.437,18.039L65.622,18.111L65.717,18.125L65.801,18.081L65.866,18.027L66.017,17.933L66.072,17.877L66.166,17.725L66.180,17.710L66.221,17.669L66.302,17.632L66.353,17.626L66.404,17.632L66.504,17.664L66.555,17.695L66.568,17.731L66.570,17.772L66.590,17.821L66.698,17.991L66.782,18.182L66.836,18.259L66.989,18.413L67.043,18.579L67.143,18.711L67.166,18.808L67.154,18.900L67.062,19.192L67.180,19.338L67.851,19.588L67.925,19.578L67.998,19.558L68.077,19.546L68.155,19.555L68.392,19.620L68.620,19.615L68.690,19.598L68.760,19.599L68.822,19.636L68.881,19.683L68.941,19.719L68.963,19.721L68.980,19.722L69.056,19.706L69.095,19.715L69.127,19.745L69.170,19.829L69.197,19.863L69.267,19.890L69.344,19.884L69.422,19.867L69.498,19.862L69.659,19.903L70.390,20.232L70.698,20.300L70.855,20.313L70.930,20.329L71.009,20.365L71.044,20.402L71.045,20.441L71.035,20.480L71.038,20.523L71.112,20.652L71.129,20.693L71.141,20.794L71.141,20.870L71.164,20.933L71.243,20.995L71.323,21.024L71.686,21.075L71.745,21.101L71.868,21.184L71.933,21.200L72.355,21.161L72.436,21.124L72.498,21.033L72.541,20.941L72.597,20.863L72.669,20.814L72.761,20.807L72.837,20.844L73.071,21.039L73.272,21.117L73.378,21.132L73.483,21.122L73.523,21.098L73.553,21.066L73.586,21.040L73.639,21.040L73.738,21.058L73.786,21.054L73.835,21.039L73.897,20.966L73.909,20.884L73.934,20.845L74.214,20.992L74.576,21.070L74.760,21.150L74.825,21.194L74.887,21.213L75.023,21.233L75.074,21.260L75.227,21.408L75.849,21.830L75.948,21.839L76.210,21.726L76.317,21.753L76.411,21.837L76.501,21.954L76.523,22.027L76.508,22.150L76.536,22.210L76.549,22.256L76.530,22.305L76.501,22.360L76.486,22.421L76.497,22.537L76.588,22.918L76.643,22.993L76.935,23.223L77.022,23.315L77.050,23.352L77.044,23.379L77.027,23.398L77.020,23.413L77.015,23.450L77.001,23.496L77.014,23.535L77.091,23.554L77.121,23.584L77.159,23.612L77.198,23.631L77.237,23.633L77.385,23.578L77.454,23.589L77.532,23.669L77.565,23.755L77.587,23.859L77.619,23.951L77.682,23.997L77.726,23.989L77.759,23.955L77.814,23.874L77.857,23.852L77.907,23.855L78.578,24.062L78.884,24.307L79.055,24.402L79.438,24.467L79.613,24.539L79.752,24.715L79.926,25.068L80.142,25.381L80.636,25.953L80.734,26.104L80.869,26.443L80.965,26.604L81.119,26.685L81.861,26.673L82.512,26.662L83.507,26.644L84.060,26.635L84.538,26.627L84.769,26.666L84.959,26.690L84.997,26.878L85.035,26.963L85.053,27.014L85.060,27.083L85.054,27.151L85.035,27.213L85.010,27.266L84.981,27.308L84.961,27.366L84.969,27.433L84.997,27.516L84.897,27.960L84.870,28.231L84.936,28.389L84.921,28.411L84.914,28.427L84.901,28.465L84.946,28.483L84.983,28.512L85.012,28.545L85.032,28.578L85.050,28.636L85.058,28.693L85.060,28.822L85.076,28.875L85.144,28.983L85.214,29.326L85.226,29.493L85.233,29.521L85.224,29.555L85.175,29.617L85.152,29.655L85.138,29.704L85.129,29.758L85.127,29.809L85.110,29.868L85.070,29.896L85.026,29.913L84.997,29.939L84.983,30.006L85.000,30.117L84.997,30.168L84.940,30.227L84.845,30.302L84.791,30.367L84.855,30.395L84.969,30.412L85.064,30.461L85.145,30.533L85.220,30.621L85.268,30.697L85.310,30.790L85.339,30.888L85.360,31.086L85.377,31.169L85.380,31.258L85.350,31.382L85.380,31.423L85.381,31.477L85.350,31.608L85.347,31.639L85.350,31.737L85.336,31.775L85.272,31.836L85.254,31.869L85.266,32.016L85.330,32.141L85.443,32.311L85.477,32.362L85.526,32.588L85.538,32.700L85.509,32.815L85.447,32.919L85.337,33.048L85.286,33.154L85.245,33.327L85.220,33.384L85.122,33.511L85.095,33.572L85.073,33.686L85.095,33.970L85.058,34.068L84.968,34.118L84.857,34.136L84.758,34.138L84.691,34.192L84.663,34.309L84.660,34.427L84.663,34.481L84.689,34.505L84.712,34.558L84.710,34.611L84.663,34.635L84.635,34.660L84.659,34.715L84.825,34.932L84.838,34.955L84.829,35.018L84.816,35.067L84.823,35.113L84.873,35.163L84.760,35.317L84.726,35.396L84.698,35.624L84.630,35.832L84.615,35.939L84.600,35.992L84.534,36.096L84.519,36.165L84.524,36.222L84.545,36.325L84.548,36.373L84.528,36.568L84.491,36.750L84.348,36.797L84.321,36.888L84.231,37.047L84.083,37.159L83.999,37.255L83.993,37.386L84.009,37.528L83.990,37.663L83.941,37.726L83.887,37.739L83.826,37.734L83.761,37.744L83.698,37.779L83.668,37.816L83.644,37.860L83.433,38.096L83.342,38.157L83.226,38.189L82.970,38.223L82.854,38.281L82.786,38.397L82.835,38.404L82.875,38.426L82.905,38.464L82.945,38.596L82.987,38.635L83.101,38.686L83.157,38.736L83.202,38.800L83.276,38.944L83.622,39.385L83.675,39.488L83.328,39.508L82.854,39.537L82.525,39.556L82.557,39.673L82.484,39.751L82.262,39.867L82.099,40.034L81.952,40.221L81.821,40.482L81.793,40.729L81.801,40.802L81.852,41.281L81.985,42.125L81.975,42.342L81.831,42.662L81.794,42.843L81.910,43.246L82.204,43.526L82.580,43.680L82.945,43.708L83.288,43.689L83.468,43.703L83.625,43.742L83.697,43.783L83.775,43.853L83.817,43.933L83.812,43.941L83.776,44.002L83.707,44.027L83.486,44.042L83.403,44.096L83.390,44.176L83.406,44.268L83.415,44.363L83.389,44.473L83.340,44.536L83.188,44.630L83.053,44.749L82.876,44.988L82.649,45.293L82.395,45.633L82.170,45.936L82.141,46.014L82.148,46.450L82.216,46.803L82.350,47.256L82.508,47.791L82.670,48.342L82.842,48.924L83.031,49.563L83.236,50.329L83.395,50.920L83.385,51.370L83.322,51.809L83.294,51.901L83.173,52.060L83.136,52.144L83.152,52.178L83.191,52.201L83.219,52.232L83.179,52.354L83.188,52.411L83.212,52.465L83.230,52.524L83.238,52.644L83.203,52.985L83.214,53.252L83.278,53.764L83.219,54.172L83.230,54.301L83.300,54.568L83.355,55.085L83.510,55.151L83.981,55.221L84.762,55.337L84.769,55.338L85.560,55.455L86.474,55.591L87.012,55.670L87.268,55.708L87.388,55.756L87.480,55.830L87.646,56.045L87.679,56.147L87.646,56.384L87.648,56.494L87.694,56.607L87.818,56.817L87.858,56.941L87.866,57.103L87.877,57.160L87.959,57.336L88.016,57.516L88.038,57.626L88.039,57.734L88.005,57.851L87.916,58.030L87.937,58.095L87.954,58.472L87.926,58.488L87.915,58.527L87.908,58.626L87.914,58.632L87.926,58.662L87.846,58.748L87.461,59.222L86.872,59.949L86.338,60.609L85.959,61.074L85.455,61.692L85.191,62.016L84.806,62.488L84.085,63.371L84.084,63.372L83.730,63.799L83.460,64.123L83.837,64.582L84.083,64.883L84.388,65.259L84.739,65.692L85.104,66.143L85.487,66.617L85.578,66.694L85.677,66.734L85.759,66.795L85.801,66.934L85.793,67.042L85.737,67.236L85.737,67.344L85.782,67.457L85.930,67.626L85.990,67.721L86.004,67.783L86.017,67.921L86.041,67.984L86.091,68.042L86.133,68.058L86.176,68.063L86.226,68.091L86.274,68.170L86.299,68.264L86.334,68.344L86.414,68.379L86.460,68.417L86.473,68.464L86.457,68.515L86.414,68.562L86.381,68.598L86.368,68.632L86.378,68.664L86.414,68.693L86.475,68.721L86.527,68.764L86.568,68.821L86.765,69.292L86.792,69.399L86.803,69.492L86.827,69.575L86.961,69.731L87.095,70.035L87.230,70.208L87.711,70.663L87.905,70.924L88.201,71.211L88.348,71.388L88.434,71.437L88.713,71.519L88.936,71.653L89.077,71.699L89.387,71.726L89.535,71.760L89.923,71.941L90.539,72.071L90.669,72.142L90.723,72.208L90.763,72.282L90.810,72.349L90.886,72.394L90.964,72.420L91.012,72.453L91.045,72.509L91.075,72.605L91.143,72.724L91.437,73.058L91.531,73.120L92.294,72.958L92.398,73.024L92.421,73.217L92.352,73.784L92.278,74.412L92.364,74.794L92.486,75.325L92.514,75.653L92.553,76.100L92.576,76.377L92.621,76.886L92.646,77.174L92.618,77.404L92.373,77.985L92.464,78.102L92.487,78.162L92.479,78.251L92.457,78.331L92.429,78.392L92.383,78.429L92.309,78.434L92.510,78.623L92.580,78.664L92.617,78.663L92.681,78.623L92.714,78.617L92.752,78.630L92.861,78.694L93.008,78.728L93.135,78.721L93.407,78.664L93.528,78.644L93.772,78.564L93.896,78.558L93.973,78.566L94.033,78.564L94.288,78.479L94.336,78.480L94.394,78.502L94.514,78.619L94.567,78.654L94.682,78.698L94.725,78.727L94.775,78.784L94.841,78.888L95.000,79.259L94.920,79.226L94.818,79.227L94.726,79.269L94.675,79.358L94.658,79.413L94.608,79.488L94.589,79.544L94.582,79.609L94.605,80.232L94.647,80.336L94.706,80.426L94.745,80.515L94.730,80.616L94.660,80.683L94.470,80.715L94.394,80.758L94.360,80.845L94.323,81.647L94.273,81.867L94.169,81.976L94.122,81.974L94.085,81.954L94.052,81.928L94.012,81.909L93.967,81.904L93.831,81.937L93.647,81.931L93.465,81.902L93.044,81.890L92.679,81.881L92.361,81.872L92.310,81.888L92.275,81.938L92.227,82.033L92.195,82.058L92.161,82.078L92.120,82.094L91.976,82.129L91.936,82.126L91.884,82.099L91.834,82.088L91.794,82.114L91.757,82.155L91.719,82.188L91.623,82.223L90.843,82.311L90.799,82.324L90.762,82.355L90.724,82.427L90.697,82.453L90.649,82.466L90.551,82.461L90.507,82.466L90.468,82.485L90.408,82.531L90.370,82.555L90.279,82.593L90.238,82.620L90.209,82.662L90.200,82.710L90.214,82.747L90.232,82.778L90.237,82.812L90.188,82.908L90.042,83.061L90.009,83.130L90.034,83.256L90.080,83.358L90.084,83.436L89.983,83.493L89.808,83.467L89.601,83.389L89.425,83.364L89.346,83.499L89.329,83.634L89.287,83.691L89.094,83.726L88.998,83.757L88.912,83.803L88.744,83.921L88.182,84.091L88.069,84.185L88.001,84.334L87.962,84.505L87.919,84.841L87.882,85.138L87.837,85.482L87.778,85.941L87.729,86.327L87.703,86.424L87.632,86.516L87.552,86.536L87.461,86.534L87.363,86.559L87.264,86.705L87.287,86.908L87.339,87.126L87.326,87.317L87.296,87.360L87.228,87.433L87.200,87.486L87.184,87.565L87.165,87.888L87.137,88.361L87.104,88.910L87.076,89.376L86.928,89.836L86.899,89.756L86.889,89.663L86.807,89.600L86.793,89.566L86.771,89.549L86.725,89.581L86.712,89.613L86.705,89.702L86.691,89.735L86.716,89.762L86.763,89.820L86.789,89.845L86.689,89.833L86.614,89.800L86.537,89.799L86.436,89.883L86.546,89.921L86.591,89.948L86.630,89.996L86.604,90.049L86.532,90.150L86.510,90.209L86.510,90.238L86.505,90.260L86.468,90.297L86.401,90.336L86.147,90.417L86.214,90.468L86.105,90.624L85.321,90.335L85.049,90.272L85.050,90.181L84.980,90.044L84.328,89.794L83.564,89.657L82.916,89.492L82.477,89.434L82.400,89.389L82.472,89.317L82.359,89.143L82.344,89.069L82.343,88.759L82.328,88.711L82.159,88.530L82.086,88.484L82.004,88.473L81.921,88.482L81.601,88.588L81.521,88.635L81.477,88.710L81.404,88.805L81.366,88.866L81.365,88.902L81.380,88.937L81.398,89.049L81.421,89.064L81.453,89.068L81.504,89.095L81.544,89.094L81.564,89.108L81.583,89.143L81.632,89.200L81.581,89.192L81.580,89.204L81.715,89.279L81.702,89.349L81.648,89.335L81.498,89.268L81.308,89.184L81.214,89.127L81.012,89.131L80.877,89.012L80.921,88.924L80.941,88.903L80.873,88.869L80.788,88.856L80.619,88.865L80.490,88.892L80.463,88.903L80.421,88.953L80.421,88.986L80.433,89.013L80.531,89.084L80.499,89.187L80.372,89.186L80.278,89.119L80.227,89.101L80.068,89.076L80.031,89.046L79.980,88.975L79.906,88.931L79.735,88.943L79.498,88.982L79.248,88.992L79.075,89.131L78.879,89.058L78.684,88.858L78.474,88.799L77.935,88.835L77.724,88.833L77.370,88.745L77.148,88.503L76.978,88.403L76.714,88.457L76.163,88.552L76.032,88.574L75.772,88.617L75.507,88.752L75.408,88.775L75.369,88.767L75.334,88.731L75.300,88.708L75.260,88.718L75.217,88.740L75.174,88.752L75.067,88.746L74.974,88.726L74.896,88.690L74.835,88.635L74.620,88.266L74.505,88.117L74.323,88.028L74.161,88.032L74.117,88.009L74.088,87.957L74.072,87.902L74.047,87.858L73.993,87.840L73.594,87.840L72.747,87.674L72.457,87.724L72.207,87.705L72.119,87.661L72.153,87.573L72.016,87.582L71.867,87.614L71.804,87.649L71.696,87.745L71.626,87.764L71.594,87.750L71.578,87.728L71.555,87.729L71.500,87.783L71.463,87.812L71.415,87.828L71.374,87.822L71.357,87.783L71.330,87.797L71.166,87.919L70.994,87.948L70.842,87.916L70.695,87.866L70.540,87.840L70.415,87.777L70.312,87.629L70.173,87.312L70.028,87.124L69.851,87.079L69.659,87.133L69.470,87.237L69.311,87.375L69.209,87.443L69.135,87.442L69.155,87.199L69.173,87.136L69.185,87.108L69.188,87.088L69.181,87.045L69.133,86.918L69.060,86.851L68.963,86.823L68.846,86.819L68.741,86.830L68.483,86.894L68.426,86.882L68.329,86.830L68.275,86.819L68.221,86.824L68.129,86.850L68.081,86.856L67.965,86.846L67.647,86.739L67.682,86.705L67.058,86.661L66.990,86.622L66.957,86.536L66.930,86.265L66.817,85.985L66.759,85.762L66.720,85.656L66.673,85.612L66.666,85.591L66.562,85.457L66.541,85.453L66.482,85.464L66.463,85.457L66.455,85.434L66.442,85.369L66.379,85.171L66.360,85.079L66.315,84.972L66.305,84.906L66.334,84.791L66.479,84.622L66.530,84.512L66.466,84.335L66.158,83.973L66.183,83.826L66.148,83.792L66.121,83.542L66.088,83.418L66.037,83.319L65.947,83.226L65.925,83.185L65.912,83.136L65.895,83.010L65.893,82.959L65.973,82.270L65.957,82.012L65.654,80.730L65.590,80.631L65.432,80.485L65.375,80.398L65.381,80.309L65.238,80.208L65.190,80.155L65.258,80.160L65.309,80.138L65.356,80.107L65.413,80.080L65.374,80.042L65.368,79.990L65.384,79.936L65.413,79.891L65.270,79.956L65.222,79.966L65.179,79.955L65.152,79.929L65.132,79.903L65.110,79.891L65.086,79.872L65.061,79.835L65.029,79.813L64.938,79.861L64.910,79.842L64.899,79.796L64.901,79.740L64.841,79.755L64.809,79.726L64.811,79.685L64.855,79.665L64.877,79.645L64.959,79.552L65.000,79.517L65.000,79.476L64.863,79.456L64.751,79.376L64.676,79.261L64.646,79.137L64.592,79.193L64.533,79.215L64.406,79.216L64.336,79.192L64.293,79.138L64.258,79.085L64.214,79.062L63.730,79.055L63.625,79.020L63.593,79.062L63.480,78.995L63.340,78.964L63.049,78.948L62.911,78.920L62.666,78.817L62.521,78.794L62.233,78.811L62.086,78.851L61.978,78.929L61.879,78.980L61.575,78.994L61.452,79.020L61.414,79.047L61.336,79.129L61.321,79.155L61.311,79.214L61.286,79.232L61.250,79.240L61.210,79.269L61.130,79.341L60.816,79.541L60.704,79.642L60.702,79.665L60.677,79.682L60.592,79.760L60.542,79.778L60.334,79.804L60.141,79.853L60.091,79.859L59.935,79.853L59.884,79.865L59.815,79.917L59.774,79.929L59.600,79.929L59.453,79.892L59.406,79.891L59.318,79.933L59.161,80.087L59.102,80.121L59.051,80.163L58.798,80.460L58.865,80.437L58.894,80.420L58.928,80.385L58.947,80.520L58.919,80.685L58.864,80.842L58.798,80.954L58.646,81.097L58.470,81.191L58.275,81.233L58.066,81.221L57.690,81.083L57.476,81.053L57.299,81.142L57.244,81.247L57.218,81.346L57.173,81.418L57.060,81.447L56.969,81.458L56.764,81.522L56.695,81.557L56.390,81.846L56.339,81.881L55.890,82.267L55.384,82.581L55.352,82.611L55.323,82.647L55.288,82.678L55.239,82.692L55.181,82.680L55.102,82.631L55.046,82.619L54.646,82.657L54.442,82.623L54.362,82.497L54.305,82.337L54.168,82.201L53.960,82.158L53.536,82.175L53.367,82.088L53.283,81.946L53.214,81.769L53.126,81.600L52.988,81.481L52.889,81.461L52.795,81.477L52.706,81.504L52.350,81.530L52.253,81.519L51.932,81.420L51.852,81.406L51.802,81.389L51.712,81.314L51.674,81.293L51.625,81.291L51.529,81.312L51.222,81.465L51.008,81.496L50.818,81.553L50.716,81.557L50.508,81.485L50.394,81.475L50.285,81.538L50.228,81.517L49.984,81.293L49.634,81.074L49.181,80.712L49.114,80.625L49.087,80.517L49.076,80.254L49.039,80.144L48.960,80.042L48.811,79.943L47.225,79.372L47.123,79.363L47.023,79.333L46.961,79.259L46.911,79.171L46.853,79.096L46.575,79.022L46.532,78.967L46.492,78.847L46.396,78.786L46.182,78.718L45.807,78.362L45.641,78.243L45.392,78.127L45.031,77.958L44.935,77.851L44.927,77.738L44.971,77.668L45.049,77.632L45.146,77.622L45.234,77.625L45.335,77.613L45.393,77.559L45.351,77.430L45.277,77.362L45.088,77.286L45.017,77.224L44.980,77.158L44.905,76.977L44.874,76.921L44.523,76.542L44.370,76.414L44.200,76.336L43.369,76.144L43.193,76.051L42.643,75.515L42.472,75.393L42.280,75.309L42.058,75.277L41.734,75.319L41.660,75.294L41.573,75.236L41.406,75.248L41.226,75.293L40.935,75.351L40.751,75.320L40.348,75.232L40.293,75.217L40.270,75.181L40.264,75.129L40.248,75.087L40.224,75.061L40.079,75.038L39.879,74.975L39.780,74.863L39.673,74.675L39.561,74.599L39.525,74.754L39.429,74.762L39.338,74.432L39.246,74.294L39.175,74.094L38.999,73.793L38.919,73.714L38.823,73.609L38.800,73.498L38.903,73.201L38.895,73.054L38.800,72.891L38.637,72.737L38.580,72.665L38.415,72.398L38.262,72.228L38.226,72.171L37.942,71.436L37.903,71.263L37.899,70.559L37.839,70.321L37.735,70.118L37.616,69.971L37.466,69.875L37.269,69.827L37.080,69.816L36.988,69.790L36.948,69.731L36.913,69.622L36.693,69.333L36.655,69.229L36.627,69.077L36.645,68.940L36.741,68.881L36.832,68.914L36.924,68.994L37.001,69.094L37.046,69.186L37.095,69.141L37.089,69.101L37.068,69.055L37.075,68.994L37.108,68.954L37.202,68.867L37.234,68.809L37.250,68.688L37.239,68.560L37.193,68.481L37.107,68.504L37.068,68.344L37.036,68.287L36.979,68.237L36.951,68.243L36.908,68.267L36.870,68.280L36.853,68.255L36.847,68.162L36.838,68.116L36.821,68.086L36.709,68.066L36.345,68.089L36.261,68.105L36.137,68.180L36.007,68.164L35.905,68.070L35.863,67.916L35.854,67.782L35.867,67.715L35.909,67.648L35.942,67.574L35.972,67.482L36.015,67.441L36.086,67.520L36.106,67.294L36.117,67.256L36.073,67.240L36.043,67.207L35.987,67.102L36.020,66.966L36.018,66.751L35.994,66.532L35.958,66.382L35.897,66.268L35.806,66.139L35.735,66.104L35.733,66.269L35.705,66.208L35.573,66.001L35.327,65.792L35.287,65.720L35.255,65.625L35.182,65.519L35.029,65.360L34.754,65.246L34.711,65.189L34.682,65.079L34.614,64.974L34.488,64.829L34.364,64.643L34.152,64.243L34.040,64.075L33.953,63.996L33.760,63.874L33.578,63.682L33.562,63.657L33.548,63.590L33.544,63.489L33.528,63.430L33.601,63.421L33.618,63.389L33.591,63.349L33.528,63.317L33.578,63.130L33.471,62.817L33.498,62.673L33.433,62.620L33.360,62.519L33.298,62.407L33.273,62.317L33.245,62.259L33.177,62.210L33.139,62.195L33.015,62.145L32.848,62.125L32.675,62.152L32.505,62.213L31.042,63.173L30.873,63.247L30.722,63.213L30.591,63.016L30.580,62.926L30.578,62.677L30.541,62.581L30.508,62.531L30.496,62.501L30.478,62.478L30.428,62.447L30.382,62.427L30.338,62.416L30.237,62.409L30.188,62.415L30.087,62.441L30.031,62.447L29.979,62.435L29.912,62.383L29.872,62.372L29.776,62.388L29.602,62.464L29.506,62.484L29.384,62.475L29.340,62.428L29.346,62.200L29.332,62.183L29.268,62.136L29.248,62.104L29.246,62.074L29.248,61.991L29.255,61.949L29.275,61.914L29.272,61.879L29.216,61.840L29.189,61.934L29.140,62.027L29.073,62.092L28.993,62.104L28.909,62.050L28.869,61.979L28.819,61.924L28.738,61.916L28.630,61.877L28.322,61.692L28.258,61.631L28.227,61.453L28.145,61.342L28.023,61.277L27.873,61.237L27.923,61.146L28.001,61.125L28.192,61.158L28.291,61.153L28.445,61.099L28.530,61.086L28.625,61.110L28.816,61.213L28.882,61.237L28.985,61.247L29.064,61.281L29.127,61.339L29.187,61.425L29.214,61.351L29.303,61.190L29.440,61.010L29.467,60.951L29.471,60.856L29.375,60.876L29.305,60.830L29.262,60.745L29.226,60.543L29.171,60.569L29.098,60.650L29.025,60.705L29.032,60.635L29.039,60.616L29.057,60.592L29.018,60.530L28.979,60.540L28.931,60.576L28.866,60.592L28.838,60.572L28.786,60.496L28.754,60.479L28.725,60.485L28.681,60.511L28.658,60.517L28.564,60.502L28.480,60.477L28.401,60.472L28.322,60.517L28.155,60.492L28.022,60.577L27.988,60.690L28.114,60.747L28.262,60.777L28.378,60.853L28.415,60.951L28.322,61.048L28.243,61.047L27.991,61.011L27.937,61.028L27.682,61.271L27.664,61.296L27.623,61.362L27.599,61.431L27.652,61.480L27.633,61.520L27.603,61.564L27.587,61.593L27.621,61.712L27.703,61.797L27.797,61.870L27.873,61.957L27.913,62.055L27.943,62.179L27.969,62.428L27.960,62.497L27.919,62.611L27.905,62.673L27.908,62.732L27.935,62.837L27.937,62.899L27.908,63.008L27.846,63.107L27.762,63.177L27.666,63.204L27.350,63.166L27.268,63.204L27.178,63.161L26.852,63.163L26.654,63.051L26.578,63.034L26.566,63.129L26.588,63.195L26.651,63.299L26.664,63.376L26.650,63.430L26.616,63.478L26.574,63.517L26.534,63.544L26.427,63.577L26.085,63.544L26.085,63.506L26.060,63.539L26.055,63.553L26.022,63.538L25.878,63.496L25.808,63.452L25.744,63.400L25.713,63.368L25.692,63.332L25.650,63.224L25.640,63.152L25.555,62.878L25.543,62.868L25.516,62.811L25.423,62.703L25.365,62.575L25.356,62.537L25.366,62.476L25.402,62.430L25.447,62.388L25.481,62.341L25.493,62.282L25.484,62.222L25.461,62.166L25.430,62.119L25.249,61.949L25.099,61.774L25.004,61.612L24.961,61.574L24.904,61.554L24.845,61.551L24.675,61.581L24.618,61.583L24.564,61.574L24.512,61.551L24.474,61.510L24.454,61.457L24.416,61.214L24.374,61.094L24.314,60.985L24.236,60.899L24.188,60.868L24.136,60.850L23.642,60.778L23.635,60.609L23.651,57.948L23.636,57.877L23.586,57.847L22.054,57.846L22.071,56.511L22.082,55.565L22.793,53.610L22.820,53.485L22.807,53.367L22.743,53.269L22.560,53.129L22.485,53.045L22.468,53.003L22.444,52.907L22.418,52.857L22.382,52.823L22.298,52.768L22.266,52.723L22.099,52.422L22.078,52.325L22.078,52.324L22.032,52.226L21.869,52.146L21.797,52.063L21.691,51.823L21.622,51.723L21.612,51.708L21.522,51.671L21.451,51.662L21.410,51.614L21.372,51.558L21.312,51.520L21.239,51.498L21.208,51.474L21.203,51.430L21.213,51.353L21.231,51.293L21.259,51.244L21.284,51.191L21.291,51.114L21.267,51.042L21.176,50.973L21.151,50.902L21.105,50.880L21.076,50.848L20.993,50.734L20.976,50.703L20.954,50.673L20.815,50.540L20.793,50.508L20.762,50.433L20.763,50.406L20.782,50.385L20.823,50.282L20.849,50.252L20.865,50.216L20.858,50.152L20.832,50.111L20.708,50.016L20.629,49.916L20.577,49.830L20.518,49.761L20.418,49.709L20.154,49.618L20.088,49.613L19.875,49.732L19.792,49.763L19.628,49.781L19.481,49.748L19.339,49.674L19.190,49.564L19.190,49.564L19.189,49.564L17.786,48.339L17.592,48.119L17.287,47.935L17.073,47.762L17.055,47.752L16.620,47.501L16.489,47.369L16.025,47.149L15.530,46.996L14.980,47.057L14.707,47.024L14.608,46.803L14.608,46.802L14.665,46.735L14.743,46.672L14.812,46.601L14.843,46.507L14.816,46.431L14.749,46.371L14.661,46.334L14.457,46.311L14.391,46.255L14.396,46.188L14.490,46.136L14.592,46.127L14.670,46.133L14.746,46.118L14.844,46.044L14.970,45.920L15.034,45.842L15.068,45.771L15.065,45.721L15.011,45.687L14.990,45.636L14.993,45.591L15.021,45.485L15.020,45.428L14.979,45.335L14.914,45.269L14.765,45.150L14.580,44.889L14.424,44.740L14.400,44.659L14.397,44.567L14.383,44.455L14.345,44.351L14.292,44.255L14.136,44.061L14.121,44.051L14.107,44.042L14.089,44.033L14.084,44.030L14.060,44.025L14.036,44.029L14.013,44.042L13.927,44.124L13.786,44.141L13.648,44.109L13.568,44.042L13.640,43.947L13.861,43.813L13.919,43.730L13.886,43.607L13.787,43.540L13.705,43.457L13.723,43.288L13.622,43.312L13.396,43.316L13.311,43.352L13.175,43.481L13.099,43.531L13.017,43.552L12.985,43.513L12.987,43.317L12.971,43.276L12.955,43.233L12.735,43.077L12.664,43.007L12.601,42.918L12.554,42.828L12.521,42.730L12.501,42.618L12.468,42.527L12.407,42.460L12.335,42.401L12.272,42.332L11.858,41.588L11.849,41.580L11.839,41.576L11.827,41.574L11.689,41.595L11.568,41.587L11.462,41.528L11.366,41.395L11.466,41.351L11.511,41.320L11.550,41.281L11.551,41.281L11.551,41.280L11.622,41.127L11.661,40.986L11.713,40.864L11.827,40.765L11.896,40.693L12.084,40.541L12.131,40.479L12.131,40.417L12.105,40.370L12.070,40.322L12.048,40.259L12.057,40.208L12.123,40.104L12.146,40.054L12.208,39.788L12.218,39.652L12.192,39.526L12.121,39.418L12.024,39.358L11.920,39.358L11.827,39.432L11.741,39.369L11.681,39.250L11.537,38.795L11.582,38.723L11.827,38.669L11.861,38.639L11.891,38.604L11.918,38.564L11.940,38.520L11.946,38.357L11.908,38.133L11.927,37.982L12.109,38.034L12.269,38.116L12.413,38.150L12.733,38.175L12.836,38.211L12.863,38.205L12.882,38.169L12.895,38.110L12.896,38.051L12.882,38.015L12.830,37.944L12.815,37.850L12.813,37.746L12.799,37.642L12.779,37.603L12.755,37.576L12.733,37.543L12.718,37.484L12.702,37.439L12.667,37.399L12.626,37.367L12.587,37.346L12.518,37.268L12.553,37.179L12.683,37.034L12.697,36.971L12.687,36.859L12.701,36.793L12.747,36.730L12.806,36.706L12.939,36.693L13.068,36.605L13.091,36.470L13.082,36.330L13.113,36.224L13.221,36.219L13.305,36.262L13.360,36.291L13.486,36.333L13.556,36.241L13.592,36.106L13.632,36.005L13.644,35.901L13.601,35.759L13.601,35.758L13.587,35.682L13.588,35.609L13.611,35.546L13.660,35.498L13.691,35.488L13.756,35.482L13.784,35.468L13.794,35.442L13.781,35.374L13.786,35.348L13.850,35.245L13.883,35.232L13.952,35.255L14.050,35.317L14.098,35.336L14.158,35.332L14.298,35.390L14.372,35.372L14.440,35.310L14.565,35.236L14.612,35.231L14.696,35.253L14.814,35.215L14.872,35.203L14.922,35.177L14.959,35.110L14.863,35.001L14.925,34.845L15.026,34.678L15.044,34.532L14.974,34.475L14.793,34.477L14.728,34.433L14.715,34.346L14.757,34.276L14.815,34.209L14.839,34.153L14.849,34.130L14.815,33.968L14.704,33.843L14.446,33.620L14.148,33.157L14.087,32.998L14.085,32.947L14.097,32.902L14.121,32.866L14.158,32.838L14.177,32.816L14.183,32.794L14.176,32.771L14.158,32.747L14.106,32.642L14.065,32.531L14.086,32.525L14.109,32.525L14.251,32.567L14.264,32.491L14.219,32.278L14.219,32.187L14.236,32.091L14.272,32.003L14.332,31.940L14.428,31.907L14.754,31.917L14.850,31.896L15.083,31.776L15.267,31.786L15.364,31.775L15.437,31.708L15.500,31.617L15.642,31.530L15.716,31.466L15.770,31.376L15.780,31.289L15.745,31.215L15.667,31.162L15.567,31.152L15.483,31.192L15.404,31.246L15.315,31.277L15.117,31.319L15.017,31.322L14.923,31.284L14.885,31.253L14.857,31.223L14.837,31.185L14.814,31.072L14.791,31.052L14.757,31.047L14.614,30.994L14.537,30.993L14.461,31.020L14.371,31.070L14.278,31.099L13.981,31.086L13.831,31.136L13.783,31.131L13.735,31.116L13.688,31.114L13.575,31.207L13.484,31.251L13.389,31.257L13.313,31.207L13.261,31.197L13.085,31.248L13.001,31.225L12.944,31.152L12.825,30.868L12.608,30.573L12.469,30.450L12.343,30.427L12.282,30.391L12.110,30.237L11.930,30.174L11.827,30.138L11.705,30.140L11.551,30.214L11.468,30.236L11.467,30.237L11.466,30.237L11.465,30.237L11.373,30.298L11.269,30.332L11.169,30.318L11.087,30.237L11.086,30.237L11.086,30.237L11.086,30.236L11.055,30.147L11.083,30.033L11.140,29.919L11.197,29.832L11.217,29.721L11.157,29.609L11.013,29.429L10.989,29.313L11.001,29.058L10.979,28.952L10.911,28.888L10.824,28.822L10.798,28.756L10.911,28.686L10.823,28.579L10.791,28.483L10.779,28.245L10.757,28.117L10.706,27.979L10.624,27.880L10.506,27.871L10.245,27.971L10.109,27.981L9.983,27.924L9.930,27.866L9.912,27.816L9.905,27.761L9.882,27.689L9.845,27.636L9.805,27.600L9.775,27.554L9.771,27.476L9.711,27.414L9.637,27.353L9.620,27.340L9.553,27.257L9.562,27.169L9.583,27.155L9.641,27.134L9.655,27.123L9.659,27.007L9.709,26.818L9.799,26.618L9.807,26.515L9.757,26.396L9.644,26.197L9.575,26.108L9.497,26.068L9.436,26.066L9.382,26.049L9.334,26.017L9.291,25.968L9.232,25.919L9.165,25.908L9.020,25.916L8.899,25.890L8.806,25.831L8.769,25.735L8.820,25.598L8.985,25.405L9.049,25.307L9.074,25.174L9.052,25.050L9.009,24.960L8.983,24.862L9.009,24.715L9.060,24.654L9.068,24.594L9.037,24.544L8.935,24.493L8.882,24.438L8.850,24.421L8.805,24.423L8.713,24.450L8.669,24.441L8.648,24.414L8.624,24.330L8.606,24.294L8.572,24.270L8.537,24.260L8.504,24.246L8.477,24.209L8.440,24.111L8.439,24.057L8.502,23.898L8.531,23.791L8.502,23.698L8.459,23.604L8.444,23.492L8.476,23.394L8.534,23.347L8.599,23.311L8.653,23.244L8.668,23.065L8.562,22.949L8.294,22.786L8.255,22.711L8.227,22.633L8.185,22.583L8.015,22.607L7.971,22.561L7.906,22.403L7.834,22.352L7.661,22.336L7.598,22.303L7.569,22.212L7.631,22.048L7.613,21.954L7.613,21.953L7.588,21.841L7.597,21.704L7.627,21.567L7.669,21.456L7.651,21.362L7.546,21.287L7.452,21.187L7.473,21.020L7.511,20.971L7.673,20.849L7.720,20.777L7.710,20.725L7.539,20.529L7.422,20.434L7.292,20.378L7.165,20.391L7.106,20.423L7.031,20.448L6.965,20.441L6.931,20.379L6.934,20.346L6.953,20.257L6.950,20.230L6.914,20.204L6.884,20.210L6.852,20.221L6.816,20.210L6.764,20.147L6.738,20.079L6.720,20.015L6.693,19.965L6.642,19.931L6.475,19.855L6.419,19.839L6.117,19.872L5.955,19.848L5.873,19.727L5.886,19.685L5.893,19.665L5.941,19.609L5.982,19.549L5.978,19.479L5.955,19.402L5.963,19.331L5.992,19.264L6.031,19.193L6.032,19.192L6.075,19.113L6.187,18.993L6.228,18.909L6.267,18.793L6.310,18.723L6.371,18.677L6.461,18.636L6.487,18.602L6.449,18.498L6.456,18.450L6.494,18.419L6.577,18.386L6.612,18.342L6.642,18.262L6.671,18.153L6.687,18.046L6.667,17.781L6.798,17.642L6.967,17.519L7.071,17.378L7.069,17.291L7.034,17.204L6.976,17.129L6.910,17.077L6.838,17.051L6.778,17.062L6.625,17.145L6.392,17.106L6.323,17.076L6.280,17.048L6.267,17.000L6.282,16.909L6.285,16.858L6.271,16.718L6.271,16.653L6.330,16.431L6.336,16.336L6.293,16.055L6.314,15.837L6.315,15.722L6.282,15.631L6.248,15.595L6.212,15.573L6.128,15.548L6.070,15.520L6.084,15.486L6.125,15.448L6.145,15.408L6.122,15.308L6.099,15.242L6.090,15.173L6.109,15.062L6.235,14.662L6.213,14.500L5.966,14.391L5.890,14.323L5.826,14.240L5.782,14.116L5.761,14.074L5.746,14.032L5.748,13.986L5.745,13.936L5.710,13.902L5.667,13.871L5.639,13.832L5.620,13.747L5.605,13.709L5.580,13.671L5.580,13.670L5.646,13.567L5.721,13.509L5.766,13.444L5.723,13.226L5.746,13.138L5.839,12.971L5.801,12.835L5.621,12.717L5.413,12.617L5.293,12.532L5.288,12.484L5.320,12.384L5.316,12.335L5.260,12.226L5.244,12.178L5.242,12.129L5.253,12.093L5.254,12.051L5.199,11.942L5.172,11.825L5.152,11.773L5.151,11.770L5.028,11.637L5.000,11.571L5.052,11.504L5.147,11.449L5.217,11.426L5.290,11.424L5.393,11.436L5.501,11.425L5.754,11.364L5.865,11.375L6.187,11.522L6.306,11.531L6.408,11.509L6.650,11.408L6.739,11.347L6.818,11.238L6.820,11.138L6.804,11.033L6.827,10.910L6.827,10.910L6.874,10.845L6.877,10.779L6.861,10.708L6.852,10.630L6.861,10.539L6.882,10.465L7.036,10.180L7.064,10.109L7.067,10.088L7.076,10.022L7.052,9.842L7.073,9.779L7.568,9.407L7.683,9.376L7.755,9.422L7.881,9.596L7.945,9.663L8.223,9.781L8.314,9.852L8.693,10.103ZM54.005,83.720L54.037,83.736L54.064,83.758L54.086,83.788L54.103,83.826L54.005,84.039L53.980,84.044L53.926,84.026L53.871,83.996L53.846,83.963L53.840,83.891L53.829,83.835L53.827,83.784L53.846,83.720L53.875,83.677L53.914,83.656L53.959,83.666L54.005,83.720ZM51.723,82.732L51.379,82.712L51.343,82.710L51.193,82.632L51.098,82.469L51.145,82.391L51.214,82.337L51.297,82.309L51.387,82.315L51.466,82.343L51.639,82.362L51.705,82.390L51.714,82.414L51.718,82.426L51.718,82.426L51.716,82.476L51.717,82.482L51.721,82.521L51.722,82.521L51.755,82.541L51.775,82.559L51.787,82.570L51.791,82.602L51.796,82.637L51.785,82.670L51.775,82.703L51.723,82.732ZM48.368,81.012L48.284,81.063L48.194,81.063L47.928,81.014L47.846,80.977L47.836,80.971L47.774,80.928L47.628,80.799L47.586,80.747L47.604,80.724L47.637,80.715L47.675,80.701L47.719,80.698L48.113,80.826L48.462,80.853L48.571,80.899L48.632,80.958L48.670,80.995L48.603,81.014L48.424,80.998L48.368,81.012ZM62.378,80.822L62.399,80.675L62.466,80.574L62.584,80.516L62.760,80.498L62.783,80.668L62.643,80.798L62.465,80.859L62.378,80.822ZM61.866,79.891L61.958,79.914L62.077,79.970L62.151,80.030L62.178,80.052L62.216,80.155L62.140,80.200L62.065,80.245L61.778,80.324L61.675,80.422L61.569,80.669L61.515,80.765L61.322,80.974L61.292,81.048L61.252,81.093L61.075,81.188L61.035,81.238L60.995,81.265L60.765,81.500L60.629,81.585L60.521,81.536L60.419,81.427L60.300,81.327L59.989,81.497L59.902,81.576L59.816,81.628L59.716,81.627L59.504,81.594L59.409,81.617L59.310,81.666L59.059,81.857L58.798,81.975L58.640,82.098L58.558,82.145L58.270,82.179L58.066,82.239L57.979,82.297L57.936,82.315L57.936,82.315L57.922,82.312L57.897,82.306L57.844,82.288L57.797,82.288L57.777,82.335L57.755,82.372L57.704,82.402L57.648,82.421L57.605,82.428L57.604,82.428L57.585,82.413L57.568,82.401L57.544,82.337L57.522,82.201L57.553,82.104L57.562,82.041L57.538,82.012L57.490,81.841L57.541,81.784L57.761,81.866L57.811,81.841L57.840,81.850L57.854,81.854L57.854,81.854L58.101,81.708L58.724,81.493L58.814,81.481L58.873,81.457L58.890,81.450L58.890,81.450L59.106,81.310L59.199,81.230L59.504,81.104L59.552,81.101L59.649,81.109L59.695,81.104L59.729,81.089L59.778,81.046L59.823,81.029L59.809,80.992L59.788,80.954L59.859,80.867L59.876,80.764L59.855,80.517L59.818,80.422L59.738,80.342L59.661,80.278L59.629,80.234L59.747,80.161L60.399,80.422L60.575,80.378L61.067,80.042L61.683,79.894L61.866,79.891ZM63.081,79.322L63.130,79.356L63.184,79.378L63.228,79.416L63.230,79.427L63.246,79.497L63.229,79.567L63.185,79.618L63.151,79.636L63.122,79.651L63.049,79.665L62.901,79.604L62.912,79.465L62.999,79.340L63.081,79.322ZM34.329,67.364L34.413,67.403L34.463,67.434L34.442,67.529L34.456,67.625L34.425,67.708L34.379,67.716L34.333,67.672L34.287,67.551L34.257,67.442L34.224,67.377L34.278,67.342L34.329,67.364ZM54.099,85.836L54.123,85.884L54.131,85.983L54.084,86.020L54.021,86.004L53.946,85.967L53.928,85.906L53.989,85.871L54.099,85.836ZM60.383,81.678L60.419,81.736L60.428,81.866L60.361,81.985L60.266,82.044L60.191,82.000L60.202,81.873L60.262,81.749L60.337,81.687L60.383,81.678ZM49.870,81.626L49.925,81.653L49.962,81.736L49.902,81.801L49.820,81.789L49.739,81.745L49.692,81.677L49.729,81.617L49.822,81.613L49.870,81.626ZM56.440,86.061L56.446,86.114L56.467,86.178L56.430,86.212L56.392,86.216L56.366,86.233L56.321,86.187L56.299,86.205L56.302,86.171L56.286,86.138L56.270,86.084L56.337,86.044L56.417,86.021L56.440,86.061Z" fill="currentColor" stroke="currentColor" stroke-width="1" stroke-linejoin="round"/>
</svg>