<svg xmlns="http://www.w3.org/2000/svg" viewBox="0 0 100 100" role="img" aria-label="Iraq">
  <title>Iraq</title>
  <path d="M59.957,7.529L59.834,7.841L59.835,7.947L59.907,8.138L59.961,8.211L60.025,8.239L60.093,8.259L60.158,8.305L60.193,8.376L60.239,8.541L60.281,8.594L60.365,8.612L60.544,8.559L60.631,8.555L60.695,8.589L60.798,8.696L60.995,8.796L61.055,8.893L61.040,9.011L60.941,9.130L60.890,9.419L60.942,9.611L61.025,9.787L61.068,10.030L61.019,10.291L60.894,10.484L60.573,10.863L60.476,11.130L60.547,11.319L60.727,11.434L60.963,11.486L61.244,11.471L61.375,11.492L61.488,11.587L61.572,11.683L61.665,11.747L61.771,11.780L61.889,11.783L62.041,11.862L62.175,12.037L62.395,12.426L62.491,12.660L62.477,12.862L62.301,13.254L62.204,13.624L62.195,13.852L62.168,13.873L62.056,13.915L62.015,13.942L61.997,14.114L62.129,14.277L62.161,14.304L62.305,14.423L62.421,14.544L62.429,14.697L62.487,14.786L62.565,14.859L62.638,14.963L62.681,15.103L62.696,15.210L62.730,15.308L62.834,15.423L63.079,15.535L63.343,15.514L63.850,15.319L64.080,15.335L64.239,15.529L64.336,15.801L64.380,16.052L64.403,16.518L64.466,16.707L64.636,16.917L64.417,17.054L64.468,17.184L64.637,17.312L64.769,17.438L64.811,17.646L64.788,18.145L64.834,18.373L65.115,18.727L65.230,18.945L65.193,19.162L65.081,19.334L64.970,19.557L64.917,19.780L64.976,19.955L64.976,19.956L64.977,19.957L64.978,19.958L65.138,20.117L65.332,20.143L65.534,20.077L65.712,19.958L65.715,19.957L65.716,19.957L65.718,19.955L65.879,19.912L66.179,19.767L66.416,19.763L66.617,19.834L66.966,19.958L67.301,20.258L67.418,20.330L67.664,20.375L67.934,20.616L68.354,21.193L68.585,21.752L68.697,21.895L68.860,21.939L69.201,21.839L69.303,21.859L69.450,21.957L69.636,21.944L69.811,21.860L70.031,21.677L70.123,21.681L70.216,21.710L70.310,21.719L70.601,21.621L71.178,21.647L71.359,21.590L71.534,21.492L71.680,21.439L71.830,21.441L72.109,21.545L72.175,21.555L72.219,21.594L72.264,21.815L72.302,21.890L72.358,21.950L72.432,22.009L72.614,22.085L72.808,22.078L73.193,21.996L73.365,21.935L73.520,21.830L73.682,21.752L73.877,21.771L74.028,21.875L74.096,22.020L74.077,22.190L73.972,22.367L73.828,22.493L73.553,22.663L73.429,22.841L73.288,22.973L73.099,22.994L72.743,22.974L72.289,23.209L72.103,23.251L71.469,23.232L71.282,23.296L71.167,23.420L71.096,23.592L71.064,23.781L71.063,23.960L71.151,24.376L71.126,24.525L70.850,24.443L70.806,24.443L70.765,24.454L70.843,24.673L70.945,24.879L70.980,24.924L70.993,24.970L70.981,25.014L70.945,25.057L70.873,25.111L70.826,25.182L70.803,25.270L70.807,25.370L70.925,25.682L71.504,26.589L72.005,27.026L72.221,27.271L72.287,27.590L72.268,27.634L72.221,27.744L72.108,27.875L72.028,28.013L72.052,28.183L72.178,28.270L72.529,28.266L72.666,28.379L72.632,28.664L72.436,28.992L72.314,29.297L72.501,29.512L72.429,29.643L72.332,29.694L72.220,29.716L71.989,29.791L71.827,29.749L71.736,29.758L71.493,29.902L71.360,30.024L71.216,30.061L70.945,29.945L70.828,29.954L70.735,29.916L70.544,29.795L70.410,29.750L70.347,29.775L70.222,29.977L70.212,30.028L70.238,30.161L70.219,30.212L70.165,30.240L70.037,30.252L69.978,30.272L69.882,30.365L69.838,30.490L69.836,30.633L69.862,30.781L69.862,30.782L69.946,31.063L69.922,31.266L69.845,31.464L69.776,31.729L69.639,31.909L69.394,31.826L69.287,31.770L69.125,31.685L68.915,31.695L68.855,31.903L68.873,32.178L68.827,32.442L68.576,32.614L68.318,32.641L68.203,32.688L68.115,32.811L68.086,32.940L68.107,33.159L68.079,33.283L67.827,33.568L67.758,33.743L67.893,33.894L67.968,33.936L68.049,33.998L68.115,34.077L68.147,34.165L68.175,34.280L68.220,34.346L68.266,34.399L68.304,34.475L68.332,34.679L68.336,34.883L68.365,35.067L68.467,35.207L68.493,35.278L68.491,35.393L68.467,35.509L68.430,35.579L68.376,35.590L68.176,35.520L67.554,35.472L67.274,35.405L66.963,35.243L66.610,35.141L66.573,35.438L66.648,35.876L66.635,36.197L66.592,36.283L66.541,36.361L66.482,36.429L66.416,36.488L65.941,36.594L65.853,36.736L66.133,37.627L66.249,37.861L66.416,37.984L66.597,37.840L66.799,37.839L66.986,37.957L67.125,38.170L67.175,38.415L67.157,38.682L67.036,39.203L66.991,39.301L66.864,39.506L66.846,39.606L66.889,39.729L66.956,39.823L67.008,39.916L67.008,40.037L66.915,40.159L66.549,40.457L66.416,40.598L66.195,40.791L66.093,41.031L66.017,41.308L65.879,41.608L65.879,41.610L65.877,41.610L65.802,41.686L65.714,41.746L65.520,41.834L65.708,42.095L65.913,42.210L66.149,42.225L66.416,42.184L66.439,42.188L66.458,42.196L66.475,42.212L67.281,43.670L67.403,43.805L67.543,43.921L67.661,44.052L67.726,44.232L67.765,44.451L67.828,44.642L67.919,44.818L68.042,44.994L68.180,45.131L68.607,45.437L68.639,45.521L68.669,45.601L68.667,45.985L68.729,46.061L68.887,46.022L69.036,45.923L69.299,45.669L69.464,45.599L69.904,45.592L70.100,45.543L70.065,45.876L70.225,46.039L70.417,46.171L70.480,46.410L70.369,46.573L69.939,46.836L69.798,47.022L69.953,47.155L70.222,47.218L70.496,47.183L70.664,47.023L70.709,46.998L70.754,46.989L70.800,46.998L70.811,47.004L70.845,47.023L70.874,47.039L70.901,47.061L71.206,47.441L71.309,47.628L71.382,47.832L71.409,48.052L71.414,48.233L71.461,48.391L71.765,48.684L72.125,49.195L72.413,49.428L72.540,49.557L72.620,49.740L72.622,49.851L72.567,50.059L72.561,50.148L72.602,50.248L72.706,50.315L72.712,50.413L72.647,50.552L72.523,50.704L72.279,50.948L72.088,51.093L71.941,51.122L71.789,51.110L71.590,51.128L71.407,51.230L71.399,51.362L71.525,51.471L71.923,51.517L72.093,51.590L72.224,51.707L72.276,51.855L72.215,52.039L72.081,52.179L71.930,52.302L71.819,52.434L71.819,52.436L72.012,52.869L72.542,52.934L73.610,52.813L74.572,53.113L75.475,53.546L75.728,53.804L76.573,54.296L76.608,54.316L77.024,54.655L77.617,55.016L77.993,55.447L80.720,57.848L80.722,57.848L80.722,57.849L81.011,58.064L81.287,58.210L81.573,58.274L81.892,58.239L82.052,58.178L82.467,57.946L82.594,57.954L83.107,58.132L83.301,58.235L83.416,58.371L83.518,58.538L83.670,58.735L83.912,58.922L83.963,59.001L83.977,59.126L83.944,59.197L83.893,59.257L83.814,59.458L83.777,59.499L83.776,59.553L83.836,59.699L83.878,59.761L84.148,60.022L84.191,60.082L84.225,60.142L84.385,60.367L84.443,60.429L84.531,60.473L84.580,60.610L84.756,60.747L84.803,60.887L84.789,61.038L84.741,61.143L84.687,61.238L84.652,61.356L84.633,61.507L84.641,61.593L84.703,61.641L84.845,61.683L84.962,61.758L85.035,61.868L85.115,61.961L85.252,61.979L85.427,62.052L85.447,62.081L85.580,62.277L85.787,62.749L85.926,62.910L86.242,63.067L86.332,63.259L86.332,63.261L86.374,63.452L86.698,64.043L86.760,64.129L86.924,64.239L86.993,64.304L87.044,64.402L87.090,64.592L87.123,64.673L87.268,64.838L87.625,65.112L87.749,65.306L87.775,65.535L87.721,65.781L86.341,69.613L86.318,71.468L86.286,74.087L89.263,74.087L89.360,74.147L89.389,74.286L89.358,79.502L89.372,79.834L90.330,79.975L90.432,80.011L90.525,80.072L90.677,80.241L90.793,80.453L90.874,80.689L90.949,81.166L90.989,81.270L91.061,81.349L91.162,81.395L91.268,81.412L91.378,81.408L91.709,81.350L91.824,81.356L91.933,81.394L92.018,81.469L92.202,81.787L92.493,82.130L92.845,82.464L92.904,82.555L92.951,82.666L92.968,82.782L92.945,82.898L92.879,82.991L92.792,83.072L92.720,83.162L92.701,83.283L92.719,83.358L92.832,83.609L93.013,83.821L93.064,83.932L93.089,83.951L93.254,84.489L93.273,84.630L93.353,84.841L93.395,84.912L93.454,84.974L93.580,85.077L93.715,85.162L93.995,85.245L94.059,85.275L94.056,85.281L94.056,85.331L94.275,85.327L94.314,85.435L94.202,85.563L93.964,85.626L92.979,85.523L92.287,85.274L91.962,85.024L91.646,84.922L91.144,84.591L90.750,84.450L90.328,84.369L89.940,84.362L89.595,84.457L88.968,84.812L88.904,84.528L88.873,84.200L88.811,83.900L88.658,83.697L88.770,84.049L88.782,84.182L88.760,84.322L88.721,84.453L88.714,84.569L88.782,84.665L88.778,84.921L86.816,83.898L86.297,83.793L83.957,83.793L83.436,83.859L81.976,84.486L81.502,84.820L81.192,85.280L80.421,87.323L80.090,87.967L80.043,88.123L80.008,88.450L79.986,88.559L79.809,88.966L79.132,90.134L78.863,90.870L78.729,91.082L78.148,91.748L77.581,92.745L76.219,94.339L75.956,94.647L75.559,94.735L75.163,94.824L75.004,94.859L74.767,94.912L74.371,95.000L73.417,94.910L72.726,94.845L72.036,94.779L71.347,94.714L70.656,94.648L69.728,94.560L68.800,94.472L67.871,94.384L66.943,94.296L66.015,94.209L65.086,94.120L64.158,94.033L63.230,93.944L62.508,93.876L61.788,93.808L61.067,93.740L60.344,93.671L59.516,93.593L59.456,93.569L59.400,93.545L59.342,93.521L59.284,93.498L58.587,92.911L57.725,92.183L56.861,91.455L55.997,90.727L55.134,89.999L54.097,89.124L53.059,88.249L52.022,87.375L51.423,86.870L50.984,86.500L49.947,85.625L48.908,84.750L47.870,83.876L46.833,83.001L46.034,82.328L45.236,81.655L44.439,80.983L43.640,80.309L42.682,79.502L42.682,79.501L42.681,79.501L42.680,79.500L41.998,78.890L41.821,78.732L40.963,77.963L40.105,77.195L39.247,76.426L38.481,75.744L37.716,75.063L36.951,74.381L36.185,73.700L35.585,73.164L34.777,72.673L33.983,72.189L33.187,71.705L32.393,71.221L31.599,70.737L30.804,70.253L30.009,69.769L29.215,69.285L28.421,68.801L27.625,68.317L26.831,67.833L26.037,67.349L25.242,66.865L24.448,66.381L23.653,65.897L22.858,65.414L22.064,64.930L21.132,64.362L20.628,64.062L20.140,63.868L17.051,63.263L17.050,63.262L17.049,63.262L17.047,63.262L16.320,63.136L14.530,62.824L12.740,62.512L10.949,62.200L9.157,61.888L9.132,61.896L9.106,61.905L9.080,61.914L9.054,61.923L9.052,61.839L10.142,60.897L10.373,60.554L10.184,59.824L10.050,59.492L9.864,59.381L8.148,59.862L8.056,59.809L7.989,59.647L7.547,58.090L7.535,58.073L7.531,58.059L7.535,58.051L7.547,58.047L8.246,57.825L7.637,55.562L7.210,53.973L6.797,52.436L6.483,51.284L6.107,49.895L5.686,48.350L6.687,47.750L7.689,47.151L8.691,46.550L9.692,45.951L10.694,45.351L11.696,44.751L12.697,44.151L13.699,43.552L14.700,42.952L15.702,42.353L16.703,41.753L17.705,41.154L18.354,40.765L18.707,40.553L19.708,39.954L20.710,39.354L21.712,38.754L23.040,37.958L25.264,37.367L25.529,37.196L25.735,36.908L26.061,36.197L26.061,36.195L27.616,33.227L27.694,32.960L27.714,32.676L27.638,30.785L27.586,29.000L27.579,28.748L27.667,28.089L28.046,26.752L28.125,25.695L28.209,25.370L28.209,25.370L28.210,25.370L28.210,25.368L28.638,24.741L28.943,24.292L29.087,23.965L29.136,23.626L29.098,22.137L29.055,21.781L28.957,21.434L28.256,19.955L28.256,19.954L28.255,19.955L28.023,19.427L27.988,19.240L27.987,19.059L28.279,16.342L28.353,16.052L29.152,14.545L29.152,14.544L29.153,14.544L29.153,14.543L29.335,14.302L29.602,14.183L30.189,14.088L32.999,13.512L33.247,13.399L33.487,13.203L34.707,11.950L36.518,10.091L37.452,9.131L37.455,9.130L37.455,9.129L38.034,8.601L38.315,8.394L38.318,8.392L38.315,8.235L38.264,8.113L38.195,8.003L38.137,7.875L38.542,7.830L39.060,7.666L39.840,7.540L39.985,7.478L40.016,7.419L40.128,7.125L41.263,5.543L41.298,5.458L41.309,5.383L41.328,5.307L41.384,5.219L41.443,5.180L41.890,5.006L41.971,5.000L42.080,5.013L42.158,5.069L42.198,5.256L42.275,5.311L43.024,5.548L43.389,5.599L43.775,5.473L44.006,5.306L44.353,5.165L44.718,5.072L44.999,5.047L45.155,5.089L46.345,5.702L46.408,5.723L46.483,5.734L46.564,5.718L46.648,5.636L46.728,5.601L46.896,5.577L47.004,5.598L47.243,5.775L47.366,5.866L47.734,6.043L48.156,6.373L48.304,6.431L48.420,6.416L48.643,6.334L48.756,6.317L48.873,6.334L48.947,6.372L49.112,6.492L49.342,6.581L49.560,6.608L50.489,6.547L50.725,6.568L50.940,6.620L51.030,6.680L51.224,6.862L51.291,6.903L51.405,6.874L51.568,6.715L52.054,6.630L52.330,6.325L52.599,5.953L52.930,5.682L53.340,5.620L53.643,5.669L53.815,5.697L54.688,6.043L54.891,6.169L55.039,6.315L55.146,6.502L55.223,6.750L55.269,6.988L55.278,7.123L55.267,7.229L55.192,7.355L55.102,7.395L54.999,7.413L54.883,7.478L54.731,7.667L54.654,7.886L54.648,8.117L54.715,8.341L55.080,9.129L55.139,9.243L55.221,9.306L55.597,9.399L55.710,9.391L55.795,9.312L55.879,9.131L55.879,9.131L55.881,9.130L55.881,9.129L56.021,8.898L56.053,8.728L56.125,8.606L56.895,8.364L57.133,8.239L57.358,8.069L57.577,7.803L57.903,7.510L58.255,7.264L58.545,7.135L58.714,7.127L59.664,7.255L59.845,7.342L59.957,7.529Z" fill="currentColor" stroke="currentColor" stroke-width="1.5" stroke-linejoin="round"/>
</svg>