<svg xmlns="http://www.w3.org/2000/svg" viewBox="0 0 100 100" role="img" aria-label="Iceland">
  <title>Iceland</title>
  <path d="M86.351,22.928L85.966,23.339L84.519,23.972L83.875,24.445L83.125,24.626L82.869,24.831L82.672,25.167L82.871,25.240L82.969,25.338L83.011,25.491L83.052,25.528L83.229,25.872L83.263,25.958L83.321,26.063L83.283,26.291L83.182,26.615L83.115,26.760L82.335,27.486L82.198,27.549L81.694,27.580L81.479,27.766L81.330,28.196L81.581,28.386L81.704,28.439L82.188,28.470L82.292,28.619L82.337,28.985L82.252,29.044L82.102,29.194L82.003,29.260L82.172,29.385L83.092,29.416L83.623,29.656L83.993,29.625L84.664,29.034L85.081,28.985L85.263,29.079L85.423,29.258L85.538,29.548L85.582,29.985L85.634,30.212L85.749,30.289L85.863,30.315L85.916,30.385L85.935,30.607L86.015,31.037L86.027,31.248L86.002,31.327L85.898,31.430L85.860,31.510L85.855,31.599L85.867,31.809L85.860,31.892L85.672,32.367L85.642,32.498L85.548,32.580L85.020,33.221L84.419,33.659L84.236,33.892L84.251,34.229L84.090,34.504L83.679,34.946L83.922,34.930L84.139,34.759L84.519,34.274L84.394,34.669L84.159,35.101L84.063,35.448L84.352,35.592L84.645,35.509L85.284,35.147L87.035,34.682L87.665,34.344L87.998,34.260L88.260,34.538L87.906,35.348L87.704,35.547L87.725,35.712L87.784,35.873L87.818,35.939L87.856,35.988L88.041,36.129L88.558,36.469L88.710,36.656L88.266,36.790L88.029,36.973L87.830,37.471L87.408,37.962L87.243,38.374L86.623,39.105L86.499,39.348L86.404,39.637L86.361,39.960L86.465,39.808L86.639,39.388L86.725,39.301L86.819,39.249L87.092,38.974L87.177,38.847L87.325,38.534L88.335,37.044L88.513,36.920L88.731,36.975L89.378,37.446L89.250,37.263L89.018,37.014L88.927,36.801L90.719,37.853L90.947,37.889L91.843,37.665L91.995,37.687L92.091,37.781L92.151,38.012L92.162,38.209L92.117,38.343L92.010,38.379L92.010,38.500L92.266,38.490L92.379,38.529L92.455,38.644L92.464,38.778L92.443,38.955L92.404,39.182L92.460,39.324L92.530,39.430L92.678,39.564L93.058,39.011L93.267,38.858L93.513,38.919L93.555,39.000L93.565,39.123L93.564,39.239L93.574,39.301L93.624,39.316L93.742,39.280L93.791,39.301L94.078,39.619L94.130,39.708L94.143,40.134L94.027,40.402L93.877,40.586L93.791,40.761L93.811,40.873L93.905,41.240L93.908,41.407L93.854,41.483L93.574,41.683L93.657,41.800L93.655,41.947L93.626,42.125L93.630,42.342L93.354,42.540L92.612,42.429L92.288,42.605L92.489,42.777L93.123,43.000L93.150,43.316L92.963,43.533L92.704,43.650L92.297,43.653L92.125,43.707L91.782,43.921L91.101,44.048L90.892,44.185L91.019,44.365L92.312,43.885L92.706,43.921L93.494,43.715L93.740,43.789L94.145,44.058L94.353,44.283L94.429,44.484L94.469,44.591L94.275,44.743L93.944,45.267L93.766,45.382L92.733,45.644L91.643,45.644L91.170,45.764L90.669,45.764L90.919,45.964L91.868,45.764L93.123,45.907L93.685,45.764L93.991,45.764L94.073,45.829L94.034,45.970L93.908,46.183L93.886,46.304L93.894,46.392L93.894,46.468L93.852,46.554L93.543,46.697L93.269,46.724L93.012,46.829L93.012,46.973L93.643,46.839L93.791,46.973L93.791,47.091L93.713,47.113L93.641,47.167L93.575,47.251L93.513,47.367L93.766,47.367L93.846,47.407L93.910,47.494L93.957,47.580L93.991,47.619L94.073,47.560L94.204,47.296L94.272,47.236L94.289,47.161L94.526,46.697L94.859,46.303L94.882,46.585L94.879,46.995L94.852,47.388L94.804,47.619L94.804,47.762L94.956,47.873L95.000,48.056L94.946,48.289L94.804,48.553L94.639,48.705L94.293,48.807L94.130,48.947L94.275,49.210L94.350,49.391L94.328,49.474L94.201,49.537L93.946,49.817L93.822,49.880L93.234,49.737L92.727,49.829L92.561,49.737L92.484,49.557L92.416,49.290L92.330,49.052L92.202,48.947L92.070,48.904L91.799,48.715L91.372,48.572L90.919,48.126L90.669,48.026L90.720,48.238L90.805,48.393L90.905,48.496L90.997,48.553L90.704,48.882L89.043,48.947L89.043,49.091L91.615,49.341L91.698,49.417L91.811,49.563L91.911,49.750L91.954,49.940L92.024,50.043L92.404,50.395L93.245,50.787L93.407,51.065L93.068,51.335L92.668,51.274L91.954,50.922L91.142,51.065L90.641,50.848L90.501,50.922L90.983,51.271L92.151,51.545L92.678,51.987L92.743,52.100L92.821,52.276L92.847,52.441L92.759,52.513L92.626,52.575L92.423,52.847L92.316,52.909L91.464,52.571L91.220,52.788L92.104,53.154L92.253,53.299L92.258,53.506L92.025,53.580L91.094,53.541L90.835,53.434L90.784,53.526L90.717,53.593L90.552,53.698L90.552,53.842L90.802,54.157L90.935,54.369L91.058,54.632L90.925,54.682L90.552,55.027L88.740,55.421L88.448,55.327L88.286,55.222L88.178,55.093L87.945,54.340L87.737,54.124L87.517,53.679L87.396,53.578L86.756,53.434L86.837,53.545L86.924,53.583L87.118,53.578L87.230,53.667L87.219,53.867L87.165,54.085L87.146,54.225L87.272,54.388L87.684,54.616L87.818,54.632L87.818,54.763L87.805,55.005L87.918,55.311L88.071,55.574L88.178,55.684L88.593,55.829L88.744,55.995L88.654,56.212L88.710,56.343L87.343,55.875L86.923,56.212L87.056,56.376L87.382,56.549L87.540,56.737L87.619,56.954L87.609,57.137L87.523,57.287L87.368,57.395L86.281,57.395L86.181,57.522L86.282,57.779L86.443,57.996L86.528,57.993L86.612,58.191L86.788,58.318L86.947,58.330L86.979,58.186L87.315,58.093L87.818,57.321L88.072,57.133L88.124,57.227L87.998,57.442L87.251,58.370L87.146,58.593L87.117,58.772L87.093,59.170L87.060,59.323L86.793,59.805L86.756,59.981L86.765,60.100L86.774,60.167L86.793,60.302L86.784,60.375L86.743,60.436L86.698,60.469L86.660,60.526L86.645,60.646L86.626,60.729L86.536,61.029L86.503,61.093L85.656,61.189L85.070,61.405L84.858,61.500L85.211,61.213L85.940,60.997L86.311,60.842L86.102,60.698L85.196,60.549L85.132,60.580L85.121,60.662L85.136,60.919L85.106,60.974L85.046,61.015L84.872,61.197L84.772,61.237L84.735,61.288L84.569,61.620L84.475,61.721L84.024,62.018L83.839,62.218L83.672,62.451L83.568,62.686L83.612,62.465L83.639,62.372L83.679,62.291L83.679,62.159L83.623,62.159L83.568,62.351L83.442,62.519L83.304,62.639L83.208,62.686L83.178,62.748L83.201,62.889L83.263,63.029L83.347,63.092L83.524,63.072L83.602,63.030L83.679,62.949L83.719,63.221L83.790,63.476L83.608,63.473L83.368,63.797L83.208,63.882L82.829,63.840L82.663,63.760L82.505,63.618L82.247,63.296L82.091,63.152L81.922,63.092L81.849,63.147L81.696,63.400L81.618,63.476L81.519,63.454L81.426,63.379L81.330,63.352L81.224,63.476L81.330,63.618L81.242,63.713L81.149,63.746L80.945,63.738L81.107,63.211L81.107,63.092L80.845,63.167L80.717,63.157L80.662,63.021L80.625,62.723L80.535,62.524L80.425,62.457L80.328,62.554L80.328,62.686L80.395,62.780L80.442,62.877L80.475,63.011L80.500,63.211L80.389,63.134L80.157,63.044L80.050,62.949L80.050,62.830L80.129,62.560L80.009,62.154L79.804,61.783L79.630,61.620L79.462,61.430L79.139,61.298L78.931,61.237L79.070,61.354L79.350,61.477L79.518,61.561L79.606,61.776L79.755,62.248L79.827,62.409L79.758,62.515L79.688,62.545L79.618,62.508L79.548,62.409L79.548,62.554L79.713,62.709L79.742,63.006L79.675,63.343L79.548,63.618L79.349,63.727L78.894,63.599L78.708,63.738L78.823,63.842L78.947,63.882L79.215,63.882L79.008,64.059L78.486,64.254L78.018,64.300L77.525,64.492L77.312,64.673L77.273,64.576L77.221,64.489L77.201,64.396L76.973,64.727L76.249,65.330L76.928,65.092L77.089,65.210L76.815,65.447L74.703,66.118L74.407,66.396L74.791,66.396L74.791,66.514L74.273,66.979L74.097,67.041L74.018,67.092L73.738,67.436L73.545,67.584L73.467,67.678L73.404,67.843L73.319,67.657L73.238,67.624L73.155,67.702L73.065,67.843L73.065,67.975L73.176,67.975L73.176,68.095L72.686,68.450L72.508,68.502L72.559,68.227L72.119,68.574L71.908,68.841L71.780,69.160L71.913,69.167L72.020,69.065L72.102,68.956L71.891,69.404L71.780,69.568L71.194,70.096L70.804,70.740L70.550,70.882L70.651,70.824L70.754,70.731L70.838,70.583L70.884,70.357L69.654,71.422L68.560,71.755L68.397,71.705L68.257,71.541L68.319,71.658L68.387,71.741L68.460,71.790L68.540,71.804L68.389,71.901L68.257,71.936L68.284,72.139L68.279,72.407L68.236,72.635L68.145,72.727L68.105,72.666L68.090,72.534L68.090,72.270L68.069,72.209L67.923,72.068L67.616,71.626L67.533,71.541L67.402,71.494L67.336,71.549L67.313,71.717L67.311,72.002L67.338,72.360L67.333,72.610L67.283,72.727L67.174,72.660L67.156,72.489L67.199,72.002L67.172,71.828L67.113,71.603L67.054,71.480L67.027,71.607L67.030,72.122L67.016,72.362L66.976,72.583L67.086,72.759L67.047,72.891L66.917,72.974L66.753,73.001L66.845,72.565L66.851,72.374L66.804,72.211L66.838,72.044L66.860,71.968L66.888,71.936L66.962,71.882L66.967,71.771L66.939,71.676L66.915,71.672L66.961,71.156L66.970,70.875L66.946,70.751L66.918,70.674L66.830,70.526L66.736,70.440L66.693,70.547L66.671,71.047L66.685,71.251L66.753,71.422L66.620,71.548L66.468,71.536L66.332,71.564L66.248,71.804L66.347,72.002L66.390,72.224L66.445,72.430L66.582,72.583L66.433,72.801L66.130,72.875L65.547,72.858L65.422,72.814L65.129,72.583L65.018,72.666L64.908,72.798L64.824,72.793L64.795,72.463L63.788,73.122L62.669,73.517L61.909,73.708L61.999,73.570L62.051,73.400L62.047,73.194L62.001,73.001L61.940,73.275L61.843,73.462L61.726,73.517L61.607,73.385L61.626,73.492L61.627,73.541L61.632,73.578L61.667,73.647L61.667,73.791L60.604,74.582L60.684,74.160L60.895,73.923L61.157,73.815L61.388,73.791L61.388,73.647L60.849,73.352L60.655,73.122L60.613,73.382L60.621,73.487L60.655,73.647L60.445,73.801L60.245,73.758L60.041,73.658L59.820,73.647L59.986,73.791L59.986,73.911L59.781,73.906L59.688,73.945L59.602,74.054L59.469,73.974L59.321,74.090L59.201,74.303L59.151,74.516L59.108,74.857L58.997,75.092L58.852,75.155L58.701,74.976L58.595,75.141L58.557,75.311L58.599,75.448L58.731,75.503L58.835,75.462L58.997,75.281L59.121,75.240L59.765,75.316L59.986,75.240L59.636,75.958L59.423,76.156L59.207,76.029L59.234,75.994L59.244,75.994L59.248,75.984L59.263,75.909L58.929,75.909L58.941,76.089L58.711,76.064L58.585,76.173L58.690,76.159L58.762,76.215L58.789,76.348L58.762,76.568L59.369,76.531L59.485,76.424L59.283,77.076L58.989,77.673L58.615,78.110L57.780,78.514L57.245,78.943L56.736,79.068L56.469,78.675L56.572,78.533L56.801,78.444L56.889,78.339L56.998,78.131L57.101,78.037L57.360,78.016L57.360,77.884L57.128,77.879L56.691,78.023L56.469,78.016L55.912,77.648L55.746,77.608L55.796,77.753L55.735,77.783L55.710,77.818L55.684,77.884L55.763,78.001L55.937,78.331L55.993,78.399L56.072,78.522L56.111,78.794L56.134,79.065L56.162,79.189L56.504,79.213L56.696,79.213L56.831,79.241L55.086,79.523L54.076,80.038L52.360,80.535L51.944,80.517L50.380,80.002L49.721,80.195L49.485,80.122L49.574,80.110L49.611,80.080L49.652,80.002L49.360,79.933L49.215,79.847L49.095,79.727L48.930,79.976L47.832,79.727L47.729,79.677L47.303,79.332L46.634,79.189L45.682,78.505L44.372,78.128L44.114,77.884L44.224,77.862L44.287,77.787L44.279,77.692L44.175,77.608L44.075,77.601L43.938,77.719L43.838,77.753L43.057,77.608L43.080,77.705L43.897,77.884L41.745,77.727L41.604,77.488L41.568,77.507L41.547,77.535L41.528,77.571L41.498,77.608L41.458,77.524L41.434,77.506L41.381,77.488L41.437,77.753L40.811,77.766L40.506,77.688L39.266,76.583L39.144,76.424L39.259,76.535L39.390,76.582L39.525,76.549L39.650,76.424L39.546,76.403L39.360,76.314L39.255,76.293L39.294,75.994L39.311,75.909L39.161,76.140L39.027,76.234L38.881,76.194L38.699,76.029L38.699,75.909L38.977,76.029L38.868,75.735L38.720,75.563L38.559,75.427L38.415,75.240L38.284,74.915L38.213,74.683L38.117,74.565L37.914,74.582L37.914,74.702L38.199,75.128L38.363,75.445L38.476,75.765L37.934,75.245L37.685,74.902L37.530,74.450L37.561,74.418L37.640,74.306L37.580,74.215L37.468,73.911L37.697,73.633L37.955,73.473L38.504,73.385L38.761,73.511L39.214,74.017L39.483,74.054L39.347,73.868L39.148,73.509L39.037,73.385L38.415,73.001L38.660,72.517L38.699,72.332L38.668,72.061L38.577,71.990L38.505,72.058L38.531,72.211L38.531,72.332L38.434,72.517L38.081,73.001L37.853,73.277L37.697,73.447L37.498,73.517L37.434,73.592L37.425,73.776L37.432,73.996L37.413,74.186L37.350,74.374L37.311,74.414L36.944,74.191L36.585,73.861L36.310,73.730L35.738,73.253L36.269,73.253L36.365,73.304L36.561,73.503L36.684,73.517L36.701,73.405L36.808,73.369L37.079,73.385L37.079,73.253L36.851,73.253L36.851,73.122L36.880,73.118L36.939,73.126L36.968,73.122L36.968,73.001L36.388,73.156L36.183,73.122L36.183,73.001L36.461,72.619L36.542,72.034L36.429,71.537L36.122,71.422L36.122,71.541L36.352,71.642L36.326,71.908L36.172,72.219L35.868,72.651L35.673,72.809L35.454,72.861L35.232,72.727L35.319,73.043L35.348,73.122L35.019,72.751L34.283,72.235L33.240,71.825L32.886,71.555L32.689,71.458L32.493,71.303L32.326,71.003L32.373,70.853L32.362,70.663L32.276,70.213L32.912,70.256L33.261,70.171L33.501,69.950L32.888,69.950L32.499,69.719L32.357,69.686L31.938,69.803L31.851,69.884L31.778,70.002L31.522,70.289L31.430,70.357L31.430,70.477L31.845,70.670L32.055,70.853L32.159,71.146L31.989,71.049L31.620,70.990L31.243,71.037L31.014,71.137L30.883,71.338L30.990,71.672L30.951,71.678L30.927,71.714L30.905,71.761L30.874,71.804L28.485,72.146L28.196,71.936L27.922,71.631L27.668,71.441L27.398,71.399L26.042,71.916L25.709,71.935L25.594,71.927L25.175,72.068L22.968,71.541L22.796,71.668L22.646,71.909L22.495,72.067L22.320,71.936L22.437,71.804L22.244,71.805L21.938,72.014L21.677,72.101L21.521,72.266L21.429,72.332L21.342,72.351L20.552,72.256L20.371,72.332L20.332,72.386L20.289,72.470L20.238,72.548L20.174,72.583L20.075,72.525L19.951,72.270L19.860,72.211L19.912,72.014L19.975,71.890L20.024,71.760L20.037,71.541L20.002,71.330L19.934,71.236L19.847,71.159L19.754,71.003L19.880,70.807L20.044,70.104L20.118,69.950L20.478,69.947L20.533,69.884L20.499,69.684L20.416,69.684L20.227,69.818L20.071,69.775L19.898,69.637L19.759,69.392L19.703,69.029L19.829,68.659L19.860,68.502L19.869,68.281L19.856,67.878L19.860,67.700L19.851,67.544L19.899,67.382L19.986,67.247L20.088,67.173L20.206,67.219L20.454,67.511L20.737,67.716L20.958,68.062L21.157,68.529L21.268,69.029L21.151,69.029L21.285,69.237L21.484,69.300L22.279,69.342L22.475,69.293L22.603,69.160L22.512,69.018L22.561,68.863L22.672,68.726L22.770,68.632L22.890,68.570L23.277,68.502L23.574,68.261L23.666,68.227L23.767,68.269L23.979,68.458L24.087,68.502L24.303,68.420L24.699,68.057L25.380,67.918L25.601,67.761L25.792,67.436L25.861,67.547L25.914,67.568L25.961,67.525L26.010,67.436L26.010,67.318L25.869,67.164L25.673,67.019L25.478,66.956L25.342,67.041L25.427,66.730L25.629,66.578L25.854,66.558L26.010,66.646L25.946,66.666L25.792,66.791L25.940,66.872L26.105,66.894L26.266,66.862L26.404,66.791L26.404,66.646L26.238,66.646L26.354,66.539L26.404,66.514L25.898,66.028L25.623,65.876L25.342,65.857L25.588,65.659L26.813,65.890L26.873,65.967L26.915,66.056L26.962,66.120L27.215,66.269L27.345,66.257L27.467,66.120L27.374,66.138L27.287,66.127L27.205,66.080L27.128,65.989L27.226,65.839L27.286,65.777L27.357,65.725L27.189,65.593L27.401,65.511L27.689,65.605L27.799,65.602L27.964,65.598L28.135,65.210L27.853,65.378L27.700,65.399L27.635,65.271L27.691,65.041L27.822,64.926L28.080,64.793L27.915,64.685L27.668,64.654L27.418,64.692L27.239,64.793L27.290,64.465L27.197,64.315L27.035,64.275L26.806,64.285L26.730,64.313L26.658,64.369L26.599,64.462L26.293,64.396L26.533,64.181L26.612,64.023L26.572,63.738L27.071,63.374L27.316,63.086L27.495,62.757L27.636,62.362L27.713,62.248L27.853,62.159L28.030,62.116L28.392,62.171L28.544,62.171L28.382,62.099L28.312,62.027L28.247,62.027L28.577,61.741L28.755,61.653L28.948,61.620L30.071,61.928L30.262,61.884L30.399,61.652L30.489,61.500L30.122,61.714L29.927,61.620L29.927,61.500L30.005,61.504L30.071,61.474L30.201,61.369L30.205,61.281L30.194,61.258L30.172,61.258L30.150,61.237L30.201,61.237L28.719,61.140L28.023,61.310L27.407,61.884L27.375,61.964L27.349,62.070L27.310,62.185L27.239,62.291L27.170,62.347L27.011,62.404L26.934,62.409L26.805,62.460L26.436,62.739L26.321,62.889L26.016,63.171L25.630,63.117L24.896,62.830L24.896,62.686L25.239,62.477L25.564,62.159L25.836,61.765L26.010,61.652L26.187,61.764L26.337,61.598L26.698,61.479L26.855,61.369L26.128,61.288L25.904,61.369L25.746,61.481L25.619,61.524L25.494,61.420L25.342,61.093L25.451,60.913L25.470,60.681L25.473,60.409L25.536,60.112L25.591,60.088L25.657,60.144L25.712,60.152L25.755,59.817L25.799,59.662L25.904,59.395L25.915,59.191L26.121,58.995L27.038,58.511L27.523,58.462L27.484,58.290L27.407,58.193L27.305,58.163L27.189,58.186L27.189,58.066L27.338,57.922L27.650,57.487L27.923,57.363L28.056,57.197L28.135,57.133L28.244,57.108L28.586,57.133L28.554,57.479L28.718,57.536L28.928,57.541L29.031,57.737L29.137,57.878L29.816,57.923L29.682,57.814L29.397,57.843L29.254,57.803L29.137,57.671L28.957,57.373L28.809,57.277L29.143,57.133L29.143,57.014L28.303,57.014L28.303,56.869L28.769,56.577L28.920,56.416L29.055,56.379L29.700,56.487L29.700,56.343L29.065,56.205L28.864,56.212L28.343,56.708L28.135,56.737L28.135,56.605L28.349,56.398L28.427,56.256L28.475,56.068L28.149,56.430L28.055,56.487L27.980,56.587L27.926,57.032L27.827,57.133L27.746,57.186L27.407,57.527L26.983,57.692L26.855,57.803L26.906,58.066L26.664,57.979L26.435,58.044L25.959,58.462L25.766,58.699L25.638,58.779L25.508,58.724L25.421,58.537L25.433,58.346L25.564,57.923L25.395,57.979L25.315,58.195L25.291,58.490L25.291,58.790L25.260,58.882L25.063,59.251L25.029,59.425L25.029,59.561L25.018,59.675L24.952,59.789L24.659,59.786L24.613,59.855L24.583,59.926L24.514,59.984L24.433,60.026L24.368,60.041L24.235,59.977L24.088,59.806L23.962,59.554L23.889,59.251L23.819,59.365L23.756,59.439L23.690,59.485L23.611,59.514L23.727,59.269L23.827,58.968L23.860,58.678L23.777,58.462L23.812,58.432L23.889,58.330L23.826,58.255L23.760,58.206L23.689,58.182L23.611,58.186L23.645,58.123L23.727,57.923L23.727,57.803L23.352,58.090L23.120,58.203L22.943,58.186L22.796,57.952L22.737,57.636L22.766,57.330L22.882,57.133L22.882,57.014L22.741,56.986L22.637,56.842L22.566,56.682L22.523,56.605L22.418,56.551L22.300,56.412L22.188,56.237L22.103,56.068L22.306,56.160L22.519,56.379L22.734,56.513L22.943,56.343L22.770,56.343L22.820,56.125L22.898,55.979L22.995,55.884L23.105,55.816L23.027,55.711L22.993,55.684L22.993,55.553L23.938,55.071L24.173,54.763L24.173,54.632L23.667,55.077L23.397,55.223L23.135,55.277L22.913,55.422L22.663,55.696L22.433,55.863L22.269,55.684L22.376,55.607L22.603,55.277L22.769,55.102L22.864,54.962L22.943,54.763L22.882,54.632L22.955,54.597L23.001,54.542L23.105,54.369L22.922,54.151L22.677,54.082L22.153,54.105L22.269,53.842L22.103,53.842L22.160,53.646L22.310,53.267L22.381,53.040L22.297,53.064L22.222,53.140L22.158,53.266L22.103,53.434L22.051,53.255L21.985,53.183L21.908,53.205L21.824,53.303L21.824,53.434L21.374,53.303L21.247,53.367L21.006,53.641L20.872,53.698L20.872,53.842L20.937,53.860L21.095,53.973L20.344,54.122L20.149,53.973L20.341,54.001L20.439,53.985L20.508,53.907L20.485,53.799L20.401,53.641L20.299,53.498L20.227,53.434L19.364,53.434L19.492,53.576L19.921,53.842L19.921,53.973L19.703,53.965L19.319,53.619L19.085,53.578L19.141,53.578L18.119,53.483L17.146,53.483L16.023,53.399L15.549,52.891L15.097,52.858L14.308,53.040L14.303,53.095L14.161,53.356L14.105,53.434L14.019,53.517L13.928,53.577L13.829,53.601L12.881,53.303L12.968,53.221L13.064,53.172L13.166,53.155L13.029,53.097L12.717,53.267L12.473,53.590L12.435,53.973L12.284,54.426L12.061,54.614L11.459,54.632L11.282,54.682L10.925,54.884L10.760,54.908L10.170,54.559L10.044,54.373L9.928,54.326L9.842,54.233L9.808,53.907L9.762,53.736L9.414,53.172L9.264,52.867L9.138,52.543L8.913,51.723L8.968,51.580L9.133,51.751L9.286,51.679L9.586,51.316L9.742,51.217L10.628,50.961L10.801,50.982L11.457,51.417L12.354,51.580L12.432,51.529L12.581,51.285L12.658,51.197L12.995,51.216L13.078,51.131L13.375,50.657L13.710,50.541L14.449,50.671L14.449,50.527L14.403,50.471L14.379,50.415L14.362,50.350L14.333,50.263L14.675,50.240L14.787,50.343L14.728,50.671L14.836,50.753L14.906,50.650L14.970,50.521L15.062,50.527L15.091,50.712L15.092,50.982L15.135,51.121L15.285,50.922L15.412,51.045L15.559,50.970L15.680,50.789L15.730,50.598L15.700,50.401L15.638,50.151L15.595,49.876L15.619,49.605L15.843,49.297L16.182,49.235L16.849,49.341L16.788,49.562L16.686,49.711L16.454,49.880L16.477,49.956L16.515,50.144L16.419,50.165L16.351,50.238L16.294,50.361L16.231,50.527L16.682,51.197L16.633,50.904L16.627,50.662L16.664,50.455L16.743,50.263L16.795,50.221L16.950,50.191L17.016,50.144L17.068,50.036L17.120,49.789L17.158,49.671L17.383,49.372L17.616,49.348L17.837,49.540L18.023,49.880L18.152,49.680L18.323,49.556L18.823,49.432L19.308,49.091L19.179,49.007L18.585,49.091L18.585,48.947L18.928,48.868L19.538,48.236L19.860,48.158L19.814,48.235L19.754,48.289L19.899,48.329L20.037,48.421L20.024,48.569L20.020,48.595L20.024,48.597L20.037,48.672L19.923,48.840L19.677,48.978L19.587,49.091L19.695,49.121L19.831,49.111L19.971,49.054L20.088,48.947L20.143,49.320L20.212,49.477L20.483,49.605L20.847,49.944L20.984,50.000L20.984,49.880L20.882,49.819L20.791,49.698L20.589,49.341L20.810,49.045L20.932,48.951L21.095,48.947L21.111,48.691L21.264,48.616L21.945,48.649L22.613,48.489L23.716,48.711L24.446,49.091L24.529,49.040L24.654,48.867L24.729,48.815L25.342,48.815L25.507,48.892L25.682,49.028L25.854,49.092L25.869,49.077L26.010,48.947L26.224,49.092L27.128,48.947L27.345,48.762L27.353,48.523L27.208,48.332L26.962,48.289L27.044,48.034L27.141,47.949L27.259,47.902L27.407,47.762L27.511,47.539L27.853,46.554L27.879,45.886L27.619,45.613L27.265,45.649L27.012,45.907L27.012,46.039L27.073,46.039L27.073,46.183L25.843,47.236L25.435,47.407L23.110,46.954L22.525,46.475L22.437,46.435L22.397,46.446L22.281,46.534L21.537,46.650L21.318,46.554L21.164,46.366L21.289,46.284L21.527,46.209L21.713,46.039L21.775,46.140L21.836,46.180L21.986,46.183L21.986,46.039L21.806,45.906L21.599,45.885L21.206,46.039L21.290,45.754L21.438,45.478L21.713,45.118L22.092,44.938L22.236,44.775L22.214,44.460L22.334,44.408L22.629,44.460L22.701,44.385L22.943,43.921L23.160,43.755L24.070,43.497L24.839,42.907L25.133,42.539L25.656,42.272L25.843,42.066L25.824,42.045L25.804,42.050L25.790,42.033L25.792,41.946L25.915,41.960L26.115,42.182L26.238,42.198L26.165,41.900L26.127,41.803L26.632,41.511L27.691,41.180L28.000,40.997L28.196,40.882L27.413,41.137L27.128,41.144L26.547,41.014L26.063,41.156L25.904,41.144L26.064,40.845L26.238,40.618L25.943,40.332L25.833,40.122L25.792,39.828L25.686,39.907L25.573,39.955L25.457,39.974L25.342,39.960L25.388,40.231L25.315,40.318L25.199,40.290L25.114,40.223L25.039,40.050L24.886,39.588L24.780,39.433L24.822,39.758L24.803,40.031L24.731,40.270L24.613,40.486L24.469,40.665L24.386,40.734L24.312,40.761L24.282,40.844L24.231,41.024L24.165,41.205L24.087,41.287L23.779,41.316L23.642,41.261L23.423,40.921L22.943,40.486L22.600,40.313L22.554,40.143L22.715,39.828L22.891,39.699L23.794,39.504L24.173,39.242L24.368,39.182L24.458,39.098L24.482,38.900L24.483,38.672L24.502,38.500L24.572,38.364L24.662,38.261L24.841,38.117L24.599,38.183L24.000,39.038L23.723,39.267L23.457,39.390L22.882,39.433L22.882,39.301L23.227,39.056L23.332,38.919L23.332,38.774L23.163,38.787L23.042,38.901L22.831,39.182L22.662,39.247L22.559,39.168L22.464,39.061L22.320,39.038L22.320,39.182L22.419,39.330L22.378,39.503L22.259,39.648L21.808,39.828L21.688,39.767L21.601,39.433L21.593,39.116L21.624,38.880L21.622,38.639L21.516,38.313L21.358,37.634L21.260,37.398L21.158,37.577L21.164,37.681L21.158,37.889L21.170,38.095L21.300,38.505L21.301,38.663L21.255,38.811L21.098,39.151L21.009,39.283L20.907,39.296L20.786,39.110L20.632,38.745L20.562,38.713L20.511,39.215L20.449,39.368L20.361,39.441L20.255,39.433L20.192,39.350L20.127,39.195L19.941,38.590L19.906,38.275L19.965,37.952L20.149,37.590L20.075,37.484L20.034,37.511L19.993,37.577L19.921,37.590L19.703,37.446L19.566,37.446L19.519,37.479L19.481,37.590L19.486,37.700L19.559,38.117L19.638,38.355L19.860,39.828L19.746,39.948L19.607,39.918L19.456,39.843L19.308,39.828L19.308,39.708L19.355,39.548L19.315,39.418L19.223,39.333L19.113,39.301L18.843,39.388L18.754,39.364L18.747,39.182L18.680,39.197L18.474,39.182L18.474,39.038L18.671,38.843L19.035,38.352L19.253,38.247L19.172,38.035L19.034,37.889L18.747,37.709L18.702,38.139L18.536,38.508L18.330,38.693L18.162,38.571L18.110,38.359L18.073,38.124L18.024,37.932L17.937,37.853L17.915,37.984L17.875,38.592L17.851,38.774L17.678,38.995L17.187,39.113L16.958,39.242L16.508,39.023L16.268,38.783L16.292,38.500L16.292,38.379L16.065,38.510L15.926,38.891L15.915,39.313L16.069,39.564L16.069,39.708L15.964,39.816L15.779,40.115L15.670,40.223L15.539,40.263L14.996,40.200L14.773,40.101L14.642,40.080L14.515,40.017L14.418,39.874L14.329,39.703L14.283,39.708L14.228,39.717L14.189,39.744L14.105,39.828L14.142,39.854L14.166,39.880L14.222,39.960L13.988,40.056L13.559,40.408L12.457,40.629L12.207,40.486L12.200,40.718L12.165,40.792L12.110,40.812L12.041,40.882L11.734,41.407L10.238,41.822L9.861,41.777L9.530,41.551L9.530,41.407L9.576,41.254L9.541,41.114L9.459,40.988L9.363,40.882L9.512,40.892L9.575,40.932L9.642,41.014L9.665,40.659L9.515,40.480L9.329,40.506L9.246,40.761L9.051,40.473L7.799,39.960L5.474,40.205L5.176,40.149L5.000,39.828L5.358,39.616L5.539,39.438L5.617,39.242L5.720,39.110L6.197,38.811L6.341,38.644L6.375,38.344L6.373,37.997L6.420,37.709L6.671,37.546L6.813,37.358L6.929,37.314L7.136,37.352L7.929,37.816L8.158,37.853L8.298,37.936L8.746,38.500L9.067,38.701L9.637,38.851L9.772,39.035L9.890,39.251L10.031,39.433L10.277,39.555L10.515,39.539L10.978,39.301L10.606,39.315L10.413,39.263L10.259,39.182L10.125,39.009L10.011,38.782L9.885,38.585L9.722,38.500L9.321,38.065L9.098,37.684L8.838,37.340L8.695,37.064L9.925,37.314L10.724,37.776L10.978,37.853L10.822,37.554L10.604,37.303L10.371,37.127L10.017,36.999L9.594,36.721L9.216,36.586L9.036,36.415L8.746,36.010L8.411,35.340L8.384,35.095L8.394,34.862L8.385,34.635L8.300,34.408L8.646,34.106L8.996,34.130L12.435,36.010L12.513,36.105L12.658,36.393L12.880,36.561L12.936,36.656L13.020,37.000L12.984,37.218L12.897,37.418L12.830,37.709L12.976,37.791L13.163,37.644L13.498,37.183L13.530,37.279L13.660,37.446L13.749,37.265L14.192,37.375L14.389,37.314L14.389,37.183L14.317,37.144L14.284,37.100L14.222,36.920L14.364,36.910L14.728,36.656L14.860,36.640L14.991,36.659L15.115,36.644L15.229,36.524L14.262,36.604L13.820,36.465L13.498,36.261L13.385,36.132L13.240,35.905L13.160,35.688L13.242,35.592L13.750,35.361L13.860,35.406L13.987,35.516L14.652,35.428L14.865,35.239L15.032,35.196L15.388,35.330L15.563,35.348L15.730,35.196L15.627,35.095L15.576,35.062L15.508,35.064L15.508,34.946L15.892,34.683L16.009,34.538L15.562,34.601L15.304,34.716L14.954,35.027L12.756,34.974L12.324,34.802L12.041,34.538L11.611,34.692L11.514,34.610L11.401,34.410L10.927,33.892L10.665,33.370L10.490,32.741L10.519,32.158L10.866,31.774L11.027,31.765L11.489,32.037L12.096,32.169L12.249,32.266L12.508,32.578L12.658,32.696L12.812,32.715L13.326,32.564L14.333,32.958L14.667,32.958L15.248,33.375L15.563,33.502L15.846,33.365L15.172,33.152L14.957,32.890L14.283,32.828L14.072,32.706L13.690,32.369L12.845,32.173L12.658,32.037L12.215,31.449L11.991,31.326L11.882,31.146L11.706,31.073L11.333,30.729L10.999,30.279L10.927,30.123L10.926,29.528L10.972,29.216L11.094,28.985L11.430,28.866L11.852,28.959L13.331,29.828L13.764,29.937L14.055,29.774L14.093,30.077L14.193,30.336L14.335,30.515L14.500,30.578L14.500,30.457L14.362,30.251L14.112,29.650L13.944,29.524L13.757,29.482L13.382,29.302L13.187,29.260L13.096,29.194L12.848,28.865L12.370,28.448L12.096,28.076L12.360,27.865L13.071,27.797L13.609,27.882L14.333,28.459L14.140,28.286L13.819,27.777L13.635,27.669L12.851,27.687L12.658,27.549L12.658,27.406L12.738,27.260L12.857,27.086L12.994,26.940L13.073,26.904L13.132,26.878L13.469,26.862L13.597,26.751L13.609,26.496L13.794,26.405L15.075,26.760L15.906,27.352L16.151,27.406L16.312,27.530L16.518,27.825L16.658,28.172L16.626,28.459L16.682,28.878L17.084,28.267L17.244,28.196L17.331,28.246L17.408,28.364L17.522,28.602L17.671,28.808L17.687,28.913L17.689,29.194L17.733,29.506L17.746,29.693L17.691,29.835L17.554,30.084L17.522,30.123L17.156,30.795L17.076,30.984L17.127,30.984L17.302,30.709L17.748,30.179L17.911,29.919L17.957,29.763L17.994,29.587L18.046,29.446L18.134,29.392L18.232,29.453L18.294,29.597L18.412,30.051L18.374,30.137L18.357,30.195L18.475,30.083L18.604,29.898L18.735,29.792L18.858,29.919L18.719,30.367L18.528,30.818L18.293,31.183L18.023,31.367L18.350,31.346L18.499,31.271L18.635,31.103L18.791,30.609L18.910,30.315L18.999,30.254L19.113,30.774L19.061,31.310L18.987,31.764L19.030,32.037L19.308,31.103L19.293,30.672L19.327,30.176L19.395,29.715L19.481,29.392L19.547,29.246L19.592,29.216L20.144,29.265L20.200,29.326L20.219,29.587L20.271,29.746L20.342,29.843L20.653,30.164L20.948,30.705L20.996,30.774L21.003,30.861L20.966,31.279L20.932,31.492L20.882,31.679L20.817,31.774L20.838,31.845L20.872,31.892L20.453,33.030L20.367,33.385L20.426,33.549L20.532,33.518L20.723,32.774L21.265,31.364L21.318,30.984L21.318,30.840L21.493,30.809L21.604,30.992L21.698,31.266L21.824,31.510L21.883,31.524L21.930,31.477L21.981,31.478L22.047,31.642L22.042,31.798L21.999,31.947L21.992,32.078L22.103,32.169L22.117,32.071L22.155,31.878L22.210,31.731L22.269,31.774L22.270,31.906L22.214,32.564L22.147,32.781L21.958,33.151L21.880,33.365L21.880,33.485L22.192,33.313L22.510,32.238L22.770,32.037L22.770,31.892L22.602,31.715L22.510,31.343L22.451,30.917L22.381,30.578L22.262,30.303L22.107,30.044L21.934,29.851L21.763,29.774L21.847,29.524L21.883,29.289L21.930,29.072L22.047,28.878L22.203,28.801L22.366,28.792L22.508,28.721L22.603,28.459L22.436,28.466L22.033,28.662L21.880,28.806L21.729,28.863L21.046,28.535L20.589,28.076L18.650,27.267L18.080,26.683L17.740,25.826L18.120,25.591L19.331,25.276L19.587,25.287L20.453,25.551L20.678,25.551L20.765,25.584L20.809,25.663L20.836,25.754L20.872,25.826L21.092,26.045L21.207,26.074L21.318,25.958L21.263,25.892L21.224,25.805L21.151,25.551L21.554,25.553L21.761,25.499L22.119,25.224L22.526,25.184L22.715,25.036L21.606,25.205L21.268,25.036L21.108,24.873L21.142,24.847L21.273,24.833L21.404,24.700L21.491,24.555L21.610,24.440L21.746,24.374L21.880,24.378L21.880,24.234L21.699,24.134L21.591,24.171L21.268,24.497L20.854,24.717L20.371,24.761L19.990,24.685L19.921,24.642L19.910,24.433L19.981,24.293L20.149,24.102L20.179,23.965L20.223,23.578L20.255,23.456L20.367,23.339L20.756,23.181L20.402,23.252L20.134,23.434L19.489,24.101L19.338,24.181L18.999,24.234L18.900,24.121L18.955,23.868L19.081,23.603L19.192,23.456L19.192,23.313L18.913,23.423L18.774,23.537L18.635,23.708L18.310,24.266L18.245,24.306L18.049,24.530L16.757,24.205L16.421,24.022L16.199,23.743L16.066,23.617L16.010,23.492L16.120,23.313L16.433,23.292L16.827,23.437L17.176,23.388L17.355,22.787L17.124,22.754L16.867,22.567L16.628,22.293L16.454,21.997L16.703,21.804L16.959,21.917L17.215,22.136L17.462,22.260L17.401,22.043L17.360,21.950L17.294,21.853L18.187,21.711L18.245,21.733L18.295,21.811L18.363,22.046L18.412,22.128L18.588,22.171L18.662,22.025L18.632,21.832L18.499,21.733L18.365,21.684L17.962,21.338L18.777,21.338L18.922,21.399L19.210,21.671L19.578,21.806L19.872,22.150L20.037,22.260L20.246,22.225L20.565,21.866L20.756,21.733L20.738,21.663L20.706,21.470L21.026,21.359L21.290,21.562L21.547,21.850L22.109,22.116L22.233,22.091L22.269,21.853L22.210,21.663L21.997,21.522L21.935,21.338L22.197,21.381L22.449,21.623L22.640,22.002L22.715,22.458L22.857,22.742L23.521,23.094L23.727,23.456L23.611,23.649L23.716,23.765L24.062,23.840L24.062,23.972L23.912,23.925L23.850,24.007L23.838,24.173L23.839,24.378L23.879,24.478L23.951,24.612L23.966,24.756L23.839,24.893L23.839,25.036L23.945,25.167L24.056,25.050L24.186,24.953L24.321,24.894L24.446,24.893L24.521,24.979L24.587,25.111L24.665,25.169L24.729,25.036L24.850,24.792L24.981,24.753L25.056,24.888L25.008,25.167L25.589,25.109L25.736,25.167L25.808,25.047L25.880,25.040L25.948,25.098L26.010,25.167L26.056,25.240L26.349,25.695L26.272,25.831L25.792,26.220L25.901,26.291L26.005,26.237L26.115,26.137L26.238,26.077L26.358,26.106L26.739,26.412L26.841,26.561L26.906,26.615L26.987,26.620L27.152,26.518L27.239,26.496L27.751,26.760L27.727,26.829L27.690,27.011L27.831,27.099L27.912,27.330L27.910,27.563L27.802,27.669L27.832,27.789L27.898,27.980L27.913,28.076L27.915,28.069L27.929,28.386L27.970,28.757L28.024,28.886L28.135,28.985L28.251,28.968L28.394,28.881L28.533,28.846L28.637,28.985L28.653,29.252L28.581,29.493L28.484,29.715L28.419,29.919L28.523,29.891L28.653,29.802L28.762,29.689L28.809,29.590L28.813,29.267L28.804,29.118L28.637,28.733L28.738,28.626L29.028,28.484L29.391,28.459L29.452,28.525L29.496,28.668L29.531,28.812L29.563,28.878L29.714,28.947L29.615,29.098L29.442,29.234L29.366,29.260L29.312,29.445L29.348,29.585L29.505,29.846L29.712,30.013L30.596,29.774L30.830,29.835L31.022,29.943L31.170,30.168L31.269,30.578L30.120,30.683L29.902,30.858L29.041,31.106L28.920,31.103L29.070,31.376L29.298,31.346L29.758,31.103L30.522,30.969L30.762,31.103L30.664,31.266L30.312,31.510L30.312,31.642L31.190,31.397L31.405,31.576L31.524,31.965L31.550,32.296L31.453,32.548L31.208,32.696L31.597,32.958L31.597,33.101L31.193,34.024L31.046,34.274L30.805,34.489L29.978,34.802L29.978,34.946L30.154,34.958L30.458,34.902L30.596,34.946L31.029,35.217L31.157,35.340L30.489,36.129L30.249,36.309L29.143,36.261L29.064,36.171L28.930,35.920L28.892,35.867L28.735,35.752L28.588,35.497L28.489,35.228L28.475,35.064L28.272,34.787L28.022,34.652L27.759,34.660L27.523,34.802L27.681,34.827L28.065,35.073L28.196,35.196L28.213,35.249L28.384,35.563L28.419,35.592L28.440,35.825L28.414,35.978L28.349,36.107L28.247,36.261L28.378,36.393L28.446,36.490L28.475,36.590L28.518,36.846L28.611,36.992L28.705,37.070L28.747,37.124L28.892,37.253L30.254,37.218L30.487,37.338L30.596,37.590L30.513,37.809L30.091,38.468L29.927,38.644L29.927,38.774L30.322,38.559L30.821,38.114L31.249,38.018L31.430,38.847L31.258,39.551L30.850,40.231L30.369,40.725L29.978,40.882L29.978,41.014L30.801,40.698L31.117,40.419L31.294,40.354L31.477,40.392L31.595,40.497L31.825,40.882L32.136,41.174L32.219,41.363L32.159,41.683L32.274,41.754L32.292,41.899L32.272,42.099L32.276,42.342L32.325,42.768L32.326,43.066L32.289,43.453L32.293,43.643L32.610,44.657L32.721,44.855L32.688,44.889L32.680,44.902L32.678,44.919L32.660,44.973L32.823,45.146L32.988,45.467L33.074,45.844L33.000,46.183L33.000,46.303L33.133,46.419L33.184,46.376L33.268,46.305L33.332,46.041L33.214,45.571L33.190,45.259L33.167,45.118L33.095,44.921L32.952,44.630L32.888,44.460L33.008,44.244L33.055,44.185L33.026,44.017L33.078,43.895L33.160,43.788L33.222,43.669L33.266,43.373L33.262,43.105L33.092,41.645L33.060,41.034L33.164,40.761L33.415,40.901L33.590,41.246L33.839,42.066L34.078,42.537L34.113,42.670L34.168,42.810L34.446,42.900L34.558,43.000L34.619,42.855L34.406,42.412L34.214,41.819L34.070,41.186L34.002,40.618L33.972,40.165L33.969,39.852L34.002,39.564L34.038,39.459L34.138,39.275L34.174,39.182L34.259,38.625L34.285,38.500L34.534,38.028L35.454,37.314L35.956,36.656L36.107,36.575L36.263,36.531L36.378,36.451L36.406,36.261L36.513,36.244L36.591,36.302L36.745,36.524L36.780,36.531L36.885,36.507L36.913,36.524L36.936,36.691L36.913,36.744L36.873,36.755L36.851,36.801L36.794,37.573L36.787,37.962L36.851,38.247L36.754,38.574L36.749,38.909L36.836,39.112L37.018,39.038L36.935,38.685L36.949,38.374L37.055,38.228L37.246,38.379L37.317,38.505L37.325,38.581L37.321,38.694L37.352,38.919L37.319,39.065L37.301,39.195L37.301,39.301L37.330,39.294L37.482,39.383L37.530,39.433L37.587,39.593L37.617,39.724L37.657,39.840L37.747,39.960L37.838,40.033L37.936,40.080L38.038,40.097L38.142,40.080L38.169,40.061L38.323,39.954L38.394,39.749L38.436,39.451L38.531,39.038L38.438,38.957L38.313,38.698L38.220,38.644L37.940,38.668L37.804,38.630L37.691,38.500L37.963,38.396L38.220,38.379L38.329,38.338L38.553,38.157L38.671,38.117L38.775,38.298L38.742,39.156L38.860,39.433L38.830,39.122L38.906,38.891L38.958,38.669L38.860,38.379L38.953,38.123L39.215,37.747L39.341,37.518L39.372,37.376L39.381,37.063L39.422,36.920L39.499,36.846L39.649,36.848L39.817,36.801L39.636,36.764L39.525,36.526L39.510,36.258L39.620,36.129L39.726,36.054L39.806,35.856L39.855,35.581L39.873,35.268L39.808,34.773L39.650,34.321L39.448,33.964L39.255,33.760L39.255,33.617L39.472,33.419L39.390,32.859L39.179,32.233L38.869,31.553L38.812,31.373L38.759,30.709L38.708,30.390L38.620,30.141L38.502,29.943L38.360,29.774L38.485,29.586L38.599,29.293L38.637,28.980L38.531,28.733L38.696,28.592L38.891,28.559L39.230,28.602L39.312,28.568L39.459,28.404L39.538,28.338L39.645,28.306L39.933,28.338L40.090,28.252L40.384,27.893L40.513,27.813L40.913,27.954L41.002,27.963L41.095,27.973L41.270,27.813L41.312,28.225L41.420,28.465L41.577,28.611L41.771,28.733L41.715,28.878L41.800,28.955L41.860,29.100L41.938,29.392L42.045,29.678L42.389,30.314L42.438,30.484L42.466,30.635L42.509,30.758L42.606,30.840L42.578,30.899L42.528,31.044L42.499,31.103L42.658,31.361L42.867,31.572L43.018,31.816L43.000,32.169L43.148,32.306L43.587,32.376L43.914,32.588L44.012,32.584L44.101,32.602L44.203,32.762L44.250,32.814L44.355,32.795L44.398,32.828L44.449,32.967L44.471,33.104L44.484,33.238L44.509,33.365L44.689,33.750L44.737,33.892L44.772,34.132L44.817,34.652L44.871,34.874L45.047,35.109L45.463,35.231L45.628,35.472L45.678,35.060L45.736,34.914L45.987,34.946L46.019,34.980L46.131,35.142L46.190,35.196L46.282,35.222L46.513,35.210L46.441,35.253L46.381,35.319L46.356,35.406L46.386,35.563L46.455,35.568L46.604,35.472L46.691,35.356L46.766,35.088L46.857,34.538L46.914,33.976L46.919,33.492L46.865,33.038L46.746,32.564L46.515,31.896L46.493,31.774L46.013,31.248L46.009,31.110L46.045,30.929L46.114,30.775L46.215,30.709L46.363,30.676L46.526,30.578L46.680,30.416L46.802,30.195L46.712,30.084L46.633,29.929L46.569,29.738L46.491,29.329L46.490,29.263L46.525,29.211L46.604,29.057L46.751,28.880L47.217,28.638L48.305,28.459L48.687,28.743L48.890,28.778L48.872,28.459L48.936,28.382L49.001,28.335L49.072,28.319L49.150,28.338L49.128,28.413L49.095,28.602L49.258,28.665L49.535,28.944L49.702,28.985L49.599,28.891L49.525,28.780L49.471,28.640L49.429,28.459L49.485,28.459L49.485,28.338L49.439,28.307L49.362,28.227L49.317,28.196L49.317,28.076L49.394,27.942L49.481,27.490L49.535,27.286L49.615,27.168L49.897,26.926L50.626,26.666L50.885,26.787L50.826,27.406L50.982,27.344L51.090,27.175L51.276,26.760L51.240,26.570L51.215,26.496L51.364,26.382L51.585,26.419L51.994,26.615L51.931,26.903L51.793,27.322L51.767,27.609L51.858,27.603L52.445,27.011L52.684,27.064L52.881,27.297L53.048,27.549L53.199,27.669L53.276,27.807L53.182,28.113L52.951,28.602L53.054,28.611L53.171,28.580L53.282,28.510L53.364,28.399L53.460,28.326L53.566,28.408L53.670,28.535L53.761,28.602L53.889,28.746L53.968,29.084L54.033,29.475L54.120,29.774L53.970,30.352L53.905,30.691L53.925,30.840L54.510,30.984L54.886,31.216L55.491,31.302L55.573,31.367L55.660,31.517L55.797,31.833L55.986,31.979L56.049,32.176L56.091,32.400L56.164,32.654L56.179,32.739L56.206,32.803L56.272,32.828L56.421,32.806L56.495,32.821L56.550,32.892L56.632,33.132L56.653,33.290L56.636,33.826L56.668,34.045L56.818,34.390L56.864,34.538L56.863,35.347L56.889,35.472L56.959,35.526L57.198,35.867L57.583,36.261L57.539,36.519L57.579,36.862L57.677,37.136L57.810,37.183L57.913,36.943L57.906,36.589L57.837,36.240L57.755,36.010L57.689,35.938L57.520,35.810L57.472,35.735L57.436,35.517L57.460,35.393L57.504,35.304L57.532,35.196L57.527,35.015L57.508,34.882L57.500,34.743L57.532,34.538L57.575,34.463L57.715,34.337L57.755,34.274L57.803,33.917L57.778,33.609L57.532,32.696L57.526,32.635L57.532,32.367L57.511,32.294L57.461,32.297L57.403,32.319L57.360,32.301L57.199,31.958L57.137,31.892L57.129,31.873L57.117,31.830L57.093,31.792L57.051,31.774L57.011,31.816L56.943,32.000L56.915,32.037L56.804,31.965L56.552,31.652L56.469,31.510L56.545,31.237L56.514,30.978L56.411,30.785L56.176,30.634L56.011,30.235L55.907,30.051L55.907,29.919L55.968,29.919L55.968,29.774L55.746,29.236L55.644,28.338L55.688,27.435L55.907,26.878L56.016,26.832L56.747,26.878L56.859,26.942L57.055,27.108L57.167,27.142L57.516,27.108L57.643,27.142L57.626,27.213L57.626,27.239L57.621,27.251L57.583,27.286L57.888,27.458L58.692,27.254L59.040,27.406L59.108,27.554L59.192,27.934L59.263,28.076L59.353,28.120L59.683,28.076L59.826,28.158L60.087,28.521L60.239,28.602L60.348,28.695L60.668,29.180L60.771,29.392L60.903,29.948L60.996,30.206L61.258,30.396L61.397,30.589L61.607,30.984L61.884,31.786L62.001,32.037L62.034,31.670L61.966,31.382L61.859,31.124L61.773,30.840L61.932,30.849L62.119,30.800L62.301,30.705L62.446,30.578L61.698,30.616L61.500,30.457L62.797,30.435L62.893,30.527L62.947,30.747L63.064,31.103L63.114,31.103L63.158,30.967L63.167,30.824L63.137,30.691L63.064,30.578L63.064,30.457L63.169,30.369L63.261,30.225L63.311,30.027L63.287,29.774L63.417,29.632L63.469,29.537L63.510,29.392L63.515,29.281L63.496,28.983L63.510,28.733L63.612,28.470L63.819,28.215L64.060,28.020L64.263,27.945L64.351,27.841L64.398,27.615L64.406,27.389L64.372,27.286L64.283,27.228L64.323,27.090L64.489,26.820L64.711,26.597L65.210,26.415L65.296,26.077L65.511,26.271L66.331,26.352L66.545,26.495L66.553,26.510L66.711,26.843L67.027,27.669L67.018,27.774L67.018,27.814L67.022,27.852L67.027,27.945L66.915,27.945L66.915,28.076L67.011,28.159L67.113,28.201L67.215,28.182L67.311,28.076L67.257,28.061L67.138,27.945L67.428,27.733L68.456,27.457L68.758,27.549L68.627,27.545L68.497,27.587L68.373,27.674L68.257,27.813L68.361,27.881L68.507,28.160L68.565,28.135L68.730,27.750L68.828,27.595L68.925,27.549L69.155,27.764L69.324,28.106L69.504,28.398L69.770,28.459L69.770,28.338L69.510,28.156L69.379,28.018L69.292,27.879L69.228,27.626L69.226,27.436L69.193,27.286L69.042,27.142L69.413,26.884L69.969,26.707L70.305,26.502L70.494,26.496L69.772,26.904L69.547,27.142L70.263,26.869L70.433,26.878L70.631,27.053L70.948,27.519L71.162,27.549L71.162,27.406L70.874,27.119L70.729,26.902L70.666,26.688L70.698,26.394L70.783,26.145L70.906,25.953L71.050,25.826L71.055,25.735L71.042,25.712L71.070,25.619L71.142,25.469L71.197,25.283L71.218,25.101L71.197,24.806L71.143,24.645L71.064,24.513L70.934,24.221L70.894,24.158L70.848,24.116L70.798,24.102L70.755,24.031L70.740,23.868L70.733,23.694L70.717,23.588L70.491,23.414L70.435,23.259L70.494,22.917L70.467,22.910L70.383,22.917L70.411,22.854L70.464,22.707L70.494,22.643L70.436,22.588L70.396,22.505L70.322,22.260L70.494,22.260L70.494,22.128L70.353,21.941L70.196,21.326L69.965,21.067L70.039,20.801L70.207,20.567L70.383,20.537L70.430,20.651L70.437,20.797L70.458,20.917L70.550,20.943L70.572,20.856L70.605,20.670L70.666,20.488L70.773,20.405L71.002,20.312L71.134,20.319L71.137,20.471L71.095,20.684L71.123,20.863L71.193,20.997L71.278,21.063L71.262,20.958L71.256,20.873L71.247,20.787L71.218,20.680L71.346,20.632L71.587,20.437L71.664,20.405L71.784,20.505L71.873,20.653L71.971,20.776L72.114,20.799L71.999,20.917L71.946,20.943L72.087,21.063L72.238,21.034L72.398,20.961L72.447,20.943L72.447,20.799L72.538,20.663L72.621,20.477L72.717,20.357L72.731,20.405L72.788,20.626L72.883,20.659L72.971,20.548L73.037,20.184L73.108,20.095L73.288,20.010L73.514,20.010L73.979,20.201L74.072,20.153L74.451,19.996L75.138,20.650L75.525,20.799L75.415,20.976L75.288,21.055L75.181,21.174L75.130,21.470L75.214,21.464L75.242,21.470L75.242,21.590L75.075,21.733L75.119,21.788L75.200,21.941L75.242,21.997L75.146,22.170L75.257,22.199L75.550,22.128L75.878,22.199L76.021,22.128L76.006,22.216L75.984,22.431L75.971,22.523L76.749,22.523L76.897,22.575L77.030,22.709L77.105,22.883L77.089,23.061L77.089,23.181L77.251,23.708L76.910,24.318L76.718,24.566L76.471,24.761L76.583,25.036L76.680,24.930L76.780,24.990L76.893,25.105L77.161,25.218L77.190,25.354L77.154,25.563L77.089,25.826L77.215,25.932L77.813,25.958L78.100,25.831L78.196,25.857L78.237,25.944L78.319,26.077L78.354,26.076L78.403,26.041L78.481,25.958L78.499,26.168L78.551,26.337L78.632,26.454L78.862,26.556L79.106,26.820L79.370,27.020L79.529,27.286L79.691,27.450L79.883,27.286L79.817,27.255L79.791,27.217L79.766,27.142L79.910,27.041L80.016,26.829L80.082,26.525L80.106,26.149L80.073,25.760L80.037,25.487L80.091,25.301L80.328,25.167L81.332,25.167L81.905,24.974L81.950,24.825L81.958,24.647L82.003,24.497L82.581,24.136L82.672,23.906L82.729,23.611L82.865,23.375L83.182,23.061L83.400,22.913L84.099,22.787L84.291,22.840L84.605,23.096L84.797,23.181L86.351,22.928ZM60.357,74.344L60.418,74.464L60.423,74.626L60.374,74.843L60.246,75.036L60.195,75.059L60.253,74.979L60.294,74.877L60.281,74.765L60.213,74.709L60.125,74.722L59.770,74.854L59.791,74.695L60.040,74.433L60.179,74.339L60.240,74.319L60.357,74.344ZM58.256,19.465L58.459,19.726L58.522,19.771L58.488,19.949L58.330,20.058L58.189,19.834L58.170,19.519L58.256,19.465ZM39.885,79.611L39.917,79.682L39.961,79.903L39.899,80.113L39.821,80.296L39.741,80.419L39.682,80.347L39.642,80.176L39.590,80.027L39.528,79.802L39.553,79.586L39.716,79.497L39.909,79.482L39.925,79.515L39.885,79.611ZM55.228,30.108L55.301,30.216L55.420,30.472L55.420,30.696L55.312,30.766L55.215,30.734L55.145,30.661L55.095,30.545L55.077,30.395L55.030,30.159L54.950,29.886L54.997,29.813L55.154,29.984L55.228,30.108Z" fill="currentColor" stroke="currentColor" stroke-width="1.5" stroke-linejoin="round"/>
</svg>