<svg xmlns="http://www.w3.org/2000/svg" viewBox="0 0 100 100" role="img" aria-label="Israel">
  <title>Israel</title>
  <path d="M33.929,55.440L34.244,55.147L35.253,54.395L35.940,53.652L35.996,53.259L35.834,52.470L35.840,52.079L36.262,51.273L38.478,49.140L38.774,48.938L38.778,48.938L39.416,48.347L39.960,47.895L39.257,47.470L38.494,46.900L38.657,46.503L39.135,45.889L40.875,42.888L41.011,42.709L42.115,40.219L42.649,39.011L43.016,38.434L43.632,36.406L43.645,36.296L43.619,36.044L43.632,35.935L43.900,35.792L45.481,30.872L46.178,27.434L46.784,24.441L46.896,24.219L47.014,23.193L47.113,22.887L47.078,22.548L47.527,20.675L47.634,18.615L47.792,18.151L48.084,17.990L48.333,18.050L48.730,18.308L49.030,18.366L49.206,18.329L49.893,17.600L49.978,17.404L50.143,16.801L50.223,16.509L50.188,16.232L49.946,16.112L50.065,15.771L50.201,14.372L50.466,13.628L50.549,13.188L50.469,12.790L50.553,12.706L50.659,12.562L50.750,12.490L50.616,12.333L50.707,12.311L50.726,12.300L52.295,12.416L52.380,12.380L52.596,12.214L52.724,12.167L52.842,12.175L53.119,12.246L53.259,12.256L53.984,12.020L54.223,12.020L54.324,12.066L54.438,12.117L54.657,12.292L54.851,12.525L54.987,12.797L55.169,13.032L55.429,13.068L56.535,12.784L57.473,12.387L58.074,12.337L58.172,11.988L58.536,11.344L58.704,10.958L58.810,10.373L58.856,9.240L59.008,8.733L59.187,8.420L59.302,8.106L59.434,7.888L59.663,7.863L59.776,7.999L60.131,8.550L60.380,8.731L60.382,8.730L60.386,8.733L60.499,8.829L60.500,8.823L60.514,8.733L60.514,8.731L60.778,8.460L60.817,8.152L61.033,8.037L61.446,7.988L61.610,7.699L62.355,6.931L62.702,6.838L62.961,6.813L63.240,6.736L63.512,6.618L63.745,6.472L64.065,6.122L64.456,5.353L64.758,5.000L64.784,5.123L64.677,5.265L64.646,5.640L64.586,5.766L64.539,6.073L64.217,6.305L64.065,6.467L63.635,6.662L64.385,7.165L63.729,8.079L63.866,8.259L64.415,8.636L64.494,9.710L64.936,9.980L64.999,10.643L64.784,11.092L64.569,11.432L64.569,11.774L65.303,12.078L65.242,12.382L65.501,14.570L65.611,14.857L66.071,15.610L65.795,16.130L65.655,16.165L65.319,16.739L65.090,17.423L65.165,17.709L65.015,18.298L64.035,19.447L63.513,20.219L63.510,20.221L63.172,20.307L62.094,20.980L61.443,21.556L61.212,21.675L61.129,21.717L60.666,21.662L60.654,21.654L60.664,21.662L60.303,21.919L60.007,22.308L59.833,22.461L59.693,22.520L59.651,22.596L59.640,22.785L59.719,22.950L59.886,23.048L59.886,23.191L59.750,23.191L59.750,23.362L59.861,23.569L59.922,24.161L60.031,24.446L59.950,24.570L59.922,24.584L59.912,24.530L59.886,24.446L59.839,24.528L59.750,24.774L59.628,24.617L59.695,25.098L59.750,25.245L59.482,25.245L59.482,25.401L59.586,25.389L59.667,25.393L59.807,25.598L59.847,25.695L60.031,25.885L60.031,26.029L59.855,26.081L59.738,26.203L59.665,26.360L59.628,26.514L59.701,26.565L59.746,26.607L59.798,26.638L59.886,26.656L59.886,26.828L59.762,26.911L59.628,26.970L59.750,27.127L59.482,27.299L59.525,27.339L59.565,27.332L59.598,27.347L59.628,27.455L59.482,27.455L59.482,27.597L59.604,27.718L59.622,27.810L59.539,27.874L59.349,27.911L59.436,28.165L59.482,28.239L59.578,28.340L59.659,28.482L58.074,28.076L57.615,27.956L57.147,27.941L56.638,27.791L56.531,27.212L56.539,26.501L56.365,25.960L55.781,25.601L55.198,25.533L53.964,25.593L53.607,25.467L53.048,25.009L52.786,24.871L52.752,24.854L52.402,24.875L52.128,25.082L51.636,25.652L51.028,26.033L50.441,26.311L49.924,26.680L49.539,27.347L49.304,28.540L49.227,28.932L49.086,29.404L49.013,29.459L48.751,29.554L48.676,29.608L48.595,29.899L48.526,30.622L48.466,30.923L48.711,31.000L48.847,31.172L48.881,31.414L48.812,31.706L48.668,31.991L47.907,32.690L47.844,33.038L47.931,33.336L48.213,33.875L48.407,34.473L48.354,35.263L48.805,36.844L48.600,37.067L48.640,37.462L48.621,37.809L48.402,38.075L48.687,38.479L48.815,38.587L48.737,38.718L48.769,38.843L48.983,39.008L49.249,39.058L49.428,39.421L49.336,40.513L49.253,40.607L48.792,40.629L48.634,40.680L48.462,40.870L48.246,41.059L48.221,41.150L48.277,41.197L48.693,41.262L48.917,41.243L49.202,41.165L49.557,40.808L49.761,40.692L49.926,40.663L50.159,40.673L50.390,40.811L50.576,41.199L50.868,41.366L51.042,41.346L51.348,41.589L52.072,41.743L52.312,41.716L52.304,41.593L52.235,41.459L52.262,41.340L52.386,41.304L52.517,41.309L52.843,41.486L52.892,41.455L52.899,41.371L52.899,41.018L52.837,40.690L52.766,40.460L52.677,40.283L52.686,40.142L52.820,40.045L53.015,40.098L53.104,40.372L53.086,40.602L53.122,40.761L53.237,40.938L53.461,40.880L53.563,40.898L53.637,40.964L53.705,41.030L53.594,41.198L53.634,41.243L53.763,41.256L53.856,41.313L53.772,41.486L53.678,41.636L53.736,41.902L53.758,42.088L53.816,42.154L53.723,42.291L53.616,42.614L53.625,42.778L53.754,42.906L53.814,43.097L53.723,43.240L53.612,43.340L53.548,43.673L53.452,43.770L53.415,43.965L53.328,44.000L53.199,43.925L53.132,43.814L53.057,43.774L52.963,43.867L52.686,43.682L52.180,43.753L51.931,43.478L51.689,43.447L51.583,43.356L51.128,43.454L50.902,43.808L50.493,44.159L49.824,44.748L48.146,45.815L47.787,46.240L47.745,46.321L47.435,46.926L47.347,47.548L47.339,48.190L47.228,48.938L46.345,50.421L46.059,51.190L46.288,51.961L46.721,52.291L47.240,52.373L47.779,52.288L48.277,52.115L49.450,51.953L51.895,51.974L53.040,51.543L55.177,49.757L56.310,49.107L57.643,48.995L57.651,49.003L57.623,50.337L57.619,50.567L57.540,51.089L57.191,52.012L56.826,52.674L56.972,52.840L56.940,53.336L56.664,53.818L56.419,54.378L56.527,55.007L56.713,55.597L56.922,56.059L57.213,56.632L57.351,57.261L57.258,57.915L56.338,59.748L56.213,60.421L56.215,61.142L55.996,61.559L55.467,62.074L55.228,62.307L54.979,62.827L54.926,63.347L54.936,63.861L54.869,64.369L54.756,64.588L54.424,64.889L54.272,65.070L54.142,65.348L54.075,65.606L53.986,66.187L53.835,66.732L53.834,66.737L52.688,69.096L51.841,71.909L51.748,72.456L51.407,73.391L51.407,73.943L51.504,74.179L51.786,74.644L51.841,74.971L51.798,75.290L51.691,75.537L51.559,75.774L51.442,76.061L51.257,77.258L51.118,77.653L51.109,78.310L51.511,79.716L51.511,80.440L51.193,81.213L50.354,82.493L50.127,83.399L50.115,83.675L50.042,83.879L49.945,84.057L49.868,84.255L49.724,85.035L49.706,86.431L49.622,86.898L48.713,89.407L48.567,89.980L48.464,91.272L48.277,91.845L48.016,92.279L47.876,92.782L47.792,93.408L47.709,93.714L47.585,93.916L47.247,94.349L47.090,94.593L47.012,94.758L46.979,94.906L46.915,94.994L46.762,95.000L46.580,94.980L46.443,94.992L46.274,94.664L45.826,93.713L45.688,93.163L45.725,91.575L45.220,89.210L44.452,87.050L43.593,84.648L43.470,83.400L43.480,83.259L43.468,83.121L43.433,82.986L43.379,82.857L42.619,80.643L41.462,77.254L40.812,75.359L40.595,75.030L39.525,74.079L39.390,73.863L39.347,73.598L39.382,73.195L39.568,72.508L39.572,72.196L39.378,71.911L39.066,71.480L38.948,71.090L38.906,70.140L38.478,68.312L37.271,65.093L36.272,62.425L35.520,60.425L34.902,58.488L34.131,56.067L33.929,55.440Z" fill="currentColor" stroke="currentColor" stroke-width="1" stroke-linejoin="round"/>
</svg>