<svg xmlns="http://www.w3.org/2000/svg" viewBox="0 0 100 100" role="img" aria-label="Italy">
  <title>Italy</title>
  <path d="M17.703,14.003L17.964,14.275L18.100,14.350L18.279,14.384L18.469,14.381L18.645,14.351L19.005,14.213L19.169,14.119L19.246,14.095L19.684,14.138L19.871,14.077L20.216,13.843L20.389,13.773L20.512,13.759L20.575,13.681L20.632,13.593L20.730,13.546L21.324,13.684L21.416,13.733L21.503,13.808L21.613,13.957L21.621,13.976L21.693,13.999L21.742,13.988L21.786,13.969L21.843,13.963L22.123,14.058L22.284,14.055L22.388,14.085L22.422,14.087L22.495,14.050L22.508,14.024L22.504,13.983L22.522,13.903L22.529,13.891L22.649,13.886L22.665,13.738L22.728,13.626L22.812,13.563L23.226,13.476L23.282,13.460L23.323,13.428L23.396,13.340L23.401,13.323L23.457,13.208L23.468,13.192L23.499,12.971L23.499,12.884L23.512,12.795L23.554,12.715L23.612,12.674L23.733,12.662L23.796,12.642L24.051,12.437L24.177,12.186L24.161,11.901L23.989,11.594L23.853,11.484L23.832,11.454L23.857,11.389L23.915,11.313L24.029,11.206L24.155,11.153L24.408,11.101L24.529,11.023L24.816,10.674L24.981,10.597L25.048,10.550L25.106,10.486L25.141,10.415L25.138,10.337L25.100,10.309L25.077,10.277L25.126,10.178L25.250,10.057L25.409,9.978L25.656,9.929L25.734,9.913L25.901,9.940L25.981,10.047L26.006,10.222L26.009,10.456L25.989,10.680L25.894,11.082L25.874,11.282L25.897,11.471L25.961,11.596L26.068,11.678L26.221,11.734L26.382,11.809L26.547,11.967L26.916,12.469L26.972,12.496L27.085,12.532L27.357,12.679L27.459,12.684L27.501,12.662L27.591,12.588L27.628,12.573L27.657,12.583L27.676,12.589L27.719,12.662L27.763,12.690L27.857,12.702L28.036,12.698L28.124,12.726L28.272,12.907L28.186,13.090L28.019,13.278L27.916,13.496L27.894,13.533L27.884,13.554L27.984,13.560L28.074,13.589L28.408,13.756L28.447,13.784L28.485,13.834L28.543,13.957L28.644,14.125L28.693,14.226L28.725,14.328L28.735,14.462L28.711,14.558L28.676,14.651L28.655,14.770L28.886,14.705L29.077,14.784L29.252,14.814L29.438,14.602L29.584,14.339L29.606,14.207L29.540,14.078L29.485,14.046L29.357,14.022L29.301,13.992L29.248,13.919L29.200,13.778L29.137,13.719L29.124,13.699L29.120,13.680L29.124,13.659L29.137,13.640L29.329,13.476L29.225,13.206L29.250,13.118L29.400,13.011L29.527,12.973L29.583,12.943L29.629,12.871L29.648,12.775L29.635,12.600L29.658,12.500L29.766,12.350L30.190,12.086L30.193,12.080L30.236,12.005L30.263,11.916L30.295,11.839L30.359,11.796L30.429,11.765L30.496,11.707L30.549,11.628L30.636,11.350L30.806,11.022L30.843,10.851L30.835,10.751L30.756,10.476L30.756,10.365L30.771,10.267L30.759,10.189L30.682,10.139L30.626,10.035L30.671,9.844L30.773,9.658L30.884,9.562L31.168,9.530L31.284,9.559L31.288,9.655L31.437,9.785L31.481,9.803L31.544,9.779L31.573,9.733L31.593,9.678L31.633,9.628L31.727,9.564L31.773,9.555L31.791,9.604L31.826,10.348L31.818,10.466L31.829,10.510L31.872,10.548L32.001,10.614L32.052,10.653L32.169,10.933L32.243,11.028L32.366,11.105L32.502,11.151L33.170,11.158L33.280,11.117L33.369,11.003L33.372,10.942L33.363,10.854L33.374,10.765L33.437,10.699L33.500,10.701L33.642,10.780L33.717,10.795L33.838,10.758L34.226,10.575L34.481,10.534L34.594,10.542L34.714,10.571L34.860,10.659L34.899,10.785L34.901,10.939L34.939,11.109L35.025,11.216L35.255,11.404L35.314,11.536L35.319,11.711L35.512,11.715L35.757,11.629L35.920,11.534L35.997,11.386L35.922,11.247L35.682,11.022L35.628,10.935L35.605,10.870L35.609,10.799L35.638,10.693L35.682,10.618L35.804,10.517L35.847,10.465L35.891,10.296L35.848,10.209L35.747,10.172L35.486,10.126L35.315,10.064L35.223,9.959L35.326,9.798L35.276,9.767L35.248,9.723L35.234,9.667L35.226,9.595L35.252,9.512L35.253,9.342L35.261,9.286L35.311,9.217L35.437,9.102L35.485,9.042L35.557,8.789L35.582,8.732L35.638,8.704L36.190,8.558L36.340,8.557L36.433,8.626L36.445,8.714L36.413,8.873L36.439,8.958L36.679,9.033L36.725,9.071L36.756,9.110L36.792,9.146L36.858,9.173L36.933,9.185L37.136,9.167L37.554,9.268L37.659,9.249L37.705,9.180L37.740,9.125L37.787,8.933L37.791,8.733L37.747,8.583L37.625,8.489L37.377,8.465L37.272,8.352L37.223,8.204L37.250,8.130L37.314,8.075L37.370,7.983L37.382,7.873L37.377,7.785L37.401,7.714L37.499,7.656L37.570,7.558L37.555,7.451L37.514,7.338L37.503,7.223L37.630,7.083L37.665,7.033L37.686,6.963L37.716,6.714L37.906,6.854L38.147,6.878L38.740,6.729L38.844,6.719L38.933,6.740L39.379,6.984L39.436,7.063L39.408,7.116L39.278,7.213L39.251,7.251L39.286,7.319L39.349,7.321L39.472,7.285L39.539,7.306L39.707,7.393L39.764,7.395L39.875,7.366L39.934,7.367L39.987,7.392L40.086,7.470L40.146,7.492L40.204,7.488L40.399,7.428L40.499,7.415L40.702,7.434L40.801,7.464L40.884,7.453L40.965,7.375L41.096,7.170L41.120,7.150L41.185,7.123L41.210,7.098L41.220,7.059L41.214,6.978L41.218,6.949L41.328,6.709L41.390,6.436L41.438,6.341L41.815,5.999L41.919,5.942L42.323,5.822L42.732,5.760L42.940,5.802L43.121,5.882L43.300,5.890L43.498,5.716L43.499,5.715L43.543,5.655L43.595,5.619L43.653,5.606L43.756,5.629L43.794,5.649L43.828,5.678L43.858,5.716L43.907,5.743L43.960,5.752L44.015,5.743L44.070,5.716L44.071,5.716L44.072,5.715L44.072,5.715L44.242,5.670L44.380,5.658L44.681,5.714L44.684,5.714L44.691,5.716L44.735,5.719L44.779,5.714L44.890,5.724L45.078,5.852L45.187,5.889L45.255,5.875L45.369,5.790L45.434,5.752L45.699,5.714L45.900,5.568L46.148,5.446L46.405,5.365L46.821,5.347L47.412,5.067L47.510,5.050L47.787,5.000L47.925,5.043L47.923,5.141L47.921,5.247L47.797,5.400L47.444,5.580L47.382,5.716L47.421,5.793L47.446,5.881L47.481,6.060L47.519,6.147L47.560,6.220L47.559,6.291L47.474,6.369L47.535,6.392L47.673,6.414L47.738,6.444L47.804,6.506L47.836,6.554L47.871,6.592L47.951,6.619L48.196,6.627L48.289,6.685L48.342,6.854L48.344,6.950L48.328,7.006L48.306,7.060L48.290,7.150L48.289,7.250L48.303,7.302L48.336,7.333L48.392,7.369L48.514,7.412L48.635,7.427L48.732,7.484L48.783,7.654L48.894,7.903L49.096,8.066L49.333,8.155L49.473,8.178L49.649,8.206L49.829,8.318L49.926,8.361L50.011,8.368L50.351,8.328L50.639,8.354L50.649,8.359L50.695,8.378L50.801,8.451L50.854,8.473L50.909,8.471L51.003,8.438L51.049,8.432L51.099,8.448L51.245,8.493L51.577,8.691L52.942,8.781L53.420,8.883L53.790,9.092L53.913,9.137L54.148,9.148L54.743,9.031L54.998,9.073L55.353,9.049L55.394,9.063L55.476,9.149L55.521,9.178L55.769,9.186L56.474,9.397L56.562,9.405L56.654,9.389L56.654,9.450L56.643,9.504L56.622,9.553L56.589,9.594L56.581,9.792L56.565,9.821L56.517,9.914L56.408,9.968L56.264,9.963L56.066,9.987L55.923,10.111L55.799,10.272L55.657,10.409L55.387,10.542L55.247,10.636L55.174,10.669L55.097,10.676L55.034,10.746L54.956,10.911L54.873,11.042L54.848,11.082L54.696,11.170L54.741,11.247L54.774,11.340L54.809,11.534L54.810,11.535L54.810,11.536L54.887,11.634L54.908,11.741L54.957,11.808L55.117,11.786L55.032,11.648L55.122,11.677L55.297,11.689L55.378,11.731L55.541,11.762L55.651,11.833L55.826,11.994L55.974,12.015L56.146,11.998L56.224,12.012L56.283,12.023L56.304,12.092L56.327,12.167L56.160,12.452L55.613,12.838L55.511,12.910L55.378,13.075L55.425,13.120L55.440,13.171L55.423,13.224L55.378,13.280L55.348,13.298L55.259,13.373L55.335,13.456L55.362,13.476L55.367,13.483L55.372,13.490L55.376,13.497L55.378,13.506L55.537,13.675L55.711,13.663L55.899,13.579L56.069,13.542L56.099,13.536L56.198,13.684L56.154,13.842L56.113,13.993L56.061,14.103L55.886,14.474L55.866,14.740L55.914,14.827L55.956,14.903L56.118,14.986L56.319,15.009L56.417,15.037L56.647,15.204L56.703,15.244L57.107,15.414L57.572,16.144L57.634,16.208L57.722,16.254L57.774,16.258L57.777,16.265L57.783,16.280L57.739,16.382L57.627,16.510L57.510,16.646L57.234,16.673L57.004,16.556L56.717,16.580L56.757,16.522L56.824,16.426L56.980,16.421L57.155,16.441L57.278,16.416L57.205,16.395L57.152,16.338L57.098,16.252L56.877,16.146L56.984,16.101L56.961,15.966L56.876,15.816L56.801,15.722L56.341,15.270L56.233,15.188L55.914,15.056L55.781,15.034L55.682,15.114L55.623,15.285L55.647,15.436L55.802,15.462L55.589,15.558L55.559,15.590L55.527,15.639L55.366,15.668L55.302,15.698L55.200,15.799L55.062,15.897L54.908,15.942L54.763,15.882L54.846,15.861L54.952,15.819L55.043,15.762L55.082,15.698L55.030,15.564L54.792,15.518L54.720,15.405L54.617,15.438L54.052,15.316L53.999,15.294L53.859,15.161L53.822,15.140L53.761,15.148L53.554,15.218L53.485,15.327L53.438,15.351L53.381,15.325L53.332,15.217L53.261,15.193L53.212,15.226L53.196,15.299L53.218,15.372L53.282,15.405L53.282,15.462L53.152,15.470L53.036,15.537L52.971,15.645L53.003,15.776L53.099,15.835L53.217,15.818L53.438,15.722L53.371,15.833L53.167,15.992L53.123,16.121L53.123,16.122L53.061,16.202L52.919,16.243L52.459,16.257L52.238,16.306L51.287,16.888L50.301,17.333L49.724,17.533L49.626,17.611L49.579,17.639L49.366,17.688L49.205,17.784L49.127,17.798L49.173,17.683L49.237,17.583L49.275,17.498L49.247,17.427L49.303,17.435L49.342,17.425L49.364,17.389L49.366,17.317L49.406,17.317L49.433,17.383L49.457,17.415L49.486,17.413L49.525,17.375L49.446,17.269L49.512,17.276L49.575,17.272L49.634,17.251L49.645,17.269L49.649,17.258L49.668,17.281L49.686,17.310L49.688,17.317L49.668,17.320L49.608,17.317L49.608,17.375L49.738,17.360L49.769,17.264L49.775,17.156L49.827,17.105L49.930,17.094L50.014,17.058L50.079,16.993L50.126,16.893L50.056,16.920L49.907,17.020L49.867,17.025L49.756,16.916L49.711,16.845L49.688,16.734L49.563,16.799L49.408,16.928L49.311,17.068L49.366,17.163L49.366,17.211L49.270,17.207L49.170,17.120L49.127,17.163L49.087,17.163L49.047,16.999L48.974,17.125L49.010,17.195L49.206,17.269L49.206,17.317L49.134,17.355L49.028,17.368L48.953,17.344L48.968,17.269L48.777,17.266L48.539,17.389L48.324,17.586L48.207,17.798L48.207,17.847L48.244,17.847L48.192,17.919L48.169,17.992L48.183,18.060L48.244,18.117L48.187,18.192L48.177,18.248L48.180,18.305L48.164,18.382L48.121,18.408L48.065,18.409L48.039,18.437L48.088,18.541L48.022,18.646L47.995,18.730L47.951,18.785L47.827,18.805L47.750,18.774L47.684,18.730L47.635,18.751L47.603,18.916L47.666,18.987L47.718,19.149L47.787,19.181L47.851,19.144L47.897,19.053L47.911,18.946L47.885,18.859L48.001,18.903L48.025,18.985L48.020,19.098L48.045,19.235L47.981,19.258L47.965,19.298L47.989,19.346L48.045,19.393L48.025,19.506L48.078,19.599L48.176,19.656L48.287,19.658L48.270,19.629L48.265,19.626L48.244,19.610L48.330,19.548L48.460,19.425L48.526,19.393L48.472,19.512L48.506,19.626L48.571,19.737L48.606,19.846L48.611,20.107L48.649,20.400L48.590,20.381L48.526,20.347L48.532,20.296L48.526,20.220L48.526,20.188L48.468,20.359L48.464,20.497L48.522,20.574L48.649,20.564L48.630,20.534L48.621,20.511L48.606,20.458L48.721,20.552L48.793,20.664L48.852,20.779L48.928,20.882L48.928,20.934L48.882,20.942L48.857,20.956L48.838,20.974L48.805,20.993L48.885,21.099L48.971,20.979L48.988,20.883L48.953,20.789L48.885,20.675L48.969,20.747L49.074,20.797L49.145,20.851L49.127,20.934L49.220,21.029L49.265,21.063L49.326,21.099L49.444,21.246L49.569,21.366L49.645,21.310L49.625,21.309L49.586,21.314L49.569,21.310L49.569,21.253L49.665,21.250L49.747,21.280L49.811,21.338L49.847,21.417L49.842,21.488L49.784,21.572L49.807,21.624L49.759,21.698L49.739,21.740L49.724,21.787L49.688,21.787L49.644,21.794L49.620,21.879L49.608,22.130L49.576,22.253L49.499,22.381L49.326,22.577L49.318,22.542L49.292,22.465L49.254,22.379L49.206,22.312L49.295,22.134L49.317,22.037L49.290,21.952L49.224,21.922L49.157,21.961L49.107,22.028L49.087,22.079L49.020,22.205L49.018,22.280L49.163,22.339L49.159,22.398L49.114,22.455L49.047,22.476L49.047,22.529L49.089,22.539L49.161,22.570L49.206,22.577L49.161,22.711L49.055,22.785L48.925,22.797L48.818,22.704L48.756,22.617L48.606,22.476L48.501,22.403L48.439,22.401L48.287,22.529L48.287,22.577L48.367,22.577L48.213,23.114L48.172,23.422L48.207,23.758L48.284,24.008L48.337,24.129L48.387,24.182L48.401,24.268L48.367,24.817L48.388,25.161L48.566,25.940L48.589,26.142L48.606,26.200L48.632,26.246L48.712,26.351L48.729,26.388L48.741,26.553L48.776,26.709L48.885,27.000L49.008,27.217L49.167,27.428L49.405,27.654L49.526,27.864L49.713,28.056L49.926,28.220L50.083,28.281L50.416,28.712L50.588,28.881L50.767,29.018L50.876,29.078L51.130,29.160L51.143,29.164L51.422,29.203L51.533,29.267L51.762,29.447L52.151,29.599L52.208,29.686L52.258,29.740L54.043,31.249L54.724,31.658L54.839,31.704L54.896,31.773L55.170,31.866L55.326,31.957L55.383,31.924L55.428,31.867L55.460,31.836L55.476,31.829L55.489,31.812L55.507,31.796L55.541,31.788L55.576,31.804L55.593,31.839L55.604,31.874L55.623,31.889L55.734,31.947L55.819,32.075L55.885,32.203L55.942,32.260L56.053,32.286L56.156,32.356L56.208,32.460L56.164,32.583L56.999,34.660L57.091,34.816L57.116,34.871L57.153,35.150L57.177,35.216L57.247,35.324L57.434,35.719L57.515,35.995L57.613,36.650L57.847,37.471L58.075,38.272L58.284,38.799L58.405,39.047L58.766,39.619L58.799,39.737L58.837,39.820L59.684,40.819L60.055,41.144L60.475,41.418L60.657,41.573L60.900,41.971L61.665,42.717L61.873,42.849L62.209,42.985L62.443,43.029L62.534,43.106L62.579,43.226L62.613,43.546L62.652,43.699L62.717,43.811L62.815,43.856L62.849,43.863L62.947,43.884L63.062,43.953L63.270,44.125L63.478,44.221L63.950,44.304L64.193,44.385L64.272,44.457L64.431,44.665L64.493,44.709L64.598,44.745L64.838,44.919L64.949,44.978L65.067,45.002L65.194,45.028L65.873,45.026L66.566,45.184L66.831,45.190L67.795,45.026L68.746,45.079L70.220,44.902L70.708,45.026L70.715,45.040L70.881,45.090L71.000,45.301L71.107,45.296L71.088,45.420L71.132,45.566L71.183,45.854L71.187,45.955L71.186,46.091L71.136,46.178L71.033,46.304L70.912,46.417L70.806,46.467L70.687,46.504L70.585,46.594L70.430,46.785L70.222,46.952L69.626,47.262L69.479,47.459L69.428,47.752L69.457,48.066L69.547,48.326L69.674,48.508L69.835,48.663L70.188,48.909L70.558,49.026L70.647,49.097L70.727,49.180L71.819,49.685L72.746,50.191L73.098,50.288L73.202,50.371L73.294,50.464L73.525,50.623L74.905,51.094L75.027,51.197L75.066,51.197L75.066,51.140L75.103,51.140L75.224,51.267L76.227,51.594L77.078,52.066L77.505,52.383L77.702,52.580L77.922,52.912L78.000,52.956L78.096,52.988L78.305,53.152L78.670,53.548L78.762,53.592L78.881,53.624L79.091,53.766L79.594,53.898L79.657,53.939L80.258,54.188L80.815,54.603L81.270,54.690L81.468,54.787L81.462,54.970L81.529,54.971L81.678,54.921L81.766,54.940L81.790,54.991L81.792,55.060L81.817,55.138L81.954,55.270L81.977,55.318L81.944,55.668L82.425,56.074L82.960,56.384L83.075,56.410L83.115,56.438L83.235,56.648L83.301,56.721L83.494,56.887L83.645,57.145L83.730,57.261L83.834,57.311L83.886,57.362L84.275,57.911L84.641,58.807L84.666,58.854L84.696,58.890L84.735,58.910L84.706,59.000L84.721,59.055L84.743,59.105L84.735,59.180L84.688,59.257L84.594,59.334L84.545,59.562L84.469,59.653L84.257,59.816L84.124,60.155L84.104,60.235L84.082,60.398L84.028,60.568L84.015,60.642L84.056,60.842L84.059,60.933L83.979,61.346L83.995,61.410L83.965,61.435L83.905,61.544L83.873,61.569L83.746,61.558L83.699,61.542L83.652,61.516L83.370,61.285L83.274,61.251L83.034,61.251L82.957,61.238L82.813,61.140L82.669,61.073L82.487,60.895L82.275,60.745L82.197,60.717L82.143,60.677L81.768,60.099L81.698,60.027L81.698,59.970L81.790,59.964L81.844,59.911L81.854,59.822L81.817,59.710L81.755,59.642L81.599,59.590L81.536,59.546L81.742,59.413L81.789,59.245L81.709,59.056L81.536,58.857L81.379,58.725L81.294,58.623L81.256,58.510L81.254,58.361L81.241,58.230L81.207,58.126L81.140,58.057L81.217,58.057L81.217,58.009L80.927,57.774L80.837,57.740L78.880,57.634L78.774,57.604L78.462,57.422L78.404,57.417L78.282,57.429L78.223,57.422L78.180,57.390L78.079,57.285L78.041,57.262L77.942,57.237L77.622,57.045L77.293,56.922L77.135,56.838L77.061,56.728L77.197,56.666L77.311,56.565L77.339,56.441L77.220,56.308L77.336,56.263L77.618,56.318L77.738,56.251L77.779,56.122L77.667,56.114L77.420,56.198L77.430,56.180L77.460,56.140L77.336,56.088L77.229,56.134L77.122,56.211L77.001,56.251L76.954,56.224L76.922,56.163L76.895,56.092L76.863,56.039L76.803,56.014L76.672,56.012L76.620,55.991L76.182,55.962L75.754,56.167L75.381,56.535L75.096,56.956L74.626,57.650L74.502,57.898L74.363,58.353L74.323,58.433L74.237,58.488L74.024,58.857L73.794,59.069L73.704,59.153L73.588,59.335L73.543,59.628L73.557,59.726L73.640,60.017L73.745,60.253L73.687,60.351L73.593,60.433L73.498,60.613L73.224,60.880L73.025,61.251L72.929,61.500L72.918,61.735L72.990,61.954L73.144,62.152L73.144,62.205L73.069,62.400L73.245,62.623L73.511,62.810L73.706,62.899L74.434,62.940L74.625,63.005L74.716,63.068L74.821,63.165L74.907,63.280L74.944,63.402L74.996,63.462L75.345,63.641L75.619,63.877L75.724,63.911L75.866,63.928L75.960,63.979L76.030,64.062L76.102,64.176L76.227,64.324L76.410,64.472L76.618,64.578L76.819,64.599L76.606,65.126L76.564,65.557L76.561,65.661L76.580,65.765L76.621,65.853L76.722,66.026L76.743,66.117L76.712,66.363L76.606,66.812L76.620,67.047L76.756,67.331L76.779,67.396L76.817,67.438L77.016,67.511L77.097,67.523L76.983,67.604L76.923,67.658L76.899,67.712L76.894,68.016L76.899,68.058L76.703,68.243L76.681,68.275L76.638,68.305L76.587,68.375L76.500,68.535L76.447,68.380L76.305,68.351L76.140,68.402L76.022,68.482L75.872,68.299L75.784,68.239L75.644,68.217L75.515,68.228L74.952,68.387L74.306,68.692L74.072,68.871L74.024,68.935L73.973,68.989L73.622,69.176L73.477,69.321L73.411,69.420L73.349,69.640L73.275,69.759L73.204,69.899L73.181,70.081L73.251,70.133L73.264,70.158L73.260,70.297L73.321,70.887L73.426,71.411L73.427,71.610L73.383,72.180L73.335,72.282L73.106,72.508L73.025,72.630L72.963,72.647L72.785,72.807L72.599,72.874L72.043,73.178L71.848,73.363L71.050,74.402L70.947,74.653L70.793,75.476L70.708,75.718L70.652,75.820L70.586,75.907L70.511,75.980L70.430,76.036L70.154,76.098L70.067,76.142L69.724,76.033L68.670,76.093L68.515,76.049L68.360,75.971L68.221,75.874L68.112,75.770L67.994,75.604L67.933,75.443L67.952,75.298L68.070,75.183L67.919,74.937L67.869,74.798L67.889,74.680L67.971,74.536L68.007,74.402L68.000,74.255L67.950,74.070L67.920,73.804L68.024,73.642L68.220,73.549L68.816,73.355L68.870,73.297L68.887,73.257L68.970,73.180L68.989,73.138L69.069,72.789L69.506,71.835L69.582,71.502L69.572,71.242L69.479,71.025L69.308,70.824L69.266,70.793L69.186,70.753L69.152,70.717L69.102,70.637L69.091,70.594L69.100,70.552L69.108,70.476L69.155,70.388L69.263,70.326L69.506,70.240L69.875,69.983L70.077,69.883L70.346,69.865L70.766,69.918L70.855,69.895L70.951,69.840L71.107,69.706L71.233,69.487L71.316,69.194L71.354,68.865L71.345,68.535L71.313,68.380L71.255,68.264L71.167,68.190L71.047,68.164L70.961,68.101L70.876,67.955L70.546,67.168L70.306,65.341L70.260,65.072L70.035,64.346L69.817,64.045L69.671,63.765L69.506,63.592L69.340,63.472L69.289,63.375L69.243,63.182L69.188,62.981L69.108,62.686L68.987,62.483L68.932,62.354L68.829,61.569L68.829,61.618L68.801,61.465L68.772,61.387L68.728,61.352L68.718,61.309L68.790,61.010L68.746,60.836L68.554,60.537L68.511,60.427L68.475,60.269L68.389,60.138L68.189,59.922L68.030,59.652L67.906,59.543L67.873,59.487L67.870,59.387L67.788,59.423L67.349,59.387L67.222,59.465L67.118,59.628L66.911,59.763L66.735,59.992L66.621,60.037L66.334,59.999L66.231,59.958L66.062,59.729L65.995,59.710L65.940,59.739L65.880,59.759L65.817,59.767L65.753,59.763L65.753,59.710L65.857,59.621L65.766,59.418L65.594,59.214L65.452,59.122L65.337,59.066L64.971,58.674L64.887,58.634L64.789,58.647L64.613,58.698L64.505,58.679L64.433,58.630L64.362,58.472L64.248,58.359L64.089,58.288L64.033,58.248L63.979,58.193L63.869,58.222L63.775,58.143L63.711,58.115L63.687,57.983L63.832,57.774L63.875,57.607L63.835,57.474L63.835,57.400L63.892,57.369L63.961,57.352L64.022,57.312L64.072,57.259L64.197,57.209L64.232,57.128L64.219,56.905L64.089,56.642L63.581,55.543L63.422,55.278L63.270,55.081L63.120,54.923L62.958,54.792L62.784,54.738L62.596,54.815L62.424,54.953L62.352,54.972L62.047,54.953L61.974,54.978L61.729,55.196L61.571,55.228L61.409,55.180L61.235,55.081L61.147,55.142L60.859,55.213L60.739,55.317L60.473,55.461L60.396,55.562L60.321,55.454L60.310,55.292L60.367,55.144L60.495,55.081L60.612,55.071L60.657,55.047L60.720,54.994L60.758,54.899L60.988,54.666L61.176,54.596L61.195,54.468L61.163,54.327L61.084,54.215L60.979,54.130L60.854,54.162L60.762,54.116L60.698,54.080L60.629,53.997L60.536,53.935L60.432,53.806L60.219,53.563L60.113,53.481L60.006,53.471L59.846,53.489L59.702,53.538L59.638,53.621L59.584,53.772L59.460,53.774L59.363,53.659L59.186,53.638L59.048,53.552L58.957,53.519L58.879,53.539L58.842,53.609L58.849,53.701L58.871,53.804L58.879,53.909L58.837,53.888L58.676,53.862L58.638,53.809L58.702,53.490L58.657,53.206L58.522,52.836L58.195,52.257L57.990,52.119L57.919,52.046L57.899,51.972L57.889,51.807L57.876,51.728L57.723,51.416L57.533,51.086L57.176,50.632L56.775,50.270L56.698,50.239L56.524,50.285L56.434,50.284L56.395,50.215L56.032,50.265L55.853,50.382L55.922,50.614L55.738,50.626L55.682,50.614L55.629,50.557L55.596,50.482L55.566,50.447L55.523,50.508L55.480,50.508L55.366,50.373L54.457,49.941L54.232,49.934L53.760,50.027L53.656,50.071L53.447,50.210L53.233,50.282L53.093,50.471L52.963,50.508L52.826,50.463L52.780,50.363L52.761,50.235L52.704,50.106L52.635,50.005L52.523,49.780L52.446,49.660L52.121,49.282L51.945,49.130L51.762,49.020L51.642,48.982L51.183,48.959L51.099,48.941L50.691,48.675L50.548,48.615L50.480,48.673L50.438,48.756L50.346,48.666L49.915,48.006L49.346,47.334L48.733,46.779L48.642,46.708L48.487,46.661L48.396,46.585L48.347,46.568L48.174,46.535L48.128,46.515L48.037,46.403L47.989,46.268L47.969,46.117L47.965,45.959L47.936,45.808L47.869,45.653L47.726,45.403L47.594,45.217L47.025,44.777L46.960,44.738L46.907,44.679L46.886,44.578L46.852,44.522L46.687,44.497L46.630,44.470L46.553,44.379L46.458,44.295L46.352,44.224L46.249,44.174L45.799,44.185L45.728,44.203L45.696,44.105L45.622,43.953L45.530,43.812L45.449,43.750L45.404,43.643L45.277,43.475L45.250,43.408L45.234,43.286L45.195,43.157L44.880,42.511L44.740,42.300L44.046,41.760L43.755,41.679L43.355,41.467L43.212,41.418L43.212,41.361L43.158,41.330L43.098,41.310L43.035,41.302L42.970,41.307L43.013,41.361L42.844,41.359L42.412,41.202L42.334,41.190L42.228,41.191L42.134,41.217L42.094,41.278L42.074,41.399L41.988,41.524L41.974,41.625L41.920,41.601L41.862,41.601L41.820,41.614L41.811,41.625L41.764,41.585L41.686,41.486L41.524,41.431L41.453,41.342L41.408,41.221L41.409,41.135L41.480,41.031L41.561,41.004L41.729,41.062L41.859,41.054L41.950,40.925L42.001,40.740L42.004,40.551L41.991,40.426L41.870,40.229L41.826,40.090L41.768,40.097L41.702,40.130L41.652,40.137L41.578,40.029L41.527,39.883L41.470,39.758L41.374,39.713L41.356,39.561L41.214,39.446L40.935,39.284L40.903,39.191L40.876,39.066L40.843,38.955L40.792,38.909L40.740,38.880L40.573,38.701L40.265,38.539L39.335,38.225L39.475,38.110L39.531,37.985L39.539,37.838L39.535,37.660L39.553,37.607L39.587,37.574L39.605,37.524L39.578,37.420L39.523,37.341L39.448,37.287L39.044,37.102L38.758,37.029L38.471,37.019L38.214,37.102L38.239,37.182L38.257,37.213L38.094,37.287L37.983,37.168L37.855,36.784L38.001,36.663L38.085,36.521L38.214,36.090L38.194,35.997L38.194,35.833L38.215,35.665L38.257,35.565L38.209,35.432L38.187,35.269L38.178,34.951L38.150,34.791L38.085,34.636L37.618,33.691L37.247,33.189L37.164,33.095L36.973,33.005L36.920,32.883L36.789,32.294L36.609,30.425L36.537,30.136L36.295,29.564L36.123,29.293L35.866,29.111L35.687,28.815L35.598,28.748L35.490,28.716L35.276,28.574L35.156,28.541L35.061,28.495L35.003,28.482L34.977,28.515L34.957,28.558L34.910,28.590L34.852,28.599L34.799,28.568L34.707,28.477L34.512,28.325L34.416,28.223L34.351,28.264L34.164,28.102L34.058,28.113L34.097,28.170L34.070,28.184L34.043,28.207L34.018,28.223L34.046,28.286L34.082,28.333L34.126,28.365L34.180,28.383L34.180,28.431L34.146,28.453L34.130,28.477L34.097,28.541L34.174,28.586L34.151,28.626L34.092,28.617L34.058,28.515L34.019,28.453L33.739,28.329L33.442,28.065L33.377,28.031L33.219,27.886L33.160,27.852L32.989,27.841L32.918,27.823L32.860,27.795L32.656,27.566L32.620,27.557L32.580,27.458L32.483,27.392L32.219,27.275L32.148,27.224L32.094,27.153L32.063,27.053L31.993,27.084L31.885,27.100L31.785,27.087L31.741,27.026L31.701,26.952L31.422,26.836L31.382,26.660L30.770,26.334L30.583,26.200L30.527,26.275L30.484,26.357L30.461,26.455L30.467,26.576L30.200,26.475L30.093,26.395L30.105,26.306L29.996,26.125L29.833,26.043L29.245,25.940L28.963,25.842L28.793,25.751L28.740,25.772L28.470,25.765L28.336,25.736L28.292,25.707L28.229,25.620L27.852,25.592L27.705,25.617L27.633,25.655L27.464,25.789L27.403,25.856L27.363,25.882L27.319,25.882L27.271,25.875L27.227,25.882L26.869,26.130L26.769,26.147L26.700,26.173L26.557,26.306L26.124,26.584L25.998,26.742L26.029,26.894L25.969,26.980L25.952,27.024L25.945,27.079L25.928,27.098L25.839,27.155L25.808,27.183L25.777,27.276L25.788,27.361L25.787,27.443L25.707,27.530L25.560,27.599L25.234,27.700L25.066,27.795L24.978,27.869L24.902,27.949L24.766,28.141L24.747,28.198L24.754,28.322L24.747,28.383L24.711,28.501L24.667,28.594L24.392,28.894L24.296,29.076L24.386,29.235L24.386,29.283L24.250,29.313L24.078,29.507L23.926,29.567L23.882,29.603L23.846,29.647L23.832,29.686L23.801,29.747L23.731,29.783L23.589,29.818L23.171,30.087L22.157,30.327L21.870,30.511L21.627,30.566L20.910,30.565L20.747,30.618L20.671,30.618L20.625,30.583L20.565,30.559L20.503,30.558L20.389,30.185L20.361,29.989L20.452,29.828L20.704,29.560L20.822,29.379L21.123,29.135L21.254,28.995L21.299,28.906L21.347,28.732L21.384,28.637L21.448,28.568L21.533,28.506L21.598,28.423L21.609,28.288L21.586,28.241L21.518,28.099L21.389,27.976L21.317,27.831L21.398,27.579L21.217,27.548L20.977,27.698L20.809,27.711L19.795,27.991L19.560,27.986L19.504,27.973L19.450,27.922L19.418,27.857L19.378,27.801L19.301,27.772L19.149,27.748L19.040,27.703L18.419,27.337L18.186,27.255L17.843,27.080L17.769,27.060L17.691,27.066L17.621,27.089L17.551,27.100L17.474,27.069L17.419,27.009L17.392,26.942L17.373,26.869L17.336,26.793L17.283,26.733L17.167,26.653L17.114,26.600L17.082,26.542L17.013,26.384L16.967,26.308L16.839,26.164L16.815,26.129L16.793,26.057L16.794,26.018L16.809,25.971L16.858,25.729L16.899,25.662L17.095,25.559L16.942,25.437L16.765,25.259L16.634,25.042L16.616,24.801L16.678,24.696L16.975,24.479L17.175,24.149L17.257,24.091L17.191,23.926L17.233,23.769L17.340,23.643L17.474,23.573L17.581,23.572L17.791,23.632L17.896,23.630L17.862,23.529L17.685,23.211L17.662,23.145L17.631,22.953L17.565,22.785L17.569,22.775L17.598,22.652L17.609,22.647L17.608,22.609L17.614,22.589L17.615,22.565L17.603,22.519L17.579,22.480L17.474,22.372L17.181,22.258L17.080,22.250L16.793,22.304L16.682,22.278L16.280,22.056L16.089,21.900L15.987,21.737L15.999,21.303L15.961,21.080L15.808,20.975L15.604,20.957L15.543,20.907L15.473,20.793L15.457,20.723L15.464,20.661L15.454,20.606L15.360,20.529L15.257,20.381L15.326,20.293L15.413,20.225L15.432,20.210L15.634,20.100L15.686,20.092L15.791,20.095L15.837,20.088L15.888,20.061L15.993,19.984L16.037,19.963L16.241,19.995L16.455,20.104L16.665,20.174L16.855,20.088L16.866,20.040L16.832,20.004L16.805,19.962L16.836,19.896L16.882,19.877L17.018,19.875L17.071,19.863L17.157,19.790L17.258,19.623L17.333,19.556L17.542,19.466L17.747,19.413L17.794,19.432L17.867,19.515L17.897,19.526L17.937,19.488L18.048,19.297L18.206,19.172L18.206,19.050L18.143,18.895L18.114,18.670L18.144,18.624L18.333,18.413L18.453,18.210L18.505,18.091L18.511,17.995L18.466,17.962L18.216,17.860L18.139,17.805L18.092,17.718L18.051,17.621L18.014,17.565L17.994,17.536L17.740,17.357L17.474,17.217L17.430,17.104L17.398,16.783L17.375,16.726L17.311,16.634L17.300,16.572L17.315,16.507L17.382,16.371L17.396,16.327L17.360,16.211L17.289,16.164L17.099,16.119L17.022,16.064L16.889,15.941L16.811,15.914L16.659,15.885L16.501,15.776L16.384,15.610L16.318,15.289L16.303,15.150L16.307,15.011L16.338,14.884L16.412,14.770L16.502,14.720L16.660,14.675L16.711,14.694L16.749,14.715L16.783,14.766L16.820,14.756L16.826,14.721L16.832,14.667L16.836,14.627L16.876,14.622L17.020,14.623L17.145,14.589L17.277,14.526L17.394,14.434L17.474,14.309L17.510,14.205L17.557,14.111L17.619,14.040L17.703,14.003ZM49.238,29.783L49.419,29.758L49.523,29.589L49.518,29.566L49.521,29.541L49.531,29.521L49.546,29.505L49.551,29.495L49.593,29.418L49.605,29.284L49.587,29.154L49.546,29.081L49.377,29.108L49.191,29.200L49.131,29.258L49.041,29.346L48.983,29.531L49.064,29.696L49.238,29.783ZM49.376,45.223L49.382,45.223L49.381,45.214L49.376,45.214L49.374,45.217L49.374,45.221L49.376,45.223ZM46.731,84.548L46.953,84.775L47.034,84.902L47.046,85.078L46.912,85.282L46.711,85.254L46.507,85.097L46.368,84.914L46.343,84.861L46.296,84.734L46.280,84.607L46.351,84.548L46.377,84.539L46.420,84.503L46.450,84.495L46.487,84.512L46.543,84.585L46.567,84.601L46.621,84.617L46.660,84.639L46.692,84.630L46.731,84.548ZM48.327,75.983L48.407,75.990L48.466,75.969L48.515,75.940L48.566,75.930L48.607,75.975L48.698,76.033L48.802,76.080L48.885,76.093L48.820,76.180L48.729,76.187L48.636,76.147L48.566,76.093L48.481,76.140L48.412,76.122L48.359,76.063L48.327,75.983ZM67.313,73.164L67.491,73.184L67.822,73.338L68.030,73.377L68.010,73.443L67.976,73.478L67.930,73.488L67.870,73.482L67.634,73.647L67.552,73.752L67.513,73.850L67.495,73.963L67.588,73.960L67.303,74.452L67.147,74.854L66.519,75.698L65.995,76.566L65.883,76.810L65.782,76.973L65.636,77.100L65.472,77.365L65.434,77.471L65.444,77.554L65.504,77.701L65.514,77.789L65.490,77.867L65.408,77.955L65.390,78.030L65.377,78.190L65.306,78.418L65.271,78.584L65.185,78.868L64.905,79.221L64.793,79.437L64.763,79.569L64.752,79.709L64.766,80.476L64.793,80.607L64.833,80.715L64.875,80.777L65.279,81.018L65.498,81.063L65.610,81.142L65.699,81.274L65.753,81.460L65.658,81.364L65.604,81.397L65.564,81.487L65.514,81.566L65.522,81.432L65.488,81.375L65.427,81.375L65.354,81.412L65.390,81.508L65.299,81.664L65.365,81.906L65.492,82.070L65.590,81.995L65.673,82.043L65.673,82.096L65.566,82.113L65.581,82.227L65.668,82.357L65.773,82.418L65.914,82.433L65.998,82.489L66.025,82.602L65.995,82.790L65.909,82.739L65.874,82.802L65.884,82.899L65.931,82.949L66.051,82.933L66.102,82.962L66.151,83.059L66.168,83.184L66.123,83.209L66.062,83.178L66.031,83.137L65.999,83.149L65.793,83.271L65.833,83.324L65.782,83.357L65.768,83.374L65.793,83.426L65.793,83.483L65.655,83.491L65.552,83.548L65.464,83.612L65.373,83.642L65.248,83.709L65.153,83.863L64.857,84.671L64.851,84.760L64.778,84.830L64.806,84.986L64.913,85.237L65.016,85.698L65.013,85.795L64.897,85.914L64.777,85.953L64.659,85.920L64.551,85.824L64.467,85.698L64.422,85.650L64.352,85.608L64.271,85.581L64.217,85.586L64.193,85.634L64.127,85.689L63.980,85.620L63.755,85.449L63.542,85.365L63.336,85.399L62.951,85.608L62.924,85.543L62.908,85.525L62.835,85.555L62.738,85.454L62.390,85.401L62.315,85.264L62.240,85.185L61.897,85.043L61.793,84.972L61.698,84.995L61.240,84.878L61.172,84.789L60.698,83.701L60.555,83.483L60.024,82.933L59.614,82.645L59.134,82.403L58.914,82.361L58.259,82.418L58.207,82.435L58.098,82.508L58.039,82.530L57.782,82.492L57.422,82.191L57.200,82.096L56.949,82.040L56.740,81.944L56.551,81.805L56.058,81.282L55.885,81.152L55.682,81.085L55.415,81.036L55.205,80.955L55.024,80.834L54.737,80.588L54.488,80.432L54.381,80.319L54.327,80.281L54.252,80.254L54.187,80.219L54.043,79.923L54.008,79.891L53.880,79.813L53.814,79.719L53.767,79.674L53.700,79.654L53.669,79.629L53.612,79.519L53.581,79.495L52.866,79.389L52.780,79.434L52.719,79.446L52.664,79.413L52.626,79.340L52.590,79.184L52.566,79.119L52.415,78.948L52.231,78.862L51.762,78.801L51.288,78.818L50.803,78.907L50.579,78.888L50.444,78.756L50.202,78.324L50.103,78.214L50.020,78.169L49.787,78.165L49.686,78.109L49.586,77.976L49.500,77.819L49.446,77.688L49.419,77.573L49.411,77.471L49.395,77.378L49.346,77.288L49.278,77.196L49.224,77.089L49.226,76.994L49.326,76.941L49.335,76.974L49.419,76.918L49.446,76.888L49.434,76.866L49.476,76.651L49.489,76.645L49.520,76.502L49.525,76.435L49.514,76.399L49.462,76.312L49.446,76.243L49.440,76.189L49.443,76.180L49.457,76.164L49.594,75.870L49.630,75.664L49.667,75.536L49.674,75.426L49.608,75.347L49.786,75.269L49.939,75.088L50.095,74.957L50.282,75.029L50.458,74.896L50.534,74.803L50.565,74.680L50.597,74.611L50.676,74.614L50.769,74.643L50.843,74.653L50.964,74.536L50.956,74.346L50.932,74.151L51.001,74.017L51.036,74.109L51.104,74.100L51.171,74.109L51.202,74.251L51.345,74.604L51.506,74.908L51.567,74.971L51.731,75.059L51.801,75.115L51.805,75.183L51.989,75.295L52.240,75.258L52.725,75.029L52.924,74.865L52.972,74.806L52.981,74.772L52.971,74.726L52.963,74.629L52.952,74.558L52.897,74.483L52.885,74.412L53.087,74.225L53.054,74.157L53.088,74.090L53.154,74.038L53.222,74.017L53.279,74.031L53.481,74.119L53.612,74.146L53.774,74.147L53.909,74.080L53.960,73.907L54.049,73.941L54.117,73.920L54.181,73.880L54.296,73.849L54.375,73.809L54.421,73.801L54.451,73.822L54.461,73.870L54.467,73.924L54.481,73.960L54.701,74.119L54.735,74.172L54.743,74.421L54.763,74.494L54.848,74.712L55.560,74.655L55.722,74.783L55.711,74.917L55.720,74.989L55.758,75.077L55.817,75.132L55.989,75.210L56.195,75.395L56.363,75.506L56.635,75.563L56.718,75.607L56.693,75.629L56.690,75.637L56.678,75.665L56.804,75.661L57.177,75.718L57.305,75.685L57.565,75.539L57.804,75.479L57.886,75.415L57.959,75.343L58.039,75.289L58.439,75.216L58.517,75.130L58.762,75.279L58.883,75.328L59.017,75.347L59.103,75.338L59.280,75.289L59.991,75.396L60.329,75.373L60.641,75.284L60.916,75.130L61.104,75.225L61.382,75.169L62.099,74.881L62.292,74.743L62.456,74.574L62.677,74.290L62.741,74.261L62.932,74.277L63.052,74.269L63.495,74.150L63.576,74.096L63.632,74.070L63.688,74.057L63.852,74.070L63.909,74.102L64.014,74.245L64.053,74.277L64.123,74.285L64.272,74.335L64.457,74.323L64.515,74.335L64.539,74.362L64.598,74.460L64.630,74.494L64.742,74.518L64.844,74.477L64.944,74.418L65.264,74.300L65.415,74.091L65.633,73.642L65.615,73.582L65.606,73.565L65.612,73.546L65.633,73.482L65.613,73.458L65.648,73.458L65.666,73.539L65.633,73.726L65.660,73.827L65.732,73.882L65.828,73.903L65.931,73.907L66.102,73.876L66.560,73.708L66.690,73.615L66.759,73.548L66.987,73.435L67.221,73.204L67.313,73.164ZM64.033,72.153L64.033,72.264L64.127,72.312L64.193,72.385L64.240,72.477L64.272,72.582L64.221,72.633L64.153,72.687L64.017,72.551L63.928,72.436L63.911,72.314L63.989,72.153L64.033,72.153ZM63.691,71.835L63.643,71.775L63.650,71.643L63.703,71.514L63.791,71.459L63.984,71.462L64.032,71.506L63.989,71.618L64.028,71.652L64.079,71.710L64.109,71.729L64.109,71.777L63.953,71.777L63.984,71.869L64.003,71.904L64.033,71.936L64.033,71.994L63.931,72.014L63.848,71.954L63.772,71.875L63.691,71.835ZM63.432,71.252L63.423,71.328L63.203,71.230L63.027,71.077L63.150,70.982L63.363,70.974L63.454,71.003L63.512,71.093L63.483,71.126L63.465,71.163L63.432,71.252ZM26.065,67.181L26.077,67.224L26.107,67.245L26.146,67.242L26.184,67.210L26.190,67.203L26.200,67.191L26.228,67.210L26.112,67.313L26.085,67.365L26.108,67.422L26.053,67.533L26.010,67.796L25.955,68.007L25.928,68.040L25.866,68.058L25.796,68.048L25.774,68.008L25.768,67.954L25.747,67.899L25.534,67.523L25.443,67.269L25.468,67.104L25.468,67.047L25.424,67.047L25.424,66.993L25.508,66.835L25.657,66.937L25.842,66.925L25.999,66.955L26.065,67.181ZM25.190,66.252L25.192,66.504L25.226,66.818L25.190,66.940L25.097,66.985L24.977,66.974L24.891,66.920L24.907,66.835L24.907,66.786L24.763,66.633L24.716,66.533L24.747,66.411L24.836,66.347L25.099,66.290L25.190,66.252ZM58.075,54.545L58.017,54.514L57.930,54.523L57.835,54.558L57.757,54.603L57.709,54.561L57.579,54.498L57.518,54.439L57.559,54.287L57.590,54.216L57.640,54.180L57.623,54.149L57.597,54.073L57.716,54.073L58.084,54.207L58.198,54.286L58.180,54.333L58.178,54.378L58.198,54.439L58.157,54.466L58.075,54.545ZM25.008,51.785L24.871,51.890L24.870,52.104L24.843,52.279L24.629,52.262L24.675,52.190L24.699,52.118L24.707,52.043L24.707,51.968L24.741,51.905L24.814,51.825L24.927,51.728L25.013,51.688L25.026,51.595L25.013,51.489L25.026,51.409L25.064,51.400L25.168,51.414L25.190,51.383L25.202,51.346L25.233,51.309L25.308,51.250L25.307,51.311L25.319,51.356L25.344,51.409L25.400,51.470L25.416,51.560L25.396,51.654L25.344,51.728L25.008,51.785ZM33.858,55.668L34.023,55.828L34.058,55.880L34.059,55.958L33.992,56.090L33.974,56.169L33.955,56.337L33.905,56.455L33.776,56.675L33.680,56.958L33.608,57.063L33.480,57.103L33.393,57.147L33.325,57.251L33.222,57.474L33.146,57.564L33.002,57.693L32.939,57.797L32.890,57.949L32.882,58.068L32.907,58.395L32.918,58.468L33.056,58.868L33.116,58.969L33.202,59.011L33.249,59.054L33.380,59.243L33.508,59.339L33.497,59.459L33.282,60.046L33.246,60.292L33.301,60.505L33.335,60.478L33.377,60.454L33.412,60.455L33.424,60.505L33.405,60.577L33.368,60.595L33.329,60.595L33.301,60.615L33.259,60.716L33.229,60.811L33.226,60.902L33.261,60.986L33.222,60.986L33.222,61.034L33.249,61.050L33.273,61.077L33.301,61.092L33.301,61.140L33.228,61.233L33.178,61.396L33.147,61.591L33.138,61.781L33.145,61.880L33.175,62.070L33.182,62.179L33.169,62.257L33.115,62.386L33.102,62.499L33.089,62.546L33.062,62.607L33.035,62.688L33.022,62.793L33.062,63.137L33.046,63.352L32.903,63.857L32.999,63.996L32.965,64.240L32.819,64.652L32.749,64.992L32.740,65.105L32.758,65.220L32.805,65.295L32.939,65.399L32.939,65.447L32.779,65.509L32.631,65.685L32.548,65.904L32.581,66.092L32.536,66.160L32.555,66.205L32.597,66.247L32.620,66.300L32.608,66.360L32.553,66.515L32.541,66.594L32.491,66.668L32.385,66.712L32.286,66.782L32.262,66.940L32.217,66.914L32.195,66.887L32.198,66.849L32.223,66.786L32.133,66.715L32.041,66.700L31.952,66.728L31.864,66.786L31.821,66.786L31.792,66.717L31.740,66.676L31.621,66.618L31.474,66.438L31.441,66.411L31.384,66.377L31.250,66.227L31.201,66.194L31.140,66.178L31.059,66.138L30.985,66.087L30.942,66.035L30.902,66.092L30.820,66.040L30.710,66.004L30.499,65.982L30.389,66.036L30.293,66.144L30.227,66.251L30.206,66.300L30.036,66.244L29.900,66.110L29.664,65.823L29.610,65.865L29.562,65.831L29.515,65.765L29.464,65.717L29.380,65.696L29.319,65.704L29.311,65.730L29.388,65.765L29.388,65.823L29.360,65.886L29.395,65.922L29.443,65.950L29.459,65.989L29.464,65.982L29.530,66.001L29.675,65.968L29.703,66.009L29.703,66.071L29.698,66.104L29.463,66.362L29.391,66.470L29.345,66.618L29.331,66.791L29.347,66.945L29.381,67.083L29.424,67.210L29.458,67.258L29.493,67.299L29.500,67.354L29.409,67.517L29.345,67.788L29.388,67.788L29.326,67.832L29.308,67.824L29.265,67.788L29.217,67.885L28.624,68.510L28.584,68.529L28.523,68.535L28.494,68.559L28.429,68.667L28.382,68.699L28.313,68.679L28.234,68.615L28.103,68.482L28.103,68.641L28.019,68.494L27.877,68.370L27.719,68.290L27.585,68.275L27.457,68.332L27.306,68.446L27.206,68.594L27.227,68.752L27.144,68.805L27.108,68.752L27.155,68.606L27.098,68.562L26.996,68.560L26.904,68.535L26.904,68.482L26.993,68.350L26.995,68.159L26.924,68.024L26.789,68.058L26.743,67.646L26.669,67.312L26.626,67.312L26.580,67.354L26.443,67.280L26.348,67.263L26.375,67.225L26.427,67.104L26.348,67.047L26.221,67.128L26.218,67.099L26.191,67.050L26.166,66.919L26.118,66.825L26.055,66.782L25.985,66.835L25.960,66.755L25.964,66.563L25.945,66.464L25.904,66.408L25.848,66.376L25.812,66.388L25.830,66.464L25.794,66.438L25.768,66.398L25.752,66.344L25.747,66.276L25.731,66.191L25.695,66.168L25.654,66.165L25.623,66.141L25.580,66.028L25.574,65.962L25.603,65.906L25.893,65.553L25.926,65.409L25.830,65.240L25.839,65.121L25.634,64.960L25.587,64.812L25.611,64.741L25.713,64.614L25.747,64.551L25.768,64.436L25.761,64.369L25.677,64.163L25.657,64.139L25.662,64.106L25.707,64.016L25.866,63.804L25.945,63.676L26.040,63.419L26.108,63.275L26.065,63.216L26.111,63.112L26.101,62.962L26.029,62.638L26.012,62.287L25.985,62.205L25.985,62.152L26.010,62.079L25.995,61.876L26.007,61.834L26.087,61.850L26.139,61.893L26.321,62.193L26.421,62.302L26.545,62.350L26.705,62.311L26.406,62.213L26.348,62.152L26.362,62.020L26.438,61.889L26.529,61.769L26.586,61.675L26.547,61.675L26.527,61.729L26.500,61.772L26.467,61.808L26.427,61.834L26.496,61.756L26.560,61.626L26.607,61.487L26.626,61.382L26.644,61.134L26.634,61.046L26.586,60.933L26.459,60.775L26.288,60.670L26.106,60.657L25.945,60.775L25.985,60.823L26.004,60.781L26.030,60.774L26.064,60.778L26.108,60.775L26.041,60.822L25.999,60.894L25.945,61.092L25.906,61.034L25.957,60.947L25.919,60.882L25.845,60.827L25.760,60.744L25.743,60.739L25.729,60.725L25.707,60.668L25.701,60.608L25.717,60.558L25.738,60.509L25.747,60.456L25.701,60.170L25.707,60.080L25.777,59.914L25.780,59.818L25.707,59.710L25.623,59.757L25.606,59.729L25.648,59.665L25.747,59.604L25.765,59.606L25.942,59.595L26.044,59.555L26.087,59.546L26.139,59.508L26.199,59.415L26.248,59.296L26.264,59.180L26.235,59.074L26.131,58.867L26.108,58.724L26.087,58.314L26.184,57.956L26.182,57.723L26.106,57.549L25.979,57.418L25.830,57.311L25.787,57.369L25.657,57.260L25.643,57.105L25.707,56.701L25.683,56.558L25.621,56.353L25.538,56.171L25.446,56.092L25.340,56.027L25.295,55.871L25.270,55.678L25.226,55.504L25.106,55.370L24.965,55.380L24.667,55.562L24.549,55.504L24.603,55.351L24.667,55.239L24.534,55.198L24.436,55.283L24.375,55.439L24.349,55.615L24.299,55.506L24.265,55.387L24.226,55.186L24.226,55.138L24.326,55.083L24.420,55.011L24.487,54.895L24.505,54.709L24.520,54.710L24.546,54.672L24.557,54.626L24.527,54.603L24.450,54.598L24.420,54.581L24.386,54.545L24.300,54.405L24.256,54.356L24.186,54.333L24.629,53.274L24.662,53.150L24.667,53.008L24.629,52.893L24.527,52.845L24.449,52.787L24.469,52.654L24.532,52.510L24.585,52.421L24.629,52.421L24.646,52.513L24.689,52.522L24.742,52.520L24.783,52.580L24.779,52.645L24.757,52.738L24.743,52.838L24.766,52.927L25.026,53.274L25.215,53.388L25.866,53.481L26.193,53.579L26.328,53.592L26.442,53.572L26.896,53.370L27.012,53.268L27.105,53.148L27.144,53.033L27.542,52.845L27.686,52.840L27.787,52.857L27.864,52.898L28.203,52.638L28.302,52.527L28.511,52.166L28.584,52.103L28.573,52.073L28.573,52.065L28.569,52.060L28.545,52.046L28.731,51.976L28.787,51.944L28.826,51.891L28.889,51.754L28.925,51.728L28.997,51.686L29.096,51.588L29.184,51.474L29.270,51.283L29.382,51.229L29.780,51.180L29.866,51.147L30.029,50.985L30.065,51.044L30.157,50.918L30.191,50.800L30.188,50.480L30.236,50.344L30.346,50.280L30.477,50.244L30.583,50.191L30.595,50.261L30.628,50.298L30.678,50.306L30.741,50.292L30.801,50.393L30.797,50.662L30.861,50.716L30.840,50.681L30.834,50.637L30.841,50.581L30.861,50.508L30.902,50.508L30.925,50.609L30.919,50.632L30.902,50.667L30.902,50.716L30.985,50.704L31.019,50.693L31.060,50.667L31.084,50.704L31.180,50.774L31.193,50.587L31.291,50.621L31.502,50.827L31.502,50.774L31.551,50.802L31.594,50.819L31.642,50.827L31.701,50.827L31.701,50.875L31.670,50.899L31.654,50.924L31.641,50.952L31.621,50.985L31.688,51.015L31.726,51.071L31.762,51.137L31.821,51.197L31.787,51.256L31.785,51.334L31.821,51.515L31.886,51.360L31.923,51.294L31.979,51.250L31.960,51.215L31.950,51.186L31.935,51.161L31.900,51.140L31.974,51.095L32.046,51.099L32.121,51.125L32.201,51.140L32.235,51.116L32.261,51.075L32.293,51.067L32.342,51.140L32.298,51.197L32.354,51.235L32.392,51.276L32.423,51.291L32.461,51.250L32.501,51.250L32.511,51.284L32.514,51.290L32.521,51.288L32.541,51.303L32.534,51.398L32.517,51.476L32.483,51.548L32.422,51.626L32.409,51.589L32.392,51.551L32.382,51.515L32.278,51.983L32.223,52.103L32.342,52.103L32.298,51.993L32.405,51.943L32.470,51.961L32.490,52.035L32.461,52.156L32.491,52.156L32.496,52.143L32.494,52.124L32.501,52.103L32.537,52.144L32.554,52.155L32.581,52.156L32.668,52.069L32.829,52.077L32.995,52.139L33.102,52.209L33.036,52.298L32.947,52.288L32.852,52.239L32.762,52.209L32.665,52.262L32.635,52.385L32.614,52.524L32.541,52.628L32.569,52.735L32.489,52.763L32.223,52.739L32.219,52.777L32.227,52.788L32.179,52.797L32.224,52.888L32.271,52.889L32.323,52.856L32.382,52.845L32.441,52.872L32.546,52.940L32.581,52.956L32.695,52.929L32.782,52.867L32.869,52.821L32.983,52.845L32.954,52.916L32.921,52.968L32.876,53.000L32.819,53.008L32.819,53.057L33.029,53.165L33.062,53.191L33.074,53.285L33.106,53.330L33.155,53.326L33.222,53.274L33.261,53.348L33.317,53.393L33.384,53.418L33.460,53.433L33.268,53.500L33.209,53.550L33.261,53.649L33.261,53.698L33.171,53.674L33.097,53.711L33.075,53.783L33.138,53.856L33.144,53.770L33.179,53.870L33.343,54.096L33.380,54.204L33.403,54.346L33.580,54.709L33.602,54.812L33.630,55.293L33.650,55.371L33.679,55.432L33.717,55.456L33.798,55.474L33.821,55.521L33.827,55.589L33.858,55.668ZM40.294,41.467L40.397,41.556L40.478,41.726L40.491,41.825L40.550,41.902L40.455,41.994L40.371,41.943L40.153,41.720L40.096,41.625L40.181,41.562L40.178,41.466L40.219,41.424L40.294,41.467ZM37.655,37.906L37.613,37.963L37.584,38.043L37.581,38.134L37.617,38.225L37.578,38.355L37.521,38.442L37.443,38.500L37.338,38.542L37.449,38.591L37.549,38.718L37.581,38.863L37.493,38.966L37.467,38.896L37.422,38.888L37.363,38.894L37.294,38.860L37.270,38.818L37.211,38.678L37.194,38.648L37.118,38.603L37.040,38.532L36.965,38.532L36.899,38.701L36.846,38.571L36.618,38.689L36.501,38.591L36.469,38.710L36.441,38.756L36.409,38.760L35.928,38.746L35.798,38.700L35.693,38.590L35.661,38.383L35.721,38.249L35.845,38.166L35.992,38.125L36.117,38.113L36.178,38.128L36.307,38.198L36.378,38.225L36.482,38.234L36.620,38.225L36.615,38.186L36.611,38.178L36.602,38.179L36.581,38.166L36.657,38.113L36.657,38.055L36.657,38.047L36.757,38.060L36.976,38.055L36.948,38.168L37.011,38.213L37.095,38.213L37.138,38.195L37.158,38.123L37.204,38.081L37.255,38.049L37.294,38.007L37.356,37.809L37.402,37.725L37.475,37.690L37.531,37.709L37.583,37.759L37.627,37.829L37.655,37.906ZM34.137,36.201L34.147,36.214L34.160,36.236L34.180,36.252L34.223,36.363L34.149,36.513L34.037,36.641L33.912,36.646L33.814,36.486L33.944,36.191L34.054,36.127L34.137,36.201ZM48.787,18.037L48.902,17.886L49.003,17.819L49.110,17.842L49.247,17.958L49.173,17.921L49.094,17.907L48.928,17.904L48.608,18.483L48.600,18.435L48.646,18.295L48.787,18.037ZM51.748,92.028L51.790,92.027L51.831,92.072L51.847,92.155L51.822,92.182L51.731,92.182L51.696,92.154L51.667,92.102L51.673,92.058L51.711,92.035L51.748,92.028ZM60.418,71.360L60.397,71.266L60.481,71.235L60.502,71.329L60.418,71.360ZM61.757,71.038L61.778,71.119L61.810,71.159L61.812,71.187L61.743,71.194L61.614,71.155L61.568,71.054L61.561,70.958L61.583,70.950L61.687,70.976L61.757,71.038ZM53.553,69.946L53.649,69.944L53.709,69.991L53.717,70.016L53.597,70.134L53.529,70.150L53.461,70.121L53.458,70.062L53.486,70.004L53.553,69.946ZM65.558,69.224L65.598,69.244L65.625,69.273L65.614,69.335L65.585,69.387L65.569,69.436L65.539,69.484L65.498,69.514L65.431,69.497L65.320,69.389L65.320,69.361L65.361,69.319L65.417,69.292L65.447,69.258L65.466,69.223L65.504,69.211L65.558,69.224ZM55.009,53.816L55.039,53.780L55.085,53.770L55.055,53.853L54.984,53.891L55.009,53.816ZM50.360,94.841L50.357,94.853L50.372,94.904L50.357,94.976L50.298,95.000L50.251,94.983L50.223,94.961L50.197,94.960L49.974,94.854L49.860,94.819L49.802,94.787L49.847,94.749L49.974,94.752L50.040,94.769L50.308,94.798L50.357,94.813L50.371,94.824L50.360,94.841ZM47.155,75.762L47.188,75.823L47.196,75.899L47.112,75.895L47.011,75.818L46.950,75.717L46.911,75.635L46.944,75.583L47.046,75.572L47.110,75.620L47.155,75.762ZM32.007,50.397L32.028,50.456L32.034,50.489L32.033,50.545L31.985,50.758L32.004,50.799L32.007,50.838L31.981,50.894L31.946,50.889L31.899,50.827L31.855,50.789L31.814,50.809L31.787,50.786L31.849,50.638L31.825,50.588L31.842,50.519L31.885,50.413L31.920,50.348L31.967,50.358L32.007,50.397ZM31.751,50.485L31.770,50.517L31.777,50.545L31.543,50.595L31.436,50.574L31.413,50.507L31.413,50.445L31.440,50.414L31.483,50.394L31.523,50.361L31.549,50.306L31.559,50.242L31.583,50.231L31.617,50.226L31.654,50.192L31.698,50.204L31.731,50.257L31.749,50.318L31.748,50.384L31.740,50.449L31.751,50.485ZM36.802,41.791L36.857,41.739L36.912,41.823L36.897,41.954L36.787,41.922L36.802,41.791ZM35.604,39.844L35.630,39.883L35.641,39.905L35.641,39.936L35.626,39.990L35.570,40.025L35.488,40.023L35.412,39.997L35.363,39.951L35.376,39.896L35.436,39.873L35.493,39.808L35.533,39.703L35.562,39.697L35.581,39.780L35.604,39.844ZM48.657,17.623L48.758,17.623L48.855,17.694L48.845,17.783L48.788,17.816L48.700,17.867L48.604,17.848L48.580,17.745L48.657,17.623Z" fill="currentColor" stroke="currentColor" stroke-width="1.5" stroke-linejoin="round"/>
</svg>