<svg xmlns="http://www.w3.org/2000/svg" viewBox="0 0 100 100" role="img" aria-label="Jamaica">
  <title>Jamaica</title>
  <path d="M91.882,54.408L92.168,55.102L92.498,55.902L93.104,56.938L93.878,57.759L95.000,58.603L94.571,58.952L92.444,59.491L90.946,60.318L90.086,60.568L89.353,60.378L89.639,60.170L89.755,60.022L89.916,59.491L89.172,59.764L88.512,60.751L87.795,60.970L87.157,60.786L86.415,60.443L85.660,60.247L84.424,60.712L81.189,60.994L78.906,60.645L78.574,60.660L78.264,60.719L77.928,60.675L77.501,60.378L77.315,59.986L77.231,59.486L77.107,59.056L76.786,58.873L76.454,58.771L76.233,58.527L76.042,58.238L75.787,58.011L74.552,57.713L74.243,57.541L73.610,57.283L72.756,57.335L71.266,57.689L70.629,57.766L68.482,57.689L68.482,57.393L73.004,57.125L72.719,56.850L72.512,56.649L71.972,56.526L70.730,56.508L69.886,56.527L69.026,56.014L68.294,55.534L67.754,55.277L67.626,55.724L67.433,56.181L66.922,56.759L66.764,57.093L66.223,57.028L66.063,57.346L65.903,58.334L65.166,60.950L64.620,61.727L63.961,62.150L63.418,62.156L63.060,61.992L62.728,61.766L62.276,61.586L60.002,61.586L60.002,61.266L60.871,60.970L60.427,60.580L59.871,59.830L59.439,59.491L58.936,59.296L57.751,59.165L56.676,59.542L55.749,60.090L55.072,61.444L54.912,61.838L55.224,63.038L54.924,63.158L54.401,63.477L54.100,63.604L54.207,63.831L54.279,64.270L54.379,64.545L53.939,64.344L53.497,64.323L53.068,64.476L52.670,64.811L53.393,65.259L54.157,65.428L54.957,65.361L55.786,65.107L56.203,66.735L56.078,67.482L55.071,67.796L54.214,67.754L53.447,67.579L52.686,67.211L49.112,64.000L48.372,63.065L45.296,61.267L44.386,60.931L43.427,60.804L42.668,61.118L41.797,61.710L40.925,61.787L39.128,61.266L37.363,60.963L31.786,61.283L31.504,61.230L30.647,60.645L29.198,59.925L28.835,59.639L28.656,59.312L28.229,58.202L28.143,57.851L27.987,57.576L27.250,57.312L27.019,57.125L26.959,56.216L27.033,55.123L26.777,54.205L25.730,53.819L22.876,53.795L22.220,53.550L21.245,51.285L20.920,50.813L20.567,50.568L20.156,50.359L19.828,50.272L19.573,50.045L19.376,49.522L19.125,48.496L18.351,46.926L17.326,46.350L14.296,46.426L12.446,46.112L11.769,46.105L11.382,46.461L11.066,46.635L10.788,46.577L9.775,46.168L9.673,46.105L9.096,46.012L7.830,45.605L7.120,45.515L6.397,45.335L5.697,44.864L5.181,44.198L5.000,43.443L5.228,43.083L5.837,42.651L6.125,42.288L6.246,41.719L6.187,40.413L6.266,40.043L6.579,39.531L6.614,39.205L6.758,39.034L7.398,38.981L7.800,38.718L8.127,38.211L8.550,37.866L9.240,38.095L9.666,36.868L10.929,35.705L12.396,35.219L13.454,36.026L14.065,35.304L14.718,35.289L15.482,35.571L16.418,35.756L19.081,35.429L19.969,35.434L20.414,35.600L20.732,35.716L21.188,35.830L21.657,35.756L22.074,35.460L22.114,35.177L22.102,34.845L22.357,34.398L23.290,33.203L23.713,32.807L24.440,32.477L26.105,32.204L27.991,32.276L31.305,33.001L34.227,33.640L38.232,33.716L40.000,34.148L42.852,34.359L43.927,34.623L44.775,35.138L46.081,34.800L48.190,34.805L50.358,35.050L51.852,35.434L52.036,35.628L52.189,36.163L52.388,36.348L52.629,36.350L52.852,36.244L52.983,36.107L52.951,36.026L54.790,36.348L55.018,36.486L55.711,37.097L55.925,37.235L57.268,37.281L58.683,37.043L59.439,36.914L59.931,37.037L60.790,37.443L61.278,37.531L63.713,37.427L64.187,37.175L64.857,37.093L65.402,37.136L65.904,37.220L66.195,37.597L66.068,38.056L66.067,38.641L66.527,39.060L67.991,39.983L69.285,40.739L69.497,41.159L69.879,42.295L70.124,42.671L70.517,42.912L71.266,43.120L73.396,43.286L74.103,43.443L74.707,43.765L75.491,44.558L76.094,44.949L76.792,45.168L78.159,45.080L78.875,45.588L79.103,45.647L79.309,45.844L79.562,46.024L79.902,46.105L82.992,46.105L83.208,46.235L83.531,46.856L83.681,47.046L86.710,47.617L88.284,48.188L88.485,49.088L89.654,50.211L90.562,51.514L91.882,54.408Z" fill="currentColor" stroke="currentColor" stroke-width="1" stroke-linejoin="round"/>
</svg>