<svg xmlns="http://www.w3.org/2000/svg" viewBox="0 0 100 100" role="img" aria-label="Jersey">
  <title>Jersey</title>
  <path d="M66.358,25.795L72.061,31.433L90.237,40.525L89.735,46.281L91.522,48.704L93.621,52.303L95.000,53.958L91.647,57.052L90.112,60.867L89.704,65.761L89.735,72.285L88.748,78.210L86.194,78.139L82.779,75.619L79.238,74.108L67.392,73.868L60.842,70.942L51.896,61.802L48.558,59.500L45.080,57.988L42.416,57.988L39.299,61.347L36.337,66.768L33.234,74.108L29.976,73.005L25.150,67.727L21.139,66.048L20.042,66.960L12.176,70.318L8.228,70.438L10.985,57.772L8.384,44.506L5.000,33.040L5.345,25.795L9.873,24.164L15.326,25.795L22.612,29.826L27.829,29.442L31.824,28.147L35.538,25.699L39.784,21.790L42.824,24.836L51.222,26.947L55.578,29.826L58.195,26.995L60.623,26.132L66.358,25.795Z" fill="currentColor" stroke="currentColor" stroke-width="1.5" stroke-linejoin="round"/>
</svg>