<svg xmlns="http://www.w3.org/2000/svg" viewBox="0 0 100 100" role="img" aria-label="Jordan">
  <title>Jordan</title>
  <path d="M22.245,19.846L22.256,19.854L22.691,19.905L22.769,19.865L22.986,19.754L23.596,19.214L24.607,18.584L24.925,18.503L24.928,18.502L25.043,18.445L25.151,18.422L25.246,18.439L25.324,18.498L25.322,18.503L25.491,18.716L27.468,19.170L27.643,19.272L27.961,19.590L28.052,19.620L28.290,19.617L28.360,19.655L28.389,19.798L28.364,19.938L28.305,20.026L28.236,20.016L28.404,20.221L28.565,20.372L28.757,20.438L29.023,20.390L29.453,20.423L29.539,20.667L29.484,21.034L29.497,21.438L29.670,21.799L30.499,23.045L30.601,23.296L30.605,23.388L30.672,23.403L30.893,23.410L31.156,23.419L31.837,23.328L31.953,23.340L32.143,23.413L32.253,23.433L32.345,23.390L32.554,23.203L32.649,23.173L32.848,23.281L33.447,23.877L34.633,24.687L36.249,26.205L36.521,26.358L36.884,26.467L37.920,26.571L38.219,26.757L38.890,26.838L41.407,27.143L42.070,27.642L42.390,27.455L42.789,27.467L43.964,27.774L44.222,27.784L44.458,27.704L47.414,25.697L50.229,23.878L50.233,23.877L52.269,22.590L55.417,20.594L56.878,19.670L58.571,18.599L61.723,16.604L64.875,14.607L67.217,13.121L70.420,11.142L71.981,10.176L75.914,7.743L80.420,5.000L81.275,8.070L82.039,10.832L82.676,13.121L83.514,16.177L84.383,19.336L85.619,23.834L84.199,24.276L84.174,24.284L84.167,24.299L84.174,24.326L84.199,24.361L85.096,27.455L85.233,27.778L85.419,27.882L88.904,26.927L89.282,27.146L89.554,27.808L89.938,29.259L89.468,29.940L87.256,31.813L87.260,31.979L87.073,32.039L86.716,32.307L84.532,34.372L83.895,34.640L83.895,34.644L83.893,34.643L81.804,35.247L77.667,36.440L73.534,37.634L69.399,38.828L65.926,39.830L65.263,40.021L61.785,41.062L60.706,41.385L56.149,42.749L51.592,44.113L47.742,45.265L47.036,45.476L49.429,48.079L51.822,50.683L51.858,50.722L54.216,53.284L56.609,55.888L56.666,55.956L56.725,56.024L56.782,56.093L56.841,56.162L58.858,58.557L60.877,60.950L62.898,63.343L64.915,65.736L65.825,66.816L65.831,66.830L65.824,66.839L65.806,66.846L65.683,66.923L64.337,67.686L62.115,68.948L60.117,70.085L59.691,70.445L59.451,70.834L58.911,72.170L58.250,73.801L57.642,75.300L56.824,77.325L56.429,77.683L54.261,78.140L51.800,78.661L49.174,79.217L46.528,79.777L44.891,80.122L43.296,80.460L42.791,80.718L42.352,81.200L41.335,82.959L40.489,84.421L39.342,86.403L38.162,88.443L36.744,89.642L34.605,91.451L32.660,93.097L30.664,94.783L30.193,94.980L29.689,95.000L27.776,94.661L25.657,94.287L24.609,94.101L22.435,93.714L19.705,93.233L17.148,92.779L14.287,92.273L12.102,91.885L10.062,91.519L10.302,91.345L10.423,89.385L10.553,88.821L10.953,87.940L10.935,87.598L10.553,87.205L10.302,87.205L10.287,87.135L10.287,87.077L10.261,87.046L10.176,87.058L10.255,86.472L10.386,86.000L10.631,85.594L10.806,85.056L10.903,83.847L11.040,83.310L11.893,80.960L11.971,80.523L11.988,79.215L12.123,78.484L12.196,78.298L12.287,78.131L12.355,77.941L12.367,77.682L12.580,76.834L13.367,75.635L13.665,74.911L13.665,74.232L13.289,72.915L13.296,72.300L13.427,71.930L13.600,70.809L13.711,70.540L13.834,70.318L13.935,70.087L13.975,69.788L13.924,69.482L13.659,69.046L13.568,68.825L13.568,68.307L13.887,67.432L13.975,66.919L14.770,64.285L15.846,62.075L15.847,62.071L15.988,61.560L16.072,61.016L16.135,60.774L16.256,60.513L16.399,60.344L16.711,60.062L16.817,59.857L16.880,59.381L16.870,58.899L16.920,58.412L17.153,57.925L17.378,57.707L17.874,57.224L18.079,56.834L18.077,56.159L18.195,55.528L19.058,53.811L19.146,53.198L19.016,52.610L18.743,52.073L18.547,51.640L18.372,51.087L18.271,50.498L18.501,49.974L18.760,49.523L18.790,49.058L18.653,48.902L18.996,48.283L19.323,47.417L19.397,46.929L19.401,46.713L19.427,45.463L19.419,45.456L19.431,45.464L19.438,45.458L19.437,45.438L19.431,45.403L19.532,43.807L19.824,42.246L20.235,41.293L20.697,40.224L21.282,39.572L20.895,38.411L20.895,38.251L21.092,37.983L20.644,36.260L20.695,36.085L20.809,36.022L20.936,35.985L21.020,35.886L21.033,35.715L20.925,35.477L20.895,35.298L20.883,35.004L20.843,34.775L20.644,34.270L20.610,33.277L20.710,32.905L21.020,32.653L20.826,32.386L20.838,32.137L21.146,31.612L21.049,31.474L21.049,31.357L21.132,31.260L21.282,31.184L21.282,31.024L21.205,30.768L21.285,30.424L21.524,29.408L21.282,29.408L21.313,29.289L21.362,29.210L21.433,29.152L21.524,29.100L21.378,28.849L21.309,28.439L21.315,28.028L21.397,27.778L21.229,27.458L21.244,26.812L21.146,26.603L21.146,26.455L21.282,26.455L21.282,26.603L21.397,26.603L21.366,26.407L21.311,26.242L21.235,26.108L21.146,26.014L21.102,25.944L21.020,25.707L21.199,25.672L21.277,25.612L21.260,25.525L21.146,25.413L21.146,25.279L21.282,25.279L21.254,25.178L21.224,25.164L21.186,25.171L21.146,25.133L21.397,24.972L21.282,24.825L21.408,24.770L21.524,24.692L21.524,24.531L21.442,24.514L21.393,24.486L21.351,24.446L21.282,24.398L21.317,24.254L21.385,24.107L21.495,23.993L21.661,23.944L21.661,23.809L21.488,23.631L21.450,23.540L21.319,23.348L21.243,23.344L21.146,23.356L21.146,23.210L21.397,23.210L21.345,23.071L21.282,22.621L21.397,22.768L21.480,22.538L21.524,22.461L21.549,22.539L21.558,22.590L21.585,22.578L21.661,22.461L21.558,22.194L21.501,21.639L21.397,21.446L21.397,21.285L21.524,21.285L21.524,21.151L21.368,21.060L21.294,20.905L21.303,20.728L21.343,20.657L21.474,20.602L21.638,20.458L21.916,20.094L22.254,19.853L22.245,19.846Z" fill="currentColor" stroke="currentColor" stroke-width="1.5" stroke-linejoin="round"/>
</svg>