<svg xmlns="http://www.w3.org/2000/svg" viewBox="0 0 100 100" role="img" aria-label="Japan">
  <title>Japan</title>
  <path d="M15.490,85.739L15.526,85.828L15.562,85.950L15.566,86.058L15.505,86.104L15.457,86.152L15.297,86.465L15.240,86.653L15.193,86.694L15.085,86.787L15.000,86.739L14.915,86.667L14.896,86.562L14.993,86.519L15.060,86.324L15.181,86.146L15.251,86.104L15.352,86.067L15.418,85.976L15.460,85.857L15.490,85.739ZM24.207,81.754L24.192,81.868L24.272,81.960L24.343,82.078L24.224,82.168L24.176,82.198L24.121,82.210L24.085,82.232L24.066,82.284L24.030,82.440L24.020,82.576L24.006,82.604L23.980,82.618L23.942,82.656L23.894,82.773L23.838,83.065L23.754,83.277L23.698,83.563L23.606,83.928L23.448,84.485L23.272,85.116L23.220,85.284L23.232,85.391L23.221,85.457L23.260,85.607L23.316,85.708L23.448,85.760L23.432,85.814L23.365,85.911L23.350,85.959L23.235,86.613L23.257,86.790L23.108,86.923L23.053,86.995L23.032,87.092L23.019,87.101L22.957,87.215L22.937,87.272L22.932,87.344L22.944,87.381L22.960,87.403L22.969,87.430L22.971,87.555L22.949,87.587L22.890,87.652L22.877,87.694L22.832,87.975L22.808,88.029L22.747,88.120L22.730,88.172L22.724,88.216L22.713,88.251L22.681,88.281L22.664,88.259L22.651,88.250L22.620,88.237L22.641,88.200L22.646,88.185L22.652,88.160L22.465,88.196L22.377,88.201L22.303,88.160L22.281,88.116L22.284,88.019L22.271,87.959L22.250,87.923L22.160,87.817L22.130,87.768L22.107,87.761L22.073,87.753L21.972,87.782L21.892,87.714L21.842,87.671L21.748,87.682L21.650,87.711L21.475,87.798L21.406,87.857L21.352,87.929L21.272,88.080L21.205,88.308L21.260,88.361L21.419,88.415L21.529,88.453L21.625,88.509L21.641,88.578L21.627,88.623L21.528,88.696L21.487,88.784L21.572,88.820L21.721,88.747L21.756,88.799L21.422,89.118L21.295,89.105L21.180,89.143L21.173,89.269L21.128,89.346L21.049,89.526L20.996,89.610L20.939,89.672L20.867,89.730L20.789,89.779L20.711,89.815L20.541,89.879L20.423,89.915L20.304,89.931L20.178,89.986L20.091,90.059L20.062,90.112L19.867,90.167L19.725,90.333L19.646,90.415L19.552,90.425L19.578,90.035L19.697,89.914L19.882,89.788L19.947,89.730L20.049,89.347L19.999,89.244L20.122,89.017L20.165,88.825L20.197,88.530L20.191,88.417L20.133,88.251L20.072,88.076L19.968,87.882L19.764,87.741L19.714,87.587L19.773,87.333L19.728,87.232L19.455,87.177L19.375,87.124L19.328,87.112L19.276,87.070L19.242,86.996L19.349,86.842L19.460,86.781L19.573,86.808L19.692,86.799L19.803,86.829L19.852,86.929L19.838,87.086L19.854,87.129L19.916,87.152L19.976,87.151L20.021,87.127L20.103,87.032L20.208,86.845L20.261,86.614L20.234,86.400L20.103,86.265L19.925,86.275L19.684,86.175L19.492,86.238L19.345,86.429L19.331,86.488L19.313,86.639L19.294,86.688L19.168,86.847L19.134,86.909L19.091,87.112L19.016,87.256L18.955,87.424L18.904,87.664L18.894,87.777L18.915,87.899L19.054,88.237L19.111,88.477L19.161,88.593L19.234,88.642L19.297,88.667L19.394,88.822L19.564,88.847L19.572,88.922L19.517,89.128L19.501,89.226L19.469,89.347L19.392,89.392L19.301,89.430L19.221,89.530L19.161,89.459L19.110,89.462L19.055,89.488L18.990,89.490L18.921,89.452L18.898,89.412L18.894,89.329L18.850,89.192L18.795,89.107L18.593,88.977L17.878,88.951L17.775,88.955L17.653,89.008L17.529,88.995L17.482,88.909L17.467,88.801L17.440,88.715L17.393,88.590L17.330,88.515L17.383,88.521L17.457,88.533L17.462,88.463L17.410,88.360L17.288,88.226L17.150,88.104L17.050,88.040L17.171,87.972L17.208,87.959L17.251,87.961L17.312,87.989L17.352,87.996L17.407,88.019L17.497,88.143L17.557,88.200L17.635,88.062L17.859,87.827L17.913,87.639L17.970,87.543L18.023,87.331L18.051,87.135L18.004,86.992L18.065,86.867L18.059,86.760L18.009,86.666L17.878,86.502L17.701,86.202L17.641,86.151L17.425,86.009L17.352,85.980L17.342,85.923L17.293,85.795L17.338,85.578L17.381,85.530L17.532,85.593L17.589,85.622L17.463,85.479L17.412,85.392L17.494,85.233L17.521,84.974L17.491,84.853L17.450,84.726L17.399,84.672L17.379,84.642L17.306,84.567L17.301,84.457L17.362,84.402L17.445,84.276L17.445,84.133L17.332,84.010L17.458,83.850L17.650,83.773L17.791,83.968L17.884,83.937L17.982,83.864L18.039,83.803L18.054,83.764L18.098,83.608L18.099,83.602L18.116,83.580L18.155,83.563L18.163,83.544L18.159,83.458L18.163,83.438L18.499,83.047L18.546,82.897L18.560,82.866L18.620,82.825L18.642,82.795L18.651,82.739L18.636,82.687L18.642,82.634L18.678,82.517L18.713,82.506L18.834,82.634L18.877,82.570L18.884,82.498L18.866,82.333L18.889,82.289L19.008,82.112L19.108,82.047L19.151,81.901L19.134,81.749L19.054,81.666L19.093,81.607L19.145,81.585L19.278,81.586L19.240,81.509L19.134,81.416L19.120,81.345L19.145,81.296L19.476,80.985L19.546,80.889L19.601,80.742L19.477,80.745L18.718,80.900L18.642,80.940L18.578,80.903L18.621,80.822L18.705,80.752L19.025,80.578L19.124,80.479L19.175,80.450L19.247,80.457L19.322,80.428L19.361,80.419L19.405,80.417L19.405,80.373L19.341,80.345L19.291,80.287L19.258,80.217L19.247,80.154L19.255,80.113L19.275,80.069L19.328,79.995L19.345,79.963L19.337,79.938L19.320,79.912L19.310,79.873L19.252,79.759L18.894,79.449L18.681,79.206L18.547,79.125L18.509,79.018L18.478,78.633L18.487,78.378L18.456,78.265L18.458,78.189L18.451,78.160L18.425,78.136L18.400,78.130L18.376,78.128L18.356,78.116L18.259,78.041L18.226,77.999L18.204,77.932L18.206,77.881L18.191,77.850L18.064,77.832L17.959,77.801L17.893,77.795L17.846,77.795L17.696,77.624L17.618,77.568L17.516,77.737L17.325,77.881L17.198,78.017L17.090,77.964L17.110,78.075L17.171,78.176L17.243,78.357L17.444,78.724L17.530,78.821L17.515,78.940L17.446,78.964L17.444,79.094L17.373,79.174L17.257,79.209L17.190,79.285L17.122,79.328L17.033,79.380L16.986,79.405L17.065,79.447L17.113,79.523L17.211,79.602L17.325,79.602L17.403,79.588L17.629,79.409L17.924,79.403L18.074,79.519L18.129,79.653L18.226,79.891L18.238,79.969L18.243,80.159L18.233,80.211L18.146,80.339L18.127,80.417L18.173,80.511L18.084,80.633L17.916,80.726L17.743,80.733L17.700,80.771L17.704,80.837L17.676,80.883L17.596,80.897L17.573,80.970L17.533,80.994L17.419,81.012L17.340,81.074L17.268,81.071L17.301,81.008L17.285,80.917L17.219,80.878L17.180,80.829L17.098,80.787L17.095,80.668L17.092,80.536L17.158,80.546L17.210,80.522L17.272,80.452L17.321,80.410L17.380,80.358L17.432,80.298L17.474,80.245L17.461,80.134L17.407,80.103L17.365,80.075L17.346,80.034L17.361,80.003L17.381,79.949L17.326,79.894L17.185,79.880L17.139,79.918L17.083,79.918L16.933,79.882L16.795,79.942L16.729,80.015L16.648,80.091L16.536,80.119L16.454,80.165L16.359,80.178L16.324,80.129L16.321,80.077L16.304,80.059L16.262,80.101L16.288,80.175L16.228,80.273L16.110,80.451L16.049,80.552L16.009,80.660L15.914,80.741L15.826,80.793L15.760,80.797L15.743,80.843L15.718,80.936L15.608,81.043L15.502,81.129L15.489,81.185L15.459,81.168L15.397,81.147L15.334,81.190L15.291,81.215L15.261,81.141L15.334,81.078L15.390,81.053L15.453,81.024L15.489,80.985L15.541,80.839L15.589,80.748L15.635,80.661L15.652,80.573L15.632,80.538L15.583,80.570L15.554,80.532L15.554,80.486L15.610,80.476L15.639,80.430L15.689,80.412L15.728,80.475L15.780,80.433L15.842,80.296L15.679,80.311L15.679,80.228L15.585,80.015L15.537,79.969L15.497,79.941L15.469,79.905L15.458,79.833L15.433,79.770L15.357,79.743L15.310,79.794L15.255,79.819L15.201,79.693L15.095,79.620L15.043,79.530L15.003,79.438L14.986,79.378L14.980,79.308L14.963,79.234L14.924,79.177L14.880,79.130L14.818,79.108L14.784,78.931L14.790,78.798L14.854,78.737L14.888,78.650L14.870,78.575L14.880,78.478L14.921,78.442L14.934,78.269L15.018,78.122L15.197,78.211L15.265,78.321L15.268,78.335L15.263,78.387L15.265,78.401L15.280,78.404L15.309,78.372L15.337,78.340L15.360,78.350L15.381,78.394L15.350,78.430L15.283,78.563L15.270,78.653L15.297,78.728L15.344,78.699L15.412,78.570L15.554,78.616L15.625,78.706L15.676,78.796L15.642,78.846L15.632,78.900L15.643,79.040L15.636,79.130L15.599,79.177L15.572,79.123L15.548,78.983L15.507,78.982L15.521,79.192L15.586,79.249L15.603,79.346L15.542,79.411L15.637,79.480L15.674,79.508L15.715,79.555L15.762,79.591L15.779,79.627L15.803,79.609L15.823,79.573L15.887,79.540L15.914,79.493L15.955,79.407L16.198,79.496L16.441,79.607L16.512,79.585L16.431,79.481L16.178,79.094L16.171,78.925L16.215,78.838L16.254,78.704L16.244,78.583L16.089,78.460L15.946,78.306L15.814,78.357L15.726,78.421L15.679,78.422L15.672,78.306L15.556,78.220L15.506,78.260L15.452,78.332L15.387,78.340L15.319,78.289L15.301,78.226L15.258,78.077L15.285,78.081L15.332,78.098L15.315,77.991L15.319,77.940L15.383,77.911L15.376,77.858L15.325,77.854L15.236,77.956L15.213,77.894L15.203,77.819L15.210,77.743L15.149,77.719L15.160,77.845L15.141,77.974L15.123,78.017L15.089,78.003L15.014,77.999L14.980,78.064L14.948,78.079L14.929,77.931L15.027,77.904L15.043,77.838L15.026,77.779L14.984,77.732L14.933,77.698L14.884,77.674L14.900,77.622L14.900,77.587L14.884,77.556L14.850,77.513L14.816,77.541L14.770,77.547L14.720,77.530L14.640,77.449L14.593,77.433L14.472,77.433L14.417,77.346L14.469,77.172L14.478,77.074L14.517,77.046L14.550,77.057L14.600,77.008L14.590,76.969L14.566,76.903L14.507,76.789L14.529,76.628L14.548,76.492L14.604,76.433L14.735,76.561L14.845,76.543L14.979,76.330L15.009,76.382L14.996,76.543L15.108,76.598L15.309,76.532L15.603,76.627L15.636,76.726L15.636,76.728L15.660,76.882L15.694,76.946L15.744,76.996L15.808,77.028L15.791,76.949L15.760,76.816L15.783,76.628L15.842,76.513L15.898,76.450L15.855,76.380L15.887,76.337L15.644,76.168L15.554,76.060L15.509,76.001L15.555,75.924L15.588,75.840L15.654,75.826L15.733,75.931L15.760,76.001L15.795,76.072L15.856,76.104L15.899,76.069L15.879,75.988L15.772,75.844L15.739,75.655L15.822,75.540L15.815,75.424L15.888,75.501L15.967,75.522L16.079,75.455L16.228,75.547L16.317,75.658L16.297,75.717L16.244,75.787L16.224,75.854L16.280,75.888L16.324,75.835L16.343,75.895L16.343,75.951L16.383,76.003L16.446,76.034L16.575,76.052L16.631,76.023L16.684,75.961L16.704,75.817L16.754,75.761L16.896,75.695L16.979,75.663L17.032,75.680L17.082,75.638L17.100,75.621L17.160,75.613L17.224,75.584L17.277,75.533L17.306,75.457L17.249,75.459L17.100,75.498L17.056,75.479L17.045,75.399L17.004,75.381L16.947,75.370L16.925,75.342L16.929,75.301L16.954,75.252L17.004,75.205L17.052,75.196L17.097,75.196L17.145,75.176L17.225,75.106L17.212,75.033L17.238,74.971L17.290,74.975L17.342,74.974L17.383,74.966L17.416,74.947L17.448,74.911L17.463,74.762L17.521,74.793L17.573,74.831L17.596,74.884L17.552,74.940L17.572,75.034L17.637,75.075L17.665,75.098L17.760,75.076L17.777,75.125L17.730,75.212L17.766,75.247L17.823,75.280L17.845,75.296L17.869,75.268L17.898,75.264L17.916,75.233L17.962,75.160L18.031,75.157L18.160,75.161L18.230,75.126L18.313,75.116L18.353,75.050L18.366,74.963L18.390,74.848L18.370,74.802L18.349,74.738L18.259,74.796L18.177,74.873L18.118,74.903L18.059,74.864L18.006,74.833L17.976,74.801L17.923,74.818L17.867,74.766L17.841,74.665L17.864,74.620L17.914,74.630L17.940,74.717L18.003,74.763L18.102,74.777L18.292,74.690L18.364,74.619L18.426,74.540L18.488,74.476L18.562,74.449L18.597,74.392L18.669,74.300L18.680,74.186L18.665,74.083L18.614,74.072L18.578,74.027L18.585,73.955L18.608,73.923L18.643,73.902L18.690,73.865L18.716,73.820L18.768,73.642L18.806,73.685L18.855,73.679L18.961,73.606L19.001,73.559L19.016,73.521L19.043,73.493L19.120,73.478L19.340,73.498L19.438,73.482L19.535,73.401L19.676,73.178L19.713,73.160L19.773,73.152L19.828,73.156L19.895,73.192L20.009,73.122L20.169,73.118L20.344,73.146L20.312,73.260L20.380,73.228L20.498,73.229L20.544,73.300L20.589,73.403L20.664,73.442L20.741,73.431L20.798,73.385L20.870,73.280L20.907,73.155L21.033,73.042L21.175,72.991L21.229,73.048L21.213,73.173L21.172,73.244L21.159,73.280L21.161,73.314L21.109,73.393L21.150,73.454L21.141,73.533L21.071,73.533L21.087,73.590L21.099,73.633L21.069,73.681L21.048,73.716L20.973,73.772L20.965,73.850L20.964,73.872L20.984,73.891L21.075,73.917L21.174,73.891L21.159,74.087L21.170,74.131L21.187,74.285L21.234,74.400L21.378,74.663L21.441,74.831L21.520,74.939L21.620,75.002L21.699,74.990L21.820,75.017L22.019,75.050L22.163,75.100L22.333,75.116L22.460,75.248L22.643,75.255L22.850,75.293L23.082,75.252L23.108,75.209L23.276,75.050L23.351,74.959L23.390,74.833L23.458,74.751L23.562,74.695L23.704,74.671L23.807,74.669L23.883,74.656L23.962,74.690L24.057,74.746L24.148,74.734L24.242,74.749L24.345,74.901L24.454,75.113L24.531,75.261L24.566,75.378L24.579,75.499L24.529,75.659L24.567,75.824L24.521,75.948L24.437,76.129L24.423,76.265L24.382,76.284L24.275,76.226L24.202,76.187L24.116,76.224L24.094,76.308L24.108,76.400L24.090,76.475L23.974,76.505L23.934,76.528L23.912,76.619L23.819,76.637L23.725,76.637L23.685,76.602L23.618,76.521L23.493,76.539L23.457,76.671L23.513,77.066L23.597,77.138L23.687,77.175L23.986,77.187L24.182,77.077L24.394,77.180L24.444,77.085L24.682,77.183L24.961,77.239L25.094,77.191L25.250,77.096L25.335,77.110L25.240,77.283L25.190,77.408L25.194,77.496L25.158,77.539L25.084,77.569L25.002,77.677L24.982,77.778L24.902,77.924L25.056,78.009L25.178,77.918L25.324,77.915L25.376,77.941L25.250,78.032L25.178,78.120L25.152,78.190L25.232,78.234L25.280,78.207L25.349,78.220L25.396,78.268L25.458,78.274L25.474,78.208L25.483,78.134L25.519,78.131L25.559,78.227L25.592,78.280L25.634,78.312L25.676,78.321L25.718,78.304L25.747,78.269L25.769,78.136L25.849,78.299L25.831,78.374L25.713,78.407L25.533,78.396L25.460,78.398L25.429,78.507L25.354,78.606L25.337,78.775L25.390,78.814L25.484,78.914L25.553,78.915L25.598,79.002L25.647,78.979L25.690,78.967L25.720,78.985L25.745,79.018L25.779,79.035L25.835,79.004L25.832,79.034L25.851,79.061L25.888,79.047L25.949,78.962L26.069,78.988L26.164,79.009L26.178,79.068L26.086,79.051L25.990,79.103L25.905,79.125L25.763,79.243L25.704,79.329L25.725,79.368L25.768,79.391L25.788,79.433L25.739,79.530L25.699,79.568L25.659,79.591L25.618,79.623L25.581,79.690L25.641,79.699L25.777,79.678L25.803,79.710L25.771,79.790L25.697,79.857L25.612,79.895L25.546,79.891L25.458,79.980L25.241,79.950L25.197,80.074L25.197,80.237L25.194,80.254L25.188,80.283L25.169,80.307L25.147,80.321L25.134,80.337L25.123,80.436L25.118,80.523L25.081,80.548L25.016,80.448L24.960,80.425L24.935,80.505L24.861,80.553L24.804,80.658L24.745,80.713L24.722,80.742L24.709,80.770L24.711,80.780L24.718,80.796L24.722,80.842L24.704,80.907L24.621,81.064L24.595,81.100L24.531,81.123L24.434,81.112L24.415,81.138L24.389,81.238L24.311,81.411L24.324,81.485L24.373,81.550L24.452,81.549L24.481,81.566L24.563,81.666L24.474,81.777L24.373,81.804L24.296,81.771L24.207,81.754ZM38.281,73.803L38.431,73.767L38.515,73.731L38.566,73.762L38.479,73.815L38.338,73.887L38.164,73.977L38.105,74.048L37.942,74.070L37.900,74.168L37.768,74.179L37.728,74.342L37.615,74.365L37.578,74.457L37.201,74.727L36.954,74.824L36.824,74.935L36.882,75.006L36.767,75.140L36.752,75.211L36.717,75.253L36.654,75.280L36.592,75.262L36.528,75.306L36.542,75.409L36.534,75.480L36.455,75.549L36.346,75.686L36.213,75.964L36.074,76.459L36.042,76.680L35.999,76.849L35.989,76.929L35.965,77.079L35.961,77.214L35.897,77.286L35.811,77.088L35.736,76.958L35.669,76.972L35.570,76.943L35.578,76.822L35.448,76.680L35.263,76.415L35.196,76.231L35.061,76.177L34.932,76.112L34.808,75.975L34.730,75.770L34.403,75.733L33.976,75.617L33.867,75.512L33.554,75.563L33.255,75.640L33.169,75.722L32.972,75.815L32.596,76.002L32.524,76.140L32.546,76.235L32.474,76.312L32.359,76.362L32.251,76.381L32.176,76.384L32.127,76.395L32.089,76.420L32.042,76.465L31.956,76.595L31.933,76.608L31.946,76.505L31.914,76.489L31.883,76.465L31.790,76.529L31.683,76.634L31.614,76.756L31.633,76.871L31.602,76.941L31.615,76.989L31.643,77.029L31.661,77.072L31.667,77.100L31.685,77.120L31.690,77.148L31.683,77.190L31.664,77.213L31.642,77.229L31.633,77.251L31.608,77.386L31.551,77.464L31.486,77.531L31.432,77.572L31.444,77.699L31.479,77.739L31.406,77.787L31.379,77.718L31.315,77.714L31.199,77.868L31.047,78.151L30.931,78.316L30.883,78.392L30.891,78.483L30.886,78.537L30.849,78.562L30.779,78.506L30.678,78.443L30.517,78.534L30.440,78.752L30.406,78.975L30.475,79.243L30.443,79.444L30.385,79.484L30.251,79.475L30.223,79.543L30.236,79.644L30.225,79.766L30.291,79.811L30.324,79.881L30.362,79.928L30.451,80.015L30.513,80.100L30.560,80.207L30.562,80.319L30.442,80.372L30.359,80.325L30.323,80.296L30.299,80.254L30.254,80.140L30.231,80.096L30.149,80.026L30.037,79.982L29.934,80.004L29.880,80.132L29.838,80.036L29.774,80.031L29.704,80.082L29.641,80.154L29.560,80.203L29.464,80.201L29.373,80.169L29.306,80.132L29.175,80.004L29.091,79.914L28.874,79.977L28.703,80.134L28.666,80.011L28.683,79.855L28.788,79.701L28.867,79.518L29.005,79.356L29.063,79.280L29.081,79.208L28.759,79.211L28.700,79.227L28.660,79.223L28.460,79.076L28.383,79.047L28.444,79.128L28.355,79.117L28.279,79.080L28.222,79.086L28.190,79.208L28.218,79.223L28.259,79.267L28.285,79.288L28.206,79.327L28.129,79.313L28.065,79.257L27.981,79.066L28.082,78.976L28.030,78.849L28.092,78.762L28.116,78.715L28.023,78.537L27.977,78.436L27.836,78.418L27.737,78.370L27.630,78.578L27.563,78.559L27.647,78.417L27.631,78.334L27.682,78.267L27.886,78.364L27.977,78.348L28.031,78.277L27.936,78.277L27.964,78.191L27.966,78.112L27.936,78.055L27.873,78.036L27.873,77.999L27.977,78.005L27.997,77.999L28.017,77.979L28.052,77.937L28.063,77.894L28.014,77.875L27.878,77.871L27.834,77.838L27.809,77.758L27.822,77.685L27.917,77.653L27.874,77.586L27.822,77.549L27.755,77.503L27.716,77.562L27.639,77.574L27.620,77.476L27.739,77.441L27.856,77.469L27.922,77.475L27.929,77.549L28.007,77.608L28.043,77.680L28.133,77.609L28.122,77.506L28.173,77.420L28.278,77.395L28.334,77.340L28.281,77.248L28.223,77.204L28.302,77.130L28.222,77.128L28.145,77.158L28.122,77.106L28.072,77.082L28.038,77.048L28.039,76.964L28.132,76.888L28.213,76.865L28.228,76.824L28.048,76.815L27.738,76.884L27.651,76.855L27.600,76.815L27.546,76.795L27.571,76.728L27.605,76.705L27.682,76.697L27.717,76.666L27.726,76.631L27.743,76.465L27.656,76.542L27.602,76.469L27.604,76.334L27.682,76.224L27.682,76.184L27.619,76.184L27.637,76.137L27.664,76.100L27.700,76.075L27.743,76.060L27.557,75.933L27.473,75.921L27.388,75.926L27.337,75.954L27.284,75.983L27.217,75.943L27.081,76.043L26.965,76.082L26.783,76.187L26.622,76.280L26.484,76.385L26.435,76.475L26.394,76.536L26.317,76.533L26.259,76.497L26.299,76.400L26.128,76.512L25.905,76.646L25.836,76.622L25.925,76.526L26.027,76.463L26.225,76.272L26.416,76.204L26.499,76.231L26.561,76.203L26.517,76.152L26.508,76.104L26.583,76.053L26.715,75.998L26.818,76.004L26.905,75.942L27.016,75.945L27.151,75.819L27.702,75.527L27.777,75.453L27.809,75.358L27.839,75.304L27.972,75.132L28.014,75.096L28.112,74.998L28.582,74.789L28.660,74.708L28.785,74.617L28.930,74.464L29.025,74.222L29.018,74.048L28.992,73.886L29.034,73.671L29.068,73.514L29.096,73.353L29.294,73.319L29.306,73.174L29.375,73.051L29.363,72.813L29.497,72.714L29.722,72.556L29.793,72.462L30.056,72.388L30.072,72.292L30.108,72.236L30.089,72.134L29.996,72.125L29.946,72.125L29.956,72.069L30.040,72.083L30.101,72.086L30.164,71.960L30.219,72.053L30.252,72.078L30.276,72.118L30.323,72.152L30.580,72.481L30.712,72.842L30.753,72.943L30.791,73.028L30.834,73.089L30.933,73.137L31.022,73.183L31.113,73.194L31.237,73.141L31.402,73.100L31.564,73.048L31.588,72.943L31.728,72.889L31.825,72.903L31.931,72.846L32.016,72.850L32.104,72.893L32.359,72.875L32.468,72.898L32.691,72.987L32.806,72.995L32.904,72.962L32.980,72.903L33.041,72.830L33.091,72.755L33.160,72.671L33.316,72.523L33.377,72.433L33.411,72.325L33.443,72.057L33.433,71.806L33.410,71.704L33.372,71.624L33.314,71.545L33.238,71.476L33.162,71.426L33.090,71.366L33.026,71.264L33.123,71.323L33.262,71.385L33.393,71.416L33.472,71.385L33.556,71.478L33.690,71.430L33.832,71.314L33.937,71.202L34.064,71.095L34.351,70.954L34.493,70.859L34.533,70.799L34.569,70.718L34.611,70.648L34.669,70.618L34.710,70.611L34.784,70.584L34.829,70.577L34.874,70.590L34.942,70.645L35.026,70.668L35.083,70.718L35.133,70.738L35.176,70.736L35.248,70.704L35.291,70.702L35.455,70.745L35.488,70.703L35.545,70.577L35.620,70.670L35.647,70.634L35.655,70.550L35.669,70.497L35.744,70.485L35.788,70.521L35.812,70.585L35.828,70.658L35.828,70.820L35.849,70.879L35.925,70.902L35.962,70.876L36.063,70.748L36.084,70.702L36.182,70.785L36.287,70.823L36.337,70.890L36.275,71.060L36.456,71.171L36.515,71.184L36.572,71.208L36.673,71.316L36.738,71.341L36.861,71.319L36.919,71.323L36.943,71.363L36.962,71.411L37.008,71.472L37.120,71.565L37.254,71.570L37.377,71.471L37.682,71.488L37.779,71.440L37.837,71.425L37.897,71.315L37.916,71.382L37.866,71.448L37.836,71.533L37.912,71.520L37.994,71.419L38.082,71.383L38.053,71.465L37.990,71.557L37.984,71.608L37.982,71.652L37.990,71.685L37.900,71.706L37.953,71.720L37.995,71.744L38.060,71.736L38.023,71.814L37.974,71.904L37.959,71.966L37.970,72.000L37.888,72.139L37.885,72.292L37.900,72.393L37.872,72.416L37.842,72.520L37.837,72.557L37.839,72.616L37.863,72.735L37.887,72.785L37.918,72.808L37.977,72.805L37.988,72.743L38.036,72.728L38.101,72.874L38.156,72.974L38.310,73.074L38.283,73.130L38.340,73.160L38.339,73.256L38.342,73.343L38.285,73.404L38.267,73.460L38.205,73.487L38.154,73.521L38.079,73.655L38.147,73.695L38.408,73.686L38.408,73.722L38.367,73.729L38.320,73.754L38.281,73.762L38.281,73.803ZM30.996,60.376L31.061,60.495L31.004,60.652L30.894,60.801L30.799,60.899L30.797,60.728L30.810,60.550L30.866,60.417L30.996,60.376ZM30.853,60.329L30.865,60.296L30.960,60.354L30.865,60.376L30.853,60.329ZM30.777,60.269L30.839,60.275L30.841,60.326L30.837,60.370L30.770,60.387L30.703,60.415L30.672,60.519L30.683,60.581L30.697,60.624L30.691,60.659L30.641,60.698L30.599,60.705L30.558,60.691L30.524,60.665L30.511,60.640L30.510,60.582L30.501,60.553L30.479,60.542L30.433,60.541L30.387,60.569L30.400,60.632L30.451,60.738L30.409,60.797L30.346,60.788L30.272,60.733L30.197,60.657L30.290,60.539L30.499,60.369L30.612,60.252L30.695,60.287L30.777,60.269ZM32.393,70.172L32.348,70.293L32.016,70.743L31.944,70.809L31.804,70.879L31.741,70.899L31.685,70.894L31.661,70.839L31.686,70.795L31.743,70.774L31.807,70.761L31.851,70.738L31.895,70.637L31.847,70.569L31.748,70.536L31.633,70.541L31.633,70.497L31.717,70.427L31.670,70.316L31.581,70.281L31.499,70.577L31.422,70.654L31.338,70.710L31.278,70.782L31.370,70.859L31.401,70.980L31.374,71.091L31.294,71.140L31.260,71.127L31.202,71.071L31.180,71.060L31.155,71.074L31.101,71.128L31.013,71.165L30.909,71.278L30.865,71.304L30.787,71.263L30.760,71.159L30.768,70.922L30.789,70.927L30.838,70.870L30.912,70.760L30.962,70.721L30.980,70.777L30.976,70.869L30.958,70.943L31.051,70.919L31.117,70.723L31.215,70.702L31.215,70.658L31.141,70.591L31.056,70.541L31.004,70.529L30.958,70.531L30.913,70.528L30.865,70.497L30.799,70.541L30.830,70.725L30.707,70.835L30.517,70.888L30.023,70.939L29.889,70.999L29.749,71.100L29.671,70.960L29.588,71.006L29.499,71.120L29.401,71.184L29.328,71.200L29.336,71.242L29.377,71.300L29.401,71.363L29.371,71.406L29.301,71.424L29.162,71.425L29.052,71.464L28.835,71.618L28.700,71.626L28.677,71.603L28.660,71.562L28.646,71.523L28.637,71.505L28.594,71.516L28.572,71.542L28.558,71.570L28.542,71.589L28.417,71.661L28.362,71.659L28.317,71.589L28.387,71.506L28.345,71.432L28.265,71.351L28.207,71.204L28.144,71.125L28.127,71.100L28.125,71.023L28.142,70.976L28.152,70.930L28.127,70.859L28.159,70.850L28.217,70.824L28.254,70.819L28.231,70.757L28.191,70.714L28.095,70.658L28.023,70.705L27.932,70.734L27.838,70.731L27.671,70.625L27.568,70.639L27.394,70.738L27.238,70.867L26.821,71.385L26.863,71.465L26.894,71.589L26.904,71.674L26.919,71.809L26.897,71.952L26.844,72.014L26.780,72.059L26.725,72.152L26.712,72.410L26.767,72.643L26.777,72.852L26.630,73.039L26.517,73.091L26.449,73.106L26.417,73.153L26.409,73.301L26.432,73.409L26.530,73.630L26.538,73.722L26.484,73.790L26.278,73.915L26.140,74.044L26.047,74.102L25.979,74.107L25.993,74.007L26.091,73.927L26.107,73.899L26.142,73.811L26.151,73.762L26.192,73.820L26.246,73.829L26.293,73.790L26.313,73.704L26.294,73.599L26.249,73.543L26.192,73.505L26.137,73.459L26.055,73.407L25.763,73.300L25.659,73.280L25.632,73.253L25.517,73.080L25.466,73.044L25.338,72.987L25.293,72.959L25.187,72.859L25.100,72.801L25.014,72.822L24.915,72.959L24.981,72.959L24.981,72.995L24.818,73.002L24.763,72.969L24.754,72.875L24.892,72.757L24.969,72.672L24.964,72.634L24.921,72.622L24.856,72.569L24.586,72.460L24.409,72.531L24.341,72.513L24.283,72.554L24.137,72.621L24.085,72.634L23.958,72.634L23.937,72.614L23.920,72.579L23.898,72.571L23.860,72.634L23.901,72.701L23.917,72.775L23.897,72.840L23.831,72.875L23.798,72.878L23.779,72.872L23.770,72.852L23.767,72.813L23.754,72.764L23.725,72.760L23.702,72.778L23.702,72.794L23.554,72.741L23.513,72.718L23.432,72.625L23.385,72.602L23.321,72.634L23.343,72.681L23.345,72.709L23.321,72.755L23.308,72.751L23.263,72.795L23.257,72.831L23.242,72.852L23.241,72.874L23.230,72.895L23.191,72.915L23.160,72.907L23.131,72.874L23.109,72.831L23.096,72.794L23.072,72.853L23.045,72.891L23.012,72.900L22.969,72.875L23.010,72.795L23.022,72.689L23.003,72.597L22.953,72.557L22.922,72.597L22.794,72.853L22.687,73.014L22.637,73.067L22.407,73.221L22.340,73.233L22.303,73.156L22.269,73.176L22.227,73.185L22.191,73.173L22.176,73.136L22.167,73.083L22.145,73.081L22.114,73.101L22.081,73.116L22.073,73.129L22.046,73.158L22.011,73.187L21.970,73.200L21.946,73.179L21.935,73.133L21.886,73.069L21.892,73.001L21.917,72.953L21.913,72.926L21.873,72.915L21.718,72.791L21.621,72.613L21.478,72.573L21.307,72.509L21.207,72.704L20.996,72.959L20.827,73.112L20.800,73.246L20.751,73.297L20.674,73.237L20.648,73.189L20.582,73.156L20.586,73.083L20.675,73.086L20.722,72.946L20.713,72.880L20.740,72.794L20.757,72.727L20.737,72.662L20.702,72.617L20.736,72.477L20.696,72.404L20.577,72.392L20.553,72.331L20.535,72.251L20.505,72.192L20.499,72.128L20.553,72.031L20.615,71.973L20.674,71.934L20.729,71.882L20.775,71.787L20.786,71.709L20.772,71.658L20.751,71.616L20.726,71.467L20.662,71.350L20.648,71.284L20.639,71.262L20.567,71.202L20.546,71.148L20.563,71.104L20.594,71.064L20.614,71.023L20.629,70.842L20.645,70.770L20.677,70.702L20.729,70.726L20.805,70.738L20.872,70.726L20.902,70.680L20.932,70.662L21.124,70.618L21.197,70.579L21.298,70.544L21.225,70.477L21.159,70.479L20.980,70.437L20.933,70.417L20.905,70.467L20.893,70.482L20.835,70.461L20.860,70.392L20.899,70.326L20.950,70.276L21.032,70.208L21.094,70.231L21.155,70.284L21.147,70.350L21.187,70.376L21.247,70.382L21.315,70.372L21.379,70.348L21.426,70.314L21.489,70.291L21.604,70.359L21.680,70.380L21.764,70.369L21.796,70.564L21.856,70.618L21.944,70.627L21.973,70.562L22.032,70.475L21.948,70.377L21.934,70.338L21.938,70.263L22.037,70.291L22.105,70.267L22.233,70.240L22.316,70.217L22.371,70.272L22.448,70.390L22.379,70.382L22.308,70.325L22.262,70.312L22.208,70.333L22.173,70.388L22.146,70.455L22.126,70.533L22.113,70.618L22.146,70.600L22.205,70.554L22.239,70.541L22.463,70.530L22.643,70.478L22.697,70.342L22.838,70.345L23.067,70.296L23.062,70.120L23.123,70.051L23.261,69.905L23.288,69.853L23.254,69.736L23.287,69.710L23.384,69.686L23.561,69.543L23.634,69.463L23.702,69.369L23.722,69.306L23.731,69.173L23.765,69.146L23.860,69.152L23.910,69.161L23.902,69.109L23.902,69.013L23.914,68.910L24.000,68.878L24.066,68.912L24.191,68.945L24.258,68.891L24.270,68.843L24.302,68.821L24.447,68.839L24.608,68.817L24.813,68.754L24.965,68.682L25.047,68.640L25.129,68.586L25.151,68.451L25.169,68.401L25.201,68.323L25.305,68.302L25.329,68.257L25.433,68.155L25.587,68.007L25.775,67.864L25.885,67.696L25.948,67.633L26.037,67.658L26.068,67.579L26.081,67.451L26.303,67.241L26.399,67.150L26.521,67.047L26.792,66.827L26.886,66.702L27.045,66.669L27.151,66.622L27.259,66.540L27.304,66.365L27.445,66.252L27.552,66.171L27.595,66.113L27.583,66.050L27.656,65.962L27.683,65.876L27.959,65.652L28.090,65.539L28.248,65.465L28.258,65.390L28.343,65.362L28.461,65.298L28.672,65.233L28.754,65.173L28.813,65.065L28.868,64.967L28.906,64.817L28.918,64.717L28.918,64.638L28.903,64.556L28.824,64.512L28.719,64.436L28.685,64.370L28.738,64.312L28.834,64.300L28.955,64.264L29.045,64.263L29.198,64.267L29.264,64.249L29.293,64.222L29.245,64.179L29.157,64.136L29.207,64.125L29.283,64.099L29.389,64.076L29.525,63.993L29.678,63.928L29.805,63.900L30.071,63.887L30.183,63.854L30.291,63.864L30.308,63.718L30.392,63.702L30.499,63.724L30.588,63.694L30.629,63.602L30.673,63.530L30.732,63.492L30.810,63.521L30.856,63.449L30.856,63.367L30.921,63.390L30.988,63.465L31.089,63.551L31.159,63.596L31.313,63.541L31.394,63.536L31.476,63.476L31.501,63.504L31.469,63.561L31.491,63.584L31.544,63.590L31.576,63.568L31.669,63.527L31.764,63.516L31.866,63.510L31.946,63.561L31.885,63.600L31.820,63.619L31.765,63.648L31.687,63.672L31.628,63.751L31.615,63.765L31.613,63.836L31.642,63.906L31.661,63.987L31.800,64.080L31.963,64.167L32.108,64.197L32.200,64.221L32.291,64.233L32.371,64.220L32.482,64.017L32.721,63.903L32.873,63.832L33.127,63.767L33.370,63.839L33.828,63.947L34.666,63.878L35.116,63.746L35.239,63.850L35.884,63.751L36.181,63.690L36.294,63.649L36.385,63.582L36.442,63.459L36.668,63.412L36.712,63.410L36.756,63.401L36.826,63.310L36.999,63.251L37.243,63.155L37.391,63.059L37.571,62.951L37.819,63.026L38.084,62.998L38.289,63.002L38.639,62.984L38.785,62.990L38.855,63.009L38.952,63.040L38.990,63.109L39.087,63.033L39.169,63.039L39.188,63.106L39.247,63.087L39.330,63.115L39.383,63.134L39.477,63.053L39.507,63.035L39.553,63.017L39.534,62.942L39.666,62.848L39.772,62.840L39.857,62.829L39.930,62.777L40.120,62.635L40.113,62.558L40.346,62.482L40.576,62.433L40.698,62.414L40.776,62.362L40.886,62.447L40.938,62.553L41.007,62.603L41.081,62.719L41.134,62.853L41.144,62.955L41.112,63.035L41.019,62.973L40.924,63.041L40.867,63.167L40.848,63.243L40.803,63.292L40.674,63.450L40.596,63.582L40.597,63.698L40.633,63.730L40.682,63.720L40.689,63.617L40.752,63.564L40.815,63.467L40.875,63.425L40.899,63.545L40.955,63.570L40.980,63.594L40.939,63.626L40.892,63.627L40.836,63.623L40.831,63.717L41.123,63.886L41.191,63.856L41.229,63.820L41.280,63.916L41.253,63.995L41.231,64.049L41.186,64.160L41.178,64.208L41.204,64.276L41.256,64.232L41.300,64.134L41.359,64.041L41.443,64.046L41.556,64.103L41.591,64.069L41.591,63.923L41.458,63.954L41.349,63.904L41.291,63.744L41.400,63.645L41.458,63.625L41.593,63.622L41.654,63.601L41.701,63.553L41.745,63.493L41.763,63.431L41.874,63.356L41.851,63.452L41.823,63.542L41.905,63.576L41.965,63.616L41.946,63.707L41.954,63.765L41.946,63.804L41.947,63.832L41.990,63.842L42.024,63.824L42.057,63.778L42.101,63.682L42.102,63.789L42.085,63.894L42.096,63.975L42.182,64.007L42.315,64.013L42.358,64.007L42.401,63.988L42.493,63.934L42.533,63.863L42.624,63.774L42.736,63.712L42.833,63.762L42.810,63.790L42.704,63.836L42.670,64.002L42.612,64.043L42.718,64.081L42.958,64.012L43.087,64.019L43.150,63.972L43.198,63.884L43.197,63.767L43.070,63.833L43.013,63.726L42.935,63.694L43.002,63.599L43.152,63.549L43.197,63.586L43.234,63.676L43.332,63.671L43.410,63.780L43.487,63.806L43.597,63.762L43.547,63.738L43.513,63.694L43.445,63.564L43.458,63.522L43.510,63.508L43.558,63.556L43.624,63.532L43.692,63.499L43.678,63.456L43.645,63.424L43.613,63.381L43.597,63.298L43.579,63.275L43.512,63.194L43.492,63.120L43.546,63.113L43.628,63.178L43.688,63.229L43.753,63.271L43.911,63.232L43.948,63.288L43.993,63.328L44.086,63.267L44.139,63.206L44.233,63.223L44.277,63.196L44.282,63.119L44.198,63.050L44.242,62.927L44.248,62.841L44.228,62.770L44.165,62.784L44.163,62.621L44.281,62.553L44.459,62.403L44.523,62.515L44.512,62.563L44.548,62.655L44.585,62.765L44.562,62.838L44.515,62.837L44.492,62.900L44.568,62.963L44.587,63.030L44.688,63.012L44.714,62.911L44.745,62.880L44.755,62.844L44.751,62.762L44.796,62.698L44.797,62.642L44.799,62.534L44.831,62.435L44.829,62.342L44.777,62.227L44.723,62.130L44.694,62.053L44.594,61.971L44.424,61.781L44.337,61.698L44.345,61.533L44.341,61.399L44.231,61.257L44.169,61.180L44.196,61.023L44.308,60.953L44.368,60.880L44.450,60.684L44.511,60.547L44.570,60.370L44.798,60.073L44.867,59.932L44.925,59.847L44.993,59.701L44.922,59.572L44.944,59.532L45.040,59.526L45.122,59.538L45.281,59.466L45.661,59.125L45.753,58.979L45.978,58.870L46.143,58.721L46.365,58.477L47.340,57.123L47.571,56.722L47.900,55.899L47.923,55.788L47.923,55.647L47.889,55.612L47.853,55.575L47.860,55.518L47.902,55.418L47.933,55.249L47.897,55.137L47.815,55.059L47.765,54.857L47.713,54.814L47.704,54.689L47.743,54.393L47.716,54.302L47.658,54.256L47.611,54.269L47.601,54.335L47.509,54.329L47.480,54.255L47.500,54.105L47.535,53.966L47.574,53.872L47.644,53.794L47.608,53.728L47.678,53.660L47.740,53.551L47.773,53.461L47.732,53.387L47.719,53.223L47.847,53.032L48.008,52.938L48.279,52.787L48.458,52.737L48.564,52.794L48.709,52.787L49.220,52.502L49.344,52.472L49.436,52.356L49.541,52.268L50.199,52.051L50.386,52.010L50.596,52.095L50.642,52.160L50.608,52.274L50.616,52.342L50.679,52.392L50.666,52.471L50.643,52.515L50.522,52.554L50.442,52.550L50.346,52.531L50.257,52.569L50.190,52.613L50.155,52.704L50.115,52.902L50.168,53.035L50.254,53.048L50.245,53.138L50.232,53.219L50.200,53.283L50.116,53.362L50.081,53.419L49.984,53.413L49.781,53.367L49.517,53.470L49.443,53.600L49.343,53.737L49.340,53.851L49.265,53.901L49.165,53.933L49.137,54.012L49.078,54.050L48.920,53.981L48.827,53.918L48.761,53.860L48.809,53.796L48.826,53.756L48.785,53.758L48.742,53.815L48.689,53.834L48.671,53.881L48.624,53.971L48.513,54.118L48.456,54.289L48.527,54.320L48.516,54.446L48.491,54.488L48.402,54.485L48.399,54.613L48.366,54.686L48.430,54.728L48.516,54.708L48.614,54.653L48.704,54.668L48.841,54.833L48.920,54.862L49.031,54.811L49.125,54.576L49.192,54.533L49.231,54.556L49.263,54.668L49.239,55.003L49.265,55.333L49.139,55.498L49.128,55.644L48.955,55.897L49.038,56.103L49.258,56.250L49.387,56.373L49.607,56.451L49.741,56.545L49.928,56.561L50.134,56.520L50.399,56.568L50.560,56.534L50.640,56.419L50.794,56.314L50.846,56.154L50.909,56.049L50.930,55.950L50.961,55.859L50.934,55.744L50.996,55.597L51.091,55.529L51.331,55.398L51.737,55.315L52.186,55.208L52.763,54.956L53.177,54.799L53.654,54.484L53.905,54.372L54.014,54.257L54.110,54.131L54.421,54.186L54.618,54.142L54.795,54.056L55.167,53.778L55.689,53.243L56.215,52.914L56.342,52.767L56.429,52.576L56.549,52.328L56.721,52.052L56.993,51.814L57.125,51.625L57.213,51.403L57.417,50.661L57.499,50.446L57.641,50.266L57.979,49.989L58.580,49.571L58.619,49.517L58.726,49.520L58.917,49.496L59.305,49.312L59.412,49.235L59.717,49.006L60.197,48.477L60.277,48.363L60.310,48.258L60.449,47.047L60.498,46.826L60.591,46.581L60.764,46.264L60.997,45.682L61.085,45.439L61.215,45.245L61.629,44.865L61.774,44.670L61.897,44.445L62.089,43.716L62.285,43.179L62.331,43.003L62.362,42.789L62.393,42.694L62.445,42.585L62.463,42.473L62.473,42.231L62.499,42.045L62.561,41.824L62.630,41.679L62.778,41.610L62.925,41.443L63.041,40.970L63.173,40.399L63.223,39.261L63.222,39.088L63.129,38.842L63.129,38.701L63.075,38.517L62.968,38.362L62.791,38.190L62.582,38.082L62.378,38.115L62.317,38.177L62.273,38.244L62.221,38.298L62.137,38.320L61.833,38.320L61.794,38.271L61.731,38.120L61.694,38.057L61.594,37.930L61.573,37.807L61.644,37.766L61.558,37.716L61.543,37.552L61.556,37.451L61.755,37.588L62.020,37.705L62.121,37.713L62.329,37.577L62.502,37.380L62.845,36.746L62.917,36.486L62.894,36.360L62.960,36.175L62.999,36.099L63.039,35.524L63.060,35.395L63.001,35.320L62.940,35.265L62.777,35.108L62.696,35.020L62.681,34.928L62.695,34.671L62.685,34.416L62.681,34.280L62.626,34.222L62.615,34.125L62.553,34.035L62.373,34.051L62.282,34.012L62.298,33.902L62.391,33.805L62.484,33.704L62.603,33.678L62.662,33.543L62.759,33.497L62.808,33.403L62.886,33.260L62.938,33.118L63.161,32.967L63.269,32.979L63.389,33.075L63.447,33.106L63.515,33.102L63.598,33.074L63.666,33.004L63.867,32.857L63.965,32.904L64.064,32.874L64.146,32.803L64.205,32.704L64.325,32.343L64.383,31.975L64.416,31.868L64.411,31.726L64.430,31.602L64.442,31.438L64.456,31.438L64.531,31.570L64.572,31.610L64.630,31.642L64.664,31.682L64.723,31.669L64.693,31.527L64.664,31.473L64.698,31.435L64.738,31.427L64.789,31.441L64.841,31.449L64.826,31.399L64.800,31.368L64.707,31.375L64.657,31.374L64.575,31.371L64.547,31.341L64.529,31.306L64.497,31.332L64.465,31.358L64.452,31.334L64.446,31.185L64.442,31.112L64.341,30.945L64.256,30.899L64.177,30.888L64.099,30.874L64.087,30.812L64.137,30.783L64.255,30.774L64.359,30.796L64.435,30.719L64.477,30.587L64.493,30.474L64.472,30.415L64.480,30.353L64.493,30.204L64.531,30.150L64.518,30.077L64.537,30.036L64.615,30.106L64.708,30.164L64.765,30.185L64.849,30.278L64.971,30.434L65.094,30.518L65.194,30.520L65.321,30.437L65.384,30.306L65.495,30.269L65.706,30.304L65.886,30.457L65.932,30.592L65.906,30.748L65.895,30.921L65.878,30.978L65.880,31.052L65.906,31.177L65.926,31.356L65.987,31.550L66.073,32.214L66.213,32.463L66.442,32.570L66.659,32.547L66.806,32.384L66.905,32.283L66.992,32.099L66.968,32.057L66.955,31.991L66.974,31.947L66.992,31.925L66.955,31.910L66.912,31.924L66.882,31.908L66.851,31.877L66.892,31.857L66.949,31.852L66.939,31.805L66.947,31.765L66.993,31.730L66.981,31.693L66.998,31.665L67.045,31.554L67.075,31.537L67.141,31.547L67.194,31.623L67.308,31.633L67.354,31.654L67.396,31.730L67.436,31.779L67.506,31.837L67.507,31.872L67.498,31.884L67.496,31.886L67.484,31.917L67.476,31.966L67.498,31.979L67.550,31.987L67.643,32.015L67.754,32.081L67.811,32.102L67.862,32.091L67.908,32.125L67.935,32.188L67.981,32.268L68.023,32.297L68.109,32.349L68.179,32.348L68.275,32.313L68.353,32.240L68.452,32.122L68.644,31.674L68.690,31.507L68.716,31.113L68.743,31.023L68.736,30.971L68.764,30.901L68.816,30.858L68.857,30.796L68.883,30.686L68.848,30.510L68.782,30.357L68.686,30.200L68.548,30.042L68.444,29.970L68.341,29.961L68.300,30.047L68.270,30.096L68.228,30.148L68.231,30.172L68.260,30.178L68.287,30.136L68.317,30.101L68.331,30.089L68.330,30.110L68.321,30.139L68.274,30.210L68.119,30.339L68.032,30.363L67.928,30.443L67.862,30.523L67.751,30.506L67.618,30.448L67.555,30.462L67.488,30.444L67.420,30.483L67.342,30.580L67.164,30.578L67.085,30.636L67.013,30.620L66.954,30.634L66.795,30.740L66.730,30.844L66.654,30.843L66.504,30.747L66.502,30.514L66.503,30.447L66.562,30.383L66.592,30.216L66.572,30.118L66.631,29.962L66.660,29.817L66.678,29.710L66.678,29.661L66.733,29.614L66.773,29.454L66.790,29.319L66.835,29.139L66.911,29.068L67.052,28.850L67.118,28.798L67.132,28.769L67.160,28.653L67.154,28.581L67.125,28.516L67.144,28.492L67.160,28.431L67.191,28.382L67.253,28.462L67.363,28.529L67.427,28.604L67.490,28.672L67.560,28.710L67.608,28.734L67.691,28.751L67.895,28.769L68.092,28.870L68.256,29.051L68.334,29.145L68.428,29.213L68.447,29.261L68.498,29.322L68.687,29.437L68.874,29.522L69.069,29.523L69.212,29.480L69.367,29.407L69.498,29.303L69.596,29.210L69.674,29.138L69.731,29.068L69.747,29.093L69.761,29.132L69.731,29.168L69.745,29.224L69.737,29.243L69.700,29.268L69.708,29.294L69.728,29.317L69.717,29.379L69.660,29.445L69.635,29.534L69.598,29.658L69.561,29.760L69.491,30.090L69.470,30.243L69.467,30.302L69.407,30.653L69.425,30.787L69.442,30.846L69.424,30.915L69.426,30.995L69.433,31.060L69.386,31.421L69.395,31.734L69.405,31.989L69.418,32.060L69.476,32.678L69.558,33.214L69.624,33.541L69.777,33.992L69.833,34.106L69.876,34.175L70.006,34.319L70.065,34.357L70.138,34.356L70.190,34.310L70.265,34.293L70.296,34.349L70.329,34.412L70.489,34.534L70.755,34.831L70.801,34.882L70.932,35.055L70.965,35.167L71.047,35.225L71.092,35.310L71.115,35.372L71.182,35.519L71.194,35.557L71.208,35.628L71.241,35.679L71.324,35.778L71.449,36.006L71.503,36.156L71.467,36.223L71.422,36.243L71.379,36.291L71.356,36.350L71.370,36.404L71.428,36.451L71.553,36.500L71.610,36.544L71.667,36.665L71.614,36.736L71.528,36.807L71.483,36.928L71.505,37.070L71.563,37.161L71.864,37.432L71.913,37.460L71.964,37.476L72.003,37.505L72.030,37.632L72.050,37.694L72.058,37.757L72.036,37.815L71.982,37.889L71.969,37.929L72.019,38.035L72.048,38.082L72.079,38.121L72.106,38.173L72.123,38.354L72.138,38.430L72.248,38.793L72.260,38.822L72.255,38.853L72.269,38.894L72.278,38.939L72.260,38.985L72.209,39.042L72.196,39.071L72.162,39.209L72.149,39.470L72.136,39.557L72.074,39.687L72.053,39.770L72.081,39.847L72.295,39.627L72.405,39.609L72.381,39.664L72.372,39.703L72.380,39.735L72.405,39.770L72.364,39.869L72.380,39.931L72.511,40.057L72.535,40.074L72.553,40.095L72.564,40.131L72.559,40.188L72.538,40.212L72.513,40.231L72.500,40.273L72.471,40.293L72.307,40.493L72.234,40.538L72.081,40.595L72.019,40.658L72.102,40.760L72.220,40.749L72.325,40.666L72.371,40.556L72.406,40.522L72.472,40.562L72.508,40.625L72.451,40.658L72.422,40.694L72.415,40.778L72.414,40.874L72.384,40.913L72.286,40.923L72.242,40.935L72.198,40.930L72.149,40.942L72.105,40.974L72.006,41.065L71.952,41.103L72.070,41.159L72.020,41.239L71.898,41.330L71.797,41.424L71.887,41.457L71.990,41.425L72.084,41.362L72.149,41.304L72.161,41.444L72.068,41.530L71.842,41.634L71.879,41.660L71.907,41.698L71.924,41.749L71.885,41.746L71.806,41.753L71.768,41.749L71.764,41.826L71.768,41.906L71.919,41.911L71.991,41.899L71.990,41.906L72.001,42.027L71.912,42.120L71.782,42.166L71.673,42.147L71.687,42.236L71.743,42.270L71.895,42.268L71.846,42.369L71.750,42.431L71.631,42.463L71.511,42.472L71.592,42.554L71.814,42.723L71.834,42.794L71.728,42.842L71.473,42.755L71.388,42.834L71.585,42.937L71.642,42.998L71.589,43.020L71.533,43.033L71.476,43.038L71.416,43.035L71.416,43.079L71.466,43.107L71.532,43.162L71.567,43.215L71.528,43.240L71.338,43.195L71.152,43.223L71.055,43.215L70.972,43.155L70.974,43.241L71.000,43.309L71.036,43.372L71.067,43.440L71.014,43.432L70.969,43.442L70.906,43.521L70.975,43.546L71.001,43.601L70.984,43.656L70.923,43.682L70.863,43.660L70.801,43.606L70.751,43.541L70.719,43.480L70.779,43.452L70.814,43.396L70.616,43.388L70.557,43.455L70.567,43.574L70.589,43.822L70.699,44.118L70.721,44.240L70.621,44.167L70.608,44.139L70.591,44.059L70.575,44.025L70.550,44.010L70.525,44.018L70.496,44.034L70.462,44.043L70.373,44.044L70.326,44.062L70.307,44.115L70.304,44.225L70.315,44.339L70.330,44.392L70.319,44.432L70.255,44.507L70.056,44.659L70.015,44.733L70.063,44.761L70.095,44.803L70.142,44.894L70.226,44.965L70.252,45.024L70.223,45.113L70.192,45.137L70.167,45.119L70.142,45.093L70.113,45.091L70.090,45.110L70.032,45.193L69.988,45.227L69.873,45.266L69.825,45.296L69.743,45.362L69.743,45.396L69.793,45.457L69.846,45.482L70.064,45.497L70.078,45.534L70.045,45.617L69.997,45.700L69.967,45.738L69.761,45.902L69.836,45.974L69.910,46.066L69.983,46.106L70.050,46.023L70.111,46.114L70.136,46.201L70.133,46.298L70.113,46.421L70.062,46.405L70.027,46.372L70.001,46.323L69.983,46.264L69.918,46.485L69.891,46.541L69.918,46.559L69.930,46.578L69.937,46.599L69.952,46.625L69.835,46.660L69.782,46.689L69.777,46.726L69.809,46.791L69.807,46.842L69.810,46.890L69.857,46.946L69.910,46.902L70.000,46.886L70.089,46.910L70.142,46.987L70.073,46.959L70.009,46.955L69.956,46.987L69.920,47.067L70.032,47.135L70.051,47.255L70.053,47.382L70.113,47.472L70.088,47.517L70.032,47.677L70.001,47.662L69.874,47.533L69.843,47.514L69.775,47.511L69.744,47.492L69.729,47.451L69.744,47.415L69.764,47.383L69.761,47.352L69.718,47.306L69.569,47.232L69.593,47.192L69.634,47.067L69.580,47.015L69.540,47.013L69.499,47.029L69.441,47.031L69.386,47.012L69.339,46.985L69.235,46.886L69.140,46.846L69.006,46.853L68.658,46.934L68.532,46.983L68.432,47.069L68.392,47.209L68.405,47.345L68.380,47.354L68.299,47.352L68.278,47.314L68.204,47.067L68.164,47.096L68.124,47.107L68.084,47.099L68.046,47.067L67.961,47.130L67.893,47.214L67.844,47.316L67.818,47.432L67.863,47.407L67.915,47.400L67.959,47.420L67.980,47.472L67.966,47.518L67.929,47.549L67.881,47.578L67.837,47.613L67.673,47.812L67.536,48.035L67.438,48.250L67.247,48.963L67.214,49.211L67.219,49.458L67.279,49.890L67.282,49.905L67.403,50.136L67.561,50.431L67.613,50.640L67.630,50.723L67.673,50.783L67.695,50.860L67.694,50.979L67.680,51.027L67.635,51.105L67.628,51.143L67.645,51.182L67.709,51.266L67.723,51.324L67.786,52.918L67.760,53.109L67.659,53.540L67.659,53.726L67.628,53.803L67.628,54.350L67.616,54.415L67.536,54.609L67.473,55.127L67.408,55.336L67.247,55.497L67.208,55.511L67.089,55.537L66.937,55.644L66.827,55.676L66.757,55.759L66.720,55.778L66.683,55.809L66.672,55.876L66.673,55.979L66.650,56.041L66.631,56.094L66.439,56.402L66.393,56.500L66.170,57.386L65.915,57.846L65.843,58.044L65.781,58.469L65.783,58.561L65.843,58.788L65.849,58.883L65.812,59.034L65.638,59.229L65.567,59.356L65.578,59.575L65.634,60.075L65.780,60.463L65.948,60.944L66.613,62.148L66.806,62.428L66.856,62.538L66.907,62.567L66.939,62.579L66.965,62.590L67.008,62.615L67.032,62.667L66.982,62.806L66.945,62.859L66.881,62.815L66.850,62.762L66.794,62.705L66.678,62.732L66.528,62.805L66.295,62.890L66.274,62.795L66.018,62.854L65.716,63.069L65.193,63.576L64.913,64.019L64.740,64.665L64.828,64.971L64.866,65.134L64.824,65.379L64.800,65.600L64.778,65.750L64.701,65.869L64.568,65.844L64.482,65.978L64.496,66.069L64.439,66.139L64.356,66.121L64.314,66.044L64.243,66.130L64.124,66.114L64.050,66.245L63.876,66.230L63.669,66.212L63.572,66.185L63.439,66.332L63.415,66.461L63.298,66.558L63.205,66.560L63.045,66.680L62.905,66.786L62.857,66.862L62.830,66.964L62.780,67.048L62.783,67.146L62.771,67.255L62.726,67.330L62.682,67.385L62.605,67.452L62.486,67.477L62.403,67.487L62.346,67.467L62.277,67.481L62.218,67.495L62.195,67.467L62.120,67.424L62.134,67.369L62.126,67.289L62.068,67.239L61.920,67.176L61.818,67.164L61.797,67.114L61.799,67.049L61.857,67.045L61.942,67.058L61.992,67.063L62.058,67.047L62.113,67.016L62.144,66.964L62.205,66.959L62.290,66.984L62.322,66.962L62.343,66.910L62.332,66.828L62.278,66.784L62.184,66.746L62.179,66.686L62.233,66.631L62.248,66.565L62.238,66.499L62.195,66.387L62.184,66.322L62.187,66.111L62.106,65.979L62.121,65.903L62.108,65.818L62.132,65.735L62.259,65.643L62.321,65.588L62.326,65.458L62.242,65.308L62.247,65.179L62.056,65.109L61.935,65.058L61.930,65.035L62.028,65.039L62.130,64.974L62.133,64.865L62.198,64.792L62.226,64.693L62.449,64.763L62.519,64.678L62.516,64.598L62.483,64.417L62.542,64.350L62.672,64.303L62.755,64.222L62.865,64.207L62.974,64.121L63.040,64.016L63.140,63.883L63.281,63.712L63.366,63.724L63.401,63.639L63.421,63.570L63.347,63.571L63.333,63.461L63.317,63.355L63.243,63.286L63.168,63.195L63.100,63.135L62.989,63.024L62.927,63.042L62.871,62.972L62.717,62.949L62.578,63.011L62.666,63.159L62.539,63.234L62.469,63.291L62.441,63.240L62.387,63.228L62.347,63.192L62.316,63.187L62.252,63.155L62.219,63.206L62.191,63.290L62.129,63.241L62.113,63.152L62.050,63.151L62.019,63.266L61.968,63.357L61.901,63.272L61.905,63.134L61.857,63.061L61.824,63.190L61.873,63.370L61.947,63.491L61.948,63.563L62.014,63.729L61.957,63.804L61.963,63.886L61.956,63.896L61.918,63.953L61.760,64.057L61.619,64.172L61.499,64.193L61.400,64.153L61.329,64.173L61.285,64.233L61.378,64.279L61.463,64.327L61.495,64.363L61.470,64.442L61.492,64.549L61.435,64.548L61.321,64.491L61.255,64.543L61.285,64.621L61.355,64.688L61.343,64.909L61.320,64.984L61.322,65.080L61.314,65.154L61.356,65.220L61.388,65.148L61.446,65.191L61.526,65.325L61.712,65.346L61.765,65.441L61.674,65.534L61.690,65.557L61.697,65.577L61.703,65.597L61.684,65.688L61.501,65.676L61.398,65.766L61.370,65.858L61.417,65.965L61.462,66.026L61.484,66.080L61.438,66.103L61.388,66.113L61.282,66.085L61.207,66.131L61.165,66.118L61.142,66.071L61.164,66.008L61.155,65.882L61.097,65.719L61.200,65.661L61.182,65.613L61.109,65.587L61.078,65.502L60.947,65.324L60.932,65.282L60.906,65.218L60.850,65.212L60.830,65.095L60.748,65.129L60.655,65.117L60.563,65.138L60.471,65.063L60.229,65.030L59.835,65.115L59.612,65.164L59.386,65.228L59.155,65.357L58.980,65.522L58.964,65.824L59.036,66.103L58.863,66.022L58.713,66.259L58.658,66.465L58.654,66.594L58.794,66.616L58.775,66.727L58.753,66.839L58.704,66.922L58.769,67.055L58.909,67.112L58.964,67.246L58.991,67.465L58.956,67.668L58.856,67.687L58.762,67.753L58.713,67.835L58.692,67.917L58.650,68.031L58.576,68.127L58.542,68.214L58.502,68.274L58.424,68.294L58.390,68.352L58.353,68.397L58.296,68.476L58.314,68.543L58.288,68.583L58.250,68.664L58.235,68.770L58.244,68.879L58.273,68.967L58.220,68.999L58.175,68.991L58.139,68.951L58.027,68.901L57.819,69.089L57.656,69.181L57.537,69.284L57.466,69.246L57.401,69.180L57.348,69.106L57.240,68.982L57.270,68.888L57.252,68.843L57.219,68.812L57.183,68.799L57.150,68.777L57.125,68.722L57.122,68.618L57.113,68.502L57.170,68.451L57.196,68.388L57.253,68.370L57.181,68.185L57.132,68.006L57.177,67.909L57.198,67.810L57.188,67.795L57.190,67.675L57.159,67.616L57.201,67.530L57.265,67.467L57.326,67.455L57.273,67.365L57.252,67.309L57.204,67.165L57.196,67.025L57.265,66.888L57.308,66.751L57.497,66.767L57.630,66.795L57.722,66.788L57.809,66.789L57.873,66.726L57.621,66.446L57.552,66.321L57.388,66.189L57.114,66.113L56.891,66.089L56.740,66.158L56.617,66.224L56.383,66.234L56.231,66.341L56.108,66.608L55.970,66.715L55.956,66.902L56.012,66.959L56.012,66.837L56.077,66.792L56.126,66.807L56.046,67.023L55.833,67.147L55.653,67.232L55.517,67.304L55.362,67.393L55.298,67.471L55.268,67.564L55.220,67.647L55.182,67.758L55.190,67.816L55.240,67.928L55.171,68.037L55.120,68.093L55.019,68.285L54.816,68.442L54.660,68.600L54.594,68.907L54.556,69.016L54.590,69.133L54.702,69.164L54.773,69.245L54.741,69.292L54.540,69.253L53.876,68.939L53.506,68.869L53.159,68.862L52.692,69.028L52.187,68.844L51.776,68.806L51.553,68.805L50.998,68.862L50.590,68.981L49.666,69.323L49.457,69.300L49.220,69.374L49.158,69.381L49.087,69.385L49.122,69.315L49.150,69.272L49.209,69.157L49.255,68.985L49.350,68.880L49.482,69.030L49.497,69.072L49.527,69.111L49.563,69.062L49.574,69.039L49.649,68.992L49.723,68.958L49.791,68.927L49.929,68.825L50.132,68.691L50.218,68.647L50.323,68.488L50.397,68.506L50.404,68.632L50.385,68.724L50.422,68.734L50.452,68.633L50.448,68.521L50.557,68.552L50.595,68.516L50.463,68.456L50.502,68.347L50.518,68.278L50.506,68.240L50.396,68.100L50.312,68.036L50.250,68.065L50.154,68.027L50.047,67.988L49.977,68.068L49.915,68.042L49.898,68.150L49.889,68.259L49.806,68.296L49.808,68.177L49.743,68.194L49.665,68.155L49.577,68.152L49.483,68.174L49.418,68.224L49.350,68.172L49.245,68.215L49.146,68.200L49.097,68.182L49.023,68.069L48.992,68.036L48.903,67.933L48.818,67.893L48.837,67.742L48.931,67.505L48.914,67.352L48.870,67.427L48.811,67.584L48.726,67.724L48.692,67.810L48.667,67.917L48.620,68.225L48.671,68.297L48.721,68.401L48.839,68.466L48.881,68.593L48.880,68.693L48.758,68.681L48.609,68.608L48.446,68.504L48.343,68.438L48.290,68.363L48.282,68.265L48.329,68.156L48.348,68.055L48.384,67.957L48.382,67.868L48.344,67.751L48.285,67.665L48.212,67.660L48.190,67.521L48.184,67.380L48.186,67.270L48.192,67.172L48.238,67.071L48.287,66.968L48.347,66.859L48.389,66.755L48.454,66.649L48.468,66.488L48.481,66.382L48.417,66.357L48.348,66.543L48.310,66.674L48.288,66.549L48.283,66.465L48.223,66.443L48.266,66.715L48.143,66.745L48.125,66.619L48.081,66.621L48.073,66.765L47.983,66.786L47.859,66.753L47.827,66.769L47.737,66.746L47.531,66.901L47.429,67.001L47.386,67.089L47.380,67.127L47.356,67.182L47.351,67.212L47.362,67.246L47.440,67.257L47.366,67.320L47.378,67.427L47.337,67.559L47.229,67.769L46.991,68.083L46.852,68.285L46.817,68.547L46.790,68.662L46.780,68.784L46.790,68.812L46.839,68.906L46.858,68.927L46.905,68.957L46.902,69.026L46.881,69.106L46.876,69.168L46.927,69.249L47.006,69.282L47.210,69.284L47.307,69.312L47.381,69.379L47.445,69.460L47.512,69.529L47.861,69.770L48.100,69.877L48.150,69.931L48.199,69.911L48.264,69.912L48.326,69.934L48.372,69.971L48.403,70.041L48.412,70.103L48.425,70.160L48.470,70.216L48.530,70.240L48.580,70.233L48.622,70.237L48.661,70.296L48.667,70.361L48.625,70.577L48.569,70.548L48.515,70.541L48.469,70.562L48.433,70.618L48.454,70.656L48.488,70.690L48.535,70.708L48.594,70.702L48.521,70.774L48.495,70.813L48.470,70.859L48.507,70.921L48.537,71.020L48.549,71.128L48.527,71.220L48.482,71.258L48.319,71.324L48.248,71.341L48.169,71.334L48.056,71.301L47.968,71.250L47.960,71.184L48.027,71.159L48.126,71.179L48.220,71.222L48.276,71.264L48.267,71.225L48.260,71.171L48.248,71.140L48.308,71.184L48.344,71.060L48.299,70.981L48.210,70.953L48.118,70.979L48.129,71.019L48.128,71.038L48.122,71.057L48.118,71.100L47.960,70.979L47.881,71.049L47.739,71.079L47.631,71.054L47.657,70.961L47.727,70.841L47.650,70.824L47.508,70.870L47.386,70.943L47.471,70.969L47.465,71.038L47.409,71.108L47.260,71.175L47.192,71.234L47.119,71.245L47.034,71.140L47.006,71.177L46.987,71.192L46.975,71.212L46.971,71.264L46.842,71.192L46.796,71.184L46.772,71.254L46.746,71.307L46.717,71.341L46.758,71.439L46.703,71.443L46.558,71.385L46.352,71.533L46.302,71.589L46.152,71.589L45.931,71.708L45.756,71.883L45.747,72.051L45.799,72.098L45.837,72.118L45.849,72.150L45.823,72.232L45.800,72.261L45.762,72.287L45.720,72.305L45.684,72.313L45.636,72.286L45.578,72.172L45.541,72.152L45.511,72.181L45.436,72.308L45.382,72.349L45.382,72.393L45.450,72.392L45.500,72.413L45.531,72.459L45.541,72.535L45.625,72.625L45.667,72.689L45.652,72.718L45.642,72.751L45.646,72.909L45.636,72.959L45.568,72.992L45.516,72.959L45.475,72.894L45.446,72.831L45.384,72.902L45.319,72.959L45.319,72.995L45.424,73.016L45.457,73.094L45.429,73.153L45.348,73.116L45.325,73.221L45.291,73.256L45.133,73.284L45.112,73.301L45.076,73.343L45.029,73.417L45.003,73.435L44.951,73.441L44.854,73.430L44.689,73.691L44.446,74.357L44.338,74.637L44.323,74.659L44.277,74.833L44.189,74.894L44.169,74.993L44.075,75.042L44.082,75.121L44.181,75.185L44.117,75.275L43.961,75.452L43.876,75.488L43.832,75.562L43.568,75.653L43.481,75.703L43.429,75.762L43.359,75.893L43.393,76.007L43.388,76.080L43.308,76.057L43.252,76.125L43.224,76.018L43.302,75.920L43.278,75.842L42.826,75.789L42.683,75.765L42.002,75.491L41.788,75.434L41.623,75.296L41.568,75.247L41.521,75.180L41.519,75.099L41.544,75.034L41.490,74.926L41.464,74.891L41.438,74.880L41.388,74.826L41.310,74.808L41.244,74.726L41.315,74.592L41.483,74.567L41.591,74.550L41.541,74.476L41.305,74.290L41.215,74.245L41.172,74.171L41.088,74.181L40.950,74.078L40.802,74.074L40.790,73.976L40.635,73.881L40.527,73.742L40.432,73.521L40.273,73.421L40.187,73.439L40.026,73.464L39.995,73.497L40.007,73.439L40.031,73.400L39.988,73.372L40.020,73.344L40.090,73.344L40.084,73.270L40.045,73.199L40.116,73.131L40.192,73.059L40.163,73.034L40.081,73.032L40.074,72.923L40.149,72.838L40.248,72.830L40.316,72.799L40.433,72.734L40.473,72.644L40.478,72.557L40.433,72.505L40.341,72.448L40.238,72.404L40.161,72.393L40.256,72.192L40.267,72.182L40.305,72.166L40.320,72.152L40.328,72.125L40.329,72.071L40.293,71.984L40.413,71.978L40.591,71.991L40.604,71.911L40.557,71.815L40.492,71.692L40.413,71.699L40.351,71.451L40.278,71.366L40.152,71.262L40.006,71.218L40.053,71.109L40.210,70.919L40.693,70.777L40.914,70.574L41.029,70.452L41.207,70.268L41.364,70.040L41.453,69.940L41.461,69.803L41.456,69.737L41.538,69.710L41.576,69.655L41.619,69.608L41.647,69.507L41.651,69.378L41.653,69.204L41.614,69.059L41.597,68.914L41.640,68.718L41.569,68.753L41.493,68.782L41.409,68.736L41.307,68.622L41.197,68.631L41.054,68.640L41.057,68.790L40.900,68.807L40.906,68.666L40.744,68.726L40.848,68.962L40.702,68.936L40.671,68.806L40.586,68.819L40.577,68.959L40.239,69.023L40.092,69.097L39.935,69.113L39.800,69.012L39.626,69.019L39.538,69.004L39.429,68.864L39.293,68.804L39.203,68.722L38.948,68.546L38.795,68.490L38.618,68.336L38.535,68.280L38.311,68.223L37.710,68.280L37.678,68.270L37.652,68.250L37.628,68.241L37.598,68.260L37.575,68.280L37.546,68.300L37.515,68.315L37.488,68.320L37.427,68.313L37.380,68.292L37.355,68.245L37.359,68.160L37.328,68.170L37.298,68.190L37.275,68.220L37.267,68.260L37.260,68.308L37.246,68.313L37.226,68.307L37.200,68.320L37.081,68.493L37.041,68.521L36.975,68.517L36.927,68.486L36.887,68.452L36.848,68.438L36.788,68.460L36.739,68.511L36.713,68.576L36.721,68.642L36.594,68.646L36.361,68.582L36.228,68.565L36.102,68.504L36.047,68.507L36.084,68.602L36.131,68.625L36.372,68.682L36.336,68.694L36.246,68.709L36.214,68.722L36.120,68.862L36.100,68.886L36.063,68.899L35.989,68.954L35.905,68.973L35.870,68.990L35.798,69.043L35.830,69.071L35.868,69.079L35.912,69.070L35.957,69.043L35.900,69.175L35.764,69.278L35.602,69.345L35.466,69.369L35.399,69.344L35.297,69.233L35.211,69.208L35.051,69.209L34.981,69.226L34.863,69.301L34.783,69.335L34.729,69.390L34.749,69.489L34.810,69.524L34.879,69.470L35.003,69.325L35.080,69.293L35.167,69.279L35.243,69.299L35.291,69.369L35.289,69.473L35.232,69.540L35.159,69.592L35.101,69.650L35.113,69.669L35.117,69.681L35.133,69.730L34.999,69.680L34.922,69.811L34.863,70.003L34.781,70.136L34.422,70.067L34.249,70.071L34.271,70.216L34.122,70.184L34.058,70.064L34.004,69.919L33.887,69.814L33.855,69.835L33.825,69.808L33.803,69.752L33.792,69.686L33.760,69.730L33.683,69.696L33.614,69.730L33.542,69.785L33.408,69.839L33.201,69.953L33.155,69.991L33.142,70.033L33.111,70.065L33.074,70.085L32.989,70.102L32.956,70.125L32.931,70.151L32.904,70.172L32.615,70.296L32.798,70.072L32.859,69.948L32.760,69.895L32.709,69.910L32.608,69.984L32.553,70.011L32.431,70.008L32.379,70.037L32.359,70.136L32.393,70.172ZM81.046,13.016L81.117,13.051L81.328,13.052L81.415,13.074L81.250,13.128L81.046,13.088L80.662,12.956L80.680,12.913L80.766,12.911L80.875,12.930L80.977,12.966L81.046,13.016ZM89.737,17.552L89.795,17.559L89.949,17.603L90.004,17.633L89.974,17.687L89.936,17.708L89.832,17.709L89.784,17.735L89.703,17.848L89.641,17.873L89.463,17.911L89.419,17.936L89.350,18.006L89.299,18.019L89.163,17.994L89.094,18.008L89.058,18.046L89.031,18.098L88.989,18.159L88.865,18.272L88.830,18.319L88.802,18.383L88.761,18.528L88.735,18.597L88.706,18.643L88.574,18.801L88.637,18.838L88.582,18.852L88.489,18.843L88.394,18.818L88.273,18.749L88.194,18.760L88.049,18.801L87.577,18.810L87.474,18.860L87.372,18.952L87.246,19.001L86.888,19.053L86.815,19.077L86.755,19.125L86.726,19.207L86.742,19.312L86.801,19.335L86.879,19.333L86.953,19.364L86.911,19.416L86.865,19.441L86.688,19.457L86.673,19.482L86.666,19.520L86.633,19.569L86.524,19.631L86.410,19.636L86.186,19.569L86.275,19.712L86.300,19.776L86.282,19.853L86.239,19.893L86.173,19.913L85.864,19.959L85.706,19.952L85.563,19.899L85.438,19.789L85.431,19.732L85.443,19.658L85.430,19.595L85.343,19.569L85.290,19.564L85.260,19.558L85.237,19.556L85.201,19.569L85.168,19.596L85.118,19.673L85.086,19.689L85.046,19.721L84.999,19.795L84.960,19.882L84.944,19.952L84.971,20.036L85.036,20.099L85.109,20.155L85.166,20.215L84.973,20.277L84.310,20.131L83.950,20.160L83.830,20.224L83.686,20.201L83.341,20.087L83.302,20.058L83.260,20.010L83.239,19.960L83.222,19.893L83.190,19.834L83.131,19.809L83.027,19.816L82.378,19.970L81.722,20.263L80.999,20.748L80.553,21.259L79.849,21.826L79.554,22.165L78.963,23.038L78.503,23.838L78.423,24.084L78.391,24.364L78.445,24.698L78.452,24.832L78.442,24.952L78.420,25.086L78.292,25.564L78.240,25.685L78.115,25.794L78.057,26.058L78.004,26.139L77.932,26.114L77.826,26.034L77.729,25.942L77.687,25.880L77.641,25.772L77.534,25.654L77.417,25.551L76.695,25.096L75.756,24.784L74.775,24.241L74.374,24.119L73.542,23.559L73.269,23.293L73.016,23.010L72.528,22.946L72.149,22.713L71.893,22.429L71.816,22.388L71.718,22.363L71.388,22.187L70.965,22.084L70.548,22.092L70.145,22.178L69.579,22.394L68.811,22.960L68.682,23.016L68.591,23.100L68.536,23.118L68.480,23.124L68.427,23.141L68.376,23.166L68.017,23.410L67.932,23.496L67.670,23.855L67.597,23.922L67.544,23.942L67.487,23.952L67.428,23.947L67.371,23.922L67.340,23.890L67.299,23.834L67.275,23.781L67.295,23.758L67.478,23.794L67.518,23.779L67.531,23.716L67.474,23.676L67.346,23.637L67.251,23.567L67.211,23.523L67.184,23.476L67.134,23.239L66.355,22.396L66.135,22.308L66.026,22.304L65.722,22.351L65.389,22.299L65.273,22.308L65.072,22.395L64.884,22.549L64.716,22.744L64.459,23.169L64.359,23.403L64.287,23.655L64.255,23.922L64.302,24.188L64.441,24.339L64.917,24.584L65.067,24.697L65.410,25.058L65.496,25.095L65.604,25.081L65.781,25.023L66.078,24.997L66.167,24.973L66.261,24.930L66.540,25.114L66.613,25.277L66.835,25.577L66.912,25.650L67.089,25.765L67.167,25.839L67.473,26.223L67.556,26.291L67.646,26.341L67.749,26.370L67.869,26.380L67.979,26.406L68.089,26.470L68.441,26.785L68.521,26.896L68.474,26.946L68.259,26.976L68.157,27.014L68.075,27.067L67.793,27.340L67.622,27.409L67.406,27.351L67.008,27.138L66.774,27.065L66.547,27.067L66.338,27.187L66.236,27.213L66.192,27.129L66.230,27.045L66.303,26.990L66.354,26.930L66.325,26.826L66.240,26.749L66.128,26.717L66.015,26.733L65.927,26.804L65.880,26.908L65.807,27.159L65.754,27.267L65.477,27.407L65.431,27.450L65.378,27.489L65.130,27.556L65.051,27.592L64.960,27.806L65.006,28.283L64.955,28.476L64.808,28.581L64.223,28.762L64.153,28.818L64.067,28.910L63.996,29.023L63.967,29.145L63.918,29.240L63.807,29.224L63.586,29.123L63.536,29.126L63.457,29.159L63.413,29.167L63.358,29.147L63.240,29.062L63.189,29.042L63.125,28.996L63.078,28.885L63.012,28.641L62.871,28.302L62.853,28.177L62.874,28.051L62.963,27.865L63.038,27.499L63.277,27.127L63.333,26.888L63.353,26.862L63.455,26.872L63.494,26.866L63.536,26.810L63.550,26.756L63.557,26.625L63.554,26.589L63.525,26.539L63.522,26.504L63.541,26.476L63.574,26.450L63.621,26.424L63.630,26.355L63.634,26.260L63.652,26.223L63.621,26.130L63.596,26.017L63.590,25.907L63.621,25.818L63.466,25.650L63.231,25.245L63.075,25.095L62.610,24.898L62.526,24.794L62.521,24.769L62.497,24.741L62.406,24.568L62.363,24.539L62.220,24.488L62.010,24.327L61.960,24.263L61.914,24.120L61.867,23.886L61.889,23.771L61.946,23.651L62.140,23.350L62.189,23.221L62.248,22.954L62.247,22.690L62.170,22.251L62.220,22.026L62.375,21.812L62.563,21.730L63.012,21.705L63.123,21.679L63.197,21.631L63.390,21.398L63.435,21.367L63.483,21.349L63.540,21.344L63.578,21.319L63.617,21.261L63.736,21.032L63.799,20.948L63.878,20.924L63.982,21.000L64.089,21.167L64.158,21.238L64.255,21.259L64.356,21.186L64.387,21.048L64.395,20.914L64.429,20.854L64.514,20.807L64.582,20.696L64.699,20.456L64.773,20.369L65.089,20.073L65.284,19.949L65.368,19.853L65.395,19.740L65.348,19.655L65.279,19.562L65.243,19.428L65.211,19.344L64.987,19.043L64.833,18.888L64.656,18.754L64.517,18.592L64.477,18.356L64.620,17.918L64.849,17.921L64.963,17.898L65.051,17.837L65.075,17.784L65.089,17.721L65.107,17.665L65.146,17.633L65.210,17.640L65.268,17.682L65.317,17.730L65.353,17.753L65.433,17.784L65.831,18.059L65.914,18.131L66.054,18.299L66.148,18.370L66.484,18.516L66.529,18.563L66.599,18.651L66.645,18.681L66.709,18.699L67.186,18.630L67.538,18.495L67.644,18.484L67.696,18.514L67.649,18.592L67.612,18.695L67.694,18.801L67.743,18.817L67.916,18.838L68.107,18.912L68.221,18.934L68.319,18.990L68.378,19.002L68.462,18.998L68.525,18.986L68.649,18.922L69.004,18.670L69.315,18.356L69.438,18.185L69.558,17.961L69.636,17.703L69.634,17.432L69.575,17.274L69.315,16.906L69.264,16.750L69.276,16.634L69.332,16.533L69.410,16.424L69.323,16.193L69.283,16.139L69.296,16.028L69.190,15.770L69.159,15.637L69.188,15.527L69.256,15.384L69.380,15.175L69.460,15.102L69.565,15.038L69.673,14.991L69.871,14.963L69.961,14.932L70.045,14.881L70.308,14.680L70.452,14.519L70.568,14.312L70.653,14.042L70.691,13.799L70.705,13.555L70.637,12.317L70.684,12.107L71.063,11.450L71.270,10.434L71.290,10.170L71.231,9.443L71.092,8.736L70.945,8.326L70.316,7.095L70.262,6.845L70.304,6.584L70.331,6.543L70.425,6.439L70.462,6.383L70.484,6.321L70.494,6.265L70.508,6.212L70.607,6.056L70.612,5.959L70.560,5.773L70.551,5.682L70.562,5.584L70.602,5.490L70.684,5.412L70.738,5.448L70.767,5.496L70.780,5.558L70.782,5.636L70.807,5.695L70.864,5.696L70.972,5.656L71.188,5.633L71.416,5.576L71.576,5.471L71.626,5.455L71.658,5.425L71.667,5.354L71.667,5.274L71.673,5.214L71.744,5.117L71.863,5.027L71.982,5.000L72.053,5.060L72.133,5.233L72.179,5.306L72.245,5.335L72.319,5.381L72.500,5.697L72.685,5.872L73.088,6.144L73.264,6.299L74.742,7.954L75.090,8.628L75.167,8.746L75.329,8.847L75.554,9.203L76.452,10.137L76.602,10.212L76.796,10.496L77.080,10.681L77.432,11.023L77.832,11.315L77.926,11.343L78.000,11.379L78.176,11.557L78.261,11.624L78.462,11.672L78.514,11.704L78.594,11.879L78.597,11.909L78.724,12.046L78.765,12.079L79.448,12.461L80.489,12.833L80.489,12.874L80.112,12.830L80.043,12.874L80.064,12.911L80.175,13.018L80.201,13.056L80.265,13.279L80.312,13.252L80.331,13.235L80.399,13.298L80.457,13.336L80.520,13.354L81.200,13.365L81.238,13.379L81.369,13.240L81.449,13.182L81.523,13.158L82.081,13.187L82.238,13.257L82.325,13.323L82.324,13.342L82.264,13.354L82.179,13.399L82.116,13.475L82.017,13.761L82.170,13.825L82.237,13.830L82.303,13.797L82.352,13.739L82.404,13.651L82.445,13.551L82.461,13.461L82.526,13.291L82.655,13.245L82.751,13.312L82.715,13.479L82.773,13.656L82.820,13.730L82.891,13.761L82.931,13.805L83.007,13.999L83.050,14.042L83.090,14.063L83.289,14.203L83.363,14.236L83.526,14.285L84.176,14.389L84.967,14.449L85.188,14.407L85.388,14.287L85.929,13.746L86.345,13.297L86.397,13.228L86.726,13.038L86.946,12.826L87.031,12.797L87.109,12.736L87.334,12.347L87.518,12.188L87.611,12.085L87.651,11.968L87.671,11.936L87.714,11.910L87.758,11.914L87.795,12.028L87.878,12.164L87.905,12.227L87.899,12.483L87.797,12.702L87.522,13.038L87.469,13.159L87.422,13.446L87.382,13.538L86.960,14.033L86.842,14.224L86.740,14.435L86.665,14.648L86.711,14.756L86.682,14.877L86.629,14.989L86.586,15.119L86.519,15.206L86.504,15.273L86.508,15.350L86.519,15.396L86.711,15.790L86.776,15.879L87.077,16.179L87.136,16.260L87.187,16.361L87.223,16.478L87.236,16.606L87.251,16.654L87.319,16.710L87.343,16.805L87.400,16.950L87.523,17.446L87.620,17.673L87.778,17.873L88.000,18.034L87.852,18.057L87.562,17.823L87.426,17.793L87.382,17.839L87.372,17.906L87.401,17.967L87.474,17.994L87.557,18.011L87.636,18.049L87.662,18.090L87.585,18.115L87.666,18.205L87.803,18.269L87.954,18.307L88.348,18.342L88.457,18.392L88.574,18.484L88.597,18.412L88.557,18.367L88.501,18.319L88.479,18.239L88.509,18.198L88.684,18.056L88.877,17.855L88.935,17.814L89.056,17.784L89.116,17.753L89.146,17.714L89.162,17.672L89.187,17.632L89.245,17.596L89.312,17.583L89.531,17.596L89.570,17.583L89.630,17.526L89.657,17.512L89.689,17.518L89.709,17.531L89.723,17.546L89.737,17.552ZM19.630,94.124L19.607,94.330L19.503,94.619L19.301,94.843L19.178,94.940L19.037,94.967L18.902,94.990L18.754,95.000L18.530,94.922L18.481,94.825L18.404,94.613L18.291,94.330L18.258,94.176L18.245,94.008L18.292,93.986L18.464,93.981L18.546,93.844L18.639,93.733L18.667,93.638L18.765,93.639L18.815,93.575L18.930,93.683L19.135,93.763L19.282,93.901L19.464,93.959L19.630,94.124ZM21.384,91.384L21.428,91.382L21.432,91.477L21.484,91.623L21.550,91.723L21.473,91.802L21.472,91.990L21.509,92.215L21.392,92.434L21.411,92.549L21.410,92.732L21.380,92.815L21.318,92.862L21.317,92.961L21.307,93.050L21.225,93.086L21.158,93.085L21.114,93.195L21.061,93.273L21.051,93.403L20.989,93.508L20.993,93.596L20.978,93.643L21.016,93.685L21.040,93.754L21.011,93.821L21.001,93.884L21.039,93.973L20.971,94.056L20.966,94.135L20.880,94.124L20.789,94.154L20.708,94.175L20.636,94.237L20.612,94.305L20.540,94.305L20.526,94.247L20.478,94.174L20.493,94.095L20.517,93.991L20.504,93.834L20.461,93.735L20.442,93.614L20.452,93.562L20.500,93.588L20.538,93.599L20.567,93.500L20.683,93.365L20.818,93.146L20.873,92.976L20.914,92.827L20.916,92.739L20.902,92.556L20.879,92.477L20.889,92.420L20.860,92.373L20.923,92.295L20.986,92.201L21.073,92.034L21.073,91.966L21.141,91.941L21.180,91.810L21.171,91.684L21.268,91.507L21.324,91.436L21.352,91.404L21.384,91.384ZM17.208,83.361L17.315,83.363L17.367,83.404L17.399,83.522L17.383,83.591L17.303,83.828L17.274,83.887L17.190,83.910L17.122,83.865L17.091,83.781L17.116,83.682L17.069,83.625L17.032,83.527L17.013,83.422L17.023,83.338L17.060,83.309L17.110,83.316L17.208,83.361ZM18.402,81.549L18.542,81.476L18.620,81.467L18.673,81.549L18.517,81.660L18.322,82.223L18.180,82.353L18.163,82.324L18.160,82.258L18.163,82.130L18.141,82.064L18.091,82.078L18.004,82.148L17.818,82.162L17.727,82.185L17.621,82.232L17.527,82.077L17.487,81.991L17.489,81.909L17.512,81.877L17.543,81.864L17.608,81.851L17.649,81.826L17.741,81.711L17.845,81.630L17.915,81.594L18.084,81.533L18.183,81.458L18.220,81.458L18.249,81.483L18.261,81.527L18.278,81.562L18.317,81.566L18.402,81.549ZM17.243,81.345L17.377,81.489L17.421,81.734L17.433,82.232L17.445,82.279L17.458,82.316L17.465,82.363L17.452,82.520L17.442,82.566L17.422,82.602L17.383,82.656L17.340,82.687L17.230,82.734L17.208,82.775L17.116,83.000L17.091,83.021L16.986,83.076L16.947,83.118L16.845,83.261L16.781,83.313L16.668,83.384L16.553,83.438L16.476,83.438L16.471,83.383L16.539,83.076L16.485,83.124L16.434,83.122L16.385,83.113L16.304,83.162L16.302,83.133L16.317,83.076L16.336,83.040L16.480,82.899L16.574,82.835L16.637,82.822L16.693,82.827L16.744,82.815L16.796,82.754L16.749,82.754L16.711,82.746L16.638,82.714L16.538,82.760L16.457,82.709L16.403,82.600L16.382,82.468L16.388,82.403L16.406,82.349L16.437,82.306L16.476,82.273L16.446,82.180L16.471,82.064L16.527,81.947L16.590,81.849L16.638,81.721L16.615,81.605L16.511,81.421L16.569,81.425L16.612,81.454L16.650,81.489L16.698,81.506L16.759,81.493L16.854,81.435L16.975,81.403L17.056,81.365L17.147,81.337L17.243,81.345ZM11.287,80.594L11.358,80.690L11.393,80.753L11.393,80.759L11.384,80.779L11.299,80.780L11.192,80.774L11.005,80.826L10.995,80.754L10.892,80.720L10.868,80.744L10.828,80.754L10.811,80.779L10.794,80.841L10.808,80.869L10.831,80.883L10.900,80.970L10.887,81.041L10.878,81.109L10.798,81.196L10.716,81.144L10.626,81.009L10.516,81.004L10.286,81.020L10.239,81.082L10.080,80.973L9.996,80.946L10.012,80.849L10.043,80.779L10.057,80.734L10.078,80.678L10.107,80.633L10.142,80.618L10.148,80.644L10.162,80.772L10.174,80.822L10.178,80.786L10.239,80.629L10.246,80.570L10.247,80.506L10.243,80.443L10.229,80.386L10.217,80.359L10.203,80.335L10.192,80.309L10.190,80.276L10.199,80.245L10.228,80.179L10.188,80.079L10.231,79.997L10.277,79.954L10.361,79.953L10.392,80.023L10.457,80.183L10.483,80.161L10.560,80.121L10.659,80.098L10.827,79.990L10.849,79.922L10.962,79.853L10.979,79.956L10.973,80.000L10.972,80.052L11.052,80.076L11.120,80.091L11.154,80.189L11.118,80.418L11.180,80.506L11.287,80.594ZM61.976,77.879L62.079,77.947L62.199,77.989L62.307,78.046L62.378,78.160L62.340,78.231L62.228,78.400L62.184,78.441L62.115,78.438L62.032,78.396L61.960,78.332L61.908,78.205L61.755,77.977L61.738,77.891L61.790,77.821L61.868,77.793L61.976,77.879ZM12.307,78.744L12.362,78.776L12.640,78.641L12.701,78.765L12.669,78.870L12.578,78.920L12.489,79.039L12.398,79.053L12.318,79.152L12.282,79.225L12.273,79.314L12.309,79.410L12.307,79.449L12.301,79.517L12.252,79.515L12.168,79.492L12.138,79.567L12.171,79.622L12.170,79.700L12.154,79.747L12.064,79.722L12.071,79.608L12.040,79.483L12.045,79.287L12.074,79.205L12.006,79.068L11.965,79.041L11.800,79.004L11.756,78.984L11.766,78.909L11.843,78.872L11.947,78.789L12.015,78.867L12.105,78.797L12.050,78.674L12.078,78.442L12.155,78.417L12.166,78.563L12.213,78.555L12.242,78.538L12.244,78.421L12.228,78.341L12.251,78.227L12.325,78.187L12.347,78.080L12.310,78.002L12.299,77.938L12.355,77.694L12.399,77.741L12.393,77.848L12.373,77.901L12.356,77.955L12.390,78.005L12.428,78.033L12.402,78.154L12.372,78.262L12.329,78.355L12.313,78.465L12.304,78.569L12.307,78.744ZM14.433,76.258L14.463,76.519L14.434,76.597L14.370,76.700L14.302,76.772L14.353,76.818L14.297,76.890L14.241,76.921L14.241,76.981L14.180,77.027L14.186,77.114L14.142,77.233L13.927,77.507L13.769,77.626L13.599,77.677L13.515,77.634L13.443,77.618L13.454,77.556L13.477,77.419L13.527,77.506L13.639,77.596L13.711,77.583L13.740,77.534L13.724,77.512L13.691,77.483L13.639,77.474L13.606,77.412L13.626,77.328L13.682,77.266L13.788,77.281L13.749,77.182L13.740,77.057L13.883,76.930L13.900,76.761L13.908,76.627L14.152,76.567L14.213,76.427L14.248,76.449L14.281,76.508L14.357,76.442L14.283,76.377L14.292,76.293L14.433,76.258ZM26.919,74.007L26.960,74.054L27.060,74.131L27.055,74.153L26.982,74.168L26.885,74.153L26.737,74.073L26.662,74.087L26.694,74.006L26.757,73.967L26.836,73.969L26.919,74.007ZM15.458,74.124L15.566,74.175L15.566,74.256L15.493,74.332L15.384,74.337L15.266,74.340L15.209,74.458L15.201,74.570L15.152,74.551L15.062,74.464L14.998,74.385L15.016,74.296L14.968,74.261L14.904,74.306L14.868,74.226L14.856,74.128L14.996,74.199L15.043,74.208L15.043,74.168L14.919,74.064L14.910,73.947L14.903,73.877L15.003,73.880L14.979,73.778L15.006,73.680L15.042,73.616L15.051,73.549L15.107,73.606L15.416,73.706L15.420,73.752L15.392,73.832L15.396,73.895L15.414,73.955L15.480,74.013L15.554,74.048L15.527,74.056L15.484,74.079L15.458,74.087L15.458,74.124ZM26.884,73.561L26.861,73.592L26.839,73.611L26.792,73.642L26.754,73.525L26.685,73.393L26.652,73.255L26.725,73.116L26.837,73.069L26.965,73.085L27.085,73.137L27.172,73.200L27.302,73.401L27.367,73.396L27.428,73.359L27.524,73.280L27.553,73.276L27.623,73.288L27.651,73.280L27.678,73.244L27.690,73.180L27.717,73.156L27.773,73.145L27.896,73.158L27.968,73.156L27.914,73.216L27.815,73.358L27.777,73.364L27.733,73.346L27.620,73.383L27.574,73.414L27.555,73.459L27.549,73.604L27.540,73.662L27.524,73.722L27.471,73.700L27.369,73.703L27.331,73.686L27.312,73.635L27.318,73.581L27.313,73.526L27.267,73.478L27.235,73.521L27.172,73.473L27.143,73.505L27.129,73.566L27.109,73.606L27.051,73.612L26.970,73.581L26.919,73.606L26.884,73.561ZM60.564,72.433L60.598,72.245L60.733,72.130L60.886,72.123L60.973,72.261L60.909,72.449L60.785,72.570L60.653,72.580L60.564,72.433ZM28.366,72.371L28.259,72.308L28.008,72.317L27.902,72.272L27.989,72.172L28.097,72.102L28.156,72.015L28.095,71.867L28.140,71.804L28.199,71.765L28.260,71.748L28.311,71.751L28.349,71.787L28.337,71.812L28.332,71.839L28.319,71.860L28.285,71.867L28.324,71.938L28.337,72.006L28.339,72.076L28.349,72.152L28.470,72.091L28.484,72.203L28.434,72.344L28.366,72.371ZM30.430,71.565L30.264,71.662L30.222,71.625L30.260,71.505L30.290,71.478L30.366,71.455L30.390,71.425L30.394,71.365L30.373,71.327L30.336,71.307L30.291,71.304L30.380,71.184L30.479,71.077L30.572,71.053L30.641,71.184L30.691,71.365L30.672,71.483L30.594,71.571L30.430,71.565ZM13.304,71.145L13.324,71.058L13.443,71.066L13.464,71.102L13.445,71.153L13.364,71.194L13.330,71.271L13.343,71.374L13.361,71.442L13.289,71.502L13.234,71.504L13.236,71.536L13.258,71.559L13.244,71.627L13.237,71.720L13.233,71.788L13.220,71.810L13.189,71.819L13.170,71.864L13.169,71.932L13.137,72.031L13.081,72.062L13.071,72.117L13.018,72.158L13.005,72.203L12.948,72.198L12.929,72.233L12.876,72.268L12.856,72.212L12.831,72.203L12.773,72.138L12.736,72.115L12.677,72.150L12.649,72.162L12.643,71.927L12.683,71.792L12.669,71.640L12.690,71.454L12.731,71.413L12.729,71.322L12.762,71.184L12.774,70.930L12.815,70.853L12.898,70.864L12.913,70.903L12.894,70.951L12.893,71.064L12.924,71.065L12.961,71.030L13.005,71.023L13.069,70.980L13.131,70.981L13.110,70.935L13.101,70.893L13.154,70.891L13.196,70.921L13.257,70.980L13.252,71.096L13.304,71.145ZM59.558,70.461L59.601,70.421L59.656,70.352L59.700,70.332L59.707,70.439L59.679,70.626L59.619,70.809L59.546,70.892L59.480,70.782L59.485,70.711L59.535,70.504L59.558,70.461ZM39.734,69.211L39.853,69.313L39.862,69.385L39.808,69.460L39.737,69.545L39.701,69.671L39.648,69.815L39.519,69.938L39.409,70.122L39.271,70.325L39.245,70.546L39.238,70.597L39.253,70.668L39.256,70.737L39.333,70.800L39.344,70.906L39.379,70.976L39.492,71.100L39.528,71.200L39.434,71.245L39.302,71.278L39.187,71.352L39.054,71.402L38.950,71.457L38.793,71.610L38.569,71.661L38.462,71.667L38.453,71.555L38.354,71.508L38.339,71.489L38.392,71.379L38.439,71.304L38.273,71.358L38.173,71.228L38.130,71.095L38.187,71.013L38.251,70.859L38.352,70.889L38.425,70.850L38.788,70.162L38.906,70.079L38.991,70.024L39.027,69.991L39.055,69.947L39.095,69.845L39.124,69.792L39.182,69.675L39.362,69.578L39.435,69.549L39.550,69.373L39.635,69.246L39.734,69.211ZM13.955,69.146L14.002,69.207L14.073,69.277L14.060,69.328L14.050,69.382L14.008,69.529L13.924,69.762L13.721,69.957L13.615,70.127L13.637,70.296L13.533,70.405L13.522,70.492L13.596,70.470L13.678,70.374L13.684,70.418L13.657,70.498L13.637,70.535L13.655,70.633L13.708,70.702L13.747,70.722L13.714,70.802L13.645,70.842L13.613,70.881L13.563,70.982L13.449,71.024L13.359,70.999L13.271,70.879L13.343,70.826L13.455,70.865L13.464,70.697L13.406,70.669L13.321,70.776L13.269,70.771L13.264,70.660L13.268,70.599L13.289,70.529L13.233,70.572L13.187,70.639L13.215,70.737L13.182,70.767L13.115,70.695L13.005,70.720L12.915,70.698L12.945,70.625L13.058,70.616L13.117,70.580L13.124,70.361L13.100,70.243L13.139,70.193L13.185,70.183L13.207,70.197L13.233,70.157L13.296,70.081L13.287,70.044L13.215,70.123L13.156,70.139L13.134,70.071L13.195,69.924L13.268,69.729L13.367,69.640L13.364,69.600L13.285,69.493L13.203,69.519L13.195,69.438L13.261,69.337L13.282,69.240L13.354,68.977L13.415,68.975L13.529,68.978L13.609,68.996L13.665,68.940L13.755,68.818L13.830,68.802L13.795,68.758L13.818,68.701L13.889,68.709L13.945,68.666L14.010,68.667L14.038,68.715L14.085,68.766L14.118,68.811L14.097,68.891L14.070,68.925L14.031,68.951L14.073,68.962L14.118,68.990L14.120,69.050L14.086,69.143L14.046,69.162L13.998,69.131L13.955,69.146ZM60.245,68.196L60.335,68.249L60.392,68.338L60.423,68.453L60.432,68.583L60.429,68.731L60.410,68.796L60.358,68.809L60.261,68.806L59.971,68.658L59.933,68.554L59.937,68.276L59.958,68.100L60.163,68.150L60.245,68.196ZM30.490,60.935L30.544,60.872L30.642,60.904L30.742,60.984L30.799,61.060L30.734,61.051L30.561,61.060L30.531,61.047L30.507,61.017L30.492,60.976L30.490,60.935ZM32.137,59.408L32.206,59.506L32.194,59.797L32.166,59.859L32.105,59.894L32.070,59.824L32.028,59.820L31.985,59.852L31.946,59.894L32.000,59.937L32.017,59.992L31.999,60.048L31.946,60.091L31.911,60.090L31.725,60.051L31.623,60.051L31.592,60.032L31.373,59.832L31.327,59.810L31.304,59.750L31.344,59.386L31.405,59.273L31.788,59.007L31.792,59.077L31.829,59.104L31.878,59.114L31.919,59.128L31.935,59.149L31.949,59.201L31.962,59.228L31.991,59.251L32.051,59.271L32.076,59.288L32.101,59.324L32.121,59.379L32.137,59.408ZM55.790,48.842L55.955,48.859L56.169,48.802L56.329,48.816L56.329,49.047L56.286,49.157L56.093,49.468L56.041,49.578L55.982,49.802L55.917,49.890L55.377,50.261L54.889,50.440L54.787,50.453L54.737,50.444L54.691,50.417L54.656,50.374L54.643,50.316L54.658,50.252L54.697,50.229L54.921,50.182L54.973,50.146L54.994,50.071L54.994,49.806L55.044,49.710L55.194,49.536L55.248,49.448L55.119,49.268L54.808,49.380L54.738,49.208L54.737,49.069L54.751,48.946L54.782,48.833L54.833,48.722L55.026,48.452L55.097,48.264L55.186,48.183L55.274,48.119L55.314,48.055L55.524,47.834L55.648,47.745L55.837,47.410L55.877,47.373L55.931,47.356L56.045,47.352L56.073,47.379L56.069,47.444L56.012,47.832L55.917,48.186L55.719,48.652L55.692,48.762L55.689,48.878L55.716,48.948L55.754,48.945L55.790,48.842ZM60.850,24.284L60.923,24.352L60.875,24.471L60.721,24.689L60.688,24.844L60.684,24.988L60.666,25.122L60.596,25.252L60.417,25.412L60.372,25.393L60.324,25.345L60.297,25.281L60.310,25.215L60.287,25.163L60.276,25.111L60.276,24.992L60.265,24.942L60.220,24.868L60.210,24.809L60.226,24.700L60.271,24.588L60.332,24.496L60.402,24.449L60.456,24.443L60.557,24.414L60.612,24.408L60.667,24.387L60.803,24.299L60.850,24.284ZM87.619,16.340L87.772,16.442L87.846,16.508L87.857,16.566L87.798,16.597L87.621,16.641L87.585,16.685L87.553,16.756L87.489,16.784L87.441,16.757L87.458,16.664L87.509,16.609L87.652,16.549L87.714,16.504L87.112,16.219L87.505,16.295L87.619,16.340ZM83.609,14.287L83.641,14.287L83.613,14.288L83.609,14.287ZM69.112,7.048L69.151,7.134L69.118,7.193L69.062,7.251L69.032,7.329L69.006,7.355L68.839,7.468L68.759,7.479L68.685,7.459L68.437,7.317L68.289,7.197L68.201,7.061L68.268,6.946L68.246,6.909L68.221,6.849L68.204,6.825L68.368,6.650L68.427,6.624L68.533,6.597L68.684,6.643L68.838,6.735L68.953,6.847L69.112,7.048ZM67.837,5.412L67.913,5.457L67.934,5.563L67.866,6.168L67.822,6.339L67.758,6.504L67.727,6.423L67.731,6.392L67.758,6.343L67.641,6.133L67.587,6.003L67.565,5.879L67.597,5.596L67.575,5.531L67.438,5.335L67.472,5.310L67.502,5.303L67.527,5.312L67.548,5.336L67.560,5.363L67.623,5.471L67.685,5.474L67.756,5.437L67.837,5.412ZM17.519,93.554L17.625,93.600L17.715,93.698L17.715,93.769L17.615,93.769L17.574,93.836L17.484,93.853L17.394,93.742L17.400,93.668L17.381,93.614L17.301,93.655L17.255,93.570L17.202,93.517L17.156,93.449L17.264,93.446L17.384,93.527L17.437,93.493L17.519,93.554ZM36.783,69.529L36.765,69.582L36.776,69.635L36.799,69.696L36.816,69.770L36.791,69.941L36.689,70.256L36.666,70.204L36.623,70.174L36.564,70.164L36.498,70.172L36.498,70.136L36.586,70.121L36.608,70.070L36.566,70.031L36.466,70.055L36.400,70.129L36.351,70.231L36.296,70.314L36.212,70.333L36.232,70.124L36.207,70.061L36.115,70.011L36.029,70.016L35.940,70.048L35.867,70.052L35.827,69.971L35.875,69.932L35.878,69.868L35.872,69.796L35.890,69.730L36.024,69.776L36.137,69.741L36.337,69.609L36.393,69.592L36.559,69.573L36.720,69.529L36.783,69.529ZM64.376,93.438L64.420,93.438L64.461,93.474L64.427,93.530L64.371,93.542L64.348,93.500L64.347,93.467L64.376,93.438ZM13.841,91.348L13.854,91.337L13.867,91.359L13.847,91.380L13.841,91.348ZM16.248,91.358L16.303,91.403L16.310,91.452L16.267,91.507L16.216,91.542L16.161,91.542L16.088,91.505L16.081,91.492L16.078,91.469L16.051,91.419L16.071,91.395L16.106,91.374L16.151,91.329L16.182,91.317L16.218,91.333L16.248,91.358ZM63.149,87.837L63.153,87.825L63.159,87.836L63.149,87.837ZM63.139,87.831L63.139,87.817L63.147,87.828L63.140,87.837L63.139,87.831ZM61.815,81.898L61.819,81.792L61.896,81.965L61.815,81.898ZM59.691,74.850L59.678,74.844L59.691,74.846L59.691,74.850ZM61.195,73.464L61.226,73.546L61.223,73.581L61.195,73.634L61.136,73.657L61.062,73.646L61.002,73.600L60.995,73.495L61.054,73.404L61.134,73.401L61.177,73.437L61.195,73.464ZM60.034,28.527L60.059,28.545L60.076,28.578L60.041,28.632L59.907,28.697L59.885,28.672L59.865,28.592L59.865,28.549L59.883,28.518L59.919,28.515L59.954,28.527L60.034,28.527ZM16.187,85.338L16.165,85.360L16.161,85.386L16.170,85.422L16.163,85.463L16.165,85.499L16.177,85.523L16.179,85.540L16.168,85.579L16.136,85.620L16.092,85.622L16.048,85.630L15.986,85.673L15.921,85.670L15.887,85.628L15.862,85.614L15.842,85.597L15.835,85.569L15.818,85.530L15.788,85.481L15.784,85.437L15.817,85.412L15.802,85.399L15.752,85.421L15.716,85.479L15.681,85.488L15.664,85.469L15.662,85.431L15.675,85.366L15.716,85.304L15.777,85.262L15.868,85.292L16.042,85.453L16.079,85.468L16.092,85.431L16.072,85.373L16.095,85.338L16.165,85.326L16.187,85.338ZM17.630,82.784L17.706,82.823L17.735,82.871L17.719,82.904L17.675,82.961L17.625,83.012L17.578,83.037L17.534,83.047L17.496,83.073L17.476,83.057L17.477,82.996L17.486,82.932L17.505,82.871L17.532,82.841L17.559,82.835L17.571,82.823L17.576,82.802L17.630,82.784ZM18.572,81.048L18.600,81.084L18.605,81.146L18.592,81.244L18.568,81.308L18.503,81.324L18.469,81.342L18.483,81.398L18.454,81.378L18.398,81.328L18.386,81.259L18.408,81.183L18.391,81.137L18.353,81.109L18.349,81.069L18.418,80.949L18.432,80.947L18.433,80.970L18.448,80.961L18.487,80.925L18.525,80.907L18.571,80.931L18.601,80.964L18.587,81.010L18.572,81.048ZM28.398,80.193L28.428,80.238L28.442,80.291L28.438,80.339L28.403,80.382L28.340,80.415L28.310,80.391L28.298,80.314L28.295,80.242L28.313,80.172L28.335,80.142L28.365,80.161L28.379,80.174L28.398,80.193ZM11.386,79.744L11.401,79.769L11.427,79.844L11.421,79.887L11.364,79.960L11.305,80.056L11.273,80.067L11.232,80.058L11.146,80.000L11.109,79.984L11.087,79.925L11.090,79.740L11.084,79.693L11.096,79.653L11.138,79.647L11.188,79.676L11.218,79.741L11.231,79.809L11.248,79.846L11.266,79.860L11.271,79.842L11.268,79.827L11.264,79.806L11.252,79.758L11.231,79.703L11.216,79.645L11.240,79.630L11.352,79.713L11.386,79.744ZM11.634,79.416L11.645,79.481L11.657,79.608L11.640,79.671L11.606,79.687L11.595,79.715L11.609,79.736L11.617,79.773L11.597,79.827L11.575,79.826L11.566,79.776L11.536,79.751L11.494,79.746L11.483,79.730L11.499,79.707L11.499,79.678L11.481,79.646L11.460,79.624L11.434,79.603L11.368,79.520L11.340,79.510L11.309,79.523L11.298,79.484L11.345,79.435L11.429,79.461L11.501,79.549L11.524,79.559L11.512,79.486L11.522,79.472L11.563,79.495L11.583,79.469L11.589,79.403L11.604,79.380L11.625,79.402L11.634,79.416ZM11.981,79.265L11.989,79.312L11.991,79.331L11.983,79.525L11.964,79.569L11.935,79.569L11.933,79.519L11.916,79.506L11.883,79.472L11.837,79.460L11.772,79.486L11.748,79.476L11.730,79.446L11.710,79.432L11.704,79.419L11.685,79.325L11.688,79.274L11.727,79.273L11.814,79.324L11.832,79.319L11.826,79.291L11.800,79.263L11.776,79.225L11.770,79.191L11.758,79.167L11.756,79.145L11.772,79.127L11.781,79.110L11.781,79.092L11.817,79.091L11.897,79.120L11.948,79.166L11.966,79.213L11.981,79.265ZM12.481,76.911L12.518,76.999L12.550,77.048L12.547,77.092L12.476,77.154L12.443,77.219L12.405,77.225L12.331,77.209L12.280,77.172L12.251,77.145L12.223,77.138L12.201,77.146L12.206,77.094L12.266,77.008L12.334,76.975L12.378,76.961L12.448,76.901L12.481,76.911ZM14.434,75.769L14.516,75.756L14.530,75.802L14.491,75.860L14.427,75.889L14.358,75.879L14.299,75.848L14.263,75.862L14.251,75.889L14.230,75.892L14.189,75.888L14.206,75.833L14.289,75.748L14.369,75.690L14.415,75.692L14.429,75.734L14.434,75.769ZM28.766,72.708L28.778,72.724L28.780,72.786L28.773,72.850L28.764,72.885L28.746,72.913L28.737,72.939L28.734,72.998L28.668,73.063L28.576,73.086L28.523,73.047L28.513,72.969L28.557,72.903L28.604,72.854L28.638,72.826L28.657,72.816L28.688,72.796L28.743,72.742L28.766,72.708ZM30.866,71.765L30.892,71.760L30.905,71.785L30.871,71.847L30.642,72.094L30.561,72.134L30.511,72.092L30.510,71.989L30.525,71.910L30.551,71.882L30.579,71.884L30.603,71.889L30.590,71.841L30.554,71.754L30.586,71.676L30.690,71.652L30.764,71.684L30.788,71.728L30.818,71.761L30.866,71.765ZM29.218,71.632L29.294,71.678L29.324,71.748L29.299,71.805L29.259,71.834L29.224,71.850L29.213,71.840L29.212,71.800L29.185,71.783L29.148,71.786L29.029,71.724L28.987,71.674L29.016,71.613L29.080,71.595L29.173,71.621L29.218,71.632ZM30.066,71.159L30.100,71.120L30.118,71.174L30.100,71.308L30.056,71.420L30.045,71.485L29.994,71.537L29.889,71.563L29.796,71.564L29.735,71.525L29.703,71.447L29.719,71.377L29.754,71.349L29.769,71.344L29.902,71.278L29.954,71.280L30.006,71.244L30.066,71.159ZM27.359,71.000L27.386,71.051L27.392,71.105L27.389,71.132L27.299,71.233L27.162,71.360L27.084,71.388L27.031,71.352L27.028,71.299L27.118,71.148L27.175,71.071L27.248,71.023L27.313,70.989L27.359,71.000ZM33.756,70.460L33.797,70.529L33.804,70.605L33.779,70.650L33.743,70.676L33.713,70.704L33.698,70.721L33.664,70.703L33.630,70.636L33.646,70.564L33.708,70.485L33.722,70.453L33.756,70.460ZM40.675,70.258L40.841,70.116L40.916,70.227L40.764,70.341L40.700,70.308L40.675,70.258ZM35.305,70.000L35.260,69.976L35.247,69.962L35.255,69.947L35.291,69.921L35.332,69.914L35.412,69.858L35.465,69.844L35.483,69.861L35.520,69.896L35.550,69.899L35.562,69.906L35.555,69.961L35.467,70.085L35.431,70.080L35.392,70.045L35.389,70.043L35.305,70.000ZM48.510,69.868L48.543,69.825L48.589,69.835L48.580,69.883L48.559,69.931L48.507,69.968L48.469,69.994L48.443,69.948L48.420,69.901L48.510,69.868ZM48.502,69.665L48.531,69.623L48.594,69.613L48.559,69.661L48.562,69.701L48.497,69.716L48.427,69.770L48.344,69.789L48.311,69.760L48.389,69.723L48.502,69.665ZM48.074,67.634L48.134,67.634L48.192,67.718L48.204,67.795L48.151,67.811L48.153,67.848L48.119,67.853L48.074,67.634ZM49.235,54.242L49.222,54.284L49.218,54.333L49.225,54.384L49.192,54.431L49.115,54.464L49.029,54.470L48.946,54.500L48.885,54.540L48.841,54.540L48.767,54.567L48.750,54.565L48.709,54.501L48.620,54.386L48.572,54.293L48.601,54.249L48.639,54.270L48.657,54.313L48.679,54.327L48.707,54.303L48.739,54.288L48.781,54.286L48.823,54.270L48.857,54.244L48.890,54.236L48.925,54.247L48.961,54.282L49.008,54.317L49.052,54.310L49.088,54.285L49.138,54.224L49.206,54.198L49.235,54.242Z" fill="currentColor" stroke="currentColor" stroke-width="1.5" stroke-linejoin="round"/>
</svg>