<svg xmlns="http://www.w3.org/2000/svg" viewBox="0 0 100 100" role="img" aria-label="Kazakhstan">
  <title>Kazakhstan</title>
  <path d="M95.000,46.457L94.729,46.380L94.643,46.334L94.543,46.311L94.232,46.434L94.169,46.427L94.038,46.386L93.977,46.391L93.930,46.429L93.882,46.546L93.843,46.599L93.758,46.672L93.721,46.713L93.686,46.770L93.656,46.837L93.646,46.889L93.651,46.945L93.665,47.026L93.718,47.137L93.788,47.204L93.823,47.268L93.768,47.372L93.727,47.420L93.712,47.451L93.715,47.490L93.740,47.630L93.740,47.675L93.724,47.714L93.557,47.943L93.452,48.045L93.417,48.088L93.391,48.141L93.350,48.254L93.328,48.295L93.287,48.328L93.032,48.431L92.819,48.416L92.760,48.441L92.714,48.485L92.627,48.591L92.506,48.654L92.096,48.617L91.606,48.689L91.527,48.747L91.463,48.850L91.172,49.566L91.118,49.931L91.085,50.055L91.045,50.142L91.021,50.214L91.015,50.294L91.192,51.270L91.192,51.379L91.158,51.600L91.168,51.701L91.168,51.702L91.202,51.800L91.357,52.059L91.376,52.127L91.365,52.191L91.350,52.251L91.356,52.307L91.376,52.368L91.376,52.420L91.352,52.529L91.344,52.596L91.333,52.645L91.306,52.673L91.205,52.685L91.152,52.702L91.107,52.736L91.085,52.792L91.079,52.853L91.067,52.904L91.047,52.949L91.019,52.995L90.999,53.053L90.994,53.115L90.978,53.154L90.832,53.150L90.549,53.195L90.422,53.179L90.377,53.188L90.332,53.214L90.302,53.249L90.249,53.348L90.201,53.397L90.050,53.512L89.986,53.586L89.958,53.605L89.859,53.629L89.826,53.648L89.790,53.685L89.740,53.783L89.695,53.817L89.528,53.855L89.367,53.924L89.306,53.935L89.262,53.914L89.253,53.868L89.272,53.818L89.304,53.766L89.328,53.712L89.332,53.595L89.288,53.497L89.217,53.423L89.138,53.378L89.034,53.370L88.824,53.425L88.725,53.407L88.606,53.348L88.571,53.344L88.534,53.348L88.533,53.348L88.262,53.325L88.027,53.347L88.026,53.348L88.025,53.348L88.024,53.348L87.883,53.433L87.830,53.442L87.674,53.410L87.468,53.411L86.629,53.104L86.252,52.848L86.165,52.805L85.962,52.759L85.918,52.731L85.804,52.628L85.751,52.609L85.691,52.602L85.631,52.606L85.576,52.618L85.520,52.647L85.503,52.684L85.506,52.817L85.500,52.855L85.476,52.925L85.469,52.962L85.472,52.996L85.487,53.060L85.485,53.095L85.451,53.219L85.441,53.284L85.447,53.348L85.458,53.406L85.455,53.461L85.441,53.515L85.118,54.206L84.916,54.994L84.829,55.189L84.815,55.246L84.788,55.425L84.755,55.528L84.609,55.778L84.522,55.972L84.463,56.186L84.406,56.641L84.347,56.943L84.318,57.037L84.255,57.194L84.090,57.494L84.010,57.820L83.941,57.993L83.924,58.086L83.912,58.156L83.991,58.287L83.991,58.287L83.992,58.288L84.068,58.327L84.400,58.378L84.626,58.478L84.662,58.543L84.672,58.664L84.666,58.795L84.624,59.094L84.559,59.330L84.459,59.505L84.318,59.531L84.211,59.460L84.023,59.238L83.919,59.161L83.810,59.149L83.692,59.181L83.270,59.407L83.160,59.437L83.071,59.392L83.029,59.340L82.995,59.316L82.845,59.291L82.815,59.268L82.803,59.224L82.801,59.147L82.788,59.034L82.752,58.899L82.695,58.799L82.619,58.793L82.532,58.766L82.438,58.811L82.260,58.946L81.384,59.238L81.204,59.345L81.114,59.380L81.013,59.382L80.744,59.496L80.686,59.498L80.506,59.437L80.399,59.439L80.045,59.579L79.893,59.562L79.844,59.569L79.799,59.609L79.758,59.726L79.722,59.762L79.667,59.770L79.503,59.760L79.345,59.827L79.188,59.799L79.090,59.806L78.999,59.850L78.915,59.935L78.697,60.137L78.594,60.193L78.550,60.229L78.517,60.329L78.573,60.409L78.844,60.592L78.949,60.602L79.344,60.511L79.402,60.518L79.443,60.540L79.556,60.636L79.912,60.784L79.947,60.808L79.959,60.851L79.947,60.895L79.912,60.921L79.768,60.957L79.692,60.995L79.647,61.056L79.644,61.092L79.654,61.123L79.694,61.179L79.708,61.221L79.700,61.258L79.666,61.330L79.607,61.579L79.591,61.714L79.596,61.831L79.684,62.316L79.685,62.445L79.625,62.683L79.609,62.806L79.623,62.866L79.655,62.912L79.727,62.990L79.752,63.045L79.766,63.101L79.771,63.161L79.772,63.228L79.772,63.228L79.795,63.298L79.832,63.374L79.912,63.502L80.172,64.245L80.433,64.988L80.427,65.097L80.392,65.199L80.279,65.425L80.313,65.476L80.396,65.501L80.483,65.548L80.512,65.593L80.528,65.651L80.535,65.715L80.537,65.779L80.549,65.841L80.599,65.945L80.611,66.007L80.599,66.078L80.567,66.128L80.523,66.157L80.474,66.167L80.429,66.154L80.317,66.062L80.225,66.057L80.131,66.106L79.960,66.249L79.766,66.339L79.674,66.406L79.645,66.498L79.686,66.581L79.761,66.649L79.912,66.729L80.013,66.745L80.059,66.774L80.084,66.832L80.071,66.900L80.023,66.933L79.912,66.948L79.745,67.017L79.704,67.055L79.598,67.102L79.561,67.107L79.483,67.083L79.446,67.080L79.410,67.105L79.364,67.188L79.315,67.385L79.279,67.482L79.198,67.618L79.179,67.670L79.171,67.741L79.183,67.794L79.201,67.845L79.220,67.974L79.245,68.025L79.303,68.119L79.326,68.176L79.330,68.216L79.317,68.258L79.292,68.323L79.295,68.362L79.344,68.624L79.359,68.677L79.382,68.724L79.412,68.772L79.454,69.009L79.436,69.080L79.411,69.118L79.326,69.169L79.230,69.106L79.163,69.006L79.105,68.893L79.032,68.786L78.889,68.642L78.805,68.504L78.775,68.464L78.682,68.395L78.194,68.279L78.097,68.275L77.919,68.313L77.709,68.298L77.597,68.246L77.537,68.156L77.437,67.892L77.367,67.810L77.193,67.719L77.114,67.631L77.083,67.570L77.060,67.509L77.047,67.442L77.045,67.366L77.058,67.239L77.041,67.206L76.986,67.188L76.899,67.206L76.727,67.303L76.644,67.299L76.558,67.262L76.413,67.253L76.236,67.173L75.970,67.143L75.932,67.121L75.856,67.051L75.765,66.993L75.549,66.909L75.402,66.893L75.305,66.901L75.259,66.919L75.179,66.976L75.141,66.992L75.095,66.989L75.005,66.953L74.962,66.944L74.860,66.960L74.760,66.954L74.523,66.978L74.425,66.960L74.300,66.878L74.251,66.858L74.200,66.851L74.150,66.859L74.130,66.869L74.093,66.895L74.037,66.923L74.011,66.903L73.997,66.885L73.988,66.863L73.974,66.843L73.825,66.804L73.680,66.798L73.634,66.807L73.518,66.869L73.481,66.868L73.439,66.841L73.400,66.806L73.357,66.781L73.270,66.782L73.208,66.758L73.175,66.756L73.141,66.764L73.047,66.814L72.975,66.837L72.758,66.797L72.719,66.796L72.682,66.796L72.646,66.785L72.613,66.756L72.550,66.658L72.526,66.635L72.450,66.604L72.200,66.558L72.157,66.537L72.114,66.546L72.027,66.583L71.929,66.585L71.885,66.593L71.843,66.626L71.796,66.687L71.779,66.698L71.767,66.699L71.726,66.690L71.710,66.695L71.705,66.707L71.702,66.722L71.693,66.734L71.609,66.784L71.567,66.795L71.469,66.792L71.384,66.834L71.338,66.846L71.280,66.835L71.166,66.781L71.108,66.773L71.067,66.793L71.001,66.863L70.961,66.877L70.940,66.864L70.915,66.812L70.893,66.796L70.866,66.797L70.823,66.819L70.799,66.823L70.610,66.759L70.410,66.759L70.248,66.716L70.191,66.717L70.047,66.771L69.997,66.767L69.824,66.711L69.738,66.698L69.624,66.708L69.602,66.710L69.569,66.719L69.543,66.744L69.472,66.955L69.449,66.998L69.396,67.058L69.333,67.108L69.269,67.138L69.213,67.141L69.070,67.075L69.026,67.069L68.940,67.079L68.443,67.008L68.296,67.009L68.239,66.995L68.106,66.906L68.053,66.861L67.991,66.820L67.857,66.775L67.794,66.742L67.732,66.681L67.543,66.579L67.292,66.532L67.215,66.500L66.989,66.308L66.958,66.268L66.902,66.163L66.872,66.121L66.830,66.095L66.740,66.068L66.662,66.010L66.569,65.999L66.525,65.974L66.411,65.870L66.347,65.835L66.274,65.817L66.212,65.789L66.100,65.677L66.036,65.638L66.096,65.728L66.119,65.785L66.113,65.832L66.077,65.855L65.730,65.901L65.689,65.886L65.610,65.802L65.566,65.785L65.499,65.842L65.425,66.068L65.343,66.117L65.252,66.113L65.214,66.122L64.836,66.294L64.731,66.360L64.697,66.394L64.672,66.443L64.588,66.710L64.543,66.798L64.525,66.846L64.517,66.902L64.523,66.957L64.550,67.067L64.556,67.127L64.548,67.178L64.489,67.320L64.373,67.610L64.348,67.727L64.342,67.851L64.359,67.961L64.393,68.064L64.552,68.405L64.552,68.407L64.552,68.466L64.489,68.479L64.358,68.420L64.157,68.381L64.131,68.339L64.129,68.268L64.136,68.167L64.103,68.123L64.052,68.102L63.894,68.090L63.855,68.078L63.819,68.055L63.775,68.017L63.692,67.979L63.594,67.975L63.312,68.028L63.237,68.025L63.162,68.001L63.088,67.963L63.031,67.906L62.955,67.750L62.903,67.685L62.834,67.643L62.522,67.559L62.363,67.562L62.286,67.545L62.025,67.351L61.879,67.286L61.597,67.273L61.563,67.283L61.500,67.317L61.466,67.322L61.395,67.299L61.140,67.143L61.005,67.105L60.968,67.088L60.934,67.063L60.900,67.046L60.864,67.054L60.787,67.085L60.632,67.093L60.560,67.119L60.318,67.291L60.280,67.299L60.252,67.287L60.165,67.205L60.143,67.192L60.119,67.195L60.083,67.212L59.977,67.173L59.923,67.175L59.884,67.214L59.861,67.263L59.832,67.309L59.798,67.346L59.758,67.366L59.711,67.356L59.659,67.328L59.610,67.311L59.573,67.332L59.525,67.429L59.498,67.470L59.462,67.497L59.379,67.527L59.360,67.560L59.354,67.630L59.358,67.760L59.346,67.809L59.312,67.848L59.121,67.881L59.039,67.937L59.060,68.061L59.082,68.092L59.159,68.167L59.159,68.168L59.159,68.168L59.159,68.168L59.178,68.205L59.173,68.244L59.152,68.277L59.122,68.295L59.086,68.291L58.981,68.216L58.948,68.251L58.916,68.307L58.891,68.372L58.877,68.435L58.881,68.471L58.894,68.493L58.899,68.516L58.883,68.554L58.812,68.651L58.787,68.678L58.734,68.734L58.707,68.785L58.719,68.834L58.807,68.931L58.853,68.959L58.917,68.976L58.842,69.044L58.767,69.112L58.726,69.135L58.684,69.159L58.643,69.166L58.601,69.172L58.550,69.157L58.499,69.141L58.473,69.142L58.446,69.143L58.431,69.167L58.415,69.191L58.406,69.221L58.397,69.252L58.385,69.274L58.373,69.296L58.343,69.337L58.312,69.378L58.286,69.432L58.260,69.485L58.240,69.546L58.220,69.606L58.196,69.654L58.173,69.703L58.138,69.721L58.104,69.740L58.078,69.735L58.052,69.732L58.029,69.721L58.005,69.711L57.989,69.692L57.972,69.672L57.964,69.641L57.956,69.611L57.948,69.589L57.940,69.568L57.922,69.546L57.905,69.523L57.885,69.508L57.864,69.491L57.848,69.488L57.832,69.484L57.725,69.536L57.617,69.588L57.569,69.634L57.523,69.679L57.495,69.747L57.468,69.814L57.460,69.843L57.452,69.871L57.438,69.889L57.424,69.907L57.406,69.917L57.388,69.928L57.368,69.936L57.348,69.944L57.329,69.956L57.310,69.968L57.294,69.986L57.278,70.005L57.204,70.149L57.129,70.293L57.101,70.330L57.073,70.366L56.981,70.442L56.890,70.518L56.828,70.543L56.767,70.568L56.750,70.584L56.733,70.599L56.718,70.625L56.702,70.650L56.669,70.694L56.635,70.739L56.590,70.761L56.544,70.783L56.421,70.788L56.298,70.793L56.150,70.839L56.001,70.886L55.982,70.902L55.964,70.919L55.932,70.960L55.901,71.001L55.789,71.100L55.677,71.199L55.614,71.221L55.551,71.244L55.522,71.268L55.493,71.292L55.478,71.335L55.464,71.378L55.468,71.395L55.472,71.413L55.490,71.451L55.509,71.489L55.510,71.506L55.511,71.523L55.498,71.531L55.486,71.540L55.420,71.526L55.355,71.513L55.338,71.518L55.322,71.523L55.279,71.554L55.236,71.584L55.220,71.587L55.204,71.589L55.172,71.576L55.139,71.563L55.121,71.567L55.103,71.571L55.043,71.614L54.983,71.657L54.956,71.687L54.929,71.717L54.918,71.751L54.907,71.785L54.887,71.776L54.866,71.767L54.845,71.774L54.825,71.781L54.774,71.810L54.723,71.838L54.714,71.846L54.705,71.855L54.700,71.866L54.694,71.878L54.698,71.892L54.700,71.905L54.711,71.920L54.721,71.934L54.726,71.939L54.731,71.943L54.734,71.949L54.738,71.955L54.741,71.974L54.744,71.994L54.745,72.021L54.746,72.048L54.728,72.204L54.711,72.361L54.702,72.380L54.694,72.399L54.675,72.420L54.656,72.441L54.618,72.470L54.580,72.500L54.541,72.522L54.501,72.544L54.454,72.551L54.406,72.558L54.384,72.566L54.361,72.574L54.347,72.596L54.333,72.617L54.305,72.670L54.278,72.724L54.202,72.762L54.126,72.799L54.096,72.838L54.066,72.877L54.025,73.008L53.985,73.140L53.963,73.171L53.940,73.202L53.873,73.236L53.853,73.246L53.805,73.269L53.774,73.293L53.744,73.317L53.732,73.355L53.720,73.394L53.715,73.391L53.710,73.387L53.699,73.382L53.689,73.378L53.684,73.375L53.679,73.371L53.679,73.390L53.679,73.408L53.681,73.445L53.684,73.481L53.683,73.497L53.682,73.513L53.675,73.532L53.667,73.551L53.660,73.557L53.653,73.563L53.647,73.571L53.641,73.579L53.637,73.605L53.633,73.630L53.644,73.768L53.655,73.906L53.662,73.937L53.669,73.968L53.678,73.981L53.688,73.994L53.698,74.001L53.709,74.008L53.737,74.015L53.764,74.023L53.763,74.043L53.762,74.064L53.766,74.085L53.770,74.106L53.778,74.126L53.785,74.146L53.794,74.165L53.804,74.183L53.802,74.194L53.800,74.205L53.773,74.255L53.746,74.305L53.767,74.318L53.788,74.331L53.782,74.353L53.775,74.374L53.751,74.390L53.728,74.406L53.699,74.401L53.669,74.396L53.625,74.371L53.581,74.346L53.568,74.344L53.556,74.341L53.545,74.349L53.535,74.357L53.529,74.371L53.523,74.386L53.515,74.397L53.507,74.409L53.490,74.408L53.473,74.407L53.460,74.422L53.446,74.438L53.443,74.446L53.439,74.455L53.179,74.300L53.009,74.198L52.920,74.144L52.845,74.078L52.772,74.012L52.671,73.898L52.570,73.785L52.537,73.763L52.503,73.742L52.460,73.731L52.416,73.721L52.409,73.715L52.401,73.709L52.405,73.696L52.408,73.683L52.418,73.673L52.428,73.663L52.467,73.643L52.506,73.623L52.524,73.606L52.542,73.590L52.558,73.569L52.575,73.548L52.587,73.527L52.599,73.505L52.616,73.462L52.633,73.419L52.649,73.366L52.666,73.312L52.676,73.256L52.687,73.201L52.688,73.154L52.688,73.107L52.679,73.088L52.670,73.069L52.665,73.061L52.659,73.053L52.650,73.047L52.641,73.042L52.651,73.037L52.660,73.031L52.686,73.010L52.711,72.989L52.708,72.986L52.705,72.982L52.694,72.979L52.684,72.975L52.686,72.959L52.689,72.944L52.689,72.941L52.689,72.937L52.684,72.902L52.680,72.867L52.656,72.870L52.633,72.872L52.618,72.909L52.602,72.946L52.591,72.929L52.579,72.911L52.565,72.909L52.552,72.906L52.538,72.914L52.524,72.921L52.510,72.934L52.497,72.946L52.482,72.919L52.468,72.892L52.459,72.828L52.451,72.764L52.439,72.735L52.428,72.706L52.379,72.634L52.331,72.562L52.323,72.543L52.316,72.525L52.313,72.523L52.310,72.520L52.297,72.474L52.284,72.427L52.255,72.447L52.228,72.468L52.164,72.515L52.100,72.563L52.079,72.567L52.058,72.570L52.034,72.560L52.009,72.551L51.963,72.524L51.917,72.496L51.892,72.488L51.867,72.480L51.585,72.499L51.299,72.519L51.120,72.531L50.839,72.550L50.603,72.566L50.282,72.588L50.067,72.602L49.811,72.619L49.720,72.593L49.685,72.582L49.630,72.566L49.581,72.498L49.531,72.431L49.437,71.946L49.342,71.460L49.272,71.054L49.202,70.647L49.164,70.231L49.125,69.815L49.120,69.811L49.115,69.808L49.107,69.806L49.100,69.804L49.091,69.803L49.083,69.803L49.075,69.804L49.066,69.806L48.800,69.804L48.560,69.803L48.318,69.802L48.053,69.801L48.043,69.793L48.034,69.784L48.031,69.767L48.029,69.749L48.037,69.107L48.044,68.565L48.045,68.466L48.051,68.443L48.058,68.420L48.084,68.409L48.110,68.398L48.121,68.369L48.132,68.341L48.137,68.254L48.143,68.167L48.190,67.349L48.238,66.531L47.920,66.720L47.602,66.909L47.583,66.906L47.563,66.904L47.422,66.584L47.257,66.212L47.137,65.943L46.950,65.521L46.907,65.478L46.863,65.436L46.636,65.281L46.409,65.126L46.300,65.000L46.190,64.874L45.953,64.538L45.715,64.203L45.678,64.167L45.641,64.131L45.606,64.125L45.571,64.119L45.532,64.135L45.492,64.151L45.277,64.281L45.058,64.413L44.846,64.540L44.625,64.674L44.587,64.686L44.548,64.698L44.427,64.686L44.122,64.656L43.816,64.626L43.511,64.596L43.205,64.565L42.870,64.532L42.534,64.499L42.198,64.466L41.863,64.433L41.661,64.469L41.460,64.504L41.259,64.540L41.058,64.575L40.857,64.611L40.656,64.646L40.455,64.682L40.254,64.717L40.129,64.742L40.005,64.767L39.881,64.792L39.756,64.817L39.679,64.832L39.601,64.848L39.523,64.864L39.445,64.879L39.263,64.916L39.258,64.917L39.214,64.896L39.169,64.875L39.004,64.669L38.880,64.515L38.757,64.360L38.633,64.205L38.509,64.051L38.382,63.893L38.256,63.735L38.129,63.577L38.003,63.419L37.848,63.228L37.727,63.087L37.607,62.946L37.354,62.652L37.224,62.428L37.203,62.352L37.188,62.181L37.174,62.101L37.134,62.014L37.078,61.945L36.940,61.848L36.747,61.710L36.484,61.524L36.163,61.295L35.794,61.034L35.391,60.747L34.963,60.444L34.522,60.130L34.080,59.816L33.647,59.509L33.235,59.217L32.856,58.947L32.712,58.845L32.520,58.709L32.239,58.509L32.025,58.357L31.887,58.260L31.839,58.225L31.670,58.105L31.610,58.077L31.558,58.072L31.380,58.126L31.247,58.166L31.114,58.207L30.982,58.247L30.849,58.287L30.721,58.327L30.594,58.367L30.467,58.407L30.339,58.447L30.064,58.536L29.788,58.625L29.513,58.714L29.238,58.803L29.031,58.873L28.825,58.943L28.618,59.013L28.411,59.083L28.205,59.153L27.998,59.224L27.792,59.294L27.585,59.364L27.540,59.379L27.378,59.434L27.172,59.504L26.966,59.574L26.759,59.644L26.552,59.714L26.346,59.785L26.139,59.855L25.933,59.925L25.933,59.925L25.932,59.925L25.932,59.925L25.932,59.925L25.932,59.925L25.931,59.925L25.931,59.926L25.931,59.926L25.931,59.926L25.931,59.926L25.930,59.926L25.930,59.926L25.930,59.926L25.930,59.927L25.929,59.927L25.929,59.927L25.929,59.927L25.929,59.927L25.929,59.928L25.929,59.928L25.928,59.928L25.928,59.928L25.928,59.929L25.928,59.929L25.928,59.929L25.928,59.930L25.928,59.930L25.928,59.930L25.927,59.931L25.927,59.931L25.927,59.931L25.927,59.931L25.927,59.932L25.927,59.932L25.927,59.933L25.927,59.933L25.927,59.934L25.927,59.934L25.927,59.935L25.928,60.690L25.928,61.446L25.928,62.202L25.929,62.958L25.929,63.714L25.929,64.469L25.930,65.225L25.930,65.981L25.930,66.737L25.931,67.492L25.931,68.248L25.931,69.004L25.932,69.760L25.932,70.515L25.932,71.271L25.933,72.027L25.782,72.011L25.709,72.018L25.512,72.126L25.307,72.159L25.177,72.216L24.899,72.234L24.831,72.208L24.769,72.168L24.723,72.129L24.686,72.073L24.625,71.906L24.598,71.850L24.563,71.805L24.425,71.698L24.348,71.622L24.280,71.529L24.140,71.251L23.997,70.965L23.898,70.814L23.668,70.466L23.645,70.407L23.634,70.341L23.637,70.270L23.646,70.212L23.646,70.157L23.625,70.092L23.572,70.017L23.200,69.634L22.939,69.440L22.717,69.275L22.346,69.000L22.004,68.746L21.844,68.681L21.677,68.655L21.150,68.762L20.812,68.830L20.424,68.908L20.279,68.943L19.793,69.157L19.668,69.240L19.323,69.376L18.852,69.814L18.852,69.814L18.851,69.815L18.558,70.141L18.222,70.517L18.131,70.620L18.127,70.555L18.144,70.482L18.229,70.241L18.249,70.116L18.234,69.985L18.211,69.916L18.183,69.862L18.162,69.838L18.140,69.818L18.122,69.792L18.115,69.748L18.130,69.636L18.129,69.603L18.116,69.572L18.053,69.488L18.077,69.442L18.097,69.380L18.111,69.314L18.115,69.253L18.128,69.201L18.159,69.175L18.198,69.157L18.234,69.129L18.342,68.898L18.461,68.717L18.476,68.689L18.487,68.658L18.491,68.619L18.489,68.549L18.491,68.513L18.499,68.487L18.565,68.414L18.583,68.382L18.590,68.355L18.593,68.299L18.598,68.272L18.635,68.140L18.657,68.020L18.657,67.901L18.628,67.775L18.572,67.634L18.530,67.559L18.435,67.492L18.410,67.419L18.409,67.348L18.433,67.324L18.448,67.358L18.465,67.427L18.490,67.495L18.530,67.526L18.551,67.534L18.628,67.593L18.639,67.617L18.643,67.642L18.647,67.660L18.658,67.661L18.689,67.781L18.711,67.839L18.732,67.865L18.756,67.838L18.781,67.771L18.800,67.692L18.807,67.628L18.789,67.483L18.738,67.386L18.657,67.334L18.553,67.324L18.544,67.241L18.432,67.163L18.204,67.072L17.986,67.051L17.954,67.054L17.927,67.061L17.901,67.075L17.873,67.096L17.861,67.116L17.837,67.173L17.827,67.188L17.768,67.162L17.621,66.940L17.540,66.872L17.487,66.867L17.295,66.900L17.148,66.962L17.068,67.024L17.019,67.043L16.974,67.019L16.845,66.849L16.814,66.798L16.765,66.693L16.732,66.636L16.710,66.585L16.687,66.462L16.664,66.397L16.560,66.267L16.531,66.200L16.502,66.189L16.471,66.183L16.452,66.170L16.441,66.128L16.448,66.100L16.461,66.074L16.468,66.036L16.460,65.973L16.435,65.907L16.398,65.869L16.312,65.916L16.204,65.909L16.153,65.923L16.135,65.942L16.121,65.964L16.106,65.983L16.084,65.991L16.056,65.983L16.005,65.951L15.977,65.943L15.774,65.991L15.571,65.991L15.542,65.957L15.550,65.882L15.630,65.614L15.653,65.475L15.667,65.042L15.657,64.976L15.587,64.825L15.577,64.795L15.573,64.763L15.570,64.689L15.565,64.660L15.531,64.615L15.444,64.545L15.426,64.490L15.419,64.443L15.401,64.437L15.376,64.449L15.351,64.455L15.323,64.449L15.307,64.442L15.276,64.412L15.217,64.323L15.014,63.861L14.996,63.804L14.989,63.746L14.982,63.714L14.968,63.686L14.952,63.662L14.944,63.644L14.942,63.611L14.948,63.540L14.944,63.509L14.926,63.473L14.860,63.408L14.846,63.380L14.828,63.319L14.795,63.262L14.768,63.198L14.747,63.170L14.724,63.155L14.674,63.139L14.657,63.122L14.639,63.078L14.641,63.049L14.651,63.021L14.657,62.977L14.649,62.703L14.639,62.635L14.627,62.583L14.570,62.498L14.481,62.429L14.294,62.335L13.519,62.181L13.419,62.131L13.372,62.098L13.322,62.050L13.283,61.990L13.267,61.918L13.282,61.770L13.283,61.698L13.267,61.636L13.283,61.612L13.261,61.552L13.249,61.444L13.255,61.336L13.283,61.274L13.320,61.370L13.351,61.327L13.373,61.235L13.381,61.184L13.405,61.167L13.410,61.127L13.411,61.082L13.419,61.048L13.446,61.024L13.465,61.033L13.484,61.054L13.509,61.072L13.857,61.145L13.962,61.139L14.065,61.099L14.119,61.099L14.142,61.151L14.176,61.161L14.369,61.162L14.403,61.200L14.428,61.213L14.453,61.196L14.468,61.162L14.476,61.137L14.488,61.122L14.514,61.117L14.628,61.122L14.683,61.135L14.732,61.162L14.810,61.240L14.876,61.329L14.897,61.344L14.951,61.334L14.974,61.342L14.988,61.368L14.982,61.390L14.965,61.404L14.944,61.409L14.979,61.464L15.037,61.507L15.216,61.597L15.279,61.609L15.344,61.607L15.410,61.589L15.460,61.560L15.577,61.432L15.582,61.423L15.586,61.412L15.593,61.399L15.607,61.387L15.622,61.382L15.676,61.387L15.709,61.381L15.770,61.361L15.804,61.362L15.787,61.468L15.850,61.489L16.001,61.454L16.149,61.528L16.198,61.522L16.228,61.480L16.216,61.435L16.185,61.393L16.153,61.362L16.020,61.285L15.931,61.197L15.879,61.190L15.774,61.227L15.667,61.242L15.606,61.182L15.532,60.937L15.480,60.838L15.406,60.766L15.230,60.643L15.207,60.619L15.192,60.597L15.175,60.581L15.096,60.570L15.072,60.560L15.063,60.539L15.039,60.512L14.899,60.416L14.880,60.361L14.875,60.286L14.887,60.220L14.921,60.191L14.941,60.179L14.950,60.152L14.950,60.122L14.944,60.099L14.918,60.081L14.888,60.079L14.863,60.070L14.852,60.032L14.874,59.982L14.924,59.947L14.982,59.926L15.026,59.919L15.081,59.927L15.107,59.922L15.138,59.896L15.153,59.875L15.179,59.829L15.199,59.806L15.294,59.736L15.348,59.708L15.396,59.696L15.434,59.723L15.474,59.778L15.517,59.827L15.565,59.831L15.584,59.789L15.569,59.725L15.538,59.660L15.509,59.614L15.500,59.580L15.509,59.540L15.524,59.502L15.532,59.469L15.528,59.447L15.510,59.396L15.502,59.379L15.517,59.334L15.543,59.278L15.610,59.170L15.623,59.119L15.645,59.065L15.839,58.817L15.858,58.764L15.866,58.690L15.879,58.628L15.911,58.658L15.970,58.768L16.052,58.810L16.161,58.809L16.270,58.777L16.347,58.723L16.415,58.643L16.435,58.629L16.484,58.632L16.506,58.621L16.538,58.563L16.564,58.498L16.593,58.441L16.634,58.406L16.661,58.438L16.685,58.482L16.702,58.531L16.709,58.577L16.899,58.611L16.934,58.625L16.993,58.688L17.035,58.703L17.074,58.688L17.145,58.625L17.186,58.611L17.236,58.618L17.325,58.649L17.374,58.656L18.055,58.564L18.149,58.593L18.311,58.566L18.415,58.593L18.787,58.767L19.007,58.804L19.117,58.864L19.171,58.882L19.375,58.858L19.433,58.870L19.554,58.919L19.609,58.926L19.655,58.908L19.747,58.850L19.798,58.837L19.812,58.831L19.838,58.799L19.851,58.791L19.905,58.808L19.911,58.813L19.926,58.802L19.946,58.783L19.959,58.757L19.956,58.723L19.916,58.695L19.685,58.648L19.667,58.629L19.654,58.607L19.639,58.588L19.617,58.575L19.550,58.566L19.449,58.533L19.171,58.386L19.117,58.373L19.096,58.361L19.056,58.303L19.040,58.285L19.019,58.275L18.939,58.262L18.831,58.210L18.794,58.181L18.805,58.139L18.793,58.111L18.779,58.087L18.785,58.059L18.803,58.024L18.804,57.999L18.798,57.976L18.794,57.945L18.797,57.868L18.810,57.807L18.835,57.768L18.876,57.754L18.912,57.729L18.938,57.670L18.974,57.550L19.059,57.393L19.096,57.347L19.119,57.331L19.174,57.309L19.194,57.290L19.270,57.178L19.298,57.120L19.341,56.994L19.375,56.928L19.439,56.858L19.458,56.828L19.469,56.800L19.489,56.727L19.503,56.691L19.550,56.602L19.561,56.551L19.550,56.491L19.550,56.511L19.540,56.461L19.552,56.419L19.602,56.342L19.621,56.297L19.631,56.242L19.651,56.015L19.716,55.722L19.716,55.493L19.653,55.321L19.553,55.186L19.442,55.068L19.487,55.075L19.553,55.136L19.595,55.158L19.595,55.133L19.556,55.103L19.536,55.052L19.535,54.991L19.550,54.931L19.509,54.953L19.460,55.004L19.409,55.042L19.367,55.023L19.363,54.956L19.391,54.868L19.458,54.729L19.462,54.790L19.490,54.822L19.528,54.825L19.564,54.796L19.581,54.747L19.591,54.626L19.609,54.571L19.629,54.638L19.647,54.621L19.665,54.568L19.684,54.526L19.705,54.519L19.756,54.528L19.776,54.526L19.802,54.511L19.812,54.500L19.821,54.459L19.828,54.330L19.785,54.254L19.716,54.218L19.647,54.209L19.603,54.191L19.589,54.145L19.595,54.040L19.554,53.809L19.513,53.722L19.503,53.680L19.485,53.660L19.390,53.672L19.353,53.670L19.313,53.627L19.228,53.493L19.194,53.465L19.095,53.468L18.891,53.510L18.769,53.490L18.521,53.490L18.467,53.475L18.426,53.450L18.350,53.362L18.311,53.344L18.171,53.321L18.129,53.328L18.108,53.358L18.100,53.394L18.099,53.477L18.091,53.510L17.991,53.643L17.954,53.676L17.744,53.753L17.685,53.757L17.611,53.703L17.583,53.708L17.565,53.735L17.570,53.780L17.584,53.791L17.642,53.814L17.661,53.825L17.675,53.846L17.690,53.877L17.701,53.914L17.706,53.951L17.693,53.961L17.415,53.942L17.360,53.915L17.339,53.899L17.325,53.885L17.317,53.861L17.315,53.815L17.303,53.819L17.276,53.797L17.205,53.718L17.182,53.704L17.167,53.686L17.162,53.645L17.175,53.623L17.199,53.598L17.216,53.568L17.208,53.533L17.165,53.520L17.125,53.578L17.080,53.701L17.038,53.721L16.968,53.717L16.895,53.698L16.845,53.670L16.914,53.574L16.936,53.553L16.889,53.537L16.835,53.562L16.739,53.625L16.693,53.625L16.646,53.603L16.602,53.566L16.567,53.521L16.482,53.452L16.452,53.396L16.497,53.255L16.492,53.188L16.462,53.137L16.407,53.128L16.364,53.165L16.344,53.229L16.332,53.301L16.310,53.362L16.268,53.367L16.224,53.309L16.166,53.193L16.125,53.151L16.071,53.123L15.928,53.097L15.805,53.050L15.522,52.986L15.432,52.927L15.375,52.940L15.276,53.013L15.190,53.060L14.899,53.128L14.857,53.153L14.793,53.243L14.755,53.263L14.723,53.252L14.673,53.204L14.649,53.193L14.625,53.204L14.612,53.228L14.610,53.252L14.619,53.263L14.607,53.293L14.430,53.603L14.392,53.634L14.369,53.578L14.377,53.539L14.419,53.473L14.430,53.431L14.417,53.409L14.389,53.427L14.311,53.514L14.254,53.547L14.195,53.561L14.150,53.543L14.117,53.537L14.105,53.604L14.097,53.760L14.079,53.811L14.050,53.861L14.014,53.888L13.975,53.870L14.015,53.811L14.040,53.761L14.034,53.726L13.984,53.713L13.909,53.738L13.893,53.747L13.868,53.774L13.848,53.767L13.831,53.747L13.759,53.682L13.736,53.670L13.718,53.665L13.708,53.665L13.697,53.679L13.676,53.713L13.605,53.925L13.569,53.962L13.580,53.920L13.585,53.805L13.555,53.831L13.538,53.869L13.525,53.909L13.509,53.940L13.494,53.948L13.452,53.953L13.434,53.962L13.418,53.978L13.408,53.991L13.314,54.174L13.269,54.228L13.229,54.220L13.229,54.189L13.244,54.148L13.252,54.112L13.229,54.097L13.201,54.105L13.132,54.152L12.935,54.367L12.872,54.479L12.835,54.527L12.791,54.547L12.708,54.536L12.678,54.547L12.656,54.565L12.621,54.617L12.602,54.638L12.525,54.673L12.501,54.722L12.470,54.723L12.407,54.706L12.375,54.737L12.370,54.796L12.357,54.839L12.301,54.816L12.274,54.768L12.256,54.751L12.233,54.763L12.233,54.835L12.226,54.868L12.203,54.852L12.158,54.792L12.129,54.770L12.105,54.774L12.101,54.799L12.108,54.883L12.105,54.909L11.962,54.717L11.928,54.699L11.922,54.762L11.938,54.909L11.896,54.883L11.873,54.902L11.856,54.942L11.832,54.976L11.814,54.900L11.786,54.859L11.654,54.798L11.616,54.772L11.591,54.730L11.590,54.661L11.590,54.766L11.597,54.818L11.628,54.858L11.651,54.942L11.667,54.976L11.642,54.973L11.604,54.956L11.582,54.951L11.563,54.940L11.565,54.915L11.574,54.886L11.575,54.863L11.566,54.851L11.523,54.806L11.502,54.791L11.490,54.806L11.485,54.829L11.485,54.841L11.415,54.827L11.336,54.796L11.268,54.748L11.229,54.684L11.246,54.768L11.391,54.938L11.425,55.043L11.382,55.024L11.300,55.021L11.291,55.023L11.260,54.981L11.239,54.932L11.213,54.894L11.169,54.888L11.169,54.909L11.206,54.946L11.212,55.015L11.225,55.082L11.282,55.113L11.365,55.203L11.374,55.233L11.378,55.267L11.375,55.303L11.365,55.338L11.274,55.267L11.231,55.223L11.199,55.178L11.169,55.124L11.143,55.090L11.108,55.073L11.049,55.068L11.073,55.088L11.092,55.108L11.105,55.139L11.109,55.190L11.119,55.222L11.199,55.313L11.191,55.319L11.169,55.338L11.138,55.314L10.964,55.256L10.939,55.257L10.927,55.270L10.932,55.304L10.950,55.325L10.973,55.335L10.995,55.338L11.032,55.366L11.046,55.429L11.050,55.491L11.055,55.520L11.057,55.539L11.057,55.539L10.629,55.285L10.468,55.152L10.376,55.057L10.330,55.031L10.267,55.030L10.213,55.043L10.159,55.040L10.024,54.929L9.968,54.860L9.906,54.806L9.819,54.784L9.616,54.780L9.542,54.748L9.594,54.671L9.558,54.645L9.547,54.599L9.541,54.551L9.521,54.517L9.440,54.466L9.397,54.448L9.356,54.442L9.409,54.368L9.467,54.206L9.580,54.110L9.715,54.081L9.844,54.122L9.889,54.165L9.923,54.219L9.983,54.344L10.036,54.370L10.373,54.305L10.442,54.248L10.570,54.086L9.889,52.993L9.556,52.108L9.534,52.029L9.510,51.974L9.477,51.950L9.396,51.941L9.317,51.912L9.259,51.857L9.148,51.702L9.148,51.701L8.737,50.977L8.601,50.860L8.451,50.790L7.581,50.804L7.109,50.577L7.058,50.572L7.018,50.602L7.006,50.651L7.008,50.850L6.993,51.002L6.974,51.066L6.942,51.075L6.534,50.787L6.459,50.715L6.422,50.664L6.413,50.625L6.425,50.585L6.454,50.527L6.470,50.507L6.484,50.496L6.495,50.482L6.499,50.455L6.492,50.435L6.418,50.310L6.262,50.115L6.247,50.077L6.278,50.050L6.452,49.942L6.542,49.861L6.573,49.795L6.533,49.754L6.413,49.741L6.378,49.698L6.379,49.639L6.395,49.583L6.406,49.525L6.389,49.459L6.376,49.438L6.327,49.386L6.315,49.356L6.329,49.334L6.352,49.316L6.367,49.299L6.397,49.236L6.397,49.234L6.396,49.205L6.368,49.158L6.322,49.125L6.104,49.063L5.553,48.872L5.002,48.681L5.001,48.681L5.000,48.679L5.001,48.677L5.002,48.675L5.313,47.826L5.607,47.021L5.660,46.949L5.737,46.890L5.903,46.802L5.954,46.762L5.995,46.725L6.104,46.582L6.196,46.419L6.238,46.243L6.213,46.074L6.104,45.933L5.777,45.690L5.654,45.643L5.792,44.840L5.929,44.036L5.979,43.901L6.058,43.826L6.540,43.618L6.691,43.470L6.830,43.297L6.874,43.204L6.871,43.085L6.751,42.923L6.734,42.831L6.758,42.786L6.838,42.712L6.860,42.663L6.848,42.612L6.818,42.577L6.799,42.537L6.823,42.473L6.861,42.442L7.014,42.380L7.045,42.344L7.107,42.204L7.117,42.182L7.185,42.088L7.277,42.005L7.377,41.954L7.470,41.954L7.526,41.993L7.670,42.172L7.769,42.226L7.800,42.258L7.825,42.301L7.839,42.334L7.861,42.358L7.903,42.375L7.930,42.391L8.032,42.506L8.075,42.567L8.162,42.641L8.251,42.770L8.338,42.846L8.354,42.886L8.364,42.931L8.380,42.976L8.408,43.012L8.517,43.098L8.565,43.186L8.587,43.278L8.601,43.372L8.629,43.468L8.644,43.498L8.667,43.564L8.682,43.593L8.707,43.621L8.795,43.691L8.837,43.769L8.853,43.841L8.880,43.890L8.957,43.896L9.020,43.883L9.041,43.894L9.145,43.991L9.273,44.065L9.300,44.071L9.329,44.054L9.379,43.985L9.409,43.961L9.859,43.789L10.082,43.664L10.252,43.468L10.288,43.411L10.305,43.379L10.305,43.344L10.279,43.215L10.260,43.161L10.230,43.124L10.078,43.077L10.074,42.991L10.092,42.875L10.052,42.749L9.959,42.570L9.898,42.342L9.839,41.869L9.848,41.638L9.837,41.536L9.782,41.463L9.669,41.442L9.615,41.413L9.605,41.348L9.640,41.305L9.694,41.311L9.983,41.476L10.085,41.499L10.183,41.481L10.584,41.194L10.782,40.948L10.874,40.870L11.182,40.797L11.370,40.721L11.456,40.651L11.490,40.539L11.450,40.436L11.375,40.350L11.322,40.269L11.348,40.175L11.401,40.087L11.422,40.038L11.440,39.930L11.461,39.869L11.489,39.815L11.518,39.781L11.570,39.768L11.746,39.819L12.273,39.814L12.310,39.790L12.414,39.655L12.731,39.394L12.823,39.351L13.217,39.275L13.477,39.151L13.514,39.121L13.529,39.088L13.525,39.047L13.510,38.989L13.504,38.926L13.524,38.895L13.557,38.875L13.589,38.843L13.582,38.830L13.563,38.811L13.552,38.790L13.569,38.771L13.596,38.764L13.728,38.758L13.768,38.745L13.798,38.715L13.815,38.656L13.867,38.649L13.902,38.637L13.922,38.603L13.931,38.528L13.910,38.337L13.917,38.288L13.956,38.249L13.998,38.238L14.028,38.213L14.033,38.131L14.042,38.058L14.082,38.060L14.168,38.121L14.271,38.123L14.289,38.138L14.247,38.193L14.211,38.253L14.238,38.282L14.295,38.288L14.346,38.282L14.444,38.245L14.502,38.184L14.510,38.089L14.407,37.816L14.400,37.706L14.450,37.650L14.569,37.672L14.609,37.695L14.650,37.729L14.685,37.773L14.708,37.827L14.745,37.888L14.799,37.912L15.337,37.946L15.382,37.931L15.432,37.905L15.479,37.893L15.518,37.916L15.572,38.005L15.599,38.034L15.643,38.053L15.740,38.055L15.783,38.077L15.805,38.142L15.803,38.217L15.786,38.268L15.754,38.302L15.711,38.323L15.496,38.360L15.484,38.386L15.509,38.435L15.545,38.488L15.565,38.528L15.565,38.528L15.634,38.598L15.799,38.612L15.981,38.586L16.098,38.528L16.136,38.476L16.164,38.425L16.197,38.390L16.251,38.389L16.307,38.413L16.330,38.443L16.336,38.490L16.339,38.567L16.390,38.665L16.491,38.655L16.603,38.592L16.687,38.528L16.688,38.406L16.655,38.297L16.648,38.197L16.770,38.066L16.838,37.972L16.878,37.934L16.939,37.912L17.001,37.917L17.062,37.941L17.120,37.976L17.177,37.994L17.244,38.002L17.312,37.999L17.369,37.981L17.411,37.943L17.460,37.839L17.493,37.792L17.550,37.762L17.674,37.771L17.736,37.766L17.783,37.729L17.811,37.629L17.845,37.600L17.905,37.636L17.943,37.746L17.970,37.877L17.999,37.977L18.146,38.240L18.208,38.455L18.222,38.488L18.247,38.528L18.281,38.574L18.323,38.611L18.369,38.637L18.387,38.643L18.434,38.612L18.629,38.624L18.640,38.652L18.665,38.639L18.692,38.608L18.711,38.581L18.730,38.563L18.756,38.553L18.809,38.547L18.825,38.535L18.835,38.511L18.852,38.487L18.885,38.477L18.907,38.488L18.954,38.535L18.975,38.547L19.098,38.537L19.142,38.553L19.112,38.612L19.157,38.619L19.214,38.651L19.247,38.659L19.282,38.650L19.311,38.624L19.339,38.594L19.368,38.569L19.452,38.538L19.716,38.547L19.698,38.488L19.708,38.462L19.735,38.456L19.769,38.457L19.790,38.463L19.800,38.478L19.808,38.496L19.822,38.513L19.842,38.521L19.856,38.516L19.868,38.506L19.882,38.502L20.047,38.524L20.080,38.519L20.133,38.494L20.179,38.525L20.184,38.524L20.268,38.556L20.294,38.587L20.339,38.665L20.369,38.695L20.594,38.782L20.687,38.843L20.715,38.872L20.732,38.925L20.713,38.952L20.636,38.988L20.677,39.034L20.677,39.088L20.667,39.145L20.679,39.198L20.754,39.269L20.786,39.310L20.801,39.369L20.855,39.427L21.260,39.543L21.373,39.524L21.432,39.540L21.518,39.603L21.560,39.646L21.612,39.759L21.661,39.787L21.776,39.804L21.819,39.835L21.838,39.884L21.860,40.011L21.878,40.057L21.895,40.086L21.902,40.119L21.894,40.175L21.963,40.257L22.001,40.289L22.088,40.338L22.119,40.378L22.147,40.423L22.181,40.466L22.235,40.498L22.413,40.528L22.437,40.544L22.477,40.583L22.498,40.597L22.597,40.618L22.628,40.633L22.644,40.661L22.649,40.693L22.643,40.726L22.628,40.758L22.503,40.913L22.487,40.979L22.482,41.126L22.471,41.189L22.423,41.338L22.410,41.404L22.419,41.469L22.454,41.539L22.534,41.641L22.578,41.681L22.628,41.712L22.674,41.721L22.776,41.697L22.787,41.694L22.877,41.658L23.000,41.556L23.064,41.460L23.058,41.355L22.982,41.116L22.981,41.047L23.008,40.923L23.006,40.855L22.996,40.834L22.962,40.798L22.955,40.771L22.961,40.743L22.997,40.685L23.010,40.657L22.980,40.527L22.860,40.462L22.733,40.426L22.682,40.387L22.710,40.358L22.752,40.337L22.777,40.305L22.731,40.180L22.750,40.140L22.791,40.117L22.980,40.060L23.033,40.059L23.085,40.073L23.131,40.097L23.218,40.174L23.362,40.242L23.405,40.285L23.471,40.369L23.544,40.439L23.882,40.532L23.916,40.605L23.912,40.735L23.962,40.820L24.450,41.254L24.503,41.287L24.543,41.299L24.584,41.296L24.694,41.266L24.752,41.265L24.808,41.281L24.859,41.317L24.891,41.369L24.909,41.422L24.932,41.466L25.034,41.507L25.069,41.539L25.136,41.633L25.231,41.699L25.307,41.670L25.462,41.512L25.831,41.315L26.154,41.057L26.201,40.981L26.283,40.583L26.305,40.506L26.329,40.462L26.366,40.452L26.549,40.531L26.616,40.545L26.675,40.534L26.720,40.494L26.738,40.443L26.753,40.322L26.785,40.290L26.897,40.274L26.932,40.229L26.932,40.184L26.907,40.089L26.908,40.040L26.929,40.001L26.964,39.965L27.034,39.910L27.100,39.933L27.295,40.204L27.339,40.222L27.497,40.253L27.539,40.248L27.544,40.212L27.529,40.157L27.484,40.050L27.479,39.987L27.511,39.942L27.558,39.912L27.601,39.895L27.655,39.887L27.691,39.901L27.773,39.963L27.828,39.982L27.887,39.980L27.944,39.965L27.998,39.940L28.054,39.926L28.239,39.944L28.343,39.921L28.488,39.835L28.524,39.822L28.554,39.842L28.583,39.909L28.602,40.036L28.619,40.094L28.654,40.118L28.706,40.120L28.749,40.131L28.785,40.159L28.820,40.213L28.840,40.266L28.867,40.384L28.887,40.437L28.920,40.489L28.961,40.526L29.105,40.604L29.160,40.619L29.214,40.617L29.267,40.589L29.305,40.542L29.329,40.492L29.358,40.447L29.409,40.418L29.498,40.429L29.702,40.491L29.776,40.452L29.808,40.354L29.810,40.247L29.788,40.029L29.802,39.908L29.843,39.830L29.878,39.757L29.938,39.745L30.039,39.802L30.074,39.810L30.194,39.810L30.222,39.823L30.242,39.841L30.277,39.890L30.300,39.896L30.362,39.863L30.391,39.855L30.558,39.828L30.573,39.833L30.583,39.848L30.585,39.869L30.585,39.889L30.588,39.900L30.638,39.936L30.697,39.964L30.757,39.969L30.807,39.935L30.833,39.876L30.853,39.805L30.880,39.745L30.928,39.720L30.978,39.708L31.067,39.657L31.100,39.683L31.166,39.749L31.194,39.792L31.201,39.838L31.204,39.881L31.220,39.918L31.264,39.941L31.534,39.947L31.629,39.989L31.698,40.074L31.715,40.213L31.701,40.274L31.677,40.323L31.645,40.362L31.609,40.397L31.591,40.441L31.599,40.502L31.621,40.562L31.646,40.600L31.688,40.608L31.800,40.601L31.822,40.634L31.806,40.761L31.812,40.805L31.851,40.843L31.907,40.848L31.973,40.831L32.035,40.826L32.080,40.867L32.117,40.975L32.137,41.015L32.175,41.055L32.341,41.175L32.427,41.211L33.026,41.262L33.074,41.276L33.110,41.321L33.135,41.371L33.161,41.401L33.193,41.416L33.231,41.417L33.442,41.368L33.555,41.366L33.644,41.421L33.688,41.469L33.805,41.514L33.832,41.535L33.826,41.620L33.770,41.644L33.644,41.625L33.586,41.675L33.584,41.724L33.618,41.773L33.743,41.881L33.814,41.849L33.886,41.777L33.962,41.718L34.074,41.700L34.189,41.707L34.298,41.687L34.388,41.590L34.484,41.394L34.512,41.350L34.582,41.270L34.607,41.225L34.617,41.169L34.604,41.053L34.606,40.988L34.618,40.931L34.711,40.712L34.726,40.687L34.746,40.665L34.841,40.632L34.978,40.621L35.094,40.663L35.129,40.784L35.135,40.905L35.183,41.000L35.256,41.074L35.335,41.132L35.456,41.189L36.377,41.295L36.597,41.261L37.207,41.064L37.817,40.867L37.888,40.801L37.938,40.701L37.971,40.563L38.004,40.266L38.023,40.175L38.128,39.626L38.174,39.472L38.248,39.381L38.344,39.330L38.460,39.300L38.421,39.284L38.305,39.236L38.238,39.178L38.185,39.086L38.096,38.832L38.051,38.764L38.041,38.748L37.962,38.727L37.865,38.669L37.782,38.637L37.751,38.641L37.699,38.657L37.669,38.659L37.640,38.652L37.564,38.612L37.511,38.601L37.359,38.612L37.309,38.606L37.222,38.576L37.177,38.569L37.104,38.574L37.081,38.569L37.062,38.561L37.049,38.552L37.039,38.541L37.031,38.530L37.021,38.516L37.006,38.502L36.934,38.453L36.907,38.422L36.876,38.358L36.860,38.317L36.853,38.287L36.851,38.180L36.860,38.138L36.824,38.137L35.929,38.116L35.909,38.110L35.896,38.085L35.892,38.052L35.886,38.022L35.862,38.007L35.622,37.969L35.577,37.940L35.579,37.871L35.613,37.828L35.716,37.782L35.758,37.752L35.766,37.726L35.764,37.668L35.776,37.648L35.820,37.617L35.842,37.594L35.851,37.568L35.790,37.498L35.399,37.408L35.173,37.251L35.098,37.223L35.073,37.255L35.054,37.307L34.997,37.336L34.928,37.323L34.882,37.282L34.782,37.067L34.763,37.014L34.766,36.960L34.801,36.882L34.860,36.882L35.241,36.881L35.560,36.562L35.732,36.431L35.910,36.358L36.033,36.362L36.156,36.387L36.275,36.382L36.387,36.299L36.475,36.165L36.515,36.131L36.726,36.047L36.770,36.018L36.882,35.903L36.922,35.871L37.016,35.820L37.085,35.754L36.949,35.581L36.912,35.533L36.900,35.475L36.891,35.339L36.876,35.279L36.858,35.248L36.830,35.231L36.626,35.167L36.590,35.138L36.579,35.084L36.589,34.928L36.587,34.863L36.575,34.811L36.564,34.790L36.542,34.786L36.428,34.798L36.390,34.795L36.362,34.775L36.350,34.748L36.346,34.726L36.336,34.707L36.307,34.690L36.285,34.672L36.276,34.643L36.275,34.609L36.278,34.572L36.328,34.437L36.422,34.384L36.529,34.361L36.621,34.316L36.652,34.275L36.704,34.182L36.744,34.139L37.126,33.820L36.943,33.661L36.942,33.658L36.943,33.657L37.113,33.656L37.193,33.636L37.267,33.589L37.267,33.589L37.268,33.588L37.268,33.588L37.341,33.532L37.417,33.520L37.493,33.543L37.568,33.588L37.631,33.613L37.699,33.621L37.767,33.613L37.827,33.588L37.932,33.507L37.985,33.493L38.051,33.523L38.131,33.588L38.263,33.709L38.332,33.734L38.400,33.695L38.443,33.660L38.486,33.651L38.579,33.663L38.804,33.635L38.885,33.662L39.030,33.767L39.111,33.778L39.278,33.719L39.361,33.664L39.408,33.589L39.408,33.588L39.451,33.426L39.457,33.351L39.439,33.272L39.384,33.191L39.313,33.153L38.838,33.066L38.681,33.006L38.551,32.893L38.461,32.777L38.415,32.762L38.203,32.867L38.131,32.876L38.051,32.855L37.834,32.701L37.757,32.674L37.547,32.675L37.445,32.653L37.356,32.578L37.312,32.500L37.292,32.417L37.300,32.335L37.341,32.257L37.440,32.127L37.460,32.082L37.470,32.043L37.478,31.941L37.516,31.907L37.573,31.895L37.631,31.906L37.674,31.941L37.721,32.013L37.776,32.082L37.838,32.127L37.906,32.129L37.961,32.093L38.074,31.985L38.132,31.942L38.221,31.898L38.162,31.681L38.136,31.635L38.106,31.624L37.857,31.625L37.793,31.645L37.694,31.768L37.616,31.777L37.307,31.710L37.265,31.687L37.250,31.666L37.225,31.612L37.210,31.590L37.100,31.560L36.793,31.543L36.734,31.480L36.788,31.400L37.014,31.470L37.092,31.409L37.096,31.368L37.094,31.327L37.096,31.287L37.113,31.247L37.147,31.229L37.233,31.217L37.252,31.180L37.278,31.103L37.332,31.043L37.391,30.992L37.436,30.938L37.443,30.864L37.388,30.821L37.311,30.791L37.251,30.757L37.207,30.698L37.185,30.681L37.141,30.670L36.997,30.667L36.949,30.657L36.934,30.623L36.930,30.585L36.935,30.547L36.949,30.512L36.989,30.463L37.036,30.438L37.138,30.417L37.210,30.414L37.318,30.434L37.332,30.450L37.340,30.473L37.357,30.506L37.386,30.545L37.423,30.576L37.462,30.574L37.498,30.514L37.505,30.458L37.494,30.401L37.449,30.295L37.441,30.276L37.424,30.210L37.548,30.202L37.603,30.176L37.644,30.118L37.684,30.073L37.742,30.062L37.918,30.086L37.952,30.114L38.015,30.234L38.052,30.261L38.215,30.295L38.223,30.399L38.240,30.429L38.279,30.443L38.321,30.434L38.344,30.403L38.356,30.355L38.363,30.295L38.574,30.295L38.603,30.319L38.633,30.331L38.661,30.325L38.710,30.270L38.741,30.268L38.774,30.278L38.806,30.295L38.822,30.358L38.826,30.401L38.840,30.431L38.885,30.459L38.962,30.480L39.209,30.494L39.208,30.295L39.206,30.276L39.207,30.213L40.110,30.182L40.156,30.189L40.184,30.222L40.179,30.295L40.179,30.295L40.081,30.354L40.053,30.398L40.060,30.463L40.100,30.518L40.207,30.569L40.254,30.615L40.275,30.646L40.300,30.673L40.328,30.690L40.358,30.692L40.393,30.676L40.402,30.653L40.383,30.550L40.373,30.525L40.373,30.500L40.399,30.458L40.493,30.370L40.456,30.310L40.442,30.295L40.414,30.182L40.481,30.094L40.587,30.036L40.678,30.014L40.869,30.003L40.990,29.957L41.033,29.965L41.129,30.008L41.189,30.012L41.372,29.964L41.591,29.988L41.652,29.962L41.685,29.906L41.681,29.859L41.660,29.810L41.647,29.750L41.677,29.697L41.750,29.677L41.881,29.682L42.128,29.733L42.135,29.734L42.216,29.734L42.279,29.708L42.395,29.624L42.457,29.598L42.605,29.590L42.966,29.445L43.044,29.451L43.109,29.481L43.291,29.605L43.351,29.620L43.382,29.631L43.405,29.587L43.476,29.561L43.556,29.549L43.625,29.517L43.664,29.429L43.594,29.347L43.561,29.294L43.565,29.270L43.582,29.256L43.599,29.231L43.618,29.217L43.659,29.257L43.685,29.269L43.714,29.273L43.739,29.270L43.758,29.257L43.794,29.216L43.814,29.202L43.846,29.201L43.943,29.225L43.997,29.215L44.104,29.168L44.172,29.155L44.216,29.136L44.230,29.124L44.256,29.106L44.288,29.111L44.343,29.135L44.561,29.112L44.587,29.102L44.609,29.079L44.625,29.056L44.637,29.045L44.663,29.049L44.710,29.064L44.735,29.068L44.790,29.056L44.883,29.000L44.911,29.023L45.046,29.127L45.116,29.163L45.195,29.171L45.336,29.107L45.475,29.006L45.614,28.944L45.762,28.997L45.937,29.203L45.969,29.233L45.999,29.254L46.032,29.264L46.070,29.261L46.085,29.253L46.112,29.228L46.128,29.224L46.194,29.249L46.217,29.248L46.280,29.140L46.211,28.791L46.257,28.714L46.251,28.664L46.248,28.649L46.248,28.570L46.283,28.532L46.564,28.421L46.627,28.418L46.753,28.449L46.801,28.437L46.816,28.367L46.791,28.247L46.802,28.204L46.863,28.186L47.077,28.210L47.382,28.303L47.451,28.291L47.509,28.237L47.570,28.135L47.633,28.055L47.705,28.012L47.867,27.956L47.909,27.986L47.928,28.202L47.965,28.255L48.230,28.172L48.998,27.929L49.138,27.910L49.420,27.920L49.558,27.901L49.606,27.875L49.690,27.797L49.737,27.773L50.168,27.755L50.236,27.741L50.366,27.676L50.435,27.662L50.601,27.664L50.688,27.645L50.746,27.593L50.791,27.514L50.844,27.460L50.904,27.438L51.051,27.474L51.194,27.448L51.590,27.458L51.757,27.412L51.888,27.313L51.975,27.184L52.019,27.134L52.084,27.095L52.162,27.074L52.230,27.078L52.443,27.164L52.787,27.121L52.826,27.085L52.842,27.001L52.891,26.982L52.910,26.951L52.919,26.908L52.939,26.850L52.981,26.825L53.042,26.821L53.092,26.803L53.100,26.737L52.924,26.642L52.841,26.564L52.878,26.469L52.829,26.426L52.812,26.415L52.952,26.347L53.000,26.337L53.032,26.348L53.060,26.366L53.095,26.379L53.139,26.377L53.252,26.334L53.305,26.335L53.473,26.374L53.620,26.328L53.671,26.326L53.729,26.339L53.755,26.332L53.778,26.300L53.784,26.267L53.772,26.204L53.774,26.176L53.809,26.137L53.912,26.077L53.928,26.026L53.922,25.956L53.925,25.899L53.939,25.846L53.965,25.789L54.013,25.815L54.039,25.818L54.234,25.845L54.286,25.867L54.331,25.904L54.412,26.019L54.455,26.066L54.505,26.086L54.560,26.059L54.583,26.017L54.588,25.960L54.575,25.835L54.520,25.804L54.476,25.788L54.444,25.755L54.419,25.643L54.410,25.618L54.410,25.595L54.429,25.569L54.465,25.548L54.500,25.545L54.895,25.666L54.951,25.731L54.987,25.832L55.035,25.904L55.123,25.878L55.309,25.720L55.362,25.708L55.677,25.826L56.110,25.876L56.393,26.015L56.455,26.066L56.634,26.280L56.697,26.317L56.872,26.333L56.958,26.361L57.262,26.537L57.299,26.542L57.338,26.511L57.410,26.405L57.455,26.373L57.649,26.316L57.671,26.297L57.677,26.272L57.678,26.244L57.683,26.218L57.710,26.167L57.800,26.043L57.842,26.030L57.861,26.036L58.016,26.090L58.065,26.089L58.116,26.077L58.165,26.053L58.206,26.013L58.295,25.958L58.418,25.945L58.542,25.965L58.636,26.008L58.601,26.049L58.567,26.102L58.552,26.158L58.576,26.209L58.727,26.382L58.944,26.629L58.981,26.720L58.983,26.760L58.981,26.801L58.982,26.807L58.982,26.819L58.981,26.825L58.973,26.916L58.964,26.960L58.951,27.002L58.937,27.064L58.975,27.151L58.958,27.191L58.933,27.229L58.916,27.286L58.913,27.346L58.929,27.393L59.010,27.475L59.026,27.521L59.019,27.611L59.045,27.720L59.135,27.803L59.246,27.856L59.333,27.876L59.429,27.875L59.474,27.886L59.514,27.918L59.589,28.023L59.615,28.091L59.615,28.165L59.588,28.211L59.539,28.236L59.426,28.265L59.357,28.322L59.343,28.413L59.358,28.648L59.353,28.669L59.352,28.687L59.355,28.702L59.400,28.746L59.409,28.785L59.397,28.897L59.403,28.917L59.420,28.928L59.458,28.939L59.468,28.954L59.468,28.980L59.463,29.037L59.463,29.082L59.452,29.222L59.328,29.244L59.288,29.243L59.245,29.231L59.164,29.190L59.119,29.176L59.039,29.173L58.988,29.200L58.968,29.266L58.981,29.380L59.117,29.389L59.146,29.403L59.158,29.456L59.156,29.534L59.145,29.610L59.129,29.658L59.213,29.696L59.246,29.726L59.281,29.775L59.348,29.896L59.387,29.934L59.433,29.936L59.512,29.887L59.573,29.823L59.685,29.648L59.738,29.608L59.802,29.619L59.873,29.648L59.942,29.663L60.009,29.660L60.030,29.673L60.051,29.705L60.064,29.748L60.083,29.909L60.132,29.903L60.242,29.852L60.296,29.845L60.319,29.856L60.364,29.896L60.387,29.909L60.425,29.917L60.458,29.913L60.531,29.878L60.593,29.835L60.612,29.788L60.601,29.642L60.608,29.576L60.630,29.516L60.665,29.472L60.712,29.455L61.143,29.493L61.199,29.507L61.241,29.527L61.276,29.562L61.405,29.782L61.454,29.836L61.519,29.855L61.577,29.847L61.627,29.822L61.655,29.770L61.648,29.679L61.610,29.622L61.549,29.601L61.481,29.591L61.423,29.568L61.382,29.538L61.379,29.519L61.380,29.476L61.384,29.443L61.394,29.405L61.407,29.368L61.453,29.280L61.462,29.244L61.444,29.214L61.392,29.173L61.320,29.130L61.295,29.100L61.290,29.048L61.330,29.025L61.570,29.057L61.642,29.095L61.724,29.173L61.792,29.271L61.824,29.369L61.849,29.405L61.950,29.435L61.978,29.491L61.969,29.533L61.893,29.683L62.090,29.751L62.299,29.824L62.302,29.834L62.297,29.848L62.286,29.863L62.264,29.908L62.236,29.917L62.204,29.912L62.168,29.912L62.159,29.923L62.143,29.965L62.134,29.975L62.113,29.975L62.047,29.953L62.025,29.964L62.021,30.001L62.028,30.044L62.036,30.074L62.077,30.129L62.128,30.169L62.158,30.217L62.134,30.295L62.134,30.295L62.079,30.414L62.057,30.480L62.057,30.533L62.099,30.572L62.168,30.588L62.239,30.582L62.286,30.555L62.377,30.457L62.434,30.366L62.462,30.345L62.496,30.348L62.720,30.433L62.778,30.410L62.766,30.295L62.724,30.199L62.681,30.130L62.627,30.093L62.551,30.090L62.358,30.127L62.344,30.103L62.356,30.044L62.379,29.980L62.397,29.941L62.498,29.846L62.611,29.826L62.904,29.855L63.186,29.884L63.311,29.869L63.343,29.883L63.369,29.927L63.380,29.985L63.387,30.113L63.491,30.158L63.516,30.202L63.536,30.295L63.577,30.339L63.859,30.397L64.233,30.473L64.263,30.465L64.274,30.439L64.279,30.401L64.285,30.368L64.304,30.356L64.373,30.360L64.394,30.367L64.421,30.389L64.472,30.444L64.500,30.450L64.553,30.436L64.580,30.415L64.588,30.373L64.584,30.295L64.584,30.295L64.603,30.235L64.732,30.206L64.770,30.156L64.763,30.116L64.743,30.080L64.735,30.052L64.764,30.036L64.880,30.012L64.916,30.020L64.919,30.032L64.926,30.100L64.948,30.111L65.071,30.079L64.975,30.597L64.943,30.685L64.897,30.728L64.836,30.740L64.508,30.682L64.443,30.686L64.390,30.713L64.344,30.763L64.301,30.836L64.403,30.901L64.204,30.970L64.168,31.011L64.114,31.305L64.020,31.321L63.978,31.341L63.945,31.382L63.924,31.446L63.934,31.489L64.009,31.567L63.947,31.679L64.301,31.850L64.204,32.051L64.344,32.147L64.373,32.139L64.432,32.086L64.592,31.942L64.593,31.942L64.593,31.942L64.643,31.894L64.662,31.868L64.680,31.833L64.700,31.775L64.708,31.742L64.722,31.724L64.762,31.710L64.778,31.708L64.831,31.716L64.850,31.709L64.856,31.686L64.858,31.656L64.873,31.605L64.874,31.578L64.877,31.557L64.892,31.550L65.061,31.555L65.098,31.564L65.174,31.604L65.209,31.593L65.362,31.482L65.431,31.459L65.503,31.457L65.591,31.472L65.738,31.489L65.770,31.507L65.781,31.559L65.777,31.622L65.780,31.676L65.811,31.699L65.879,31.703L65.904,31.688L65.944,31.608L65.968,31.594L66.113,31.597L66.134,31.605L66.160,31.647L66.174,31.694L66.194,31.730L66.238,31.742L66.222,31.817L66.236,31.867L66.316,31.941L66.316,31.942L66.317,31.942L66.433,32.028L66.498,32.041L66.544,31.991L66.649,31.687L66.646,31.662L66.622,31.634L66.582,31.600L66.569,31.577L66.589,31.411L66.608,31.346L66.641,31.308L67.000,31.322L67.023,31.300L67.062,31.144L67.084,31.099L67.103,31.077L67.129,31.070L67.240,31.063L67.261,31.044L67.280,30.997L67.304,30.901L67.321,30.855L67.343,30.827L67.418,30.805L67.600,30.809L67.678,30.827L67.847,30.908L67.907,30.903L68.193,30.715L68.457,30.541L68.802,30.315L68.640,30.074L68.791,29.973L68.869,29.939L68.947,29.933L69.174,29.959L69.256,29.945L69.369,29.898L69.502,29.841L69.752,29.736L70.141,29.573L70.454,29.442L70.428,29.365L70.423,29.311L70.439,29.260L70.476,29.198L70.522,29.143L70.565,29.126L71.003,29.227L71.099,29.206L71.239,29.114L71.287,29.097L71.321,29.095L71.388,29.102L71.422,29.098L71.461,29.063L71.471,29.006L71.472,28.941L71.485,28.879L71.531,28.833L71.594,28.820L71.717,28.831L71.772,28.823L71.927,28.751L71.971,28.740L72.023,28.742L72.055,28.773L72.040,28.845L72.000,28.878L71.822,28.919L71.782,28.943L71.734,28.984L71.708,29.030L71.737,29.069L71.846,29.099L71.887,29.132L71.907,29.209L71.895,29.292L71.858,29.356L71.812,29.412L71.773,29.472L71.746,29.568L71.729,29.603L71.704,29.631L71.649,29.677L71.627,29.707L71.513,29.829L71.379,29.824L71.099,29.730L70.958,29.724L70.916,29.737L70.879,29.762L70.874,29.784L71.099,30.132L71.112,30.171L71.140,30.295L71.207,30.398L71.395,30.532L71.666,30.725L72.074,31.016L72.483,31.307L72.891,31.598L73.300,31.890L73.602,32.105L73.869,32.373L73.981,32.485L74.162,32.667L74.404,33.009L74.552,33.245L74.791,33.622L75.029,34.000L75.267,34.378L75.506,34.756L75.817,35.288L76.129,35.819L76.442,36.350L76.753,36.882L76.754,36.882L76.754,36.882L76.989,37.293L77.224,37.705L77.330,37.890L77.459,38.117L77.694,38.528L77.891,38.924L78.088,39.320L78.285,39.715L78.482,40.110L78.584,40.315L78.702,40.551L78.764,40.724L78.789,40.776L78.841,40.849L78.909,40.919L78.984,40.965L79.052,40.967L78.931,40.781L78.897,40.680L78.971,40.637L79.010,40.656L79.086,40.739L79.125,40.760L79.177,40.753L79.203,40.720L79.233,40.613L79.262,40.560L79.293,40.538L79.380,40.503L79.400,40.485L79.431,40.443L79.451,40.429L79.479,40.424L79.569,40.434L79.656,40.417L79.750,40.369L79.830,40.289L79.875,40.175L79.883,40.125L79.887,40.066L79.886,40.007L79.878,39.957L79.858,39.909L79.797,39.848L79.767,39.806L79.760,39.765L79.761,39.704L79.774,39.596L79.792,39.533L79.820,39.490L79.859,39.466L79.912,39.460L80.099,39.485L80.183,39.464L80.212,39.381L80.216,39.329L80.232,39.280L80.256,39.235L80.284,39.198L80.327,39.162L80.367,39.156L80.662,39.291L80.719,39.303L80.745,39.279L80.767,39.242L80.807,39.213L80.858,39.217L80.877,39.261L80.882,39.376L80.899,39.439L80.925,39.473L81.013,39.522L81.115,39.567L81.165,39.579L81.221,39.584L81.283,39.522L81.315,39.506L81.359,39.510L81.401,39.537L81.416,39.577L81.410,39.632L81.390,39.703L81.243,40.049L81.185,40.250L81.180,40.297L81.194,40.325L81.238,40.346L81.296,40.359L81.416,40.354L81.677,40.274L81.949,40.286L81.950,40.405L81.983,40.514L82.034,40.613L82.093,40.698L82.046,40.766L82.005,40.849L81.989,40.933L82.016,41.005L82.080,41.039L82.551,41.020L82.602,40.991L82.665,40.893L82.706,40.859L82.748,40.861L82.831,40.915L82.878,40.922L83.038,40.895L83.149,40.911L83.248,40.943L83.297,40.974L83.431,41.087L83.480,41.112L83.594,41.134L83.652,41.129L83.707,41.110L83.747,41.075L83.790,41.025L83.833,40.990L83.871,40.997L83.905,41.016L83.933,41.004L83.961,40.982L83.993,40.967L84.021,40.973L84.044,40.989L84.068,41.000L84.169,40.980L84.218,41.003L84.318,41.093L84.601,40.912L84.752,40.843L84.807,40.774L84.812,40.543L84.870,40.478L84.954,40.458L85.129,40.507L85.420,40.540L85.520,40.507L85.600,40.424L85.662,40.307L85.710,40.175L85.731,40.169L85.754,40.167L85.776,40.168L85.833,40.189L85.869,40.193L85.905,40.188L85.940,40.175L86.186,40.143L86.429,40.175L86.491,40.268L86.524,40.304L86.571,40.331L86.816,40.375L86.867,40.399L86.994,40.507L87.043,40.539L87.087,40.547L87.187,40.548L87.237,40.560L87.281,40.586L87.320,40.624L87.389,40.739L87.418,40.770L87.504,40.807L87.567,40.874L87.566,41.080L87.623,41.184L87.871,41.354L87.900,41.374L87.969,41.466L87.990,41.529L87.996,41.580L88.009,41.625L88.086,41.706L88.107,41.760L88.112,41.820L88.066,41.998L88.099,42.102L88.158,42.200L88.204,42.309L88.209,42.384L88.204,42.459L88.204,42.528L88.227,42.588L88.253,42.609L88.319,42.628L88.347,42.643L88.364,42.666L88.391,42.721L88.406,42.741L88.489,42.747L88.569,42.684L88.647,42.639L88.725,42.697L88.788,42.771L88.857,42.816L88.931,42.833L89.011,42.827L89.091,42.835L89.145,42.885L89.195,42.947L89.263,42.994L89.303,42.999L89.380,42.989L89.418,43.007L89.442,43.037L89.497,43.159L89.524,43.178L89.562,43.165L89.602,43.140L89.633,43.126L89.682,43.131L89.826,43.197L89.850,43.224L89.924,43.336L89.942,43.377L89.936,43.431L89.900,43.452L89.802,43.468L89.802,43.468L89.796,43.471L89.780,43.476L89.771,43.664L89.780,43.751L89.826,43.794L89.952,43.823L90.004,43.862L90.036,43.938L90.047,44.057L90.060,44.103L90.096,44.162L90.239,44.321L90.288,44.416L90.309,44.677L90.372,44.776L90.459,44.823L90.547,44.795L90.586,44.764L90.633,44.735L90.682,44.715L90.726,44.710L90.777,44.730L90.873,44.800L90.928,44.818L91.011,44.810L91.050,44.798L91.090,44.777L91.159,44.718L91.196,44.698L91.234,44.705L91.264,44.741L91.295,44.836L91.326,44.877L91.363,44.892L91.400,44.884L91.479,44.851L91.527,44.851L91.565,44.871L91.597,44.907L91.630,44.953L91.663,44.971L91.703,44.956L91.776,44.902L91.820,44.883L91.862,44.880L91.952,44.895L91.956,44.923L91.933,45.058L91.932,45.115L91.965,45.153L92.002,45.162L92.039,45.148L92.074,45.115L92.074,45.115L92.144,45.040L92.238,45.005L92.329,45.025L92.384,45.114L92.474,45.212L92.555,45.104L92.626,44.926L92.683,44.816L92.809,44.728L92.946,44.680L93.093,44.546L93.131,44.529L93.145,44.509L93.147,44.478L93.140,44.442L93.125,44.405L93.228,44.344L93.239,44.335L93.267,44.303L93.285,44.292L93.300,44.293L93.313,44.296L93.328,44.292L93.372,44.235L93.395,44.166L93.428,44.118L93.499,44.123L93.592,44.175L93.626,44.177L93.693,44.161L93.732,44.159L93.755,44.174L93.757,44.210L93.741,44.248L93.721,44.285L93.708,44.317L93.715,44.358L93.739,44.394L93.793,44.449L93.748,44.493L93.706,44.525L93.661,44.542L93.554,44.550L93.509,44.585L93.430,44.695L93.396,44.756L93.387,44.804L93.404,44.849L93.446,44.900L93.499,44.935L93.547,44.935L93.646,44.912L93.697,44.924L93.851,45.018L93.899,45.061L93.896,45.115L93.877,45.180L93.877,45.256L93.910,45.311L93.966,45.351L94.078,45.405L94.139,45.453L94.134,45.485L94.101,45.520L94.077,45.579L94.095,45.623L94.140,45.670L94.287,45.786L94.314,45.813L94.324,45.840L94.324,45.886L94.341,45.918L94.367,45.939L94.398,45.951L94.454,45.958L94.640,45.941L94.706,45.955L94.767,45.981L94.885,46.063L94.920,46.131L94.966,46.363L95.000,46.457ZM42.250,58.049L42.382,58.042L42.509,58.021L42.633,57.988L42.750,57.942L42.863,57.885L42.969,57.817L43.068,57.739L43.159,57.651L43.242,57.554L43.316,57.450L43.380,57.338L43.434,57.219L43.478,57.094L43.509,56.964L43.529,56.829L43.535,56.690L43.529,56.551L43.509,56.416L43.478,56.286L43.434,56.161L43.380,56.043L43.316,55.931L43.242,55.826L43.159,55.729L43.068,55.642L42.969,55.564L42.863,55.496L42.750,55.438L42.633,55.393L42.509,55.359L42.382,55.339L42.250,55.332L42.119,55.339L41.991,55.359L41.868,55.393L41.750,55.438L41.638,55.496L41.532,55.564L41.433,55.642L41.342,55.729L41.259,55.826L41.185,55.931L41.120,56.043L41.066,56.161L41.023,56.286L40.991,56.416L40.972,56.551L40.965,56.690L40.972,56.829L40.991,56.964L41.023,57.094L41.066,57.219L41.120,57.338L41.185,57.450L41.259,57.554L41.342,57.651L41.433,57.739L41.532,57.817L41.638,57.885L41.750,57.942L41.868,57.988L41.991,58.021L42.119,58.042L42.250,58.049ZM13.333,59.880L13.350,59.801L13.359,59.727L13.370,59.677L13.396,59.654L13.422,59.649L13.434,59.649L13.445,59.647L13.486,59.649L13.505,59.641L13.518,59.629L13.528,59.633L13.539,59.672L13.519,59.740L13.504,59.771L13.486,59.784L13.479,59.803L13.494,59.930L13.475,60.001L13.431,60.046L13.380,60.059L13.342,60.032L13.325,59.959L13.333,59.880ZM13.135,60.472L13.075,60.512L13.006,60.504L12.935,60.461L12.901,60.426L12.891,60.396L12.888,60.359L12.874,60.303L12.852,60.258L12.769,60.168L12.729,60.088L12.729,60.018L12.852,59.723L12.874,59.696L12.909,59.677L13.010,59.649L13.007,59.707L12.878,59.785L12.845,59.864L12.837,59.909L12.806,59.992L12.799,60.044L12.806,60.097L12.826,60.140L12.854,60.161L12.888,60.146L12.889,60.229L12.897,60.308L12.922,60.368L12.973,60.391L12.997,60.401L13.016,60.420L13.039,60.437L13.071,60.438L13.143,60.379L13.177,60.369L13.135,60.472ZM14.398,60.287L14.430,60.339L14.436,60.357L14.389,60.346L14.360,60.354L14.330,60.374L14.297,60.381L14.288,60.360L14.306,60.326L14.306,60.306L14.284,60.297L14.277,60.277L14.287,60.245L14.273,60.203L14.172,60.132L14.140,60.073L14.143,60.021L14.161,60.020L14.177,60.067L14.213,60.113L14.254,60.124L14.286,60.108L14.307,60.083L14.320,60.063L14.332,60.065L14.339,60.088L14.348,60.105L14.364,60.108L14.379,60.143L14.384,60.216L14.383,60.255L14.398,60.287ZM18.693,58.398L18.707,58.458L18.715,58.511L18.715,58.578L18.659,58.605L18.550,58.561L18.464,58.487L18.403,58.409L18.383,58.337L18.414,58.287L18.451,58.259L18.474,58.236L18.484,58.210L18.478,58.188L18.489,58.175L18.567,58.181L18.610,58.195L18.650,58.253L18.681,58.348L18.693,58.398ZM12.369,55.585L12.404,55.677L12.410,55.753L12.367,55.902L12.330,55.925L12.279,55.880L12.246,55.803L12.145,55.505L12.143,55.444L12.209,55.441L12.302,55.502L12.345,55.543L12.369,55.585Z" fill="currentColor" stroke="currentColor" stroke-width="1" stroke-linejoin="round"/>
</svg>