<svg xmlns="http://www.w3.org/2000/svg" viewBox="0 0 100 100" role="img" aria-label="Kenya">
  <title>Kenya</title>
  <path d="M29.772,8.810L29.773,8.805L29.825,8.419L30.083,8.238L30.445,8.264L30.471,8.805L31.169,8.808L31.765,8.811L31.783,8.971L31.906,9.189L31.916,9.368L31.888,9.554L31.885,9.711L31.947,9.842L32.113,9.946L32.472,10.260L32.670,10.389L32.882,10.439L32.919,10.439L34.273,10.428L34.592,10.384L34.690,10.384L34.781,10.408L34.949,10.490L35.069,10.506L36.792,10.472L38.242,10.442L38.323,10.460L38.460,10.542L38.515,10.555L38.538,10.561L40.324,10.545L40.877,10.698L41.537,11.030L41.915,11.117L42.005,11.185L42.151,11.430L42.219,11.475L42.405,11.461L42.474,11.483L42.535,11.566L42.571,11.656L42.619,11.862L42.649,11.911L42.697,11.922L42.752,11.921L42.807,11.935L43.309,12.257L44.213,12.838L45.116,13.419L46.174,14.098L46.925,14.581L47.775,15.128L48.732,15.744L49.615,16.311L50.539,16.905L50.825,17.089L50.997,17.260L51.233,17.638L51.376,17.807L51.495,17.873L51.772,17.958L51.985,18.143L52.098,18.162L52.391,18.090L52.681,18.067L53.665,18.178L54.656,18.290L55.175,18.245L55.647,18.039L55.659,17.986L55.651,17.903L55.670,17.826L55.760,17.790L55.808,17.811L55.984,17.956L56.058,18.045L56.077,18.118L56.113,18.172L56.242,18.205L56.363,18.218L56.414,18.212L56.545,18.160L56.562,18.191L56.572,18.241L56.621,18.273L57.162,18.312L57.160,18.249L57.173,18.119L57.169,18.057L57.420,18.388L57.565,18.535L57.734,18.628L58.649,18.875L59.340,19.062L59.582,19.058L59.971,18.983L60.126,19.004L60.265,19.056L60.409,19.054L60.941,18.941L61.030,18.963L61.150,19.018L61.985,19.401L62.346,19.478L62.699,19.469L63.059,19.262L63.118,19.228L63.240,19.235L63.283,19.331L63.198,19.502L64.355,19.537L64.641,19.633L64.721,19.737L64.770,19.862L64.840,19.986L64.988,20.084L65.284,20.068L65.440,19.825L65.642,19.207L65.882,18.920L66.490,18.365L67.219,17.699L67.396,17.466L67.550,17.180L67.808,16.497L67.990,16.012L68.177,15.783L68.972,15.399L69.770,15.015L70.668,14.581L71.088,14.373L71.130,14.318L71.124,14.261L71.132,14.224L71.221,14.232L71.249,14.248L71.277,14.256L71.303,14.254L72.242,13.927L72.973,13.673L73.023,13.626L73.077,13.476L73.130,13.427L74.328,12.967L75.307,12.591L76.078,12.295L76.663,11.911L76.867,12.181L77.425,12.559L77.653,12.819L77.809,13.106L77.905,13.200L78.073,13.286L78.516,13.437L78.665,13.526L78.908,13.749L79.503,14.581L79.915,14.902L80.364,15.084L80.849,15.140L81.796,15.086L82.835,15.026L83.301,14.896L83.546,14.883L84.289,14.699L84.436,14.709L84.682,14.811L84.814,14.836L84.948,14.805L85.341,14.581L85.782,14.725L86.190,14.940L86.603,15.021L87.058,14.764L86.282,15.876L85.504,16.989L84.727,18.102L83.949,19.215L83.470,19.901L82.989,20.587L82.510,21.272L82.030,21.958L81.270,22.713L80.507,23.467L79.744,24.221L78.982,24.975L78.665,25.289L78.532,25.546L78.537,26.043L78.548,27.237L78.561,28.485L78.561,29.173L78.561,30.160L78.561,31.147L78.561,32.133L78.561,33.120L78.561,34.279L78.561,35.438L78.561,36.597L78.561,37.756L78.561,38.914L78.561,40.073L78.561,40.230L78.561,41.232L78.561,42.391L78.561,43.549L78.561,44.708L78.561,45.866L78.561,47.025L78.561,48.184L78.561,49.343L78.561,50.502L78.561,51.661L78.571,52.421L78.579,53.047L78.586,53.672L78.599,54.679L78.613,55.684L78.626,56.690L78.639,57.698L78.648,58.351L78.657,59.004L78.665,59.709L78.902,60.014L79.137,60.320L79.373,60.625L79.609,60.930L80.068,61.523L80.542,62.137L81.053,62.797L81.477,63.343L81.933,63.932L82.411,64.550L82.878,65.153L83.345,65.757L83.700,66.217L83.813,66.421L83.846,66.596L83.822,67.176L83.814,67.362L83.808,67.367L83.102,68.090L82.769,68.599L82.725,68.761L82.524,68.885L81.997,69.365L81.666,69.771L81.474,69.885L81.332,69.710L81.159,69.781L80.999,69.765L80.892,69.658L80.883,69.458L80.698,69.650L80.662,69.872L80.576,70.086L80.308,70.061L79.946,69.976L79.865,69.970L79.751,70.041L79.567,70.243L79.316,70.349L79.220,70.474L79.119,70.578L78.973,70.571L78.851,70.507L78.763,70.445L78.701,70.356L78.663,70.223L78.670,70.086L78.761,69.830L78.755,69.717L78.732,69.588L78.770,69.474L78.910,69.267L78.582,69.519L78.544,70.609L78.346,70.856L78.174,70.727L78.002,70.156L77.833,70.027L77.737,69.972L77.651,69.873L77.565,69.839L77.454,69.970L77.515,70.109L77.542,70.231L77.518,70.349L77.669,70.283L77.788,70.315L77.869,70.419L77.896,70.571L77.877,70.632L77.791,70.682L77.770,70.735L77.801,70.824L77.869,70.845L77.936,70.860L77.966,70.922L77.982,71.598L78.037,71.957L78.156,72.191L78.239,72.214L78.340,72.202L78.453,72.207L78.570,72.288L78.661,72.422L78.674,72.523L78.570,72.764L78.342,73.045L78.136,73.086L78.106,72.981L78.410,72.829L78.250,72.772L78.121,72.686L77.896,72.449L77.862,72.375L77.874,72.328L77.868,72.293L77.770,72.255L77.782,72.276L77.719,72.298L77.583,72.322L77.352,72.449L77.144,72.698L76.950,72.870L76.757,72.766L76.763,72.845L76.787,72.929L76.837,72.998L76.913,73.026L76.958,73.051L76.941,73.112L76.878,73.212L76.938,73.348L77.201,73.522L77.264,73.652L77.156,73.866L76.900,74.117L76.611,74.325L76.181,74.503L75.613,75.177L75.292,75.300L75.008,75.238L74.732,75.113L74.437,75.045L74.133,75.077L73.196,75.372L72.811,75.648L72.578,75.722L72.305,75.892L71.843,76.265L71.734,76.380L71.653,76.510L71.481,76.897L71.204,77.248L71.164,77.404L71.183,77.475L71.321,77.659L71.331,77.720L71.296,77.862L71.286,77.942L71.111,78.535L71.090,78.839L71.286,78.987L71.238,79.230L71.350,79.337L71.541,79.319L71.734,79.176L71.742,79.280L71.669,79.390L71.345,79.699L71.151,79.958L71.101,80.069L71.061,80.540L71.002,80.701L70.687,81.150L70.680,81.274L70.780,81.611L70.779,81.783L70.722,81.927L70.639,82.059L70.531,82.176L70.399,82.263L69.951,82.467L69.829,82.548L69.606,82.809L69.481,82.908L69.318,82.935L69.390,82.777L69.490,82.423L69.508,82.295L69.341,82.336L69.268,82.426L69.252,82.547L69.254,82.677L69.245,82.763L69.191,82.992L69.208,83.043L69.243,83.094L69.259,83.149L69.096,83.416L68.908,83.911L68.660,84.308L68.564,84.841L68.457,85.058L68.340,85.163L68.259,85.180L68.058,85.092L68.014,85.065L67.892,84.925L67.849,84.916L67.602,84.896L67.640,84.815L67.647,84.778L67.551,84.701L67.479,84.871L67.505,85.012L67.616,85.095L67.803,85.092L67.692,85.224L67.729,85.332L67.860,85.375L68.182,85.244L68.285,85.319L68.344,85.461L68.368,85.598L68.350,85.891L67.602,87.951L67.364,88.180L67.099,88.222L66.912,88.082L66.913,87.768L66.708,87.881L66.651,87.951L66.684,88.044L66.746,88.137L66.778,88.225L66.820,88.309L66.913,88.395L67.118,88.379L67.221,88.429L67.194,88.589L66.999,88.804L66.970,88.870L66.945,88.952L66.878,89.067L66.796,89.168L66.715,89.212L66.626,89.163L66.565,88.951L66.492,88.902L66.429,88.789L66.448,88.577L66.435,88.448L66.273,88.585L66.035,88.454L65.927,88.438L65.825,88.521L65.917,88.610L66.027,88.653L66.273,88.712L66.204,88.877L66.116,88.955L65.825,89.022L65.730,89.024L65.626,89.014L65.542,89.024L65.508,89.088L65.515,89.284L65.533,89.376L65.572,89.471L65.706,89.290L66.014,89.269L66.338,89.364L66.520,89.535L66.485,89.758L66.021,90.553L65.724,91.309L65.421,92.447L65.318,92.709L65.235,92.589L65.155,92.596L65.077,92.676L65.003,92.780L64.988,92.831L64.997,92.946L64.967,92.998L64.835,93.118L64.807,93.159L64.490,94.114L64.431,93.942L64.460,93.672L64.426,93.539L64.307,93.632L64.241,93.761L64.185,93.906L64.110,94.045L64.064,94.040L63.999,94.004L63.940,94.013L63.915,94.144L63.933,94.221L64.078,94.422L63.984,94.550L63.672,94.596L63.319,94.510L63.097,94.235L63.089,94.289L63.034,94.425L62.762,94.343L62.561,94.535L62.392,94.799L62.211,94.931L62.172,94.944L62.139,94.947L62.109,94.961L62.079,95.000L61.292,94.433L60.500,93.863L59.709,93.293L58.918,92.723L58.126,92.154L57.334,91.584L56.543,91.014L55.753,90.445L54.960,89.876L54.899,89.831L54.170,89.306L53.378,88.736L52.587,88.166L51.797,87.597L51.004,87.027L50.214,86.457L49.422,85.887L48.917,85.525L48.790,85.358L48.697,85.168L48.536,84.597L48.466,84.454L48.337,84.335L48.161,84.251L47.966,84.199L47.767,84.182L47.324,84.208L47.297,84.081L47.371,83.900L47.408,83.746L47.361,83.673L47.209,83.654L47.142,83.586L47.127,83.488L47.151,83.380L47.195,83.277L47.242,83.194L47.378,83.045L47.584,82.881L47.805,82.763L47.980,82.750L47.967,82.584L47.999,82.455L48.091,82.375L48.260,82.363L48.074,81.230L48.054,81.107L47.890,80.102L47.748,79.874L46.983,79.447L45.703,78.732L44.993,78.335L43.002,77.224L41.011,76.113L39.021,75.002L37.031,73.891L35.040,72.781L33.051,71.670L31.061,70.558L29.071,69.447L27.082,68.335L25.512,67.459L25.092,67.225L23.101,66.113L21.110,65.003L20.622,64.730L19.120,63.891L17.129,62.781L15.139,61.669L14.445,61.281L14.101,61.254L13.976,61.173L13.958,60.930L13.814,60.926L13.776,60.930L13.070,60.930L13.017,59.044L12.982,57.780L13.136,56.450L13.356,54.538L13.527,53.067L13.517,52.708L13.231,51.756L12.942,50.801L12.971,50.618L13.510,49.899L13.589,49.794L14.334,48.800L14.668,48.541L14.747,48.419L14.773,48.230L14.669,47.892L14.659,47.721L14.700,47.637L14.860,47.447L14.926,47.350L14.954,47.272L15.178,46.357L15.185,46.325L15.344,46.040L15.618,45.852L15.995,45.716L16.295,45.563L16.518,45.324L16.667,44.926L16.704,44.713L16.724,44.597L16.801,44.515L17.396,44.217L17.555,44.072L17.688,43.699L17.955,43.352L18.196,42.758L18.250,42.568L18.256,42.152L18.304,41.955L18.382,41.766L18.473,41.600L18.662,41.414L18.816,41.450L18.967,41.536L19.150,41.501L19.161,41.499L19.213,41.410L19.260,41.329L19.276,41.120L19.339,40.951L19.788,40.848L20.104,40.544L20.297,40.427L21.060,40.349L21.355,40.215L21.472,39.838L21.375,39.469L21.214,39.092L21.196,38.918L21.179,38.763L21.730,38.312L21.926,37.563L22.140,37.245L22.232,37.199L22.427,37.159L22.519,37.117L22.614,37.028L22.681,36.923L22.975,36.300L23.031,36.098L23.040,34.296L23.080,34.184L23.254,33.964L23.288,33.865L23.241,33.762L23.024,33.558L22.942,33.462L22.876,33.300L22.838,33.114L22.827,32.922L22.841,32.742L22.928,32.329L22.927,32.149L22.508,31.141L22.341,30.737L21.982,29.872L21.922,29.508L22.003,29.279L22.171,29.150L22.358,29.044L22.495,28.879L22.520,28.669L22.435,28.511L22.182,28.251L22.128,28.074L22.075,27.613L21.982,27.487L21.898,27.499L21.837,27.577L21.762,27.645L21.635,27.636L21.547,27.550L21.156,26.738L21.016,25.932L20.827,25.348L20.789,25.266L20.726,25.187L20.677,25.175L20.415,25.049L20.398,25.025L20.379,25.008L20.364,24.976L20.344,24.944L20.309,24.927L20.286,24.942L20.244,25.014L20.221,25.030L20.183,25.049L20.080,25.134L20.022,25.153L19.896,25.120L19.811,25.033L19.672,24.811L19.378,24.484L19.285,24.323L19.016,22.920L19.015,22.919L18.907,22.725L18.712,22.596L18.275,22.471L18.082,22.348L17.981,22.136L17.889,20.997L17.769,20.628L17.701,20.528L17.614,20.433L17.541,20.334L17.517,20.223L17.545,20.118L17.638,19.891L17.652,19.803L17.614,19.701L17.500,19.503L17.492,19.402L17.544,19.321L17.629,19.284L17.723,19.259L17.810,19.215L17.986,18.945L18.073,18.573L18.096,17.828L18.034,17.633L17.898,17.545L17.724,17.492L17.550,17.401L17.249,17.080L17.082,17.013L16.830,17.086L16.734,17.177L16.693,17.266L16.650,17.304L16.543,17.244L16.403,16.870L16.197,16.604L16.191,16.558L16.094,16.567L15.910,16.619L15.728,16.631L15.568,16.672L15.489,16.677L15.371,16.632L15.432,16.561L15.617,16.443L15.501,16.302L15.356,16.247L15.339,16.196L15.781,15.967L15.882,15.842L15.858,15.716L15.653,15.608L15.473,15.607L15.105,15.739L14.959,15.767L14.744,15.690L14.757,15.529L14.875,15.315L14.973,15.078L14.950,14.928L14.843,14.821L14.707,14.731L14.597,14.628L14.524,14.480L14.528,14.386L14.568,14.298L14.605,14.169L14.631,13.953L14.629,13.844L14.600,13.736L14.522,13.632L14.419,13.538L14.337,13.436L14.326,13.310L14.338,13.024L14.222,12.809L14.013,12.645L13.745,12.516L14.682,11.587L15.618,10.660L16.554,9.731L17.492,8.803L18.219,8.428L18.863,8.096L19.503,7.776L20.135,7.460L21.037,7.132L21.789,6.849L22.494,6.584L23.254,6.298L24.103,5.979L24.862,5.694L25.506,5.451L25.670,5.759L26.321,5.400L27.044,5.000L27.249,5.246L26.901,5.964L27.823,5.964L28.520,6.169L28.069,7.317L28.444,7.997L28.885,8.797L28.889,8.804L28.903,8.809L29.721,9.091L29.772,8.811L29.772,8.810ZM79.353,70.637L79.462,70.514L79.713,70.530L79.991,70.620L80.182,70.729L80.362,71.020L80.293,71.216L80.122,71.248L79.997,71.046L80.005,71.148L79.992,71.252L79.955,71.330L79.897,71.361L79.869,71.373L79.852,71.397L79.825,71.420L79.770,71.432L79.706,71.410L79.654,71.367L79.621,71.324L79.611,71.304L79.489,71.322L79.324,71.378L78.978,71.557L78.894,71.496L78.812,71.511L78.751,71.589L78.725,71.716L78.775,71.788L78.874,71.847L78.945,71.913L78.910,72.007L78.794,72.006L78.722,71.951L78.681,71.861L78.663,71.748L78.457,71.791L78.458,71.580L78.568,71.288L78.695,71.080L78.864,70.986L79.082,70.921L79.272,70.824L79.353,70.637Z" fill="currentColor" stroke="currentColor" stroke-width="1.5" stroke-linejoin="round"/>
</svg>