<svg xmlns="http://www.w3.org/2000/svg" viewBox="0 0 100 100" role="img" aria-label="Kyrgyzstan">
  <title>Kyrgyzstan</title>
  <path d="M94.615,39.542L94.665,39.706L94.692,40.059L94.731,40.236L94.817,40.395L94.917,40.531L94.992,40.683L95.000,40.890L94.785,41.233L94.383,41.371L92.335,41.346L91.916,41.455L91.617,41.578L91.485,41.682L91.372,41.841L91.298,42.032L91.206,42.436L91.130,42.628L90.839,42.903L90.475,42.955L90.090,42.945L89.725,43.034L89.265,43.360L88.737,43.559L88.093,44.000L87.929,44.064L87.737,44.067L87.221,43.903L87.043,43.947L86.901,44.044L86.515,44.405L86.338,44.532L86.164,44.607L85.784,44.697L85.464,44.825L84.546,45.484L84.053,45.577L83.903,45.652L83.168,46.171L82.065,46.605L81.952,46.670L81.844,46.765L81.782,46.882L81.714,47.153L81.633,47.260L81.346,47.391L80.745,47.516L79.988,48.102L79.663,48.252L79.518,48.351L79.384,48.519L79.350,48.714L79.493,49.131L79.516,49.328L79.433,49.513L79.286,49.639L78.960,49.834L78.828,49.963L78.624,50.270L78.469,50.571L78.249,50.995L78.136,51.168L78.018,51.301L77.193,52.017L77.048,52.073L76.879,52.054L76.562,51.906L75.494,51.751L75.203,51.763L74.930,51.852L73.853,52.432L73.728,52.477L73.577,52.491L73.161,52.471L72.531,52.651L72.297,52.641L72.055,52.514L71.595,52.319L71.139,52.222L70.880,52.236L70.407,52.384L69.392,52.319L69.145,52.234L68.708,52.008L68.486,51.966L67.608,52.166L67.288,52.303L67.076,52.516L66.961,52.686L66.660,52.911L66.520,53.046L66.444,53.251L66.472,53.459L66.533,53.671L66.553,53.887L66.485,54.105L66.358,54.241L66.035,54.424L65.765,54.665L65.550,54.997L65.411,55.387L65.357,56.486L65.329,56.662L65.236,56.816L64.804,57.157L64.598,57.490L64.335,58.253L64.152,58.562L63.928,58.786L63.217,59.259L62.958,59.517L62.822,59.569L62.706,59.435L62.576,58.767L62.495,58.584L62.256,58.507L62.022,58.775L61.774,59.126L61.499,59.300L61.345,59.263L61.041,59.091L60.885,59.042L60.685,59.061L59.958,59.417L59.850,59.572L59.759,59.755L59.624,59.940L59.463,60.051L59.289,60.090L59.110,60.079L58.581,59.942L58.404,59.929L58.229,59.949L57.853,60.113L57.668,60.129L57.530,59.977L57.460,59.789L57.328,59.309L57.313,59.105L57.379,58.896L57.487,58.747L57.566,58.603L57.547,58.409L57.468,58.292L57.237,58.072L57.147,57.935L57.089,57.730L57.047,57.117L56.900,56.655L56.673,56.428L56.379,56.425L56.037,56.632L54.253,58.085L54.172,58.130L54.076,58.151L53.976,58.191L53.933,58.277L53.902,58.380L53.839,58.469L53.687,58.507L53.536,58.432L53.383,58.323L53.232,58.261L53.029,58.295L52.631,58.479L52.424,58.508L52.125,58.441L51.829,58.311L51.120,57.814L50.934,57.726L50.762,57.743L50.737,57.781L50.637,57.935L50.605,58.047L50.597,58.085L50.531,58.284L50.430,58.512L50.371,58.729L50.430,58.894L50.814,59.257L50.913,59.401L50.981,59.755L50.726,59.823L50.039,59.643L49.859,59.632L49.705,59.700L49.286,60.131L49.149,60.234L48.831,60.406L48.560,60.614L47.835,61.423L46.964,62.145L46.670,62.277L46.418,62.316L46.168,62.275L45.888,62.166L45.604,62.102L45.314,62.139L45.031,62.259L44.773,62.438L44.514,62.558L43.979,62.634L43.757,62.820L43.672,62.932L43.603,63.061L43.556,63.204L43.537,63.362L43.490,63.618L43.354,63.800L43.193,63.967L43.075,64.181L43.012,64.633L42.973,64.758L42.910,64.846L42.675,65.050L42.576,65.205L42.503,65.401L42.467,65.614L42.477,65.824L42.556,66.038L42.667,66.110L42.804,66.144L42.963,66.245L43.078,66.435L43.128,66.662L43.166,67.128L43.350,67.709L43.307,67.826L43.125,67.941L42.993,68.053L42.890,68.209L42.798,68.454L42.707,68.828L42.628,68.981L42.484,69.062L40.950,69.277L40.719,69.155L39.967,69.071L39.679,69.099L38.788,69.327L38.588,69.469L38.525,69.637L38.508,69.790L38.451,69.901L37.986,69.991L37.158,70.286L36.898,70.307L36.612,70.223L36.469,70.151L36.369,70.119L36.265,70.140L35.864,70.359L35.742,70.368L35.599,70.320L35.089,70.206L34.921,70.193L34.568,70.271L34.444,70.277L32.937,69.869L32.800,69.861L32.658,69.906L32.575,69.981L32.419,70.183L32.327,70.243L32.194,70.240L31.987,70.102L31.864,70.065L31.775,70.106L31.519,70.386L31.386,70.408L31.249,70.401L30.980,70.330L30.838,70.335L30.533,70.495L30.356,70.520L30.211,70.574L30.112,70.739L29.926,71.323L29.590,72.081L29.497,72.088L29.495,72.085L29.413,71.962L29.336,71.784L29.314,71.680L29.313,71.596L29.288,71.529L29.118,71.436L28.993,71.334L28.924,71.292L28.572,71.232L28.403,71.157L28.329,70.994L28.316,70.765L28.267,70.489L28.176,70.252L28.036,70.139L27.887,70.163L27.601,70.324L27.296,70.389L27.159,70.463L26.353,71.049L26.055,71.181L25.757,71.217L25.600,71.166L25.451,71.048L25.332,70.875L25.271,70.659L25.288,70.436L25.371,70.301L25.481,70.186L25.575,70.023L25.605,69.805L25.584,69.525L25.510,69.277L25.381,69.157L25.220,69.162L24.389,69.342L23.993,69.323L23.655,69.164L23.486,68.786L23.555,68.617L23.762,68.303L23.806,68.141L23.757,67.967L23.639,67.804L23.629,67.795L23.493,67.673L23.220,67.501L23.071,67.517L22.789,67.652L22.557,67.695L22.478,67.725L22.421,67.767L22.309,67.890L22.250,67.939L21.967,68.097L21.853,68.186L21.593,68.493L21.505,68.561L21.404,68.560L20.939,68.467L20.592,68.488L20.253,68.583L19.984,68.764L19.816,69.065L19.696,69.420L19.547,69.719L19.285,69.857L19.061,69.794L18.860,69.661L18.682,69.576L18.529,69.651L18.429,69.770L18.363,69.795L18.290,69.783L18.166,69.786L18.068,69.817L17.820,69.961L17.596,69.996L17.348,69.951L17.132,69.819L17.008,69.596L17.012,69.461L17.048,69.317L17.068,69.167L17.021,69.019L16.943,68.943L16.752,68.859L16.664,68.785L16.664,68.783L16.661,68.775L16.501,68.256L16.388,68.028L16.190,67.873L16.047,67.854L15.747,67.911L15.605,67.897L15.502,67.833L15.318,67.666L15.206,67.619L15.065,67.637L14.801,67.740L14.666,67.768L14.588,67.797L14.538,67.855L14.498,67.914L14.448,67.948L14.366,67.947L14.196,67.893L14.112,67.883L14.007,67.924L13.279,68.474L13.134,68.510L12.993,68.456L12.980,68.303L13.067,67.914L13.065,67.729L13.028,67.527L12.949,67.421L12.823,67.520L12.596,68.024L12.528,68.128L12.393,68.174L12.261,68.124L11.987,67.960L11.820,67.920L11.642,67.919L11.473,67.973L11.335,68.100L11.207,68.287L11.139,68.343L10.893,68.228L10.560,68.191L9.929,68.324L9.612,68.225L9.271,68.025L8.949,67.914L8.615,67.873L7.904,67.919L7.763,67.978L7.490,68.222L7.350,68.309L7.201,68.364L7.048,68.387L6.868,68.387L6.517,68.445L6.347,68.386L6.150,68.175L6.104,68.143L6.026,68.179L5.996,68.249L5.976,68.333L5.925,68.412L5.604,68.548L5.489,68.286L5.529,66.994L5.500,66.788L5.439,66.610L5.323,66.463L5.180,66.337L5.057,66.193L5.000,65.994L5.027,65.565L5.118,65.149L5.491,63.990L5.648,63.634L5.683,63.525L5.686,63.458L5.715,63.435L5.828,63.459L6.069,63.733L6.461,64.420L7.246,64.134L7.237,63.991L7.048,63.639L7.054,63.564L7.048,63.493L7.030,63.426L6.998,63.362L6.932,63.018L6.985,62.740L7.116,62.493L7.285,62.242L7.308,62.171L7.343,61.984L7.380,61.936L7.446,61.957L7.532,62.123L7.584,62.175L7.713,62.190L7.849,62.169L11.064,60.998L11.350,61.029L12.513,61.807L12.690,61.865L13.095,61.838L13.283,61.853L13.462,61.945L13.579,62.078L13.681,62.228L13.811,62.373L13.958,62.453L14.245,62.490L14.557,62.629L15.206,62.729L15.409,62.794L15.600,62.928L15.682,63.120L15.563,63.361L15.433,63.455L15.298,63.526L15.173,63.617L15.067,63.769L14.991,63.972L14.968,64.161L15.030,64.304L15.206,64.368L15.277,64.274L15.344,64.034L15.399,63.938L15.494,63.888L15.841,63.876L16.017,63.811L16.180,63.706L16.321,63.556L16.431,63.360L16.501,62.984L16.491,62.650L16.529,62.372L16.746,62.163L17.267,61.984L17.378,61.914L17.697,61.638L17.747,61.569L17.775,61.543L17.821,61.537L17.861,61.556L17.889,61.583L17.894,61.599L18.042,61.519L18.099,61.469L18.208,61.430L18.643,61.529L18.894,61.442L19.168,61.236L19.304,60.971L19.136,60.708L19.431,60.401L19.905,60.318L20.853,60.458L21.111,60.431L21.226,60.248L21.298,60.008L21.425,59.810L21.542,59.774L21.624,59.841L21.697,59.955L21.782,60.056L21.895,60.106L22.029,60.118L22.285,60.091L22.450,60.103L22.706,60.348L23.072,60.463L23.150,60.593L23.215,60.753L23.364,60.898L23.537,61.010L23.724,61.083L24.107,61.161L24.309,61.141L24.380,61.016L24.399,60.828L24.449,60.621L24.597,60.485L24.741,60.613L24.857,60.858L24.914,61.079L24.912,61.524L24.962,61.689L25.128,61.762L25.241,61.728L25.670,61.470L25.801,61.342L25.890,61.194L26.042,60.849L26.295,60.590L26.593,60.573L26.914,60.653L27.236,60.680L27.331,60.649L27.378,60.642L27.442,60.657L27.540,60.697L27.669,60.719L27.784,60.690L27.837,60.572L27.791,60.487L27.738,60.450L27.678,60.410L27.442,60.298L27.289,60.185L27.231,60.023L27.276,59.869L27.982,59.504L28.198,59.286L28.316,58.983L28.365,58.780L28.440,58.668L28.983,58.364L29.120,58.327L29.492,58.308L29.554,58.304L29.704,58.322L29.779,58.383L29.780,58.385L29.748,58.494L29.630,58.534L29.490,58.547L29.396,58.575L29.357,58.674L29.356,58.677L29.460,58.711L29.829,58.693L29.949,58.739L30.431,59.026L30.652,59.110L30.845,59.069L31.011,58.838L31.098,58.564L31.107,58.311L31.106,58.308L31.056,58.184L31.021,58.094L31.020,58.094L30.667,57.834L30.595,57.736L30.595,57.735L30.593,57.614L30.648,57.437L30.649,57.243L30.648,57.241L30.473,56.943L30.473,56.942L30.501,56.763L30.743,56.653L31.014,56.895L31.284,57.214L31.519,57.332L31.834,57.374L32.409,57.775L32.733,57.756L32.858,57.654L32.937,57.521L32.975,57.367L32.986,57.206L33.049,57.026L33.197,57.027L33.497,57.166L33.735,57.055L33.830,56.332L34.025,56.029L34.311,55.905L34.899,55.753L35.599,55.309L36.364,55.022L36.751,54.800L37.001,54.467L36.958,54.248L36.957,54.248L36.890,54.233L36.706,54.190L36.225,54.221L36.060,54.103L35.947,53.944L35.816,53.854L35.212,54.136L34.835,54.402L34.730,54.418L34.752,54.238L34.717,53.920L34.402,53.833L33.351,53.929L33.000,53.887L32.684,53.746L32.431,53.467L32.081,52.917L31.923,52.856L31.721,52.842L31.573,52.765L31.575,52.516L31.588,52.450L31.584,52.395L31.561,52.350L31.519,52.318L31.085,52.275L30.854,52.207L30.684,52.099L30.450,51.730L30.341,51.656L30.192,51.777L30.149,51.855L30.055,52.140L29.994,52.190L29.694,52.233L29.225,52.377L28.977,52.453L29.088,52.194L29.144,52.000L29.144,51.788L29.069,51.221L29.054,50.912L29.016,50.616L28.922,50.408L28.714,50.284L28.515,50.315L28.325,50.440L28.149,50.600L27.905,50.747L27.764,50.672L27.640,50.493L27.442,50.328L26.795,50.440L26.582,50.336L26.539,49.879L26.559,49.417L26.512,49.059L26.381,48.738L25.616,47.594L25.551,47.534L25.483,47.506L25.430,47.552L25.424,47.780L25.359,47.838L25.282,47.803L25.238,47.629L25.150,47.592L25.112,47.652L25.079,47.770L25.031,47.859L24.953,47.830L24.946,47.699L25.096,47.089L25.096,46.863L25.053,46.653L24.949,46.508L24.770,46.481L24.590,46.553L24.491,46.673L24.329,47.090L24.330,47.090L24.330,47.093L24.412,47.273L24.641,47.569L24.671,47.768L24.636,47.984L24.520,48.348L24.248,48.936L24.023,49.173L23.745,49.228L23.392,49.075L22.999,48.705L22.888,48.677L22.837,48.815L22.910,50.688L22.866,51.064L22.683,51.223L22.124,50.739L21.920,51.003L21.833,51.211L21.724,51.218L21.620,51.106L21.542,50.954L21.441,50.546L21.349,50.415L21.155,50.398L20.986,50.491L20.964,50.641L21.004,50.836L21.021,51.063L20.941,51.273L20.812,51.185L20.606,50.836L20.475,50.730L20.171,50.688L20.022,50.605L19.855,50.471L19.672,50.387L19.285,50.316L18.934,50.369L18.771,50.352L18.622,50.210L18.510,50.054L18.376,49.916L18.229,49.809L18.072,49.744L17.888,49.761L17.730,49.838L17.598,49.858L17.497,49.710L17.483,49.521L17.603,48.855L17.588,48.626L17.510,48.405L17.053,47.613L16.915,47.429L16.761,47.333L16.483,47.375L15.484,47.950L15.206,48.056L15.153,48.054L15.010,48.047L14.886,47.932L14.687,47.557L14.568,47.402L14.431,47.278L14.127,47.093L14.125,47.091L14.123,47.090L14.122,47.089L12.972,46.961L12.671,46.803L12.522,46.453L12.694,46.172L14.014,45.399L14.501,45.015L14.767,44.886L15.014,44.722L15.206,44.436L15.445,43.924L15.800,43.507L16.607,42.820L16.858,42.671L17.671,42.578L17.954,42.471L18.044,42.289L18.068,41.666L18.210,41.269L18.547,41.181L18.948,41.198L19.285,41.119L20.437,40.265L21.111,40.071L21.415,39.860L21.537,39.455L21.510,39.446L21.248,39.360L20.104,38.548L19.844,38.442L19.586,38.477L19.223,38.740L19.045,38.907L18.807,38.850L18.637,38.761L18.314,38.441L18.269,38.278L18.368,38.110L18.564,37.926L18.658,37.837L18.922,37.517L18.980,37.391L18.960,37.316L18.914,37.243L18.899,37.126L18.950,36.916L19.043,36.703L19.161,36.521L19.285,36.405L19.673,36.652L19.806,36.665L19.917,36.604L19.995,36.496L20.012,36.368L19.943,36.246L19.941,36.246L19.941,36.245L19.941,36.244L19.656,35.996L19.575,35.892L19.497,35.485L19.803,35.301L20.507,35.192L20.636,35.062L20.679,34.901L20.666,34.473L20.687,34.244L20.756,34.136L21.064,34.035L21.196,33.948L21.297,33.810L21.474,33.494L21.613,33.424L21.794,33.480L21.988,33.570L22.162,33.603L22.307,33.540L22.433,33.418L22.541,33.264L22.628,33.104L22.772,32.976L22.970,32.968L23.364,33.099L23.499,33.041L23.585,33.033L23.667,33.075L23.989,33.344L24.091,33.384L24.232,33.358L25.129,32.792L25.397,32.707L25.971,32.678L26.254,32.578L26.387,32.551L26.514,32.605L26.641,32.689L26.776,32.746L27.279,32.870L28.223,33.385L28.485,33.459L28.608,33.443L28.844,33.333L28.968,33.299L30.015,33.343L30.554,33.556L31.519,34.194L31.805,34.249L32.393,34.241L33.551,34.516L33.805,34.654L33.998,34.868L34.281,35.382L34.489,35.570L34.765,35.697L35.040,35.774L35.318,35.784L36.364,35.611L36.727,35.623L37.034,35.749L37.197,35.873L37.331,35.949L37.476,35.988L38.059,36.029L38.247,36.098L38.371,36.243L38.345,36.574L38.353,36.808L38.450,36.948L39.194,37.074L39.679,37.269L39.909,37.227L39.913,37.032L39.909,37.025L39.321,35.905L39.195,35.565L39.133,35.202L39.155,34.793L39.246,34.409L39.679,33.453L39.897,32.985L39.925,32.818L39.902,32.621L39.802,32.259L39.782,32.076L39.811,31.890L39.877,31.734L40.045,31.443L40.354,30.563L40.446,30.405L40.575,30.292L40.962,30.073L42.360,29.506L42.501,29.478L42.839,29.491L43.145,29.330L43.417,28.584L43.664,28.398L43.828,28.455L44.122,28.730L44.272,28.778L45.557,28.627L45.692,28.553L45.714,28.398L45.628,28.211L45.405,27.912L45.641,28.041L46.057,28.410L46.288,28.503L46.558,28.563L46.792,28.679L47.215,29.020L47.378,29.104L47.722,29.139L48.012,29.329L48.346,29.418L48.501,29.503L48.614,29.642L48.818,29.988L48.934,30.120L49.771,30.752L50.056,30.859L50.987,31.013L51.686,31.349L51.917,31.548L52.149,31.658L52.645,31.807L52.875,31.941L53.069,32.090L53.563,32.382L53.775,32.430L54.318,32.424L56.157,32.661L56.478,32.627L56.641,32.647L57.167,32.863L57.377,32.854L57.615,32.754L57.848,32.590L58.042,32.392L58.129,32.252L58.393,31.557L58.486,31.474L58.609,31.443L58.690,31.437L59.113,31.404L59.432,31.448L60.073,31.632L60.257,31.644L60.791,31.467L61.003,31.464L61.600,31.606L62.340,31.606L63.042,31.817L63.129,31.804L63.291,31.731L63.389,31.726L63.473,31.778L63.564,31.952L63.642,31.993L63.789,31.949L64.033,31.716L64.185,31.652L64.400,31.678L64.823,31.855L65.037,31.892L65.207,31.852L65.521,31.715L65.884,31.724L66.040,31.687L66.353,31.522L66.386,31.482L66.396,31.433L66.415,31.393L66.476,31.379L66.624,31.409L66.670,31.405L66.734,31.368L66.907,31.169L67.064,31.057L67.227,31.032L67.588,31.027L67.912,30.902L68.071,30.875L68.230,30.944L69.156,31.096L69.434,31.197L69.525,31.274L69.758,31.597L69.881,31.692L70.015,31.726L70.151,31.728L70.296,31.729L71.100,31.862L71.367,31.786L71.713,31.621L71.838,31.594L71.963,31.603L72.190,31.680L72.515,31.678L72.673,31.761L72.816,31.876L72.973,31.964L73.109,31.967L73.538,31.764L73.708,31.733L74.247,31.753L74.797,31.883L74.848,31.947L74.882,32.020L74.935,32.079L75.031,32.147L75.240,32.054L75.376,31.966L75.449,31.935L75.634,31.909L75.823,31.930L76.005,31.998L76.469,32.267L76.831,32.327L77.706,32.248L78.079,32.268L78.456,32.215L78.614,32.243L78.949,32.362L79.121,32.372L79.260,32.321L79.556,32.134L79.727,32.072L80.086,32.045L80.629,32.100L81.430,32.375L81.766,32.568L82.047,32.799L82.187,32.870L83.173,32.968L83.827,33.233L84.367,33.263L84.682,33.385L84.992,33.396L85.628,33.079L85.950,33.018L86.155,33.076L86.215,33.186L86.169,33.603L86.177,33.854L86.224,34.075L86.308,34.278L86.424,34.477L86.715,34.767L87.361,35.066L87.620,35.336L87.990,36.208L88.213,36.504L88.627,36.674L89.406,36.722L90.064,36.597L90.422,36.610L92.229,36.994L92.573,37.221L92.686,37.352L92.997,37.807L93.527,38.282L93.797,38.633L94.013,39.007L94.258,39.334L94.615,39.542ZM25.880,63.405L25.677,63.470L25.379,63.698L25.238,63.769L25.033,63.781L24.901,63.942L24.981,64.098L25.156,64.228L25.314,64.305L25.523,64.370L25.650,64.344L25.730,64.210L25.914,63.518L25.880,63.405ZM20.914,62.838L20.853,62.829L20.821,62.809L20.793,62.784L20.336,62.589L20.114,62.440L19.975,62.261L19.862,61.964L19.726,61.700L19.541,61.582L19.285,61.725L19.144,62.063L19.096,62.254L19.087,62.434L19.132,62.609L19.333,63.061L19.426,63.197L19.533,63.255L19.751,63.303L19.845,63.380L19.882,63.696L19.533,64.257L19.547,64.533L19.650,64.586L19.765,64.513L19.877,64.400L19.968,64.333L20.124,64.341L20.163,64.434L20.183,64.554L20.278,64.644L20.398,64.655L20.785,64.549L21.059,64.543L21.172,64.500L21.258,64.368L21.275,64.034L20.915,63.639L20.896,63.358L21.029,63.226L21.407,62.956L21.462,62.786L21.399,62.685L21.296,62.666L21.088,62.723L21.045,62.748L20.955,62.823L20.914,62.838ZM15.381,64.574L15.259,64.571L15.250,64.738L15.311,64.918L15.420,65.078L15.697,65.275L15.778,65.380L16.011,65.787L16.058,65.825L16.477,65.480L16.710,65.356L16.979,65.302L17.063,65.223L17.076,65.029L17.015,64.829L16.914,64.802L16.656,64.923L16.370,64.913L15.381,64.574Z" fill="currentColor" stroke="currentColor" stroke-width="1" stroke-linejoin="round"/>
</svg>