<svg xmlns="http://www.w3.org/2000/svg" viewBox="0 0 100 100" role="img" aria-label="Cambodia">
  <title>Cambodia</title>
  <path d="M93.469,12.672L93.673,13.136L93.586,13.573L93.190,14.456L93.166,14.726L93.232,15.244L93.212,15.519L93.124,15.715L92.880,16.068L92.806,16.304L92.790,16.427L92.727,16.664L92.523,17.120L92.370,17.384L92.156,17.562L91.828,17.644L91.718,17.590L91.655,17.474L91.556,17.399L91.336,17.468L91.201,17.593L91.148,17.737L91.122,17.895L91.074,18.053L90.727,18.665L90.604,18.984L90.572,19.340L90.610,19.496L90.759,19.832L90.808,20.007L90.805,20.170L90.720,20.783L90.145,22.433L90.063,22.851L90.135,23.056L90.296,23.222L90.484,23.522L90.520,23.863L90.463,24.225L90.457,24.578L90.651,24.895L90.940,25.002L91.577,24.938L91.839,25.040L91.945,25.207L91.956,25.377L91.935,25.543L91.951,25.703L92.190,26.214L92.205,26.301L92.240,26.516L92.193,26.716L92.100,26.913L92.024,27.205L92.209,27.733L92.188,27.888L92.078,28.263L92.072,28.445L92.158,28.706L92.481,29.094L92.643,29.357L92.677,29.434L93.067,29.862L93.365,30.289L94.769,33.030L94.895,33.666L95.000,35.375L94.939,35.908L94.395,37.233L94.169,37.783L92.449,41.968L92.493,42.217L92.758,42.412L92.801,42.540L92.806,42.653L92.765,42.747L92.677,42.816L92.576,42.987L92.546,43.176L92.585,43.369L92.776,43.808L92.839,44.336L92.908,44.597L93.025,44.803L93.502,45.347L93.733,45.832L93.779,46.288L93.764,46.756L93.803,47.276L94.228,49.195L94.260,49.761L94.200,50.288L94.107,50.510L94.002,50.698L93.966,50.887L94.085,51.113L94.087,51.116L94.085,51.523L93.586,52.943L93.500,53.370L93.365,53.766L93.115,54.080L92.677,54.261L92.267,54.546L91.693,55.328L91.304,55.350L90.978,55.061L90.469,54.266L90.067,54.020L89.319,54.087L88.498,54.345L88.227,54.430L87.218,54.929L86.716,55.465L86.602,55.710L86.398,55.900L85.945,56.221L85.409,56.890L84.248,58.058L83.835,58.340L83.205,58.586L82.576,58.659L81.279,58.559L81.069,58.578L80.753,58.605L80.366,58.840L80.087,59.248L79.889,59.814L79.557,60.259L79.199,60.359L78.351,60.166L78.486,60.428L77.023,60.224L76.209,60.214L75.686,60.585L75.461,60.571L75.370,60.452L75.300,60.300L75.147,60.188L74.928,60.154L74.729,60.171L74.331,60.277L74.355,60.346L74.492,60.745L74.996,61.694L75.091,62.123L75.047,62.167L74.796,62.578L74.777,62.694L74.766,63.023L74.744,63.173L74.626,63.421L74.486,63.652L74.395,63.892L74.413,64.167L74.876,64.965L75.020,65.349L75.028,65.369L74.872,65.633L74.650,65.639L74.434,65.521L74.060,65.255L73.824,65.173L73.657,65.145L73.476,65.164L72.519,65.416L72.294,65.377L72.141,65.252L71.897,64.868L71.769,64.719L71.436,64.538L70.264,64.167L69.560,64.153L68.677,63.878L67.899,63.746L67.503,64.167L67.489,64.408L67.446,64.643L67.349,64.857L66.877,65.356L66.722,65.720L66.517,65.968L66.031,65.943L65.222,65.642L64.933,65.702L64.595,65.992L64.545,66.035L64.322,66.280L64.127,66.587L64.076,66.933L64.123,67.012L64.295,67.302L64.502,67.414L64.955,67.498L65.143,67.639L65.221,67.834L65.238,68.066L65.201,68.519L65.465,69.439L65.493,69.704L65.445,69.964L65.258,70.555L64.977,71.865L64.993,72.112L65.210,72.285L65.488,72.355L65.712,72.494L65.758,72.869L65.758,72.872L65.935,73.353L66.285,73.619L67.194,73.844L67.446,74.078L67.860,74.734L68.115,75.023L68.708,75.533L68.936,75.817L69.108,76.178L69.303,75.802L69.565,75.645L69.860,75.692L70.164,75.927L70.361,76.227L70.638,77.224L70.828,77.570L70.709,77.676L70.532,77.670L70.170,77.658L69.870,77.693L69.814,77.755L69.718,77.933L69.755,77.973L69.734,78.421L69.706,78.460L69.793,78.742L70.212,79.543L70.649,81.216L70.271,80.903L69.826,80.790L68.864,80.694L68.413,80.538L67.941,80.295L67.511,79.981L67.194,79.616L67.036,79.428L66.470,78.962L66.445,79.246L66.286,79.627L66.085,79.971L65.927,80.145L65.575,80.151L65.275,79.955L65.046,79.675L64.919,79.426L64.724,78.820L64.603,78.556L64.025,77.750L63.724,77.220L63.438,76.886L62.984,76.838L62.494,76.980L62.098,77.221L62.094,77.223L61.774,77.432L61.387,77.611L61.133,77.666L59.542,78.006L58.697,78.187L58.560,78.170L58.179,77.977L57.698,77.842L57.621,77.802L57.406,77.949L56.716,78.760L56.211,79.799L56.047,79.963L55.794,79.873L55.211,79.357L54.950,79.186L54.200,79.044L52.545,78.732L52.303,78.649L52.109,78.385L52.069,78.157L51.970,78.082L51.594,78.282L51.373,78.440L51.301,78.506L51.140,78.654L50.950,78.906L50.840,79.180L50.898,79.783L51.164,80.437L51.771,81.572L51.780,82.137L51.367,82.540L49.700,83.396L49.480,83.587L49.282,83.807L48.582,84.887L48.172,85.316L47.567,85.562L46.804,85.595L45.964,85.490L45.560,85.440L44.284,85.281L43.553,85.313L43.286,85.373L43.069,85.543L42.904,85.796L42.762,86.071L42.054,87.119L41.875,87.288L41.634,87.328L41.324,87.260L41.324,87.257L41.288,87.157L41.002,86.797L40.826,86.692L40.580,86.800L39.982,86.173L39.825,86.075L39.306,86.075L39.018,86.190L38.858,86.234L38.714,86.195L38.580,85.905L38.520,85.157L38.314,85.006L38.219,84.955L38.015,84.716L37.901,84.639L37.779,84.660L37.675,84.736L37.569,84.763L37.439,84.639L37.173,84.991L36.734,84.999L35.867,84.768L35.578,84.801L35.169,84.911L34.875,84.887L33.249,84.425L32.963,84.401L32.731,84.328L32.262,83.925L32.233,83.797L31.860,83.104L31.809,83.092L31.565,83.104L31.504,83.075L31.510,83.006L31.527,82.924L31.511,82.856L31.462,82.752L31.433,82.492L31.385,82.391L31.258,82.735L31.272,83.109L31.385,83.753L31.325,84.054L31.179,84.356L30.806,84.887L30.607,85.095L30.391,85.202L30.105,85.239L29.699,85.244L29.479,85.205L29.378,85.111L29.305,84.993L29.172,84.887L29.002,84.840L28.717,84.831L28.591,84.768L28.591,84.887L28.952,85.084L29.271,85.404L29.358,85.705L29.002,85.838L28.443,85.802L27.807,85.945L27.495,85.957L27.265,85.846L27.152,85.600L27.121,85.355L27.135,85.244L27.083,85.195L27.040,84.966L26.966,84.887L26.832,84.876L26.758,84.928L26.701,84.989L26.618,85.006L26.510,84.976L26.351,84.903L26.206,84.777L26.070,84.373L25.905,84.187L25.563,83.925L25.281,84.047L25.194,83.823L25.277,83.504L25.501,83.342L25.638,83.213L25.812,82.911L25.961,82.573L26.028,82.327L26.306,81.919L26.961,81.727L28.290,81.670L28.302,81.669L28.367,81.667L28.367,81.632L28.367,81.549L28.144,81.479L28.086,81.373L28.186,80.618L28.243,80.479L28.384,80.358L28.583,80.253L28.786,80.108L28.940,79.864L28.973,79.664L28.940,78.989L28.684,78.374L28.194,77.503L27.871,76.640L28.127,76.050L27.802,75.793L27.638,75.726L27.135,75.671L26.928,75.580L26.778,75.447L26.579,74.824L26.211,74.508L25.721,74.325L25.206,74.267L25.244,74.328L25.249,74.342L25.264,74.349L25.331,74.386L25.100,74.742L24.974,74.742L24.895,74.623L24.841,74.575L24.626,74.516L24.626,74.623L24.726,74.831L24.621,75.087L24.277,75.584L24.621,75.429L24.655,75.608L24.527,75.924L24.095,76.721L23.985,77.045L23.938,77.432L23.750,77.888L23.709,78.092L23.721,78.259L23.804,78.534L23.822,78.740L23.728,79.001L23.497,79.171L23.224,79.231L23.001,79.161L22.929,79.244L22.850,79.300L22.651,79.388L22.511,78.978L22.155,78.732L21.730,78.551L21.378,78.330L20.681,78.757L20.386,79.030L20.448,79.280L20.212,79.272L20.009,79.307L19.851,79.389L19.743,79.518L19.414,79.351L19.022,79.309L18.818,79.224L19.046,78.923L18.524,78.510L18.397,78.447L18.289,78.307L18.369,78.008L18.507,77.732L18.582,77.665L18.544,77.125L18.379,76.233L18.338,75.757L18.395,75.593L18.513,75.410L18.636,75.177L18.687,74.861L18.665,74.562L18.596,74.354L18.338,73.910L18.300,73.777L18.280,73.631L18.250,73.488L18.171,73.369L18.059,73.339L17.723,73.334L17.644,73.315L17.678,73.122L17.873,73.005L18.012,72.890L17.877,72.710L17.877,72.603L18.005,72.397L18.460,71.952L18.943,71.655L19.163,71.889L19.268,71.889L19.250,71.621L19.085,71.177L19.046,70.928L18.802,71.026L18.690,71.085L18.582,71.176L18.369,70.961L18.305,70.767L18.296,70.537L18.233,70.215L18.123,69.955L17.871,69.594L17.761,69.373L17.902,69.415L17.951,69.424L17.968,69.467L18.004,69.621L18.109,69.621L18.217,69.429L18.391,69.280L18.611,69.182L18.872,69.145L19.100,69.241L19.370,69.654L19.627,69.740L19.091,68.715L18.930,68.551L19.008,68.363L19.046,68.303L18.930,68.303L18.892,68.366L18.814,68.551L18.885,68.689L18.851,68.846L18.739,68.974L18.582,69.016L18.413,68.931L18.213,68.619L17.761,68.392L17.639,68.016L17.622,67.579L17.644,67.232L17.528,67.351L17.584,66.996L17.644,66.866L17.487,66.860L17.401,66.813L17.296,66.628L17.301,67.232L17.271,67.504L17.180,67.708L17.064,67.708L16.881,67.647L16.641,67.703L16.404,67.822L16.242,67.946L15.894,67.460L16.242,67.232L16.329,67.344L16.588,67.589L16.715,67.589L16.654,67.418L16.469,67.189L16.367,66.996L16.367,66.282L16.560,66.092L16.798,66.171L17.080,66.305L17.401,66.282L17.401,66.152L17.192,66.171L17.022,66.122L16.895,66.028L16.820,65.915L16.820,65.796L16.950,65.796L16.950,65.677L16.771,65.756L16.715,65.796L16.588,65.796L16.569,65.668L16.483,65.439L16.367,65.439L16.367,65.796L16.242,65.677L16.242,66.044L16.134,66.044L16.162,65.561L16.255,65.194L16.433,64.923L16.715,64.726L16.884,64.650L17.033,64.616L17.180,64.651L17.350,64.780L17.559,64.877L17.798,64.830L18.004,64.687L18.109,64.488L18.004,64.488L17.852,64.709L17.617,64.692L17.368,64.544L17.180,64.369L17.064,64.369L16.367,64.726L16.271,64.619L16.151,64.401L16.052,64.153L16.010,63.954L15.919,63.808L15.521,63.596L14.954,62.706L14.849,62.706L15.100,63.275L15.931,64.158L16.134,64.726L16.097,65.017L15.898,65.532L15.894,65.796L16.071,66.541L16.049,66.847L15.894,67.232L15.861,67.011L15.699,66.697L15.662,66.450L15.599,66.336L15.301,66.046L15.197,65.915L15.455,65.518L15.393,64.524L15.201,63.832L14.714,63.098L13.998,62.083L13.218,60.570L13.049,59.705L12.776,59.101L12.673,58.975L12.438,58.690L11.567,57.336L11.436,56.644L11.824,53.794L11.909,53.463L12.089,53.135L12.528,52.749L12.675,52.504L12.651,52.349L12.623,52.160L12.428,51.935L11.881,51.641L11.650,51.390L11.604,51.254L11.576,50.963L11.513,50.820L11.394,50.705L10.970,50.452L9.674,49.136L9.166,48.763L8.200,48.440L8.100,48.364L7.939,48.242L7.818,47.965L7.774,47.593L7.796,47.224L7.876,46.953L8.088,46.765L8.090,46.764L8.264,46.212L8.283,46.043L8.243,45.830L8.178,45.712L8.094,45.605L7.996,45.423L7.887,45.063L7.817,44.396L7.730,43.993L7.624,43.800L7.573,43.605L7.597,43.425L7.789,43.216L7.811,43.151L7.789,43.087L7.645,42.949L7.613,42.875L7.640,42.807L7.730,42.745L7.854,42.683L7.943,42.609L7.996,42.519L8.002,42.428L8.003,42.412L7.714,42.237L7.544,42.008L7.274,41.460L6.503,40.551L6.166,39.966L5.268,37.598L5.251,37.554L5.232,36.331L5.343,35.272L5.271,33.956L5.274,33.908L5.284,33.704L5.271,33.565L5.205,33.407L5.023,33.112L5.000,32.927L5.320,32.516L5.983,32.441L7.358,32.558L8.394,32.471L8.723,32.355L9.522,31.891L9.831,31.805L9.232,31.412L8.868,31.054L8.890,30.686L9.434,30.265L11.143,29.430L11.545,29.083L11.613,28.920L11.636,28.562L11.678,28.384L11.760,28.237L12.063,27.859L12.200,27.555L12.492,26.606L12.805,26.050L13.223,25.633L14.202,24.867L14.453,24.578L14.513,24.355L14.505,24.095L14.562,23.696L14.682,23.424L15.036,22.918L15.158,22.637L15.199,22.295L15.203,22.066L15.204,21.989L15.282,21.708L15.545,21.439L15.831,21.305L16.458,21.125L16.748,20.955L16.953,20.779L18.110,19.788L18.671,19.484L19.014,19.371L20.039,19.219L20.799,18.985L21.315,18.826L22.465,18.829L22.831,18.784L23.126,18.652L23.599,18.308L23.844,18.238L23.907,18.279L23.997,18.365L24.128,18.446L24.306,18.469L24.430,18.419L25.073,17.975L25.728,17.642L26.014,17.594L26.318,17.697L26.547,17.845L26.794,17.899L27.145,17.721L27.249,17.583L27.275,17.442L27.326,17.316L27.489,17.221L27.661,17.209L27.831,17.258L27.970,17.349L28.074,17.460L28.114,17.638L28.078,18.051L28.132,18.209L28.257,18.256L28.840,18.296L29.837,18.549L30.159,18.586L30.381,18.566L30.521,18.532L30.666,18.530L30.911,18.611L31.094,18.721L31.263,18.851L31.453,18.962L31.705,19.011L32.004,18.976L32.093,18.874L32.136,18.736L32.294,18.591L33.214,18.544L33.679,18.930L34.267,18.799L34.421,18.723L34.433,18.718L34.908,18.483L35.528,18.315L35.629,18.366L35.716,18.471L35.836,18.560L36.050,18.566L36.178,18.503L36.599,18.043L36.626,17.951L36.664,17.901L36.810,17.905L36.757,17.968L36.773,18.123L36.870,18.282L37.075,18.357L37.379,18.272L37.604,18.094L37.860,17.955L38.264,17.990L39.184,18.364L41.118,18.646L41.234,18.693L41.346,18.724L41.446,18.722L41.505,18.721L41.599,18.669L41.708,18.571L41.845,18.475L42.026,18.427L42.335,18.487L42.601,18.609L42.879,18.664L43.218,18.523L43.406,18.313L43.569,18.047L43.759,17.800L44.027,17.644L44.301,17.639L44.723,17.819L45.012,17.806L45.120,17.719L45.288,17.442L45.428,17.383L45.567,17.451L45.654,17.761L45.768,17.855L46.024,17.801L46.533,17.399L46.767,17.280L47.049,17.309L47.280,17.451L47.504,17.629L47.782,17.769L47.902,17.775L48.222,17.728L48.379,17.734L48.510,17.790L48.781,17.970L48.916,18.039L49.213,18.092L49.884,18.213L50.202,18.311L50.285,18.522L50.289,18.758L50.209,19.547L50.238,19.695L50.777,20.693L51.077,21.031L51.450,21.211L52.369,20.924L52.893,20.051L53.280,19.184L53.778,18.919L53.777,19.468L53.840,19.871L54.001,20.232L55.011,21.761L55.324,22.068L55.441,22.130L55.686,22.207L55.810,22.284L56.244,22.891L56.385,23.022L56.557,23.091L56.832,23.126L57.314,23.131L57.819,23.059L58.293,22.898L58.697,22.630L58.980,22.554L59.231,22.412L59.705,22.076L59.842,22.166L59.973,22.272L60.085,22.394L60.184,22.532L60.442,22.430L60.748,22.564L61.008,22.835L61.134,23.144L61.400,22.952L61.573,22.962L61.746,23.074L62.019,23.189L62.262,23.216L62.627,23.161L62.811,23.169L63.287,23.424L63.540,23.849L63.732,24.333L64.020,24.760L65.480,26.036L65.862,26.246L65.932,26.284L66.355,26.380L66.773,26.337L67.194,26.168L67.593,26.185L68.473,26.409L68.812,26.390L69.061,26.086L69.029,25.268L69.235,25.004L69.480,24.757L69.785,24.554L70.051,24.328L70.176,24.005L70.093,23.677L69.867,23.423L69.595,23.191L69.365,22.932L68.931,21.899L68.666,21.597L68.083,21.229L67.849,21.007L67.705,20.656L67.772,20.224L67.713,19.889L67.525,19.611L67.194,19.344L67.113,19.157L67.090,18.960L67.117,18.760L67.194,18.569L67.537,18.629L68.285,18.885L68.578,18.872L68.624,18.790L68.666,18.517L68.716,18.445L68.803,18.436L68.986,18.449L69.251,18.433L69.659,18.505L70.255,18.539L70.580,18.502L70.850,18.342L71.102,17.976L71.216,17.602L71.388,16.695L71.546,16.400L71.646,16.506L72.678,17.141L72.844,17.183L73.076,17.200L73.302,17.137L73.413,17.121L74.327,16.996L74.759,16.817L74.934,16.478L75.002,16.466L75.126,16.362L75.200,16.243L75.003,16.134L74.988,16.017L75.016,15.892L75.053,15.819L75.211,15.727L75.396,15.748L75.613,15.804L75.874,15.819L75.874,15.711L75.750,15.666L75.676,15.581L75.638,15.456L75.632,15.289L75.660,15.118L75.744,15.069L75.856,15.059L75.980,14.998L76.344,14.661L76.445,14.754L76.658,15.085L76.726,15.307L76.816,15.856L76.875,16.023L77.023,16.113L77.413,16.198L77.587,16.304L77.922,16.814L78.205,16.972L78.415,17.088L79.652,17.464L79.725,17.524L79.857,17.663L79.936,17.772L80.068,18.031L80.663,18.874L81.110,19.322L81.346,19.490L81.583,19.583L81.838,19.592L82.496,19.221L82.576,19.146L82.675,19.096L82.855,19.083L83.009,19.135L83.327,19.333L83.499,19.364L83.711,19.305L83.773,19.216L83.780,19.108L83.966,18.664L84.179,18.618L84.252,18.576L84.582,18.059L85.079,17.448L85.090,17.360L85.143,17.346L85.357,17.439L85.635,17.660L85.780,17.868L85.962,17.961L86.339,17.841L86.860,17.495L87.324,17.077L87.461,16.805L87.557,16.507L87.695,16.300L87.949,16.301L87.950,16.302L87.954,16.304L87.957,16.304L88.216,16.347L88.361,16.269L88.540,15.916L88.576,15.567L88.601,15.451L88.669,15.366L88.865,15.248L88.951,15.172L89.252,14.748L89.508,14.519L89.821,14.541L90.280,14.872L90.600,15.161L90.767,15.225L91.086,15.293L91.482,15.469L91.677,15.477L91.896,15.298L91.949,15.165L91.949,15.017L91.929,14.870L91.938,14.732L91.988,14.591L92.110,14.425L92.168,14.327L92.303,13.933L92.413,13.817L92.677,13.687L93.240,12.866L93.469,12.672ZM29.993,85.600L30.234,85.767L30.358,86.135L30.340,86.502L30.167,86.670L29.889,86.666L29.643,86.618L29.441,86.478L29.296,86.195L29.437,86.155L29.508,86.105L29.645,85.957L29.533,85.749L29.585,85.621L29.753,85.573L29.993,85.600ZM21.714,81.840L21.787,81.907L21.933,81.929L22.061,82.013L22.072,82.262L21.848,82.342L21.647,82.439L21.485,82.595L21.378,82.856L21.231,82.735L21.154,82.533L21.112,82.344L21.083,82.262L21.096,82.220L20.554,82.013L20.295,81.800L20.096,81.551L20.038,81.295L20.205,81.062L20.548,80.941L20.830,81.023L21.062,81.218L21.261,81.430L21.299,81.487L21.332,81.609L21.378,81.667L21.473,81.694L21.582,81.686L21.676,81.711L21.714,81.840ZM17.296,70.928L17.375,71.124L17.462,71.272L17.492,71.398L17.401,71.523L17.491,71.760L17.478,72.085L17.401,72.399L17.296,72.603L17.064,72.716L16.794,72.718L16.632,72.629L16.715,72.474L16.529,72.284L16.470,71.920L16.483,71.285L16.354,70.541L16.350,70.114L16.483,69.740L16.511,69.815L16.558,69.898L16.588,69.977L16.779,69.811L16.943,69.793L17.076,69.896L17.288,70.335L17.299,70.523L17.279,70.703L17.296,70.928ZM17.180,68.422L17.266,68.585L17.456,68.871L17.528,69.016L17.528,69.145L17.449,69.267L17.259,69.643L17.180,69.740L17.011,69.726L16.997,69.552L17.064,69.145L16.910,68.863L16.688,68.537L16.595,68.215L16.820,67.946L17.113,68.122L17.180,68.184L17.217,68.273L17.216,68.358L17.196,68.415L17.180,68.422ZM22.343,84.401L22.373,84.409L22.423,84.473L22.423,84.601L22.351,84.737L22.274,84.930L22.162,85.076L21.979,84.962L21.629,84.414L21.510,84.137L21.577,83.899L21.805,83.806L21.997,83.782L22.094,83.819L22.128,83.941L21.964,84.180L21.953,84.260L21.946,84.347L21.975,84.485L22.061,84.566L22.182,84.576L22.298,84.477L22.343,84.401Z" fill="currentColor" stroke="currentColor" stroke-width="1" stroke-linejoin="round"/>
</svg>