<svg xmlns="http://www.w3.org/2000/svg" viewBox="0 0 100 100" role="img" aria-label="Kiribati">
  <title>Kiribati</title>
  <path d="M13.178,39.027L13.145,39.037L13.131,39.038L13.115,39.035L13.227,38.983L13.286,38.967L13.441,38.955L13.462,38.948L13.422,38.935L13.445,38.921L13.471,38.928L13.488,38.949L13.487,38.977L13.468,38.990L13.439,38.991L13.383,38.980L13.332,38.978L13.272,38.982L13.215,38.997L13.178,39.027ZM94.938,68.678L94.961,68.714L94.992,68.779L95.000,68.838L94.954,68.853L94.927,68.812L94.910,68.759L94.912,68.710L94.938,68.678ZM85.422,55.237L85.467,55.220L85.501,55.233L85.514,55.256L85.495,55.268L85.405,55.280L85.368,55.268L85.342,55.219L85.364,55.217L85.385,55.219L85.404,55.226L85.422,55.237ZM87.486,51.580L87.601,51.545L87.652,51.545L87.637,51.594L87.621,51.612L87.610,51.636L87.608,51.664L87.622,51.691L87.595,51.691L87.566,51.653L87.534,51.643L87.517,51.633L87.488,51.611L87.470,51.589L87.486,51.580ZM48.725,48.752L48.655,48.733L48.645,48.728L48.643,48.726L48.689,48.740L48.757,48.757L48.770,48.764L48.783,48.775L48.785,48.778L48.828,48.819L48.828,48.819L48.834,48.811L48.836,48.809L48.839,48.807L48.843,48.804L48.842,48.795L48.780,48.688L48.750,48.658L48.722,48.639L48.679,48.617L48.639,48.611L48.622,48.642L48.608,48.624L48.609,48.609L48.620,48.595L48.638,48.579L48.719,48.618L48.790,48.668L48.837,48.738L48.846,48.784L48.849,48.805L48.846,48.835L48.814,48.819L48.793,48.790L48.766,48.769L48.733,48.754L48.725,48.752ZM21.894,48.227L21.957,48.242L22.016,48.287L22.045,48.334L22.021,48.355L21.990,48.339L21.862,48.227L21.878,48.220L21.885,48.220L21.894,48.227ZM20.023,47.989L20.012,47.970L20.004,47.951L20.019,47.960L20.031,47.971L20.041,47.984L20.050,47.999L20.041,48.001L20.036,47.998L20.030,47.994L20.023,47.989ZM19.116,46.517L19.136,46.566L19.104,46.630L19.097,46.603L19.104,46.509L19.080,46.475L19.041,46.420L19.025,46.389L19.042,46.405L19.116,46.517ZM17.877,45.497L17.895,45.555L17.900,45.639L17.881,45.719L17.829,45.768L17.769,45.760L17.760,45.708L17.789,45.645L17.845,45.609L17.845,45.625L17.824,45.639L17.800,45.662L17.783,45.691L17.783,45.720L17.805,45.742L17.828,45.728L17.846,45.702L17.854,45.688L17.876,45.661L17.877,45.600L17.861,45.535L17.829,45.497L17.845,45.480L17.852,45.489L17.859,45.493L17.877,45.497ZM21.018,45.256L21.058,45.289L21.101,45.352L21.134,45.426L21.145,45.497L21.112,45.472L21.094,45.433L21.082,45.390L21.066,45.353L21.020,45.297L20.999,45.264L20.986,45.225L21.002,45.227L21.009,45.234L21.018,45.256ZM20.088,45.259L20.121,45.326L20.109,45.384L20.094,45.369L20.072,45.356L20.028,45.337L20.028,45.321L20.050,45.325L20.109,45.353L20.101,45.311L20.081,45.279L20.028,45.225L19.987,45.168L19.963,45.148L19.934,45.144L19.937,45.155L19.939,45.161L19.948,45.176L19.920,45.163L19.931,45.144L19.968,45.134L20.013,45.144L20.041,45.196L20.088,45.259ZM17.194,44.953L17.212,45.058L17.226,45.097L17.172,45.081L17.155,45.034L17.161,44.945L17.151,44.914L17.081,44.795L17.101,44.796L17.116,44.802L17.130,44.812L17.145,44.826L17.153,44.868L17.194,44.953ZM16.523,43.804L16.529,43.829L16.556,43.892L16.574,43.989L16.573,44.005L16.572,44.007L16.571,44.027L16.539,44.060L16.517,44.044L16.507,44.030L16.513,44.019L16.539,44.012L16.533,44.025L16.533,44.028L16.535,44.031L16.539,44.044L16.572,44.007L16.572,44.006L16.572,44.003L16.563,43.958L16.523,43.876L16.491,43.661L16.523,43.710L16.523,43.804ZM16.435,43.613L16.454,43.621L16.481,43.637L16.493,43.653L16.467,43.661L16.431,43.644L16.325,43.562L16.300,43.532L16.331,43.532L16.351,43.554L16.414,43.603L16.435,43.613ZM14.532,41.840L14.507,41.818L14.518,41.790L14.564,41.745L14.573,41.696L14.563,41.683L14.538,41.666L14.499,41.648L14.551,41.640L14.569,41.646L14.580,41.665L14.580,41.685L14.579,41.703L14.571,41.740L14.532,41.840ZM15.024,41.106L15.161,41.176L15.222,41.220L15.232,41.266L15.107,41.173L15.024,41.134L14.961,41.139L14.970,41.122L14.980,41.110L14.993,41.099L15.008,41.090L15.024,41.106ZM13.059,40.212L13.063,40.210L13.066,40.208L13.065,40.217L13.065,40.222L13.065,40.228L13.057,40.219L13.050,40.214L13.059,40.212ZM13.037,40.202L13.041,40.207L13.048,40.214L13.041,40.215L13.031,40.213L13.024,40.207L13.018,40.195L13.032,40.195L13.037,40.202ZM13.265,39.901L13.275,39.913L13.273,39.949L13.231,40.021L13.205,40.044L13.115,40.161L13.068,40.207L13.081,40.182L13.121,40.146L13.142,40.094L13.197,40.051L13.219,39.989L13.238,39.965L13.255,39.938L13.256,39.908L13.233,39.879L13.193,39.850L13.148,39.826L13.111,39.813L13.111,39.821L13.111,39.845L13.097,39.845L13.097,39.818L13.090,39.796L13.078,39.779L13.065,39.765L13.097,39.765L13.123,39.800L13.240,39.876L13.265,39.901ZM13.050,38.584L13.038,38.584L13.031,38.579L13.026,38.573L13.018,38.568L13.003,38.516L12.994,38.401L12.970,38.360L13.002,38.375L13.024,38.446L13.050,38.584ZM13.173,38.010L13.178,38.092L13.157,38.152L13.097,38.169L13.080,38.165L13.073,38.162L13.065,38.154L13.144,38.141L13.171,38.089L13.166,38.017L13.146,37.946L13.149,37.943L13.151,37.940L13.152,37.937L13.152,37.933L13.173,38.010ZM13.043,37.766L13.136,37.892L13.143,37.907L13.032,37.785L12.999,37.725L12.984,37.706L12.946,37.670L12.934,37.651L12.937,37.625L12.953,37.662L13.018,37.708L13.032,37.730L13.043,37.766ZM82.418,38.041L82.444,38.065L82.456,38.112L82.446,38.147L82.410,38.137L82.389,38.150L82.366,38.160L82.340,38.168L82.315,38.169L82.289,38.159L82.270,38.143L82.255,38.128L82.231,38.113L82.207,38.081L82.195,38.073L82.142,38.069L81.907,37.999L81.818,37.957L81.739,37.898L81.679,37.842L81.633,37.812L81.612,37.825L81.590,37.826L81.545,37.809L81.510,37.770L81.517,37.706L81.531,37.694L81.598,37.657L81.629,37.653L81.649,37.660L81.658,37.669L81.653,37.674L81.622,37.687L81.593,37.719L81.584,37.760L81.612,37.803L81.636,37.806L81.668,37.802L81.697,37.804L81.709,37.825L81.721,37.840L81.748,37.846L81.804,37.848L81.851,37.868L81.865,37.867L81.844,37.840L81.820,37.823L81.795,37.813L81.773,37.798L81.756,37.769L81.786,37.780L81.811,37.779L81.825,37.762L81.821,37.722L81.846,37.739L81.856,37.762L81.862,37.788L81.876,37.810L81.904,37.821L81.913,37.803L81.908,37.772L81.875,37.720L81.870,37.696L81.875,37.675L81.885,37.657L81.912,37.674L81.924,37.668L81.917,37.625L81.944,37.641L81.945,37.662L81.941,37.685L81.950,37.706L81.973,37.719L81.984,37.712L81.992,37.698L82.016,37.684L82.028,37.669L82.038,37.650L82.042,37.634L82.036,37.613L82.021,37.604L81.979,37.594L81.911,37.563L81.826,37.504L81.813,37.498L81.803,37.484L81.777,37.460L81.751,37.449L81.739,37.474L81.727,37.490L81.701,37.486L81.679,37.466L81.677,37.434L81.707,37.411L81.758,37.414L81.876,37.444L81.964,37.514L82.113,37.556L82.140,37.554L82.137,37.578L82.129,37.601L82.116,37.618L82.080,37.633L82.070,37.654L82.060,37.706L82.053,37.816L82.105,37.874L82.188,37.914L82.275,37.968L82.307,37.995L82.343,38.019L82.381,38.035L82.418,38.041ZM12.508,35.087L12.557,35.106L12.596,35.094L12.629,35.064L12.658,35.031L12.691,35.012L12.782,35.004L12.826,34.992L12.826,35.007L12.823,35.017L12.810,35.039L12.727,35.022L12.652,35.067L12.592,35.122L12.554,35.135L12.538,35.128L12.525,35.117L12.515,35.104L12.508,35.087ZM13.001,34.831L13.012,34.846L13.015,34.853L13.018,34.863L12.965,34.875L12.856,34.928L12.826,34.928L12.959,34.865L13.001,34.831ZM77.548,33.123L77.564,33.143L77.591,33.192L77.621,33.231L77.629,33.252L77.623,33.274L77.598,33.300L77.550,33.321L77.492,33.333L77.435,33.329L77.390,33.300L77.371,33.252L77.413,33.252L77.525,33.284L77.547,33.271L77.550,33.242L77.542,33.210L77.533,33.187L77.513,33.170L77.454,33.146L77.430,33.131L77.415,33.108L77.401,33.058L77.390,33.044L77.359,33.038L77.330,33.048L77.308,33.068L77.294,33.091L77.356,33.204L77.257,33.153L77.265,33.059L77.334,32.987L77.414,33.005L77.439,33.040L77.450,33.062L77.455,33.084L77.466,33.113L77.494,33.120L77.525,33.118L77.548,33.123ZM47.457,52.650L47.476,52.675L47.505,52.683L47.539,52.678L47.570,52.666L47.502,52.710L47.447,52.679L47.441,52.629L47.509,52.620L47.506,52.626L47.508,52.635L47.494,52.637L47.457,52.650ZM42.146,53.076L42.159,53.088L42.157,53.095L42.133,53.082L42.111,53.063L42.122,53.064L42.146,53.076ZM42.093,53.061L42.096,53.063L42.096,53.063L42.082,53.056L42.064,53.038L42.067,53.036L42.077,53.049L42.093,53.061ZM42.159,53.080L42.128,53.045L42.095,53.025L42.072,53.020L42.060,53.008L42.071,53.000L42.104,53.018L42.157,53.072L42.159,53.080ZM49.696,52.505L49.731,52.498L49.757,52.516L49.766,52.543L49.751,52.562L49.720,52.565L49.697,52.554L49.687,52.533L49.696,52.505ZM50.083,49.447L50.092,49.422L50.102,49.399L50.108,49.443L50.098,49.474L50.086,49.479L50.083,49.447ZM5.039,44.189L5.031,44.182L5.027,44.181L5.019,44.181L5.013,44.184L5.007,44.180L5.002,44.174L5.000,44.166L5.001,44.156L5.002,44.153L5.004,44.147L5.006,44.142L5.007,44.140L5.013,44.133L5.024,44.130L5.033,44.126L5.043,44.126L5.054,44.126L5.063,44.135L5.070,44.141L5.075,44.145L5.079,44.153L5.079,44.154L5.078,44.156L5.077,44.162L5.077,44.169L5.075,44.176L5.073,44.183L5.071,44.187L5.066,44.191L5.060,44.194L5.054,44.195L5.049,44.197L5.044,44.196L5.042,44.193L5.039,44.189ZM13.763,37.412L13.756,37.401L13.751,37.397L13.744,37.394L13.733,37.388L13.718,37.385L13.708,37.389L13.704,37.406L13.710,37.444L13.713,37.465L13.709,37.481L13.700,37.497L13.688,37.498L13.689,37.497L13.692,37.489L13.694,37.474L13.695,37.461L13.693,37.448L13.688,37.425L13.689,37.412L13.692,37.390L13.698,37.375L13.704,37.363L13.713,37.353L13.725,37.353L13.735,37.355L13.747,37.360L13.761,37.374L13.771,37.390L13.772,37.393L13.777,37.413L13.783,37.459L13.799,37.507L13.808,37.528L13.816,37.533L13.823,37.538L13.829,37.545L13.828,37.552L13.828,37.559L13.823,37.566L13.817,37.572L13.811,37.575L13.807,37.577L13.797,37.581L13.780,37.581L13.751,37.576L13.715,37.567L13.694,37.559L13.688,37.550L13.684,37.525L13.685,37.515L13.690,37.508L13.697,37.507L13.700,37.511L13.703,37.518L13.702,37.530L13.703,37.543L13.720,37.550L13.762,37.561L13.772,37.563L13.790,37.564L13.797,37.562L13.800,37.561L13.805,37.554L13.802,37.546L13.800,37.536L13.788,37.525L13.780,37.515L13.781,37.511L13.779,37.506L13.777,37.498L13.772,37.479L13.767,37.456L13.767,37.446L13.767,37.429L13.763,37.412ZM74.930,31.179L74.915,31.161L74.927,31.150L74.951,31.147L74.977,31.152L75.003,31.170L74.994,31.185L74.965,31.190L74.930,31.179Z" fill="none" stroke="currentColor" stroke-width="3" stroke-linejoin="round"/>
  <path d="M13.178,39.027L13.145,39.037L13.131,39.038L13.115,39.035L13.227,38.983L13.286,38.967L13.441,38.955L13.462,38.948L13.422,38.935L13.445,38.921L13.471,38.928L13.488,38.949L13.487,38.977L13.468,38.990L13.439,38.991L13.383,38.980L13.332,38.978L13.272,38.982L13.215,38.997L13.178,39.027ZM94.938,68.678L94.961,68.714L94.992,68.779L95.000,68.838L94.954,68.853L94.927,68.812L94.910,68.759L94.912,68.710L94.938,68.678ZM85.422,55.237L85.467,55.220L85.501,55.233L85.514,55.256L85.495,55.268L85.405,55.280L85.368,55.268L85.342,55.219L85.364,55.217L85.385,55.219L85.404,55.226L85.422,55.237ZM87.486,51.580L87.601,51.545L87.652,51.545L87.637,51.594L87.621,51.612L87.610,51.636L87.608,51.664L87.622,51.691L87.595,51.691L87.566,51.653L87.534,51.643L87.517,51.633L87.488,51.611L87.470,51.589L87.486,51.580ZM48.725,48.752L48.655,48.733L48.645,48.728L48.643,48.726L48.689,48.740L48.757,48.757L48.770,48.764L48.783,48.775L48.785,48.778L48.828,48.819L48.828,48.819L48.834,48.811L48.836,48.809L48.839,48.807L48.843,48.804L48.842,48.795L48.780,48.688L48.750,48.658L48.722,48.639L48.679,48.617L48.639,48.611L48.622,48.642L48.608,48.624L48.609,48.609L48.620,48.595L48.638,48.579L48.719,48.618L48.790,48.668L48.837,48.738L48.846,48.784L48.849,48.805L48.846,48.835L48.814,48.819L48.793,48.790L48.766,48.769L48.733,48.754L48.725,48.752ZM21.894,48.227L21.957,48.242L22.016,48.287L22.045,48.334L22.021,48.355L21.990,48.339L21.862,48.227L21.878,48.220L21.885,48.220L21.894,48.227ZM20.023,47.989L20.012,47.970L20.004,47.951L20.019,47.960L20.031,47.971L20.041,47.984L20.050,47.999L20.041,48.001L20.036,47.998L20.030,47.994L20.023,47.989ZM19.116,46.517L19.136,46.566L19.104,46.630L19.097,46.603L19.104,46.509L19.080,46.475L19.041,46.420L19.025,46.389L19.042,46.405L19.116,46.517ZM17.877,45.497L17.895,45.555L17.900,45.639L17.881,45.719L17.829,45.768L17.769,45.760L17.760,45.708L17.789,45.645L17.845,45.609L17.845,45.625L17.824,45.639L17.800,45.662L17.783,45.691L17.783,45.720L17.805,45.742L17.828,45.728L17.846,45.702L17.854,45.688L17.876,45.661L17.877,45.600L17.861,45.535L17.829,45.497L17.845,45.480L17.852,45.489L17.859,45.493L17.877,45.497ZM21.018,45.256L21.058,45.289L21.101,45.352L21.134,45.426L21.145,45.497L21.112,45.472L21.094,45.433L21.082,45.390L21.066,45.353L21.020,45.297L20.999,45.264L20.986,45.225L21.002,45.227L21.009,45.234L21.018,45.256ZM20.088,45.259L20.121,45.326L20.109,45.384L20.094,45.369L20.072,45.356L20.028,45.337L20.028,45.321L20.050,45.325L20.109,45.353L20.101,45.311L20.081,45.279L20.028,45.225L19.987,45.168L19.963,45.148L19.934,45.144L19.937,45.155L19.939,45.161L19.948,45.176L19.920,45.163L19.931,45.144L19.968,45.134L20.013,45.144L20.041,45.196L20.088,45.259ZM17.194,44.953L17.212,45.058L17.226,45.097L17.172,45.081L17.155,45.034L17.161,44.945L17.151,44.914L17.081,44.795L17.101,44.796L17.116,44.802L17.130,44.812L17.145,44.826L17.153,44.868L17.194,44.953ZM16.523,43.804L16.529,43.829L16.556,43.892L16.574,43.989L16.573,44.005L16.572,44.007L16.571,44.027L16.539,44.060L16.517,44.044L16.507,44.030L16.513,44.019L16.539,44.012L16.533,44.025L16.533,44.028L16.535,44.031L16.539,44.044L16.572,44.007L16.572,44.006L16.572,44.003L16.563,43.958L16.523,43.876L16.491,43.661L16.523,43.710L16.523,43.804ZM16.435,43.613L16.454,43.621L16.481,43.637L16.493,43.653L16.467,43.661L16.431,43.644L16.325,43.562L16.300,43.532L16.331,43.532L16.351,43.554L16.414,43.603L16.435,43.613ZM14.532,41.840L14.507,41.818L14.518,41.790L14.564,41.745L14.573,41.696L14.563,41.683L14.538,41.666L14.499,41.648L14.551,41.640L14.569,41.646L14.580,41.665L14.580,41.685L14.579,41.703L14.571,41.740L14.532,41.840ZM15.024,41.106L15.161,41.176L15.222,41.220L15.232,41.266L15.107,41.173L15.024,41.134L14.961,41.139L14.970,41.122L14.980,41.110L14.993,41.099L15.008,41.090L15.024,41.106ZM13.059,40.212L13.063,40.210L13.066,40.208L13.065,40.217L13.065,40.222L13.065,40.228L13.057,40.219L13.050,40.214L13.059,40.212ZM13.037,40.202L13.041,40.207L13.048,40.214L13.041,40.215L13.031,40.213L13.024,40.207L13.018,40.195L13.032,40.195L13.037,40.202ZM13.265,39.901L13.275,39.913L13.273,39.949L13.231,40.021L13.205,40.044L13.115,40.161L13.068,40.207L13.081,40.182L13.121,40.146L13.142,40.094L13.197,40.051L13.219,39.989L13.238,39.965L13.255,39.938L13.256,39.908L13.233,39.879L13.193,39.850L13.148,39.826L13.111,39.813L13.111,39.821L13.111,39.845L13.097,39.845L13.097,39.818L13.090,39.796L13.078,39.779L13.065,39.765L13.097,39.765L13.123,39.800L13.240,39.876L13.265,39.901ZM13.050,38.584L13.038,38.584L13.031,38.579L13.026,38.573L13.018,38.568L13.003,38.516L12.994,38.401L12.970,38.360L13.002,38.375L13.024,38.446L13.050,38.584ZM13.173,38.010L13.178,38.092L13.157,38.152L13.097,38.169L13.080,38.165L13.073,38.162L13.065,38.154L13.144,38.141L13.171,38.089L13.166,38.017L13.146,37.946L13.149,37.943L13.151,37.940L13.152,37.937L13.152,37.933L13.173,38.010ZM13.043,37.766L13.136,37.892L13.143,37.907L13.032,37.785L12.999,37.725L12.984,37.706L12.946,37.670L12.934,37.651L12.937,37.625L12.953,37.662L13.018,37.708L13.032,37.730L13.043,37.766ZM82.418,38.041L82.444,38.065L82.456,38.112L82.446,38.147L82.410,38.137L82.389,38.150L82.366,38.160L82.340,38.168L82.315,38.169L82.289,38.159L82.270,38.143L82.255,38.128L82.231,38.113L82.207,38.081L82.195,38.073L82.142,38.069L81.907,37.999L81.818,37.957L81.739,37.898L81.679,37.842L81.633,37.812L81.612,37.825L81.590,37.826L81.545,37.809L81.510,37.770L81.517,37.706L81.531,37.694L81.598,37.657L81.629,37.653L81.649,37.660L81.658,37.669L81.653,37.674L81.622,37.687L81.593,37.719L81.584,37.760L81.612,37.803L81.636,37.806L81.668,37.802L81.697,37.804L81.709,37.825L81.721,37.840L81.748,37.846L81.804,37.848L81.851,37.868L81.865,37.867L81.844,37.840L81.820,37.823L81.795,37.813L81.773,37.798L81.756,37.769L81.786,37.780L81.811,37.779L81.825,37.762L81.821,37.722L81.846,37.739L81.856,37.762L81.862,37.788L81.876,37.810L81.904,37.821L81.913,37.803L81.908,37.772L81.875,37.720L81.870,37.696L81.875,37.675L81.885,37.657L81.912,37.674L81.924,37.668L81.917,37.625L81.944,37.641L81.945,37.662L81.941,37.685L81.950,37.706L81.973,37.719L81.984,37.712L81.992,37.698L82.016,37.684L82.028,37.669L82.038,37.650L82.042,37.634L82.036,37.613L82.021,37.604L81.979,37.594L81.911,37.563L81.826,37.504L81.813,37.498L81.803,37.484L81.777,37.460L81.751,37.449L81.739,37.474L81.727,37.490L81.701,37.486L81.679,37.466L81.677,37.434L81.707,37.411L81.758,37.414L81.876,37.444L81.964,37.514L82.113,37.556L82.140,37.554L82.137,37.578L82.129,37.601L82.116,37.618L82.080,37.633L82.070,37.654L82.060,37.706L82.053,37.816L82.105,37.874L82.188,37.914L82.275,37.968L82.307,37.995L82.343,38.019L82.381,38.035L82.418,38.041ZM12.508,35.087L12.557,35.106L12.596,35.094L12.629,35.064L12.658,35.031L12.691,35.012L12.782,35.004L12.826,34.992L12.826,35.007L12.823,35.017L12.810,35.039L12.727,35.022L12.652,35.067L12.592,35.122L12.554,35.135L12.538,35.128L12.525,35.117L12.515,35.104L12.508,35.087ZM13.001,34.831L13.012,34.846L13.015,34.853L13.018,34.863L12.965,34.875L12.856,34.928L12.826,34.928L12.959,34.865L13.001,34.831ZM77.548,33.123L77.564,33.143L77.591,33.192L77.621,33.231L77.629,33.252L77.623,33.274L77.598,33.300L77.550,33.321L77.492,33.333L77.435,33.329L77.390,33.300L77.371,33.252L77.413,33.252L77.525,33.284L77.547,33.271L77.550,33.242L77.542,33.210L77.533,33.187L77.513,33.170L77.454,33.146L77.430,33.131L77.415,33.108L77.401,33.058L77.390,33.044L77.359,33.038L77.330,33.048L77.308,33.068L77.294,33.091L77.356,33.204L77.257,33.153L77.265,33.059L77.334,32.987L77.414,33.005L77.439,33.040L77.450,33.062L77.455,33.084L77.466,33.113L77.494,33.120L77.525,33.118L77.548,33.123ZM47.457,52.650L47.476,52.675L47.505,52.683L47.539,52.678L47.570,52.666L47.502,52.710L47.447,52.679L47.441,52.629L47.509,52.620L47.506,52.626L47.508,52.635L47.494,52.637L47.457,52.650ZM42.146,53.076L42.159,53.088L42.157,53.095L42.133,53.082L42.111,53.063L42.122,53.064L42.146,53.076ZM42.093,53.061L42.096,53.063L42.096,53.063L42.082,53.056L42.064,53.038L42.067,53.036L42.077,53.049L42.093,53.061ZM42.159,53.080L42.128,53.045L42.095,53.025L42.072,53.020L42.060,53.008L42.071,53.000L42.104,53.018L42.157,53.072L42.159,53.080ZM49.696,52.505L49.731,52.498L49.757,52.516L49.766,52.543L49.751,52.562L49.720,52.565L49.697,52.554L49.687,52.533L49.696,52.505ZM50.083,49.447L50.092,49.422L50.102,49.399L50.108,49.443L50.098,49.474L50.086,49.479L50.083,49.447ZM5.039,44.189L5.031,44.182L5.027,44.181L5.019,44.181L5.013,44.184L5.007,44.180L5.002,44.174L5.000,44.166L5.001,44.156L5.002,44.153L5.004,44.147L5.006,44.142L5.007,44.140L5.013,44.133L5.024,44.130L5.033,44.126L5.043,44.126L5.054,44.126L5.063,44.135L5.070,44.141L5.075,44.145L5.079,44.153L5.079,44.154L5.078,44.156L5.077,44.162L5.077,44.169L5.075,44.176L5.073,44.183L5.071,44.187L5.066,44.191L5.060,44.194L5.054,44.195L5.049,44.197L5.044,44.196L5.042,44.193L5.039,44.189ZM13.763,37.412L13.756,37.401L13.751,37.397L13.744,37.394L13.733,37.388L13.718,37.385L13.708,37.389L13.704,37.406L13.710,37.444L13.713,37.465L13.709,37.481L13.700,37.497L13.688,37.498L13.689,37.497L13.692,37.489L13.694,37.474L13.695,37.461L13.693,37.448L13.688,37.425L13.689,37.412L13.692,37.390L13.698,37.375L13.704,37.363L13.713,37.353L13.725,37.353L13.735,37.355L13.747,37.360L13.761,37.374L13.771,37.390L13.772,37.393L13.777,37.413L13.783,37.459L13.799,37.507L13.808,37.528L13.816,37.533L13.823,37.538L13.829,37.545L13.828,37.552L13.828,37.559L13.823,37.566L13.817,37.572L13.811,37.575L13.807,37.577L13.797,37.581L13.780,37.581L13.751,37.576L13.715,37.567L13.694,37.559L13.688,37.550L13.684,37.525L13.685,37.515L13.690,37.508L13.697,37.507L13.700,37.511L13.703,37.518L13.702,37.530L13.703,37.543L13.720,37.550L13.762,37.561L13.772,37.563L13.790,37.564L13.797,37.562L13.800,37.561L13.805,37.554L13.802,37.546L13.800,37.536L13.788,37.525L13.780,37.515L13.781,37.511L13.779,37.506L13.777,37.498L13.772,37.479L13.767,37.456L13.767,37.446L13.767,37.429L13.763,37.412ZM74.930,31.179L74.915,31.161L74.927,31.150L74.951,31.147L74.977,31.152L75.003,31.170L74.994,31.185L74.965,31.190L74.930,31.179Z" fill="currentColor" stroke="none"/>
</svg>