<svg xmlns="http://www.w3.org/2000/svg" viewBox="0 0 100 100" role="img" aria-label="Saint Kitts and Nevis">
  <title>Saint Kitts and Nevis</title>
  <path d="M77.174,65.767L82.842,65.883L87.766,67.543L91.549,71.237L93.745,77.474L94.066,80.052L94.200,86.672L93.745,89.158L92.347,92.619L91.249,93.827L86.302,95.000L73.647,93.966L69.776,83.537L71.883,71.516L77.174,65.767ZM63.210,47.880L66.926,49.994L70.197,54.663L70.220,59.390L64.142,61.701L60.681,59.332L57.753,48.577L52.351,45.209L48.791,41.167L46.284,40.261L37.699,40.749L34.184,40.261L25.521,36.730L13.831,29.460L5.800,20.284L7.963,11.028L9.028,10.052L9.760,9.530L10.570,9.216L11.856,8.902L15.184,7.474L16.360,6.638L17.114,5.000L44.266,21.353L50.943,28.577L55.668,40.285L58.740,45.627L63.210,47.880Z" fill="currentColor" stroke="currentColor" stroke-width="1.5" stroke-linejoin="round"/>
</svg>