<svg xmlns="http://www.w3.org/2000/svg" viewBox="0 0 100 100" role="img" aria-label="South Korea">
  <title>South Korea</title>
  <path d="M51.575,8.406L51.946,9.115L52.525,10.223L52.640,10.709L52.935,11.445L54.031,13.547L54.886,15.754L55.025,15.994L55.471,16.531L55.642,16.981L57.711,19.865L58.514,21.007L59.476,22.048L59.613,22.158L60.257,22.899L60.291,23.212L60.294,23.589L60.370,23.908L60.810,24.148L60.937,24.405L61.300,25.563L61.462,25.831L61.656,25.945L61.818,26.110L62.383,27.201L62.723,27.620L62.840,27.851L62.885,28.095L62.971,28.332L63.570,28.980L63.761,29.512L63.931,30.672L64.164,31.311L64.801,32.186L64.849,32.369L64.777,32.546L64.661,32.715L64.589,32.881L64.584,33.029L64.674,33.509L64.783,34.878L64.898,35.511L65.310,36.803L65.344,37.435L65.214,38.020L64.934,38.552L64.707,39.182L64.710,39.208L64.774,39.810L64.943,40.439L65.011,41.073L64.934,42.381L64.859,42.663L64.475,43.125L64.325,43.385L64.259,43.688L64.207,45.541L64.249,45.792L64.325,45.932L64.408,45.988L64.475,46.065L64.546,46.587L64.638,46.986L64.738,47.056L64.805,47.142L64.758,47.381L64.658,47.516L64.529,47.579L64.407,47.619L64.200,47.789L64.188,47.999L64.450,48.242L64.638,48.452L64.836,48.695L65.088,48.738L65.407,48.488L66.196,47.625L66.348,47.371L66.553,47.534L66.598,47.797L66.686,48.071L66.751,48.376L66.557,48.679L66.110,49.570L66.075,49.968L65.943,51.018L65.621,51.930L65.639,52.500L65.309,53.491L65.066,53.973L64.961,54.214L65.064,54.487L65.178,54.624L65.261,54.772L65.214,55.106L65.188,55.502L65.104,56.097L64.978,56.349L64.774,56.625L64.586,56.728L64.504,56.458L64.431,56.106L64.270,55.842L64.098,55.797L63.995,56.097L64.164,56.136L64.265,56.265L64.314,56.454L64.325,56.672L64.270,56.877L64.143,56.926L64.001,56.939L63.902,57.038L63.920,57.148L63.936,57.433L63.986,57.727L63.871,57.916L63.765,58.104L63.869,58.252L63.952,58.336L63.935,58.544L63.680,58.629L63.439,58.775L63.094,59.120L62.802,59.109L62.739,59.328L62.718,59.611L62.644,59.758L62.561,59.883L62.631,60.092L62.635,60.178L62.494,60.466L62.297,60.890L62.076,61.159L61.956,61.410L61.873,61.581L61.681,61.577L61.539,61.570L61.365,61.599L61.236,61.592L61.101,61.653L60.953,61.671L60.941,61.886L61.040,62.036L61.057,62.215L60.993,62.418L60.715,62.550L60.490,62.352L60.354,62.238L60.252,62.112L59.927,62.465L59.779,62.746L59.731,63.045L59.631,63.117L59.571,62.966L59.423,62.803L59.435,62.948L59.465,63.260L59.370,63.260L59.328,63.157L59.275,63.132L59.148,63.219L59.027,63.295L58.944,63.192L58.844,62.847L58.885,62.536L58.980,62.141L58.998,61.920L58.939,61.866L58.826,62.033L58.447,62.709L58.275,62.721L58.263,62.410L58.275,62.117L58.193,62.105L58.085,62.348L57.997,62.715L57.689,62.679L56.872,62.693L56.825,62.411L56.742,62.262L56.629,62.687L56.505,62.747L56.216,62.616L56.080,62.359L55.932,62.342L55.741,62.491L55.741,61.820L55.689,61.765L55.583,61.809L55.493,61.950L55.486,62.187L55.289,62.031L55.136,61.806L54.966,61.667L54.716,61.768L54.771,61.552L54.668,61.244L54.716,61.130L54.592,60.727L54.519,60.685L54.377,60.816L54.222,61.062L54.219,61.226L54.377,61.558L54.465,61.964L54.516,62.106L54.622,62.290L54.829,62.573L54.860,62.715L54.801,62.919L54.899,62.933L55.053,63.000L55.141,63.024L55.031,63.098L54.922,63.127L54.671,63.127L54.538,63.096L54.501,63.015L54.495,62.913L54.454,62.814L54.334,62.687L54.249,62.617L53.580,62.378L53.392,62.366L52.980,62.446L52.868,62.502L52.876,62.610L53.020,62.814L52.789,62.861L52.364,63.078L51.876,63.213L51.812,63.407L51.788,63.618L51.656,63.756L51.656,63.860L52.894,63.194L53.105,63.180L53.147,63.449L53.222,63.647L53.247,63.823L53.147,64.027L52.988,64.117L52.746,64.158L52.503,64.147L52.343,64.079L52.259,64.229L52.317,64.301L52.429,64.367L52.513,64.498L52.525,64.578L52.529,64.693L52.513,65.012L52.420,65.640L52.534,65.750L52.643,65.714L52.729,65.591L52.767,65.440L52.935,65.640L52.762,65.954L52.449,66.368L52.171,66.453L51.798,66.428L51.804,66.193L52.044,66.190L52.146,66.171L52.207,66.068L51.436,65.981L51.276,65.916L51.098,65.665L51.073,65.539L51.200,65.458L51.486,65.346L51.204,64.772L51.001,64.975L50.797,65.374L50.509,65.393L50.246,65.035L50.109,64.946L49.827,64.916L49.703,64.992L49.634,65.178L49.609,65.413L49.615,65.640L49.352,65.595L48.775,65.621L48.548,65.493L48.522,65.410L48.518,65.185L48.505,65.126L48.448,65.111L48.309,65.137L48.131,65.095L47.839,65.069L47.735,65.012L47.678,64.890L47.684,64.769L47.715,64.654L47.735,64.551L47.715,63.415L47.735,63.232L47.772,63.147L47.835,63.035L47.890,62.888L47.905,62.700L47.711,62.935L47.552,63.210L47.355,63.416L47.056,63.442L47.284,63.985L47.129,64.091L46.793,64.083L46.471,64.289L46.341,63.921L46.262,63.771L46.123,63.661L46.086,64.155L45.953,64.546L45.693,64.782L45.362,64.812L45.230,64.759L45.111,64.728L45.013,64.739L44.938,64.812L44.753,64.657L44.623,64.621L44.542,64.598L44.038,64.603L43.871,64.575L43.804,64.497L43.774,64.380L43.701,64.232L43.558,64.117L43.525,64.235L43.546,64.418L43.574,64.498L43.484,64.781L43.434,64.878L43.319,65.012L42.849,65.393L42.589,65.511L42.402,65.348L42.167,64.864L41.973,64.785L41.838,64.981L41.771,65.288L41.785,65.545L41.900,65.816L42.092,66.166L42.313,66.472L42.510,66.601L42.649,66.784L42.779,66.848L42.934,66.749L43.319,66.382L43.586,66.346L43.813,66.391L44.025,66.405L44.259,66.278L44.245,66.581L44.204,66.795L44.081,67.229L43.938,67.994L43.835,68.171L43.399,68.320L43.053,68.144L42.776,68.084L42.549,68.590L42.476,68.542L42.458,68.546L42.441,68.574L42.379,68.590L42.476,68.792L42.549,69.008L42.640,69.693L42.583,69.820L42.455,69.748L42.252,69.531L41.955,69.493L41.734,69.369L41.591,69.143L41.531,68.800L41.606,68.476L41.768,68.156L41.885,67.854L41.828,67.595L41.728,67.451L41.531,67.019L41.479,66.985L41.409,66.984L41.337,66.972L41.276,66.906L41.270,66.828L41.291,66.735L41.328,66.677L41.140,66.275L41.107,66.125L41.118,66.035L41.173,65.885L41.185,65.806L41.158,65.720L41.100,65.653L41.043,65.634L41.015,65.697L40.973,65.732L40.761,66.278L40.679,66.394L40.636,66.424L40.573,66.431L40.149,66.583L39.903,66.614L39.366,66.601L39.164,66.662L39.328,66.798L39.648,66.940L39.912,67.019L39.912,67.116L39.385,67.287L39.118,67.439L39.072,67.648L39.178,67.736L39.412,67.640L39.536,67.695L39.624,67.841L39.598,67.894L39.531,67.912L39.497,67.953L39.669,68.563L40.028,68.890L40.416,69.143L40.682,69.531L40.555,69.511L40.336,69.510L40.243,69.531L40.777,69.740L40.846,69.910L40.881,70.229L40.767,70.345L40.639,70.455L40.397,70.443L40.243,70.483L39.679,70.125L39.497,70.065L39.336,70.096L39.136,70.190L38.966,70.313L38.895,70.430L38.924,70.479L39.072,70.797L39.246,70.836L39.352,70.907L39.823,70.782L40.082,71.005L39.493,71.556L39.284,71.858L39.056,71.752L38.698,72.029L38.736,72.296L38.895,72.472L38.551,72.474L38.044,71.791L37.869,71.425L37.403,70.911L37.261,70.944L36.769,71.206L36.818,71.363L36.854,71.425L36.651,71.354L36.456,71.315L36.290,71.226L36.175,71.005L36.159,70.780L36.238,70.649L36.514,70.483L36.603,70.402L36.854,70.065L37.008,69.734L37.097,69.621L37.278,69.531L37.266,69.787L37.205,70.035L37.023,70.483L37.387,70.458L37.691,70.346L37.873,70.090L37.869,69.637L37.796,69.460L37.700,69.359L37.627,69.240L37.615,69.008L37.682,68.887L38.040,68.484L38.169,68.553L38.254,68.647L38.275,68.767L38.209,68.913L38.284,69.113L38.390,69.253L38.533,69.300L38.725,69.227L38.806,69.120L38.975,68.750L39.072,68.590L38.900,68.329L38.833,68.056L38.745,67.932L38.510,68.119L38.239,68.235L38.014,68.045L37.708,67.543L37.533,67.824L37.282,68.478L37.108,68.694L36.929,68.767L36.778,68.759L36.467,68.694L36.320,68.746L36.184,68.873L35.959,69.175L35.859,69.261L35.405,69.531L35.159,69.721L35.002,69.815L34.850,69.855L34.756,69.905L34.735,70.031L34.741,70.200L34.718,70.379L34.636,70.505L34.521,70.642L34.463,70.806L34.556,71.005L33.871,71.692L33.893,72.325L33.777,72.431L33.447,72.262L33.337,72.396L33.286,72.547L33.292,72.711L33.362,72.890L33.201,72.839L32.853,72.586L32.377,72.444L32.267,72.376L32.170,72.083L32.222,71.306L32.174,71.005L32.243,70.814L32.228,70.578L32.146,70.372L32.005,70.264L31.870,70.303L31.735,70.433L31.631,70.599L31.589,70.745L31.640,70.957L31.719,71.141L31.723,71.271L31.340,71.401L31.389,71.588L31.667,71.948L31.191,72.229L31.012,72.397L31.197,72.472L31.240,72.506L31.252,72.581L31.238,72.656L31.197,72.690L31.122,72.674L31.006,72.603L30.946,72.586L30.782,72.611L30.749,72.681L30.747,72.796L30.683,72.947L30.586,73.014L30.218,73.109L30.080,73.228L30.030,73.327L29.728,74.362L29.703,74.511L29.703,74.688L29.400,74.622L28.828,74.814L28.685,74.784L28.667,74.603L28.785,74.235L28.761,74.061L28.648,73.961L28.492,73.930L28.167,73.946L28.167,73.851L28.233,73.762L28.254,73.701L28.278,73.460L28.321,73.452L28.376,73.471L28.430,73.433L28.606,73.107L28.639,72.951L28.592,72.794L28.530,72.744L28.439,72.712L28.254,72.690L28.121,72.652L28.103,72.569L28.139,72.494L28.167,72.472L28.172,72.275L28.219,72.086L28.197,71.985L27.997,72.053L28.052,71.683L28.300,71.497L28.630,71.432L28.939,71.425L28.883,71.306L28.806,71.215L28.709,71.151L28.592,71.110L28.788,70.971L28.909,70.807L28.913,70.664L28.761,70.578L28.706,70.601L28.594,70.743L28.515,70.797L28.412,70.796L28.251,70.695L28.167,70.692L28.091,70.762L28.040,70.867L27.997,71.005L27.887,71.030L27.781,71.027L27.660,71.005L27.394,71.010L27.249,71.037L27.066,71.110L27.043,70.867L26.937,70.726L26.642,70.578L26.646,70.530L26.584,70.406L26.509,70.332L26.472,70.430L26.435,70.489L26.348,70.541L26.247,70.561L26.169,70.530L25.911,70.279L25.879,70.264L25.836,70.110L25.857,70.065L25.908,70.045L25.956,69.960L26.006,70.032L26.130,70.034L26.220,69.960L26.169,69.803L25.836,69.637L25.579,69.445L25.557,69.003L25.666,68.512L25.796,68.171L25.809,68.055L25.799,67.913L25.817,67.793L25.918,67.743L26.011,67.753L26.108,67.781L26.181,67.831L26.263,68.014L26.642,68.590L26.523,68.749L26.487,68.902L26.508,69.059L26.549,69.227L26.805,69.960L26.960,70.054L27.575,70.159L27.839,70.344L27.981,70.331L28.082,70.065L27.943,70.086L27.869,70.049L27.614,69.992L27.493,69.801L27.335,69.640L27.379,69.288L27.215,69.318L27.136,69.535L27.007,69.547L26.929,69.261L26.891,68.878L26.985,68.660L26.914,68.392L27.253,68.358L27.774,68.473L27.841,68.596L27.809,68.795L27.812,68.857L27.807,68.916L27.836,69.008L27.965,69.093L28.040,69.197L28.202,69.304L28.425,69.394L28.560,69.527L28.733,69.653L28.864,69.741L28.918,69.673L28.658,69.324L28.812,69.290L29.042,69.424L29.338,69.588L29.696,69.705L29.956,69.637L29.694,69.592L29.482,69.455L29.109,69.122L29.200,69.008L28.931,68.809L28.525,68.280L28.300,68.171L27.990,68.108L27.623,68.132L27.370,67.965L27.057,68.051L26.770,67.955L26.732,67.810L26.910,67.584L27.084,67.511L27.454,67.570L27.926,67.356L28.494,67.781L28.685,67.743L28.733,67.777L28.763,67.808L28.797,67.835L28.854,67.857L28.800,67.562L28.824,67.293L28.973,67.096L29.277,67.019L29.845,67.192L30.136,67.214L30.049,67.019L30.241,66.921L30.344,66.899L30.473,66.906L30.288,66.690L30.006,66.638L29.362,66.697L29.410,66.548L29.394,66.447L29.362,66.342L29.362,66.183L29.407,66.082L29.473,66.007L29.527,65.913L29.531,65.754L29.431,65.528L29.260,65.475L29.076,65.563L28.939,65.754L28.924,65.881L29.006,66.140L29.024,66.278L29.003,66.299L28.854,66.601L28.715,67.123L28.586,67.302L28.339,67.324L28.339,67.289L28.261,67.229L28.312,67.147L28.378,66.987L28.430,66.906L28.261,66.819L28.148,66.870L28.039,66.967L27.875,67.019L27.545,66.944L27.440,66.995L27.419,67.153L27.249,67.150L26.981,67.240L26.851,67.173L26.808,67.010L26.897,66.858L27.151,66.601L27.243,66.460L27.294,66.349L27.315,66.244L27.321,66.125L27.287,65.896L27.330,65.783L27.490,65.640L27.336,65.516L27.200,65.260L27.127,64.960L27.151,64.708L27.324,64.547L27.558,64.384L27.631,64.250L27.321,64.175L27.179,64.201L27.096,64.274L27.030,64.350L26.936,64.384L26.814,64.447L26.833,64.597L26.893,64.773L26.897,64.916L26.723,65.077L26.499,65.092L26.282,65.021L26.126,64.916L26.244,64.834L26.296,64.812L26.187,64.732L26.094,64.637L26.017,64.523L25.956,64.384L26.099,64.310L26.238,64.318L26.549,64.384L26.511,64.055L26.858,63.706L26.766,63.385L26.412,62.889L26.194,62.687L25.956,62.605L26.055,62.949L25.969,63.146L25.793,63.152L25.617,62.919L25.733,62.756L25.414,62.327L25.369,62.072L25.548,61.862L25.802,61.828L26.027,61.944L26.126,62.187L26.284,62.085L26.372,61.909L26.472,61.558L26.560,61.733L26.576,61.880L26.543,62.163L26.487,62.307L26.472,62.395L26.496,62.486L26.546,62.486L26.603,62.464L26.642,62.491L26.691,62.693L26.703,62.779L26.749,62.829L26.897,62.919L27.017,62.962L27.227,62.970L27.321,63.024L27.249,63.199L27.269,63.367L27.358,63.524L27.490,63.661L27.803,62.943L27.836,62.700L27.830,62.427L27.769,62.329L27.536,62.270L27.437,62.214L27.355,62.129L27.228,61.785L26.820,61.304L26.726,61.083L26.754,61.008L26.811,60.945L26.870,60.862L26.897,60.720L26.766,60.627L26.702,60.505L26.726,60.293L26.567,60.357L26.402,60.384L26.048,60.388L26.187,60.215L26.414,60.162L26.672,60.148L26.897,60.092L26.823,60.064L26.784,60.029L26.739,59.998L26.642,59.979L26.702,59.840L26.775,59.759L26.855,59.697L26.936,59.608L26.978,59.492L26.958,59.392L26.918,59.295L26.897,59.189L26.940,58.950L27.048,58.714L27.321,58.295L27.393,58.371L27.575,58.609L27.794,58.676L27.906,58.669L27.875,58.557L27.466,58.088L27.405,57.924L27.496,57.562L27.710,57.113L28.046,56.322L28.330,55.911L28.735,55.765L29.196,55.670L29.591,55.648L29.773,55.502L29.948,55.248L30.195,55.184L30.416,55.434L30.644,55.717L30.810,55.773L30.649,55.200L30.534,54.940L30.346,54.832L28.584,55.121L27.970,54.736L28.008,54.324L28.018,54.159L28.309,54.014L28.562,53.762L28.797,53.492L29.170,53.274L29.627,53.021L29.974,52.534L30.027,52.077L30.218,51.963L30.359,51.874L30.434,51.808L30.879,51.763L31.315,51.817L31.591,52.031L31.789,52.081L31.922,52.310L31.973,52.186L32.016,52.012L32.034,51.832L31.868,51.699L31.754,51.616L31.516,51.498L31.247,51.313L31.028,51.149L30.912,51.090L30.946,50.958L31.049,50.816L31.152,50.731L31.265,50.705L31.958,50.750L32.110,50.737L32.222,50.679L32.298,50.541L32.326,50.428L32.386,50.350L32.556,50.321L32.611,50.271L32.546,50.158L32.414,50.043L32.267,49.989L32.228,50.020L31.316,50.389L31.009,50.404L30.408,50.365L29.815,50.318L29.809,50.054L29.772,49.691L29.657,49.591L29.287,49.464L28.740,49.549L28.687,49.087L29.812,48.966L30.424,48.889L31.043,48.853L31.243,48.733L31.456,48.795L31.717,48.661L32.174,48.314L32.755,48.083L33.001,47.907L33.023,47.685L32.296,47.910L32.040,47.988L31.789,48.161L31.579,48.363L31.347,48.475L31.070,48.522L30.810,48.636L30.621,48.544L30.558,48.437L30.538,48.297L30.473,48.104L30.370,47.938L30.161,47.663L30.049,47.476L30.221,47.337L30.141,47.241L29.971,47.169L29.815,47.118L29.531,46.630L29.313,46.535L29.148,46.630L29.070,46.630L29.063,46.461L28.783,46.282L28.540,46.320L28.465,46.609L28.424,46.708L28.339,46.630L28.388,46.182L28.810,45.969L29.182,45.851L29.703,46.001L29.519,45.698L29.415,45.579L29.277,45.478L29.194,45.458L29.095,45.516L29.024,45.478L28.931,45.377L28.854,45.268L29.115,44.553L29.265,44.238L29.446,44.118L29.309,43.950L28.782,43.789L28.592,43.689L28.779,43.517L29.331,43.383L29.446,43.224L29.367,43.020L29.171,42.969L28.761,42.967L28.676,42.908L28.530,42.730L28.430,42.642L28.430,42.539L28.592,42.539L28.406,42.195L28.630,42.071L28.887,41.994L29.126,41.647L29.637,41.506L29.879,41.377L29.154,41.377L28.980,41.476L28.712,41.873L28.515,41.911L28.392,41.761L28.278,41.478L28.207,41.188L28.215,41.016L28.473,40.715L28.594,40.529L28.554,40.445L28.316,40.531L28.209,40.430L28.111,40.366L28.052,40.354L27.995,40.213L28.049,40.085L28.039,39.944L27.976,39.681L27.900,39.569L27.895,39.505L28.066,39.494L28.315,39.380L28.574,39.388L28.593,39.201L28.667,39.036L28.566,38.903L28.419,38.873L28.220,38.677L28.346,38.497L28.520,38.358L28.402,38.146L28.105,38.090L28.044,37.834L28.139,37.646L28.430,37.600L28.263,37.411L28.206,37.317L28.167,37.182L28.063,37.270L27.887,37.460L27.690,37.544L27.651,37.652L27.658,37.760L27.746,37.893L27.761,38.153L27.670,38.452L27.724,38.854L27.592,39.196L27.480,39.337L27.250,39.158L27.010,39.148L26.771,38.992L26.831,38.164L26.905,37.865L26.762,37.798L26.805,37.409L26.672,37.251L26.472,37.285L26.360,37.485L26.329,37.730L26.239,37.910L25.956,37.914L26.073,38.150L26.299,38.509L26.381,38.761L26.244,38.876L26.263,39.003L26.472,39.284L26.282,39.321L26.121,39.412L25.987,39.543L25.879,39.702L25.881,39.590L25.867,39.476L25.838,39.373L25.796,39.284L25.967,38.910L25.602,38.316L25.711,38.018L25.617,37.600L25.388,37.727L25.059,38.139L24.817,38.228L24.674,38.256L24.547,38.306L24.420,38.315L24.269,38.228L24.233,38.157L24.181,38.014L24.162,37.873L24.223,37.809L24.735,37.814L24.865,37.726L24.862,37.495L24.729,37.254L24.538,37.161L24.338,37.103L24.177,36.972L24.114,37.156L24.077,37.537L24.007,37.715L23.862,37.846L23.813,37.722L23.829,37.338L23.804,36.965L23.839,36.861L24.157,36.461L24.220,36.321L24.269,36.125L24.309,36.274L24.362,36.407L24.429,36.533L24.515,36.658L24.580,36.597L24.662,36.603L24.756,36.636L24.862,36.658L24.732,36.476L24.600,36.240L24.953,36.345L25.099,36.307L25.193,36.125L24.875,36.103L24.680,36.015L24.657,35.825L24.862,35.498L24.581,35.268L24.600,35.054L24.814,34.882L25.117,34.774L25.038,35.148L25.068,35.252L25.239,35.288L25.547,35.283L25.630,35.226L25.711,35.088L25.733,34.743L25.702,34.280L25.759,33.902L26.048,33.814L26.011,34.025L26.020,34.356L26.075,34.692L26.229,35.095L26.154,35.238L26.032,35.365L25.956,35.498L25.961,35.639L26.038,35.865L26.048,35.926L25.981,35.998L25.757,36.143L25.711,36.183L25.723,36.315L25.764,36.455L25.829,36.536L25.918,36.496L26.127,36.305L26.284,36.301L26.642,36.544L26.385,35.994L26.294,35.651L26.426,35.498L26.626,35.751L26.749,35.830L26.805,35.664L26.858,35.612L26.987,35.560L27.236,35.498L27.236,35.402L27.137,35.387L26.897,35.288L26.897,35.193L27.196,35.124L27.372,34.841L27.418,34.497L27.321,34.242L27.212,34.207L26.887,34.201L26.726,34.137L26.606,33.992L26.567,33.850L26.626,33.800L26.805,33.928L26.887,33.690L26.799,33.549L26.608,33.492L26.381,33.509L26.473,33.391L26.596,33.306L26.729,33.283L26.851,33.351L26.969,33.441L27.073,33.462L27.120,33.414L27.066,33.299L27.066,33.185L27.524,33.177L27.743,33.254L27.836,33.456L27.773,33.582L27.654,33.714L27.581,33.888L27.660,34.137L27.769,34.029L27.910,33.953L28.031,33.956L28.082,34.084L28.097,34.192L28.154,34.289L28.167,34.394L28.145,34.434L28.033,34.566L27.997,34.661L27.997,35.346L28.039,35.544L28.130,35.683L28.221,35.735L28.261,35.664L28.312,35.282L28.539,34.550L28.592,34.189L28.658,34.104L28.809,34.205L29.024,34.441L29.112,34.607L29.176,34.760L29.270,34.862L29.446,34.869L29.446,34.774L29.357,34.658L29.249,34.345L29.154,34.189L28.394,33.394L28.339,33.351L28.381,33.186L28.488,33.205L28.615,33.323L28.813,33.568L28.918,33.660L29.045,33.718L29.200,33.718L29.316,33.651L29.327,33.545L29.242,33.447L29.066,33.404L28.830,33.292L28.573,33.054L28.457,32.700L28.430,32.463L28.657,32.456L28.855,32.551L29.033,32.705L29.282,32.880L29.519,33.042L29.616,33.140L29.805,33.266L29.986,33.365L30.110,33.575L30.052,33.782L29.931,33.922L29.956,34.032L30.079,34.265L30.094,34.409L30.049,34.661L30.185,34.567L30.240,34.454L30.273,34.326L30.226,33.950L30.276,33.826L30.355,33.695L30.470,33.482L30.675,33.387L30.867,33.385L31.082,33.412L31.320,33.498L31.621,33.578L31.837,33.718L32.099,33.984L32.117,34.311L31.922,34.974L32.070,34.877L32.304,34.579L32.431,34.556L32.520,34.682L32.572,34.908L32.599,35.346L32.586,35.439L32.528,35.647L32.516,35.768L32.540,35.894L32.650,36.078L32.755,36.555L32.720,36.692L32.516,36.753L32.553,36.883L32.602,36.970L32.674,37.030L32.777,37.077L32.849,36.733L32.972,36.528L33.034,36.310L32.931,35.926L33.183,35.998L33.447,36.030L33.020,35.563L32.893,35.305L33.146,35.193L33.375,35.155L33.914,34.940L34.311,34.641L34.498,34.553L34.633,34.404L34.718,34.032L34.693,33.966L34.578,33.845L34.556,33.814L34.623,33.752L34.689,33.744L34.753,33.746L34.926,33.651L35.036,33.635L35.118,33.582L35.150,33.404L34.407,33.610L34.295,33.766L34.335,34.240L34.245,34.348L33.956,34.441L33.545,34.384L33.057,34.103L32.616,33.675L32.448,33.266L33.192,33.185L33.192,33.089L33.140,33.065L33.023,32.977L33.163,32.958L33.295,32.966L33.416,33.007L33.523,33.089L33.471,32.798L33.301,32.537L33.178,32.239L33.269,31.835L33.128,31.773L33.020,31.914L32.953,32.158L32.931,32.405L32.874,32.672L32.755,32.734L32.638,32.618L32.401,32.667L32.161,32.727L31.589,32.557L31.593,32.384L31.539,32.231L31.584,32.025L31.560,31.762L31.704,31.502L31.876,31.270L32.073,31.176L32.285,31.096L32.599,31.092L32.934,31.002L33.004,30.899L33.023,30.616L32.946,30.560L32.774,30.653L32.516,30.873L32.355,30.841L32.237,30.772L32.173,30.651L32.174,30.464L31.879,30.613L31.640,30.781L31.197,31.254L31.083,31.344L30.940,31.394L30.806,31.390L30.726,31.311L30.731,31.170L30.806,31.033L30.989,30.778L30.628,30.861L30.512,30.825L30.473,30.616L30.540,30.460L30.691,30.372L30.864,30.314L30.989,30.245L31.140,30.042L31.100,29.990L30.768,30.036L30.658,29.969L30.571,29.804L30.488,29.598L30.388,29.407L30.444,29.392L30.479,29.368L30.558,29.294L30.649,29.363L30.786,29.355L31.028,29.294L31.225,29.348L31.389,29.448L31.552,29.500L31.743,29.407L31.728,29.578L31.743,29.744L31.804,29.873L31.922,29.931L32.052,29.880L32.113,29.736L32.174,29.407L32.384,29.099L32.555,29.123L32.749,29.238L33.023,29.199L32.965,29.074L32.889,28.981L32.793,28.918L32.677,28.885L32.504,28.891L32.425,28.774L32.240,28.741L32.090,28.788L31.941,28.779L31.706,28.733L31.317,28.612L30.777,28.209L30.748,28.032L30.989,27.688L31.153,27.526L31.117,27.422L30.466,27.340L30.163,27.720L29.850,27.484L29.977,27.206L30.142,26.963L30.039,26.791L29.816,26.672L29.612,26.566L29.641,26.286L29.600,26.066L29.721,25.860L30.078,25.755L30.184,25.701L30.211,25.574L30.043,25.529L29.998,25.663L29.742,25.690L29.676,25.537L29.649,25.256L29.709,24.885L29.649,24.751L29.552,24.524L29.442,24.346L29.314,24.131L29.172,23.995L29.169,23.789L29.118,23.479L28.985,22.997L28.806,21.737L28.854,21.529L29.019,21.500L29.703,21.739L29.921,21.693L30.103,21.609L30.265,21.578L30.431,21.687L30.492,21.868L30.516,22.150L30.498,22.440L30.431,22.639L30.425,22.998L30.806,23.310L31.289,23.509L31.589,23.527L31.356,23.291L30.641,22.786L30.849,22.242L30.910,21.916L30.858,21.687L30.741,21.447L30.731,21.315L30.716,21.140L30.773,20.833L30.903,20.588L30.810,20.473L30.688,20.490L30.500,20.616L30.414,19.298L30.479,18.932L30.629,18.826L30.858,18.801L31.178,18.682L31.672,18.298L32.733,16.719L32.950,16.504L33.428,16.143L33.633,15.913L33.885,15.306L34.054,14.900L34.207,14.711L34.280,14.621L34.961,14.076L35.752,13.594L36.584,13.267L37.385,13.183L37.780,13.224L39.311,13.094L40.488,13.440L40.862,13.407L41.592,13.192L43.987,12.989L44.089,13.056L44.247,13.279L44.400,13.428L44.570,13.471L45.391,13.303L46.694,13.377L47.539,13.312L48.391,13.017L49.184,12.520L49.845,11.848L50.132,11.450L50.372,11.024L50.534,10.551L50.588,10.007L50.483,9.483L50.456,9.216L50.534,9.018L50.873,8.758L51.575,8.406ZM27.246,41.601L27.340,41.885L27.507,42.142L27.578,42.381L27.460,42.327L26.908,42.358L26.729,42.329L26.696,42.100L26.755,42.018L26.851,41.931L26.901,41.795L26.605,41.981L26.467,41.915L26.505,41.686L26.729,41.377L26.645,41.282L26.475,41.482L26.417,41.344L26.287,41.414L26.355,41.046L26.307,40.484L26.250,40.145L26.122,39.717L26.229,39.577L26.449,39.374L26.686,39.294L26.851,39.557L26.873,39.651L26.819,39.763L26.724,39.838L26.735,39.944L26.945,40.414L26.978,40.564L26.923,40.689L26.988,40.799L27.128,40.882L27.239,41.073L26.978,41.073L26.978,41.168L27.063,41.185L27.239,41.282L27.225,41.379L27.212,41.455L27.246,41.601ZM25.879,21.004L26.123,21.001L26.351,21.035L26.466,21.163L26.384,21.435L26.164,21.621L25.891,21.638L25.374,21.529L25.259,21.573L25.120,21.645L25.000,21.649L24.950,21.482L24.977,21.430L25.120,21.007L25.272,20.862L25.447,20.816L25.646,20.866L25.879,21.004ZM33.959,87.295L34.053,87.494L33.995,87.562L33.875,87.598L33.789,87.705L33.795,87.794L33.874,87.935L33.874,88.018L33.831,88.101L33.725,88.245L33.704,88.290L33.480,88.557L33.058,88.904L32.927,89.194L32.741,89.533L32.732,89.668L32.649,89.868L32.343,89.905L32.225,89.969L31.899,89.939L31.423,90.328L30.168,90.566L29.748,90.935L29.234,91.053L28.684,90.996L28.055,91.117L27.532,90.955L26.353,90.972L25.985,91.150L25.766,91.551L25.565,91.594L25.365,91.495L25.083,91.022L24.706,90.889L24.341,90.494L24.214,90.012L24.435,89.389L24.644,89.002L24.773,88.866L25.205,88.602L25.573,87.941L25.912,87.852L26.069,87.503L26.650,87.296L27.916,86.922L28.234,86.640L29.444,86.509L30.268,86.139L30.465,86.197L31.469,86.030L32.051,85.980L32.436,86.047L32.583,86.275L32.766,86.422L33.365,86.667L33.547,86.857L33.669,87.317L33.789,87.496L33.847,87.426L33.925,87.360L33.959,87.295ZM36.777,71.879L37.165,71.832L37.367,71.848L37.537,71.931L37.672,72.180L37.632,72.465L37.468,72.698L37.239,72.794L36.726,72.890L36.528,72.862L36.383,72.789L36.086,72.586L36.086,72.472L36.153,72.386L36.165,72.315L36.117,72.247L36.001,72.167L36.173,72.038L36.371,71.955L36.777,71.879ZM26.932,71.653L26.951,71.864L26.917,72.100L26.851,72.328L26.606,72.862L26.507,73.024L26.384,73.109L26.363,73.061L26.150,72.857L26.052,72.794L26.052,72.890L26.002,73.136L24.820,73.794L24.677,73.844L24.155,73.888L24.010,73.851L23.983,73.718L24.053,73.605L24.145,73.512L24.180,73.433L24.114,73.338L23.756,73.109L23.756,73.433L23.495,73.119L23.650,72.607L24.003,72.193L24.350,72.167L24.462,71.836L24.535,71.718L24.650,71.587L24.783,71.512L24.902,71.491L24.992,71.423L25.026,71.206L25.171,71.388L25.368,71.409L25.544,71.291L25.620,71.058L25.525,70.866L25.206,70.610L25.289,70.483L25.490,70.468L25.695,70.582L25.873,70.726L26.005,70.797L26.035,70.840L26.072,70.937L26.131,71.042L26.214,71.110L26.271,71.092L26.552,70.911L26.563,71.044L26.932,71.653ZM44.339,68.800L44.468,68.834L44.581,69.016L44.670,69.240L44.775,69.624L44.786,69.848L44.749,70.066L44.659,70.277L44.535,70.407L44.395,70.418L44.256,70.342L43.816,69.886L43.765,69.709L43.839,69.427L43.894,69.354L44.126,69.175L44.168,69.083L44.262,68.694L44.074,68.490L44.096,68.366L44.231,68.303L44.386,68.285L44.519,68.346L44.553,68.489L44.489,68.658L44.339,68.800ZM22.077,68.359L22.225,68.495L22.264,68.559L22.280,68.676L22.252,68.797L22.201,68.909L22.013,69.167L21.926,69.232L21.840,69.239L21.713,69.227L21.712,69.179L21.532,69.072L21.337,68.988L21.282,69.008L21.170,68.752L21.255,68.634L21.622,68.484L21.847,68.170L21.924,68.130L21.971,68.161L22.077,68.359ZM22.302,67.322L22.307,67.648L22.249,67.621L22.108,67.580L22.045,67.543L21.938,67.687L21.768,67.688L21.613,67.655L21.544,67.695L21.519,67.900L21.452,68.081L21.344,68.217L21.197,68.285L21.051,68.267L20.944,68.164L20.879,68.001L20.858,67.799L20.895,67.609L20.994,67.474L21.131,67.384L21.282,67.324L21.451,67.390L21.673,67.341L22.080,67.183L22.162,67.172L22.222,67.182L22.268,67.227L22.302,67.322ZM22.908,65.288L22.962,65.085L23.083,65.054L23.221,65.151L23.319,65.324L23.349,65.545L23.310,65.758L23.215,65.942L23.071,66.068L22.892,66.123L22.789,66.083L22.708,66.012L22.603,65.973L22.198,66.065L22.045,66.068L22.045,65.973L22.168,65.864L22.391,65.503L22.561,65.346L22.640,65.351L22.759,65.384L22.862,65.382L22.908,65.288ZM47.908,66.800L47.972,66.974L47.936,67.128L47.867,67.290L47.830,67.491L47.865,67.807L47.855,67.988L47.784,68.066L47.685,68.123L47.790,68.434L47.738,68.590L47.548,68.626L47.366,68.515L47.170,68.428L46.939,68.537L46.737,68.564L46.614,68.267L46.474,67.648L46.270,67.536L46.108,67.650L45.998,67.908L45.956,68.228L45.880,68.363L45.705,68.368L45.519,68.303L45.405,68.228L45.329,68.090L45.311,67.977L45.307,67.842L45.280,67.648L44.938,66.516L44.892,66.242L44.926,65.973L45.068,65.697L45.163,65.627L45.260,65.609L45.335,65.558L45.393,65.219L45.466,65.122L45.665,64.964L45.829,64.884L46.017,64.943L46.181,65.092L46.277,65.283L46.260,65.485L46.151,65.677L45.872,65.973L45.923,66.079L45.980,66.347L46.050,66.487L46.156,66.562L46.422,66.652L46.571,66.924L46.812,66.881L47.117,66.759L47.405,66.697L47.823,66.768L47.908,66.800ZM56.338,65.973L56.324,66.155L56.268,66.347L56.159,66.455L55.990,66.382L56.059,66.588L56.220,66.935L56.253,67.173L56.158,67.211L55.941,67.134L55.707,67.010L55.566,66.906L55.528,67.120L55.489,67.236L55.274,67.491L55.204,67.690L55.352,67.804L55.556,67.891L55.659,68.009L55.465,68.182L54.566,68.466L54.295,68.484L54.719,68.171L54.543,68.086L54.477,67.950L54.487,67.768L54.550,67.543L54.165,67.743L54.050,67.663L53.995,67.486L54.002,67.309L54.080,67.229L54.389,67.165L54.477,66.996L54.483,66.757L54.550,66.487L54.380,66.382L54.252,66.542L53.807,66.742L53.610,66.906L53.468,66.683L53.292,66.486L53.147,66.265L53.109,65.973L53.189,65.797L53.352,65.635L53.541,65.510L53.703,65.440L54.168,65.343L54.295,65.346L54.499,65.433L54.662,65.541L54.828,65.624L55.059,65.640L55.059,65.545L54.828,65.391L54.697,65.162L54.638,64.901L54.625,64.656L54.789,64.676L55.659,64.175L55.510,63.893L55.580,63.614L55.771,63.459L55.990,63.547L56.045,63.674L56.049,63.822L55.968,64.391L55.974,64.481L56.032,64.661L56.108,64.805L56.162,64.954L56.159,65.155L56.110,65.338L55.914,65.859L56.165,65.769L56.285,65.685L56.326,65.715L56.338,65.973ZM23.586,63.180L23.519,63.197L23.189,63.108L23.071,63.127L23.025,63.093L22.995,63.059L22.963,63.033L22.908,63.024L23.005,62.537L23.071,62.395L23.157,62.345L23.304,62.295L23.441,62.228L23.501,62.129L23.595,61.921L23.820,61.774L24.074,61.713L24.264,61.765L23.886,61.987L23.799,62.116L23.789,62.270L23.844,62.428L24.010,62.700L23.877,62.756L23.738,62.894L23.632,63.055L23.586,63.180ZM29.207,25.420L29.255,25.469L29.304,25.544L29.370,25.605L29.421,25.708L29.452,25.788L29.384,25.816L29.280,25.893L29.237,25.948L29.020,25.999L28.924,25.984L28.792,26.044L28.502,26.169L28.346,26.307L28.259,26.457L27.718,26.858L27.596,26.830L27.483,26.843L27.433,26.831L27.381,26.644L27.283,26.583L27.238,26.632L27.197,26.646L27.183,26.614L27.204,26.560L27.173,26.485L27.097,26.476L27.047,26.541L26.971,26.600L26.878,26.559L26.744,26.526L26.823,26.449L26.796,26.366L26.660,26.239L26.627,26.159L26.674,26.045L26.748,26.023L26.851,26.076L27.414,25.689L27.816,25.646L28.090,25.652L28.343,25.522L28.429,25.178L28.605,25.115L28.748,25.256L28.818,25.283L28.890,25.323L28.960,25.352L29.030,25.356L29.105,25.370L29.207,25.420ZM83.094,24.938L83.306,25.095L83.291,25.485L83.154,25.918L83.009,26.206L82.773,26.323L82.456,26.263L82.149,26.082L81.945,25.840L81.881,25.528L81.986,25.294L82.209,25.148L82.650,25.075L82.946,24.968L83.094,24.938ZM26.642,22.650L26.796,22.770L26.915,22.902L26.940,23.048L26.808,23.214L26.557,23.229L25.714,22.586L25.823,22.489L25.875,22.367L25.945,22.079L25.984,22.005L26.044,21.926L26.114,21.869L26.186,21.851L26.232,21.877L26.263,21.924L26.281,21.989L26.319,22.269L26.333,22.322L26.393,22.423L26.472,22.509L26.642,22.650ZM28.518,24.156L28.423,24.167L28.348,24.133L28.218,23.995L28.124,23.938L28.057,23.961L28.006,24.013L27.958,24.042L27.305,24.077L27.063,23.966L26.808,23.632L27.190,23.534L27.281,23.475L27.386,23.313L27.372,23.239L27.302,23.192L27.239,23.109L26.796,22.283L26.769,22.158L26.814,21.993L26.802,21.267L26.854,21.102L26.974,21.057L27.267,20.725L27.493,20.667L27.691,20.807L27.878,21.024L28.066,21.192L28.465,21.389L28.624,21.544L28.688,21.791L28.673,21.914L28.609,22.122L28.595,22.214L28.623,22.318L28.738,22.525L28.764,22.639L28.805,23.190L28.764,23.318L28.833,23.401L28.903,23.565L28.942,23.632L28.782,23.726L28.642,24.049L28.518,24.156ZM6.478,18.276L6.615,18.441L6.594,18.666L6.423,18.789L6.181,18.646L5.865,18.673L5.799,18.704L5.804,18.865L5.926,18.924L6.071,18.950L6.139,19.008L5.885,19.203L5.378,19.134L5.000,18.819L5.129,18.276L5.445,18.386L6.134,18.150L6.478,18.276ZM38.466,78.986L38.539,79.052L38.628,79.077L38.660,79.130L38.645,79.205L38.469,79.118L38.299,79.077L38.269,79.029L38.227,78.925L38.199,78.797L38.153,78.763L38.115,78.714L38.084,78.610L38.102,78.548L38.096,78.477L38.105,78.413L38.145,78.400L38.190,78.416L38.248,78.397L38.281,78.357L38.299,78.351L38.330,78.417L38.287,78.559L38.309,78.718L38.466,78.986ZM41.233,72.386L41.288,72.539L41.288,72.629L41.194,72.732L40.968,72.882L40.770,72.943L40.699,72.902L40.694,72.771L40.610,72.681L40.485,72.640L40.427,72.561L40.461,72.500L40.325,72.412L40.242,72.349L40.287,72.234L40.279,72.148L40.258,72.080L40.318,72.045L40.406,72.083L40.499,72.138L40.673,72.183L40.676,72.223L40.733,72.208L40.846,72.095L40.960,72.088L41.233,72.386ZM44.350,71.522L44.431,71.568L44.486,71.656L44.459,71.751L44.304,71.806L44.203,71.810L44.177,71.783L44.136,71.722L44.021,71.656L43.840,71.594L43.719,71.499L43.664,71.368L43.603,71.274L43.501,71.218L43.413,71.110L43.480,70.979L43.689,70.877L43.916,70.846L44.078,70.968L44.266,71.341L44.244,71.448L44.250,71.503L44.350,71.522ZM23.456,70.146L23.484,70.175L23.507,70.253L23.496,70.412L23.458,70.582L23.447,70.730L23.377,70.806L23.277,70.882L23.173,70.982L22.928,71.130L22.793,71.151L22.649,71.109L22.605,71.030L22.677,71.005L22.753,71.001L22.815,70.937L22.889,70.879L22.877,70.827L22.601,70.765L22.668,70.684L22.839,70.657L23.019,70.651L23.161,70.541L23.222,70.391L23.162,70.238L23.037,70.035L22.959,69.777L23.053,69.706L23.204,69.830L23.294,69.925L23.447,70.012L23.456,70.146ZM22.686,70.564L22.568,70.619L22.468,70.534L22.419,70.002L22.464,69.706L22.568,69.571L22.726,69.925L22.859,70.122L22.963,70.337L22.928,70.516L22.816,70.555L22.686,70.564ZM15.332,68.740L15.475,68.703L15.499,68.765L15.390,68.875L15.332,68.945L15.300,69.032L15.104,69.265L15.066,69.372L14.984,69.512L14.920,69.601L14.869,69.658L14.748,69.606L14.668,69.386L14.682,69.182L14.750,68.995L14.833,68.830L14.923,68.686L15.027,68.608L15.129,68.587L15.185,68.631L15.226,68.742L15.332,68.740ZM24.374,68.060L24.417,68.194L24.422,68.358L24.350,68.505L24.192,68.520L24.047,68.374L23.932,68.204L23.798,68.202L23.732,68.262L23.688,68.283L23.595,68.292L23.507,68.226L23.486,68.095L23.373,67.884L23.128,67.622L23.077,67.495L23.197,67.527L23.295,67.528L23.387,67.480L23.519,67.466L23.676,67.491L23.792,67.543L23.866,67.625L23.975,67.681L24.123,67.691L24.244,67.721L24.327,67.798L24.371,67.882L24.362,67.958L24.374,68.060ZM24.308,67.148L24.268,67.188L24.226,67.287L24.252,67.494L24.177,67.575L24.029,67.615L23.884,67.531L23.723,67.390L23.514,67.312L23.362,67.221L23.484,67.116L23.793,67.065L23.974,66.985L24.068,66.906L24.187,66.960L24.277,67.085L24.308,67.148ZM23.199,66.683L23.095,66.537L23.009,66.377L23.047,66.256L23.228,66.163L23.377,66.147L23.495,66.215L23.610,66.211L23.644,66.119L23.619,65.939L23.738,65.822L23.900,65.825L23.979,65.817L24.041,65.852L24.100,65.939L24.114,66.034L23.947,66.143L24.007,66.381L23.977,66.526L23.889,66.581L23.767,66.576L23.689,66.665L23.692,66.836L23.652,66.982L23.519,67.058L23.407,67.049L23.380,66.959L23.385,66.897L23.199,66.683ZM47.948,66.339L47.998,66.379L48.067,66.485L47.936,66.518L47.374,66.368L47.067,66.468L46.887,66.446L46.702,66.332L46.593,66.114L46.678,65.878L46.847,65.655L46.955,65.445L47.069,65.298L47.266,65.243L47.329,65.413L47.242,65.661L47.199,65.830L47.211,65.971L47.277,66.016L47.349,65.850L47.495,65.616L47.614,65.595L47.651,65.702L47.714,65.763L47.776,65.798L47.804,65.982L47.875,66.237L47.948,66.339ZM25.272,65.248L25.162,65.297L25.011,65.292L24.949,65.153L24.974,65.007L25.071,64.954L25.284,64.954L25.356,64.984L25.359,65.050L25.319,65.208L25.272,65.248ZM24.428,63.221L24.459,63.290L24.471,63.368L24.468,63.518L24.416,63.567L24.353,63.602L24.286,63.577L24.175,63.452L24.125,63.417L24.058,63.451L23.998,63.444L23.980,63.378L23.933,63.353L23.871,63.355L23.854,63.321L23.944,63.252L23.908,63.232L23.853,63.242L23.799,63.226L23.823,63.157L23.919,63.093L23.998,63.080L24.106,63.131L24.265,63.117L24.375,63.149L24.428,63.221ZM57.508,63.629L57.453,63.946L57.372,64.059L57.308,64.081L57.278,64.014L57.217,63.746L57.123,63.646L57.090,63.568L57.105,63.459L57.062,63.332L56.997,63.211L57.031,63.101L57.162,63.025L57.305,63.010L57.429,63.048L57.514,63.241L57.508,63.629ZM25.417,55.217L25.362,55.160L25.323,55.059L25.347,54.961L25.478,54.893L25.459,54.868L25.398,54.828L25.428,54.792L25.497,54.753L25.543,54.687L25.618,54.674L25.662,54.654L25.641,54.570L25.695,54.572L25.835,54.598L25.929,54.521L25.975,54.470L26.028,54.512L26.055,54.603L26.008,54.717L25.780,54.916L25.626,55.088L25.529,55.163L25.489,55.201L25.417,55.217ZM23.453,29.810L23.365,29.859L23.313,29.842L23.314,29.787L23.353,29.536L23.422,29.329L23.513,29.205L23.613,29.273L23.700,29.418L23.789,29.490L24.095,29.648L24.189,29.751L24.138,29.845L23.980,30.004L23.868,30.051L23.723,30.072L23.599,30.017L23.518,29.878L23.486,29.800L23.453,29.810ZM28.223,29.029L28.351,29.113L28.400,29.298L28.345,29.362L28.212,29.407L28.160,29.508L28.150,29.602L28.042,29.727L27.901,29.760L27.806,29.691L27.703,29.701L27.623,29.651L27.594,29.457L27.618,29.259L27.720,29.119L27.939,29.005L28.223,29.029ZM29.835,29.394L29.866,29.465L29.896,29.596L29.830,29.737L29.197,30.234L28.909,30.269L28.912,30.192L29.047,30.011L29.065,29.908L29.009,29.819L29.171,29.637L29.176,29.454L29.109,29.227L29.017,29.070L28.927,28.968L28.954,28.937L29.158,29.034L29.333,28.884L29.373,28.896L29.336,29.029L29.388,29.149L29.533,29.232L29.770,29.329L29.835,29.394ZM18.342,22.893L18.479,22.910L18.565,23.000L18.527,23.166L18.409,23.281L18.337,23.315L18.297,23.230L18.230,23.040L18.245,22.908L18.342,22.893ZM6.277,20.323L6.376,20.373L6.393,20.469L6.338,20.606L6.299,20.764L6.249,20.896L6.157,20.945L6.060,20.937L5.978,20.966L5.914,21.030L5.881,21.042L5.881,21.002L5.883,20.982L5.843,20.907L5.744,20.781L5.781,20.661L5.990,20.498L6.124,20.362L6.186,20.313L6.277,20.323ZM11.383,78.549L11.322,78.509L11.080,78.281L10.941,78.194L10.911,78.074L10.971,77.913L11.066,77.823L11.204,77.870L11.313,78.009L11.491,78.385L11.503,78.507L11.464,78.575L11.410,78.565L11.383,78.549ZM29.649,76.708L29.758,76.755L29.861,76.887L29.830,76.955L29.779,76.907L29.734,76.900L29.712,76.960L29.666,76.941L29.552,76.877L29.436,76.881L29.370,76.947L29.327,77.030L29.189,77.126L29.065,77.240L28.879,77.355L28.641,77.345L28.509,77.165L28.500,76.933L28.609,76.705L28.829,76.548L29.018,76.548L29.264,76.708L29.336,76.718L29.439,76.685L29.579,76.688L29.649,76.708ZM30.557,76.944L30.606,76.972L30.649,77.047L30.609,77.093L30.555,77.102L30.537,77.193L30.537,77.348L30.474,77.468L30.352,77.502L30.288,77.464L30.266,77.393L30.206,77.344L30.143,77.330L30.115,77.124L30.194,76.770L30.221,76.573L30.140,76.495L30.115,76.425L30.218,76.324L30.224,76.271L30.330,76.272L30.541,76.383L30.570,76.533L30.452,76.637L30.431,76.753L30.557,76.944ZM33.503,76.263L33.622,76.373L33.697,76.460L33.665,76.652L33.634,76.734L33.556,76.877L33.410,76.957L33.225,76.974L33.089,76.901L32.977,76.798L32.895,76.808L32.852,76.884L32.806,76.856L32.755,76.620L32.832,76.461L32.852,76.315L32.901,76.199L32.989,76.113L33.166,76.024L33.378,76.080L33.503,76.263ZM29.813,75.949L29.864,76.024L29.874,76.158L29.788,76.232L29.744,76.407L29.564,76.417L29.464,76.438L29.524,76.548L29.462,76.602L29.273,76.549L29.175,76.456L29.150,76.394L29.098,76.375L29.039,76.362L29.027,76.311L29.091,76.128L29.127,76.059L29.132,76.012L29.108,75.976L29.118,75.942L29.163,75.919L29.193,75.886L29.185,75.842L29.121,75.735L29.162,75.699L29.260,75.731L29.356,75.784L29.615,75.829L29.748,75.900L29.813,75.949ZM23.314,74.573L23.302,74.744L23.322,74.854L23.264,74.942L23.144,74.958L23.074,75.017L23.019,74.991L22.968,74.908L22.925,74.910L22.904,74.986L22.825,74.998L22.569,74.889L22.482,74.762L22.474,74.678L22.526,74.605L22.532,74.530L22.625,74.467L23.053,74.558L23.231,74.530L23.314,74.573ZM32.814,74.564L32.761,74.619L32.649,74.643L32.589,74.555L32.563,74.437L32.497,74.344L32.401,74.302L32.273,74.321L32.125,74.375L32.006,74.374L31.958,74.349L31.911,74.317L31.636,74.193L31.619,74.141L31.746,74.124L31.870,74.087L31.925,74.054L31.970,74.032L32.068,74.047L32.182,74.102L32.319,74.043L32.487,73.903L32.613,73.871L32.686,73.928L32.776,73.952L32.828,73.948L32.881,73.938L33.019,73.953L33.195,73.997L33.304,74.062L33.280,74.175L33.208,74.261L33.189,74.313L33.177,74.420L33.099,74.507L32.992,74.486L32.877,74.508L32.814,74.564ZM35.765,74.006L35.808,74.044L35.832,74.115L35.756,74.132L35.651,74.077L35.528,74.049L35.439,74.085L35.471,74.127L35.547,74.171L35.457,74.263L35.238,74.439L35.111,74.497L35.098,74.362L35.160,74.266L35.239,74.213L35.194,74.152L34.923,74.094L34.959,74.033L34.930,73.956L34.847,73.905L34.639,73.885L34.558,73.857L34.523,73.832L34.552,73.804L34.644,73.785L34.716,73.735L34.831,73.593L34.954,73.488L34.944,73.448L34.983,73.462L35.071,73.549L35.152,73.673L35.199,73.811L35.296,73.855L35.465,73.800L35.590,73.786L35.647,73.837L35.690,73.907L35.765,74.006ZM31.698,74.553L31.722,74.648L31.791,74.819L31.749,74.860L31.688,74.852L31.628,74.834L31.517,74.785L31.422,74.722L31.369,74.732L31.357,74.822L31.297,74.858L31.188,74.807L31.000,74.762L30.767,74.678L30.765,74.579L30.880,74.489L30.850,74.376L30.743,74.347L30.613,74.381L30.452,74.336L30.306,74.238L30.219,74.126L30.183,73.960L30.171,73.770L30.181,73.577L30.230,73.383L30.328,73.235L30.462,73.170L30.534,73.153L30.752,73.131L30.894,73.179L31.028,73.271L31.175,73.449L31.290,73.744L31.325,73.987L31.364,74.099L31.432,74.193L31.470,74.324L31.698,74.553ZM31.679,73.423L31.619,73.419L31.564,73.362L31.610,73.271L31.667,73.181L31.753,72.988L31.928,72.752L32.173,72.613L32.431,72.551L32.586,72.579L32.644,72.670L32.654,72.771L32.590,72.839L32.600,72.876L32.715,72.948L32.810,73.056L32.893,73.179L32.904,73.273L32.813,73.288L32.558,73.209L32.452,73.235L32.390,73.330L32.062,73.485L31.947,73.643L31.911,73.808L31.844,73.856L31.763,73.760L31.765,73.602L31.739,73.468L31.679,73.423ZM50.702,69.490L50.733,69.524L50.715,69.606L50.596,69.755L50.542,69.792L50.462,69.803L50.345,69.777L50.248,69.791L50.116,69.858L50.051,69.920L49.977,69.936L49.965,69.878L50.009,69.780L49.997,69.701L49.942,69.646L49.896,69.635L49.841,69.593L49.846,69.516L49.879,69.446L49.885,69.362L49.934,69.314L50.018,69.293L50.411,69.506L50.412,69.601L50.469,69.607L50.702,69.490ZM51.835,66.722L51.953,66.672L52.144,66.624L52.361,66.609L52.482,66.730L52.515,66.927L52.449,67.050L52.494,67.124L52.441,67.216L52.316,67.165L52.266,67.195L52.270,67.234L52.372,67.254L52.474,67.340L52.424,67.432L52.297,67.594L52.092,67.596L52.002,67.479L51.953,67.359L51.849,67.355L51.873,67.255L51.839,67.154L51.679,67.130L51.622,67.083L51.741,66.987L51.763,66.871L51.643,66.774L51.419,66.696L51.278,66.741L51.193,66.737L51.167,66.636L51.267,66.525L51.412,66.487L51.604,66.566L51.750,66.680L51.835,66.722ZM50.023,66.476L50.209,66.687L50.279,66.806L50.229,66.888L50.096,66.888L50.033,66.922L50.042,67.030L50.005,67.077L49.888,67.043L49.815,67.007L49.678,66.911L49.600,66.791L49.615,66.708L49.700,66.567L49.866,66.439L50.023,66.476ZM26.442,66.048L26.678,66.132L26.703,66.457L26.460,66.685L26.326,66.634L26.405,66.544L26.445,66.456L26.412,66.395L26.066,66.201L26.014,66.173L25.647,66.234L25.485,66.315L25.301,66.345L25.153,66.294L25.077,66.194L25.144,66.113L25.341,66.100L25.594,66.007L25.638,65.949L25.679,65.907L25.691,65.842L25.846,65.793L25.902,65.698L25.908,65.586L25.811,65.451L25.770,65.299L25.905,65.228L26.120,65.281L26.341,65.394L26.499,65.555L26.483,65.646L26.375,65.660L26.186,65.787L26.163,65.858L26.170,65.949L26.187,66.020L26.267,66.046L26.442,66.048ZM25.121,63.243L25.144,63.168L25.059,63.142L24.741,63.088L24.670,63.025L24.561,63.015L24.508,63.003L24.454,62.954L24.383,62.918L24.317,62.835L24.183,62.520L24.259,62.396L24.417,62.343L24.562,62.397L24.678,62.476L24.783,62.439L24.903,62.375L24.979,62.414L25.006,62.481L25.066,62.479L25.143,62.456L25.174,62.556L25.089,62.644L24.974,62.652L24.926,62.708L24.926,62.790L25.062,62.932L25.177,62.985L25.307,62.994L25.381,63.100L25.418,63.236L25.481,63.322L25.503,63.439L25.454,63.588L25.406,63.628L25.374,63.580L25.229,63.546L25.168,63.467L25.119,63.377L25.121,63.243ZM94.982,29.565L95.000,29.579L94.990,29.602L94.971,29.590L94.982,29.565Z" fill="currentColor" stroke="currentColor" stroke-width="1.5" stroke-linejoin="round"/>
</svg>