<svg xmlns="http://www.w3.org/2000/svg" viewBox="0 0 100 100" role="img" aria-label="Kuwait">
  <title>Kuwait</title>
  <path d="M72.041,13.164L72.377,14.074L72.870,14.901L73.332,15.960L73.544,17.107L73.533,19.122L73.683,20.409L74.296,22.199L75.533,24.804L76.986,26.800L78.239,26.747L79.052,29.181L80.147,31.605L82.143,34.478L83.072,36.619L82.875,37.722L81.822,37.875L79.881,37.031L78.886,36.423L78.574,35.924L77.646,35.786L76.489,35.539L75.634,35.392L72.871,35.854L71.471,37.064L70.271,38.272L67.364,39.891L65.365,41.757L64.319,43.418L63.320,44.727L61.166,45.745L60.968,46.599L60.519,47.405L61.574,47.498L63.334,47.184L64.641,46.925L65.695,46.517L66.798,46.109L67.454,46.505L66.103,47.416L66.106,48.068L65.810,48.822L66.970,49.616L67.774,49.611L68.676,49.304L69.729,48.947L70.023,47.643L70.724,47.338L71.630,47.633L72.580,46.927L73.077,46.123L73.828,45.769L74.173,46.086L74.901,47.105L75.001,47.248L75.699,47.880L76.181,48.048L77.500,48.506L79.252,48.148L78.911,50.553L78.864,51.555L79.021,53.157L79.530,55.558L79.934,56.659L80.587,57.711L80.841,58.812L82.008,66.218L82.841,68.037L85.203,71.595L85.916,72.280L87.739,72.890L87.878,73.708L87.678,74.777L87.616,75.869L88.009,76.939L89.304,78.782L89.582,79.441L90.075,80.194L91.189,80.670L93.143,81.094L92.680,81.929L92.484,82.889L92.534,83.881L92.819,84.803L92.102,84.299L91.848,84.064L91.790,84.493L91.836,84.769L92.048,84.975L92.495,85.207L92.141,85.669L91.917,85.802L91.732,85.724L91.532,85.545L91.208,85.545L91.166,86.681L91.601,86.951L92.249,86.619L92.819,85.950L92.950,86.507L93.143,89.119L93.312,89.789L93.698,90.518L94.438,91.512L94.985,92.103L95.000,92.115L86.591,92.202L78.170,92.289L69.748,92.379L61.329,92.469L58.786,92.494L58.392,91.053L57.506,90.118L56.420,89.345L55.409,88.403L54.692,87.173L54.046,85.570L53.590,83.914L53.409,80.986L53.189,79.617L50.563,72.369L48.282,68.447L47.702,67.450L47.697,67.449L47.673,67.443L47.668,67.443L45.025,67.091L40.311,66.466L35.592,65.840L30.874,65.215L26.160,64.591L20.862,63.929L15.578,63.271L10.291,62.614L5.000,61.956L6.375,60.412L13.497,52.415L16.464,47.411L19.498,44.073L20.203,43.010L21.608,39.319L25.147,33.456L26.072,31.417L26.189,30.870L26.371,29.228L26.615,28.448L28.348,25.217L32.376,14.964L33.997,12.659L36.478,10.981L44.109,7.837L46.836,7.506L59.073,7.506L61.784,8.031L72.041,13.164ZM90.522,42.019L91.262,42.311L91.632,42.627L92.179,43.091L92.553,43.584L92.927,44.079L93.422,45.558L93.322,46.109L92.621,45.860L92.169,45.760L91.718,45.461L90.413,44.311L89.510,43.963L88.257,43.765L87.255,43.818L87.292,42.395L87.292,42.390L87.816,41.568L88.641,41.458L90.522,42.019ZM91.208,28.604L90.314,30.261L88.857,32.111L87.115,33.700L85.350,34.571L85.034,34.538L83.303,34.352L82.158,32.953L80.505,29.008L78.536,25.452L78.258,25.121L77.996,24.807L77.048,24.245L76.686,23.677L77.591,23.041L78.142,22.749L79.168,22.035L79.692,21.894L79.869,21.580L80.147,19.706L79.395,19.405L78.998,19.341L78.543,19.363L78.536,19.365L79.006,18.559L79.676,18.618L80.829,19.365L81.364,19.449L82.020,19.401L82.390,19.036L82.120,18.187L82.975,17.809L83.677,17.379L83.854,16.895L83.095,16.366L83.091,16.364L82.552,16.291L81.927,16.581L81.476,16.364L81.268,16.006L81.152,15.436L81.106,14.859L81.152,14.481L81.152,14.477L80.316,14.488L80.201,14.393L80.031,14.249L80.227,13.851L80.829,13.400L81.511,13.115L82.182,13.075L82.829,13.281L83.442,13.734L90.819,24.214L91.532,26.177L91.208,28.604ZM78.239,12.620L77.934,12.910L77.476,13.522L77.267,13.734L75.976,14.415L75.626,14.477L75.275,14.269L75.013,13.902L74.943,13.553L75.599,13.102L76.570,11.807L77.094,11.511L78.944,11.250L78.948,11.250L79.676,11.321L79.530,11.882L78.239,12.620Z" fill="currentColor" stroke="currentColor" stroke-width="1.5" stroke-linejoin="round"/>
</svg>