<svg xmlns="http://www.w3.org/2000/svg" viewBox="0 0 100 100" role="img" aria-label="Laos">
  <title>Laos</title>
  <path d="M32.443,6.033L32.511,6.179L32.570,6.283L32.670,6.614L32.698,6.652L32.784,6.716L32.817,6.762L32.817,6.818L32.784,6.943L32.799,7.007L32.944,7.165L33.116,7.283L33.259,7.419L33.323,7.629L33.515,7.807L34.115,8.105L34.829,8.790L35.141,8.975L35.234,9.061L35.300,9.172L35.398,9.432L35.467,9.550L35.671,9.705L35.920,9.846L36.072,9.978L35.985,10.110L35.956,10.140L35.935,10.173L35.917,10.211L35.908,10.252L36.024,10.648L36.401,10.841L36.843,10.985L37.150,11.238L37.490,12.000L37.584,12.429L37.536,13.044L37.557,13.284L37.606,13.521L37.671,13.685L37.744,13.792L37.772,13.808L37.812,13.786L38.338,13.776L38.446,13.752L38.755,13.550L38.980,13.267L39.099,12.931L39.124,12.087L39.299,11.922L39.496,12.077L39.580,12.556L39.550,12.974L39.582,13.177L39.702,13.303L39.875,13.290L40.597,12.982L40.653,12.941L40.705,12.960L40.787,13.098L40.825,13.213L40.844,13.334L40.834,14.054L40.867,14.308L40.967,14.538L40.975,14.567L40.979,14.598L40.975,14.627L40.967,14.657L40.768,14.846L40.394,15.305L40.178,15.497L39.727,16.230L39.877,16.159L40.077,16.034L40.270,15.943L40.408,15.971L40.396,16.091L40.067,16.618L40.026,16.833L40.017,17.313L39.981,17.489L39.860,17.610L39.523,17.693L39.359,17.819L39.245,18.019L39.323,18.063L39.513,18.044L39.732,18.052L39.881,18.109L40.011,18.199L40.107,18.312L40.158,18.436L40.147,18.531L40.059,18.740L40.059,18.841L40.120,18.946L40.188,18.966L40.270,18.970L40.372,19.030L40.484,19.206L40.486,19.217L40.580,19.618L40.649,19.802L40.695,19.896L40.742,19.968L40.821,20.002L40.967,19.982L41.216,20.090L41.369,20.267L41.594,20.739L41.904,21.412L42.089,21.720L42.373,22.072L42.520,22.214L42.584,22.260L42.689,22.307L42.869,22.331L42.971,22.357L43.055,22.401L43.189,22.498L43.286,22.532L43.403,22.534L43.475,22.512L43.597,22.476L43.687,22.467L43.849,22.513L44.411,22.812L44.689,22.904L44.795,22.918L44.850,22.919L45.102,22.849L45.119,22.844L45.322,22.731L45.392,22.666L45.423,22.600L45.475,22.572L45.613,22.624L45.734,22.744L45.916,23.095L46.024,23.231L46.101,23.288L46.180,23.331L46.266,23.356L46.367,23.360L46.367,23.363L46.983,23.493L47.177,23.604L47.562,24.019L47.780,24.208L47.812,24.250L47.854,24.276L47.964,24.294L48.054,24.282L48.176,24.242L48.284,24.187L48.342,24.135L48.336,24.050L48.235,23.846L48.223,23.747L48.272,23.609L48.333,23.568L48.419,23.557L48.542,23.514L48.743,23.388L48.783,23.317L48.749,23.215L48.728,23.001L48.765,22.831L48.849,22.619L48.952,22.423L49.050,22.307L49.160,22.270L49.362,22.298L49.463,22.289L49.552,22.241L49.699,22.110L49.780,22.060L50.512,21.827L50.712,21.738L50.813,21.712L50.929,21.716L51.294,21.656L51.753,21.124L52.108,21.099L52.176,21.135L52.327,21.247L52.410,21.288L52.504,21.304L52.730,21.308L52.837,21.324L53.120,21.427L53.194,21.474L53.252,21.556L53.356,21.772L53.391,21.824L53.461,21.821L53.685,21.759L53.779,21.752L53.869,21.781L53.968,21.829L54.057,21.890L54.130,21.952L54.249,22.112L54.409,22.434L54.540,22.590L54.623,22.646L54.779,22.705L54.855,22.757L54.908,22.834L54.991,23.016L55.065,23.094L55.267,23.155L55.494,23.149L55.698,23.171L55.833,23.318L55.928,23.647L56.094,23.816L56.608,24.061L57.174,24.252L57.318,24.400L57.307,24.440L57.239,24.687L56.595,25.562L56.377,25.734L56.129,25.811L55.868,25.767L55.622,25.573L55.411,25.984L55.410,25.984L54.839,26.371L54.774,26.568L55.090,26.768L55.496,26.869L56.923,26.838L57.061,26.913L57.289,27.229L57.450,27.344L57.828,27.491L57.973,27.604L58.010,27.687L58.041,27.806L58.056,27.929L58.050,28.023L57.982,28.165L57.905,28.188L57.823,28.184L57.738,28.248L57.700,28.386L57.685,28.599L57.695,28.812L57.735,28.950L58.072,29.119L58.498,29.033L58.948,28.883L59.350,28.863L60.236,29.341L60.245,29.420L60.190,29.533L60.205,29.768L60.339,29.967L60.723,30.218L60.798,30.382L60.765,30.424L60.629,30.451L60.594,30.477L60.591,30.541L60.619,30.633L60.637,30.827L60.669,30.955L60.686,31.083L60.649,31.228L60.611,31.260L60.511,31.347L60.380,31.367L60.085,31.333L59.895,31.362L59.847,31.414L59.829,31.504L59.737,31.650L59.512,31.821L58.967,32.145L58.779,32.381L58.717,32.575L58.768,32.634L59.063,32.652L59.252,32.715L59.325,32.774L59.328,32.869L59.310,33.043L59.209,33.374L59.012,33.520L58.768,33.629L58.529,33.848L58.340,33.906L58.205,33.921L58.080,33.955L57.924,34.068L57.795,34.209L57.713,34.348L57.396,35.186L57.309,35.298L57.216,35.308L57.045,35.209L56.960,35.187L56.870,35.216L56.717,35.319L56.630,35.356L56.398,35.383L56.229,35.347L55.663,35.007L55.411,34.896L55.328,34.843L55.186,34.700L55.092,34.570L54.975,34.481L54.776,34.459L54.595,34.505L54.130,34.800L53.949,34.496L53.601,34.378L53.470,34.264L53.183,34.342L52.764,34.456L52.547,34.459L52.496,34.511L52.429,34.580L52.356,34.736L52.277,34.800L52.072,34.832L51.883,34.767L51.405,34.522L51.291,34.489L51.198,34.529L51.140,34.695L51.165,34.825L51.361,35.372L51.477,35.522L51.788,35.710L51.901,35.805L51.965,35.975L51.978,36.155L52.011,36.327L52.125,36.471L52.126,36.472L52.085,36.596L51.998,36.642L51.891,36.666L51.791,36.726L51.727,36.838L51.686,37.081L51.652,37.185L51.575,37.333L51.570,37.338L51.538,37.299L51.392,37.317L51.155,37.401L50.929,37.519L50.718,37.569L50.601,37.669L50.404,37.969L50.251,38.084L49.893,38.241L49.761,38.342L49.678,38.524L49.779,38.572L49.960,38.567L50.119,38.587L50.251,38.837L50.301,38.911L50.371,38.962L50.622,39.093L50.917,39.306L50.929,39.306L51.140,39.217L51.350,39.206L51.554,39.254L52.660,39.751L53.060,40.027L53.162,40.128L53.198,40.337L53.200,40.524L53.287,40.613L53.575,40.527L53.775,40.577L53.778,40.578L53.922,40.689L54.051,40.825L54.206,40.949L54.397,41.035L54.568,41.090L54.727,41.167L54.895,41.317L55.181,41.750L55.306,41.846L55.484,41.886L55.793,41.854L55.980,41.903L56.147,42.005L56.269,42.127L56.612,42.647L56.729,42.755L57.064,42.937L57.206,43.047L57.478,43.323L57.627,43.426L57.728,43.455L57.921,43.471L58.019,43.507L58.072,43.564L58.188,43.741L58.266,43.808L58.382,43.851L58.790,43.909L59.176,44.028L59.313,44.043L59.886,43.998L60.150,44.075L60.248,44.337L60.352,44.443L60.527,44.489L60.723,44.484L60.891,44.438L61.054,44.470L61.554,44.763L61.796,44.851L61.919,44.842L62.036,44.810L62.151,44.794L62.275,44.833L62.558,45.308L62.775,45.456L62.841,45.544L62.841,45.673L62.841,45.709L62.767,45.884L62.667,45.898L62.550,45.860L62.429,45.876L62.284,46.066L62.153,46.377L62.002,46.958L61.949,47.392L62.057,47.684L62.288,47.909L62.601,48.139L62.775,48.319L62.769,48.446L62.706,48.585L62.713,48.803L62.808,48.940L63.292,49.244L63.349,49.318L63.437,49.480L63.503,49.542L63.608,49.574L63.712,49.562L63.973,49.534L64.022,49.500L64.067,49.507L64.134,49.619L64.150,49.736L64.085,49.987L64.092,50.106L64.197,50.259L64.359,50.374L64.541,50.452L64.699,50.493L64.772,50.530L64.794,50.574L64.822,50.585L64.913,50.525L64.954,50.451L64.999,50.218L65.058,50.121L65.238,50.041L65.450,50.055L65.650,50.137L65.802,50.260L65.863,50.354L65.944,50.639L65.947,50.703L65.926,50.758L65.903,50.798L65.895,50.823L65.941,50.861L66.054,50.888L66.095,50.919L66.259,51.289L66.340,51.362L66.514,51.458L66.597,51.540L66.651,51.655L66.688,51.894L66.725,51.997L66.793,52.071L67.029,52.203L67.029,52.204L67.165,52.481L67.191,52.534L67.072,53.332L67.182,53.687L67.569,54.045L67.826,54.538L68.047,54.842L68.139,55.015L68.265,55.415L68.357,55.583L68.478,55.682L68.998,55.912L69.321,56.127L69.582,56.375L70.231,57.226L70.440,57.447L70.442,57.447L71.308,58.509L72.964,59.947L73.181,60.064L73.326,60.078L73.441,60.004L73.586,59.854L73.630,59.767L73.655,59.677L73.706,59.613L73.832,59.607L73.951,59.660L73.972,59.746L73.962,59.857L73.985,59.985L74.037,60.057L74.175,60.203L74.210,60.265L74.202,60.361L74.122,60.528L74.113,60.638L74.168,60.795L74.469,61.298L74.948,61.751L75.051,61.934L75.045,61.994L74.981,62.105L74.973,62.152L75.142,62.493L75.189,62.591L75.215,62.691L75.215,62.692L75.303,62.766L75.472,62.852L75.665,62.924L75.836,62.954L76.066,63.025L76.342,62.760L76.431,62.934L76.432,63.165L76.447,65.966L76.503,66.222L76.594,66.446L76.820,66.700L77.009,66.817L77.209,66.899L77.343,66.910L77.495,66.983L77.536,67.101L77.489,67.663L77.504,67.783L77.644,68.197L77.798,68.474L78.020,68.648L78.316,68.599L78.315,68.713L78.347,68.760L78.414,68.756L78.513,68.714L78.604,68.644L78.614,68.636L78.633,68.557L78.635,68.476L78.680,68.390L78.949,68.215L79.060,68.107L79.101,67.932L79.315,67.566L79.552,67.576L79.725,67.849L79.753,68.270L79.711,68.619L79.698,68.648L79.667,68.682L79.644,68.727L79.644,68.786L79.683,68.816L79.750,68.793L79.813,68.758L79.847,68.751L79.968,69.036L80.061,69.165L80.233,69.310L80.477,69.447L80.542,69.505L80.588,69.608L80.622,69.844L80.647,69.915L80.754,69.990L80.883,70.006L81.222,69.995L81.612,70.039L81.757,70.085L81.783,70.094L81.967,70.188L82.158,70.330L82.244,70.465L82.350,71.028L82.408,71.162L82.435,71.197L82.495,71.279L82.618,71.394L82.770,71.490L82.905,71.528L83.044,71.552L83.200,71.597L83.459,71.774L83.829,72.254L84.058,72.462L84.336,72.548L84.626,72.514L85.180,72.369L85.374,72.363L85.420,72.414L85.398,72.534L85.397,72.554L85.385,72.734L85.431,72.854L85.499,72.937L85.511,73.031L85.391,73.178L85.245,73.308L84.972,73.809L84.822,73.984L84.677,74.055L84.297,74.123L84.119,74.194L83.428,74.651L83.344,74.674L83.253,74.659L83.160,74.613L83.059,74.582L82.935,74.610L82.826,74.724L82.576,75.293L82.562,75.512L82.676,75.666L83.225,75.994L83.328,76.106L83.372,76.257L83.417,76.692L83.462,76.858L83.558,77.005L83.724,77.135L84.104,77.334L84.232,77.449L84.760,78.421L84.882,78.500L84.952,78.459L85.015,78.364L85.116,78.290L85.187,78.288L85.385,78.339L85.443,78.321L85.493,78.283L85.542,78.295L85.597,78.423L85.628,78.502L85.671,78.544L85.728,78.544L85.800,78.503L85.937,78.575L85.964,78.784L85.958,79.031L86.001,79.219L86.188,79.330L86.615,79.264L86.790,79.311L86.822,79.397L86.836,79.433L86.857,79.836L86.924,80.023L87.043,80.157L87.487,80.500L87.632,80.662L87.697,80.808L87.699,80.969L87.624,81.467L87.596,81.531L87.531,81.551L87.482,81.501L87.424,81.474L87.330,81.563L87.293,81.661L87.270,82.004L87.215,82.203L87.112,82.359L87.050,82.420L86.908,82.530L86.864,82.610L86.867,82.713L86.958,82.902L86.949,83.014L86.839,83.129L86.685,83.144L86.413,83.096L86.251,83.112L86.085,83.163L85.800,83.249L85.614,83.267L85.519,83.358L85.510,83.500L85.577,83.667L85.562,83.823L85.603,83.961L85.682,84.077L85.800,84.167L85.957,84.251L86.556,84.723L86.641,84.813L86.613,84.923L86.466,85.126L86.050,85.537L85.971,85.678L86.005,85.840L86.105,86.004L86.154,86.156L86.042,86.289L86.106,86.391L86.208,86.475L86.283,86.575L86.265,86.723L86.130,86.840L85.800,87.335L85.645,87.413L85.581,87.482L85.502,87.720L85.468,87.779L85.397,87.879L85.367,87.964L85.362,88.047L85.373,88.136L85.373,88.225L85.343,88.305L85.214,88.413L85.100,88.408L84.867,88.302L84.680,88.261L84.583,88.223L84.395,88.048L84.125,87.849L83.942,87.836L83.792,87.973L83.616,88.229L83.565,88.275L83.450,88.346L83.410,88.398L83.395,88.467L83.374,88.677L83.269,88.890L83.184,88.937L83.032,88.911L83.031,88.911L83.029,88.910L83.028,88.910L82.879,88.909L82.798,89.034L82.742,89.213L82.661,89.377L82.389,89.629L82.084,89.838L81.862,89.910L81.756,89.853L81.671,89.729L81.508,89.595L81.382,89.539L81.351,89.548L81.344,89.601L81.054,89.969L80.860,90.280L80.817,90.306L80.692,90.333L80.583,90.601L80.579,90.666L80.543,90.720L80.418,90.755L80.317,90.737L80.131,90.617L80.040,90.586L79.935,90.594L79.877,90.624L79.830,90.669L79.444,90.893L79.295,90.887L79.156,90.831L79.017,90.730L78.755,90.460L78.406,89.952L78.329,89.796L78.282,89.730L78.205,89.647L78.162,89.610L77.437,89.384L77.314,89.314L77.148,89.219L76.951,88.911L76.849,88.848L76.620,88.796L76.534,88.742L76.499,88.642L76.446,88.310L76.407,88.177L76.282,87.977L76.222,87.921L76.009,88.124L75.936,88.161L75.870,88.167L75.821,88.197L75.805,88.300L75.808,88.401L75.830,88.476L75.874,88.527L75.947,88.554L75.947,88.619L75.793,88.610L75.666,88.576L75.558,88.564L75.465,88.619L75.443,88.663L75.427,88.739L75.436,88.809L75.551,88.874L75.508,88.946L75.435,89.009L75.395,89.016L75.293,89.221L75.040,89.329L74.504,89.404L74.438,89.413L74.306,89.451L74.169,89.441L74.073,89.416L73.467,89.033L73.408,88.969L73.316,89.147L73.215,89.693L73.148,89.919L73.001,90.139L72.842,90.236L72.652,90.258L72.302,90.238L72.063,90.194L71.908,90.204L71.800,90.196L71.749,90.202L71.720,90.245L71.695,90.410L71.668,90.459L71.496,90.467L71.057,90.312L70.857,90.276L70.811,90.391L70.795,90.512L70.809,90.631L70.857,90.743L71.050,90.904L71.161,91.072L71.195,91.273L71.156,91.534L71.240,91.745L71.378,91.879L71.720,92.101L71.875,92.283L72.129,92.905L72.264,93.061L72.424,93.201L72.556,93.354L72.605,93.551L72.532,93.746L72.376,93.882L72.197,94.005L72.053,94.153L71.933,94.313L71.951,94.805L71.805,94.989L71.606,95.000L71.090,94.865L70.857,94.855L70.610,94.957L70.364,94.983L70.116,94.925L70.076,94.902L69.851,94.776L68.995,94.007L68.826,93.749L68.714,93.458L68.565,93.201L68.286,93.048L68.178,93.043L67.964,93.076L67.821,93.060L67.661,92.990L67.560,92.923L67.458,92.917L67.302,93.033L67.229,92.847L67.076,92.683L66.897,92.603L66.746,92.664L66.688,92.581L66.622,92.507L66.545,92.444L66.465,92.390L66.187,92.592L66.039,92.677L65.874,92.723L65.637,92.884L65.359,92.982L65.063,93.025L64.780,93.022L64.618,93.001L64.518,92.960L64.435,92.880L64.181,92.515L64.107,92.468L63.964,92.422L63.895,92.384L63.712,92.200L63.119,91.278L63.025,91.061L62.988,90.818L62.989,90.487L63.127,90.492L63.648,90.367L63.828,90.291L63.899,90.210L64.019,89.988L64.089,89.927L64.188,89.937L64.363,90.061L64.491,90.068L64.548,90.022L64.736,89.831L64.815,89.765L64.931,89.726L65.194,89.676L65.297,89.622L65.340,89.548L65.426,89.308L65.475,89.205L65.540,89.127L65.772,88.911L66.089,88.479L66.209,88.197L66.235,87.887L66.092,87.192L66.108,86.872L66.185,86.390L66.150,86.289L66.041,86.102L66.026,85.866L66.073,85.628L66.150,85.435L66.196,85.403L66.334,85.371L66.377,85.332L66.374,85.276L66.303,85.129L66.292,84.970L66.311,84.908L66.352,84.897L66.509,84.904L66.563,84.882L66.639,84.649L66.474,84.316L66.572,84.116L66.967,83.860L67.061,83.721L66.796,83.667L66.795,83.667L66.793,83.667L66.668,83.568L66.376,83.142L66.362,83.100L66.365,82.983L66.342,82.931L66.299,82.920L66.170,82.944L66.117,82.931L65.874,82.674L65.655,82.630L65.572,82.456L65.574,82.221L65.613,81.996L65.680,81.783L65.766,81.637L66.173,81.201L66.449,80.972L66.734,80.783L66.772,80.766L66.780,80.484L66.747,80.259L66.712,80.214L66.518,80.252L66.327,80.257L66.124,80.219L65.968,80.116L65.910,79.924L65.997,79.692L66.196,79.559L66.660,79.408L67.015,79.179L67.053,79.140L67.173,79.018L67.234,78.829L67.250,78.386L67.293,78.157L67.538,77.506L67.639,76.968L67.538,76.471L67.259,76.057L66.817,75.764L66.387,75.616L66.168,75.588L65.759,75.623L65.616,75.602L65.493,75.531L65.367,75.402L65.258,75.236L64.864,74.372L64.745,73.981L64.764,73.610L65.003,73.337L65.211,73.252L65.318,73.191L65.376,73.113L65.369,73.083L65.358,73.032L65.282,72.976L65.187,72.938L64.027,72.639L63.617,72.620L63.516,72.603L62.218,72.130L61.942,72.030L61.731,71.865L61.575,71.652L61.477,71.402L61.440,71.127L61.449,70.660L61.415,70.433L61.306,70.233L61.226,70.162L61.033,70.052L60.946,70.003L60.868,69.944L60.675,69.733L60.595,69.666L60.328,69.511L60.236,69.429L60.172,69.334L60.126,69.226L60.034,68.899L59.951,68.711L59.846,68.537L59.712,68.373L59.547,68.230L58.987,67.922L58.812,67.772L58.706,67.588L58.656,67.374L58.646,67.137L58.691,66.687L58.798,66.247L58.936,65.856L58.950,65.742L58.944,65.627L58.729,64.761L58.724,64.641L58.740,64.546L58.745,64.515L58.813,64.276L58.831,64.156L58.825,64.030L58.790,63.915L58.691,63.697L58.658,63.582L58.625,63.239L58.565,62.620L58.615,62.387L59.258,60.846L59.304,60.612L59.342,60.127L59.323,59.499L59.359,58.987L59.352,58.860L59.323,58.737L59.087,58.205L59.049,58.148L58.977,58.081L58.807,57.986L58.729,57.927L58.658,57.841L58.504,57.540L58.308,57.242L58.189,57.116L57.716,56.814L57.529,56.748L55.983,55.930L55.692,55.662L55.396,55.307L55.352,55.225L55.290,55.017L55.263,54.951L55.223,54.886L55.077,54.705L54.853,54.250L54.702,54.053L54.054,53.661L53.998,53.611L53.961,53.578L53.882,53.480L53.822,53.368L53.730,53.050L53.290,52.068L53.214,51.963L53.162,51.890L52.540,51.322L52.408,51.159L52.294,50.957L51.870,49.899L51.374,49.021L51.189,48.818L50.944,48.690L50.703,48.665L50.484,48.722L50.292,48.851L50.129,49.040L50.088,49.104L50.052,49.148L50.006,49.175L49.933,49.187L49.771,49.153L49.684,49.050L49.616,48.916L49.515,48.795L49.368,48.693L49.210,48.610L49.042,48.551L48.869,48.522L48.290,48.490L48.155,48.453L47.588,48.194L47.501,48.139L47.416,48.059L47.274,47.958L46.693,47.801L46.437,47.777L46.184,47.714L46.098,47.706L45.956,47.730L45.907,47.732L45.724,47.697L45.178,47.528L45.077,47.528L44.282,47.693L44.040,47.799L43.823,47.961L43.657,48.172L43.556,48.426L43.553,48.495L43.570,48.537L43.596,48.575L43.618,48.634L43.702,48.669L44.118,48.958L44.179,49.044L44.168,49.140L44.078,49.218L43.950,49.262L43.583,49.326L43.366,49.407L43.070,49.455L42.986,49.485L42.901,49.538L42.792,49.672L42.728,49.835L42.671,50.186L42.606,50.409L42.487,50.565L42.321,50.671L42.112,50.744L42.116,50.740L42.122,50.730L42.127,50.723L42.149,50.677L42.143,50.680L42.099,50.704L42.021,50.744L41.935,50.841L41.886,50.981L41.870,51.172L41.953,51.786L41.904,51.888L41.806,51.956L41.717,52.106L41.603,52.256L41.429,52.324L41.263,52.278L40.955,52.077L40.776,52.031L40.613,52.064L39.757,52.451L39.611,52.538L39.550,52.650L38.974,52.969L38.608,53.307L38.457,53.398L38.103,53.485L37.967,53.570L37.913,53.731L37.970,53.922L38.065,54.074L38.065,54.150L37.845,54.121L37.333,53.868L37.192,53.828L37.195,53.731L37.362,53.047L37.235,52.628L36.916,52.464L36.064,52.461L35.700,52.391L35.368,52.219L35.099,51.990L34.912,51.751L34.614,51.770L34.317,51.618L33.818,51.172L33.584,50.856L33.509,50.813L33.471,50.778L33.170,50.563L33.076,50.383L33.038,50.207L32.974,50.057L32.791,49.954L32.331,49.930L32.043,49.916L31.971,49.971L31.814,50.141L30.308,51.769L30.103,51.835L29.718,51.611L29.329,51.504L29.235,51.386L29.173,51.386L29.008,51.544L28.927,51.735L28.839,52.181L28.597,52.871L28.562,53.079L27.636,53.261L27.474,53.368L27.387,53.569L27.279,53.686L27.052,53.541L27.052,53.701L27.027,53.838L26.982,53.953L26.917,54.043L26.733,54.112L26.618,54.156L26.840,54.338L26.643,54.475L26.306,54.619L26.110,54.824L26.070,54.906L26.022,54.984L25.984,55.068L25.963,55.091L25.872,54.891L25.854,54.824L25.841,54.778L25.816,54.770L25.779,54.788L25.734,54.824L25.602,54.952L25.452,54.965L25.301,54.951L25.163,54.997L25.102,55.087L25.167,55.118L25.270,55.125L25.323,55.141L25.314,55.205L25.299,55.235L25.121,55.463L25.058,55.487L24.983,55.481L24.857,55.525L23.759,56.436L23.575,56.684L23.375,57.074L23.312,57.159L23.193,57.206L23.060,57.230L22.958,57.291L22.934,57.447L22.764,57.691L22.710,57.747L22.616,57.804L22.582,57.810L22.539,57.781L22.254,57.662L21.957,57.484L21.789,57.447L21.651,57.270L21.487,57.123L21.306,57.002L21.113,56.903L20.677,56.820L20.320,56.753L20.162,56.629L20.158,56.397L20.295,56.176L20.629,55.782L20.837,55.307L20.858,55.226L20.906,55.036L20.886,54.824L20.863,54.718L20.885,54.632L20.947,54.564L21.041,54.513L21.050,54.491L21.053,54.468L21.050,54.446L21.041,54.424L20.976,54.350L20.950,54.281L20.969,54.216L21.041,54.159L21.245,54.070L21.300,53.936L21.269,53.578L21.306,53.366L21.380,53.257L21.694,53.081L21.957,52.850L22.114,52.595L22.243,52.322L22.416,52.039L22.547,51.934L22.867,51.734L22.943,51.598L22.912,51.451L22.742,51.060L22.708,50.858L22.748,50.669L22.897,50.275L22.919,50.110L22.884,50.018L22.819,49.965L22.747,49.924L22.689,49.864L22.610,49.653L22.576,49.581L22.572,49.211L22.594,49.104L22.646,49.028L22.816,48.840L22.846,48.771L22.747,48.631L22.117,48.338L22.036,48.260L21.806,48.042L21.666,47.853L21.599,47.671L21.652,47.461L21.942,47.161L22.014,46.959L22.033,46.853L22.073,46.804L22.713,46.449L22.845,46.319L22.883,46.204L22.873,45.970L22.900,45.867L22.969,45.798L23.144,45.733L23.231,45.689L23.508,45.424L23.636,45.252L23.690,45.092L23.637,44.926L23.402,44.691L23.348,44.501L23.382,44.330L23.529,43.992L23.575,43.813L23.522,43.185L23.538,42.983L23.618,42.794L23.861,42.514L23.960,42.357L24.057,42.015L24.126,41.864L24.550,41.454L24.465,41.143L24.198,40.841L23.763,40.455L23.646,40.326L23.580,40.163L23.557,39.916L23.588,39.301L23.385,38.424L23.382,38.359L23.399,38.306L23.402,38.246L23.367,38.159L23.310,38.117L23.141,38.082L23.075,38.034L23.015,37.721L23.069,37.293L23.219,36.920L23.442,36.778L23.671,36.715L23.805,36.483L23.857,36.186L23.837,35.930L23.799,35.792L23.750,35.688L23.671,35.605L23.539,35.531L23.369,35.486L23.263,35.514L23.174,35.578L23.059,35.641L22.818,35.708L22.539,35.742L22.252,35.719L21.977,35.616L21.539,35.346L21.323,35.265L21.041,35.235L20.158,35.245L20.100,35.234L20.048,35.241L19.953,35.301L19.914,35.349L19.793,35.559L19.389,36.042L18.932,36.472L18.836,36.609L18.762,36.582L18.689,36.477L18.599,36.376L18.455,36.294L17.643,35.983L17.382,35.996L17.172,36.153L17.060,36.337L16.980,36.471L16.807,36.482L16.521,36.398L16.234,36.273L16.059,36.163L15.936,36.036L15.907,35.881L15.907,35.711L15.873,35.537L15.792,35.399L15.589,35.147L15.507,35.016L15.448,34.835L15.424,34.492L15.391,34.328L15.324,34.205L15.220,34.071L15.158,33.991L15.112,33.848L15.155,33.657L15.395,33.338L15.523,33.169L15.632,32.877L15.702,32.783L15.780,32.732L15.973,32.651L16.059,32.593L16.156,32.432L16.195,32.261L16.242,31.897L16.500,31.228L16.747,30.482L16.819,30.063L16.800,29.523L16.779,29.419L16.733,29.432L16.681,29.571L16.607,29.610L16.443,29.552L16.279,29.451L16.205,29.362L16.172,29.305L16.004,29.233L15.927,29.180L15.890,29.121L15.839,28.975L15.791,28.893L15.534,28.556L14.964,27.310L14.765,27.090L14.388,26.988L14.026,27.071L13.729,27.270L13.532,27.520L13.418,27.898L13.398,27.917L13.343,27.926L13.122,28.008L13.091,28.027L12.998,28.111L13.005,28.520L12.853,28.672L12.675,28.673L12.495,28.579L12.359,28.416L12.303,28.210L12.323,27.847L12.306,27.667L12.301,27.526L12.328,27.381L12.441,27.249L12.539,27.103L12.581,26.918L12.603,26.693L12.695,26.364L12.821,25.432L12.928,25.069L13.057,24.792L13.057,24.655L13.129,24.487L13.350,24.175L13.398,24.040L13.439,23.866L13.542,23.738L13.812,23.503L14.069,23.188L14.225,23.052L14.618,22.936L14.741,22.795L14.832,22.629L14.968,22.494L15.156,22.457L16.025,22.598L16.449,22.716L16.681,22.709L17.003,22.603L17.301,22.439L17.389,22.371L17.577,22.228L17.831,21.986L17.831,21.921L17.542,21.861L16.656,22.014L16.472,21.882L16.493,21.674L16.585,21.248L16.607,21.023L16.647,20.970L16.833,20.846L16.886,20.776L16.871,20.693L16.748,20.404L16.932,20.324L17.379,20.231L17.566,20.124L17.686,19.961L18.202,19.021L18.518,17.748L18.533,17.622L18.527,17.507L18.561,17.423L18.691,17.390L18.784,17.396L18.873,17.415L18.956,17.449L19.031,17.501L19.225,17.573L19.450,17.543L19.816,17.390L19.927,17.301L20.262,16.960L20.400,16.915L21.331,16.433L22.724,15.307L22.863,15.241L22.903,15.083L22.882,14.895L23.036,14.905L23.156,15.077L23.168,15.386L22.974,16.239L23.005,16.461L23.082,16.515L23.369,16.669L23.554,16.801L23.597,16.792L23.620,16.793L23.637,16.877L23.518,17.177L23.364,17.390L23.385,17.454L23.473,17.546L23.493,17.584L23.480,17.729L23.380,18.116L23.493,18.241L23.637,18.528L23.732,18.669L23.885,18.809L24.040,18.866L24.214,18.845L24.425,18.754L24.907,18.428L25.098,18.358L26.231,18.145L26.455,18.147L26.669,18.186L27.006,18.299L27.073,18.305L27.116,18.338L27.158,18.454L27.142,18.549L27.086,18.649L27.049,18.750L27.094,18.849L27.241,18.873L27.634,18.705L27.825,18.707L27.975,18.835L28.155,19.162L28.314,19.275L28.450,19.281L28.645,19.249L28.830,19.189L28.937,19.112L28.954,19.009L28.971,18.904L28.905,18.755L28.870,18.636L29.005,18.516L29.229,18.563L29.320,18.547L29.401,18.494L29.461,18.426L29.482,18.373L29.496,18.341L29.505,18.232L29.470,18.098L29.391,17.984L29.280,17.890L29.154,17.816L28.636,17.626L28.496,17.501L28.423,17.323L28.427,17.145L28.527,16.754L28.568,15.717L28.713,15.494L28.753,15.295L28.618,14.877L28.633,14.704L28.779,14.612L28.996,14.582L29.204,14.522L29.330,14.336L29.307,14.127L29.164,14.041L28.978,13.991L28.829,13.888L28.793,13.778L28.826,13.559L28.818,13.457L28.761,13.370L28.599,13.230L28.556,13.166L28.551,13.007L28.587,12.820L28.786,12.234L28.781,12.131L28.533,11.910L28.484,11.835L28.359,11.571L28.131,11.266L28.103,11.177L28.097,11.096L28.079,11.014L28.010,10.923L27.655,10.823L27.438,10.689L27.343,10.543L27.279,10.124L27.198,9.908L26.926,9.474L26.831,9.255L26.827,9.024L26.895,8.839L26.946,8.636L26.892,8.356L26.768,8.173L26.461,7.809L26.436,7.629L26.595,7.440L26.684,7.356L26.787,7.301L26.914,7.300L27.034,7.338L27.156,7.357L27.288,7.298L27.337,7.215L27.474,6.779L27.500,6.612L27.512,6.567L27.685,6.392L27.711,6.378L27.731,6.170L27.716,5.965L27.725,5.753L27.819,5.524L27.960,5.354L28.164,5.180L28.403,5.047L28.688,5.000L28.776,5.000L28.821,5.005L29.118,5.250L29.446,5.941L29.693,6.182L29.945,6.229L30.038,6.093L30.080,5.880L30.181,5.696L30.358,5.631L30.792,5.621L31.004,5.534L31.211,5.510L31.406,5.524L32.017,5.667L32.113,5.702L32.211,5.765L32.257,5.852L32.264,5.947L32.331,6.033L32.443,6.033Z" fill="currentColor" stroke="currentColor" stroke-width="1" stroke-linejoin="round"/>
</svg>