<svg xmlns="http://www.w3.org/2000/svg" viewBox="0 0 100 100" role="img" aria-label="Lebanon">
  <title>Lebanon</title>
  <path d="M15.813,93.156L15.813,93.066L15.869,92.824L15.660,92.855L15.593,92.788L15.593,92.649L15.556,92.481L15.839,91.864L16.249,91.242L16.741,90.757L17.754,90.326L18.082,89.777L18.365,89.148L18.678,88.682L18.403,88.307L18.678,88.255L18.827,88.327L18.991,88.682L20.370,85.668L20.571,84.023L19.617,82.623L20.597,81.885L21.287,80.859L22.151,78.449L22.263,77.722L22.293,76.236L22.464,75.469L23.299,74.208L23.590,73.526L23.403,72.835L25.784,70.992L26.981,69.727L27.495,68.095L27.592,67.384L29.339,62.597L29.052,62.220L29.764,61.597L30.301,59.332L31.072,58.834L31.042,58.172L32.850,53.732L33.032,52.641L33.110,50.352L33.122,49.950L32.973,49.300L32.689,48.770L32.537,48.317L32.782,47.881L33.274,47.715L33.878,47.814L34.403,48.043L34.683,48.292L34.996,48.292L35.439,48.043L36.091,48.090L36.520,48.119L37.187,47.881L37.478,47.511L37.914,46.414L38.152,45.963L38.167,45.734L38.100,45.651L37.813,45.624L38.204,45.162L38.756,43.842L39.087,43.295L39.389,43.187L40.149,43.176L40.339,42.949L40.317,42.447L40.105,42.186L39.859,42.029L39.713,41.823L39.702,40.476L40.451,38.060L40.652,36.347L40.507,35.701L39.859,34.489L39.713,33.711L39.713,31.826L39.859,31.422L40.507,30.951L40.652,30.666L40.679,28.931L40.895,27.208L41.454,25.747L42.530,24.811L43.313,25.457L44.062,24.306L44.755,22.556L45.370,21.420L47.908,20.031L48.705,18.954L47.874,17.621L47.874,17.278L48.724,17.502L52.357,16.558L54.805,14.235L55.543,13.701L56.012,13.212L56.269,12.436L56.307,9.846L56.180,8.681L55.897,7.705L55.405,7.079L55.988,7.058L56.391,7.169L56.727,7.325L57.526,7.972L58.520,8.260L59.566,8.289L60.777,8.118L61.918,8.199L63.920,8.343L64.119,8.280L64.668,7.950L64.947,7.881L65.179,7.981L65.718,8.383L65.997,8.480L68.761,8.326L69.215,8.121L69.637,7.670L69.807,7.163L69.826,6.083L69.977,5.661L70.928,5.000L71.610,5.445L72.689,7.394L73.612,8.218L74.695,8.588L75.831,8.565L76.939,8.209L76.759,9.947L76.432,10.204L75.945,9.811L75.268,9.617L74.591,10.036L74.497,10.697L74.554,11.509L74.345,12.375L73.451,13.077L72.197,13.752L71.430,14.564L71.887,15.420L72.017,15.664L72.140,15.703L72.268,15.713L72.396,15.703L72.519,15.664L73.408,15.396L74.748,15.335L76.002,15.435L76.631,15.656L76.631,15.664L76.924,16.586L77.379,17.299L77.994,17.812L78.770,18.148L79.433,18.969L79.764,19.187L80.100,19.070L80.829,19.593L81.080,20.076L81.042,20.687L80.881,21.592L80.758,21.972L80.592,22.233L80.445,22.520L80.408,22.973L80.531,23.414L80.758,23.842L81.747,25.230L82.234,25.761L82.561,25.904L82.897,25.878L83.195,25.949L83.432,26.378L83.337,27.095L82.897,27.703L82.551,28.416L82.769,29.453L83.067,30.247L84.175,31.344L84.419,31.882L84.444,31.937L83.152,33.362L82.092,35.142L80.043,36.896L79.149,38.028L78.884,38.808L78.794,39.456L78.543,39.966L77.795,40.341L77.166,40.372L76.181,40.005L75.656,39.959L74.691,40.451L73.167,42.390L71.345,43.992L70.626,44.881L69.996,45.867L69.017,47.859L69.097,48.059L69.390,48.586L69.679,48.922L71.028,49.977L72.826,50.284L73.617,50.773L73.706,51.906L73.153,52.635L72.273,52.778L70.545,52.365L68.193,51.203L67.398,51.049L66.702,51.313L66.064,51.835L65.325,52.281L64.369,52.303L64.000,52.068L63.418,51.332L63.115,51.155L61.473,52.167L60.678,52.510L59.826,52.734L59.093,53.040L58.638,53.637L58.023,54.813L56.509,56.114L55.879,57.060L55.600,57.688L54.763,58.462L54.422,58.954L54.356,59.415L54.488,60.415L54.365,60.946L54.147,61.159L53.551,61.387L53.367,61.575L53.191,62.754L53.797,63.134L54.810,63.325L55.879,63.928L56.532,64.110L57.375,64.534L58.142,65.106L58.544,65.729L58.397,66.752L57.692,67.589L56.750,68.216L55.879,68.619L54.805,68.605L53.726,68.957L53.206,69.688L53.826,70.808L53.097,72.567L51.677,73.777L50.835,74.283L49.691,74.972L48.592,75.635L47.886,76.483L46.973,78.328L46.225,79.169L45.681,79.518L45.047,79.802L44.394,79.987L43.788,80.047L42.979,80.270L41.237,82.113L40.855,82.808L39.891,82.923L39.386,83.201L39.295,83.940L38.677,84.589L38.677,84.595L38.646,84.812L38.644,84.825L38.379,84.595L38.370,84.588L38.365,84.589L37.783,84.156L36.954,82.834L36.689,82.506L36.155,82.567L35.847,83.090L35.577,83.844L35.161,84.595L34.806,85.812L34.697,88.531L34.451,89.936L34.058,90.862L33.206,92.407L32.979,93.246L31.574,93.366L29.383,94.319L26.799,95.000L26.193,94.913L25.767,94.350L25.450,93.696L24.996,93.136L24.485,92.717L24.219,92.594L23.983,92.485L23.425,92.485L21.730,93.051L21.404,93.026L20.755,92.857L20.481,92.837L20.183,92.951L19.676,93.348L19.478,93.434L15.813,93.156Z" fill="currentColor" stroke="currentColor" stroke-width="1" stroke-linejoin="round"/>
</svg>