<svg xmlns="http://www.w3.org/2000/svg" viewBox="0 0 100 100" role="img" aria-label="Liberia">
  <title>Liberia</title>
  <path d="M6.622,40.119L7.294,39.809L7.458,39.711L7.413,39.171L7.502,38.809L8.083,38.477L8.286,38.127L8.417,37.722L8.464,37.403L8.387,36.973L8.455,36.831L8.918,36.779L9.075,36.722L9.188,36.606L9.231,36.420L9.161,36.152L8.861,35.660L8.805,35.437L8.871,35.357L9.254,35.002L9.992,33.843L10.353,33.768L12.098,32.979L12.281,32.806L13.660,31.035L14.040,30.547L17.186,28.053L18.053,27.566L18.859,27.380L19.141,27.258L19.376,27.073L19.600,26.800L22.430,23.348L23.235,22.663L24.235,22.119L24.390,22.066L24.876,21.991L24.823,16.834L24.854,16.583L24.941,16.384L25.131,16.227L25.668,15.929L25.894,15.715L26.386,14.800L26.698,14.412L27.197,14.165L27.621,14.101L29.331,14.092L29.766,14.031L30.182,13.901L30.593,13.664L31.114,13.156L31.174,12.761L31.007,12.337L30.853,11.735L30.895,11.254L31.269,10.442L31.921,7.826L31.935,6.723L32.166,6.734L32.389,6.696L32.825,6.529L32.991,6.885L33.347,6.681L34.064,5.977L34.423,5.869L34.781,5.877L35.988,6.180L36.305,6.363L36.450,6.675L36.236,7.677L36.328,7.960L36.611,8.056L37.062,7.981L37.915,7.477L38.743,6.831L39.102,6.644L39.442,6.535L39.798,6.488L40.211,6.482L40.316,6.467L40.615,6.388L40.714,6.436L40.813,6.533L40.916,6.672L41.105,6.615L41.489,6.416L42.014,6.262L42.043,6.122L41.972,5.959L41.971,5.788L42.116,5.602L42.269,5.445L42.370,5.263L42.358,5.000L42.719,5.051L42.942,5.329L43.064,5.697L43.200,6.697L43.297,7.077L43.518,7.452L43.810,7.769L43.893,7.712L43.898,7.405L43.950,6.964L44.210,6.667L44.628,6.672L45.052,6.868L45.327,7.146L45.443,7.603L45.267,7.858L44.989,8.051L44.790,8.323L44.761,8.710L44.949,8.769L45.267,8.698L45.633,8.688L45.804,8.707L45.985,8.684L46.142,8.607L46.243,8.467L46.396,8.297L46.568,8.420L46.841,8.800L47.903,9.248L48.276,9.515L48.427,9.678L48.538,9.735L48.276,9.892L48.188,9.929L48.047,10.008L47.915,10.114L47.684,10.351L47.879,10.535L47.986,10.760L48.069,10.995L48.188,11.209L48.291,11.301L48.325,11.397L48.290,11.494L48.188,11.589L47.980,11.926L47.843,12.533L47.880,13.106L48.188,13.332L48.703,13.437L48.913,13.549L48.983,13.804L48.985,14.049L49.371,15.596L49.327,15.817L49.096,16.202L49.066,16.449L49.321,16.136L49.547,15.959L49.771,15.985L50.019,16.276L50.127,16.505L50.166,16.727L50.119,16.939L49.966,17.137L49.938,17.203L49.664,18.129L49.612,19.030L49.819,19.917L50.307,20.809L50.858,21.513L51.042,21.877L51.583,22.570L51.352,23.119L51.143,23.879L51.176,24.597L51.625,25.119L51.394,25.294L51.212,25.569L51.089,25.891L50.986,26.461L50.834,26.703L50.455,27.146L50.535,27.441L50.355,27.897L49.874,28.616L49.437,28.946L49.235,29.152L49.150,29.417L49.137,29.708L49.081,29.960L48.950,30.177L48.716,30.377L48.793,30.437L48.803,30.445L48.978,30.358L49.595,29.757L49.831,29.405L50.242,30.126L50.483,30.334L50.803,29.868L50.926,29.830L51.033,29.759L51.079,29.528L51.166,29.454L51.361,29.415L51.716,29.405L52.017,29.446L52.171,29.501L52.348,29.610L52.496,29.794L52.643,30.218L52.770,30.364L53.103,30.418L53.825,30.227L54.151,30.264L54.458,30.697L54.746,32.034L55.272,32.518L55.400,32.541L55.874,32.522L55.993,32.609L56.005,32.979L56.169,33.111L56.584,33.323L56.659,33.606L56.461,34.341L56.704,34.124L56.871,34.069L56.990,34.029L57.288,33.979L57.570,33.890L57.863,33.677L58.131,33.434L58.423,33.273L58.787,33.303L58.958,33.205L59.428,33.065L59.522,33.054L59.592,32.720L59.690,32.689L59.913,32.789L60.027,32.287L60.299,32.454L60.701,33.096L60.981,33.062L61.899,32.711L62.134,32.574L62.271,32.151L62.174,31.746L62.018,31.361L61.974,30.998L62.075,30.769L62.265,30.474L62.652,29.996L62.850,29.869L63.197,29.769L63.376,29.605L63.456,29.415L63.488,28.980L63.564,28.781L63.691,28.676L64.282,28.320L64.642,27.933L64.852,27.546L64.934,27.123L64.911,26.626L64.854,26.529L64.759,26.501L64.673,26.462L64.649,26.330L64.688,26.208L64.813,25.987L64.843,25.866L64.895,25.128L65.042,24.686L65.597,24.010L65.765,23.585L68.291,23.716L68.177,24.515L68.310,25.098L68.706,25.581L69.389,26.085L70.029,26.494L70.915,26.940L71.297,27.691L71.731,29.198L71.988,31.266L72.102,31.680L72.242,31.934L72.603,32.449L72.740,32.731L72.907,33.392L73.007,33.561L73.261,33.879L73.346,34.047L73.357,34.188L73.312,34.458L73.330,34.595L73.404,34.728L73.716,35.044L73.847,35.265L73.905,35.464L73.934,35.984L74.297,38.019L74.243,38.532L74.085,38.733L73.652,39.070L73.537,39.253L73.510,39.632L73.537,39.982L73.517,40.316L73.246,40.905L73.351,41.065L73.524,41.181L73.627,41.305L73.643,41.594L73.608,41.893L73.431,42.534L73.165,43.152L72.863,43.620L70.957,45.754L70.540,46.221L69.009,47.439L68.721,47.787L68.671,47.785L68.318,47.982L68.295,47.988L68.318,48.021L68.223,48.318L68.178,48.410L68.081,48.470L67.825,48.512L67.725,48.558L67.203,49.221L67.561,49.244L67.767,49.288L68.277,49.273L68.522,49.345L68.759,49.554L69.389,50.399L69.779,50.532L70.043,50.315L70.209,49.918L70.306,49.523L70.409,49.344L70.543,49.433L70.788,49.752L71.453,50.109L71.732,50.426L71.703,50.550L71.546,50.686L71.437,51.038L71.475,51.240L71.666,51.630L71.714,51.794L71.607,51.987L71.413,52.096L71.338,52.226L71.590,52.481L71.818,52.259L72.077,52.160L72.337,52.167L72.562,52.267L72.838,52.032L73.057,52.120L73.262,52.354L73.486,52.557L73.589,52.546L73.659,52.449L73.748,52.383L73.903,52.468L74.009,52.640L74.033,52.815L74.033,52.962L74.065,53.050L74.258,53.121L75.901,53.494L76.153,53.588L76.383,53.723L76.524,53.829L76.704,53.890L77.048,53.885L77.340,53.814L77.813,53.551L78.060,53.449L79.047,53.311L79.621,53.298L79.988,53.383L80.334,53.619L81.701,53.945L81.815,53.959L81.906,53.922L82.005,53.894L82.136,53.938L82.172,54.009L82.228,54.257L82.302,54.359L83.244,55.119L83.572,55.523L83.625,55.811L83.345,56.634L83.246,57.082L83.193,57.566L83.250,57.997L83.481,58.295L83.490,58.195L83.694,58.086L83.959,58.014L84.150,58.027L84.356,58.217L84.440,58.413L84.509,58.899L84.577,58.975L84.691,59.009L84.799,59.064L84.848,59.200L84.803,59.314L84.609,59.421L84.562,59.520L84.546,60.126L84.568,60.281L84.844,60.629L85.681,61.068L85.940,61.323L86.317,61.854L86.613,61.702L86.860,61.278L87.095,60.996L87.232,61.107L87.463,61.377L87.776,61.629L88.152,61.686L88.184,61.764L88.621,62.004L88.679,62.016L89.137,62.218L89.244,62.356L89.072,62.579L89.236,62.716L89.516,63.070L89.667,63.153L89.913,63.034L90.175,62.812L90.332,62.748L90.262,63.107L90.591,63.166L90.734,63.445L90.838,63.745L91.040,63.871L91.204,63.709L91.309,63.359L91.375,62.726L92.054,63.023L92.150,63.763L92.012,64.664L91.992,65.446L92.383,67.119L92.660,67.678L93.112,68.589L93.378,68.933L92.933,68.859L92.789,69.116L92.890,69.521L93.176,69.893L92.756,69.917L92.618,69.911L92.832,70.118L92.868,70.153L92.756,70.330L92.508,70.529L92.355,70.840L92.369,71.644L92.274,71.870L91.977,71.712L91.982,72.052L92.065,72.433L92.212,72.798L92.412,73.086L92.726,73.264L92.948,73.221L93.106,73.254L93.222,73.654L93.278,74.066L93.259,74.306L93.135,74.527L92.878,74.888L92.827,75.031L92.749,75.382L92.643,75.515L92.437,75.607L92.388,75.525L92.386,75.364L92.319,75.225L92.295,75.113L92.403,75.008L92.437,74.924L92.195,74.881L92.142,74.941L91.594,75.238L91.437,75.435L91.347,75.628L91.123,76.332L91.297,77.337L91.281,77.696L91.156,78.071L90.585,79.114L90.287,78.994L89.928,78.988L89.581,79.149L89.314,79.535L89.264,79.905L89.429,81.139L89.433,81.139L89.403,81.598L89.551,81.892L89.748,82.173L89.870,82.586L89.871,82.910L89.788,82.902L89.611,82.776L89.332,82.746L88.684,83.261L88.675,83.462L88.826,84.121L88.796,84.362L88.677,84.803L88.674,84.969L88.673,84.994L88.780,85.241L88.941,85.394L89.107,85.520L89.234,85.675L89.291,85.867L89.385,86.975L89.291,91.541L89.322,91.733L89.379,91.930L89.417,92.152L89.377,92.692L89.528,93.123L89.558,93.323L89.492,93.534L89.271,93.932L89.242,94.148L89.357,94.399L90.059,94.880L90.052,94.882L88.944,95.000L88.627,94.953L88.130,94.743L87.859,94.695L86.411,94.695L86.235,94.628L86.142,94.476L86.074,94.326L85.977,94.258L85.631,94.232L84.800,93.897L84.539,93.739L84.299,93.531L84.174,93.294L84.056,93.005L83.864,92.760L83.227,92.565L82.720,92.164L82.483,92.073L82.132,92.028L81.923,91.918L81.758,91.776L81.550,91.637L81.171,91.484L80.254,91.239L79.525,91.127L78.194,90.604L75.613,90.288L74.865,90.034L73.956,89.025L73.621,88.856L73.211,88.779L71.023,87.982L68.661,86.303L67.440,85.618L64.482,84.535L63.823,84.181L62.336,82.917L61.784,82.563L61.132,82.260L60.911,82.219L60.474,82.024L59.824,81.924L59.304,81.766L58.806,81.532L58.442,81.255L58.511,81.208L58.525,81.194L58.530,81.170L58.573,81.095L57.643,80.838L56.894,80.399L55.680,79.347L55.344,79.131L54.609,78.781L53.947,78.287L53.566,78.143L53.211,77.963L52.929,77.584L53.205,77.584L52.926,77.197L52.500,76.963L52.029,76.784L51.613,76.567L49.138,74.235L48.987,73.917L48.763,73.143L48.573,72.764L48.349,72.546L48.004,72.308L47.633,72.115L47.321,72.037L47.260,72.004L46.661,71.882L46.534,71.891L46.506,71.684L46.758,71.366L46.808,71.162L46.463,70.653L44.347,69.415L41.266,66.447L38.350,64.044L37.596,63.190L37.439,63.060L37.072,62.844L36.939,62.686L36.878,62.472L36.969,62.201L36.939,61.946L36.741,61.619L36.407,61.341L36.030,61.145L35.709,61.071L35.481,60.946L33.982,59.755L33.116,58.806L31.985,58.094L31.597,57.925L30.795,57.768L30.421,57.552L30.199,57.268L30.255,56.979L30.450,57.101L30.616,57.118L30.750,57.031L30.847,56.833L30.421,56.736L30.117,56.497L29.849,56.208L29.531,55.960L28.842,55.533L28.491,55.387L28.083,55.363L28.083,55.522L29.180,56.087L29.663,56.489L29.821,56.979L29.499,56.581L28.911,56.224L28.236,55.949L23.938,54.882L21.206,53.486L20.791,53.104L20.950,52.741L21.052,52.916L21.162,53.038L21.317,53.122L21.544,53.178L21.190,52.590L21.120,52.076L21.332,51.598L21.819,51.112L21.516,51.112L21.295,51.174L21.120,51.282L20.950,51.418L20.442,50.397L19.742,49.647L18.925,49.089L15.581,47.272L11.777,45.908L9.230,44.776L8.770,44.227L8.752,43.378L8.874,42.904L8.902,42.704L8.910,42.425L8.620,41.881L8.542,41.776L8.144,41.663L7.724,41.401L7.367,41.104L7.160,40.888L6.622,40.119Z" fill="currentColor" stroke="currentColor" stroke-width="1" stroke-linejoin="round"/>
</svg>