<svg xmlns="http://www.w3.org/2000/svg" viewBox="0 0 100 100" role="img" aria-label="Libya">
  <title>Libya</title>
  <path d="M17.582,6.700L17.700,6.727L17.894,6.796L17.978,6.847L18.050,7.009L18.137,7.078L18.323,7.158L19.008,7.261L19.217,7.335L19.101,7.218L18.731,7.105L18.637,6.986L18.910,7.131L19.521,7.322L20.846,8.113L21.083,8.344L21.300,8.405L21.664,8.632L22.112,8.839L22.364,8.905L24.527,9.121L25.064,9.084L26.482,8.692L26.715,8.592L26.897,8.454L26.994,8.398L27.124,8.376L27.518,8.361L28.054,8.452L28.119,8.482L28.178,8.530L29.301,9.094L29.559,9.154L30.524,9.114L30.769,9.149L31.250,9.284L31.681,9.463L32.726,9.633L32.782,9.653L32.884,9.743L32.918,9.762L33.014,9.802L33.219,9.996L33.529,10.185L34.022,10.587L34.279,10.850L34.393,10.890L35.313,11.038L35.404,11.085L35.490,11.158L35.739,11.287L35.853,11.322L36.898,11.365L38.053,11.562L38.309,11.652L38.434,11.672L38.513,11.708L38.725,11.978L38.932,12.094L39.007,12.167L39.059,12.397L39.108,12.524L39.232,12.756L39.469,13.069L39.503,13.168L39.493,13.301L39.442,13.528L39.426,13.784L39.417,13.931L39.450,14.394L39.503,14.621L40.183,16.295L40.319,16.526L40.934,17.356L41.301,17.732L41.721,18.046L43.326,18.759L45.107,19.065L47.202,19.086L48.415,19.343L49.654,19.751L50.619,19.955L50.819,19.954L50.871,19.977L50.911,20.004L51.119,20.109L51.281,20.258L51.341,20.292L51.392,20.313L52.226,20.550L52.667,20.758L53.146,20.913L53.557,20.986L53.631,21.049L53.787,21.275L53.891,21.366L54.000,21.419L54.511,21.529L55.410,21.856L55.597,21.963L55.752,22.105L56.254,22.674L57.639,23.666L57.950,24.010L58.120,24.158L58.495,24.353L58.731,24.399L58.842,24.452L59.667,24.974L59.905,25.073L60.409,25.146L60.915,25.156L61.446,25.097L61.741,25.014L62.007,24.940L62.463,24.722L63.095,24.320L63.212,24.268L63.467,24.223L63.582,24.164L64.334,23.597L65.272,22.509L65.521,22.087L65.657,21.903L65.864,21.744L65.965,21.647L66.324,20.914L66.590,20.214L66.622,19.944L66.590,19.131L66.484,18.965L66.344,18.549L66.224,18.372L65.975,18.124L65.884,17.992L65.502,16.962L65.468,16.699L65.463,16.420L65.442,16.317L65.344,16.078L65.308,15.961L65.289,15.698L65.302,15.411L65.386,14.881L65.463,14.643L65.451,14.580L65.428,14.510L65.418,14.442L65.444,14.380L65.515,14.284L66.030,13.250L66.164,13.058L67.242,12.026L67.330,11.891L67.604,11.581L67.719,11.517L67.944,11.424L68.045,11.344L68.121,11.267L68.949,10.644L70.275,10.105L71.055,9.602L71.718,9.287L71.977,9.232L73.056,9.295L73.311,9.272L73.782,9.154L74.007,9.032L74.881,8.285L74.963,8.247L75.239,8.227L75.491,8.160L75.647,8.284L75.895,8.378L76.171,8.438L76.405,8.459L77.646,8.333L77.675,8.312L77.734,8.220L77.762,8.200L77.888,8.178L77.949,8.176L78.016,8.200L78.061,8.237L78.070,8.271L78.070,8.313L78.093,8.376L78.273,8.554L78.503,8.600L79.026,8.592L79.251,8.667L79.807,9.067L79.917,9.129L80.014,9.169L80.119,9.191L80.383,9.209L81.708,9.590L82.016,9.782L82.117,9.810L82.181,9.820L82.370,9.892L82.446,9.903L82.640,9.892L82.770,9.931L83.006,10.045L83.262,10.084L83.373,10.125L83.444,10.192L83.457,10.281L83.425,10.346L83.327,10.462L83.307,10.521L83.360,10.907L83.414,11.005L83.501,11.083L83.616,11.149L83.571,11.273L83.500,11.672L83.388,11.628L83.407,11.568L83.395,11.515L83.358,11.465L83.307,11.412L83.220,11.932L83.228,12.061L83.313,12.127L83.659,12.254L83.786,12.276L83.878,12.329L83.988,12.451L84.080,12.588L84.152,12.778L84.231,12.822L84.321,12.847L84.390,12.885L84.434,12.957L84.487,13.094L84.542,13.145L84.532,13.040L84.468,12.756L84.577,12.796L84.824,12.801L84.875,12.820L85.034,12.947L85.070,12.968L85.783,13.027L86.569,13.015L87.537,13.231L88.435,13.580L88.302,13.705L88.277,13.753L88.322,13.781L88.470,13.840L88.828,14.104L88.957,14.138L90.036,14.127L91.540,14.229L92.051,14.080L92.177,13.993L92.244,13.969L92.473,14.013L92.518,14.000L92.562,13.976L92.604,13.965L92.650,13.991L92.673,14.009L92.742,14.048L92.821,14.068L92.933,14.125L93.118,14.155L93.351,14.242L94.010,14.377L94.215,14.497L94.303,14.704L94.252,14.955L94.240,15.094L94.281,15.207L94.475,15.414L94.777,15.833L94.806,15.941L94.889,16.120L95.000,16.307L94.979,16.327L94.970,16.348L94.615,16.620L94.456,16.836L94.248,17.374L93.327,18.096L93.257,18.296L93.255,18.528L93.312,19.060L93.317,19.579L93.448,20.255L93.488,20.383L93.686,20.776L93.760,21.099L94.007,21.607L94.085,21.862L94.049,22.081L93.964,22.298L93.894,22.551L93.834,22.899L93.662,23.335L93.643,23.461L93.590,23.675L93.479,23.892L93.148,24.378L92.976,24.547L92.823,24.736L92.769,24.824L92.674,25.041L92.439,25.452L92.348,25.674L92.346,25.918L92.397,26.055L92.557,26.335L93.046,27.521L93.071,27.663L93.064,27.789L92.969,28.119L93.008,28.382L93.298,28.859L93.380,29.119L93.380,29.273L93.329,29.732L93.342,29.976L93.398,30.195L93.868,31.307L93.968,31.647L94.007,32.011L94.007,32.792L94.007,33.854L94.007,36.376L94.007,38.875L94.007,39.370L94.007,41.597L94.007,41.842L94.007,42.806L94.007,44.942L94.007,45.503L94.007,46.701L94.007,47.938L94.007,49.785L94.007,51.632L94.007,53.479L94.007,55.325L94.007,57.171L94.007,59.018L94.007,60.865L94.007,62.711L94.007,64.558L94.007,66.405L94.007,68.252L94.007,70.098L94.007,71.945L94.007,73.792L94.007,75.638L94.007,77.485L94.007,78.273L94.007,79.062L94.007,79.850L94.007,80.638L94.007,81.427L94.006,82.215L94.006,83.003L94.006,83.792L94.006,84.580L94.005,85.369L94.005,86.157L94.005,86.946L94.005,87.547L94.004,88.149L94.004,88.751L94.003,89.352L94.003,90.059L94.003,90.099L93.998,90.109L93.993,90.118L93.988,90.128L93.982,90.137L93.969,90.139L93.957,90.141L93.945,90.142L93.932,90.144L93.361,90.144L92.533,90.143L91.841,90.143L91.134,90.142L90.376,90.142L89.735,90.142L89.250,90.141L88.337,90.141L88.337,90.931L88.337,91.720L88.337,92.510L88.337,93.300L87.636,92.914L86.936,92.528L86.235,92.143L85.535,91.756L84.834,91.370L84.133,90.985L83.434,90.598L82.733,90.212L82.032,89.826L81.332,89.441L80.631,89.055L79.931,88.668L79.230,88.282L78.530,87.897L77.830,87.511L77.129,87.125L76.428,86.739L75.728,86.353L75.027,85.967L74.327,85.581L73.626,85.195L72.926,84.809L72.225,84.423L71.525,84.037L70.824,83.651L70.124,83.265L69.424,82.879L68.723,82.493L68.023,82.107L67.322,81.721L66.622,81.335L65.921,80.949L65.221,80.564L64.520,80.177L63.820,79.792L63.119,79.406L62.418,79.019L61.718,78.633L61.141,78.315L61.018,78.247L60.318,77.861L59.617,77.476L58.916,77.089L58.216,76.704L57.515,76.318L56.814,75.931L56.115,75.546L55.414,75.160L54.713,74.773L54.013,74.388L53.312,74.002L52.612,73.616L51.911,73.230L51.210,72.844L50.511,72.458L49.810,72.072L49.109,71.686L48.409,71.300L47.708,70.915L47.008,70.528L46.307,70.142L45.607,69.756L44.906,69.370L44.206,68.984L43.505,68.599L42.989,68.313L42.873,68.329L42.621,68.457L42.294,68.622L41.967,68.787L41.639,68.953L41.313,69.118L40.986,69.284L40.659,69.449L40.331,69.615L40.004,69.780L39.677,69.946L39.350,70.111L39.023,70.277L38.696,70.442L38.368,70.607L38.042,70.772L37.715,70.938L37.388,71.103L37.288,71.155L37.284,71.157L37.284,71.157L36.313,71.704L35.344,72.251L34.374,72.797L33.403,73.343L33.045,73.545L32.957,73.556L32.874,73.512L32.617,73.274L31.907,72.623L31.198,71.972L30.488,71.320L29.779,70.668L29.460,70.374L28.795,69.991L28.218,69.847L27.718,69.722L27.217,69.598L26.717,69.473L26.216,69.348L25.716,69.224L25.216,69.099L24.716,68.975L24.215,68.850L23.715,68.725L23.215,68.601L22.714,68.477L22.214,68.352L21.714,68.227L21.212,68.103L20.712,67.979L20.212,67.854L19.778,66.951L19.381,66.124L18.745,64.799L18.736,64.781L18.327,63.928L17.934,63.111L17.788,62.917L17.602,62.814L17.367,62.734L15.568,62.127L14.215,61.670L13.133,61.304L13.011,61.280L12.888,61.295L12.260,61.531L11.599,61.781L11.374,61.804L11.268,61.762L10.523,61.150L10.420,61.033L10.349,60.813L10.249,60.225L10.143,60.054L9.299,59.549L9.228,59.380L9.216,58.503L9.191,57.608L9.167,56.775L9.091,56.374L8.873,55.969L8.007,54.747L7.311,53.766L6.445,52.546L5.650,51.426L5.518,51.074L5.658,50.775L5.737,50.673L5.841,50.422L6.034,50.238L6.084,50.146L6.105,50.038L6.112,49.912L8.115,48.952L8.221,48.825L8.458,48.012L8.445,47.878L8.380,47.702L8.397,47.482L8.539,46.808L8.517,46.717L8.427,46.640L8.173,46.499L8.111,46.442L8.057,46.318L7.946,45.656L7.466,43.968L7.469,43.863L7.495,43.760L7.589,43.511L7.664,43.138L7.745,43.004L7.989,42.736L8.034,42.615L7.978,42.483L7.895,42.341L7.877,42.210L8.017,42.108L8.176,42.023L8.271,41.896L8.656,40.635L8.673,40.579L8.683,40.330L7.854,38.162L7.781,37.794L8.067,35.572L8.203,34.513L8.186,33.312L8.060,32.345L7.611,30.827L7.162,29.309L6.492,28.082L5.767,27.029L5.470,26.686L5.133,26.297L5.000,26.089L6.322,25.382L7.591,24.734L7.758,24.691L8.172,24.665L8.316,24.583L9.021,23.701L9.620,22.770L10.136,22.203L10.486,21.504L10.576,21.248L10.578,21.036L10.436,20.593L10.411,20.369L10.442,20.126L10.435,20.008L10.255,19.646L10.082,18.979L9.659,17.896L9.649,17.787L9.709,17.374L9.798,17.227L10.160,16.841L10.543,16.196L10.835,15.973L11.472,15.980L11.783,15.863L11.875,15.792L11.959,15.712L12.027,15.617L12.122,15.398L12.361,15.185L12.435,14.975L12.483,14.468L12.610,14.338L12.717,14.352L12.819,14.407L12.923,14.446L13.034,14.414L13.223,14.267L13.429,14.146L13.615,13.970L13.844,13.467L13.998,13.309L15.751,12.515L17.236,11.843L17.632,11.593L17.701,11.530L17.816,11.426L17.917,11.229L17.897,10.962L17.765,10.735L17.385,10.382L17.269,10.137L17.265,9.789L17.347,9.122L17.306,8.466L17.408,8.037L17.411,7.683L17.425,7.586L17.587,6.983L17.582,6.700Z" fill="currentColor" stroke="currentColor" stroke-width="1" stroke-linejoin="round"/>
</svg>