<svg xmlns="http://www.w3.org/2000/svg" viewBox="0 0 100 100" role="img" aria-label="Saint Lucia">
  <title>Saint Lucia</title>
  <path d="M70.663,28.067L71.504,34.742L71.486,40.679L68.838,58.141L69.473,68.144L66.743,79.235L66.153,80.802L65.491,81.079L62.734,81.853L61.795,82.480L60.775,84.656L58.788,93.313L57.419,94.631L56.739,95.000L55.647,95.000L51.620,89.487L35.172,83.070L31.485,78.626L30.787,77.437L29.444,75.953L28.585,74.238L30.116,70.688L30.357,68.393L30.116,63.930L29.767,62.474L29.140,61.331L28.585,59.892L28.496,57.587L29.068,55.191L31.055,50.968L31.485,49.087L32.684,45.934L37.946,38.301L39.915,33.211L45.266,25.108L46.411,24.195L48.559,22.978L49.651,21.890L50.170,20.489L51.029,16.487L51.906,14.920L57.284,7.176L60.399,5.000L64.649,6.401L63.665,10.310L65.133,12.339L67.531,13.722L69.303,15.695L69.911,18.516L70.663,28.067Z" fill="currentColor" stroke="currentColor" stroke-width="1" stroke-linejoin="round"/>
</svg>