<svg xmlns="http://www.w3.org/2000/svg" viewBox="0 0 100 100" role="img" aria-label="Sri Lanka">
  <title>Sri Lanka</title>
  <path d="M75.175,68.082L75.230,68.446L75.465,69.261L75.502,69.741L75.372,70.657L74.320,74.315L74.261,74.692L74.239,75.190L74.161,75.607L73.832,76.249L73.759,76.536L73.629,76.930L73.187,77.624L72.979,77.952L73.135,78.512L72.884,79.177L70.735,82.594L70.018,83.315L68.694,84.259L68.261,84.389L67.682,84.701L63.445,88.049L62.598,88.510L59.847,89.493L59.845,89.493L59.808,89.160L59.806,89.140L59.642,89.011L59.639,89.012L59.601,89.021L59.464,89.058L59.377,89.243L59.332,89.631L59.208,89.778L59.007,89.832L58.741,89.950L58.245,90.251L57.749,90.470L55.374,90.983L54.222,91.381L52.959,91.612L52.383,91.835L52.038,92.324L51.419,92.202L51.038,92.349L50.823,92.434L49.944,93.087L49.066,93.740L48.661,94.212L47.726,94.157L47.725,94.156L47.334,94.212L47.030,94.329L46.716,94.509L46.161,94.927L46.001,94.964L45.841,95.000L45.462,94.853L45.061,94.645L44.831,94.574L44.671,94.527L43.350,94.684L42.973,94.610L42.782,94.420L42.659,94.169L42.563,94.023L42.490,93.913L42.104,94.139L41.758,94.166L41.143,94.076L40.997,94.055L40.887,94.006L40.811,93.897L40.714,93.790L40.536,93.740L40.430,93.777L40.347,93.852L40.257,93.916L40.139,93.912L40.098,93.879L40.061,93.846L39.916,93.639L39.845,93.595L39.826,93.584L39.826,93.582L39.665,93.525L38.690,93.174L38.290,93.091L38.006,93.031L37.510,92.631L37.399,92.576L37.180,92.469L37.176,92.468L37.009,92.639L36.583,92.294L34.724,90.313L34.572,90.193L34.570,90.192L34.553,90.170L34.501,90.108L34.473,90.011L34.481,89.815L34.423,89.714L34.345,89.612L34.139,89.341L33.086,87.105L33.041,86.892L33.041,86.890L33.047,86.699L33.052,86.507L33.052,86.505L33.013,86.389L32.824,85.992L32.630,84.917L32.211,84.161L31.947,83.080L31.850,82.685L31.802,82.646L31.704,82.586L31.601,82.496L31.538,82.370L31.564,82.235L31.676,82.202L31.793,82.215L31.795,82.215L31.850,82.212L31.676,81.004L31.661,80.907L31.185,79.681L29.229,74.643L28.919,72.903L28.889,72.730L28.889,71.073L28.915,71.008L29.142,70.461L29.202,70.199L29.196,69.931L29.196,69.927L28.104,66.036L28.254,65.465L28.247,65.816L28.332,66.038L28.455,66.208L28.563,66.410L28.782,67.181L28.889,67.367L29.031,67.367L29.064,67.147L29.129,67.054L29.187,67.039L29.189,67.039L29.202,67.052L29.196,66.347L29.196,66.342L29.146,66.034L29.031,65.780L28.923,65.706L28.622,65.640L28.488,65.550L28.473,65.518L28.392,65.352L28.429,65.169L28.516,64.999L28.563,64.836L27.441,56.610L27.301,56.312L27.396,56.211L27.467,56.200L27.630,56.312L27.667,55.913L27.781,55.451L27.808,55.230L27.836,55.008L27.708,54.661L27.535,54.343L27.502,54.132L27.468,53.921L27.470,53.072L26.945,50.488L26.883,50.190L26.612,49.623L26.382,48.431L26.008,47.491L25.435,44.893L25.435,44.155L25.527,44.197L25.533,44.204L25.540,44.210L25.540,44.234L25.591,44.313L25.672,43.884L25.552,42.523L25.435,42.110L25.810,41.863L26.165,41.404L26.421,40.882L26.523,40.443L26.627,40.156L27.301,39.092L27.294,39.110L26.954,39.913L26.523,40.679L26.618,40.866L26.642,40.912L26.811,41.081L27.032,41.169L27.301,41.167L27.080,41.793L26.850,42.253L26.750,42.332L26.644,42.344L26.560,42.408L26.523,42.653L26.543,43.198L26.523,43.367L26.137,44.602L26.152,44.831L26.181,45.289L26.581,45.764L26.694,45.899L26.237,46.855L26.965,47.385L28.024,47.468L28.563,47.087L28.460,46.676L28.288,46.355L28.221,46.232L28.139,46.131L27.937,45.876L27.708,45.729L27.641,45.480L28.410,44.012L28.381,43.745L28.282,43.548L28.169,43.383L28.098,43.211L28.080,42.933L28.106,42.455L28.098,42.258L28.098,42.253L28.085,42.215L28.024,42.051L27.987,42.017L27.942,41.975L27.898,41.881L27.942,41.623L28.050,41.405L28.349,41.013L28.410,40.758L28.459,40.276L28.672,39.311L28.889,37.061L29.029,36.805L29.179,36.679L29.294,36.526L29.343,36.189L29.343,35.230L29.475,34.759L29.785,34.457L30.153,34.206L30.450,33.886L30.487,33.772L30.714,33.067L30.745,33.037L30.762,33.021L30.812,32.815L31.024,32.353L31.226,30.111L30.676,28.680L30.721,28.431L30.762,26.800L30.762,26.778L30.706,26.233L30.639,25.965L30.520,25.762L30.427,25.532L30.639,25.417L30.946,25.360L31.148,25.298L32.473,24.103L33.164,23.762L33.452,23.510L33.604,22.949L33.877,22.373L34.033,21.571L34.767,19.672L34.793,19.567L34.861,19.289L35.003,18.727L35.003,17.388L35.053,17.193L35.008,17.060L34.741,17.009L34.111,16.681L33.866,16.452L33.712,16.019L33.686,15.940L33.576,15.400L33.565,15.093L33.838,14.805L34.343,14.553L34.904,14.374L35.365,14.306L35.571,14.200L36.072,13.534L36.130,13.491L36.217,13.423L36.384,13.324L36.591,13.247L36.853,13.206L36.635,12.805L36.505,12.628L36.373,12.452L36.037,12.120L35.593,11.788L33.905,10.796L33.565,10.373L34.300,10.397L34.997,10.676L36.372,11.475L37.683,11.805L38.028,12.026L38.569,12.499L38.703,12.748L38.424,12.891L38.485,13.048L38.567,13.206L38.424,13.361L38.426,13.362L38.903,13.684L40.031,13.408L42.093,12.590L42.648,12.643L43.865,12.979L45.301,13.626L46.383,13.834L46.387,13.834L44.834,12.769L44.299,12.521L43.824,12.418L43.753,12.385L43.685,12.353L43.272,12.039L43.116,11.948L42.960,11.923L42.772,11.933L42.490,11.948L42.312,12.016L42.286,12.055L42.236,12.139L42.146,12.185L41.844,11.961L41.723,11.940L40.982,11.960L40.770,11.898L39.147,10.492L38.450,10.041L38.448,10.041L38.199,9.931L37.025,9.417L36.602,9.172L36.318,9.169L36.372,9.729L36.529,9.894L36.775,10.081L36.919,10.309L36.775,10.603L36.602,10.656L36.435,10.566L36.282,10.438L35.844,10.210L34.991,9.467L34.501,9.257L34.503,9.259L34.752,9.532L35.201,9.921L35.450,10.202L34.897,10.095L34.351,9.867L33.253,9.257L32.378,8.569L31.858,8.385L31.806,8.353L31.609,8.225L31.425,8.151L31.397,8.314L31.146,8.143L31.052,7.921L31.007,7.655L30.918,7.355L30.767,7.099L30.678,6.983L30.444,6.677L30.294,6.412L30.788,6.164L31.687,5.333L32.092,5.153L32.094,5.153L33.877,5.310L34.807,5.206L35.147,5.246L35.281,5.553L35.259,6.036L35.326,6.204L35.521,6.268L35.710,6.295L36.256,6.435L36.372,6.497L36.474,6.700L36.719,6.691L36.912,6.632L36.986,6.610L37.098,6.594L37.176,6.583L37.178,6.584L37.354,6.687L37.430,6.731L38.069,7.427L40.083,9.617L40.792,10.063L42.438,10.822L42.490,10.845L42.490,10.674L41.662,10.255L39.656,8.614L38.012,6.717L37.176,6.269L35.866,5.958L35.521,5.711L35.476,5.361L35.955,5.153L36.111,5.127L36.587,5.047L37.532,5.000L37.988,5.085L38.303,5.308L38.513,6.061L38.723,6.376L41.712,9.887L42.152,10.210L43.044,10.719L49.346,15.827L49.370,15.869L49.530,16.137L49.786,16.456L50.277,16.917L50.589,17.321L50.312,17.466L50.310,17.467L50.154,17.397L50.136,17.388L50.132,17.388L49.892,17.078L49.760,17.011L49.759,17.009L49.346,16.941L49.166,16.996L49.255,17.179L49.285,17.238L50.470,18.342L50.932,18.596L50.934,18.597L50.750,18.311L50.639,18.049L50.697,17.856L51.012,17.782L51.161,17.883L51.402,18.597L51.623,19.037L52.491,20.770L52.316,20.706L51.833,20.527L51.531,20.521L51.402,20.849L51.581,20.933L51.952,20.994L52.283,21.202L52.287,21.230L52.335,21.729L52.339,21.729L52.491,21.729L52.567,21.596L52.636,21.539L52.714,21.502L52.818,21.429L52.818,21.430L52.935,21.888L52.948,21.945L53.271,22.683L53.704,23.345L54.144,23.632L54.178,23.659L54.230,23.703L54.228,23.864L54.122,24.027L53.910,24.103L53.849,24.035L53.598,23.632L53.325,23.488L52.699,23.326L52.335,23.159L52.502,23.392L52.595,23.521L53.420,24.294L53.427,24.733L53.698,24.924L53.696,24.926L53.453,25.152L53.238,25.408L53.239,25.409L53.598,25.691L53.984,25.661L54.300,25.366L54.534,24.955L54.686,24.575L54.690,24.577L55.515,25.574L56.247,26.831L56.546,27.142L56.964,27.264L57.298,27.534L57.789,28.724L57.913,28.854L58.045,28.994L58.047,28.995L58.608,29.250L58.888,29.849L59.210,31.054L59.267,30.833L59.341,30.746L59.466,30.775L59.468,30.776L59.689,30.896L59.622,31.118L60.257,31.812L60.469,32.156L60.467,32.571L60.300,32.738L60.062,32.848L59.845,33.100L59.848,33.098L60.014,33.056L60.185,33.012L60.227,32.988L60.313,32.942L60.315,32.944L60.809,34.021L60.881,34.581L60.315,34.673L60.313,34.673L60.430,34.302L60.278,34.004L60.025,33.961L59.845,34.358L59.906,34.666L60.068,34.884L60.157,35.118L59.988,35.474L59.854,35.371L59.605,35.177L59.210,34.932L58.810,34.840L58.429,35.001L58.134,35.399L58.238,35.607L58.591,35.553L59.066,35.160L59.393,35.508L59.689,35.925L60.045,36.273L60.547,36.417L61.596,36.396L61.951,36.171L61.717,35.631L62.317,35.357L62.555,35.283L62.807,35.301L62.809,35.303L63.086,35.463L63.339,35.733L63.528,36.048L63.690,36.970L64.046,38.157L64.058,38.467L64.069,38.777L63.779,38.573L63.476,37.962L63.211,37.833L63.201,38.000L63.311,38.748L63.320,38.805L63.445,39.092L63.597,39.164L63.736,39.230L63.740,39.230L64.048,39.230L64.293,39.340L64.438,40.222L64.613,40.833L64.643,40.934L64.691,41.308L64.691,41.310L64.762,41.549L65.237,43.159L65.417,44.208L65.003,44.781L65.003,44.784L64.773,43.834L64.739,43.700L64.392,42.738L64.225,42.738L64.197,43.469L64.225,43.698L64.208,43.691L64.191,43.757L64.191,43.758L64.191,43.873L64.225,44.012L64.301,44.102L64.494,44.161L64.496,44.162L64.535,44.234L64.721,44.717L65.122,45.011L65.124,45.011L65.506,44.979L65.640,44.484L65.779,44.484L65.924,44.749L65.963,44.820L66.151,45.651L66.342,45.971L66.597,46.251L66.760,46.522L67.043,47.173L67.154,47.061L67.301,46.950L67.368,46.844L67.468,47.059L67.368,47.173L67.418,47.256L67.462,47.310L67.470,47.324L67.496,47.370L67.511,47.473L67.513,47.471L67.626,47.378L67.860,47.265L67.979,47.173L67.979,47.175L68.033,47.304L68.098,47.462L68.049,47.649L67.969,47.834L67.973,47.978L67.979,48.116L68.139,48.426L68.421,48.642L68.605,48.784L68.772,49.061L68.666,49.067L68.612,49.104L68.543,49.151L68.501,49.178L68.458,49.204L68.391,49.455L68.324,49.707L68.592,50.492L68.737,50.659L69.064,51.036L69.067,51.036L69.550,50.948L69.706,50.948L69.864,51.429L70.044,51.726L70.100,51.818L71.085,52.849L71.402,53.353L71.458,53.798L70.953,53.951L70.951,53.952L70.717,53.793L70.156,53.077L69.862,52.823L69.483,52.683L69.480,52.683L69.441,52.687L69.171,52.711L68.934,52.954L68.772,53.465L69.045,53.590L69.309,53.628L69.535,53.543L69.706,53.308L69.976,53.409L70.223,53.533L70.308,53.634L70.366,53.704L70.330,53.952L70.633,54.236L70.936,54.520L71.174,54.794L71.423,55.210L71.421,55.211L71.304,55.347L71.274,55.479L71.313,55.638L71.423,55.855L71.564,55.682L71.478,55.369L71.478,55.367L71.748,55.462L72.277,55.855L72.403,56.039L72.823,57.113L72.797,57.159L72.667,57.742L72.686,57.806L72.689,57.815L72.797,58.038L72.823,58.128L72.734,58.286L72.571,58.413L72.472,58.554L72.589,58.758L72.701,58.905L72.740,59.021L72.745,59.036L72.812,59.167L72.979,59.316L72.734,59.494L72.756,59.581L72.779,59.670L72.962,59.709L73.146,59.473L73.288,59.473L73.289,59.473L73.464,60.403L73.458,60.745L73.462,60.745L73.618,60.745L73.618,60.736L73.637,60.414L73.692,60.095L73.789,59.823L73.930,59.630L73.930,59.473L73.917,59.437L73.867,59.293L73.908,59.220L74.034,59.274L74.239,59.473L74.309,59.654L74.361,60.143L74.712,60.703L75.282,62.663L75.175,68.082ZM72.043,54.981L72.004,54.740L71.915,54.552L71.805,54.321L71.731,54.095L71.742,53.856L71.813,53.644L71.842,53.421L71.731,53.153L71.731,53.150L72.024,53.437L72.305,54.102L72.511,54.410L72.561,54.543L72.773,55.115L73.328,56.000L73.585,56.408L73.971,58.417L73.971,58.419L73.956,58.878L73.618,59.158L73.297,58.904L73.198,58.800L73.152,58.752L73.137,58.638L73.120,58.524L73.124,58.477L73.219,57.026L73.152,56.526L72.901,56.312L72.806,56.107L72.043,54.981ZM25.830,22.373L25.576,22.272L25.462,22.051L25.535,21.830L25.830,21.729L26.850,21.729L27.301,21.845L27.768,21.965L28.741,22.336L29.670,22.876L30.450,23.632L30.448,23.631L30.075,23.553L29.417,23.227L29.031,23.159L29.623,23.834L30.089,24.367L30.294,24.733L29.748,24.663L29.391,24.388L29.146,24.088L28.962,23.945L28.726,23.825L27.786,22.987L27.320,22.779L26.854,22.571L26.512,22.478L26.330,22.428L25.830,22.373ZM26.211,12.590L26.029,12.764L25.843,12.939L25.267,12.972L24.732,12.795L24.498,12.505L24.498,11.560L24.565,11.318L24.716,11.349L24.872,11.543L24.966,11.788L25.360,11.912L25.830,11.948L25.947,12.033L26.211,12.590ZM29.978,9.887L29.625,9.631L29.272,9.103L28.719,7.999L28.971,7.605L29.029,7.099L29.172,6.690L29.670,6.583L29.933,6.662L29.937,6.663L29.959,6.857L29.870,7.128L29.809,7.442L29.818,7.757L29.852,8.010L29.854,8.025L29.874,8.075L29.952,8.258L30.056,8.377L30.138,8.471L30.234,8.495L30.676,8.471L30.751,8.539L30.784,8.885L30.840,9.029L31.100,9.193L31.453,9.344L31.748,9.512L31.772,9.564L31.850,9.729L31.692,9.892L31.392,9.894L31.068,9.794L30.840,9.650L30.678,9.611L30.268,9.853L29.980,9.887L29.978,9.887Z" fill="currentColor" stroke="currentColor" stroke-width="1.5" stroke-linejoin="round"/>
</svg>