<svg xmlns="http://www.w3.org/2000/svg" viewBox="0 0 100 100" role="img" aria-label="Lesotho">
  <title>Lesotho</title>
  <path d="M78.172,19.980L78.711,19.949L79.582,20.191L80.379,20.574L80.717,21.000L80.729,21.835L80.943,22.376L81.432,22.715L82.265,22.939L83.538,23.528L86.588,26.781L87.807,27.155L89.286,27.194L90.410,27.669L90.597,30.118L91.012,30.628L91.591,31.072L92.099,31.648L92.378,32.369L92.783,33.868L93.815,35.279L94.190,36.198L94.224,36.457L94.190,37.108L94.228,37.416L94.392,37.675L94.885,38.167L95.000,38.414L94.864,39.034L94.180,40.018L94.111,40.686L94.136,41.302L93.964,41.777L93.655,42.155L93.234,42.471L92.260,42.902L91.159,43.245L90.116,43.707L89.336,44.507L89.068,45.399L89.057,46.321L89.055,46.490L89.309,47.505L89.837,48.165L89.233,48.582L89.175,49.246L89.183,49.949L88.766,50.481L85.919,51.365L84.845,52.218L84.245,53.282L83.777,54.486L83.087,55.757L83.081,55.873L83.033,56.821L82.812,57.946L82.793,58.966L83.332,59.727L83.798,60.092L83.901,60.395L83.878,60.773L83.958,61.371L84.363,62.189L84.451,62.606L84.214,62.971L83.790,63.182L82.812,63.472L82.361,63.675L79.464,65.475L78.004,66.383L73.704,69.210L71.323,70.190L68.877,70.717L65.555,71.979L64.306,71.970L62.509,71.276L61.890,71.205L61.290,71.351L59.685,72.313L58.771,72.639L56.987,72.379L56.096,72.520L55.364,73.162L55.050,73.755L54.424,74.938L53.845,75.518L53.501,75.778L53.042,76.446L52.786,76.701L52.429,76.859L51.342,77.017L50.665,77.290L49.889,77.760L49.320,78.402L49.239,79.193L49.645,79.769L50.187,80.020L50.619,80.398L50.719,81.370L50.459,82.288L49.969,82.864L46.828,85.331L46.537,85.836L46.618,86.170L47.049,86.918L47.168,87.340L47.122,87.687L46.495,89.665L46.369,89.925L46.073,90.312L45.779,90.562L45.463,90.734L45.156,90.954L44.917,91.349L44.705,92.207L44.729,92.897L44.821,93.578L44.814,94.409L43.923,94.022L39.555,93.644L38.779,93.393L38.041,93.024L37.689,92.747L37.399,92.457L37.086,92.211L36.657,92.066L36.336,92.119L35.629,92.466L35.259,92.527L33.707,92.321L32.419,91.921L31.307,91.217L29.310,88.953L27.057,87.243L26.824,86.883L26.762,86.500L26.743,86.118L26.621,85.740L25.730,84.487L24.763,83.537L24.644,83.121L24.507,82.645L23.158,82.025L22.577,81.541L22.180,80.895L21.908,79.853L21.639,79.576L21.045,79.567L20.261,79.892L20.001,79.936L19.625,79.879L18.888,79.671L18.862,79.664L18.461,79.616L18.522,78.952L17.699,76.661L17.630,75.443L18.438,73.439L18.992,72.876L19.023,72.454L18.675,72.168L18.109,72.010L17.288,72.010L16.829,72.120L16.487,71.984L16.030,71.276L15.782,70.678L15.281,68.660L14.754,67.803L12.980,66.304L12.273,65.473L11.257,63.047L8.203,55.757L8.199,55.757L8.199,55.753L7.884,55.119L6.806,53.488L6.313,53.049L5.827,52.776L5.298,52.345L5.000,52.200L5.455,51.145L5.470,50.459L5.749,50.059L6.139,50.059L6.487,50.565L6.739,50.244L7.022,49.558L7.221,49.378L7.584,49.369L7.698,49.589L7.794,49.853L8.096,49.985L8.264,49.866L9.460,48.595L9.659,48.459L10.702,48.037L11.788,47.923L12.162,47.782L12.824,47.417L13.863,47.202L14.651,46.868L15.854,46.155L16.026,45.973L16.107,45.887L16.351,45.509L16.535,45.061L16.607,44.573L16.806,44.419L17.674,44.459L17.872,44.278L18.029,43.513L18.438,42.849L19.975,41.157L20.219,40.972L20.364,40.717L20.418,40.177L20.311,39.842L20.093,39.579L19.944,39.332L20.032,39.038L20.364,38.765L20.705,38.651L21.049,38.462L21.408,37.970L21.499,37.587L21.572,36.598L21.683,36.255L22.296,35.864L23.805,35.366L24.110,35.266L24.479,34.949L24.418,34.457L24.186,33.468L24.205,33.059L24.452,32.681L24.825,32.457L25.203,32.312L25.471,32.162L27.588,29.542L28.425,27.959L28.383,27.722L28.245,26.935L28.496,26.645L28.750,26.935L28.933,26.865L29.275,26.689L29.510,26.645L29.189,26.223L28.727,25.744L28.557,25.352L29.143,25.190L29.604,24.983L30.057,24.491L30.772,23.449L30.913,23.396L31.089,23.453L31.238,23.466L31.299,23.290L31.301,22.978L31.341,22.846L31.423,22.710L31.509,22.482L31.547,22.139L31.551,21.549L31.853,21.211L32.436,21.009L32.832,20.679L32.560,19.962L36.772,20.253L37.758,19.804L38.102,19.162L38.335,18.490L38.633,17.927L39.172,17.615L39.868,17.703L40.307,18.112L40.651,18.560L41.068,18.775L42.073,18.775L42.402,18.679L42.448,18.428L42.436,18.098L42.593,17.760L43.992,15.874L45.631,14.102L45.750,13.856L46.770,12.335L47.263,11.715L47.630,11.187L47.967,11.319L49.966,11.116L50.432,11.069L51.177,11.403L52.029,11.495L52.886,11.381L53.631,11.091L54.342,10.436L55.343,8.690L56.062,7.961L56.818,7.640L61.967,7.292L62.700,7.112L64.806,5.661L65.357,5.591L66.056,6.114L66.549,6.716L66.886,7.420L67.111,8.255L67.379,10.000L67.768,10.598L69.408,10.642L69.955,11.108L71.029,13.161L71.334,13.399L72.489,13.610L72.517,13.621L73.100,13.843L73.658,14.186L73.667,14.193L74.178,14.643L74.652,15.223L76.139,17.874L78.172,19.980Z" fill="currentColor" stroke="currentColor" stroke-width="1" stroke-linejoin="round"/>
</svg>