<svg xmlns="http://www.w3.org/2000/svg" viewBox="0 0 100 100" role="img" aria-label="Lithuania">
  <title>Lithuania</title>
  <path d="M91.842,36.533L91.984,37.169L92.043,37.888L92.005,38.594L91.858,39.186L91.560,39.654L91.185,40.085L90.886,40.574L90.818,41.220L91.106,41.781L91.057,42.093L90.514,42.642L90.382,42.938L90.180,43.937L90.074,44.191L89.708,44.868L89.559,45.367L89.629,45.647L89.870,45.813L90.783,46.156L91.043,46.169L91.967,45.920L94.508,46.366L94.860,46.636L95.000,47.088L94.831,47.520L94.462,47.802L94.068,47.907L93.474,48.066L93.238,48.206L92.798,48.643L92.556,48.978L92.445,49.264L92.347,50.008L92.176,50.786L91.940,51.177L91.603,51.238L89.987,50.511L89.768,50.536L89.638,50.667L89.548,50.825L89.453,50.930L89.303,50.979L89.173,50.982L87.476,50.538L86.786,50.660L86.305,51.424L86.264,51.729L86.278,52.394L86.249,52.716L86.177,52.945L85.613,54.182L85.345,54.597L85.089,54.993L84.860,55.249L84.307,55.569L82.447,55.953L82.162,55.948L81.605,55.817L81.325,55.809L80.749,56.057L80.568,56.214L80.513,56.415L80.486,56.657L80.388,56.931L80.068,57.313L79.712,57.591L79.408,57.911L79.248,58.415L79.270,58.655L79.401,59.190L79.411,59.412L79.343,59.638L79.265,59.689L79.161,59.692L79.010,59.769L78.676,60.073L78.513,60.312L78.466,60.671L78.518,62.040L78.494,62.317L78.434,62.601L78.354,62.848L78.287,63.114L78.270,63.452L78.373,63.983L78.752,64.935L78.839,65.453L78.760,65.986L78.547,66.403L78.254,66.710L77.317,67.276L77.082,67.599L76.915,68.142L76.848,68.845L76.859,69.403L76.802,69.920L76.528,70.502L75.826,71.369L75.537,71.949L75.517,72.623L75.726,72.970L76.058,73.102L76.723,73.056L77.641,72.561L77.871,72.499L78.080,72.623L78.168,72.844L78.214,73.106L78.377,73.582L78.436,73.681L78.498,73.696L78.673,73.636L78.743,73.653L78.890,73.821L79.026,74.017L79.147,74.258L79.248,74.555L79.310,74.644L79.394,74.676L79.468,74.732L79.508,74.896L79.471,75.015L79.291,75.264L79.243,75.388L79.229,76.614L79.107,77.035L78.754,77.308L78.572,77.336L77.997,77.256L77.831,77.333L77.589,77.681L77.429,77.778L77.093,77.789L75.737,77.558L75.324,77.348L74.975,77.006L74.860,76.527L74.974,76.338L75.411,76.183L75.522,75.984L75.436,75.754L75.067,75.550L75.104,75.284L75.417,75.100L75.775,75.130L75.905,75.029L74.825,73.516L74.751,73.365L74.650,73.262L74.455,73.215L74.069,73.405L73.455,74.335L73.083,74.583L71.825,74.655L70.853,74.297L70.579,74.344L70.384,74.696L70.071,75.959L69.817,76.518L69.190,77.240L68.522,77.685L67.835,77.801L66.628,77.318L65.923,77.214L65.214,77.296L65.138,77.343L64.687,77.623L64.625,77.792L64.624,77.995L64.643,78.174L64.635,78.277L64.348,78.462L64.212,78.640L64.116,78.649L64.089,78.740L64.160,79.148L64.342,79.727L64.548,80.186L64.684,80.696L64.654,81.429L64.652,81.430L64.651,81.433L64.649,81.436L64.454,81.892L64.184,82.043L63.191,82.210L62.911,82.190L62.685,81.958L62.487,81.436L62.431,81.398L62.374,81.383L62.317,81.394L61.952,81.685L60.973,81.883L60.201,82.346L58.445,83.973L57.891,84.264L57.340,84.258L56.854,84.107L56.337,84.131L56.041,84.071L55.878,83.814L55.613,83.043L55.184,82.504L54.702,82.331L54.198,82.425L53.252,82.953L52.799,83.083L51.817,83.096L51.566,83.033L51.115,82.733L50.876,82.630L50.644,82.676L49.475,83.373L49.356,83.394L49.226,83.352L48.951,83.185L48.845,83.162L48.609,83.259L48.343,83.462L47.385,83.603L46.630,83.938L46.393,83.959L46.130,83.862L44.754,83.000L44.226,82.858L44.289,82.701L44.298,82.554L44.254,82.420L44.164,82.299L44.001,82.161L43.877,81.967L43.812,81.723L43.822,81.436L43.896,81.317L43.979,81.211L44.164,81.052L44.392,80.641L44.387,80.035L44.164,78.784L44.047,78.212L43.879,77.612L43.665,77.075L43.412,76.690L43.271,76.604L42.942,76.511L42.783,76.401L42.643,76.193L42.364,75.645L42.217,75.410L41.934,75.162L41.628,74.894L40.393,74.415L39.809,74.048L38.859,73.232L38.581,73.093L38.272,73.164L37.906,73.323L37.555,73.325L37.279,72.930L37.281,72.646L37.370,72.342L37.425,72.087L37.329,71.939L36.803,71.875L36.630,71.755L36.534,71.583L36.466,71.374L36.379,71.164L36.216,70.995L36.059,70.958L35.711,71.033L35.545,71.011L34.626,70.526L34.300,70.480L33.919,70.663L33.898,70.702L33.510,71.437L33.222,71.677L32.299,70.002L31.893,69.078L31.804,68.030L31.913,65.949L32.249,64.671L32.317,64.186L32.299,63.896L32.204,63.283L32.206,63.009L32.271,62.822L32.607,62.317L32.614,62.211L32.573,62.091L32.542,61.963L32.573,61.834L32.626,61.788L32.755,61.755L32.917,61.613L33.186,61.465L33.311,61.321L33.520,60.959L33.996,60.606L34.227,60.351L34.425,59.883L34.465,59.409L34.403,58.914L34.174,57.829L34.050,57.487L33.860,57.265L32.947,56.833L32.820,56.625L32.991,56.264L32.787,56.183L32.640,56.016L32.531,55.833L32.431,55.720L32.287,55.673L31.426,55.680L31.174,55.544L30.993,55.220L30.789,54.620L30.533,53.408L30.365,52.872L30.220,52.701L30.132,52.599L29.759,52.385L28.154,52.868L25.605,52.552L25.320,52.517L23.656,52.952L23.460,53.157L23.286,53.404L23.001,53.614L22.648,53.650L22.237,53.517L21.896,53.226L21.757,52.783L21.757,52.344L21.708,52.046L21.524,51.910L21.127,51.950L20.726,52.259L20.595,52.317L20.445,52.259L20.071,52.007L19.530,51.871L19.234,51.676L18.713,51.217L17.652,50.986L17.388,50.761L17.125,50.409L16.047,49.563L15.423,49.255L13.874,49.204L13.318,48.755L12.367,47.113L11.897,46.642L11.513,46.700L10.254,47.749L10.276,47.618L10.206,47.001L10.205,46.802L10.304,46.694L10.415,46.733L10.525,46.720L10.615,46.451L10.585,46.232L10.482,45.921L10.355,45.640L10.254,45.519L10.129,45.401L10.082,45.119L10.093,44.513L9.932,44.491L9.047,45.338L8.964,45.135L8.962,45.076L9.005,45.054L9.591,43.710L9.720,43.506L9.958,43.212L9.960,42.557L9.779,41.475L9.591,40.678L9.569,40.468L9.502,40.377L9.356,40.216L9.209,40.000L9.143,39.745L9.158,39.418L9.184,39.205L9.189,39.005L9.143,38.728L8.569,37.209L8.455,36.738L8.410,36.233L8.312,35.966L7.677,34.868L7.527,34.702L7.392,34.613L7.295,34.443L7.225,33.778L7.083,33.254L6.840,30.989L6.840,29.810L6.873,29.517L7.016,29.144L7.049,28.895L7.049,26.597L6.973,25.656L7.554,25.515L8.455,25.507L9.071,25.339L9.300,24.830L9.411,24.091L9.672,23.228L10.059,22.638L10.603,22.055L11.173,21.587L11.643,21.350L12.338,21.317L12.577,21.238L14.716,19.632L15.284,19.348L16.639,19.289L20.940,17.316L21.214,17.191L22.912,16.412L23.603,16.457L23.894,16.603L24.462,17.016L24.763,17.136L29.309,16.987L30.291,17.208L30.328,17.227L30.734,17.439L31.413,18.136L31.677,18.243L31.908,18.211L34.076,17.338L34.637,16.957L35.087,16.652L35.632,16.554L36.129,16.825L36.502,17.598L37.044,18.920L37.742,19.448L38.514,19.268L39.282,18.460L39.149,18.182L39.431,18.006L41.205,17.601L41.546,17.667L42.578,18.095L44.164,18.753L44.715,18.791L45.636,18.256L46.128,18.117L47.194,18.169L47.611,18.100L47.740,18.146L47.870,18.331L47.889,18.530L47.871,18.698L47.892,18.787L48.368,18.863L49.424,18.624L49.931,18.638L50.130,18.700L51.817,19.227L53.255,20.332L53.768,20.613L54.231,20.701L54.254,20.697L54.659,20.624L56.509,19.680L56.983,19.598L57.477,19.786L58.450,20.485L58.953,20.618L59.476,20.395L60.359,19.891L60.649,19.598L61.893,17.952L62.498,17.487L63.055,17.247L64.442,16.649L64.595,16.642L64.934,16.773L65.059,16.746L65.156,16.512L65.175,16.215L65.232,15.930L65.444,15.736L65.770,15.840L66.044,16.290L66.444,17.417L66.840,19.043L67.009,19.540L67.163,19.815L67.672,20.367L67.821,20.627L68.094,21.490L68.540,22.300L69.092,22.695L72.767,23.317L74.386,23.591L75.427,23.405L76.194,23.768L76.457,23.820L77.370,23.748L77.557,23.828L77.670,24.064L77.955,24.967L78.089,25.247L78.276,25.430L79.156,26.031L79.604,26.528L80.764,27.814L82.143,28.717L83.006,29.283L83.952,30.335L85.472,31.637L85.857,32.230L86.211,33.049L87.020,34.488L87.980,35.209L90.104,36.229L90.968,36.465L91.842,36.533ZM5.993,47.094L5.000,46.838L5.004,46.831L6.148,44.844L6.791,43.260L7.417,41.074L7.581,38.820L7.677,38.364L7.594,38.236L7.677,37.981L7.544,37.441L7.588,35.767L7.460,35.035L7.954,35.654L8.170,36.838L8.201,39.179L8.167,39.516L8.025,39.964L7.991,40.285L7.991,41.293L7.816,41.732L7.574,42.174L7.490,42.590L7.782,42.956L7.782,43.123L7.561,43.404L7.281,43.912L7.038,44.511L6.936,45.063L6.735,45.606L5.986,46.605L5.993,47.094Z" fill="currentColor" stroke="currentColor" stroke-width="1.5" stroke-linejoin="round"/>
</svg>