<svg xmlns="http://www.w3.org/2000/svg" viewBox="0 0 100 100" role="img" aria-label="Luxembourg">
  <title>Luxembourg</title>
  <path d="M50.691,11.688L50.143,13.463L49.759,15.149L49.260,18.598L49.399,18.687L49.873,18.642L50.053,18.668L49.759,19.067L49.022,20.500L49.881,20.994L50.397,22.002L50.888,24.563L50.667,25.926L51.010,26.921L52.377,29.001L53.580,32.449L54.210,33.521L55.061,31.835L56.419,34.034L59.021,40.310L60.256,41.565L62.940,42.764L64.094,43.512L64.470,44.184L64.790,45.036L65.264,46.301L65.346,46.713L65.984,46.770L67.170,46.047L67.866,46.066L69.208,46.916L71.482,49.090L72.824,49.946L74.207,50.326L78.004,50.326L80.442,51.049L80.753,51.068L81.178,51.531L81.154,51.506L80.982,51.677L80.974,52.710L80.859,52.792L80.483,55.461L80.475,56.330L80.687,56.875L80.655,57.350L79.886,58.029L79.828,59.126L80.008,60.127L80.385,61.008L80.949,61.769L80.262,61.496L79.894,61.680L79.624,62.276L80.164,62.904L80.319,63.170L74.502,66.961L73.274,68.692L73.413,69.097L73.921,69.446L74.403,69.921L74.477,70.733L74.264,71.284L73.667,72.172L72.865,73.833L70.803,76.394L69.609,78.283L69.159,79.633L69.159,83.519L69.005,84.700L68.488,88.661L68.733,92.376L68.727,93.279L67.146,93.111L65.043,91.944L61.271,89.095L61.132,88.990L58.964,88.115L56.713,87.874L52.164,88.382L52.680,89.510L50.446,89.719L49.881,89.948L49.464,90.695L49.472,91.482L49.292,92.141L48.335,92.509L47.566,93.688L46.404,94.125L39.654,94.537L38.279,95.000L37.191,91.488L35.702,89.973L30.678,88.762L28.689,87.817L27.307,86.512L24.819,83.171L26.701,82.264L28.518,80.305L29.270,78.391L27.929,77.649L28.820,76.800L29.450,75.570L30.465,72.742L31.095,71.994L31.881,71.259L32.322,70.194L31.881,68.451L31.308,67.963L29.720,67.779L29.180,67.367L28.902,66.466L29.017,66.029L29.254,65.636L29.295,64.837L29.418,64.159L29.802,63.722L30.097,63.214L30.022,62.555L29.990,62.276L29.532,61.547L29.017,61.509L28.509,61.680L28.068,61.598L27.593,61.332L26.488,60.996L25.981,60.584L26.014,60.298L25.842,58.587L25.719,58.010L23.854,54.308L23.330,53.528L22.324,52.907L21.473,52.761L20.671,52.368L19.836,50.973L19.354,49.433L19.239,47.968L19.591,46.795L20.532,46.161L19.771,45.452L19.910,45.008L20.057,44.722L20.172,44.355L20.164,43.645L22.242,43.860L21.506,42.745L19.754,41.407L18.822,40.957L19.141,39.791L21.882,35.030L22.201,34.250L22.389,33.629L22.684,32.988L23.306,32.164L23.862,31.790L25.032,31.518L25.687,30.903L26.554,29.216L26.235,28.538L25.678,27.853L25.768,26.161L26.259,25.508L27.863,24.798L28.436,24.189L28.632,23.219L28.632,22.066L28.542,20.646L29.017,19.885L30.170,18.883L30.653,18.186L30.850,17.349L31.005,15.359L31.291,14.579L32.601,13.387L35.546,11.948L36.724,10.724L37.354,8.962L37.682,7.282L38.353,6.147L40.038,5.970L41.257,5.000L41.765,5.552L42.026,6.724L42.509,7.624L43.209,7.963L43.557,8.132L44.448,8.258L46.248,7.973L46.936,7.548L47.443,7.003L48.057,6.921L49.080,7.903L49.423,9.032L49.333,10.192L49.513,11.162L50.691,11.688Z" fill="currentColor" stroke="currentColor" stroke-width="1.5" stroke-linejoin="round"/>
</svg>