<svg xmlns="http://www.w3.org/2000/svg" viewBox="0 0 100 100" role="img" aria-label="Latvia">
  <title>Latvia</title>
  <path d="M84.268,35.085L86.444,35.065L86.377,35.893L86.413,36.430L86.278,36.896L86.235,37.293L86.545,37.627L87.843,38.233L88.508,38.975L88.676,39.162L89.932,39.939L90.163,40.143L90.319,40.468L90.392,40.998L90.330,42.272L90.240,42.970L90.121,43.457L89.745,43.813L88.590,44.372L88.357,44.715L88.529,45.129L88.851,45.299L89.142,45.526L89.207,46.108L89.146,46.356L88.944,46.847L88.867,47.098L88.835,47.328L88.808,47.781L88.765,48.039L87.941,49.814L87.688,50.611L87.887,50.665L88.096,50.722L89.125,50.142L89.650,49.996L90.202,50.154L90.468,50.381L90.955,50.939L91.229,51.157L91.295,51.481L91.062,52.000L90.764,52.536L90.632,52.917L90.845,53.307L92.067,54.181L92.195,54.568L92.205,55.590L92.271,56.071L92.439,56.441L92.658,56.686L93.651,57.176L93.868,57.345L93.944,57.612L93.857,57.813L93.535,58.126L93.460,58.394L93.500,58.613L93.600,58.815L94.245,59.652L94.342,59.840L94.387,60.086L94.342,60.865L94.378,61.386L94.468,61.846L94.969,63.397L95.000,63.639L94.976,63.973L94.902,64.152L94.802,64.298L94.700,64.540L94.592,65.074L94.520,65.611L94.402,66.115L94.151,66.554L93.680,66.227L93.150,66.436L92.937,66.593L92.598,66.844L92.067,67.108L91.553,67.220L91.397,67.304L91.203,67.512L91.080,67.759L90.971,68.038L90.820,68.338L89.975,69.005L89.586,69.417L89.533,69.962L89.129,70.704L87.895,71.542L87.549,72.548L87.462,73.629L87.354,74.114L87.245,74.463L86.896,74.509L85.335,74.361L84.925,74.234L84.537,73.996L84.227,73.623L83.973,73.933L83.393,74.517L83.152,74.623L82.811,74.427L82.037,73.748L81.767,73.595L81.262,73.508L79.651,73.722L79.631,73.735L79.362,73.910L78.646,74.816L77.934,76.165L77.687,76.466L76.696,76.994L76.411,77.016L75.750,76.742L75.418,76.705L75.114,76.878L74.852,77.354L74.144,77.297L73.443,77.097L71.721,76.233L70.943,75.622L70.287,74.402L70.000,73.709L69.688,73.206L68.456,72.103L67.689,71.212L66.989,70.733L65.872,69.968L64.931,68.877L64.568,68.457L63.855,67.948L63.703,67.792L63.594,67.555L63.363,66.790L63.272,66.590L63.121,66.522L62.380,66.583L62.167,66.540L61.545,66.232L60.701,66.389L59.388,66.157L56.410,65.630L55.962,65.295L55.600,64.609L55.379,63.878L55.259,63.657L54.846,63.190L54.721,62.956L54.584,62.536L54.263,61.158L53.938,60.203L53.716,59.822L53.452,59.734L53.280,59.898L53.234,60.140L53.218,60.391L53.140,60.590L53.039,60.612L52.764,60.502L52.640,60.508L51.516,61.014L51.064,61.218L50.574,61.611L49.565,63.006L49.330,63.255L48.614,63.681L48.191,63.870L47.783,63.757L46.994,63.165L46.593,63.006L46.209,63.075L44.709,63.875L44.382,63.937L44.363,63.940L43.987,63.866L43.571,63.628L42.406,62.692L41.038,62.245L40.876,62.192L40.466,62.180L39.610,62.384L39.224,62.319L39.207,62.244L39.221,62.101L39.206,61.933L39.100,61.775L38.996,61.737L38.658,61.795L37.794,61.751L37.395,61.869L36.648,62.323L36.202,62.290L34.916,61.732L34.079,61.370L33.803,61.314L32.365,61.657L32.136,61.806L32.244,62.042L31.622,62.726L30.995,62.879L30.430,62.432L29.991,61.311L29.688,60.657L29.285,60.427L28.843,60.510L28.479,60.768L28.023,61.091L26.267,61.831L26.079,61.858L25.865,61.767L25.315,61.177L24.985,60.997L24.955,60.981L24.160,60.793L20.474,60.920L20.230,60.819L19.770,60.469L19.534,60.345L18.974,60.306L17.597,60.966L17.375,61.073L13.889,62.744L12.790,62.794L12.329,63.035L10.596,64.396L10.402,64.462L9.839,64.490L9.458,64.692L8.996,65.088L8.554,65.582L8.241,66.082L8.029,66.813L7.940,67.439L7.753,67.870L7.254,68.013L6.524,68.019L6.053,68.139L6.053,68.132L6.043,68.027L5.920,67.186L5.748,66.440L5.192,65.008L5.060,64.518L5.006,64.030L5.030,63.890L5.144,63.444L5.175,63.184L5.175,62.940L5.160,62.735L5.029,61.841L5.000,61.387L5.024,60.952L5.129,60.603L5.297,60.295L5.370,60.118L5.429,59.911L5.457,59.660L5.459,59.213L5.521,58.981L5.430,58.598L5.396,58.188L5.469,57.976L5.691,58.192L5.769,58.427L5.835,59.022L5.945,59.291L5.769,59.601L5.855,59.687L5.945,59.743L5.945,60.066L5.945,60.222L5.769,60.518L6.053,60.930L6.157,60.996L6.261,60.944L6.348,60.811L6.380,60.632L6.242,60.155L6.218,59.751L6.236,59.366L6.285,59.122L6.230,58.966L6.175,58.567L6.114,58.347L6.047,58.179L5.987,58.075L5.769,57.881L5.633,57.815L5.520,57.799L5.428,57.748L5.345,57.571L5.293,57.319L5.329,57.217L5.394,57.119L5.520,56.188L5.963,54.881L6.114,54.144L6.199,52.198L6.150,51.748L6.063,51.343L6.045,50.957L6.199,50.562L7.218,49.879L7.336,49.671L8.158,49.168L8.382,48.927L8.837,48.227L8.963,48.082L9.116,47.990L9.465,47.670L9.861,47.305L10.139,46.868L10.376,46.219L10.525,45.408L10.540,44.485L10.504,44.243L10.369,43.633L10.396,43.389L10.513,43.068L10.540,42.871L10.513,41.390L10.540,40.916L10.622,40.512L10.774,40.109L10.971,39.801L11.183,39.676L11.353,39.491L11.818,38.265L12.704,37.102L14.072,34.455L14.449,34.035L14.971,33.755L17.258,33.600L17.797,33.432L20.221,32.131L23.812,30.203L24.338,30.040L24.623,30.018L24.763,29.970L24.915,29.877L25.079,29.812L25.259,29.849L25.384,29.927L25.381,29.953L25.318,30.008L25.259,30.172L25.142,31.029L25.096,31.964L25.144,32.423L25.265,32.756L25.952,33.763L28.719,36.137L29.606,37.238L30.612,38.109L31.257,38.478L31.681,38.576L31.839,38.647L31.875,38.825L31.880,39.049L31.936,39.275L32.211,39.833L32.265,39.945L32.389,40.316L32.486,40.763L32.583,41.562L32.690,41.978L32.873,42.158L32.984,42.368L33.332,44.471L33.462,44.823L33.635,44.964L33.856,45.050L34.445,45.740L35.472,46.157L36.536,46.361L36.689,46.490L37.295,47.383L37.406,47.478L37.487,47.546L38.069,47.731L38.853,47.814L40.975,47.294L41.731,46.927L42.053,46.770L42.529,46.361L42.753,46.035L42.911,45.730L43.081,45.503L43.564,45.368L44.042,45.055L45.255,44.260L45.360,43.936L45.601,43.673L45.882,43.494L46.097,43.412L46.100,43.168L46.223,43.007L46.520,42.793L47.346,41.841L47.612,41.207L47.715,40.297L47.673,39.245L47.376,36.406L47.355,35.563L47.296,35.063L47.164,34.839L47.090,34.568L47.145,33.971L47.291,33.134L47.146,31.798L47.079,31.498L46.533,30.599L46.358,30.172L46.358,29.762L46.224,28.694L46.189,28.156L46.224,27.868L46.315,27.593L46.439,27.347L46.979,27.564L47.334,27.546L47.624,27.386L47.762,27.157L47.966,26.617L48.121,26.441L48.614,26.186L49.266,25.601L49.515,25.547L50.386,25.626L51.141,25.544L51.335,25.393L51.563,24.765L51.745,24.530L52.133,24.627L52.456,24.830L52.780,24.883L52.911,24.764L53.171,24.531L53.471,24.343L54.425,24.206L54.742,23.993L55.487,23.249L55.660,23.076L55.931,22.907L56.224,22.823L56.805,22.808L57.127,23.018L57.298,23.486L57.412,24.046L57.564,24.535L57.746,24.685L57.941,24.685L58.339,24.485L58.585,24.168L58.500,23.805L58.153,23.190L58.167,22.796L58.326,22.646L58.552,22.685L58.774,22.862L58.858,23.018L59.006,23.430L59.084,23.563L59.197,23.630L59.274,23.612L59.355,23.570L59.481,23.563L59.979,23.826L60.731,24.715L61.220,25.021L61.659,25.115L61.780,25.197L61.886,25.368L61.906,25.492L61.909,25.515L61.919,25.666L61.986,25.847L62.248,26.182L62.523,26.347L62.815,26.391L63.126,26.365L63.793,26.140L63.932,26.093L64.122,26.099L64.309,26.416L64.424,26.877L64.583,27.330L64.895,27.625L67.504,27.852L67.650,27.923L67.743,28.034L67.784,28.251L67.740,28.387L67.670,28.522L67.632,28.730L67.670,29.199L67.777,29.479L69.149,30.605L69.562,31.076L70.738,32.967L71.160,33.459L71.675,33.823L71.832,33.890L72.818,34.309L72.821,34.310L73.027,34.509L73.443,35.095L73.673,35.352L73.865,35.319L74.035,35.169L74.203,35.072L74.321,35.102L74.550,35.267L74.670,35.307L74.797,35.249L74.856,35.110L74.899,34.943L74.979,34.796L75.346,34.475L75.751,34.238L76.167,34.104L77.131,34.156L77.350,34.091L77.606,33.867L77.755,33.553L77.882,33.216L78.075,32.927L78.305,32.822L78.458,32.938L78.596,33.099L78.789,33.135L79.007,33.087L79.223,33.091L79.651,33.236L79.944,33.465L80.399,34.157L80.650,34.447L80.946,34.589L81.943,34.651L83.859,35.345L84.268,35.085Z" fill="currentColor" stroke="currentColor" stroke-width="1.5" stroke-linejoin="round"/>
</svg>