<svg xmlns="http://www.w3.org/2000/svg" viewBox="0 0 100 100" role="img" aria-label="Macao S.A.R">
  <title>Macao S.A.R</title>
  <path d="M53.556,50.032L61.374,51.809L64.725,51.809L64.725,55.427L63.079,57.934L60.258,59.743L56.907,59.743L54.732,66.788L60.081,68.723L63.607,70.088L67.546,68.279L67.546,69.485L65.312,71.865L68.839,74.309L73.306,74.277L73.836,76.150L74.423,77.958L74.423,79.799L73.306,80.402L71.602,81.005L67.194,78.403L67.546,82.877L64.725,84.083L62.491,83.480L59.434,80.973L59.376,85.638L58.317,89.351L59.140,93.191L56.907,93.793L52.675,90.494L48.972,93.191L48.442,94.396L46.738,95.000L45.033,95.000L42.800,93.191L40.919,88.843L43.917,88.081L41.800,67.422L41.742,67.358L35.864,61.139L34.512,58.219L34.512,58.156L36.099,51.460L41.154,50.571L42.270,49.429L49.442,47.842L53.556,50.032ZM37.568,7.888L39.331,5.000L43.388,7.412L43.388,8.618L47.854,10.395L50.088,12.236L51.381,15.314L52.263,18.424L48.442,17.758L46.209,19.598L46.738,21.407L47.854,22.010L52.499,19.281L50.088,23.819L50.088,24.422L48.972,23.216L47.854,24.422L48.442,25.723L48.442,27.532L48.442,28.135L48.442,29.341L46.209,30.515L42.270,33.530L40.037,34.736L37.216,34.736L34.982,37.814L32.102,37.814L29.163,41.622L29.104,41.685L25.577,33.878L25.812,32.990L27.223,28.611L29.163,26.611L29.574,26.168L33.160,20.011L36.686,15.314L35.570,12.807L34.394,12.807L34.982,14.045L30.985,15.314L28.810,11.411L32.102,10.395L32.102,9.793L36.686,9.793L37.568,7.888Z" fill="currentColor" stroke="currentColor" stroke-width="1.5" stroke-linejoin="round"/>
</svg>