<svg xmlns="http://www.w3.org/2000/svg" viewBox="0 0 100 100" role="img" aria-label="Morocco">
  <title>Morocco</title>
  <path d="M51.120,56.277L51.113,56.290L51.143,56.576L51.302,57.091L51.358,57.527L51.278,57.800L51.204,58.145L51.236,58.472L51.358,58.830L51.470,59.199L51.470,59.447L51.246,59.635L50.734,59.738L50.119,59.823L49.670,59.823L48.995,59.762L48.575,59.775L48.208,59.775L47.882,59.835L47.477,60.072L47.028,60.441L46.465,60.938L46.127,61.247L45.678,61.314L45.229,61.314L44.790,61.065L44.509,60.938L44.323,60.950L44.017,61.126L43.655,61.247L43.318,61.247L42.754,60.998L42.079,60.629L41.686,60.441L41.125,60.381L40.562,60.259L40.168,60.320L39.663,60.320L38.988,60.568L38.425,60.750L37.808,60.938L37.106,61.107L37.277,61.665L37.519,61.968L37.519,62.344L37.404,62.659L37.067,62.968L36.681,63.361L36.458,63.670L36.232,64.101L36.065,64.349L35.775,64.755L35.517,65.264L35.437,65.579L35.334,65.942L35.134,66.051L34.449,66.148L34.013,66.276L33.633,66.397L33.491,66.611L33.468,66.645L33.359,67.082L33.359,67.390L33.250,67.639L33.088,68.257L32.870,68.820L32.705,69.566L32.543,70.183L32.325,71.177L32.107,72.104L31.836,72.977L31.618,73.534L31.453,73.843L31.073,74.219L30.746,74.461L30.366,74.776L29.930,75.085L29.332,75.455L28.840,75.770L28.640,75.911L28.405,76.079L28.025,76.509L27.698,77.133L27.480,77.630L27.100,78.436L26.829,78.872L26.664,79.114L26.228,79.362L25.739,79.550L25.194,79.799L24.758,80.047L24.160,80.295L23.780,80.544L23.506,80.913L23.288,81.350L23.017,81.974L22.799,82.652L22.690,83.088L22.363,84.579L22.254,85.445L22.146,86.003L21.983,86.687L21.874,87.742L21.874,88.608L21.765,89.105L21.710,89.480L21.438,89.911L21.220,90.220L20.840,90.656L20.513,90.904L20.405,91.153L20.078,91.461L19.751,91.958L19.480,92.267L19.533,92.516L19.589,92.952L19.424,93.388L19.262,93.885L18.826,94.503L18.337,94.812L17.627,94.873L16.649,94.873L15.886,94.812L14.961,94.812L14.145,94.691L13.382,94.564L12.458,94.503L11.804,94.503L10.988,94.624L8.864,94.624L8.048,94.691L6.850,94.939L6.503,95.000L6.508,94.843L6.736,93.929L6.758,93.656L6.740,93.421L6.752,93.280L6.844,93.109L6.863,93.039L6.870,92.963L6.867,92.890L6.849,92.857L6.778,92.794L6.758,92.759L6.788,92.668L6.813,92.483L6.917,92.229L6.960,91.973L7.008,91.828L7.576,90.591L7.772,90.373L7.803,90.316L7.811,90.279L7.873,90.129L7.905,90.097L7.994,90.029L8.025,89.995L8.114,89.782L8.174,89.692L8.306,89.639L8.336,89.605L8.373,89.575L8.434,89.571L8.482,89.592L8.523,89.627L8.583,89.702L9.181,89.448L9.288,89.355L9.397,89.216L9.482,89.060L9.673,88.342L9.684,88.235L9.738,88.164L10.009,87.876L10.077,87.784L10.147,87.388L10.163,86.860L10.188,86.725L10.253,86.503L10.299,86.401L10.408,86.239L10.409,86.176L10.389,86.127L10.377,86.086L10.377,86.014L10.385,85.972L10.433,85.858L10.445,85.819L10.471,85.797L10.592,85.783L10.723,85.746L10.898,85.582L11.080,85.362L11.133,85.239L11.170,85.114L11.191,84.979L11.198,84.831L11.153,84.686L11.047,84.663L10.823,84.727L10.861,84.612L10.954,84.415L11.005,84.342L11.263,84.090L11.286,84.049L11.693,83.060L11.754,82.976L11.813,82.940L11.882,82.871L12.124,82.432L12.200,82.015L12.259,81.898L12.341,81.777L12.536,81.411L12.799,81.091L12.817,81.054L12.907,80.983L12.945,80.941L12.974,80.875L13.001,80.748L13.023,80.683L13.107,80.540L13.193,80.426L13.259,80.310L13.286,80.156L13.298,79.882L13.278,79.765L13.208,79.624L13.226,79.591L13.245,79.540L13.182,79.590L13.176,79.662L13.186,79.748L13.174,79.836L13.136,79.883L12.997,79.984L12.945,80.009L12.873,80.011L12.826,79.998L12.774,80.010L12.688,80.090L12.630,80.167L12.591,80.242L12.509,80.449L12.439,80.584L12.425,80.623L12.413,80.698L12.362,80.822L12.350,80.878L12.303,80.952L12.049,81.196L11.968,81.131L12.004,81.028L12.124,80.878L12.153,80.788L12.350,80.390L12.688,79.902L12.722,79.805L12.801,79.695L12.887,79.597L13.284,79.242L13.460,79.172L13.695,79.019L13.766,78.947L13.945,78.929L14.089,78.830L14.203,78.693L14.290,78.557L14.513,78.284L14.665,78.049L14.873,77.890L14.962,77.803L14.999,77.689L15.044,77.617L15.541,77.187L15.841,76.852L16.215,76.259L16.354,76.093L16.529,75.928L16.629,75.856L16.739,75.800L16.851,75.764L17.087,75.722L17.202,75.654L17.384,75.504L17.381,75.360L17.398,75.323L17.465,75.181L17.594,75.014L17.725,74.903L17.862,74.825L17.966,74.740L18.033,74.615L18.086,74.212L18.216,73.843L18.263,73.555L18.337,73.376L18.357,73.294L18.347,73.192L18.325,73.098L18.318,73.005L18.357,72.905L18.317,72.866L18.351,72.779L18.376,72.680L18.392,72.577L18.394,72.477L18.380,72.381L18.328,72.246L18.317,72.165L18.322,71.616L18.283,71.460L18.449,70.740L18.487,70.642L18.651,70.016L18.901,69.653L18.972,69.589L19.017,69.528L19.178,69.123L19.216,68.846L19.227,68.807L19.278,68.696L19.308,68.500L19.528,67.928L19.934,67.334L20.080,67.058L20.111,66.976L20.126,66.853L20.214,66.575L20.260,66.489L20.239,66.390L20.293,66.040L20.277,65.949L20.225,65.762L20.241,65.700L20.283,65.630L20.340,65.449L20.371,65.380L20.676,64.972L20.727,64.933L20.986,64.873L21.281,64.710L21.733,64.256L21.808,64.152L21.859,64.045L21.927,63.952L22.053,63.894L22.653,63.828L22.757,63.778L23.323,63.478L24.312,62.750L24.977,62.311L25.297,61.938L25.625,61.260L25.737,60.929L25.842,60.426L26.000,60.066L26.161,59.282L26.263,59.045L26.712,58.368L26.714,58.333L26.676,58.276L26.675,58.241L26.750,58.199L27.040,57.494L27.221,56.860L27.233,56.729L27.258,56.618L27.366,56.380L27.381,56.271L27.381,56.269L27.385,56.242L27.419,56.131L27.478,56.071L27.642,55.988L27.818,55.838L28.017,55.772L28.106,55.667L28.335,55.287L28.463,54.836L28.525,54.707L28.611,54.620L28.716,54.557L29.228,54.360L30.214,54.189L30.999,54.205L31.971,53.884L33.460,53.625L33.520,53.581L33.643,53.452L33.669,53.435L33.764,53.413L34.979,52.873L36.595,52.157L36.773,52.015L36.904,51.845L37.119,51.479L37.202,51.386L37.300,51.299L37.382,51.201L37.416,51.076L37.464,50.981L37.787,50.755L38.042,50.439L38.085,50.350L38.311,50.208L38.354,50.160L38.399,50.075L38.426,50.035L38.612,49.885L38.631,49.860L38.742,49.671L38.894,49.509L38.979,49.451L40.530,48.654L40.902,48.404L41.348,48.173L41.558,48.032L42.227,47.401L42.788,46.550L42.935,46.372L43.037,46.286L43.244,46.210L43.329,46.115L43.460,45.906L43.597,45.731L43.660,45.622L43.687,45.508L43.714,45.455L43.910,45.314L43.935,45.274L43.984,45.144L44.208,44.809L44.241,44.740L44.253,44.608L44.286,44.469L44.335,44.344L44.393,44.251L44.652,44.012L44.693,43.935L44.726,43.836L44.954,43.531L45.660,42.768L46.217,41.790L46.558,40.981L46.612,40.751L46.704,39.961L46.804,39.549L46.819,39.426L46.795,39.260L46.735,39.179L46.651,39.122L46.558,39.025L46.498,38.919L46.359,38.607L46.314,38.402L46.268,38.372L46.208,38.366L46.146,38.344L46.097,38.295L45.998,38.128L45.608,37.869L45.493,37.862L45.367,37.835L45.288,37.747L45.298,37.509L45.413,37.275L45.557,37.055L45.660,36.853L45.695,36.714L45.700,36.637L45.678,36.578L45.640,36.522L45.637,36.483L45.651,36.439L45.660,36.364L45.619,35.146L45.599,35.035L45.511,34.812L45.579,34.666L45.721,33.789L45.734,33.434L45.711,33.289L45.653,33.210L45.581,33.152L45.511,33.068L45.682,32.854L45.808,32.640L45.935,32.267L45.998,32.178L46.099,32.090L46.133,32.045L46.164,31.934L46.240,31.855L46.273,31.784L46.346,31.683L46.373,31.624L46.449,31.126L46.492,31.028L46.990,30.501L47.210,30.201L47.251,30.159L47.330,30.100L47.376,30.053L47.417,29.992L47.464,29.886L47.491,29.841L48.132,29.197L48.197,29.071L48.239,28.979L48.302,28.730L48.311,28.628L48.338,28.551L48.535,28.312L48.613,28.141L48.655,27.949L48.683,27.309L48.661,27.279L48.558,27.229L48.535,27.184L48.548,27.050L48.582,26.955L48.730,26.677L48.770,26.553L48.780,26.430L48.738,26.331L48.689,26.268L48.642,26.178L48.610,26.075L48.606,25.971L48.710,25.781L49.514,25.124L50.133,24.415L50.660,24.057L50.844,23.889L51.460,23.090L52.143,22.365L52.185,22.292L52.191,22.213L52.187,22.080L52.237,22.001L52.687,21.489L52.731,21.466L52.778,21.478L52.831,21.534L52.878,21.546L53.011,21.539L53.109,21.517L53.309,21.419L53.506,21.266L53.825,20.890L54.018,20.738L54.244,20.647L54.988,20.483L55.505,20.263L55.772,20.149L56.024,20.088L56.159,20.033L56.277,19.890L56.413,19.831L56.776,19.724L56.993,19.616L57.095,19.594L57.195,19.541L57.285,19.434L57.377,19.355L57.485,19.382L57.548,19.344L57.600,19.352L57.651,19.376L57.711,19.382L57.763,19.362L57.858,19.305L58.017,19.275L58.131,19.231L58.234,19.176L58.305,19.124L58.489,18.897L58.647,18.825L58.799,18.646L58.904,18.612L58.867,18.658L58.976,18.694L59.092,18.660L59.154,18.621L59.555,18.364L59.763,18.187L59.961,18.083L60.181,18.007L60.374,17.977L60.377,17.977L60.470,17.943L60.642,17.798L60.838,17.732L61.406,17.299L61.979,16.707L62.460,15.944L62.819,15.212L63.417,14.361L63.473,14.255L63.564,14.011L63.690,13.821L64.864,11.488L65.336,9.975L66.324,7.639L66.353,7.521L66.364,7.369L66.387,7.281L66.504,7.035L66.617,6.700L66.627,6.648L66.644,6.590L66.715,6.495L66.732,6.434L66.764,6.142L66.802,5.998L66.850,5.904L66.955,5.801L67.143,5.773L67.644,5.841L67.710,5.830L67.857,5.693L67.925,5.644L68.023,5.595L68.123,5.572L68.191,5.604L68.286,5.562L68.415,5.559L68.545,5.589L68.637,5.646L68.958,5.469L69.049,5.392L69.244,5.183L69.346,5.100L69.458,5.050L69.502,5.052L69.527,5.075L69.592,5.109L69.643,5.106L69.664,5.059L69.677,5.011L69.690,5.000L69.724,5.013L69.727,5.013L69.776,5.152L69.838,5.278L69.922,5.389L70.043,5.491L70.043,5.493L70.016,5.583L70.034,5.737L70.116,6.059L70.142,6.320L70.163,6.395L70.196,6.452L70.239,6.497L70.271,6.503L70.363,6.489L70.391,6.497L70.399,6.533L70.387,6.627L70.391,6.667L70.482,6.996L70.540,7.121L70.654,7.221L70.884,7.375L71.077,7.546L71.537,8.158L71.621,8.220L71.754,8.242L71.853,8.271L71.960,8.342L72.144,8.500L72.298,8.699L72.391,8.797L72.633,8.875L72.929,9.135L73.147,9.253L73.921,9.474L74.644,9.627L74.651,9.628L75.294,9.806L75.449,9.817L75.561,9.788L75.875,9.601L76.630,9.478L77.087,9.285L77.552,9.194L77.780,9.093L77.834,9.164L77.817,9.191L77.751,9.212L77.725,9.236L77.749,9.273L77.785,9.316L77.864,9.419L77.944,9.455L78.056,9.462L78.207,9.474L78.310,9.465L78.498,9.450L78.621,9.393L78.672,9.282L78.717,9.112L78.831,8.997L78.976,8.944L79.118,8.962L79.223,9.030L79.452,9.226L79.567,9.301L79.975,9.361L80.121,9.439L80.186,9.441L80.254,9.434L80.314,9.435L80.374,9.454L80.480,9.502L80.537,9.520L80.813,9.541L81.046,9.496L81.722,9.270L81.837,9.203L82.084,8.958L82.142,8.923L82.187,8.926L82.238,8.952L82.296,8.972L82.365,8.962L82.537,8.797L82.750,8.307L82.889,8.115L82.878,8.049L82.904,7.998L82.955,7.978L83.020,8.011L83.044,8.062L83.015,8.168L83.040,8.242L82.985,8.431L83.058,8.670L83.067,8.699L83.068,8.702L82.964,8.801L82.981,8.972L83.094,9.086L83.258,9.030L83.334,9.135L83.285,9.191L83.261,9.285L83.256,9.389L83.275,9.590L83.301,9.671L83.348,9.744L83.427,9.838L83.568,9.934L83.759,9.992L84.155,10.029L83.917,9.848L83.501,9.400L83.420,9.268L83.446,9.220L83.520,9.274L83.784,9.541L83.826,9.608L84.085,9.859L84.317,9.985L84.598,10.077L85.162,10.152L85.411,10.132L85.542,10.101L85.630,10.050L85.745,9.926L85.848,9.848L85.959,9.823L86.478,10.011L86.600,10.029L86.729,10.068L86.874,10.145L87.016,10.194L87.024,10.438L87.075,10.603L87.173,10.726L87.339,10.785L87.541,10.922L87.711,11.073L87.894,11.184L88.139,11.206L88.208,11.256L88.229,11.329L88.236,11.414L88.263,11.500L88.338,11.584L88.626,11.753L88.811,11.917L89.383,12.258L89.482,12.353L89.462,12.398L89.392,12.449L89.259,12.729L88.973,13.145L88.929,13.251L89.585,13.886L89.783,13.943L89.844,13.976L89.264,14.642L89.472,14.876L89.610,15.151L89.998,16.295L90.012,16.381L90.026,16.461L90.012,16.585L89.759,17.585L89.740,17.876L89.790,18.181L89.847,18.362L89.843,18.430L89.802,18.522L89.746,18.588L89.683,18.641L89.631,18.703L89.606,18.799L89.639,18.897L89.722,18.952L89.911,19.016L90.006,19.083L90.065,19.157L90.310,19.717L90.335,19.921L90.267,20.090L90.185,20.206L90.083,20.552L90.008,20.708L89.952,20.866L89.951,21.476L90.001,21.680L90.276,21.937L90.374,22.114L90.448,22.309L90.561,22.462L90.701,22.587L90.860,22.697L90.952,22.783L90.987,22.911L90.985,23.056L90.968,23.192L90.955,23.256L90.933,23.314L90.901,23.365L90.860,23.408L90.629,23.568L91.366,24.755L91.545,24.901L91.891,25.024L93.412,26.153L93.497,26.293L93.181,26.634L93.000,26.768L92.798,26.848L92.573,26.880L92.484,26.925L92.396,27.036L92.342,27.146L92.269,27.370L92.182,27.937L92.171,28.011L92.173,28.063L92.165,28.114L92.130,28.181L92.097,28.214L92.007,28.283L91.986,28.322L92.010,28.423L92.098,28.424L92.300,28.346L92.404,28.345L92.518,28.378L92.606,28.454L92.633,28.584L92.526,28.804L92.312,28.854L91.902,28.835L91.856,28.833L91.725,28.827L91.519,28.817L91.245,28.805L90.915,28.790L90.537,28.773L90.120,28.754L89.674,28.733L89.208,28.712L88.731,28.691L88.252,28.669L87.782,28.647L87.329,28.627L86.903,28.607L86.512,28.589L86.166,28.574L85.418,28.540L84.441,28.804L83.431,28.887L83.118,29.059L83.493,30.028L83.721,30.635L82.770,30.765L81.591,31.112L80.000,31.391L79.797,31.408L79.565,31.357L79.194,31.545L79.118,33.150L78.716,33.175L78.416,33.389L78.347,33.473L78.325,33.586L78.359,34.055L78.348,34.196L78.233,34.387L78.196,34.509L78.216,34.616L78.280,34.672L78.371,34.678L78.468,34.636L78.627,34.489L78.708,34.447L78.803,34.471L78.881,34.552L79.030,34.785L79.127,34.877L79.323,34.971L79.387,35.028L79.439,35.143L79.463,35.253L79.471,35.373L79.765,35.838L79.461,36.315L79.194,36.575L79.232,36.965L79.270,37.356L78.243,37.876L77.330,38.093L76.493,38.136L75.847,38.310L75.314,38.613L74.705,39.393L73.945,40.001L73.146,40.347L72.575,40.651L72.118,40.998L71.510,41.518L70.939,41.908L70.407,42.472L70.026,43.209L69.532,43.990L68.961,44.727L68.428,44.900L67.972,44.727L67.782,44.163L67.097,44.250L66.450,44.380L65.765,44.380L64.967,44.380L64.206,44.467L63.407,44.683L62.646,44.770L62.189,45.204L61.238,44.813L60.630,44.770L60.211,44.813L59.603,45.074L59.108,45.594L58.489,45.559L58.376,45.600L58.256,45.614L58.134,45.609L57.894,45.568L57.639,45.557L57.453,45.639L57.121,45.976L57.038,46.042L56.776,46.178L56.443,46.490L55.867,46.879L55.370,47.353L55.189,47.481L54.575,47.752L54.204,48.005L53.843,48.351L53.754,48.405L53.562,48.491L53.480,48.557L53.294,48.889L53.225,48.959L52.978,49.097L52.733,49.294L52.036,49.673L51.934,49.762L51.873,49.879L51.853,50.046L51.853,50.329L51.853,50.701L51.853,51.072L51.853,51.444L51.853,51.816L51.853,52.188L51.853,52.560L51.853,52.931L51.853,53.303L51.853,53.675L51.853,54.046L51.853,54.418L51.853,54.790L51.853,55.162L51.853,55.533L51.853,55.905L51.853,56.277L51.471,56.277L51.123,56.277L51.120,56.277Z" fill="currentColor" stroke="currentColor" stroke-width="1.5" stroke-linejoin="round"/>
</svg>