<svg xmlns="http://www.w3.org/2000/svg" viewBox="0 0 100 100" role="img" aria-label="Moldova">
  <title>Moldova</title>
  <path d="M14.326,11.757L14.341,11.513L14.473,11.045L14.695,10.689L15.366,10.274L15.466,9.890L15.583,9.638L15.982,9.789L16.257,10.093L16.473,10.459L16.723,10.779L17.101,10.948L17.503,10.918L17.734,10.712L17.822,10.326L17.808,9.764L17.701,9.192L17.581,8.834L17.567,8.567L17.781,8.276L17.894,8.266L18.228,8.397L18.368,8.402L18.544,8.222L18.601,8.003L18.672,7.817L18.893,7.747L19.566,8.036L20.232,8.595L20.933,9.011L21.701,8.879L21.894,8.680L22.041,8.705L22.179,8.788L22.402,8.769L22.647,8.818L22.756,8.745L22.731,8.595L22.664,8.429L22.649,8.311L22.658,8.114L22.601,7.862L22.620,7.647L22.844,7.570L23.061,7.630L23.482,7.891L25.655,8.697L26.320,8.732L27.090,8.342L27.201,8.206L28.299,6.856L29.033,6.486L29.424,6.584L30.001,7.114L30.278,7.218L30.618,7.050L31.850,6.030L32.316,5.407L33.155,5.407L33.396,5.348L33.923,5.000L34.366,5.057L34.408,5.840L34.817,6.035L37.350,6.013L38.030,6.323L39.342,7.274L39.646,7.593L40.063,8.202L40.293,8.537L40.452,8.677L40.897,9.363L41.722,9.677L42.455,9.766L43.527,9.897L43.942,10.092L44.276,10.475L44.387,11.009L43.988,12.176L44.284,12.398L44.738,12.419L45.052,12.334L45.682,11.810L46.016,11.760L46.163,12.251L46.236,12.826L46.450,13.163L46.796,13.270L47.271,13.166L47.705,12.918L48.026,12.645L48.370,12.426L49.306,12.319L49.655,12.363L49.867,12.601L49.905,13.166L49.769,13.780L49.544,14.052L49.252,14.242L48.933,14.607L48.799,15.021L48.836,15.436L49.063,15.684L49.489,15.604L49.802,15.253L50.017,14.802L50.282,14.447L50.748,14.384L51.067,14.602L51.262,15.005L51.237,15.456L50.899,15.827L51.476,17.001L51.719,17.248L52.129,17.532L52.341,17.515L52.417,17.237L52.425,16.731L52.539,16.223L52.566,16.106L52.936,15.026L53.388,14.823L54.039,14.852L55.907,15.615L57.317,15.634L58.051,15.760L58.620,16.137L58.756,16.375L58.805,16.590L58.822,16.792L58.870,16.997L59.195,17.767L59.260,18.545L59.296,18.725L59.432,18.920L59.766,19.228L59.896,19.449L60.312,20.156L60.967,20.858L61.399,21.185L61.688,21.404L62.308,21.655L63.046,21.515L63.936,20.364L64.579,20.054L64.931,20.069L65.214,20.179L65.464,20.411L65.701,20.792L65.861,21.254L66.039,22.273L66.201,22.708L66.486,22.927L67.286,23.167L67.489,23.311L67.423,23.717L67.111,24.139L66.736,24.538L66.488,24.874L66.306,25.395L66.308,25.722L66.503,25.916L67.204,26.166L67.463,26.404L67.542,26.725L67.299,27.105L66.696,27.871L66.585,28.801L66.604,29.853L66.394,30.974L65.868,31.880L65.346,32.569L65.081,33.352L65.344,34.546L65.346,34.549L65.349,34.551L65.350,34.554L65.482,34.820L65.540,34.934L65.856,35.832L66.024,36.148L66.394,36.431L66.604,36.254L66.796,35.933L67.130,35.784L67.420,35.941L67.787,36.565L68.410,36.978L68.549,37.297L68.640,37.651L68.805,37.969L69.086,38.132L69.405,38.198L69.719,38.336L69.984,38.727L70.089,39.198L70.098,39.628L70.161,40.051L70.228,40.164L70.429,40.505L70.706,40.751L71.013,40.898L71.338,40.930L71.665,40.827L72.020,40.489L72.161,40.074L72.253,39.619L72.461,39.157L72.871,39.110L73.275,39.137L73.659,39.277L73.998,39.580L74.272,40.094L74.459,40.784L74.478,41.473L74.245,41.988L73.743,42.252L73.670,42.898L73.877,44.457L73.760,45.189L73.466,45.543L73.025,45.670L72.461,45.727L72.415,45.812L72.400,45.904L72.417,45.995L72.461,46.092L73.082,47.259L73.258,47.440L73.479,47.259L73.656,46.876L73.892,46.539L74.274,46.502L74.543,46.687L74.776,47.004L74.923,47.408L74.941,47.862L74.787,48.267L74.543,48.545L74.321,48.874L74.169,49.982L74.080,50.376L74.064,50.448L74.041,50.838L74.220,51.168L74.335,51.196L74.849,51.146L75.034,51.246L75.353,51.618L75.527,51.771L75.857,51.889L76.522,51.945L76.832,52.060L77.164,52.394L77.638,53.176L78.010,53.449L78.652,53.549L79.250,53.490L79.827,53.564L80.407,54.053L80.503,54.259L80.665,54.798L80.761,54.962L80.942,54.977L81.128,54.850L81.326,54.760L81.544,54.885L81.594,55.083L81.590,55.722L81.617,55.995L81.696,56.212L81.920,56.641L82.010,56.868L82.040,57.416L81.873,59.268L81.789,59.615L81.691,59.882L81.619,60.164L81.607,60.557L81.681,60.864L81.934,61.474L81.980,61.756L81.745,62.397L81.298,62.485L80.948,62.522L81.011,63.186L81.298,63.543L82.194,63.926L82.232,64.001L82.333,64.286L82.404,64.349L82.537,64.306L82.784,64.142L82.900,64.147L83.060,64.275L83.193,64.458L83.443,64.976L83.288,65.233L84.221,65.984L84.566,66.400L84.767,66.220L85.074,66.164L85.403,66.225L85.674,66.400L85.179,67.320L84.650,67.847L83.759,68.004L81.351,67.863L81.023,67.937L80.660,68.144L79.911,68.821L79.512,68.883L79.107,68.427L79.066,68.223L79.078,67.648L79.044,67.377L78.948,67.128L78.526,66.451L77.458,65.419L77.198,64.961L77.191,65.798L76.969,66.236L76.560,66.397L75.985,66.404L75.854,66.591L75.955,67.320L75.804,67.805L75.531,68.089L75.198,68.215L74.851,68.178L74.534,67.982L74.259,67.606L73.979,66.954L73.691,66.691L73.407,66.583L72.769,66.460L72.461,66.331L72.343,66.119L72.308,65.895L72.348,65.664L72.461,65.427L72.570,65.219L72.610,65.015L72.574,64.821L72.461,64.637L71.989,64.558L71.971,64.568L71.567,64.796L71.189,65.219L70.306,66.597L70.050,66.605L69.686,66.062L69.210,65.033L68.925,64.936L68.568,65.542L68.503,65.904L68.599,66.506L68.587,66.774L68.448,67.156L68.345,67.202L68.207,67.156L67.959,67.247L67.223,68.077L66.771,68.355L66.427,68.056L66.421,67.745L66.562,67.460L66.743,67.183L66.872,66.897L66.912,66.547L66.895,64.028L66.762,63.389L66.438,62.971L66.414,62.971L66.001,62.970L64.218,63.994L63.832,64.141L63.109,64.415L61.596,65.449L61.183,66.104L61.057,66.940L61.220,68.031L61.577,69.438L61.596,69.907L61.477,70.442L61.334,70.869L61.346,71.275L61.694,71.748L61.697,71.749L62.374,72.399L62.896,72.901L63.009,73.548L62.767,74.253L62.308,75.051L61.609,75.855L61.453,76.326L61.502,77.058L61.863,78.357L61.821,78.942L61.315,79.186L57.774,80.138L57.422,80.375L57.197,80.809L57.182,81.305L57.464,82.336L57.548,82.834L57.519,83.432L57.382,83.817L57.124,84.078L56.735,84.306L56.144,84.441L55.991,84.576L55.983,84.747L56.035,85.016L56.062,85.325L55.991,85.610L55.460,85.931L54.101,86.068L53.774,86.625L53.834,86.854L53.917,87.178L53.791,87.417L53.204,87.611L52.853,87.850L52.629,88.098L52.156,88.819L52.016,89.162L52.196,89.376L52.513,89.568L52.773,89.844L52.887,90.262L52.924,90.677L53.013,91.088L53.293,91.488L52.756,91.749L52.637,91.861L52.620,91.895L52.508,92.115L52.503,92.183L52.545,92.238L52.675,93.250L52.585,93.602L52.156,93.804L50.855,93.750L49.334,93.338L47.884,93.222L47.882,93.223L46.803,94.060L46.801,94.065L46.624,94.416L46.484,94.789L46.442,95.000L45.902,94.328L45.760,94.023L45.749,93.021L45.722,92.952L45.672,92.889L45.594,92.704L45.253,92.070L44.787,91.698L43.653,91.077L43.909,90.742L44.242,90.411L44.578,90.160L44.845,90.062L45.512,90.068L45.802,89.920L45.676,89.534L45.716,89.056L45.537,86.071L45.365,85.793L45.008,85.082L44.691,84.180L44.635,83.318L44.725,83.157L44.994,82.959L45.052,82.811L45.013,82.699L44.832,82.320L44.775,82.100L44.803,81.865L44.885,81.638L44.929,81.411L44.845,81.176L44.723,80.970L44.673,80.792L44.635,80.458L44.140,78.966L44.070,78.545L44.106,78.251L44.358,77.207L44.351,77.047L44.228,76.959L44.221,76.799L44.276,76.650L44.438,76.543L44.580,76.123L44.635,75.962L44.977,74.956L45.096,74.222L45.329,73.530L45.264,73.270L45.145,73.066L45.017,72.892L44.644,72.269L44.603,72.015L44.845,71.904L45.073,71.843L45.122,71.681L45.052,71.174L45.136,70.968L45.334,70.860L45.564,70.788L45.757,70.685L46.001,70.440L46.276,69.824L46.307,69.721L46.289,69.355L46.207,68.752L46.256,68.535L46.500,68.450L46.597,68.324L46.715,67.415L46.849,67.277L46.996,67.211L47.034,67.195L47.128,67.026L46.981,66.622L47.269,66.476L47.387,66.250L47.411,66.002L47.409,65.079L47.382,64.832L47.312,64.802L47.226,64.830L47.145,64.756L46.880,64.229L46.838,63.992L46.880,62.877L46.955,62.653L47.145,62.522L46.968,62.033L47.071,61.606L47.275,61.235L47.409,60.914L47.413,60.507L47.367,60.191L47.350,60.074L47.145,59.269L46.007,56.966L46.008,56.406L45.189,54.990L44.858,54.155L44.881,53.917L44.914,53.562L44.914,53.341L44.687,53.050L44.712,52.694L44.697,52.355L44.358,52.121L44.532,51.673L44.523,51.599L44.468,51.154L44.070,50.071L43.793,49.566L43.165,48.763L43.143,48.734L42.960,48.242L42.559,48.441L42.119,48.235L41.642,47.932L41.147,47.835L41.141,47.406L40.887,47.177L40.312,46.800L39.690,46.109L39.501,45.970L39.308,45.908L39.218,45.819L39.342,45.601L39.342,45.399L38.463,44.920L38.221,44.586L38.449,44.514L38.486,44.388L38.427,44.209L38.372,43.975L38.337,43.957L38.092,43.144L37.579,42.488L37.363,42.113L37.388,41.741L36.975,41.021L36.763,40.792L36.255,40.668L36.093,40.567L35.940,40.437L35.725,40.300L35.176,40.177L35.019,40.097L34.756,39.658L34.267,38.488L34.040,38.290L33.993,38.249L33.707,38.058L33.869,37.141L33.508,36.828L33.569,36.478L33.646,36.172L33.756,35.943L33.923,35.812L33.778,35.522L33.520,35.286L33.216,35.110L32.939,34.999L32.907,35.016L32.385,34.999L32.267,34.941L32.188,34.867L32.087,34.804L31.906,34.778L31.692,34.588L31.562,34.155L31.415,33.355L31.363,33.335L31.143,33.306L31.063,33.254L31.021,33.123L31.025,32.853L30.999,32.745L30.935,32.560L30.844,32.182L30.804,32.019L30.784,31.933L30.148,31.693L29.581,31.120L28.259,29.387L27.793,28.600L27.608,27.946L28.076,27.851L28.076,27.665L27.965,27.449L27.997,27.130L27.935,26.884L27.923,26.834L27.820,26.735L27.459,26.471L27.382,26.336L27.287,26.084L27.057,25.636L26.777,25.205L26.536,25.006L27.231,24.580L27.076,24.327L26.855,24.219L26.609,24.146L26.397,23.989L26.414,23.805L26.381,22.886L26.397,22.752L26.028,22.319L25.568,22.064L25.348,21.793L25.705,21.311L25.705,21.187L25.705,21.127L25.577,21.058L25.151,20.720L25.392,20.505L25.533,20.244L25.512,19.968L25.277,19.703L25.004,19.856L24.818,19.450L24.552,19.071L24.030,19.297L23.981,19.213L23.942,19.111L23.913,18.999L23.892,18.875L24.305,18.688L24.305,18.467L23.774,18.165L23.287,17.737L22.933,17.164L22.781,16.436L22.834,16.269L23.048,15.997L23.059,15.851L23.061,15.827L22.954,15.676L22.769,15.524L22.595,15.445L22.343,15.651L21.963,15.524L21.407,15.198L21.407,15.012L21.806,14.988L22.036,14.764L22.036,14.507L21.336,14.245L21.184,13.929L21.082,13.586L20.829,13.369L20.645,13.540L20.414,13.870L20.217,13.973L20.135,13.469L20.007,13.245L19.151,12.386L18.933,12.521L18.469,11.949L18.124,11.778L17.287,11.943L16.887,11.858L16.666,11.407L16.448,11.733L16.226,11.687L15.760,11.285L15.298,11.304L14.326,11.757Z" fill="currentColor" stroke="currentColor" stroke-width="1.5" stroke-linejoin="round"/>
</svg>