<svg xmlns="http://www.w3.org/2000/svg" viewBox="0 0 100 100" role="img" aria-label="Madagascar">
  <title>Madagascar</title>
  <path d="M33.721,60.578L33.699,60.367L33.761,60.127L34.217,59.218L34.351,59.010L34.723,58.648L34.870,58.465L34.988,58.255L35.088,58.009L35.120,57.808L35.122,57.525L35.076,57.305L34.960,57.289L34.905,57.106L34.875,57.060L34.831,57.034L34.741,57.029L34.701,57.015L34.616,56.941L34.534,56.839L34.470,56.724L34.445,56.610L34.470,56.521L34.589,56.295L34.637,56.225L34.688,56.132L34.708,56.022L34.701,55.796L34.687,55.729L34.664,55.670L34.649,55.607L34.658,55.530L34.688,55.500L34.796,55.431L34.833,55.391L34.864,55.267L34.880,55.166L34.929,55.097L35.067,55.072L35.150,54.957L35.125,54.699L34.999,54.262L34.906,54.052L34.787,53.857L34.491,53.569L34.445,53.492L34.397,53.276L34.278,53.061L33.702,52.308L33.594,52.094L33.551,51.869L33.594,51.484L33.678,51.279L33.678,50.874L33.673,50.858L33.646,50.810L33.639,50.784L33.651,50.739L33.703,50.686L33.721,50.650L33.759,50.486L33.763,50.422L33.737,50.216L33.588,49.756L33.291,48.943L32.845,48.318L32.441,47.729L32.392,47.534L32.392,46.223L32.147,44.942L32.137,44.509L32.322,43.691L32.354,43.398L32.320,43.300L32.171,43.158L32.084,42.858L31.689,42.292L31.654,42.133L31.657,41.929L31.711,41.523L31.776,41.331L32.095,40.803L32.206,40.529L32.245,40.510L32.319,40.548L32.359,40.499L32.416,40.308L32.891,39.557L32.993,39.451L33.039,39.354L33.058,39.261L33.078,38.949L33.252,38.954L33.405,38.702L33.617,38.135L33.660,38.067L33.830,37.888L33.863,37.832L33.915,37.683L33.959,37.616L34.061,37.498L34.136,37.375L34.256,37.100L34.419,36.856L34.637,36.612L34.819,36.352L34.875,36.056L34.841,35.929L34.728,35.648L34.701,35.512L34.732,35.354L34.805,35.280L34.869,35.312L34.875,35.473L34.974,35.301L35.023,35.119L35.020,34.935L34.960,34.752L34.726,34.392L34.631,34.193L34.616,33.979L34.643,33.896L34.692,33.802L34.751,33.713L34.809,33.645L34.852,33.574L34.867,33.487L34.886,33.116L34.906,33.026L34.957,32.966L35.060,32.937L35.268,32.936L35.482,32.899L36.843,33.034L37.011,32.994L37.089,32.999L37.240,33.127L37.349,33.190L37.462,33.221L37.550,33.192L37.609,33.114L37.647,33.050L37.694,32.996L37.780,32.944L37.867,32.920L38.046,32.891L38.129,32.854L38.078,32.809L38.442,32.632L38.622,32.514L38.745,32.355L38.958,31.992L39.098,31.812L39.237,31.676L39.406,31.574L39.790,31.405L40.034,31.234L40.078,31.275L40.092,31.371L40.101,31.580L40.210,31.946L40.217,31.978L40.220,32.039L40.217,32.086L40.181,32.220L40.173,32.332L40.184,32.418L40.230,32.474L40.329,32.494L40.424,32.462L40.486,32.390L40.539,32.305L40.606,32.242L40.818,32.160L40.907,32.097L40.948,31.994L40.933,31.937L40.810,31.890L40.736,31.811L40.685,31.700L40.682,31.616L40.739,31.563L41.758,31.450L41.802,31.437L41.847,31.415L41.929,31.360L41.975,31.544L42.023,31.613L42.046,31.629L42.055,31.654L42.057,31.747L41.989,31.938L41.993,32.005L42.103,31.949L42.145,32.077L42.191,32.062L42.252,31.949L42.188,31.610L42.207,31.537L42.306,31.434L42.355,31.360L42.350,31.344L42.355,31.177L42.368,31.119L42.389,31.070L42.404,31.019L42.401,30.952L42.353,30.868L42.286,30.811L42.249,30.752L42.295,30.661L42.496,30.443L42.701,30.306L42.766,30.302L42.870,30.344L42.963,30.369L43.059,30.369L43.151,30.379L43.376,30.527L43.517,30.506L43.897,30.279L43.975,30.250L44.059,30.233L44.156,30.227L44.291,30.247L44.338,30.305L44.327,30.524L44.332,30.627L44.354,30.681L44.406,30.705L44.496,30.726L44.549,30.731L44.658,30.723L44.710,30.726L44.880,30.820L45.024,30.826L45.024,30.785L44.963,30.704L44.923,30.591L44.949,30.520L45.006,30.463L45.054,30.392L45.055,30.276L44.904,30.356L44.758,30.472L44.674,30.512L44.710,30.366L44.801,30.216L44.930,30.079L45.077,29.962L45.220,29.871L45.363,29.812L45.512,29.783L45.822,29.782L45.979,29.803L46.051,29.829L46.082,29.873L46.082,29.951L46.091,30.020L46.116,30.083L46.166,30.141L46.094,30.260L46.064,30.365L46.021,30.459L45.906,30.546L46.042,30.660L46.142,30.763L46.221,30.884L46.440,31.345L46.541,31.469L46.678,31.586L46.684,31.521L46.679,31.437L46.685,31.359L46.721,31.315L46.771,31.331L46.841,31.457L46.890,31.495L47.014,31.467L47.066,31.352L47.062,31.209L47.018,31.091L47.183,31.074L47.303,31.193L47.411,31.350L47.537,31.450L47.602,31.399L47.534,31.225L47.385,30.952L47.261,30.895L47.003,30.647L46.848,30.591L46.646,30.603L46.592,30.591L46.478,30.521L46.489,30.477L46.563,30.434L46.638,30.366L46.804,30.101L46.831,29.973L46.763,29.871L46.695,29.863L46.609,29.875L46.538,29.875L46.507,29.826L46.528,29.719L46.618,29.539L46.688,29.298L46.806,29.171L47.084,28.945L47.478,28.491L47.622,28.382L47.633,28.416L47.647,28.443L47.658,28.474L47.661,28.517L47.731,28.477L47.900,28.313L48.165,28.115L48.239,28.043L48.386,27.941L48.552,27.924L48.716,27.926L48.858,27.883L48.776,27.826L48.582,27.771L48.559,27.708L48.627,27.636L48.986,27.546L49.629,27.069L50.100,26.628L50.363,26.549L50.537,26.452L50.634,26.430L50.674,26.452L50.693,26.503L50.701,26.565L50.700,26.738L50.710,26.774L50.786,26.938L50.836,27.004L50.903,27.061L51.000,27.118L51.214,27.208L51.319,27.280L51.320,27.362L51.258,27.447L51.163,27.615L51.086,27.682L50.989,27.748L50.925,27.817L50.647,28.389L50.572,28.611L50.592,28.767L50.659,28.782L50.705,28.690L50.762,28.473L50.835,28.405L50.949,28.367L51.171,28.334L51.383,28.252L51.580,28.145L51.774,28.087L51.976,28.158L52.202,28.070L52.301,28.000L52.321,27.883L52.297,27.845L52.256,27.836L52.205,27.831L52.150,27.815L52.097,27.782L52.074,27.753L51.970,27.554L51.883,27.135L51.885,27.093L51.865,27.074L51.786,27.069L51.731,27.080L51.550,27.163L51.533,27.079L51.541,27.004L51.600,26.845L51.516,26.856L51.448,26.854L51.401,26.823L51.362,26.689L51.256,26.626L51.214,26.570L51.201,26.421L51.256,26.279L51.426,26.034L51.634,25.845L51.903,25.663L52.136,25.452L52.271,25.062L52.359,24.945L52.673,24.640L52.804,24.562L52.945,24.512L53.092,24.496L53.173,24.423L53.192,24.270L53.151,24.134L53.049,24.113L52.981,24.172L52.944,24.279L52.875,24.316L52.778,24.322L52.719,24.285L52.623,24.136L52.661,24.136L52.849,23.828L53.628,22.980L53.716,22.914L53.756,22.940L53.781,23.013L53.820,23.093L53.948,23.244L53.956,23.313L53.929,23.717L53.952,23.817L53.979,23.842L54.020,23.857L54.059,23.887L54.079,23.956L54.063,23.974L53.994,24.136L53.635,24.566L53.541,24.721L53.477,24.918L53.414,25.724L53.434,25.803L53.522,25.854L53.596,25.838L53.800,25.722L53.863,25.674L53.976,25.494L54.035,25.310L54.116,25.136L54.293,24.991L54.363,25.046L54.384,24.985L54.378,24.815L54.413,24.705L54.859,23.829L54.893,23.637L54.920,23.555L55.123,23.342L55.141,23.287L55.141,23.168L55.164,23.118L55.212,23.080L55.318,23.027L55.354,23.002L55.495,22.835L55.551,22.738L55.574,22.647L55.618,22.546L55.711,22.492L55.799,22.426L55.827,22.286L56.092,22.668L56.214,22.777L56.296,22.811L56.491,22.867L56.559,22.917L56.591,22.996L56.584,23.149L56.598,23.232L56.689,23.126L56.695,22.980L56.644,22.846L56.559,22.777L56.732,22.635L56.897,22.654L57.021,22.793L57.070,23.005L57.060,23.453L57.094,23.578L57.198,23.412L57.233,23.218L57.231,22.947L57.174,22.706L57.049,22.602L56.965,22.573L56.887,22.504L56.749,22.352L56.631,22.287L56.537,22.302L56.342,22.422L56.261,22.455L56.180,22.472L56.094,22.452L56.000,22.372L55.950,22.280L55.912,22.184L55.869,22.150L55.693,22.400L55.614,22.478L55.551,22.512L55.513,22.460L55.383,22.222L55.354,22.148L55.367,22.121L55.430,22.056L55.443,22.013L55.431,21.950L55.407,21.912L55.379,21.881L55.273,21.652L55.275,21.613L55.301,21.591L55.312,21.572L55.242,21.516L55.230,21.496L55.240,21.212L55.280,20.989L55.358,20.782L55.486,20.614L55.634,20.521L55.681,20.467L55.698,20.362L55.706,20.166L55.732,20.095L55.788,20.025L55.935,19.977L56.225,20.193L56.429,20.182L56.512,20.159L56.636,20.177L56.686,20.159L56.740,20.086L56.780,19.979L56.805,19.865L56.814,19.775L56.791,19.624L56.729,19.443L56.634,19.285L56.512,19.211L56.594,19.121L56.728,19.159L56.985,19.350L57.035,19.377L57.089,19.399L57.140,19.428L57.178,19.480L57.186,19.566L57.146,19.629L57.094,19.691L57.070,19.775L57.049,19.942L56.959,20.283L56.938,20.454L56.937,20.513L56.947,20.616L56.985,20.698L57.070,20.700L57.111,20.647L57.114,20.572L57.106,20.495L57.112,20.434L57.161,20.393L57.241,20.341L57.305,20.283L57.305,20.227L57.255,20.168L57.207,20.093L57.171,20.011L57.158,19.935L57.204,19.790L57.372,19.553L57.411,19.412L57.411,19.260L57.394,19.108L57.338,18.991L57.091,18.904L56.953,18.804L56.725,18.581L57.200,18.326L57.200,18.243L56.899,18.040L56.648,17.936L56.578,17.879L56.414,17.563L56.318,17.132L56.368,16.764L56.640,16.637L56.574,16.535L56.497,16.498L56.439,16.438L56.427,16.273L56.446,16.135L56.496,15.938L56.580,15.803L56.706,15.846L56.799,15.853L56.851,15.690L56.878,15.395L56.931,15.345L56.998,15.303L57.064,15.303L57.112,15.372L57.086,15.414L57.023,15.468L56.984,15.543L57.027,15.643L57.062,15.623L57.123,15.610L57.158,15.598L57.125,15.678L57.139,15.751L57.188,15.787L57.262,15.753L57.286,15.699L57.288,15.641L57.313,15.588L57.411,15.549L57.296,15.420L57.288,15.371L57.519,15.372L57.615,15.448L57.658,15.616L57.681,15.797L57.713,15.913L57.886,15.832L57.982,15.887L58.029,16.022L58.057,16.183L58.165,16.482L58.182,16.592L58.182,16.637L58.187,16.682L58.206,16.717L58.304,16.754L58.289,16.805L58.224,16.885L58.293,17.017L58.456,17.142L58.642,17.235L58.780,17.271L58.957,17.224L59.136,17.103L59.222,16.942L59.118,16.772L59.162,16.669L59.165,16.322L59.200,16.215L59.314,16.003L59.337,15.913L59.200,15.681L59.173,15.563L59.294,15.508L59.366,15.545L59.549,15.823L59.581,15.701L59.635,15.583L59.699,15.484L59.761,15.418L59.841,15.388L59.959,15.367L60.074,15.362L60.149,15.372L60.148,15.340L60.151,15.272L60.149,15.238L60.293,15.369L60.367,15.410L60.426,15.395L60.413,15.337L60.303,15.106L60.254,14.923L60.145,14.774L60.102,14.699L60.084,14.610L60.080,14.519L60.102,14.338L60.200,14.361L60.257,14.422L60.300,14.497L60.362,14.564L60.365,14.671L60.480,14.750L60.810,14.885L60.868,14.899L60.931,14.889L61.005,14.854L61.083,14.835L61.162,14.847L61.235,14.870L61.303,14.878L61.529,14.812L61.757,14.675L61.961,14.493L62.117,14.289L62.008,14.158L62.097,13.970L62.330,13.679L62.310,13.598L62.218,13.445L62.198,13.342L62.202,13.125L62.216,13.015L62.357,12.495L62.440,12.312L62.613,12.072L62.661,11.970L62.698,11.864L62.713,11.781L62.744,11.706L62.817,11.608L62.902,11.523L62.969,11.491L62.942,11.324L63.041,10.898L63.055,10.722L63.018,10.637L62.893,10.483L62.841,10.403L62.801,10.312L62.777,10.238L62.744,9.943L62.721,9.869L62.628,9.727L62.589,9.702L62.555,9.712L62.524,9.706L62.496,9.638L62.498,9.571L62.529,9.532L62.564,9.500L62.585,9.454L62.581,9.399L62.545,9.318L62.543,9.273L62.613,9.112L62.628,9.093L62.581,9.014L62.509,9.006L62.421,9.042L62.330,9.093L62.327,8.899L62.271,8.789L62.070,8.598L61.973,8.330L61.921,8.240L61.903,8.369L61.648,8.239L61.723,8.175L61.833,7.996L61.903,7.989L61.978,8.025L62.045,8.046L62.201,8.054L62.414,8.099L62.546,8.217L62.735,8.594L62.803,8.633L62.901,8.602L62.995,8.535L63.055,8.464L63.080,8.365L63.097,8.013L63.111,7.975L63.182,7.833L63.183,7.799L63.171,7.706L63.182,7.653L63.237,7.569L63.317,7.505L63.405,7.481L63.484,7.519L63.525,7.401L63.590,7.345L63.666,7.296L63.740,7.199L63.832,7.317L63.913,7.227L63.993,7.066L64.081,6.971L64.183,7.060L64.277,7.024L64.348,6.917L64.383,6.795L64.375,6.744L64.354,6.696L64.336,6.642L64.340,6.569L64.374,6.496L64.422,6.455L64.472,6.425L64.514,6.385L64.576,6.374L64.591,6.338L64.553,6.251L64.499,6.186L64.458,6.176L64.410,6.180L64.340,6.160L64.309,6.132L64.289,6.093L64.262,6.053L64.212,6.021L64.144,6.009L63.914,6.021L63.998,5.901L64.248,5.817L64.340,5.706L64.435,5.775L64.639,6.071L64.681,6.021L64.727,6.071L64.734,5.943L64.686,5.800L64.594,5.689L64.468,5.661L64.493,5.594L64.532,5.549L64.572,5.514L64.599,5.482L64.663,5.453L64.681,5.436L64.673,5.415L64.652,5.374L64.641,5.327L64.660,5.279L64.847,5.067L64.956,5.000L65.069,5.027L65.133,5.074L65.305,5.279L65.346,5.372L65.347,5.562L65.389,5.640L65.512,5.808L65.528,5.968L65.511,6.139L65.536,6.336L65.648,6.580L65.661,6.678L65.625,6.681L65.389,6.407L65.331,6.396L65.285,6.453L65.242,6.528L65.196,6.569L65.111,6.547L65.041,6.477L64.995,6.384L64.980,6.296L64.913,6.329L64.864,6.381L64.831,6.445L64.813,6.520L64.888,6.560L64.871,6.638L64.766,6.835L64.861,6.833L64.989,6.853L65.104,6.893L65.154,6.950L65.133,6.993L65.043,7.073L65.026,7.109L65.037,7.166L65.058,7.226L65.090,7.249L65.133,7.199L65.199,7.081L65.250,7.053L65.300,7.099L65.367,7.199L65.358,7.233L65.331,7.278L65.327,7.317L65.389,7.334L65.514,7.339L65.574,7.328L65.623,7.294L65.658,7.180L65.570,6.994L65.599,6.906L65.713,6.840L65.784,6.886L65.965,7.180L65.983,7.256L65.986,7.333L66.006,7.424L66.065,7.526L66.129,7.600L66.175,7.688L66.180,7.833L66.222,7.747L66.276,7.692L66.344,7.662L66.432,7.653L66.527,7.670L66.565,7.707L66.592,7.757L66.699,7.864L66.735,7.947L66.739,8.021L66.691,8.054L66.604,8.033L66.529,7.997L66.460,7.991L66.394,8.054L66.546,8.185L66.626,8.289L66.697,8.299L66.819,8.144L66.993,8.549L67.033,8.688L67.046,8.863L67.030,8.948L66.970,8.936L66.920,8.863L66.901,8.781L66.904,8.598L66.866,8.777L66.958,9.153L66.925,9.299L66.876,9.367L66.848,9.437L66.844,9.510L66.862,9.589L66.920,9.700L66.964,9.692L67.011,9.646L67.079,9.638L67.173,9.702L67.299,9.818L67.410,9.951L67.458,10.065L67.472,10.149L67.534,10.290L67.547,10.362L67.531,10.446L67.451,10.591L67.419,10.676L67.475,10.646L67.531,10.634L67.583,10.643L67.632,10.676L67.669,10.603L67.710,10.547L67.746,10.487L67.778,10.306L67.823,10.248L67.892,10.236L67.977,10.272L67.948,10.337L67.930,10.362L68.015,10.384L68.099,10.427L68.174,10.483L68.329,10.633L68.356,10.676L68.329,10.843L68.338,10.903L68.417,11.078L68.476,11.147L68.555,11.175L68.640,11.169L68.727,11.175L68.786,11.227L68.791,11.359L68.746,11.395L68.677,11.415L68.654,11.464L68.744,11.581L68.828,11.629L68.913,11.658L68.978,11.714L69.003,11.848L69.036,11.944L69.180,12.121L69.213,12.186L69.225,12.539L69.170,13.070L69.176,13.171L69.206,13.304L69.213,13.409L69.237,13.492L69.406,13.749L69.425,13.864L69.403,14.146L69.430,14.244L69.514,14.295L69.590,14.272L69.659,14.235L69.724,14.244L69.779,14.339L69.772,14.454L69.724,14.675L69.737,14.852L69.827,15.238L69.898,15.418L69.926,15.453L70.000,15.514L70.026,15.549L70.035,15.600L70.024,15.720L70.026,15.774L70.051,15.911L70.069,15.958L70.085,15.983L70.106,15.997L70.130,16.005L70.156,16.008L70.193,16.017L70.199,16.044L70.198,16.080L70.218,16.118L70.232,16.192L70.182,16.416L70.218,16.522L70.265,16.597L70.410,16.907L70.466,17.124L70.532,18.438L70.657,18.928L70.674,19.118L70.668,19.352L70.610,19.536L70.593,19.655L70.584,19.887L70.599,20.024L70.641,20.101L70.797,20.249L70.902,20.447L70.907,20.635L70.829,21.142L70.769,21.346L70.755,21.448L70.765,21.563L70.843,21.878L70.889,22.608L71.059,22.967L71.077,23.207L71.023,23.419L70.883,23.501L70.940,23.582L71.106,23.669L71.181,23.727L71.229,23.812L71.269,23.928L71.344,24.348L71.791,25.363L71.905,25.543L72.207,25.923L72.270,26.029L72.322,26.252L72.388,26.321L72.470,26.369L72.548,26.430L72.632,26.591L72.683,26.806L72.718,27.229L72.712,27.268L72.676,27.373L72.616,27.475L72.614,27.521L72.628,27.568L72.637,27.634L72.629,27.680L72.569,27.838L72.557,27.904L72.569,27.969L72.586,28.026L72.590,28.067L72.564,28.119L72.488,28.200L72.462,28.243L72.420,28.473L72.309,28.802L72.296,28.924L72.256,29.101L71.702,30.178L71.653,30.366L71.716,30.404L71.675,30.492L71.224,31.091L71.081,31.461L71.010,31.544L70.909,31.571L70.810,31.557L70.715,31.560L70.623,31.634L70.497,31.309L70.390,31.204L70.240,31.225L69.932,30.952L69.817,30.809L69.770,30.614L69.740,30.276L69.728,30.227L69.653,30.197L69.565,30.125L69.483,30.038L69.430,29.965L69.388,29.877L69.355,29.773L69.338,29.663L69.341,29.556L69.375,29.449L69.415,29.361L69.423,29.275L69.362,29.175L69.322,29.136L69.286,29.117L69.246,29.108L69.191,29.106L69.162,29.086L68.985,28.846L68.969,28.762L69.003,28.558L69.006,28.442L68.957,28.108L68.965,28.069L68.988,28.030L68.996,27.985L68.957,27.928L68.926,27.917L68.810,27.906L68.646,27.992L68.419,28.018L68.016,28.018L67.813,28.089L67.673,28.219L67.317,28.734L67.324,28.905L67.458,29.282L67.465,29.375L67.458,29.466L67.393,29.647L67.377,29.647L67.418,29.729L67.491,29.799L67.560,29.886L67.610,30.107L67.698,30.323L67.741,30.656L67.803,30.861L67.896,31.038L67.912,31.114L67.892,31.225L67.846,31.336L67.656,31.679L67.599,31.869L67.596,32.089L67.638,32.308L67.718,32.494L67.881,32.655L68.288,32.804L68.468,32.921L68.611,33.134L68.637,33.323L68.504,33.940L68.494,34.196L68.528,34.425L68.640,34.523L68.704,34.566L68.720,34.665L68.695,34.920L68.669,35.015L68.663,35.065L68.663,35.293L68.634,35.377L68.305,35.961L68.124,36.174L67.846,36.403L67.857,36.705L67.902,36.844L67.997,36.987L68.128,37.111L68.263,37.183L68.411,37.207L68.577,37.190L68.388,37.298L68.190,37.375L67.825,37.431L67.669,37.517L67.355,37.546L67.231,37.573L67.130,37.645L67.051,37.747L66.634,38.601L66.344,39.431L66.025,40.198L65.963,40.668L65.991,40.767L66.180,41.076L66.479,42.697L66.513,43.123L66.439,43.578L66.220,44.362L65.916,45.360L65.908,45.475L65.916,45.589L65.942,45.679L65.971,45.727L66.040,45.811L66.070,45.859L66.084,45.934L66.046,45.972L65.983,45.998L65.920,46.039L65.730,46.404L65.575,47.712L65.531,47.797L65.413,47.947L65.367,48.028L65.217,48.478L64.851,49.247L64.526,50.471L64.041,51.591L63.813,51.941L63.245,54.006L62.457,56.021L62.244,57.060L62.230,57.213L62.233,57.459L62.031,58.054L61.992,57.973L61.915,57.865L61.833,57.806L61.776,57.874L61.802,57.950L61.954,58.160L61.989,58.260L61.971,58.345L61.456,59.417L61.098,60.376L60.938,60.866L60.602,61.903L59.978,64.244L59.912,64.350L59.829,64.454L59.777,64.554L59.804,64.648L59.886,64.565L59.932,64.589L59.947,64.676L59.936,64.784L59.895,64.881L59.784,65.077L59.761,65.191L59.740,65.416L59.681,65.640L59.455,66.166L59.433,66.257L59.421,66.457L59.319,67.022L59.227,67.260L59.141,67.424L58.352,69.938L57.559,71.758L56.765,73.577L56.678,74.012L56.473,74.453L56.211,76.199L56.090,76.598L56.056,77.220L55.845,77.953L55.610,78.599L55.458,79.557L54.718,81.765L54.646,81.675L54.611,81.599L54.575,81.585L54.506,81.675L54.440,81.819L54.484,81.858L54.586,81.867L54.697,81.923L54.722,82.094L54.401,83.493L54.062,84.378L53.952,84.572L53.909,84.613L53.810,84.676L53.778,84.703L53.764,84.703L53.699,84.726L53.692,84.727L53.651,84.761L53.664,84.780L53.691,84.801L53.692,84.838L53.691,84.855L53.650,85.022L53.541,85.241L53.524,85.286L53.166,86.244L53.118,86.287L53.042,86.262L52.909,86.201L52.879,86.241L52.964,86.601L52.801,87.667L52.277,88.948L52.122,89.186L52.104,89.284L52.108,89.489L52.064,89.593L51.744,89.829L51.657,90.033L51.710,90.457L51.640,90.622L51.576,90.548L51.533,90.460L51.512,90.362L51.512,90.258L51.457,90.352L51.451,90.448L51.466,90.550L51.469,90.663L51.443,90.792L51.397,90.846L51.214,90.914L51.107,90.979L50.932,91.137L50.632,91.488L50.571,91.523L50.550,91.494L50.485,91.346L50.413,91.336L50.394,91.343L50.389,91.362L50.025,91.617L49.888,91.740L49.821,91.785L49.639,91.854L49.568,91.898L49.480,92.016L49.416,92.067L49.365,92.063L49.303,92.040L49.239,92.041L49.178,92.112L49.119,92.153L48.691,92.267L48.594,92.263L48.386,92.205L47.746,92.121L47.024,92.141L46.095,92.361L44.860,92.886L44.076,93.278L43.203,93.745L42.578,94.313L42.459,94.397L42.328,94.448L42.188,94.459L41.874,94.746L41.443,94.836L39.668,94.910L39.572,94.931L39.481,94.972L39.386,95.000L39.280,94.979L39.221,94.905L39.162,94.652L39.109,94.545L38.918,94.405L38.253,94.165L38.066,94.033L37.985,93.943L37.907,93.743L37.802,93.650L37.340,93.322L36.920,93.127L36.673,93.056L36.013,92.964L35.357,92.930L34.437,92.747L34.322,92.686L34.229,92.432L34.026,92.211L33.981,92.067L34.102,92.115L34.210,92.209L34.403,92.424L34.528,92.511L34.633,92.514L34.686,92.443L34.658,92.295L34.559,92.314L34.473,92.266L34.314,92.112L34.211,92.046L34.116,92.005L34.015,91.986L33.895,91.980L33.676,91.893L33.299,91.496L33.078,91.387L32.879,91.389L32.809,91.371L32.311,91.048L32.239,90.905L32.199,90.387L32.137,90.168L31.685,89.569L31.621,89.354L31.682,88.764L31.621,88.544L31.558,88.433L31.291,88.149L31.261,88.126L31.229,88.097L31.196,88.045L31.178,87.986L31.159,87.851L31.132,87.798L30.924,87.623L30.491,87.336L30.301,87.141L30.090,86.671L29.986,85.685L30.069,84.551L29.960,83.913L29.972,83.850L30.027,83.729L30.042,83.664L30.035,83.588L29.960,83.393L29.908,83.131L29.867,83.012L29.789,82.894L29.878,82.759L29.866,82.292L29.894,82.084L30.033,81.955L30.452,81.775L30.560,81.630L30.549,81.523L30.464,81.351L30.475,81.229L30.571,81.140L30.599,81.095L30.638,80.984L30.641,80.930L30.621,80.865L30.554,80.774L30.387,80.638L30.268,80.479L30.003,80.231L29.960,80.207L29.920,80.201L29.878,80.190L29.828,80.146L29.813,80.109L29.789,79.961L29.724,79.731L29.697,79.140L29.615,78.648L29.530,78.373L29.360,78.191L28.933,77.883L28.866,77.788L28.763,77.581L28.674,77.498L28.560,77.415L28.346,77.182L28.216,76.982L28.144,76.839L28.117,76.750L28.083,76.479L28.004,76.300L27.972,75.955L27.898,75.769L27.861,75.535L27.830,75.478L27.745,75.366L27.711,75.307L27.669,75.154L27.666,75.000L27.690,74.696L27.625,74.089L27.538,73.771L27.390,73.472L27.388,73.406L27.394,73.339L27.392,73.277L27.350,73.114L27.282,72.961L27.297,72.823L27.431,72.721L27.601,72.705L27.733,72.827L27.774,72.724L27.763,72.612L27.738,72.496L27.733,72.377L27.519,72.373L27.433,72.110L27.431,71.513L27.445,71.440L27.506,71.309L27.519,71.241L27.519,71.084L27.530,71.017L27.554,70.986L27.583,70.964L27.605,70.928L27.617,70.925L27.644,70.916L27.672,70.899L27.690,70.879L27.644,70.700L27.653,70.612L27.681,70.533L27.723,70.457L27.776,70.388L27.849,70.483L27.858,70.595L27.818,70.834L27.945,70.656L27.970,70.347L27.960,70.013L27.989,69.758L28.058,69.636L28.476,69.139L28.583,69.056L28.703,69.040L28.840,69.120L28.840,67.361L28.887,67.197L29.018,66.893L29.058,66.731L29.106,66.843L29.156,66.844L29.274,66.731L29.445,66.642L29.527,66.522L29.553,66.502L29.901,66.510L30.134,66.444L30.251,66.473L30.362,66.522L30.475,66.547L30.630,66.488L30.812,66.346L30.963,66.169L31.025,66.005L31.057,65.811L31.281,65.193L31.517,63.919L31.910,63.157L32.041,63.030L32.245,62.980L32.358,62.882L32.695,62.256L32.772,61.989L32.830,61.677L32.916,61.384L33.078,61.171L33.079,61.231L33.089,61.271L33.120,61.351L33.272,60.993L33.359,60.879L33.633,60.666L33.721,60.578ZM69.298,36.875L69.321,36.780L69.332,36.676L69.353,36.574L69.406,36.489L69.482,36.427L69.724,36.286L69.698,36.445L69.472,36.921L69.308,37.431L69.002,38.109L68.780,38.413L68.603,38.803L68.489,38.949L68.434,38.769L68.466,38.599L68.616,38.270L68.643,38.180L68.657,38.095L68.663,37.910L68.683,37.797L68.735,37.709L68.876,37.546L69.298,36.875ZM59.165,14.338L59.211,14.390L59.297,14.450L59.371,14.520L59.378,14.603L59.337,14.652L59.275,14.681L59.206,14.695L59.142,14.699L59.112,14.683L59.091,14.651L59.080,14.619L59.080,14.603L59.042,14.611L58.953,14.653L58.726,14.615L58.648,14.579L58.565,14.514L58.522,14.514L58.522,14.603L58.495,14.602L58.478,14.590L58.463,14.574L58.441,14.564L58.380,14.484L58.339,14.345L58.310,14.064L58.334,13.936L58.369,13.823L58.365,13.741L58.271,13.704L58.334,13.617L58.426,13.645L58.524,13.691L58.608,13.655L58.650,13.696L58.709,13.725L58.773,13.731L58.821,13.704L58.829,13.653L58.798,13.604L58.760,13.552L58.739,13.499L58.744,13.364L58.773,13.288L58.843,13.257L58.971,13.251L59.080,13.283L59.130,13.365L59.124,13.476L59.058,13.589L59.113,13.623L59.176,13.758L59.222,13.905L59.227,13.975L59.303,14.021L59.270,14.130L59.200,14.251L59.165,14.338Z" fill="currentColor" stroke="currentColor" stroke-width="1.5" stroke-linejoin="round"/>
</svg>