<svg xmlns="http://www.w3.org/2000/svg" viewBox="0 0 100 100" role="img" aria-label="Maldives">
  <title>Maldives</title>
  <path d="M49.356,94.922L49.464,95.000L49.387,94.998L49.361,94.977L49.356,94.922ZM49.828,94.799L49.795,94.844L49.772,94.885L49.740,94.916L49.682,94.933L49.691,94.868L49.725,94.837L49.828,94.799ZM48.908,94.626L48.939,94.743L48.903,94.725L48.897,94.699L48.903,94.667L48.908,94.626ZM50.242,94.273L50.096,94.472L50.090,94.354L50.127,94.247L50.183,94.201L50.242,94.273ZM50.320,93.846L50.295,94.060L50.222,93.982L50.200,93.889L50.231,93.797L50.326,93.722L50.339,93.756L50.332,93.783L50.321,93.811L50.320,93.846ZM52.490,90.325L52.582,90.430L52.606,90.486L52.599,90.564L52.524,90.498L52.492,90.441L52.485,90.384L52.490,90.325ZM48.576,84.418L48.615,84.454L48.658,84.478L48.678,84.515L48.662,84.586L48.661,84.587L48.615,84.553L48.603,84.525L48.599,84.514L48.598,84.508L48.590,84.468L48.576,84.418ZM49.885,84.280L49.982,84.306L49.981,84.307L49.927,84.371L49.907,84.370L49.900,84.330L49.885,84.280ZM47.900,83.934L47.900,83.937L47.941,84.055L47.941,84.057L47.892,84.038L47.888,84.025L47.884,84.012L47.888,83.995L47.894,83.978L47.894,83.974L47.900,83.934ZM51.846,83.758L51.845,83.758L51.736,83.818L51.753,83.749L51.783,83.738L51.814,83.748L51.846,83.758ZM47.287,83.527L47.301,83.548L47.327,83.555L47.334,83.562L47.339,83.565L47.314,83.592L47.314,83.593L47.259,83.563L47.256,83.546L47.287,83.527ZM53.394,82.574L53.393,82.575L53.338,82.656L53.338,82.657L53.313,82.606L53.307,82.592L53.315,82.574L53.352,82.578L53.394,82.574ZM46.995,82.395L46.996,82.397L47.027,82.499L47.028,82.502L46.989,82.470L46.982,82.443L46.992,82.417L46.995,82.395ZM46.795,81.321L46.791,81.425L46.750,81.377L46.750,81.352L46.795,81.321ZM53.146,81.186L53.147,81.188L53.177,81.290L53.128,81.271L53.121,81.248L53.135,81.221L53.146,81.186ZM51.946,79.642L51.939,79.672L51.939,79.699L51.933,79.715L51.931,79.715L51.911,79.713L51.897,79.675L51.905,79.658L51.930,79.653L51.946,79.642ZM51.776,78.241L51.768,78.272L51.768,78.298L51.762,78.316L51.751,78.313L51.740,78.311L51.727,78.272L51.738,78.258L51.739,78.257L51.749,78.254L51.759,78.252L51.776,78.241ZM51.554,77.264L51.554,77.266L51.548,77.288L51.547,77.292L51.547,77.316L51.545,77.326L51.543,77.335L51.534,77.340L51.523,77.345L51.522,77.346L51.507,77.306L51.515,77.287L51.537,77.277L51.554,77.264ZM45.532,46.522L45.534,46.524L45.547,46.549L45.571,46.566L45.575,46.582L45.574,46.582L45.528,46.603L45.494,46.582L45.493,46.582L45.500,46.566L45.521,46.549L45.532,46.522ZM45.098,46.449L45.099,46.451L45.110,46.467L45.115,46.475L45.143,46.493L45.157,46.506L45.129,46.519L45.069,46.519L45.064,46.506L45.064,46.505L45.087,46.480L45.098,46.449ZM46.650,46.045L46.459,46.163L46.457,46.164L46.504,46.079L46.553,46.042L46.603,46.039L46.650,46.045ZM46.806,45.272L46.820,45.298L46.835,45.309L46.844,45.315L46.848,45.332L46.802,45.353L46.767,45.332L46.772,45.315L46.792,45.298L46.806,45.272ZM43.932,44.024L43.932,44.027L43.949,44.066L43.977,44.093L43.988,44.118L43.987,44.118L43.955,44.162L43.931,44.147L43.899,44.128L43.899,44.095L43.921,44.063L43.932,44.024ZM52.977,41.540L52.975,41.542L52.893,41.621L52.865,41.638L52.884,41.600L52.911,41.580L52.977,41.540ZM44.054,40.834L44.059,40.861L44.073,40.873L44.082,40.881L44.089,40.890L44.095,40.896L44.094,40.896L44.071,40.914L44.012,40.894L44.011,40.893L44.008,40.880L44.007,40.878L44.031,40.861L44.054,40.834ZM53.333,39.676L53.335,39.794L53.335,39.795L53.292,39.757L53.267,39.734L53.265,39.709L53.299,39.695L53.333,39.676ZM47.135,37.802L47.137,37.803L47.159,37.823L47.180,37.833L47.194,37.843L47.196,37.866L47.159,37.866L47.147,37.852L47.147,37.829L47.135,37.802ZM55.577,35.853L55.554,35.882L55.517,35.891L55.515,35.892L55.577,35.853ZM55.577,35.642L55.575,35.643L55.543,35.687L55.544,35.658L55.577,35.642ZM51.818,35.395L51.824,35.501L51.785,35.481L51.785,35.460L51.785,35.459L51.801,35.432L51.818,35.395ZM52.143,33.541L52.143,33.544L52.143,33.573L52.150,33.600L52.147,33.617L52.121,33.629L52.100,33.601L52.108,33.584L52.127,33.567L52.143,33.541ZM53.129,32.521L53.128,32.553L53.135,32.580L53.132,32.598L53.106,32.606L53.100,32.600L53.085,32.581L53.093,32.562L53.112,32.546L53.129,32.521ZM47.237,30.534L47.237,30.535L47.126,30.704L47.124,30.707L47.131,30.593L47.161,30.547L47.200,30.538L47.237,30.534ZM46.525,30.498L46.586,30.493L46.585,30.494L46.564,30.507L46.526,30.499L46.525,30.498ZM52.631,29.658L52.507,29.675L52.536,29.621L52.561,29.617L52.592,29.639L52.631,29.658ZM46.471,28.934L46.432,28.972L46.429,28.974L46.440,28.950L46.471,28.934ZM46.643,28.906L46.642,28.909L46.636,28.932L46.635,28.936L46.619,28.941L46.604,28.946L46.603,28.946L46.643,28.906ZM47.992,27.921L47.992,27.923L47.977,27.955L47.951,27.961L47.992,27.921ZM48.041,27.789L48.042,27.790L48.052,27.822L48.069,27.849L48.069,27.865L48.025,27.869L47.997,27.839L48.007,27.823L48.027,27.812L48.041,27.789ZM48.528,27.465L48.524,27.497L48.489,27.504L48.487,27.504L48.528,27.465ZM48.673,27.330L48.676,27.331L48.708,27.344L48.750,27.361L48.746,27.361L48.710,27.354L48.673,27.330ZM45.863,26.580L45.862,26.582L45.853,26.609L45.826,26.619L45.823,26.621L45.863,26.580ZM48.995,26.504L48.995,26.528L48.956,26.543L48.995,26.504ZM53.236,26.477L53.235,26.478L53.208,26.498L53.207,26.499L53.168,26.487L53.236,26.477ZM54.318,26.064L54.194,26.146L54.134,26.158L54.048,26.133L54.046,26.132L54.114,26.096L54.185,26.074L54.252,26.065L54.318,26.064ZM48.776,25.881L48.774,25.882L48.735,25.920L48.735,25.902L48.776,25.881ZM52.896,25.774L52.895,25.775L52.828,25.785L52.826,25.785L52.859,25.768L52.860,25.768L52.875,25.771L52.896,25.774ZM54.732,25.485L54.731,25.486L54.705,25.505L54.660,25.496L54.732,25.485ZM54.929,25.365L54.927,25.365L54.853,25.377L54.852,25.377L54.892,25.357L54.929,25.365ZM46.935,25.255L46.927,25.286L46.894,25.295L46.935,25.255ZM52.057,25.146L52.058,25.148L52.071,25.176L52.094,25.198L52.100,25.216L52.080,25.224L52.042,25.205L52.040,25.189L52.053,25.169L52.057,25.146ZM51.202,25.076L51.220,25.093L51.221,25.093L51.255,25.090L51.256,25.090L51.259,25.090L51.280,25.092L51.266,25.122L51.157,25.137L51.155,25.137L51.138,25.104L51.155,25.095L51.188,25.092L51.202,25.076ZM51.519,24.390L51.451,24.400L51.447,24.401L51.481,24.377L51.519,24.390ZM53.671,24.116L53.641,24.134L53.599,24.127L53.671,24.116ZM51.659,23.981L51.659,23.985L51.661,24.024L51.636,24.041L51.633,24.042L51.659,23.981ZM46.820,23.929L46.819,23.931L46.802,23.953L46.797,23.976L46.787,23.992L46.764,24.000L46.750,23.953L46.763,23.939L46.791,23.939L46.820,23.929ZM47.659,23.637L47.641,23.660L47.635,23.683L47.626,23.700L47.603,23.707L47.602,23.707L47.590,23.668L47.588,23.660L47.601,23.646L47.628,23.646L47.659,23.637ZM52.806,23.052L52.770,23.073L52.737,23.063L52.735,23.062L52.806,23.052ZM47.540,21.092L47.519,21.118L47.512,21.145L47.502,21.164L47.473,21.166L47.462,21.108L47.478,21.094L47.479,21.094L47.485,21.095L47.508,21.098L47.540,21.092ZM46.892,13.744L46.892,13.746L46.910,13.768L46.913,13.770L46.934,13.781L46.938,13.785L46.945,13.793L46.935,13.817L46.882,13.806L46.874,13.789L46.888,13.765L46.892,13.744ZM46.238,12.563L46.256,12.588L46.279,12.601L46.287,12.609L46.291,12.612L46.291,12.613L46.281,12.636L46.228,12.625L46.226,12.622L46.218,12.608L46.232,12.585L46.238,12.563ZM48.600,93.974L48.686,94.053L48.762,94.175L48.817,94.319L48.843,94.454L48.757,94.454L48.570,94.031L48.526,93.816L48.686,93.737L48.686,93.823L48.615,93.829L48.603,93.862L48.613,93.912L48.613,93.913L48.600,93.974ZM51.683,66.373L51.685,66.374L51.808,66.402L51.746,66.472L51.720,66.467L51.719,66.467L51.705,66.424L51.683,66.373ZM52.089,66.197L52.090,66.199L52.100,66.251L52.122,66.293L52.111,66.321L52.093,66.323L52.021,66.331L52.026,66.286L52.026,66.284L52.031,66.278L52.048,66.254L52.074,66.230L52.089,66.197ZM52.693,65.961L52.820,65.966L52.740,66.035L52.710,66.033L52.702,65.996L52.693,65.961ZM53.447,65.777L53.364,65.844L53.230,65.950L53.230,65.950L53.225,65.946L53.222,65.942L53.217,65.938L53.214,65.933L53.240,65.900L53.265,65.867L53.323,65.827L53.445,65.778L53.447,65.777ZM53.659,65.461L53.657,65.465L53.619,65.559L53.612,65.577L53.602,65.537L53.612,65.512L53.620,65.504L53.635,65.490L53.659,65.461ZM50.377,65.204L50.284,65.246L50.288,65.184L50.307,65.175L50.327,65.185L50.338,65.190L50.377,65.204ZM53.851,64.741L53.802,64.985L53.765,65.098L53.714,65.198L53.710,65.204L53.813,64.827L53.851,64.741ZM53.816,64.234L53.813,64.358L53.813,64.359L53.789,64.327L53.791,64.301L53.816,64.234ZM51.132,64.061L51.162,64.086L51.194,64.100L51.202,64.117L51.145,64.156L51.112,64.134L51.115,64.114L51.131,64.090L51.132,64.061ZM53.748,63.654L53.734,63.706L53.704,63.701L53.703,63.701L53.726,63.678L53.748,63.654ZM51.936,63.580L51.936,63.631L51.928,63.611L51.936,63.580ZM53.881,63.009L53.832,63.123L53.832,63.125L53.821,63.085L53.830,63.060L53.853,63.039L53.881,63.009ZM54.019,62.692L54.223,62.696L54.224,62.696L54.201,62.713L54.166,62.740L54.019,62.832L53.951,62.868L53.951,62.821L53.965,62.780L54.019,62.692ZM47.979,62.040L47.952,62.060L47.934,62.061L47.917,62.062L47.919,62.061L47.979,62.040ZM48.673,61.807L48.673,61.808L48.661,61.833L48.661,61.859L48.655,61.872L48.622,61.861L48.615,61.830L48.626,61.819L48.648,61.818L48.673,61.807ZM48.807,61.656L48.823,61.679L48.869,61.747L48.801,61.747L48.789,61.727L48.800,61.694L48.807,61.656ZM46.881,60.788L46.858,60.817L46.857,60.817L46.820,60.809L46.881,60.788ZM46.624,60.181L46.634,60.312L46.583,60.272L46.581,60.243L46.603,60.216L46.624,60.181ZM51.441,59.943L51.440,59.950L51.436,59.988L51.421,60.009L51.418,60.012L51.441,59.943ZM51.559,58.914L51.641,59.058L51.687,59.183L51.697,59.210L51.706,59.366L51.656,59.515L51.655,59.518L51.554,59.008L51.559,58.914ZM51.104,58.122L51.109,58.257L51.109,58.258L51.092,58.245L51.069,58.226L51.069,58.225L51.067,58.198L51.086,58.165L51.104,58.122ZM49.153,57.574L49.133,57.608L49.102,57.608L49.100,57.608L49.153,57.574ZM46.324,56.086L46.353,56.100L46.384,56.102L46.397,56.115L46.375,56.160L46.336,56.155L46.329,56.139L46.331,56.114L46.324,56.086ZM46.007,55.948L46.020,56.069L46.020,56.070L45.947,56.034L45.942,56.008L45.975,55.981L46.007,55.948ZM47.733,55.399L47.847,55.359L47.847,55.360L47.798,55.439L47.768,55.446L47.734,55.399L47.733,55.399ZM51.551,54.977L51.541,55.006L51.551,55.030L51.551,55.050L51.527,55.063L51.526,55.064L51.492,55.010L51.502,54.989L51.528,54.985L51.551,54.977ZM52.078,54.891L51.978,55.010L51.992,54.939L52.021,54.907L52.057,54.895L52.078,54.891ZM53.799,53.655L53.801,53.657L53.817,53.671L53.827,53.680L53.805,53.708L53.805,53.701L53.799,53.655ZM51.629,53.526L51.637,53.554L51.652,53.574L51.658,53.590L51.635,53.599L51.633,53.600L51.594,53.573L51.594,53.557L51.615,53.545L51.629,53.526ZM47.573,52.956L47.647,53.024L47.596,53.049L47.590,53.044L47.580,53.035L47.580,53.000L47.580,52.999L47.573,52.956ZM53.979,52.939L53.979,52.941L53.954,53.039L53.945,53.012L53.951,52.990L53.979,52.939ZM54.230,52.860L54.229,52.861L54.132,52.981L54.143,52.909L54.176,52.877L54.209,52.864L54.230,52.860ZM45.979,52.772L45.979,52.774L45.951,52.868L45.920,52.900L45.919,52.868L45.979,52.772ZM46.342,51.449L46.356,51.472L46.371,51.476L46.378,51.478L46.392,51.489L46.375,51.523L46.322,51.530L46.316,51.514L46.331,51.486L46.342,51.449ZM54.542,51.184L54.536,51.228L54.488,51.258L54.542,51.184ZM47.221,51.145L47.222,51.146L47.236,51.169L47.260,51.186L47.266,51.204L47.224,51.231L47.189,51.214L47.192,51.196L47.209,51.174L47.221,51.145ZM47.963,50.045L47.977,50.067L47.978,50.068L48.002,50.075L48.016,50.084L47.995,50.120L47.945,50.125L47.939,50.110L47.952,50.081L47.963,50.045ZM47.842,49.496L47.843,49.497L47.858,49.520L47.881,49.538L47.887,49.556L47.844,49.582L47.842,49.581L47.810,49.566L47.813,49.549L47.830,49.525L47.842,49.496ZM45.554,48.809L45.568,48.832L45.593,48.838L45.598,48.842L45.604,48.849L45.587,48.884L45.534,48.889L45.532,48.889L45.530,48.874L45.543,48.846L45.554,48.809ZM53.428,48.246L53.429,48.248L53.440,48.257L53.456,48.271L53.457,48.274L53.459,48.300L53.460,48.302L53.428,48.246ZM56.093,47.209L56.094,47.210L56.156,47.263L56.157,47.264L56.135,47.255L56.104,47.243L56.102,47.237L56.093,47.209ZM53.307,46.630L53.337,46.684L53.338,46.685L53.310,46.672L53.309,46.671L53.307,46.630ZM46.927,43.945L46.943,43.970L46.966,43.988L46.966,44.004L46.922,44.025L46.888,44.005L46.892,43.989L46.913,43.972L46.927,43.945ZM46.851,43.503L46.866,43.529L46.883,43.541L46.889,43.546L46.892,43.562L46.845,43.583L46.841,43.580L46.812,43.562L46.817,43.546L46.838,43.529L46.851,43.503ZM46.837,42.755L46.851,42.781L46.860,42.788L46.874,42.799L46.877,42.815L46.831,42.836L46.798,42.815L46.803,42.799L46.823,42.781L46.837,42.755ZM52.516,42.643L52.492,42.662L52.472,42.688L52.459,42.699L52.449,42.677L52.460,42.640L52.477,42.634L52.498,42.640L52.516,42.643ZM52.588,41.789L52.587,41.790L52.582,41.810L52.530,41.835L52.526,41.837L52.588,41.789ZM51.453,41.510L51.451,41.512L51.412,41.541L51.412,41.529L51.453,41.510ZM52.347,39.506L52.346,39.508L52.333,39.529L52.307,39.536L52.305,39.536L52.347,39.506ZM53.771,38.066L53.848,38.138L53.838,38.236L53.807,38.421L53.679,38.756L53.545,38.895L53.364,39.001L53.088,38.977L52.970,38.926L52.446,38.740L52.456,38.679L53.377,38.721L53.476,38.666L53.540,38.473L53.622,38.205L53.771,38.066ZM46.844,37.798L46.999,37.841L46.998,37.841L46.950,37.853L46.950,37.854L46.913,37.843L46.844,37.798ZM54.344,36.921L54.342,36.922L54.305,36.945L54.269,36.940L54.266,36.940L54.344,36.921ZM54.524,36.680L54.524,36.682L54.522,36.713L54.530,36.738L54.528,36.756L54.502,36.767L54.480,36.738L54.487,36.722L54.505,36.706L54.524,36.680ZM54.829,36.594L54.828,36.596L54.819,36.623L54.823,36.651L54.823,36.653L54.819,36.670L54.804,36.667L54.781,36.662L54.779,36.662L54.757,36.618L54.772,36.606L54.800,36.605L54.829,36.594ZM55.175,36.329L55.173,36.362L55.181,36.387L55.179,36.406L55.154,36.417L55.133,36.389L55.139,36.372L55.158,36.355L55.175,36.329ZM46.980,35.812L46.969,35.999L46.887,35.990L46.866,35.988L46.823,35.890L46.980,35.812ZM53.856,33.708L53.856,33.711L53.855,33.741L53.862,33.767L53.860,33.785L53.834,33.795L53.826,33.786L53.813,33.768L53.821,33.751L53.838,33.735L53.856,33.708ZM54.732,24.496L54.790,24.583L54.815,24.676L54.806,24.773L54.766,24.868L54.766,24.871L54.712,24.556L54.732,24.496ZM47.540,23.980L47.540,23.981L47.524,24.001L47.506,24.045L47.487,24.060L47.464,24.005L47.464,24.004L47.476,23.988L47.508,23.988L47.540,23.980ZM46.138,23.623L46.121,23.647L46.114,23.670L46.105,23.688L46.083,23.695L46.066,23.646L46.078,23.634L46.106,23.633L46.138,23.623ZM47.695,22.195L47.694,22.197L47.676,22.219L47.670,22.242L47.661,22.259L47.639,22.267L47.637,22.267L47.624,22.219L47.636,22.206L47.665,22.206L47.695,22.195ZM47.645,21.512L47.628,21.534L47.619,21.558L47.613,21.575L47.588,21.583L47.574,21.534L47.588,21.522L47.615,21.520L47.645,21.512ZM52.004,20.811L51.999,20.821L51.864,21.078L51.863,21.076L51.854,21.073L51.854,21.072L51.851,21.071L51.885,20.991L52.004,20.811ZM47.324,20.430L47.313,20.489L47.278,20.524L47.277,20.524L47.324,20.430ZM51.883,20.150L51.883,20.152L51.886,20.188L51.905,20.216L51.908,20.242L51.908,20.243L51.864,20.275L51.819,20.238L51.829,20.212L51.858,20.188L51.883,20.150ZM47.206,19.934L47.206,19.935L47.189,20.039L47.189,20.041L47.158,20.010L47.141,19.995L47.142,19.971L47.174,19.956L47.206,19.934ZM52.661,19.621L52.660,19.622L52.475,19.735L52.472,19.737L52.536,19.650L52.583,19.615L52.623,19.613L52.661,19.621ZM47.056,19.349L47.057,19.352L47.089,19.511L47.045,19.475L47.037,19.437L47.056,19.349ZM52.421,18.806L52.421,18.808L52.414,18.838L52.414,18.839L52.414,18.866L52.414,18.886L52.389,18.900L52.354,18.858L52.364,18.840L52.393,18.828L52.421,18.806ZM46.688,18.140L46.671,18.280L46.620,18.207L46.628,18.172L46.688,18.140ZM51.969,18.126L52.032,18.270L51.933,18.222L51.908,18.190L51.969,18.126ZM46.504,17.998L46.503,17.999L46.482,18.018L46.478,18.044L46.471,18.056L46.454,18.047L46.436,18.038L46.435,17.989L46.449,17.982L46.474,17.995L46.504,17.998ZM50.366,16.820L50.365,16.821L50.346,16.865L50.305,16.862L50.366,16.820ZM50.382,16.499L50.380,16.500L50.326,16.536L50.321,16.539L50.344,16.511L50.382,16.499ZM50.017,16.258L50.016,16.259L50.000,16.290L49.956,16.298L50.017,16.258ZM50.591,15.971L50.590,15.972L50.574,15.999L50.566,16.023L50.556,16.040L50.534,16.043L50.532,16.044L50.535,16.010L50.549,15.995L50.568,15.987L50.591,15.971ZM50.001,15.793L49.999,15.794L49.943,15.834L49.963,15.806L50.001,15.793ZM50.598,15.596L50.598,15.597L50.566,15.720L50.535,15.673L50.541,15.647L50.569,15.626L50.598,15.596ZM47.870,15.216L47.868,15.217L47.812,15.255L47.810,15.257L47.827,15.231L47.870,15.216ZM50.262,15.016L50.267,15.053L50.284,15.081L50.287,15.109L50.245,15.140L50.200,15.103L50.208,15.078L50.239,15.053L50.262,15.016ZM48.956,14.471L48.930,14.504L48.894,14.512L48.892,14.512L48.956,14.471ZM49.956,14.379L49.956,14.381L49.932,14.444L49.887,14.473L49.882,14.476L49.888,14.471L49.956,14.379ZM48.436,14.220L48.435,14.222L48.414,14.255L48.380,14.260L48.376,14.261L48.436,14.220ZM49.747,14.002L49.748,14.004L49.761,14.034L49.773,14.040L49.785,14.046L49.803,14.063L49.793,14.109L49.724,14.093L49.723,14.089L49.714,14.070L49.735,14.039L49.747,14.002ZM48.911,13.944L48.907,13.947L48.855,13.983L48.851,13.985L48.870,13.961L48.911,13.944ZM49.634,13.733L49.607,13.753L49.592,13.773L49.575,13.784L49.553,13.775L49.562,13.744L49.581,13.736L49.606,13.738L49.634,13.733ZM47.712,13.523L47.727,13.549L47.752,13.559L47.763,13.571L47.754,13.596L47.698,13.585L47.692,13.566L47.705,13.544L47.712,13.523ZM43.913,13.031L43.912,13.031L43.889,13.053L43.870,13.079L43.855,13.090L43.843,13.068L43.855,13.031L43.874,13.023L43.892,13.031L43.913,13.031ZM46.356,12.701L46.375,12.727L46.397,12.739L46.403,12.744L46.409,12.750L46.409,12.751L46.399,12.774L46.346,12.764L46.344,12.760L46.336,12.745L46.348,12.723L46.356,12.701ZM48.038,12.688L48.009,12.746L47.975,12.774L47.973,12.776L48.038,12.688ZM47.039,11.329L47.014,11.346L47.003,11.370L46.992,11.383L46.966,11.372L46.978,11.318L46.995,11.310L46.996,11.310L47.017,11.323L47.039,11.329ZM46.600,11.257L46.617,11.282L46.640,11.294L46.654,11.305L46.643,11.330L46.589,11.319L46.583,11.300L46.594,11.279L46.600,11.257ZM47.821,11.060L47.820,11.062L47.815,11.091L47.823,11.115L47.826,11.132L47.827,11.132L47.800,11.142L47.791,11.127L47.770,11.096L47.777,11.078L47.802,11.071L47.821,11.060ZM47.992,10.603L47.967,10.621L47.954,10.644L47.945,10.658L47.919,10.646L47.930,10.592L47.949,10.583L47.949,10.584L47.971,10.596L47.992,10.603ZM48.277,10.071L48.188,10.152L48.193,10.084L48.215,10.066L48.244,10.070L48.277,10.071ZM48.697,9.587L48.669,9.634L48.655,9.675L48.633,9.704L48.582,9.719L48.581,9.720L48.590,9.631L48.620,9.598L48.697,9.587ZM47.898,9.012L47.898,9.013L47.892,9.042L47.893,9.046L47.900,9.066L47.901,9.084L47.875,9.094L47.866,9.080L47.844,9.048L47.855,9.029L47.877,9.023L47.898,9.012ZM46.536,8.963L46.513,8.981L46.500,9.004L46.488,9.018L46.465,9.008L46.465,9.007L46.476,8.952L46.495,8.945L46.516,8.957L46.536,8.963ZM49.314,8.703L49.369,8.696L49.384,8.712L49.384,8.713L49.384,8.742L49.395,8.774L49.237,9.133L49.145,9.291L48.995,9.411L48.993,9.412L49.043,9.226L49.234,8.914L49.314,8.703ZM49.569,8.195L49.750,8.223L49.660,8.284L49.594,8.303L49.560,8.277L49.569,8.195ZM47.427,8.068L47.426,8.068L47.403,8.086L47.389,8.110L47.378,8.123L47.355,8.113L47.354,8.113L47.363,8.057L47.384,8.051L47.405,8.062L47.427,8.068ZM49.140,8.046L49.115,8.064L49.104,8.086L49.093,8.100L49.067,8.089L49.078,8.034L49.097,8.027L49.119,8.040L49.140,8.046ZM47.200,7.937L47.194,7.966L47.202,7.991L47.202,7.992L47.203,8.008L47.178,8.018L47.177,8.018L47.147,7.973L47.157,7.954L47.180,7.947L47.200,7.937ZM48.607,7.944L48.606,7.945L48.583,7.963L48.571,7.985L48.559,7.998L48.545,7.993L48.534,7.989L48.547,7.934L48.565,7.926L48.586,7.938L48.587,7.938L48.607,7.944ZM47.069,7.847L47.045,7.864L47.031,7.885L47.022,7.900L47.000,7.891L46.997,7.889L46.995,7.889L47.006,7.835L47.027,7.826L47.048,7.839L47.069,7.847ZM48.700,7.431L48.694,7.462L48.701,7.486L48.704,7.502L48.705,7.503L48.678,7.513L48.648,7.467L48.655,7.448L48.680,7.442L48.700,7.431ZM49.943,7.178L49.943,7.179L49.932,7.339L49.882,7.495L49.826,7.566L49.793,7.472L49.803,7.367L49.838,7.257L49.887,7.182L49.943,7.178ZM46.622,6.730L46.622,6.734L46.626,6.771L46.606,6.796L46.622,6.730ZM49.764,6.569L49.720,6.801L49.710,6.804L49.705,6.804L49.703,6.804L49.701,6.803L49.695,6.801L49.688,6.796L49.679,6.685L49.688,6.612L49.713,6.574L49.764,6.569ZM46.230,6.342L46.230,6.380L46.214,6.406L46.213,6.406L46.230,6.342ZM47.242,5.918L47.242,5.920L47.262,6.077L47.214,6.018L47.213,5.977L47.213,5.976L47.242,5.918ZM46.899,5.585L46.899,5.587L46.882,5.651L46.874,5.616L46.899,5.585ZM46.471,5.168L46.471,5.169L46.460,5.278L46.397,5.210L46.399,5.187L46.435,5.180L46.471,5.168ZM46.136,5.000L46.145,5.018L46.145,5.041L46.121,5.065L46.136,5.000Z" fill="currentColor" stroke="currentColor" stroke-width="1.5" stroke-linejoin="round"/>
</svg>