<svg xmlns="http://www.w3.org/2000/svg" viewBox="0 0 100 100" role="img" aria-label="Marshall Islands">
  <title>Marshall Islands</title>
  <path d="M45.093,85.804L45.096,85.802L45.148,85.823L45.219,85.839L45.270,85.822L45.311,85.747L45.328,85.670L45.325,85.594L45.301,85.520L45.367,85.632L45.331,85.783L45.227,85.875L45.093,85.804ZM77.132,81.299L77.166,81.336L77.201,81.385L77.296,81.465L77.313,81.502L77.254,81.501L77.163,81.500L77.116,81.463L77.106,81.395L77.132,81.299ZM78.768,72.358L78.839,72.301L78.876,72.242L78.870,72.182L78.818,72.122L78.938,72.183L78.893,72.308L78.761,72.417L78.613,72.430L78.647,72.402L78.684,72.385L78.768,72.358ZM50.260,95.000L50.699,94.850L50.781,94.777L50.991,94.505L50.906,94.723L50.755,94.892L50.537,94.991L50.260,95.000ZM58.261,83.996L58.436,83.898L58.501,83.841L58.555,83.760L58.609,83.644L58.688,83.374L58.746,82.954L58.837,82.724L59.019,82.561L59.232,82.426L59.395,82.273L59.536,82.093L59.420,82.421L58.923,82.760L58.811,83.109L58.769,83.377L58.656,83.744L58.481,84.016L58.261,83.996ZM79.830,81.726L79.640,81.707L79.426,81.747L79.234,81.746L79.110,81.603L79.129,81.614L79.185,81.636L79.270,81.655L79.532,81.664L79.830,81.726ZM77.415,73.494L77.182,73.463L76.814,73.185L76.564,73.127L76.153,73.189L75.965,73.107L75.829,72.821L75.917,72.938L76.012,73.022L76.129,73.065L76.703,73.039L76.821,73.065L77.215,73.381L77.415,73.494ZM74.205,72.258L73.969,72.397L73.320,72.494L73.052,72.637L72.804,72.637L72.512,72.594L71.263,72.030L71.040,71.853L71.170,71.713L71.172,71.800L71.187,71.855L71.230,71.958L72.727,72.565L72.825,72.563L73.053,72.520L73.243,72.452L74.205,72.258ZM50.900,70.483L51.539,70.483L51.408,70.621L51.198,70.613L50.797,70.516L50.352,70.434L50.168,70.367L50.205,70.238L50.336,70.359L50.533,70.416L50.727,70.473L50.900,70.483ZM49.300,69.620L49.186,69.543L49.108,69.385L49.096,69.210L49.173,69.080L49.208,69.200L49.262,69.498L49.300,69.620ZM34.510,35.825L34.423,35.984L34.255,36.076L34.061,36.072L33.906,35.948L34.225,35.920L34.510,35.825ZM54.054,85.456L54.071,85.356L54.108,85.373L54.054,85.456ZM77.730,72.751L77.749,72.726L77.762,72.704L77.779,72.689L77.807,72.682L77.749,72.798L77.674,72.901L77.585,72.992L77.481,73.069L77.535,72.985L77.730,72.751ZM52.737,68.091L52.755,68.037L52.759,68.003L52.706,67.938L52.611,67.902L52.498,67.896L52.547,67.881L52.616,67.871L52.685,67.877L52.737,67.905L52.770,67.983L52.774,68.008L52.770,68.055L52.764,68.122L52.737,68.091ZM38.910,61.427L38.963,61.522L38.892,61.490L38.910,61.427ZM41.827,57.779L41.819,57.728L41.815,57.684L41.840,57.644L41.903,57.607L41.915,57.662L41.901,57.702L41.827,57.779ZM69.414,56.227L69.352,56.328L69.302,56.313L69.297,56.311L69.292,56.308L69.287,56.305L69.285,56.300L69.322,56.219L69.351,56.200L69.400,56.194L69.414,56.227ZM64.007,51.277L63.994,51.125L64.040,51.128L64.068,51.205L64.007,51.277ZM69.617,43.880L69.615,43.773L69.651,43.768L69.653,43.876L69.617,43.880ZM22.451,31.693L22.474,31.699L22.510,31.717L22.543,31.754L22.570,31.818L22.451,31.693ZM20.170,31.136L20.170,31.023L20.210,31.001L20.229,31.045L20.170,31.136ZM53.136,5.003L53.162,5.000L53.106,5.069L53.014,5.156L52.929,5.212L53.026,5.103L53.136,5.003Z" fill="currentColor" stroke="currentColor" stroke-width="1.5" stroke-linejoin="round"/>
</svg>