<svg xmlns="http://www.w3.org/2000/svg" viewBox="0 0 100 100" role="img" aria-label="North Macedonia">
  <title>North Macedonia</title>
  <path d="M9.315,37.645L10.127,38.511L10.551,38.738L11.124,38.708L11.385,38.489L11.766,37.777L11.991,37.623L12.321,37.828L12.988,38.765L13.325,39.014L14.079,38.752L14.481,38.303L14.793,37.953L15.377,36.948L15.747,36.068L15.766,35.907L15.885,34.937L15.780,34.494L15.442,33.066L15.486,32.000L15.917,29.687L16.269,28.676L16.954,27.846L17.854,27.334L21.138,26.220L23.628,25.376L24.637,25.034L25.526,24.590L25.936,24.189L27.110,23.040L27.955,22.500L28.227,22.508L28.463,22.573L28.934,22.830L30.268,23.857L31.512,25.072L32.085,26.010L32.408,26.684L32.544,26.823L32.843,27.127L33.121,27.182L34.634,27.485L35.000,27.405L35.053,27.076L35.069,26.974L35.036,26.022L34.982,25.622L34.877,25.370L34.804,25.118L34.848,24.704L36.911,21.561L37.151,21.367L37.368,21.191L37.980,21.140L39.202,21.606L39.579,21.567L39.540,21.252L39.286,20.839L39.231,20.431L39.808,20.111L40.214,20.239L40.540,20.573L40.903,20.662L41.058,20.474L41.392,20.068L42.016,20.496L42.738,20.479L44.210,20.097L44.289,20.138L44.674,20.339L46.414,20.303L47.643,20.642L48.246,20.671L48.778,20.339L49.286,19.726L49.742,19.450L53.169,17.377L53.876,17.217L55.279,17.233L55.526,17.172L56.715,16.148L57.092,15.971L57.531,16.065L59.405,17.027L60.551,17.433L61.175,17.505L61.719,17.567L62.933,17.345L67.770,15.324L68.695,14.376L69.014,14.318L69.170,14.546L69.195,15.344L69.297,15.683L69.811,16.286L70.373,16.711L70.993,16.946L71.686,16.988L75.145,21.633L76.472,22.624L76.936,23.973L77.366,24.707L77.480,24.901L78.212,25.637L81.255,27.814L81.585,27.982L83.292,28.851L84.340,29.070L84.500,29.208L84.630,29.413L84.786,29.608L85.018,29.702L86.617,29.630L86.976,29.669L87.132,29.858L87.215,30.166L87.335,30.484L87.611,30.698L87.857,30.691L88.394,30.504L88.593,30.518L88.988,30.781L89.181,31.016L89.248,31.347L89.253,31.372L89.282,31.993L89.293,32.000L89.569,32.509L89.652,33.014L89.714,34.140L89.975,35.219L90.352,36.291L90.406,36.621L90.392,37.313L90.482,37.668L90.527,37.718L90.631,37.834L91.041,38.055L91.204,38.244L91.425,38.799L91.798,40.405L92.549,42.172L92.767,42.517L93.151,42.690L93.981,42.733L94.355,42.909L94.975,43.897L95.000,45.003L94.616,46.094L94.153,46.841L93.843,47.340L93.615,48.021L93.506,48.255L93.314,48.375L92.763,48.535L92.589,48.697L92.422,49.235L92.313,49.884L92.281,50.559L92.339,51.186L92.451,51.452L92.785,51.976L92.864,52.294L92.835,52.568L92.665,53.346L92.685,54.066L92.777,57.349L92.825,57.577L93.028,58.055L93.071,58.326L92.984,58.547L92.578,59.054L92.466,59.342L92.538,60.344L92.716,61.328L92.589,62.201L91.751,62.861L88.561,62.616L87.536,62.801L86.980,62.902L86.325,63.483L85.939,63.826L85.613,65.148L85.573,65.310L85.428,69.024L85.094,70.835L84.692,71.784L84.311,72.062L83.854,71.832L83.231,71.267L82.959,70.896L82.803,70.532L82.637,70.311L82.600,70.261L82.194,70.159L81.661,70.307L81.541,70.649L81.570,71.071L81.490,71.454L80.888,72.234L80.286,72.744L80.162,72.793L79.623,73.008L78.851,73.054L77.705,72.879L77.147,72.884L76.472,73.090L75.983,73.219L75.421,73.282L74.380,73.236L73.981,73.083L73.238,72.593L72.919,72.436L72.480,72.404L71.592,72.564L70.928,72.586L70.635,72.778L70.413,72.751L70.341,72.588L70.290,71.970L70.199,71.788L69.877,71.694L68.807,71.556L67.480,71.126L67.077,71.076L66.802,71.042L66.008,71.112L65.207,71.488L63.945,72.647L63.209,72.913L62.948,72.814L61.784,72.179L61.697,72.045L61.639,71.808L61.530,71.582L61.273,71.490L61.128,71.580L60.769,71.987L60.602,72.113L58.358,72.780L57.292,73.364L56.970,73.606L56.392,74.041L56.117,74.356L55.975,74.802L55.945,75.579L55.939,75.733L55.874,76.090L55.395,76.812L54.144,78.034L53.669,78.910L53.666,78.915L53.662,78.919L52.342,79.855L51.994,80.297L51.929,80.685L51.925,81.191L51.798,81.725L51.356,82.185L51.060,82.251L50.355,82.409L48.535,81.994L47.545,82.452L47.473,82.636L47.397,83.243L47.263,83.505L47.088,83.568L46.584,83.538L46.381,83.570L46.030,83.856L45.210,84.683L44.902,84.889L43.923,84.695L42.375,83.284L42.242,83.265L39.565,82.886L38.706,82.903L37.875,83.284L36.599,84.571L36.051,84.889L34.862,85.144L33.655,85.146L33.124,85.033L31.835,84.758L30.921,84.707L28.434,85.468L23.281,85.682L23.267,84.436L22.980,83.553L22.393,82.976L20.649,82.450L18.796,82.178L18.766,82.186L18.078,82.358L16.911,83.352L16.294,83.601L15.410,83.403L15.048,83.091L14.579,82.687L14.072,81.604L13.394,78.905L12.716,75.840L12.357,75.083L11.976,74.788L11.665,74.741L11.574,74.727L11.131,74.749L10.653,74.698L10.377,74.567L9.659,74.228L9.413,73.590L9.434,72.758L9.257,71.699L8.702,70.610L7.404,68.755L6.962,67.565L6.367,65.033L6.178,63.620L6.191,63.526L6.316,62.606L6.820,62.766L7.324,62.456L7.781,61.874L8.115,61.234L8.361,60.450L8.368,59.815L8.329,59.709L8.154,59.238L7.738,58.642L7.473,58.465L6.889,58.370L6.639,58.157L6.570,57.902L6.497,57.136L6.381,56.775L6.313,56.644L5.935,55.916L5.667,55.635L5.276,55.456L5.029,54.757L5.131,53.492L5.000,52.825L6.711,52.449L7.219,52.233L7.690,51.947L7.988,51.642L8.176,51.154L8.175,51.058L8.173,50.743L7.429,48.567L7.252,47.566L6.972,44.171L7.074,43.676L7.357,43.052L7.701,42.596L8.517,41.794L8.745,41.383L8.718,41.076L8.658,40.413L8.379,39.228L8.390,38.974L8.423,38.189L9.315,37.645Z" fill="currentColor" stroke="currentColor" stroke-width="1.5" stroke-linejoin="round"/>
</svg>