<svg xmlns="http://www.w3.org/2000/svg" viewBox="0 0 100 100" role="img" aria-label="Mali">
  <title>Mali</title>
  <path d="M5.000,65.978L5.095,66.023L5.215,66.044L5.332,66.028L5.567,65.943L5.683,65.923L5.766,65.968L5.996,66.178L6.057,66.210L6.101,66.142L6.129,66.052L6.170,66.022L6.271,66.047L6.380,66.048L6.487,66.017L6.583,65.950L6.712,65.768L6.790,65.699L7.009,65.651L7.109,65.597L7.190,65.525L7.233,65.449L7.254,65.397L7.283,65.358L7.311,65.328L7.329,65.302L7.351,65.293L7.389,65.282L7.420,65.263L7.420,65.226L7.382,65.173L7.367,65.146L7.363,65.111L7.391,64.905L7.419,64.803L7.460,64.713L7.460,64.713L7.471,64.608L7.457,64.527L7.416,64.463L7.353,64.410L7.318,64.410L7.289,64.437L7.253,64.450L7.199,64.410L7.209,64.381L7.222,64.208L7.285,63.978L7.291,63.919L7.274,63.839L7.269,63.785L7.283,63.666L7.386,63.360L7.417,63.088L7.439,62.996L7.622,62.597L7.708,62.189L7.778,62.006L7.917,61.852L7.930,61.789L7.930,61.594L8.068,61.615L8.090,61.619L8.236,61.667L8.382,61.678L8.541,61.594L8.736,61.383L8.827,61.330L8.972,61.286L9.036,61.256L9.084,61.200L9.096,61.171L9.101,61.142L9.096,61.113L9.084,61.084L9.061,61.070L9.043,61.056L9.028,61.038L9.019,61.014L9.035,61.009L9.084,61.003L9.396,61.069L9.524,61.123L9.661,61.245L10.167,61.992L10.269,62.110L11.648,63.144L11.826,63.319L11.976,63.617L12.179,63.821L12.358,64.101L12.407,64.005L12.491,63.679L12.538,63.587L12.684,63.445L12.746,63.348L12.799,63.137L12.838,63.044L12.926,62.956L12.985,62.935L13.040,62.935L13.086,62.926L13.146,62.833L13.234,62.781L13.276,62.738L13.320,62.618L13.313,62.381L13.333,62.272L13.393,62.212L13.482,62.208L13.811,62.259L14.038,62.262L14.146,62.246L14.160,62.241L14.342,62.178L14.432,62.163L14.538,62.186L14.620,62.171L15.177,62.180L15.328,62.210L15.590,62.189L15.666,62.200L16.132,62.390L16.180,62.390L16.280,62.371L16.322,62.375L16.434,62.429L16.632,62.558L16.759,62.597L16.981,62.603L17.615,62.509L18.247,62.567L18.455,62.514L18.764,62.330L18.873,62.282L19.138,62.226L20.492,62.170L20.427,61.853L20.340,61.491L20.341,61.324L20.421,61.172L20.754,60.766L20.860,60.697L20.991,60.756L21.008,60.941L20.934,61.332L20.900,61.854L21.845,61.855L22.033,61.855L22.703,61.855L22.787,61.855L23.289,61.856L23.659,61.856L24.063,61.856L24.499,61.856L24.965,61.856L25.694,61.856L26.476,61.856L27.300,61.857L28.162,61.857L29.053,61.858L29.965,61.858L30.893,61.858L31.827,61.859L32.762,61.859L33.689,61.859L34.602,61.860L35.492,61.860L36.354,61.860L37.179,61.861L37.422,61.861L37.960,61.861L38.689,61.861L39.109,61.862L39.505,61.862L39.876,61.862L40.219,61.862L40.951,61.862L41.809,61.862L41.811,61.863L41.812,61.864L41.814,61.864L41.816,61.865L41.817,61.865L41.819,61.866L41.821,61.867L41.823,61.867L41.824,61.867L41.825,61.867L41.826,61.867L41.827,61.867L41.829,61.867L41.829,61.867L41.831,61.867L41.832,61.867L41.832,61.867L41.833,61.866L41.834,61.865L41.834,61.864L41.834,61.864L41.835,61.864L41.836,61.863L41.836,61.862L41.836,61.861L41.836,61.860L41.836,61.859L41.836,61.858L41.836,61.856L41.836,61.856L41.836,61.854L41.836,61.853L41.842,61.825L41.847,61.797L41.848,61.790L41.852,61.768L41.857,61.741L41.959,61.185L42.062,60.629L42.164,60.074L42.267,59.518L42.366,58.977L42.466,58.436L42.566,57.894L42.665,57.353L42.696,57.184L42.691,57.147L42.685,57.110L42.659,57.081L42.633,57.052L42.414,56.899L42.191,56.743L41.976,56.592L41.734,56.423L41.533,56.283L41.318,56.131L41.271,56.040L41.223,55.949L41.199,55.718L41.145,55.202L41.091,54.685L41.037,54.169L40.983,53.653L40.929,53.137L40.875,52.621L40.821,52.105L40.767,51.588L40.712,51.072L40.659,50.556L40.605,50.040L40.550,49.524L40.497,49.007L40.443,48.491L40.388,47.975L40.335,47.459L40.279,46.929L40.224,46.398L40.168,45.867L40.112,45.337L40.057,44.806L40.001,44.276L39.946,43.745L39.890,43.214L39.835,42.684L39.779,42.153L39.724,41.622L39.668,41.092L39.633,40.758L39.598,40.424L39.564,40.091L39.528,39.756L39.446,38.969L39.446,38.969L39.367,38.254L39.289,37.538L39.211,36.823L39.133,36.108L39.054,35.393L38.976,34.678L38.897,33.963L38.819,33.248L38.750,32.631L38.713,32.296L38.631,31.559L38.548,30.822L38.511,30.486L38.434,29.796L38.357,29.105L38.280,28.415L38.203,27.725L38.126,27.034L38.049,26.344L37.972,25.653L37.895,24.963L37.818,24.272L37.741,23.582L37.664,22.891L37.587,22.201L37.510,21.510L37.433,20.820L37.356,20.130L37.279,19.439L37.202,18.749L37.141,18.209L37.124,18.059L37.048,17.368L36.971,16.678L36.894,15.987L36.816,15.297L36.739,14.606L36.662,13.916L36.623,13.562L36.536,12.783L36.450,12.005L36.410,11.651L36.407,11.618L36.355,11.154L36.302,10.698L36.249,10.243L36.197,9.787L36.144,9.332L36.091,8.876L36.039,8.420L35.986,7.965L35.933,7.509L37.141,7.509L38.349,7.508L39.557,7.507L40.765,7.506L41.972,7.506L43.181,7.505L44.388,7.505L45.596,7.504L45.597,7.504L45.598,7.505L45.598,7.506L46.014,7.778L46.430,8.052L46.847,8.324L47.263,8.597L47.869,9.013L48.304,9.311L48.739,9.609L49.173,9.907L49.608,10.205L50.042,10.503L50.477,10.801L50.912,11.100L51.347,11.398L51.782,11.696L52.216,11.994L52.651,12.292L53.086,12.590L53.521,12.888L53.955,13.186L54.390,13.485L54.825,13.783L55.297,14.107L55.770,14.432L56.243,14.755L56.715,15.079L57.188,15.404L57.661,15.728L58.133,16.052L58.606,16.376L59.079,16.700L59.551,17.024L60.023,17.348L60.496,17.673L60.969,17.997L61.442,18.321L61.914,18.645L62.387,18.969L62.859,19.293L63.332,19.617L63.804,19.942L64.277,20.266L64.750,20.589L65.222,20.914L65.695,21.238L66.168,21.562L66.640,21.886L67.113,22.210L67.585,22.534L68.058,22.858L68.531,23.182L69.003,23.507L69.476,23.831L69.949,24.155L70.421,24.479L70.894,24.803L71.367,25.127L71.839,25.452L71.917,25.504L72.312,25.776L72.785,26.100L73.257,26.424L73.730,26.748L74.202,27.072L74.675,27.396L75.148,27.720L75.620,28.045L76.093,28.369L76.565,28.693L77.038,29.017L77.511,29.341L78.150,29.779L78.220,29.895L78.321,30.262L78.333,30.388L78.264,31.014L78.143,31.529L78.139,31.642L78.154,31.784L78.194,31.856L78.270,31.886L78.394,31.903L78.510,31.901L78.727,31.855L78.842,31.852L78.969,31.886L79.045,31.948L79.159,32.147L79.243,32.255L79.336,32.320L79.572,32.392L79.792,32.428L79.891,32.458L79.988,32.521L80.189,32.553L80.404,32.664L80.753,32.929L80.863,33.092L80.897,33.296L80.892,33.725L80.946,33.809L81.595,34.342L81.710,34.396L81.829,34.403L81.927,34.390L82.015,34.396L82.100,34.461L82.153,34.578L82.172,34.686L82.213,34.757L82.333,34.761L82.392,34.732L82.485,34.646L82.561,34.624L82.626,34.633L82.672,34.662L82.715,34.699L82.769,34.733L83.113,34.853L83.194,34.863L83.337,34.800L83.559,34.591L83.686,34.510L83.801,34.489L83.901,34.516L83.996,34.572L84.330,34.836L84.532,35.052L84.705,35.295L84.926,35.697L84.989,35.759L85.073,35.789L85.205,35.819L85.311,35.861L85.508,35.968L85.614,35.992L85.673,35.996L86.171,36.092L86.470,36.105L87.966,36.417L88.656,36.719L88.972,36.968L89.062,37.010L89.259,37.069L89.344,37.110L89.421,37.183L89.443,37.261L89.342,38.415L89.348,38.636L89.418,38.845L89.446,38.880L89.476,38.897L89.504,38.920L89.527,38.969L89.524,39.006L89.494,39.120L89.493,39.174L89.541,39.279L89.610,39.364L89.669,39.456L89.683,39.583L89.629,39.713L89.529,39.791L89.414,39.854L89.312,39.940L89.263,40.045L89.236,40.267L89.211,40.365L89.093,40.487L89.020,40.535L88.992,40.586L88.950,40.698L88.870,40.824L88.820,40.926L88.828,41.029L88.919,41.159L89.017,41.255L89.125,41.338L89.241,41.404L89.493,41.512L89.814,41.829L89.942,41.909L89.997,41.932L90.077,41.944L90.217,41.937L90.659,41.829L90.659,41.829L91.231,41.718L92.163,41.536L92.571,41.457L93.096,41.354L94.029,41.172L94.962,40.991L94.964,41.698L94.966,42.405L94.968,43.113L94.971,43.820L94.971,43.833L94.973,44.528L94.975,45.235L94.977,45.942L94.980,46.650L94.981,47.357L94.982,47.668L94.984,48.065L94.986,48.772L94.988,49.480L94.990,50.187L94.993,50.895L94.995,51.602L94.997,52.309L94.998,52.670L95.000,53.271L94.927,53.324L94.869,53.327L94.826,53.346L94.794,53.446L94.787,53.550L94.817,54.112L94.793,54.171L94.722,54.286L94.707,54.337L94.709,54.698L94.713,55.463L94.715,55.956L94.718,56.588L94.674,56.722L94.597,56.795L94.360,56.919L94.232,57.019L94.127,57.132L94.045,57.262L93.557,58.476L93.534,58.634L93.556,58.792L93.623,58.961L93.627,58.968L93.630,58.976L93.631,58.984L93.631,58.992L93.632,59.027L93.628,59.044L93.623,59.060L93.306,59.383L93.223,59.514L93.188,59.619L93.139,60.178L93.096,60.399L93.027,60.566L93.012,60.600L92.875,60.769L92.669,60.882L92.236,60.966L92.036,61.077L91.610,61.556L91.132,61.853L91.077,62.006L91.026,62.665L90.926,62.645L90.896,62.634L90.335,62.537L89.309,62.359L88.658,62.246L88.443,62.250L88.356,62.271L88.316,62.301L88.303,62.358L88.292,62.463L88.291,62.674L88.261,62.750L87.991,62.759L87.464,62.778L86.937,62.796L86.411,62.815L85.883,62.833L85.356,62.851L84.829,62.869L84.303,62.888L83.776,62.906L83.249,62.925L82.722,62.943L82.195,62.961L81.668,62.980L81.141,62.998L80.615,63.016L80.088,63.035L79.561,63.053L79.159,63.067L78.975,63.113L78.828,63.203L78.459,63.553L78.022,63.967L77.665,64.306L77.207,64.740L77.074,64.807L76.926,64.839L76.092,64.867L75.932,64.929L75.777,64.991L75.626,65.028L75.551,65.035L74.704,64.727L74.534,64.735L74.181,64.862L74.007,64.900L73.823,64.899L73.103,64.713L73.059,64.774L73.057,64.915L73.088,65.200L71.715,64.713L71.714,64.713L70.985,64.406L70.605,64.315L70.264,64.377L69.925,64.589L69.727,64.678L69.574,64.675L69.520,64.603L69.394,64.258L69.344,64.233L69.167,64.234L67.970,64.241L67.789,64.291L67.689,64.366L67.626,64.413L67.335,64.713L67.334,64.713L66.206,65.731L66.205,65.732L66.013,65.855L65.805,65.946L64.763,66.208L64.531,66.321L62.640,67.573L62.260,67.647L61.876,67.668L61.428,67.632L61.167,67.644L61.003,67.719L60.960,67.870L60.859,69.275L60.838,69.335L60.791,69.375L60.523,69.498L60.418,69.547L60.333,69.560L60.159,69.518L58.884,68.897L58.469,68.804L58.172,68.879L57.728,69.140L57.606,69.247L57.298,69.601L57.206,69.707L56.400,70.166L56.256,70.409L56.288,70.402L56.304,70.410L56.312,70.424L56.321,70.434L56.108,71.175L56.011,71.339L55.925,71.558L55.950,71.865L56.104,72.405L55.912,72.480L55.723,72.553L55.683,72.560L55.645,72.543L55.607,72.517L55.561,72.500L55.428,72.486L55.385,72.498L55.322,72.531L55.227,72.638L55.164,72.662L55.126,72.574L55.111,72.490L55.084,72.436L54.987,72.341L54.850,72.258L54.736,72.262L54.616,72.288L54.464,72.272L54.221,72.082L54.076,72.031L53.967,72.141L54.080,72.229L54.116,72.367L54.093,72.685L54.064,72.820L53.983,73.031L54.176,74.458L54.101,74.509L53.206,74.564L53.086,74.612L53.065,74.774L53.129,74.973L53.135,75.075L53.081,75.167L53.015,75.185L52.947,75.174L52.717,75.138L52.595,75.141L52.559,75.135L52.511,75.102L52.423,75.007L52.387,74.993L52.315,75.004L52.277,74.992L51.830,74.636L51.581,74.481L51.176,74.147L51.075,74.104L50.852,74.042L50.664,73.965L50.575,73.948L50.466,73.957L50.359,73.954L50.233,73.920L50.165,73.865L50.233,73.797L50.279,73.769L50.390,73.662L50.433,73.645L50.484,73.637L50.522,73.614L50.525,73.552L50.496,73.537L50.364,73.512L50.317,73.492L50.300,73.456L50.271,73.342L50.266,73.334L50.240,73.294L50.219,73.278L50.199,73.273L50.180,73.278L50.162,73.295L50.089,73.384L50.120,73.408L50.190,73.413L50.233,73.444L50.204,73.498L50.131,73.563L50.048,73.618L49.990,73.640L49.924,73.664L49.840,73.762L49.791,73.793L49.645,73.832L49.600,73.856L49.509,73.944L49.452,74.047L49.360,74.280L49.275,74.419L49.172,74.542L49.113,74.575L49.061,74.572L49.009,74.561L48.957,74.571L48.874,74.629L48.775,74.721L48.695,74.822L48.670,74.908L48.707,74.962L48.823,75.028L48.835,75.078L48.797,75.128L48.735,75.146L48.386,75.129L48.294,75.169L48.225,75.359L48.191,75.406L48.163,75.456L48.163,75.526L48.194,75.578L48.352,75.728L48.497,76.056L48.567,76.155L48.726,76.294L48.827,76.425L48.871,76.584L48.852,76.908L48.922,77.168L48.914,77.236L48.801,77.607L48.747,77.678L48.739,77.684L48.672,77.730L48.571,77.766L48.456,77.780L48.382,77.758L48.226,77.662L48.066,77.626L47.885,77.640L47.704,77.687L47.545,77.751L47.487,77.759L47.450,77.750L47.431,77.766L47.398,78.062L47.446,78.157L47.683,78.346L47.773,78.438L47.888,78.705L47.936,78.780L47.965,78.800L47.967,78.821L47.932,78.900L47.854,79.006L47.751,79.110L47.658,79.226L47.614,79.364L47.812,79.850L47.862,80.095L47.700,80.128L47.651,80.084L47.609,80.022L47.555,79.977L47.475,79.982L47.415,80.020L47.401,80.059L47.402,80.105L47.383,80.195L47.393,80.259L47.386,80.294L47.364,80.317L46.884,80.726L47.021,80.999L46.967,81.060L46.803,81.068L46.608,81.182L46.550,81.294L46.539,81.386L46.517,81.445L46.512,81.459L46.404,81.513L46.348,81.517L46.238,81.503L46.180,81.517L46.122,81.568L46.083,81.641L46.047,81.710L46.004,81.768L45.925,81.817L45.771,81.844L45.677,81.876L45.571,81.782L45.456,81.780L45.223,81.866L45.110,81.865L44.994,81.837L44.875,81.825L44.757,81.876L44.708,81.920L44.655,81.950L44.597,81.965L44.536,81.962L44.436,81.973L44.221,81.966L44.136,81.973L44.056,82.010L43.876,82.123L43.708,82.177L43.625,82.250L43.480,82.418L43.269,82.596L43.160,82.753L43.122,82.785L43.082,82.790L43.052,82.775L43.022,82.752L42.986,82.734L42.951,82.735L42.926,82.753L42.906,82.774L42.883,82.785L42.693,82.817L42.675,82.829L42.635,82.874L42.606,82.884L42.574,82.872L42.507,82.823L42.483,82.814L42.409,82.825L42.374,82.836L42.375,82.864L42.409,82.928L42.439,82.941L42.580,83.026L42.601,83.050L42.696,83.030L42.743,83.034L42.800,83.051L42.906,83.099L42.992,83.155L43.057,83.234L43.098,83.348L43.104,83.448L43.092,83.574L43.045,83.797L43.015,83.855L42.974,83.915L42.944,83.977L42.945,84.042L42.987,84.106L43.036,84.118L43.092,84.110L43.153,84.120L43.347,84.281L43.398,84.482L43.398,84.956L43.428,85.086L43.432,85.160L43.388,85.210L43.269,85.269L43.186,85.344L43.162,85.448L43.200,86.044L43.189,86.137L43.122,86.256L42.950,86.435L42.898,86.567L42.865,86.800L42.809,86.880L42.680,86.964L42.588,87.005L42.495,87.034L41.952,87.106L41.873,87.160L41.856,87.250L41.865,87.301L41.920,87.598L41.886,87.746L42.010,87.716L42.084,87.874L42.185,88.274L42.250,88.395L42.270,88.465L42.194,88.795L42.196,88.843L42.188,88.899L42.152,88.926L42.107,88.949L42.071,88.991L42.043,89.076L41.991,89.383L41.993,89.434L42.020,89.528L42.027,89.576L42.111,89.610L42.057,89.661L42.019,89.753L42.013,89.840L42.054,89.880L42.070,89.934L41.996,90.235L41.868,90.441L41.847,90.489L41.802,90.780L41.773,90.863L41.625,90.805L41.505,90.724L41.435,90.699L41.383,90.700L41.231,90.740L40.927,90.771L40.225,90.932L39.834,91.146L39.750,91.209L39.688,91.305L39.665,91.409L39.688,91.722L39.624,91.772L39.370,91.680L39.306,91.732L39.287,91.875L39.249,91.997L39.184,92.106L39.082,92.211L38.594,92.215L38.182,92.063L38.109,92.015L38.001,91.879L37.942,91.838L37.859,91.856L37.841,91.644L37.856,91.566L37.923,91.489L37.936,91.498L37.962,91.522L37.999,91.536L38.044,91.519L38.056,91.489L38.048,91.452L38.035,91.418L38.032,91.398L38.165,91.244L38.084,91.176L38.101,91.071L38.183,90.893L38.094,90.785L38.076,90.730L38.087,90.681L38.146,90.577L38.155,90.544L38.131,90.487L38.099,90.467L38.055,90.469L37.992,90.479L37.955,90.467L37.924,90.433L37.895,90.393L37.867,90.364L37.818,90.358L37.772,90.370L37.743,90.356L37.745,90.270L37.771,90.224L37.871,90.140L37.906,90.092L37.914,90.025L37.898,89.956L37.867,89.876L37.910,89.825L37.970,89.797L38.024,89.763L38.053,89.695L38.035,89.650L37.985,89.607L37.926,89.574L37.823,89.535L37.808,89.489L37.835,89.253L37.827,89.174L37.772,89.141L37.641,89.159L37.513,89.217L37.411,89.290L37.305,89.341L37.164,89.337L37.052,89.318L36.933,89.325L36.839,89.372L36.801,89.476L36.791,89.700L36.819,89.779L36.883,89.821L36.950,89.854L36.991,89.908L36.971,90.041L36.869,90.113L36.736,90.138L36.621,90.130L36.325,90.069L36.236,90.038L36.015,89.915L35.903,89.837L35.821,89.759L35.710,89.561L35.639,89.514L35.518,89.555L35.525,89.573L35.449,89.708L35.436,89.713L35.410,89.820L35.399,89.925L35.409,89.974L35.429,90.013L35.444,90.059L35.417,90.320L35.364,90.504L35.373,90.602L35.443,90.713L35.483,90.735L35.543,90.754L35.601,90.780L35.635,90.822L35.634,90.884L35.606,90.934L35.571,90.978L35.547,91.020L35.523,91.204L35.520,91.232L35.474,91.301L35.348,91.343L35.227,91.329L35.022,91.203L34.902,91.163L34.784,91.176L34.462,91.330L34.357,91.345L34.048,91.305L33.925,91.324L33.860,91.396L33.730,91.851L33.742,91.928L33.799,91.979L33.871,92.027L33.923,92.090L33.935,92.236L33.869,92.357L33.755,92.444L33.628,92.491L33.493,92.496L33.396,92.405L33.315,92.276L33.226,92.167L33.134,92.112L32.597,91.956L32.165,91.887L31.821,91.879L31.732,91.855L31.686,91.784L31.681,91.646L31.716,91.413L31.683,91.325L31.559,91.317L31.411,91.375L31.361,91.388L31.290,91.385L31.282,91.350L31.296,91.295L31.288,91.233L31.197,91.074L31.175,91.017L31.171,90.966L31.176,90.906L31.171,90.840L31.141,90.774L31.094,90.721L31.042,90.688L30.978,90.673L30.900,90.678L30.770,90.851L30.728,90.892L30.679,90.910L30.581,90.909L30.526,90.914L30.399,90.902L30.203,90.777L30.090,90.796L30.059,90.844L30.038,90.915L30.010,90.975L29.961,90.991L29.897,90.983L29.848,90.995L29.774,91.059L29.774,91.098L29.750,91.107L29.699,91.133L29.765,91.217L29.703,91.312L29.582,91.386L29.472,91.410L29.544,91.507L29.479,91.623L29.469,91.705L29.438,91.750L29.398,91.777L29.362,91.808L29.343,91.870L29.322,91.914L29.192,92.087L29.139,92.132L29.091,92.165L29.038,92.185L28.898,92.206L28.847,92.240L28.745,92.328L28.646,92.377L28.533,92.408L28.418,92.410L28.316,92.371L28.434,92.096L28.463,91.963L28.452,91.816L28.416,91.685L28.360,91.541L28.280,91.419L28.174,91.356L27.877,91.341L27.735,91.314L27.629,91.236L27.600,91.163L27.593,91.012L27.575,90.942L27.520,90.853L27.484,90.839L27.438,90.869L27.354,90.905L27.228,90.931L27.111,90.928L27.011,90.875L26.874,90.609L26.708,90.372L26.647,90.223L26.562,89.091L26.538,88.989L26.394,88.931L26.406,88.813L26.520,88.494L26.558,88.450L26.591,88.398L26.603,88.292L26.595,87.701L26.562,87.571L26.478,87.440L26.365,87.329L26.245,87.266L26.179,87.268L26.074,87.328L26.020,87.336L25.919,87.300L25.869,87.291L25.812,87.307L25.701,87.311L25.592,87.274L25.501,87.274L25.359,87.581L25.305,87.669L25.207,87.738L25.119,87.766L25.023,87.778L24.924,87.775L24.832,87.760L24.725,87.772L24.631,87.822L24.545,87.849L24.462,87.789L24.437,87.699L24.458,87.599L24.503,87.504L24.551,87.432L24.803,87.168L24.860,87.054L24.864,86.989L24.851,86.934L24.852,86.878L24.902,86.809L24.947,86.791L25.057,86.790L25.106,86.763L25.152,86.673L25.183,86.469L25.249,86.370L25.289,86.346L25.400,86.296L25.447,86.265L25.466,86.258L25.520,86.253L25.539,86.240L25.548,86.199L25.536,86.165L25.519,86.136L25.515,86.115L25.572,85.987L25.623,85.946L25.834,85.995L25.931,86.007L26.041,86.001L26.141,85.966L26.204,85.890L26.235,85.742L26.180,85.716L26.080,85.733L25.979,85.714L25.935,85.628L26.000,85.554L26.114,85.499L26.212,85.473L26.090,85.368L25.926,85.287L25.597,85.183L25.446,85.179L25.382,85.154L25.338,85.070L25.317,84.965L25.292,84.843L25.261,84.772L25.122,84.885L24.975,84.875L24.677,84.736L24.616,84.653L24.555,84.545L24.510,84.429L24.492,84.326L24.371,83.914L24.296,83.860L24.221,83.879L24.133,83.921L24.020,83.938L23.922,83.903L23.832,83.847L23.740,83.805L23.638,83.812L23.912,82.351L23.907,82.283L23.878,82.227L23.841,82.172L23.814,82.110L23.806,81.987L23.811,81.879L23.788,81.782L23.688,81.693L23.575,81.672L23.450,81.688L23.330,81.681L23.229,81.595L23.207,81.487L23.230,81.362L23.312,81.137L23.317,81.009L23.274,80.883L23.203,80.783L23.121,80.734L23.014,80.779L22.947,80.781L22.907,80.716L22.889,80.659L22.836,80.568L22.818,80.511L22.827,80.361L22.885,80.241L22.957,80.127L23.006,80.000L22.997,79.873L22.936,79.745L22.838,79.637L22.653,79.539L22.001,79.191L21.771,79.113L21.354,79.021L21.283,79.026L21.243,79.062L21.201,79.087L21.124,79.057L21.051,79.013L21.019,79.008L20.982,79.015L20.891,79.082L20.633,79.147L20.554,79.249L20.583,79.308L20.662,79.406L20.761,79.502L20.911,79.586L20.926,79.629L20.928,79.680L20.955,79.734L20.996,79.759L21.087,79.780L21.118,79.808L21.122,79.880L21.098,79.989L21.049,80.080L20.977,80.101L20.994,80.237L20.967,80.311L20.840,80.443L20.505,80.384L20.411,80.397L20.189,80.505L20.100,80.569L19.992,80.670L19.378,80.881L19.205,80.997L19.122,81.088L19.083,81.176L19.075,81.274L19.087,81.392L19.061,81.465L18.993,81.563L18.861,81.709L18.557,81.702L18.459,81.670L18.404,81.635L18.315,81.563L18.257,81.539L18.219,81.540L18.107,81.558L18.055,81.557L17.957,81.508L17.769,81.353L17.669,81.324L17.560,81.305L17.370,81.201L17.265,81.169L17.199,81.136L17.088,81.046L17.022,81.011L16.966,80.997L16.875,80.993L16.857,80.987L16.819,80.975L16.776,80.947L16.702,80.881L16.648,80.856L16.609,80.851L16.476,80.856L16.369,80.835L16.178,80.741L15.998,80.704L15.964,80.669L15.937,80.631L15.894,80.608L15.686,80.694L15.653,80.762L15.639,80.761L15.624,80.728L15.585,80.699L15.574,80.712L15.551,80.765L15.499,80.793L15.449,80.797L15.418,80.820L15.422,80.902L15.341,80.873L15.305,80.854L15.270,80.824L15.198,80.873L15.010,81.034L14.972,81.081L14.919,81.164L14.658,81.143L14.559,81.179L14.554,81.234L14.598,81.349L14.579,81.371L14.528,81.395L14.526,81.450L14.541,81.510L14.540,81.552L14.430,81.633L14.320,81.687L14.260,81.756L14.298,81.882L14.214,81.910L14.101,81.970L14.002,82.039L13.960,82.097L13.939,82.176L13.891,82.281L13.831,82.379L13.777,82.433L13.696,82.472L13.470,82.482L13.312,82.313L13.090,81.876L12.944,81.724L12.918,81.663L12.926,81.617L12.980,81.516L12.994,81.465L12.959,81.306L12.861,81.222L12.733,81.160L12.606,81.063L12.387,80.710L12.290,80.636L12.157,80.599L12.048,80.604L11.811,80.685L11.684,80.680L11.610,80.696L11.569,80.754L11.498,80.999L11.435,81.073L11.259,81.204L11.255,81.210L11.229,81.241L11.152,81.368L11.109,81.389L11.062,81.392L11.026,81.411L10.992,81.576L10.933,81.686L10.853,81.772L10.766,81.796L10.677,81.801L10.502,81.877L10.395,81.876L10.288,81.837L10.176,81.778L10.070,81.705L9.979,81.623L9.759,81.318L9.661,81.237L9.327,81.084L9.225,80.990L9.126,80.758L9.213,80.591L9.369,80.424L9.470,80.198L9.469,80.066L9.433,79.840L9.456,79.712L9.541,79.663L9.672,79.669L9.776,79.655L9.777,79.544L9.787,79.392L9.824,79.241L9.835,79.107L9.766,79.008L9.754,79.040L9.711,79.111L9.701,79.059L9.666,78.966L9.654,78.917L9.621,78.826L9.579,78.843L9.548,78.904L9.551,78.946L9.507,78.906L9.444,78.792L9.404,78.766L9.344,78.745L9.383,78.709L9.496,78.655L9.510,78.589L9.503,78.548L9.490,78.508L9.485,78.447L9.514,78.267L9.513,78.207L9.486,78.148L9.443,78.117L9.402,78.101L9.381,78.088L9.376,78.003L9.409,77.960L9.452,77.930L9.510,77.779L9.582,77.756L9.657,77.742L9.702,77.668L9.692,77.614L9.634,77.508L9.634,77.482L9.672,77.441L9.684,77.378L9.679,77.310L9.667,77.252L9.650,77.204L9.626,77.163L9.606,77.136L9.599,77.131L9.586,77.126L9.560,77.123L9.538,77.109L9.536,77.074L9.550,77.043L9.566,77.019L9.575,76.994L9.557,76.901L9.578,76.842L9.608,76.782L9.631,76.724L9.619,76.694L9.588,76.665L9.561,76.634L9.565,76.599L9.601,76.579L9.639,76.593L9.674,76.612L9.698,76.611L9.745,76.572L9.780,76.550L9.798,76.516L9.787,76.367L9.774,76.302L9.749,76.243L9.704,76.193L9.690,76.293L9.651,76.358L9.588,76.385L9.502,76.368L9.517,76.311L9.531,76.200L9.531,76.151L9.549,76.127L9.580,76.103L9.588,76.079L9.541,76.056L9.519,76.037L9.498,76.001L9.467,75.932L9.392,75.820L9.403,75.787L9.433,75.744L9.439,75.703L9.382,75.680L9.293,75.657L9.224,75.614L9.160,75.563L9.084,75.517L8.988,75.493L8.960,75.401L8.958,75.201L8.907,75.125L8.842,75.064L8.790,74.993L8.773,74.891L8.794,74.829L8.864,74.726L8.872,74.663L8.849,74.608L8.725,74.496L8.591,74.304L8.552,74.193L8.551,74.069L8.512,74.088L8.443,74.106L8.383,74.099L8.368,74.042L8.376,73.960L8.351,73.935L8.214,73.941L8.107,73.964L8.055,73.957L8.001,73.913L7.969,73.857L7.930,73.811L7.852,73.800L7.769,73.846L7.714,73.941L7.681,74.058L7.667,74.169L7.438,74.346L7.409,74.378L7.378,74.375L7.313,74.320L7.289,74.280L7.255,74.170L7.234,74.127L7.192,74.096L7.047,74.023L6.999,74.009L6.986,73.946L7.064,73.640L7.076,73.538L7.039,73.472L6.995,73.453L6.944,73.446L6.887,73.417L6.856,73.380L6.808,73.295L6.773,73.256L6.458,73.020L6.358,72.904L6.237,72.710L6.169,72.504L6.057,72.281L5.983,72.168L5.908,72.103L6.374,71.835L6.556,71.643L6.643,71.387L6.675,71.155L6.676,71.039L6.643,70.931L6.548,70.814L6.446,70.735L6.357,70.644L6.303,70.496L6.303,70.259L6.426,69.820L6.466,69.588L6.454,69.461L6.253,68.980L6.199,68.896L6.122,68.843L5.907,68.763L5.841,68.706L5.788,68.635L5.744,68.556L5.824,68.526L5.848,68.455L5.810,68.380L5.302,68.187L5.231,68.173L5.241,67.925L5.227,67.809L5.163,67.559L5.151,67.440L5.184,67.341L5.287,67.276L5.327,67.241L5.342,67.178L5.347,67.108L5.359,67.050L5.399,66.990L5.505,66.885L5.536,66.835L5.541,66.739L5.499,66.705L5.444,66.691L5.405,66.659L5.392,66.596L5.403,66.557L5.427,66.516L5.457,66.448L5.397,66.444L5.308,66.426L5.225,66.388L5.183,66.323L5.150,66.244L5.042,66.145L5.000,65.978Z" fill="currentColor" stroke="currentColor" stroke-width="1" stroke-linejoin="round"/>
</svg>