<svg xmlns="http://www.w3.org/2000/svg" viewBox="0 0 100 100" role="img" aria-label="Malta">
  <title>Malta</title>
  <path d="M90.512,64.016L94.064,69.818L95.000,76.893L93.740,81.469L90.512,79.677L86.865,83.745L85.700,86.186L85.700,89.760L81.938,88.238L80.907,87.602L72.830,86.800L61.525,83.250L51.442,77.660L47.107,70.785L46.362,69.912L43.040,68.108L42.314,66.728L42.314,57.742L41.283,47.518L39.946,42.918L37.483,39.935L40.461,37.258L43.460,35.418L46.744,34.345L50.449,33.991L50.449,36.137L48.310,36.539L46.935,37.246L43.899,39.935L62.460,42.081L66.356,43.638L74.243,50.419L81.079,52.860L82.263,55.100L82.530,57.990L82.511,60.891L83.772,61.138L90.512,64.016ZM22.129,10.240L28.221,12.481L35.783,17.340L40.347,22.187L37.483,24.274L33.358,24.439L27.056,27.316L22.931,28.236L18.577,27.906L13.746,26.585L9.125,24.592L5.306,22.116L6.031,18.991L5.172,15.830L5.000,13.377L7.788,12.410L22.129,10.240Z" fill="currentColor" stroke="currentColor" stroke-width="1" stroke-linejoin="round"/>
</svg>