<svg xmlns="http://www.w3.org/2000/svg" viewBox="0 0 100 100" role="img" aria-label="Myanmar">
  <title>Myanmar</title>
  <path d="M31.415,36.496L31.451,36.483L31.485,36.464L31.515,36.440L31.542,36.410L31.594,36.346L31.649,36.329L31.705,36.324L31.755,36.296L31.789,36.231L31.789,36.165L31.779,36.098L31.779,36.027L31.806,35.933L31.817,35.938L31.840,35.944L31.860,35.931L31.863,35.882L31.847,35.746L31.860,35.682L31.904,35.648L32.014,35.678L32.303,35.888L32.595,36.165L32.676,36.273L32.713,36.410L32.735,36.549L32.783,36.595L32.836,36.548L32.879,36.410L32.913,36.305L32.980,36.284L33.054,36.326L33.113,36.411L33.137,36.438L33.165,36.451L33.194,36.450L33.225,36.432L33.234,36.422L33.243,36.411L33.247,36.377L33.246,36.343L33.238,36.309L33.225,36.277L33.195,36.215L33.181,36.150L33.189,36.087L33.272,35.928L33.316,35.893L33.372,35.880L33.454,35.846L33.441,35.808L33.447,35.482L33.440,35.446L33.450,35.419L33.503,35.398L33.546,35.395L33.667,35.416L33.749,35.442L33.811,35.490L33.880,35.520L33.981,35.489L33.897,35.340L33.898,35.281L33.904,35.273L33.927,35.277L34.025,35.232L34.070,35.224L34.105,35.203L34.126,35.143L34.129,35.095L34.091,34.533L34.034,34.336L33.873,34.166L33.835,34.089L33.788,33.931L33.784,33.819L33.833,33.630L33.839,33.526L33.812,33.432L33.710,33.254L33.674,33.163L33.659,33.062L33.699,32.679L33.848,32.548L33.864,32.556L33.906,32.444L34.069,32.255L34.134,32.156L34.143,32.067L34.114,31.970L34.024,31.798L33.988,31.696L33.965,31.563L33.973,31.435L34.029,31.348L34.141,31.307L34.229,31.329L34.300,31.396L34.361,31.490L34.456,31.566L34.575,31.559L34.693,31.502L34.781,31.426L34.850,31.337L35.038,30.965L35.040,30.905L35.030,30.847L35.028,30.773L35.065,30.449L35.045,30.246L35.052,30.163L35.080,30.085L35.169,29.962L35.185,29.921L35.187,29.877L35.179,29.823L35.151,29.542L35.153,29.408L35.299,28.480L35.289,28.322L35.270,28.272L35.208,28.186L35.181,28.136L35.038,28.040L34.963,27.482L34.967,27.311L34.953,27.234L34.934,27.201L34.907,27.178L34.869,27.131L34.772,26.974L34.736,26.895L34.712,26.810L34.704,26.708L34.710,26.616L34.712,26.590L34.743,26.480L34.799,26.403L34.919,26.361L35.008,26.411L35.136,26.607L35.182,26.663L35.330,26.810L35.359,26.876L35.374,26.936L35.409,26.979L35.491,26.991L35.586,26.983L35.727,26.905L35.803,26.879L35.832,26.893L35.856,26.927L35.884,26.952L35.928,26.941L35.954,26.917L35.977,26.885L35.994,26.848L36.005,26.810L36.115,26.744L36.333,26.733L36.563,26.761L36.708,26.810L36.888,27.049L36.983,27.094L37.343,27.050L37.475,27.080L37.603,27.129L37.760,27.167L37.863,27.186L38.122,27.325L38.195,27.382L38.260,27.471L38.325,27.543L38.403,27.547L38.457,27.489L38.471,27.474L38.485,27.376L38.479,27.271L38.485,27.176L38.530,27.081L38.735,26.810L38.752,26.741L38.776,26.556L38.796,26.510L38.844,26.455L38.863,26.371L38.880,26.199L38.934,26.018L39.155,25.508L39.174,25.428L39.188,25.267L39.212,25.191L39.246,25.150L39.341,25.085L39.372,25.045L39.377,25.006L39.362,24.922L39.363,24.894L39.415,24.838L39.470,24.800L39.511,24.745L39.522,24.551L39.552,24.494L39.604,24.453L39.673,24.411L39.736,24.166L39.770,24.097L39.824,24.047L40.027,23.919L40.081,23.809L40.176,23.480L40.214,23.403L40.281,23.391L40.337,23.392L40.393,23.384L40.455,23.348L40.510,23.282L40.546,23.200L40.563,23.110L40.563,23.025L40.589,22.882L40.771,22.645L40.842,22.519L40.927,22.108L41.001,22.010L41.086,21.862L41.110,21.659L41.078,21.459L40.998,21.322L40.835,21.247L40.652,21.212L40.489,21.153L40.382,21.007L40.367,20.809L40.630,20.092L40.732,19.935L40.822,19.842L40.863,19.800L41.011,19.700L41.098,19.669L41.255,19.651L41.339,19.626L41.420,19.564L41.537,19.382L41.602,19.303L41.641,19.286L41.731,19.285L41.774,19.264L41.777,19.244L41.741,19.199L41.743,19.173L41.761,19.157L41.809,19.132L41.825,19.116L42.233,18.540L42.267,18.503L42.310,18.487L42.407,18.475L42.447,18.448L42.477,18.362L42.468,18.253L42.376,17.758L42.380,17.664L42.410,17.560L42.462,17.515L42.631,17.456L42.706,17.408L42.898,17.210L43.040,17.042L43.093,16.946L43.088,16.845L43.031,16.788L42.869,16.738L42.807,16.686L42.763,16.364L42.781,16.323L42.814,16.286L42.836,16.250L42.819,16.213L42.783,16.194L42.745,16.186L42.708,16.173L42.674,16.141L42.617,15.996L42.597,15.805L42.605,15.613L42.636,15.462L42.698,15.301L42.707,15.230L42.687,15.138L42.601,14.979L42.592,14.903L42.654,14.810L42.724,14.756L42.857,14.612L42.904,14.540L42.929,14.485L42.934,14.453L42.933,14.423L42.947,14.286L42.964,14.250L43.009,14.206L43.049,14.186L43.148,14.163L43.193,14.143L43.231,14.106L43.294,14.014L43.336,13.981L43.420,13.968L43.491,14.067L43.527,14.071L43.589,14.077L43.672,14.052L43.840,13.974L44.188,13.865L44.269,13.818L44.402,13.656L44.506,13.455L44.628,13.294L44.817,13.248L44.921,13.266L45.014,13.268L45.089,13.232L45.143,13.133L45.188,13.020L45.238,12.958L45.309,12.931L45.518,12.907L45.578,12.884L45.623,12.830L45.740,12.639L45.935,12.409L46.057,12.363L46.314,12.317L46.438,12.256L46.563,12.139L46.662,12.002L46.828,11.700L47.002,11.470L47.278,11.282L47.588,11.149L48.791,10.954L49.094,10.967L49.164,10.990L49.259,10.981L49.353,10.952L49.424,10.914L49.515,10.809L49.554,10.727L49.603,10.688L49.727,10.713L49.768,10.736L49.795,10.760L49.828,10.775L49.885,10.772L49.931,10.746L50.007,10.669L50.058,10.649L50.140,10.654L50.226,10.675L50.383,10.745L50.462,10.798L50.520,10.859L50.615,11.014L50.668,11.075L50.813,11.192L50.840,11.230L50.802,11.324L50.759,11.404L50.763,11.481L50.866,11.562L51.490,11.836L51.530,11.872L51.562,11.912L51.598,11.946L51.649,11.968L51.693,11.964L51.743,11.944L51.780,11.928L51.826,11.922L51.884,11.943L51.921,11.973L51.957,11.989L52.017,11.966L52.034,11.936L52.080,11.811L52.088,11.774L52.063,11.724L52.024,11.695L51.983,11.671L51.950,11.637L51.938,11.592L51.936,11.506L51.909,11.467L51.784,11.343L51.046,10.425L50.938,10.254L50.919,10.162L50.979,10.021L50.971,9.951L50.953,9.909L50.937,9.820L50.934,9.775L50.920,9.730L50.869,9.657L50.851,9.609L50.851,9.509L50.888,9.414L50.948,9.331L51.022,9.268L51.202,9.150L51.281,9.082L51.435,8.897L51.495,8.861L51.640,8.819L51.706,8.801L51.734,8.801L51.750,8.783L51.758,8.721L51.773,8.670L51.804,8.645L51.894,8.615L51.922,8.588L51.957,8.518L51.986,8.501L52.035,8.487L52.074,8.464L52.302,8.270L52.374,8.193L52.433,8.115L52.487,8.066L52.570,8.027L52.658,8.007L52.730,8.015L52.783,8.076L52.785,8.140L52.805,8.173L52.904,8.139L52.989,8.093L53.010,8.058L53.001,8.002L52.999,7.894L53.018,7.816L53.094,7.678L53.119,7.610L53.087,7.474L52.866,7.251L52.805,7.128L52.832,6.965L52.967,6.673L52.943,6.541L52.990,6.456L53.152,6.368L53.190,6.320L53.219,6.218L53.282,6.198L53.366,6.212L53.456,6.210L53.507,6.156L53.528,6.060L53.528,5.878L53.518,5.833L53.502,5.790L53.496,5.746L53.517,5.704L53.588,5.633L53.614,5.593L53.628,5.539L53.690,5.463L53.757,5.292L53.807,5.210L53.869,5.043L53.953,5.000L54.050,5.062L54.151,5.210L54.259,5.271L54.383,5.193L54.517,5.130L54.649,5.242L54.832,5.748L54.947,5.893L55.092,5.934L55.372,5.808L55.546,5.879L55.760,6.150L55.915,6.238L55.979,6.294L55.983,6.373L55.942,6.509L55.970,6.558L56.153,6.585L56.231,6.627L56.532,6.894L56.549,6.909L56.587,6.988L56.591,7.079L56.566,7.511L56.548,7.610L56.497,7.714L56.526,7.769L56.686,7.851L56.763,7.922L56.815,8.003L56.812,8.074L56.722,8.117L56.646,8.168L56.672,8.254L56.747,8.339L56.902,8.434L56.921,8.480L56.911,8.543L56.908,8.638L56.927,8.683L56.956,8.708L56.970,8.736L56.926,8.850L56.938,8.894L57.090,9.120L57.164,9.274L57.261,9.649L57.347,9.809L57.501,9.875L57.661,9.831L57.749,9.717L57.792,9.567L57.816,9.410L57.813,9.232L57.825,9.142L57.871,9.101L57.926,9.117L58.163,9.231L58.243,9.297L58.379,9.235L58.475,9.301L58.570,9.488L58.634,9.545L58.752,9.540L58.807,9.513L58.849,9.479L58.891,9.452L58.946,9.449L58.985,9.473L59.030,9.519L59.068,9.572L59.091,9.614L59.102,9.714L59.054,9.908L59.041,10.104L59.069,10.530L59.082,10.580L59.111,10.592L59.145,10.594L59.173,10.614L59.220,10.767L59.204,10.925L59.095,11.248L59.065,11.387L59.061,11.543L59.107,11.857L59.146,11.942L59.197,11.969L59.260,11.990L59.327,12.055L59.356,12.152L59.329,12.236L59.279,12.319L59.242,12.409L59.347,12.831L59.350,12.874L59.335,12.924L59.270,12.997L59.251,13.048L59.267,13.142L59.377,13.296L59.414,13.384L59.408,13.483L59.341,13.661L59.330,13.761L59.396,13.917L59.400,13.957L59.397,13.997L59.399,14.038L59.415,14.084L59.437,14.186L59.405,14.277L59.312,14.437L59.281,14.599L59.263,15.224L59.246,15.317L59.219,15.405L59.175,15.486L58.994,15.690L58.956,15.791L58.934,15.882L58.923,15.964L58.950,16.011L59.041,15.995L59.081,16.037L59.192,16.268L59.210,16.346L59.186,16.392L59.151,16.418L59.124,16.446L59.125,16.546L59.098,16.586L58.933,16.716L58.871,16.721L58.842,16.665L58.848,16.493L58.819,16.486L58.741,16.514L58.564,16.556L58.506,16.606L58.485,16.679L58.493,16.762L58.522,16.845L58.607,17.015L58.628,17.103L58.620,17.210L58.652,17.271L58.697,17.279L58.751,17.270L58.805,17.285L58.846,17.330L58.995,17.546L59.037,17.639L59.060,17.657L59.115,17.678L59.139,17.706L59.151,17.767L59.141,17.832L59.116,17.891L59.085,17.938L58.850,18.115L58.777,18.143L58.733,18.138L58.690,18.116L58.561,18.068L58.457,17.984L58.400,17.960L58.321,17.963L58.270,17.999L58.163,18.119L58.103,18.172L58.063,18.252L58.003,18.417L57.971,18.453L57.937,18.478L57.910,18.510L57.900,18.566L57.899,18.625L57.885,18.664L57.712,18.870L57.688,18.930L57.631,19.141L57.585,19.213L57.519,19.265L57.426,19.311L57.323,19.345L57.265,19.335L57.132,19.206L57.065,19.171L56.692,19.044L56.646,19.051L56.639,19.111L56.643,19.345L56.619,19.420L56.569,19.480L56.485,19.554L56.463,19.586L56.462,19.618L56.486,19.745L56.505,19.787L56.519,19.834L56.511,20.016L56.519,20.085L56.502,20.120L56.419,20.134L56.354,20.181L56.295,20.286L56.214,20.489L56.163,20.540L55.976,20.631L55.903,20.680L55.697,20.938L55.602,20.990L55.507,20.999L55.461,20.961L55.430,20.894L55.377,20.815L55.211,20.731L55.108,20.846L55.000,21.225L54.896,21.442L54.821,21.552L54.749,21.606L54.667,21.632L54.649,21.675L54.674,21.848L54.666,22.177L54.688,22.336L54.760,22.480L54.927,22.609L54.981,22.684L54.946,22.780L54.870,22.820L54.771,22.821L54.587,22.786L54.487,22.804L54.390,22.866L54.215,23.012L53.908,23.210L53.907,23.211L53.892,23.315L53.919,23.920L53.807,24.571L53.804,24.682L53.832,24.719L54.200,24.666L54.308,24.664L54.378,24.678L54.412,24.712L54.434,24.758L54.449,24.809L54.457,24.857L54.481,24.915L54.564,24.974L54.598,25.022L54.603,25.124L54.534,25.151L54.440,25.161L54.370,25.212L54.399,25.336L54.734,25.454L54.760,25.628L54.734,25.664L54.701,25.690L54.672,25.723L54.658,25.775L54.671,25.831L54.735,25.916L54.755,25.965L54.742,26.079L54.685,26.186L53.818,27.062L53.893,27.153L54.073,27.231L54.242,27.348L54.267,27.387L54.286,27.431L54.309,27.523L54.365,27.442L54.412,27.418L54.450,27.399L54.546,27.370L54.636,27.329L54.869,27.104L54.958,27.044L55.056,27.012L55.123,27.006L55.185,26.988L55.269,26.923L55.452,26.718L55.512,26.679L56.487,26.300L56.834,26.218L57.005,26.224L57.341,26.307L57.510,26.310L57.586,26.283L57.728,26.200L57.805,26.172L57.983,26.162L58.163,26.174L58.293,26.205L58.473,26.336L58.597,26.393L58.665,26.424L58.719,26.388L58.788,26.367L58.915,26.304L59.102,26.274L59.258,26.205L59.721,26.168L59.889,26.120L59.937,26.088L59.942,26.100L59.972,26.238L59.893,26.385L59.482,26.657L59.261,26.843L59.182,26.876L59.094,26.901L59.018,26.933L58.998,26.974L59.030,27.012L59.070,27.090L59.063,27.131L59.025,27.251L59.023,27.314L59.055,27.667L59.041,27.706L59.020,27.733L59.020,27.762L59.075,27.808L59.117,27.820L59.223,27.821L59.359,27.865L59.538,27.895L59.608,27.947L59.634,28.020L59.640,28.262L59.675,28.344L59.863,28.637L59.893,28.659L59.899,28.687L59.866,28.752L59.835,28.784L59.622,28.910L59.568,28.962L59.552,29.030L59.639,29.280L59.683,29.312L59.775,29.283L59.860,29.282L59.929,29.348L59.981,29.445L60.045,29.635L60.057,29.731L60.047,29.822L60.010,29.909L59.973,29.934L59.920,29.953L59.880,29.980L59.881,30.028L59.913,30.040L60.076,30.036L60.140,30.159L59.911,30.569L59.906,30.727L60.244,30.761L60.413,30.809L60.502,30.820L60.588,30.809L60.665,30.818L60.696,30.885L60.723,30.977L60.795,31.062L60.885,31.100L60.963,31.101L61.135,31.078L61.174,31.083L61.289,31.119L61.356,31.125L61.374,31.131L61.384,31.133L61.426,31.128L61.449,31.145L61.451,31.233L61.462,31.265L61.496,31.292L61.528,31.312L61.565,31.315L61.616,31.289L61.713,31.208L61.755,31.185L61.837,31.165L61.879,31.123L61.916,31.047L61.970,30.981L62.059,30.966L62.137,31.015L62.273,31.196L62.374,31.260L62.714,31.272L62.781,31.312L62.790,31.379L62.775,31.452L62.769,31.530L62.807,31.611L62.970,31.831L62.985,31.941L62.882,32.026L62.742,32.019L62.495,31.892L62.420,31.920L62.410,31.975L62.436,32.191L62.425,32.275L62.375,32.351L62.263,32.484L62.173,32.668L62.136,32.701L62.080,32.716L62.029,32.738L61.983,32.768L61.942,32.811L61.941,32.934L62.155,33.467L62.166,33.570L62.119,33.732L62.106,33.828L62.117,33.877L62.161,33.958L62.168,34.010L62.148,34.064L62.110,34.118L61.828,34.411L61.648,34.501L61.622,34.564L61.636,34.598L61.663,34.632L61.672,34.691L61.650,34.750L61.569,34.846L61.536,34.900L61.480,35.134L61.449,35.211L61.300,35.406L61.268,35.502L61.339,35.579L61.201,35.651L61.300,35.754L61.508,35.849L61.692,35.895L62.042,35.930L62.200,35.914L62.472,35.801L62.534,35.792L62.769,35.888L62.836,35.892L62.989,35.876L63.418,35.982L63.458,36.005L63.493,36.043L63.535,36.126L63.556,36.154L63.646,36.201L63.691,36.163L63.737,36.094L63.827,36.050L63.897,36.068L64.173,36.209L64.207,36.240L64.234,36.278L64.268,36.303L64.326,36.295L64.362,36.258L64.365,36.163L64.390,36.124L64.476,36.111L64.819,36.170L64.785,36.232L64.782,36.298L64.807,36.360L64.855,36.411L64.924,36.566L64.877,36.751L64.718,37.099L64.708,37.209L64.727,37.290L64.804,37.459L64.854,37.727L64.902,37.806L65.065,37.895L65.453,37.903L65.627,37.955L65.693,38.009L65.728,38.045L65.743,38.072L65.732,38.116L65.698,38.132L65.652,38.141L65.605,38.167L65.551,38.234L65.510,38.314L65.482,38.396L65.468,38.464L65.470,38.544L65.488,38.650L65.521,38.749L65.569,38.810L65.662,38.873L65.817,39.094L65.929,39.135L65.977,39.109L66.124,38.996L66.187,38.959L66.328,38.908L66.393,38.870L66.451,38.811L66.452,38.810L66.507,38.727L66.561,38.672L66.631,38.643L66.727,38.636L66.820,38.655L66.890,38.698L67.027,38.811L67.049,38.892L67.091,38.964L67.151,39.005L67.230,38.996L67.334,38.972L67.556,39.014L67.673,39.004L67.899,38.937L68.008,38.885L68.079,38.811L68.080,38.810L68.272,38.710L68.511,38.453L68.694,38.183L68.866,38.032L69.059,37.937L69.498,37.809L69.582,37.774L69.809,37.611L69.865,37.567L69.926,37.531L69.990,37.508L70.154,37.541L70.181,37.617L70.193,37.852L70.233,37.902L70.291,37.940L70.347,38.028L70.380,38.127L70.370,38.197L70.403,38.251L70.375,38.308L70.330,38.375L70.314,38.462L70.336,38.536L70.345,38.622L70.327,38.694L70.264,38.724L69.630,39.240L69.206,39.460L69.143,39.481L68.991,39.637L68.940,39.678L68.774,39.748L68.671,39.761L68.583,39.729L68.549,39.705L68.511,39.689L68.471,39.680L68.428,39.678L68.369,39.693L68.354,39.731L68.356,39.784L68.350,39.842L68.206,40.424L67.971,40.855L67.916,40.929L67.831,40.978L67.628,41.020L67.544,41.057L67.600,41.190L67.607,41.227L67.583,41.259L67.498,41.316L67.480,41.341L67.470,41.444L67.428,41.639L67.418,41.734L67.502,41.794L67.905,41.724L68.037,41.752L68.037,41.781L67.921,41.892L67.836,41.958L67.796,41.988L67.660,42.064L67.514,42.112L67.408,42.115L67.215,42.061L66.820,41.997L66.734,42.014L66.672,42.076L66.631,42.151L66.575,42.216L66.396,42.269L66.325,42.332L66.208,42.476L66.085,42.583L66.038,42.642L66.019,42.722L65.997,42.783L65.897,42.926L65.864,43.003L65.864,43.066L65.806,43.192L65.757,43.358L65.700,43.785L65.658,43.936L65.648,44.039L65.628,44.123L65.584,44.190L65.533,44.251L65.520,44.317L65.523,44.382L65.530,44.464L65.332,44.337L65.296,44.284L65.273,44.238L65.244,44.198L65.184,44.162L65.118,44.148L65.065,44.148L65.016,44.132L64.964,44.065L64.920,44.028L64.904,43.984L64.893,43.937L64.864,43.895L64.817,43.858L64.795,43.853L64.774,43.864L64.526,43.901L64.426,43.935L64.344,43.988L64.292,44.063L64.232,44.236L64.191,44.314L64.115,44.386L64.035,44.413L63.851,44.412L63.758,44.429L63.589,44.501L63.502,44.517L63.458,44.507L63.389,44.459L63.348,44.442L63.301,44.438L63.218,44.450L63.174,44.447L62.826,44.332L62.605,44.179L62.540,44.155L62.453,44.187L62.494,44.268L62.660,44.443L62.699,44.532L62.750,44.811L62.898,44.971L62.930,45.048L62.906,45.169L62.860,45.251L62.852,45.256L62.809,45.284L62.756,45.311L62.697,45.375L62.547,45.502L62.002,45.671L61.886,45.690L61.794,45.643L61.618,45.496L61.538,45.459L61.351,45.405L61.264,45.396L61.078,45.424L60.879,45.504L60.711,45.629L60.622,45.793L60.572,46.122L60.577,46.170L60.603,46.257L60.607,46.302L60.595,46.325L60.573,46.350L60.552,46.384L60.543,46.433L60.558,46.548L60.580,46.638L60.585,46.729L60.550,46.849L60.490,46.953L60.427,47.007L60.251,47.077L60.089,47.196L60.018,47.211L59.931,47.078L59.874,47.026L59.810,46.981L59.674,46.918L59.408,47.125L59.322,47.155L58.919,47.214L58.839,47.250L58.801,47.287L58.724,47.386L58.689,47.410L58.588,47.430L58.497,47.465L58.450,47.507L58.444,47.540L58.426,47.546L58.348,47.510L58.301,47.470L58.267,47.426L58.227,47.398L58.178,47.403L58.163,47.404L58.004,47.489L57.799,47.495L57.587,47.475L57.404,47.478L57.202,47.574L57.088,47.599L57.005,47.540L56.993,47.490L56.999,47.391L56.978,47.344L56.945,47.327L56.791,47.278L56.611,47.113L56.516,47.059L56.401,47.079L56.342,47.059L56.286,46.979L56.218,46.913L56.122,46.935L56.092,47.001L56.032,47.315L56.036,47.403L56.074,47.576L56.072,47.661L56.049,47.722L56.012,47.736L55.968,47.734L55.918,47.750L55.878,47.785L55.812,47.865L55.775,47.898L55.493,48.040L55.417,48.051L55.325,48.065L55.285,48.124L55.280,48.212L55.290,48.307L55.305,48.368L55.322,48.392L55.325,48.419L55.295,48.489L55.256,48.540L55.106,48.674L54.955,48.882L54.958,48.916L54.991,49.009L54.998,49.057L55.027,49.172L55.091,49.262L55.132,49.345L55.096,49.439L55.053,49.457L55.001,49.453L54.959,49.460L54.941,49.511L54.966,49.555L55.087,49.654L55.128,49.699L55.161,49.789L55.173,49.875L55.153,50.251L55.123,50.320L55.058,50.394L54.777,50.612L54.727,50.702L54.698,50.887L54.666,50.961L54.601,51.031L54.506,51.100L54.459,51.147L54.478,51.204L54.580,51.306L54.689,51.389L54.737,51.440L54.757,51.501L54.739,51.626L54.743,51.666L54.799,51.844L54.813,51.930L54.815,52.035L54.838,52.215L54.889,52.406L54.921,52.601L54.885,52.794L54.858,52.849L54.845,52.858L54.823,52.852L54.607,52.913L54.367,52.906L54.278,52.935L53.963,53.147L53.787,53.232L53.575,53.227L53.463,53.247L53.415,53.241L53.366,53.209L53.345,53.176L53.333,53.136L53.240,52.988L53.200,52.961L53.167,52.957L53.070,52.945L53.098,52.999L53.195,53.091L53.247,53.182L53.266,53.252L53.370,53.473L53.486,53.654L53.501,53.761L53.502,53.871L53.529,53.989L53.592,54.096L53.682,54.188L53.780,54.263L53.872,54.317L53.914,54.282L53.934,54.245L54.018,54.015L54.027,54.004L54.078,53.992L54.309,54.086L54.368,54.120L54.396,54.192L54.393,54.280L54.359,54.354L54.291,54.385L54.278,54.431L54.329,54.530L54.562,54.858L54.579,54.889L54.584,54.918L54.584,54.959L54.594,55.015L54.636,55.103L54.646,55.156L54.642,55.184L54.622,55.230L54.618,55.254L54.624,55.295L54.640,55.299L54.660,55.294L54.680,55.306L54.742,55.336L54.751,55.356L54.765,55.414L54.831,55.577L54.850,55.601L54.865,55.627L54.885,55.683L54.896,55.739L54.881,55.765L54.866,55.778L54.742,55.863L54.614,56.092L54.585,56.163L54.646,56.391L54.542,56.405L54.578,56.471L54.635,56.519L54.680,56.576L54.701,56.641L54.727,56.696L54.837,56.790L54.876,56.840L54.884,56.889L54.885,56.944L54.891,57.005L54.920,57.072L54.963,57.131L55.594,57.728L55.711,57.838L55.778,57.883L55.885,57.935L55.933,57.965L55.973,58.012L55.993,58.083L56.094,58.243L56.140,58.381L56.172,58.447L56.232,58.512L56.293,58.544L56.359,58.567L56.413,58.602L56.440,58.670L56.438,58.729L56.421,58.830L56.431,58.892L56.467,58.939L56.855,59.315L56.926,59.356L57.013,59.428L57.173,59.663L57.276,59.736L57.239,59.778L57.218,59.833L57.228,59.874L57.346,59.875L57.350,59.912L57.327,59.955L57.309,59.972L57.370,60.080L57.432,60.141L57.510,60.166L57.733,60.172L57.824,60.199L57.906,60.252L57.989,60.336L58.037,60.409L58.113,60.566L58.163,60.629L58.189,60.692L58.191,60.773L58.208,60.843L58.278,60.877L58.321,60.907L58.351,60.972L58.390,61.109L58.332,61.067L58.281,61.053L58.244,61.076L58.233,61.144L58.253,61.202L58.293,61.227L58.338,61.245L58.371,61.284L58.358,61.337L58.303,61.396L58.229,61.444L58.163,61.463L58.108,61.543L58.073,61.635L58.082,61.720L58.216,61.827L58.239,61.881L58.271,62.012L58.334,62.104L58.492,62.215L58.557,62.303L58.577,62.352L58.585,62.396L58.584,62.440L58.569,62.491L58.569,62.542L58.598,62.592L58.875,62.969L58.912,63.056L58.905,63.106L58.860,63.206L58.865,63.259L58.924,63.398L58.990,63.744L59.018,63.816L59.105,63.879L59.178,63.824L59.313,63.616L59.587,63.394L59.648,63.280L59.686,63.081L59.723,63.005L59.818,62.924L59.835,63.087L59.920,63.172L60.025,63.242L60.103,63.360L60.107,63.447L60.062,63.656L60.041,63.874L60.018,63.950L59.891,64.102L59.834,64.190L59.805,64.284L59.796,64.387L59.799,64.498L59.778,64.541L59.671,64.661L59.631,64.690L59.562,64.700L59.530,64.679L59.504,64.645L59.450,64.620L59.172,64.583L59.093,64.586L58.998,64.634L58.960,64.714L58.932,64.810L58.868,64.904L58.818,64.947L58.784,64.967L58.746,64.972L58.687,64.972L58.641,64.958L58.585,64.933L58.532,64.925L58.491,64.964L58.505,65.028L58.627,65.207L58.658,65.302L58.644,65.388L58.589,65.575L58.592,65.690L58.626,65.892L58.615,65.979L58.473,66.462L58.461,66.575L58.478,66.752L58.486,66.831L58.476,67.105L58.583,67.820L58.591,68.062L58.550,68.287L58.430,68.428L58.415,68.323L58.348,68.248L58.255,68.193L58.163,68.152L58.076,68.199L58.003,68.228L57.840,68.264L57.811,68.285L57.807,68.324L57.826,68.405L57.821,68.448L57.796,68.474L57.756,68.498L57.751,68.503L57.740,68.520L57.729,68.544L57.723,68.569L57.734,68.582L57.762,68.598L57.789,68.620L57.801,68.648L57.801,68.721L57.790,68.753L57.758,68.762L57.690,68.735L57.535,68.638L57.452,68.605L57.349,68.588L57.294,68.600L57.134,68.836L57.067,68.904L56.988,68.942L56.953,68.940L56.814,68.933L56.818,68.989L56.818,68.990L56.848,69.065L56.876,69.132L56.853,69.221L56.759,69.389L56.738,69.482L56.773,69.595L56.912,69.745L56.913,69.746L56.938,69.850L56.923,69.900L56.898,69.941L56.879,69.987L56.878,70.025L56.878,70.049L56.895,70.100L56.985,70.265L57.016,70.370L57.010,70.543L57.018,70.644L57.032,70.669L57.081,70.711L57.095,70.741L57.094,70.765L57.078,70.835L57.114,70.928L57.360,71.331L57.907,71.876L57.967,71.971L58.006,72.075L58.031,72.191L58.064,72.258L58.120,72.281L58.179,72.313L58.495,72.980L58.701,73.249L58.738,73.287L58.797,73.328L58.829,73.341L58.899,73.358L58.932,73.374L58.962,73.404L59.020,73.483L59.051,73.507L59.120,73.509L59.173,73.490L59.217,73.497L59.326,73.720L59.429,73.832L59.967,74.253L60.064,74.297L60.172,74.330L60.252,74.383L60.297,74.461L60.308,74.570L60.332,74.658L60.476,74.838L60.532,74.929L60.578,75.035L60.619,75.091L60.761,75.201L60.782,75.230L60.805,75.301L60.822,75.331L60.846,75.344L60.909,75.362L60.930,75.376L60.954,75.417L60.963,75.448L60.962,75.485L60.951,75.542L60.953,75.625L61.004,75.855L61.039,75.932L61.186,76.079L61.211,76.120L61.237,76.162L61.238,76.287L61.223,76.396L61.235,76.800L61.397,77.543L61.402,77.635L61.378,77.875L61.393,77.967L61.393,78.014L61.374,78.064L61.348,78.104L61.329,78.149L61.332,78.214L61.389,78.393L61.408,78.492L61.395,78.575L61.391,78.578L61.329,78.636L61.149,78.657L61.063,78.691L61.008,78.771L61.009,78.865L61.023,78.971L61.010,79.092L60.971,79.206L60.946,79.313L60.968,79.410L61.068,79.491L61.146,79.541L61.231,79.619L61.293,79.711L61.304,79.805L61.285,79.859L61.261,79.901L61.245,79.946L61.240,80.009L61.250,80.052L61.309,80.198L61.325,80.346L61.340,80.393L61.376,80.445L61.466,80.535L61.501,80.591L61.518,80.690L61.512,80.781L61.516,80.867L61.563,80.950L61.604,80.971L61.708,80.988L61.755,81.020L61.775,81.064L61.785,81.161L61.801,81.199L61.844,81.226L61.950,81.257L61.984,81.293L62.013,81.344L62.057,81.392L62.107,81.433L62.331,81.563L62.374,81.629L62.381,81.673L62.392,81.747L62.391,81.849L62.378,81.955L62.360,82.006L62.312,82.109L62.300,82.158L62.320,82.256L62.423,82.449L62.453,82.554L62.465,82.821L62.480,82.912L62.505,82.971L62.575,83.059L62.606,83.111L62.618,83.163L62.607,83.251L62.611,83.302L62.629,83.352L62.677,83.447L62.694,83.495L62.686,83.561L62.649,83.604L62.605,83.641L62.581,83.687L62.596,83.773L62.660,83.789L62.915,83.702L62.962,83.700L63.002,83.719L63.020,83.761L63.010,83.806L62.991,83.855L62.983,83.910L62.911,84.136L62.896,84.270L62.968,84.339L63.055,84.368L63.116,84.426L63.148,84.508L63.143,84.606L63.073,84.799L63.058,84.898L63.091,85.004L63.147,85.077L63.229,85.151L63.316,85.209L63.393,85.232L63.402,85.279L63.336,85.597L63.297,85.711L63.006,86.120L62.952,86.166L62.764,86.178L62.659,86.199L62.585,86.248L62.543,86.327L62.537,86.440L62.546,86.634L62.529,86.714L62.487,86.809L62.431,86.889L62.300,87.027L62.258,87.104L62.233,87.222L62.225,87.307L62.197,87.386L62.025,87.581L61.977,87.655L61.908,87.848L61.853,87.955L61.707,88.139L61.649,88.246L61.511,88.675L61.480,88.715L61.384,88.748L61.339,88.775L61.306,88.820L61.263,88.920L61.233,88.966L61.185,89.006L61.149,89.034L60.968,89.132L60.894,89.211L60.874,89.254L60.834,89.399L60.795,89.458L60.751,89.456L60.703,89.430L60.651,89.414L60.594,89.405L60.571,89.392L60.552,89.398L60.511,89.445L60.485,89.486L60.467,89.536L60.456,89.588L60.453,89.638L60.463,89.696L60.499,89.794L60.499,89.865L60.483,89.961L60.463,89.999L60.430,90.039L60.408,90.044L60.246,90.118L60.198,90.116L60.159,90.096L60.117,90.086L60.056,90.114L60.018,90.159L59.998,90.211L59.980,90.257L59.948,90.299L59.915,90.310L59.818,90.316L59.775,90.330L59.688,90.411L59.488,90.689L59.443,90.798L59.402,91.004L59.419,91.065L59.506,91.144L59.535,91.195L59.599,91.497L59.595,91.594L59.532,91.777L59.486,92.021L59.400,92.313L59.366,92.328L59.344,92.348L59.327,92.376L59.271,92.495L59.198,92.734L59.167,92.921L59.126,92.995L59.027,93.105L58.932,93.251L58.686,93.793L58.553,93.985L58.474,94.056L58.438,94.008L58.430,93.963L58.389,93.894L58.373,93.856L58.369,93.809L58.376,93.710L58.373,93.663L58.345,93.508L58.341,93.290L58.249,93.135L58.235,93.080L58.231,93.045L58.236,93.014L58.313,92.819L58.334,92.740L58.356,92.519L58.407,92.348L58.407,92.247L58.334,91.966L58.252,91.823L58.248,91.726L58.280,91.523L58.258,91.322L58.112,90.971L58.092,90.766L58.094,90.561L58.113,90.494L58.172,90.468L58.270,90.483L58.328,90.525L58.407,90.668L58.454,90.614L58.452,90.545L58.419,90.481L58.373,90.438L58.426,90.410L58.476,90.419L58.524,90.453L58.565,90.504L58.596,90.428L58.629,90.297L58.655,90.242L58.731,90.129L58.744,90.061L58.717,89.977L58.763,89.980L58.804,89.970L58.841,89.947L58.872,89.911L58.823,89.893L58.711,89.882L58.670,89.862L58.649,89.832L58.636,89.794L58.648,89.761L58.794,89.721L58.845,89.665L58.886,89.609L58.949,89.583L58.971,89.592L59.021,89.635L59.063,89.649L59.072,89.634L59.136,89.610L59.202,89.597L59.215,89.613L59.241,89.558L59.261,89.472L59.265,89.384L59.243,89.318L59.277,89.288L59.248,89.243L59.169,89.182L59.153,89.154L59.164,89.098L59.189,89.075L59.223,89.062L59.260,89.039L59.287,88.979L59.268,88.912L59.233,88.830L59.215,88.725L59.134,88.751L59.078,88.712L58.996,88.561L59.197,88.505L59.294,88.445L59.335,88.350L59.335,88.201L59.392,88.062L59.416,87.961L59.444,87.930L59.454,87.904L59.396,87.822L59.306,87.594L59.285,87.514L59.282,87.432L59.308,87.346L59.197,87.375L59.176,87.332L59.215,87.164L59.255,87.067L59.347,87.034L59.525,87.018L59.483,86.951L59.473,86.764L59.432,86.687L59.390,86.675L59.316,86.710L59.277,86.687L59.266,86.641L59.302,86.562L59.277,86.520L59.337,86.442L59.350,86.368L59.335,86.195L59.347,86.113L59.373,86.002L59.422,85.922L59.494,85.930L59.549,85.899L59.584,85.914L59.617,85.946L59.665,85.963L59.716,85.943L59.723,85.896L59.721,85.841L59.741,85.796L59.799,85.786L59.885,85.800L59.969,85.830L60.023,85.865L60.054,85.865L59.986,85.726L59.661,85.659L59.561,85.570L59.595,85.452L59.693,85.342L59.755,85.230L59.679,85.108L59.711,85.192L59.685,85.249L59.641,85.288L59.599,85.342L59.494,85.537L59.464,85.542L59.385,85.534L59.370,85.553L59.357,85.563L59.302,85.622L59.292,85.635L59.240,85.659L59.226,85.717L59.223,85.787L59.199,85.847L59.152,85.898L59.114,85.917L59.068,85.905L58.948,85.832L58.808,85.721L58.779,85.684L58.771,85.636L58.747,85.577L58.748,85.537L58.759,85.502L58.813,85.406L58.837,85.387L58.863,85.393L58.877,85.388L58.872,85.337L58.748,85.337L58.819,85.230L58.841,85.209L58.874,85.200L58.917,85.199L58.952,85.203L58.965,85.209L59.005,85.137L59.040,85.049L59.099,84.983L59.215,84.977L59.158,84.908L59.063,84.912L58.872,84.977L58.500,84.977L58.542,84.878L58.632,84.842L58.856,84.846L58.936,84.825L59.022,84.777L59.091,84.717L59.144,84.613L59.198,84.591L59.252,84.581L59.277,84.566L59.282,84.405L59.277,84.354L59.245,84.273L59.209,84.217L59.199,84.163L59.243,84.089L59.027,84.105L58.997,84.072L58.936,84.019L58.885,83.961L58.887,83.909L58.917,83.848L58.896,83.806L58.866,83.761L58.872,83.692L58.903,83.669L58.962,83.650L59.063,83.630L59.063,83.594L58.996,83.594L59.038,83.541L59.166,83.467L59.229,83.414L59.247,83.358L59.231,83.300L59.200,83.253L59.168,83.234L59.017,83.257L58.917,83.316L58.829,83.391L58.717,83.463L58.680,83.445L58.599,83.417L58.565,83.397L58.492,83.321L58.455,83.234L58.461,83.141L58.514,83.052L58.588,82.998L58.676,82.968L59.080,82.881L59.175,82.820L59.215,82.724L59.185,82.647L59.114,82.602L58.965,82.542L58.853,82.428L58.826,82.408L58.765,82.386L58.755,82.335L58.779,82.230L58.783,82.123L58.805,82.062L58.861,82.032L58.965,82.015L59.136,82.015L59.192,82.000L59.225,81.967L59.229,81.934L59.199,81.919L59.162,81.912L59.101,81.871L59.063,81.851L59.013,81.844L58.962,81.845L58.913,81.841L58.872,81.815L58.836,81.715L58.873,81.613L58.933,81.511L58.965,81.407L58.979,81.390L59.012,81.392L59.047,81.396L59.063,81.392L59.059,81.361L59.027,81.291L59.038,81.155L59.063,81.094L59.096,81.048L59.125,81.020L59.145,80.984L59.153,80.912L59.137,80.899L59.011,80.930L58.951,80.922L58.921,80.899L58.917,80.867L58.934,80.832L58.969,80.816L59.018,80.817L59.063,80.809L59.089,80.764L59.050,80.741L58.857,80.764L58.813,80.716L58.811,80.662L58.818,80.673L58.841,80.668L58.888,80.644L58.921,80.638L58.945,80.622L58.965,80.567L58.887,80.176L58.844,80.149L58.737,80.021L58.686,79.980L58.732,79.874L58.762,79.831L58.795,79.813L58.779,79.787L58.717,79.613L58.669,79.514L58.658,79.466L58.643,79.280L58.650,79.224L58.686,79.187L58.656,79.047L58.634,78.697L58.577,78.627L58.519,78.595L58.280,78.397L58.256,78.223L58.232,78.164L58.187,78.231L58.166,78.187L58.155,78.139L58.153,78.088L58.156,78.034L58.099,77.886L58.097,77.821L58.156,77.772L58.150,77.739L58.148,77.701L58.156,77.611L58.116,77.636L58.092,77.674L58.064,77.772L58.069,77.691L58.056,77.619L58.030,77.557L58.002,77.506L57.981,77.489L57.953,77.473L57.926,77.450L57.909,77.411L57.913,77.375L57.957,77.332L57.968,77.295L57.945,77.241L57.840,77.086L57.798,76.988L57.752,76.944L57.691,76.908L57.631,76.887L57.648,76.828L57.628,76.786L57.535,76.720L57.536,76.618L57.366,76.372L57.318,76.258L57.352,76.291L57.380,76.228L57.266,76.199L57.178,76.203L57.121,76.166L57.101,76.012L57.153,75.837L57.163,75.764L57.153,75.697L57.137,75.635L57.135,75.573L57.163,75.504L57.136,75.452L57.070,75.190L57.070,74.977L57.059,74.925L57.044,74.883L57.041,74.846L57.070,74.810L57.070,74.780L57.019,74.730L56.957,74.651L56.904,74.562L56.882,74.483L56.853,74.483L56.848,74.541L56.827,74.641L56.822,74.698L56.837,74.724L56.901,74.803L56.915,74.828L56.910,74.961L56.888,75.024L56.838,75.092L56.828,75.153L56.896,75.336L56.915,75.421L56.905,75.512L56.863,75.680L56.825,76.078L56.888,76.299L56.900,76.385L56.888,76.466L56.853,76.556L56.838,76.583L56.822,76.605L56.806,76.634L56.789,76.684L56.777,76.742L56.775,76.789L56.789,76.887L56.843,76.945L56.858,76.983L56.822,77.015L56.787,77.012L56.754,76.984L56.696,76.917L56.690,76.953L56.672,76.987L56.665,77.015L56.655,76.962L56.658,76.897L56.652,76.842L56.620,76.818L56.599,76.798L56.622,76.753L56.663,76.707L56.696,76.684L56.677,76.660L56.652,76.612L56.634,76.586L56.700,76.568L56.729,76.510L56.728,76.434L56.696,76.359L56.771,76.362L56.776,76.325L56.738,76.280L56.680,76.258L56.572,76.264L56.539,76.257L56.479,76.228L56.495,76.200L56.525,76.124L56.541,76.094L56.428,76.043L56.386,75.897L56.414,75.777L56.510,75.799L56.483,75.587L56.479,75.387L56.506,75.309L56.514,75.263L56.495,75.242L56.470,75.235L56.433,75.215L56.398,75.187L56.384,75.156L56.370,75.042L56.308,74.844L56.291,74.745L56.311,74.636L56.412,74.488L56.448,74.417L56.453,74.350L56.499,74.265L56.510,74.202L56.503,74.156L56.448,73.988L56.510,73.988L56.494,73.923L56.469,73.872L56.443,73.863L56.417,73.922L56.200,73.627L56.078,73.355L55.981,73.206L55.947,73.100L55.926,72.986L55.919,72.885L55.932,72.780L55.993,72.634L56.012,72.543L55.972,72.585L55.939,72.634L55.904,72.663L55.857,72.641L55.839,72.596L55.792,72.379L55.654,72.116L55.619,71.976L55.671,71.851L55.558,71.767L55.492,71.644L55.492,71.509L55.576,71.390L55.753,71.336L55.868,71.449L55.977,71.607L56.136,71.685L55.977,71.466L55.930,71.359L56.012,71.327L55.945,71.297L55.880,71.260L55.850,71.207L55.888,71.127L55.855,71.099L55.824,71.056L55.802,71.011L55.792,70.980L55.784,70.958L55.763,70.975L55.730,71.026L55.739,71.037L55.754,71.065L55.766,71.098L55.764,71.127L55.699,71.182L55.635,71.151L55.588,71.068L55.576,70.963L55.545,70.963L55.533,71.050L55.567,71.252L55.529,71.291L55.505,71.303L55.481,71.329L55.446,71.352L55.390,71.357L55.359,71.344L55.332,71.319L55.312,71.289L55.297,71.258L55.173,70.709L55.081,70.568L55.080,70.567L55.105,70.519L55.115,70.468L55.114,70.354L55.124,70.300L55.166,70.232L55.176,70.190L55.162,70.072L55.124,69.999L55.064,69.951L54.987,69.909L55.012,69.869L55.047,69.845L55.090,69.837L55.142,69.843L55.124,69.809L55.100,69.745L55.080,69.712L55.135,69.631L55.150,69.536L55.136,69.153L55.153,69.075L55.207,68.988L55.081,68.990L55.015,68.977L54.965,68.920L54.846,68.711L54.836,68.669L54.833,68.592L54.841,68.466L54.824,68.413L54.770,68.362L54.784,68.317L54.805,68.287L54.836,68.269L54.880,68.264L54.926,68.100L54.954,68.123L54.991,68.105L55.080,68.034L55.044,67.979L54.929,67.638L54.931,67.573L54.987,67.441L54.956,67.381L54.845,67.091L54.849,67.063L54.865,67.027L54.865,66.986L54.853,66.947L54.833,66.914L54.852,66.869L54.849,66.801L54.825,66.728L54.788,66.670L54.767,66.626L54.775,66.584L54.794,66.544L54.804,66.506L54.790,66.469L54.727,66.395L54.709,66.357L54.715,66.328L54.757,66.287L54.770,66.258L54.773,65.945L54.747,65.882L54.678,65.862L54.706,65.731L54.612,65.613L54.366,65.436L54.241,65.269L54.117,65.148L54.087,65.108L54.088,65.085L54.056,64.892L54.058,64.843L54.069,64.808L54.093,64.785L54.133,64.777L54.201,64.748L54.252,64.676L54.286,64.590L54.374,64.048L54.416,63.947L54.428,63.889L54.423,63.829L54.409,63.784L54.366,63.693L54.317,63.504L54.302,63.298L54.318,63.091L54.366,62.900L54.432,62.757L54.532,62.631L54.665,62.542L54.832,62.507L54.833,62.507L54.812,62.471L54.784,62.444L54.750,62.423L54.709,62.409L54.667,62.438L54.437,62.600L54.335,62.638L54.256,62.645L53.963,62.608L53.848,62.617L53.743,62.638L53.716,62.652L53.696,62.674L53.672,62.695L53.636,62.704L53.611,62.699L53.557,62.679L53.527,62.674L53.395,62.679L53.302,62.710L53.229,62.773L53.155,62.871L53.006,62.160L53.006,62.045L52.972,61.928L52.887,62.060L52.773,62.029L52.635,61.842L52.566,61.678L52.520,61.500L52.520,61.368L52.586,61.268L52.545,61.210L52.533,61.160L52.535,61.116L52.567,60.993L52.533,60.993L52.493,61.096L52.478,61.156L52.472,61.226L52.424,61.192L52.405,61.134L52.404,61.064L52.410,60.993L52.472,60.865L52.435,60.834L52.394,60.839L52.345,60.865L52.307,60.768L52.323,60.646L52.379,60.403L52.375,60.327L52.361,60.286L52.286,60.207L52.257,60.168L52.223,60.107L52.195,60.037L52.189,59.974L52.268,59.851L52.394,59.882L52.536,59.934L52.660,59.876L52.485,59.789L52.395,59.760L52.301,59.748L52.193,59.771L52.147,59.830L52.120,59.914L52.069,60.010L51.995,59.910L51.931,59.749L51.912,59.596L51.973,59.515L51.973,59.483L51.879,59.462L51.847,59.384L51.833,59.281L51.788,59.185L51.697,59.139L51.583,59.107L51.509,59.056L51.537,58.955L51.044,58.590L51.003,58.545L50.977,58.496L50.964,58.414L50.970,58.258L50.946,58.195L50.894,58.271L50.857,58.455L50.822,58.526L50.806,58.500L50.771,58.458L50.760,58.428L50.731,58.441L50.705,58.459L50.682,58.479L50.667,58.496L50.698,58.526L50.802,58.665L50.953,58.765L51.071,58.869L51.072,59.024L50.980,59.139L50.866,59.238L50.793,59.369L50.822,59.581L51.001,59.904L51.069,60.070L51.072,60.272L51.045,60.341L50.963,60.490L50.928,60.705L50.879,60.735L50.729,60.698L50.742,60.744L50.762,60.787L50.789,60.827L50.822,60.865L50.763,60.859L50.664,60.835L50.605,60.830L50.605,60.865L50.667,60.898L50.725,60.942L50.769,60.997L50.791,61.062L50.781,61.136L50.714,61.246L50.686,61.354L50.621,61.521L50.553,61.532L50.521,61.562L50.528,61.604L50.574,61.652L50.493,61.772L50.416,61.845L50.233,61.980L50.190,62.031L50.109,62.168L50.023,62.432L49.844,62.574L49.735,62.705L49.477,62.806L49.198,62.867L48.920,62.898L48.756,62.772L48.652,62.753L48.561,62.703L48.256,62.471L48.180,62.397L48.148,62.327L48.143,62.207L48.128,62.116L48.101,62.036L48.010,61.842L47.981,61.742L47.969,61.642L47.966,61.537L48.005,61.462L48.188,61.339L48.244,61.288L48.110,61.275L47.878,61.459L47.718,61.488L47.744,61.533L47.822,61.624L47.839,61.668L47.870,61.848L47.916,61.929L48.034,62.071L48.058,62.161L48.047,62.218L48.001,62.322L47.994,62.373L48.006,62.425L48.059,62.528L48.277,62.832L48.348,62.962L48.426,63.015L48.467,63.082L48.399,63.198L48.324,63.241L48.236,63.435L47.948,63.537L47.687,63.595L47.595,63.632L47.481,63.647L47.385,63.615L47.343,63.513L47.293,63.460L46.972,63.332L47.244,63.581L47.248,63.702L47.027,63.959L46.851,64.121L46.769,64.152L46.681,64.140L46.678,64.104L46.709,64.043L46.722,63.955L46.642,64.025L46.589,64.110L46.524,64.175L46.412,64.188L46.426,64.147L46.443,64.021L46.117,64.347L46.025,64.496L45.929,64.516L45.833,64.495L45.789,64.432L45.785,64.354L45.768,64.257L45.739,64.170L45.694,64.122L45.728,64.581L45.696,64.681L45.568,64.875L45.539,64.959L45.539,65.189L45.524,65.248L45.422,65.436L44.781,66.134L44.500,66.341L44.366,66.471L44.293,66.522L44.205,66.553L44.104,66.560L43.816,66.521L43.742,66.498L43.713,66.439L43.689,65.968L43.724,65.928L43.778,65.900L43.825,65.833L43.848,65.748L43.831,65.669L43.942,65.566L44.016,65.425L44.059,65.266L44.081,65.108L44.078,65.006L44.056,64.930L43.988,64.777L43.974,64.688L43.993,64.631L44.024,64.572L44.047,64.480L44.019,64.480L43.985,64.525L43.941,64.568L43.905,64.616L43.892,64.676L43.912,64.755L43.974,64.900L43.988,64.992L43.975,65.209L43.957,65.269L43.821,65.446L43.755,65.658L43.653,65.785L43.548,65.824L43.490,65.701L43.523,65.599L43.599,65.476L43.658,65.333L43.645,65.174L43.491,65.430L43.423,65.583L43.394,65.747L43.425,66.103L43.372,66.216L43.194,66.258L43.063,66.204L42.978,66.067L42.934,65.887L42.930,65.701L43.031,65.160L42.992,65.007L42.896,65.269L42.850,65.071L42.907,64.868L43.033,64.710L43.194,64.647L43.347,64.656L43.394,64.647L43.432,64.616L43.416,64.596L43.370,64.584L43.317,64.581L43.286,64.571L43.264,64.525L43.240,64.515L43.217,64.520L43.147,64.545L43.113,64.548L43.082,64.558L43.053,64.545L43.023,64.480L42.992,64.480L42.959,64.560L42.834,64.742L42.727,64.833L42.715,64.960L42.742,65.204L42.738,65.333L42.657,65.930L42.620,66.046L42.561,66.124L42.515,66.141L42.452,66.155L42.396,66.174L42.373,66.208L42.364,66.242L42.345,66.280L42.320,66.311L42.297,66.324L42.180,66.331L42.125,66.324L41.970,66.258L41.766,66.235L41.713,66.197L41.766,66.110L41.815,66.078L41.866,66.054L41.910,66.022L41.939,65.964L41.937,65.924L41.921,65.880L41.898,65.844L41.875,65.830L41.790,65.940L41.742,65.959L41.720,65.846L41.728,65.694L41.720,65.633L41.663,65.496L41.658,65.436L41.680,65.374L41.729,65.297L41.785,65.231L41.829,65.204L41.906,65.194L41.987,65.163L42.048,65.102L42.063,65.007L41.906,65.108L41.884,65.019L41.864,64.808L41.789,64.652L41.787,64.579L41.811,64.510L41.895,64.372L41.954,64.310L42.032,64.268L42.139,64.253L42.222,64.228L42.294,64.163L42.348,64.077L42.373,63.988L42.353,64.019L42.293,64.080L42.280,64.104L42.258,64.134L42.148,64.153L42.066,64.189L41.965,64.186L41.922,64.204L41.811,64.357L41.798,64.381L41.748,64.423L41.725,64.521L41.720,64.729L41.730,64.780L41.772,64.878L41.782,64.925L41.791,64.954L41.807,64.974L41.815,64.995L41.756,65.103L41.751,65.125L41.710,65.192L41.441,65.374L41.383,65.464L41.253,65.764L41.207,65.824L41.143,65.880L41.065,65.919L40.974,65.928L40.860,65.890L40.815,65.823L40.795,65.734L40.755,65.633L40.742,65.721L40.695,65.712L40.640,65.648L40.600,65.570L40.724,65.484L40.891,65.394L41.061,65.277L41.193,65.108L41.236,64.869L41.269,64.829L41.310,64.791L41.346,64.745L41.363,64.701L41.373,64.659L41.377,64.563L41.394,64.544L41.433,64.522L41.467,64.482L41.472,64.414L41.388,64.464L41.346,64.522L41.284,64.676L41.162,64.885L41.129,64.977L41.071,65.093L40.998,65.157L40.917,65.208L40.660,65.462L40.548,65.520L40.442,65.502L40.423,65.375L40.542,65.210L40.786,64.977L40.881,64.808L40.951,64.610L40.987,64.398L40.974,64.188L40.905,64.036L40.889,63.955L40.927,63.873L40.980,63.790L41.069,63.496L41.096,63.462L41.140,63.453L41.193,63.460L41.193,63.428L41.145,63.375L41.073,62.921L41.075,62.866L41.096,62.805L41.125,62.778L41.162,62.767L41.190,62.743L41.193,62.674L41.035,62.751L40.974,62.740L40.943,62.638L40.912,62.745L40.974,63.166L40.974,63.444L40.949,63.519L40.843,63.643L40.819,63.709L40.792,63.831L40.720,63.943L40.624,64.025L40.521,64.056L40.512,64.023L40.560,63.947L40.662,63.821L40.755,63.625L40.728,63.540L40.676,63.550L40.624,63.627L40.588,63.782L40.560,63.831L40.519,63.872L40.476,63.889L40.421,63.878L40.385,63.849L40.356,63.816L40.321,63.792L40.236,63.773L40.211,63.813L40.225,64.004L40.219,64.117L40.200,64.207L40.172,64.282L39.939,64.685L39.814,64.836L39.671,64.909L39.577,64.923L39.508,64.955L39.466,65.027L39.451,65.158L39.415,65.210L39.330,65.240L39.237,65.241L39.173,65.204L39.077,65.311L39.013,65.343L38.959,65.306L38.846,65.121L38.824,65.053L38.822,64.978L38.848,64.435L38.951,63.881L38.940,63.519L38.953,63.460L38.969,63.435L39.025,63.370L39.046,63.332L39.111,62.952L39.090,62.660L39.111,62.608L39.272,62.658L39.374,62.654L39.421,62.559L39.455,62.417L39.443,62.348L39.359,62.310L39.359,62.281L39.469,62.222L39.514,62.141L39.516,61.899L39.525,61.826L39.566,61.691L39.576,61.636L39.594,61.566L39.680,61.468L39.699,61.408L39.690,61.204L39.671,61.128L39.612,61.006L39.591,60.934L39.607,60.865L39.644,60.839L39.690,60.850L39.740,60.868L39.792,60.865L39.847,60.823L39.980,60.633L39.888,60.633L39.931,60.558L39.949,60.473L39.944,60.148L39.949,60.105L39.967,60.057L40.042,59.944L40.068,59.884L40.089,59.795L40.075,59.714L39.949,59.653L39.925,59.593L39.933,59.527L39.980,59.483L40.190,59.580L40.225,59.563L40.242,59.538L40.278,59.518L40.312,59.492L40.321,59.447L40.299,59.406L40.261,59.386L40.221,59.371L40.194,59.349L40.179,59.287L40.194,59.070L40.226,59.008L40.291,58.997L40.346,58.970L40.349,58.857L40.409,58.873L40.469,58.898L40.523,58.935L40.569,58.988L40.488,58.671L40.447,58.169L40.442,58.103L40.458,58.020L40.459,57.966L40.442,57.900L40.409,57.833L40.391,57.807L40.384,57.782L40.383,57.720L40.414,57.597L40.489,57.625L40.580,57.714L40.662,57.772L40.635,57.705L40.551,57.543L40.553,57.491L40.572,57.437L40.546,57.384L40.476,57.310L40.426,57.215L40.398,57.115L40.383,56.900L40.339,56.800L40.148,56.615L40.105,56.470L40.093,56.185L40.065,56.060L39.902,55.719L39.888,55.648L39.917,55.579L40.057,55.518L40.105,55.466L40.117,55.356L40.097,55.243L40.054,55.138L39.967,55.006L39.962,54.953L39.962,54.899L39.949,54.843L39.924,54.798L39.873,54.744L39.853,54.715L39.823,54.524L39.790,54.427L39.716,54.384L39.508,54.409L39.422,54.403L39.359,54.349L39.350,54.305L39.352,54.239L39.360,54.174L39.374,54.136L39.411,54.122L39.461,54.185L39.532,54.157L39.590,54.212L39.638,54.218L39.673,54.192L39.728,54.108L39.764,54.084L39.711,54.005L39.685,53.919L39.640,53.850L39.530,53.821L39.463,53.789L39.433,53.712L39.411,53.621L39.374,53.546L39.141,53.285L39.047,53.147L38.984,53.002L39.047,53.019L39.062,52.974L39.020,52.576L39.001,52.524L38.548,52.081L38.548,52.045L38.582,52.045L38.664,52.110L38.832,52.108L39.139,52.045L39.068,52.012L39.018,51.980L38.907,52.060L38.836,52.029L38.702,51.819L38.567,51.649L38.541,51.559L38.548,51.423L38.499,51.462L38.478,51.527L38.477,51.597L38.485,51.652L38.415,51.670L38.319,51.646L38.229,51.591L38.176,51.518L38.132,51.540L38.114,51.554L38.046,51.466L38.018,51.325L38.039,51.184L38.114,51.095L38.056,50.929L38.050,50.862L38.060,50.802L38.104,50.720L38.114,50.684L38.161,50.597L38.172,50.584L38.165,50.553L38.153,50.516L38.145,50.484L38.267,50.404L38.300,50.371L38.236,50.371L38.130,50.401L38.084,50.401L38.011,50.368L38.005,50.332L38.029,50.282L38.050,50.204L38.044,50.155L38.018,50.051L38.021,49.978L38.042,49.917L38.102,49.790L38.114,49.727L38.081,49.328L38.099,49.251L38.144,49.206L38.189,49.106L38.208,48.995L38.176,48.923L38.131,49.046L38.012,49.274L37.987,49.414L38.023,49.662L38.024,49.808L37.974,49.873L37.920,49.926L37.847,50.026L37.753,50.088L37.633,50.024L37.613,49.974L37.606,49.854L37.588,49.808L37.535,49.781L37.492,49.811L37.467,49.873L37.464,49.942L37.487,49.976L37.633,50.122L37.671,50.181L37.671,50.222L37.657,50.263L37.647,50.319L37.657,50.636L37.681,50.732L37.712,50.785L37.788,50.883L37.802,50.945L37.798,50.998L37.776,51.071L37.771,51.110L37.754,51.161L37.647,51.292L37.637,51.298L37.598,51.316L37.588,51.321L37.588,51.348L37.597,51.384L37.609,51.415L37.619,51.423L37.557,51.469L37.511,51.427L37.453,51.358L37.264,51.292L37.028,51.059L36.938,51.011L36.740,50.932L36.669,50.880L36.634,50.830L36.609,50.784L36.580,50.741L36.530,50.702L36.483,50.691L36.449,50.703L36.417,50.696L36.375,50.633L36.366,50.579L36.381,50.469L36.359,50.419L36.333,50.378L36.309,50.324L36.290,50.268L36.282,50.221L36.251,50.146L36.093,50.011L36.032,49.942L35.910,49.681L35.861,49.647L35.596,49.283L35.547,49.188L35.530,49.107L35.534,48.905L35.564,48.833L35.641,48.761L35.742,48.716L35.846,48.723L35.879,48.756L35.895,48.799L35.914,48.838L35.955,48.854L36.110,48.854L36.200,49.003L36.227,49.114L36.156,49.185L36.355,49.323L36.456,49.366L36.592,49.382L36.616,49.501L36.760,49.604L36.952,49.661L37.121,49.647L37.263,49.570L37.555,49.351L37.647,49.251L37.650,49.229L37.642,49.169L37.647,49.149L37.660,49.141L37.698,49.128L37.709,49.119L37.787,49.003L37.815,48.934L37.819,48.846L37.802,48.690L37.829,48.632L37.832,48.595L37.802,48.562L37.775,48.564L37.633,48.592L37.527,48.570L37.485,48.520L37.506,48.465L37.588,48.428L37.541,48.404L37.492,48.395L37.385,48.395L37.338,48.381L37.216,48.261L37.033,48.135L36.941,48.048L36.901,47.952L36.862,47.895L36.692,47.826L36.654,47.754L36.687,47.663L36.767,47.617L36.869,47.610L36.966,47.639L36.941,47.557L36.977,47.483L37.039,47.414L37.090,47.341L37.026,47.240L36.997,47.210L36.962,47.345L36.893,47.472L36.789,47.550L36.654,47.537L36.607,47.500L36.572,47.441L36.555,47.365L36.564,47.278L36.598,47.220L36.702,47.170L36.747,47.114L36.612,47.099L36.552,47.171L36.524,47.265L36.483,47.311L36.279,47.309L36.223,47.262L36.220,47.144L36.165,47.268L36.130,47.315L36.065,47.341L36.065,47.029L36.088,46.968L36.334,46.610L36.421,46.549L36.530,46.541L36.685,46.554L36.643,46.499L36.629,46.443L36.651,46.401L36.718,46.390L36.694,46.349L36.665,46.315L36.631,46.294L36.592,46.289L36.565,46.307L36.565,46.375L36.547,46.390L36.315,46.392L36.265,46.405L36.232,46.420L36.191,46.424L36.110,46.420L36.097,46.438L36.063,46.524L36.032,46.554L35.972,46.559L35.908,46.537L35.854,46.499L35.817,46.456L35.840,46.442L35.876,46.408L35.904,46.390L35.737,46.325L35.689,46.280L35.750,46.223L35.683,46.188L35.660,46.131L35.682,46.080L35.750,46.062L35.740,46.027L35.722,45.994L35.668,46.023L35.621,46.055L35.587,46.098L35.570,46.158L35.548,46.133L35.494,46.088L35.472,46.062L35.439,46.173L35.411,46.209L35.363,46.223L35.312,46.204L35.257,46.156L35.214,46.097L35.196,46.044L35.172,45.928L35.079,45.680L35.072,45.565L35.038,45.565L35.037,45.747L35.025,45.842L34.979,45.863L34.952,45.805L34.883,45.499L34.852,45.499L34.819,45.599L34.756,45.676L34.671,45.729L34.574,45.761L34.448,45.750L34.314,45.705L34.201,45.680L34.138,45.732L34.070,45.699L34.007,45.653L33.955,45.598L33.921,45.535L33.927,45.629L33.958,45.705L34.045,45.863L34.138,46.194L34.408,46.723L34.419,46.849L34.325,46.772L34.252,46.648L34.138,46.390L34.067,46.152L34.010,46.017L33.935,45.958L33.833,46.019L33.801,46.162L33.820,46.322L33.902,46.499L33.927,46.650L33.948,46.718L34.006,46.791L34.024,46.805L34.045,46.816L34.059,46.836L34.104,46.905L34.104,46.915L34.015,46.811L33.970,46.798L33.948,46.786L33.905,46.726L33.849,46.593L33.608,46.224L33.577,46.141L33.559,46.014L33.513,45.928L33.391,45.797L33.300,45.665L33.251,45.615L33.229,45.568L33.221,45.427L33.203,45.368L33.285,45.390L33.531,45.368L33.585,45.343L33.632,45.283L33.701,45.171L33.713,45.197L33.724,45.216L33.731,45.237L33.732,45.270L33.766,45.270L33.862,45.017L33.887,44.972L33.887,44.942L33.743,44.980L33.553,45.183L33.422,45.270L33.295,45.246L33.281,45.093L33.344,44.841L33.424,44.758L33.525,44.396L33.593,44.313L33.705,44.268L33.752,44.160L33.794,43.920L33.710,43.988L33.667,44.182L33.608,44.251L33.534,44.238L33.493,44.145L33.479,44.023L33.484,43.920L33.658,43.608L33.727,43.431L33.670,43.327L33.650,43.418L33.612,43.525L33.561,43.629L33.500,43.708L33.441,43.817L33.429,43.954L33.451,44.221L33.412,44.430L33.315,44.614L33.048,44.972L32.878,45.338L32.862,45.350L32.837,45.375L32.797,45.398L32.738,45.404L32.705,45.390L32.682,45.363L32.643,45.302L32.354,45.078L32.305,45.022L32.312,44.949L32.332,44.878L32.371,44.809L32.429,44.745L32.722,44.546L32.890,44.511L33.079,44.447L33.039,44.425L33.000,44.416L32.909,44.415L32.855,44.408L32.838,44.388L32.829,44.356L32.797,44.313L32.688,44.225L32.644,44.178L32.615,44.117L32.574,43.690L32.553,43.613L32.501,43.567L32.398,43.559L32.416,43.667L32.365,43.767L32.292,43.805L32.243,43.723L32.311,43.698L32.336,43.694L32.209,43.596L32.167,43.449L32.144,43.286L32.072,43.147L31.976,43.015L31.809,42.729L31.683,42.639L31.794,42.856L31.998,43.162L32.015,43.212L32.055,43.589L32.148,43.854L32.152,43.933L32.119,44.152L32.156,44.647L32.119,44.745L32.086,44.687L32.007,44.583L31.965,44.510L31.766,43.982L31.672,43.846L31.252,43.457L31.203,43.381L31.162,43.159L31.103,43.065L30.937,42.901L30.904,42.851L30.888,42.809L30.861,42.780L30.795,42.770L30.749,42.754L30.656,42.687L30.609,42.672L30.532,42.628L30.485,42.527L30.439,42.308L30.189,41.584L30.110,41.460L30.078,41.384L30.030,40.954L30.006,40.896L29.821,40.742L29.794,40.667L29.764,40.596L29.658,40.497L29.623,40.431L29.597,40.346L29.613,40.271L29.638,40.129L29.644,40.035L29.611,39.844L29.612,39.750L29.637,39.666L29.763,39.485L29.824,39.281L29.875,39.187L29.951,39.175L30.094,39.177L30.267,38.972L30.412,39.020L30.472,39.099L30.491,39.177L30.501,39.258L30.532,39.342L30.571,39.381L30.619,39.408L30.722,39.443L30.914,39.462L31.065,39.429L31.182,39.455L31.270,39.648L31.305,39.842L31.337,39.942L31.391,40.002L31.483,39.994L31.589,39.926L31.678,39.834L31.719,39.756L31.711,39.708L31.702,39.659L31.539,39.172L31.491,38.932L31.480,38.810L31.414,37.665L31.493,36.931L31.480,36.786L31.415,36.496ZM56.271,94.971L56.181,95.000L56.094,94.980L56.047,94.920L56.081,94.829L56.148,94.795L56.220,94.821L56.269,94.887L56.271,94.971ZM57.048,91.499L57.017,91.604L56.951,91.674L56.885,91.679L56.851,91.589L56.871,91.520L56.927,91.478L56.999,91.458L57.070,91.454L57.065,91.466L57.053,91.487L57.048,91.499ZM57.959,89.302L57.974,89.225L58.018,89.180L58.058,89.185L58.065,89.261L58.042,89.318L58.007,89.360L57.974,89.363L57.959,89.302ZM53.583,85.439L53.559,85.421L53.491,85.353L53.575,85.355L53.639,85.411L53.651,85.460L53.583,85.439ZM55.271,80.686L55.264,80.588L55.294,80.526L55.343,80.522L55.397,80.601L55.412,80.675L55.392,80.713L55.342,80.716L55.271,80.686ZM57.352,93.761L57.281,93.750L57.253,93.765L57.252,93.793L57.259,93.823L57.285,93.859L57.323,93.879L57.345,93.904L57.318,93.957L57.232,93.983L57.181,94.063L57.150,94.147L57.117,94.187L57.044,94.216L56.888,94.324L56.822,94.318L56.807,94.372L56.786,94.417L56.775,94.453L56.789,94.485L56.672,94.683L56.616,94.736L56.606,94.646L56.558,94.661L56.542,94.562L56.547,94.435L56.557,94.367L56.574,94.325L56.589,94.187L56.649,94.172L56.683,94.138L56.700,94.104L56.711,94.088L56.737,94.072L56.756,94.033L56.772,93.989L56.789,93.957L56.822,93.928L56.944,93.856L57.075,93.735L57.165,93.694L57.259,93.728L57.279,93.714L57.292,93.710L57.352,93.728L57.352,93.761ZM56.853,93.414L56.843,93.386L56.799,93.323L56.789,93.284L56.806,93.230L56.836,93.186L56.851,93.146L56.822,93.105L56.822,93.069L56.900,93.068L57.018,93.141L57.101,93.168L57.103,93.190L57.097,93.196L57.085,93.196L57.070,93.201L57.057,93.229L57.044,93.250L57.043,93.271L57.070,93.302L57.001,93.342L56.953,93.378L56.924,93.429L56.897,93.657L56.853,93.793L56.853,93.414ZM55.609,91.621L55.569,91.694L55.597,91.722L55.646,91.724L55.671,91.720L55.697,91.748L55.718,91.781L55.755,91.865L55.732,91.894L55.709,91.913L55.679,91.921L55.638,91.916L55.680,91.993L55.702,92.017L55.604,92.066L55.529,92.046L55.509,91.979L55.576,91.887L55.547,91.825L55.528,91.735L55.540,91.655L55.609,91.621ZM58.249,89.718L58.363,89.775L58.470,89.867L58.520,89.997L58.466,90.173L58.401,90.218L58.321,90.219L58.271,90.186L58.297,90.126L58.337,90.109L58.372,90.110L58.398,90.103L58.407,90.059L58.394,90.026L58.361,90.013L58.320,90.019L58.280,90.042L58.280,89.977L58.255,89.909L58.239,89.835L58.237,89.767L58.249,89.718ZM55.514,89.747L55.541,89.611L55.612,89.558L55.702,89.559L55.792,89.583L55.745,89.715L55.683,89.809L55.599,89.880L55.483,89.941L55.515,89.892L55.533,89.846L55.533,89.800L55.514,89.747ZM57.225,89.977L57.238,90.065L57.239,90.160L57.264,90.229L57.352,90.242L57.312,90.304L57.294,90.364L57.305,90.419L57.352,90.468L57.328,90.466L57.322,90.474L57.323,90.488L57.318,90.504L57.265,90.610L57.225,90.652L57.148,90.668L57.085,90.648L57.064,90.595L57.070,90.438L57.089,90.452L57.101,90.468L57.170,90.412L57.152,90.366L57.070,90.307L57.072,90.237L57.108,90.086L57.101,90.006L57.084,89.993L57.022,89.973L57.008,89.959L57.006,89.916L57.002,89.888L56.992,89.868L56.912,89.763L56.822,89.682L56.812,89.703L56.797,89.726L56.789,89.747L56.760,89.583L56.717,89.560L56.676,89.557L56.646,89.579L56.634,89.631L56.605,89.661L56.466,89.761L56.417,89.780L56.362,89.732L56.402,89.656L56.510,89.534L56.523,89.511L56.584,89.472L56.606,89.452L56.615,89.421L56.631,89.336L56.650,89.303L56.707,89.285L56.790,89.297L56.878,89.333L56.944,89.387L56.988,89.461L57.018,89.547L57.034,89.639L57.039,89.732L57.062,89.818L57.116,89.870L57.178,89.915L57.225,89.977ZM58.407,89.318L58.363,89.334L58.333,89.362L58.317,89.402L58.314,89.452L58.214,89.407L58.174,89.321L58.180,89.227L58.218,89.154L58.293,89.093L58.321,89.062L58.342,89.023L58.350,88.977L58.339,88.892L58.342,88.859L58.390,88.779L58.423,88.792L58.446,88.864L58.480,89.045L58.483,89.118L58.466,89.252L58.474,89.386L58.466,89.417L58.432,89.431L58.414,89.400L58.407,89.353L58.407,89.318ZM57.259,88.004L57.285,88.015L57.326,88.004L57.364,88.001L57.380,88.037L57.349,88.085L57.279,88.123L57.132,88.165L57.132,88.102L57.114,88.028L57.064,87.976L57.017,87.937L57.008,87.903L57.062,87.880L57.156,87.869L57.287,87.870L57.256,87.964L57.259,88.004ZM57.273,85.355L57.334,85.360L57.401,85.463L57.454,85.594L57.476,85.684L57.462,85.729L57.432,85.745L57.400,85.750L57.380,85.766L57.373,85.811L57.380,85.963L57.326,86.162L57.316,86.262L57.352,86.356L57.292,86.476L57.297,86.749L57.259,86.887L57.225,86.851L57.217,86.876L57.206,86.896L57.197,86.918L57.194,86.949L57.152,86.907L57.088,86.824L57.070,86.785L57.039,86.822L57.024,86.848L57.025,86.876L57.039,86.920L56.964,86.925L56.927,86.956L56.939,86.994L57.008,87.018L56.965,87.040L56.913,87.051L56.859,87.052L56.811,87.038L56.760,87.018L56.759,86.994L56.760,86.920L56.805,86.934L56.846,86.926L56.883,86.897L56.915,86.851L56.902,86.809L56.884,86.708L56.868,86.670L56.861,86.627L56.902,86.591L56.952,86.562L56.977,86.538L56.967,86.499L56.946,86.484L56.925,86.463L56.915,86.408L56.930,86.366L56.994,86.319L57.022,86.230L57.053,86.214L57.084,86.208L57.101,86.195L57.103,86.141L57.075,86.048L57.070,85.996L57.092,85.896L57.225,85.635L57.246,85.421L57.273,85.355ZM58.438,85.337L58.476,85.359L58.500,85.395L58.516,85.442L58.528,85.501L58.534,85.552L58.530,85.699L58.487,85.838L58.500,86.210L58.486,86.271L58.421,86.346L58.407,86.408L58.412,86.474L58.433,86.590L58.438,86.654L58.388,86.617L58.317,86.526L58.280,86.490L58.232,86.472L58.173,86.457L58.120,86.435L58.092,86.392L58.015,86.487L57.972,86.474L57.957,86.395L57.968,86.291L57.933,86.319L57.911,86.317L57.896,86.293L57.877,86.258L57.909,86.159L57.872,86.093L57.814,86.048L57.785,86.012L57.731,85.877L57.744,85.814L57.850,85.796L57.821,85.757L57.740,85.684L57.723,85.652L57.734,85.590L57.759,85.568L57.790,85.559L57.816,85.537L57.836,85.528L57.872,85.505L57.884,85.482L57.832,85.472L57.783,85.472L57.744,85.469L57.713,85.450L57.692,85.406L57.796,85.383L57.998,85.416L58.064,85.406L58.049,85.387L58.041,85.373L58.030,85.337L58.089,85.338L58.218,85.373L58.273,85.364L58.379,85.331L58.438,85.337ZM56.262,85.829L56.299,85.848L56.318,85.877L56.317,85.916L56.291,85.963L56.370,86.056L56.398,86.099L56.417,86.159L56.306,86.092L56.271,86.059L56.262,86.028L56.235,86.004L56.167,85.898L56.086,85.846L56.064,85.812L56.122,85.796L56.139,85.752L56.140,85.657L56.113,85.566L56.043,85.537L56.065,85.415L56.010,85.154L56.074,85.042L56.065,85.223L56.074,85.275L56.098,85.304L56.215,85.406L56.248,85.469L56.249,85.597L56.274,85.695L56.384,85.668L56.377,85.726L56.350,85.770L56.309,85.804L56.262,85.829ZM54.489,84.846L54.535,84.886L54.553,84.932L54.543,84.981L54.506,85.027L54.499,85.050L54.523,85.173L54.504,85.170L54.428,85.140L54.391,85.029L54.395,84.969L54.489,84.846ZM57.163,85.075L57.162,84.952L57.174,84.862L57.214,84.833L57.303,84.893L57.322,84.959L57.300,85.040L57.252,85.098L57.197,85.095L57.163,85.075ZM57.225,84.711L57.197,84.749L57.162,84.763L57.127,84.752L57.041,84.615L57.080,84.546L57.155,84.515L57.194,84.533L57.202,84.578L57.229,84.671L57.225,84.711ZM58.748,84.551L58.924,84.598L59.000,84.641L58.996,84.711L58.996,84.682L58.874,84.720L58.607,84.722L58.514,84.762L58.440,84.832L58.350,84.894L58.259,84.929L58.179,84.918L58.112,84.774L58.096,84.713L58.092,84.646L58.104,84.608L58.148,84.537L58.156,84.500L58.146,84.451L58.123,84.429L58.093,84.413L58.044,84.357L58.023,84.343L58.007,84.320L58.002,84.270L58.002,84.122L57.966,83.973L57.965,83.911L58.002,83.856L58.031,83.907L58.156,84.023L58.249,84.157L58.321,84.314L58.368,84.360L58.466,84.417L58.548,84.390L58.617,84.428L58.748,84.551ZM56.448,83.496L56.491,83.471L56.553,83.446L56.609,83.441L56.634,83.479L56.646,83.682L56.634,83.728L56.599,83.656L56.540,83.600L56.466,83.583L56.384,83.630L56.359,83.617L56.350,83.610L56.342,83.602L56.280,83.492L56.190,83.399L56.167,83.332L56.179,83.245L56.220,83.136L56.279,83.043L56.340,83.004L56.427,83.009L56.502,83.028L56.553,83.071L56.572,83.149L56.570,83.196L56.555,83.289L56.541,83.332L56.517,83.367L56.484,83.399L56.456,83.437L56.448,83.496ZM56.307,82.641L56.303,82.667L56.229,82.808L56.190,82.846L56.145,82.877L56.097,82.898L56.059,82.906L56.049,82.933L56.012,83.103L55.970,83.019L55.950,83.004L55.931,82.923L55.873,82.915L55.807,82.928L55.764,82.906L55.777,82.840L55.834,82.789L55.880,82.739L55.857,82.673L55.798,82.719L55.780,82.741L55.764,82.772L55.730,82.772L55.739,82.636L55.805,82.581L55.901,82.551L56.043,82.466L56.092,82.461L56.117,82.480L56.091,82.526L56.046,82.569L56.027,82.600L56.035,82.631L56.074,82.673L56.134,82.661L56.158,82.663L56.200,82.673L56.198,82.622L56.202,82.569L56.218,82.526L56.300,82.485L56.325,82.429L56.340,82.372L56.355,82.342L56.422,82.367L56.470,82.451L56.485,82.555L56.448,82.641L56.409,82.666L56.381,82.663L56.350,82.649L56.307,82.641ZM58.342,82.015L58.355,82.093L58.342,82.360L58.317,82.424L58.258,82.446L58.197,82.423L58.162,82.354L58.226,82.026L58.277,81.931L58.342,82.015ZM57.163,81.669L57.176,81.638L57.201,81.664L57.223,81.705L57.225,81.720L57.325,81.868L57.294,81.975L57.192,82.017L57.085,81.965L57.055,81.912L57.053,81.862L57.070,81.736L57.085,81.721L57.117,81.716L57.148,81.705L57.163,81.669ZM55.207,81.574L55.226,81.558L55.268,81.536L55.311,81.524L55.330,81.540L55.349,81.619L55.378,81.658L55.384,81.707L55.330,81.815L55.329,81.793L55.321,81.781L55.309,81.769L55.297,81.753L55.289,81.721L55.281,81.715L55.265,81.715L55.237,81.720L55.237,81.684L55.258,81.654L55.245,81.638L55.221,81.617L55.207,81.574ZM58.125,81.592L58.145,81.725L58.143,81.910L58.121,82.087L58.078,82.197L57.785,82.659L57.598,82.830L57.380,82.772L57.422,82.667L57.442,82.641L57.458,82.539L57.521,82.342L57.535,82.230L57.527,82.186L57.487,82.118L57.467,82.056L57.446,82.040L57.442,82.015L57.460,81.987L57.496,81.962L57.525,81.935L57.521,81.902L57.435,81.738L57.384,81.521L57.380,81.292L57.442,81.094L57.521,81.172L57.768,81.237L57.850,81.327L57.850,81.370L57.816,81.574L57.830,81.650L57.940,81.851L57.957,81.728L57.998,81.574L58.056,81.495L58.125,81.592ZM57.352,79.187L57.387,79.195L57.418,79.171L57.455,79.155L57.507,79.187L57.536,79.239L57.527,79.271L57.476,79.318L57.446,79.359L57.421,79.378L57.400,79.401L57.380,79.452L57.374,79.498L57.380,79.649L57.432,79.853L57.436,79.951L57.380,80.010L57.377,79.913L57.316,79.798L57.318,79.715L57.286,79.622L57.225,79.318L57.122,79.024L57.101,78.925L57.095,78.831L57.108,78.615L57.132,78.561L57.197,78.565L57.230,78.639L57.321,79.120L57.352,79.187ZM55.702,75.469L55.730,75.504L55.704,75.559L55.687,75.652L55.671,75.832L55.638,75.832L55.626,75.753L55.622,75.617L55.642,75.497L55.702,75.469ZM35.134,74.119L35.153,74.334L35.128,74.426L35.038,74.483L35.076,74.129L35.089,74.069L35.108,74.055L35.134,74.119ZM36.403,70.668L36.452,70.607L36.483,70.526L36.530,70.451L36.623,70.406L36.623,70.436L36.586,70.520L36.533,70.612L36.469,70.674L36.403,70.668ZM54.489,67.277L54.522,67.352L54.525,67.432L54.511,67.509L54.489,67.572L54.458,67.478L54.428,67.149L54.452,67.178L54.470,67.206L54.482,67.238L54.489,67.277ZM41.627,65.518L41.636,65.593L41.679,65.720L41.689,65.780L41.670,65.843L41.587,65.985L41.517,66.168L41.400,66.192L41.264,66.155L41.160,66.095L41.160,66.062L41.250,65.995L41.316,65.901L41.410,65.701L41.531,65.523L41.606,65.452L41.627,65.518L41.627,65.518ZM40.875,64.127L40.900,64.366L40.841,64.606L40.728,64.831L40.501,65.128L40.456,65.167L40.383,65.204L40.136,65.287L40.068,65.330L40.040,65.354L40.040,65.393L40.046,65.436L40.042,65.469L39.996,65.527L39.897,65.610L39.853,65.669L39.872,65.742L39.837,65.818L39.733,65.964L39.699,65.964L39.699,65.928L39.765,65.807L39.728,65.636L39.607,65.338L39.640,65.187L39.765,65.103L39.927,65.029L40.074,64.909L40.122,64.829L40.190,64.675L40.225,64.614L40.364,64.477L40.646,64.127L40.788,64.013L40.875,64.127ZM54.149,63.198L54.145,63.272L54.158,63.458L54.149,63.559L54.124,63.612L54.095,63.651L54.069,63.694L54.056,63.759L54.062,63.800L54.045,63.974L54.067,64.123L53.959,64.232L53.820,64.185L53.791,63.971L53.740,63.898L53.559,63.745L53.604,63.595L53.665,63.550L53.675,63.445L53.654,63.324L53.620,63.231L53.564,63.147L53.539,63.094L53.527,63.034L53.543,63.002L53.574,62.979L53.590,62.950L53.561,62.900L53.608,62.837L53.680,62.787L53.762,62.753L53.837,62.739L54.024,62.828L54.130,62.859L54.226,62.871L54.241,62.964L54.245,63.050L54.149,63.198ZM36.718,51.750L36.730,51.808L36.771,51.917L36.780,51.964L36.767,52.079L36.725,52.188L36.657,52.280L36.564,52.343L36.481,52.356L36.366,52.351L36.264,52.329L36.220,52.294L36.197,52.234L36.143,52.175L36.032,52.081L35.596,51.554L35.575,51.514L35.534,51.390L35.955,51.357L36.058,51.316L36.109,51.245L36.158,51.221L36.248,51.321L36.346,51.399L36.390,51.412L36.438,51.419L36.547,51.423L36.705,51.403L36.737,51.437L36.747,51.554L36.720,51.698L36.718,51.750ZM37.740,48.789L37.753,48.857L37.747,48.957L37.718,49.047L37.664,49.086L37.602,49.117L37.497,49.262L37.423,49.324L37.415,49.334L37.399,49.344L37.371,49.352L37.345,49.343L37.333,49.317L37.325,49.291L37.307,49.283L37.251,49.313L37.251,49.351L37.267,49.393L37.260,49.432L37.224,49.451L37.172,49.455L37.073,49.450L36.978,49.462L36.952,49.453L36.901,49.414L36.847,49.356L36.738,49.190L36.718,49.134L36.708,49.084L36.664,49.024L36.654,48.970L36.648,48.958L36.638,48.948L36.627,48.933L36.623,48.905L36.634,48.886L36.657,48.887L36.679,48.885L36.685,48.854L36.651,48.777L36.586,48.738L36.437,48.690L36.372,48.647L36.326,48.594L36.248,48.428L36.296,48.422L36.316,48.402L36.311,48.370L36.282,48.327L36.459,48.104L36.499,48.100L36.535,48.110L36.620,48.119L36.654,48.130L36.696,48.166L36.718,48.202L36.736,48.240L36.764,48.279L36.980,48.450L37.057,48.527L37.132,48.489L37.229,48.474L37.330,48.490L37.416,48.545L37.500,48.611L37.674,48.714L37.740,48.789ZM35.629,46.915L35.682,47.059L35.689,47.132L35.660,47.210L35.410,47.004L35.337,46.897L35.183,46.371L35.165,46.215L35.252,46.223L35.345,46.287L35.394,46.333L35.430,46.376L35.443,46.405L35.472,46.445L35.536,46.483L35.600,46.532L35.629,46.603L35.611,46.828L35.629,46.915ZM33.175,45.813L33.191,45.883L33.405,46.443L33.438,46.613L33.451,46.816L33.422,46.816L33.398,46.726L33.377,46.518L33.344,46.438L33.281,46.349L33.002,45.827L32.986,45.747L32.974,45.722L32.950,45.703L32.928,45.677L32.924,45.630L32.939,45.583L32.961,45.563L32.988,45.569L33.017,45.601L33.096,45.651L33.125,45.687L33.150,45.726L33.169,45.768L33.175,45.813Z" fill="currentColor" stroke="currentColor" stroke-width="1" stroke-linejoin="round"/>
</svg>