<svg xmlns="http://www.w3.org/2000/svg" viewBox="0 0 100 100" role="img" aria-label="Montenegro">
  <title>Montenegro</title>
  <path d="M14.972,65.064L15.026,64.277L14.833,63.682L14.155,63.287L13.853,63.097L13.353,62.495L12.938,61.795L12.660,60.973L12.631,60.051L12.849,58.340L12.668,57.480L13.071,57.108L13.510,56.922L13.962,56.957L14.401,57.242L14.805,57.185L14.950,56.861L14.865,56.385L14.591,55.855L15.377,55.395L15.784,55.156L16.611,54.343L16.782,53.912L17.046,53.249L17.062,51.702L16.659,50.248L15.990,49.375L15.196,48.550L13.841,46.333L13.313,45.062L12.950,43.792L12.914,42.869L13.297,42.275L13.785,41.895L14.071,41.378L13.849,40.362L12.926,38.495L12.539,37.432L12.519,36.513L13.268,34.433L14.450,33.305L16.631,32.814L18.949,32.784L20.534,33.008L19.836,28.963L19.816,27.577L19.837,27.470L20.147,25.861L20.780,24.518L22.461,22.167L21.522,21.705L22.114,20.840L27.093,17.201L28.122,16.876L27.997,16.663L27.775,16.172L27.642,15.961L28.359,15.620L30.682,15.403L31.629,15.672L32.677,16.403L32.952,16.785L32.976,17.150L32.944,17.530L33.036,17.975L33.391,18.571L34.185,19.594L34.207,19.643L34.322,19.904L34.730,19.541L35.040,19.096L35.286,18.627L35.496,18.341L35.580,18.226L36.032,17.981L37.056,17.925L37.334,17.689L36.161,15.466L35.004,12.266L33.653,10.500L33.379,10.297L32.520,10.518L32.524,10.245L32.694,9.809L32.714,9.463L32.194,8.659L31.911,8.482L31.311,8.318L30.936,8.039L30.916,7.592L31.145,7.156L31.516,6.894L32.234,6.536L33.161,5.509L33.738,5.088L34.625,5.000L35.173,5.536L35.592,6.319L36.104,6.957L36.762,7.186L37.596,7.157L38.362,6.857L39.406,5.634L40.378,5.517L42.237,5.801L41.451,7.031L41.479,8.556L42.116,9.955L43.136,10.822L48.490,13.218L49.139,13.687L50.768,16.120L53.070,18.515L53.542,19.214L54.211,20.709L54.606,21.309L55.988,22.467L56.070,22.536L57.275,24.113L57.949,24.729L58.751,25.152L60.481,25.669L61.323,25.763L61.819,25.578L62.138,25.261L62.452,25.292L63.593,27.367L64.311,28.310L65.113,28.962L66.024,29.307L67.319,29.392L68.641,29.285L69.092,29.003L70.004,28.070L70.375,27.869L70.862,28.036L71.153,28.461L71.374,29.006L71.669,29.521L72.056,29.912L74.402,31.569L75.748,32.903L75.824,32.978L78.188,35.322L78.677,35.483L79.124,35.631L81.216,35.843L82.333,36.330L84.377,37.804L86.776,39.020L87.421,39.869L87.481,41.186L87.098,43.242L83.942,43.782L82.446,44.339L82.115,44.553L81.789,45.139L81.756,45.649L81.817,46.133L81.756,46.648L80.781,47.750L79.458,47.359L77.999,46.475L76.604,46.108L76.164,46.320L75.797,46.617L74.979,47.277L74.660,47.713L74.592,48.764L75.035,49.583L75.070,49.616L77.301,51.759L77.604,52.306L77.680,52.496L77.160,53.863L76.717,54.718L76.579,55.151L76.567,56.007L76.676,56.753L76.632,57.443L76.160,58.141L75.156,57.557L74.318,58.168L72.915,60.051L71.923,60.341L70.020,60.283L69.052,60.962L69.044,60.973L68.685,61.321L67.210,62.202L66.958,62.283L66.589,62.402L65.879,62.314L65.218,61.973L63.936,60.973L63.263,59.329L63.129,58.836L63.105,58.477L63.178,57.674L63.246,57.300L63.537,56.673L63.718,56.380L63.787,56.435L63.752,55.902L63.718,55.373L63.388,54.019L62.787,52.869L61.896,52.405L60.989,52.837L60.286,53.477L59.892,53.837L58.872,55.049L58.219,56.119L57.993,56.852L57.775,58.244L57.558,58.879L57.074,59.437L56.513,59.761L56.046,60.167L55.828,60.965L55.828,60.973L55.356,61.962L54.816,62.851L54.179,63.588L53.409,64.100L52.889,64.970L50.893,67.305L50.691,67.608L50.325,68.478L50.248,68.863L50.272,69.590L50.236,69.865L46.498,75.746L45.341,77.010L45.228,77.572L45.615,78.420L45.619,78.428L46.232,79.113L48.466,80.791L49.050,81.510L49.147,81.629L49.240,82.138L48.526,83.724L48.337,84.636L48.293,85.686L48.434,86.701L48.792,87.501L48.805,87.509L49.091,87.877L48.885,88.771L48.651,88.968L48.333,89.012L48.131,89.204L48.381,90.428L48.288,90.806L48.139,91.082L48.091,91.347L48.111,91.703L48.087,91.923L48.180,92.134L48.543,92.490L48.853,93.055L48.825,94.443L48.858,95.000L48.150,94.384L46.719,92.762L46.055,92.430L43.207,91.471L42.534,91.034L41.579,90.672L41.258,90.456L40.947,89.926L40.934,89.635L40.985,89.341L40.871,88.810L40.687,88.721L40.284,88.352L39.998,87.944L40.191,87.756L40.217,87.531L40.045,84.911L37.836,82.853L37.531,82.086L37.887,81.319L37.598,81.008L37.112,80.784L36.515,79.721L35.030,79.756L34.699,79.190L34.610,78.613L34.414,78.477L34.150,78.473L33.899,78.296L33.369,77.146L32.801,76.555L31.236,75.367L30.782,74.557L30.509,72.805L30.169,72.069L29.607,71.745L28.922,71.745L28.331,71.997L28.039,72.432L27.849,72.183L27.614,71.946L27.502,71.708L26.874,72.069L26.579,72.282L26.376,72.511L26.283,72.613L25.979,72.753L25.722,72.464L25.350,71.708L24.064,70.624L23.480,69.898L23.464,69.172L23.239,68.984L22.902,68.593L22.664,68.414L22.664,68.084L22.750,67.323L22.074,66.675L21.296,66.641L21.087,67.721L20.826,67.721L20.512,67.507L19.664,67.626L19.493,67.526L19.290,67.183L18.814,66.794L18.267,66.470L17.867,66.304L17.960,66.120L17.963,66.062L18.001,66.023L18.160,65.911L17.179,65.207L16.874,64.680L17.067,64.066L17.563,63.885L20.766,64.956L21.217,65.107L22.350,65.719L22.931,66.304L23.233,65.479L23.169,64.814L22.283,62.809L22.261,62.317L22.420,61.531L21.125,63.181L19.350,63.522L15.207,62.978L15.207,63.373L15.940,63.915L15.617,65.453L16.274,65.911L15.512,65.652L14.972,65.064Z" fill="currentColor" stroke="currentColor" stroke-width="1.5" stroke-linejoin="round"/>
</svg>