<svg xmlns="http://www.w3.org/2000/svg" viewBox="0 0 100 100" role="img" aria-label="Mongolia">
  <title>Mongolia</title>
  <path d="M85.984,37.868L85.393,39.123L85.351,39.220L84.763,40.494L84.176,41.768L84.164,41.840L84.203,41.982L84.204,42.056L84.149,42.188L83.512,43.158L83.486,43.225L83.473,43.310L83.473,43.392L83.536,44.207L83.510,44.336L83.429,44.411L82.773,44.717L82.711,44.789L82.712,44.828L82.799,45.356L82.844,45.601L82.883,45.697L82.951,45.788L83.658,46.532L83.831,46.621L83.994,46.518L84.306,46.117L84.578,45.943L84.752,45.888L85.270,46.002L85.468,45.997L86.173,45.842L86.370,45.833L86.457,45.851L86.792,45.992L87.000,46.066L87.062,46.104L87.755,46.743L87.877,46.756L87.986,46.613L88.089,46.430L88.190,46.321L88.342,46.201L88.942,45.419L89.013,45.355L89.148,45.308L89.589,45.336L89.657,45.327L89.844,45.247L90.008,45.215L90.176,45.212L90.242,45.232L90.376,45.316L90.448,45.335L90.988,45.371L91.182,45.466L91.358,45.677L91.661,46.172L91.812,46.325L92.386,46.575L92.629,46.663L92.696,46.712L92.734,46.773L92.754,46.850L92.789,47.144L92.804,47.214L92.837,47.260L92.903,47.301L93.165,47.402L93.277,47.437L93.330,47.471L93.352,47.528L93.337,47.568L93.271,47.663L93.251,47.721L93.360,47.753L93.794,48.154L93.835,48.203L93.872,48.276L93.898,48.344L93.932,48.392L94.106,48.443L94.223,48.534L94.421,48.766L94.502,48.892L94.572,49.032L94.590,49.113L94.593,49.355L94.603,49.403L94.609,49.426L94.617,49.447L94.657,49.507L94.749,49.603L94.789,49.655L94.804,49.690L94.812,49.723L94.822,49.753L94.847,49.784L94.877,49.791L94.922,49.794L94.961,49.805L94.970,49.833L94.954,49.876L94.938,49.906L94.928,49.939L94.928,49.989L94.933,50.010L94.943,50.026L94.957,50.038L94.971,50.047L94.988,50.063L94.986,50.084L94.977,50.109L94.975,50.137L94.977,50.228L94.941,50.359L94.933,50.429L94.944,50.465L94.990,50.538L95.000,50.571L94.992,50.609L94.975,50.639L94.953,50.667L94.904,50.755L94.853,50.811L94.797,50.846L94.749,50.844L94.690,50.814L94.651,50.827L94.617,50.877L94.573,50.955L94.533,51.001L94.476,51.044L94.415,51.076L94.365,51.089L94.306,51.071L94.207,50.988L94.147,50.974L94.074,50.977L93.865,50.940L93.730,50.942L93.479,51.002L93.349,51.007L92.637,50.806L92.566,50.774L92.502,50.714L92.420,50.545L92.371,50.480L92.314,50.494L92.245,50.582L92.203,50.607L92.156,50.590L92.126,50.534L92.113,50.466L92.092,50.407L92.033,50.378L91.949,50.408L91.881,50.491L91.774,50.682L91.679,50.741L91.580,50.714L91.476,50.655L91.370,50.622L91.330,50.633L91.253,50.688L91.209,50.704L90.988,50.704L90.882,50.682L90.703,50.589L90.604,50.555L90.507,50.544L90.418,50.552L90.332,50.583L90.241,50.642L90.138,50.734L90.100,50.750L89.950,50.756L89.900,50.776L89.681,50.945L89.589,50.959L89.452,50.993L89.387,51.024L89.325,51.070L89.271,51.136L89.197,51.289L89.153,51.352L89.099,51.381L88.815,51.414L88.751,51.398L88.617,51.318L88.567,51.257L88.496,51.088L88.457,51.040L88.424,51.048L88.294,51.143L88.271,51.148L88.243,51.140L88.190,51.118L87.969,51.172L88.015,51.301L88.022,51.363L88.002,51.420L87.900,51.564L87.868,51.675L87.855,51.957L87.812,52.048L87.712,52.077L86.750,52.011L86.397,51.929L86.349,51.927L86.321,51.943L86.266,52.013L86.090,52.165L86.049,52.183L85.875,52.207L85.758,52.244L85.698,52.290L85.660,52.320L85.604,52.449L85.580,52.523L85.539,52.582L85.069,53.078L84.666,53.885L84.649,53.997L84.688,54.124L84.747,54.218L84.774,54.315L84.714,54.451L84.545,54.700L84.473,54.759L84.335,54.833L84.290,54.846L84.247,54.846L84.103,54.825L84.076,54.837L84.022,54.902L83.419,55.432L83.209,55.682L83.140,55.742L83.057,55.783L82.596,55.912L82.216,55.986L81.626,55.987L81.101,56.072L81.007,56.055L80.538,55.862L80.442,55.853L80.347,55.871L79.968,56.024L79.940,56.045L79.928,56.083L79.906,56.269L79.880,56.360L79.798,56.540L79.647,56.776L79.067,57.346L78.933,57.436L78.893,57.478L78.864,57.522L78.812,57.628L78.725,57.757L78.630,57.844L78.523,57.898L78.400,57.931L78.234,57.947L78.165,57.976L78.021,58.141L77.735,58.354L77.559,58.549L77.454,58.639L77.369,58.666L77.167,58.643L77.124,58.625L77.045,58.557L77.001,58.539L75.971,58.442L75.725,58.333L75.602,58.332L74.974,58.152L74.598,57.974L74.519,57.912L74.459,57.830L74.346,57.628L74.115,57.386L74.035,57.331L73.942,57.311L73.181,57.325L72.912,57.243L72.837,57.244L72.805,57.245L72.763,57.255L72.734,57.283L72.708,57.318L72.675,57.351L72.618,57.379L72.497,57.411L72.442,57.439L72.283,57.566L72.210,57.644L72.148,57.739L71.625,58.856L71.596,58.958L71.593,59.024L71.605,59.163L71.604,59.232L71.588,59.305L71.566,59.357L71.506,59.456L71.436,59.620L71.406,59.665L71.400,59.674L71.333,59.745L71.269,59.859L71.219,59.988L71.193,60.107L71.191,60.274L71.231,60.358L71.406,60.469L71.455,60.536L71.476,60.610L71.492,60.768L71.535,60.920L71.604,61.051L71.857,61.422L71.952,61.523L72.266,61.748L72.352,61.838L72.429,61.942L72.686,62.428L72.724,62.566L72.734,62.686L72.726,62.821L72.693,62.933L72.629,62.981L72.581,62.990L72.449,63.054L72.244,63.045L72.191,63.070L71.753,63.642L71.671,63.727L71.579,63.775L71.282,63.803L71.205,63.837L71.030,63.990L70.351,64.283L70.008,64.492L69.897,64.606L69.514,65.174L69.187,65.547L69.147,65.630L69.078,65.833L68.986,66.009L68.870,66.149L68.609,66.376L68.542,66.448L68.473,66.661L68.423,66.729L67.676,67.081L67.580,67.146L67.545,67.183L67.521,67.214L67.494,67.241L67.453,67.262L67.404,67.272L67.249,67.270L67.041,67.301L66.354,67.628L65.937,67.962L65.915,67.973L65.900,67.972L65.886,67.978L65.869,68.012L65.858,68.028L65.845,68.036L65.406,68.072L65.271,68.122L65.196,68.131L64.472,68.035L64.379,68.043L64.103,68.201L64.008,68.237L63.919,68.244L63.191,68.094L62.584,68.104L62.347,68.033L62.186,68.015L61.829,68.077L60.633,68.285L59.438,68.493L58.243,68.701L56.985,69.301L55.727,69.901L54.623,70.527L54.424,70.645L54.299,70.750L54.261,70.769L54.209,70.787L54.065,70.874L53.908,70.903L53.859,70.923L53.339,71.526L53.224,71.567L53.117,71.419L53.056,71.353L52.996,71.327L52.182,71.324L51.912,71.279L51.893,71.241L51.901,70.403L50.810,70.639L49.719,70.874L49.636,70.859L48.816,70.380L47.995,69.900L47.994,69.900L47.908,69.855L46.939,69.610L45.969,69.364L45.000,69.119L44.833,69.023L44.587,68.737L44.164,67.987L43.891,67.765L43.576,67.675L43.256,67.645L42.719,67.706L41.598,67.506L40.478,67.306L39.357,67.106L39.230,67.107L38.252,67.430L37.839,67.566L36.703,67.403L35.567,67.241L34.431,67.078L33.295,66.916L32.376,66.785L31.458,66.653L31.450,66.654L30.449,66.766L29.447,66.879L29.181,66.926L29.144,66.916L29.120,66.910L29.100,66.843L29.063,66.329L29.045,66.234L29.011,66.151L28.943,66.056L27.864,64.905L27.768,64.772L27.714,64.619L27.687,64.447L27.676,64.259L27.652,64.110L27.259,63.203L26.970,62.226L26.819,61.865L26.750,61.777L26.651,61.746L26.505,61.738L26.238,61.664L26.214,61.622L26.214,61.525L26.240,61.290L26.221,61.085L26.225,61.044L26.237,61.003L26.275,60.925L26.294,60.812L26.328,60.743L26.411,60.625L26.435,60.544L26.383,60.517L25.425,60.649L25.305,60.630L25.058,60.488L24.541,60.318L24.478,60.286L24.438,60.233L24.406,60.163L24.363,60.101L24.170,59.908L23.812,59.674L23.728,59.628L23.549,59.629L23.471,59.597L23.425,59.532L23.351,59.354L23.301,59.280L23.070,59.015L23.033,58.988L22.987,58.968L22.941,58.962L22.815,59.026L22.688,59.027L22.455,58.992L22.321,58.939L22.173,58.770L21.724,58.114L21.652,58.046L21.196,57.800L20.904,57.784L20.846,57.762L20.738,57.689L20.681,57.663L20.614,57.658L20.479,57.682L20.410,57.676L20.191,57.569L20.116,57.560L19.939,57.579L19.874,57.587L19.820,57.569L19.766,57.563L19.711,57.566L19.657,57.581L19.573,57.577L19.493,57.541L19.338,57.446L19.301,57.441L19.207,57.462L19.164,57.465L19.035,57.445L18.716,57.537L18.530,57.547L18.259,57.611L18.213,57.609L18.087,57.555L18.039,57.547L17.901,57.569L17.856,57.569L17.728,57.521L17.679,57.521L17.542,57.559L17.471,57.541L17.233,57.363L17.141,57.319L17.050,57.295L16.956,57.289L16.860,57.300L16.703,57.332L16.222,57.304L16.159,57.311L16.044,57.350L15.987,57.357L15.710,57.285L15.677,57.292L15.652,57.307L15.626,57.310L15.592,57.284L15.408,57.038L15.359,57.003L15.298,57.005L15.250,57.041L15.205,57.092L15.157,57.133L15.102,57.135L14.829,57.070L14.648,56.971L14.607,56.932L14.545,56.835L14.510,56.791L14.415,56.739L14.291,56.711L14.164,56.705L14.062,56.722L13.868,56.840L13.777,56.839L13.734,56.721L13.741,56.653L13.757,56.608L13.759,56.563L13.725,56.494L13.676,56.455L13.563,56.403L13.547,56.356L13.546,56.219L13.511,56.106L13.468,55.999L13.442,55.879L13.399,55.794L13.215,55.655L13.156,55.583L13.283,54.614L13.323,54.523L13.906,53.714L14.062,53.561L14.093,53.538L14.139,53.420L14.147,53.231L14.121,53.044L14.062,52.935L13.989,52.821L13.850,52.357L13.842,52.274L13.869,52.211L13.952,52.103L14.062,51.805L14.093,51.729L14.136,51.566L14.171,51.492L14.232,51.345L14.259,51.255L14.265,51.192L14.223,51.137L14.164,51.115L14.121,51.077L14.127,50.972L14.165,50.797L14.172,50.687L14.175,50.633L14.145,50.480L14.062,50.342L13.962,50.241L13.923,50.183L13.908,50.099L13.916,50.067L13.948,50.004L13.954,49.973L13.944,49.931L13.924,49.907L13.902,49.887L13.881,49.859L13.853,49.784L13.835,49.712L13.811,49.645L13.768,49.581L13.711,49.528L13.651,49.491L13.588,49.472L13.522,49.474L13.411,49.452L13.327,49.358L12.646,48.155L12.639,48.124L12.645,48.095L12.664,48.067L12.693,48.007L12.705,47.938L12.697,47.871L12.664,47.819L12.588,47.766L12.570,47.657L12.575,47.525L12.569,47.401L12.530,47.346L12.438,47.272L12.402,47.216L12.319,47.012L12.281,46.952L12.250,46.870L12.278,46.813L12.312,46.768L12.299,46.724L12.239,46.677L12.180,46.643L11.921,46.572L11.792,46.514L11.670,46.431L11.566,46.325L11.532,46.269L11.499,46.189L11.480,46.102L11.491,46.027L11.514,45.939L11.502,45.864L11.459,45.819L11.341,45.817L11.231,45.783L11.185,45.805L11.164,45.856L11.160,45.910L11.151,45.965L11.114,46.014L11.024,46.046L10.729,46.070L10.639,46.046L10.608,45.998L10.582,45.881L10.561,45.826L10.515,45.781L10.417,45.761L10.370,45.737L10.338,45.684L10.317,45.616L10.292,45.557L10.253,45.534L10.206,45.521L10.169,45.483L10.147,45.425L10.149,45.357L10.137,45.244L10.053,45.201L9.946,45.205L9.867,45.233L9.727,45.239L9.682,45.233L9.570,45.171L9.528,45.169L9.472,45.195L9.336,45.305L9.288,45.355L9.219,45.408L9.149,45.422L9.004,45.393L8.746,45.392L8.665,45.357L8.665,45.356L8.664,45.356L8.348,44.931L8.304,44.894L8.227,44.874L8.065,44.897L7.993,44.894L7.908,44.834L7.723,44.647L7.644,44.620L7.573,44.627L7.518,44.608L7.407,44.519L7.364,44.460L7.344,44.388L7.331,44.308L7.309,44.230L7.303,44.149L7.342,43.997L7.320,43.924L7.146,43.721L7.080,43.690L7.024,43.699L6.969,43.717L6.905,43.715L6.812,43.656L6.668,43.470L6.592,43.409L6.399,43.310L6.349,43.302L6.253,43.312L6.204,43.308L6.154,43.284L6.063,43.214L5.986,43.175L5.940,43.123L5.914,43.106L5.885,43.105L5.819,43.120L5.786,43.119L5.692,43.068L5.605,42.974L5.579,42.875L5.671,42.805L5.710,42.774L5.733,42.729L5.749,42.685L5.768,42.654L5.893,42.572L5.918,42.535L5.906,42.431L5.834,42.345L5.671,42.235L5.606,42.214L5.481,42.223L5.297,42.139L5.239,42.102L5.196,42.052L5.186,42.015L5.181,41.931L5.169,41.892L5.145,41.864L5.115,41.845L5.053,41.820L5.006,41.771L5.000,41.700L5.022,41.624L5.059,41.562L5.280,41.458L5.383,41.367L5.382,41.220L5.339,41.172L5.286,41.153L5.241,41.119L5.225,41.029L5.239,40.942L5.263,40.885L5.279,40.824L5.271,40.730L5.230,40.606L5.226,40.558L5.283,40.582L5.334,40.586L5.618,40.545L5.671,40.517L5.720,40.452L5.823,40.355L6.043,40.224L6.142,40.129L6.155,40.023L6.101,39.903L6.063,39.778L6.119,39.657L6.147,39.611L6.192,39.477L6.228,39.421L6.299,39.378L6.799,39.290L6.864,39.290L7.001,39.333L7.069,39.340L7.247,39.328L7.300,39.309L7.417,39.236L7.457,39.220L7.462,39.220L7.512,39.227L7.554,39.258L7.627,39.355L7.685,39.408L7.752,39.424L8.175,39.453L8.188,39.429L8.131,39.298L8.134,39.144L8.142,39.079L8.168,39.035L8.226,39.020L8.280,39.044L8.311,39.096L8.333,39.160L8.362,39.220L8.390,39.261L8.410,39.306L8.432,39.346L8.468,39.371L8.576,39.352L8.987,39.180L9.083,39.103L9.140,39.005L9.101,38.902L9.035,38.788L9.061,38.692L9.142,38.641L9.242,38.661L9.406,38.810L9.486,38.860L9.577,38.857L9.650,38.786L9.708,38.683L9.772,38.603L9.867,38.604L9.992,38.523L10.261,38.432L10.446,38.338L10.502,38.291L10.531,38.229L10.499,38.155L10.450,38.122L10.324,38.064L10.289,38.012L10.292,37.977L10.333,37.930L10.337,37.886L10.324,37.862L10.274,37.820L10.258,37.792L10.258,37.740L10.274,37.582L10.282,37.543L10.308,37.522L10.405,37.443L10.553,37.392L10.961,37.380L11.111,37.346L11.249,37.280L11.324,37.175L11.326,37.130L11.331,37.044L11.348,36.938L11.392,36.856L11.478,36.801L11.845,36.726L11.958,36.677L12.296,36.431L12.352,36.410L12.467,36.398L12.523,36.381L12.664,36.267L12.786,36.252L13.027,36.303L13.148,36.300L13.199,36.285L13.248,36.261L13.292,36.224L13.328,36.172L13.341,36.114L13.342,35.997L13.367,35.951L13.467,35.895L13.684,35.833L13.788,35.757L13.988,35.519L14.062,35.452L14.166,35.405L14.495,35.402L14.589,35.375L14.860,35.236L14.964,35.237L15.201,35.284L15.295,35.258L15.342,35.190L15.363,35.106L15.392,35.022L15.461,34.953L15.743,34.846L15.818,34.774L15.959,34.527L16.033,34.459L16.229,34.347L16.438,34.275L16.650,34.252L17.105,34.338L17.374,34.326L17.609,34.200L17.753,33.908L17.760,33.832L17.762,33.760L17.773,33.695L17.811,33.644L17.868,33.612L17.939,33.593L18.005,33.604L18.048,33.665L18.102,33.824L18.170,33.928L18.258,33.993L18.374,34.034L18.481,34.106L18.641,34.332L18.747,34.388L18.809,34.381L18.874,34.355L18.936,34.314L18.986,34.260L19.018,34.194L19.037,34.058L19.056,33.992L19.157,33.921L19.329,33.891L19.506,33.903L19.620,33.963L19.654,34.109L19.652,34.305L19.704,34.466L19.735,34.548L19.759,34.595L19.791,34.624L19.846,34.650L20.021,34.695L20.116,34.693L20.254,34.691L20.906,34.652L21.227,34.753L22.208,34.793L23.189,34.833L23.248,34.864L23.289,34.917L23.303,34.980L23.307,35.130L23.419,35.390L23.441,35.491L23.454,35.914L23.488,36.126L23.516,36.231L23.555,36.316L23.621,36.386L23.853,36.481L23.900,36.522L23.919,36.574L23.930,36.634L23.949,36.696L23.982,36.745L24.102,36.855L24.131,36.906L24.181,37.023L24.213,37.065L24.272,37.083L24.346,37.072L24.613,36.980L25.103,36.958L25.193,36.979L25.268,37.044L25.333,37.175L25.383,37.269L25.401,37.295L25.536,37.368L26.314,37.359L26.440,37.395L26.567,37.495L26.614,37.544L26.657,37.579L26.667,37.586L26.723,37.609L26.778,37.597L26.825,37.551L26.898,37.441L26.956,37.404L27.226,37.366L27.340,37.315L27.445,37.174L27.526,37.097L27.638,37.063L27.748,37.084L27.818,37.174L27.818,37.175L27.852,37.289L27.903,37.372L27.969,37.397L28.049,37.340L28.080,37.289L28.115,37.244L28.153,37.206L28.194,37.175L28.234,37.154L28.276,37.150L28.318,37.159L28.360,37.174L28.360,37.174L28.361,37.175L28.361,37.175L28.779,37.353L28.906,37.447L29.024,37.563L29.088,37.601L29.163,37.611L29.236,37.588L29.375,37.497L29.447,37.466L29.528,37.464L29.585,37.490L29.628,37.547L29.667,37.637L29.709,37.711L29.756,37.728L29.810,37.706L29.871,37.663L30.022,37.515L30.083,37.498L30.831,37.609L30.934,37.696L31.035,37.869L31.077,37.911L31.156,37.940L31.197,37.955L31.252,37.989L31.278,38.062L31.345,38.167L31.491,38.233L31.651,38.266L31.761,38.268L31.878,38.233L32.010,38.170L32.245,38.010L32.435,37.870L32.522,37.769L32.543,37.645L32.517,37.568L32.493,37.518L32.502,37.486L32.714,37.432L32.969,37.316L33.033,37.303L33.092,37.325L33.185,37.427L33.239,37.459L33.288,37.431L33.364,37.334L33.452,37.255L33.849,37.051L34.010,36.884L34.449,35.984L34.468,35.920L34.476,35.840L34.470,35.771L34.447,35.642L34.460,35.506L34.549,35.263L34.556,35.129L34.556,35.129L34.556,35.129L34.536,35.024L34.485,34.946L34.418,34.893L34.346,34.864L34.172,34.835L34.095,34.809L33.883,34.654L33.822,34.597L33.780,34.519L33.643,34.187L33.558,33.977L33.568,33.889L33.687,33.727L33.672,33.680L33.583,33.615L33.543,33.568L33.518,33.518L33.489,33.474L33.356,33.393L33.255,33.297L33.179,33.175L33.173,33.050L33.351,32.699L33.395,32.563L33.420,32.425L33.436,32.365L33.516,32.174L33.524,32.112L33.513,32.025L33.481,31.885L33.479,31.824L33.499,31.751L33.529,31.697L33.609,31.600L33.643,31.546L33.772,31.274L33.826,31.183L33.857,31.146L33.901,31.134L34.026,31.071L34.100,31.066L34.331,31.110L34.358,31.038L34.369,30.941L34.342,30.763L34.353,30.667L34.382,30.594L34.451,30.456L34.480,30.375L34.644,30.116L34.904,30.001L35.445,29.860L35.537,29.792L35.624,29.702L35.704,29.597L35.887,29.249L35.929,29.055L35.953,28.993L36.060,28.860L36.083,28.802L36.089,28.733L36.091,28.594L36.108,28.527L36.194,28.437L36.310,28.433L36.338,28.453L36.407,28.503L36.441,28.634L36.497,28.725L36.582,28.777L37.068,28.936L37.163,28.987L37.228,29.053L37.281,29.129L37.338,29.194L37.418,29.232L38.070,29.407L38.413,29.419L38.497,29.452L38.705,29.627L38.886,29.825L39.080,29.988L39.326,30.061L39.585,30.032L39.898,30.083L40.739,30.080L40.907,30.171L41.097,30.223L42.301,30.790L42.434,30.895L42.551,30.922L42.669,30.923L42.783,30.947L42.890,31.039L42.990,31.158L43.087,31.211L43.192,31.211L43.456,31.120L43.580,31.108L43.701,31.131L43.908,31.213L44.056,31.203L44.132,31.211L44.183,31.234L44.332,31.338L44.406,31.362L44.630,31.348L44.683,31.364L44.781,31.443L44.833,31.470L45.048,31.485L45.114,31.521L45.160,31.562L45.419,31.729L45.446,31.797L45.406,31.882L45.283,32.071L45.279,32.110L45.295,32.150L45.318,32.225L45.324,32.296L45.321,32.364L45.302,32.503L45.315,32.655L45.367,32.819L45.442,32.970L45.518,33.084L45.547,33.139L45.551,33.198L45.536,33.256L45.507,33.307L45.575,33.413L45.553,33.526L45.500,33.640L45.473,33.752L45.511,33.877L45.592,33.959L45.765,34.084L45.826,34.205L45.801,34.297L45.735,34.384L45.677,34.485L45.664,34.605L45.695,34.729L45.752,34.838L45.821,34.913L45.947,34.962L46.225,34.998L46.340,35.085L46.546,35.446L46.633,35.512L46.638,35.513L47.038,35.612L47.386,35.857L47.499,35.906L47.630,35.936L48.066,35.881L48.266,35.930L48.374,36.146L48.410,36.266L48.476,36.337L48.560,36.366L48.841,36.338L48.930,36.357L49.028,36.401L49.196,36.516L49.385,36.599L49.571,36.609L49.899,36.384L50.067,36.390L50.427,36.537L50.610,36.568L50.840,36.539L51.054,36.450L51.192,36.300L51.252,36.209L51.399,36.105L51.477,36.033L51.555,35.962L51.635,35.916L51.826,35.864L52.114,35.879L52.207,35.860L52.269,35.821L52.379,35.720L52.450,35.700L52.709,35.703L52.789,35.679L52.959,35.575L53.022,35.551L53.113,35.536L53.437,35.576L53.516,35.570L53.593,35.550L53.665,35.517L53.971,35.272L54.076,35.212L54.217,35.196L55.086,35.419L55.477,35.391L55.554,35.409L55.688,35.464L55.827,35.493L55.977,35.494L56.052,35.510L56.204,35.626L56.216,35.653L56.216,35.691L56.219,35.730L56.230,35.762L56.251,35.781L56.473,35.807L56.545,35.838L56.658,35.919L56.717,35.949L56.780,35.958L57.325,35.804L57.628,35.772L57.931,35.807L58.182,35.888L58.300,35.953L58.715,36.290L58.819,36.342L58.844,36.380L58.887,36.532L58.909,36.572L58.966,36.631L58.986,36.659L59.002,36.702L59.028,36.799L59.052,36.842L59.089,36.874L59.174,36.913L59.213,36.939L59.352,37.068L59.430,37.121L59.521,37.157L59.605,37.150L59.677,37.114L59.745,37.104L59.911,37.243L60.933,37.260L60.975,37.279L60.992,37.286L61.094,37.357L61.152,37.375L61.240,37.364L61.273,37.366L61.405,37.409L61.540,37.417L61.568,37.459L61.557,37.565L61.534,37.634L61.509,37.691L61.494,37.753L61.501,37.840L61.550,38.035L61.566,38.186L61.563,38.238L61.548,38.288L61.485,38.443L61.487,38.495L61.521,38.523L61.586,38.532L61.698,38.523L61.734,38.554L61.711,38.644L61.705,38.709L61.734,38.773L61.781,38.825L61.987,38.969L62.044,38.998L62.277,39.026L62.351,39.058L62.391,39.099L62.416,39.151L62.438,39.208L62.465,39.262L62.627,39.451L63.015,39.778L63.195,39.897L63.284,39.904L63.392,39.912L63.791,39.841L64.093,39.843L64.293,39.809L64.580,39.895L64.650,39.890L64.937,39.818L65.289,39.851L65.360,39.876L65.428,39.914L65.581,39.971L65.638,39.996L65.748,39.985L65.780,40.007L65.790,40.032L65.802,40.105L65.814,40.135L65.863,40.161L65.932,40.189L66.525,40.146L66.683,40.208L66.775,40.305L66.815,40.308L67.042,40.362L67.792,40.574L67.914,40.560L68.036,40.512L68.150,40.435L68.251,40.334L68.295,40.277L68.323,40.247L68.354,40.254L68.497,40.407L68.547,40.440L68.707,40.482L68.973,40.642L69.089,40.677L69.210,40.686L69.331,40.673L69.638,40.572L69.986,40.388L70.470,40.044L70.848,39.916L70.899,39.883L70.980,39.783L71.029,39.744L71.097,39.732L71.160,39.754L71.284,39.819L71.354,39.833L71.423,39.832L71.491,39.816L71.807,39.655L71.932,39.615L72.964,39.551L73.234,39.437L74.089,39.071L74.204,39.051L74.514,39.083L74.758,39.207L74.842,39.226L74.933,39.220L75.054,39.185L75.308,39.061L75.471,38.919L75.530,38.880L75.593,38.851L75.657,38.834L75.800,38.828L75.848,38.798L75.878,38.709L75.885,38.563L75.893,38.499L75.922,38.424L76.116,38.056L76.188,37.955L76.272,37.873L76.840,37.463L76.915,37.366L76.960,37.320L77.105,37.223L77.154,37.175L77.299,37.064L77.782,36.824L77.840,36.811L77.960,36.831L78.018,36.830L78.055,36.815L78.400,36.489L78.456,36.455L78.573,36.421L78.630,36.393L78.806,36.227L79.035,36.097L79.276,36.013L79.407,36.031L79.664,36.156L79.798,36.188L80.320,36.117L80.584,36.179L81.265,36.555L81.315,36.602L81.351,36.655L81.411,36.774L81.450,36.828L81.860,37.261L82.304,37.573L82.357,37.591L82.532,37.589L82.596,37.607L82.695,37.608L82.890,37.580L83.184,37.646L83.276,37.645L83.373,37.616L84.220,37.152L84.449,37.086L84.679,37.089L84.911,37.174L85.680,37.465L85.797,37.565L85.898,37.702L85.984,37.868Z" fill="currentColor" stroke="currentColor" stroke-width="1.5" stroke-linejoin="round"/>
</svg>