<svg xmlns="http://www.w3.org/2000/svg" viewBox="0 0 100 100" role="img" aria-label="Northern Mariana Islands">
  <title>Northern Mariana Islands</title>
  <path d="M47.604,94.012L48.226,93.747L48.593,93.714L48.734,94.012L48.692,94.177L48.621,94.297L48.508,94.369L48.333,94.393L48.192,94.450L48.098,94.585L48.018,94.743L47.914,94.870L47.660,95.000L47.520,94.955L47.389,94.845L47.149,94.784L46.757,94.832L46.544,94.824L46.451,94.736L46.603,94.494L46.957,94.258L47.345,94.082L47.604,94.012ZM53.490,81.574L53.561,81.753L53.542,81.930L53.499,82.120L53.490,82.336L53.544,82.459L53.726,82.678L53.763,82.822L53.678,83.181L53.469,83.561L53.204,83.764L52.945,83.584L52.884,83.403L52.831,83.018L52.754,82.822L52.591,82.600L52.555,82.499L52.572,82.336L52.727,82.016L53.007,81.648L53.300,81.434L53.490,81.574ZM55.364,78.848L55.540,78.780L55.746,78.808L55.842,78.916L55.684,79.086L55.532,79.184L55.429,79.337L55.204,79.934L55.213,80.055L55.319,80.231L55.256,80.358L55.174,80.421L55.074,80.416L54.955,80.334L54.792,80.488L54.709,80.672L54.718,80.867L54.818,81.054L54.894,81.240L54.706,81.234L54.473,81.151L54.410,81.106L54.114,81.177L54.000,81.149L53.954,80.953L53.977,80.747L54.137,80.231L54.152,80.031L54.145,79.876L54.169,79.743L54.270,79.615L54.341,79.571L54.592,79.468L54.638,79.401L54.646,79.240L54.674,79.182L54.837,79.099L55.185,78.986L55.364,78.848ZM54.319,63.484L54.427,63.692L54.342,63.798L54.153,63.843L53.781,63.879L53.606,63.864L53.443,63.803L53.310,63.683L53.235,63.531L53.251,63.397L53.362,63.310L53.581,63.293L53.755,63.345L54.165,63.397L54.319,63.484ZM55.140,38.239L55.681,38.257L55.858,38.344L55.995,38.480L56.047,38.660L56.000,38.894L55.878,39.019L55.716,39.108L55.552,39.231L54.968,39.831L54.774,39.942L54.452,39.929L54.367,39.604L54.719,39.416L54.869,39.098L54.948,38.427L55.140,38.239ZM53.681,30.572L53.333,30.251L53.293,29.697L53.531,29.390L54.037,29.411L54.218,29.631L54.299,29.798L54.321,29.977L54.319,30.234L54.260,30.392L54.107,30.523L53.902,30.595L53.681,30.572ZM55.382,59.183L55.113,58.913L55.337,58.839L55.586,58.937L55.382,59.183ZM56.259,50.660L56.005,50.389L56.209,50.330L56.434,50.437L56.259,50.660ZM56.249,46.734L55.955,46.587L55.884,46.367L55.982,46.191L56.200,46.176L56.365,46.292L56.444,46.457L56.418,46.621L56.249,46.734ZM50.268,17.605L50.084,17.497L49.954,17.326L49.954,17.167L50.156,17.101L50.325,17.162L50.398,17.303L50.376,17.470L50.268,17.605ZM48.203,12.621L48.060,12.571L47.942,12.474L47.883,12.340L47.917,12.184L48.044,12.052L48.106,12.120L48.132,12.256L48.138,12.331L48.226,12.317L48.347,12.273L48.452,12.251L48.497,12.304L48.470,12.419L48.404,12.511L48.309,12.580L48.203,12.621ZM43.737,5.534L43.596,5.402L43.556,5.215L43.618,5.055L43.790,5.000L43.952,5.086L43.961,5.250L43.872,5.420L43.737,5.534Z" fill="currentColor" stroke="currentColor" stroke-width="1.5" stroke-linejoin="round"/>
</svg>