<svg xmlns="http://www.w3.org/2000/svg" viewBox="0 0 100 100" role="img" aria-label="Mozambique">
  <title>Mozambique</title>
  <path d="M32.225,94.889L32.243,93.473L32.189,93.023L31.944,92.554L31.905,92.400L31.840,91.834L31.865,91.674L32.037,91.240L32.056,91.093L32.020,90.903L31.959,90.700L31.931,90.503L31.999,90.330L31.653,90.246L31.504,90.169L31.368,90.046L31.164,89.414L31.142,89.250L31.174,89.098L31.395,88.547L31.436,88.480L31.503,88.419L31.553,88.389L31.589,88.356L31.610,88.283L31.610,88.164L31.562,87.819L31.531,87.704L31.477,87.591L31.458,87.420L31.464,87.239L31.485,87.100L31.574,86.832L31.566,85.639L31.561,84.765L31.558,84.110L31.552,83.185L31.548,82.420L31.590,82.043L31.562,81.618L31.431,81.197L31.249,80.815L30.953,80.194L30.920,79.962L30.886,79.092L30.882,79.002L30.854,78.914L30.793,78.844L30.457,78.604L30.359,78.514L30.286,78.399L30.075,77.917L29.874,77.231L29.771,77.032L29.272,76.508L29.175,76.313L29.143,76.086L29.252,74.833L29.220,74.666L28.863,73.579L28.648,72.926L28.381,72.111L28.112,71.294L27.882,70.594L27.933,70.495L28.348,70.208L28.687,69.972L28.957,69.677L29.230,69.378L29.503,69.080L29.776,68.781L30.048,68.482L30.320,68.184L30.594,67.885L30.866,67.586L31.139,67.288L31.412,66.989L31.684,66.691L31.957,66.392L32.230,66.093L32.503,65.795L32.775,65.496L33.048,65.198L33.320,64.899L33.573,64.624L33.758,64.417L33.959,64.545L33.952,64.519L33.945,64.496L33.566,63.855L33.573,63.833L33.593,63.803L33.612,63.768L33.612,63.731L33.597,63.720L33.574,63.721L33.551,63.718L33.504,63.654L33.429,63.607L33.400,63.559L33.802,63.048L34.065,62.714L34.187,62.473L34.219,62.263L34.147,61.693L34.073,61.103L34.083,60.876L34.138,60.643L34.302,60.432L34.527,60.403L34.773,60.433L34.995,60.396L35.127,60.252L35.297,59.922L35.460,59.606L35.798,59.191L36.029,58.906L36.069,58.836L36.098,58.757L36.135,58.589L36.132,58.545L36.097,58.471L36.091,58.433L36.102,58.380L36.173,58.250L36.199,58.165L36.238,57.898L36.285,57.848L36.370,57.832L36.452,57.807L36.492,57.728L36.523,57.560L36.594,57.498L36.872,57.508L36.857,57.465L36.826,57.337L36.845,56.931L36.945,56.608L36.953,56.381L36.988,56.253L37.005,56.147L36.953,56.086L36.837,56.038L36.725,55.967L36.639,55.879L36.596,55.783L36.639,55.570L36.631,55.459L36.539,55.406L36.442,55.439L36.287,55.599L36.169,55.631L36.049,55.625L35.955,55.603L35.896,55.544L35.879,55.422L35.895,55.366L35.926,55.318L35.948,55.266L35.940,55.194L35.927,55.140L35.926,55.090L35.963,54.693L35.961,54.592L35.926,54.472L35.853,54.447L35.758,54.459L35.658,54.454L35.603,54.389L35.597,54.276L35.630,54.053L35.619,53.892L35.632,53.838L35.826,53.617L35.902,53.496L35.943,53.404L35.961,53.306L35.967,53.170L36.118,52.490L36.085,52.301L36.041,52.247L35.992,52.209L35.951,52.166L35.925,52.099L35.913,52.034L35.898,51.997L35.868,51.972L35.811,51.949L35.721,51.939L35.398,51.987L35.327,51.984L35.268,51.964L35.227,51.920L35.215,51.847L35.223,51.777L35.215,51.717L35.175,51.594L35.183,51.527L35.233,51.481L35.300,51.443L35.356,51.401L35.290,51.357L35.257,51.277L35.221,50.981L35.229,50.931L35.730,50.695L35.887,50.672L36.100,50.688L36.237,50.676L36.327,50.603L36.383,50.485L36.419,50.338L36.430,50.157L36.390,50.007L36.233,49.695L36.167,49.498L36.149,49.385L36.162,49.292L36.226,49.217L36.316,49.180L36.415,49.151L36.507,49.102L36.609,49.040L36.723,48.987L36.816,48.916L36.850,48.804L36.832,48.748L36.766,48.669L36.758,48.615L36.773,48.619L36.882,48.459L37.032,48.344L37.057,48.283L37.016,48.178L36.922,48.073L36.679,47.874L36.600,47.758L36.577,47.676L36.586,47.630L36.617,47.588L36.657,47.516L36.704,47.398L36.707,47.357L36.690,47.176L36.507,46.609L36.496,46.486L36.524,46.377L36.529,46.330L36.465,46.254L36.456,46.202L36.483,46.158L36.524,46.131L36.565,46.094L36.585,46.023L36.576,45.926L36.514,45.772L36.506,45.664L36.520,45.557L36.554,45.443L36.611,45.351L36.697,45.311L36.830,45.221L36.851,45.020L36.835,44.780L36.855,44.569L36.941,44.366L36.962,44.260L36.940,44.146L36.869,44.050L36.674,43.960L36.583,43.888L36.560,43.842L36.505,43.657L36.504,43.596L36.538,43.559L36.583,43.530L36.617,43.487L36.821,43.084L36.895,42.968L36.919,42.931L36.951,42.845L36.947,42.757L36.911,42.708L36.795,42.643L36.749,42.605L36.695,42.496L36.675,42.376L36.673,42.321L36.667,42.117L36.596,41.778L36.462,41.461L36.245,41.070L35.951,40.539L35.944,40.504L36.317,40.134L36.398,40.025L36.488,39.848L36.634,39.270L36.670,39.112L36.606,39.120L36.520,39.157L36.364,39.257L36.280,39.281L36.116,39.270L35.797,39.198L35.634,39.188L35.554,39.201L35.481,39.230L35.437,39.261L35.435,39.260L35.405,39.248L35.267,39.140L35.215,38.923L35.211,38.797L35.186,38.718L35.127,38.662L34.504,38.408L33.680,38.069L33.143,37.850L32.734,37.786L31.706,37.812L31.166,37.724L31.083,37.683L31.037,37.600L31.012,37.390L30.966,37.293L30.904,37.240L30.686,37.124L30.585,37.036L30.270,36.686L30.127,36.565L29.999,36.507L29.131,36.448L28.931,36.346L28.853,36.290L28.749,36.275L28.637,36.274L28.535,36.260L28.525,36.244L28.532,36.218L28.534,36.192L28.509,36.178L28.488,36.180L28.447,36.190L28.428,36.186L28.395,36.150L28.379,36.099L28.356,36.048L28.305,36.011L28.204,35.955L28.138,35.879L28.041,35.693L27.967,35.598L27.881,35.535L27.783,35.498L27.255,35.370L27.024,35.352L26.894,35.434L26.851,35.512L26.812,35.509L26.771,35.477L26.726,35.466L26.650,35.506L26.554,35.617L26.493,35.671L26.377,35.722L26.290,35.710L26.213,35.650L26.130,35.559L25.920,35.408L25.689,35.359L25.128,35.363L24.280,35.369L23.906,35.371L23.323,35.376L23.316,34.994L23.305,34.337L23.297,33.814L23.290,33.371L23.363,33.340L23.375,33.326L23.316,33.165L23.288,33.121L23.140,32.960L23.128,32.884L23.162,32.763L23.258,32.573L23.272,32.518L23.255,32.465L23.179,32.356L23.162,32.293L23.149,31.936L23.127,31.823L23.090,31.721L23.036,31.624L22.970,31.552L22.896,31.523L22.726,31.410L22.597,31.148L22.403,30.462L22.378,30.224L22.378,29.979L22.341,29.815L22.344,29.779L22.344,29.777L22.429,29.753L22.885,29.697L23.270,29.500L23.754,29.252L24.307,29.045L24.750,28.877L25.472,28.606L25.989,28.484L26.725,28.310L26.818,28.303L27.356,28.168L28.026,28.002L28.568,27.867L29.014,27.696L29.498,27.434L29.855,27.241L30.599,26.988L31.283,26.755L31.805,26.577L32.198,26.391L32.397,26.328L32.815,26.249L33.299,26.079L33.846,25.887L34.633,25.610L35.508,25.301L36.403,24.987L37.058,24.756L37.511,24.597L37.889,24.464L38.175,24.627L38.292,24.722L38.349,24.878L38.323,25.151L38.346,25.249L38.476,25.470L38.519,25.521L38.594,25.570L38.640,25.589L38.677,25.625L38.692,25.654L38.764,25.797L38.856,25.929L39.119,26.478L39.213,26.608L39.281,26.663L39.500,26.765L39.569,26.827L39.604,26.893L39.630,26.961L39.674,27.032L39.734,27.081L39.874,27.148L39.933,27.196L39.977,27.265L40.051,27.473L40.083,27.562L40.127,27.635L40.189,27.692L40.280,27.721L40.331,27.683L40.348,27.585L40.348,27.396L40.393,27.236L40.472,27.112L40.582,27.077L40.862,27.298L41.008,27.313L41.156,27.258L41.458,27.068L41.601,27.031L41.753,27.031L42.300,27.107L42.341,27.079L42.401,26.940L42.440,26.884L42.606,26.812L42.985,26.801L43.500,26.611L43.539,26.606L43.622,26.616L43.664,26.607L43.704,26.581L43.741,26.549L43.780,26.523L43.826,26.515L43.972,26.595L44.015,26.659L44.085,26.762L44.255,27.120L44.376,27.273L44.647,27.549L44.732,27.723L44.738,27.906L44.668,28.233L44.717,28.421L44.804,28.598L44.860,28.760L44.889,28.933L44.891,29.338L44.903,29.430L44.934,29.539L44.980,29.627L45.037,29.710L45.075,29.793L45.065,29.886L45.027,29.967L44.921,30.118L44.891,30.195L44.902,30.273L44.935,30.341L44.949,30.404L44.901,30.464L44.889,30.558L44.945,30.978L44.997,31.367L44.976,31.511L44.880,31.653L44.811,31.707L44.743,31.744L44.679,31.790L44.620,31.870L44.595,31.938L44.570,32.077L44.535,32.145L44.430,32.211L44.328,32.380L44.235,32.429L44.170,32.521L44.169,32.706L44.216,33.037L44.200,33.256L44.138,33.430L43.816,33.888L43.814,33.891L43.758,33.926L43.650,33.960L43.562,34.003L43.470,34.075L43.322,34.239L43.266,34.377L43.240,34.568L43.249,34.764L43.306,34.917L43.370,34.975L43.543,35.059L43.619,35.106L44.053,35.572L44.141,35.697L44.164,35.852L44.061,36.206L44.040,36.393L44.255,36.873L44.356,36.979L44.535,36.986L44.766,37.021L44.882,37.143L45.028,37.523L45.084,37.608L45.149,37.674L45.317,37.804L45.352,37.843L45.379,37.893L45.443,38.056L45.476,38.081L45.515,38.096L45.844,38.275L45.912,38.350L46.005,38.534L46.057,38.607L46.299,38.816L46.341,38.892L46.379,39.010L46.430,39.094L46.509,39.142L46.601,39.182L46.648,39.217L46.684,39.244L46.706,39.289L46.723,39.395L46.747,39.437L46.782,39.457L46.862,39.472L46.897,39.486L46.968,39.539L47.013,39.588L47.108,39.718L47.262,39.842L47.410,39.867L47.565,39.852L47.736,39.857L47.854,39.945L47.901,40.116L47.905,40.315L47.889,40.491L47.828,40.642L47.714,40.725L47.582,40.790L47.469,40.886L47.428,41.057L47.598,41.322L47.582,41.463L47.661,41.541L47.935,41.585L48.459,41.603L48.755,41.570L48.757,41.570L48.796,41.508L48.825,41.432L48.838,41.341L48.831,41.230L48.785,41.023L48.792,40.935L48.847,40.834L48.873,40.763L48.842,40.715L48.674,40.614L48.650,40.588L48.648,40.554L48.673,40.526L48.705,40.502L48.721,40.476L48.709,40.268L48.722,40.152L48.852,40.040L48.826,39.903L48.721,39.689L48.700,39.580L48.685,39.217L48.669,39.188L48.544,39.048L48.529,39.038L48.485,39.018L48.469,39.007L48.449,38.978L48.422,38.921L48.398,38.895L48.365,38.876L48.251,38.831L48.203,38.823L48.145,38.804L48.115,38.758L48.093,38.701L48.010,38.565L47.925,38.321L47.991,38.274L48.354,38.028L48.425,37.951L48.454,37.853L48.452,37.635L48.472,37.560L48.480,37.533L48.603,37.382L48.623,37.326L48.561,37.172L48.549,37.114L48.584,36.860L48.680,36.654L48.794,36.515L48.825,36.479L49.187,36.143L49.285,36.075L49.403,36.044L49.505,36.050L49.612,36.080L49.698,36.139L49.736,36.231L49.780,36.273L49.850,36.307L49.915,36.310L49.949,36.260L49.964,36.174L49.990,36.142L50.116,36.129L50.612,35.976L50.666,35.974L50.764,35.992L50.812,35.988L50.867,35.959L51.244,35.692L51.322,35.601L51.372,35.483L51.377,35.396L51.348,35.229L51.346,35.142L51.382,35.002L51.435,34.797L51.487,34.007L51.520,33.521L51.566,32.835L51.595,32.400L51.595,32.395L51.611,32.169L51.462,31.552L51.340,31.039L51.319,30.950L51.318,30.822L51.352,30.685L51.604,30.078L51.747,29.731L51.942,29.257L51.830,29.261L51.763,29.250L51.729,29.201L51.676,28.053L51.646,27.959L51.585,27.879L51.332,27.616L51.142,27.370L50.955,27.126L50.408,26.416L49.958,25.830L49.609,25.140L49.163,24.592L48.688,24.008L48.128,23.321L47.676,22.764L47.220,22.334L46.689,21.833L46.530,21.732L46.526,21.729L46.352,21.664L46.174,21.636L45.508,21.647L45.425,21.630L45.369,21.600L45.353,21.578L45.347,21.545L45.322,21.484L45.217,21.290L45.156,21.204L45.068,21.113L45.050,21.095L45.044,21.085L44.873,20.686L44.860,20.236L44.894,19.771L44.834,19.223L44.762,18.566L44.676,17.796L44.608,17.181L44.321,16.124L44.015,15.005L43.886,14.532L43.878,14.501L43.902,14.254L44.013,13.977L44.573,13.099L44.969,12.478L45.180,11.938L45.220,11.721L45.230,11.499L45.195,11.261L45.194,11.161L45.244,11.091L45.424,11.045L47.054,11.065L49.224,11.087L49.441,11.081L49.450,11.111L49.485,11.146L49.533,11.163L49.661,11.169L49.684,11.167L49.753,11.138L49.754,11.133L49.788,11.123L49.808,11.110L49.833,11.113L49.879,11.150L49.907,11.191L49.920,11.229L49.944,11.260L50.003,11.280L50.010,11.186L50.066,11.181L50.150,11.216L50.236,11.238L50.358,11.167L50.364,11.167L50.644,11.091L50.697,11.056L50.733,10.943L50.777,10.867L50.834,10.794L50.897,10.752L50.857,10.631L50.953,10.572L51.214,10.523L51.306,10.448L51.468,10.235L51.537,10.186L51.750,10.227L51.897,10.292L51.930,10.302L52.127,10.299L52.196,10.335L52.286,10.448L52.236,10.570L52.283,10.674L52.380,10.728L52.481,10.697L52.556,10.692L52.664,10.742L52.854,10.864L52.905,10.885L53.020,10.917L53.070,10.939L53.114,10.975L53.148,11.011L53.183,11.040L53.230,11.051L53.314,11.093L53.343,11.196L53.355,11.320L53.390,11.430L53.357,11.512L53.372,11.625L53.419,11.724L53.479,11.767L53.693,11.729L53.756,11.741L53.836,11.792L53.890,11.808L53.967,11.799L54.156,11.743L54.319,11.717L54.355,11.692L54.382,11.666L54.407,11.654L55.014,11.654L55.055,11.684L55.086,11.813L55.119,11.842L55.148,11.853L55.279,11.921L55.369,11.931L55.695,11.876L55.772,11.848L55.911,11.833L55.949,11.808L55.977,11.772L56.028,11.729L56.220,11.653L56.279,11.620L56.326,11.575L56.471,11.354L56.706,11.065L56.794,11.034L56.844,11.060L56.947,11.068L57.076,11.155L57.153,11.170L57.634,11.125L57.683,11.103L57.729,11.067L57.811,11.017L57.873,11.186L58.014,11.370L58.196,11.529L58.379,11.620L58.821,11.725L59.048,11.750L59.234,11.729L59.285,11.705L59.326,11.678L59.366,11.658L59.415,11.654L59.475,11.684L59.568,11.785L59.610,11.808L59.868,11.883L59.986,11.883L60.085,11.866L60.120,11.847L60.164,11.808L60.193,11.753L60.222,11.677L60.263,11.609L60.326,11.579L60.434,11.556L60.622,11.452L60.735,11.430L60.900,11.428L61.012,11.408L61.108,11.350L61.340,11.157L61.719,10.984L61.827,10.905L61.892,10.845L61.934,10.772L61.925,10.704L61.893,10.637L61.872,10.564L61.900,10.441L62.025,10.210L62.017,10.111L62.066,10.044L62.146,9.796L62.160,9.715L62.195,9.668L62.522,9.475L62.608,9.453L62.820,9.440L62.866,9.427L62.915,9.373L63.212,9.320L63.330,9.323L63.370,9.324L63.370,9.315L63.386,9.299L63.413,9.286L63.445,9.286L63.454,9.299L63.481,9.350L63.498,9.361L63.548,9.378L63.650,9.456L63.712,9.474L63.772,9.463L63.887,9.413L63.939,9.398L64.179,9.437L64.366,9.572L64.653,9.886L64.837,9.984L65.249,10.092L65.402,10.184L65.405,10.186L65.534,10.019L66.047,9.657L66.164,9.504L66.247,9.430L66.402,9.386L66.507,9.335L66.564,9.324L66.626,9.331L66.739,9.358L66.796,9.361L66.891,9.308L67.098,9.103L67.167,9.058L67.276,9.029L67.367,8.963L67.506,8.836L67.682,8.794L68.362,8.795L68.542,8.758L68.703,8.682L68.825,8.708L69.037,8.828L69.147,8.870L69.285,8.872L69.416,8.831L69.537,8.762L70.557,7.911L70.639,7.864L70.728,7.834L71.130,7.802L72.002,7.603L72.134,7.545L72.655,7.171L73.191,6.932L73.290,6.878L73.941,6.348L74.086,6.292L74.147,6.230L74.245,6.097L74.552,5.779L74.749,5.626L75.086,5.503L75.273,5.364L75.438,5.191L75.521,5.032L75.609,5.000L75.690,5.020L75.721,5.075L75.666,5.147L75.764,5.171L75.904,5.048L75.990,5.107L76.016,5.222L75.961,5.314L75.883,5.386L75.844,5.447L75.883,5.534L75.978,5.571L76.086,5.593L76.167,5.635L76.203,5.718L76.216,5.905L76.254,5.993L76.328,6.037L76.532,6.064L76.612,6.105L76.655,6.197L76.579,6.221L76.380,6.201L76.212,6.250L75.773,6.610L75.808,6.801L75.849,6.771L75.878,6.737L75.899,6.699L75.915,6.651L76.015,6.740L76.380,6.930L76.475,7.042L76.377,7.147L76.092,7.288L75.998,7.377L75.892,7.518L75.829,7.673L75.883,7.876L75.841,8.065L75.883,8.120L75.942,8.105L76.010,7.968L76.060,7.933L76.193,7.992L76.191,8.148L76.120,8.324L76.041,8.438L75.874,8.622L75.844,8.682L75.841,8.753L75.880,8.890L75.883,8.945L75.819,9.040L75.472,9.304L75.433,9.375L75.357,9.567L75.314,9.622L75.248,9.646L75.123,9.646L75.062,9.656L75.116,9.739L75.161,9.844L75.201,9.885L75.240,9.772L75.319,9.820L75.401,9.900L75.472,9.990L75.521,10.069L75.671,10.030L75.700,10.204L75.667,10.388L75.631,10.601L75.576,10.771L75.534,10.846L75.472,10.921L75.450,11.008L75.511,11.093L75.591,11.171L75.631,11.238L75.599,11.300L75.482,11.438L75.472,11.485L75.528,11.565L75.545,11.629L75.559,11.807L75.584,11.915L75.680,12.011L75.697,12.040L75.703,12.075L75.713,12.342L75.742,12.437L75.808,12.522L75.853,12.496L75.881,12.491L75.954,12.522L75.813,12.671L75.777,12.831L75.813,12.995L75.883,13.157L76.041,13.389L76.041,13.439L75.962,13.526L75.929,13.583L75.915,13.760L75.853,14.024L75.844,14.101L75.864,14.199L75.960,14.350L75.990,14.438L75.979,14.529L75.939,14.642L75.880,14.738L75.808,14.779L75.734,14.756L75.660,14.724L75.608,14.738L75.595,14.854L75.723,14.823L75.838,14.912L75.920,15.057L75.954,15.195L75.938,15.271L75.905,15.338L75.883,15.407L75.899,15.494L75.944,15.539L76.016,15.552L76.167,15.532L76.151,15.589L76.121,15.635L76.078,15.667L75.959,15.699L75.925,15.749L75.883,15.866L75.747,16.065L75.736,16.158L75.808,16.244L75.863,16.269L75.926,16.280L76.145,16.291L76.172,16.317L76.167,16.693L76.186,16.772L76.233,16.807L76.292,16.823L76.443,16.903L76.471,16.948L76.435,17.016L76.383,17.024L76.294,16.919L76.238,16.919L76.203,16.973L76.206,17.043L76.255,17.284L76.299,17.286L76.356,17.255L76.415,17.260L76.453,17.317L76.497,17.460L76.522,17.488L76.585,17.507L76.613,17.553L76.613,17.614L76.593,17.675L76.509,17.764L76.398,17.789L76.286,17.759L76.202,17.675L76.198,17.720L76.207,17.775L76.223,17.818L76.238,17.826L76.161,17.875L76.015,17.862L75.990,17.903L76.022,17.949L76.086,17.992L76.132,18.056L76.112,18.163L76.053,18.309L76.022,18.354L75.976,18.399L75.962,18.404L75.950,18.383L75.915,18.354L75.920,18.308L75.902,18.271L75.844,18.241L75.798,18.236L75.766,18.245L75.617,18.327L75.510,18.405L75.422,18.495L75.385,18.579L75.394,18.683L75.421,18.742L75.684,18.990L75.763,19.017L75.844,18.988L75.913,18.891L75.886,18.814L75.830,18.738L75.808,18.650L75.850,18.612L75.929,18.608L76.016,18.631L76.076,18.669L76.151,18.690L76.239,18.665L76.313,18.666L76.344,18.763L76.315,18.941L76.191,19.259L76.167,19.441L76.179,19.539L76.227,19.724L76.238,19.820L76.202,20.233L76.173,20.340L76.106,20.404L76.034,20.458L75.990,20.535L76.003,20.600L76.072,20.573L76.202,20.461L76.202,20.910L76.226,20.900L76.285,20.886L76.309,20.876L76.288,21.001L76.131,21.176L76.092,21.268L76.081,21.503L76.051,21.618L75.990,21.700L75.990,21.701L76.080,21.778L76.156,21.878L76.237,21.964L76.344,22.000L76.351,22.036L76.283,22.120L76.112,22.284L76.054,22.391L76.071,22.515L76.213,22.831L76.239,22.930L76.320,23.582L76.388,23.730L76.391,23.789L76.401,23.850L76.482,23.930L76.517,23.976L76.546,24.028L76.558,24.072L76.570,24.209L76.622,24.450L76.632,24.563L76.607,24.710L76.548,24.776L76.344,24.857L76.404,24.893L76.455,24.945L76.481,25.010L76.470,25.086L76.419,25.149L76.352,25.174L76.202,25.197L76.050,25.291L76.085,25.383L76.161,25.496L76.131,25.651L76.202,25.627L76.261,25.522L76.307,25.520L76.343,25.566L76.327,25.622L76.318,25.677L76.380,25.725L76.302,25.785L76.270,25.800L76.325,25.833L76.379,25.832L76.432,25.806L76.487,25.763L76.485,25.603L76.614,25.500L76.870,25.390L76.934,25.435L76.997,25.512L77.026,25.595L77.015,25.761L77.042,25.823L77.129,25.875L77.072,25.954L77.047,26.058L77.045,26.165L77.058,26.254L76.987,26.278L76.864,26.379L76.809,26.403L76.737,26.381L76.638,26.274L76.558,26.254L76.664,26.854L76.571,26.823L76.523,26.858L76.528,26.920L76.593,26.969L76.487,27.082L76.497,27.112L76.520,27.142L76.545,27.160L76.558,27.157L76.519,27.412L76.522,27.497L76.632,27.391L76.709,27.264L76.851,26.802L76.892,26.760L77.205,26.605L77.271,26.591L77.417,26.643L77.557,26.772L77.631,26.938L77.576,27.101L77.509,27.147L77.349,27.185L77.271,27.214L77.202,27.277L77.207,27.325L77.263,27.351L77.342,27.348L77.395,27.310L77.442,27.255L77.493,27.227L77.558,27.269L77.585,27.346L77.577,27.440L77.469,27.753L77.478,27.812L77.523,27.906L77.540,27.925L77.570,27.946L77.603,27.977L77.630,28.023L77.636,28.059L77.636,28.134L77.647,28.172L77.659,28.259L77.587,28.580L77.577,28.611L77.580,28.638L77.612,28.678L77.630,28.710L77.631,28.741L77.618,28.771L77.594,28.793L77.345,28.901L77.306,28.942L77.280,28.989L77.094,29.188L77.026,29.257L76.940,29.303L76.846,29.330L76.755,29.338L76.711,29.304L76.653,29.138L76.593,29.076L76.614,29.179L76.619,29.283L76.648,29.376L76.738,29.450L76.821,29.464L77.068,29.464L77.129,29.450L77.183,29.538L77.238,29.661L77.277,29.782L77.274,29.866L77.197,29.799L77.144,29.794L77.094,29.815L77.026,29.829L76.738,29.750L76.691,29.850L76.757,30.008L76.951,30.279L76.790,30.338L76.628,30.360L76.485,30.417L76.380,30.582L76.305,30.553L76.200,30.528L76.095,30.521L76.022,30.541L75.995,30.598L75.951,30.797L75.915,30.878L76.100,30.908L76.193,30.941L76.270,30.994L76.315,30.829L76.419,30.764L76.553,30.782L76.683,30.861L76.755,30.983L76.794,31.158L76.772,31.311L76.664,31.370L76.730,31.453L76.717,31.522L76.522,31.740L76.498,31.776L76.508,31.863L76.492,31.909L76.465,31.956L76.435,31.993L76.335,32.087L76.309,32.122L76.300,32.163L76.308,32.252L76.289,32.293L76.246,32.366L76.227,32.449L76.245,32.506L76.309,32.501L76.274,32.581L76.230,32.651L76.171,32.711L76.092,32.763L76.023,32.794L75.975,32.798L75.844,32.763L75.828,32.907L75.749,33.003L75.540,33.158L75.463,33.255L75.140,33.803L74.104,34.906L73.884,35.038L73.852,35.086L73.841,35.155L73.819,35.217L73.760,35.244L73.712,35.252L73.644,35.273L73.586,35.310L73.564,35.360L73.623,35.422L73.734,35.358L73.919,35.169L73.949,35.295L73.908,35.392L73.847,35.481L73.816,35.585L73.793,35.721L73.732,35.806L73.564,35.963L73.348,36.385L73.208,36.590L73.028,36.679L72.695,36.685L72.599,36.713L72.277,36.890L72.121,37.027L72.108,37.051L72.117,37.098L72.152,37.118L72.211,37.126L72.214,37.191L72.207,37.326L72.211,37.391L72.249,37.505L72.315,37.602L72.401,37.678L72.499,37.729L72.263,37.882L72.175,37.916L72.169,37.877L72.143,37.805L72.137,37.766L72.087,37.790L72.036,37.803L71.982,37.808L71.927,37.803L71.954,37.829L72.003,37.890L72.031,37.916L71.891,37.967L71.838,38.000L71.782,38.066L71.789,38.076L71.795,38.110L71.791,38.154L71.766,38.197L71.678,38.291L71.575,38.368L71.362,38.490L71.207,38.619L70.998,38.688L70.948,38.724L70.816,38.860L69.899,39.344L69.109,39.855L69.021,39.932L68.886,40.134L68.813,40.183L68.718,40.134L68.717,40.156L68.717,40.246L68.659,40.321L68.568,40.368L68.466,40.397L68.557,40.431L68.635,40.406L68.682,40.406L68.682,40.513L68.651,40.612L68.592,40.700L68.517,40.771L68.434,40.813L68.247,40.834L68.065,40.823L67.892,40.839L67.591,41.046L67.398,41.110L66.580,41.188L66.502,41.157L66.379,41.026L66.293,41.000L66.407,41.157L66.313,41.274L66.121,41.348L65.942,41.378L65.964,41.278L65.721,41.528L65.640,41.527L65.584,41.487L65.543,41.445L65.509,41.435L65.467,41.469L65.447,41.511L65.449,41.558L65.473,41.604L64.003,42.197L63.935,42.247L63.817,42.386L63.743,42.439L63.655,42.435L63.560,42.309L63.553,41.939L63.477,41.831L63.513,41.944L63.451,41.969L63.385,41.964L63.322,41.940L63.264,41.907L63.337,42.019L63.459,42.148L63.518,42.269L63.406,42.360L63.510,42.432L63.389,42.527L63.052,42.660L62.370,42.810L62.083,42.965L61.411,43.432L61.358,43.440L61.372,43.369L61.242,43.424L61.050,43.593L60.843,43.736L60.662,43.709L60.534,43.856L59.866,44.257L59.726,44.398L59.648,44.456L59.573,44.475L59.519,44.429L59.431,44.556L59.380,44.600L59.306,44.617L59.167,44.620L59.114,44.652L59.093,44.727L59.035,44.815L58.902,44.904L58.747,44.951L58.628,44.916L58.605,45.119L58.457,45.309L58.092,45.632L57.712,46.271L57.559,46.419L57.557,46.376L57.524,46.269L57.488,46.306L57.441,46.236L57.396,46.183L57.342,46.142L57.274,46.105L57.200,46.048L57.182,45.980L57.182,45.904L57.165,45.819L57.059,45.697L56.909,45.644L56.772,45.679L56.704,45.819L56.871,45.708L56.984,45.796L57.057,45.980L57.097,46.156L57.122,46.360L57.161,46.430L57.335,46.473L57.395,46.511L57.453,46.561L57.524,46.606L57.364,46.910L57.293,47.003L57.158,47.145L57.114,47.223L57.097,47.322L57.056,47.389L56.958,47.373L56.839,47.333L56.739,47.325L56.660,47.377L56.607,47.456L56.526,47.625L56.624,47.588L56.776,47.475L56.849,47.438L56.787,47.553L56.426,47.999L56.215,48.179L55.726,48.754L55.483,48.980L55.312,49.019L55.274,49.240L55.241,49.320L55.207,49.295L55.099,49.244L55.116,49.353L55.134,49.391L55.067,49.384L54.972,49.387L54.900,49.406L54.903,49.449L54.934,49.516L54.908,49.580L54.815,49.694L54.612,50.132L54.531,50.257L54.540,50.184L54.529,50.136L54.501,50.120L54.460,50.144L54.439,50.187L54.423,50.307L54.377,50.424L54.420,50.439L54.468,50.416L54.460,50.373L54.479,50.384L54.515,50.400L54.531,50.410L54.537,50.427L54.537,50.480L54.605,50.606L54.560,50.660L54.473,50.693L54.405,50.728L54.307,50.766L54.189,50.728L54.072,50.667L53.977,50.635L53.856,50.515L53.679,50.162L53.672,50.332L53.785,50.712L53.814,50.909L53.742,51.089L53.788,51.102L53.821,51.129L53.841,51.167L53.849,51.218L53.829,51.242L53.783,51.234L53.711,51.200L53.540,51.228L53.388,51.275L53.203,51.295L53.126,51.217L53.101,50.901L53.112,50.860L53.132,50.809L53.132,50.766L53.084,50.747L53.035,50.755L53.005,50.776L52.848,50.951L52.599,51.324L52.490,51.407L52.319,51.429L52.350,51.317L52.330,51.258L52.278,51.254L52.215,51.313L52.185,51.392L52.163,51.491L52.132,51.585L52.071,51.650L51.959,51.676L51.897,51.629L51.849,51.564L51.782,51.534L51.732,51.547L51.688,51.574L51.657,51.617L51.644,51.671L51.661,51.724L51.700,51.714L51.748,51.687L51.782,51.691L51.751,51.778L51.001,52.294L50.954,52.349L50.874,52.468L50.821,52.516L50.755,52.499L50.683,52.572L50.572,52.778L50.610,52.759L50.639,52.751L50.714,52.741L50.714,52.778L50.570,52.860L50.432,52.971L50.178,53.228L50.285,53.228L50.241,53.304L50.009,53.572L49.971,53.599L49.912,53.610L49.866,53.628L49.847,53.671L49.832,53.726L49.804,53.777L49.536,54.135L49.006,54.700L48.396,55.191L47.898,55.712L47.717,55.791L47.587,55.828L47.303,56.121L47.146,56.241L47.099,56.184L47.039,56.225L46.898,56.395L46.614,56.582L46.450,56.518L46.406,56.478L46.368,56.395L46.340,56.237L46.318,56.161L46.279,56.129L46.236,56.100L46.016,55.904L45.767,55.812L45.708,55.770L45.503,55.461L45.459,55.413L45.381,55.376L45.346,55.291L45.327,55.191L45.296,55.113L45.246,55.078L45.163,55.042L45.072,55.014L44.994,55.004L44.914,55.039L44.860,55.191L44.796,55.225L44.796,55.266L44.877,55.261L44.976,55.173L45.064,55.151L45.155,55.163L45.229,55.199L45.278,55.264L45.315,55.434L45.359,55.518L45.635,55.921L45.668,55.941L45.720,55.960L45.812,55.979L45.860,55.997L45.892,56.040L45.939,56.129L46.061,56.267L46.081,56.317L46.057,56.462L45.977,56.613L45.860,56.711L45.726,56.695L45.739,56.789L45.788,56.789L45.850,56.750L45.903,56.728L45.995,56.757L46.015,56.801L45.974,56.957L45.977,57.046L46.011,57.224L46.016,57.294L46.010,57.340L46.000,57.369L45.983,57.395L45.956,57.427L45.932,57.479L45.942,57.526L45.962,57.570L45.974,57.615L45.967,57.735L45.974,57.788L45.990,57.830L46.036,57.910L46.052,57.993L46.077,58.073L46.081,58.122L46.067,58.167L46.025,58.219L46.016,58.257L45.972,58.322L45.871,58.293L45.708,58.197L45.622,58.219L45.548,58.253L45.489,58.250L45.445,58.164L45.451,58.205L45.450,58.236L45.445,58.275L45.525,58.367L45.903,58.576L45.903,58.610L45.860,58.654L45.821,58.720L45.787,58.798L45.731,58.982L45.707,59.040L45.601,59.157L45.573,59.237L45.696,59.322L45.671,59.381L45.591,59.440L45.522,59.464L45.453,59.452L45.367,59.397L45.386,59.478L45.414,59.559L45.450,59.630L45.493,59.685L45.561,59.732L45.672,59.753L45.726,59.779L45.741,59.816L45.762,59.896L45.769,59.988L45.743,60.062L45.538,60.236L45.513,60.303L45.695,60.208L45.804,60.183L45.885,60.211L45.898,60.353L45.936,60.408L46.016,60.344L46.058,60.459L46.127,60.511L46.217,60.549L46.313,60.625L46.367,60.693L46.406,60.763L46.431,60.850L46.439,60.965L46.467,61.015L46.616,60.907L46.685,60.948L46.679,61.034L46.611,61.086L46.552,61.145L46.574,61.247L46.604,61.200L46.646,61.169L46.698,61.149L46.759,61.135L47.007,61.154L47.034,61.199L47.204,61.341L47.224,61.395L47.228,61.473L47.220,61.619L47.277,61.585L47.322,61.588L47.353,61.625L47.363,61.694L47.346,61.732L47.273,61.806L47.256,61.864L47.288,61.960L47.447,62.108L47.508,62.185L47.473,62.251L47.445,62.324L47.431,62.402L47.434,62.485L47.579,62.367L47.653,62.349L47.756,62.410L47.792,62.441L47.801,62.454L47.806,62.474L47.828,62.526L47.823,62.563L47.823,62.564L47.800,62.599L47.799,62.626L47.863,62.638L47.828,62.759L47.798,62.816L47.756,62.866L47.700,62.830L47.642,62.824L47.597,62.853L47.579,62.921L47.595,62.961L47.630,62.970L47.666,62.969L47.685,62.975L47.690,63.009L47.684,63.053L47.684,63.207L47.648,63.290L47.580,63.338L47.488,63.353L47.453,63.332L47.411,63.296L47.368,63.289L47.331,63.353L47.324,63.433L47.354,63.470L47.403,63.491L47.481,63.544L47.502,63.547L47.521,63.553L47.540,63.579L47.543,63.607L47.533,63.639L47.519,63.661L47.508,63.657L47.517,63.720L47.515,63.769L47.527,63.808L47.579,63.845L47.547,63.910L47.582,63.939L47.642,63.958L47.685,63.994L47.699,64.071L47.662,64.100L47.601,64.113L47.540,64.144L47.485,64.211L47.506,64.233L47.562,64.247L47.614,64.294L47.628,64.357L47.614,64.591L47.744,64.454L47.899,63.804L47.906,63.899L47.869,64.254L47.820,64.413L47.863,64.894L48.027,65.315L48.342,65.851L48.418,65.945L48.487,65.985L48.648,66.360L48.661,66.594L48.635,67.071L48.684,67.307L48.839,67.645L48.860,67.735L48.885,68.084L48.939,68.344L48.985,68.803L48.830,70.213L48.828,70.447L48.859,70.581L48.932,70.646L49.026,70.681L49.113,70.729L49.213,70.909L49.288,70.992L49.322,70.933L49.308,70.693L49.346,70.612L49.465,70.541L49.343,70.342L49.273,70.074L49.272,69.805L49.361,69.601L49.340,69.551L49.343,69.510L49.363,69.475L49.396,69.447L49.457,69.609L49.506,69.647L49.574,69.559L49.444,69.328L49.396,69.297L49.423,69.231L49.536,69.073L49.540,69.041L49.534,69.003L49.534,68.970L49.556,68.957L49.578,68.949L49.608,68.934L49.634,68.916L49.645,68.904L49.668,68.840L49.722,68.816L49.782,68.822L49.823,68.844L49.843,68.896L49.842,68.960L49.823,69.091L49.929,70.017L49.970,69.923L49.990,69.828L50.010,69.521L50.056,69.389L50.072,69.297L50.107,69.297L50.036,69.975L50.036,70.086L50.072,70.447L50.059,70.564L49.801,71.415L49.784,72.102L49.947,73.297L50.036,73.513L50.087,73.445L50.102,73.412L50.107,73.363L50.197,73.403L50.282,73.404L50.324,73.375L50.285,73.322L50.285,73.288L50.391,73.336L50.364,73.495L50.175,73.873L50.060,74.036L49.858,74.525L49.764,74.688L49.727,74.775L49.713,74.886L49.725,75.001L49.776,75.203L49.784,75.316L49.747,75.547L49.444,76.443L49.361,77.159L49.361,77.632L49.349,77.742L49.315,77.863L49.269,77.911L49.216,77.800L49.221,77.695L49.244,77.598L49.223,77.525L49.095,77.497L49.009,77.517L49.026,77.561L49.082,77.602L49.113,77.613L49.144,77.740L49.148,77.800L49.137,77.904L49.089,78.119L49.077,78.233L49.086,78.414L49.077,78.481L49.059,78.537L49.020,78.614L49.006,78.669L49.009,78.702L49.033,78.808L49.038,78.874L49.027,78.936L48.979,79.041L48.967,79.100L49.013,79.095L49.255,78.816L49.171,78.626L49.163,78.525L49.216,78.441L49.292,78.427L49.367,78.471L49.503,78.591L49.602,78.636L49.663,78.637L49.696,78.588L49.735,78.203L49.713,78.141L49.713,78.100L49.926,78.152L49.981,78.213L50.006,78.457L50.021,78.499L50.054,78.516L50.064,78.544L49.765,79.495L49.752,79.607L49.763,79.678L49.812,79.790L49.823,79.851L49.805,79.902L49.768,79.939L49.730,79.970L49.713,79.998L49.686,80.107L49.625,80.210L48.822,81.358L48.233,81.980L48.218,82.035L48.216,82.106L48.205,82.161L48.178,82.209L47.792,82.578L46.262,83.366L45.412,83.758L44.547,83.969L44.534,83.974L43.854,84.254L43.718,84.292L43.140,84.526L42.850,84.571L41.692,84.985L40.627,85.363L39.879,85.744L39.252,85.956L38.487,86.362L38.276,86.415L38.276,86.378L38.361,86.341L38.447,86.285L38.520,86.220L38.564,86.150L38.495,86.171L38.283,86.272L38.238,86.323L38.174,86.369L38.046,86.382L37.951,86.418L37.986,86.532L38.017,86.513L38.093,86.487L38.017,86.608L37.897,86.682L37.631,86.794L37.521,86.868L36.172,87.772L36.027,87.930L35.754,88.300L35.635,88.529L35.541,88.881L35.468,88.999L35.506,89.272L35.481,89.320L35.486,89.289L35.475,89.250L35.454,89.200L35.422,89.200L35.386,89.245L35.337,89.276L35.296,89.311L35.277,89.369L35.272,89.447L35.258,89.521L35.237,89.588L35.206,89.650L34.961,89.875L34.922,89.937L34.894,89.969L34.757,90.079L34.709,90.106L34.647,90.111L34.603,90.096L34.496,90.031L34.409,90.004L34.320,90.002L34.234,90.028L34.156,90.087L34.113,90.192L34.133,90.294L34.188,90.354L34.243,90.328L34.238,90.302L34.243,90.123L34.279,90.104L34.356,90.116L34.435,90.141L34.478,90.161L34.504,90.203L34.542,90.294L34.567,90.328L34.618,90.358L34.729,90.399L34.783,90.444L34.820,90.504L34.867,90.629L34.904,90.690L34.949,90.730L34.989,90.757L35.017,90.789L35.048,90.957L35.142,91.192L35.174,91.310L35.264,91.229L35.396,91.256L35.524,91.328L35.601,91.385L35.713,91.516L35.780,91.641L35.855,91.751L35.955,91.835L36.015,91.861L36.069,91.839L36.129,91.807L36.207,91.800L36.159,91.626L36.152,91.481L36.180,91.335L36.239,91.160L36.287,90.906L36.330,90.840L36.394,90.795L36.597,90.710L36.601,90.857L36.467,91.737L36.409,93.265L36.338,93.680L36.291,93.804L36.278,93.869L36.310,94.094L36.278,94.528L36.267,94.583L36.207,94.735L36.216,94.790L36.262,94.870L36.278,94.922L35.474,94.945L34.744,94.965L34.072,94.984L33.465,95.000L33.171,94.955L32.792,94.896L32.642,94.890L32.377,94.920L32.225,94.889ZM45.647,13.408L45.578,13.458L45.482,13.696L45.448,13.825L45.450,13.940L45.516,14.053L45.620,14.090L45.738,14.070L45.847,14.005L45.928,13.903L45.986,13.767L46.002,13.628L45.959,13.517L45.877,13.458L45.759,13.415L45.647,13.408ZM44.958,13.289L44.855,13.377L44.866,13.469L45.005,13.631L45.072,13.730L45.137,13.801L45.215,13.805L45.322,13.694L45.372,13.504L45.300,13.336L45.149,13.244L44.963,13.285L44.958,13.289ZM36.349,90.594L36.290,90.433L36.409,90.284L36.597,90.170L36.744,90.106L36.740,90.168L36.705,90.328L36.650,90.485L36.633,90.519L36.584,90.567L36.571,90.573L36.554,90.550L36.495,90.519L36.474,90.493L36.472,90.456L36.453,90.432L36.385,90.444L36.386,90.466L36.349,90.594ZM49.681,65.838L49.740,65.730L49.787,65.734L49.816,65.818L49.823,65.950L49.791,66.347L49.607,67.113L49.501,67.121L49.460,67.044L49.457,66.935L49.514,66.518L49.681,65.838ZM72.777,36.884L72.954,36.903L72.969,37.028L72.945,37.140L72.807,37.285L72.764,37.445L72.774,37.542L72.745,37.619L72.616,37.658L72.501,37.620L72.376,37.513L72.300,37.325L72.319,37.112L72.376,37.015L72.524,36.942L72.777,36.884Z" fill="currentColor" stroke="currentColor" stroke-width="1.5" stroke-linejoin="round"/>
</svg>