<svg xmlns="http://www.w3.org/2000/svg" viewBox="0 0 100 100" role="img" aria-label="Mauritania">
  <title>Mauritania</title>
  <path d="M65.189,5.000L66.514,5.835L67.839,6.669L69.163,7.504L70.488,8.338L71.813,9.173L73.138,10.007L74.462,10.842L75.787,11.676L77.112,12.511L78.437,13.346L79.761,14.180L81.086,15.015L82.208,15.722L83.330,16.429L84.453,17.136L85.410,17.739L85.575,17.842L86.385,18.353L87.547,19.121L88.709,19.888L89.871,20.656L91.033,21.423L89.550,21.425L88.068,21.425L86.586,21.426L85.104,21.427L83.622,21.428L82.139,21.429L80.657,21.429L79.174,21.430L79.239,22.002L79.304,22.572L79.368,23.143L79.433,23.715L79.498,24.285L79.562,24.856L79.627,25.427L79.692,25.998L79.755,26.580L79.760,26.621L79.808,27.065L79.914,28.040L80.021,29.016L80.069,29.459L80.164,30.325L80.258,31.190L80.353,32.056L80.447,32.921L80.542,33.787L80.636,34.652L80.657,34.841L80.731,35.517L80.826,36.382L80.920,37.248L81.015,38.113L81.109,38.978L81.204,39.844L81.298,40.709L81.393,41.574L81.487,42.440L81.582,43.305L81.676,44.171L81.771,45.035L81.865,45.901L81.960,46.766L82.054,47.632L82.149,48.497L82.243,49.362L82.338,50.227L82.384,50.648L82.485,51.572L82.585,52.496L82.631,52.915L82.716,53.689L82.812,54.585L82.908,55.481L83.004,56.377L83.101,57.274L83.197,58.170L83.293,59.066L83.389,59.962L83.485,60.858L83.485,60.859L83.586,61.846L83.630,62.265L83.672,62.683L83.715,63.101L83.758,63.519L83.826,64.185L83.894,64.850L83.963,65.515L84.030,66.179L84.098,66.845L84.166,67.510L84.235,68.175L84.303,68.840L84.371,69.505L84.440,70.170L84.508,70.835L84.576,71.500L84.642,72.147L84.708,72.793L84.775,73.440L84.841,74.088L84.907,74.734L84.973,75.381L85.040,76.028L85.106,76.675L85.173,77.322L85.239,77.969L85.305,78.615L85.372,79.262L85.438,79.910L85.504,80.556L85.571,81.204L85.637,81.851L85.666,82.140L85.725,82.254L85.783,82.369L86.047,82.558L86.293,82.734L86.590,82.946L86.854,83.135L87.128,83.331L87.396,83.523L87.428,83.559L87.460,83.596L87.467,83.642L87.474,83.688L87.436,83.900L87.314,84.578L87.192,85.257L87.069,85.935L86.947,86.614L86.821,87.310L86.695,88.006L86.570,88.702L86.444,89.399L86.438,89.434L86.433,89.461L86.432,89.469L86.425,89.504L86.418,89.539L86.418,89.541L86.418,89.543L86.418,89.544L86.418,89.545L86.418,89.547L86.418,89.548L86.418,89.549L86.418,89.551L86.418,89.552L86.417,89.553L86.416,89.553L86.416,89.554L86.416,89.555L86.415,89.555L86.414,89.557L86.413,89.557L86.412,89.557L86.410,89.557L86.409,89.557L86.408,89.557L86.406,89.557L86.405,89.557L86.404,89.557L86.402,89.557L86.400,89.557L86.398,89.556L86.396,89.555L86.393,89.554L86.391,89.554L86.389,89.553L86.387,89.552L86.385,89.551L85.333,89.551L84.435,89.551L84.013,89.551L83.558,89.551L83.072,89.550L82.557,89.550L81.661,89.549L81.002,89.549L80.703,89.549L79.691,89.549L78.633,89.548L77.541,89.548L76.421,89.547L75.282,89.547L74.135,89.546L72.988,89.546L71.851,89.546L70.730,89.545L69.637,89.545L68.580,89.544L67.568,89.544L66.609,89.544L65.714,89.543L65.142,89.543L64.607,89.543L64.111,89.543L63.657,89.543L63.041,89.542L62.938,89.542L62.116,89.542L61.886,89.542L60.725,89.541L60.767,88.887L60.858,88.397L60.837,88.165L60.677,88.091L60.546,88.177L60.137,88.686L60.039,88.877L60.038,89.086L60.145,89.539L60.225,89.937L58.563,90.007L58.237,90.077L58.104,90.137L57.725,90.368L57.469,90.434L56.694,90.362L55.916,90.480L55.644,90.472L55.488,90.423L55.244,90.262L55.108,90.193L55.056,90.189L54.933,90.213L54.874,90.213L54.302,89.975L54.209,89.961L53.887,89.987L53.702,89.950L53.019,89.938L52.918,89.957L52.787,89.928L52.677,89.946L52.454,90.025L52.437,90.032L52.305,90.052L52.025,90.049L51.621,89.984L51.513,89.990L51.439,90.065L51.414,90.201L51.422,90.498L51.370,90.649L51.318,90.703L51.210,90.767L51.136,90.884L51.080,90.895L51.012,90.895L50.940,90.922L50.831,91.032L50.783,91.149L50.718,91.414L50.643,91.535L50.463,91.713L50.405,91.828L50.302,92.237L50.242,92.358L50.022,92.006L49.774,91.751L49.589,91.377L49.371,91.158L47.679,89.861L47.553,89.713L46.933,88.777L46.764,88.625L46.607,88.557L46.225,88.474L46.164,88.481L46.145,88.488L46.156,88.518L46.174,88.540L46.197,88.558L46.225,88.576L46.240,88.612L46.245,88.648L46.240,88.685L46.225,88.721L46.165,88.791L46.087,88.829L45.909,88.884L45.797,88.951L45.559,89.215L45.363,89.320L45.184,89.306L45.005,89.246L44.977,89.242L44.808,89.215L44.808,89.460L44.792,89.538L44.622,89.732L44.536,89.960L44.430,90.472L44.206,90.972L44.178,91.087L44.140,91.428L44.014,91.811L43.997,91.961L44.003,92.029L44.023,92.129L44.017,92.202L43.939,92.491L43.924,92.708L43.912,92.744L43.978,92.795L44.022,92.778L44.057,92.744L44.100,92.744L44.178,92.810L44.227,92.891L44.245,92.993L44.231,93.123L44.231,93.125L44.182,93.237L44.147,93.365L44.112,93.623L44.118,93.667L44.136,93.701L44.183,93.767L44.183,93.813L44.145,93.837L44.098,93.851L44.071,93.862L44.048,93.895L44.014,93.933L43.979,93.981L43.953,94.047L43.900,94.142L43.801,94.232L43.679,94.300L43.409,94.360L43.313,94.447L43.155,94.674L43.038,94.759L42.907,94.797L42.773,94.796L42.648,94.765L42.599,94.802L42.563,94.915L42.509,95.000L42.435,94.960L42.153,94.697L42.051,94.641L41.908,94.666L41.620,94.772L41.476,94.792L41.329,94.766L41.213,94.709L40.841,94.406L40.420,94.200L40.302,94.097L40.077,93.817L39.984,93.759L39.980,93.682L39.824,93.110L39.793,93.040L39.735,92.972L39.663,92.930L39.507,92.893L39.436,92.849L39.319,92.757L38.950,92.531L38.863,92.417L38.811,92.362L38.748,92.339L38.645,92.356L38.434,92.423L38.365,92.432L38.360,92.433L38.181,92.354L37.983,92.155L37.930,92.102L37.761,92.046L37.753,92.026L37.733,91.961L37.728,91.905L37.764,91.723L37.763,91.664L37.746,91.609L37.711,91.560L37.650,91.516L37.583,91.496L37.512,91.496L37.369,91.527L37.305,91.525L37.245,91.504L37.187,91.456L37.034,91.296L36.994,91.207L37.062,91.153L37.290,91.178L37.401,91.159L37.438,91.060L37.394,90.943L37.309,90.849L36.910,90.566L36.829,90.475L36.774,90.365L36.748,90.248L36.747,90.008L36.735,89.953L36.705,89.899L36.637,89.807L36.615,89.758L36.588,89.560L36.568,89.498L36.525,89.444L36.419,89.393L36.314,89.408L36.216,89.465L36.127,89.539L36.026,89.604L35.930,89.617L35.725,89.562L35.687,89.531L35.663,89.466L35.651,89.405L35.650,89.342L35.688,89.072L35.672,88.971L35.624,88.887L35.552,88.819L35.468,88.768L35.314,88.725L35.265,88.704L35.142,88.611L35.093,88.591L34.996,88.585L34.795,88.622L34.694,88.625L34.631,88.447L34.621,88.386L34.629,88.323L34.653,88.264L34.754,88.100L34.766,88.048L34.759,87.995L34.730,87.935L34.654,87.819L34.609,87.769L34.555,87.726L34.453,87.664L34.406,87.626L34.371,87.577L34.362,87.515L34.377,87.455L34.400,87.394L34.414,87.334L34.413,87.195L34.380,87.073L34.321,86.962L34.200,86.815L34.171,86.773L34.157,86.724L34.157,86.665L34.182,86.544L34.186,86.483L34.172,86.423L34.133,86.368L33.964,86.235L33.905,86.172L33.854,86.103L33.811,86.029L33.718,85.787L33.709,85.732L33.702,85.606L33.686,85.551L33.645,85.500L33.461,85.371L33.428,85.329L33.374,85.232L33.341,85.194L33.240,85.192L32.996,85.291L32.928,85.242L32.940,85.131L33.053,84.913L33.040,84.813L32.996,84.804L32.958,84.806L32.921,84.817L32.830,84.856L32.477,84.934L32.274,85.025L32.224,85.041L32.200,85.043L32.074,85.044L32.036,85.053L31.852,85.154L31.809,85.167L31.762,85.158L31.747,85.149L31.703,85.109L31.685,85.098L31.644,85.082L31.628,85.072L31.619,85.062L31.609,85.036L31.601,85.024L31.571,85.001L31.501,84.973L31.470,84.952L31.448,84.877L31.478,84.783L31.516,84.662L31.530,84.570L31.466,84.562L31.404,84.566L31.345,84.583L31.288,84.617L31.238,84.667L31.119,84.846L31.073,84.898L30.965,84.984L30.856,85.049L30.803,85.069L30.749,85.075L30.692,85.060L30.631,85.021L30.578,84.968L30.536,84.905L30.504,84.836L30.448,84.643L30.414,84.585L30.370,84.535L30.265,84.452L30.210,84.419L29.947,84.339L29.833,84.275L29.808,84.160L29.842,84.032L29.840,83.971L29.811,83.907L29.745,83.818L29.731,83.771L29.743,83.710L29.786,83.600L29.781,83.550L29.741,83.501L29.679,83.466L29.548,83.413L29.488,83.373L29.371,83.228L29.326,83.185L29.104,83.052L28.706,82.679L28.479,82.405L28.320,82.288L28.273,82.243L28.159,82.089L28.105,82.055L28.028,82.041L27.868,82.030L27.798,81.996L27.763,81.940L27.755,81.812L27.732,81.757L27.667,81.725L27.411,81.748L27.348,81.719L27.337,81.664L27.372,81.528L27.375,81.449L27.347,81.396L27.295,81.359L26.871,81.186L26.739,81.195L26.675,81.221L26.500,81.330L26.433,81.361L26.363,81.381L26.292,81.389L26.219,81.388L25.948,81.329L25.877,81.331L25.596,81.413L25.522,81.416L25.448,81.402L25.260,81.310L25.201,81.293L25.135,81.295L24.909,81.356L24.832,81.366L23.688,81.280L23.484,81.331L23.361,81.311L23.291,81.220L23.240,81.116L23.234,81.104L23.147,81.007L23.071,80.967L22.921,81.031L22.852,81.079L22.809,81.145L22.788,81.245L22.773,81.292L22.740,81.336L22.699,81.368L22.651,81.389L22.602,81.393L22.553,81.377L22.484,81.308L22.431,81.226L22.370,81.156L22.274,81.126L22.178,81.153L22.120,81.224L22.107,81.317L22.147,81.413L22.255,81.522L22.277,81.568L22.275,81.621L22.246,81.662L22.202,81.691L22.061,81.746L21.342,81.863L21.234,81.867L20.918,81.816L20.703,81.823L20.598,81.847L20.316,81.968L20.222,81.993L20.124,81.995L20.041,81.958L19.995,81.891L19.957,81.818L19.894,81.764L19.793,81.755L19.695,81.800L19.612,81.877L19.450,82.118L19.385,82.180L19.306,82.221L19.207,82.231L18.920,82.170L18.817,82.186L18.738,82.237L18.590,82.378L18.498,82.438L18.399,82.473L18.296,82.479L18.191,82.451L18.033,82.373L17.977,82.356L17.759,82.343L17.457,82.241L17.350,82.235L17.185,82.266L17.128,82.266L16.895,82.207L16.800,82.218L16.535,82.341L16.485,82.351L16.443,82.347L16.357,82.311L16.301,82.297L16.251,82.306L16.203,82.332L16.156,82.367L15.996,82.390L15.845,82.372L15.709,82.304L15.596,82.180L15.515,82.056L15.465,82.003L15.404,81.964L15.319,81.947L15.239,81.962L15.162,81.999L14.965,82.143L14.897,82.176L14.821,82.191L14.746,82.185L14.524,82.141L14.372,82.173L14.229,82.263L14.106,82.387L14.013,82.522L13.962,82.656L13.928,82.942L13.654,84.156L13.625,84.240L13.583,84.313L13.478,84.384L13.231,84.445L13.134,84.532L13.085,84.677L13.055,85.162L12.939,85.451L12.847,85.768L12.807,85.850L12.791,86.631L12.725,87.026L12.574,87.296L12.675,86.087L12.662,85.453L12.595,84.008L12.662,83.539L12.709,83.411L12.894,83.045L12.950,82.685L13.007,82.580L13.077,82.391L13.077,81.621L13.131,81.307L13.667,79.894L13.809,79.653L13.908,79.168L14.022,78.931L14.343,78.462L14.916,77.181L14.955,77.005L15.049,76.873L15.676,74.847L15.877,73.970L15.927,73.017L16.043,71.869L15.969,70.569L15.740,68.112L15.665,67.856L15.321,67.075L15.163,66.187L15.047,65.896L15.107,65.726L15.096,65.530L14.835,64.536L14.796,64.442L14.605,63.975L14.312,63.477L13.916,63.009L13.790,62.889L13.763,62.874L13.739,62.824L13.684,62.809L13.618,62.802L13.561,62.774L13.448,62.697L13.186,62.618L13.077,62.553L13.028,62.471L12.916,62.168L12.894,62.039L12.826,61.903L12.696,61.789L12.620,61.682L12.711,61.570L13.100,61.677L13.475,61.621L13.800,61.431L14.041,61.129L14.199,60.851L14.238,60.712L14.297,60.617L14.311,60.568L14.291,60.521L14.246,60.493L14.202,60.490L14.182,60.517L14.148,60.514L13.775,60.929L13.584,61.085L13.858,60.493L13.764,60.546L13.492,60.776L13.397,60.884L13.351,60.953L13.311,61.032L13.298,61.117L13.330,61.200L13.333,61.245L13.276,61.381L13.260,61.449L13.243,61.470L13.203,61.482L13.158,61.485L13.123,61.476L13.091,61.454L13.087,61.440L13.089,61.420L13.077,61.378L13.066,61.320L13.068,61.145L13.077,61.085L13.140,60.973L13.315,60.785L13.351,60.662L13.376,60.513L13.441,60.439L13.530,60.384L13.630,60.297L14.269,59.313L14.309,59.276L14.355,59.246L14.392,59.207L14.406,59.140L14.415,58.997L14.436,58.942L14.478,58.922L14.491,58.895L14.608,58.764L14.640,58.721L14.641,58.645L14.625,58.581L14.592,58.525L14.544,58.476L14.597,58.429L14.630,58.372L14.644,58.306L14.640,58.232L14.534,58.293L14.498,58.330L14.479,58.216L14.575,58.040L14.544,57.938L14.421,57.860L14.336,57.921L14.287,58.027L14.269,58.085L14.159,58.152L14.111,58.119L14.107,58.033L14.132,57.938L14.169,57.858L14.210,57.797L14.604,57.391L14.715,57.216L14.772,57.003L14.743,56.826L14.540,56.464L14.457,56.269L14.509,56.273L14.557,56.269L14.601,56.251L14.640,56.215L14.788,55.983L14.845,55.840L14.868,55.699L14.851,55.569L14.806,55.461L14.614,55.162L14.573,55.140L14.478,55.134L14.414,55.103L14.383,55.036L14.363,54.968L14.336,54.938L14.229,54.871L14.041,54.399L13.979,54.334L13.920,54.292L13.876,54.248L13.858,54.177L13.877,54.152L13.915,54.138L13.942,54.119L13.929,54.079L13.910,54.050L13.867,53.962L13.838,53.826L13.586,53.158L13.520,53.060L13.422,53.020L13.367,52.930L13.358,52.752L13.329,52.622L13.214,52.677L13.077,52.584L13.077,52.530L13.380,52.444L13.469,52.401L13.330,52.383L13.094,52.423L12.986,52.401L12.894,52.286L12.944,52.237L12.849,52.036L12.804,52.003L12.662,51.943L12.615,52.255L12.667,52.949L12.574,53.220L12.506,53.109L12.419,53.030L12.250,52.922L12.195,52.860L12.109,52.692L12.046,52.606L11.963,52.545L11.753,52.433L11.702,52.383L11.696,52.301L11.728,52.268L11.771,52.255L11.793,52.237L11.791,52.175L11.753,52.117L11.744,52.063L11.712,51.956L11.636,51.869L11.451,51.720L11.425,51.665L11.427,51.532L11.403,51.475L11.290,51.351L11.215,51.013L11.174,50.932L11.104,50.845L11.057,50.739L11.029,50.626L11.016,50.518L10.987,50.553L10.945,50.588L10.925,50.616L10.828,50.520L10.789,50.411L10.771,50.294L10.738,50.171L10.695,50.120L10.634,50.070L10.579,50.003L10.555,49.900L10.519,49.830L10.359,49.608L10.322,49.508L10.309,49.407L10.275,49.292L10.190,49.090L10.062,48.930L9.971,48.985L9.797,49.312L9.510,49.706L9.443,49.763L9.404,49.847L9.454,49.975L9.529,49.938L9.538,50.061L9.495,50.323L9.481,50.555L9.454,50.616L9.390,50.660L9.234,50.707L9.180,50.763L9.175,50.826L9.206,50.880L9.271,50.955L9.319,51.069L9.324,51.116L9.317,51.204L9.253,51.507L9.196,51.664L9.130,51.742L8.967,50.969L8.992,50.756L9.149,50.104L9.193,49.875L9.478,49.053L9.606,48.366L9.722,47.743L9.786,47.684L10.563,47.684L10.840,47.684L11.622,47.684L12.836,47.684L14.413,47.684L16.278,47.683L18.359,47.683L20.586,47.683L22.883,47.682L25.181,47.682L27.407,47.682L27.614,47.682L29.489,47.681L31.354,47.681L32.930,47.680L34.146,47.680L34.927,47.680L35.204,47.680L36.185,47.680L36.111,46.519L36.072,45.898L35.883,42.933L35.772,41.140L35.662,39.347L35.575,38.883L35.249,37.961L35.179,37.503L35.267,37.020L35.484,36.565L36.057,35.764L36.185,35.600L36.855,35.141L37.693,34.569L38.414,34.075L38.834,33.788L39.243,33.648L40.371,33.488L40.612,33.417L42.080,32.723L42.762,32.539L42.851,32.424L42.878,32.179L42.878,31.600L42.878,31.058L42.878,30.516L42.878,29.973L42.878,29.431L42.878,28.889L42.878,28.347L42.878,27.805L42.878,27.263L42.878,26.721L42.878,26.179L42.878,25.637L42.878,25.095L42.878,24.553L42.878,24.011L42.878,23.469L42.878,22.926L42.878,22.385L42.878,21.843L42.878,21.300L42.878,20.759L42.878,20.217L42.878,19.675L42.878,19.132L42.878,18.590L42.878,18.048L42.878,17.506L42.878,16.964L42.878,16.422L42.878,15.880L42.878,15.338L42.878,14.796L42.878,14.254L43.552,14.254L44.227,14.254L44.900,14.254L45.575,14.254L46.249,14.254L46.924,14.254L47.598,14.254L48.272,14.254L48.947,14.254L49.621,14.254L50.295,14.254L50.969,14.254L51.643,14.254L52.318,14.254L52.992,14.254L53.666,14.254L54.341,14.254L55.014,14.254L55.689,14.254L56.363,14.254L57.038,14.254L57.712,14.254L58.386,14.254L59.060,14.254L59.735,14.254L60.409,14.254L61.083,14.254L61.757,14.254L62.432,14.254L63.106,14.254L63.780,14.254L64.455,14.253L65.023,14.253L65.153,14.217L65.199,14.123L65.199,13.799L65.199,13.700L65.199,13.421L65.198,12.987L65.198,12.423L65.197,11.758L65.196,11.015L65.195,10.220L65.194,9.399L65.194,8.579L65.193,7.784L65.192,7.041L65.191,6.375L65.190,5.812L65.190,5.378L65.189,5.099L65.189,5.000ZM13.676,58.579L13.806,58.295L13.889,58.186L13.950,58.277L13.747,59.242L13.578,59.692L13.310,60.101L13.194,59.947L13.173,59.901L13.174,59.843L13.190,59.777L13.191,59.705L13.148,59.632L13.099,59.503L13.144,59.369L13.337,59.073L13.351,59.042L13.344,58.834L13.351,58.770L13.405,58.636L13.491,58.525L13.588,58.489L13.676,58.579ZM14.056,59.189L14.132,59.172L14.185,59.231L14.107,59.360L13.997,59.465L13.914,59.562L13.803,59.767L13.564,60.111L13.542,60.111L13.576,59.987L13.804,59.555L14.056,59.189ZM13.010,59.167L13.061,59.178L13.065,59.252L13.048,59.395L13.006,59.497L12.963,59.553L12.912,59.507L12.878,59.353L12.917,59.213L13.010,59.167ZM13.130,52.834L13.188,52.849L13.216,52.887L13.205,53.122L13.164,53.146L13.077,53.110L13.030,52.981L13.064,52.874L13.130,52.834Z" fill="currentColor" stroke="currentColor" stroke-width="1.5" stroke-linejoin="round"/>
</svg>