<svg xmlns="http://www.w3.org/2000/svg" viewBox="0 0 100 100" role="img" aria-label="Mauritius">
  <title>Mauritius</title>
  <path d="M31.162,92.399L31.147,92.611L31.104,92.853L31.012,93.123L30.993,93.261L31.041,93.396L30.833,93.464L30.596,93.646L30.451,93.853L30.517,93.999L30.523,94.062L30.569,94.137L30.575,94.185L30.545,94.266L30.497,94.283L30.443,94.280L30.396,94.306L30.282,94.507L30.217,94.596L30.110,94.667L29.397,94.889L28.675,95.000L28.420,94.980L28.023,94.855L27.787,94.829L27.607,94.909L27.117,94.478L27.009,94.355L26.972,94.237L27.107,94.185L27.318,94.228L27.434,94.206L27.485,94.092L27.530,93.844L27.520,93.753L27.427,93.702L27.496,93.487L27.504,93.000L27.543,92.732L27.602,92.579L27.795,92.204L27.865,92.130L27.883,92.103L28.071,91.949L28.153,91.910L28.337,91.859L28.420,91.823L28.566,91.675L28.592,91.512L28.598,91.348L28.726,91.116L28.832,90.800L28.884,90.705L28.921,90.652L29.156,90.466L29.214,90.440L29.328,90.432L29.378,90.404L29.415,90.341L29.466,90.279L29.556,90.251L29.691,90.271L30.072,90.380L30.174,90.432L30.218,90.529L30.170,90.682L30.203,90.766L30.263,90.850L30.328,90.998L30.400,91.124L30.422,91.226L30.465,91.281L30.500,91.288L30.600,91.272L30.633,91.281L30.728,91.360L30.753,91.417L30.725,91.702L30.791,91.794L30.879,91.863L30.961,92.114L31.124,92.306L31.162,92.399ZM20.339,5.054L20.351,5.030L20.369,5.013L20.397,5.002L20.437,5.000L20.498,5.199L20.717,5.552L20.724,5.729L20.546,5.513L20.387,5.257L20.343,5.142L20.339,5.054ZM79.511,87.588L79.661,87.624L79.624,87.796L79.452,87.986L79.191,88.075L79.002,88.105L78.867,88.180L78.739,88.278L78.576,88.377L78.332,88.123L78.285,88.105L78.310,87.941L78.379,87.869L78.481,87.825L78.769,87.649L79.042,87.558L79.324,87.517L79.511,87.588Z" fill="currentColor" stroke="currentColor" stroke-width="1.5" stroke-linejoin="round"/>
</svg>