<svg xmlns="http://www.w3.org/2000/svg" viewBox="0 0 100 100" role="img" aria-label="Malawi">
  <title>Malawi</title>
  <path d="M57.691,30.446L54.151,30.405L53.761,30.501L53.653,30.650L53.654,30.861L53.730,31.365L53.707,31.834L53.622,32.292L53.163,33.433L52.303,34.746L51.087,36.601L50.847,37.187L50.793,37.710L50.811,37.774L51.091,38.775L51.755,41.141L52.380,43.374L52.527,44.674L52.713,46.302L52.869,47.691L53.000,48.849L52.926,49.832L52.954,50.783L53.326,51.626L53.340,51.649L53.377,51.687L53.570,51.879L53.702,52.061L53.930,52.471L53.984,52.599L53.997,52.669L54.031,52.717L54.152,52.780L54.334,52.816L55.780,52.791L56.166,52.851L56.545,52.989L56.554,52.995L56.899,53.209L58.052,54.268L59.041,55.176L60.024,56.354L61.240,57.807L62.272,59.041L63.240,60.199L63.998,61.659L64.976,62.897L66.162,64.397L66.570,64.913L66.981,65.432L67.531,65.989L67.663,66.158L67.728,66.356L67.844,68.784L67.919,68.887L68.065,68.910L68.307,68.903L67.884,69.903L67.573,70.637L67.025,71.920L66.951,72.210L66.954,72.481L67.000,72.670L67.265,73.754L67.587,75.058L67.554,75.535L67.553,75.545L67.490,76.465L67.390,77.915L67.318,78.943L67.205,80.613L67.091,81.047L67.012,81.343L67.017,81.526L67.080,81.880L67.069,82.062L66.961,82.313L66.791,82.505L65.972,83.070L65.853,83.130L65.749,83.140L65.535,83.100L65.419,83.106L64.341,83.429L64.068,83.456L64.012,83.525L63.978,83.705L63.904,83.811L63.763,83.805L63.612,83.733L63.515,83.643L63.434,83.449L63.247,83.324L63.015,83.261L62.792,83.249L62.536,83.315L62.323,83.459L61.536,84.168L61.471,84.245L61.222,84.538L61.014,84.974L60.937,85.511L60.963,85.634L61.099,85.960L61.054,86.077L60.788,86.397L60.771,86.455L60.727,86.611L60.731,87.073L60.669,87.281L60.514,87.443L59.725,87.963L59.582,88.063L59.767,88.579L59.948,88.865L59.995,88.985L60.060,89.082L60.187,89.123L60.291,89.141L60.538,89.236L60.610,89.276L60.662,89.331L60.720,89.451L60.765,89.513L60.800,89.536L60.895,89.578L60.927,89.599L61.199,89.895L61.234,89.956L61.267,90.723L61.312,90.954L61.539,91.406L61.596,91.695L61.313,91.933L61.286,92.177L61.312,92.618L61.276,92.672L61.207,92.723L61.152,92.782L61.157,92.855L61.209,92.909L61.575,93.124L61.643,93.223L61.585,93.375L61.465,93.587L61.451,93.774L61.550,94.211L61.566,94.446L61.536,94.639L61.474,94.798L61.389,94.930L61.386,94.931L60.744,95.000L59.604,94.962L59.010,94.869L58.837,94.704L58.872,94.405L58.504,93.846L58.593,93.484L58.838,93.282L59.124,93.143L59.373,92.968L59.505,92.650L59.539,92.277L59.532,91.856L59.428,91.496L59.173,91.309L58.801,91.298L58.464,91.330L58.142,91.278L57.809,91.016L57.601,90.740L57.505,90.636L57.350,90.524L57.273,90.496L57.101,90.464L57.024,90.421L56.972,90.334L56.936,90.109L56.888,90.013L56.810,89.957L56.707,89.883L56.509,89.799L56.336,89.697L56.225,89.519L56.143,89.268L56.052,89.109L55.527,88.667L55.412,88.513L55.210,88.124L55.064,87.964L54.348,87.587L54.263,87.555L54.193,87.503L54.054,87.158L53.995,87.052L53.919,86.969L53.553,86.694L53.412,86.556L53.291,86.376L52.974,85.572L52.722,85.313L52.221,85.240L51.832,85.226L51.612,85.001L51.146,83.987L51.191,83.592L51.414,82.842L51.364,82.516L51.174,82.252L50.231,81.267L50.067,81.166L49.691,80.989L49.551,80.866L49.428,80.544L49.407,80.130L49.464,79.724L49.586,79.433L49.907,79.087L50.108,78.934L50.299,78.843L50.533,78.771L50.655,78.699L50.660,78.692L51.358,77.723L51.493,77.355L51.529,76.893L51.426,76.193L51.427,75.802L51.568,75.607L51.772,75.503L51.993,75.147L52.221,75.008L52.296,74.864L52.352,74.570L52.404,74.426L52.533,74.255L52.672,74.159L52.819,74.082L52.971,73.968L53.179,73.666L53.223,73.363L53.110,72.539L52.988,71.651L53.015,71.453L53.119,71.326L53.090,71.194L53.019,71.049L52.993,70.885L53.059,70.721L53.289,70.402L53.372,70.231L53.393,70.035L53.312,69.859L53.188,69.685L53.086,69.499L53.020,69.268L52.993,69.073L52.989,68.217L52.926,67.851L52.805,67.509L52.616,67.135L52.508,66.738L52.661,66.047L52.647,65.659L52.463,65.291L51.874,64.708L51.612,64.384L51.243,63.627L51.092,63.410L50.997,63.274L50.681,63.105L50.582,63.122L50.497,63.177L50.415,63.244L50.328,63.301L50.238,63.319L50.058,63.298L49.972,63.309L48.855,63.710L48.032,63.733L47.670,63.886L47.587,64.005L47.456,64.298L47.367,64.356L46.179,64.197L45.848,64.196L45.539,64.275L44.883,64.676L44.562,64.793L44.243,64.761L43.635,64.293L43.396,64.368L43.225,64.630L43.128,64.967L43.127,65.368L43.091,65.575L42.980,65.654L42.781,65.593L42.647,65.473L42.551,65.318L42.483,65.130L42.323,64.691L42.227,64.545L42.097,64.443L41.794,64.301L41.664,64.199L41.568,64.049L41.511,63.904L41.436,63.766L41.286,63.634L40.809,63.420L40.663,63.302L40.458,63.027L39.886,61.866L39.688,61.589L39.531,61.285L39.499,61.224L39.418,61.149L39.318,61.109L39.156,61.004L39.061,60.897L38.779,60.430L38.730,60.221L38.787,59.644L38.662,59.315L38.409,59.115L37.786,58.770L37.594,58.537L37.242,57.873L37.081,57.738L36.968,57.803L36.859,58.097L36.757,58.198L36.365,58.313L36.208,58.397L36.055,58.570L35.702,59.145L35.494,59.195L35.230,58.854L35.172,58.678L35.212,58.092L35.233,58.026L35.228,57.965L35.164,57.867L35.073,57.820L34.869,57.831L34.775,57.753L34.706,57.570L34.682,57.398L34.637,57.221L34.075,56.527L33.908,56.382L33.562,56.253L33.145,56.169L32.819,56.023L32.755,55.710L32.877,55.580L33.292,55.382L33.388,55.256L33.325,55.117L32.896,54.510L32.598,54.377L32.183,54.373L31.826,54.292L31.693,53.924L31.742,53.682L31.850,53.592L32.013,53.608L32.223,53.680L32.365,53.657L32.670,53.396L32.821,53.299L33.237,53.236L33.384,53.133L33.435,52.870L33.428,52.659L33.452,52.477L33.547,52.351L33.755,52.319L34.076,52.146L34.278,51.701L34.429,51.081L34.588,50.424L34.794,49.972L35.075,49.613L35.415,49.514L35.476,49.352L35.441,49.218L35.260,48.951L35.172,48.754L35.125,48.560L35.111,48.358L35.288,47.073L35.597,46.364L35.650,46.042L35.553,45.760L35.276,45.502L34.971,45.309L34.898,45.183L34.831,44.331L34.871,44.128L35.023,43.813L35.430,43.201L35.777,42.506L35.896,42.349L36.056,42.207L36.148,42.167L36.226,42.185L36.287,42.249L36.335,42.340L36.414,42.415L36.513,42.368L36.615,42.281L36.705,42.228L36.884,42.180L36.969,42.171L37.077,42.201L37.156,42.281L37.290,42.538L37.338,42.596L37.454,42.592L37.507,42.534L37.545,42.455L37.612,42.386L37.670,42.348L37.720,42.306L37.789,42.264L37.903,42.227L38.061,42.117L38.249,41.718L38.378,41.570L38.469,41.530L38.770,41.480L38.911,41.490L39.021,41.546L39.115,41.606L39.205,41.636L39.455,41.578L39.713,41.414L39.945,41.179L40.122,40.911L40.250,40.792L40.593,40.653L40.693,40.515L40.702,40.230L40.753,40.143L40.925,40.112L41.007,39.920L41.302,39.740L41.350,39.710L41.452,39.523L41.434,39.287L41.304,39.238L41.115,39.244L40.674,39.088L39.841,39.342L39.444,39.202L39.226,38.857L39.026,38.049L38.885,37.670L38.754,37.510L38.437,37.203L38.352,37.015L38.335,36.624L38.376,36.239L38.820,35.178L38.926,34.586L38.991,34.401L39.029,34.220L38.984,34.054L38.857,33.800L38.856,33.614L39.005,33.176L39.044,32.751L38.916,30.866L38.849,30.678L38.696,30.502L38.512,30.470L38.313,30.495L38.125,30.494L37.936,30.423L37.899,30.333L38.064,29.972L38.138,29.755L38.151,29.612L38.098,28.624L38.204,28.459L38.492,28.699L38.587,28.541L38.590,28.392L38.568,28.242L38.586,28.079L38.638,28.017L38.810,27.941L38.873,27.887L38.889,27.816L38.850,27.685L38.866,27.610L39.659,26.373L39.815,26.048L39.913,25.701L39.551,25.058L39.299,24.803L39.090,24.511L38.927,24.190L38.817,23.841L38.783,23.499L38.749,23.149L38.663,22.783L38.500,22.641L38.345,22.664L38.203,22.664L38.114,22.600L38.124,22.434L38.224,22.230L38.329,22.193L38.447,22.225L38.585,22.229L38.751,22.125L38.963,21.799L39.101,21.678L39.254,21.625L39.539,21.569L39.696,21.505L39.852,21.478L40.226,21.552L40.400,21.562L40.548,21.493L40.753,21.286L40.925,21.253L41.156,21.109L41.281,20.908L41.464,20.441L42.014,19.815L42.165,19.714L42.310,19.648L42.752,19.323L42.927,19.161L43.113,18.879L43.109,18.833L43.105,18.790L43.096,18.677L43.016,18.465L43.014,18.161L42.706,18.120L42.532,17.916L42.311,17.395L42.225,17.296L41.909,17.010L41.814,16.875L41.517,16.159L41.476,15.880L41.547,15.231L41.521,14.865L41.359,14.677L41.135,14.518L40.925,14.237L40.632,14.132L40.428,13.961L40.243,13.756L40.006,13.551L39.084,13.134L38.932,12.922L38.939,12.622L38.998,12.330L39.211,11.781L39.546,11.252L39.627,11.008L39.554,10.684L39.377,10.225L39.303,10.135L38.885,9.980L38.747,9.905L38.612,9.783L38.515,9.642L38.352,9.327L38.228,9.191L37.945,9.014L37.838,8.849L37.807,8.678L37.844,8.569L37.903,8.475L37.934,8.350L37.917,8.174L37.867,8.019L37.704,7.728L37.478,7.566L36.869,7.534L36.607,7.405L36.542,7.706L36.504,8.049L36.405,8.262L36.155,8.169L36.096,8.059L36.070,7.919L36.024,7.795L35.900,7.736L35.748,7.775L35.623,7.862L35.498,7.920L35.348,7.869L35.211,7.554L35.410,6.717L35.406,6.400L35.305,6.352L35.142,6.197L35.066,6.150L34.935,6.156L34.859,6.213L34.790,6.237L34.681,6.144L34.627,5.987L34.602,5.309L34.776,5.121L34.991,5.010L35.211,5.000L35.409,5.118L35.974,5.690L36.670,6.238L36.773,6.280L37.077,6.348L37.408,6.481L37.450,6.507L37.553,6.471L37.708,6.340L37.783,6.303L37.941,6.302L38.175,6.374L38.311,6.387L38.408,6.356L38.586,6.236L38.687,6.216L38.889,6.288L39.524,6.748L39.733,6.948L39.927,7.379L40.063,7.596L40.237,7.721L40.456,7.789L40.925,7.823L41.276,7.736L41.543,7.578L41.817,7.462L42.200,7.502L42.544,7.613L42.841,7.666L42.847,7.667L43.134,7.628L43.433,7.457L43.796,7.355L44.105,7.550L44.393,7.847L44.686,8.042L44.952,8.153L45.271,8.347L45.543,8.581L45.666,8.811L45.798,8.908L45.984,8.703L45.984,8.624L46.151,8.512L46.244,8.394L46.284,8.243L46.292,8.030L46.371,7.680L46.392,7.477L46.182,6.959L46.350,6.667L46.617,6.443L46.754,6.284L46.938,6.117L47.330,6.262L47.681,6.497L47.695,6.507L47.803,6.636L47.959,6.725L48.342,7.198L48.428,7.248L48.623,7.465L48.949,7.618L50.048,8.798L50.386,8.923L50.457,9.076L50.485,9.284L50.541,9.503L50.606,9.596L50.857,9.860L50.909,9.888L51.113,10.089L51.126,10.137L52.254,11.557L52.382,11.796L52.722,12.284L52.854,12.681L52.869,12.807L52.846,12.940L52.745,13.167L52.722,13.282L52.808,13.678L53.183,14.534L53.291,15.151L53.385,15.404L53.410,15.548L53.406,15.672L53.177,16.938L53.228,17.189L53.445,17.557L53.493,17.773L53.468,17.884L53.363,18.144L53.340,18.293L53.347,18.355L53.358,18.446L53.411,18.607L53.486,18.759L53.577,18.891L53.672,18.937L53.771,18.931L53.808,18.942L53.848,18.954L53.879,19.089L53.870,19.312L53.900,19.381L54.143,19.672L54.250,19.906L54.260,20.159L54.110,20.404L54.182,20.511L54.201,20.562L54.249,20.628L54.323,20.682L54.391,20.765L54.420,20.915L54.282,21.019L54.213,21.118L54.256,21.421L54.110,22.147L54.110,22.662L54.086,22.782L53.878,23.255L53.774,23.391L53.549,23.684L53.493,23.976L53.542,24.214L53.692,24.690L53.725,24.974L53.810,25.178L54.348,25.647L54.408,25.761L54.443,25.863L54.497,25.936L54.701,25.988L54.791,26.052L54.861,26.142L54.889,26.246L54.925,26.511L55.026,26.737L55.173,26.907L55.351,27.010L55.351,27.082L55.285,27.120L55.188,27.197L55.120,27.233L55.370,27.706L55.443,27.795L55.517,27.786L55.661,27.659L55.745,27.629L55.837,27.641L56.325,27.808L56.598,27.953L56.810,28.146L56.895,28.385L56.943,28.472L57.154,28.650L57.251,28.964L57.357,29.087L57.464,29.179L57.512,29.264L57.537,29.334L57.591,29.438L57.647,29.575L57.673,29.744L57.673,30.345L57.691,30.446ZM54.636,35.400L54.879,35.414L55.134,35.506L55.314,35.629L55.406,35.863L55.371,36.157L55.246,36.445L55.069,36.661L54.833,36.798L54.577,36.841L54.352,36.763L54.207,36.524L54.204,36.281L54.277,36.008L54.486,35.504L54.636,35.400ZM53.139,35.147L53.149,35.140L53.555,35.053L53.883,35.248L54.038,35.603L53.930,36.005L53.698,36.237L53.528,36.230L53.386,36.079L53.242,35.872L52.940,35.527L52.915,35.333L53.139,35.147Z" fill="currentColor" stroke="currentColor" stroke-width="1.5" stroke-linejoin="round"/>
</svg>