<svg xmlns="http://www.w3.org/2000/svg" viewBox="0 0 100 100" role="img" aria-label="Namibia">
  <title>Namibia</title>
  <path d="M36.697,90.546L36.574,90.634L36.508,90.745L36.423,90.817L36.248,90.792L36.171,90.745L35.765,90.424L35.560,90.195L35.461,90.052L34.745,89.361L34.629,89.313L34.577,89.267L34.176,88.744L33.750,88.266L32.870,87.647L32.691,87.476L32.352,87.055L31.875,86.687L31.784,86.588L31.578,86.269L31.362,86.049L31.326,85.998L31.320,85.914L31.364,85.767L31.372,85.698L31.287,85.471L31.108,85.231L30.445,84.590L30.360,84.463L30.328,84.290L30.331,83.915L30.316,83.857L30.275,83.767L29.639,82.777L29.532,82.546L29.452,82.431L29.342,82.383L29.285,82.319L29.090,81.940L28.819,81.597L28.777,81.520L28.687,80.949L28.650,80.879L28.606,80.827L28.567,80.769L28.551,80.678L28.596,80.383L28.504,79.916L28.551,79.811L28.418,79.545L28.379,79.406L28.365,79.243L28.371,78.944L28.333,78.800L28.228,78.673L28.182,78.656L28.061,78.646L28.001,78.624L27.988,78.592L27.942,78.516L27.893,78.450L27.870,78.450L27.851,78.292L27.804,78.157L27.591,77.722L27.557,77.600L27.587,77.404L27.517,77.261L27.423,77.116L27.366,76.994L27.352,76.827L27.369,76.682L27.425,76.580L27.523,76.541L27.592,76.525L27.659,76.499L27.709,76.502L27.730,76.571L27.730,76.847L27.775,76.847L27.801,76.703L27.932,76.326L27.936,76.250L27.893,76.155L27.758,75.714L27.670,75.278L27.516,75.011L27.296,74.789L27.045,74.619L26.650,74.460L26.591,74.395L26.541,73.831L26.566,73.284L26.433,73.086L26.410,73.038L26.436,72.953L26.476,72.950L26.528,72.969L26.591,72.940L26.680,72.709L26.675,72.400L26.604,72.090L26.500,71.851L26.201,71.364L26.164,71.128L26.274,70.860L26.224,70.860L25.883,70.462L25.770,70.269L25.753,70.184L25.753,70.123L25.770,70.023L25.770,69.452L25.797,69.304L25.997,68.930L26.015,68.810L26.014,68.646L25.986,68.500L25.839,68.358L25.798,68.174L25.770,67.846L25.605,67.407L25.568,67.068L25.501,66.800L25.494,66.655L25.700,66.116L25.680,66.032L25.815,65.517L25.839,65.222L25.773,64.946L25.681,64.759L25.543,64.478L25.460,64.195L25.439,63.617L25.357,63.339L24.977,62.619L24.817,62.398L24.489,62.079L24.396,61.863L24.169,61.600L24.129,61.418L24.154,61.341L24.248,61.234L24.269,61.191L24.269,60.895L24.238,60.758L24.090,60.488L23.944,60.122L23.584,59.428L23.446,58.929L23.316,58.689L23.271,58.358L23.221,58.250L23.254,58.105L23.253,57.863L23.223,57.616L23.172,57.457L23.221,57.357L23.264,57.160L23.311,57.063L23.353,57.043L23.414,57.033L23.469,57.006L23.493,56.938L23.584,56.763L23.532,56.675L23.539,56.270L23.422,55.924L23.402,55.798L23.493,54.758L23.460,54.499L23.386,54.300L23.139,53.646L23.055,53.320L23.060,53.250L23.113,53.186L23.275,52.893L23.357,52.812L23.355,52.964L23.388,53.029L23.428,52.992L23.448,52.834L23.438,52.555L23.315,51.715L23.244,51.459L23.130,51.271L23.035,51.069L22.964,50.836L22.919,50.585L22.894,50.112L22.903,50.043L22.933,49.974L23.020,49.836L23.039,49.768L23.039,49.470L23.060,49.456L23.099,49.456L23.118,49.482L23.080,49.546L23.111,49.591L23.146,49.660L23.172,49.690L23.132,49.835L23.122,49.983L23.170,50.058L23.311,49.990L23.302,50.071L23.221,50.289L23.321,50.195L23.470,49.903L23.561,49.842L23.638,49.771L23.686,49.603L23.720,49.271L23.674,48.010L23.548,47.061L23.393,46.804L23.321,46.483L23.080,45.985L22.951,45.558L22.737,45.101L22.696,45.044L22.263,44.551L22.124,44.314L22.119,44.140L22.105,44.076L21.080,42.719L20.581,42.247L20.529,42.129L19.980,41.610L19.852,41.546L19.851,41.470L19.879,41.395L19.896,41.362L19.937,41.180L19.941,41.134L19.920,41.042L19.891,40.976L19.357,40.163L19.257,39.699L19.050,39.183L18.369,38.272L17.954,37.565L17.697,37.242L17.528,37.030L16.934,35.945L16.659,35.564L16.574,35.297L16.479,35.196L16.299,35.050L16.165,34.801L16.096,34.561L16.026,33.965L15.845,33.322L15.268,32.172L15.111,31.537L15.075,31.231L14.939,30.644L14.704,30.037L14.550,29.784L14.283,29.700L13.994,29.495L13.771,29.100L13.558,28.205L13.042,27.189L12.981,26.979L12.698,26.592L12.210,25.674L12.153,25.507L12.081,25.401L11.911,25.039L11.856,24.961L11.559,24.418L11.470,24.189L11.436,24.050L11.394,23.720L11.318,23.564L11.105,23.277L10.969,23.024L10.648,22.192L10.510,21.969L10.309,21.724L10.069,21.533L10.003,21.436L9.925,20.916L9.868,20.765L8.783,19.271L8.038,18.768L7.712,18.385L7.672,18.346L7.555,18.177L7.486,18.138L7.422,18.093L7.089,17.883L6.983,17.505L6.959,17.372L6.873,17.148L6.865,17.064L6.867,16.991L6.861,16.921L6.873,16.848L6.718,16.616L6.460,15.911L6.419,15.862L5.874,15.269L5.771,14.944L5.724,14.519L5.604,14.175L5.527,13.919L5.441,13.223L5.288,12.694L5.186,11.955L5.109,11.585L5.061,11.348L5.000,10.962L5.027,10.395L5.249,8.943L5.322,8.842L5.323,8.843L5.411,8.858L5.527,8.922L5.598,8.937L5.696,8.927L5.730,8.896L5.744,8.848L5.784,8.790L5.906,8.703L6.179,8.567L6.492,8.321L6.764,8.187L7.069,8.094L7.377,8.050L7.423,8.039L7.462,8.023L7.510,8.027L7.578,8.073L7.806,8.144L7.882,8.127L7.918,8.094L7.950,8.074L8.011,8.095L8.054,8.135L8.070,8.185L8.081,8.240L8.107,8.297L8.144,8.336L8.209,8.385L8.284,8.427L8.354,8.445L8.417,8.476L8.449,8.544L8.467,8.611L8.489,8.641L8.968,8.593L9.399,8.609L9.495,8.568L9.585,8.491L9.654,8.487L9.812,8.585L9.937,8.629L10.327,8.663L10.562,8.719L10.646,8.711L10.807,8.625L11.105,8.355L11.268,8.297L11.435,8.271L11.560,8.204L11.794,7.997L12.089,7.849L12.315,7.775L12.359,7.714L12.413,7.609L12.474,7.553L12.525,7.530L12.643,7.492L12.701,7.450L12.729,7.385L12.740,7.304L12.773,7.234L12.931,7.188L13.060,7.121L13.268,7.072L13.617,6.859L14.332,6.729L14.483,6.675L14.628,6.665L14.751,6.760L14.839,6.711L14.888,6.752L14.932,6.822L15.004,6.859L15.153,6.884L15.232,6.886L15.300,6.859L15.300,6.913L15.470,6.829L15.572,6.803L15.618,6.834L15.660,6.838L15.822,6.793L15.940,6.760L16.061,6.805L16.296,6.973L16.414,7.011L16.572,7.031L16.711,7.093L16.810,7.192L16.897,7.477L16.993,7.574L17.051,7.692L16.987,7.898L17.553,8.226L18.136,8.726L18.776,9.098L19.400,9.462L19.483,9.538L19.788,9.965L19.885,10.044L20.039,10.076L20.122,10.059L20.228,9.988L20.287,9.972L20.362,9.981L20.484,10.021L20.628,10.040L20.736,10.076L20.815,10.076L20.888,10.053L20.992,9.989L21.037,9.972L21.331,10.023L21.478,9.999L21.541,9.856L21.547,9.819L21.623,9.820L21.625,9.820L22.079,9.820L23.784,9.821L25.489,9.821L27.195,9.821L28.899,9.822L30.530,9.823L30.604,9.823L32.309,9.824L34.015,9.824L35.719,9.824L37.423,9.824L39.128,9.824L40.834,9.825L41.960,9.826L42.539,9.826L44.244,9.826L45.949,9.827L46.755,9.827L47.654,9.827L49.359,9.828L49.714,9.828L49.767,9.833L49.776,9.877L49.800,9.944L49.844,9.972L49.887,10.009L49.996,10.282L50.008,10.356L50.027,10.371L50.186,10.420L50.414,10.882L50.435,10.962L50.524,11.012L50.870,11.312L50.892,11.365L50.925,11.492L50.961,11.558L51.024,11.624L51.147,11.686L51.211,11.732L51.592,12.149L51.725,12.333L51.816,12.415L52.074,12.479L52.667,12.787L53.535,12.954L54.097,12.924L54.324,12.830L54.467,12.799L54.542,12.801L54.740,12.844L55.037,12.822L55.142,12.893L56.198,13.221L57.338,13.206L57.716,13.117L57.868,13.101L58.005,13.137L58.065,13.267L58.125,13.319L58.263,13.385L58.417,13.435L58.522,13.444L58.555,13.406L58.633,13.272L58.675,13.242L59.725,13.242L59.974,13.390L60.207,13.475L60.272,13.485L60.659,13.444L60.841,13.447L60.928,13.433L61.022,13.390L61.071,13.444L61.169,13.356L61.327,13.313L61.505,13.322L61.662,13.390L61.893,13.189L61.964,13.237L62.056,13.231L62.278,13.189L62.355,13.218L62.615,13.444L62.786,13.400L62.952,13.474L63.102,13.613L63.231,13.762L63.297,13.818L63.526,13.937L63.718,14.085L63.802,14.129L63.970,14.083L64.231,14.069L64.472,14.093L64.578,14.154L64.627,14.214L64.737,14.263L64.846,14.283L64.895,14.253L64.945,14.189L65.058,14.221L65.258,14.327L65.402,14.463L65.573,14.448L65.770,14.372L65.989,14.327L66.081,14.136L66.600,13.989L66.695,13.962L67.309,13.789L67.417,13.839L67.528,13.811L67.641,13.758L67.762,13.735L67.858,13.754L68.129,13.735L68.237,13.763L68.538,13.937L68.917,14.077L69.114,14.178L69.223,14.327L69.261,14.340L69.385,14.303L69.864,14.207L71.532,13.874L73.199,13.541L74.868,13.208L76.535,12.874L77.893,12.596L79.249,12.317L80.606,12.038L81.962,11.759L82.518,11.646L82.789,11.591L83.022,11.542L83.147,11.539L83.344,11.497L83.629,11.436L83.915,11.374L84.199,11.313L84.483,11.253L84.767,11.192L85.051,11.130L85.336,11.070L85.621,11.009L85.906,10.948L86.190,10.887L86.475,10.826L86.758,10.765L87.043,10.705L87.328,10.643L87.612,10.582L87.896,10.521L88.093,10.479L88.214,10.470L88.338,10.489L88.690,10.502L88.763,10.546L88.817,10.520L89.095,10.437L89.212,10.420L89.333,10.443L89.614,10.549L89.813,10.587L89.938,10.652L90.107,10.684L90.161,10.724L90.202,10.774L90.260,10.819L90.366,10.860L90.424,10.869L90.487,10.864L90.557,10.832L90.658,10.737L90.731,10.693L90.767,10.644L90.813,10.595L90.877,10.572L91.176,10.572L91.744,10.666L91.779,10.682L91.812,10.716L91.857,10.749L91.927,10.765L92.141,10.755L92.597,10.851L92.775,10.937L92.859,11.066L92.994,11.001L93.074,11.060L93.082,11.066L93.158,11.180L93.264,11.262L93.327,11.266L93.451,11.224L93.519,11.213L93.543,11.237L93.498,11.360L93.498,11.410L93.540,11.465L93.575,11.493L93.623,11.503L93.700,11.504L93.719,11.532L93.840,11.644L93.862,11.657L93.917,11.870L93.930,11.903L93.991,11.918L94.038,11.957L94.071,12.006L94.089,12.055L94.147,11.973L94.194,11.970L94.293,12.078L94.313,12.119L94.306,12.211L94.316,12.252L94.345,12.283L94.420,12.324L94.455,12.351L94.541,12.470L94.591,12.493L94.703,12.499L94.795,12.522L94.885,12.578L94.958,12.659L95.000,12.750L94.564,12.665L94.297,12.661L94.077,12.890L93.858,12.986L93.652,12.992L93.589,12.844L93.404,12.964L93.321,12.978L93.264,12.893L93.163,12.940L93.108,12.910L93.065,12.848L92.995,12.799L93.036,12.696L92.963,12.709L92.932,12.744L92.909,12.792L92.859,12.844L92.816,12.869L92.326,13.035L92.198,13.045L92.083,13.076L91.927,13.212L91.791,13.242L91.750,13.265L91.708,13.368L91.652,13.390L91.591,13.400L91.533,13.425L91.484,13.456L91.448,13.485L91.270,13.723L91.041,13.874L90.942,13.967L90.606,14.386L90.582,14.401L90.561,14.441L90.467,14.557L90.446,14.600L90.379,14.617L90.073,14.650L89.988,14.671L89.761,14.452L89.750,14.340L89.719,14.298L89.675,14.278L89.625,14.228L89.511,13.999L89.429,13.922L89.282,13.892L89.055,13.881L88.958,13.919L88.849,14.031L88.660,14.376L88.598,14.425L88.538,14.413L88.422,14.350L88.350,14.327L88.211,14.307L88.078,14.327L87.844,14.448L87.525,14.853L87.303,15.021L87.060,15.068L87.006,15.095L86.815,15.288L86.762,15.330L86.573,15.415L86.492,15.476L86.461,15.514L86.436,15.563L86.407,15.540L86.375,15.520L86.339,15.511L86.301,15.518L86.069,15.688L86.049,15.937L85.943,16.042L85.747,16.181L85.665,16.257L85.546,16.443L85.468,16.524L85.364,16.558L84.739,17.261L84.640,17.325L84.502,17.350L84.345,17.543L84.301,17.581L84.271,17.599L84.035,17.684L83.917,17.687L83.831,17.613L83.779,17.311L83.673,17.001L83.614,16.903L83.708,16.751L83.647,16.600L83.430,16.356L83.486,16.240L83.449,16.172L83.379,16.115L83.342,16.036L83.315,15.950L83.247,15.919L83.157,15.902L83.066,15.863L83.031,15.807L82.934,15.684L82.835,15.596L82.765,15.668L82.708,15.661L82.649,15.638L82.612,15.617L82.603,15.580L82.616,15.458L82.612,15.415L82.572,15.342L82.371,15.096L82.295,14.918L82.219,14.809L82.200,14.770L82.192,14.720L82.200,14.548L82.179,14.525L82.130,14.519L82.081,14.504L82.060,14.452L82.061,14.355L82.052,14.307L82.013,14.275L81.927,14.228L81.676,14.217L81.216,14.258L80.644,14.310L79.858,14.381L79.277,14.497L78.717,14.610L78.156,14.723L77.595,14.836L77.034,14.949L76.474,15.062L75.913,15.176L75.353,15.288L74.791,15.402L74.230,15.515L73.670,15.628L73.110,15.741L72.548,15.854L71.988,15.967L71.426,16.081L70.867,16.193L70.306,16.306L70.192,16.329L70.078,16.352L69.966,16.375L69.851,16.398L69.726,16.403L69.600,16.409L69.288,16.422L68.976,16.436L68.662,16.449L68.351,16.462L67.976,16.479L67.600,16.495L67.226,16.511L66.851,16.527L66.646,16.536L66.524,16.541L66.524,16.746L66.524,17.041L66.524,17.334L66.524,17.629L66.524,17.925L66.524,18.220L66.524,18.514L66.524,18.808L66.524,19.103L66.524,19.398L66.524,19.692L66.524,19.987L66.524,20.282L66.524,20.576L66.524,20.870L66.524,21.165L66.524,21.460L66.527,22.362L66.528,22.696L66.529,23.264L66.533,24.166L66.535,25.068L66.537,25.970L66.541,26.872L66.543,27.775L66.546,28.677L66.548,29.579L66.551,30.481L66.553,31.204L66.553,31.383L66.556,32.285L66.559,33.187L66.561,34.089L66.564,34.992L66.567,35.888L66.567,35.894L66.568,36.310L66.570,36.726L66.571,37.142L66.572,37.557L66.573,37.973L66.574,38.389L66.576,38.805L66.577,39.221L66.578,39.637L66.580,40.053L66.581,40.469L66.583,40.885L66.584,41.302L66.585,41.717L66.587,42.133L66.588,42.549L66.589,42.846L66.504,43.111L66.123,43.111L64.567,43.111L63.012,43.111L61.456,43.111L59.900,43.111L59.901,43.732L59.902,44.818L59.903,45.903L59.904,46.990L59.906,48.076L59.906,49.318L59.908,50.558L59.910,51.799L59.910,52.550L59.910,53.041L59.912,54.283L59.913,55.524L59.914,56.563L59.914,56.765L59.916,58.006L59.917,59.248L59.919,60.489L59.920,61.730L59.921,62.972L59.923,63.062L59.923,63.466L59.923,63.871L59.923,64.276L59.923,64.681L59.924,65.086L59.924,65.490L59.924,65.894L59.924,66.299L59.924,66.705L59.924,67.109L59.924,67.513L59.925,67.918L59.925,68.322L59.925,68.728L59.925,69.133L59.925,69.226L59.925,69.537L59.925,69.941L59.925,70.345L59.925,70.751L59.925,71.155L59.926,71.560L59.926,71.965L59.926,72.369L59.926,72.774L59.926,73.179L59.927,73.583L59.927,73.988L59.927,74.392L59.927,74.797L59.927,75.202L59.927,75.607L59.928,76.011L59.928,76.415L59.928,76.820L59.928,77.225L59.928,77.630L59.928,78.034L59.929,78.439L59.929,78.843L59.929,79.248L59.929,79.653L59.929,80.057L59.929,80.462L59.930,80.867L59.930,81.271L59.930,81.676L59.930,82.081L59.930,82.485L59.930,82.889L59.930,83.294L59.930,83.699L59.931,84.104L59.931,84.509L59.931,84.914L59.931,85.317L59.931,85.722L59.931,86.127L59.931,86.532L59.931,86.937L59.932,87.342L59.932,87.746L59.932,88.150L59.932,88.555L59.932,88.960L59.932,89.245L59.922,89.459L59.715,89.509L59.647,89.516L59.432,89.489L59.357,89.498L59.182,89.592L58.885,89.851L58.690,89.905L58.370,89.927L58.219,89.977L58.087,90.077L57.973,90.135L57.306,90.183L57.247,90.201L57.178,90.244L57.135,90.294L57.096,90.352L57.037,90.423L57.001,90.482L56.945,90.614L56.903,90.640L56.839,90.664L56.799,90.727L56.607,91.306L56.538,91.410L56.422,91.500L56.286,91.560L55.747,91.693L55.651,91.733L55.580,91.721L55.422,91.597L55.325,91.605L55.241,91.675L55.165,91.771L55.050,91.979L55.026,92.130L55.070,92.287L55.318,92.697L55.314,92.784L55.236,92.831L55.018,92.848L54.977,92.875L54.904,92.989L54.850,93.042L54.472,93.234L54.197,93.321L53.941,93.335L53.828,93.194L53.797,93.164L53.724,93.140L53.491,93.112L53.444,93.096L53.374,93.018L53.206,92.766L53.096,92.666L51.708,92.472L50.434,92.651L50.192,92.778L50.050,92.822L50.019,92.807L49.938,92.735L49.909,92.719L49.872,92.725L49.814,92.761L49.778,92.772L49.648,92.792L49.575,92.814L49.523,92.846L49.394,92.898L49.232,92.872L48.952,92.772L48.804,92.762L48.219,92.843L47.982,92.922L47.858,92.920L47.300,92.733L47.045,92.606L46.641,92.284L46.417,92.146L46.176,92.050L45.066,91.814L44.852,91.832L44.780,91.864L44.648,91.950L44.584,91.979L44.499,91.985L44.285,91.926L44.141,91.865L44.111,91.718L44.116,91.541L44.081,91.388L43.980,91.320L43.868,91.344L43.741,91.401L43.606,91.433L43.331,91.464L43.037,91.532L42.789,91.494L42.776,91.277L42.859,90.977L42.901,90.693L42.828,90.534L42.585,90.448L42.534,90.326L42.495,90.162L42.315,89.937L42.261,89.806L42.287,89.703L42.374,89.607L42.489,89.534L42.601,89.507L42.707,89.433L42.763,89.263L42.778,89.065L42.765,88.911L42.730,88.829L42.624,88.693L42.578,88.620L42.552,88.531L42.545,88.457L42.526,88.383L42.466,88.294L42.440,88.225L42.431,88.133L42.404,88.053L42.329,88.019L42.157,88.028L41.736,88.124L41.523,88.086L41.382,87.918L41.350,87.580L41.367,87.416L41.369,87.254L41.308,87.129L41.142,87.079L41.012,87.022L40.925,86.891L40.849,86.743L40.756,86.635L40.681,86.606L40.614,86.604L40.483,86.635L40.408,86.673L40.186,86.832L40.009,86.788L39.932,86.808L39.837,86.905L39.757,86.935L39.691,86.923L39.624,86.845L39.572,86.832L39.531,86.863L39.418,86.988L39.395,87.007L39.345,87.580L39.297,87.652L39.268,87.648L39.233,87.622L39.123,87.625L39.095,87.604L39.068,87.593L39.027,87.625L39.014,87.668L39.032,87.706L39.149,87.850L39.152,87.902L39.050,87.925L38.908,87.924L38.872,87.951L38.845,88.019L38.865,88.070L38.915,88.143L38.954,88.229L38.941,88.320L38.878,88.365L38.811,88.343L38.745,88.296L38.687,88.270L38.569,88.326L38.540,88.455L38.567,88.602L38.615,88.714L38.756,88.921L38.803,89.053L38.732,89.112L38.634,89.175L38.600,89.319L38.592,89.483L38.573,89.605L38.500,89.728L38.381,89.882L38.248,89.991L38.138,89.980L38.110,89.912L38.091,89.821L38.062,89.739L38.003,89.704L37.934,89.729L37.430,90.209L37.176,90.287L36.993,90.378L36.819,90.491L36.697,90.546Z" fill="currentColor" stroke="currentColor" stroke-width="1.5" stroke-linejoin="round"/>
</svg>