<svg xmlns="http://www.w3.org/2000/svg" viewBox="0 0 100 100" role="img" aria-label="New Caledonia">
  <title>New Caledonia</title>
  <path d="M9.302,36.270L9.313,36.394L9.305,36.508L9.276,36.615L9.221,36.713L9.142,36.534L8.967,36.595L8.859,36.500L8.745,36.195L8.745,36.099L8.824,36.000L8.890,35.703L8.982,35.674L9.092,35.776L9.185,36.117L9.302,36.270ZM50.480,67.761L50.603,67.980L50.756,68.119L50.873,68.294L50.879,68.621L50.736,68.517L50.596,68.210L50.480,68.187L50.424,68.282L50.429,68.442L50.480,68.749L50.321,69.023L49.954,68.979L49.289,68.706L49.351,68.394L49.356,67.663L49.447,67.420L49.656,67.367L49.967,67.434L50.276,67.578L50.480,67.761ZM42.104,65.629L42.256,65.583L42.380,65.590L42.483,65.662L42.588,65.800L42.590,65.948L42.556,66.034L42.500,66.044L42.421,65.963L42.332,66.036L42.267,66.079L42.104,66.142L42.104,66.218L42.328,66.253L42.303,66.341L42.178,66.422L42.104,66.431L42.019,66.400L41.854,66.363L41.743,66.276L41.824,66.099L41.911,65.952L41.925,65.833L41.960,65.727L42.104,65.629ZM57.660,53.554L57.738,53.815L57.733,54.264L57.648,54.746L57.500,55.097L57.562,55.671L57.536,55.932L57.388,56.042L57.246,56.066L56.807,56.191L56.471,56.384L55.976,56.340L55.572,56.134L55.593,55.787L55.348,55.675L55.041,55.600L54.728,55.597L54.470,55.700L54.442,55.663L54.419,55.621L54.402,55.577L54.391,55.523L54.515,55.439L54.660,55.313L54.772,55.142L54.797,54.926L54.736,54.823L54.474,54.539L54.391,54.415L54.322,54.191L54.288,53.859L54.241,53.647L54.150,53.439L53.828,52.957L53.998,52.870L54.148,52.836L54.298,52.842L54.470,52.872L54.768,53.014L54.952,53.066L55.153,52.884L55.917,52.353L55.947,52.517L55.732,52.848L55.670,53.086L55.732,53.297L55.868,53.524L56.028,53.714L56.148,53.817L56.510,53.903L56.926,53.853L57.331,53.719L57.660,53.554ZM37.716,44.665L37.809,44.653L38.107,44.665L38.047,44.777L37.932,44.834L37.637,44.921L37.572,44.855L37.512,44.810L37.433,44.777L37.319,44.750L37.407,44.690L37.500,44.661L37.602,44.653L37.716,44.665ZM49.447,48.509L49.593,48.622L49.764,48.797L49.825,48.957L49.442,49.097L49.366,49.275L49.368,49.753L49.343,50.005L49.269,50.161L49.142,50.273L48.964,50.393L48.767,50.307L48.502,50.307L48.268,50.212L48.168,49.838L48.081,49.780L47.890,49.753L47.698,49.704L47.612,49.582L47.592,49.373L47.529,49.304L46.463,49.189L46.117,49.074L45.812,48.811L45.536,48.509L45.507,48.421L45.488,48.308L45.442,48.210L45.198,48.117L45.130,47.991L45.135,47.826L45.212,47.657L44.745,47.230L44.656,47.060L45.370,47.116L45.609,47.060L45.829,46.933L45.967,46.789L46.173,46.454L46.523,46.037L46.636,45.789L46.571,45.517L46.426,45.433L45.812,45.168L44.930,45.268L44.908,45.147L44.961,44.881L45.098,44.616L45.334,44.494L45.730,44.430L45.812,44.451L45.891,44.524L45.977,44.562L46.079,44.578L46.210,44.579L46.327,44.543L46.415,44.448L46.472,44.323L46.491,44.192L46.889,44.068L47.764,44.560L47.922,44.579L48.003,44.802L47.912,45.017L47.766,45.235L47.691,45.470L47.700,45.619L47.771,45.944L47.922,46.285L47.878,46.442L47.724,46.692L47.691,46.842L47.728,46.936L47.819,46.984L47.936,47.027L48.050,47.098L48.169,47.210L48.268,47.281L48.567,47.393L48.703,47.407L48.817,47.401L48.902,47.434L48.964,47.572L49.006,47.634L49.076,47.762L49.130,47.818L49.000,48.036L48.959,48.155L48.964,48.261L49.062,48.402L49.186,48.452L49.320,48.468L49.447,48.509ZM40.188,40.983L40.317,41.079L40.609,41.241L40.666,41.324L40.614,41.465L40.489,41.511L40.144,41.494L39.997,41.536L39.887,41.634L39.821,41.761L39.798,41.883L39.765,41.918L39.588,42.393L39.513,42.538L39.506,42.729L39.545,43.079L39.611,43.166L39.765,43.170L40.101,43.122L39.655,43.981L39.466,44.231L39.284,44.355L39.024,44.475L38.747,44.560L38.519,44.579L38.425,44.494L38.353,44.408L38.533,44.334L38.694,44.210L38.988,43.897L39.181,43.631L39.269,43.473L39.305,43.250L39.284,42.489L39.346,42.312L39.481,42.134L39.625,41.889L39.742,41.628L39.798,41.402L39.747,41.165L39.525,40.854L39.422,40.744L39.373,40.761L39.305,40.805L39.332,40.694L39.458,40.574L39.633,40.488L39.798,40.464L39.941,40.538L40.029,40.678L40.100,40.842L40.188,40.983ZM44.814,63.614L44.783,63.729L44.711,63.747L44.626,63.751L44.569,63.831L44.597,63.910L44.671,63.998L44.729,64.101L44.692,64.215L44.652,64.297L44.569,64.599L44.481,64.767L44.422,64.853L44.336,64.949L44.314,64.889L44.279,64.833L44.211,64.864L44.151,64.925L44.012,64.985L43.956,65.029L43.969,65.093L44.019,65.203L43.651,65.499L43.431,65.589L43.143,65.544L43.384,65.457L43.478,65.395L43.543,65.280L43.363,65.285L43.284,65.310L43.193,65.206L43.130,65.044L43.034,64.865L42.986,64.815L42.949,64.670L42.875,64.761L42.804,64.932L42.783,65.026L42.687,64.975L42.626,64.858L42.571,64.718L42.500,64.599L42.552,64.584L42.660,64.522L42.554,64.369L42.449,64.406L42.372,64.573L42.328,64.932L42.307,64.995L42.303,65.064L42.343,65.203L42.375,65.219L42.588,65.373L42.460,65.404L42.300,65.376L42.161,65.334L42.104,65.328L42.073,65.392L41.999,65.463L41.907,65.520L41.824,65.544L41.532,65.477L41.376,65.322L41.392,65.150L41.618,65.026L41.618,64.949L41.408,64.971L41.152,64.942L40.990,64.829L41.062,64.599L40.984,64.522L40.810,64.584L40.541,64.485L40.296,64.304L40.188,64.129L40.137,64.107L39.871,64.224L39.750,64.258L39.657,64.235L39.365,64.109L39.265,64.044L39.224,63.922L39.303,63.852L39.355,63.779L39.225,63.654L39.121,63.615L38.780,63.565L38.662,63.577L38.533,63.760L38.454,64.038L38.338,64.235L38.107,64.172L38.104,64.223L38.098,64.245L38.078,64.253L38.035,64.258L38.126,64.491L38.006,64.550L37.853,64.495L37.830,64.386L37.864,64.278L37.883,63.961L37.962,63.831L37.962,63.747L37.791,63.758L37.637,63.717L37.504,63.625L37.398,63.481L37.775,63.497L37.939,63.451L38.035,63.321L37.824,63.308L37.754,63.200L37.796,62.800L37.680,62.809L37.428,62.768L37.319,62.800L37.280,62.873L37.231,63.101L37.199,63.150L37.052,63.172L36.995,63.235L36.961,63.328L36.881,63.444L36.773,63.489L36.719,63.413L36.738,63.279L36.841,63.150L36.722,63.077L36.437,62.800L36.437,62.723L36.512,62.681L36.550,62.636L36.573,62.566L36.588,62.459L36.516,62.459L36.401,62.581L36.097,62.514L36.118,62.630L35.897,62.719L35.703,62.646L35.517,62.544L35.315,62.544L35.305,62.306L35.199,62.119L35.042,61.993L34.879,61.949L34.735,61.867L34.601,61.731L34.459,61.705L34.283,61.949L34.156,61.874L34.035,61.778L34.089,61.713L34.117,61.646L34.124,61.556L34.123,61.428L34.196,61.428L34.294,61.541L34.422,61.596L34.519,61.547L34.521,61.351L34.450,61.230L34.223,61.130L34.123,61.004L34.441,61.006L34.573,61.032L34.681,61.087L34.669,60.956L34.618,60.878L34.528,60.841L34.402,60.833L34.342,60.756L34.361,60.593L34.409,60.444L34.442,60.406L34.348,60.128L34.200,60.010L33.798,59.886L33.657,59.973L33.582,59.938L33.597,59.835L33.725,59.715L33.603,59.656L33.518,59.563L33.474,59.441L33.480,59.290L33.298,59.408L33.231,59.524L33.242,59.843L33.188,59.919L33.065,59.918L32.930,59.892L32.844,59.886L32.888,59.947L32.879,60.097L32.804,60.199L32.645,60.103L32.477,59.871L32.371,59.761L32.009,59.622L31.769,59.212L31.601,59.120L31.522,59.097L31.434,59.042L31.286,58.913L31.215,58.874L31.155,58.896L31.092,58.941L31.016,58.956L30.677,58.950L30.565,58.883L30.538,58.693L30.783,58.803L30.705,58.679L30.379,58.360L30.379,58.262L30.428,58.146L30.441,58.053L30.336,58.011L30.214,58.041L30.166,58.116L30.171,58.228L30.214,58.360L30.019,58.292L29.979,58.150L29.995,57.965L29.966,57.762L29.869,57.636L29.748,57.530L29.657,57.389L29.657,57.150L29.568,57.150L29.475,57.346L29.353,57.506L29.202,57.620L29.014,57.670L29.023,57.414L29.011,57.270L28.923,57.218L28.701,57.237L28.694,57.264L28.698,57.323L28.684,57.383L28.614,57.414L28.551,57.404L26.997,56.630L26.640,56.301L26.779,56.042L26.779,55.949L26.612,56.010L26.515,55.978L26.532,55.911L26.700,55.865L26.515,55.725L26.321,55.770L26.127,55.886L25.936,55.949L25.733,55.911L24.507,55.364L24.347,55.232L24.252,55.063L24.144,54.670L24.112,54.594L23.892,54.567L23.748,54.494L23.424,54.244L23.330,54.219L23.225,54.216L23.142,54.193L23.108,54.112L22.949,53.933L22.912,53.903L22.478,53.128L22.458,53.011L22.495,52.949L22.501,52.893L22.421,52.821L22.392,52.795L22.312,52.797L22.207,52.838L22.135,52.877L22.145,52.872L22.105,53.049L22.003,53.108L21.897,53.047L21.841,52.872L21.754,52.949L21.664,53.011L21.562,53.025L21.431,52.957L21.650,52.716L21.623,52.508L21.442,52.397L21.186,52.445L21.283,52.258L21.229,52.133L20.952,51.933L20.848,52.102L20.884,52.365L20.794,52.531L20.669,52.608L20.555,52.580L20.462,52.486L20.396,52.353L20.443,52.254L20.450,52.147L20.488,52.039L20.555,51.933L20.467,51.826L20.385,51.799L20.297,51.786L20.194,51.722L20.129,51.643L20.049,51.500L19.190,50.451L19.133,50.279L19.116,50.012L19.123,49.816L19.108,49.594L19.015,49.462L18.793,49.539L18.807,49.377L18.826,49.338L18.878,49.283L18.878,49.190L18.801,49.189L18.746,49.169L18.633,49.114L18.702,49.018L18.687,48.966L18.605,48.966L18.474,49.029L18.446,49.173L18.314,49.192L18.207,49.096L18.162,48.901L18.088,48.891L17.945,48.914L17.851,48.984L17.923,49.114L17.849,49.204L17.764,49.283L17.550,48.698L17.402,48.458L17.209,48.338L17.433,48.176L17.331,48.070L17.087,47.968L16.890,47.818L17.074,47.801L17.171,47.722L17.183,47.608L17.122,47.486L16.978,47.402L16.828,47.385L16.728,47.332L16.724,47.137L16.652,47.137L16.470,47.259L16.288,47.170L16.009,46.889L15.887,46.854L15.648,46.847L15.524,46.795L15.474,46.730L15.329,46.454L15.069,46.403L14.860,46.271L14.352,45.743L14.005,45.507L13.848,45.340L13.733,45.141L13.808,45.131L13.981,45.161L14.165,45.091L14.255,44.896L14.184,44.733L14.013,44.621L13.808,44.579L13.635,44.445L13.378,43.860L13.164,43.727L12.813,42.866L12.748,42.912L12.694,42.924L12.640,42.932L12.574,42.951L12.457,42.731L11.718,42.241L11.541,41.969L11.407,41.457L11.382,41.282L11.323,41.076L11.187,40.983L11.030,40.921L10.912,40.805L10.857,40.549L10.991,40.522L11.303,40.634L11.414,40.503L11.460,40.292L11.462,39.910L11.414,39.822L11.295,39.659L11.150,39.503L11.018,39.433L10.470,39.406L10.334,39.348L10.412,39.183L10.421,39.020L10.347,38.936L10.182,39.006L10.232,39.131L10.166,39.272L10.051,39.385L9.943,39.433L9.771,39.384L9.717,39.269L9.686,39.153L9.586,39.099L9.415,38.975L9.454,38.729L9.669,38.560L10.024,38.665L10.132,38.518L10.087,38.366L9.865,38.077L10.001,38.018L10.087,37.896L10.101,37.735L10.024,37.567L9.851,37.427L9.711,37.453L9.564,37.534L9.381,37.567L9.381,37.471L9.441,37.421L9.479,37.365L9.540,37.217L9.371,37.160L9.312,37.044L9.326,36.890L9.381,36.713L9.471,36.726L9.633,36.713L9.851,36.847L10.078,37.040L10.260,37.249L10.377,37.546L10.486,37.616L10.746,37.735L11.606,38.764L11.780,38.928L12.320,39.238L12.554,39.280L12.813,39.184L12.885,39.184L13.038,39.531L13.162,39.660L13.371,39.689L13.265,39.536L13.096,39.111L13.020,38.707L13.044,38.610L13.153,38.607L15.247,39.424L15.619,39.753L16.239,40.556L16.407,40.715L16.640,40.883L16.885,41.013L17.086,41.067L17.448,41.402L17.567,41.457L17.923,41.579L18.090,41.738L18.416,42.178L18.596,42.269L18.696,42.357L19.116,42.951L19.719,43.499L19.833,43.509L20.187,43.731L20.367,43.905L20.310,44.068L20.515,44.212L20.988,44.233L21.186,44.408L21.406,44.488L21.838,44.841L23.068,45.091L23.103,45.116L23.197,45.232L23.265,45.268L23.305,45.253L23.364,45.210L23.434,45.172L23.511,45.168L23.655,45.220L23.707,45.265L23.743,45.326L23.831,45.424L24.112,45.665L24.200,45.830L24.148,46.021L24.266,46.533L24.387,46.712L24.563,46.841L24.743,46.946L24.886,47.073L24.944,47.268L25.042,47.308L25.659,47.393L25.869,47.462L25.932,47.527L25.883,47.944L25.809,48.225L25.778,48.299L25.727,48.390L25.746,48.472L25.793,48.553L25.818,48.640L25.858,48.854L25.955,48.990L26.339,49.280L26.667,49.458L26.819,49.582L26.970,49.750L27.058,49.785L27.359,49.804L27.445,49.844L27.467,49.925L27.422,50.059L27.490,50.031L27.520,50.025L27.541,50.012L27.583,49.966L27.939,50.265L28.093,50.431L28.138,50.561L28.199,50.602L28.231,50.639L28.288,50.740L28.093,50.737L27.914,50.688L27.746,50.603L27.583,50.486L27.634,50.604L27.743,50.746L27.882,50.862L28.019,50.911L28.138,50.990L28.226,51.173L28.300,51.374L28.377,51.509L28.647,51.628L29.350,51.810L29.568,52.027L29.907,51.937L30.220,52.110L30.451,52.411L30.538,52.702L30.743,52.653L30.865,53.182L31.093,53.390L30.972,53.143L30.961,53.049L31.016,52.957L31.122,52.893L31.232,52.897L31.332,52.975L31.412,53.128L31.476,53.018L31.490,52.882L31.444,52.742L31.325,52.616L31.533,52.671L31.700,52.882L32.105,53.640L32.183,53.853L32.130,53.960L31.883,53.903L31.967,54.033L32.445,54.328L32.377,54.443L32.469,54.455L32.612,54.415L32.685,54.371L32.655,54.212L32.587,54.094L32.507,53.998L32.445,53.903L32.348,53.604L32.324,53.374L32.411,53.287L32.645,53.426L33.003,53.817L33.123,53.852L33.413,53.888L33.520,53.945L33.544,54.030L33.463,54.069L33.361,54.098L33.328,54.152L33.378,54.205L33.457,54.230L33.559,54.244L33.588,54.376L33.609,54.608L33.639,54.755L33.908,54.622L34.123,54.621L34.318,54.730L34.918,55.274L34.991,55.313L35.144,55.356L35.199,55.398L35.315,55.616L35.724,55.888L36.156,56.097L37.080,56.390L37.080,56.468L36.755,56.468L36.755,56.554L36.839,56.610L36.864,56.682L36.878,56.756L36.921,56.817L36.998,56.853L37.157,56.866L37.557,56.972L37.723,57.057L37.856,57.297L38.309,57.632L38.360,57.719L38.400,57.945L38.471,58.054L38.541,58.103L38.749,58.189L38.662,58.267L38.929,58.500L39.445,59.087L39.668,59.205L39.878,59.371L40.191,59.693L40.469,59.895L40.584,59.715L40.990,60.000L41.141,60.057L41.141,60.150L41.052,60.211L40.958,60.258L40.855,60.291L40.745,60.313L40.745,60.406L40.840,60.450L41.181,60.406L41.333,60.439L41.456,60.500L41.551,60.534L41.618,60.483L41.703,60.709L41.831,60.831L42.016,60.888L42.264,60.918L42.942,61.087L43.108,61.181L43.700,61.646L43.810,61.798L43.939,62.034L43.956,62.138L43.939,62.459L43.892,62.530L43.810,62.619L43.807,62.693L43.979,62.723L44.081,62.774L44.177,62.898L44.336,63.150L44.749,63.481L44.814,63.614ZM12.091,37.394L12.273,37.652L12.049,37.592L11.719,37.412L11.446,37.215L11.389,36.987L11.382,36.449L11.462,36.449L11.979,37.147L12.091,37.394ZM5.781,32.427L5.910,32.647L5.936,32.742L5.628,33.024L5.282,32.225L5.237,31.949L5.258,31.437L5.193,31.254L5.000,31.132L5.071,30.977L5.259,31.077L5.395,31.258L5.634,31.845L5.715,32.248L5.781,32.427ZM94.963,64.954L95.000,64.974L94.979,65.010L94.945,64.990L94.963,64.954Z" fill="currentColor" stroke="currentColor" stroke-width="1" stroke-linejoin="round"/>
</svg>