<svg xmlns="http://www.w3.org/2000/svg" viewBox="0 0 100 100" role="img" aria-label="Niger">
  <title>Niger</title>
  <path d="M24.593,85.285L24.553,85.251L24.500,85.156L24.453,85.129L24.433,85.083L24.421,85.031L24.400,84.985L24.371,84.891L24.350,84.844L24.325,84.819L24.293,84.800L24.255,84.765L24.064,84.484L24.019,84.439L23.955,84.393L23.747,84.317L23.492,84.154L23.428,84.132L23.367,84.095L23.300,84.082L23.220,84.131L23.143,84.168L23.065,84.147L22.995,84.098L22.946,84.052L22.865,83.954L22.735,83.728L22.694,83.620L22.665,83.484L22.651,83.357L22.634,83.325L22.557,83.265L22.539,83.233L21.560,82.312L21.330,81.962L21.274,81.851L21.253,81.819L21.205,81.804L21.016,81.782L20.949,81.756L20.886,81.723L20.840,81.673L20.804,81.539L20.759,81.465L20.702,81.401L20.587,81.337L20.314,81.086L20.246,81.176L20.111,81.181L20.053,81.193L19.937,81.189L19.883,81.200L19.820,81.243L19.729,81.355L19.676,81.399L19.617,81.414L19.557,81.372L19.495,81.397L19.465,81.432L19.448,81.475L19.437,81.522L19.418,81.568L19.339,81.698L19.287,81.728L19.086,81.673L19.047,81.681L18.979,81.733L18.944,81.751L18.916,81.748L18.867,81.718L18.845,81.714L18.642,81.770L18.617,81.788L18.565,81.839L18.532,81.859L18.489,81.862L18.472,81.835L18.463,81.802L18.447,81.789L18.380,81.786L18.327,81.778L18.287,81.795L18.260,81.869L18.228,81.931L18.199,81.921L18.167,81.887L18.124,81.876L18.095,81.899L18.048,81.966L18.034,81.981L17.961,81.988L17.831,81.983L17.753,81.993L17.615,82.058L17.565,82.162L17.570,82.298L17.626,82.630L17.817,83.190L17.849,83.249L17.890,83.298L17.948,83.347L18.009,83.376L18.063,83.389L18.100,83.417L18.112,83.491L18.108,83.594L18.067,83.603L18.007,83.581L17.950,83.586L17.911,83.629L17.866,83.715L17.828,83.760L17.779,83.775L17.725,83.767L17.677,83.780L17.644,83.857L17.652,83.922L17.719,84.025L17.730,84.086L17.433,83.826L16.982,83.178L16.582,82.600L16.157,81.988L15.913,81.637L15.804,81.428L15.818,81.255L15.904,81.181L16.232,81.110L16.258,81.090L16.299,81.031L16.335,81.011L16.352,81.017L16.413,81.047L16.442,81.053L16.780,81.023L16.863,81.001L16.903,80.937L16.892,80.805L16.893,80.775L16.911,80.713L16.911,80.688L16.888,80.643L16.816,80.561L16.783,80.515L16.737,80.422L16.709,80.346L16.666,79.987L16.648,79.911L16.609,79.831L16.558,79.764L16.454,79.698L16.394,79.648L16.334,79.584L16.312,79.552L16.279,79.436L16.130,79.256L15.902,79.193L15.349,79.145L15.296,79.176L15.200,79.285L15.137,79.329L15.092,79.320L15.052,79.300L15.006,79.310L14.980,79.339L14.942,79.419L14.845,79.565L14.785,79.683L14.717,79.785L14.621,79.851L14.520,79.862L13.800,79.798L13.217,79.746L13.028,79.695L12.869,79.604L12.478,79.264L12.164,78.992L11.701,78.591L11.554,78.463L11.133,78.098L10.792,77.802L10.468,77.522L10.296,77.434L9.890,77.398L9.726,77.306L9.675,77.211L9.659,77.097L9.658,76.987L9.657,76.607L9.654,76.045L9.651,75.539L9.726,75.300L9.847,75.321L10.302,75.508L10.608,75.587L10.734,75.641L10.773,75.628L10.830,75.424L10.857,75.358L10.887,75.326L10.990,75.357L11.083,75.442L11.194,75.496L11.349,75.433L11.240,75.308L11.153,75.245L11.057,75.220L10.816,75.190L10.714,75.155L10.094,74.861L9.907,74.719L9.800,74.538L9.771,74.269L9.541,74.018L9.233,73.828L8.970,73.747L8.756,73.768L8.655,73.763L8.543,73.707L8.475,73.640L8.471,73.601L8.490,73.576L8.494,73.554L8.489,73.518L8.491,73.469L8.474,73.428L8.416,73.415L7.661,73.440L7.511,73.387L7.433,73.238L7.457,73.147L7.513,73.023L7.547,72.910L7.508,72.854L7.398,72.813L7.334,72.743L7.276,72.664L7.084,72.535L6.998,72.453L6.974,72.419L6.929,72.355L6.881,72.244L6.836,72.193L6.718,72.113L6.682,72.069L6.679,72.007L6.726,71.899L6.728,71.847L6.667,71.777L6.567,71.724L6.473,71.658L6.428,71.553L6.416,71.447L6.357,71.395L6.283,71.358L6.230,71.296L6.230,71.244L6.277,71.148L6.283,71.109L6.259,71.059L6.228,71.027L6.192,70.999L6.157,70.958L6.085,70.847L6.060,70.779L6.084,70.709L6.220,70.492L6.247,70.421L6.277,70.237L6.298,70.183L6.352,70.111L6.358,70.062L6.342,70.028L6.101,69.694L5.281,68.930L5.203,68.857L5.034,68.568L5.000,68.266L5.380,67.165L5.342,66.983L5.177,66.637L5.187,66.466L5.256,66.373L5.335,66.307L5.386,66.227L5.373,66.092L5.340,65.795L5.343,65.647L5.389,65.584L6.139,65.778L6.332,65.779L6.513,65.740L6.881,65.607L7.059,65.599L7.942,65.920L8.021,65.913L8.178,65.874L8.340,65.809L8.506,65.745L9.377,65.715L9.531,65.682L9.670,65.612L10.147,65.159L10.520,64.806L10.976,64.373L11.361,64.009L11.514,63.914L11.706,63.867L12.125,63.852L12.675,63.833L13.224,63.813L13.774,63.795L14.323,63.775L14.873,63.756L15.422,63.737L15.973,63.718L16.522,63.699L17.072,63.680L17.621,63.660L18.171,63.641L18.720,63.622L19.270,63.603L19.820,63.584L20.370,63.565L20.919,63.546L21.201,63.536L21.232,63.457L21.233,63.236L21.244,63.126L21.258,63.067L21.299,63.036L21.390,63.014L21.615,63.010L22.294,63.127L23.364,63.314L23.950,63.415L23.981,63.426L24.085,63.447L24.139,62.759L24.196,62.599L24.694,62.290L25.138,61.791L25.347,61.675L25.799,61.587L26.014,61.469L26.157,61.293L26.172,61.257L26.244,61.082L26.289,60.852L26.340,60.269L26.377,60.159L26.463,60.023L26.794,59.686L26.800,59.669L26.803,59.651L26.802,59.615L26.802,59.606L26.801,59.598L26.798,59.590L26.794,59.582L26.724,59.406L26.701,59.241L26.725,59.077L27.234,57.810L27.320,57.674L27.429,57.556L27.562,57.451L27.810,57.322L27.890,57.247L27.936,57.107L27.933,56.447L27.931,55.933L27.927,55.134L27.925,54.757L27.940,54.704L28.014,54.585L28.039,54.523L28.008,53.937L28.015,53.829L28.049,53.724L28.094,53.704L28.154,53.701L28.230,53.646L28.229,53.019L28.227,52.642L28.225,51.905L28.223,51.166L28.220,50.428L28.217,49.690L28.216,48.952L28.213,48.214L28.212,47.799L28.211,47.476L28.209,46.737L28.207,45.999L28.204,45.262L28.202,44.523L28.200,43.799L28.200,43.785L28.197,43.047L28.195,42.309L28.193,41.571L28.190,40.833L29.264,40.617L30.337,40.401L31.410,40.185L32.484,39.969L33.051,39.855L34.297,39.604L35.543,39.354L36.110,39.240L36.843,39.093L37.099,38.997L37.345,38.825L37.794,38.421L38.152,38.097L38.512,37.773L38.870,37.449L39.229,37.126L39.588,36.802L39.946,36.478L40.305,36.154L40.665,35.831L41.022,35.507L41.381,35.183L41.740,34.859L42.099,34.535L42.458,34.212L42.816,33.888L43.175,33.565L43.533,33.241L43.862,32.945L44.076,32.755L44.517,32.377L44.924,32.029L45.330,31.682L45.736,31.334L46.142,30.986L46.706,30.503L47.452,30.043L47.839,29.803L48.226,29.564L48.613,29.324L49.001,29.085L49.387,28.845L49.775,28.605L50.162,28.366L50.549,28.126L50.936,27.887L51.324,27.648L51.711,27.408L52.098,27.169L52.485,26.929L52.872,26.690L53.260,26.450L53.646,26.211L54.034,25.971L54.421,25.732L54.809,25.492L55.196,25.253L55.583,25.013L55.970,24.774L56.357,24.534L56.744,24.295L57.131,24.055L57.519,23.816L57.906,23.576L58.293,23.337L58.680,23.097L59.067,22.858L59.455,22.618L59.842,22.379L60.229,22.139L60.616,21.900L61.003,21.660L61.390,21.421L61.778,21.181L62.165,20.942L62.552,20.703L62.939,20.463L63.327,20.223L63.713,19.984L64.101,19.744L64.488,19.505L64.875,19.266L65.262,19.026L65.650,18.786L66.037,18.547L66.424,18.308L66.812,18.068L67.199,17.829L67.586,17.589L67.973,17.349L68.361,17.110L68.747,16.871L69.135,16.631L69.522,16.392L69.908,16.152L70.296,15.913L70.684,15.673L71.070,15.434L71.457,15.194L71.845,14.955L72.232,14.715L72.734,14.833L73.236,14.950L73.739,15.068L74.240,15.185L74.742,15.303L75.245,15.420L75.746,15.537L76.248,15.655L76.751,15.773L77.252,15.890L77.754,16.008L78.256,16.125L78.758,16.243L79.261,16.361L79.763,16.478L80.265,16.595L80.843,16.731L81.511,17.093L81.830,17.370L82.542,17.985L83.254,18.600L83.965,19.214L84.678,19.829L84.936,20.053L85.019,20.094L85.107,20.084L85.467,19.894L86.441,19.378L87.414,18.863L88.387,18.347L89.360,17.831L89.361,17.831L89.365,17.829L89.433,18.203L89.502,18.577L89.569,18.951L89.638,19.325L89.706,19.699L89.774,20.073L89.843,20.447L89.911,20.820L89.980,21.195L90.048,21.569L90.117,21.943L90.185,22.317L90.253,22.691L90.322,23.065L90.368,23.318L90.415,23.572L90.458,23.812L90.460,23.930L90.465,24.241L90.472,24.681L90.481,25.185L90.489,25.689L90.497,26.129L90.502,26.440L90.504,26.558L90.505,26.714L90.529,26.810L90.618,26.898L90.887,27.037L90.996,27.112L91.192,27.347L91.327,27.554L91.422,27.700L91.517,27.846L91.613,27.992L91.708,28.138L91.803,28.285L91.899,28.431L91.994,28.577L92.090,28.723L92.185,28.870L92.280,29.016L92.375,29.162L92.471,29.308L92.566,29.454L92.661,29.601L92.757,29.747L92.852,29.893L92.946,30.037L92.717,30.167L92.576,30.397L92.529,30.674L92.575,30.943L92.643,31.094L92.724,31.224L92.825,31.338L93.288,31.701L93.446,31.874L93.778,32.238L94.110,32.602L94.441,32.965L94.772,33.328L94.907,33.476L94.988,33.606L95.000,33.704L94.958,33.807L94.842,34.017L94.614,34.429L94.385,34.841L94.158,35.253L93.930,35.664L93.844,35.819L93.667,36.288L93.646,36.537L93.623,36.809L93.600,37.082L93.577,37.354L93.554,37.627L93.531,37.898L93.508,38.171L93.485,38.443L93.462,38.716L93.439,38.988L93.417,39.260L93.393,39.533L93.370,39.805L93.348,40.077L93.325,40.350L93.302,40.622L93.279,40.894L93.256,41.167L93.233,41.439L93.210,41.711L93.186,41.984L93.163,42.256L93.141,42.528L93.118,42.800L93.095,43.073L93.072,43.345L93.049,43.618L93.026,43.890L93.003,44.162L92.980,44.435L92.957,44.707L92.934,44.979L92.911,45.252L92.888,45.524L92.865,45.796L92.842,46.069L92.820,46.341L92.797,46.613L92.774,46.886L92.751,47.158L92.728,47.430L92.709,47.651L92.705,47.703L92.682,47.975L92.659,48.247L92.636,48.519L92.613,48.792L92.590,49.064L92.567,49.337L92.544,49.609L92.521,49.882L92.498,50.154L92.475,50.427L92.452,50.699L92.430,50.971L92.407,51.243L92.384,51.516L92.360,51.788L92.337,52.061L92.314,52.333L92.291,52.605L92.268,52.877L92.245,53.150L92.223,53.422L92.200,53.694L92.177,53.967L92.164,54.118L92.145,54.189L92.128,54.250L92.053,54.360L91.860,54.571L91.541,54.918L91.222,55.267L90.902,55.615L90.583,55.964L90.264,56.312L89.944,56.660L89.626,57.008L89.306,57.356L88.987,57.705L88.668,58.053L88.349,58.401L88.030,58.750L87.711,59.098L87.392,59.446L87.072,59.795L86.752,60.142L86.532,60.383L86.199,60.747L85.888,61.085L85.726,61.317L85.557,61.561L85.386,61.804L85.217,62.047L85.047,62.290L84.877,62.533L84.708,62.777L84.538,63.020L84.368,63.263L84.198,63.505L84.028,63.749L83.858,63.992L83.688,64.235L83.519,64.478L83.349,64.721L83.179,64.965L83.009,65.208L82.844,65.443L82.697,65.766L82.511,66.172L82.426,66.358L82.396,66.472L82.389,66.599L82.412,66.721L82.492,66.976L82.499,67.097L82.448,67.237L82.362,67.284L82.253,67.293L82.139,67.320L82.082,67.364L81.900,67.573L81.788,67.653L81.767,67.684L81.776,67.715L81.837,67.771L81.856,67.806L81.893,68.034L81.886,68.146L81.842,68.254L81.651,68.418L81.559,68.436L81.424,68.462L81.194,68.482L80.988,68.569L80.843,68.643L80.657,68.909L80.655,69.260L80.764,69.675L80.843,69.979L80.902,70.253L80.942,70.443L80.984,70.634L81.025,70.824L81.065,71.014L81.106,71.204L81.147,71.394L81.188,71.584L81.228,71.774L81.269,71.964L81.310,72.155L81.351,72.345L81.391,72.535L81.432,72.725L81.473,72.916L81.514,73.106L81.555,73.296L80.147,73.235L80.141,73.236L79.976,73.264L79.924,73.307L79.927,73.409L79.840,73.472L79.613,73.690L79.574,73.745L79.543,73.805L79.542,73.829L79.570,73.871L79.579,73.905L79.563,73.952L79.526,73.961L79.486,73.958L79.462,73.968L79.409,74.050L79.421,74.079L79.501,74.090L79.397,74.228L79.259,74.279L79.106,74.309L78.954,74.379L78.974,74.331L78.986,74.271L78.974,74.223L78.918,74.212L78.887,74.237L78.844,74.336L78.802,74.379L78.804,74.315L78.802,74.294L78.708,74.326L78.601,74.332L78.537,74.307L78.568,74.249L78.568,74.212L78.411,74.226L78.266,74.281L77.754,74.544L77.597,74.575L77.438,74.538L77.415,74.636L77.363,74.641L77.290,74.605L77.202,74.579L77.202,74.624L77.249,74.638L77.289,74.662L77.325,74.698L77.360,74.746L77.286,74.809L77.128,74.990L77.123,75.007L77.132,75.056L77.128,75.072L77.111,75.075L77.061,75.068L77.046,75.072L77.022,75.086L76.946,75.114L76.930,75.135L76.952,75.205L76.988,75.250L76.991,75.273L76.911,75.279L76.898,75.258L76.866,75.217L76.832,75.191L76.817,75.215L76.809,75.217L76.771,75.316L76.624,75.501L76.531,75.575L76.402,75.605L76.335,75.637L76.296,75.774L76.246,75.806L76.160,75.788L76.103,75.747L76.054,75.694L75.994,75.646L75.987,75.743L75.976,75.778L75.938,75.819L75.899,75.849L75.858,75.862L75.839,75.828L75.809,75.849L75.602,76.050L75.585,76.147L75.511,76.256L75.472,76.345L75.563,76.380L75.527,76.512L75.496,76.575L75.450,76.628L75.407,76.642L75.279,76.666L75.253,76.688L75.204,77.006L75.178,77.077L75.099,77.116L75.006,77.097L74.897,77.057L74.767,77.036L74.610,77.030L74.410,77.023L74.317,76.995L74.263,77.029L74.221,76.999L74.178,76.946L74.122,76.914L74.068,76.921L74.033,76.950L74.007,76.981L73.986,76.995L73.941,76.987L73.931,76.964L73.929,76.931L73.907,76.891L73.842,76.854L73.555,76.751L73.460,76.770L73.341,76.855L73.260,76.869L73.072,76.885L72.737,76.802L72.625,76.745L72.363,76.532L71.572,76.034L70.943,75.771L69.223,75.324L66.452,75.339L65.418,75.215L64.870,75.260L64.716,75.294L61.948,75.904L61.711,76.006L60.632,76.628L60.531,76.728L60.507,76.790L60.485,76.936L60.459,76.996L60.413,77.044L60.390,77.048L60.362,77.044L60.301,77.066L60.192,77.138L60.001,77.325L59.024,78.511L58.985,78.559L58.920,78.617L58.858,78.659L58.819,78.676L58.698,78.685L57.490,78.539L57.387,78.546L57.083,78.634L56.872,78.635L55.213,78.435L55.014,78.411L53.515,77.955L53.306,77.831L53.208,77.709L53.045,77.431L52.934,77.306L52.685,77.113L52.549,77.046L52.396,77.012L52.328,77.012L52.187,77.029L52.122,77.051L52.057,77.084L52.033,77.101L52.012,77.099L51.955,77.076L51.913,77.049L51.345,76.517L51.203,76.342L51.128,76.274L51.053,76.238L51.047,76.235L50.878,76.188L50.796,76.148L50.603,75.993L50.446,75.893L50.313,75.762L50.247,75.710L50.090,75.649L48.648,75.438L48.453,75.458L48.259,75.546L46.190,76.827L46.012,76.887L45.807,76.885L45.214,76.773L45.087,76.798L44.741,77.217L44.472,77.461L44.350,77.523L44.317,77.528L44.215,77.546L43.792,77.548L43.602,77.527L43.428,77.458L43.243,77.317L43.037,77.120L42.700,76.722L42.559,76.455L42.096,75.582L41.167,74.538L40.369,73.761L39.989,73.536L39.887,73.514L39.577,73.445L39.468,73.468L39.139,73.657L39.080,73.674L39.042,73.657L39.006,73.625L38.954,73.595L37.344,72.940L35.734,72.285L35.548,72.244L34.708,72.394L34.550,72.475L34.484,72.564L34.389,72.784L34.310,72.879L34.136,73.007L34.070,73.036L33.875,73.074L33.060,73.037L32.484,73.143L32.153,73.123L32.024,73.064L31.896,72.938L31.765,72.878L31.583,72.898L30.451,73.182L29.773,73.352L29.465,73.477L29.198,73.671L28.303,74.549L28.144,74.630L27.973,74.664L27.605,74.676L27.593,76.105L27.574,76.242L27.395,77.522L26.486,78.989L26.118,79.352L24.874,80.314L24.850,80.377L24.907,81.863L24.753,82.647L24.750,82.906L24.892,83.343L24.918,83.548L24.822,83.746L24.725,83.849L24.662,83.935L24.636,84.032L24.669,84.372L24.687,84.430L24.720,84.493L24.739,84.513L24.763,84.528L24.897,84.676L24.967,84.785L24.995,84.903L24.954,85.032L24.885,85.104L24.593,85.285Z" fill="currentColor" stroke="currentColor" stroke-width="1.5" stroke-linejoin="round"/>
</svg>