<svg xmlns="http://www.w3.org/2000/svg" viewBox="0 0 100 100" role="img" aria-label="Nigeria">
  <title>Nigeria</title>
  <path d="M11.941,30.102L12.326,29.873L12.417,29.781L12.470,29.617L12.433,29.467L12.341,29.327L12.165,29.140L12.133,29.121L12.107,29.095L12.065,29.015L12.041,28.940L11.997,28.509L12.031,28.384L12.114,28.276L12.242,28.144L12.369,27.892L12.334,27.632L12.148,27.076L12.151,26.746L12.354,25.748L12.279,23.857L12.310,23.777L13.951,22.553L14.436,22.092L15.634,20.224L15.870,18.596L15.896,18.421L15.911,16.603L16.397,16.588L16.622,16.545L16.831,16.442L18.011,15.325L18.362,15.078L18.769,14.919L19.662,14.703L21.155,14.341L21.395,14.316L21.567,14.392L21.736,14.552L21.907,14.627L22.342,14.653L23.101,14.518L24.176,14.565L24.434,14.516L24.520,14.480L24.750,14.317L24.854,14.196L24.980,13.916L25.066,13.803L25.274,13.699L26.382,13.509L26.626,13.561L28.749,14.394L30.872,15.227L30.940,15.266L30.988,15.307L31.037,15.328L31.116,15.307L31.549,15.067L31.693,15.037L32.101,15.124L32.236,15.153L32.737,15.439L33.789,16.428L35.014,17.756L35.624,18.867L35.810,19.206L36.254,19.713L36.526,19.964L36.770,20.144L36.998,20.231L37.249,20.258L37.807,20.255L37.942,20.233L37.985,20.225L38.146,20.147L38.501,19.837L38.957,19.304L39.124,19.272L39.906,19.415L40.175,19.416L40.410,19.341L43.137,17.711L43.393,17.598L43.651,17.573L45.552,17.841L45.759,17.920L45.845,17.985L46.021,18.152L46.228,18.279L46.482,18.476L46.591,18.528L46.813,18.587L46.821,18.591L46.920,18.637L47.019,18.723L47.206,18.945L47.955,19.623L48.010,19.658L48.085,19.686L48.114,19.689L48.145,19.668L48.230,19.625L48.316,19.598L48.502,19.575L48.591,19.576L48.793,19.619L48.972,19.705L49.300,19.949L49.447,20.109L49.662,20.463L49.791,20.618L50.066,20.776L52.042,21.356L52.305,21.387L54.492,21.641L54.770,21.640L55.170,21.528L55.306,21.519L56.899,21.704L57.058,21.693L57.110,21.671L57.191,21.618L57.277,21.544L57.329,21.483L58.617,19.974L58.868,19.737L59.012,19.645L59.092,19.617L59.130,19.622L59.160,19.617L59.220,19.555L59.255,19.479L59.284,19.293L59.315,19.214L59.448,19.087L60.871,18.296L61.184,18.166L64.832,17.390L65.035,17.347L65.758,17.289L67.120,17.447L70.773,17.428L73.041,17.997L73.869,18.332L74.913,18.964L75.259,19.236L75.406,19.309L75.847,19.415L76.096,19.394L76.202,19.376L76.359,19.268L76.484,19.243L76.863,19.375L76.948,19.422L76.977,19.473L76.980,19.515L76.993,19.543L77.052,19.554L77.080,19.536L77.114,19.497L77.160,19.460L77.232,19.450L77.306,19.492L77.362,19.559L77.417,19.597L77.488,19.554L77.611,19.590L77.874,19.599L78.081,19.606L78.253,19.634L78.397,19.684L78.519,19.708L78.624,19.658L78.658,19.568L78.722,19.163L78.756,19.135L78.926,19.105L78.983,19.087L79.043,19.020L79.084,18.939L79.131,18.771L79.011,18.727L79.063,18.614L79.160,18.475L79.182,18.352L79.456,18.095L79.494,18.069L79.520,18.113L79.574,18.095L79.625,18.058L79.675,18.006L79.690,17.961L79.699,17.838L79.779,17.899L79.843,17.966L79.918,18.019L80.032,18.041L80.098,18.001L80.149,17.826L80.237,17.786L80.407,17.748L80.530,17.652L80.723,17.418L80.774,17.292L80.784,17.289L80.805,17.258L80.849,17.292L80.891,17.344L80.908,17.371L81.013,17.363L81.010,17.333L80.963,17.277L80.933,17.187L80.954,17.160L81.054,17.125L81.087,17.107L81.106,17.102L81.171,17.111L81.194,17.107L81.199,17.086L81.188,17.025L81.194,17.003L81.402,16.773L81.501,16.692L81.453,16.631L81.406,16.585L81.353,16.554L81.291,16.537L81.291,16.480L81.408,16.512L81.504,16.558L81.572,16.552L81.603,16.428L81.812,16.475L82.019,16.435L82.694,16.100L82.886,16.030L83.093,16.013L83.093,16.061L83.052,16.134L83.136,16.165L83.278,16.158L83.401,16.117L83.403,16.144L83.401,16.226L83.457,16.171L83.512,16.044L83.554,16.013L83.627,16.027L83.643,16.088L83.627,16.165L83.601,16.226L83.802,16.136L84.004,16.099L84.185,16.033L84.322,15.858L84.216,15.844L84.201,15.807L84.271,15.702L84.303,15.689L84.356,15.693L84.404,15.682L84.425,15.622L84.414,15.579L84.376,15.525L84.378,15.495L84.419,15.418L84.471,15.349L84.770,15.071L84.884,14.992L84.880,14.861L84.949,14.807L85.166,14.771L85.174,14.769L87.030,14.848L88.746,17.225L90.462,19.603L90.884,21.625L91.305,23.647L91.315,24.234L91.327,24.271L91.366,24.396L91.363,24.541L91.318,24.774L91.324,24.863L91.392,24.978L91.491,25.038L91.607,25.062L93.149,25.109L93.629,25.226L93.833,25.334L93.857,25.411L93.819,25.523L93.833,25.593L93.887,25.647L94.109,25.813L94.191,25.848L94.191,25.905L94.163,25.916L94.089,25.957L94.236,26.062L94.388,26.142L94.506,26.240L94.555,26.397L94.598,26.432L94.695,26.398L94.799,26.344L94.862,26.320L94.951,26.367L94.988,26.439L95.000,26.520L94.855,26.667L94.836,26.714L94.799,26.760L94.754,26.848L94.625,27.393L94.642,27.472L94.508,27.560L94.522,27.706L94.664,28.034L94.678,28.117L94.679,28.171L94.651,28.426L94.566,28.665L94.405,29.439L94.350,29.566L94.074,29.929L94.040,29.996L94.050,30.062L94.119,30.154L94.149,30.165L94.277,30.164L94.333,30.197L94.364,30.246L94.390,30.301L94.429,30.351L94.552,30.474L94.636,30.604L94.679,30.756L94.682,30.949L94.654,31.107L94.597,31.296L94.519,31.478L94.429,31.617L94.300,31.686L93.912,31.826L93.755,31.921L93.480,32.168L93.322,32.260L92.878,32.399L92.737,32.478L92.069,33.095L92.010,33.119L91.808,33.143L91.716,33.182L91.510,33.396L91.376,33.494L91.216,33.577L91.049,33.620L90.894,33.597L90.369,33.373L90.073,33.288L89.842,33.289L89.554,33.521L89.272,33.807L89.024,34.123L88.844,34.441L88.715,34.743L88.625,34.861L88.340,35.026L88.219,35.130L88.136,35.260L88.103,35.416L88.152,35.705L88.099,35.825L88.058,35.915L86.722,37.826L86.516,38.263L86.234,39.213L85.978,40.647L85.811,41.119L85.809,41.217L85.860,41.372L85.872,41.460L85.856,41.562L85.737,41.818L85.649,41.931L85.489,42.054L85.420,42.095L85.312,42.158L85.173,42.219L84.585,42.284L84.334,42.380L84.201,42.639L84.203,42.791L84.293,43.039L84.322,43.185L84.291,43.365L84.115,43.644L84.057,43.798L84.070,43.970L84.147,44.091L84.364,44.318L84.447,44.489L84.428,44.611L84.357,44.736L84.285,44.918L84.188,45.430L84.150,45.922L83.940,46.460L83.452,46.656L82.862,46.747L82.343,46.974L82.242,47.054L82.025,47.335L81.942,47.418L81.880,47.461L81.439,47.671L81.390,47.707L81.337,47.845L81.373,47.870L81.586,47.904L81.659,48.057L81.719,48.285L81.712,48.586L81.684,48.726L81.637,48.857L81.291,49.482L81.140,49.844L81.132,50.150L81.186,50.427L81.017,51.859L80.933,52.185L80.771,52.409L80.671,52.452L80.578,52.450L80.483,52.433L80.376,52.429L80.291,52.471L80.236,52.560L80.170,52.775L80.060,53.020L79.927,53.167L79.159,53.574L79.043,53.602L78.932,53.580L78.691,53.469L78.593,53.441L78.456,53.457L78.363,53.506L78.276,53.567L78.157,53.619L78.053,53.629L77.946,53.611L77.740,53.545L77.801,53.654L77.977,54.085L77.998,54.193L78.003,54.403L77.938,54.473L77.712,54.631L77.656,54.708L77.608,54.800L77.548,54.888L77.459,54.952L77.301,54.974L77.012,54.925L76.849,54.994L76.677,55.240L76.618,55.568L76.637,55.914L76.756,56.527L76.749,56.678L76.727,56.743L76.692,56.842L76.386,57.280L76.343,57.465L76.344,57.760L76.385,58.051L76.437,58.238L76.457,58.363L76.414,58.474L76.131,58.772L75.386,59.816L75.116,60.310L75.065,60.466L75.042,60.633L75.054,60.794L75.161,61.239L75.131,61.394L75.038,61.480L74.920,61.562L74.720,61.863L74.250,62.326L73.809,62.760L73.344,63.458L73.192,63.602L73.058,63.703L72.998,63.771L73.041,63.815L73.220,63.849L73.325,63.940L73.698,64.484L73.990,64.805L74.083,64.996L74.015,65.168L73.943,65.198L73.880,65.180L73.812,65.148L73.728,65.140L73.626,65.172L73.540,65.224L73.221,65.516L73.110,65.589L73.088,65.657L73.075,65.730L73.031,65.790L72.980,65.808L72.863,65.813L72.779,65.833L72.703,65.825L72.667,65.834L72.637,65.870L72.610,65.969L72.582,66.009L72.148,66.285L71.686,66.712L71.551,66.905L71.509,67.108L71.558,67.222L71.723,67.410L71.759,67.546L71.740,67.752L71.691,67.955L71.474,68.466L71.296,68.715L71.093,68.830L70.796,68.860L70.599,69.022L70.486,69.279L70.441,69.593L70.393,69.767L70.247,69.905L70.055,70.001L69.869,70.045L69.787,70.040L69.624,70.000L69.542,69.992L69.514,70.009L69.434,70.081L69.389,70.100L69.335,70.093L69.251,70.039L69.211,70.026L68.990,70.049L68.526,70.098L68.324,70.070L68.201,69.955L68.054,69.593L67.927,69.007L67.903,68.710L67.916,68.409L67.892,68.047L67.748,67.741L67.492,67.538L66.793,67.409L66.554,67.168L66.403,66.836L66.334,66.490L66.212,66.187L65.966,66.019L65.350,65.785L64.825,65.504L64.627,65.438L64.492,65.330L64.451,64.956L64.313,64.777L64.204,64.991L64.111,65.267L64.047,65.553L64.003,66.134L63.971,66.159L63.929,66.170L63.881,66.205L63.789,66.330L63.728,66.433L63.697,66.552L63.692,66.723L61.760,66.750L61.553,66.688L61.396,66.565L61.318,66.417L61.210,65.858L61.149,65.735L61.044,65.712L60.868,65.813L59.032,67.383L58.856,67.458L58.710,67.415L58.564,67.343L58.386,67.330L58.246,67.489L57.677,69.308L57.670,69.331L57.576,69.406L57.308,69.407L57.217,69.408L56.994,69.453L56.883,69.548L56.708,69.883L56.589,70.000L56.436,70.077L56.136,70.190L56.091,70.207L55.870,70.346L55.643,70.789L55.434,70.917L55.315,70.924L55.221,70.915L55.132,70.924L55.029,70.982L54.927,71.099L54.713,71.555L54.521,71.826L53.493,72.664L52.800,73.390L52.800,73.392L52.640,73.626L52.545,73.728L52.425,73.791L52.385,73.843L52.369,74.059L52.342,74.158L52.209,74.175L52.045,74.115L51.884,74.092L51.756,74.216L51.655,74.345L51.390,74.525L51.311,74.650L51.324,74.804L51.405,74.924L51.471,75.057L51.438,75.248L51.306,75.411L51.173,75.510L51.116,75.619L51.214,75.811L51.366,75.959L51.533,76.090L51.674,76.240L51.751,76.442L51.717,76.625L51.604,76.774L51.462,76.910L51.350,77.058L51.304,77.222L51.314,77.371L51.341,77.518L51.345,77.678L51.295,77.848L51.134,78.169L51.086,78.353L51.094,78.453L51.156,78.637L51.164,78.718L50.963,79.750L50.909,79.848L50.831,79.884L50.742,79.899L50.659,79.938L50.583,80.019L50.438,80.244L50.391,80.346L50.280,80.677L50.210,80.827L50.099,80.985L50.099,80.986L49.804,81.457L49.759,81.594L49.554,81.747L49.488,81.864L49.512,82.025L49.534,82.130L49.562,82.239L49.434,82.365L49.427,82.365L49.430,82.364L49.415,82.328L49.364,82.292L49.296,82.276L49.236,82.305L49.157,82.372L49.090,82.450L49.061,82.510L49.046,82.576L48.979,82.722L48.959,82.800L48.965,82.875L49.014,82.984L49.010,83.054L48.945,83.174L48.858,83.210L48.758,83.195L48.646,83.157L48.612,83.167L48.540,83.173L48.489,83.152L48.521,83.080L48.553,83.030L48.588,82.950L48.604,82.875L48.572,82.842L48.505,82.859L48.360,82.933L48.262,82.950L48.040,82.866L48.026,82.657L48.100,82.387L48.135,82.121L48.089,82.121L48.039,82.380L47.873,82.513L47.659,82.502L47.464,82.323L47.488,82.294L47.520,82.220L47.461,82.205L47.311,82.121L47.345,82.018L47.284,81.934L47.080,81.779L46.901,81.678L46.892,81.671L46.850,81.545L46.765,81.382L46.712,81.314L46.619,81.286L46.536,81.250L46.446,81.169L46.371,81.081L46.333,81.027L46.287,81.027L46.287,81.074L46.698,81.466L46.798,81.597L46.994,81.959L47.023,82.136L46.901,82.220L46.950,82.324L47.025,82.445L47.111,82.545L47.183,82.587L47.258,82.654L47.371,82.980L47.464,83.106L47.438,83.154L47.378,83.323L47.367,83.394L47.397,83.502L47.470,83.545L47.555,83.571L47.622,83.629L47.644,83.806L47.529,83.913L47.383,84.002L47.311,84.125L47.209,84.355L47.135,84.391L47.064,84.405L46.737,84.404L46.310,84.355L45.668,84.355L45.355,84.309L45.211,84.314L44.961,84.446L44.816,84.464L44.486,84.464L43.204,84.614L43.133,84.572L43.038,84.560L42.949,84.590L42.892,84.671L42.973,84.668L43.043,84.675L43.100,84.694L43.149,84.723L42.987,84.766L42.744,84.779L42.524,84.744L42.427,84.643L42.323,84.615L41.659,84.568L41.684,84.536L41.698,84.511L41.719,84.489L41.761,84.464L41.665,84.434L41.578,84.448L41.515,84.443L41.501,84.355L41.526,84.311L41.578,84.277L41.629,84.232L41.659,84.153L41.637,84.115L41.501,83.941L41.523,83.911L41.556,83.837L41.443,83.705L41.468,83.512L41.603,83.157L41.556,83.157L41.472,83.220L41.429,83.252L41.374,83.319L41.351,83.394L41.368,83.506L41.391,83.590L41.391,83.666L41.328,83.756L41.327,83.804L41.429,83.928L41.454,83.992L41.429,84.011L41.305,84.153L41.235,84.208L41.149,84.257L41.064,84.265L40.992,84.200L40.941,84.200L40.876,84.356L40.713,84.339L40.453,84.200L40.266,84.189L40.070,84.150L39.904,84.071L39.810,83.941L39.765,83.969L39.713,83.985L39.578,83.992L39.554,84.015L39.545,84.069L39.519,84.123L39.448,84.153L39.448,84.200L39.497,84.231L39.550,84.256L39.504,84.304L39.600,84.339L39.728,84.443L39.933,84.485L39.970,84.537L39.959,84.605L39.913,84.671L39.578,84.723L39.541,84.683L39.373,84.436L38.898,83.912L38.832,83.756L38.832,83.549L38.812,83.478L38.763,83.477L38.657,83.530L38.493,83.531L38.469,83.521L38.406,83.451L38.271,83.339L38.214,83.262L38.090,82.916L38.008,82.800L37.999,82.874L37.961,82.947L37.922,82.999L37.902,83.007L37.923,83.084L37.963,83.097L38.012,83.104L38.060,83.157L38.135,83.420L38.204,83.531L38.342,83.577L38.574,83.696L38.743,83.955L38.770,84.206L38.576,84.304L38.673,84.373L38.787,84.483L38.854,84.616L38.807,84.749L38.600,84.983L38.472,85.041L38.316,84.978L38.312,85.095L38.316,85.133L38.177,85.069L38.074,84.985L38.029,84.872L38.060,84.723L37.960,84.813L37.940,84.940L37.981,85.076L38.060,85.190L37.856,85.242L37.800,85.242L37.709,85.065L37.664,84.875L37.645,84.488L37.523,84.281L37.487,84.153L37.571,84.096L37.604,84.034L37.642,83.892L37.663,83.735L37.645,83.629L37.684,83.648L37.753,83.661L37.800,83.677L37.750,83.592L37.599,83.422L37.568,83.338L37.530,83.174L37.497,83.106L37.357,83.301L37.309,83.299L37.278,83.175L37.190,83.007L37.153,83.123L37.172,83.304L37.139,83.365L37.222,83.488L37.389,83.941L37.311,83.941L37.259,83.932L37.220,83.902L37.190,83.837L37.160,83.858L37.087,83.889L37.021,83.742L36.941,83.613L36.724,83.365L36.739,83.492L36.776,83.593L36.882,83.780L36.944,83.859L36.972,83.906L36.985,83.966L36.956,84.032L36.904,84.069L36.879,84.113L36.934,84.200L37.009,84.082L37.148,84.046L37.282,84.079L37.343,84.176L37.271,84.699L37.287,84.878L37.552,85.412L37.648,85.534L37.636,85.607L37.592,85.680L37.520,85.713L37.421,85.700L37.341,85.664L37.201,85.599L37.205,85.634L37.216,85.668L37.241,85.713L37.076,85.660L36.911,85.584L36.743,85.546L36.570,85.610L36.485,85.521L36.426,85.400L36.414,85.265L36.468,85.133L36.340,85.066L36.224,84.867L36.142,84.627L36.109,84.436L36.124,84.298L36.161,84.223L36.212,84.169L36.268,84.096L36.302,84.020L36.333,83.897L36.311,83.783L36.186,83.733L35.994,83.622L35.861,83.368L35.746,82.899L35.724,82.712L35.750,82.615L35.827,82.510L35.879,82.418L35.860,82.352L35.791,82.346L35.699,82.432L35.628,82.345L35.604,82.291L35.592,82.220L35.528,82.252L35.465,82.264L35.402,82.252L35.337,82.220L35.370,82.348L35.384,82.486L35.421,82.595L35.516,82.639L35.583,82.697L35.637,82.832L35.699,83.106L35.729,83.390L35.762,83.522L35.827,83.577L35.923,83.628L36.021,83.748L36.161,83.992L35.992,84.138L35.956,84.200L35.941,84.307L36.091,85.054L36.165,85.277L36.268,85.398L36.252,85.574L36.404,85.707L36.501,85.818L36.315,85.921L36.080,85.963L35.779,85.984L35.501,85.959L35.337,85.864L35.314,85.755L35.342,85.306L35.379,85.251L35.388,85.216L35.371,85.176L35.302,85.117L35.285,85.086L35.285,84.822L35.313,84.699L35.481,84.245L35.498,84.163L35.491,83.941L35.348,84.117L35.234,84.437L35.183,84.781L35.234,85.034L35.201,85.097L35.198,85.246L35.183,85.346L35.113,85.174L35.089,85.070L35.069,84.604L35.029,84.511L35.000,84.562L34.966,84.606L34.926,84.642L34.875,84.671L34.915,84.779L34.922,85.133L34.952,85.257L35.043,85.422L35.103,85.568L35.179,85.831L35.183,85.921L35.127,86.002L35.051,86.028L34.820,86.024L34.608,86.046L34.565,86.000L34.483,85.755L34.461,85.520L34.471,85.174L34.439,84.896L34.326,84.700L34.098,84.723L34.308,84.890L34.383,85.158L34.355,85.467L34.256,85.760L34.242,86.014L33.869,86.104L33.433,86.062L33.227,85.921L33.126,85.938L33.027,85.968L33.084,86.110L32.962,86.158L32.774,86.170L32.636,86.206L32.492,86.270L32.147,86.280L31.998,86.335L31.821,86.124L31.973,85.801L32.463,85.242L32.366,85.233L32.305,85.219L32.258,85.217L32.199,85.242L31.942,85.553L31.908,85.144L31.788,84.775L31.742,84.775L31.733,84.926L31.747,85.119L31.782,85.308L31.840,85.445L31.766,85.371L31.704,85.288L31.619,85.221L31.482,85.190L31.563,85.367L31.644,85.485L31.696,85.611L31.686,85.812L31.637,85.961L31.583,86.072L31.537,86.107L31.475,86.127L31.429,86.172L31.431,86.279L31.490,86.250L31.538,86.250L31.639,86.279L31.597,86.351L31.385,86.424L31.107,86.439L30.918,86.387L30.892,86.424L30.843,86.459L30.815,86.491L30.695,86.445L30.627,86.369L30.602,86.262L30.607,86.124L30.638,85.997L30.738,85.817L30.759,85.713L30.725,85.728L30.642,85.747L30.607,85.760L30.608,85.641L30.635,85.435L30.553,85.426L30.475,85.406L30.385,85.369L30.294,85.398L30.272,85.475L30.286,85.587L30.319,85.694L30.350,85.760L30.319,85.860L30.359,85.943L30.420,86.033L30.453,86.152L30.433,86.316L30.374,86.308L30.286,86.229L30.172,86.180L30.006,86.172L29.946,86.132L29.935,85.864L29.980,85.852L29.994,85.830L29.896,85.683L29.884,85.656L29.875,85.528L29.884,85.398L29.839,85.398L29.783,85.656L29.744,85.623L29.629,85.553L29.742,85.812L29.765,85.939L29.680,86.024L29.566,86.012L29.451,85.937L29.355,85.853L29.295,85.812L29.143,85.756L28.976,85.616L28.886,85.432L28.963,85.242L28.879,85.235L28.825,85.259L28.803,85.313L28.810,85.398L28.763,85.398L28.640,85.270L28.337,85.095L28.246,84.978L28.298,85.011L28.397,85.055L28.451,85.086L28.393,84.990L28.302,84.946L28.197,84.920L28.092,84.878L27.932,84.702L27.874,84.622L27.674,84.414L27.627,84.381L26.931,83.724L26.721,83.429L26.649,83.106L26.680,83.117L26.704,83.127L26.756,83.157L26.755,83.017L26.427,82.812L26.342,82.665L26.305,82.544L26.116,82.215L26.035,82.121L26.290,82.276L26.226,82.095L25.986,81.822L25.778,81.234L25.712,80.880L25.671,80.763L25.576,80.564L25.535,80.449L25.518,80.322L25.494,80.265L25.441,80.206L25.389,80.129L25.364,80.009L25.400,79.916L25.490,79.881L25.607,79.889L25.723,79.928L25.804,79.997L25.939,80.185L26.035,80.244L25.921,79.946L25.876,79.830L26.036,79.845L26.188,79.881L26.133,79.791L25.928,79.564L25.850,79.518L25.822,79.550L25.829,79.689L25.801,79.721L25.731,79.723L25.678,79.731L25.569,79.772L25.470,79.729L25.290,79.761L25.211,79.721L25.196,79.659L25.211,79.384L25.177,79.033L25.020,78.350L25.062,78.249L25.236,78.212L25.734,78.202L25.876,78.161L25.895,78.231L25.915,78.281L25.979,78.373L26.040,78.324L26.096,78.210L26.137,78.161L26.181,78.130L26.441,78.027L26.564,78.004L26.679,78.009L26.756,78.061L26.803,78.061L26.746,77.964L26.567,77.806L26.496,77.694L26.468,77.588L26.458,77.463L26.474,77.344L26.521,77.253L26.621,77.188L26.734,77.165L26.984,77.170L27.074,77.127L27.162,77.028L27.268,76.859L27.148,76.909L27.048,76.998L26.940,77.056L26.803,77.015L26.783,77.052L26.735,77.085L26.700,77.123L26.527,77.085L26.347,77.175L26.243,77.343L26.290,77.538L26.204,77.723L26.105,77.836L25.983,77.865L25.825,77.797L25.781,77.746L25.769,77.697L25.739,77.661L25.646,77.647L25.606,77.690L25.627,77.789L25.675,77.894L25.723,77.958L25.289,77.933L24.443,77.647L24.407,77.606L24.373,77.523L24.345,77.482L24.108,77.262L23.954,77.153L23.898,76.991L23.882,76.829L23.902,76.755L23.953,76.727L24.075,76.594L24.140,76.548L24.195,76.538L24.930,76.569L25.208,76.615L25.364,76.704L25.415,76.704L25.488,76.596L25.613,76.325L25.671,76.237L25.769,76.195L25.888,76.197L26.002,76.232L26.082,76.289L26.102,76.344L26.144,76.512L26.163,76.548L26.241,76.543L26.279,76.522L26.291,76.476L26.290,76.392L26.235,76.274L26.107,76.144L25.955,76.035L25.825,75.978L25.682,75.981L25.611,76.056L25.518,76.289L25.439,76.360L25.316,76.420L25.180,76.453L25.056,76.444L24.914,76.364L24.853,76.256L24.855,76.126L24.996,75.712L25.013,75.601L25.001,75.459L24.954,75.459L24.749,76.025L24.668,76.175L24.571,76.272L24.441,76.325L24.262,76.340L24.181,76.362L24.006,76.466L23.816,76.537L23.771,76.516L23.670,76.444L23.555,76.339L23.437,76.191L23.344,76.034L23.273,75.820L23.202,75.715L23.133,75.579L23.106,75.402L23.124,75.249L23.169,75.078L23.239,74.937L23.331,74.879L23.417,74.908L23.567,75.029L23.624,75.044L23.663,74.995L23.646,74.927L23.617,74.850L23.624,74.775L23.859,74.566L24.474,74.340L24.647,74.049L24.490,74.077L24.234,74.309L23.937,74.399L23.368,74.702L23.260,74.782L22.881,75.139L22.804,75.133L22.524,74.512L21.613,73.317L21.460,73.172L21.165,73.043L21.028,72.888L20.839,72.588L20.577,72.312L20.346,72.123L19.782,71.765L19.534,71.606L19.074,71.171L18.786,70.985L18.666,70.932L18.010,70.641L17.533,70.552L15.912,70.250L13.995,70.088L10.795,70.250L10.626,70.222L10.534,70.154L10.461,70.070L10.354,69.990L10.425,69.953L10.475,69.941L10.519,69.953L10.564,69.990L10.681,69.882L10.724,69.923L10.740,70.037L10.769,70.150L11.033,69.906L11.077,69.912L11.102,69.972L11.161,69.975L11.258,69.938L11.401,69.935L11.528,69.912L11.644,69.850L11.747,69.730L11.761,69.648L11.744,69.563L11.749,69.498L11.824,69.471L12.128,69.471L12.288,69.439L12.618,69.333L12.719,69.363L12.888,69.295L13.038,69.205L13.144,69.084L13.184,68.922L13.278,68.884L13.902,68.792L13.845,68.747L13.798,68.727L13.752,68.726L13.697,68.740L13.270,68.639L12.849,68.800L12.446,69.035L12.082,69.155L11.945,69.156L11.868,69.167L11.604,69.309L11.518,69.340L11.430,69.358L11.332,69.363L11.315,69.345L11.219,69.311L11.128,69.316L11.080,69.278L11.056,69.254L11.025,69.155L11.017,69.062L11.069,68.900L11.077,68.792L10.948,68.868L10.857,68.947L10.692,69.129L10.632,69.153L10.552,69.156L10.485,69.172L10.457,69.235L10.468,69.289L10.509,69.401L10.513,69.471L10.483,69.552L10.377,69.715L10.354,69.806L10.326,69.860L10.271,69.902L10.241,69.948L10.280,70.016L10.317,70.056L10.337,70.095L10.348,70.140L10.389,70.176L10.351,70.346L9.914,70.393L9.074,70.353L8.085,70.469L6.925,70.411L5.246,70.569L5.249,70.106L5.306,69.766L5.333,69.610L5.358,69.536L5.497,69.128L5.512,68.967L5.448,68.647L5.450,68.491L5.536,68.328L5.672,68.206L5.764,68.145L5.806,68.059L5.781,67.708L5.767,67.631L5.723,67.597L5.629,67.588L5.553,67.565L5.489,67.519L5.432,67.442L5.394,67.292L5.414,67.128L5.494,66.809L5.457,66.491L5.355,66.199L5.330,65.924L5.525,65.651L5.612,65.609L5.709,65.580L5.785,65.539L5.815,65.457L5.771,65.385L5.574,65.222L5.510,65.140L5.481,65.041L5.489,64.989L5.522,64.938L5.591,64.794L5.650,64.716L5.675,64.644L5.683,64.539L5.526,62.670L5.544,62.586L5.602,62.553L5.680,62.554L5.842,62.586L5.866,62.571L5.871,62.528L5.889,62.460L5.909,62.143L5.743,61.864L5.522,61.598L5.371,61.315L5.332,61.017L5.349,60.768L5.421,59.745L5.400,59.636L5.333,59.526L5.153,59.324L5.069,59.106L5.009,59.013L5.005,58.984L5.000,58.950L5.017,58.892L5.094,58.747L5.120,58.680L5.149,58.201L5.243,57.720L5.260,57.266L5.280,57.127L5.338,56.998L5.416,56.871L5.475,56.732L5.479,56.565L5.428,56.404L5.281,56.087L5.222,55.920L5.195,55.739L5.205,55.593L5.262,55.279L5.262,55.208L5.243,55.068L5.245,55.001L5.285,54.906L5.434,54.736L5.494,54.646L5.553,54.390L5.535,54.168L5.389,52.317L5.388,52.309L5.391,52.228L5.433,52.171L5.560,52.112L5.600,52.072L5.609,52.005L5.571,51.888L5.561,51.821L5.589,51.704L5.683,51.487L5.686,51.371L5.657,51.318L5.620,51.305L5.588,51.288L5.575,51.226L5.594,51.210L5.678,51.083L5.702,51.037L5.743,50.828L5.760,50.347L5.736,50.146L6.314,50.193L6.415,50.179L6.487,50.125L6.550,50.058L6.630,50.007L6.711,49.991L6.941,49.984L7.023,49.994L7.105,50.033L7.178,50.083L7.253,50.119L7.340,50.119L7.853,49.985L8.037,49.856L8.152,49.619L8.402,48.840L8.556,48.544L8.602,48.387L8.603,47.893L8.578,47.767L8.482,47.528L8.432,47.316L8.461,47.106L8.606,46.871L8.660,46.831L8.781,46.790L8.837,46.741L9.294,46.140L9.302,46.101L9.263,46.004L9.254,45.953L9.310,45.766L9.431,45.728L9.578,45.756L9.710,45.764L9.954,45.626L10.007,45.427L9.947,45.196L9.855,44.962L9.829,44.813L9.846,44.641L9.912,44.489L10.033,44.399L10.572,44.177L10.865,44.099L11.316,44.148L11.448,44.024L11.646,43.663L11.889,43.372L11.965,43.221L12.011,42.572L12.060,42.449L12.176,42.338L12.286,42.285L12.379,42.215L12.448,42.049L12.454,42.006L12.474,41.870L12.452,41.751L12.385,41.656L11.875,41.128L11.768,40.955L11.761,40.813L11.915,40.469L12.104,40.178L12.134,40.087L12.141,39.938L12.162,39.890L12.212,39.818L12.358,39.673L12.506,39.625L12.664,39.653L13.144,39.905L13.262,39.887L13.375,39.745L13.425,39.604L13.433,39.212L13.500,39.009L13.692,38.630L13.748,38.426L13.747,38.193L13.746,38.009L13.709,37.788L13.640,37.641L13.544,37.586L13.438,37.566L13.342,37.537L13.272,37.453L13.201,37.204L13.164,37.122L13.107,37.057L13.041,37.002L12.981,36.939L12.943,36.848L12.952,36.716L13.115,36.316L13.124,36.093L12.969,35.416L12.969,35.414L12.893,35.285L12.837,35.145L12.806,34.993L12.806,34.829L12.883,34.534L12.820,34.474L12.759,34.470L12.751,34.470L12.680,34.483L12.618,34.472L12.437,34.300L11.092,32.407L10.981,32.201L10.968,32.026L11.118,31.618L11.165,31.502L11.254,31.160L11.775,30.275L11.941,30.102ZM41.528,84.878L41.777,84.852L41.854,84.877L41.812,84.978L41.745,85.068L41.615,85.098L41.328,85.086L41.213,85.106L40.840,85.242L40.709,85.255L40.156,85.221L40.041,85.162L39.997,85.063L40.067,84.926L40.142,84.887L40.504,84.775L40.593,84.807L40.860,84.946L40.992,84.978L41.129,84.962L41.399,84.894L41.528,84.878ZM39.527,84.822L39.868,84.787L39.964,84.822L39.874,84.904L39.827,84.995L39.812,85.097L39.810,85.216L39.779,85.334L39.708,85.408L39.606,85.473L39.500,85.517L38.832,85.656L38.578,85.633L38.505,85.542L38.578,85.399L38.818,85.142L38.986,84.878L39.131,84.710L39.162,84.637L39.191,84.511L39.294,84.575L39.409,84.779L39.527,84.822Z" fill="currentColor" stroke="currentColor" stroke-width="1" stroke-linejoin="round"/>
</svg>