<svg xmlns="http://www.w3.org/2000/svg" viewBox="0 0 100 100" role="img" aria-label="Nicaragua">
  <title>Nicaragua</title>
  <path d="M41.001,83.341L40.988,83.335L40.083,82.954L39.731,82.898L39.475,82.757L39.332,82.427L39.162,81.756L38.831,81.258L36.895,79.063L36.736,78.947L36.650,78.907L36.372,78.709L36.312,78.630L35.682,78.450L35.401,78.184L34.792,77.437L34.308,77.184L33.689,76.522L32.898,76.066L32.636,75.829L32.565,75.678L32.393,75.123L31.830,74.870L31.155,74.208L29.484,73.468L29.200,73.258L28.959,72.973L28.755,72.386L26.582,70.712L26.233,70.271L25.747,69.168L25.551,69.001L25.369,68.903L24.890,68.415L24.607,68.008L24.299,67.424L24.240,67.146L24.151,66.887L23.942,66.672L23.495,66.322L23.072,65.786L22.387,64.591L21.750,62.842L21.571,62.560L21.118,62.167L17.404,59.880L17.171,59.593L16.148,59.000L15.594,58.399L14.341,57.832L14.295,57.402L14.503,57.680L14.859,57.917L15.274,58.088L15.669,58.165L15.218,57.666L14.986,57.477L14.735,57.402L14.580,57.281L14.171,56.500L14.058,56.500L14.243,57.190L13.947,56.930L13.473,56.328L13.124,55.993L12.899,55.898L11.765,55.014L11.615,54.858L11.533,54.665L11.434,54.341L11.383,54.442L11.242,54.618L11.187,54.710L9.191,52.390L8.957,51.903L9.034,51.993L9.109,52.044L9.328,52.158L9.328,52.042L9.242,52.011L9.081,51.903L9.081,51.787L9.034,51.599L8.730,51.344L8.319,51.122L7.955,51.025L7.955,51.141L8.436,51.459L8.689,51.694L8.697,51.903L8.513,51.877L8.245,51.672L7.842,51.279L5.713,49.997L5.270,49.604L5.003,49.143L5.000,48.598L5.341,47.952L5.853,47.501L6.376,47.174L6.761,46.759L6.850,46.046L6.963,46.046L6.912,46.446L6.850,46.555L7.054,46.555L7.300,46.588L7.507,46.651L7.594,46.739L7.680,46.794L8.141,47.190L8.256,47.256L8.584,47.698L8.664,47.759L8.897,47.900L8.957,47.952L8.972,48.073L8.934,48.354L8.957,48.473L9.550,49.066L10.322,49.234L12.190,49.119L12.190,48.980L11.245,49.004L10.771,48.952L10.567,48.784L10.750,48.486L11.627,48.046L11.746,47.965L15.908,47.698L16.177,47.726L16.594,47.984L16.808,47.998L16.907,47.695L17.285,47.509L17.749,47.215L17.955,46.991L18.380,46.325L18.483,46.243L18.750,46.110L18.842,46.014L18.891,45.832L18.820,45.764L18.718,45.719L18.672,45.602L18.828,44.623L18.796,44.576L18.659,44.277L18.625,44.169L18.656,44.119L18.787,43.595L18.916,43.345L19.063,43.163L19.935,42.411L20.175,42.246L20.466,42.162L20.779,42.188L21.823,42.705L21.993,42.759L22.164,42.713L22.294,42.625L22.425,42.535L22.674,42.305L22.814,42.060L22.854,41.774L22.746,41.241L22.707,41.128L22.576,40.891L22.459,40.785L22.335,40.756L22.227,40.699L22.158,40.513L22.186,40.247L22.417,39.733L22.447,39.443L21.861,37.210L21.851,36.893L21.964,36.298L21.952,36.000L21.882,35.880L21.724,35.759L21.650,35.703L21.578,35.607L21.544,35.438L21.596,34.446L21.613,34.123L21.655,33.864L21.686,33.751L21.773,33.675L21.982,33.530L22.393,33.323L22.773,33.290L23.564,33.389L25.044,33.107L25.760,33.064L26.361,33.395L26.683,33.486L26.947,33.402L27.190,33.273L27.456,33.235L27.742,33.530L27.849,33.607L28.021,33.662L28.148,33.680L29.084,33.620L29.417,33.539L29.688,33.406L29.899,33.167L30.004,32.886L30.147,32.335L30.434,31.881L31.623,30.603L32.249,29.626L32.439,29.499L32.653,29.417L32.873,29.302L33.084,29.081L33.215,28.843L33.286,28.664L33.381,28.503L33.584,28.318L33.834,28.189L35.222,27.983L35.218,28.189L35.022,28.589L35.073,29.082L36.355,30.013L36.748,30.532L36.870,30.645L37.122,30.732L37.289,30.696L37.454,30.628L37.701,30.613L38.100,30.788L38.313,31.111L38.490,31.493L38.779,31.844L39.181,31.983L39.605,31.970L39.974,32.001L40.216,32.272L40.250,32.286L40.262,32.291L40.301,32.255L40.426,32.140L40.576,31.840L40.615,31.551L40.512,31.336L40.240,31.251L40.171,31.089L40.247,30.730L40.426,30.170L40.448,29.762L40.536,29.661L40.724,29.704L41.046,29.726L41.277,29.617L41.646,29.298L41.800,29.345L41.912,29.345L41.904,29.257L41.932,29.235L41.982,29.236L42.037,29.218L41.978,29.022L42.614,28.828L42.791,28.646L42.963,28.387L43.360,28.255L43.515,28.227L43.815,28.174L44.154,28.062L44.323,27.807L44.363,27.510L44.468,27.264L45.121,27.085L45.430,26.905L45.900,26.537L46.110,26.276L46.310,25.917L46.460,25.563L46.591,25.087L46.766,24.795L46.974,24.522L47.149,24.354L47.228,24.340L47.423,24.370L47.498,24.354L47.550,24.294L47.601,24.157L47.730,24.003L47.803,23.877L47.903,23.773L48.073,23.730L48.504,23.516L48.693,23.476L49.379,23.476L49.829,23.396L50.282,23.246L50.656,23.021L50.866,22.713L50.848,22.289L50.615,21.918L50.291,21.623L49.999,21.431L50.495,21.050L50.515,20.932L50.473,20.648L50.495,20.529L50.914,20.085L50.979,19.964L51.015,19.024L51.094,18.507L51.238,18.242L51.568,18.326L51.858,18.645L52.166,18.874L52.550,18.693L53.196,18.047L53.304,17.795L53.330,17.734L52.860,17.734L52.967,17.591L53.367,17.214L52.853,16.849L52.755,16.668L53.040,16.591L53.134,16.547L53.193,16.436L53.288,15.747L53.449,15.456L53.697,15.224L53.734,15.199L54.017,15.009L54.342,14.778L55.174,13.976L55.471,13.803L56.556,13.607L57.034,13.586L57.505,13.727L57.904,14.024L58.170,14.464L58.114,14.517L57.972,14.699L57.962,14.735L58.323,14.781L58.373,15.005L58.355,15.253L58.726,15.503L58.915,15.815L59.189,16.452L59.524,16.251L59.872,16.289L60.575,16.591L60.983,16.678L62.308,16.718L62.239,16.849L62.185,17.214L62.460,17.129L62.652,17.235L62.842,17.397L63.120,17.479L63.321,17.421L63.791,17.159L64.467,16.922L64.801,16.511L65.053,16.042L65.293,15.690L65.470,15.869L65.599,16.353L65.738,16.452L66.014,16.477L66.455,16.576L66.656,16.591L67.028,16.395L67.121,15.985L67.027,15.112L67.128,14.891L67.356,14.875L67.607,14.962L67.771,15.054L67.910,15.172L68.340,15.632L68.560,15.723L68.826,15.702L69.269,15.574L69.376,15.511L69.449,15.422L69.542,15.344L69.708,15.309L69.860,15.335L69.945,15.379L70.022,15.388L70.147,15.309L70.147,15.169L69.988,15.015L69.862,14.845L69.651,14.407L69.850,14.242L69.983,14.232L70.398,14.495L70.445,14.582L70.514,14.647L70.704,14.673L71.011,14.663L71.104,14.714L71.139,14.858L71.450,14.895L73.244,14.800L73.151,14.647L73.155,14.475L73.244,14.049L73.463,14.172L73.755,14.483L73.987,14.545L73.965,14.467L73.875,14.292L74.007,14.346L74.078,14.366L74.141,14.412L74.246,14.545L74.467,14.347L74.790,14.167L75.150,14.052L75.485,14.049L75.344,13.954L75.254,13.863L75.125,13.645L76.137,13.584L76.514,13.437L76.477,13.148L76.706,13.133L76.893,13.159L77.028,13.244L77.096,13.402L77.231,13.402L77.058,12.868L77.129,12.661L77.467,12.501L77.827,12.451L78.230,12.472L78.563,12.571L78.718,12.767L78.853,12.767L78.931,12.539L78.969,12.289L79.059,12.087L79.503,11.921L79.955,11.562L80.216,11.484L80.180,11.419L80.132,11.287L80.091,11.231L80.361,11.308L80.463,11.358L80.408,11.108L80.431,10.892L80.532,10.812L80.711,10.977L80.721,10.694L80.751,10.580L80.847,10.456L80.724,10.276L80.786,10.182L80.969,10.161L81.207,10.202L81.303,10.294L81.524,10.631L81.691,10.723L82.117,10.673L82.484,10.454L82.767,10.143L82.941,9.820L83.167,10.001L83.400,10.093L83.590,10.210L83.684,10.456L83.958,10.277L84.270,10.256L85.070,10.340L84.854,10.446L84.840,10.544L84.973,10.637L85.194,10.723L85.269,10.710L86.072,10.723L86.551,10.504L86.804,10.456L87.416,10.492L87.656,10.453L87.523,10.644L87.191,10.798L87.026,10.973L86.760,10.658L86.541,10.876L86.367,11.270L86.233,11.482L86.001,11.594L85.779,11.861L85.615,12.177L85.551,12.434L85.503,12.521L85.272,12.746L85.179,12.879L85.132,13.060L85.099,13.458L85.055,13.642L84.907,13.874L84.688,14.040L84.063,14.288L84.108,14.176L84.158,14.088L84.311,13.907L84.311,14.046L84.373,13.942L84.408,13.857L84.424,13.765L84.425,13.642L84.284,13.728L84.226,13.742L84.063,13.642L84.063,13.527L84.280,13.424L84.487,13.398L84.669,13.464L84.808,13.642L84.794,13.290L84.599,12.809L84.549,12.434L84.437,12.061L84.177,12.000L83.883,12.109L83.669,12.243L83.312,12.575L82.509,13.604L82.318,14.046L82.495,13.861L82.556,13.779L82.805,13.978L83.002,14.742L83.124,14.912L83.363,15.056L83.624,15.306L83.899,15.396L84.177,15.051L84.045,14.937L83.710,14.732L83.558,14.669L83.762,14.556L83.972,14.617L84.162,14.800L84.311,15.051L84.300,14.626L84.431,14.494L84.594,14.656L85.303,17.916L85.342,18.021L85.512,18.368L85.663,19.257L86.543,21.808L86.637,22.539L86.550,23.176L86.057,24.350L84.549,26.777L83.899,27.566L83.806,27.874L83.678,28.102L82.814,28.706L82.449,29.222L82.198,29.815L81.761,31.542L81.063,33.891L80.633,36.014L80.660,36.926L80.584,37.371L80.581,37.727L80.201,38.653L79.877,39.882L79.678,42.278L79.713,42.727L79.841,42.984L79.706,43.101L79.808,43.329L80.414,47.015L80.811,49.431L80.201,54.341L80.201,55.427L80.261,55.606L80.524,56.141L80.700,56.733L81.206,57.446L81.327,57.911L81.281,58.479L81.090,58.783L80.723,58.905L80.139,58.928L79.694,59.019L79.241,59.184L78.817,59.252L78.455,59.055L78.592,58.922L78.966,58.655L79.075,58.534L79.090,58.316L79.021,58.023L78.906,57.767L78.508,57.410L78.539,56.192L78.455,55.727L78.522,55.691L78.543,55.689L78.554,55.679L78.591,55.611L78.703,55.611L79.346,55.818L79.793,55.236L79.945,54.399L79.706,53.832L79.706,53.694L79.862,53.517L79.924,53.267L79.954,52.227L79.986,52.187L80.060,52.125L80.144,52.031L80.201,51.903L80.140,51.404L79.789,51.108L79.303,50.989L78.839,51.026L78.464,51.245L78.303,51.589L78.313,51.968L78.455,52.296L78.854,52.511L78.895,52.549L78.893,52.612L78.924,52.928L78.951,53.058L79.028,53.186L79.112,53.239L79.182,53.311L79.210,53.503L79.201,53.817L79.161,53.946L79.075,54.087L79.146,54.175L79.334,54.468L78.765,54.802L77.799,55.617L77.216,55.866L76.432,55.950L76.102,56.059L75.967,56.304L75.967,57.274L75.989,57.295L76.062,57.254L76.214,57.263L76.432,57.310L76.578,57.305L76.700,57.343L76.846,57.518L76.970,58.349L76.897,58.747L76.770,59.123L76.710,59.478L76.846,59.817L77.182,59.983L77.751,59.860L77.848,60.146L77.826,60.333L77.733,60.697L77.712,60.909L77.750,61.026L77.834,60.856L78.122,59.901L78.233,59.661L78.393,59.562L78.751,59.615L78.827,59.756L77.980,61.468L77.577,63.676L77.710,66.059L77.848,66.459L77.724,66.534L77.588,66.586L77.662,66.203L77.534,65.885L77.081,65.317L76.891,64.845L77.045,64.645L77.309,64.462L77.453,64.034L77.360,63.718L77.122,63.354L76.802,63.041L76.462,62.878L75.911,62.937L75.938,63.213L76.227,63.385L76.462,63.132L76.598,63.132L76.903,63.454L77.029,63.649L77.081,63.895L77.015,64.209L76.740,64.614L76.710,64.912L76.607,65.267L76.282,65.279L75.533,65.050L75.436,65.112L75.657,65.248L76.102,65.431L76.209,65.576L76.283,65.776L76.324,66.006L76.338,66.251L76.301,66.419L76.138,66.762L76.102,66.899L76.132,67.001L76.194,67.108L76.236,67.224L76.214,67.349L76.119,67.463L76.017,67.517L75.923,67.551L75.854,67.603L75.518,68.042L75.415,68.112L75.258,68.166L75.081,68.301L74.929,68.470L74.852,68.631L75.090,68.793L75.381,69.059L75.627,69.347L75.783,69.705L75.915,69.802L76.093,69.867L76.276,69.889L76.543,69.859L76.563,69.775L76.488,69.653L76.462,69.509L76.585,69.148L76.685,68.958L76.846,68.885L77.148,68.875L77.323,69.028L78.163,72.424L78.207,73.079L78.198,73.319L78.175,73.465L78.105,73.578L77.961,73.715L77.925,73.661L77.668,73.714L77.417,73.797L77.396,73.842L77.253,73.903L77.072,74.173L76.908,74.234L76.688,74.238L76.510,74.265L76.359,74.338L76.214,74.477L76.029,75.055L75.853,75.925L75.608,76.583L75.223,76.522L75.110,76.522L74.534,77.264L74.368,77.550L74.273,77.869L74.275,79.753L74.831,82.194L75.223,83.164L75.768,84.012L75.943,84.477L76.377,85.177L76.530,85.325L76.860,85.532L76.990,85.889L77.134,86.286L77.453,86.225L77.385,86.027L77.385,86.027L77.526,86.064L77.667,86.389L77.706,86.407L77.742,86.516L77.687,86.764L77.869,86.862L77.878,87.271L78.045,87.933L77.992,88.439L77.355,88.771L76.164,89.059L76.070,89.082L74.866,89.544L74.494,89.984L74.427,90.025L73.931,89.925L73.810,89.966L73.557,90.144L73.379,90.180L73.210,90.153L73.088,90.094L71.994,89.221L71.911,88.903L71.711,88.766L71.466,88.807L71.251,89.025L70.941,88.950L70.491,89.243L70.271,89.025L70.147,89.025L69.938,89.185L69.729,89.105L69.392,88.771L69.174,88.808L69.016,88.785L68.887,88.766L68.605,88.760L68.402,88.909L68.306,88.783L67.907,88.458L67.865,88.394L67.791,88.315L67.757,88.210L67.838,88.066L67.913,88.014L68.165,87.881L68.097,87.434L67.784,87.168L67.438,86.989L67.275,86.806L67.083,86.674L66.240,86.347L66.048,86.165L65.997,86.035L65.756,85.728L65.676,85.593L65.639,85.363L65.643,85.175L65.600,85.035L65.428,84.947L65.274,85.040L64.298,85.683L64.126,85.757L63.927,85.736L63.733,85.659L63.571,85.566L63.416,85.434L63.003,84.915L62.927,84.858L62.839,84.810L62.745,84.772L62.647,84.744L61.742,84.340L61.324,84.205L60.933,84.227L60.616,84.181L59.926,83.679L59.604,83.536L59.036,83.673L57.693,84.570L55.821,85.821L55.395,85.975L54.978,85.928L52.049,84.835L49.443,83.858L48.792,83.615L46.341,82.698L44.505,82.010L43.918,81.677L43.406,81.210L42.887,80.939L42.281,81.195L41.770,81.891L41.439,82.620L41.001,83.341ZM77.950,86.051L77.935,86.127L77.843,86.215L77.765,86.224L77.765,86.161L77.812,86.126L77.812,86.089L77.715,86.039L77.652,86.048L77.560,86.001L77.648,85.988L77.950,86.051ZM76.846,68.493L76.708,67.987L76.667,67.318L76.795,66.731L77.169,66.471L77.197,66.475L77.219,66.491L77.225,66.526L77.216,66.586L77.097,66.777L76.971,67.080L76.877,67.419L76.846,67.719L76.952,68.399L76.962,68.648L76.846,68.493ZM89.044,63.557L89.007,63.141L89.180,62.814L89.432,62.683L89.639,62.851L89.568,62.973L89.044,63.557ZM94.245,21.301L94.540,21.154L94.781,21.156L94.940,21.308L95.000,21.613L94.876,22.131L94.544,22.281L93.580,22.198L93.502,22.191L93.573,22.191L93.585,22.191L93.622,22.181L93.644,22.136L93.636,22.063L93.928,21.900L94.047,21.691L94.112,21.477L94.245,21.301Z" fill="currentColor" stroke="currentColor" stroke-width="1.5" stroke-linejoin="round"/>
</svg>