<svg xmlns="http://www.w3.org/2000/svg" viewBox="0 0 100 100" role="img" aria-label="Niue">
  <title>Niue</title>
  <path d="M57.389,5.533L69.689,6.967L70.967,9.303L84.468,46.844L89.871,57.828L83.228,60.328L78.889,64.385L70.386,74.631L50.591,88.402L46.988,86.516L43.192,88.115L34.650,95.000L33.159,90.082L29.382,87.869L24.094,87.582L18.090,88.402L19.600,86.762L20.820,84.959L22.331,83.196L24.888,81.516L22.680,73.156L21.634,70.901L10.129,67.090L11.426,58.074L21.634,42.008L20.820,39.139L19.097,36.475L17.760,33.648L18.090,29.959L19.736,27.336L21.576,26.844L23.745,26.639L26.515,24.672L36.122,5.533L51.404,5.000L57.389,5.533Z" fill="currentColor" stroke="currentColor" stroke-width="1" stroke-linejoin="round"/>
</svg>