<svg xmlns="http://www.w3.org/2000/svg" viewBox="0 0 100 100" role="img" aria-label="Netherlands">
  <title>Netherlands</title>
  <path d="M87.736,15.025L87.792,15.935L87.813,16.448L87.752,16.947L87.618,17.498L87.339,18.203L87.291,18.461L87.305,18.845L87.380,19.048L87.475,19.215L87.549,19.495L87.731,21.788L87.701,22.935L87.520,23.956L87.094,25.029L85.481,27.533L85.330,27.953L85.130,28.507L84.960,29.578L84.777,33.034L84.633,34.163L84.275,34.848L83.575,34.631L83.278,34.506L82.310,34.650L81.268,34.337L79.404,34.367L78.746,34.569L78.393,34.823L78.053,35.068L78.218,35.403L78.179,35.690L78.090,35.956L78.096,36.222L78.234,36.428L78.878,36.970L77.787,37.519L77.462,37.548L77.704,38.050L77.773,38.622L77.802,39.186L77.921,39.664L78.309,40.114L78.827,40.366L80.382,40.585L81.398,40.973L81.952,41.063L82.468,41.029L82.959,40.885L83.142,40.713L83.264,40.498L83.388,40.440L84.584,42.380L84.860,43.203L84.693,44.371L84.300,45.286L84.157,45.769L84.145,46.356L84.320,47.040L84.435,47.252L84.484,47.343L84.430,47.508L83.556,48.041L83.345,48.288L82.884,49.040L82.492,49.389L81.650,49.759L81.268,50.161L80.833,51.051L80.586,51.279L79.424,51.410L79.312,51.423L78.998,51.600L78.665,51.948L78.561,52.130L78.401,52.538L78.242,52.739L78.007,52.858L77.800,52.873L77.623,52.957L77.487,53.291L77.527,53.779L77.840,54.002L78.271,54.130L79.554,54.853L80.062,55.394L80.163,55.549L80.212,55.765L80.194,56.156L80.094,56.254L79.944,56.280L79.783,56.458L79.335,57.279L78.878,57.829L78.346,58.120L76.607,58.176L74.651,58.851L73.684,59.601L73.360,59.750L72.960,59.750L71.701,59.373L71.861,60.095L71.780,60.415L71.043,60.622L70.984,60.123L70.665,59.936L69.912,59.820L69.822,59.710L69.605,59.316L69.465,59.179L69.302,59.159L68.689,59.295L68.025,59.020L67.394,58.503L66.760,58.201L66.092,58.566L66.336,58.753L67.069,59.531L67.333,59.951L67.016,59.872L66.553,59.752L65.915,59.580L65.115,59.798L64.833,59.950L64.427,60.255L64.047,60.419L63.245,60.563L62.918,60.797L62.851,61.082L63.298,61.429L63.560,62.049L63.525,62.696L63.205,63.018L63.089,63.135L63.072,63.479L63.267,63.560L63.838,63.546L64.063,63.656L64.502,63.992L64.697,64.196L64.433,65.103L64.884,65.685L66.214,66.279L65.984,66.995L65.879,67.453L65.964,67.846L67.272,69.674L68.064,70.606L68.204,71.655L68.299,72.236L68.228,72.870L68.078,73.551L68.051,74.140L68.348,74.502L68.234,74.783L68.173,75.485L68.068,75.884L67.873,76.166L67.373,76.522L67.168,76.728L66.161,78.628L65.747,79.145L65.546,79.499L65.377,80.137L65.320,80.851L65.460,81.443L65.921,81.706L66.900,81.017L67.351,81.176L67.195,81.269L66.746,81.646L67.158,82.040L66.866,82.438L65.747,83.061L63.929,84.524L63.665,84.837L63.288,85.652L63.046,85.925L62.685,85.965L62.423,85.718L62.189,85.406L61.917,85.249L61.367,85.547L61.478,86.297L61.781,87.217L61.801,88.025L62.069,87.969L62.579,87.709L62.845,87.631L63.117,87.669L63.633,87.845L64.337,87.757L64.378,87.924L64.258,88.194L64.183,88.460L64.212,88.922L64.262,89.177L64.413,89.347L64.876,89.647L65.517,89.877L65.479,90.006L65.375,90.180L65.339,90.391L65.505,91.050L65.499,91.305L65.379,91.634L65.160,91.906L64.717,91.866L64.447,92.025L64.275,92.346L64.293,92.622L64.335,92.917L64.232,93.297L63.950,93.570L63.651,93.492L63.734,93.903L63.885,94.171L64.080,94.312L64.208,94.507L64.165,94.924L63.769,95.000L62.343,94.952L62.129,94.882L61.905,94.808L60.201,94.853L60.000,94.707L59.598,94.249L59.401,94.171L59.226,94.310L59.015,94.638L58.918,94.788L58.713,94.831L58.499,94.787L58.142,94.575L58.345,93.840L58.380,93.463L58.073,93.368L57.649,93.158L57.534,93.076L57.206,92.839L56.887,92.351L56.844,91.634L58.262,90.001L58.489,89.907L58.717,89.822L58.810,89.744L59.064,89.351L59.403,88.606L59.628,88.215L59.438,88.098L59.249,88.093L58.810,88.215L59.584,86.943L59.894,86.162L59.628,85.789L59.675,85.365L59.775,85.055L59.935,84.953L60.165,85.155L60.313,84.947L60.420,84.720L60.567,84.280L60.512,84.151L60.481,84.054L60.433,83.822L60.648,83.846L60.859,83.813L61.058,83.730L61.239,83.605L60.792,83.114L60.855,82.748L61.131,82.467L61.082,82.314L60.908,81.906L60.573,81.878L59.970,82.035L59.708,81.810L59.297,81.229L58.977,81.032L58.725,81.005L57.902,81.178L57.565,81.182L57.352,81.025L57.163,80.803L56.897,80.611L55.784,80.267L55.451,79.975L55.336,79.874L55.273,79.145L55.133,78.525L54.769,78.038L54.308,77.740L53.884,77.691L53.496,77.882L52.672,78.477L52.261,78.632L49.936,78.531L49.322,78.688L49.195,78.721L48.850,78.631L48.840,77.491L48.495,77.042L48.131,77.005L47.372,77.073L47.032,76.881L46.937,76.671L46.736,75.965L46.632,75.687L45.956,74.922L45.830,74.611L45.899,73.918L46.119,73.406L46.188,72.873L45.802,72.122L45.213,71.724L45.158,71.648L44.856,71.727L44.738,71.920L44.671,72.218L44.535,72.611L44.228,73.129L43.775,73.755L43.280,74.247L42.855,74.366L42.096,74.010L41.735,73.910L40.360,73.862L39.944,73.679L40.055,73.294L40.277,73.261L41.133,73.669L40.991,73.112L41.079,72.627L41.201,72.168L41.158,71.685L40.955,71.413L40.626,71.192L40.268,71.053L39.984,71.025L39.336,71.365L37.817,73.268L37.614,73.421L37.350,73.524L37.046,73.545L36.418,73.383L35.852,73.489L35.592,73.464L35.216,73.190L35.253,72.877L35.419,72.478L35.446,71.943L35.289,71.676L35.042,71.629L34.461,71.727L33.407,72.122L32.379,72.734L32.617,72.999L32.576,73.228L32.449,73.478L32.434,73.802L32.587,74.090L33.027,74.626L33.147,74.941L33.050,75.492L32.676,75.695L31.760,75.635L31.380,75.502L30.670,75.108L30.493,75.101L30.099,75.088L30.021,74.988L29.863,74.612L29.810,74.221L29.820,73.892L29.781,73.643L29.581,73.498L29.351,73.803L28.919,73.936L27.153,73.884L26.745,73.746L26.348,73.498L25.267,72.541L24.946,72.406L24.126,72.320L23.852,72.494L23.269,73.618L23.047,73.949L22.744,74.113L22.038,74.191L21.785,74.356L21.574,74.393L21.363,74.296L20.826,73.717L19.641,73.120L18.873,72.369L18.565,72.333L17.751,72.643L17.308,72.664L16.195,72.406L15.842,72.211L15.543,71.757L15.281,71.247L15.044,70.875L14.398,70.297L14.184,69.953L14.105,69.433L14.312,69.141L16.333,67.875L21.608,67.295L22.044,67.357L22.338,67.529L22.655,67.828L22.936,68.221L23.118,68.688L22.912,68.772L22.578,69.003L22.447,69.125L22.447,69.323L24.327,69.524L25.282,69.918L26.092,70.637L26.352,71.137L26.738,72.242L27.029,72.643L27.500,72.783L28.523,72.638L28.908,72.842L29.297,72.713L29.936,72.745L30.154,72.685L30.534,72.580L30.800,71.849L30.640,71.157L30.230,70.639L29.680,70.312L29.498,70.279L28.795,70.150L27.982,69.782L27.680,69.756L27.058,69.832L26.764,69.782L26.291,69.495L24.737,68.014L25.779,67.510L26.300,67.361L28.059,67.450L28.572,67.609L29.034,68.006L29.042,68.014L28.951,67.411L28.702,67.168L28.627,67.164L27.851,67.131L27.642,67.048L27.445,66.912L27.288,66.720L27.189,66.441L27.129,66.074L27.124,65.708L27.183,65.435L27.439,65.153L27.778,65.008L28.446,64.953L28.238,64.734L27.743,64.375L26.376,63.950L26.092,63.530L25.968,62.467L25.637,61.803L25.162,61.365L24.605,60.978L24.235,61.259L23.736,61.416L23.229,61.414L22.845,61.524L22.773,61.654L22.634,61.680L22.447,61.674L22.265,60.784L22.835,60.393L24.068,60.012L24.236,59.782L24.620,59.752L25.277,59.903L25.824,60.202L25.905,60.219L26.051,60.202L26.256,60.110L26.495,59.903L26.347,59.610L25.846,58.913L25.714,58.803L25.600,58.672L25.555,58.472L25.598,58.222L25.690,58.046L25.781,57.920L25.824,57.818L25.760,57.326L25.386,56.068L25.167,55.530L25.277,55.288L25.411,55.074L26.326,55.280L27.085,55.153L27.757,54.714L30.563,51.277L32.965,47.738L34.954,44.122L36.142,40.635L36.313,39.729L36.313,39.493L36.698,38.672L37.531,32.457L37.880,30.871L37.934,30.387L38.123,29.385L38.953,27.255L39.143,26.204L39.164,25.609L39.242,24.847L39.389,24.188L39.616,23.909L40.825,24.094L41.020,23.909L41.167,24.147L40.873,25.126L41.332,25.711L42.138,25.947L42.910,25.895L43.356,25.645L44.191,24.931L44.598,24.782L45.382,24.680L46.153,24.344L50.108,20.856L50.398,20.520L50.762,20.219L51.669,20.010L52.069,19.754L52.471,18.963L53.009,16.776L53.408,15.798L54.099,15.008L54.524,14.641L55.247,14.335L55.578,13.968L55.885,13.532L56.240,13.175L56.638,13.037L57.578,12.882L58.264,12.302L61.411,11.062L62.119,10.566L62.570,10.530L63.888,9.868L65.784,9.777L67.920,9.710L69.647,9.657L69.852,9.725L70.197,10.027L70.386,10.095L70.554,10.040L71.054,9.657L73.979,8.823L78.612,8.121L80.555,8.443L80.961,8.625L81.297,8.965L81.959,11.606L82.061,11.648L82.538,11.981L82.574,12.061L82.669,12.131L82.766,12.281L82.902,12.430L83.522,12.632L84.306,13.068L84.654,12.956L84.821,13.141L85.057,13.202L85.289,13.138L85.457,12.956L85.591,12.956L85.591,13.175L85.435,13.308L85.356,13.404L85.361,13.542L85.457,13.811L85.499,14.328L86.095,14.663L87.515,15.023L87.736,15.025ZM12.187,74.900L15.361,73.853L15.652,73.608L15.959,73.571L17.203,74.393L19.118,74.952L19.748,75.523L20.167,75.705L20.960,75.705L21.708,75.924L22.183,75.854L24.102,75.011L24.366,74.694L24.471,74.056L24.658,73.772L25.082,73.793L25.541,73.972L25.824,74.155L25.953,74.356L26.174,74.855L26.348,75.050L26.567,75.127L27.042,75.192L27.239,75.356L27.365,75.408L28.045,75.466L28.382,74.948L28.507,74.830L28.891,74.874L29.322,75.132L29.311,75.266L29.165,76.011L29.055,76.330L28.282,77.410L27.307,78.193L24.872,79.447L23.977,80.166L23.536,80.311L21.211,80.341L20.967,80.231L20.675,79.875L20.642,79.541L20.675,79.185L20.573,78.766L20.202,78.516L17.800,77.699L17.298,77.616L16.813,77.644L16.031,77.824L15.716,77.843L15.428,77.917L15.213,78.143L15.176,78.513L15.227,78.919L15.170,79.222L14.240,79.370L13.612,79.295L13.158,79.080L13.017,79.014L12.540,78.479L12.262,77.674L12.276,76.928L12.357,76.134L12.187,74.900ZM25.690,64.953L26.510,65.185L26.882,65.454L26.922,65.970L26.719,66.293L26.396,66.521L26.048,66.658L24.538,66.957L24.190,66.939L23.459,66.663L23.035,66.358L22.847,65.925L22.722,65.513L22.412,65.266L21.641,64.953L21.510,64.824L21.387,64.652L21.222,64.515L20.960,64.496L20.475,65.082L20.360,65.192L19.479,65.242L19.076,65.121L18.814,64.734L18.869,63.698L19.583,63.228L21.238,62.986L21.320,62.956L21.641,62.986L21.900,63.129L23.784,63.182L24.219,63.280L24.538,63.530L25.272,64.445L25.368,64.613L25.493,64.785L25.690,64.953ZM42.507,19.316L42.507,19.515L42.910,19.515L42.772,19.935L42.517,20.434L41.970,21.264L41.044,22.014L40.603,22.861L39.941,23.053L39.250,22.773L38.874,21.960L38.996,21.122L39.384,20.175L39.872,19.398L40.799,18.612L41.263,17.652L41.755,16.860L42.373,16.892L42.453,17.080L42.497,17.244L42.483,17.397L42.373,17.549L42.651,17.993L42.852,18.562L42.848,19.066L42.507,19.316ZM42.238,15.798L43.070,14.746L44.352,13.585L45.687,12.823L46.677,12.956L46.677,13.175L46.153,13.175L45.906,13.313L45.334,13.527L43.783,15.008L43.354,15.635L42.852,16.068L42.238,15.798ZM52.940,9.090L53.204,8.895L56.117,8.346L55.660,8.964L55.103,9.154L53.958,9.200L53.997,9.309L54.043,9.544L54.082,9.657L53.824,9.790L53.007,9.856L52.132,10.233L51.434,10.407L48.711,11.578L48.151,11.564L47.911,11.080L48.132,10.529L49.184,10.168L49.533,9.856L49.980,9.868L52.619,9.340L52.940,9.090ZM57.860,7.887L62.572,7.697L63.373,8.106L61.429,8.544L59.408,8.544L58.902,8.674L57.957,9.098L57.458,8.982L57.115,8.504L57.230,8.033L57.562,7.761L57.860,7.887ZM68.425,6.577L70.371,6.407L70.920,6.577L70.920,6.796L70.651,6.796L67.274,7.859L66.884,8.346L66.769,8.144L66.763,8.043L66.884,7.887L66.678,7.448L67.172,7.025L67.907,6.704L68.425,6.577ZM72.933,5.047L73.206,5.000L74.287,5.464L74.199,5.459L74.127,5.498L74.066,5.580L74.018,5.701L73.317,5.472L72.970,5.259L72.933,5.047Z" fill="currentColor" stroke="currentColor" stroke-width="1" stroke-linejoin="round"/>
</svg>