<svg xmlns="http://www.w3.org/2000/svg" viewBox="0 0 100 100" role="img" aria-label="Nepal">
  <title>Nepal</title>
  <path d="M94.438,56.529L94.712,56.594L94.860,56.650L94.951,56.724L94.973,56.872L94.840,57.104L94.896,57.619L94.782,57.938L94.622,58.260L94.357,59.311L93.670,60.495L93.389,61.129L93.375,61.263L93.389,61.383L93.441,61.629L93.471,61.684L93.570,61.789L93.591,61.843L93.565,61.951L93.515,62.022L93.458,62.086L93.416,62.170L93.321,62.457L93.294,62.597L93.305,62.771L93.353,62.908L93.490,63.153L93.519,63.295L93.451,63.603L93.182,64.217L93.013,64.604L92.970,65.484L92.808,65.851L92.790,65.957L92.807,66.058L92.859,66.153L93.034,66.325L93.235,66.776L93.433,66.905L93.604,66.985L93.749,67.122L93.981,67.452L94.201,67.860L94.367,68.301L94.462,68.495L94.710,68.877L94.805,69.074L94.848,69.290L94.889,69.831L94.986,70.329L95.000,70.567L94.983,70.805L94.937,71.055L94.752,71.607L94.255,72.604L94.094,73.142L94.013,73.413L94.006,73.541L94.040,73.698L93.951,74.212L93.621,74.819L93.204,75.269L92.859,75.311L92.702,75.155L92.345,74.935L92.188,74.787L92.119,74.666L92.047,74.447L91.995,74.344L91.967,74.351L91.700,74.127L91.691,74.078L91.495,74.128L91.158,74.419L90.968,74.421L90.763,74.312L90.576,74.244L90.434,74.301L90.360,74.567L90.280,74.759L90.118,74.843L89.934,74.819L89.786,74.686L89.605,74.586L89.367,74.670L89.246,74.765L88.972,74.980L88.563,75.167L88.177,75.057L87.384,74.596L87.044,74.531L86.677,74.551L86.321,74.656L86.013,74.844L85.887,75.024L85.680,75.477L85.545,75.597L85.395,75.569L84.930,75.356L84.785,75.265L84.685,75.100L84.609,74.906L84.495,74.789L84.156,74.896L83.565,74.963L83.248,74.831L82.993,74.487L82.810,74.066L82.699,73.698L82.697,73.697L82.570,73.077L82.564,72.865L82.529,72.626L82.403,72.631L82.243,72.767L81.909,73.123L81.768,73.232L81.355,73.379L81.045,73.489L80.701,73.697L80.587,73.980L80.373,74.229L80.102,74.411L79.821,74.494L79.720,74.475L79.329,74.318L79.177,74.341L79.094,74.466L79.021,74.614L78.905,74.707L78.702,74.661L77.929,74.183L77.183,73.834L76.963,73.698L76.961,73.698L76.812,73.519L76.661,73.380L76.487,73.284L76.272,73.232L75.933,73.092L75.257,72.718L74.925,72.595L74.827,72.595L74.588,72.627L74.508,72.616L74.431,72.528L74.427,72.350L74.347,72.263L74.159,72.226L73.923,72.263L73.504,72.409L73.258,72.570L73.180,72.595L73.064,72.572L72.996,72.520L72.943,72.461L72.870,72.419L72.702,72.368L72.633,72.360L72.615,72.357L72.364,72.373L72.295,72.344L72.238,72.292L71.475,71.805L71.140,71.692L70.746,71.819L70.485,71.848L70.292,71.963L69.536,72.629L69.297,72.772L69.118,72.802L69.041,72.732L69.021,72.634L69.019,72.524L68.997,72.418L68.910,72.339L68.803,72.368L68.692,72.414L68.592,72.387L67.996,71.904L67.839,71.708L67.721,71.265L67.803,70.335L67.717,69.906L67.561,69.714L66.695,69.222L66.575,69.179L65.700,69.531L65.216,69.797L64.817,70.017L64.617,70.081L64.414,70.019L64.223,70.008L64.039,70.177L63.885,70.367L63.862,70.396L63.683,70.532L63.300,70.651L63.133,70.655L62.112,70.380L61.788,70.035L61.786,69.602L61.748,69.222L61.314,69.037L61.064,69.064L60.442,69.313L60.161,69.287L60.142,69.118L60.155,68.927L59.965,68.829L59.825,68.810L59.688,68.771L59.433,68.636L59.339,68.408L59.277,68.146L59.116,67.906L58.867,67.762L58.317,67.574L58.057,67.414L58.055,67.413L57.938,67.216L57.766,67.176L57.584,67.243L57.434,67.359L57.310,67.361L55.978,66.992L55.834,66.891L55.770,66.620L55.868,66.333L56.025,66.046L56.134,65.773L56.194,65.274L56.170,64.793L56.066,64.324L55.886,63.867L55.605,63.447L55.279,63.214L52.098,62.622L51.858,62.465L51.650,62.165L51.541,61.930L51.392,61.814L51.057,61.868L50.953,61.836L50.834,61.530L50.731,61.414L50.465,61.307L50.346,61.236L50.242,61.128L50.193,60.898L49.999,60.853L49.778,60.945L49.217,61.646L48.983,61.809L48.631,61.822L48.189,61.742L48.047,61.694L48.036,61.697L47.791,61.770L47.278,61.807L47.063,61.894L47.158,62.095L47.473,62.454L47.501,62.572L47.545,62.700L47.542,62.802L47.433,62.845L47.369,62.893L47.290,63.012L47.276,62.998L47.217,62.937L46.708,62.750L45.176,61.916L44.369,61.610L43.158,61.445L42.119,61.436L41.831,61.540L41.775,61.662L41.753,61.815L41.774,61.961L41.942,62.193L41.926,62.345L41.851,62.502L41.612,62.863L41.426,63.055L41.211,63.177L40.963,63.190L40.709,63.099L40.598,62.974L40.528,62.797L40.401,62.558L40.264,62.400L39.715,61.930L39.308,61.766L37.955,61.776L37.255,61.601L36.748,61.312L36.471,61.221L35.099,61.128L34.851,60.836L34.731,60.359L34.624,59.419L34.490,58.936L34.298,58.621L34.233,58.596L33.993,58.499L32.600,58.863L31.655,58.973L31.226,58.838L30.629,58.224L29.772,57.791L28.452,56.687L27.969,56.495L27.781,56.385L27.574,56.163L27.352,55.972L27.337,55.967L27.082,55.881L26.515,55.824L26.189,55.970L25.743,56.501L25.490,56.678L25.185,56.654L24.878,56.469L24.571,56.237L24.018,55.916L23.579,55.440L23.342,55.243L23.082,55.147L22.525,55.016L22.307,54.846L22.304,54.845L22.161,54.613L21.937,54.454L20.959,53.946L20.790,53.809L20.744,53.692L20.732,53.561L20.680,53.380L20.536,53.149L20.338,52.933L20.103,52.761L19.850,52.671L19.681,52.694L19.610,52.809L19.563,52.965L19.462,53.112L19.303,53.194L19.119,53.224L18.999,53.168L19.034,52.989L18.854,52.944L18.784,52.847L18.828,52.745L18.996,52.676L18.846,52.372L18.204,51.628L18.054,51.278L17.828,50.531L17.600,50.239L17.342,50.102L16.244,49.890L15.728,49.791L15.648,49.654L15.627,49.498L15.588,49.363L15.458,49.289L15.287,49.347L15.073,49.342L14.853,49.298L14.676,49.239L14.470,49.089L14.417,48.913L14.400,48.724L14.311,48.535L14.153,48.465L13.700,48.464L13.494,48.424L13.309,48.311L12.887,47.868L12.705,47.746L12.359,47.647L12.169,47.557L12.054,47.411L11.835,46.991L11.694,46.889L11.284,46.814L11.094,46.750L10.897,46.648L10.823,46.548L10.829,46.430L10.847,46.321L10.812,46.247L10.575,46.239L10.389,46.233L10.167,46.358L10.057,46.529L10.028,46.745L10.121,47.545L10.066,47.711L9.849,47.593L9.382,47.028L9.181,46.908L8.959,46.897L8.746,46.954L8.533,46.985L8.311,46.894L8.185,46.735L7.884,46.112L7.799,46.041L7.598,45.991L7.508,45.948L7.423,45.854L7.307,45.652L7.245,45.571L7.058,45.455L6.669,45.388L6.457,45.312L6.297,45.186L5.928,44.693L5.570,44.482L5.473,44.462L5.271,44.421L5.067,44.260L5.000,43.749L5.009,43.496L5.040,43.268L5.113,43.056L5.250,42.851L5.422,42.715L5.607,42.620L5.765,42.497L5.858,42.280L5.858,42.277L5.823,41.865L5.915,41.304L6.131,40.826L6.473,40.661L6.662,40.687L6.893,40.689L7.105,40.627L7.242,40.461L7.214,40.267L7.029,39.741L7.085,39.558L7.275,39.533L7.415,39.643L7.520,39.667L7.748,38.842L7.792,38.550L7.762,38.313L7.681,38.244L7.580,38.248L7.485,38.232L7.424,38.102L7.343,37.594L7.109,37.183L7.029,36.972L7.072,36.749L7.190,36.660L7.512,36.555L7.578,36.440L7.609,36.277L7.685,36.195L7.784,36.125L7.885,35.995L7.888,35.993L8.110,35.825L8.205,35.728L8.284,35.615L8.288,35.551L8.260,35.481L8.244,35.404L8.284,35.317L8.344,35.268L8.481,35.194L8.544,35.147L8.793,34.869L8.925,34.610L8.942,34.333L8.840,34.005L8.689,33.668L8.584,33.352L8.583,33.033L8.745,32.685L9.036,32.451L9.695,32.275L9.930,32.079L10.496,31.372L10.742,30.979L10.889,30.526L10.983,30.311L11.148,30.219L11.546,30.168L11.758,30.102L11.899,30.013L12.187,29.742L12.581,29.475L12.691,29.357L13.022,28.831L13.176,28.671L13.841,28.171L14.061,27.841L13.915,27.506L14.069,27.356L14.263,27.127L14.437,27.000L14.439,26.998L14.547,27.153L14.654,27.375L14.848,27.422L15.592,27.172L15.679,27.167L15.795,27.268L15.938,27.478L16.065,27.723L16.206,28.132L16.460,28.547L16.544,28.739L16.657,29.292L16.662,29.314L16.804,29.430L17.101,29.357L17.361,29.351L17.874,29.587L18.121,29.540L18.236,29.361L18.219,29.008L18.372,28.904L18.566,28.844L18.674,28.764L18.686,28.737L18.731,28.638L18.775,28.444L18.759,28.358L18.668,28.163L18.675,28.071L18.794,27.985L18.966,27.973L19.146,27.983L19.288,27.961L19.464,27.839L19.594,27.667L19.674,27.461L19.724,27.069L19.863,26.838L19.902,26.719L19.891,26.611L19.820,26.409L19.804,26.299L19.793,25.859L19.832,25.660L19.949,25.479L20.006,25.305L19.979,25.106L20.008,24.943L20.228,24.877L20.435,24.961L20.841,25.352L21.065,25.471L21.356,25.515L21.481,25.471L21.606,24.988L21.659,24.885L21.742,24.833L21.952,24.796L22.101,24.729L22.159,24.622L22.193,24.513L22.265,24.436L22.513,24.403L22.753,24.477L24.098,25.082L24.338,25.143L24.586,25.102L24.822,25.015L25.061,24.978L25.534,25.181L25.913,25.151L26.132,25.194L26.230,25.264L26.362,25.449L26.439,25.517L26.548,25.535L26.654,25.498L26.761,25.444L26.866,25.410L27.333,25.379L27.591,25.404L27.763,25.494L27.812,25.687L27.689,26.408L27.721,26.742L27.842,26.960L28.045,27.102L28.334,27.204L28.503,27.363L28.451,27.604L28.192,28.080L28.205,28.250L28.277,28.515L28.380,28.770L28.482,28.912L28.708,28.945L28.906,28.870L29.111,28.833L29.609,29.144L29.833,29.179L30.060,29.180L30.308,29.243L30.399,29.320L30.531,29.527L30.622,29.600L30.804,29.628L30.974,29.602L31.143,29.603L31.313,29.711L31.457,29.898L31.635,30.073L31.836,30.220L32.043,30.328L32.579,30.493L32.773,30.608L33.621,31.656L33.813,31.792L33.929,31.788L34.157,31.716L34.271,31.724L34.400,31.808L34.403,31.910L34.352,32.035L34.320,32.185L34.422,32.399L35.092,32.919L35.298,33.235L35.419,33.349L35.551,33.420L35.685,33.464L35.800,33.538L35.875,33.690L36.032,33.919L36.263,33.838L36.514,33.651L36.731,33.559L36.835,33.607L36.996,33.795L37.087,33.864L37.199,33.879L37.445,33.842L37.573,33.866L38.203,34.413L38.292,34.541L38.442,34.846L38.558,34.937L38.719,34.926L38.786,34.791L38.818,34.615L38.872,34.480L38.949,34.448L39.241,34.376L39.499,34.348L39.632,34.354L39.759,34.403L39.910,34.518L39.950,34.584L39.990,34.750L40.020,34.807L40.106,34.860L40.293,34.924L40.375,34.973L40.633,35.233L40.724,35.399L40.751,35.587L40.714,35.691L40.649,35.760L40.590,35.845L40.573,35.993L40.758,36.266L41.466,36.115L41.767,36.421L41.796,36.647L41.767,36.832L41.787,36.991L42.122,37.266L42.146,37.405L42.133,37.558L42.187,37.734L42.318,37.857L42.459,37.927L42.574,38.020L42.674,38.375L42.796,38.482L43.101,38.605L43.296,38.741L43.402,38.931L43.507,39.403L43.530,39.675L43.557,39.802L43.631,39.904L43.766,39.959L44.048,39.997L44.165,40.095L44.296,40.174L44.745,40.258L44.909,40.266L45.083,40.195L45.094,40.191L45.176,40.014L45.224,39.794L45.305,39.588L45.530,39.369L45.798,39.276L46.082,39.265L46.361,39.292L46.611,39.261L47.105,39.019L47.368,38.941L47.448,38.901L47.542,38.733L47.609,38.667L47.951,38.574L48.159,38.544L48.296,38.544L48.433,38.579L48.536,38.633L48.602,38.730L48.631,38.897L48.768,38.824L48.908,38.786L49.036,38.815L49.136,38.947L49.287,39.099L49.484,39.065L49.695,38.982L49.890,38.986L49.994,39.107L50.063,39.447L50.140,39.583L50.291,39.619L50.468,39.594L50.617,39.614L50.685,39.792L50.614,40.000L50.465,40.197L50.360,40.404L50.424,40.645L50.668,40.886L50.736,40.974L50.775,41.094L50.838,41.490L51.089,41.642L51.337,41.723L51.457,41.885L51.184,42.957L51.389,43.291L51.498,43.468L52.060,43.798L52.812,43.955L52.948,44.012L53.062,44.112L53.244,44.419L53.479,44.621L53.572,44.736L53.739,45.312L53.883,45.556L54.159,45.639L54.411,45.632L54.600,45.713L54.780,45.823L55.000,45.902L55.612,46.005L55.712,46.062L55.818,46.283L55.894,46.374L56.111,46.455L56.319,46.498L56.450,46.601L56.392,47.184L56.537,47.288L57.043,47.312L57.254,47.422L57.543,47.756L57.735,47.910L57.877,47.968L58.009,47.987L58.621,47.948L58.755,47.971L58.937,48.031L59.057,48.048L59.165,48.012L59.253,47.933L59.391,47.638L59.458,47.562L59.787,47.382L59.890,47.355L59.983,47.309L60.057,47.207L60.163,46.990L60.235,46.882L60.311,46.811L60.563,46.753L60.786,46.841L61.193,47.128L61.736,47.302L61.814,47.450L61.692,48.079L61.656,48.183L61.589,48.297L61.508,48.359L61.318,48.438L61.252,48.530L61.235,48.603L61.234,48.839L61.166,49.008L60.881,49.181L60.814,49.304L60.903,49.992L60.903,50.236L60.861,50.611L60.843,50.774L60.922,50.958L61.166,51.107L61.440,51.111L61.665,50.999L61.876,50.955L62.231,51.283L62.432,51.366L62.648,51.413L62.826,51.425L62.976,51.389L63.285,51.248L63.413,51.226L63.558,51.294L63.658,51.403L63.775,51.497L63.965,51.517L64.134,51.437L64.394,51.151L64.548,51.054L64.728,51.047L64.895,51.108L65.216,51.272L65.458,51.228L65.713,51.224L65.968,51.256L66.207,51.319L66.431,51.472L66.579,51.628L66.721,51.624L67.023,51.162L67.110,51.089L67.344,51.003L67.421,50.929L67.433,50.820L67.431,50.699L67.466,50.596L67.619,50.567L67.675,50.841L67.694,51.398L67.869,51.722L68.078,51.996L68.323,52.226L68.612,52.416L69.100,52.638L69.336,52.783L69.503,52.979L69.544,53.110L69.596,53.386L69.788,53.646L69.809,53.764L69.796,53.885L69.803,54.036L69.889,54.328L70.007,54.499L70.395,54.847L70.534,55.079L70.531,55.322L70.482,55.575L70.475,55.833L70.602,56.146L70.796,56.224L71.307,56.164L71.583,56.194L71.618,56.188L71.696,56.175L71.851,56.103L72.199,55.750L72.262,55.700L72.255,55.569L72.199,55.481L72.126,55.406L72.071,55.310L72.066,55.171L72.098,55.063L72.099,54.961L72.003,54.847L72.003,54.845L72.002,54.845L71.890,54.766L71.872,54.693L71.894,54.613L71.894,54.508L71.942,54.296L71.951,54.229L71.916,54.131L71.790,53.942L71.774,53.816L72.739,52.813L72.960,52.857L73.071,53.102L73.084,53.414L73.013,53.665L72.919,53.878L72.943,53.995L73.025,54.091L73.106,54.232L73.182,54.597L73.259,54.748L73.422,54.843L73.424,54.844L73.429,54.847L73.652,54.912L73.878,54.936L74.089,54.985L74.272,55.128L74.533,55.462L74.638,55.538L74.747,55.559L74.836,55.523L74.925,55.474L75.028,55.458L75.127,55.510L75.501,55.824L75.717,55.912L75.867,55.901L76.272,55.690L76.509,55.561L76.659,55.378L76.729,55.139L76.725,54.847L76.722,54.626L76.790,54.482L76.885,54.357L76.967,54.187L76.994,53.999L76.999,53.797L77.031,53.611L77.135,53.471L77.312,53.440L77.462,53.548L77.614,53.693L77.785,53.771L77.949,53.731L78.196,53.509L78.334,53.438L78.534,53.452L78.751,53.539L78.950,53.671L79.106,53.814L79.153,53.965L79.111,54.341L79.195,54.510L79.529,54.628L80.308,54.595L80.614,54.845L80.614,54.847L80.711,55.149L80.890,55.356L81.129,55.470L81.413,55.496L81.743,55.441L81.874,55.400L81.948,55.378L82.135,55.390L82.410,55.559L82.758,55.931L83.361,56.734L83.795,56.970L84.085,56.986L84.648,56.921L85.285,57.092L85.544,56.935L85.786,56.711L86.096,56.600L86.333,56.673L86.282,56.844L86.154,57.054L86.154,57.245L86.349,57.239L87.331,56.959L87.762,56.852L87.951,56.832L88.169,56.893L88.220,56.954L88.263,57.054L88.321,57.158L88.412,57.231L88.596,57.236L88.940,57.048L89.106,56.997L89.370,57.044L89.576,57.126L89.818,57.223L90.110,57.197L90.436,57.038L90.696,56.798L90.904,56.496L91.075,56.151L91.205,55.955L91.324,55.933L91.539,56.055L92.407,56.096L92.524,56.134L92.759,56.254L92.892,56.282L93.040,56.255L93.331,56.136L93.462,56.121L93.714,56.207L94.189,56.473L94.438,56.529Z" fill="currentColor" stroke="currentColor" stroke-width="1" stroke-linejoin="round"/>
</svg>