<svg xmlns="http://www.w3.org/2000/svg" viewBox="0 0 100 100" role="img" aria-label="New Zealand">
  <title>New Zealand</title>
  <path d="M23.521,94.692L23.583,94.595L23.705,94.519L23.825,94.507L23.875,94.598L23.807,94.655L23.680,94.738L23.562,94.774L23.521,94.692ZM25.030,91.618L24.970,91.671L24.891,91.694L24.823,91.670L24.789,91.580L24.810,91.489L24.871,91.443L24.947,91.434L25.017,91.451L25.084,91.502L25.030,91.618ZM29.605,91.264L29.686,91.416L29.623,91.558L29.514,91.671L29.466,91.735L29.490,91.663L29.455,91.603L29.399,91.537L29.356,91.451L29.437,91.443L29.512,91.413L29.572,91.355L29.605,91.264ZM27.576,93.424L27.811,93.568L27.878,93.635L27.887,93.678L27.848,93.701L27.793,93.707L27.754,93.705L27.726,93.681L27.687,93.592L27.647,93.565L27.533,93.558L27.505,93.607L27.538,93.775L27.480,93.810L27.301,93.739L27.361,93.845L26.973,93.845L26.650,93.896L26.521,93.950L26.196,94.225L26.100,94.339L26.030,94.389L25.938,94.387L25.848,94.349L25.779,94.292L25.698,94.252L25.509,94.279L25.445,94.271L25.395,94.188L25.362,94.089L25.319,94.040L25.211,94.130L25.124,94.150L25.084,94.173L25.083,94.198L25.049,94.364L24.966,94.310L24.700,94.504L24.549,94.552L24.642,94.643L24.804,94.615L25.120,94.504L25.058,94.635L24.999,94.723L24.836,94.883L24.837,94.716L24.771,94.718L24.679,94.806L24.605,94.904L24.510,94.951L24.336,94.989L24.158,95.000L24.052,94.969L24.023,94.836L24.056,94.662L24.120,94.496L24.180,94.388L24.233,94.343L24.335,94.330L24.440,94.253L24.620,94.173L24.530,94.116L24.529,94.053L24.565,93.982L24.591,93.896L24.583,93.792L24.566,93.713L24.565,93.637L24.605,93.541L24.658,93.472L24.713,93.427L24.836,93.351L24.921,93.323L24.988,93.341L25.050,93.372L25.120,93.377L25.209,93.285L25.189,93.121L25.149,92.938L25.174,92.790L25.238,92.754L25.391,92.754L25.460,92.699L25.546,92.563L25.575,92.489L25.587,92.395L25.560,92.239L25.492,92.093L25.316,91.852L25.285,91.778L25.307,91.717L25.347,91.667L25.367,91.617L25.366,91.572L25.356,91.539L25.340,91.509L25.316,91.476L25.295,91.426L25.303,91.387L25.324,91.353L25.335,91.315L25.364,91.122L25.436,91.023L25.552,90.987L25.709,90.982L25.849,91.029L25.929,91.041L25.996,91.006L26.068,90.938L26.128,90.926L26.371,91.040L26.471,91.117L26.561,91.211L27.025,91.806L27.098,91.874L27.186,91.929L27.259,91.993L27.289,92.087L27.353,92.106L27.471,92.169L27.534,92.255L27.432,92.343L27.538,92.395L27.538,92.437L27.409,92.480L26.937,92.437L26.973,92.343L26.680,92.333L26.582,92.379L26.635,92.512L26.620,92.587L26.367,92.910L26.498,92.895L26.679,92.683L26.793,92.629L26.846,92.650L26.989,92.748L27.121,92.780L27.325,92.863L27.305,92.911L27.287,92.947L27.262,92.975L27.221,92.999L27.221,93.046L27.281,93.048L27.561,92.956L27.627,92.952L27.697,92.914L27.736,92.903L27.754,92.931L27.769,92.985L27.809,93.035L27.855,93.072L27.896,93.092L27.870,93.157L27.838,93.331L27.825,93.377L27.766,93.410L27.708,93.403L27.647,93.383L27.576,93.377L27.576,93.424ZM19.847,83.615L19.944,83.686L20.013,83.817L20.056,83.975L20.071,84.121L20.050,84.272L19.991,84.381L19.900,84.443L19.784,84.458L19.773,84.422L19.735,84.353L19.693,84.318L19.656,84.442L19.614,84.469L19.566,84.471L19.528,84.458L19.497,84.386L19.470,84.250L19.455,84.112L19.461,84.033L19.388,83.903L19.298,83.914L18.974,84.268L18.890,84.324L18.781,84.359L18.808,84.269L18.857,84.145L18.919,84.034L18.979,83.986L18.994,83.965L19.054,83.860L19.095,83.758L19.157,83.743L19.287,83.747L19.703,83.613L19.800,83.608L19.847,83.615ZM21.209,80.511L21.256,80.758L21.330,80.990L21.524,81.451L21.351,81.482L21.281,81.464L21.189,81.376L21.105,81.327L20.991,81.291L20.890,81.241L20.848,81.147L20.791,81.060L20.779,81.007L20.832,80.983L20.822,80.953L20.856,80.886L21.170,80.417L21.171,80.451L21.181,80.470L21.194,80.487L21.209,80.511ZM59.685,52.710L59.771,52.723L59.783,52.775L59.774,52.853L59.792,52.944L59.753,53.033L59.721,53.239L59.685,53.318L59.608,53.369L59.517,53.375L59.420,53.365L59.328,53.369L59.257,53.406L59.128,53.521L59.077,53.556L58.995,53.572L58.732,53.558L58.733,53.555L58.759,53.527L58.815,53.473L58.831,53.463L58.887,53.457L59.011,53.470L59.060,53.439L59.328,53.136L59.416,53.226L59.531,53.183L59.616,53.070L59.612,52.944L59.547,52.981L59.484,52.973L59.432,52.926L59.399,52.850L59.492,52.843L59.559,52.795L59.618,52.740L59.685,52.710ZM56.587,51.345L56.648,51.310L56.681,51.257L56.685,51.189L56.658,51.112L56.602,51.179L56.587,51.204L56.557,51.126L56.547,51.039L56.557,50.954L56.587,50.877L56.666,50.952L56.727,51.034L56.798,51.095L56.906,51.112L56.906,51.068L56.842,51.013L56.785,50.943L56.744,50.853L56.729,50.741L56.742,50.640L56.807,50.379L56.836,50.320L56.864,50.329L56.871,50.384L56.886,50.441L56.942,50.456L56.961,50.363L56.988,50.299L57.032,50.269L57.108,50.311L57.110,50.411L57.097,50.535L57.122,50.647L57.162,50.582L57.325,50.528L57.406,50.456L57.229,50.456L57.346,50.354L57.394,50.299L57.441,50.222L57.498,50.026L57.524,49.985L57.548,50.085L57.546,50.184L57.528,50.279L57.477,50.456L57.509,50.526L57.518,50.572L57.495,50.592L57.466,50.610L57.390,50.703L57.367,50.741L57.351,50.812L57.332,50.989L57.300,51.068L57.278,51.075L57.174,51.068L57.144,51.085L57.082,51.171L57.051,51.204L56.924,51.251L56.888,51.271L56.866,51.316L56.851,51.365L56.836,51.396L56.770,51.443L56.695,51.476L56.619,51.481L56.552,51.443L56.572,51.419L56.578,51.396L56.580,51.373L56.587,51.345ZM51.207,67.603L51.245,67.691L51.207,67.857L51.187,68.029L51.177,68.393L51.142,68.435L51.108,68.529L51.121,68.676L51.216,69.104L51.364,69.509L51.355,69.618L51.289,69.540L51.227,69.528L51.202,69.573L51.245,69.669L51.324,69.725L51.641,69.810L51.494,69.874L51.151,69.895L50.997,69.946L50.858,70.068L50.918,70.121L51.063,70.144L51.177,70.179L51.285,70.044L51.478,69.997L51.664,69.999L51.748,70.014L51.770,70.117L51.819,70.215L51.867,70.270L51.890,70.247L51.915,70.071L51.961,69.898L52.098,69.981L52.129,70.038L52.138,70.154L52.122,70.344L52.140,70.386L52.212,70.366L52.257,70.314L52.294,70.232L52.338,70.160L52.406,70.128L52.483,70.136L52.561,70.168L52.620,70.226L52.641,70.319L52.787,70.163L52.850,70.128L52.871,70.248L52.932,70.318L53.005,70.374L53.064,70.456L53.069,70.509L53.054,70.566L53.035,70.614L53.028,70.647L53.041,70.687L53.084,70.758L53.098,70.791L53.117,70.978L53.102,71.177L53.060,71.370L52.995,71.540L52.931,71.447L52.803,71.609L52.709,71.587L52.676,71.732L52.673,71.778L52.631,71.721L52.585,71.709L52.539,71.732L52.496,71.778L52.474,71.691L52.407,71.537L52.387,71.447L52.387,71.341L52.402,71.283L52.395,71.231L52.335,71.142L52.307,71.052L52.317,70.951L52.313,70.868L52.245,70.834L52.165,70.864L52.131,70.933L52.146,71.012L52.212,71.072L52.138,71.257L52.132,71.445L52.187,71.629L52.351,71.876L52.334,71.891L52.212,71.868L51.872,71.868L51.801,71.828L51.682,71.691L51.563,71.727L51.500,71.680L51.390,71.540L51.188,71.339L51.183,71.247L51.284,71.119L51.192,71.126L51.050,71.192L50.626,71.251L50.482,71.324L50.181,71.353L49.724,71.510L49.513,71.543L49.469,71.517L49.489,71.444L49.541,71.393L49.605,71.363L49.744,71.341L50.527,71.082L50.606,71.072L50.682,71.050L50.643,70.998L50.499,70.907L50.435,70.893L50.270,70.916L50.181,70.881L50.145,70.842L50.081,70.746L50.040,70.698L49.900,70.633L49.767,70.655L49.632,70.710L49.486,70.740L49.399,70.812L49.350,70.983L49.328,71.185L49.326,71.353L49.339,71.454L49.350,71.494L49.336,71.528L49.273,71.610L49.217,71.638L48.785,71.704L48.723,71.692L48.616,71.726L48.523,71.828L48.284,71.908L48.176,71.998L47.636,72.242L46.634,72.940L46.478,72.965L46.393,72.949L46.314,72.958L46.248,72.999L45.862,73.256L45.669,73.297L45.589,73.327L45.526,73.384L45.471,73.447L45.412,73.497L45.266,73.539L45.128,73.636L45.071,73.658L44.984,73.686L44.890,73.793L44.838,73.845L44.803,73.903L44.669,73.951L44.605,73.999L44.288,74.323L44.161,74.394L44.058,74.356L43.984,74.404L43.921,74.449L43.877,74.525L43.860,74.592L43.578,75.085L43.558,75.164L43.558,75.555L43.530,75.683L43.460,75.785L43.310,75.955L43.299,76.017L43.297,76.095L43.279,76.161L43.220,76.189L43.177,76.202L43.026,76.288L43.141,76.424L43.169,76.660L43.169,77.175L43.228,77.506L43.236,77.623L43.209,77.752L43.147,77.804L43.077,77.841L43.026,77.924L43.175,77.948L43.227,78.115L43.222,78.339L43.179,78.745L43.124,78.883L43.062,78.982L43.020,79.072L42.970,79.175L42.948,79.279L42.597,79.897L42.021,80.454L41.740,81.026L41.615,81.514L41.547,81.657L41.484,81.831L41.557,81.916L41.647,81.995L41.637,82.152L41.444,82.365L41.396,82.458L41.395,82.532L41.415,82.607L41.427,82.695L41.355,82.820L41.210,82.912L41.103,83.018L41.140,83.186L41.079,83.268L41.016,83.308L40.945,83.301L40.857,83.237L40.863,83.312L40.881,83.382L40.928,83.514L40.841,83.590L40.774,83.617L40.587,83.611L40.482,83.646L40.485,83.716L40.561,83.783L40.679,83.798L40.557,84.047L40.516,84.084L40.458,84.100L40.392,84.138L40.286,84.224L40.243,84.239L40.209,84.228L40.184,84.232L40.176,84.292L40.176,84.357L40.182,84.393L40.203,84.409L40.250,84.411L40.329,84.438L40.398,84.480L40.465,84.489L40.534,84.411L40.629,84.487L40.765,84.553L40.871,84.624L40.873,84.715L40.781,84.780L40.528,84.828L40.424,84.879L40.324,85.028L40.286,85.071L40.241,85.087L40.182,85.098L40.130,85.123L40.065,85.297L39.871,85.417L39.821,85.534L39.919,85.487L40.106,85.440L40.264,85.313L40.499,85.228L40.570,85.164L40.649,85.007L40.712,84.926L40.783,84.881L40.849,84.866L40.908,84.833L40.963,84.739L41.016,84.826L41.037,84.932L41.019,85.306L40.973,85.396L40.897,85.431L40.786,85.440L40.679,85.434L40.658,85.444L40.605,85.483L40.578,85.528L40.579,85.575L40.567,85.613L39.492,85.717L39.048,85.856L38.663,86.118L38.361,86.521L38.280,86.681L38.261,86.760L38.244,86.965L38.197,87.092L38.187,87.155L38.149,87.300L38.056,87.430L37.939,87.534L37.829,87.601L37.555,87.706L37.426,87.781L37.313,87.907L37.224,88.032L37.126,88.137L36.407,88.608L36.226,88.838L36.156,89.197L36.169,89.379L36.144,89.449L35.998,89.498L35.876,89.596L35.835,89.617L35.745,89.603L35.570,89.539L35.482,89.524L35.393,89.535L35.243,89.596L35.160,89.617L35.241,89.649L35.659,89.669L35.555,89.905L35.392,90.007L35.205,90.075L35.034,90.208L34.960,90.202L34.825,90.151L34.679,90.117L34.571,90.162L34.505,90.220L34.230,90.370L34.260,90.402L34.312,90.482L34.341,90.515L34.200,90.556L34.026,90.507L33.866,90.496L33.770,90.656L33.661,90.576L33.628,90.562L33.449,90.532L33.358,90.540L33.288,90.583L33.182,90.690L33.119,90.732L33.057,90.749L32.876,90.773L32.806,90.762L32.738,90.698L32.758,90.561L32.745,90.482L32.736,90.480L32.670,90.464L32.623,90.512L32.627,90.666L32.563,90.713L32.553,90.747L32.539,90.780L32.508,90.796L32.350,90.796L32.257,90.767L32.203,90.705L32.168,90.639L32.132,90.604L32.065,90.613L32.063,90.673L32.080,90.757L32.061,90.843L31.921,90.918L31.746,90.875L31.568,90.793L31.423,90.749L31.254,90.755L31.159,90.740L31.098,90.660L30.967,90.230L30.958,90.162L30.929,90.083L30.858,90.083L30.705,90.136L30.172,90.231L29.995,90.230L30.038,90.158L30.100,90.134L30.172,90.124L30.243,90.090L30.139,90.032L30.009,90.004L29.749,89.996L29.790,90.092L29.858,90.154L29.888,90.205L29.820,90.276L29.840,90.298L29.873,90.349L29.891,90.370L29.612,90.455L28.718,90.370L28.783,90.252L28.813,90.218L28.856,90.187L28.930,90.165L29.116,90.168L29.179,90.187L29.232,90.265L29.383,90.293L29.476,90.254L29.356,90.136L29.206,90.080L28.753,90.090L28.544,89.969L28.440,89.947L28.395,90.067L28.428,90.206L28.586,90.391L28.647,90.515L28.504,90.492L28.316,90.281L28.198,90.230L28.180,90.201L28.170,90.136L28.139,90.071L28.002,90.030L27.964,89.991L27.941,89.931L27.931,89.851L28.091,89.806L28.147,89.809L28.201,89.826L28.211,89.845L28.210,89.875L28.236,89.923L28.269,89.877L28.540,89.669L28.589,89.486L28.553,89.264L28.456,89.102L28.324,89.103L28.366,89.276L28.314,89.437L28.214,89.535L28.108,89.524L28.048,89.430L27.940,89.147L27.662,88.674L27.576,88.588L27.429,88.552L26.921,88.635L26.846,88.672L26.843,88.752L26.861,88.832L26.848,88.869L26.772,88.847L26.680,88.806L26.592,88.779L26.527,88.803L26.369,88.780L26.270,88.782L26.226,88.848L26.197,88.920L26.136,88.938L26.073,88.929L26.020,88.911L25.947,88.876L25.906,88.869L25.870,88.884L25.792,88.949L25.761,88.963L25.702,88.940L25.651,88.893L25.603,88.826L25.545,88.800L25.499,88.739L25.425,88.612L25.375,88.565L25.253,88.500L25.191,88.452L25.263,88.412L25.334,88.385L25.396,88.344L25.445,88.260L25.179,87.936L25.050,87.738L25.049,87.601L24.971,87.538L24.760,87.518L24.655,87.487L24.410,87.339L24.335,87.320L23.740,87.261L23.698,87.274L23.666,87.323L23.662,87.434L23.642,87.487L23.583,87.595L23.562,87.689L23.551,87.780L23.521,87.882L23.453,87.966L23.374,87.988L23.198,87.975L23.113,88.001L22.955,88.093L22.879,88.120L22.775,88.110L22.562,88.033L22.450,88.027L22.364,88.049L22.322,88.069L22.290,88.096L22.254,88.117L22.225,88.089L22.202,88.048L22.183,88.027L22.123,88.013L21.791,87.868L21.702,87.871L21.614,87.885L21.524,87.882L21.170,87.793L20.457,87.809L20.109,87.752L19.816,87.554L19.661,87.362L19.638,87.297L19.669,87.253L19.816,87.191L19.869,87.155L20.067,86.946L20.245,86.712L20.391,86.392L20.474,86.252L20.581,86.193L20.734,86.157L20.971,85.977L21.099,85.904L21.099,85.861L20.985,85.876L20.670,86.053L20.444,86.131L20.322,86.195L20.245,86.283L20.226,86.360L20.238,86.410L20.254,86.455L20.245,86.521L20.223,86.536L20.061,86.699L20.052,86.727L20.039,86.725L19.993,86.665L19.997,86.630L20.018,86.578L20.018,86.520L19.961,86.470L19.891,86.684L19.727,86.773L19.351,86.848L19.351,86.730L19.369,86.620L19.415,86.567L19.497,86.614L19.514,86.395L19.572,86.246L19.671,86.141L19.816,86.053L20.129,85.983L20.264,85.923L20.351,85.768L20.174,85.848L19.993,85.904L19.921,85.898L19.823,85.873L19.742,85.835L19.727,85.792L20.011,85.470L20.057,85.399L20.067,85.347L20.015,85.292L19.957,85.302L19.899,85.346L19.851,85.393L19.830,85.425L19.807,85.470L19.790,85.519L19.784,85.557L19.688,85.621L19.656,85.650L19.515,85.864L19.497,85.932L19.420,86.007L18.926,86.142L18.857,86.182L18.735,86.307L18.695,86.334L18.657,86.298L18.617,86.218L18.589,86.132L18.589,86.076L18.609,85.997L18.602,85.904L18.574,85.768L18.576,85.152L18.610,84.993L18.695,84.926L19.032,84.879L19.390,84.879L19.351,84.926L19.390,84.977L19.519,84.875L19.672,84.834L19.996,84.832L20.130,84.811L20.406,84.714L20.548,84.692L20.701,84.716L20.772,84.713L20.832,84.668L20.875,84.617L20.925,84.571L21.028,84.500L21.280,84.396L21.390,84.316L21.454,84.173L21.232,84.255L21.152,84.267L20.779,84.224L20.294,84.356L20.173,84.318L20.269,84.117L20.332,84.044L20.422,83.986L20.699,83.910L20.779,83.845L20.279,83.914L20.191,83.892L20.151,83.728L20.155,83.576L20.213,83.464L20.334,83.420L20.473,83.390L20.734,83.261L20.887,83.237L21.160,83.328L21.304,83.336L21.415,83.237L21.240,83.241L21.162,83.214L21.099,83.139L21.434,83.041L21.587,82.934L21.631,82.761L20.940,83.101L20.512,83.181L20.226,83.331L20.169,83.337L20.056,83.367L19.996,83.373L19.905,83.365L19.863,83.337L19.800,83.212L19.800,83.109L19.993,82.719L20.086,82.306L20.138,82.199L20.370,82.084L20.624,82.183L20.875,82.337L21.099,82.386L21.040,82.224L20.959,82.055L20.878,81.993L20.815,82.152L20.719,82.080L20.515,81.981L20.422,81.919L20.355,81.840L20.338,81.765L20.368,81.679L20.439,81.565L20.616,81.389L20.729,81.308L20.779,81.331L20.821,81.448L20.918,81.535L21.134,81.634L21.087,81.667L21.045,81.709L21.012,81.761L20.993,81.825L21.159,81.808L21.304,81.743L21.445,81.731L21.592,81.872L21.630,81.936L21.651,81.997L21.642,82.064L21.592,82.152L21.459,82.251L21.403,82.314L21.451,82.344L21.627,82.334L21.689,82.298L21.757,82.225L21.792,82.137L21.813,82.047L21.850,82.010L21.992,82.130L22.057,82.171L22.109,82.227L22.144,82.389L22.237,82.621L22.260,82.603L22.273,82.578L22.312,82.605L22.380,82.639L22.414,82.672L22.386,82.448L22.117,82.120L21.592,81.634L21.668,81.538L21.755,81.491L22.283,81.344L22.379,81.352L22.432,81.407L22.522,81.572L22.595,81.634L22.692,81.665L22.799,81.668L22.893,81.630L22.950,81.540L22.866,81.515L22.684,81.524L22.611,81.475L22.561,81.403L22.547,81.371L22.556,81.240L22.586,81.166L22.630,81.135L22.630,81.127L22.435,81.130L22.237,81.217L22.105,81.249L21.682,81.290L21.592,81.240L21.581,81.150L21.535,81.013L21.503,80.876L21.408,80.801L21.385,80.723L21.371,80.417L21.408,80.303L21.524,80.230L21.679,80.233L21.802,80.317L22.005,80.583L22.065,80.627L22.152,80.658L22.232,80.658L22.273,80.608L22.244,80.565L22.057,80.417L21.868,80.187L21.759,80.099L21.631,80.089L21.836,79.775L21.961,79.661L22.076,79.688L22.273,79.996L22.284,80.095L22.276,80.186L22.284,80.263L22.344,80.324L22.371,80.230L22.356,80.092L22.379,80.039L22.457,80.006L22.772,80.039L22.694,79.953L22.399,79.850L22.290,79.783L22.202,79.671L22.141,79.557L22.133,79.444L22.202,79.336L22.328,79.291L22.462,79.330L22.600,79.395L22.737,79.430L22.845,79.484L22.974,79.587L23.089,79.647L23.163,79.571L23.065,79.544L22.440,79.204L22.379,79.146L22.402,79.049L22.490,78.954L22.749,78.745L22.834,78.702L22.932,78.683L23.056,78.677L23.027,78.647L22.977,78.570L22.950,78.537L23.349,78.312L23.521,78.302L23.591,78.514L23.608,78.544L23.644,78.584L23.682,78.634L23.698,78.701L23.684,78.766L23.633,78.898L23.627,78.962L23.668,79.055L23.731,79.125L23.769,79.209L23.733,79.336L23.926,79.356L24.016,79.341L24.000,79.267L23.978,79.229L23.961,79.181L23.950,79.127L23.946,79.077L23.931,79.036L23.824,78.937L23.810,78.868L23.820,78.769L23.823,78.660L23.787,78.560L23.749,78.489L23.673,78.267L23.659,78.184L23.723,77.948L23.876,77.797L24.064,77.773L24.229,77.924L24.266,78.016L24.251,78.063L24.209,78.112L24.162,78.209L24.136,78.336L24.151,78.436L24.203,78.517L24.297,78.584L24.307,78.429L24.351,78.328L24.406,78.237L24.446,78.116L24.435,77.976L24.299,77.833L24.265,77.714L24.208,77.624L24.196,77.572L24.296,77.525L24.349,77.475L24.404,77.448L24.462,77.484L24.559,77.616L24.644,77.697L24.741,77.746L24.875,77.784L24.787,77.738L24.591,77.508L24.458,77.392L24.435,77.320L24.478,77.222L24.560,77.158L24.836,77.083L24.872,77.042L24.914,76.944L24.942,76.900L24.976,76.880L25.065,76.854L25.102,76.825L25.252,76.673L25.404,76.612L25.557,76.646L25.787,76.844L25.962,76.941L26.030,77.013L26.190,77.316L26.227,77.237L26.238,77.135L26.226,77.029L26.190,76.942L26.161,76.916L26.044,76.849L25.906,76.708L25.875,76.684L25.849,76.678L25.824,76.665L25.796,76.614L25.788,76.563L25.796,76.380L25.763,76.182L25.732,76.081L25.690,76.002L25.813,75.834L26.243,75.369L26.394,75.241L26.582,75.117L26.713,74.960L26.686,74.735L27.154,74.735L27.202,74.709L27.265,74.590L27.267,74.485L27.250,74.463L27.205,74.404L27.077,74.356L27.077,74.309L27.320,74.231L27.418,74.172L27.607,73.960L27.931,73.752L28.135,73.559L28.307,73.350L28.314,73.308L28.318,73.236L28.333,73.151L28.376,73.069L28.430,73.014L28.487,72.967L28.548,72.930L28.608,72.905L28.573,72.888L28.466,72.808L28.568,72.758L28.671,72.731L28.993,72.711L29.186,72.667L29.361,72.581L29.467,72.509L29.517,72.459L29.588,72.418L29.722,72.433L29.767,72.413L29.895,72.296L29.983,72.343L30.065,72.465L30.172,72.574L30.419,72.610L30.715,72.520L30.998,72.353L31.311,72.052L31.552,71.895L31.652,71.799L31.743,71.734L32.074,71.563L32.157,71.489L32.183,71.430L32.187,71.362L32.206,71.306L32.245,71.269L32.387,71.183L32.438,71.166L32.535,71.115L32.733,70.886L32.826,70.834L32.929,70.798L33.306,70.553L33.568,70.469L33.709,70.396L33.770,70.296L33.793,70.242L33.849,70.188L33.914,70.145L33.965,70.128L34.106,70.113L34.151,70.125L34.196,70.132L34.241,70.122L34.302,70.081L34.379,70.008L34.587,69.950L34.764,69.818L34.974,69.863L35.089,69.851L35.358,69.647L35.463,69.618L35.545,69.563L35.722,69.305L35.799,69.218L35.830,69.142L35.833,69.057L35.938,68.937L36.073,68.913L36.130,68.849L36.139,68.756L36.172,68.607L36.280,68.479L36.393,68.390L37.085,68.056L37.152,67.948L37.196,67.766L37.310,67.729L37.388,67.660L37.435,67.551L37.474,67.455L37.526,67.412L37.652,67.359L37.784,67.265L37.855,67.232L37.937,67.219L37.997,67.234L38.109,67.301L38.169,67.317L38.506,66.798L38.340,66.767L38.210,66.907L38.095,67.086L37.971,67.172L38.070,66.874L38.247,66.671L38.381,66.574L38.432,66.470L38.432,66.419L38.815,66.393L38.930,66.339L38.971,66.297L38.929,66.233L39.022,66.162L39.094,66.063L39.174,66.003L39.287,66.049L39.304,65.934L39.360,65.909L39.393,65.858L39.601,65.732L40.065,65.571L40.267,65.413L40.432,65.390L40.513,65.386L40.569,65.376L40.613,65.325L40.679,65.249L40.737,65.203L40.928,65.109L41.019,65.009L41.205,64.742L41.300,64.688L41.388,64.613L41.832,63.862L41.899,63.796L41.949,63.777L42.056,63.732L42.148,63.670L42.188,63.582L42.265,63.453L42.314,63.394L42.367,63.369L42.451,63.315L42.538,63.189L42.669,62.948L42.761,62.893L43.133,62.148L43.240,62.024L43.294,61.922L43.310,61.704L43.344,61.545L43.597,61.162L43.707,60.853L43.846,59.843L43.938,59.589L43.961,59.437L44.014,59.268L44.040,59.214L44.218,58.998L44.294,58.877L44.345,58.721L44.433,58.290L44.506,58.155L44.556,57.932L44.662,57.671L44.629,57.594L44.590,57.644L44.568,57.594L44.561,57.555L44.555,57.232L44.637,57.172L44.948,57.219L45.309,57.168L45.406,57.175L45.445,57.172L45.702,57.063L46.193,56.751L46.324,56.598L46.369,56.560L46.446,56.543L46.516,56.556L46.566,56.541L46.602,56.381L46.643,56.339L46.695,56.304L46.746,56.255L46.818,56.140L47.011,55.713L47.039,55.678L47.063,55.673L47.080,55.647L47.088,55.505L47.096,55.489L47.111,55.479L47.137,55.456L47.179,55.395L47.206,55.328L47.223,55.255L47.228,55.173L47.288,55.072L47.425,54.956L47.578,54.860L47.686,54.820L47.666,54.756L47.662,54.689L47.673,54.624L47.743,54.491L47.753,54.411L47.757,54.263L47.773,54.097L47.799,54.032L47.848,54.050L47.872,54.041L47.920,54.010L47.981,53.980L48.043,53.978L47.942,53.785L47.912,53.700L47.866,52.944L47.879,52.861L47.924,52.704L47.933,52.641L47.901,52.285L47.901,51.540L47.871,51.326L47.873,51.206L47.917,51.153L47.983,51.149L48.029,51.131L48.065,51.089L48.132,50.953L48.256,50.788L48.274,50.749L48.284,50.677L48.295,50.647L48.330,50.612L48.365,50.607L48.398,50.607L48.433,50.592L48.450,50.561L48.466,50.516L48.489,50.474L48.524,50.456L48.530,50.457L48.600,50.460L48.638,50.454L48.708,50.389L48.853,50.288L48.915,50.269L48.937,50.243L49.206,50.034L49.726,49.389L49.952,49.168L50.145,49.091L50.061,49.317L50.054,49.393L50.127,49.422L50.154,49.389L50.183,49.325L50.221,49.280L50.306,49.324L50.352,49.304L50.396,49.268L50.429,49.235L50.406,49.135L50.566,49.064L50.570,49.001L50.510,48.932L50.494,48.908L50.428,48.973L50.353,49.016L50.279,49.028L50.213,49.001L50.413,48.745L50.650,48.621L51.679,48.569L52.016,48.613L52.326,48.702L52.496,48.720L52.377,48.768L51.254,48.676L51.173,48.698L51.120,48.767L51.070,48.908L51.015,49.179L50.967,49.309L50.890,49.376L50.937,49.518L50.909,49.571L50.837,49.576L50.748,49.567L50.819,49.750L50.849,49.773L50.936,49.808L50.961,49.839L50.960,49.955L50.898,50.159L50.926,50.269L50.959,50.235L51.070,50.175L51.142,50.370L51.320,50.553L51.767,50.910L51.834,50.934L51.901,50.906L52.027,50.806L52.053,50.794L52.120,50.788L52.140,50.768L52.129,50.679L52.138,50.647L52.221,50.564L52.261,50.570L52.315,50.647L52.383,50.542L52.456,50.479L52.530,50.487L52.603,50.592L52.629,50.678L52.631,50.741L52.603,50.877L52.633,50.942L52.627,50.998L52.563,51.068L52.650,51.084L52.727,51.078L52.794,51.102L52.850,51.204L52.835,51.238L52.783,51.540L52.802,51.668L52.815,51.728L52.803,51.775L52.744,51.864L52.627,51.991L52.496,52.098L52.545,52.128L52.583,52.139L52.623,52.130L52.673,52.098L52.734,52.439L52.744,52.544L52.774,52.649L52.832,52.739L52.873,52.832L52.850,52.944L52.830,52.879L52.798,52.825L52.758,52.782L52.709,52.757L52.673,53.003L52.691,53.063L52.772,53.147L52.800,53.197L52.815,53.275L52.850,53.275L52.906,53.190L52.946,53.278L52.995,53.556L53.059,53.742L53.064,53.795L53.034,53.838L52.945,53.880L52.924,53.931L52.961,54.033L53.052,54.090L53.167,54.117L53.408,54.119L53.518,54.099L53.617,54.049L53.810,53.882L53.989,53.772L54.079,53.674L54.279,53.393L54.602,53.075L54.731,53.019L54.789,52.920L54.843,52.897L54.876,52.920L54.878,52.973L54.863,53.036L54.843,53.085L55.023,53.009L55.111,52.950L55.182,52.874L55.266,52.710L55.308,52.664L55.353,52.661L55.398,52.689L55.442,52.692L55.484,52.617L55.432,52.543L55.479,52.448L55.570,52.367L55.646,52.332L55.737,52.366L55.819,52.456L55.872,52.577L55.878,52.710L55.914,52.710L55.939,52.645L55.965,52.623L55.991,52.645L56.016,52.710L56.090,52.664L56.018,52.501L56.091,52.424L56.232,52.379L56.355,52.310L56.396,52.236L56.391,52.167L56.349,52.117L56.284,52.098L56.085,52.237L56.052,52.217L56.051,52.125L56.057,52.089L56.142,51.980L56.186,51.941L56.306,51.880L56.355,51.841L56.412,51.814L56.676,51.770L56.703,51.741L56.818,51.560L56.946,51.473L56.927,51.788L57.051,51.817L57.070,51.791L57.229,51.630L57.242,51.596L57.255,51.507L57.261,51.485L57.290,51.467L57.367,51.443L57.622,51.302L57.666,51.296L57.727,51.296L57.789,51.310L57.832,51.345L57.888,51.525L57.798,51.551L57.548,51.485L57.581,51.576L57.551,51.624L57.502,51.674L57.477,51.770L57.419,51.747L57.363,51.745L57.310,51.767L57.261,51.817L57.293,51.858L57.304,51.885L57.321,51.902L57.367,51.911L57.281,51.994L57.112,52.051L56.948,52.055L56.874,51.980L56.795,51.969L56.646,51.991L56.567,52.059L56.694,52.196L56.620,52.245L56.568,52.300L56.571,52.350L56.658,52.383L56.640,52.471L56.607,52.549L56.562,52.615L56.514,52.664L56.557,52.719L56.617,52.736L56.671,52.699L56.694,52.591L56.814,52.415L56.818,52.383L57.160,52.320L57.343,52.312L57.477,52.383L57.420,52.374L57.375,52.389L57.346,52.429L57.335,52.497L57.318,52.561L57.276,52.557L57.228,52.530L57.190,52.523L57.164,52.514L57.129,52.490L57.097,52.488L57.084,52.544L57.090,52.572L57.116,52.612L57.122,52.641L57.115,52.707L57.091,52.736L57.056,52.735L57.013,52.710L56.975,52.868L56.901,52.914L56.819,52.941L56.765,53.042L56.845,53.043L56.940,53.083L57.018,53.154L57.051,53.250L57.040,53.321L56.989,53.474L56.977,53.556L56.913,53.636L56.765,53.712L56.481,53.795L56.498,53.873L56.534,53.927L56.580,53.960L56.623,53.978L57.172,53.656L57.367,53.603L57.367,53.556L57.291,53.532L57.221,53.534L57.163,53.523L57.122,53.463L57.340,53.435L57.450,53.438L57.530,53.486L57.612,53.517L57.738,53.502L57.863,53.462L57.944,53.417L57.912,53.396L57.832,53.318L58.140,53.348L58.289,53.307L58.403,53.183L57.817,53.197L57.728,53.225L57.715,53.247L57.715,53.278L57.704,53.307L57.656,53.318L57.622,53.317L57.598,53.312L57.576,53.299L57.548,53.275L57.584,53.183L57.305,53.301L57.168,53.294L57.122,53.085L57.149,52.976L57.203,52.912L57.269,52.866L57.335,52.808L57.346,52.765L57.335,52.717L57.332,52.680L57.371,52.664L57.417,52.658L57.442,52.636L57.450,52.593L57.441,52.523L57.622,52.565L57.567,52.674L57.554,52.780L57.584,52.991L57.675,52.825L57.720,52.694L57.787,52.618L57.944,52.617L57.857,52.482L57.833,52.415L57.922,52.276L57.925,52.175L57.882,52.099L57.797,52.098L57.763,52.165L57.741,52.272L57.708,52.344L57.640,52.310L57.480,52.136L57.441,52.055L57.622,52.055L57.580,51.967L57.574,51.899L57.609,51.872L57.690,51.911L57.699,51.767L57.789,51.806L57.977,52.004L58.087,52.079L58.196,52.112L58.295,52.079L58.373,51.957L58.462,52.045L58.548,52.007L58.599,51.898L58.579,51.770L58.658,51.796L58.740,51.875L58.805,51.978L58.831,52.076L58.831,52.157L58.825,52.206L58.799,52.231L58.689,52.249L58.664,52.278L58.666,52.323L58.689,52.383L58.783,52.465L58.884,52.428L58.971,52.339L59.080,52.196L59.289,51.985L59.363,51.957L59.403,52.045L59.362,52.163L59.096,52.591L59.065,52.658L59.060,52.791L59.044,52.850L59.027,52.834L58.954,52.875L58.890,52.927L58.902,52.944L58.882,52.962L58.833,52.991L58.783,52.990L58.760,52.921L58.760,52.641L58.744,52.608L58.709,52.658L58.672,52.741L58.654,52.808L58.576,52.775L58.574,52.832L58.613,52.922L58.654,52.991L58.763,53.110L58.799,53.171L58.831,53.275L58.808,53.287L58.742,53.310L58.725,53.318L58.723,53.304L58.618,53.369L58.577,53.414L58.549,53.458L58.512,53.495L58.439,53.510L58.167,53.511L58.028,53.551L57.944,53.650L57.882,53.607L57.819,53.597L57.765,53.626L57.728,53.697L57.648,53.665L57.552,53.690L57.459,53.749L57.387,53.816L57.370,53.897L57.493,53.893L57.638,53.852L57.693,53.816L57.807,53.854L57.884,53.823L57.955,53.759L58.048,53.697L58.107,53.693L58.163,53.710L58.219,53.715L58.321,53.647L58.429,53.622L58.477,53.603L58.531,53.669L58.602,53.730L58.677,53.777L58.743,53.795L58.807,53.779L58.882,53.712L58.936,53.697L59.075,53.679L59.184,53.628L59.399,53.463L59.334,53.635L59.253,53.795L59.214,53.843L59.111,53.938L59.060,54.003L59.034,54.070L59.016,54.137L58.981,54.191L58.819,54.234L58.695,54.334L58.618,54.356L58.644,54.288L58.733,54.139L58.743,54.097L58.691,54.080L58.583,54.188L58.512,54.170L58.548,54.071L58.398,54.174L58.298,54.345L58.216,54.542L58.119,54.726L57.995,54.890L57.970,54.975L57.977,55.105L58.033,55.313L58.043,55.412L58.009,55.526L58.106,55.547L58.168,55.631L58.191,55.721L58.174,55.764L58.193,55.791L58.249,55.827L58.306,55.808L58.332,55.670L58.305,55.639L58.257,55.499L58.243,55.393L58.316,55.456L58.602,55.943L58.611,56.041L58.637,56.128L58.658,56.197L58.689,56.325L58.694,56.398L58.803,56.774L58.831,56.819L58.880,56.938L58.996,57.006L59.127,57.022L59.225,56.985L59.195,57.152L58.825,57.852L58.735,57.984L58.131,58.622L57.728,59.047L57.578,59.294L57.507,59.451L57.477,59.591L57.480,59.799L57.469,59.922L57.419,59.985L57.388,60.054L57.349,60.142L57.339,60.174L57.240,60.304L57.140,60.484L57.039,60.582L56.805,60.731L56.694,60.834L56.533,61.094L56.502,61.117L56.467,61.124L56.393,61.120L56.341,61.241L56.320,61.281L56.261,61.334L56.206,61.372L56.167,61.428L56.159,61.540L56.179,61.603L56.268,61.710L56.303,61.774L56.269,61.826L56.230,61.873L56.123,61.732L56.064,61.694L55.985,61.681L55.918,61.703L55.806,61.800L55.752,61.821L55.687,61.873L55.414,62.199L55.311,62.462L55.230,62.763L55.107,63.015L54.878,63.131L54.878,63.182L54.914,63.185L54.939,63.198L54.960,63.213L54.988,63.229L54.585,64.079L54.528,64.318L54.449,64.464L54.350,64.586L54.188,64.668L54.178,64.738L54.202,64.871L54.200,64.948L54.207,64.986L54.203,65.025L54.166,65.109L54.117,65.169L54.071,65.192L54.037,65.227L54.024,65.322L54.005,65.370L53.957,65.417L53.730,65.554L53.673,65.574L53.526,65.596L53.311,65.704L53.281,65.772L53.262,65.849L53.240,65.909L53.196,65.955L52.945,66.146L52.244,66.313L52.071,66.391L51.930,66.563L51.532,66.845L51.457,66.979L51.339,67.264L51.216,67.449L51.190,67.505L51.207,67.603ZM63.777,22.796L63.891,22.728L63.919,22.748L63.973,22.821L64.019,22.915L63.979,22.950L63.905,22.972L63.848,23.030L63.842,23.097L63.882,23.236L63.887,23.303L63.874,23.354L63.850,23.370L63.783,23.361L63.742,23.363L63.637,23.403L63.529,23.418L63.418,23.400L63.207,23.315L63.245,23.263L63.131,23.149L63.078,23.137L63.013,23.197L62.962,23.218L62.942,23.136L62.952,23.019L62.997,22.935L63.036,22.942L63.298,22.935L63.355,22.973L63.397,23.042L63.452,23.075L63.548,23.008L63.777,22.796ZM67.305,22.001L67.272,22.015L67.239,22.025L67.206,22.028L67.172,22.026L67.150,22.024L67.108,22.011L67.044,21.978L67.031,21.954L67.038,21.928L67.053,21.898L67.060,21.879L67.064,21.858L67.062,21.834L67.053,21.809L67.020,21.782L66.977,21.770L66.937,21.743L66.911,21.668L67.053,21.621L67.087,21.676L67.144,21.856L67.201,21.863L67.245,21.887L67.279,21.933L67.305,22.001ZM62.139,20.401L62.208,20.353L62.290,20.388L62.359,20.469L62.388,20.562L62.423,20.728L62.413,20.795L62.335,20.823L62.149,20.817L62.099,20.791L62.175,20.729L62.177,20.653L62.126,20.484L62.139,20.401ZM63.600,18.923L63.622,18.966L63.668,19.023L63.706,19.093L63.706,19.180L63.660,19.238L63.581,19.270L63.493,19.281L63.423,19.278L63.321,19.126L63.397,18.996L63.529,18.918L63.600,18.923ZM65.698,19.652L65.799,19.802L65.841,19.840L65.739,20.070L65.690,20.121L65.617,20.130L65.577,20.079L65.560,19.996L65.557,19.910L65.527,19.836L65.459,19.860L65.382,19.908L65.326,19.910L65.299,19.839L65.287,19.666L65.270,19.605L65.229,19.572L65.185,19.574L65.060,19.605L65.078,19.545L65.076,19.503L65.058,19.465L65.021,19.414L64.901,19.458L64.753,19.389L64.635,19.250L64.600,19.087L64.734,19.260L64.773,19.278L64.821,19.222L64.821,19.136L64.810,19.044L64.827,18.970L64.871,18.851L64.799,18.792L64.695,18.735L64.635,18.619L64.790,18.621L64.858,18.594L64.915,18.525L64.813,18.411L64.793,18.274L64.852,18.168L64.986,18.147L65.038,18.168L65.084,18.210L65.118,18.274L65.131,18.360L65.154,18.401L65.308,18.525L65.207,18.578L65.218,18.657L65.292,18.739L65.429,18.829L65.561,18.889L65.612,18.899L65.658,18.926L65.632,18.986L65.584,19.057L65.557,19.112L65.538,19.216L65.510,19.290L65.508,19.371L65.575,19.488L65.597,19.513L65.624,19.535L65.653,19.549L65.683,19.555L65.700,19.566L65.700,19.594L65.694,19.626L65.698,19.652ZM48.076,5.003L48.102,5.001L48.134,5.001L48.141,5.026L48.122,5.053L48.075,5.056L48.077,5.079L48.091,5.121L48.088,5.142L48.106,5.155L48.090,5.160L48.070,5.170L48.033,5.171L48.001,5.149L47.981,5.118L47.951,5.084L47.922,5.056L47.914,5.015L47.922,5.000L47.941,5.006L47.970,5.021L48.039,5.033L48.064,5.017L48.076,5.003ZM73.050,42.439L73.086,42.555L73.120,42.553L73.151,42.592L73.236,42.638L73.371,42.744L73.408,42.780L73.476,42.824L73.566,42.827L73.743,42.804L73.908,42.848L73.889,42.942L73.798,43.078L73.743,43.246L73.719,43.299L73.663,43.352L73.599,43.392L73.479,43.440L73.439,43.516L73.321,43.973L73.321,43.999L73.327,44.032L73.330,44.072L73.321,44.118L73.301,44.133L73.220,44.167L73.193,44.186L73.123,44.320L72.951,44.924L72.839,45.201L72.768,45.316L72.745,45.380L72.741,45.470L72.750,45.643L72.747,45.689L72.737,45.721L72.670,45.825L72.655,45.857L72.573,46.092L72.445,46.347L72.236,46.655L72.010,46.868L71.966,46.888L71.917,46.863L71.873,46.809L71.825,46.778L71.769,46.819L71.638,47.010L71.592,47.124L71.573,47.261L71.608,47.201L71.649,47.154L71.696,47.125L71.751,47.117L71.417,47.807L71.360,48.295L71.271,48.449L71.145,48.457L71.014,48.426L70.914,48.459L70.612,48.955L70.303,49.267L70.258,49.354L70.249,49.423L70.228,49.503L70.200,49.578L70.096,49.775L70.061,49.800L69.977,49.811L69.939,49.839L69.903,49.901L69.705,50.415L69.585,50.612L69.403,51.068L69.320,51.392L69.241,51.524L68.984,51.631L68.874,51.755L68.784,51.912L68.726,52.055L68.560,52.680L68.450,52.939L67.923,53.674L67.131,54.324L66.939,54.527L66.679,54.714L66.375,54.870L65.231,55.763L64.875,55.904L64.789,55.967L64.617,56.160L64.533,56.194L64.135,56.232L64.053,56.187L64.005,55.972L63.922,55.904L63.950,55.802L63.926,55.726L63.882,55.657L63.848,55.573L63.843,55.476L63.927,54.966L63.902,54.893L63.846,54.845L63.225,54.606L63.084,54.590L62.951,54.624L62.832,54.708L62.577,54.983L62.527,55.021L62.471,55.030L62.388,55.011L62.273,54.927L62.203,54.856L62.193,54.799L62.261,54.669L62.251,54.555L62.217,54.430L62.210,54.263L62.250,54.118L62.364,53.849L62.388,53.674L62.328,53.520L62.191,53.480L62.038,53.506L61.930,53.556L61.848,53.622L61.787,53.690L61.743,53.774L61.714,53.884L61.957,53.946L62.030,54.013L61.997,54.170L61.963,54.224L61.915,54.268L61.859,54.280L61.801,54.237L61.746,54.217L61.687,54.263L61.622,54.324L61.554,54.356L61.316,54.308L61.063,54.177L60.872,53.981L60.823,53.744L60.883,53.608L60.978,53.556L61.214,53.510L61.300,53.434L61.500,53.188L61.632,53.069L61.759,52.777L61.838,52.710L61.950,52.661L62.018,52.581L62.071,52.578L62.139,52.757L62.205,52.695L62.233,52.634L62.231,52.564L62.210,52.472L62.182,52.454L62.119,52.371L62.080,52.281L62.122,52.238L62.181,52.209L62.272,52.084L62.335,52.055L62.394,52.036L62.460,51.989L62.520,51.927L62.565,51.864L62.604,51.780L62.619,51.712L62.636,51.540L62.745,51.228L62.793,51.124L63.100,50.788L63.391,50.297L63.635,49.750L63.776,49.282L63.831,49.165L63.875,49.026L63.894,48.639L63.922,48.482L63.925,48.447L63.920,48.402L63.921,48.362L63.938,48.346L63.976,48.345L64.025,48.337L64.058,48.315L64.025,48.208L64.009,48.104L64.003,48.002L64.011,47.944L64.056,47.824L64.121,47.431L64.142,47.159L64.133,47.087L64.103,47.028L64.021,46.867L63.954,46.419L63.856,46.050L63.788,45.868L63.706,45.713L63.311,45.297L63.207,45.105L62.732,44.556L62.369,44.324L62.080,44.186L61.946,44.161L61.719,44.163L61.525,44.165L61.107,44.007L60.789,43.973L60.655,43.941L60.531,43.858L59.978,43.325L59.879,43.199L59.576,42.710L59.364,42.482L59.104,42.331L58.824,42.240L57.939,42.096L57.637,41.991L56.934,41.455L56.744,41.245L56.587,40.970L56.488,40.653L56.457,40.341L56.483,40.026L56.552,39.699L56.705,39.393L56.942,39.197L57.477,38.950L58.806,38.093L58.920,38.057L59.612,38.109L59.863,38.022L60.091,37.846L60.714,37.175L60.792,37.032L60.835,36.781L60.883,36.620L60.894,36.530L60.894,36.319L60.915,36.270L60.925,36.247L61.004,36.224L60.970,36.102L60.985,35.998L61.018,35.897L61.036,35.777L61.050,34.594L61.093,34.338L61.276,33.905L61.342,33.664L61.381,33.400L61.408,32.996L61.459,32.752L61.465,32.608L61.439,32.485L61.396,32.361L61.369,32.243L61.394,32.140L61.476,32.187L61.573,32.196L61.670,32.177L61.752,32.140L61.759,32.217L61.786,32.283L61.822,32.336L61.855,32.375L61.888,32.375L61.888,32.277L61.967,32.339L62.031,32.428L62.105,32.476L62.210,32.421L62.171,32.391L62.065,32.277L62.202,32.224L62.363,32.245L62.509,32.234L62.603,32.090L62.506,32.089L62.465,32.103L62.426,32.140L62.388,32.090L62.403,31.954L62.299,31.852L62.153,31.805L62.048,31.835L62.010,31.913L61.990,31.981L61.955,32.029L61.872,32.047L61.821,32.003L61.815,31.904L61.832,31.794L61.855,31.719L61.902,31.647L61.947,31.624L61.998,31.615L62.065,31.584L62.228,31.392L62.314,31.328L62.320,31.196L62.258,31.079L62.139,31.065L62.053,31.183L62.009,31.344L61.944,31.431L61.801,31.322L61.782,31.196L61.820,30.545L61.960,30.223L62.206,30.128L62.501,30.126L62.781,30.078L62.761,30.019L62.729,29.977L62.687,29.949L62.636,29.938L62.708,29.881L62.764,29.803L62.782,29.709L62.745,29.605L62.529,29.746L62.504,29.777L62.485,29.855L62.459,29.886L62.438,29.880L62.408,29.858L62.371,29.844L62.213,29.921L62.124,29.812L61.792,28.466L61.491,27.707L61.435,27.392L61.436,27.319L61.483,27.236L61.542,27.198L61.694,27.158L61.752,27.117L61.809,26.989L61.855,26.832L61.923,26.700L62.048,26.645L62.059,26.619L62.034,26.569L61.980,26.541L61.908,26.579L61.858,26.625L61.756,26.693L61.714,26.739L61.565,27.019L61.491,27.057L61.376,26.953L61.300,26.827L61.090,26.301L61.036,26.083L60.914,25.838L60.894,25.777L60.863,25.631L60.643,25.190L60.607,25.000L60.692,24.991L60.838,25.028L61.046,24.961L61.122,24.989L61.173,25.046L61.162,25.118L61.112,25.193L61.104,25.234L61.365,25.776L61.386,25.997L61.461,26.169L61.551,26.245L61.607,26.083L61.543,25.907L61.529,25.800L61.589,25.752L61.743,25.783L61.811,25.775L61.888,25.709L61.784,25.714L61.522,25.662L61.430,25.616L61.507,25.575L61.789,25.314L61.825,25.331L61.820,25.479L62.035,25.205L62.153,25.106L62.281,25.093L62.479,25.336L62.547,25.377L62.620,25.345L62.633,25.267L62.608,25.173L62.565,25.093L62.574,25.019L62.309,24.906L62.210,24.816L62.129,24.847L62.080,24.759L62.044,24.628L61.997,24.527L61.864,24.695L61.789,24.628L61.779,24.476L61.838,24.390L61.898,24.372L61.961,24.322L62.012,24.253L62.033,24.178L61.698,24.114L61.347,24.133L61.173,24.187L61.036,24.297L60.992,24.382L60.959,24.548L60.933,24.625L60.883,24.695L60.841,24.698L60.718,24.578L60.645,24.698L60.533,24.804L60.411,24.849L60.306,24.790L60.247,24.670L60.036,23.888L59.922,23.243L59.824,22.935L59.555,22.413L58.839,21.452L58.686,21.137L58.654,20.823L58.668,20.744L58.690,20.682L58.730,20.643L58.796,20.635L58.739,20.822L58.733,20.915L58.760,21.014L58.845,20.831L58.895,20.758L58.970,20.729L59.043,20.780L59.121,21.005L59.225,21.108L59.342,21.335L59.416,21.388L59.504,21.414L59.554,21.478L59.549,21.555L59.470,21.621L59.679,21.705L59.735,21.715L59.741,21.731L59.689,21.766L59.612,21.799L59.541,21.809L59.590,21.851L59.610,21.906L59.604,21.971L59.576,22.043L59.638,22.049L59.687,22.066L59.792,22.141L59.789,22.093L59.794,21.996L59.792,21.949L59.843,22.045L59.896,22.201L59.948,22.278L60.002,22.141L60.057,22.147L60.078,22.070L60.089,21.958L60.111,21.856L60.145,21.810L60.228,21.734L60.256,21.668L60.175,21.700L60.147,21.715L60.102,21.581L60.151,21.275L60.111,21.197L60.065,21.299L60.044,21.248L60.043,20.891L60.040,20.869L60.060,20.833L60.147,20.729L60.106,20.654L60.044,20.580L60.000,20.503L60.021,20.425L60.136,20.314L60.127,20.275L59.964,20.166L59.930,20.169L59.843,20.286L59.779,20.352L59.733,20.382L59.427,20.407L59.263,20.367L59.149,20.251L59.115,20.031L59.186,20.074L59.225,19.910L59.282,19.894L59.353,19.945L59.434,19.980L59.655,19.963L59.760,19.928L59.843,19.863L59.926,19.773L59.992,19.726L60.147,19.652L60.288,19.512L60.340,19.488L60.384,19.485L60.416,19.461L60.434,19.372L60.403,19.341L60.390,19.334L60.382,19.323L60.363,19.278L60.308,19.339L60.240,19.382L60.167,19.406L60.147,19.409L60.094,19.414L60.043,19.441L59.920,19.566L59.863,19.605L59.822,19.526L59.737,19.585L59.635,19.690L59.541,19.746L59.410,19.719L59.335,19.689L59.292,19.652L59.266,19.530L59.318,19.502L59.470,19.555L59.557,19.642L59.595,19.649L59.623,19.475L59.703,19.255L59.824,19.087L59.856,19.012L59.866,18.962L59.872,18.903L59.896,18.802L59.982,18.846L60.047,18.836L60.062,18.774L60.002,18.665L59.950,18.628L59.753,18.568L59.778,18.778L59.709,19.010L59.583,19.199L59.434,19.278L59.514,19.164L59.541,19.138L59.482,19.115L59.425,19.126L59.381,19.124L59.363,19.063L59.349,18.956L59.316,18.936L59.271,18.950L59.225,18.946L59.168,18.923L59.135,18.926L59.119,18.902L59.115,18.806L59.121,18.729L59.139,18.659L59.186,18.525L59.103,18.531L59.047,18.575L58.938,18.712L58.960,18.522L58.881,18.518L58.654,18.712L58.709,18.768L58.709,18.917L58.779,18.946L58.872,18.947L58.938,18.959L58.990,19.000L59.044,19.087L59.011,19.184L59.011,19.250L59.060,19.278L59.099,19.264L59.125,19.231L59.167,19.160L59.214,19.160L59.271,19.221L59.363,19.372L59.176,19.425L59.147,19.440L59.135,19.506L59.104,19.542L59.061,19.555L59.009,19.555L58.968,19.530L58.900,19.435L58.849,19.414L58.792,19.405L58.758,19.381L58.634,19.184L58.588,19.084L58.530,18.986L58.441,18.899L58.345,18.878L58.098,18.869L58.048,18.827L58.015,18.763L57.938,18.676L57.848,18.601L57.779,18.568L57.697,18.515L57.661,18.389L57.657,18.123L57.624,18.019L57.475,17.852L57.415,17.647L57.351,17.567L57.190,17.441L57.381,17.250L57.430,17.144L57.406,16.973L57.376,16.927L57.321,16.867L57.265,16.824L57.229,16.828L57.218,16.919L57.256,16.985L57.307,17.033L57.335,17.066L57.304,17.216L57.106,17.330L57.084,17.441L57.351,17.841L57.387,17.912L57.495,17.983L57.540,18.143L57.562,18.324L57.603,18.451L57.640,18.511L57.704,18.662L57.745,18.735L57.794,18.774L57.860,18.806L57.919,18.850L57.964,18.983L58.010,19.030L58.063,19.072L58.103,19.112L58.388,19.580L58.453,19.622L58.533,19.609L58.607,19.613L58.654,19.699L58.548,19.751L58.598,19.834L58.703,19.950L58.760,20.099L58.718,20.243L58.615,20.335L58.373,20.448L58.122,20.455L57.997,20.215L57.832,19.555L57.157,18.568L56.971,18.167L55.799,16.473L54.628,14.779L54.595,14.650L54.633,14.540L54.804,14.292L54.843,14.178L54.854,14.024L54.891,13.865L54.958,13.776L55.059,13.830L55.088,13.762L55.095,13.731L55.146,13.793L55.195,13.870L55.251,13.937L55.325,13.966L55.337,13.917L55.327,13.679L55.343,13.591L55.484,13.830L55.514,13.712L55.517,13.577L55.540,13.449L55.630,13.353L55.679,13.351L55.708,13.385L55.740,13.401L55.806,13.353L55.828,13.308L55.860,13.164L55.945,13.009L55.755,13.071L55.697,13.051L55.698,12.970L55.692,12.919L55.668,12.893L55.610,12.885L55.592,12.922L55.591,13.170L55.533,13.068L55.449,12.745L55.357,12.848L55.379,12.974L55.445,13.102L55.484,13.213L55.455,13.335L55.371,13.395L55.270,13.393L55.136,13.300L55.084,13.293L55.056,13.318L55.105,13.453L55.072,13.485L55.014,13.501L54.969,13.522L54.921,13.552L54.887,13.529L54.826,13.425L54.786,13.424L54.728,13.458L54.627,13.545L54.672,13.642L54.638,13.688L54.573,13.720L54.524,13.778L54.523,13.818L54.535,13.854L54.550,13.874L54.559,13.872L54.542,14.381L54.524,14.437L54.476,14.449L54.434,14.404L53.989,13.731L53.926,13.546L53.953,13.432L54.131,13.213L54.095,13.215L54.024,13.209L53.989,13.213L54.092,13.084L54.136,13.013L54.166,12.936L54.008,12.963L53.913,13.071L53.855,13.227L53.808,13.405L53.752,13.353L53.589,13.149L53.560,13.077L53.602,13.020L53.786,12.873L53.847,12.792L53.770,12.765L53.621,12.860L53.524,12.885L53.434,12.855L53.363,12.787L53.240,12.609L53.033,12.372L52.995,12.281L53.007,12.148L53.081,12.110L53.183,12.134L53.276,12.187L53.444,11.933L53.543,11.612L53.562,11.260L53.492,10.916L53.327,10.487L53.258,10.374L52.945,10.028L52.850,9.882L52.689,9.434L52.622,9.363L52.529,9.310L51.470,7.787L51.260,7.590L50.819,7.300L50.873,7.245L50.907,7.194L50.961,7.067L50.951,7.011L50.944,6.902L50.969,6.833L51.053,6.899L51.171,6.967L51.475,6.981L51.606,7.067L51.672,6.991L51.834,6.951L51.991,6.837L52.582,6.894L52.673,6.875L52.731,6.822L52.784,6.754L52.843,6.736L52.924,6.833L52.775,6.937L52.734,7.074L52.744,7.441L52.731,7.532L52.710,7.589L52.666,7.620L52.583,7.628L52.557,7.590L52.537,7.509L52.499,7.427L52.425,7.394L52.435,7.362L52.450,7.282L52.460,7.249L52.357,7.209L52.318,7.222L52.279,7.394L52.261,7.544L52.223,7.588L52.138,7.530L52.133,7.599L52.113,7.653L52.080,7.693L52.032,7.722L52.083,7.784L52.247,7.917L52.262,7.841L52.288,7.777L52.327,7.734L52.387,7.722L52.359,7.824L52.341,7.871L52.315,7.917L52.372,7.958L52.425,7.963L52.468,7.931L52.496,7.861L52.524,7.943L52.534,8.031L52.532,8.426L52.551,8.474L52.603,8.428L52.661,8.267L52.674,8.065L52.643,7.868L52.563,7.722L52.698,7.797L52.776,8.132L52.828,8.533L52.885,8.801L53.054,9.012L53.268,9.218L53.443,9.450L53.492,9.738L53.240,9.410L53.131,9.316L53.152,9.560L53.369,9.801L54.061,10.244L54.046,10.323L53.935,10.469L53.903,10.527L53.886,10.596L53.883,10.879L53.897,10.917L53.931,10.912L53.989,10.916L54.160,10.970L54.202,10.966L54.242,10.906L54.259,10.825L54.286,10.755L54.361,10.725L54.427,10.640L54.415,10.447L54.343,10.116L54.372,9.965L54.469,9.918L54.597,9.893L54.719,9.812L54.755,9.721L54.743,9.640L54.719,9.574L54.719,9.530L54.776,9.470L54.819,9.468L54.853,9.516L54.878,9.601L54.883,9.663L54.876,9.725L54.843,9.835L55.001,9.750L55.059,9.738L55.032,9.808L55.048,9.864L55.126,9.972L54.914,10.069L54.696,10.069L54.647,10.093L54.611,10.202L54.637,10.332L54.689,10.453L54.737,10.541L54.808,10.645L54.895,10.736L54.997,10.799L55.111,10.822L55.363,10.790L55.462,10.827L55.559,10.966L55.618,10.855L55.630,10.822L55.573,10.745L55.506,10.678L55.456,10.598L55.449,10.491L55.499,10.372L55.568,10.367L55.639,10.438L55.697,10.541L55.759,10.472L55.830,10.462L55.889,10.497L55.944,10.649L56.019,10.681L56.176,10.682L56.194,10.667L56.206,10.635L56.227,10.603L56.266,10.588L56.317,10.604L56.326,10.641L56.323,10.686L56.336,10.725L56.364,10.769L56.379,10.817L56.399,10.855L56.444,10.869L56.484,10.873L56.519,10.884L56.587,10.916L56.520,10.954L56.489,11.016L56.470,11.086L56.443,11.150L56.326,11.245L56.276,11.304L56.284,11.362L56.462,11.529L56.570,11.520L56.594,11.493L56.584,11.448L56.587,11.384L56.694,11.150L56.698,11.108L56.686,11.007L56.694,10.966L56.730,10.931L56.818,10.916L56.911,10.863L56.989,10.857L57.140,10.869L57.126,10.906L57.171,10.986L57.260,11.102L57.469,11.275L57.551,11.384L57.584,11.552L57.655,11.678L57.819,11.706L58.119,11.669L58.243,11.705L58.371,11.800L58.471,11.941L58.512,12.114L58.296,12.187L58.237,12.162L58.221,12.100L58.216,12.023L58.193,11.953L58.167,11.963L58.124,11.998L58.071,11.997L58.009,11.903L57.883,11.978L57.830,12.023L57.879,12.067L57.977,12.231L57.801,12.255L57.785,12.351L57.865,12.421L57.977,12.371L58.028,12.413L58.084,12.428L58.141,12.413L58.193,12.371L58.256,12.478L58.246,12.571L58.208,12.658L58.193,12.745L58.226,12.831L58.421,13.051L58.449,13.111L58.465,13.194L58.477,13.378L58.492,13.398L58.527,13.324L58.563,13.214L58.579,13.119L58.682,13.182L58.737,13.205L58.796,13.213L58.785,13.183L58.770,13.107L58.760,13.077L58.836,13.071L58.880,13.106L58.912,13.149L58.954,13.170L59.001,13.141L59.014,13.074L58.996,13.009L58.954,12.980L58.838,12.966L58.689,12.924L58.562,12.852L58.512,12.745L58.548,12.792L58.620,12.713L58.744,12.705L59.009,12.745L58.983,12.676L58.970,12.652L59.024,12.645L59.094,12.656L59.146,12.676L59.147,12.699L59.205,12.662L59.213,12.638L59.212,12.605L59.239,12.539L59.381,12.373L59.541,12.231L59.581,12.400L59.537,12.539L59.466,12.678L59.434,12.838L59.474,13.001L59.562,13.071L59.675,13.084L59.792,13.077L59.792,13.119L59.742,13.216L59.901,13.425L59.824,13.498L59.793,13.476L59.647,13.311L59.484,13.174L59.434,13.119L59.520,13.271L59.711,13.733L59.827,13.830L59.934,13.843L60.040,13.872L60.036,13.862L60.042,13.843L60.055,13.827L60.076,13.830L60.097,13.853L60.115,13.911L60.129,13.923L60.173,13.974L60.295,14.215L60.324,14.298L60.119,14.329L60.143,14.412L60.414,14.650L60.665,14.937L60.711,15.099L60.643,15.331L60.564,15.283L60.331,15.242L60.237,15.237L60.182,15.272L60.269,15.351L60.465,15.467L60.438,15.476L60.363,15.518L60.496,15.552L60.550,15.578L60.572,15.637L60.554,15.708L60.508,15.757L60.451,15.787L60.395,15.804L60.700,16.006L60.753,16.079L60.757,16.164L60.723,16.328L60.735,16.390L60.859,16.645L60.716,16.686L60.610,16.614L60.511,16.500L60.395,16.416L60.431,16.288L60.282,16.241L60.288,16.131L60.210,16.137L60.077,16.199L60.002,16.220L59.965,16.209L59.912,16.146L59.879,16.131L59.843,16.152L59.816,16.249L59.792,16.271L59.709,16.274L59.699,16.261L59.716,16.204L59.717,16.079L59.701,15.982L59.675,15.900L59.634,15.824L59.576,15.752L59.552,15.903L59.577,16.274L59.559,16.390L59.531,16.460L59.525,16.550L59.539,16.634L59.576,16.688L59.656,16.702L59.702,16.644L59.734,16.555L59.773,16.480L59.867,16.462L60.212,16.510L60.324,16.552L60.409,16.671L60.388,16.806L60.299,16.943L60.182,17.066L60.268,17.164L60.286,17.332L60.280,17.507L60.288,17.632L60.352,17.718L60.584,17.903L60.682,17.959L60.746,17.972L60.877,17.972L60.933,18.007L60.984,18.095L60.978,18.158L60.948,18.217L60.933,18.291L60.959,18.453L61.014,18.536L61.091,18.602L61.182,18.712L61.473,19.194L61.639,19.395L61.855,19.555L61.990,19.615L61.993,19.654L61.962,19.746L61.965,19.764L61.982,19.773L61.993,19.786L61.979,19.816L61.961,19.827L61.944,19.820L61.932,19.805L61.930,19.793L61.902,19.816L61.882,19.805L61.867,19.811L61.855,19.887L61.896,20.012L62.012,20.062L62.157,20.083L62.281,20.125L62.124,20.154L61.695,20.129L61.607,20.146L61.620,20.241L61.692,20.524L61.776,20.706L61.786,20.823L61.774,20.947L61.752,21.056L61.647,20.731L61.565,20.595L61.430,20.537L61.524,20.840L61.512,20.956L61.394,20.962L61.394,21.014L61.445,21.031L61.490,21.060L61.532,21.099L61.572,21.150L61.534,21.221L61.425,21.294L61.394,21.342L61.393,21.432L61.450,21.553L61.465,21.645L61.462,21.785L61.487,21.804L61.554,21.879L61.605,21.917L61.678,21.938L61.820,21.949L62.042,21.857L62.104,21.856L62.158,21.904L62.134,21.941L61.894,22.089L61.767,22.141L61.683,22.132L61.465,22.043L61.572,22.162L61.651,22.331L61.962,23.361L61.849,23.327L61.782,23.263L61.708,23.236L61.572,23.315L61.528,23.280L61.509,23.238L61.512,23.186L61.536,23.127L61.435,23.103L61.362,22.915L61.287,22.915L61.102,23.015L61.020,23.074L60.933,23.174L60.933,23.221L60.978,23.226L61.161,23.196L61.253,23.221L61.205,23.271L61.130,23.323L61.080,23.377L61.107,23.432L61.190,23.485L61.215,23.510L61.211,23.550L61.217,23.842L61.240,23.935L61.304,23.974L61.347,23.939L61.353,23.855L61.349,23.761L61.359,23.688L61.394,23.741L61.438,23.663L61.485,23.597L61.541,23.544L61.607,23.506L61.688,23.492L61.930,23.549L62.256,23.549L62.369,23.627L62.352,23.834L62.299,23.917L62.248,23.961L62.222,24.022L62.246,24.153L62.275,24.241L62.303,24.289L62.338,24.280L62.388,24.204L62.529,23.455L62.565,23.455L62.678,23.779L62.719,23.935L62.710,24.114L62.828,24.081L62.961,24.075L63.026,24.024L62.941,23.857L62.920,23.743L63.042,23.711L63.207,23.731L63.316,23.779L63.378,23.935L63.320,24.248L63.387,24.367L63.467,24.390L63.530,24.363L63.589,24.320L63.676,24.289L63.798,24.199L63.830,24.213L63.858,24.240L63.883,24.250L64.053,24.164L64.100,24.153L64.153,24.175L64.265,24.274L64.332,24.297L64.374,24.324L64.559,24.567L64.595,24.635L64.621,24.715L64.635,24.816L64.630,24.974L64.564,25.452L64.588,25.609L64.648,25.757L64.728,25.887L64.809,25.990L64.996,26.104L65.228,26.111L65.465,26.047L65.666,25.943L65.708,25.899L65.724,25.853L65.752,25.817L65.825,25.803L65.867,25.834L65.883,25.907L65.879,26.060L65.907,26.196L65.976,26.278L66.068,26.294L66.163,26.228L66.082,26.204L66.027,26.132L65.996,26.030L65.974,25.813L65.926,25.630L65.915,25.543L65.825,25.337L65.808,25.237L65.814,24.876L65.789,24.790L65.766,24.735L65.643,24.313L65.607,24.233L65.557,24.153L65.494,24.086L65.363,23.985L65.308,23.922L65.277,23.849L65.260,23.776L65.233,23.707L65.167,23.642L65.277,23.600L65.401,23.624L65.515,23.622L65.592,23.506L65.422,23.510L65.341,23.497L65.270,23.455L65.334,23.429L65.398,23.413L65.453,23.384L65.486,23.315L65.441,23.313L65.407,23.298L65.376,23.278L65.344,23.263L65.605,23.185L65.691,23.104L65.666,22.935L65.583,22.997L65.557,23.030L65.522,22.963L65.495,22.893L65.492,22.823L65.525,22.754L65.407,22.547L65.444,22.364L65.511,22.198L65.486,22.043L65.442,22.020L65.383,22.008L65.331,21.986L65.308,21.926L65.293,21.908L65.199,21.766L65.107,21.712L64.913,21.634L64.827,21.550L64.782,21.459L64.756,21.346L64.742,21.082L64.784,20.985L64.889,20.985L65.017,21.009L65.189,20.970L65.223,21.004L65.245,21.059L65.277,21.121L65.297,21.175L65.308,21.197L65.329,21.218L65.371,21.243L65.478,21.352L65.530,21.359L65.666,21.197L65.761,21.325L65.821,21.498L65.812,21.674L65.698,21.809L65.807,21.903L65.925,21.905L66.018,21.937L66.057,22.118L66.071,22.292L66.057,22.381L66.002,22.351L65.934,22.293L65.883,22.307L65.866,22.366L65.897,22.445L65.956,22.473L66.106,22.449L66.163,22.468L66.197,22.545L66.179,22.616L66.144,22.684L66.128,22.754L66.164,22.952L66.237,22.971L66.446,22.796L66.372,22.761L66.341,22.754L66.377,22.691L66.442,22.667L66.515,22.680L66.573,22.727L66.636,22.760L66.712,22.721L66.840,22.609L66.934,22.572L67.009,22.566L67.075,22.597L67.144,22.679L67.201,22.690L67.272,22.647L67.326,22.640L67.336,22.754L67.308,22.844L67.255,22.868L67.108,22.847L67.083,22.881L66.982,23.081L66.915,23.129L66.781,23.186L66.716,23.243L66.633,23.363L66.556,23.506L66.618,23.561L66.615,23.610L66.595,23.660L66.608,23.714L66.666,23.776L66.729,23.819L66.771,23.815L66.766,23.741L66.848,23.669L66.807,23.454L66.875,23.361L66.989,23.425L67.201,23.376L67.321,23.480L67.340,23.555L67.333,23.733L67.356,23.806L67.437,23.919L67.460,23.973L67.482,24.063L67.514,24.390L67.496,24.608L67.498,24.648L67.508,24.715L67.475,24.789L67.433,24.865L67.410,24.936L67.436,24.983L67.492,24.945L67.552,24.872L67.585,24.816L67.679,24.944L67.661,25.116L67.585,25.297L67.498,25.452L67.492,25.510L67.545,25.532L67.614,25.545L67.659,25.569L67.677,25.653L67.669,25.853L67.694,25.943L67.644,25.906L67.606,25.852L67.577,25.784L67.553,25.709L67.514,25.709L67.537,25.881L67.576,26.030L67.584,26.150L67.514,26.228L67.690,26.316L67.751,26.380L67.800,26.505L67.852,26.773L67.871,27.047L67.894,27.156L67.989,27.370L68.011,27.470L68.026,27.519L68.099,27.579L68.120,27.636L68.118,27.726L68.092,27.713L68.053,27.673L68.011,27.683L67.968,27.790L68.017,27.835L68.226,27.870L68.313,27.910L68.406,27.971L68.493,28.046L68.564,28.125L68.618,28.217L68.700,28.419L68.743,28.502L68.891,28.649L68.954,28.734L68.974,28.852L68.788,28.700L68.726,28.666L68.646,28.658L68.569,28.672L68.489,28.657L68.404,28.572L68.457,28.541L68.620,28.479L68.438,28.345L68.351,28.260L68.280,28.172L68.178,28.105L68.043,28.098L67.800,28.146L67.832,28.188L67.879,28.263L67.904,28.291L67.885,28.330L67.870,28.379L67.863,28.430L67.871,28.479L67.906,28.529L67.937,28.537L67.963,28.527L67.978,28.526L68.005,28.548L68.060,28.560L68.082,28.572L68.091,28.610L68.078,28.652L68.057,28.688L68.049,28.712L68.073,28.866L68.082,28.899L68.108,28.932L68.135,28.946L68.226,28.950L68.267,28.935L68.295,28.901L68.315,28.867L68.333,28.852L68.425,28.901L68.468,28.984L68.498,29.083L68.549,29.185L68.629,29.125L68.681,29.165L68.725,29.239L68.778,29.278L68.853,29.242L68.879,29.171L68.913,29.116L69.013,29.133L69.083,29.180L69.112,29.242L69.118,29.326L69.116,29.441L69.143,29.503L69.208,29.500L69.291,29.475L69.368,29.465L69.297,29.133L69.180,28.929L69.153,28.832L69.222,28.807L69.324,28.899L69.507,29.247L69.634,29.325L69.776,29.362L70.090,29.523L70.240,29.559L70.299,29.587L70.424,29.717L70.489,29.746L70.644,29.746L70.669,29.774L70.692,29.818L70.727,29.838L70.790,29.793L71.827,30.585L72.037,30.690L72.365,30.747L72.678,30.873L73.032,30.927L73.316,31.117L73.799,31.185L73.994,31.298L73.690,31.298L73.633,31.317L73.664,31.360L73.904,31.538L73.971,31.571L74.046,31.584L74.113,31.548L74.126,31.465L74.103,31.370L74.065,31.298L74.153,31.275L74.203,31.307L74.247,31.357L74.314,31.392L74.654,31.392L74.666,31.407L74.723,31.509L74.754,31.531L74.778,31.521L74.801,31.497L74.831,31.486L74.852,31.464L74.849,31.415L74.849,31.367L74.884,31.345L74.942,31.340L75.098,31.298L75.563,31.263L75.687,31.181L75.781,31.093L76.183,30.832L76.342,30.690L76.396,30.617L76.416,30.554L76.416,30.380L76.503,30.213L76.519,30.146L76.550,30.104L76.767,29.980L76.847,29.860L76.906,29.609L76.966,29.488L77.044,29.393L77.076,29.333L77.090,29.252L77.128,29.204L77.645,29.048L77.751,29.040L77.844,29.010L77.913,28.934L78.036,28.735L78.116,28.690L78.347,28.664L78.443,28.619L78.512,28.541L78.530,28.474L78.505,28.399L78.443,28.291L78.648,28.336L79.927,28.402L80.049,28.442L80.113,28.499L80.043,28.572L80.043,28.619L80.106,28.650L80.202,28.758L80.259,28.807L80.345,28.841L80.433,28.854L80.615,28.852L80.680,28.874L80.779,28.971L80.847,28.993L81.007,28.990L81.072,29.003L81.149,29.040L81.232,29.109L81.345,29.234L81.426,29.373L81.416,29.488L81.373,29.550L81.274,29.722L81.078,29.938L80.973,30.256L80.901,30.425L80.714,30.562L80.640,30.713L80.494,31.143L80.437,31.251L80.350,31.367L80.311,31.434L80.294,31.509L80.333,31.670L80.410,31.813L80.465,31.962L80.437,32.140L80.352,32.232L80.248,32.314L80.197,32.423L80.327,32.712L80.309,32.849L80.248,32.984L80.168,33.102L80.139,33.244L80.211,33.380L80.312,33.499L80.366,33.592L80.349,33.668L80.303,33.734L80.220,33.830L80.197,33.917L80.184,34.067L80.150,34.157L80.213,34.180L80.266,34.230L80.297,34.302L80.294,34.399L80.258,34.456L80.062,34.563L80.040,34.623L80.044,35.066L80.015,35.122L79.429,35.797L78.900,36.282L78.808,36.333L78.603,36.136L78.471,36.105L78.340,36.140L78.231,36.224L78.186,36.246L78.153,36.232L78.134,36.236L78.128,36.317L78.130,36.353L78.146,36.426L78.157,36.458L78.253,36.564L78.298,36.640L78.286,36.719L78.194,36.890L78.161,37.042L78.157,37.403L78.101,37.804L78.030,38.006L78.016,38.275L77.979,38.389L78.025,38.524L77.983,38.624L77.914,38.724L77.876,38.862L78.235,38.902L78.406,38.992L78.479,39.165L78.196,39.464L78.073,39.810L78.027,40.029L77.963,40.107L77.881,40.176L77.802,40.264L77.660,39.844L77.621,39.625L77.625,39.423L77.652,39.310L77.692,39.198L77.738,39.099L77.786,39.023L77.790,38.942L77.716,38.887L77.619,38.895L77.551,39.001L77.496,38.974L77.338,38.862L77.259,38.830L76.438,38.791L75.597,38.768L75.533,38.742L75.486,38.695L75.437,38.680L75.303,38.806L74.340,39.290L73.628,39.642L73.565,39.725L73.543,39.876L73.488,40.027L73.418,40.161L73.292,40.337L73.104,40.545L72.983,40.643L72.966,40.665L72.908,40.854L72.843,40.941L72.807,41.019L72.789,41.108L72.786,41.228L72.803,41.342L72.848,41.404L72.907,41.452L72.966,41.528L73.003,41.668L73.033,42.306L73.050,42.439Z" fill="currentColor" stroke="currentColor" stroke-width="1.5" stroke-linejoin="round"/>
</svg>