<svg xmlns="http://www.w3.org/2000/svg" viewBox="0 0 100 100" role="img" aria-label="Oman">
  <title>Oman</title>
  <path d="M52.999,14.744L53.258,14.777L53.418,15.019L53.760,15.086L53.719,15.340L53.479,15.462L53.279,15.531L53.181,15.614L52.927,15.792L52.786,15.851L52.650,15.814L52.544,15.762L52.531,15.672L52.550,15.443L52.780,15.331L52.864,15.234L52.812,15.158L52.785,15.065L52.767,14.915L52.999,14.744ZM53.020,15.500L53.191,15.442L53.237,15.290L53.113,15.204L53.038,15.205L52.990,15.253L53.020,15.500ZM51.425,8.001L51.426,7.999L51.465,7.912L51.546,7.581L52.115,6.708L52.322,6.293L52.409,6.209L52.549,6.135L52.557,6.186L52.549,6.311L52.649,6.462L52.623,6.514L52.585,6.645L52.649,6.645L52.732,6.563L52.956,6.551L53.000,6.491L53.053,6.464L53.165,6.505L53.268,6.608L53.294,6.771L53.354,6.669L53.414,6.674L53.487,6.712L53.588,6.708L53.821,6.541L53.913,6.519L54.175,6.590L54.233,6.582L54.256,6.504L54.217,6.421L54.150,6.356L54.089,6.330L53.921,6.311L53.817,6.317L53.740,6.361L53.691,6.419L53.607,6.501L53.506,6.552L53.410,6.519L53.409,6.417L53.475,6.028L53.475,5.882L53.726,6.078L53.840,6.118L53.886,5.983L53.845,5.911L53.749,5.818L53.630,5.737L53.529,5.705L53.565,5.619L53.613,5.602L53.665,5.603L53.716,5.573L53.821,5.447L53.869,5.337L53.858,5.136L53.886,5.000L53.939,5.000L54.056,5.252L54.189,5.167L54.233,5.126L54.297,5.194L54.256,5.264L54.253,5.288L54.272,5.310L54.297,5.378L54.378,5.313L54.428,5.336L54.471,5.397L54.532,5.447L54.731,5.500L54.836,5.510L54.947,5.504L54.929,5.463L54.900,5.357L54.883,5.315L55.065,5.252L55.152,5.485L55.133,5.575L55.013,5.584L54.795,5.573L54.651,5.625L54.393,5.844L54.251,5.934L54.261,5.934L54.259,5.987L54.185,6.083L54.377,6.278L54.475,6.353L54.591,6.393L54.669,6.355L54.759,6.281L54.852,6.264L54.947,6.393L54.788,6.667L54.710,6.698L54.655,6.519L54.567,6.529L54.472,6.519L54.505,6.611L54.514,6.669L54.501,6.716L54.472,6.771L54.580,6.881L54.710,6.956L54.824,7.050L54.883,7.218L54.782,7.217L54.690,7.194L54.607,7.151L54.532,7.086L54.408,7.145L54.304,7.102L54.240,6.989L54.233,6.840L54.182,6.871L54.052,6.930L54.003,6.960L53.999,6.862L54.016,6.787L54.056,6.736L54.121,6.708L53.926,6.676L53.712,6.797L53.585,6.969L53.647,7.086L53.603,7.186L53.593,7.299L53.610,7.418L53.647,7.534L53.722,7.348L53.793,7.248L53.886,7.218L53.940,7.277L53.949,7.384L53.925,7.504L53.886,7.596L54.054,7.665L54.824,7.654L54.750,7.777L54.620,7.886L54.354,8.038L54.104,8.130L54.026,8.212L54.056,8.359L54.273,8.248L54.393,8.351L54.398,8.522L54.200,8.653L54.240,8.746L54.354,8.898L54.387,8.966L54.465,9.002L54.655,9.053L54.588,9.097L54.563,9.126L54.532,9.248L54.405,9.182L54.265,9.143L54.140,9.158L54.056,9.248L54.192,9.467L54.133,9.670L53.992,9.865L53.886,10.062L53.876,10.130L53.886,10.349L53.716,10.509L53.573,10.760L53.477,10.878L53.353,10.950L53.353,10.755L53.234,10.952L53.112,11.252L53.051,11.589L53.112,11.897L53.158,12.006L52.801,12.107L52.663,12.132L52.528,12.096L52.468,12.027L52.383,11.840L52.305,11.779L52.104,11.744L52.070,11.725L52.056,11.716L52.007,11.606L51.966,11.193L51.973,11.034L52.065,10.938L52.176,10.854L52.238,10.734L52.198,10.618L51.998,10.358L51.960,10.200L52.002,10.062L52.168,9.836L52.225,9.703L52.261,8.874L52.318,8.600L52.336,8.431L52.293,8.242L52.158,7.886L52.060,7.874L51.624,7.985L51.425,8.001ZM54.054,18.003L54.244,18.751L54.795,19.877L54.887,19.972L54.943,20.187L55.000,20.571L56.012,22.454L56.222,22.685L56.708,23.111L57.647,24.240L57.833,24.534L57.912,24.706L57.987,24.971L58.833,25.968L59.854,26.826L60.655,27.468L60.936,27.646L62.157,28.110L63.732,28.525L64.392,28.818L64.897,28.975L65.255,29.040L65.452,29.051L66.033,29.016L66.191,29.051L66.437,29.370L66.528,29.440L66.737,29.495L66.981,29.617L67.197,29.645L68.317,29.583L68.692,29.606L69.077,29.687L69.607,29.908L69.753,29.939L69.900,30.003L70.216,30.319L70.373,30.443L70.672,30.540L71.070,30.590L71.486,30.584L71.839,30.512L72.027,30.442L72.102,30.381L72.165,30.211L72.239,30.208L72.402,30.254L72.770,30.262L72.966,30.300L73.141,30.386L73.216,30.502L73.389,30.870L73.464,30.948L73.507,30.966L73.545,31.006L73.579,31.050L73.610,31.080L73.629,31.074L73.677,31.067L73.738,31.067L73.793,31.080L73.915,31.182L73.982,31.261L74.021,31.333L74.085,31.333L74.138,31.206L74.158,31.256L74.176,31.287L74.192,31.324L74.203,31.395L74.261,31.395L74.271,31.356L74.314,31.269L74.360,31.309L74.387,31.321L74.495,31.269L74.702,31.545L74.761,31.697L74.730,31.836L74.798,31.964L74.886,32.386L74.998,32.565L75.501,33.031L75.811,33.171L75.933,33.337L76.080,33.735L76.163,33.879L76.424,34.128L76.554,34.314L76.626,34.860L77.173,35.414L77.209,35.489L77.259,35.764L77.295,35.829L77.335,35.873L77.575,36.065L78.032,36.332L78.323,36.549L78.536,36.802L78.688,37.088L78.999,37.879L79.030,38.012L79.096,38.190L79.252,38.313L79.563,38.482L79.905,39.026L79.953,39.175L80.068,39.316L80.428,39.656L80.698,39.796L80.895,39.970L81.092,40.082L81.141,40.127L81.150,40.224L81.098,40.247L81.025,40.228L80.971,40.196L80.972,40.326L81.035,40.385L81.138,40.397L81.264,40.385L81.926,40.157L82.155,40.250L82.502,40.511L82.555,40.516L82.690,40.498L82.737,40.511L82.761,40.554L82.777,40.653L82.800,40.700L82.799,40.727L82.789,40.769L82.796,40.824L82.853,40.890L82.897,40.915L82.951,40.935L83.008,40.948L83.062,40.953L83.092,40.907L83.036,40.807L82.912,40.666L82.948,40.541L83.039,40.539L83.211,40.511L83.442,40.573L83.628,40.812L83.753,41.122L83.797,41.400L83.628,42.913L83.515,43.320L83.343,43.683L82.853,44.375L82.597,44.593L82.453,44.749L82.389,44.911L82.366,45.126L82.208,45.568L82.169,46.014L82.085,46.198L81.744,46.342L81.639,46.503L81.498,46.840L80.818,47.763L80.558,48.594L80.394,48.977L79.590,50.263L79.526,50.560L79.498,50.642L79.429,50.706L78.218,51.248L77.968,51.399L77.007,52.190L75.845,53.422L75.492,53.975L75.405,54.059L75.287,54.143L75.152,54.338L74.889,54.835L74.859,54.919L74.838,55.246L74.811,55.340L74.761,55.420L74.261,55.830L74.297,56.022L74.152,56.153L73.793,56.335L73.803,56.352L73.737,56.521L73.727,56.524L73.668,56.582L73.629,56.631L73.610,56.681L73.630,56.766L73.684,56.853L73.759,56.926L73.846,56.971L73.973,56.911L74.117,56.774L74.214,56.719L74.203,56.902L74.117,57.025L73.961,57.144L73.805,57.189L73.727,57.092L73.674,57.092L73.626,57.222L73.561,57.472L73.492,57.602L73.424,57.665L73.235,57.775L73.141,57.860L73.032,58.038L72.937,58.274L72.872,58.531L72.849,58.774L72.630,59.216L72.512,59.540L72.522,59.689L72.474,59.759L72.428,60.066L72.402,60.136L72.333,60.151L72.218,60.192L72.102,60.253L72.021,60.325L71.963,60.573L71.777,60.674L71.535,60.665L71.312,60.583L71.148,60.500L71.032,60.462L70.751,60.451L70.643,60.469L70.439,60.556L70.314,60.583L70.341,60.500L70.391,60.458L70.349,60.432L70.044,60.345L69.874,60.325L69.690,60.248L69.670,60.066L69.780,59.689L69.779,59.805L69.814,59.908L69.878,59.998L69.963,60.073L69.995,59.887L69.908,59.471L69.992,59.282L70.106,59.098L70.194,58.831L70.216,58.558L70.139,58.358L69.965,58.299L69.714,58.321L69.461,58.401L69.186,58.581L68.836,58.674L68.727,58.751L68.672,58.832L68.524,59.266L68.518,59.370L68.574,59.468L68.598,59.552L68.528,59.622L68.422,59.671L68.211,59.720L68.053,59.798L67.898,59.901L67.695,60.096L67.620,60.191L67.567,60.296L67.546,60.417L67.573,60.505L67.695,60.644L67.722,60.732L67.659,60.936L67.506,61.053L67.130,61.208L66.988,61.301L66.833,61.427L66.710,61.579L66.660,61.747L66.613,61.851L66.516,61.970L66.432,62.129L66.425,62.355L66.588,62.730L66.640,62.954L66.500,63.290L66.367,63.795L66.362,63.926L66.345,64.199L66.145,64.688L66.002,65.207L65.902,65.437L65.359,66.255L65.276,66.497L65.311,66.781L65.372,66.887L65.448,66.972L65.513,67.064L65.540,67.191L65.545,67.472L65.531,67.607L65.488,67.727L65.425,67.969L65.406,68.155L65.469,68.332L65.886,69.029L65.951,69.183L66.004,69.439L66.002,69.687L65.962,69.920L65.817,70.345L65.783,70.535L65.804,70.747L65.977,71.219L66.060,71.365L66.276,71.625L66.330,71.774L66.253,72.160L66.245,72.348L66.570,72.946L66.572,73.082L66.362,73.299L66.237,73.402L66.203,73.415L65.818,73.472L65.775,73.520L65.737,73.575L65.643,73.650L65.535,73.713L65.452,73.740L63.662,73.651L63.180,73.728L61.136,74.055L60.073,74.365L58.623,74.976L58.067,75.386L57.701,75.573L57.503,75.730L57.417,75.928L57.346,76.023L56.429,76.961L56.269,77.294L56.233,77.731L56.289,78.034L56.296,78.141L56.269,78.258L56.145,78.434L56.098,78.584L56.022,78.769L55.998,78.866L55.998,79.250L55.921,79.639L55.476,80.706L55.604,80.888L55.583,81.082L55.462,81.262L55.294,81.401L54.920,81.569L54.735,81.680L54.472,82.163L54.417,82.207L54.294,82.246L54.233,82.284L53.833,82.739L53.810,82.808L53.821,83.014L53.724,83.034L52.379,82.856L52.205,82.884L51.949,83.009L51.758,83.046L51.027,82.983L50.852,83.011L50.296,83.241L49.981,83.322L47.782,83.427L46.918,83.658L46.725,83.676L46.656,83.694L46.612,83.732L46.574,83.776L46.520,83.809L46.362,83.814L46.350,83.809L46.067,83.888L45.992,83.929L45.876,84.080L45.753,84.444L45.672,84.596L45.544,84.749L45.506,84.822L45.375,85.200L45.341,85.265L45.223,85.401L44.428,86.083L44.186,86.535L44.127,86.720L44.104,86.936L44.139,87.184L44.229,87.308L44.519,87.472L44.686,87.654L44.751,87.847L44.754,88.269L44.695,88.444L44.344,88.934L44.325,89.018L44.311,89.147L44.320,89.262L44.374,89.312L44.442,89.343L44.445,89.415L44.403,89.533L44.355,89.584L44.130,89.701L44.050,89.754L43.998,89.830L43.965,89.909L43.929,90.069L43.846,90.211L43.874,90.258L43.792,90.360L43.532,90.442L43.400,90.516L43.356,90.599L43.309,90.727L43.239,90.843L43.134,90.895L42.783,91.307L42.397,91.594L42.344,91.594L42.260,91.454L42.159,91.515L42.055,91.647L41.955,91.720L41.820,91.744L41.694,91.789L41.576,91.816L41.453,91.783L41.319,91.929L41.159,91.983L40.807,92.030L40.520,92.145L40.378,92.146L40.280,92.030L40.182,92.086L40.024,92.062L39.927,92.099L39.634,91.904L39.571,91.973L39.501,91.796L39.462,91.633L39.366,91.514L39.014,91.448L38.766,91.361L38.661,91.341L38.560,91.352L38.383,91.395L38.280,91.405L37.976,91.342L37.864,91.341L37.771,91.368L37.592,91.450L37.540,91.468L37.136,91.347L36.924,91.332L36.748,91.468L36.668,91.423L36.584,91.404L34.983,91.594L34.303,91.594L34.154,91.635L33.775,91.832L33.682,91.904L33.650,91.986L33.653,92.058L33.671,92.125L33.682,92.196L33.654,92.275L33.533,92.386L33.506,92.443L33.411,92.540L33.194,92.585L32.801,92.609L32.287,92.721L32.119,92.735L31.963,92.789L31.786,92.895L31.608,92.966L31.452,92.919L31.293,93.026L31.075,93.212L30.884,93.418L30.802,93.589L30.731,93.691L30.570,93.792L30.268,93.933L29.987,94.007L28.615,94.036L27.890,94.146L26.486,94.611L25.756,95.000L25.220,93.752L24.681,92.501L24.144,91.251L23.608,90.000L23.275,89.227L23.184,89.099L23.037,89.045L22.713,89.026L22.586,88.943L22.600,88.938L22.645,88.932L22.661,88.927L22.388,88.266L22.021,87.374L21.653,86.482L21.286,85.590L20.919,84.699L20.550,83.807L20.182,82.916L19.815,82.023L19.447,81.132L19.079,80.241L18.713,79.348L18.344,78.457L17.976,77.565L17.610,76.673L17.242,75.781L16.874,74.889L16.506,73.998L16.264,73.410L16.203,73.263L17.159,72.922L18.630,72.395L20.100,71.868L21.569,71.341L23.041,70.814L24.512,70.287L25.982,69.760L27.453,69.233L28.923,68.706L30.394,68.180L31.864,67.653L33.335,67.126L34.806,66.599L36.277,66.072L37.746,65.546L39.217,65.019L40.687,64.492L41.981,64.029L42.257,63.136L42.314,62.954L42.474,62.439L42.720,61.638L43.042,60.598L43.423,59.368L43.847,57.996L44.300,56.528L44.769,55.013L45.128,53.854L45.238,53.497L45.691,52.030L46.116,50.657L46.496,49.428L46.817,48.388L47.065,47.587L47.224,47.072L47.281,46.889L47.324,46.750L47.645,45.707L47.641,45.495L47.552,45.293L47.095,44.534L46.401,43.381L45.707,42.227L45.012,41.073L44.318,39.920L43.772,39.014L43.864,37.666L43.810,36.319L43.810,36.318L43.840,36.044L44.108,35.156L44.926,33.735L45.116,33.170L45.295,32.248L45.391,31.940L45.552,31.702L45.554,31.701L45.874,31.353L45.993,31.175L46.277,30.028L46.355,29.872L46.756,29.286L46.793,29.163L46.765,28.462L46.726,28.197L46.588,27.994L46.277,27.809L46.133,27.680L46.057,27.514L46.092,27.379L46.461,27.310L46.826,27.173L46.993,27.083L47.246,26.946L47.480,26.853L47.725,26.808L48.010,26.815L48.290,26.861L48.422,26.858L48.564,26.805L48.718,26.779L48.942,26.951L49.102,26.970L50.103,26.566L50.646,26.435L50.741,26.288L50.422,25.723L50.321,25.332L50.185,25.000L49.928,24.894L49.446,25.086L49.302,25.078L48.763,24.962L48.660,24.911L48.647,24.771L48.715,24.610L49.049,24.025L49.104,23.891L49.135,23.444L49.115,23.366L49.050,23.284L48.878,23.170L48.823,23.105L48.795,22.965L48.815,22.464L48.707,22.075L48.696,21.880L48.783,21.752L48.904,21.623L48.957,21.313L49.198,21.096L49.169,20.917L49.041,20.635L48.996,20.537L48.978,20.367L49.016,20.023L49.016,19.849L48.944,19.140L49.033,18.854L49.294,18.530L49.538,18.311L49.575,18.278L49.874,18.092L50.205,18.008L50.552,18.060L50.574,18.063L50.808,18.207L50.906,18.480L50.977,18.887L51.011,19.084L50.805,18.938L50.694,18.883L50.574,18.854L50.423,18.899L50.396,19.015L50.457,19.152L50.778,19.437L51.031,20.073L51.294,20.280L51.415,20.296L51.430,20.298L51.612,20.291L51.776,20.246L51.853,20.151L51.906,19.993L52.090,19.772L52.231,19.428L52.232,19.427L52.360,19.370L52.682,19.331L52.836,19.257L53.120,18.985L53.169,18.938L53.409,18.770L53.455,18.679L53.460,18.615L53.476,18.449L53.503,18.148L53.548,18.098L53.587,18.054L54.054,18.003ZM49.352,87.162L49.320,87.075L49.314,87.058L49.314,87.057L49.360,86.985L49.460,86.937L49.582,86.904L49.755,87.012L49.822,87.036L49.821,87.037L49.693,87.116L49.434,87.115L49.353,87.162L49.352,87.162ZM51.235,86.526L51.235,86.527L51.260,86.655L51.262,86.669L51.343,86.781L51.456,86.860L51.581,86.904L51.308,87.082L51.163,87.140L51.027,87.162L50.646,87.144L50.526,87.094L50.452,86.894L50.679,86.752L51.007,86.638L51.235,86.526ZM75.734,58.204L75.752,58.401L75.803,58.557L76.068,59.043L76.144,59.184L76.110,59.285L76.034,59.359L75.705,59.607L75.356,59.804L75.200,59.947L74.994,60.264L74.892,60.480L74.792,60.924L74.714,61.081L74.714,61.082L74.714,61.185L74.716,61.193L74.729,61.278L74.730,61.340L74.693,61.404L74.404,61.695L74.249,61.912L74.170,61.999L74.093,62.027L73.984,62.043L73.886,62.067L73.846,62.125L73.817,62.223L73.743,62.328L73.649,62.403L73.552,62.412L73.551,62.412L73.506,62.327L73.468,62.257L73.424,61.969L73.416,61.680L73.435,61.524L73.432,61.512L73.411,61.428L73.471,60.697L73.517,60.579L73.610,60.451L73.657,60.404L73.810,60.286L73.875,60.262L73.892,60.244L73.909,60.225L73.947,60.054L73.968,60.004L74.113,59.950L74.256,59.944L74.402,59.921L74.554,59.815L74.624,59.717L74.656,59.673L74.688,59.558L74.693,59.538L74.730,59.184L74.783,59.013L74.863,58.874L75.275,58.321L75.434,57.986L75.531,57.682L75.605,57.573L75.734,57.539L75.838,57.692L75.838,57.693L75.826,57.851L75.768,58.020L75.734,58.204Z" fill="currentColor" stroke="currentColor" stroke-width="1.5" stroke-linejoin="round"/>
</svg>