<svg xmlns="http://www.w3.org/2000/svg" viewBox="0 0 100 100" role="img" aria-label="Pakistan">
  <title>Pakistan</title>
  <path d="M89.069,10.918L89.104,11.074L89.000,11.585L89.001,11.841L89.044,11.938L89.183,12.102L89.240,12.188L89.254,12.302L89.183,12.355L89.082,12.398L89.008,12.483L89.003,12.551L89.049,12.667L89.044,12.737L89.016,12.787L88.975,12.821L88.700,12.988L88.627,13.054L88.587,13.158L88.619,13.377L88.743,13.581L88.913,13.738L89.087,13.813L89.515,13.839L89.674,13.926L89.811,14.160L89.861,14.406L89.884,14.673L89.941,14.901L90.096,15.033L90.228,15.041L90.491,14.973L90.620,14.958L90.732,14.981L90.821,15.012L90.907,15.011L91.112,14.873L91.209,14.874L91.307,14.891L91.413,14.873L91.453,14.836L91.520,14.723L91.574,14.683L91.634,14.665L91.695,14.656L91.821,14.653L91.952,14.612L92.157,14.413L92.259,14.443L92.314,14.651L92.235,15.176L92.344,15.387L92.530,15.487L92.932,15.628L93.112,15.755L93.245,15.931L93.314,16.006L93.414,16.057L93.491,16.063L94.246,17.788L95.000,19.512L94.964,19.534L94.856,19.667L94.878,19.823L94.924,20.001L94.887,20.201L94.801,20.310L94.467,20.567L94.361,20.681L94.290,20.733L94.206,20.718L94.059,20.628L93.909,20.588L93.712,20.604L93.517,20.668L93.382,20.769L93.337,20.918L93.358,21.264L93.305,21.386L92.799,21.852L92.726,21.889L92.246,21.988L92.150,21.985L92.062,21.954L91.821,21.782L91.608,21.749L91.395,21.827L90.629,22.253L90.035,22.401L89.850,22.406L89.498,22.261L89.304,22.301L89.216,22.379L89.100,22.566L89.026,22.654L88.987,22.675L88.837,22.720L88.474,22.982L88.153,23.302L88.040,23.391L87.936,23.417L87.701,23.386L87.584,23.387L87.261,23.461L87.017,23.452L85.553,23.073L85.325,22.965L85.106,22.809L85.016,22.714L84.936,22.593L84.867,22.549L84.803,22.508L84.599,22.506L84.237,22.581L83.719,22.607L81.759,22.229L80.355,21.739L80.004,21.681L79.654,21.711L79.298,21.847L78.882,22.142L78.737,22.213L77.856,22.359L77.781,22.394L77.618,22.524L77.608,22.674L77.652,22.840L77.655,23.023L77.572,23.152L77.306,23.332L77.216,23.478L77.216,23.479L77.208,23.722L77.180,23.800L77.131,23.851L76.993,23.923L76.934,23.966L76.843,24.111L76.816,24.272L76.859,24.428L76.979,24.552L77.117,24.630L77.251,24.681L77.394,24.702L77.552,24.685L77.720,24.702L77.813,24.812L77.937,25.131L78.014,25.254L78.057,25.394L78.041,25.525L77.937,25.620L77.604,25.790L77.473,25.922L77.424,26.118L77.476,26.311L77.601,26.481L77.765,26.597L77.937,26.631L78.316,26.535L78.429,26.542L78.724,26.644L78.923,26.634L79.133,26.584L79.334,26.577L79.508,26.697L79.578,26.904L79.524,27.111L79.396,27.298L79.247,27.443L79.052,27.578L78.856,27.663L78.258,27.764L78.129,27.881L77.937,28.212L77.903,28.289L77.878,28.369L77.861,28.453L77.848,28.641L77.861,28.741L77.890,28.836L77.937,28.924L78.201,29.144L78.555,29.330L78.852,29.561L78.942,29.916L78.823,30.407L78.652,30.876L78.599,30.983L78.539,31.075L78.466,31.152L78.374,31.218L78.165,31.299L78.076,31.359L78.020,31.472L78.002,31.755L78.079,31.954L78.229,32.106L78.431,32.244L78.613,32.423L78.921,32.839L79.126,32.956L79.643,33.041L79.795,33.135L79.854,33.278L79.868,33.604L79.936,33.934L79.920,34.068L79.860,34.189L79.827,34.237L79.821,34.246L79.768,34.322L79.823,34.443L79.895,34.537L79.989,34.599L80.108,34.620L80.212,34.593L80.393,34.485L80.503,34.476L80.595,34.523L80.757,34.685L80.848,34.733L80.959,34.738L81.253,34.691L81.362,34.657L81.477,34.576L81.521,34.479L81.544,34.369L81.598,34.243L81.696,34.145L81.797,34.124L81.872,34.185L81.893,34.329L81.856,34.467L81.715,34.737L81.675,34.880L81.677,35.021L81.717,35.283L81.710,35.411L81.665,35.521L81.604,35.633L81.563,35.750L81.579,35.878L81.746,36.327L81.895,36.501L82.093,36.569L82.307,36.557L82.506,36.493L82.721,36.479L83.103,36.670L83.334,36.647L83.568,36.553L83.752,36.534L83.925,36.603L84.132,36.772L84.320,36.885L84.710,36.978L84.898,37.088L85.277,37.396L85.436,37.524L85.580,37.705L85.614,37.851L85.556,37.978L85.378,38.179L85.333,38.287L85.276,38.507L85.257,38.577L85.083,38.564L85.008,38.577L84.878,38.621L84.707,38.708L84.582,38.829L84.587,38.977L84.516,38.969L84.389,38.934L84.341,38.955L84.281,39.014L84.233,39.036L84.187,39.033L83.847,38.905L83.746,38.926L83.788,39.108L83.732,39.112L83.595,39.102L83.543,39.129L83.501,39.192L83.476,39.246L83.442,39.292L83.374,39.328L83.239,39.344L83.114,39.330L83.004,39.350L82.916,39.460L82.668,39.372L82.572,39.512L82.523,39.736L82.419,39.904L82.304,39.928L81.945,39.856L81.787,40.153L81.716,40.207L81.626,40.240L81.207,40.562L81.123,40.649L81.070,40.753L81.051,40.895L81.048,40.979L81.038,41.009L81.014,41.030L80.971,41.091L80.961,41.121L80.945,41.198L80.933,41.226L80.917,41.241L80.873,41.261L80.861,41.270L80.802,41.373L80.784,41.395L80.840,41.468L81.152,42.032L81.312,42.642L81.480,42.897L81.494,43.019L81.465,43.139L81.399,43.243L81.308,43.356L81.241,43.467L81.022,44.021L80.984,44.169L80.982,44.458L80.893,44.714L80.879,44.844L80.896,44.968L80.926,45.060L80.974,45.141L81.047,45.232L81.138,45.272L81.381,45.228L81.493,45.231L81.576,45.281L81.678,45.374L81.725,45.434L81.404,45.609L81.284,45.698L81.200,45.812L81.199,45.945L81.114,46.024L81.036,46.126L80.950,46.215L80.840,46.253L80.717,46.256L80.613,46.273L80.519,46.320L80.423,46.409L80.362,46.520L80.338,46.611L80.295,46.661L80.175,46.652L80.030,46.610L79.968,46.605L79.898,46.620L79.839,46.659L79.792,46.717L79.755,46.784L79.795,46.901L79.733,47.015L79.621,47.102L79.511,47.136L79.492,47.162L79.542,47.290L79.547,47.336L79.505,47.383L79.422,47.446L79.375,47.492L79.261,47.663L79.170,47.744L79.128,47.795L79.092,47.925L79.011,47.987L78.992,48.039L78.975,48.131L78.931,48.165L78.803,48.191L78.685,48.251L78.599,48.309L78.523,48.382L78.441,48.481L78.383,48.603L78.390,48.713L78.407,48.834L78.386,48.990L78.311,49.072L78.091,49.135L78.044,49.186L78.010,49.271L77.728,49.668L77.673,49.713L77.603,49.725L77.510,49.693L77.522,49.735L77.534,49.827L77.545,49.869L77.442,49.858L77.331,49.917L77.243,50.012L77.207,50.113L77.190,50.139L77.464,50.288L77.577,50.455L77.703,50.730L77.782,51.012L77.771,51.097L77.757,51.199L76.835,51.978L76.620,52.099L75.610,52.330L74.652,52.782L74.569,52.879L74.331,53.665L74.094,54.447L73.805,55.394L73.501,55.994L73.228,56.529L72.795,57.379L72.449,57.853L72.306,58.096L72.125,58.542L72.058,58.637L71.965,58.703L71.249,59.084L70.616,59.421L69.877,59.815L69.081,60.239L68.927,60.347L68.515,60.862L68.383,61.130L68.057,62.422L67.945,62.730L67.791,63.009L67.574,63.241L66.893,63.818L66.449,64.413L66.386,64.542L66.356,64.661L66.292,65.448L66.261,65.546L66.185,65.607L65.300,65.886L64.518,66.132L64.054,66.172L63.613,66.133L63.134,66.176L62.661,66.282L62.241,66.429L61.557,66.779L60.925,67.103L60.469,67.208L60.081,67.154L59.796,66.953L59.581,66.631L59.409,66.221L59.392,66.096L59.414,65.857L59.367,65.726L59.300,65.646L59.143,65.515L58.959,65.296L58.821,65.183L58.665,65.100L58.501,65.046L58.384,65.030L58.277,65.059L58.062,65.147L57.847,65.181L57.749,65.212L57.649,65.283L57.337,65.638L56.955,65.924L56.900,65.983L56.416,66.498L56.354,66.615L55.944,67.857L55.814,68.047L55.340,68.522L55.006,69.082L54.354,69.726L53.996,69.986L53.493,70.511L53.264,70.915L53.115,71.401L52.995,72.195L52.879,72.961L52.922,73.226L53.096,73.429L53.958,73.799L54.185,73.958L54.585,74.331L54.826,74.426L56.162,74.369L56.370,74.425L56.570,74.540L56.728,74.749L56.755,74.986L56.722,75.516L56.742,75.771L56.723,75.882L56.672,76.016L56.641,76.142L56.650,76.267L56.692,76.526L56.666,76.762L56.583,77.000L56.285,77.520L56.261,77.626L56.255,77.856L56.207,78.190L56.209,78.288L56.312,78.612L56.489,78.923L56.707,79.195L56.936,79.404L57.039,79.537L57.152,79.893L57.234,80.043L57.320,80.110L57.537,80.192L57.850,80.263L58.501,80.245L58.720,80.197L58.929,80.100L59.140,80.036L59.362,80.084L59.482,80.257L59.502,80.520L59.476,81.085L59.441,81.822L59.485,82.046L59.574,82.181L59.796,82.437L59.841,82.598L59.866,82.750L59.932,82.878L60.118,83.098L60.468,83.419L60.563,83.548L60.626,83.701L60.812,84.587L60.933,84.943L61.088,85.281L61.422,85.834L61.609,86.397L61.719,86.577L61.759,86.642L61.645,86.729L61.277,86.919L61.197,87.072L61.153,87.274L61.170,87.457L61.277,87.558L61.298,87.594L61.304,87.634L61.296,87.677L61.277,87.721L61.264,87.850L61.255,87.900L61.255,87.949L61.262,87.997L61.277,88.043L61.405,88.121L61.627,88.160L61.821,88.227L61.864,88.387L61.810,88.448L61.544,88.550L61.484,88.621L61.444,88.694L61.386,88.741L61.277,88.737L61.156,88.681L61.050,88.673L60.947,88.708L60.607,88.952L60.521,89.068L60.541,89.181L60.613,89.288L60.579,89.331L60.483,89.355L60.369,89.398L60.160,89.513L60.046,89.547L59.302,89.484L59.098,89.376L59.003,89.280L58.962,89.187L58.935,88.931L58.881,88.705L58.885,88.634L58.916,88.594L59.012,88.527L59.045,88.461L58.977,88.306L58.743,88.301L58.163,88.449L57.909,88.639L57.812,88.679L57.508,88.697L57.400,88.751L57.197,88.908L57.087,88.933L56.973,88.941L56.653,89.054L56.459,89.074L56.394,89.113L56.334,89.218L56.200,89.618L56.140,89.736L55.939,89.916L55.695,89.973L54.567,89.990L54.265,89.951L54.020,89.822L53.586,89.333L53.423,89.255L51.856,89.210L51.442,89.372L51.222,89.407L51.119,89.384L50.806,89.222L50.672,89.180L50.565,89.200L50.340,89.333L50.189,89.392L50.089,89.381L50.011,89.297L49.904,89.090L49.863,89.038L49.814,88.994L49.764,88.973L49.687,88.980L49.658,89.018L49.648,89.071L49.630,89.122L49.457,89.466L49.401,89.514L49.295,89.425L49.262,89.051L49.181,88.918L48.893,88.905L48.774,89.175L48.772,89.692L48.769,90.367L48.766,91.261L48.332,91.257L47.785,91.253L47.139,91.248L46.883,91.291L46.706,91.427L46.707,91.377L46.699,91.316L46.680,91.264L46.645,91.239L46.577,91.252L46.574,91.306L46.595,91.371L46.603,91.416L46.553,91.501L46.486,91.578L46.411,91.613L46.332,91.575L46.298,91.515L46.284,91.465L46.264,91.438L46.208,91.449L46.158,91.493L46.145,91.551L46.148,91.608L46.141,91.649L46.151,91.662L46.175,91.684L46.188,91.709L46.168,91.732L46.147,91.734L46.092,91.723L46.075,91.725L46.036,91.750L45.937,91.798L45.893,91.828L45.761,92.045L45.759,92.053L45.759,92.044L45.617,91.648L45.611,91.848L45.617,91.911L45.632,91.952L45.679,92.036L45.690,92.067L45.668,92.195L45.568,92.447L45.538,92.574L45.543,92.690L45.602,92.876L45.617,92.992L45.570,93.003L45.466,92.915L45.310,92.750L45.291,92.908L45.196,92.912L45.091,92.819L45.041,92.686L45.059,92.640L45.137,92.577L45.155,92.550L45.149,92.431L45.155,92.399L45.196,92.288L45.232,92.263L45.310,92.263L45.310,92.223L45.233,92.156L45.145,92.055L45.072,91.926L45.041,91.779L45.085,91.608L45.096,91.531L45.007,91.544L44.876,91.453L44.817,91.428L44.973,91.988L45.041,92.135L44.940,92.373L44.878,92.488L44.817,92.527L44.787,92.490L44.761,92.419L44.744,92.341L44.738,92.287L44.710,92.252L44.649,92.262L44.594,92.290L44.586,92.311L44.531,92.294L44.469,92.267L44.418,92.222L44.396,92.155L44.377,92.112L44.331,92.105L44.280,92.108L44.242,92.091L44.213,92.026L44.220,91.943L44.186,91.889L44.142,91.876L44.095,91.907L44.014,91.999L43.990,91.901L43.983,91.662L43.938,91.604L43.904,91.748L43.848,92.174L43.808,92.263L43.646,92.242L43.483,92.188L43.179,92.043L43.247,92.095L43.304,92.176L43.318,92.268L43.255,92.355L43.163,92.378L43.041,92.366L42.835,92.311L42.779,92.306L42.730,92.313L42.696,92.302L42.683,92.243L42.691,92.165L42.711,92.111L42.736,92.062L42.759,91.999L42.804,91.635L42.835,91.556L42.835,91.516L42.810,91.518L42.804,91.507L42.805,91.489L42.801,91.468L42.732,91.578L42.728,91.846L42.683,91.959L42.601,92.002L42.518,91.975L42.462,91.896L42.456,91.779L42.379,91.862L42.332,91.832L42.288,91.753L42.224,91.692L42.146,91.686L42.132,91.737L42.165,91.809L42.224,91.867L41.916,91.789L41.846,91.735L41.899,91.725L41.939,91.730L41.980,91.726L42.035,91.692L42.079,91.635L42.144,91.493L42.190,91.428L42.135,91.452L42.076,91.498L42.015,91.531L41.959,91.516L41.948,91.451L41.964,91.348L42.001,91.204L41.763,91.152L41.694,91.116L41.788,90.895L41.844,90.828L41.922,90.856L42.076,90.746L42.131,90.683L42.149,90.584L42.019,90.701L41.905,90.688L41.784,90.624L41.636,90.584L41.318,90.607L41.154,90.580L41.084,90.481L41.060,90.271L41.001,90.111L40.856,89.838L40.830,89.754L40.817,89.670L40.812,89.351L40.790,89.299L40.739,89.226L40.765,89.183L40.795,89.114L40.815,89.086L40.777,88.915L40.887,88.830L41.057,88.806L41.201,88.822L41.091,88.759L40.995,88.734L40.760,88.734L40.697,88.661L40.708,88.493L40.780,88.207L40.746,88.254L40.708,88.288L40.626,88.339L40.615,88.172L40.559,88.024L40.470,87.890L40.360,87.763L40.470,87.656L40.447,87.609L40.322,87.592L40.269,87.514L40.236,87.423L40.217,87.328L40.208,87.236L40.296,87.272L40.400,87.287L40.503,87.277L40.591,87.236L40.432,87.128L40.349,87.085L40.246,87.060L40.147,87.072L40.076,87.095L40.033,87.073L40.019,86.948L40.060,86.769L40.163,86.603L40.299,86.462L40.436,86.357L40.593,86.270L40.607,86.221L40.550,86.133L40.480,86.075L40.431,86.081L40.369,86.114L40.166,86.159L40.118,86.143L40.086,86.006L40.055,85.941L40.011,85.888L39.964,85.865L39.865,85.879L39.805,85.901L39.743,85.905L39.639,85.865L39.598,85.914L39.647,86.053L39.542,86.004L39.316,85.822L39.216,85.799L39.118,85.744L39.038,85.673L38.994,85.606L38.953,85.606L38.954,85.723L38.967,85.772L38.994,85.822L38.861,85.806L38.754,85.730L38.651,85.634L38.533,85.558L38.376,85.550L38.229,85.602L38.091,85.632L37.964,85.558L37.907,85.582L37.613,85.619L37.474,85.677L37.409,85.690L37.267,85.634L37.282,85.509L37.394,85.374L37.547,85.294L37.547,85.250L37.418,85.175L37.418,84.928L37.506,84.435L37.520,84.050L37.547,83.927L37.597,83.822L37.701,83.677L37.733,83.572L37.728,83.433L37.641,83.230L37.619,83.111L37.579,83.059L37.378,82.867L37.297,82.825L37.235,82.776L36.940,82.473L36.748,82.348L36.677,82.245L36.710,82.118L36.852,82.157L36.917,82.027L36.895,81.855L36.768,81.770L36.692,81.656L36.643,81.431L36.583,81.263L36.482,81.326L36.470,81.297L36.452,81.267L36.444,81.238L36.371,81.264L36.337,81.215L36.316,81.134L36.288,81.063L36.101,80.849L36.061,80.751L35.923,80.797L35.788,80.785L35.703,80.711L35.720,80.571L35.626,80.643L35.515,80.684L35.318,80.707L35.252,80.698L35.137,80.661L35.068,80.659L35.046,80.675L35.014,80.706L34.966,80.737L34.767,80.780L34.653,80.855L34.563,80.955L34.499,81.063L34.397,81.291L34.365,81.326L34.305,81.351L34.243,81.410L34.189,81.481L34.159,81.542L34.307,81.540L34.748,81.458L34.818,81.436L34.876,81.383L34.959,81.278L34.976,81.261L34.996,81.249L35.021,81.241L35.051,81.238L35.072,81.220L35.069,81.178L35.061,81.132L35.068,81.103L35.185,81.058L35.352,81.032L35.503,81.037L35.569,81.083L35.593,81.151L35.653,81.185L35.728,81.206L35.792,81.238L35.840,81.297L35.922,81.437L35.985,81.502L36.063,81.436L36.168,81.406L36.277,81.423L36.368,81.502L36.175,81.678L36.400,81.828L36.475,81.932L36.402,82.034L36.322,82.020L36.220,81.949L36.061,81.810L35.631,81.604L35.366,81.542L35.182,81.590L35.033,81.555L34.853,81.606L34.673,81.683L34.518,81.722L34.018,81.726L33.660,81.833L33.215,81.904L32.976,81.898L32.848,81.911L32.657,82.009L32.525,82.051L32.331,82.166L32.103,82.210L31.811,82.363L31.702,82.381L31.578,82.366L30.791,82.133L30.678,82.118L30.558,82.146L30.429,82.202L30.306,82.238L30.204,82.210L30.229,82.176L30.276,82.074L30.095,82.085L29.947,82.118L29.820,82.173L29.704,82.249L29.523,82.150L29.370,82.213L29.253,82.360L29.124,82.597L29.081,82.644L29.025,82.671L28.943,82.693L28.877,82.694L28.736,82.655L28.578,82.632L28.407,82.574L28.314,82.561L27.973,82.561L27.640,82.494L27.467,82.485L27.309,82.561L27.187,82.505L27.010,82.484L26.661,82.513L26.517,82.575L26.392,82.683L26.295,82.817L26.240,82.957L26.207,83.124L26.210,83.202L26.240,83.268L26.302,83.302L26.393,83.330L26.465,83.372L26.471,83.444L26.427,83.448L26.164,83.532L26.084,83.527L25.943,83.484L25.861,83.484L26.008,83.237L26.012,83.128L25.918,82.979L25.820,82.917L25.667,82.859L25.509,82.823L25.405,82.825L25.340,82.881L25.259,83.017L25.193,83.045L25.123,83.052L25.014,83.081L24.966,83.089L24.845,83.048L24.652,82.851L24.530,82.777L24.294,82.717L24.054,82.693L24.002,82.676L23.930,82.593L23.885,82.561L23.548,82.548L23.051,82.437L23.052,82.346L23.102,82.231L23.120,82.118L23.091,82.083L23.039,82.050L22.990,82.001L22.968,81.920L22.991,81.852L23.047,81.819L23.116,81.810L23.179,81.810L23.309,81.838L23.364,81.817L23.389,81.722L23.363,81.693L23.307,81.680L23.233,81.678L22.979,81.742L22.840,81.755L22.779,81.700L22.468,81.860L22.396,81.942L22.478,81.917L22.510,81.898L22.550,82.011L22.591,82.041L22.646,82.006L22.722,81.920L22.798,81.918L22.869,82.029L22.968,82.249L22.897,82.370L22.858,82.381L22.760,82.381L22.553,82.417L22.454,82.421L22.358,82.381L22.216,82.443L22.007,82.402L21.443,82.185L21.070,82.118L20.693,82.129L20.331,82.189L20.152,82.249L20.051,82.306L19.958,82.381L19.808,82.561L19.726,82.723L19.667,82.769L19.580,82.737L19.606,82.841L19.648,82.924L19.816,83.140L19.843,83.160L19.853,83.177L19.849,83.220L19.835,83.267L19.814,83.310L19.786,83.340L19.752,83.352L19.576,83.318L19.256,83.167L19.066,83.133L18.684,83.180L18.590,83.165L18.328,83.045L17.964,82.938L17.772,82.919L17.601,82.957L17.255,83.156L17.127,83.180L16.652,83.133L15.698,82.913L14.778,82.887L14.348,82.898L14.069,82.931L14.001,83.072L14.015,83.160L14.137,83.220L14.026,83.268L13.886,83.222L13.717,83.269L13.558,83.360L13.450,83.444L13.389,83.508L13.324,83.598L13.286,83.699L13.302,83.796L13.373,83.873L13.491,83.901L13.569,83.945L13.535,84.035L13.305,84.036L13.029,84.020L12.840,83.964L12.975,83.848L12.995,83.827L13.017,83.812L13.033,83.796L13.081,83.770L13.130,83.774L13.169,83.761L13.185,83.686L13.107,83.524L13.070,83.407L12.947,83.312L12.830,83.234L12.672,83.221L12.484,83.182L12.225,83.193L11.989,83.278L11.863,83.330L11.796,83.452L11.746,83.558L11.824,83.630L11.851,83.777L11.912,83.837L11.958,83.909L11.838,83.950L11.617,83.936L11.358,83.903L11.027,83.894L10.758,83.936L10.696,84.059L10.676,84.113L10.626,84.169L10.570,84.355L10.503,84.352L10.390,84.430L10.255,84.485L10.057,84.512L9.916,84.459L9.864,84.358L9.895,84.220L9.951,84.151L9.911,84.064L9.932,84.009L10.027,83.927L10.085,83.856L10.100,83.814L10.107,83.730L10.123,83.661L10.197,83.553L10.217,83.484L10.213,83.389L10.194,83.369L10.161,83.386L10.123,83.400L10.107,83.413L10.058,83.469L10.027,83.484L9.998,83.473L9.925,83.414L9.893,83.400L9.828,83.388L9.794,83.362L9.766,83.331L9.720,83.308L9.657,83.301L9.475,83.308L9.386,83.286L9.331,83.283L9.266,83.308L9.131,83.298L9.308,82.761L9.341,82.219L9.380,81.578L9.414,81.027L9.437,80.651L9.456,80.558L9.488,80.496L9.570,80.411L9.605,80.361L9.621,80.139L9.559,79.884L9.532,79.647L9.649,79.478L9.767,79.448L9.874,79.451L9.970,79.428L10.055,79.320L10.086,79.207L10.144,78.757L10.214,78.222L10.267,77.821L10.311,77.475L10.362,77.083L10.410,76.884L10.490,76.710L10.625,76.601L11.295,76.403L11.494,76.265L11.597,76.211L11.711,76.175L11.941,76.135L11.992,76.068L12.012,75.910L12.106,75.754L12.315,75.783L12.562,75.874L12.770,75.904L12.891,75.838L12.886,75.746L12.832,75.628L12.801,75.480L12.841,75.400L13.015,75.222L13.073,75.110L13.068,75.070L13.046,75.033L13.030,74.991L13.040,74.935L13.075,74.886L13.123,74.855L13.232,74.810L13.277,74.783L13.349,74.728L13.395,74.707L13.447,74.701L13.564,74.707L13.621,74.691L13.654,74.661L13.699,74.577L13.743,74.541L13.795,74.525L14.725,74.423L14.838,74.382L14.885,74.344L14.929,74.296L14.976,74.266L15.036,74.278L15.098,74.310L15.145,74.314L15.317,74.273L15.365,74.254L15.406,74.231L15.443,74.201L15.501,74.091L15.543,74.033L15.604,74.015L15.982,74.024L16.417,74.035L16.919,74.048L17.136,74.083L17.355,74.089L17.517,74.052L17.570,74.057L17.618,74.080L17.658,74.109L17.701,74.133L17.757,74.135L17.882,74.009L17.940,73.751L17.985,72.817L18.025,72.715L18.117,72.666L18.342,72.628L18.425,72.549L18.443,72.432L18.397,72.328L18.327,72.223L18.277,72.103L18.249,71.376L18.257,71.300L18.281,71.235L18.340,71.148L18.361,71.083L18.421,70.980L18.531,70.931L18.652,70.930L18.747,70.969L18.558,70.535L18.479,70.414L18.420,70.347L18.369,70.314L18.232,70.263L18.169,70.222L18.025,70.086L17.956,70.060L17.900,70.058L17.596,70.158L17.525,70.160L17.432,70.151L17.284,70.158L16.993,70.251L16.849,70.274L16.526,70.340L16.375,70.349L16.199,70.310L16.069,70.235L16.024,70.220L15.985,70.227L15.909,70.273L15.865,70.274L15.782,70.227L15.541,70.006L15.629,70.000L15.684,69.958L15.718,69.886L15.744,69.794L15.754,69.689L15.726,69.619L15.617,69.483L15.909,68.805L15.943,68.537L15.913,68.202L15.860,67.608L15.832,67.285L15.786,66.765L15.752,66.382L15.607,65.764L15.504,65.318L15.593,64.586L15.675,63.925L15.648,63.700L15.524,63.623L14.615,63.812L14.503,63.739L14.152,63.350L14.072,63.211L14.035,63.099L13.997,63.034L13.939,62.996L13.847,62.966L13.756,62.914L13.700,62.835L13.652,62.749L13.587,62.672L13.433,62.590L12.700,62.438L12.238,62.227L12.060,62.187L11.691,62.155L11.523,62.101L11.258,61.945L10.926,61.850L10.823,61.793L10.647,61.586L10.295,61.253L10.064,60.947L9.491,60.417L9.330,60.216L9.171,59.861L9.011,59.679L8.982,59.583L8.969,59.475L8.937,59.350L8.702,58.801L8.653,58.735L8.591,58.684L8.519,58.651L8.476,58.617L8.464,58.580L8.479,58.540L8.519,58.499L8.570,58.443L8.589,58.385L8.573,58.329L8.519,58.285L8.424,58.244L8.382,58.151L8.352,58.041L8.295,57.950L8.235,57.917L8.184,57.911L8.134,57.892L8.074,57.824L8.046,57.751L8.031,57.590L8.014,57.518L7.942,57.407L7.766,57.210L7.713,57.079L7.713,56.953L7.779,56.727L7.789,56.601L7.738,56.438L7.640,56.368L7.523,56.321L7.415,56.231L6.958,55.679L6.523,55.153L6.105,54.648L5.742,54.209L5.448,53.860L5.000,53.324L5.176,53.405L5.572,53.534L6.034,53.685L6.498,53.835L6.960,53.986L7.422,54.136L7.884,54.287L8.347,54.437L8.809,54.588L9.271,54.738L9.733,54.888L10.196,55.039L10.659,55.190L11.121,55.340L11.583,55.490L12.046,55.641L12.508,55.791L12.970,55.942L13.498,56.113L14.070,56.223L14.765,56.157L14.925,56.142L15.197,56.116L15.469,56.090L15.742,56.064L16.014,56.038L16.286,56.012L16.559,55.986L16.831,55.960L17.103,55.934L17.376,55.908L17.648,55.882L17.920,55.857L18.192,55.831L18.464,55.804L18.737,55.778L19.010,55.752L19.282,55.726L20.130,55.646L21.348,55.883L22.371,56.083L23.004,56.360L23.156,56.297L23.358,55.897L23.485,55.731L23.680,55.630L25.179,55.177L25.300,55.178L26.325,55.187L27.082,55.193L28.006,55.362L28.282,55.371L29.088,55.133L29.410,55.039L29.733,54.943L30.056,54.848L30.378,54.753L30.700,54.658L31.022,54.563L31.345,54.467L31.667,54.372L31.990,54.277L32.313,54.182L32.635,54.086L32.958,53.991L33.279,53.896L33.603,53.801L33.925,53.706L34.248,53.611L34.721,53.471L35.163,53.150L35.310,52.954L35.425,52.755L35.458,52.736L35.505,52.720L35.526,52.690L35.480,52.629L35.309,52.496L35.081,52.262L34.885,52.125L34.852,52.038L34.866,51.936L34.947,51.692L35.305,50.959L35.330,50.835L35.317,50.446L35.422,49.595L35.408,49.464L35.377,49.332L35.334,49.249L35.200,49.075L35.106,48.820L35.123,48.539L35.668,46.470L35.719,46.381L35.813,46.330L36.564,46.177L36.689,46.122L37.211,45.586L37.317,45.438L37.505,44.713L37.640,44.620L37.853,44.591L37.996,44.481L38.125,44.333L38.291,44.190L38.666,44.006L38.873,43.947L39.200,43.940L39.282,43.983L39.321,44.072L39.332,44.216L39.318,44.268L39.288,44.308L39.265,44.347L39.273,44.398L39.315,44.432L39.384,44.455L39.512,44.477L39.624,44.479L39.837,44.426L39.948,44.421L40.059,44.455L40.261,44.567L40.375,44.607L40.467,44.618L40.755,44.604L41.111,44.636L41.213,44.617L41.598,44.454L41.928,44.409L42.133,44.321L42.430,44.266L42.533,44.228L42.887,44.002L42.959,43.935L43.036,43.880L43.126,43.853L43.351,43.862L43.436,43.823L43.493,43.702L43.467,43.433L43.266,43.368L42.805,43.429L42.695,43.398L42.584,43.329L42.504,43.233L42.471,42.981L42.399,42.870L42.317,42.772L42.277,42.676L42.348,42.562L42.523,42.558L42.884,42.638L43.056,42.620L43.224,42.552L43.344,42.469L43.527,42.341L43.869,41.959L44.024,41.884L44.100,41.881L44.268,41.909L44.493,41.897L44.554,41.865L44.616,41.777L44.709,41.702L45.001,41.542L45.032,41.496L45.051,41.360L45.078,41.302L45.261,41.135L45.288,41.086L45.323,41.024L45.441,40.749L45.512,40.664L45.626,40.656L45.768,40.706L45.891,40.772L46.032,40.887L46.090,40.972L46.159,41.040L46.280,41.058L46.500,41.047L46.720,41.065L47.302,41.271L47.508,41.304L47.603,41.274L47.724,41.203L47.796,41.122L47.745,41.065L47.637,41.050L47.305,41.058L47.184,41.038L47.087,40.996L47.068,40.933L47.176,40.849L47.416,40.722L47.548,40.677L47.672,40.675L47.858,40.747L48.183,40.930L48.495,40.986L48.565,41.025L48.602,41.104L48.618,41.364L48.660,41.459L48.803,41.624L49.059,41.991L49.207,42.094L49.427,42.069L49.780,41.890L49.968,41.830L50.170,41.844L50.319,41.782L50.519,41.640L50.694,41.481L50.767,41.365L50.852,41.312L50.931,41.224L51.539,40.296L51.690,40.134L51.956,39.937L51.969,39.914L51.989,39.877L51.974,39.794L51.799,39.304L51.690,38.695L51.695,38.556L51.738,38.283L51.740,38.011L51.779,37.736L51.785,37.596L51.765,37.460L51.621,37.100L51.562,36.823L51.589,36.557L51.693,36.313L51.862,36.106L51.974,36.035L52.204,35.956L52.302,35.876L52.595,35.445L52.662,35.318L52.680,35.239L52.624,35.026L52.614,34.913L52.599,34.865L52.561,34.837L52.513,34.817L52.465,34.785L52.425,34.743L52.396,34.693L52.386,34.567L52.446,34.480L52.635,34.342L52.771,34.156L52.915,34.049L52.947,34.020L53.002,33.833L52.898,33.135L52.952,33.025L53.005,32.915L53.152,32.733L53.337,32.615L53.561,32.586L53.675,32.589L53.855,32.556L53.907,32.571L53.955,32.593L54.005,32.602L54.106,32.578L54.367,32.394L54.583,32.359L54.954,32.540L55.189,32.524L55.605,32.276L55.660,32.265L55.821,32.278L55.888,32.250L55.931,32.192L56.117,31.849L56.182,31.823L56.315,31.867L56.435,31.876L56.543,31.817L57.486,31.045L57.525,30.833L57.437,30.633L57.144,30.313L57.116,30.266L57.075,30.162L57.035,30.128L56.880,30.079L56.837,30.050L56.760,29.952L56.711,29.837L56.691,29.713L56.700,29.591L56.814,29.185L56.817,29.029L56.796,28.987L56.753,28.957L56.661,28.914L56.610,28.873L56.586,28.840L56.553,28.740L56.506,28.485L56.451,28.416L56.214,28.456L55.916,28.332L55.831,28.321L55.698,28.303L55.614,28.253L55.557,28.128L55.517,28.003L55.469,27.907L55.337,27.719L55.288,27.616L55.214,27.372L55.164,27.288L55.001,27.131L54.968,27.035L55.040,26.941L55.139,26.844L55.150,26.748L55.131,26.652L55.143,26.550L55.235,26.460L55.384,26.410L55.678,26.366L55.866,26.379L57.066,26.785L57.381,26.814L57.571,26.907L57.673,26.935L58.122,26.954L58.580,27.049L58.749,27.055L59.495,26.952L60.245,26.959L60.639,26.887L60.738,26.697L60.762,26.615L60.817,26.600L60.967,26.646L61.069,26.655L61.149,26.629L61.214,26.572L61.277,26.484L61.391,26.446L61.664,26.391L61.752,26.311L61.778,26.190L61.759,26.088L61.753,25.983L61.814,25.854L61.969,25.683L62.004,25.597L62.012,25.442L61.996,25.313L61.942,25.087L61.943,24.971L62.106,24.522L62.082,24.363L61.687,24.151L61.514,23.992L61.357,23.808L61.242,23.642L61.189,23.521L61.158,23.377L61.165,23.236L61.230,23.122L61.312,23.086L61.325,23.080L61.443,23.079L61.668,23.113L61.770,23.065L61.829,22.936L61.848,22.779L61.828,22.646L61.786,22.502L61.794,22.404L61.852,22.328L62.242,22.023L62.457,21.916L62.532,21.844L62.824,21.445L62.908,21.225L63.012,21.027L63.209,20.882L63.877,20.624L63.959,20.592L64.012,20.547L64.052,20.478L64.100,20.329L64.144,20.261L64.144,20.261L64.145,20.261L64.205,20.219L64.244,20.167L64.253,20.106L64.223,20.041L64.231,19.759L64.375,19.588L64.759,19.333L64.899,19.128L64.947,19.002L64.924,18.915L64.754,18.785L64.447,18.448L64.347,18.286L64.357,18.112L64.527,17.902L64.798,17.677L64.852,17.583L64.861,17.457L64.814,17.370L64.741,17.291L64.700,17.235L64.669,17.191L64.635,17.048L64.659,16.926L64.697,16.810L64.700,16.686L64.649,16.591L64.558,16.526L64.252,16.384L64.141,16.299L64.088,16.189L64.158,16.060L64.259,15.938L64.291,15.821L64.266,15.707L64.196,15.594L64.160,15.558L64.078,15.497L64.045,15.452L64.021,15.380L64.020,15.322L64.026,15.266L64.020,15.202L63.983,15.107L63.798,14.791L63.719,14.694L63.467,14.525L63.407,14.427L63.384,14.216L63.301,14.125L63.140,14.060L62.983,14.027L62.834,13.968L62.692,13.824L62.614,13.768L62.414,13.664L62.353,13.611L62.348,13.587L62.326,13.491L62.378,13.391L62.557,13.221L62.585,13.162L62.613,13.025L62.643,12.978L62.861,12.845L63.030,12.769L63.082,12.734L63.120,12.673L63.148,12.536L63.177,12.494L63.528,12.378L63.641,12.296L64.065,11.851L64.158,11.792L64.262,11.756L64.397,11.730L64.505,11.675L64.474,11.590L64.416,11.491L64.443,11.393L64.583,11.264L64.627,11.195L64.674,11.091L64.741,10.893L64.795,10.837L64.898,10.827L65.010,10.871L65.330,11.072L65.494,11.236L65.575,11.267L65.664,11.263L65.751,11.232L65.816,11.161L65.800,11.073L65.706,10.898L65.699,10.695L65.813,10.626L66.173,10.604L66.262,10.572L66.334,10.515L66.401,10.448L66.478,10.389L66.741,10.247L66.831,10.161L66.946,10.100L67.174,10.048L67.263,9.969L67.271,9.910L67.248,9.856L67.238,9.803L67.286,9.748L67.352,9.715L67.492,9.672L67.814,9.630L67.911,9.577L67.872,9.472L67.789,9.348L67.810,9.265L67.901,9.206L68.144,9.109L68.635,9.004L68.881,8.990L69.109,8.920L69.364,8.935L69.480,8.906L69.828,8.631L70.097,8.503L70.455,8.423L70.823,8.399L71.287,8.463L71.777,8.439L71.939,8.397L72.074,8.330L72.211,8.299L72.383,8.364L72.459,8.367L72.525,8.338L72.658,8.252L72.748,8.221L73.578,8.139L73.753,8.157L73.916,8.197L73.998,8.207L74.078,8.197L74.355,8.107L74.621,8.125L74.989,8.078L75.161,8.102L75.341,8.129L76.067,8.013L76.453,8.029L76.462,8.029L76.463,8.029L76.466,8.029L76.805,8.043L77.145,8.102L77.317,8.168L77.771,8.436L77.937,8.475L78.101,8.534L78.262,8.535L78.590,8.434L78.643,8.369L78.670,8.148L78.706,8.059L78.786,8.002L78.877,7.980L79.242,8.023L79.375,7.977L79.647,7.771L80.110,7.497L80.255,7.386L80.485,7.327L80.604,7.319L80.713,7.352L80.734,7.367L80.752,7.386L80.853,7.525L80.962,7.615L81.051,7.591L81.089,7.386L81.110,7.337L81.117,7.290L81.106,7.247L81.078,7.208L81.186,7.157L81.543,7.072L81.745,6.997L81.831,7.015L81.911,7.117L82.060,7.242L82.468,7.250L82.644,7.385L82.645,7.385L82.805,7.612L82.847,7.689L82.880,7.885L82.911,7.946L82.986,7.918L83.020,7.856L83.069,7.670L83.123,7.589L83.203,7.535L83.300,7.496L83.491,7.449L83.700,7.447L84.176,7.385L84.278,7.404L84.358,7.446L84.516,7.578L84.704,7.677L85.361,7.806L85.571,7.890L85.719,8.028L85.811,8.221L85.850,8.469L85.860,8.733L85.900,8.974L86.019,9.131L86.356,9.146L86.391,9.101L86.407,9.034L86.441,8.972L86.789,8.849L87.229,8.931L87.667,9.130L88.011,9.357L88.340,9.635L88.479,9.797L89.044,10.807L89.045,10.813L89.069,10.918ZM41.274,90.633L41.356,90.719L41.483,90.723L41.732,90.633L41.842,90.707L41.884,90.724L41.883,90.724L41.772,90.775L41.747,90.865L41.709,90.950L41.559,90.988L41.462,90.950L41.373,90.856L41.329,90.778L41.307,90.739L41.274,90.633Z" fill="currentColor" stroke="currentColor" stroke-width="1.5" stroke-linejoin="round"/>
</svg>