<svg xmlns="http://www.w3.org/2000/svg" viewBox="0 0 100 100" role="img" aria-label="Panama">
  <title>Panama</title>
  <path d="M12.329,32.102L12.508,32.212L13.979,33.372L14.881,34.279L15.456,34.593L15.856,34.321L15.821,34.585L15.752,34.792L15.337,35.516L15.296,35.692L15.344,35.904L15.474,36.048L15.647,36.161L15.774,36.282L15.762,36.450L15.555,36.614L15.171,36.583L15.135,36.757L15.059,36.877L15.079,36.954L15.153,36.985L15.241,36.968L15.391,37.071L15.524,37.251L15.621,37.458L15.657,37.654L15.737,37.801L16.283,38.137L16.388,38.137L16.503,37.958L16.689,37.935L16.778,37.881L16.597,37.600L16.800,37.656L16.877,37.813L16.921,37.998L17.023,38.137L17.190,38.182L17.306,38.114L17.358,37.951L17.335,37.705L17.441,37.705L17.455,37.909L17.563,38.010L17.686,38.025L17.744,37.969L17.751,37.780L17.780,37.643L17.847,37.604L17.962,37.705L17.977,37.658L17.976,37.616L17.995,37.594L18.067,37.600L18.096,37.741L18.138,37.850L18.197,37.939L18.276,38.022L18.379,38.022L18.379,37.917L18.484,37.917L18.443,38.149L18.470,38.571L18.379,38.760L17.914,38.473L17.669,38.382L17.280,38.348L17.110,38.468L17.063,38.739L17.110,39.027L17.222,39.201L17.222,39.297L17.137,39.261L16.910,39.201L16.992,39.421L17.357,39.614L17.441,39.777L17.335,40.784L17.266,40.768L17.220,40.751L17.179,40.725L17.118,40.678L17.380,40.933L17.750,41.105L18.119,41.142L18.379,40.994L18.928,41.173L19.122,41.290L19.119,41.416L19.346,41.763L19.423,41.847L19.459,41.900L19.484,42.003L19.536,42.059L19.599,42.074L19.770,42.057L20.061,42.072L20.788,41.847L21.129,41.814L21.320,41.893L21.480,42.003L21.727,42.059L21.950,42.004L22.172,41.870L22.305,41.695L22.259,41.522L22.431,41.449L22.565,41.448L22.780,41.522L22.810,41.580L22.957,41.709L23.121,41.786L23.197,41.685L23.351,41.646L24.250,42.059L24.524,41.925L24.599,41.659L24.543,41.042L23.510,40.457L22.972,39.654L22.832,39.517L22.633,39.429L22.349,39.226L22.111,39.006L22.050,38.866L22.285,38.869L22.673,38.967L23.036,39.001L23.197,38.813L22.702,38.578L22.464,38.406L22.571,38.233L22.885,38.230L23.149,38.428L23.510,38.866L23.863,39.132L23.927,39.201L23.905,39.333L23.780,39.373L23.624,39.350L23.510,39.297L23.510,39.402L23.634,39.553L23.755,39.685L23.831,39.911L23.944,39.955L24.145,39.955L24.504,39.999L24.731,40.018L25.114,40.432L25.354,40.508L25.579,41.015L25.654,41.090L25.869,41.247L26.785,42.561L27.400,43.221L27.703,43.420L27.793,43.561L27.958,43.739L28.137,43.892L28.271,43.957L28.406,43.987L28.684,44.077L28.868,44.077L29.139,43.990L29.933,44.147L30.118,44.090L30.544,44.090L30.904,44.322L31.722,44.372L32.306,44.258L33.118,44.218L33.703,44.142L34.382,44.065L35.034,43.957L35.153,44.017L35.294,43.986L35.434,43.888L35.555,43.746L36.754,43.349L37.918,42.862L38.181,42.768L38.745,42.787L39.087,42.691L39.233,42.506L39.364,42.356L39.681,41.942L39.849,41.722L40.003,41.627L40.054,41.578L40.105,41.469L40.184,41.360L40.321,41.311L40.548,41.045L40.905,40.877L41.461,40.543L41.673,40.457L41.919,40.204L42.802,39.756L43.911,39.290L45.415,38.805L47.183,38.665L47.415,38.587L47.914,38.297L48.064,38.233L48.599,38.173L49.165,38.022L49.672,37.817L50.114,37.568L50.658,36.948L51.254,36.421L51.642,36.052L51.677,35.877L51.976,35.390L52.361,35.234L52.457,35.243L52.514,35.386L52.481,35.969L52.514,36.123L52.598,36.227L52.732,36.304L52.889,36.319L53.044,36.238L53.158,35.957L53.178,35.645L53.263,35.497L53.566,35.702L53.533,35.571L53.495,35.306L53.462,35.175L53.498,35.203L53.566,35.270L53.671,35.175L53.482,34.907L53.622,34.759L53.797,34.838L54.085,34.813L54.426,34.962L54.705,35.430L54.818,35.606L54.756,35.267L54.677,35.030L54.669,34.815L54.818,34.543L55.044,34.336L55.501,34.167L55.757,34.005L55.790,33.959L55.831,33.845L55.861,33.793L55.913,33.755L56.014,33.590L56.155,33.504L56.381,33.344L56.478,32.947L56.584,32.575L56.854,32.470L56.977,32.357L56.903,32.276L56.732,32.340L56.597,32.377L56.511,32.282L56.609,32.218L56.699,32.153L56.781,31.991L57.002,31.895L57.173,31.757L57.303,31.604L57.580,31.523L57.824,31.556L58.125,31.460L58.515,31.282L58.792,31.359L58.867,31.542L58.949,31.690L58.951,31.807L58.792,31.896L58.792,31.992L58.942,32.058L58.946,32.094L59.001,32.212L59.076,32.159L59.130,32.128L59.174,32.084L59.218,31.992L59.322,31.992L59.416,32.064L59.541,32.120L59.845,32.212L59.852,32.079L59.959,31.790L60.039,31.929L60.141,31.985L60.253,31.971L60.366,31.896L60.946,32.036L61.800,32.131L62.767,32.398L63.272,32.576L63.974,32.667L64.260,32.516L64.547,32.430L64.898,32.454L65.161,32.478L65.425,32.414L65.711,32.328L66.194,32.287L66.737,32.194L67.384,32.147L67.587,32.271L67.586,32.444L67.324,32.588L67.135,32.551L66.982,32.666L66.815,32.680L66.350,32.736L66.096,32.785L65.928,33.067L65.969,33.429L66.047,33.929L66.316,34.017L66.563,33.960L66.722,34.033L66.918,33.998L67.115,33.970L67.282,33.942L67.448,33.978L67.659,33.979L67.927,34.089L68.086,34.141L68.223,34.255L68.339,34.348L68.412,34.470L68.527,34.447L68.724,34.433L68.847,34.441L68.999,34.478L69.188,34.457L69.269,34.313L69.435,34.277L69.718,34.344L70.153,34.259L70.279,34.115L70.539,34.167L70.714,34.139L70.883,34.075L71.087,33.974L71.245,34.177L71.493,34.295L71.689,34.275L72.197,34.414L72.538,34.380L72.740,34.533L72.987,34.571L73.205,34.478L73.381,34.331L73.638,34.236L73.865,34.293L74.160,34.492L74.379,34.577L74.882,34.577L75.133,34.753L75.299,34.687L75.526,34.757L75.686,34.918L75.859,35.066L76.275,35.259L76.434,35.353L76.649,35.423L77.045,35.503L77.363,35.679L77.589,35.854L77.828,35.962L77.975,36.030L78.121,36.045L78.320,36.100L78.519,36.221L78.758,36.356L79.036,36.518L79.275,36.560L79.515,36.522L79.661,36.577L79.847,36.685L80.046,36.713L80.324,36.888L80.473,37.082L80.868,37.172L81.359,37.242L81.651,37.351L81.839,37.504L81.896,37.703L82.226,38.055L82.425,38.085L82.694,38.213L83.202,38.795L83.460,39.201L83.666,39.468L83.893,39.810L84.419,40.164L84.341,39.951L84.274,39.763L84.103,39.403L84.084,39.166L84.352,39.297L84.549,39.650L84.672,39.821L85.089,40.106L85.146,40.457L85.298,40.628L85.487,40.742L85.718,40.941L85.771,41.121L85.904,41.288L86.072,41.426L86.120,41.565L85.970,41.842L86.268,42.184L86.481,42.666L86.641,42.836L86.783,42.713L86.849,42.741L86.867,42.959L87.161,43.140L87.473,43.424L87.816,43.822L88.108,43.957L88.029,43.830L87.929,43.734L87.842,43.630L87.804,43.477L87.883,43.405L88.052,43.548L88.213,43.749L88.268,43.851L88.723,44.204L88.665,44.477L88.948,44.714L89.035,44.451L89.187,44.480L89.318,44.744L89.269,44.998L89.239,45.234L89.171,45.411L89.364,45.587L89.844,45.917L90.207,46.101L90.707,46.187L91.181,46.151L91.465,45.970L91.525,46.045L91.599,46.106L91.688,46.151L91.787,46.181L91.766,46.394L91.606,46.507L91.359,46.532L91.113,46.587L90.863,46.745L90.847,46.862L90.921,47.020L90.938,47.295L90.754,47.680L90.323,48.142L90.155,48.321L90.028,48.779L90.027,49.133L90.165,49.222L90.625,49.179L90.883,49.265L91.042,49.399L91.294,49.831L91.516,50.370L91.643,51.430L91.774,51.980L91.945,52.246L92.139,52.319L92.343,52.331L92.539,52.414L92.652,52.574L92.984,53.275L93.378,53.859L93.520,54.070L93.964,54.924L94.292,56.129L94.320,56.502L94.420,56.727L94.568,56.868L94.732,56.987L94.881,57.145L95.000,57.387L94.912,57.452L94.346,57.446L93.887,57.542L93.373,57.714L92.904,57.961L92.581,58.287L92.190,59.170L91.740,59.745L91.690,59.934L91.894,60.386L92.208,60.686L92.303,60.971L91.855,61.380L89.712,62.719L89.015,63.423L88.632,63.734L88.286,63.770L88.123,63.593L87.938,62.822L87.822,62.617L87.398,62.040L87.358,62.011L87.229,61.979L87.183,61.938L87.184,61.880L87.247,61.742L87.254,61.702L87.105,61.532L86.342,60.877L86.184,60.792L85.817,60.994L85.721,61.562L85.793,62.219L85.930,62.696L86.275,63.372L86.321,63.704L86.184,64.101L85.956,64.387L85.664,64.563L85.327,64.616L84.962,64.535L84.430,66.252L83.806,68.264L83.795,68.261L83.455,68.163L83.015,67.761L82.360,66.938L82.116,66.760L81.995,66.628L81.942,66.454L81.977,66.293L82.038,66.131L82.066,65.972L81.995,65.817L81.908,65.750L81.865,65.779L81.834,65.840L81.787,65.874L81.666,65.825L81.632,65.726L81.663,65.646L81.734,65.653L81.551,65.372L81.451,65.316L81.307,65.442L81.213,65.442L80.844,65.019L80.601,64.799L80.420,64.704L80.371,64.637L80.333,64.489L80.260,64.340L80.108,64.273L80.012,64.205L79.937,64.051L79.837,63.745L79.743,63.745L79.677,63.977L79.643,63.826L79.628,63.285L79.552,63.007L79.391,62.946L79.243,63.069L79.212,63.343L79.128,63.140L79.154,62.996L79.210,62.861L79.212,62.691L79.154,62.528L79.090,62.440L78.908,62.279L78.582,61.857L78.359,61.686L78.064,61.646L78.100,61.476L78.034,61.349L77.904,61.261L77.751,61.215L77.897,60.919L77.974,60.707L77.964,60.506L77.856,60.247L77.396,59.540L77.324,59.364L77.181,58.870L76.849,58.454L76.470,58.083L76.186,57.724L75.987,57.249L75.864,56.756L75.858,56.570L75.894,56.393L75.864,56.239L75.589,55.742L75.550,55.549L75.632,55.258L75.811,54.975L75.991,54.870L76.168,55.369L76.388,55.466L76.634,55.430L76.812,55.280L77.246,55.508L77.838,55.202L78.361,54.634L78.586,54.071L78.557,53.755L78.475,53.562L78.344,53.425L78.168,53.276L77.721,52.754L77.542,52.643L77.542,52.528L77.957,52.572L78.088,52.550L78.282,52.433L78.282,52.317L78.193,52.273L78.148,52.228L78.117,52.175L78.064,52.106L78.186,52.057L78.222,52.051L78.282,51.895L78.411,51.982L78.586,52.147L78.689,52.211L78.824,52.249L78.941,52.245L79.163,52.211L79.187,52.150L79.375,51.891L79.419,51.847L79.397,51.424L79.419,51.263L79.464,51.234L79.743,50.946L79.807,50.803L79.835,50.667L79.837,50.361L79.902,50.278L80.046,50.208L80.190,50.188L80.254,50.256L80.331,50.819L80.368,50.946L80.519,51.074L80.770,51.212L81.043,51.323L81.260,51.368L81.435,51.468L81.566,51.701L81.834,52.437L81.983,52.641L82.176,52.788L82.407,52.845L82.480,52.814L82.642,52.765L82.806,52.772L82.925,52.992L83.031,53.075L83.166,53.137L83.298,53.161L83.507,53.161L83.507,53.065L83.273,53.014L83.059,52.888L82.889,52.716L82.787,52.528L83.550,52.675L83.957,52.824L84.216,53.121L84.582,53.320L84.664,53.429L84.679,53.659L84.727,53.821L84.824,53.935L84.977,54.014L85.142,53.919L85.312,54.013L85.445,54.225L85.499,54.489L85.605,54.660L85.842,54.721L86.090,54.652L86.230,54.436L85.804,54.440L85.242,53.755L84.977,53.803L84.192,52.807L84.038,52.691L83.813,52.564L82.455,52.317L82.124,52.185L81.860,51.962L81.684,51.666L81.620,51.315L81.287,50.642L81.190,50.228L81.421,49.997L81.256,49.889L81.072,49.737L80.902,49.554L80.776,49.354L80.709,49.100L80.754,48.955L80.839,48.851L80.890,48.722L80.868,48.529L80.780,48.480L80.642,48.447L80.473,48.300L80.398,48.127L80.382,47.980L80.333,47.860L80.160,47.772L80.223,47.915L80.235,48.304L80.312,48.453L80.516,48.586L80.592,48.601L80.598,48.648L80.587,49.156L80.613,49.292L80.825,49.794L80.846,49.955L80.776,50.102L80.682,50.102L80.392,49.613L80.207,49.373L80.056,49.249L79.818,49.248L79.615,49.380L79.473,49.620L79.419,49.945L79.329,50.182L79.101,50.364L78.814,50.482L78.538,50.525L78.408,50.473L78.351,50.352L78.348,50.212L78.377,50.102L78.466,49.997L78.908,49.777L78.967,49.828L79.008,49.853L79.117,49.892L79.135,49.385L79.056,48.915L78.803,48.080L78.689,48.080L78.582,48.300L78.657,48.442L78.803,48.563L78.908,48.722L78.886,48.996L78.768,49.216L78.693,49.398L78.803,49.566L78.803,49.681L78.755,49.715L78.702,49.739L78.586,49.777L78.519,49.652L78.427,49.583L78.340,49.532L78.282,49.469L78.232,49.334L78.258,49.318L78.319,49.322L78.377,49.249L78.541,48.953L78.523,48.806L78.282,48.722L78.355,48.915L78.322,49.006L78.241,49.059L78.168,49.143L77.959,49.566L77.714,49.602L77.580,49.432L77.438,48.933L77.324,49.048L77.309,49.247L77.098,49.557L76.820,49.824L76.603,49.892L76.462,49.632L76.303,48.718L76.186,48.406L76.244,48.301L76.281,48.195L76.186,48.195L76.186,48.300L76.072,48.300L76.072,47.984L75.977,47.984L75.919,48.363L76.197,49.129L76.345,49.869L76.632,50.106L76.699,50.361L76.281,51.263L76.220,51.129L76.110,51.061L75.983,51.012L75.954,50.996L75.864,50.946L75.511,50.511L75.342,50.409L75.424,50.221L75.412,49.945L75.339,49.666L75.237,49.469L75.124,49.556L75.062,49.650L75.034,49.760L75.020,49.892L74.949,49.745L74.782,49.532L74.715,49.354L74.706,49.137L74.820,48.617L74.715,48.348L74.269,47.745L74.090,47.552L74.319,47.563L74.486,47.614L74.637,47.633L74.820,47.552L74.570,47.356L74.485,47.195L74.508,46.656L73.559,46.392L73.638,46.155L73.673,46.085L73.572,46.072L73.520,46.096L73.454,46.181L73.329,46.098L73.211,46.106L73.099,46.154L72.989,46.181L72.855,46.104L72.758,45.923L72.620,45.548L72.837,45.370L72.918,45.091L72.902,44.773L72.829,44.484L72.715,44.484L72.693,44.733L72.754,45.052L72.745,45.273L72.515,45.231L72.259,45.514L71.790,44.899L71.368,44.906L71.069,44.720L70.764,44.064L70.523,43.851L70.523,43.746L70.638,43.746L70.638,43.640L70.411,43.573L70.268,43.430L70.149,43.259L69.992,43.113L70.114,43.371L70.141,43.573L70.045,43.729L69.794,43.851L69.565,43.889L69.410,43.830L69.111,43.477L69.004,43.233L68.943,42.935L68.861,42.683L66.854,41.627L66.054,41.450L65.666,41.175L65.602,41.090L65.582,40.939L65.625,40.852L65.685,40.766L65.715,40.620L65.722,40.301L65.699,40.032L65.577,39.862L65.288,39.834L65.288,39.719L65.616,39.695L65.866,39.561L66.039,39.347L66.132,39.087L66.228,39.087L66.363,39.296L66.511,39.287L66.758,39.087L67.069,38.976L67.207,38.895L67.280,38.760L67.183,38.809L66.977,38.825L66.854,38.866L66.752,38.946L66.557,39.159L66.492,39.201L66.370,39.155L66.330,39.057L66.283,38.978L66.132,38.981L66.038,39.062L65.851,39.342L65.763,39.402L65.727,39.435L65.679,39.508L65.593,39.581L65.445,39.614L65.303,39.621L65.190,39.650L65.115,39.717L65.090,39.834L65.184,39.940L65.381,39.998L65.559,40.131L65.602,40.457L65.532,40.647L65.374,40.910L65.161,41.093L64.924,41.042L64.824,40.990L64.454,40.888L64.438,40.820L64.363,40.696L64.283,40.654L64.245,40.837L63.986,40.922L62.758,40.705L62.358,40.784L62.263,40.784L62.263,40.678L61.887,40.795L61.024,40.711L60.680,40.888L60.544,40.784L60.402,40.796L60.255,40.854L59.990,40.905L59.800,40.977L59.684,40.994L59.569,41.028L59.538,41.099L59.528,41.172L59.479,41.205L59.431,41.258L59.001,41.522L58.970,41.660L58.985,41.792L58.955,41.894L58.792,41.943L59.057,42.393L59.114,42.576L58.913,42.434L58.666,42.187L58.459,41.897L58.375,41.627L58.280,41.627L58.301,41.717L58.328,41.774L58.375,41.847L58.375,41.943L58.280,41.943L58.390,42.326L58.318,42.659L58.095,42.821L57.748,42.691L57.051,42.815L56.831,42.930L56.914,43.113L56.914,43.209L56.745,43.152L56.636,43.079L56.534,43.047L56.383,43.113L56.338,43.062L56.320,43.037L56.284,43.023L56.183,43.008L56.183,43.113L56.226,43.166L56.250,43.245L56.288,43.324L56.025,43.279L55.777,43.407L55.573,43.627L55.443,43.851L55.379,44.149L55.443,45.069L55.476,45.157L55.548,45.204L55.620,45.235L55.652,45.284L55.637,45.382L55.606,45.465L55.558,45.548L55.523,45.668L55.462,45.797L55.382,45.921L55.292,46.027L55.231,46.072L55.040,46.164L54.848,46.204L54.837,46.262L54.855,46.331L54.818,46.392L54.557,46.461L54.308,46.586L54.501,46.779L55.022,46.897L55.515,46.698L55.974,46.466L56.150,46.369L56.206,46.296L56.280,46.296L56.286,46.426L56.229,46.539L55.713,46.942L55.101,47.497L54.807,47.610L54.308,47.775L53.731,47.917L53.617,48.064L53.644,48.234L53.614,48.353L53.566,48.406L53.488,48.438L53.316,48.474L53.253,48.501L53.021,48.718L52.913,48.796L52.774,48.828L52.691,48.893L52.543,49.183L52.466,49.249L52.434,49.308L52.109,49.590L51.031,50.302L50.418,50.706L49.731,51.064L48.666,51.615L48.217,51.799L47.487,51.895L47.351,51.878L47.155,51.808L47.070,51.799L46.935,51.836L46.669,51.965L46.547,52.001L46.131,51.895L45.929,51.763L45.837,51.655L45.912,51.579L45.760,51.640L45.752,51.708L45.775,51.791L45.714,51.895L45.435,52.077L44.469,53.041L44.348,53.324L44.399,54.804L44.379,54.984L44.343,55.038L44.252,55.174L44.500,55.293L44.611,55.588L44.685,55.890L44.821,56.027L45.047,56.075L45.630,56.331L45.808,56.459L46.323,56.615L46.646,57.170L46.866,57.817L47.070,58.251L48.530,59.422L49.457,60.268L50.854,62.054L51.566,63.365L51.753,63.821L51.736,64.119L51.501,64.709L51.381,64.839L51.195,64.884L50.786,64.905L50.661,64.929L49.583,65.337L48.621,65.335L48.435,65.442L48.250,65.356L47.839,65.259L47.696,65.126L47.591,65.126L47.455,65.194L46.965,65.337L46.965,65.442L47.162,65.420L47.321,65.380L47.459,65.320L47.591,65.241L47.696,65.337L46.597,65.699L46.190,65.995L46.131,66.401L46.392,66.838L46.343,66.980L45.965,67.034L45.859,67.064L45.739,67.137L45.640,67.225L45.599,67.298L45.560,67.468L45.460,67.528L45.322,67.565L45.173,67.667L45.107,67.795L45.112,67.903L45.097,67.998L44.973,68.088L44.857,68.098L44.568,68.008L44.404,67.983L42.534,68.218L42.424,68.239L40.758,68.552L39.531,68.597L39.216,68.511L39.112,68.511L39.033,68.600L38.955,68.631L38.877,68.600L38.799,68.511L38.695,68.511L38.486,68.718L38.313,68.612L38.069,68.203L37.987,68.135L37.875,68.063L37.741,68.007L37.595,67.983L37.448,67.934L37.441,67.824L37.511,67.716L37.595,67.667L37.657,67.599L37.640,67.267L37.652,67.139L37.731,67.030L37.903,66.898L37.963,66.823L38.019,66.617L38.031,66.332L37.968,66.078L37.578,65.840L37.584,65.550L37.746,65.073L37.672,64.873L37.120,64.273L37.067,64.242L36.952,64.134L36.880,64.019L37.066,63.911L37.096,63.779L37.113,63.623L37.173,63.491L37.194,63.312L37.051,63.096L36.848,62.905L36.693,62.797L36.693,62.691L36.807,62.691L36.807,62.585L36.068,61.847L35.917,61.762L35.801,61.728L35.743,61.675L35.764,61.530L35.836,61.393L35.949,61.296L36.101,61.262L36.286,61.310L36.212,61.177L36.040,61.042L35.848,60.939L35.712,60.898L35.689,60.825L35.973,60.361L35.807,60.372L35.658,60.354L35.536,60.310L35.442,60.246L35.494,60.234L35.537,60.236L35.560,60.219L35.555,60.150L35.202,60.082L35.059,59.861L35.068,59.626L35.180,59.518L35.266,59.484L35.343,59.412L35.445,59.339L35.608,59.306L35.799,59.306L35.953,59.279L36.049,59.188L36.068,58.990L35.973,58.990L35.627,59.188L35.520,58.775L35.555,57.821L35.225,58.437L34.992,58.645L34.816,58.347L34.721,58.347L34.755,58.513L34.813,58.633L34.902,58.719L35.034,58.779L35.034,58.885L34.341,58.885L34.199,58.852L34.008,58.707L33.820,58.674L33.434,58.560L33.358,58.317L33.319,58.092L33.042,58.032L33.193,58.095L33.238,58.149L33.251,58.251L33.048,58.318L33.086,58.442L33.356,58.674L33.620,58.814L33.668,58.832L33.643,58.969L33.599,59.080L33.574,59.173L33.857,59.708L33.709,60.110L33.369,60.438L33.042,60.677L32.976,60.552L32.964,60.477L32.990,60.423L33.042,60.361L33.042,60.246L32.828,60.233L32.616,60.246L32.616,60.361L32.777,60.406L32.867,60.499L33.042,60.783L32.836,60.861L32.746,60.850L32.616,60.783L32.727,60.968L32.834,61.100L32.928,61.100L33.132,60.988L33.356,60.898L33.421,61.071L33.356,61.741L33.387,61.922L33.392,62.027L33.356,62.163L33.298,62.239L33.113,62.389L33.042,62.489L32.928,62.489L32.798,62.392L32.306,62.127L32.198,62.110L32.115,61.916L31.925,61.845L31.572,61.847L30.308,61.492L29.894,61.530L29.831,61.352L29.728,61.196L29.606,61.076L29.486,61.003L29.133,61.092L28.681,61.053L28.340,60.906L28.319,60.677L28.449,60.636L28.734,60.486L28.906,60.323L28.305,60.147L28.137,60.197L28.120,60.466L27.768,60.213L27.589,60.150L27.589,60.044L27.689,59.909L27.605,59.780L27.464,59.640L27.389,59.469L27.415,59.216L27.484,59.051L27.703,58.779L27.703,58.674L27.594,58.601L27.482,58.573L27.374,58.594L27.275,58.674L27.182,58.674L27.067,58.568L27.067,58.453L27.210,58.336L27.208,58.225L27.083,58.151L26.859,58.147L26.906,57.911L26.920,57.653L27.008,57.508L27.275,57.609L27.236,57.472L27.174,57.376L26.963,57.188L27.034,57.073L27.008,56.848L27.067,56.660L26.880,56.737L26.792,56.714L26.764,56.730L26.764,56.924L26.837,57.138L26.861,57.253L26.810,57.303L26.697,57.285L26.618,57.233L26.570,57.149L26.555,57.034L26.504,56.865L26.235,56.491L26.128,56.344L25.910,55.760L25.815,55.605L25.722,55.845L25.703,55.970L25.710,56.124L25.550,55.965L25.548,55.741L25.520,55.525L25.285,55.395L25.285,55.280L25.414,55.355L25.533,55.389L25.634,55.368L25.710,55.280L25.815,55.280L25.867,55.325L25.901,55.343L26.024,55.395L25.503,54.436L25.165,54.014L25.014,53.774L24.971,53.486L24.876,53.486L24.788,53.659L24.751,53.830L24.800,53.960L24.971,54.014L24.877,54.148L24.647,54.398L24.544,54.542L24.450,54.542L24.175,54.331L22.980,53.856L22.845,53.772L22.209,53.620L21.993,53.592L21.830,53.492L21.890,53.263L22.145,52.845L21.961,52.902L21.756,53.035L21.588,53.220L21.519,53.429L21.424,53.475L21.213,53.342L20.893,53.065L20.668,53.232L20.173,53.201L19.671,53.045L19.423,52.845L19.328,52.845L19.301,53.126L18.918,53.977L18.885,53.948L18.818,53.914L18.797,53.908L18.797,54.014L18.702,54.014L18.844,53.654L18.839,53.540L18.702,53.592L18.719,53.465L18.744,53.371L18.796,53.308L18.902,53.276L18.902,53.160L18.696,53.178L18.433,53.333L18.223,53.371L18.091,53.326L17.896,53.120L17.744,53.065L17.744,52.960L17.822,52.936L17.891,52.879L17.962,52.845L17.785,52.368L17.769,52.151L17.858,52.001L17.858,51.895L17.768,51.825L17.751,51.748L17.787,51.664L17.858,51.579L17.876,51.620L17.872,51.662L17.888,51.691L17.962,51.684L17.888,51.478L17.906,51.319L18.029,51.208L18.276,51.148L17.917,51.136L17.730,51.151L17.649,51.205L17.404,51.711L17.389,51.799L17.091,51.772L16.860,51.672L16.748,51.472L16.814,51.148L16.563,51.256L16.297,51.339L16.026,51.355L15.762,51.263L15.790,51.364L15.823,51.583L15.856,51.684L15.613,51.721L15.177,51.947L14.980,52.001L14.692,51.923L14.474,51.748L14.442,51.566L14.719,51.463L14.719,51.368L14.589,51.316L14.519,51.226L14.497,51.101L14.510,50.946L14.355,51.063L14.331,51.254L14.263,51.451L13.979,51.579L13.979,51.684L14.043,51.770L14.104,51.876L14.155,51.992L14.187,52.106L13.899,52.168L13.793,52.164L13.666,52.106L13.275,52.179L12.649,52.010L11.579,51.579L11.025,51.463L10.419,51.463L9.817,51.545L8.737,51.882L8.273,52.147L7.915,52.525L7.690,53.065L7.649,53.701L7.757,54.350L8.117,55.395L8.117,55.491L7.921,55.694L7.828,55.949L7.694,56.080L7.378,55.912L7.473,55.560L7.549,54.870L6.744,53.100L6.674,52.609L6.570,52.451L6.302,52.310L6.163,52.290L5.979,52.364L5.882,52.358L5.797,52.290L5.649,52.072L5.568,51.985L5.140,51.732L5.000,51.582L5.017,51.388L5.152,51.278L5.848,50.886L6.524,50.238L6.963,50.012L7.395,49.879L7.794,49.682L8.132,49.264L8.275,48.809L8.320,48.266L8.230,47.189L8.109,46.720L7.919,46.321L7.663,45.960L7.184,45.421L7.048,45.218L6.972,45.000L6.991,44.769L7.114,44.636L7.569,44.351L7.712,44.186L7.714,43.975L7.593,43.900L7.520,43.830L7.669,43.632L7.847,43.504L9.423,42.857L9.880,42.578L10.090,42.234L10.102,42.215L10.041,42.069L9.647,41.403L9.440,41.265L8.745,41.028L8.043,40.508L7.700,40.355L7.610,40.302L7.542,40.207L7.499,40.085L7.444,39.968L7.338,39.889L7.197,39.890L6.740,40.082L6.738,39.911L6.705,37.381L6.682,35.529L6.665,34.250L6.704,33.953L6.833,33.737L7.118,33.636L7.933,33.525L8.161,33.394L8.185,33.269L8.115,33.225L8.015,33.195L7.950,33.106L7.844,32.682L7.659,32.354L7.687,32.210L7.860,31.965L8.144,31.724L8.426,31.692L9.311,32.046L9.949,32.586L10.096,32.641L10.219,32.584L10.375,32.761L10.571,33.133L10.733,33.314L10.884,33.385L11.151,33.467L11.435,33.516L11.638,33.484L11.736,33.287L11.800,32.694L11.909,32.527L12.141,32.565L12.375,32.689L12.494,32.681L12.329,32.102ZM24.032,67.456L24.180,67.399L24.304,67.414L24.448,67.450L24.658,67.456L24.470,67.609L24.266,68.008L24.136,68.204L24.196,68.282L24.250,68.405L24.136,68.405L23.902,67.705L23.927,67.571L23.863,67.484L23.857,67.436L23.927,67.350L23.985,67.352L24.024,67.363L24.040,67.392L24.032,67.456ZM34.095,63.227L34.302,63.119L34.570,63.021L35.034,62.912L35.228,62.978L35.433,63.005L35.869,63.007L35.687,63.336L35.567,63.483L35.394,63.544L35.228,63.626L35.110,63.650L34.977,63.592L34.880,63.515L34.795,63.469L34.695,63.445L34.555,63.438L34.399,63.472L34.321,63.555L34.268,63.656L34.189,63.745L33.763,63.966L33.548,64.219L33.459,64.273L33.331,64.273L33.187,64.240L33.076,64.199L33.042,64.177L32.620,64.326L32.524,64.320L32.667,64.120L32.815,63.966L32.971,63.847L33.158,63.772L33.709,63.687L33.867,63.547L33.965,63.376L34.095,63.227ZM26.222,65.759L26.404,65.856L26.869,65.812L26.963,65.922L27.389,66.718L27.104,66.836L26.776,66.928L26.451,66.929L25.919,66.623L25.263,66.575L24.971,66.507L24.811,66.370L24.444,65.961L24.149,65.785L23.510,65.241L23.162,64.505L23.036,64.388L23.002,64.320L22.885,63.913L22.944,63.902L23.263,63.902L23.406,63.860L23.402,63.800L23.596,63.451L23.624,63.438L23.664,63.257L23.670,63.119L23.692,62.996L23.776,62.854L23.893,62.776L24.175,62.717L24.606,62.399L24.755,62.316L24.762,62.374L24.875,62.374L24.834,62.257L24.802,62.065L24.762,61.944L24.875,61.944L24.875,62.058L24.971,62.058L24.963,61.981L24.985,61.959L25.030,61.956L25.084,61.944L25.431,62.942L25.446,63.122L25.475,63.154L25.597,63.343L25.604,63.383L25.587,63.506L25.597,63.544L25.645,63.552L25.772,63.533L25.815,63.544L25.952,63.638L26.050,63.676L26.109,63.765L26.128,64.014L26.039,64.087L25.550,64.273L25.535,64.379L25.421,64.829L25.388,64.905L25.484,65.098L25.758,65.347L25.815,65.500L25.843,65.658L25.916,65.794L26.016,65.847L26.128,65.759L26.222,65.759ZM17.858,53.372L17.533,53.278L17.319,53.256L17.222,53.324L17.223,53.464L17.234,53.539L17.335,53.803L16.910,53.486L16.795,53.459L16.489,53.420L16.388,53.372L16.270,53.129L16.411,52.988L16.910,52.845L17.127,52.942L17.444,53.041L17.730,53.173L17.858,53.372ZM15.856,52.433L16.283,52.739L15.977,52.818L15.445,53.099L15.189,53.161L15.007,53.078L14.791,52.880L14.604,52.640L14.510,52.433L14.605,52.433L14.952,52.477L15.746,51.913L16.075,52.001L16.257,52.165L16.247,52.316L16.096,52.388L15.856,52.317L15.856,52.433ZM65.497,51.684L65.597,51.880L65.666,52.214L65.775,52.340L65.850,52.364L65.930,52.421L65.867,52.478L65.706,52.513L65.540,52.438L65.349,52.542L65.337,52.674L65.430,52.765L65.429,52.898L65.332,52.915L65.274,52.990L65.261,53.198L65.059,53.221L64.795,52.674L64.841,52.472L64.939,52.484L64.951,52.369L65.014,52.162L64.957,52.012L65.032,51.765L65.216,51.546L65.332,51.529L65.401,51.546L65.485,51.633L65.497,51.684ZM15.562,55.107L15.605,54.919L15.708,54.718L15.851,54.544L16.015,54.445L16.193,54.436L16.229,54.534L16.213,54.702L16.231,54.906L15.951,55.030L15.784,55.085L15.562,55.107ZM65.645,50.541L65.516,50.623L65.220,50.402L64.946,50.195L65.128,49.821L65.330,49.981L65.485,50.170L65.557,50.112L65.591,49.968L65.675,50.023L65.616,50.217L65.729,50.293L65.708,50.410L65.645,50.541ZM19.214,36.018L19.601,36.196L19.791,36.327L19.954,36.546L19.658,36.504L19.349,36.627L19.104,36.859L18.973,37.213L18.899,37.185L18.734,37.012L18.741,36.999L18.775,36.988L18.797,36.919L18.798,36.565L18.740,36.426L18.588,36.335L18.588,36.238L18.797,36.335L18.659,36.011L18.430,35.899L18.151,35.845L17.858,35.702L17.858,35.606L17.944,35.531L18.023,35.501L18.098,35.522L18.170,35.606L18.305,35.660L18.429,35.688L18.557,35.674L18.701,35.606L18.852,35.679L19.214,36.018ZM16.075,34.638L16.484,34.325L16.731,34.223L17.023,34.216L17.446,34.843L17.552,35.235L17.335,35.490L17.335,35.606L17.403,35.680L17.424,35.721L17.401,35.780L17.335,35.904L17.126,35.547L16.804,35.215L16.075,34.638ZM68.581,49.374L68.558,49.200L68.616,49.125L68.765,49.213L68.934,49.318L69.031,49.441L69.101,49.607L69.144,49.786L69.158,49.945L69.155,50.065L69.345,50.099L69.448,50.301L69.420,50.473L69.293,50.560L69.258,50.755L69.464,51.154L69.330,51.499L69.191,51.626L69.192,51.764L69.104,51.879L68.914,51.867L68.839,51.792L68.730,51.809L68.627,51.828L68.517,51.855L68.477,51.774L68.442,51.677L68.391,51.774L68.276,51.912L68.150,52.084L68.155,52.217L68.114,52.349L68.264,52.527L68.292,52.832L68.384,52.907L68.499,52.913L68.499,52.982L68.402,53.063L68.189,52.941L68.028,52.809L68.051,52.590L67.948,52.228L67.851,52.084L67.576,51.963L67.479,51.895L67.394,51.736L67.463,51.494L67.573,51.365L67.625,51.097L67.569,50.999L67.434,50.851L67.394,50.735L67.458,50.621L67.521,50.523L67.527,50.420L67.458,50.143L67.479,49.997L67.321,49.585L67.379,49.368L67.574,49.362L67.712,49.455L68.328,49.188L68.466,49.319L68.509,49.395L68.532,49.469L68.581,49.374ZM58.219,44.114L58.326,44.020L58.425,44.053L58.472,44.039L58.481,44.086L58.448,44.123L58.491,44.217L58.561,44.264L58.655,44.296L58.664,44.381L58.631,44.469L58.561,44.493L58.510,44.413L58.449,44.357L58.336,44.381L58.238,44.353L58.200,44.259L58.219,44.114ZM27.691,39.330L27.733,39.373L27.818,39.396L27.852,39.363L27.922,39.368L28.012,39.415L28.093,39.472L28.155,39.534L28.174,39.590L28.216,39.633L28.207,39.675L28.140,39.675L28.064,39.637L27.936,39.618L27.780,39.600L27.709,39.600L27.639,39.618L27.620,39.519L27.586,39.448L27.553,39.387L27.582,39.340L27.691,39.330ZM20.372,38.337L20.293,38.258L20.302,38.188L20.398,38.232L20.460,38.328L20.547,38.380L20.653,38.389L20.705,38.520L20.741,38.625L20.846,38.669L20.960,38.721L20.934,38.817L20.793,38.879L20.680,38.949L20.592,38.923L20.451,38.827L20.329,38.748L20.249,38.626L20.258,38.503L20.372,38.337Z" fill="currentColor" stroke="currentColor" stroke-width="1.5" stroke-linejoin="round"/>
</svg>