<svg xmlns="http://www.w3.org/2000/svg" viewBox="0 0 100 100" role="img" aria-label="Pitcairn Islands">
  <title>Pitcairn Islands</title>
  <path d="M14.531,59.395L14.680,59.330L14.820,59.330L14.943,59.389L15.044,59.508L14.898,59.540L14.757,59.535L14.631,59.486L14.531,59.395ZM94.878,52.712L94.713,52.753L94.873,52.702L94.888,52.702L94.962,52.713L94.987,52.759L95.000,52.844L94.989,52.780L94.962,52.745L94.890,52.710L94.878,52.712ZM41.495,47.079L41.894,47.251L42.088,47.764L42.098,48.305L41.948,48.559L41.639,48.343L41.315,47.865L41.193,47.360L41.495,47.079ZM5.118,40.460L5.177,40.460L5.165,40.516L5.092,40.599L5.034,40.630L5.000,40.546L5.034,40.506L5.076,40.508L5.118,40.460Z" fill="currentColor" stroke="currentColor" stroke-width="1.5" stroke-linejoin="round"/>
</svg>