<svg xmlns="http://www.w3.org/2000/svg" viewBox="0 0 100 100" role="img" aria-label="Peru">
  <title>Peru</title>
  <path d="M76.694,90.914L76.072,91.502L75.850,91.649L75.631,91.684L75.404,91.653L75.199,91.664L75.045,91.824L75.008,92.033L75.063,92.205L75.146,92.375L75.189,92.583L75.199,92.708L75.225,92.791L75.333,92.970L75.373,93.064L75.385,93.156L75.369,93.249L75.075,93.896L74.970,94.050L74.882,94.144L74.691,94.306L74.460,94.572L74.376,94.639L74.268,94.680L74.125,94.682L74.010,94.720L73.665,94.908L73.545,94.942L73.293,94.968L72.774,94.919L72.524,94.936L72.401,95.000L72.280,94.895L72.039,94.746L71.738,94.536L71.588,94.443L71.415,94.351L71.238,94.258L71.001,94.135L70.758,93.907L70.742,93.886L70.715,93.833L70.688,93.804L70.666,93.791L70.617,93.784L70.589,93.773L70.307,93.520L70.223,93.471L70.051,93.422L69.989,93.367L69.925,93.175L69.878,93.077L69.809,93.035L69.731,93.003L69.527,92.852L69.429,92.800L69.142,92.709L69.044,92.696L68.794,92.459L68.689,92.397L68.624,92.339L68.476,92.173L68.400,92.118L68.164,92.018L67.986,91.894L67.883,91.842L67.780,91.821L67.620,91.842L67.598,91.854L67.595,91.802L67.626,91.746L67.697,91.650L67.719,91.536L67.703,91.438L67.676,91.340L67.631,90.844L67.610,90.753L67.543,90.558L67.521,90.392L67.501,90.371L67.470,90.362L67.432,90.338L67.300,90.170L67.128,90.052L67.116,90.038L67.048,89.885L66.967,89.823L66.889,89.799L66.700,89.767L66.586,89.729L66.540,89.700L66.455,89.625L66.373,89.573L66.351,89.563L65.545,89.365L65.360,89.282L65.203,89.157L64.978,88.894L64.860,88.785L64.596,88.633L64.492,88.589L64.382,88.561L64.078,88.538L64.038,88.519L64.012,88.470L64.018,88.366L64.007,88.314L63.941,88.251L63.745,88.140L63.704,88.096L63.654,88.013L63.538,87.962L63.306,87.909L63.187,87.837L63.165,87.750L63.168,87.655L63.124,87.560L62.853,87.251L62.742,87.174L62.688,87.158L62.643,87.158L62.602,87.152L62.559,87.120L62.509,87.049L62.475,87.020L62.426,87.009L62.396,86.994L62.291,86.925L62.243,86.902L62.041,86.868L61.759,86.750L61.251,86.756L60.820,86.602L60.300,86.235L59.466,85.941L59.303,85.770L59.089,85.664L58.908,85.540L58.824,85.510L58.634,85.514L58.543,85.489L58.469,85.444L58.399,85.417L58.321,85.453L58.280,85.386L58.219,85.182L58.176,85.134L58.128,85.112L57.987,85.081L57.719,84.949L57.420,84.879L56.852,84.687L56.477,84.628L56.358,84.711L56.360,84.593L56.272,84.522L56.226,84.472L56.192,84.443L56.015,84.384L55.669,84.229L55.526,84.141L55.224,83.933L54.886,83.690L54.746,83.569L54.745,83.512L54.770,83.453L54.732,83.377L54.679,83.312L54.531,83.243L54.121,83.022L54.045,83.002L53.835,82.974L53.756,82.924L53.692,82.850L53.676,82.799L53.616,82.759L53.499,82.720L53.314,82.761L53.144,82.718L52.974,82.657L52.762,82.515L52.739,82.487L52.727,82.391L52.714,82.341L52.689,82.302L52.685,82.234L52.658,82.165L52.535,82.121L52.293,82.047L51.601,81.749L51.260,81.565L50.793,81.376L50.690,81.238L50.154,80.964L50.022,80.860L49.956,80.840L49.884,80.850L49.851,80.865L49.817,80.857L49.740,80.803L49.592,80.643L49.538,80.601L49.443,80.572L49.347,80.556L49.273,80.526L49.243,80.449L49.218,80.429L49.134,80.409L49.126,80.373L49.134,80.354L49.201,80.321L49.299,80.296L49.317,80.229L49.243,80.123L49.102,80.036L48.906,79.953L48.776,79.824L48.870,79.828L48.923,79.801L48.944,79.752L48.939,79.692L48.917,79.647L48.883,79.602L48.647,79.384L48.551,79.340L48.297,79.304L48.226,79.252L48.183,79.168L48.140,79.054L47.913,78.729L47.878,78.632L47.841,78.583L47.667,78.467L47.613,78.414L47.605,78.381L47.613,78.226L47.595,78.191L47.381,78.027L46.982,77.835L46.851,77.765L46.750,77.713L46.633,77.638L46.421,77.467L46.179,77.351L46.163,77.327L46.122,77.300L46.074,77.276L46.034,77.267L45.979,77.247L45.943,77.202L45.914,77.147L45.881,77.099L45.847,77.067L45.811,77.041L45.608,76.940L45.537,76.869L45.553,76.758L45.538,76.643L45.526,76.528L45.462,76.424L45.378,76.306L45.329,76.276L45.314,76.220L45.337,76.176L45.371,76.098L45.351,76.055L45.294,75.944L45.184,75.888L45.020,75.787L44.962,75.732L44.868,75.601L44.803,75.534L44.753,75.511L44.634,75.499L44.586,75.482L44.554,75.445L44.504,75.289L44.637,75.274L44.675,75.229L44.682,75.180L44.648,75.117L44.603,75.023L44.573,74.972L44.535,74.866L44.476,74.777L44.401,74.741L44.321,74.712L44.281,74.645L44.254,74.567L44.219,74.505L44.155,74.469L43.987,74.403L43.979,74.512L43.884,74.665L43.791,74.500L43.831,74.370L43.828,74.187L43.785,74.075L43.836,74.037L43.837,73.959L43.900,73.921L43.870,73.869L43.881,73.828L43.893,73.776L43.847,73.719L43.819,73.636L43.876,73.615L43.888,73.493L43.854,73.407L43.767,73.355L43.755,73.294L43.760,73.259L43.775,73.222L43.780,73.188L43.755,73.157L43.703,73.145L43.671,73.169L43.658,73.248L43.624,73.289L43.563,73.266L43.480,73.281L43.390,73.229L43.288,73.225L43.290,73.097L43.302,73.027L43.368,72.870L43.421,72.802L43.398,72.739L43.443,72.702L43.530,72.721L43.619,72.650L43.705,72.653L43.764,72.661L43.791,72.717L43.741,72.788L43.730,72.854L43.775,72.892L43.839,72.924L43.930,72.996L43.968,72.944L43.972,72.840L43.998,72.736L44.070,72.517L44.112,72.369L44.109,72.269L44.126,72.136L44.183,71.976L44.239,71.821L44.321,71.413L44.289,71.047L44.249,70.866L44.127,70.519L43.869,70.173L43.711,70.025L43.400,69.615L43.012,69.114L42.855,68.940L42.818,68.821L42.747,68.713L42.694,68.497L42.717,68.323L42.695,68.122L42.619,67.994L42.569,67.935L42.235,67.652L42.143,67.536L41.937,67.132L41.892,67.067L41.897,66.936L41.893,66.890L41.855,66.842L41.780,66.767L41.628,66.561L41.415,66.418L41.323,66.349L41.261,66.218L41.361,66.091L41.403,65.906L41.362,65.719L41.195,65.578L41.058,65.333L40.595,65.075L40.317,64.958L40.264,64.955L40.246,64.930L40.162,64.850L40.131,64.803L40.120,64.734L40.133,64.691L40.153,64.654L40.162,64.601L40.086,64.407L39.916,64.283L39.792,64.245L39.703,64.218L39.499,64.199L39.540,64.108L39.595,64.037L39.643,63.959L39.665,63.842L39.639,63.512L39.598,63.400L39.562,63.253L39.540,63.204L39.466,63.088L39.439,62.987L39.467,62.865L39.395,62.748L39.395,62.704L39.484,62.717L39.537,62.649L39.517,62.548L39.399,62.328L39.378,62.224L39.324,62.107L39.253,62.013L39.183,61.975L39.120,61.952L39.065,61.900L38.982,61.791L38.966,61.758L39.000,61.711L38.999,61.669L38.980,61.631L38.897,61.535L38.830,61.411L38.792,61.357L38.749,61.334L38.696,61.318L38.659,61.281L38.598,61.196L38.514,61.141L38.305,61.047L38.148,60.914L37.395,60.515L37.270,60.421L37.207,60.367L37.218,60.306L37.208,60.192L37.183,60.095L37.217,60.064L37.203,60.023L37.243,59.981L37.287,59.979L37.346,59.993L37.391,59.966L37.447,59.947L37.467,59.869L37.462,59.741L37.395,59.627L37.346,59.555L37.374,59.497L37.274,59.385L37.297,59.336L37.247,59.249L37.269,59.208L37.228,59.113L37.138,59.001L37.158,58.959L37.209,58.912L37.165,58.812L37.123,58.734L37.129,58.671L37.094,58.573L37.041,58.487L36.969,58.392L36.895,58.281L36.906,58.203L36.781,58.105L36.693,58.024L36.693,57.952L36.719,57.908L36.636,57.794L36.642,57.758L36.502,57.627L36.428,57.573L36.400,57.515L36.372,57.462L36.335,57.420L36.230,57.326L35.922,56.798L35.934,56.743L35.870,56.623L35.776,56.550L35.648,56.442L35.658,56.364L35.606,56.256L35.517,56.138L35.442,56.043L35.432,55.996L35.471,55.950L35.464,55.894L35.408,55.842L35.224,55.722L35.217,55.628L35.213,55.498L35.122,55.423L35.080,55.378L35.069,55.300L35.031,55.197L35.055,55.139L35.008,55.069L34.986,55.003L34.891,54.897L34.686,54.709L34.643,54.609L34.610,54.559L34.608,54.509L34.649,54.501L34.680,54.473L34.672,54.412L34.628,54.353L34.642,54.323L34.634,54.265L34.631,54.223L34.554,54.117L34.534,54.001L34.507,53.948L34.465,53.882L34.451,53.831L34.401,53.812L34.384,53.789L34.356,53.781L34.348,53.753L34.357,53.728L34.385,53.698L34.379,53.645L34.384,53.587L34.379,53.526L34.357,53.449L34.322,53.404L34.314,53.321L34.336,53.221L34.379,53.154L34.381,53.000L34.190,52.827L34.034,52.647L34.002,52.532L33.920,52.446L33.881,52.357L33.833,52.308L33.775,52.206L33.700,52.124L33.678,51.973L33.709,51.836L33.617,51.786L33.598,51.704L33.602,51.636L33.557,51.565L33.525,51.447L33.565,51.379L33.626,51.317L33.587,51.239L33.523,51.238L33.422,51.162L33.400,51.027L33.415,50.946L33.452,50.907L33.482,50.878L33.429,50.858L33.386,50.802L33.345,50.774L33.318,50.712L33.256,50.689L33.189,50.695L33.146,50.722L33.037,50.598L33.031,50.552L33.022,50.496L32.976,50.467L32.939,50.424L32.983,50.392L33.026,50.356L33.082,50.344L33.118,50.246L33.126,50.148L33.081,50.030L32.990,49.974L32.895,49.947L32.823,49.975L32.784,50.002L32.768,50.041L32.790,50.080L32.792,50.142L32.815,50.240L32.811,50.299L32.756,50.282L32.692,50.148L32.598,50.039L32.529,49.966L32.533,49.914L32.513,49.887L32.536,49.865L32.611,49.892L32.726,49.926L32.755,49.886L32.779,49.828L32.780,49.728L32.738,49.611L32.687,49.538L32.622,49.479L32.557,49.475L32.468,49.488L32.426,49.455L32.381,49.376L32.388,49.294L32.421,49.213L32.445,49.164L32.403,49.121L32.285,49.078L32.283,49.025L32.322,49.035L32.345,49.003L32.346,48.895L32.317,48.771L32.279,48.695L32.224,48.593L32.185,48.521L32.114,48.435L32.014,48.296L31.786,47.993L31.796,47.947L31.797,47.901L31.833,47.859L31.889,47.820L31.900,47.680L31.878,47.566L31.889,47.490L31.854,47.363L31.810,47.173L31.664,46.969L31.517,46.779L31.325,46.598L31.215,46.515L31.063,46.456L30.992,46.398L30.932,46.324L30.959,46.262L31.008,46.269L31.034,46.282L31.096,46.237L31.119,46.136L31.117,46.035L30.818,45.592L30.810,45.484L30.691,45.323L30.711,45.251L30.553,45.070L30.039,44.623L30.037,44.503L29.750,44.309L29.188,43.881L28.935,43.596L28.778,43.366L28.722,43.162L28.484,42.892L28.427,42.837L28.381,42.786L28.404,42.751L28.463,42.732L28.522,42.677L28.530,42.582L28.466,42.464L28.292,42.184L27.946,41.704L27.815,41.546L27.806,41.428L27.781,41.336L27.785,41.289L27.838,41.232L27.858,41.167L27.804,41.023L27.747,40.894L27.751,40.803L27.669,40.576L27.514,40.406L27.324,40.211L27.260,40.142L27.290,40.038L27.298,39.910L27.205,39.792L26.690,39.272L26.438,39.020L26.384,38.918L26.122,38.694L26.054,38.540L26.037,38.383L25.961,38.222L25.846,38.077L25.767,37.993L25.212,37.549L24.967,37.393L24.343,37.028L23.556,36.626L22.258,35.971L21.953,35.824L21.649,35.529L21.295,35.282L20.869,35.035L20.444,34.706L20.302,34.521L20.202,34.233L20.213,34.037L20.212,33.822L20.208,33.776L20.309,33.692L20.337,33.596L20.360,33.564L20.469,33.558L20.520,33.444L20.526,33.367L20.572,33.303L20.658,33.309L20.751,33.457L20.890,33.523L21.075,33.594L21.228,33.618L21.406,33.440L21.597,33.093L21.634,32.633L21.513,32.256L21.268,31.716L21.121,31.550L20.668,31.107L20.586,31.003L20.478,30.974L20.415,30.996L20.298,30.912L20.197,30.751L20.072,30.608L19.974,30.459L19.998,30.410L20.030,30.370L20.094,30.343L20.131,30.243L20.114,30.188L20.074,30.138L20.079,30.074L20.148,30.057L20.126,29.970L20.105,29.865L20.147,29.792L20.224,29.802L20.310,29.754L20.390,29.837L20.535,29.825L20.609,29.717L20.629,29.544L20.524,29.310L20.364,29.144L20.212,29.028L20.097,28.853L20.017,28.706L19.853,28.484L19.464,28.063L19.299,27.854L19.322,27.786L19.382,27.755L19.455,27.683L19.443,27.587L19.401,27.475L19.442,27.224L19.445,27.146L19.417,27.058L19.371,26.957L19.341,26.863L19.360,26.789L19.411,26.743L19.445,26.719L19.474,26.691L19.511,26.636L19.580,26.468L19.582,26.356L19.511,26.081L19.534,25.984L19.589,25.867L19.655,25.760L19.710,25.693L20.133,25.402L20.243,25.288L20.333,25.126L20.401,25.049L20.493,25.016L20.581,24.996L20.633,24.941L20.710,24.781L20.971,24.383L21.123,24.222L21.306,24.077L21.505,23.964L21.578,23.894L21.607,23.791L21.620,23.681L21.653,23.577L21.740,23.405L21.870,23.239L22.044,23.095L22.814,22.630L22.953,22.495L23.158,22.190L23.187,22.088L23.226,22.072L23.275,22.064L23.318,22.038L23.394,22.009L23.731,22.020L23.824,21.999L23.923,21.957L24.002,21.892L24.035,21.805L24.049,21.751L24.113,21.640L24.134,21.586L24.136,21.538L24.169,21.556L24.248,21.598L24.432,21.647L24.500,21.700L24.490,21.786L24.460,21.888L24.471,21.991L24.501,22.018L24.581,22.052L24.612,22.087L24.623,22.131L24.623,22.179L24.614,22.273L24.577,22.406L24.576,22.444L24.608,22.478L24.655,22.494L24.698,22.514L24.711,22.560L24.711,22.615L24.739,22.709L24.745,22.763L24.737,22.811L24.706,22.907L24.698,22.950L24.698,22.999L24.702,23.037L24.732,23.129L24.737,23.178L24.721,23.216L24.700,23.250L24.691,23.287L24.714,23.386L24.811,23.544L24.854,23.643L24.860,23.687L24.860,23.778L24.873,23.820L24.916,23.870L24.959,23.899L24.988,23.927L24.988,23.933L24.987,23.979L24.910,24.067L24.532,24.243L24.463,24.329L24.393,24.443L24.311,24.545L24.210,24.596L24.119,24.577L23.914,24.466L23.814,24.434L23.715,24.428L23.617,24.435L23.527,24.461L23.455,24.514L23.402,24.593L23.346,24.712L23.304,24.835L23.303,24.840L23.295,24.930L23.319,24.991L23.399,25.102L23.425,25.165L23.427,25.211L23.408,25.305L23.408,25.351L23.511,25.568L23.680,25.586L23.890,25.523L24.114,25.495L24.060,25.604L23.419,26.466L23.400,26.550L23.443,26.653L23.509,26.713L23.726,26.838L23.807,26.867L23.893,26.865L23.931,26.861L23.978,26.818L24.177,26.711L24.550,26.421L24.626,26.338L24.663,26.260L24.712,26.088L24.754,26.019L24.794,25.986L24.844,25.961L24.897,25.942L25.095,25.917L25.109,25.911L25.140,25.965L25.221,25.990L25.319,26.008L25.403,26.039L25.490,26.115L25.647,26.288L25.745,26.358L25.877,26.430L26.003,26.445L26.127,26.447L26.255,26.479L26.378,26.594L26.480,26.748L26.600,26.874L26.781,26.903L27.106,26.801L27.274,26.700L27.449,26.677L27.583,26.744L27.828,26.989L27.866,27.007L27.935,27.059L27.965,27.075L28.082,27.074L28.181,27.133L28.208,27.179L28.196,27.251L28.084,27.452L28.081,27.558L28.222,27.767L28.278,28.059L28.405,28.301L28.406,28.307L28.421,28.398L28.456,28.503L28.539,28.570L28.639,28.623L28.724,28.686L28.750,28.730L28.781,28.827L28.807,28.869L28.850,28.900L28.944,28.936L28.987,28.965L29.051,29.058L29.103,29.162L29.171,29.245L29.282,29.275L29.508,29.267L29.626,29.262L29.712,29.277L29.874,29.334L29.959,29.353L30.008,29.351L30.086,29.331L30.137,29.337L30.189,29.362L30.242,29.402L30.332,29.491L30.472,29.374L30.597,29.239L30.632,29.136L30.686,28.897L30.738,28.816L30.835,28.791L30.963,28.790L31.075,28.765L31.126,28.667L31.101,28.550L30.992,28.329L30.989,28.194L31.043,28.059L31.134,27.932L31.355,27.726L31.558,27.610L32.002,27.431L32.055,27.396L32.187,27.308L32.231,27.228L32.236,27.134L32.232,27.036L32.245,26.945L32.315,26.831L32.390,26.738L32.403,26.659L32.287,26.588L32.228,26.494L32.189,26.311L32.183,26.127L32.223,26.024L32.313,25.949L32.355,25.853L32.401,25.638L32.697,25.012L32.749,24.794L32.744,24.501L32.767,24.420L32.817,24.368L32.871,24.354L32.929,24.350L32.992,24.330L33.060,24.292L33.080,24.272L33.080,24.238L33.127,23.874L33.162,23.780L33.212,23.685L33.242,23.663L33.301,23.634L33.340,23.609L33.458,23.493L33.488,23.398L33.426,23.081L33.426,23.019L33.428,22.993L33.451,22.985L33.513,22.974L33.550,22.946L33.553,22.898L33.533,22.798L33.531,22.621L33.542,22.526L33.575,22.425L33.664,22.228L33.671,22.206L33.734,22.007L33.771,21.794L33.774,21.740L33.744,21.644L33.739,21.612L33.793,21.519L33.874,21.494L33.976,21.509L34.186,21.568L34.247,21.617L34.283,21.691L34.350,22.007L34.397,22.096L34.463,22.064L34.540,22.001L34.626,21.982L34.700,21.950L34.745,21.850L34.735,21.714L34.674,21.644L34.597,21.589L34.541,21.500L34.542,21.392L34.599,21.322L34.776,21.189L34.836,21.102L34.986,20.811L35.054,20.735L35.288,20.538L35.779,19.872L36.136,19.556L36.227,19.509L36.415,19.443L36.549,19.395L37.159,19.179L37.770,18.963L38.380,18.747L38.990,18.531L39.600,18.315L40.211,18.099L40.821,17.883L41.431,17.666L41.878,17.508L41.951,17.464L42.166,17.331L42.441,17.118L42.730,16.894L43.020,16.669L43.309,16.445L43.599,16.220L43.889,15.995L44.179,15.771L44.468,15.547L44.757,15.322L45.000,15.036L45.242,14.751L45.485,14.465L45.727,14.178L45.969,13.892L46.212,13.606L46.454,13.320L46.696,13.035L46.892,12.804L47.158,12.554L47.235,12.460L47.272,12.414L47.335,12.243L47.407,11.959L47.552,11.380L47.698,10.800L47.844,10.221L47.989,9.642L48.051,9.399L48.081,9.356L48.218,9.484L48.285,9.561L48.313,9.610L48.361,9.650L48.471,9.652L48.677,9.627L48.907,9.627L48.950,9.624L48.949,9.591L48.914,9.542L48.867,9.501L48.830,9.445L48.821,9.400L48.829,9.315L48.827,9.271L48.612,8.529L48.614,8.467L48.644,8.379L48.655,8.329L48.652,8.279L48.631,8.189L48.626,8.140L48.648,8.082L48.700,8.047L48.759,8.016L48.803,7.970L48.813,7.926L48.806,7.889L48.795,7.853L48.791,7.813L48.806,7.620L48.788,7.529L48.733,7.441L48.711,7.434L48.665,7.457L48.641,7.452L48.622,7.429L48.597,7.373L48.576,7.350L48.387,7.201L48.367,7.172L48.340,7.156L48.280,7.161L48.230,7.153L48.175,7.118L48.085,7.032L47.946,6.838L47.856,6.630L47.700,6.075L47.645,6.003L47.568,5.954L47.464,5.919L47.404,5.888L47.302,5.791L47.243,5.755L47.196,5.748L47.092,5.756L47.046,5.746L47.002,5.695L46.955,5.599L46.932,5.490L46.959,5.405L47.030,5.381L47.117,5.404L47.205,5.440L47.281,5.455L47.368,5.446L47.436,5.447L47.502,5.463L47.844,5.649L47.969,5.661L48.099,5.574L48.140,5.570L48.306,5.594L48.383,5.590L48.448,5.568L48.510,5.537L48.620,5.458L48.677,5.383L48.751,5.357L48.827,5.297L48.888,5.225L48.912,5.162L48.929,5.067L48.975,5.016L49.050,5.000L49.147,5.011L49.365,5.071L49.467,5.123L49.560,5.197L49.751,5.462L49.807,5.517L49.848,5.532L49.933,5.534L49.978,5.548L50.009,5.571L50.207,5.790L50.272,5.840L50.376,5.887L50.541,5.923L50.622,5.952L50.671,5.948L50.725,5.905L50.846,5.709L50.904,5.695L51.006,5.786L51.075,5.885L51.240,6.225L51.107,6.328L51.069,6.394L51.154,6.424L51.204,6.429L51.300,6.454L51.421,6.466L51.451,6.480L51.472,6.502L51.505,6.527L51.530,6.551L51.545,6.576L51.574,6.594L51.641,6.597L51.665,6.585L51.696,6.562L51.736,6.538L51.789,6.527L51.835,6.565L51.972,6.799L52.176,7.017L52.303,7.118L52.598,7.297L52.655,7.348L52.719,7.421L52.761,7.489L52.787,7.501L52.853,7.503L52.877,7.525L52.888,7.574L52.893,7.628L52.893,7.630L52.903,7.674L53.135,8.181L53.123,8.215L53.061,8.270L53.039,8.312L53.037,8.406L53.070,8.478L53.235,8.662L53.268,8.684L53.315,8.699L53.398,8.701L53.436,8.718L53.398,8.797L53.426,8.854L53.476,8.906L53.503,8.968L53.473,9.022L53.406,9.022L53.328,9.009L53.268,9.020L53.234,9.078L53.264,9.122L53.385,9.205L53.433,9.270L53.503,9.493L53.611,9.636L53.740,9.708L54.030,9.761L54.325,9.876L54.457,9.872L54.532,9.728L54.588,9.780L54.702,10.122L54.725,10.164L54.764,10.197L54.824,10.223L54.852,10.215L54.877,10.190L54.930,10.164L54.948,10.143L54.965,10.112L54.989,10.098L55.029,10.133L55.035,10.174L54.990,10.260L54.996,10.301L55.063,10.337L55.214,10.303L55.294,10.332L55.322,10.378L55.397,10.573L55.484,10.712L55.532,10.763L55.599,10.808L55.728,10.854L55.806,10.871L55.864,10.872L55.945,10.826L56.023,10.701L56.096,10.674L56.136,10.762L56.204,10.837L56.296,10.889L56.409,10.909L56.463,10.924L56.555,10.993L56.669,11.027L56.694,11.071L56.707,11.125L56.742,11.201L56.750,11.255L56.758,11.277L56.778,11.282L56.842,11.273L56.861,11.277L56.876,11.313L56.885,11.354L56.891,11.461L56.900,11.494L56.923,11.534L56.951,11.567L57.027,11.602L57.003,11.654L56.927,11.747L56.972,11.822L57.152,11.907L57.206,11.993L57.308,12.070L57.346,12.122L57.355,12.171L57.354,12.223L57.361,12.288L57.412,12.493L57.407,12.587L57.289,12.657L57.247,12.732L57.192,12.895L57.182,13.085L57.279,13.207L57.593,13.401L57.600,13.419L57.616,13.485L57.623,13.502L57.645,13.506L57.699,13.499L57.768,13.507L57.821,13.505L57.880,13.513L57.941,13.552L58.057,13.659L58.107,13.667L58.144,13.613L58.222,13.535L58.297,13.526L58.459,13.569L58.490,13.552L58.510,13.422L58.560,13.422L58.689,13.569L58.736,13.603L58.781,13.623L58.822,13.650L58.854,13.703L58.819,13.886L58.844,13.954L58.959,14.091L58.987,14.173L58.976,14.219L58.928,14.342L58.921,14.411L58.940,14.488L58.972,14.553L59.057,14.679L59.089,14.771L59.116,14.884L59.154,14.987L59.219,15.049L59.076,15.288L59.031,15.394L58.854,15.555L58.811,15.609L58.795,15.641L58.789,15.690L58.799,15.738L58.844,15.813L58.854,15.842L58.870,15.867L58.936,15.918L58.951,15.944L58.975,16.091L58.987,16.129L59.067,16.183L59.279,16.237L59.322,16.280L59.352,16.385L59.415,16.327L59.473,16.215L59.484,16.162L59.819,16.348L59.835,16.376L59.905,16.439L59.987,16.666L60.034,16.748L60.072,16.779L60.117,16.779L60.322,16.737L60.389,16.713L60.447,16.656L60.586,16.606L60.706,16.545L60.787,16.574L60.915,16.666L60.928,16.605L60.951,16.560L60.991,16.524L61.050,16.495L61.075,16.530L61.095,16.573L61.109,16.624L61.125,16.752L61.154,16.763L61.234,16.736L61.296,16.678L61.424,16.410L61.484,16.331L61.573,16.344L61.659,16.391L61.879,16.571L61.971,16.601L62.468,16.680L62.511,16.718L62.536,16.778L62.601,16.837L62.687,16.883L62.777,16.904L62.885,16.895L63.079,16.843L63.192,16.831L63.234,16.818L63.247,16.783L63.243,16.683L63.268,16.662L63.393,16.636L63.442,16.632L63.755,16.706L63.828,16.683L64.041,16.434L64.177,16.315L64.313,16.261L64.470,16.259L64.775,16.303L64.860,16.282L64.920,16.221L64.942,16.112L64.978,16.074L65.207,15.894L65.382,15.623L65.406,15.572L65.455,15.569L65.737,15.388L65.843,15.339L65.880,15.365L65.873,15.539L65.914,15.622L66.008,15.607L66.171,15.522L66.286,15.543L66.381,15.601L66.471,15.671L66.572,15.726L66.851,15.784L66.906,15.827L66.929,15.919L66.936,16.124L66.969,16.200L67.046,16.237L67.084,16.179L67.132,15.995L67.199,15.925L67.249,15.942L67.334,16.095L67.449,16.243L67.466,16.294L67.453,16.336L67.386,16.397L67.367,16.434L67.422,16.537L67.586,16.502L67.933,16.331L67.971,16.398L68.061,16.376L68.162,16.322L68.234,16.294L68.287,16.306L68.345,16.350L68.397,16.367L68.449,16.356L68.541,16.284L68.678,16.213L68.771,15.981L68.882,15.928L69.016,15.904L69.080,15.905L69.202,15.980L69.263,15.993L69.320,15.986L69.364,15.961L69.319,15.836L69.308,15.724L69.360,15.655L69.499,15.659L69.705,15.747L69.826,15.771L69.927,15.726L70.074,15.817L70.326,16.088L70.493,16.200L70.672,16.264L70.762,16.286L70.888,16.302L70.913,16.327L70.924,16.365L70.924,16.508L70.943,16.518L71.096,16.646L71.126,16.699L71.132,16.749L71.132,16.817L71.140,16.878L71.174,16.904L71.374,16.904L71.411,16.884L71.416,16.837L71.412,16.782L71.424,16.736L71.509,16.682L71.572,16.722L71.632,16.793L71.707,16.831L71.789,16.842L71.880,16.870L71.966,16.913L72.026,16.965L72.055,17.018L72.072,17.069L72.099,17.110L72.156,17.139L72.206,17.135L72.320,17.085L72.374,17.072L72.478,17.071L72.581,17.082L72.643,17.130L72.620,17.236L72.596,17.252L72.513,17.284L72.490,17.307L72.493,17.348L72.516,17.393L72.547,17.430L72.571,17.444L72.690,17.412L72.787,17.352L72.881,17.320L72.987,17.374L73.048,17.465L73.116,17.673L73.171,17.761L73.261,17.796L73.341,17.758L73.424,17.734L73.520,17.810L73.534,17.859L73.533,17.909L73.541,17.952L73.586,17.978L73.628,17.967L73.654,17.926L73.676,17.874L73.704,17.828L73.803,17.762L73.856,17.798L73.918,18.014L73.949,18.087L73.989,18.146L74.045,18.191L74.072,18.200L74.071,18.204L73.962,18.379L73.581,18.980L73.201,19.581L72.820,20.183L72.439,20.785L72.059,21.386L71.678,21.988L71.297,22.589L70.917,23.191L70.754,23.448L70.965,23.472L71.623,23.821L71.675,23.857L71.934,23.922L72.064,23.924L72.188,23.870L72.379,23.693L72.484,23.629L72.620,23.615L72.807,23.681L72.989,23.815L73.148,23.983L73.264,24.151L73.324,24.324L73.351,24.500L73.402,24.662L73.532,24.793L74.023,25.047L74.168,25.167L74.267,25.282L74.352,25.409L74.487,25.682L74.498,25.819L74.453,25.950L74.368,26.066L74.205,26.186L74.137,26.195L74.069,26.178L74.009,26.134L73.949,26.074L73.923,26.038L73.900,25.916L73.848,25.826L73.751,25.790L73.642,25.800L73.553,25.848L73.490,25.938L73.411,26.124L73.319,26.206L73.265,26.137L73.226,26.059L73.194,26.013L73.156,26.003L73.113,26.005L73.066,25.991L72.827,25.799L72.780,25.734L72.771,25.645L72.815,25.460L72.807,25.360L72.770,25.288L72.712,25.224L72.652,25.205L72.562,25.346L72.503,25.329L72.382,25.219L72.301,25.186L72.230,25.179L72.161,25.195L72.084,25.231L71.886,25.392L71.813,25.416L71.762,25.385L71.747,25.313L71.725,25.241L71.649,25.211L71.572,25.251L71.539,25.335L71.519,25.424L71.476,25.476L71.247,25.340L71.244,25.266L71.261,25.176L71.254,25.105L71.178,25.088L71.100,25.120L71.055,25.176L71.002,25.325L70.948,25.367L70.861,25.365L70.559,25.282L70.509,25.288L70.278,25.402L70.215,25.459L70.200,25.525L70.241,25.644L70.227,25.690L70.152,25.716L70.077,25.752L70.041,25.826L70.014,25.913L69.967,25.994L69.821,26.137L69.760,26.216L69.716,26.310L69.616,26.414L69.514,26.320L69.437,26.228L69.415,26.338L69.321,26.416L69.068,26.310L68.949,26.358L68.884,26.468L68.840,26.495L68.764,26.482L68.724,26.445L68.672,26.334L68.640,26.303L68.560,26.349L68.490,26.465L68.425,26.539L68.291,26.388L68.179,26.366L68.064,26.392L67.986,26.461L67.973,26.520L67.983,26.568L67.982,26.619L67.934,26.683L67.918,26.680L67.891,26.666L67.859,26.659L67.828,26.675L67.785,26.732L67.767,26.749L67.701,26.777L67.663,26.748L67.631,26.696L67.586,26.658L67.519,26.650L67.295,26.684L67.147,26.686L67.074,26.696L67.008,26.725L66.975,26.767L66.945,26.875L66.918,26.905L66.880,26.902L66.758,26.876L66.690,26.883L66.469,26.979L66.487,26.876L66.438,26.890L66.339,26.989L66.278,27.011L66.236,27.015L66.198,26.996L66.148,26.946L66.070,26.887L66.020,26.903L65.965,26.942L65.872,26.956L65.817,26.939L65.706,26.887L65.655,26.882L65.615,26.902L65.602,26.934L65.596,26.968L65.578,26.990L65.545,27.000L65.144,27.045L65.061,27.068L64.935,27.158L64.707,27.382L64.563,27.428L64.484,27.497L64.439,27.528L64.400,27.537L64.351,27.519L64.307,27.497L64.266,27.495L64.229,27.535L64.142,27.714L64.087,27.785L63.994,27.863L63.726,28.013L63.480,28.199L63.393,28.250L63.304,28.280L63.241,28.283L63.059,28.257L63.000,28.272L62.976,28.304L62.964,28.341L62.938,28.367L62.737,28.423L62.685,28.480L62.650,28.748L62.599,28.828L62.519,28.884L62.415,28.940L62.389,28.946L62.322,28.948L62.299,28.956L62.284,28.984L62.282,29.014L62.283,29.041L62.279,29.059L62.253,29.104L62.238,29.146L62.208,29.175L62.137,29.177L62.046,29.191L61.959,29.230L61.883,29.289L61.764,29.419L61.630,29.483L61.567,29.546L61.546,29.599L61.542,29.646L61.529,29.690L61.482,29.733L61.436,29.746L61.175,29.746L61.074,29.717L60.983,29.706L60.922,29.754L60.860,29.834L60.776,29.872L60.578,29.911L60.552,29.909L60.491,29.888L60.467,29.890L60.452,29.915L60.449,29.987L60.443,30.006L60.375,30.043L60.337,30.051L60.274,30.054L60.156,30.085L60.137,30.157L60.171,30.244L60.216,30.316L60.242,30.392L60.268,30.692L60.260,30.771L60.217,30.840L60.165,30.906L60.127,30.977L60.096,31.188L60.075,31.265L59.932,31.568L59.887,31.727L59.908,31.889L59.951,32.047L59.950,32.185L59.870,32.639L59.820,32.784L59.752,32.920L59.246,33.599L59.079,33.754L58.802,34.376L58.696,34.549L58.619,34.733L58.617,34.959L58.662,35.078L58.896,35.346L58.923,35.431L58.974,35.825L59.003,35.938L59.109,36.161L59.142,36.275L59.142,36.382L59.119,36.491L59.041,36.692L58.926,36.895L58.793,37.033L58.625,37.124L58.407,37.181L58.064,37.185L57.959,37.221L57.787,37.377L57.597,37.495L57.268,37.781L56.876,38.008L56.633,38.205L56.498,38.287L56.434,38.342L56.376,38.467L56.328,38.528L56.126,38.655L56.073,38.714L56.044,38.796L56.033,39.067L55.914,39.513L55.844,39.651L55.816,39.773L55.843,39.846L55.859,39.889L56.194,40.373L56.242,40.582L56.283,40.675L56.298,40.765L56.241,40.864L56.161,40.911L56.067,40.926L55.875,40.917L55.751,40.926L55.665,40.954L55.489,41.061L55.381,41.102L55.292,41.096L55.095,41.019L54.989,41.019L55.005,41.108L55.146,41.347L55.176,41.473L55.149,41.554L55.110,41.628L55.106,41.734L55.044,41.843L54.981,41.869L54.816,41.939L54.859,42.025L55.054,42.141L55.688,42.809L55.822,42.901L55.975,42.968L56.156,43.023L56.302,43.141L56.349,43.336L56.295,43.525L56.138,43.624L55.975,43.566L55.902,43.564L55.897,43.653L55.949,43.890L55.979,43.957L56.126,44.069L56.333,44.152L56.517,44.250L56.596,44.409L56.630,44.519L56.789,44.736L56.841,44.852L56.844,44.947L56.817,45.130L56.831,45.223L56.892,45.337L57.032,45.523L57.076,45.653L57.101,45.855L57.134,45.948L57.203,46.013L57.588,46.228L57.640,46.273L57.719,46.376L57.768,46.422L57.815,46.441L57.917,46.453L57.960,46.470L58.029,46.541L58.063,46.631L58.068,46.731L58.023,46.950L58.026,47.043L58.057,47.124L58.263,47.394L58.352,47.479L58.452,47.533L58.734,47.594L58.827,47.643L58.911,47.725L58.965,47.818L59.051,48.028L59.425,48.576L59.497,48.636L59.677,48.756L59.740,48.824L59.874,49.027L59.904,49.108L59.955,49.519L59.935,49.666L59.894,49.759L59.844,49.822L59.623,49.998L59.620,50.134L59.592,50.193L59.526,50.231L59.447,50.252L59.378,50.263L59.320,50.299L59.267,50.376L59.188,50.533L59.075,50.685L58.819,50.945L58.715,51.109L60.664,51.118L61.254,51.237L61.278,51.249L61.321,51.286L61.349,51.294L61.370,51.287L61.409,51.260L61.428,51.256L61.522,51.276L61.719,51.338L61.920,51.438L62.012,51.466L62.229,51.490L62.523,51.469L62.624,51.489L62.717,51.539L62.852,51.658L62.939,51.718L62.988,51.723L63.044,51.714L63.094,51.716L63.122,51.757L63.128,51.805L63.122,51.949L63.135,52.052L63.180,52.134L63.312,52.291L63.341,52.379L63.324,52.473L63.267,52.659L63.324,52.845L63.666,53.059L63.767,53.256L63.781,53.310L63.821,53.411L63.833,53.462L63.822,53.523L63.746,53.614L63.718,53.665L63.711,53.767L63.720,53.852L63.715,53.938L63.662,54.042L63.922,54.042L64.787,54.043L65.653,54.044L66.518,54.046L67.383,54.047L67.564,54.048L67.652,54.025L67.699,53.987L67.719,53.950L67.746,53.922L67.816,53.915L67.867,53.932L67.903,53.962L67.943,53.986L68.009,53.982L68.103,53.933L68.274,53.798L68.510,53.718L68.575,53.624L68.620,53.509L68.682,53.402L68.764,53.341L69.088,53.197L69.389,53.117L69.477,53.048L69.514,52.992L69.572,52.867L69.614,52.809L69.670,52.762L69.796,52.686L69.851,52.638L69.990,52.434L70.068,52.345L70.312,52.213L70.408,52.136L70.591,51.949L70.690,51.874L71.012,51.692L71.104,51.601L71.273,51.392L71.374,51.305L71.468,51.259L71.565,51.238L71.769,51.217L71.775,51.281L71.767,51.295L71.717,51.381L71.704,51.463L71.680,51.524L71.589,51.565L71.600,51.581L71.613,51.618L71.623,51.635L71.561,51.651L71.521,51.699L71.511,51.762L71.577,51.878L71.532,51.889L71.466,51.879L71.440,51.870L71.312,51.873L71.286,51.880L71.334,51.970L71.369,52.130L71.401,52.221L71.455,52.295L71.598,52.408L71.654,52.479L71.687,52.580L71.679,52.672L71.641,52.756L71.583,52.838L71.567,52.869L71.555,52.928L71.530,52.957L71.504,52.960L71.453,52.928L71.428,52.928L71.378,52.957L71.332,52.993L71.292,53.036L71.264,53.088L71.218,53.286L71.218,53.580L71.217,53.797L71.216,54.205L71.215,54.831L71.213,55.457L71.211,56.083L71.210,56.708L71.208,57.334L71.207,57.960L71.205,58.585L71.204,58.983L71.620,58.649L71.725,58.626L71.855,58.740L72.072,58.998L72.194,59.110L72.418,59.220L72.662,59.260L72.912,59.248L73.154,59.201L73.352,59.132L74.529,58.533L74.733,58.543L74.825,58.570L74.920,58.576L75.117,58.563L75.247,58.572L75.330,58.607L75.513,58.725L75.674,58.757L76.276,58.694L76.366,58.695L76.384,58.726L76.401,58.756L76.418,58.786L76.436,58.816L76.453,58.847L76.470,58.878L76.488,58.908L76.505,58.938L77.012,59.828L77.518,60.718L78.024,61.608L78.531,62.499L79.037,63.389L79.543,64.279L80.050,65.169L80.556,66.059L80.676,66.271L80.701,66.316L80.652,66.337L80.624,66.382L80.595,66.480L80.554,66.555L80.498,66.628L80.430,66.690L80.285,66.767L80.218,66.823L80.172,66.894L80.166,66.975L80.211,67.021L80.368,67.064L80.416,67.118L80.304,67.338L80.267,67.382L79.867,67.490L79.768,67.557L79.693,67.659L79.632,67.798L79.525,67.783L79.466,67.875L79.415,67.994L79.262,68.112L79.234,68.223L79.236,68.434L79.296,68.917L79.304,68.988L79.268,69.570L79.281,69.769L79.350,70.155L79.293,71.115L79.311,71.226L79.282,71.348L79.239,71.466L79.197,71.529L79.094,71.639L79.057,71.696L79.045,71.763L79.055,71.825L79.053,71.883L79.011,71.936L78.955,71.947L78.807,71.920L78.744,71.926L78.676,72.038L78.776,72.180L79.038,72.390L79.092,72.463L79.092,72.520L79.068,72.578L79.051,72.657L79.057,72.723L79.120,72.912L79.203,73.037L79.222,73.204L79.222,73.382L79.252,73.540L79.316,73.630L79.576,73.799L79.626,73.870L79.655,73.946L79.685,74.115L79.805,74.445L79.827,74.617L79.733,74.716L79.405,74.758L79.242,74.799L79.120,74.886L79.093,74.971L79.086,75.066L79.091,75.256L79.129,75.343L79.195,75.441L79.216,75.540L79.120,75.629L78.805,75.803L78.710,75.871L78.519,76.089L78.484,76.106L78.401,76.127L78.372,76.150L78.357,76.235L78.371,76.461L78.342,76.516L78.236,76.513L78.126,76.490L78.030,76.500L77.968,76.595L77.937,77.225L77.870,77.367L77.793,77.411L77.524,77.485L77.415,77.550L77.371,77.617L77.364,77.701L77.385,78.104L77.374,78.142L77.295,78.326L77.273,78.418L77.304,78.503L77.408,78.599L77.490,78.674L77.769,79.094L77.848,79.174L78.137,79.385L78.216,79.461L78.336,79.629L78.450,79.740L78.439,79.830L78.363,79.890L78.248,79.882L78.154,79.888L78.089,80.078L77.927,80.133L77.834,80.216L77.756,80.317L77.728,80.397L77.784,80.543L77.782,80.586L77.748,80.607L77.615,80.652L77.566,80.678L77.503,80.766L77.478,80.863L77.465,80.961L77.440,81.057L77.125,81.524L77.082,81.671L77.110,81.819L77.169,81.964L77.376,82.471L77.582,82.977L77.788,83.484L77.994,83.991L78.103,84.259L78.272,84.467L78.362,84.543L78.467,84.607L78.583,84.645L78.707,84.645L78.762,84.622L78.856,84.551L78.909,84.533L78.962,84.537L79.120,84.585L79.256,84.541L79.366,84.606L79.563,84.819L79.816,84.919L79.928,84.993L79.977,85.125L79.869,85.294L79.323,85.506L79.161,85.587L79.034,85.741L78.990,85.826L78.980,85.926L78.986,86.213L78.974,86.366L78.999,86.448L79.129,86.626L79.070,86.701L78.989,86.803L78.908,86.863L78.625,87.006L78.535,87.027L78.362,87.043L78.284,87.091L78.239,87.161L78.147,87.426L78.080,87.531L77.587,88.042L77.459,88.315L77.401,88.381L77.193,88.501L77.162,88.533L77.148,88.581L77.163,88.610L77.199,88.625L77.222,88.656L77.199,88.734L77.095,88.851L76.965,88.899L76.826,88.924L76.694,88.975L76.544,89.074L76.282,89.307L76.252,89.316L76.168,89.330L76.147,89.336L76.093,89.443L76.018,89.716L75.935,89.841L75.945,89.843L76.194,89.875L76.271,89.901L76.466,90.054L76.563,90.150L76.633,90.239L76.688,90.384L76.702,90.558L76.694,90.909L76.694,90.914ZM44.253,74.971L44.283,75.027L44.298,75.068L44.348,75.094L44.329,75.128L44.272,75.117L44.196,75.061L44.131,75.027L44.131,74.971L44.169,74.952L44.253,74.971ZM43.047,72.844L43.081,72.859L43.081,72.911L43.058,72.959L43.013,72.970L42.960,72.970L42.918,72.959L42.931,72.899L42.972,72.858L42.983,72.806L43.036,72.810L43.047,72.844ZM39.218,64.167L39.407,64.337L39.448,64.383L39.467,64.415L39.416,64.401L39.356,64.410L39.291,64.364L39.199,64.304L39.144,64.226L39.117,64.158L39.163,64.135L39.218,64.167ZM21.699,36.227L21.671,36.263L21.638,36.345L21.665,36.413L21.705,36.459L21.708,36.519L21.703,36.601L21.715,36.687L21.661,36.696L21.597,36.690L21.580,36.645L21.599,36.595L21.582,36.517L21.541,36.480L21.578,36.440L21.593,36.367L21.649,36.195L21.699,36.227Z" fill="currentColor" stroke="currentColor" stroke-width="1.5" stroke-linejoin="round"/>
</svg>