<svg xmlns="http://www.w3.org/2000/svg" viewBox="0 0 100 100" role="img" aria-label="Palau">
  <title>Palau</title>
  <path d="M73.359,22.870L73.495,22.901L73.563,22.971L73.584,23.078L73.594,23.218L73.523,23.306L73.359,23.586L73.506,23.815L73.438,23.878L73.271,23.886L73.121,23.944L72.869,24.299L72.713,24.447L72.645,24.362L72.736,24.025L73.359,22.870ZM76.707,19.028L76.452,19.102L76.482,19.249L76.622,19.420L76.707,19.565L76.611,19.684L76.398,19.736L76.047,19.744L75.883,19.838L75.472,20.248L75.212,20.342L74.985,20.300L74.816,20.187L74.710,20.016L74.676,19.804L74.689,19.491L74.740,19.432L75.292,20.013L75.404,19.996L75.625,19.864L76.237,19.314L76.359,19.148L76.372,18.942L76.316,18.749L76.311,18.636L76.457,18.670L76.550,18.725L76.622,18.794L76.677,18.890L76.707,19.028ZM76.837,17.835L77.138,17.916L77.543,18.101L77.812,18.377L77.723,18.730L77.543,18.778L77.393,18.590L77.277,18.337L77.183,18.182L76.949,18.109L76.779,18.162L76.457,18.432L76.427,18.173L76.458,17.959L76.585,17.832L76.837,17.835ZM79.915,11.595L80.123,12.179L80.178,13.008L80.089,13.839L79.865,14.427L79.524,14.898L79.509,15.013L79.703,15.266L79.703,15.376L79.622,15.454L79.475,15.907L79.069,16.435L78.976,16.810L79.095,17.466L79.010,17.705L78.931,17.759L78.844,17.729L78.640,17.712L78.477,17.611L78.368,17.596L78.288,17.660L78.105,17.904L78.012,17.954L77.823,17.921L77.750,17.861L77.724,17.756L77.570,17.323L77.438,16.760L77.323,16.511L77.183,16.400L77.084,16.408L77.039,16.379L77.064,16.153L77.119,15.957L77.220,15.779L77.359,15.635L77.537,15.545L77.605,15.772L77.761,15.801L77.925,15.676L78.012,15.436L77.965,15.292L77.829,15.150L77.537,14.948L77.672,14.822L77.905,14.492L78.115,14.350L78.143,14.362L78.157,14.265L78.156,14.026L78.143,14.004L78.327,13.663L78.538,13.443L78.834,13.324L79.271,13.289L79.686,13.170L79.789,12.879L79.650,11.966L79.489,11.620L79.449,11.415L79.517,11.339L79.673,11.372L79.830,11.472L79.915,11.595ZM18.899,93.282L19.226,93.081L19.621,93.055L19.769,93.256L19.566,93.527L19.219,93.711L18.835,93.778L18.708,93.594L18.899,93.282ZM37.664,54.032L37.551,53.772L37.661,53.717L37.775,53.820L37.664,54.032ZM71.413,26.193L71.163,25.936L71.014,25.588L71.065,25.322L71.416,25.310L71.648,25.487L71.728,25.761L71.651,26.031L71.413,26.193ZM30.201,94.498L30.460,94.559L30.574,94.801L30.264,95.000L29.980,94.934L29.920,94.737L30.087,94.562L30.201,94.498ZM80.985,5.000L81.204,5.003L81.292,5.240L81.132,5.663L80.838,5.811L80.686,5.626L80.691,5.369L80.985,5.000Z" fill="currentColor" stroke="currentColor" stroke-width="1" stroke-linejoin="round"/>
</svg>