<svg xmlns="http://www.w3.org/2000/svg" viewBox="0 0 100 100" role="img" aria-label="Papua New Guinea">
  <title>Papua New Guinea</title>
  <path d="M5.746,26.688L5.822,26.684L5.944,26.734L6.154,26.624L6.382,26.651L6.621,26.730L6.864,26.775L7.049,26.775L7.123,26.802L7.173,26.836L7.212,26.869L7.252,26.895L7.321,26.910L7.473,26.916L7.540,26.939L7.568,26.976L7.629,27.103L7.661,27.143L7.740,27.112L7.911,27.295L8.046,27.348L8.174,27.366L9.328,27.848L10.668,28.483L10.855,28.518L10.875,28.563L10.877,28.622L10.902,28.682L11.169,28.865L11.288,28.885L11.512,28.843L11.851,28.818L11.913,28.844L12.237,29.135L12.269,29.193L12.256,29.244L12.229,29.311L12.210,29.381L12.225,29.442L12.265,29.454L12.418,29.466L12.473,29.483L12.669,29.415L12.799,29.477L12.934,29.562L13.064,29.606L13.199,29.618L13.289,29.647L13.455,29.728L14.200,29.947L14.839,30.256L15.515,30.466L16.686,30.825L16.818,30.840L16.887,30.856L17.084,30.962L17.162,30.973L17.247,30.976L17.327,30.987L17.500,31.089L17.978,31.212L18.113,31.215L18.311,31.197L18.413,31.189L18.510,31.212L18.551,31.167L18.651,31.208L19.061,31.249L19.118,31.268L19.230,31.353L19.305,31.372L19.378,31.376L20.649,31.602L20.917,31.694L21.021,31.764L21.363,32.108L21.423,32.275L21.447,32.316L21.487,32.346L21.581,32.386L21.629,32.416L21.679,32.441L21.854,32.498L21.878,32.523L21.930,32.497L22.017,32.435L22.052,32.437L22.091,32.451L22.104,32.488L22.058,32.562L22.113,32.637L22.175,32.689L22.255,32.720L22.468,32.737L22.581,32.763L22.674,32.807L22.894,33.157L22.969,33.211L23.215,33.322L23.302,33.343L23.442,33.410L23.732,33.834L23.885,33.893L24.082,33.905L24.470,33.878L24.533,33.887L24.601,33.876L24.751,33.878L24.702,33.927L24.644,33.957L24.578,33.967L24.508,33.960L24.553,34.030L24.607,34.066L24.665,34.094L24.729,34.143L24.822,34.182L24.969,34.102L25.056,34.143L25.101,34.229L25.131,34.270L25.178,34.287L25.243,34.281L25.258,34.265L25.258,34.240L25.280,34.205L25.337,34.143L25.389,34.062L25.417,33.980L25.401,33.919L25.602,33.866L25.870,33.863L26.138,33.899L26.339,33.960L26.417,33.946L26.726,33.958L26.813,33.980L26.894,34.062L26.962,34.152L27.012,34.254L27.039,34.373L27.039,34.884L27.077,34.950L27.167,35.019L27.220,35.048L27.275,35.078L27.363,35.113L28.104,35.229L28.339,35.317L28.496,35.455L28.600,35.528L28.780,35.577L28.923,35.668L28.953,35.700L28.959,35.719L28.973,35.730L28.987,35.749L28.993,35.785L28.977,35.825L28.902,35.858L28.875,35.890L28.872,35.961L28.906,36.041L28.980,36.105L29.245,36.152L29.348,36.207L29.525,36.381L29.658,36.465L29.688,36.503L29.687,36.721L29.708,36.753L29.794,36.803L30.013,37.122L30.173,37.210L30.789,37.411L31.027,37.409L31.282,37.347L31.537,37.318L31.768,37.411L32.012,37.718L32.377,38.025L32.592,38.275L32.642,38.368L32.768,38.538L32.824,38.575L32.874,38.573L32.916,38.558L32.950,38.560L33.042,38.664L33.169,38.945L33.819,39.676L33.911,39.758L34.023,39.803L34.117,39.866L34.137,39.892L34.339,39.951L34.393,40.007L34.481,40.121L34.543,40.232L34.525,40.282L34.457,40.337L34.414,40.465L34.380,40.736L34.385,40.877L34.446,41.123L34.461,41.245L34.475,41.279L34.530,41.362L34.543,41.412L34.537,41.463L34.493,41.531L34.461,41.598L34.466,41.614L34.452,41.829L34.426,41.961L34.420,42.024L34.429,42.278L34.419,42.388L34.380,42.499L34.167,42.801L34.137,42.930L34.144,42.979L34.171,43.070L34.177,43.136L34.162,43.211L34.055,43.403L34.040,43.596L34.106,43.783L34.232,43.922L34.400,43.979L34.761,43.915L34.903,43.953L34.990,44.142L35.031,44.142L35.039,44.099L35.065,44.025L35.071,43.979L35.112,43.993L35.130,44.001L35.153,44.019L35.225,43.934L35.313,43.917L35.403,43.909L35.481,43.852L35.586,43.959L35.688,43.997L35.797,44.026L35.929,44.102L35.974,44.063L36.003,44.058L36.025,44.075L36.051,44.102L36.115,44.099L36.317,44.191L36.420,44.224L36.565,44.220L36.635,44.235L36.664,44.285L36.692,44.357L36.759,44.379L36.908,44.388L37.022,44.442L37.086,44.462L37.193,44.432L37.250,44.468L37.307,44.521L37.359,44.555L37.421,44.556L37.545,44.520L37.624,44.511L37.695,44.512L37.740,44.523L37.850,44.592L37.891,44.620L37.943,44.664L38.007,44.684L38.086,44.677L38.049,44.677L38.180,44.676L38.296,44.652L38.407,44.655L38.519,44.737L38.548,44.794L38.571,44.854L38.609,44.901L38.752,44.932L38.823,44.963L39.572,45.553L39.967,45.659L40.170,45.782L40.306,45.812L40.356,45.845L40.386,45.955L40.414,46.059L40.501,46.089L40.609,46.062L40.702,46.027L40.839,46.008L40.944,46.027L41.035,46.057L41.129,46.072L41.216,46.109L41.264,46.199L41.301,46.307L41.353,46.399L41.662,46.604L41.710,46.610L41.770,46.624L41.822,46.644L41.867,46.689L41.920,46.665L42.004,46.604L42.068,46.601L42.106,46.613L42.173,46.686L42.251,46.811L42.309,46.870L42.335,46.831L42.407,46.803L42.956,46.869L43.011,46.869L43.067,46.853L43.138,46.800L43.193,46.730L43.252,46.671L43.337,46.645L43.389,46.658L43.538,46.727L43.578,46.724L43.591,46.713L43.598,46.694L43.620,46.665L43.661,46.641L43.690,46.651L43.721,46.686L44.015,46.791L44.289,46.826L44.393,46.873L44.474,46.938L44.542,47.013L44.565,47.025L44.636,47.042L44.660,47.058L44.674,47.089L44.684,47.151L44.697,47.181L44.738,47.221L44.900,47.300L45.317,47.695L45.476,47.979L45.536,48.043L45.632,48.100L45.690,48.236L45.736,48.397L45.802,48.490L45.939,48.687L46.383,48.912L46.537,49.066L46.559,49.148L46.550,49.203L46.533,49.252L46.537,49.319L46.576,49.396L46.631,49.457L46.679,49.524L46.712,49.691L46.768,49.831L46.780,49.910L46.761,49.963L46.726,50.006L46.707,50.056L46.740,50.133L46.676,50.212L46.684,50.301L46.719,50.402L46.740,50.527L46.721,50.555L46.637,50.610L46.618,50.628L46.629,50.702L46.658,50.742L46.697,50.746L46.740,50.710L46.700,51.196L46.233,51.357L45.188,51.413L45.131,51.448L45.027,51.545L44.981,51.573L44.915,51.570L44.850,51.542L44.785,51.524L44.719,51.552L44.611,51.580L44.213,51.450L44.076,51.451L43.831,51.515L43.703,51.532L42.776,51.481L42.702,51.491L42.668,51.431L42.624,51.384L42.566,51.350L42.495,51.327L42.402,51.316L42.109,51.327L42.029,51.352L41.880,51.465L41.782,51.491L41.583,51.482L41.481,51.492L41.394,51.532L41.385,51.676L41.294,51.927L41.271,52.063L41.278,52.352L41.316,52.636L41.355,52.776L41.551,53.018L41.678,53.134L41.740,53.212L41.778,53.241L41.844,53.257L41.891,53.247L41.971,53.172L42.048,53.134L42.039,53.215L42.008,53.277L41.976,53.329L41.963,53.376L41.975,53.451L42.029,53.549L42.048,53.625L42.039,53.701L41.996,53.843L42.004,53.915L42.027,53.923L42.335,54.162L42.404,54.237L42.457,54.324L42.478,54.450L42.455,54.734L42.495,54.815L42.524,54.880L42.505,54.909L42.472,54.933L42.457,54.982L42.491,55.040L42.535,55.146L42.564,55.329L42.580,55.388L42.676,55.542L42.702,55.596L42.737,55.622L42.765,55.646L42.783,55.674L42.776,55.708L42.744,55.727L42.710,55.739L42.702,55.756L42.738,55.819L42.764,55.823L42.800,55.814L42.864,55.842L42.892,55.886L42.888,55.924L42.902,55.951L42.986,55.965L43.013,55.948L43.111,55.842L43.149,55.842L43.184,55.871L43.212,55.901L43.217,55.933L43.189,55.965L43.549,56.052L43.726,56.135L43.803,56.273L43.826,56.334L43.879,56.365L43.943,56.376L43.991,56.377L44.079,56.392L44.135,56.431L44.183,56.482L44.253,56.537L44.204,56.592L44.239,56.606L44.311,56.608L44.372,56.623L44.517,56.740L44.586,56.816L44.616,56.887L44.612,57.112L44.669,57.167L44.992,57.218L45.076,57.264L45.104,57.352L45.107,57.506L45.149,57.630L45.228,57.727L45.277,57.821L45.229,57.940L45.517,57.899L45.517,57.854L45.462,57.828L45.419,57.787L45.396,57.729L45.395,57.649L45.556,57.773L45.684,57.905L45.770,58.078L45.818,58.463L45.866,58.563L45.943,58.632L46.049,58.675L46.146,58.684L46.326,58.642L46.456,58.635L46.492,58.654L46.526,58.689L46.571,58.701L46.639,58.654L46.695,58.631L46.765,58.636L46.834,58.663L47.114,58.868L47.245,58.935L47.374,58.962L47.420,59.019L47.434,59.063L47.505,59.287L47.560,59.371L47.677,59.385L47.800,59.356L47.905,59.344L47.963,59.415L48.028,59.381L48.097,59.373L48.248,59.371L48.279,59.351L48.373,59.315L48.440,59.313L48.392,59.394L48.388,59.491L48.511,60.035L48.598,60.173L48.630,60.346L48.739,60.565L48.787,60.702L48.824,60.873L48.828,61.044L48.776,61.182L48.942,61.550L48.974,61.684L48.963,61.790L48.902,62.004L48.895,62.116L48.906,62.244L48.935,62.362L48.983,62.450L49.079,62.519L49.291,62.621L49.349,62.699L49.486,62.655L49.604,62.689L49.701,62.750L49.779,62.781L49.824,62.793L49.870,62.825L49.907,62.871L49.922,62.925L49.954,62.965L50.169,63.030L50.220,63.082L50.287,63.235L50.348,63.324L50.433,63.417L50.467,63.516L50.453,63.930L50.524,64.329L50.557,64.384L50.611,64.392L50.659,64.416L50.692,64.448L50.704,64.484L50.698,64.523L50.665,64.580L50.657,64.609L50.669,64.644L50.722,64.714L50.738,64.756L50.794,64.996L50.898,65.225L51.055,65.414L51.266,65.532L51.783,65.626L51.993,65.619L52.083,65.652L52.137,65.630L52.390,65.570L52.488,65.564L52.566,65.549L52.632,65.523L52.756,65.451L52.822,65.400L52.877,65.336L52.899,65.267L52.946,65.286L53.054,65.295L53.177,65.286L53.269,65.247L53.391,65.339L53.553,65.328L53.933,65.241L53.968,65.227L53.994,65.207L54.005,65.187L54.018,65.129L54.050,65.107L54.090,65.099L54.127,65.083L54.221,64.974L54.283,64.920L54.366,64.878L54.436,65.052L54.972,65.013L55.102,65.124L55.163,65.091L55.215,65.081L55.251,65.104L55.265,65.169L55.305,65.169L55.363,65.132L55.415,65.166L55.453,65.234L55.468,65.307L55.454,65.390L55.420,65.458L55.346,65.570L55.378,65.587L55.401,65.602L55.427,65.612L55.468,65.615L55.372,65.647L55.323,65.654L55.265,65.652L55.347,65.734L55.455,65.751L55.530,65.779L55.512,65.901L55.448,65.993L55.350,66.065L55.241,66.096L55.143,66.065L55.097,66.122L54.998,66.302L54.980,66.374L54.967,66.503L54.911,66.702L54.898,66.825L54.853,66.924L54.656,67.091L54.611,67.236L54.637,67.371L54.751,67.603L54.776,67.731L54.871,67.947L55.089,68.047L55.512,68.121L55.671,68.203L55.705,68.232L55.767,68.302L55.797,68.326L55.824,68.331L55.892,68.320L55.919,68.326L55.994,68.397L56.000,68.408L56.206,68.489L56.150,68.568L56.244,68.590L56.268,68.590L56.743,68.585L56.857,68.608L57.212,68.750L57.305,68.742L57.410,68.671L57.468,68.647L57.529,68.656L57.614,68.690L57.674,68.678L57.817,68.624L57.873,68.612L58.009,68.630L58.243,68.712L58.523,68.746L58.811,68.858L58.947,68.865L59.325,68.813L59.481,68.829L59.548,68.878L59.632,69.062L59.680,69.098L59.725,69.106L59.766,69.132L59.794,69.225L59.808,69.314L59.801,69.332L59.759,69.327L59.668,69.348L59.346,69.514L59.229,69.557L58.811,69.639L58.581,69.710L58.442,69.723L58.324,69.676L58.246,69.747L57.966,69.829L57.873,69.880L57.814,70.007L57.840,70.110L57.998,70.297L58.434,70.649L58.622,70.873L58.609,71.111L58.759,71.122L58.854,71.161L59.039,71.343L59.115,71.396L59.222,71.441L59.340,71.474L59.447,71.487L59.790,71.469L59.917,71.487L60.033,71.523L60.241,71.649L60.284,71.657L60.366,71.651L60.421,71.634L60.530,71.580L60.591,71.569L60.646,71.592L60.689,71.647L60.753,71.751L60.941,71.808L60.985,71.835L61.078,71.959L61.188,72.052L61.267,72.096L61.505,72.141L61.750,72.230L61.881,72.257L61.997,72.223L62.035,72.235L62.104,72.239L62.171,72.230L62.200,72.202L62.447,72.260L62.596,72.319L62.660,72.310L62.752,72.241L62.805,72.231L63.057,72.260L63.025,72.306L62.947,72.391L62.935,72.428L62.973,72.488L63.109,72.578L63.139,72.655L63.209,72.687L63.367,72.667L63.752,72.572L64.139,72.554L64.230,72.523L64.408,72.383L64.524,72.346L64.678,72.368L64.662,72.440L64.552,72.518L64.310,72.578L63.576,72.972L63.363,73.050L63.139,73.086L63.038,73.085L63.005,73.072L62.976,73.045L62.859,73.056L62.590,72.948L62.465,72.919L62.216,72.903L62.099,72.872L62.016,72.820L61.856,72.821L61.657,72.981L61.540,73.211L61.627,73.417L61.656,73.419L61.666,73.413L61.671,73.372L61.758,73.419L62.029,73.432L62.139,73.476L62.188,73.505L62.252,73.524L62.451,73.554L62.511,73.589L62.607,73.662L63.328,73.880L63.467,73.993L63.508,74.198L63.578,74.295L63.600,74.358L63.567,74.422L63.475,74.478L62.753,74.742L62.688,74.709L62.666,74.693L62.507,74.730L62.421,74.733L62.374,74.747L62.281,74.812L62.270,74.836L62.212,74.908L62.148,74.967L62.119,74.958L62.101,74.980L62.064,75.010L62.032,75.062L62.034,75.142L61.950,75.107L61.846,75.103L61.744,75.117L61.671,75.142L61.597,75.006L61.500,74.963L61.376,74.989L61.100,75.130L61.098,75.142L61.058,75.130L61.006,75.106L60.969,75.078L60.973,75.061L60.910,75.084L60.849,75.122L60.733,75.224L60.692,75.174L60.551,75.079L60.535,75.040L60.558,75.004L60.593,74.964L60.612,74.915L60.548,74.876L60.405,74.899L60.254,74.956L60.164,75.016L60.067,74.887L60.038,74.856L59.980,74.831L59.956,74.845L59.933,74.865L59.876,74.856L59.798,74.759L59.753,74.730L59.713,74.727L59.664,74.733L59.607,74.728L59.547,74.689L59.657,74.617L59.645,74.550L59.584,74.485L59.547,74.422L59.527,74.400L59.487,74.455L59.429,74.566L59.378,74.567L59.325,74.548L59.229,74.484L59.243,74.458L59.263,74.358L59.200,74.413L59.181,74.443L59.140,74.443L59.104,74.388L59.029,74.341L58.856,74.279L58.897,74.358L58.877,74.364L58.862,74.364L58.854,74.372L58.856,74.402L58.799,74.369L58.740,74.345L58.677,74.329L58.609,74.320L58.677,74.250L58.770,74.221L58.844,74.180L58.856,74.071L58.823,74.087L58.738,74.112L58.762,74.067L58.798,74.033L58.842,74.008L58.897,73.993L58.937,74.059L59.001,74.065L59.161,74.030L59.427,74.101L59.702,74.016L59.753,73.993L59.767,73.959L59.780,73.858L59.794,73.826L59.828,73.811L59.960,73.785L59.883,73.752L59.803,73.747L59.720,73.750L59.632,73.744L59.570,73.717L59.447,73.638L59.320,73.614L59.250,73.583L59.206,73.577L59.181,73.590L59.143,73.649L59.119,73.662L59.109,73.702L59.094,73.793L59.068,73.889L59.019,73.948L58.974,73.909L58.949,73.868L58.939,73.821L58.937,73.764L58.927,73.717L58.902,73.697L58.875,73.684L58.856,73.662L58.805,73.514L58.772,73.457L58.713,73.395L58.557,73.299L58.228,73.197L58.102,73.108L57.977,73.049L57.779,73.028L57.389,73.045L57.189,73.088L57.080,73.097L56.931,73.044L56.868,73.086L56.794,73.123L56.695,73.086L56.654,73.131L56.735,73.167L56.735,73.208L56.551,73.208L56.503,73.186L56.485,73.080L56.446,73.045L56.381,73.058L56.328,73.105L56.264,73.133L56.162,73.086L56.229,73.044L56.230,73.004L56.184,72.975L56.033,72.945L56.015,72.901L56.011,72.841L55.980,72.779L55.715,72.676L55.638,72.711L55.528,72.829L55.468,72.881L55.396,72.832L55.278,72.793L55.147,72.768L55.038,72.758L54.961,72.739L54.532,72.518L54.445,72.486L54.287,72.465L54.178,72.435L54.127,72.428L54.011,72.445L53.958,72.448L53.923,72.428L53.785,72.483L53.714,72.503L53.655,72.509L53.575,72.533L53.504,72.585L53.442,72.641L53.391,72.676L53.274,72.688L53.160,72.648L52.756,72.450L52.684,72.433L52.593,72.428L52.286,72.473L52.210,72.470L52.101,72.436L52.021,72.428L51.961,72.400L51.974,72.269L51.920,72.223L51.933,72.203L51.949,72.162L51.961,72.141L51.900,72.143L51.880,72.141L51.912,72.072L51.960,72.035L52.023,72.021L52.104,72.018L52.137,71.970L52.083,71.882L52.003,71.837L51.961,71.920L51.932,71.962L51.866,71.956L51.797,71.926L51.758,71.899L51.730,71.846L51.672,71.651L51.636,71.651L51.597,71.892L51.552,72.007L51.450,72.056L51.388,72.123L51.371,72.148L51.332,72.138L51.266,72.104L50.985,72.104L50.846,72.064L50.771,72.054L50.738,72.080L50.707,72.130L50.634,72.161L50.546,72.177L50.079,72.183L49.962,72.223L49.576,72.073L49.515,71.998L49.463,71.874L49.349,71.784L49.236,71.765L49.190,71.854L49.104,71.800L49.032,71.726L48.946,71.655L48.820,71.610L48.767,71.608L48.657,71.616L48.617,71.610L48.581,71.576L48.542,71.488L48.492,71.446L48.420,71.656L48.187,71.790L47.902,71.833L47.678,71.769L47.589,71.911L47.523,71.974L47.434,72.018L47.325,71.950L47.258,71.837L47.208,71.712L47.147,71.610L47.053,71.554L46.959,71.567L46.847,71.601L46.700,71.610L46.700,71.569L46.812,71.532L46.864,71.436L46.852,71.335L46.780,71.282L46.730,71.291L46.691,71.322L46.666,71.369L46.645,71.493L46.611,71.479L46.537,71.401L46.291,71.348L46.150,71.380L45.924,71.610L45.883,71.610L45.779,71.111L45.724,71.101L45.648,71.076L45.583,71.044L45.554,71.014L45.524,70.972L45.454,70.961L45.373,70.962L45.314,70.955L45.238,70.902L45.026,70.694L44.981,70.603L44.948,70.510L44.869,70.433L44.774,70.366L44.697,70.297L44.649,70.213L44.624,70.118L44.616,69.862L44.593,69.739L44.539,69.630L44.004,68.937L43.843,68.776L43.785,68.697L43.736,68.598L43.670,68.507L43.559,68.449L43.518,68.489L43.514,68.355L43.462,68.259L43.377,68.188L43.271,68.121L43.175,68.078L43.102,68.075L43.082,68.125L43.149,68.244L43.011,68.253L42.825,68.195L42.643,68.106L42.515,68.017L42.480,67.948L42.450,67.746L42.413,67.667L42.344,67.614L42.270,67.596L42.187,67.604L42.088,67.626L42.119,67.676L42.213,67.707L42.251,67.749L42.265,67.816L42.257,67.874L42.236,67.911L42.211,67.917L42.210,67.917L42.142,67.915L42.033,67.867L41.930,67.788L41.853,67.601L41.698,67.370L41.641,67.258L41.567,66.967L41.513,66.834L41.414,66.702L41.297,66.667L41.053,66.720L40.990,66.638L41.062,66.623L41.115,66.590L41.135,66.541L41.109,66.477L41.053,66.439L40.999,66.294L40.990,66.116L41.071,65.983L41.038,65.955L41.006,65.916L40.975,65.870L40.950,65.819L40.996,65.799L41.109,65.775L41.246,65.681L41.271,65.675L41.309,65.614L41.478,65.486L41.519,65.410L41.515,65.350L41.497,65.286L41.469,65.231L41.434,65.206L41.357,65.222L41.320,65.280L41.315,65.341L41.334,65.369L41.327,65.411L41.141,65.601L41.071,65.652L40.859,65.669L40.676,65.589L40.498,65.470L40.296,65.369L40.225,65.356L40.117,65.374L40.048,65.369L40.004,65.350L39.919,65.298L39.506,65.207L39.394,65.169L39.245,65.067L39.151,64.933L39.077,64.793L38.987,64.674L39.013,64.594L38.997,64.499L38.962,64.418L38.927,64.384L38.964,64.327L38.975,64.217L39.008,64.139L39.110,64.180L39.199,64.110L39.261,64.037L39.289,63.952L39.273,63.844L39.190,63.927L39.091,63.964L39.032,63.941L39.069,63.844L39.039,63.821L39.013,63.789L38.995,63.749L38.987,63.703L38.956,63.627L38.885,63.613L38.808,63.623L38.763,63.624L38.738,63.575L38.738,63.515L38.745,63.452L38.740,63.395L38.714,63.323L38.682,63.265L38.398,62.946L38.324,62.841L38.294,62.761L38.254,62.697L37.968,62.532L37.824,62.400L37.313,61.647L37.240,61.464L37.234,61.223L37.217,61.173L37.166,61.103L37.156,61.078L37.156,60.892L37.121,60.790L37.063,60.683L36.984,60.599L36.788,60.526L36.614,60.357L36.563,60.319L36.422,60.298L36.357,60.238L36.257,60.029L36.334,59.964L36.317,59.867L36.249,59.769L36.173,59.702L36.234,59.675L36.275,59.640L36.286,59.594L36.257,59.538L36.135,59.563L35.958,59.496L35.644,59.333L35.302,59.249L35.108,59.239L34.953,59.289L34.837,59.206L34.461,59.081L34.380,58.982L34.367,58.962L34.339,58.938L34.312,58.906L34.299,58.859L34.316,58.841L34.396,58.830L34.420,58.798L34.413,58.763L34.385,58.739L34.354,58.719L34.339,58.694L34.350,58.653L34.420,58.511L34.380,58.511L34.308,58.604L34.221,58.602L34.121,58.584L34.011,58.635L34.097,58.756L33.991,58.802L33.627,58.798L33.552,58.775L33.441,58.669L33.361,58.635L33.271,58.640L33.182,58.663L33.090,58.673L32.995,58.635L32.995,58.675L32.884,58.636L32.481,58.712L32.340,58.704L32.230,58.678L32.138,58.630L31.794,58.300L31.624,58.212L31.399,58.184L31.346,58.197L31.288,58.218L31.225,58.233L31.159,58.225L31.105,58.193L30.979,58.079L30.937,58.010L30.852,57.951L30.806,57.874L30.750,57.937L30.705,58.025L30.711,58.058L30.601,58.066L30.450,58.025L30.317,57.945L30.261,57.835L30.241,57.769L30.197,57.713L30.155,57.698L30.135,57.751L30.133,57.879L30.112,57.911L30.057,57.940L29.688,57.940L29.623,57.899L29.444,57.694L29.368,57.794L29.304,57.784L29.232,57.727L29.137,57.694L29.098,57.702L29.028,57.731L28.993,57.731L28.982,57.716L28.950,57.661L28.934,57.649L28.884,57.631L28.822,57.590L28.775,57.542L28.770,57.506L28.867,57.387L28.913,57.276L28.921,56.693L28.902,56.559L28.831,56.459L28.784,56.574L28.759,56.863L28.705,56.991L28.740,57.087L28.668,57.137L28.548,57.156L28.443,57.158L28.347,57.128L28.264,57.057L28.136,56.905L27.921,56.743L27.864,56.609L27.798,56.536L27.648,56.411L27.613,56.523L27.633,56.632L27.671,56.741L27.693,56.847L27.636,56.937L27.504,56.980L27.352,56.983L27.238,56.954L27.182,56.896L27.117,56.794L27.062,56.684L27.039,56.600L27.037,56.533L27.030,56.480L27.010,56.436L26.976,56.394L26.951,56.337L26.967,56.191L26.957,56.128L26.866,56.020L26.832,56.094L26.835,56.518L26.787,56.711L26.791,56.786L26.823,56.838L26.957,56.954L26.930,57.012L26.872,57.056L26.816,57.074L26.791,57.054L26.760,56.976L26.604,56.852L26.547,56.786L26.531,56.743L26.510,56.638L26.507,56.600L26.490,56.569L26.453,56.544L26.412,56.522L26.385,56.500L26.334,56.395L26.266,56.202L26.218,56.128L26.181,56.128L26.207,56.232L26.218,56.459L26.246,56.551L26.324,56.716L26.339,56.806L26.351,57.001L26.385,57.158L26.419,57.219L26.476,57.288L26.525,57.370L26.547,57.465L26.614,57.530L26.733,57.686L26.780,57.829L26.629,57.854L26.613,57.818L26.494,57.657L26.466,57.630L26.435,57.567L26.365,57.483L26.283,57.405L26.218,57.362L26.155,57.501L26.046,57.552L25.943,57.503L25.897,57.342L25.872,57.162L25.807,56.999L25.608,56.704L25.636,56.862L25.704,57.033L25.744,57.174L25.685,57.244L25.587,57.197L25.454,56.922L25.361,56.827L25.324,56.897L25.265,56.945L25.194,56.974L25.117,56.991L25.117,57.036L25.271,57.045L25.310,57.144L25.273,57.278L25.199,57.399L25.260,57.426L25.336,57.492L25.393,57.576L25.401,57.649L25.342,57.694L25.117,57.776L25.036,57.817L24.925,57.707L24.867,57.671L24.792,57.649L24.726,57.659L24.655,57.687L24.585,57.702L24.526,57.671L24.423,57.591L23.306,57.207L22.872,56.953L22.732,56.835L22.671,56.726L22.642,56.608L22.427,56.210L22.384,56.105L22.363,56.079L22.305,56.046L22.246,56.024L22.106,56.006L22.037,56.006L21.947,55.972L21.744,55.813L21.688,55.756L21.675,55.736L21.651,55.674L21.607,55.756L21.668,55.850L21.859,56.053L21.915,56.091L21.974,56.103L22.105,56.159L22.242,56.185L22.253,56.217L22.233,56.258L22.224,56.295L22.325,56.542L22.809,57.362L22.848,57.482L22.868,57.609L22.874,57.751L22.901,57.890L22.966,57.999L23.118,58.184L23.404,58.621L23.500,58.873L23.417,58.988L23.407,59.003L23.297,58.970L23.209,58.872L23.128,58.757L23.037,58.675L22.937,58.651L22.590,58.635L22.626,58.660L22.671,58.727L22.712,58.757L22.763,58.774L22.864,58.784L22.915,58.798L23.019,58.857L23.244,59.084L23.151,59.206L23.050,59.266L22.927,59.286L22.372,59.280L22.261,59.248L22.212,59.215L22.111,59.122L22.058,59.084L21.851,59.020L21.793,58.982L21.679,58.927L21.540,58.931L21.156,59.027L20.818,59.003L20.714,58.973L20.649,58.897L20.550,58.675L20.473,58.553L20.388,58.493L20.277,58.475L20.121,58.475L20.100,58.458L20.037,58.431L19.971,58.418L19.940,58.452L19.953,58.505L19.988,58.546L20.038,58.574L20.099,58.594L20.341,58.618L20.406,58.670L20.429,58.818L20.473,58.928L20.581,59.014L21.066,59.229L21.136,59.308L21.196,59.546L21.540,60.155L21.584,60.305L21.549,60.419L21.450,60.472L21.328,60.489L19.815,60.523L19.756,60.549L19.590,60.650L19.084,60.687L17.688,61.050L17.553,61.059L17.444,61.036L16.860,60.767L16.104,60.645L16.079,60.637L16.020,60.605L15.920,60.652L15.624,60.719L15.512,60.728L15.378,60.758L15.041,60.977L14.911,61.028L14.794,61.036L14.533,61.015L14.403,60.981L14.314,60.899L14.259,60.792L14.121,60.198L13.994,60.040L13.736,59.991L13.399,60.062L13.189,60.077L13.143,60.090L13.108,60.121L13.064,60.174L12.999,60.225L12.933,60.243L12.866,60.254L12.801,60.278L12.721,60.341L12.687,60.396L12.710,60.444L12.801,60.482L12.934,60.357L13.015,60.301L13.105,60.278L13.152,60.260L13.191,60.225L13.227,60.201L13.323,60.238L13.398,60.233L13.650,60.165L13.813,60.141L13.958,60.170L14.021,60.299L14.036,60.431L14.216,61.005L14.349,61.168L14.542,61.276L14.793,61.301L15.005,61.228L15.401,60.961L15.614,60.892L16.087,60.972L16.186,60.936L16.430,61.015L16.634,61.195L16.696,61.223L16.823,61.258L17.206,61.513L17.437,61.602L18.182,61.754L18.411,61.838L18.587,61.951L19.361,62.588L19.696,62.986L19.875,63.279L20.102,63.551L20.157,63.645L20.184,63.725L20.184,64.502L20.221,64.698L20.218,64.804L20.164,64.897L20.022,65.029L19.955,65.075L19.856,65.124L19.678,65.171L19.340,65.172L19.164,65.206L19.205,65.247L19.145,65.266L19.020,65.274L18.928,65.291L18.865,65.285L18.836,65.288L18.820,65.309L18.802,65.350L18.774,65.391L18.734,65.410L18.647,65.426L18.118,65.590L18.017,65.640L17.872,65.759L17.733,65.844L17.675,65.860L17.608,65.892L17.552,65.962L17.501,66.044L17.450,66.105L17.329,66.171L17.051,66.285L16.840,66.447L16.202,66.695L16.104,66.755L16.064,66.825L15.736,67.009L15.497,67.036L15.288,66.971L15.108,66.853L14.822,66.608L14.619,66.471L14.404,66.379L14.228,66.395L14.072,66.316L13.980,66.285L13.840,66.273L13.750,66.251L13.492,66.105L13.181,65.996L13.105,65.983L13.041,66.002L12.928,66.086L12.858,66.105L12.658,66.099L11.815,66.161L11.696,66.186L11.335,66.316L11.213,66.342L11.067,66.351L10.942,66.332L10.693,66.249L10.559,66.228L10.054,66.319L9.905,66.310L9.855,66.349L9.771,66.389L9.677,66.421L9.596,66.433L9.504,66.401L9.427,66.342L9.347,66.307L9.251,66.351L9.178,66.339L9.053,66.338L8.934,66.319L8.844,66.196L8.597,66.024L8.408,65.931L8.187,65.879L7.957,65.878L7.744,65.942L7.278,66.305L7.089,66.395L6.806,66.422L6.582,66.339L5.944,65.775L5.761,65.666L5.762,64.977L5.764,63.822L5.764,62.701L5.763,61.645L5.761,60.058L5.760,59.051L5.760,58.812L5.760,57.678L5.760,56.568L5.760,54.987L5.760,54.742L5.761,53.989L5.761,53.076L5.762,52.428L5.672,52.436L5.560,52.377L5.539,52.187L5.398,52.225L5.352,52.145L5.342,52.018L5.312,51.922L5.198,51.839L5.149,51.786L5.129,51.720L5.143,51.691L5.199,51.613L5.210,51.573L5.176,51.503L5.051,51.392L5.007,51.328L5.000,51.267L5.015,51.214L5.047,51.143L5.099,50.946L5.094,50.834L5.007,50.792L5.060,50.701L5.147,50.671L5.246,50.650L5.332,50.588L5.322,50.544L5.281,50.489L5.261,50.444L5.312,50.424L5.361,50.419L5.392,50.402L5.409,50.370L5.414,50.219L5.427,50.150L5.470,50.110L5.561,50.097L5.601,50.044L5.619,49.935L5.592,49.845L5.498,49.848L5.500,49.775L5.481,49.722L5.440,49.691L5.377,49.684L5.429,49.656L5.487,49.641L5.550,49.638L5.617,49.643L5.601,49.566L5.633,49.520L5.678,49.478L5.702,49.416L5.687,49.381L5.630,49.331L5.617,49.296L5.623,49.274L5.652,49.261L5.682,49.141L5.736,49.073L5.760,49.064L5.760,48.430L5.760,47.069L5.760,45.897L5.760,44.786L5.760,43.244L5.760,42.999L5.760,42.247L5.760,41.078L5.760,41.062L5.760,40.996L5.756,39.709L5.753,38.644L5.747,36.114L5.744,35.087L5.740,33.875L5.738,32.567L5.733,30.583L5.739,29.096L5.742,27.927L5.746,26.872L5.746,26.688ZM81.868,80.524L81.897,80.541L81.936,80.553L81.970,80.569L81.983,80.602L81.966,80.662L81.935,80.680L81.899,80.669L81.868,80.639L81.818,80.671L81.782,80.681L81.746,80.671L81.698,80.639L81.635,80.689L81.563,80.717L81.487,80.716L81.414,80.683L81.390,80.756L81.357,80.762L81.316,80.740L81.270,80.724L81.007,80.724L80.975,80.719L80.955,80.684L80.923,80.683L80.891,80.701L80.843,80.754L80.824,80.765L80.757,80.790L80.694,80.826L80.640,80.822L80.601,80.724L80.654,80.730L80.704,80.721L80.735,80.692L80.726,80.639L80.692,80.604L80.649,80.607L80.598,80.627L80.539,80.639L80.487,80.621L80.455,80.581L80.434,80.541L80.414,80.524L80.351,80.533L80.301,80.550L80.253,80.553L80.191,80.524L80.208,80.499L80.235,80.434L80.180,80.429L80.152,80.409L80.144,80.372L80.150,80.311L80.089,80.360L80.040,80.415L79.990,80.461L79.927,80.479L79.703,80.352L79.610,80.405L79.553,80.363L79.530,80.275L79.537,80.189L79.575,80.142L79.631,80.093L79.660,80.039L79.618,79.980L79.553,79.955L79.526,79.975L79.510,80.010L79.478,80.028L79.437,80.016L79.407,79.986L79.378,79.943L79.288,79.974L79.198,80.028L79.049,80.148L79.020,80.025L79.254,79.915L79.253,79.820L79.199,79.789L79.067,79.790L79.008,79.776L78.952,79.729L78.882,79.618L78.825,79.553L78.780,79.545L78.732,79.565L78.695,79.569L78.680,79.512L78.712,79.385L78.699,79.343L78.620,79.326L78.579,79.308L78.532,79.266L78.493,79.217L78.476,79.181L78.482,79.108L78.501,79.041L78.558,78.913L78.869,79.131L78.986,79.162L79.098,79.130L79.149,79.130L79.193,79.229L79.245,79.251L79.313,79.265L79.378,79.285L79.519,79.380L79.581,79.408L79.721,79.437L79.782,79.460L79.949,79.596L80.317,79.739L80.596,79.917L80.662,79.943L80.789,79.950L81.475,80.136L81.536,80.168L81.552,80.232L81.596,80.291L81.655,80.335L81.785,80.372L81.822,80.420L81.868,80.524ZM84.964,79.100L84.974,79.157L84.999,79.231L85.039,79.294L85.087,79.326L85.046,79.397L85.004,79.454L84.951,79.499L84.883,79.534L84.835,79.444L84.726,79.397L84.594,79.387L84.469,79.408L84.260,79.516L84.174,79.507L84.149,79.363L84.111,79.363L84.074,79.520L83.987,79.586L83.860,79.584L83.701,79.534L83.614,79.541L83.562,79.513L83.539,79.428L83.515,79.390L83.459,79.358L83.390,79.335L83.332,79.326L83.361,79.282L83.399,79.247L83.444,79.220L83.498,79.200L83.467,79.176L83.413,79.080L83.451,79.076L83.472,79.085L83.498,79.118L83.597,79.174L83.860,79.191L83.986,79.244L84.030,79.200L84.104,79.234L84.140,79.220L84.142,79.176L84.111,79.118L84.067,79.118L84.067,79.162L84.030,79.162L83.986,79.138L83.946,79.111L83.927,79.078L83.945,79.039L83.892,79.015L83.854,78.980L83.830,78.934L83.823,78.876L83.939,78.913L84.104,78.914L84.351,78.876L84.419,78.909L84.471,78.905L84.518,78.887L84.575,78.876L84.629,78.903L84.654,78.954L84.685,78.986L84.758,78.957L84.880,79.010L84.940,79.047L84.964,79.100ZM78.436,78.676L78.494,78.640L78.520,78.631L78.520,78.590L78.354,78.467L78.311,78.504L78.286,78.493L78.263,78.459L78.232,78.426L78.026,78.303L77.936,78.199L77.956,78.125L78.031,78.097L78.106,78.136L78.182,78.197L78.476,78.258L78.737,78.443L78.846,78.467L78.824,78.521L78.783,78.592L78.727,78.637L78.661,78.610L78.647,78.637L78.590,78.667L78.511,78.686L78.436,78.676ZM76.193,74.812L76.240,74.814L76.445,74.892L76.517,74.937L76.571,75.009L76.567,75.063L76.519,75.106L76.440,75.142L76.376,75.160L76.112,75.183L76.044,75.197L75.927,75.247L75.868,75.265L75.734,75.257L75.568,75.210L75.214,75.061L74.847,74.978L74.600,74.812L74.600,74.771L74.642,74.775L74.660,74.763L74.669,74.746L74.682,74.730L75.069,74.844L75.153,74.833L75.210,74.835L75.390,74.949L75.458,74.978L75.640,74.926L75.846,74.819L76.042,74.750L76.193,74.812ZM65.873,74.651L65.708,74.781L65.696,74.837L65.832,74.856L65.799,74.885L65.739,74.950L65.706,74.978L65.704,75.034L65.618,75.043L65.518,74.991L65.470,74.874L65.418,74.829L65.159,74.830L65.052,74.812L65.028,74.899L65.036,74.981L65.034,75.049L64.979,75.098L64.919,74.929L64.906,74.843L64.934,74.730L64.974,74.667L65.036,74.616L65.118,74.582L65.219,74.566L65.547,74.566L65.600,74.583L65.656,74.635L65.706,74.651L65.752,74.637L65.772,74.601L65.790,74.580L65.832,74.607L65.838,74.628L65.837,74.645L65.845,74.654L65.873,74.651ZM64.687,74.235L64.761,74.270L64.828,74.322L64.844,74.393L64.768,74.484L64.812,74.525L64.791,74.585L64.789,74.671L64.768,74.730L64.807,74.793L64.812,74.850L64.785,74.899L64.728,74.937L64.613,74.882L64.464,74.833L64.315,74.817L64.199,74.856L64.136,74.735L64.092,74.683L64.040,74.651L64.081,74.607L64.164,74.667L64.261,74.718L64.369,74.753L64.483,74.771L64.596,74.772L64.629,74.757L64.598,74.719L64.199,74.367L64.167,74.314L64.180,74.257L64.235,74.225L64.290,74.235L64.337,74.273L64.365,74.320L64.448,74.309L64.530,74.307L64.610,74.291L64.687,74.235ZM66.482,70.750L66.648,70.638L66.895,70.556L67.118,70.590L67.218,70.828L67.193,70.954L67.081,71.213L67.031,71.469L66.851,71.818L66.811,71.854L66.837,71.918L66.778,72.113L66.811,72.223L66.690,72.141L66.475,71.959L66.360,71.899L65.751,71.732L65.470,71.691L65.343,71.691L65.250,71.681L65.178,71.651L65.153,71.559L65.133,71.382L65.144,71.226L65.219,71.196L65.265,71.137L65.342,71.056L65.384,70.985L65.322,70.955L65.282,70.928L65.223,70.865L65.133,70.750L65.097,70.750L65.110,70.907L65.005,71.003L64.876,71.006L64.812,70.890L64.800,70.843L64.774,70.822L64.745,70.809L64.728,70.787L64.721,70.739L64.728,70.441L64.707,70.399L64.584,70.233L64.565,70.192L64.548,70.116L64.506,70.058L64.447,70.020L64.325,69.990L64.303,69.952L64.296,69.908L64.280,69.880L64.247,69.871L64.153,69.858L64.117,69.844L64.053,69.786L64.002,69.724L63.970,69.645L63.959,69.536L63.965,69.437L63.985,69.318L64.023,69.241L64.196,69.330L64.313,69.418L64.406,69.528L64.443,69.657L64.500,69.791L64.636,69.873L64.798,69.935L64.934,70.006L65.322,70.440L65.427,70.503L65.575,70.558L65.714,70.633L65.795,70.750L65.656,70.713L65.616,70.805L65.639,70.929L65.688,70.992L65.752,71.026L65.962,71.189L66.076,71.241L66.188,71.275L66.232,71.273L66.279,71.241L66.313,71.181L66.322,71.114L66.304,71.059L66.258,71.037L66.255,70.991L66.336,70.893L66.482,70.750ZM64.243,68.940L64.265,69.042L64.148,69.031L63.894,68.940L63.520,68.981L63.386,68.980L63.181,68.925L62.973,68.833L62.745,68.764L62.485,68.776L62.252,68.812L62.056,68.813L62.034,68.771L62.121,68.678L62.322,68.530L62.465,68.458L62.523,68.391L62.533,68.308L62.529,68.181L62.485,68.120L62.200,67.954L62.017,67.539L61.997,67.361L62.048,67.219L62.173,67.119L62.332,67.062L62.485,67.054L62.831,67.234L63.031,67.290L63.109,67.362L63.220,67.504L63.381,67.613L63.486,67.659L63.567,67.647L63.681,67.589L63.799,67.572L63.909,67.537L63.996,67.422L64.228,67.581L64.413,67.755L64.443,67.794L64.448,67.830L64.435,67.919L64.443,67.954L64.502,68.009L64.585,68.063L64.674,68.105L64.748,68.121L64.763,68.155L64.728,68.387L64.700,68.431L64.650,68.449L64.616,68.471L64.642,68.530L64.713,68.575L64.780,68.577L64.829,68.590L64.871,68.744L64.921,68.779L64.978,68.806L65.015,68.858L65.017,68.940L64.979,69.010L64.919,69.066L64.849,69.103L64.787,69.039L64.685,69.108L64.483,69.308L64.486,69.209L64.549,69.066L64.565,68.999L64.524,68.949L64.430,68.933L64.243,68.940ZM61.671,67.258L61.678,67.256L61.729,67.318L61.741,67.349L61.721,67.371L61.691,67.392L61.671,67.422L61.642,67.517L61.543,67.736L61.485,67.812L61.471,67.854L61.523,67.869L61.627,67.872L61.630,67.927L61.622,67.968L61.590,68.036L61.485,68.144L61.334,68.143L61.168,68.078L61.020,67.998L61.008,68.014L61.004,68.019L60.997,68.024L60.973,68.036L60.979,67.945L60.972,67.852L60.941,67.779L60.875,67.749L60.780,67.736L60.551,67.667L60.497,67.641L60.459,67.577L60.426,67.503L60.387,67.442L60.154,67.243L60.119,67.193L60.123,66.997L60.147,66.824L60.207,66.664L60.322,66.515L60.460,66.391L60.606,66.300L60.752,66.264L60.895,66.310L61.211,66.479L61.353,66.585L61.465,66.723L61.575,66.986L61.601,67.129L61.651,67.212L61.671,67.258ZM77.307,65.877L77.406,65.924L77.311,65.995L77.269,66.063L77.300,66.101L77.277,66.135L77.250,66.184L77.189,66.203L77.128,66.169L77.082,66.120L77.009,66.078L76.971,66.108L76.914,66.181L76.929,66.226L77.040,66.310L77.155,66.404L77.190,66.503L77.140,66.568L77.102,66.571L77.071,66.480L76.991,66.397L76.869,66.401L76.705,66.530L76.468,66.552L76.350,66.587L76.308,66.549L76.212,66.556L76.163,66.469L76.071,66.363L75.987,66.325L75.899,66.249L75.854,66.169L75.812,66.117L75.777,66.192L75.709,66.253L75.724,66.343L75.865,66.371L75.857,66.481L75.762,66.591L75.670,66.420L75.552,66.371L75.384,66.310L75.285,66.253L75.216,66.124L75.254,66.037L75.384,66.139L75.522,66.147L75.488,66.058L75.520,66.003L75.563,65.976L75.601,65.971L75.634,65.956L75.575,65.897L75.529,65.866L75.461,65.832L75.338,65.772L75.167,65.631L75.033,65.537L74.942,65.442L74.793,65.499L74.739,65.464L74.666,65.396L74.571,65.335L74.395,65.263L74.189,65.301L74.147,65.251L74.356,65.169L74.356,65.124L74.326,65.032L74.196,64.887L74.070,64.822L73.917,64.925L73.909,65.031L73.924,65.141L73.928,65.376L73.924,65.449L73.890,65.532L73.832,65.232L73.695,64.977L73.790,64.856L74.074,64.701L74.188,64.728L74.464,65.009L74.949,64.964L75.209,64.991L75.357,65.032L75.575,65.067L75.762,65.032L75.869,65.036L75.994,65.036L76.109,65.051L76.197,65.093L76.250,65.173L76.322,65.199L76.429,65.385L76.536,65.449L76.731,65.506L76.845,65.449L76.986,65.532L77.044,65.597L77.028,65.748L77.173,65.798L77.307,65.877ZM66.098,63.644L66.183,63.692L66.252,63.804L66.289,63.929L66.279,64.016L66.211,63.943L66.036,63.644L65.698,63.430L65.688,63.395L65.714,63.346L66.004,62.955L66.137,62.644L66.157,62.532L66.139,62.508L66.036,62.409L65.961,62.357L65.910,62.336L65.566,62.306L65.463,62.260L65.422,62.144L65.528,61.998L65.547,61.939L65.560,61.866L65.592,61.806L65.688,61.695L65.791,61.613L65.919,61.570L66.197,61.550L66.201,61.578L66.192,61.585L66.175,61.585L66.157,61.591L66.149,61.881L66.124,62.003L66.076,62.123L66.256,62.320L66.252,62.578L66.057,63.417L66.043,63.575L66.098,63.644ZM21.426,62.862L21.549,62.902L21.640,63.001L21.689,63.133L21.688,63.272L21.628,63.390L21.548,63.415L21.477,63.364L21.447,63.253L21.410,63.168L21.320,63.109L20.624,62.782L20.490,62.679L20.422,62.647L20.334,62.631L20.258,62.608L20.225,62.554L20.189,62.475L19.817,62.165L19.482,62.072L19.323,62.004L19.259,61.948L19.121,61.754L19.051,61.697L18.926,61.615L18.869,61.550L18.959,61.540L19.038,61.520L19.108,61.526L19.328,61.777L19.417,61.849L19.943,61.966L20.443,62.146L20.572,62.164L20.631,62.186L20.672,62.241L20.733,62.349L21.304,62.822L21.426,62.862ZM20.062,61.591L19.935,61.524L19.770,61.400L19.689,61.269L19.815,61.182L19.895,61.179L19.943,61.206L19.979,61.242L20.026,61.263L20.097,61.263L20.285,61.223L20.687,61.217L21.219,61.278L21.285,61.323L21.290,61.474L21.308,61.560L21.404,61.717L21.444,61.808L21.439,61.885L21.382,61.936L21.267,61.955L20.960,61.948L20.838,61.922L20.554,61.784L20.454,61.670L20.325,61.634L20.062,61.591ZM47.862,44.696L47.995,44.849L48.030,45.006L47.972,45.539L47.841,45.833L47.801,45.990L47.739,45.963L47.715,45.945L47.719,45.986L47.713,46.069L47.715,46.109L47.655,46.098L47.606,46.109L47.560,46.143L47.516,46.195L47.486,46.118L47.469,45.917L47.434,45.823L47.384,45.775L47.313,45.741L47.147,45.700L46.948,45.682L46.861,45.641L46.780,45.536L46.765,45.494L46.740,45.369L46.704,45.317L46.480,45.124L46.409,45.040L46.289,44.841L46.194,44.730L46.171,44.677L46.171,44.629L46.208,44.473L46.184,44.188L46.208,44.102L46.271,44.032L46.421,44.005L46.496,43.934L46.511,43.965L46.527,43.977L46.549,43.989L46.578,44.019L46.596,43.997L46.616,43.989L46.636,43.986L46.659,43.979L46.729,44.041L46.862,44.196L46.943,44.265L47.030,44.307L47.269,44.347L47.421,44.409L47.573,44.494L47.862,44.696ZM94.797,50.895L94.832,51.029L94.978,51.262L95.000,51.413L94.961,51.551L94.881,51.689L94.778,51.811L94.672,51.903L94.734,51.630L94.744,51.479L94.692,51.413L94.642,51.472L94.468,51.858L94.321,51.691L94.100,51.742L93.880,51.895L93.736,52.026L93.588,52.223L93.513,52.286L93.390,52.308L93.323,52.296L93.215,52.240L93.143,52.227L92.876,52.227L92.622,52.173L92.357,52.084L91.900,51.858L91.649,51.650L91.592,51.618L91.494,51.590L91.388,51.525L91.205,51.368L91.150,51.300L91.076,51.169L90.355,50.378L90.271,50.219L90.379,50.220L90.425,50.232L90.474,50.260L90.579,50.056L90.638,49.778L90.657,49.485L90.637,49.233L90.519,48.956L90.322,48.804L89.729,48.627L89.513,48.508L89.381,48.395L89.248,48.345L89.186,48.307L89.132,48.251L89.113,48.212L89.088,48.084L89.000,47.839L88.897,47.724L88.881,47.693L88.838,47.639L88.556,47.511L88.387,47.315L88.236,47.216L88.155,47.148L88.088,47.069L88.062,46.993L88.010,46.908L87.787,46.744L87.736,46.624L87.730,46.557L87.704,46.440L87.699,46.379L87.736,46.321L87.762,46.264L87.772,46.195L87.745,46.066L87.679,45.966L87.536,45.823L87.486,45.749L87.464,45.701L87.456,45.659L87.470,45.606L87.575,45.357L87.646,44.848L87.692,44.725L87.702,44.614L87.617,44.511L87.617,44.473L87.636,44.459L87.641,44.452L87.645,44.444L87.658,44.429L87.765,44.530L87.814,44.550L87.858,44.511L87.873,44.413L87.841,44.322L87.796,44.238L87.772,44.162L87.704,44.026L87.445,43.772L87.456,43.647L87.652,43.621L87.897,43.757L88.114,43.962L88.227,44.142L88.329,44.123L88.440,44.181L88.538,44.279L88.597,44.388L88.631,44.331L88.678,44.308L88.734,44.315L88.796,44.265L88.864,44.295L88.950,44.307L89.349,44.308L89.410,44.331L89.370,44.388L89.370,44.429L89.433,44.465L89.463,44.433L89.488,44.380L89.535,44.347L89.627,44.347L89.653,44.373L89.650,44.418L89.654,44.473L89.618,44.534L89.609,44.574L89.635,44.592L89.755,44.631L89.775,44.633L89.808,44.709L89.836,44.845L89.988,45.022L90.114,45.300L90.208,45.433L90.238,45.456L90.284,45.473L90.308,45.495L90.354,45.571L90.374,45.596L90.384,45.653L90.352,45.864L90.399,45.964L90.454,46.179L90.511,46.277L90.602,46.248L90.697,46.280L90.797,46.332L90.901,46.358L91.195,46.681L91.212,46.709L91.236,46.734L91.284,46.768L91.311,46.773L91.380,46.762L91.409,46.768L91.445,46.800L91.510,46.912L91.596,47.011L91.644,47.092L91.707,47.403L91.730,47.470L91.932,47.878L92.233,48.190L92.266,48.207L92.343,48.190L92.398,48.148L92.451,48.084L92.521,48.127L92.564,48.222L92.627,48.321L92.757,48.374L92.905,48.356L92.936,48.288L92.949,48.200L93.041,48.125L93.041,48.169L93.027,48.195L93.019,48.217L93.032,48.245L93.082,48.289L93.060,48.356L93.204,48.501L93.264,48.637L93.311,48.671L93.371,48.691L93.430,48.698L93.490,48.729L93.541,48.801L93.615,48.944L93.681,49.038L93.756,49.115L93.846,49.169L93.960,49.188L94.082,49.242L94.175,49.369L94.302,49.643L94.433,49.821L94.577,49.980L94.698,50.157L94.753,50.382L94.747,50.449L94.718,50.564L94.712,50.628L94.727,50.699L94.784,50.834L94.797,50.895ZM48.166,43.321L48.325,43.412L48.441,43.579L48.451,43.749L48.288,43.852L48.113,43.801L48.023,43.633L48.036,43.441L48.166,43.321ZM45.229,42.785L45.337,42.799L45.386,42.856L45.417,42.928L45.472,42.989L45.418,43.093L45.358,43.145L45.188,43.239L45.066,43.071L45.050,43.068L44.996,43.075L44.981,43.071L44.975,43.045L44.978,43.020L44.978,42.996L44.963,42.971L44.962,42.909L45.035,42.844L45.139,42.796L45.229,42.785ZM42.864,42.682L42.877,42.825L42.915,42.966L42.979,43.084L43.067,43.157L43.067,43.194L42.979,43.286L42.963,43.403L42.969,43.519L42.945,43.607L42.897,43.643L42.863,43.634L42.830,43.611L42.783,43.607L42.719,43.633L42.580,43.729L42.373,43.721L42.206,43.604L41.963,43.321L41.742,43.157L41.678,43.071L41.646,42.979L41.642,42.874L41.678,42.663L41.723,42.526L41.780,42.475L42.004,42.413L42.093,42.352L42.183,42.274L42.286,42.214L42.413,42.208L42.619,42.434L42.702,42.499L42.841,42.564L42.860,42.597L42.864,42.682ZM87.617,42.331L87.610,42.515L87.456,43.071L87.441,43.462L87.387,43.625L87.252,43.692L87.289,43.566L87.198,43.596L87.158,43.669L87.123,43.754L87.049,43.815L86.943,43.400L86.704,42.806L86.679,42.642L86.634,42.501L86.634,42.414L86.700,42.376L86.740,42.331L86.759,42.230L86.756,41.905L86.726,41.781L86.640,41.755L86.476,41.888L86.511,41.683L86.649,41.462L86.833,41.268L87.004,41.145L87.199,41.183L87.330,41.344L87.399,41.548L87.415,41.718L87.378,41.902L87.377,41.993L87.415,42.086L87.471,42.142L87.531,42.177L87.584,42.228L87.617,42.331ZM54.248,40.364L54.294,40.330L54.529,40.241L54.596,40.341L54.579,40.430L54.451,40.609L54.374,40.571L54.293,40.518L54.240,40.449L54.248,40.364ZM36.871,40.014L36.885,39.921L36.929,39.840L37.004,39.790L37.111,39.791L37.200,39.922L37.231,39.992L37.234,40.077L37.193,40.059L37.156,40.033L37.147,40.056L37.148,40.070L37.141,40.075L37.111,40.077L37.135,40.180L37.046,40.186L36.929,40.121L36.871,40.014ZM56.613,38.929L56.697,38.965L56.791,39.026L56.866,39.104L56.898,39.193L56.891,39.293L56.878,39.344L56.857,39.375L56.805,39.386L56.783,39.357L56.772,39.311L56.756,39.274L56.711,39.210L56.684,39.141L56.647,39.081L56.573,39.048L56.484,39.065L56.453,39.126L56.483,39.189L56.573,39.214L56.535,39.264L56.488,39.292L56.369,39.337L56.228,39.222L56.294,39.091L56.459,38.980L56.613,38.929ZM35.644,38.274L35.728,38.345L35.949,38.579L35.981,38.669L35.994,38.819L35.991,39.027L35.962,39.074L35.942,39.141L35.929,39.274L35.899,39.341L35.833,39.396L35.613,39.533L35.454,39.596L35.301,39.632L35.215,39.596L35.021,39.417L34.990,39.375L34.943,39.284L34.923,39.188L34.927,39.084L34.953,38.965L35.042,38.717L35.106,38.611L35.400,38.303L35.516,38.243L35.644,38.274ZM73.869,37.142L73.849,37.233L73.555,37.902L73.529,38.108L73.580,38.310L73.756,38.683L73.821,38.916L73.832,39.170L73.724,39.557L73.681,39.814L73.300,40.413L73.237,40.449L73.214,40.478L73.118,40.678L73.075,40.712L72.970,40.777L72.847,40.916L72.765,40.963L72.505,40.998L72.320,41.060L72.195,41.059L71.894,40.990L71.807,40.981L71.682,40.946L71.612,40.937L71.545,40.991L71.465,40.963L71.338,40.896L71.229,40.970L71.196,41.094L71.213,41.803L71.247,41.955L71.309,42.047L71.609,42.292L71.647,42.333L71.662,42.394L71.691,42.436L71.755,42.464L71.867,42.499L72.114,42.807L72.142,42.911L72.259,43.136L72.276,43.280L72.094,43.607L72.063,43.623L72.029,43.661L72.003,43.709L71.992,43.750L71.970,43.795L71.916,43.807L71.848,43.806L71.784,43.815L71.505,43.963L71.460,43.999L71.213,44.265L71.164,44.279L70.971,44.306L70.782,44.379L70.708,44.388L70.612,44.433L70.513,44.530L70.394,44.617L70.237,44.633L70.107,44.569L69.936,44.353L69.830,44.265L69.717,44.234L69.569,44.222L69.423,44.237L69.320,44.285L69.179,44.483L69.115,44.511L69.039,44.492L69.022,44.445L69.020,44.386L68.993,44.326L68.886,44.272L68.485,44.265L68.280,44.239L68.191,44.266L68.115,44.347L68.079,44.476L68.112,44.579L68.168,44.662L68.197,44.737L68.226,44.758L68.369,44.764L68.420,44.781L68.585,44.942L68.598,45.047L68.496,45.148L68.340,45.202L68.197,45.169L68.105,45.221L67.996,45.303L67.906,45.394L67.868,45.474L67.858,45.594L67.829,45.709L67.785,45.808L67.729,45.885L67.544,46.063L67.465,46.109L67.278,46.185L67.191,46.205L67.136,46.195L67.054,46.299L66.831,46.460L66.730,46.563L66.698,46.626L66.688,46.671L66.669,46.713L66.516,46.842L66.475,46.838L66.449,46.768L66.115,46.889L65.946,46.971L65.873,47.076L65.791,47.232L65.606,47.250L65.263,47.181L64.836,47.277L64.768,47.322L64.716,47.379L64.599,47.318L64.402,47.140L64.365,47.140L64.340,47.205L64.302,47.276L64.279,47.345L64.335,47.483L64.310,47.558L64.267,47.629L64.214,47.777L64.147,47.818L64.040,47.839L63.834,47.920L63.618,47.956L63.567,47.980L63.502,48.034L63.470,48.031L63.447,47.992L63.406,47.939L63.319,47.937L63.196,48.001L63.080,48.091L63.016,48.169L63.000,48.158L62.991,48.158L62.985,48.154L62.976,48.125L62.763,48.336L62.634,48.421L62.507,48.456L62.456,48.489L62.310,48.646L62.244,48.698L61.984,48.770L61.829,48.786L61.729,48.759L61.661,48.728L61.598,48.754L61.541,48.798L61.485,48.821L61.466,48.807L61.455,48.780L61.439,48.752L61.404,48.739L61.388,48.745L61.340,48.772L61.100,48.824L60.944,48.835L60.836,48.800L60.782,48.707L60.744,48.674L60.616,48.647L60.580,48.620L60.534,48.602L60.448,48.612L60.347,48.681L60.221,48.792L60.090,48.870L59.979,48.841L59.964,48.814L59.959,48.783L59.960,48.718L59.948,48.684L59.918,48.667L59.884,48.655L59.797,48.600L59.757,48.631L59.712,48.739L59.700,48.748L59.632,48.780L59.703,48.841L59.696,48.900L59.636,48.948L59.547,48.981L59.567,48.893L59.541,48.801L59.485,48.728L59.408,48.698L59.327,48.713L59.222,48.754L59.114,48.820L59.019,48.903L58.947,48.823L58.886,48.805L58.831,48.816L58.775,48.821L58.613,48.810L58.575,48.821L58.421,48.793L57.855,48.780L57.814,48.798L57.703,48.880L57.633,48.903L57.490,48.873L57.397,48.868L57.305,48.903L57.269,48.849L57.041,48.679L56.978,48.613L56.943,48.546L56.857,48.411L56.770,48.230L56.428,47.775L56.284,47.671L55.715,47.511L55.602,47.437L55.532,47.402L55.430,47.385L55.333,47.408L55.183,47.522L55.122,47.549L55.072,47.562L54.929,47.617L54.836,47.631L54.648,47.624L54.577,47.601L54.529,47.549L54.492,47.549L54.505,47.635L54.477,47.748L54.425,47.854L54.366,47.920L54.284,47.950L54.045,47.958L54.002,47.985L53.911,48.026L53.837,48.025L53.838,47.920L53.889,47.892L53.961,47.903L54.002,47.891L53.960,47.798L53.999,47.715L53.958,47.601L53.858,47.502L53.720,47.467L53.778,47.367L53.847,47.285L53.881,47.202L53.838,47.095L53.791,47.212L53.739,47.224L53.677,47.202L53.594,47.221L53.141,47.037L52.891,46.970L52.737,47.013L52.692,46.977L52.652,46.935L52.682,46.880L52.719,46.833L52.763,46.795L52.819,46.768L52.779,46.712L52.743,46.705L52.703,46.708L52.652,46.686L52.629,46.648L52.627,46.607L52.612,46.576L52.553,46.563L52.358,46.548L52.288,46.569L52.208,46.645L52.165,46.604L52.206,46.515L52.201,46.438L52.178,46.367L52.165,46.297L52.120,46.234L52.022,46.229L51.925,46.237L51.880,46.214L51.843,46.143L51.758,46.133L51.591,46.150L51.493,46.101L51.354,45.960L51.266,45.905L51.125,46.027L51.042,46.085L50.963,46.109L50.852,46.080L50.672,45.927L50.576,45.864L50.451,45.840L50.172,45.820L50.066,45.762L50.009,45.738L49.934,45.731L49.868,45.709L49.841,45.639L49.633,45.415L49.527,45.161L49.502,44.938L49.605,44.260L49.710,44.047L49.871,43.872L50.084,43.770L50.113,43.765L50.119,43.761L50.118,43.752L50.128,43.729L50.223,43.765L50.294,43.802L50.433,43.915L50.480,43.942L50.583,43.963L50.637,43.999L50.667,44.047L50.697,44.157L50.721,44.203L50.881,44.300L51.057,44.266L51.228,44.150L51.372,43.999L51.450,43.946L51.530,43.953L51.713,44.019L51.922,44.002L51.998,44.019L52.055,44.062L52.112,44.123L52.184,44.182L52.286,44.224L52.526,44.263L52.615,44.306L52.625,44.230L52.662,44.193L52.778,44.142L52.871,44.067L52.909,44.058L53.001,44.056L53.082,44.034L53.391,43.852L53.851,44.053L53.923,44.122L54.027,44.132L54.473,44.336L54.552,44.388L54.602,44.389L54.640,44.395L54.674,44.415L54.712,44.451L54.785,44.559L54.776,44.555L54.829,44.626L54.858,44.655L55.608,44.571L55.756,44.511L55.846,44.584L55.922,44.558L55.996,44.487L56.084,44.429L56.124,44.490L56.189,44.547L56.254,44.554L56.288,44.473L56.452,44.579L56.491,44.592L56.551,44.542L56.605,44.381L56.674,44.347L56.783,44.322L57.183,44.142L57.199,44.176L57.219,44.192L57.242,44.203L57.267,44.224L57.301,44.176L57.350,44.149L57.408,44.150L57.470,44.183L57.526,44.129L57.549,44.066L57.542,43.999L57.511,43.934L57.540,43.932L57.546,43.941L57.546,43.959L57.552,43.979L57.605,43.990L57.639,44.079L57.647,44.194L57.589,44.373L57.653,44.432L57.745,44.465L57.799,44.473L57.879,44.443L57.935,44.401L57.999,44.363L58.102,44.347L58.153,44.325L58.206,44.269L58.242,44.189L58.243,44.102L58.283,44.102L58.484,44.219L58.718,44.226L58.948,44.151L59.140,44.019L59.202,43.944L59.357,43.689L59.388,43.586L59.368,43.514L59.315,43.488L59.247,43.475L59.181,43.444L59.131,43.385L59.037,43.229L58.978,43.157L59.019,43.097L59.067,42.971L59.099,42.907L59.132,42.871L59.206,42.807L59.246,42.765L59.335,42.696L59.451,42.633L59.561,42.547L59.632,42.413L59.637,42.347L59.628,42.286L59.591,42.172L59.580,42.167L59.510,42.127L59.509,42.084L59.539,42.018L59.560,41.913L59.618,41.804L59.632,41.738L59.618,41.703L59.560,41.652L59.547,41.619L59.554,41.577L59.568,41.559L59.584,41.546L59.683,41.271L59.886,41.137L60.145,41.111L60.407,41.186L60.540,41.251L60.606,41.296L60.651,41.350L60.680,41.437L60.662,41.487L60.629,41.526L60.612,41.574L60.558,41.679L60.433,41.739L60.164,41.803L60.056,41.880L59.924,42.018L59.843,42.150L59.945,42.272L59.970,42.414L59.976,42.568L59.960,42.663L59.918,42.698L59.804,42.721L59.753,42.744L59.680,42.806L59.666,42.833L59.773,42.930L59.801,42.985L59.821,43.119L59.974,43.362L60.145,43.714L60.164,43.793L60.171,43.904L60.197,44.033L60.245,44.160L60.322,44.265L60.435,44.340L60.559,44.375L60.970,44.407L61.090,44.442L61.200,44.459L61.302,44.429L61.346,44.368L61.395,44.272L61.455,44.181L61.526,44.142L61.610,44.110L61.792,43.966L61.853,43.934L61.927,43.840L61.956,43.815L61.995,43.801L62.298,43.748L62.412,43.745L62.522,43.766L62.877,43.905L63.002,43.982L63.057,44.079L63.082,44.193L63.151,44.320L63.249,44.400L63.364,44.367L63.458,44.316L63.662,44.300L63.755,44.265L63.919,44.133L63.991,44.044L64.040,43.934L64.005,43.858L64.023,43.800L64.069,43.778L64.117,43.815L64.294,43.721L64.459,43.778L64.593,43.906L64.687,44.019L64.868,44.001L64.934,43.979L64.978,43.943L65.074,43.815L65.196,43.784L65.319,43.706L65.427,43.611L65.503,43.525L65.560,43.403L65.571,43.277L65.547,43.011L65.559,42.885L65.627,42.616L65.782,42.265L65.921,42.046L66.077,41.860L66.238,41.718L66.278,41.695L66.366,41.663L66.405,41.639L66.514,41.494L66.604,41.434L66.771,41.186L66.851,41.104L66.868,41.101L66.916,41.108L66.933,41.104L66.936,41.088L66.929,41.037L66.933,41.022L66.988,40.998L67.145,40.953L67.200,40.918L67.249,40.873L67.322,40.826L67.406,40.791L67.485,40.777L67.559,40.744L67.590,40.666L67.624,40.486L67.665,40.486L67.738,40.552L68.115,40.654L68.246,40.706L68.360,40.721L68.473,40.679L68.607,40.565L68.847,40.691L69.074,40.859L69.191,40.831L69.284,40.759L69.359,40.665L69.470,40.466L69.510,40.359L69.536,40.238L69.546,40.098L69.551,40.080L69.563,40.068L69.577,40.049L69.583,40.014L69.569,39.979L69.542,39.960L69.514,39.949L69.501,39.932L69.484,39.866L69.406,39.732L69.379,39.664L69.368,39.429L69.399,38.945L69.342,38.717L69.219,38.546L69.160,38.436L69.135,38.292L69.136,38.032L69.114,37.915L69.054,37.780L68.976,37.683L68.793,37.538L68.725,37.448L68.704,37.394L68.692,37.342L68.688,37.222L68.667,37.150L68.563,37.055L68.522,36.995L68.515,36.934L68.531,36.882L68.551,36.841L68.563,36.812L68.554,36.752L68.485,36.585L68.448,36.446L68.461,36.350L68.527,36.258L68.644,36.132L68.735,36.166L69.063,36.227L69.298,36.218L69.378,36.233L69.485,36.281L69.546,36.300L69.621,36.288L69.697,36.265L69.749,36.280L69.749,36.381L69.849,36.318L69.968,36.308L70.217,36.337L70.293,36.355L70.505,36.455L70.566,36.503L70.601,36.619L70.627,36.770L70.679,36.901L70.791,36.958L70.923,36.980L71.171,37.058L71.297,37.040L71.372,36.983L71.561,36.731L71.596,36.613L71.524,36.510L71.424,36.420L71.378,36.337L71.432,36.222L71.534,36.235L71.654,36.298L71.764,36.337L71.814,36.332L71.875,36.319L71.929,36.301L71.951,36.279L71.981,36.262L72.133,36.298L72.195,36.300L72.271,36.209L72.298,36.078L72.346,35.963L72.483,35.927L72.574,36.031L72.682,36.115L72.771,36.214L72.844,36.482L72.831,36.530L72.746,36.548L72.710,36.546L72.605,36.523L72.564,36.503L72.547,36.458L72.533,36.386L72.503,36.332L72.438,36.337L72.405,36.393L72.409,36.480L72.438,36.626L72.440,36.852L72.487,36.922L72.605,36.958L72.637,36.944L72.676,36.917L72.731,36.897L72.808,36.913L72.854,36.952L72.896,37.009L72.948,37.058L73.029,37.081L73.396,37.122L73.503,37.122L73.752,37.046L73.836,37.047L73.869,37.142ZM30.179,35.355L30.284,35.401L30.342,35.472L30.358,35.565L30.342,35.678L30.306,35.770L30.249,35.820L30.162,35.841L30.035,35.845L29.938,35.809L29.882,35.720L29.856,35.605L29.851,35.496L29.871,35.422L29.918,35.407L29.962,35.422L29.976,35.437L30.078,35.352L30.123,35.332L30.179,35.355ZM78.476,31.904L78.655,31.767L78.724,31.744L78.830,31.881L78.876,31.972L78.883,32.071L78.836,32.046L78.824,32.048L78.821,32.061L78.805,32.071L78.728,32.008L78.551,31.946L78.476,31.904ZM79.130,31.290L79.286,31.290L79.375,31.351L79.405,31.452L79.378,31.576L79.304,31.472L79.189,31.461L79.056,31.490L78.927,31.498L78.956,31.429L79.006,31.374L79.130,31.290ZM87.109,30.654L87.250,30.937L87.553,31.439L87.680,31.729L87.643,31.843L87.478,31.496L87.353,31.177L87.133,30.858L86.939,30.526L86.580,30.318L86.834,30.349L87.024,30.441L87.109,30.654ZM75.254,29.769L75.282,29.805L75.353,29.817L75.376,29.851L75.380,29.911L75.368,29.963L75.336,30.056L75.254,30.252L75.271,30.371L75.214,30.427L75.154,30.399L74.969,30.249L74.929,30.202L74.621,29.866L74.570,29.789L74.519,29.667L74.545,29.533L74.667,29.424L74.802,29.322L75.027,29.297L75.254,29.360L75.243,29.691L75.254,29.769ZM65.382,28.828L65.448,28.840L65.505,28.834L65.549,28.843L65.584,28.906L65.482,28.933L65.382,28.988L65.345,28.897L65.284,28.878L65.133,28.906L64.871,28.906L64.576,28.840L64.446,28.843L64.365,28.948L64.274,28.913L64.220,28.932L64.172,28.969L64.099,28.988L64.058,28.959L64.107,28.893L64.243,28.784L64.335,28.803L64.476,28.711L64.728,28.501L65.085,28.622L65.219,28.702L65.328,28.799L65.382,28.828ZM71.807,28.583L71.845,28.656L71.851,28.823L71.755,28.918L71.686,29.053L71.532,29.058L71.412,28.885L71.336,28.751L71.343,28.540L71.320,28.463L71.253,28.442L71.187,28.408L71.134,28.334L71.175,28.334L71.169,28.252L71.214,28.170L71.279,28.140L71.338,28.211L71.414,28.344L71.523,28.463L71.648,28.541L71.807,28.583ZM71.460,27.924L71.416,28.006L71.304,28.071L71.175,28.113L70.950,28.194L70.880,28.149L70.881,27.964L70.862,27.816L70.837,27.605L70.863,27.317L70.999,27.320L71.251,27.409L71.297,27.433L71.411,27.537L71.439,27.553L71.432,27.607L71.449,27.724L71.436,27.839L71.338,27.883L71.347,27.899L71.378,27.969L71.434,27.934L71.460,27.924ZM71.276,27.061L71.144,26.994L71.145,26.845L71.236,26.704L71.378,26.652L71.473,26.701L71.551,26.799L71.600,26.896L71.604,26.939L71.585,26.958L71.568,27.000L71.539,27.042L71.480,27.061L71.276,27.061ZM78.151,36.688L78.096,37.020L78.089,37.171L78.151,37.325L78.002,37.493L77.656,37.783L77.578,37.984L77.597,38.099L77.655,38.172L77.725,38.232L77.782,38.310L77.805,38.395L77.814,38.488L77.805,38.585L77.782,38.679L77.738,38.730L77.593,38.821L77.542,38.884L77.550,39.035L77.542,39.088L77.507,39.145L77.422,39.211L77.379,39.255L77.336,39.334L77.267,39.528L77.216,39.623L77.163,39.679L77.106,39.720L77.052,39.776L77.013,39.869L76.882,39.830L76.827,39.914L76.794,40.047L76.725,40.156L76.675,39.975L76.583,39.799L76.438,39.650L76.233,39.542L76.251,39.395L76.090,39.243L75.878,39.097L75.742,38.965L75.713,38.869L75.705,38.538L75.679,38.499L75.551,38.436L75.501,38.397L75.487,38.355L75.442,38.054L75.382,37.861L75.376,37.780L75.487,37.496L75.497,37.453L75.571,36.811L75.501,36.667L75.536,36.595L75.534,36.517L75.506,36.443L75.458,36.381L75.513,36.267L75.516,36.160L75.476,36.055L75.321,35.852L75.026,35.262L74.988,35.091L74.946,34.989L74.847,34.819L74.722,34.693L74.670,34.618L74.648,34.513L74.628,34.486L74.539,34.424L74.519,34.391L74.513,34.322L74.496,34.258L74.470,34.202L74.438,34.164L74.392,34.145L74.284,34.140L74.231,34.120L74.195,34.074L74.132,33.946L74.026,33.869L73.523,33.240L73.503,33.181L73.528,33.043L73.522,32.994L73.467,32.948L73.377,32.889L73.230,32.742L73.164,32.658L73.099,32.495L73.010,32.455L72.901,32.432L72.808,32.398L72.788,32.368L72.744,32.266L72.723,32.231L72.669,32.192L72.557,32.139L72.399,32.019L72.289,32.001L72.167,32.002L71.286,31.831L71.057,31.744L70.245,31.245L69.074,30.077L68.979,30.018L68.607,29.933L68.249,29.786L68.197,29.748L68.184,29.719L68.156,29.689L68.128,29.648L68.105,29.529L68.079,29.483L67.990,29.401L67.598,29.182L67.485,29.092L67.443,29.068L67.172,28.962L67.040,28.833L66.977,28.784L66.871,28.753L66.764,28.734L66.682,28.694L66.649,28.602L66.504,28.460L66.382,28.460L66.336,28.451L66.331,28.429L66.338,28.402L66.323,28.378L66.236,28.323L66.157,28.255L66.146,28.237L66.132,28.191L66.120,28.173L66.040,28.129L66.015,28.109L65.967,28.079L65.903,28.060L65.697,28.034L65.650,28.003L65.584,27.924L65.511,27.857L65.473,27.829L65.422,27.801L65.359,27.784L65.213,27.766L65.046,27.683L64.923,27.673L64.458,27.760L64.210,27.759L63.998,27.697L63.874,27.553L63.880,27.479L63.924,27.392L63.999,27.350L64.099,27.411L64.207,27.459L64.332,27.410L64.565,27.266L64.691,27.360L64.788,27.269L64.793,27.136L64.642,27.099L64.735,27.009L64.720,26.946L64.653,26.908L64.587,26.895L64.472,26.886L64.392,26.865L64.199,26.775L64.321,26.529L64.309,26.511L64.299,26.458L64.313,26.421L64.440,26.486L64.490,26.545L64.532,26.610L64.587,26.672L64.778,26.785L64.812,26.794L64.843,26.866L64.912,26.914L65.052,26.980L65.200,27.169L65.263,27.225L65.309,27.240L65.561,27.279L65.614,27.307L65.653,27.335L65.688,27.348L65.710,27.375L65.762,27.505L65.795,27.553L65.863,27.581L65.933,27.587L66.005,27.607L66.076,27.638L66.443,27.794L66.566,27.926L66.612,28.151L66.716,28.298L66.956,28.348L67.403,28.334L67.470,28.348L67.506,28.384L67.533,28.432L67.567,28.480L67.624,28.507L67.685,28.495L67.740,28.471L67.786,28.460L67.918,28.486L68.032,28.536L68.136,28.609L68.237,28.702L68.420,28.927L68.457,28.937L68.589,28.939L68.644,28.948L68.986,29.200L69.054,29.193L69.516,29.483L69.627,29.606L69.688,29.712L69.787,29.843L69.916,29.927L70.074,29.896L70.109,30.045L70.182,30.147L70.273,30.205L70.358,30.222L70.577,30.212L70.647,30.222L70.768,30.291L70.841,30.305L70.931,30.264L70.993,30.300L71.090,30.391L71.201,30.470L71.223,30.472L71.409,30.472L71.466,30.490L71.546,30.549L71.577,30.555L71.644,30.554L71.694,30.560L71.699,30.575L71.693,30.602L71.707,30.636L71.714,30.660L71.703,30.731L71.707,30.759L71.721,30.767L71.771,30.787L71.784,30.796L71.822,30.843L72.042,31.060L72.335,31.491L72.493,31.668L72.676,31.820L72.890,31.948L73.311,32.143L73.403,32.242L73.518,32.303L73.544,32.336L73.580,32.562L73.605,32.587L73.655,32.599L73.688,32.621L73.711,32.653L73.744,32.719L73.813,32.806L73.865,32.946L73.909,33.015L74.028,33.091L74.148,33.086L74.250,33.025L74.316,32.933L74.394,33.020L74.474,33.133L74.535,33.255L74.560,33.363L74.585,33.422L74.697,33.541L74.722,33.609L74.710,33.681L74.686,33.741L74.670,33.801L74.699,33.872L74.755,33.925L74.805,33.984L74.804,34.001L74.865,34.024L74.929,34.036L75.069,34.042L75.218,34.071L75.324,34.144L75.419,34.237L75.539,34.328L75.653,34.387L75.763,34.428L75.877,34.451L76.010,34.458L76.132,34.407L76.217,34.320L76.283,34.302L76.359,34.458L76.372,34.518L76.382,34.641L76.396,34.700L76.426,34.759L76.503,34.867L76.517,34.925L76.567,35.019L76.682,35.062L76.819,35.072L76.928,35.068L76.932,35.057L77.013,34.987L77.074,35.065L77.083,35.144L77.075,35.227L77.090,35.317L77.153,35.404L77.343,35.560L77.420,35.641L77.578,35.972L77.676,36.108L77.731,36.211L77.722,36.259L77.833,36.304L77.976,36.419L78.099,36.560L78.151,36.688ZM62.244,26.281L62.277,26.367L62.244,26.450L62.189,26.536L62.159,26.631L62.164,26.731L62.177,26.811L62.204,26.878L62.244,26.939L62.203,27.006L62.162,27.035L62.034,27.061L61.811,27.143L61.748,27.157L61.688,27.178L61.644,27.175L61.627,27.121L61.587,27.054L61.498,27.070L61.402,27.127L61.343,27.184L61.310,27.160L61.250,27.126L61.221,27.099L61.125,27.127L60.678,27.150L60.630,27.159L60.587,27.161L60.530,27.143L60.479,27.104L60.286,26.895L60.158,26.823L60.104,26.780L60.007,26.485L59.756,26.184L59.668,26.117L59.533,26.163L59.354,26.080L59.224,25.952L59.229,25.864L59.270,25.842L59.306,25.863L59.344,25.896L59.388,25.909L59.443,25.885L59.876,25.585L59.971,25.570L60.052,25.569L60.120,25.561L60.182,25.520L60.422,25.435L60.428,25.418L60.505,25.405L60.626,25.349L60.712,25.336L60.846,25.388L61.170,25.586L61.302,25.585L61.354,25.616L61.510,25.687L61.568,25.701L61.588,25.713L61.644,25.770L61.671,25.789L61.831,25.827L61.997,25.890L62.138,25.993L62.206,26.137L62.159,26.322L62.221,26.294L62.244,26.281ZM46.537,24.514L46.666,24.677L46.757,24.757L46.862,24.804L46.725,25.034L46.617,25.133L46.476,25.172L46.230,25.172L46.141,25.162L46.085,25.135L45.964,25.046L45.978,25.005L45.989,24.989L46.005,24.968L46.159,25.014L46.302,24.958L46.378,24.835L46.334,24.681L46.387,24.649L46.433,24.604L46.460,24.557L46.456,24.514L46.537,24.514ZM44.192,22.993L44.248,23.031L44.263,23.119L44.253,23.303L44.183,23.455L44.011,23.491L43.797,23.480L43.599,23.492L43.629,23.460L43.684,23.365L43.563,23.363L43.501,23.396L43.468,23.464L43.437,23.570L43.396,23.570L43.353,23.475L43.295,23.577L43.251,23.735L43.252,23.818L43.184,23.871L42.995,24.114L42.905,24.187L42.841,24.206L42.789,24.209L42.735,24.203L42.664,24.187L42.446,24.081L42.394,24.064L42.263,24.093L42.033,24.214L41.885,24.228L41.885,24.201L41.893,24.183L41.926,24.146L41.735,24.209L41.550,24.248L41.348,24.257L40.665,24.146L40.638,24.131L40.592,24.077L40.561,24.064L40.524,24.071L40.470,24.098L40.440,24.105L40.406,24.086L40.373,24.044L40.331,24.001L40.274,23.982L40.244,23.966L40.193,23.884L40.170,23.855L40.128,23.829L40.101,23.818L39.990,23.818L39.844,23.775L39.809,23.778L39.777,23.832L39.780,23.884L39.812,23.925L39.866,23.942L39.955,23.980L40.004,24.064L39.995,24.149L39.907,24.187L39.684,24.225L39.579,24.206L39.520,24.105L39.408,24.154L39.301,24.180L39.223,24.225L39.155,24.435L39.065,24.457L38.958,24.410L38.866,24.310L38.830,24.227L38.760,23.987L38.763,23.922L38.856,23.808L38.909,23.774L39.011,23.814L39.073,23.811L39.263,23.761L39.308,23.756L39.337,23.731L39.357,23.652L39.345,23.589L39.307,23.513L39.167,23.333L39.135,23.275L39.116,23.212L39.110,23.141L39.119,23.062L39.144,23.045L39.235,23.079L39.257,23.102L39.285,23.143L39.327,23.173L39.394,23.160L39.416,23.115L39.461,22.948L39.500,22.911L39.517,22.905L39.527,22.891L39.545,22.877L39.579,22.870L39.614,22.884L39.669,22.942L39.702,22.956L39.767,22.948L39.865,22.916L39.927,22.911L40.001,22.928L40.146,22.982L40.233,22.993L40.310,22.974L40.540,22.833L40.697,22.782L40.841,22.773L40.975,22.803L41.109,22.870L41.259,22.820L42.271,22.870L42.327,22.901L42.396,22.971L42.459,23.054L42.495,23.120L42.535,23.120L42.562,23.025L42.634,22.973L42.707,22.969L42.742,23.015L42.778,23.082L42.863,23.094L43.030,23.079L43.274,23.183L43.318,23.181L43.356,23.205L43.599,23.284L43.696,23.262L43.854,23.264L44.007,23.296L44.091,23.365L44.132,23.365L44.132,23.201L44.114,23.149L44.059,23.056L44.047,23.015L44.001,22.959L43.920,22.904L43.883,22.860L43.972,22.833L44.032,22.868L44.128,22.971L44.192,22.993ZM57.898,19.936L57.922,19.979L57.998,20.163L58.061,20.277L58.190,20.455L58.243,20.576L58.145,20.583L58.006,20.655L57.921,20.658L57.865,20.637L57.847,20.611L57.837,20.579L57.799,20.535L57.701,20.458L57.653,20.430L57.596,20.409L57.590,20.582L57.493,20.549L57.285,20.371L57.227,20.353L57.170,20.309L57.046,20.184L57.020,20.129L56.999,20.102L56.965,20.085L56.888,20.091L56.857,20.081L56.778,19.988L56.743,19.882L56.735,19.648L56.929,19.247L56.979,19.174L57.016,19.209L57.068,19.221L57.205,19.218L57.258,19.238L57.389,19.382L57.754,19.586L57.837,19.669L57.851,19.740L57.843,19.807L57.847,19.872L57.898,19.936ZM84.431,37.857L84.599,37.928L84.728,38.062L84.800,38.228L84.797,38.397L84.670,38.552L84.509,38.500L84.390,38.345L84.390,38.188L84.425,38.248L84.475,38.383L84.512,38.434L84.579,38.476L84.619,38.471L84.697,38.377L84.728,38.236L84.635,38.090L84.497,37.971L84.390,37.902L84.382,37.910L84.375,37.919L84.366,37.931L84.350,37.943L84.355,37.901L84.374,37.881L84.431,37.857ZM84.188,37.698L84.161,37.573L84.110,37.441L84.088,37.333L84.149,37.285L84.187,37.343L84.213,37.455L84.229,37.698L84.188,37.698ZM74.278,35.890L74.376,35.993L74.394,36.104L74.365,36.219L74.314,36.337L74.278,36.337L74.239,36.322L74.104,36.290L74.074,36.279L74.071,36.199L74.056,36.136L74.019,36.087L73.949,36.050L74.102,35.947L74.149,35.890L74.196,35.805L74.259,35.864L74.278,35.890ZM81.292,35.317L81.248,35.355L81.326,35.614L81.245,35.805L81.082,35.852L80.923,35.678L80.905,35.668L80.881,35.674L80.859,35.674L80.845,35.641L80.846,35.601L80.858,35.574L80.873,35.550L80.912,35.460L80.991,35.364L81.007,35.336L81.059,35.271L81.167,35.208L81.267,35.205L81.292,35.317ZM81.616,35.068L81.728,35.085L81.782,35.163L81.773,35.256L81.697,35.317L81.617,35.306L81.552,35.254L81.481,35.212L81.376,35.232L81.421,35.171L81.552,35.112L81.616,35.068ZM71.944,73.431L71.971,73.364L72.037,73.366L72.022,73.422L71.944,73.431ZM70.605,73.088L70.598,73.046L70.652,73.024L70.605,73.088ZM70.504,72.577L70.561,72.521L70.575,72.548L70.528,72.609L70.504,72.577ZM27.330,32.076L27.389,32.093L27.440,32.130L27.446,32.175L27.410,32.195L27.374,32.184L27.328,32.186L27.304,32.181L27.283,32.158L27.287,32.112L27.330,32.076ZM24.123,30.372L24.194,30.265L24.327,30.211L24.478,30.371L24.557,30.460L24.442,30.567L24.239,30.514L24.123,30.372ZM16.721,21.493L16.723,21.365L16.813,21.275L16.925,21.249L17.003,21.313L16.965,21.325L16.880,21.369L16.786,21.430L16.721,21.493ZM65.575,68.859L65.607,68.884L65.632,68.926L65.614,68.990L65.535,69.038L65.502,69.011L65.493,68.941L65.464,68.904L65.447,68.880L65.409,68.835L65.243,68.746L65.162,68.669L65.189,68.580L65.296,68.520L65.406,68.508L65.498,68.536L65.560,68.574L65.576,68.630L65.594,68.639L65.595,68.670L65.572,68.769L65.543,68.782L65.528,68.787L65.534,68.834L65.546,68.856L65.575,68.859ZM22.661,62.007L22.698,62.033L22.703,62.092L22.646,62.220L22.543,62.264L22.462,62.200L22.449,62.114L22.520,62.059L22.585,62.039L22.625,62.014L22.661,62.007ZM21.818,61.379L21.830,61.433L21.862,61.512L21.846,61.564L21.779,61.603L21.663,61.591L21.529,61.510L21.315,61.266L21.024,61.136L21.082,61.053L21.373,61.032L21.601,61.080L21.714,61.164L21.784,61.272L21.818,61.379ZM21.750,59.694L21.851,59.764L21.912,59.858L21.901,59.959L21.772,60.042L21.577,60.026L21.458,59.871L21.372,59.703L21.455,59.608L21.617,59.632L21.697,59.664L21.750,59.694ZM21.826,59.361L21.890,59.436L21.957,59.584L21.914,59.639L21.828,59.598L21.664,59.547L21.418,59.529L21.267,59.450L21.220,59.345L21.163,59.219L21.243,59.148L21.450,59.160L21.709,59.277L21.826,59.361ZM66.550,40.415L66.653,40.475L66.757,40.576L66.757,40.665L66.659,40.750L66.595,40.776L66.446,40.802L66.340,40.785L66.291,40.745L66.211,40.694L66.139,40.620L66.152,40.550L66.240,40.473L66.284,40.442L66.382,40.394L66.473,40.388L66.550,40.415ZM21.288,31.351L21.188,31.352L21.021,31.284L20.982,31.274L20.918,31.245L20.823,31.164L20.831,31.110L20.868,31.068L20.875,31.001L20.917,30.964L21.035,30.980L21.190,31.060L21.339,31.171L21.377,31.284L21.288,31.351ZM59.500,21.129L59.587,21.125L59.615,21.142L59.580,21.181L59.478,21.208L59.324,21.198L59.235,21.165L59.213,21.145L59.167,21.132L59.118,21.146L59.103,21.165L59.093,21.191L59.042,21.203L58.983,21.155L58.952,21.078L58.952,21.016L59.001,21.001L59.138,21.044L59.191,20.995L59.215,20.894L59.261,20.875L59.329,20.950L59.363,21.035L59.411,21.103L59.500,21.129Z" fill="currentColor" stroke="currentColor" stroke-width="1" stroke-linejoin="round"/>
</svg>