<svg xmlns="http://www.w3.org/2000/svg" viewBox="0 0 100 100" role="img" aria-label="Poland">
  <title>Poland</title>
  <path d="M47.302,85.037L47.340,84.794L47.314,84.493L47.185,83.873L47.145,83.741L47.039,83.486L46.998,83.346L46.937,82.845L46.900,82.732L46.765,82.626L46.625,82.652L46.485,82.716L46.354,82.727L46.241,82.656L46.065,82.437L45.948,82.336L45.819,82.295L45.543,82.270L45.423,82.181L45.366,82.072L45.276,81.649L45.065,81.191L44.909,80.749L44.905,80.358L45.152,80.058L44.913,79.923L44.874,79.745L44.897,79.521L44.841,79.257L44.708,79.173L44.354,79.410L44.146,79.411L43.478,79.024L43.131,78.895L42.769,78.942L42.788,78.942L42.804,78.950L42.816,78.967L42.826,78.991L42.575,79.221L42.445,79.248L42.267,79.095L42.216,78.997L42.154,78.771L42.116,78.691L42.009,78.608L41.799,78.562L41.693,78.513L41.410,78.258L41.273,78.179L40.699,78.065L40.582,77.923L40.641,77.655L40.116,77.297L39.989,77.263L39.840,77.224L39.880,77.554L39.927,77.575L39.998,77.552L40.076,77.554L40.139,77.655L40.154,77.800L40.109,77.864L39.816,77.955L39.456,77.966L39.293,78.011L39.028,78.258L38.701,78.361L38.375,78.289L37.793,77.684L37.691,77.538L37.621,77.364L37.571,77.184L37.509,77.023L37.410,76.899L37.326,76.811L37.298,76.728L37.327,76.648L37.410,76.573L37.414,76.563L37.416,76.552L37.414,76.538L37.410,76.524L37.284,76.496L37.040,76.369L36.922,76.336L36.826,76.360L36.750,76.406L36.659,76.423L36.519,76.357L36.083,75.781L36.064,75.675L36.130,75.528L36.228,75.476L36.662,75.459L36.901,75.361L37.284,75.122L37.466,74.958L37.550,74.738L37.410,74.468L37.315,74.371L37.295,74.224L37.313,74.091L37.410,73.818L37.431,73.772L37.437,73.729L37.432,73.689L37.410,73.656L37.245,73.425L37.195,73.376L37.042,73.317L36.984,73.356L36.961,73.455L36.911,73.574L36.644,73.957L36.490,74.088L36.282,74.145L35.479,73.997L35.051,74.038L34.787,74.371L34.741,74.403L34.694,74.413L34.645,74.402L34.600,74.371L34.516,74.100L34.320,73.935L34.122,73.951L34.024,74.217L33.904,74.123L33.842,73.973L33.825,73.789L33.836,73.599L33.795,73.562L33.758,73.520L33.726,73.471L33.701,73.416L33.866,73.347L33.681,73.265L33.259,73.278L33.046,73.214L32.729,73.006L32.641,72.907L32.587,72.780L32.531,72.592L32.501,72.434L32.520,72.394L32.415,72.360L32.141,72.419L32.018,72.418L31.903,72.354L31.694,72.172L31.596,72.110L30.673,71.842L30.465,71.868L30.332,71.785L30.079,71.627L29.873,71.600L29.629,71.754L29.630,71.957L29.918,72.397L30.020,72.664L30.087,72.974L30.175,73.256L30.343,73.436L30.562,73.569L30.726,73.756L30.820,74.017L30.833,74.371L30.950,74.532L30.968,74.724L30.910,74.848L30.802,74.805L30.706,74.656L30.664,74.568L30.611,74.529L30.479,74.527L30.454,74.567L30.456,74.743L30.433,74.797L30.352,74.803L30.186,74.741L30.107,74.744L30.000,74.821L29.850,75.037L29.766,75.116L29.665,75.142L29.556,75.171L29.376,75.159L29.198,75.186L28.996,75.365L28.835,75.620L28.737,75.817L28.628,75.979L28.428,76.129L28.151,76.523L27.786,76.551L27.409,76.347L27.100,76.050L26.943,75.834L26.858,75.652L26.756,75.155L26.658,74.880L26.386,74.585L26.272,74.371L26.142,74.187L25.914,73.755L25.785,73.566L25.585,73.421L25.185,73.269L25.025,73.048L25.002,72.921L25.010,72.789L25.003,72.653L24.940,72.518L24.855,72.490L24.445,72.490L24.340,72.525L24.276,72.583L24.210,72.598L24.095,72.502L24.052,72.418L23.936,72.042L23.645,71.989L23.560,71.728L23.631,71.497L23.810,71.539L23.793,71.495L23.750,71.333L23.805,71.328L23.887,71.274L23.936,71.253L24.075,71.134L24.233,71.037L24.367,70.917L24.437,70.729L24.578,70.681L24.866,70.764L25.020,70.729L25.104,70.606L25.289,70.417L25.366,70.306L25.341,70.314L25.340,70.228L25.352,70.116L25.366,70.043L25.405,69.958L25.430,69.918L25.430,69.869L25.396,69.760L25.678,69.640L25.596,69.362L24.831,68.526L24.556,68.365L24.262,68.288L23.936,68.281L23.820,68.306L23.754,68.452L23.689,68.638L23.580,68.780L23.429,68.817L23.292,68.750L23.008,68.526L22.629,68.486L22.072,69.042L21.691,69.115L21.672,69.071L21.666,69.025L21.673,68.978L21.691,68.931L21.820,68.823L21.840,68.650L21.791,68.449L21.713,68.251L21.596,68.023L21.475,67.902L21.327,67.880L20.795,68.087L20.546,68.094L20.488,68.073L20.034,67.278L20.006,67.189L19.986,67.089L19.763,67.068L19.017,67.254L18.922,67.223L18.856,67.156L18.737,66.969L18.635,66.899L16.838,66.252L16.464,66.284L16.380,66.391L16.295,66.546L16.195,66.654L16.180,66.649L16.068,66.612L16.011,66.492L16.018,66.353L16.043,66.207L16.040,66.066L15.933,65.793L15.796,65.677L15.634,65.603L15.455,65.456L15.359,65.298L15.253,65.057L15.170,64.800L15.143,64.593L15.206,64.325L15.284,64.173L15.293,64.032L15.149,63.793L14.910,63.671L14.398,63.663L14.314,63.449L14.272,63.228L14.167,63.174L14.051,63.257L13.970,63.448L13.970,63.449L13.940,63.598L13.839,63.619L13.713,63.555L13.607,63.448L13.531,63.304L13.076,63.202L12.905,63.041L12.880,63.161L12.838,63.228L12.708,63.325L12.657,63.336L12.606,63.361L12.561,63.400L12.520,63.449L12.519,63.449L12.557,63.614L12.703,63.732L12.839,63.936L12.850,64.359L12.822,64.433L12.733,64.535L12.708,64.585L12.700,64.666L12.706,64.722L12.716,64.763L12.727,65.269L12.708,65.395L11.683,65.317L11.358,65.410L11.166,65.404L11.167,65.133L11.294,64.918L11.614,64.553L12.067,63.449L12.468,62.410L12.495,62.243L12.497,61.963L12.513,61.819L12.561,61.718L12.630,61.651L12.690,61.554L12.708,61.367L12.719,60.999L12.792,60.590L12.914,60.202L13.068,59.894L13.031,59.854L12.998,59.808L13.045,59.386L12.914,59.100L12.710,58.857L12.544,58.560L12.519,58.459L12.480,58.198L12.480,58.185L12.426,57.567L12.393,57.183L12.469,57.001L12.376,56.801L12.210,56.624L12.070,56.512L11.866,56.414L11.445,56.287L11.240,56.169L11.240,56.167L11.050,56.030L10.464,55.830L10.265,55.620L10.236,55.466L10.216,55.362L10.289,55.079L10.464,54.799L10.569,54.508L10.555,54.124L10.466,53.755L10.350,53.503L9.914,53.137L9.712,52.898L9.619,52.527L9.583,52.143L9.459,51.975L9.297,51.862L9.149,51.635L9.122,51.327L9.240,51.074L9.755,50.547L9.920,50.324L10.059,50.062L10.135,49.777L10.166,48.888L10.215,48.747L10.409,48.394L10.447,48.256L10.464,48.123L10.492,47.992L10.561,47.868L10.726,47.663L10.142,47.225L10.052,47.017L10.107,46.639L10.204,46.374L10.238,46.166L10.108,45.963L10.108,45.873L10.283,45.642L10.286,45.344L10.147,45.088L9.895,44.978L9.640,44.919L9.336,44.763L9.134,44.538L9.188,44.273L9.000,43.849L8.786,43.214L8.736,42.635L9.201,42.229L9.418,41.887L9.567,41.545L9.525,41.390L9.358,41.238L9.427,40.900L9.679,40.377L9.400,40.150L9.348,40.093L8.827,39.514L8.289,39.304L8.031,38.955L7.860,38.877L7.767,38.788L7.459,38.190L7.320,38.029L6.366,37.337L6.121,37.208L5.827,36.867L5.647,36.788L5.447,36.774L5.259,36.716L5.103,36.596L5.000,36.391L5.239,36.187L5.331,36.011L5.369,35.736L5.348,35.553L5.239,35.037L5.185,34.890L5.185,34.800L5.619,34.483L6.166,34.203L6.695,33.791L6.971,33.508L7.092,33.245L7.117,33.123L7.386,32.299L7.367,32.088L7.314,31.882L7.281,31.645L7.306,31.451L7.370,31.273L7.459,31.143L7.554,31.094L7.620,30.998L7.854,30.548L7.737,30.443L7.702,30.362L7.564,30.249L7.509,30.156L7.482,30.013L7.476,29.749L7.462,29.625L7.401,29.352L7.213,28.503L7.120,27.749L6.931,27.441L6.837,27.137L6.619,26.810L6.554,26.510L6.548,26.187L6.572,25.655L6.555,25.511L6.367,24.945L6.231,24.660L6.268,24.433L6.257,24.024L6.257,24.022L6.345,24.013L6.507,23.945L6.625,23.839L6.637,23.721L6.479,23.615L6.567,23.564L6.596,23.514L6.567,23.465L6.479,23.415L6.530,23.307L6.618,23.383L6.744,23.443L6.855,23.524L6.959,23.805L7.087,23.899L7.332,24.013L7.512,24.199L7.611,24.279L8.007,24.344L8.489,24.510L8.657,24.637L8.794,24.826L9.089,25.373L9.192,25.502L9.239,25.459L9.250,25.226L9.291,25.090L9.367,25.001L9.490,24.907L9.484,24.852L9.481,24.794L9.490,24.709L9.394,24.682L9.163,24.662L9.060,24.609L8.782,23.963L8.840,23.641L9.060,23.009L9.163,23.097L9.253,23.072L9.351,23.017L9.490,23.009L9.427,22.642L9.459,22.349L9.522,22.089L9.552,21.815L9.490,21.815L9.468,21.990L9.398,22.105L9.183,22.313L9.239,22.413L9.160,22.381L9.098,22.342L9.047,22.288L8.999,22.214L9.045,22.171L9.126,22.067L9.183,22.015L9.060,21.767L8.846,21.651L7.850,21.552L7.709,21.403L7.823,21.119L7.793,21.090L7.786,21.086L7.783,21.074L7.766,21.020L7.678,21.165L7.608,21.186L7.532,21.147L7.424,21.119L7.346,21.149L7.285,21.221L7.225,21.315L7.148,21.410L7.416,21.459L7.562,21.523L7.639,21.617L7.621,21.794L7.527,21.922L7.413,21.972L7.332,21.915L7.087,22.064L6.965,22.102L6.836,22.114L6.836,22.214L6.959,22.260L6.953,22.290L6.836,22.313L6.751,22.301L6.609,22.230L6.504,22.214L6.354,22.117L5.922,21.517L5.712,21.425L5.691,21.427L5.618,21.200L5.461,21.015L5.547,20.991L5.621,20.942L5.774,20.549L5.922,20.614L6.020,20.692L6.295,20.791L7.184,20.862L7.541,20.791L7.889,20.614L8.534,20.159L10.911,19.149L12.960,18.636L15.460,17.631L17.078,17.219L18.850,16.763L20.592,16.012L22.040,15.841L23.034,15.524L22.920,15.633L22.475,15.823L22.670,15.954L23.462,15.823L23.462,15.733L23.401,15.733L23.401,15.625L23.829,15.625L23.825,15.554L23.815,15.541L23.798,15.545L23.768,15.524L23.785,15.289L23.578,15.280L23.089,15.426L23.398,15.281L23.771,15.049L24.326,14.431L24.214,14.648L24.013,14.847L23.934,14.955L24.016,14.927L24.179,14.895L24.322,14.840L24.447,14.698L24.762,14.557L24.877,14.431L24.771,14.219L24.592,14.214L24.513,14.305L24.382,14.431L24.763,13.809L25.803,12.542L25.803,12.632L25.755,12.774L25.845,12.810L25.990,12.758L26.105,12.632L26.162,12.436L26.109,12.376L25.993,12.423L25.859,12.542L26.043,12.194L26.355,11.899L26.969,11.538L28.845,11.277L29.574,11.003L29.956,10.942L30.296,10.827L31.157,9.938L33.866,8.745L37.264,8.142L38.789,7.651L41.186,7.444L42.664,7.444L42.868,7.515L43.194,7.782L43.314,7.841L43.502,7.882L46.570,9.603L47.129,10.286L47.220,10.446L47.312,10.672L47.321,10.870L47.162,10.942L47.123,10.893L47.079,10.786L47.024,10.682L46.860,10.573L46.751,10.299L46.603,10.122L46.175,9.441L46.092,9.403L45.777,9.342L45.697,9.311L45.612,9.174L45.357,9.091L44.821,8.745L44.293,8.507L44.208,8.393L43.917,8.182L43.840,8.148L43.730,8.195L43.673,8.269L43.546,8.685L43.528,8.781L43.528,8.994L43.577,9.048L43.792,9.139L43.840,9.193L43.948,9.371L44.080,9.640L44.075,9.751L44.040,9.848L44.043,9.943L44.147,10.047L44.093,10.331L44.195,10.452L44.366,10.418L44.515,10.237L44.463,10.479L44.535,10.672L44.647,10.836L44.874,11.498L44.944,11.638L44.909,11.972L44.916,12.548L44.974,13.094L45.100,13.337L45.241,13.382L45.515,13.581L45.656,13.627L45.776,13.639L45.926,13.682L46.055,13.762L46.110,13.889L46.261,14.089L47.776,14.553L48.110,14.577L48.390,14.431L48.467,14.505L48.572,14.559L48.820,14.630L52.189,14.153L52.932,13.813L53.285,13.735L53.570,13.610L54.123,13.065L54.276,13.002L54.466,13.148L54.911,13.294L55.612,13.329L57.466,13.422L60.946,13.598L63.540,13.729L66.134,13.859L69.348,14.021L73.240,14.217L75.739,14.342L78.238,14.468L80.333,14.574L82.022,14.659L82.640,14.465L82.809,14.334L83.037,13.935L83.049,13.914L83.273,13.814L83.464,13.839L84.002,14.103L84.100,14.115L84.304,14.074L84.396,14.094L84.492,14.186L84.543,14.300L84.583,14.413L84.639,14.507L84.740,14.572L85.049,14.607L85.105,14.687L85.073,14.826L85.021,14.991L85.020,15.145L85.181,15.359L85.387,15.359L85.602,15.272L85.783,15.234L85.946,15.309L86.503,15.752L86.846,15.952L87.570,16.212L87.749,16.357L87.915,16.492L88.002,16.620L88.165,16.917L88.248,17.030L88.341,17.090L88.534,17.141L88.616,17.187L88.765,17.397L88.890,17.688L88.989,18.014L89.057,18.324L89.188,19.004L89.191,19.333L89.057,19.556L88.949,19.643L88.900,19.700L88.857,19.765L88.851,19.921L88.889,20.053L88.962,20.158L89.057,20.234L89.110,20.299L89.136,20.372L89.131,20.452L89.094,20.537L89.105,20.964L89.198,21.320L89.316,21.655L89.408,22.022L89.491,22.796L89.586,23.096L89.804,23.404L89.805,23.404L89.825,24.298L90.040,25.314L90.802,27.580L91.225,28.433L91.405,28.894L91.765,30.270L91.923,30.685L92.085,30.896L92.173,31.102L92.243,31.314L92.349,31.539L92.510,31.711L92.664,31.828L92.759,32.003L92.738,32.356L92.658,32.566L92.549,32.741L92.463,32.942L92.451,33.226L92.528,33.473L92.800,33.815L92.903,34.031L92.918,34.142L92.896,34.317L92.897,34.410L92.973,34.816L92.977,34.933L92.950,35.022L92.851,35.219L92.826,35.334L92.834,35.490L92.865,35.577L92.901,35.650L92.924,35.762L92.999,37.527L93.018,37.965L92.894,38.587L92.537,39.021L91.344,39.824L89.843,40.247L89.047,40.705L88.255,41.357L87.162,43.025L86.801,43.463L86.636,43.718L86.219,44.565L86.247,44.571L86.313,44.627L86.380,44.682L86.478,44.826L86.507,45.017L86.436,45.276L86.638,45.405L87.284,45.579L87.422,45.525L87.540,45.644L88.098,45.853L88.287,45.873L88.287,45.963L88.221,46.097L88.247,46.121L88.376,46.072L88.488,46.121L88.569,46.205L88.654,46.221L88.778,46.072L88.813,46.136L88.902,46.211L88.962,46.280L89.112,46.134L89.147,46.244L89.121,46.418L89.085,46.469L89.335,46.967L89.510,47.022L89.936,47.009L90.105,47.111L90.164,47.224L90.210,47.343L90.263,47.435L90.348,47.473L90.457,47.549L90.494,47.717L90.503,47.885L90.577,48.066L90.704,48.617L90.807,48.865L90.666,48.970L90.548,49.156L90.378,49.561L90.320,49.829L90.313,50.300L90.255,50.465L90.290,50.479L90.306,50.480L90.313,50.497L90.317,50.564L90.210,50.625L90.172,50.940L90.072,51.061L90.213,51.325L90.378,51.550L90.278,51.888L90.106,52.061L89.917,52.177L89.765,52.354L89.729,52.458L89.692,52.615L89.641,52.950L89.674,53.025L89.734,53.128L89.755,53.218L89.672,53.258L89.637,53.299L89.665,53.393L89.720,53.493L89.765,53.556L89.650,53.701L89.595,53.734L89.514,53.746L89.514,53.854L89.616,53.967L89.628,54.108L89.581,54.501L89.613,54.710L89.691,54.913L89.887,55.255L89.826,55.261L89.765,55.255L89.876,55.483L90.019,55.538L90.142,55.612L90.177,55.807L90.194,55.897L90.254,56.101L90.395,56.200L90.558,56.262L90.685,56.349L90.545,56.640L90.559,56.731L90.924,57.278L90.998,57.452L90.894,57.502L90.830,57.603L90.819,57.753L90.874,57.950L90.710,58.015L90.550,58.187L90.427,58.401L90.378,58.595L90.437,58.905L90.578,58.979L90.752,58.982L90.905,59.084L91.402,60.193L91.605,60.444L92.062,60.739L92.489,61.183L92.589,61.360L92.440,61.438L92.407,61.572L92.540,61.861L92.776,62.234L92.854,62.429L92.959,63.038L92.959,63.129L92.921,63.243L92.987,63.303L93.101,63.350L93.211,63.427L93.310,63.582L93.335,63.701L93.345,63.832L93.394,64.023L93.529,64.252L94.136,64.827L94.884,65.251L95.000,65.433L94.890,65.686L94.617,65.745L94.319,65.748L94.136,65.831L93.898,65.693L93.650,65.727L93.444,65.888L93.334,66.138L93.350,66.417L93.483,66.602L93.696,66.703L93.946,66.735L93.946,66.825L93.829,67.080L93.956,67.303L94.201,67.461L94.442,67.522L94.387,67.854L94.458,68.160L94.686,68.726L94.688,68.732L94.480,69.103L94.571,69.796L94.635,69.988L94.682,70.029L94.670,70.061L94.558,70.228L94.388,70.416L93.810,70.729L93.785,70.904L93.799,71.185L93.784,71.374L93.743,71.531L93.546,72.011L93.074,72.214L91.446,72.235L91.136,72.336L90.981,72.418L90.859,72.543L90.761,72.756L90.648,73.143L90.642,73.163L90.518,73.352L89.809,74.151L89.549,74.369L89.548,74.369L89.548,74.370L89.547,74.370L89.057,74.760L88.652,75.088L86.599,77.411L86.329,77.847L86.000,78.117L85.643,78.530L84.669,80.025L84.293,80.430L84.246,80.551L84.172,80.844L84.130,80.948L84.052,81.030L83.894,81.092L83.815,81.147L83.727,81.259L83.174,82.312L83.023,82.473L82.924,82.518L82.731,82.559L82.631,82.650L82.566,82.775L82.411,83.240L81.730,84.206L81.506,84.768L81.679,85.289L81.739,85.502L81.795,86.121L81.828,86.287L81.853,86.367L81.970,86.563L82.164,86.780L82.214,86.891L82.254,87.123L82.376,88.458L82.341,88.669L82.190,89.113L82.063,89.628L81.921,89.943L81.873,90.120L81.927,90.198L81.969,90.169L82.088,90.010L82.229,90.115L82.218,90.121L82.184,90.130L82.475,90.348L82.738,90.716L82.903,90.847L83.306,91.087L83.415,91.234L83.416,91.358L83.334,91.643L83.323,91.841L83.362,91.978L83.507,92.245L83.519,92.276L83.536,92.323L83.431,92.556L83.249,92.472L83.051,92.281L82.890,92.191L82.791,92.158L82.625,91.909L82.534,91.817L82.436,91.805L82.234,91.871L81.909,91.845L81.717,91.865L81.523,91.840L81.303,91.679L80.966,91.282L80.785,91.223L80.596,91.417L80.285,91.254L79.582,91.221L79.253,91.114L78.798,90.627L78.606,90.546L78.110,90.567L77.688,90.430L77.621,90.369L77.601,90.277L77.626,90.183L77.625,90.080L77.527,89.964L77.453,89.949L77.237,89.977L77.147,89.971L77.043,89.922L76.751,89.721L76.115,89.593L75.860,89.395L75.801,88.931L75.688,88.417L75.430,87.975L75.106,87.651L74.622,87.395L74.292,87.074L74.128,86.975L73.947,87.010L73.792,87.160L73.665,87.321L73.571,87.387L73.433,87.268L73.131,86.776L72.980,86.612L72.890,86.584L72.751,86.617L72.683,86.607L72.592,86.540L72.425,86.368L72.334,86.303L72.166,86.257L71.523,86.334L71.387,86.393L71.223,86.463L71.091,86.421L70.758,86.499L70.609,86.500L69.734,86.239L69.231,85.955L69.106,85.923L68.944,86.042L68.663,86.482L68.509,86.634L68.316,86.668L68.179,86.568L68.051,86.417L67.888,86.299L67.749,86.285L67.384,86.364L67.247,86.433L67.065,86.648L67.174,86.780L67.381,86.914L67.491,87.133L67.418,87.267L67.251,87.302L67.062,87.304L66.921,87.336L66.736,87.526L66.443,87.982L66.249,88.160L66.038,88.240L65.873,88.207L65.727,88.095L65.580,87.933L65.412,87.801L65.271,87.778L65.118,87.788L64.916,87.755L64.774,87.645L63.977,86.636L63.837,86.610L63.497,86.668L63.303,86.637L63.220,86.643L63.128,86.698L62.985,86.885L62.882,86.987L62.670,87.068L62.473,87.017L61.714,86.607L61.573,86.640L61.575,86.891L61.111,86.910L60.743,86.763L60.637,86.765L60.545,86.838L60.511,86.929L60.493,87.063L60.446,87.270L60.382,87.472L60.338,87.537L59.644,87.601L59.508,87.683L59.312,87.930L59.224,88.018L59.026,87.993L59.004,87.970L58.952,88.042L58.781,88.451L58.730,88.624L58.667,88.786L58.556,88.929L58.505,89.438L58.412,89.802L58.237,89.946L57.939,89.791L57.475,89.328L57.226,89.190L56.938,89.224L56.775,89.352L56.600,89.544L56.474,89.683L56.274,89.761L55.860,89.728L55.633,89.640L55.517,89.470L55.554,89.278L55.893,88.690L55.933,88.655L55.991,88.638L56.043,88.605L56.064,88.523L56.048,88.460L56.044,88.457L55.976,88.380L55.974,88.375L55.959,88.342L55.958,88.341L55.836,88.245L55.804,88.196L55.804,88.195L55.810,88.134L55.879,88.025L55.892,87.966L55.840,87.261L55.794,87.019L55.711,86.744L55.709,86.742L55.628,86.677L55.327,86.805L55.145,86.825L54.949,86.802L54.433,86.616L54.433,86.612L54.453,86.440L54.447,86.212L54.461,86.133L54.503,86.041L54.143,86.038L53.956,85.984L53.802,85.859L53.755,85.755L53.611,85.291L53.447,84.557L53.338,84.264L53.128,84.116L53.060,84.040L52.909,83.759L52.833,83.726L52.783,83.705L52.731,83.729L52.697,83.801L51.918,84.706L51.850,84.768L51.723,84.822L51.630,84.838L51.354,84.835L51.181,84.874L51.034,84.950L50.903,85.082L50.781,85.289L50.637,85.761L50.653,85.778L50.681,85.822L50.699,85.891L50.678,85.988L50.638,86.020L50.527,86.023L50.501,86.029L50.438,86.312L50.415,86.494L50.350,86.610L50.073,86.728L49.848,86.775L49.755,86.768L49.669,86.722L49.490,86.584L49.408,86.554L49.212,86.603L48.865,86.817L48.637,86.835L48.462,86.801L48.412,86.637L48.449,86.158L48.425,85.942L48.382,85.745L48.373,85.537L48.451,85.292L48.191,85.124L47.302,85.037Z" fill="currentColor" stroke="currentColor" stroke-width="1" stroke-linejoin="round"/>
</svg>