<svg xmlns="http://www.w3.org/2000/svg" viewBox="0 0 100 100" role="img" aria-label="Puerto Rico">
  <title>Puerto Rico</title>
  <path d="M7.739,53.805L8.123,54.162L8.130,54.408L7.943,54.651L7.603,55.267L7.461,55.421L7.348,55.582L7.303,55.858L7.161,55.960L6.847,55.991L6.532,55.960L6.390,55.858L6.173,55.539L5.223,55.008L5.000,54.525L5.218,54.016L5.604,53.812L7.537,53.755L7.739,53.805ZM91.554,53.805L91.258,53.517L90.770,53.635L90.133,53.901L87.516,54.518L86.992,54.767L86.303,54.545L85.263,54.671L84.290,54.535L83.778,53.543L84.296,53.526L84.463,53.543L85.124,53.486L85.789,53.234L86.393,52.870L86.869,52.482L87.184,52.315L89.856,51.883L90.282,51.958L91.443,52.362L93.197,52.432L93.632,52.603L93.960,53.015L93.715,53.144L92.822,53.084L92.596,53.168L91.961,53.609L91.786,53.805L91.554,53.805ZM93.858,48.017L93.397,47.287L92.002,45.980L92.011,45.856L92.834,45.851L93.787,46.045L94.597,46.444L95.000,47.055L94.902,47.080L94.543,47.055L94.772,47.296L94.415,47.313L94.138,47.236L93.950,47.062L93.858,46.795L93.632,46.795L93.934,47.393L93.991,47.672L93.858,48.017ZM82.161,48.017L82.024,48.450L82.262,48.699L82.536,48.821L83.000,48.592L82.904,48.918L82.998,49.173L83.399,49.717L83.053,49.968L83.006,50.267L82.708,50.294L82.382,49.774L82.009,49.777L81.888,50.150L82.214,50.595L81.893,50.871L81.495,50.799L80.935,50.507L80.351,50.704L79.739,51.006L79.080,51.161L78.528,51.413L77.949,51.991L76.765,53.830L76.670,54.757L76.207,55.367L76.034,55.473L75.262,55.642L75.088,55.858L75.429,56.894L74.778,57.499L73.527,58.272L71.792,58.877L71.038,58.860L70.274,58.697L69.590,58.631L69.186,58.717L68.202,59.112L67.967,59.138L66.947,59.112L66.260,59.285L64.302,60.333L63.889,60.366L63.520,60.352L63.198,60.383L62.933,60.552L62.787,60.333L62.745,60.237L62.725,60.071L63.088,59.965L63.173,59.796L63.035,59.581L62.725,59.350L62.075,59.936L61.691,60.045L61.218,59.928L60.297,59.831L59.979,59.749L59.808,59.550L59.686,59.311L59.510,59.112L59.091,58.883L58.792,58.814L58.246,58.848L57.471,59.036L56.519,59.696L55.839,59.613L55.190,59.106L54.648,58.468L54.079,58.098L53.456,58.232L52.982,58.293L52.630,58.473L52.146,58.568L51.047,58.631L50.695,58.813L50.354,59.043L49.956,59.122L49.430,58.848L49.195,59.010L48.953,59.112L48.725,58.714L48.149,58.662L46.786,58.848L46.533,58.787L45.530,58.390L44.161,58.390L44.188,57.909L43.891,57.763L43.442,57.864L43.019,58.127L43.019,58.390L43.476,58.390L43.091,58.920L42.432,59.284L41.667,59.504L40.968,59.613L39.927,59.576L39.420,59.627L39.046,59.594L38.872,59.613L38.738,59.756L38.681,59.999L38.665,60.333L38.040,60.260L37.568,59.914L36.817,59.112L36.140,59.075L35.386,58.947L34.578,58.960L34.100,58.806L33.635,59.204L33.087,59.498L32.598,59.613L32.195,59.559L31.041,59.439L30.309,59.032L29.949,59.318L30.184,60.124L29.821,60.103L29.335,59.357L29.162,59.025L29.176,58.046L29.973,57.670L30.213,57.540L30.517,57.447L30.776,57.311L30.886,57.048L30.751,56.859L30.429,56.690L29.988,56.774L29.560,56.584L29.585,55.928L29.810,55.597L30.134,55.362L29.999,55.004L29.861,54.417L30.216,54.051L30.198,52.917L30.535,51.642L30.795,51.364L31.075,51.095L31.265,50.684L31.044,50.313L30.618,49.929L30.088,48.243L29.773,47.590L29.027,47.441L28.423,47.290L27.892,46.253L27.564,45.744L27.289,45.110L27.356,44.862L28.310,44.583L29.076,44.254L29.710,43.989L30.180,43.694L31.011,43.032L31.056,42.251L30.702,41.635L30.658,40.741L31.271,39.935L32.940,39.448L34.720,39.505L35.926,40.046L39.437,40.765L42.907,40.310L43.383,40.371L44.637,40.811L45.135,40.842L46.443,40.550L48.341,40.376L49.228,40.487L50.114,40.811L50.661,40.706L52.812,40.728L54.136,41.119L56.978,40.550L59.603,41.346L61.131,40.900L62.900,41.467L63.274,41.178L63.712,41.252L63.953,41.552L64.074,41.750L64.357,41.892L64.677,41.701L64.942,41.350L65.274,41.449L65.163,41.911L65.811,42.254L65.919,42.600L66.132,43.041L66.643,43.070L67.745,42.733L67.745,42.471L67.191,42.400L66.584,42.089L66.102,41.607L65.692,41.183L67.889,41.874L68.430,41.990L68.815,42.118L69.353,42.221L69.833,42.002L70.129,41.548L70.886,41.711L72.416,42.153L72.937,41.800L73.339,41.882L73.750,42.191L74.827,42.434L75.411,42.758L76.019,43.401L76.386,43.224L76.635,42.874L76.830,42.949L76.870,43.123L76.697,43.318L76.564,43.590L76.816,43.530L77.163,43.392L77.375,43.255L77.944,44.083L78.509,44.388L78.952,44.075L79.849,44.784L81.012,44.949L81.595,44.527L81.862,44.271L82.142,44.082L82.409,44.152L82.422,44.391L82.096,46.131L82.022,47.602L82.161,48.017Z" fill="currentColor" stroke="currentColor" stroke-width="1" stroke-linejoin="round"/>
</svg>