<svg xmlns="http://www.w3.org/2000/svg" viewBox="0 0 100 100" role="img" aria-label="North Korea">
  <title>North Korea</title>
  <path d="M61.692,78.994L60.965,79.382L60.614,79.668L60.533,79.886L60.561,80.180L60.670,80.757L60.614,81.355L60.447,81.876L60.198,82.344L59.901,82.783L59.216,83.522L58.395,84.069L57.512,84.394L56.637,84.465L55.288,84.384L54.438,84.569L54.261,84.522L54.103,84.357L53.939,84.112L53.833,84.038L51.353,84.262L50.597,84.498L50.210,84.535L48.990,84.154L47.405,84.297L46.995,84.252L46.166,84.344L45.304,84.705L44.485,85.234L43.780,85.834L43.705,85.933L43.546,86.142L43.371,86.589L43.110,87.256L42.898,87.510L42.403,87.907L42.178,88.143L41.080,89.881L40.568,90.304L40.236,90.435L39.998,90.462L39.844,90.579L39.776,90.981L39.865,92.432L39.859,92.436L39.715,92.656L39.661,92.914L39.539,92.935L39.265,93.109L38.911,93.333L38.691,93.280L36.897,92.085L36.792,91.987L36.481,91.431L36.397,91.353L36.152,91.390L35.886,91.478L34.877,92.036L34.620,92.135L34.329,92.170L33.854,92.155L33.577,92.218L33.317,92.401L33.201,92.527L33.182,92.580L33.208,92.644L33.248,92.906L33.336,93.258L33.409,93.437L33.395,93.667L33.356,93.902L33.317,94.024L32.702,93.898L32.529,93.215L32.400,92.895L32.210,92.914L32.090,92.864L32.036,92.485L31.999,91.710L31.619,91.996L31.447,91.985L31.377,91.647L31.292,91.458L31.102,91.242L30.894,91.068L30.761,91.009L30.564,91.182L30.646,91.394L30.827,91.575L30.929,91.647L30.954,91.819L31.072,92.275L31.105,92.516L30.998,92.407L30.860,92.304L30.715,92.221L30.587,92.170L30.426,92.148L30.344,92.159L30.275,92.144L30.146,92.045L29.939,91.808L29.295,90.767L29.239,90.601L29.160,90.480L28.856,90.412L28.777,90.344L28.743,90.220L28.733,90.030L28.762,89.713L28.702,89.647L28.507,89.627L28.374,89.593L28.150,89.442L28.024,89.396L27.491,89.370L27.262,89.320L26.747,89.067L26.424,88.989L26.100,88.984L25.868,89.103L25.859,89.375L26.094,89.658L26.415,89.882L26.663,89.972L27.108,89.905L27.236,89.998L27.146,90.328L27.281,90.269L27.412,90.232L27.538,90.245L27.673,90.328L27.522,90.543L27.410,90.788L27.650,90.788L27.749,90.751L27.848,90.663L27.936,90.788L27.782,90.946L27.622,91.075L27.444,91.172L27.233,91.238L27.026,91.229L26.873,91.116L26.724,90.953L26.533,90.788L26.492,91.178L26.612,91.575L26.669,91.950L26.435,92.275L26.625,92.474L26.707,92.516L26.655,92.675L26.571,92.740L26.313,92.747L26.258,92.795L26.282,92.906L26.357,93.092L26.401,93.338L26.398,93.486L26.313,93.553L26.175,93.546L26.049,93.515L25.933,93.449L25.820,93.333L25.874,93.295L25.883,93.278L25.887,93.259L25.918,93.207L25.761,93.119L25.619,93.108L25.517,93.193L25.478,93.385L25.391,93.400L25.225,93.365L25.117,93.236L25.208,92.967L24.898,93.259L24.737,93.676L24.527,94.062L24.065,94.254L23.614,94.267L23.378,94.312L23.275,94.417L23.216,94.697L23.073,94.925L22.892,95.000L22.732,94.820L22.907,93.948L23.102,93.561L23.444,93.668L24.145,93.333L23.946,93.212L23.504,93.299L23.275,93.207L23.437,92.967L23.708,92.743L24.016,92.580L24.285,92.516L24.919,92.679L25.164,92.601L25.208,92.170L24.992,92.265L24.819,92.232L24.682,92.107L24.584,91.929L24.964,91.489L24.983,91.311L24.637,91.238L24.389,91.145L24.276,90.968L24.154,90.870L23.881,91.009L23.921,91.073L23.953,91.180L23.977,91.238L23.648,91.237L23.497,91.270L23.356,91.353L23.604,91.458L23.927,91.645L24.163,91.889L24.145,92.170L23.905,91.956L23.563,91.797L23.205,91.735L22.916,91.815L22.976,91.940L23.058,92.040L23.156,92.115L23.275,92.170L22.872,92.520L22.624,92.682L22.389,92.747L22.398,92.714L22.386,92.640L22.351,92.560L22.295,92.516L21.504,92.516L21.661,92.263L22.216,91.892L22.389,91.584L22.290,91.295L21.730,90.968L21.767,90.663L21.511,90.715L21.362,90.957L21.247,91.270L21.105,91.532L20.907,91.691L20.695,91.761L20.458,91.761L19.714,91.635L19.573,91.584L19.222,91.279L19.086,91.238L18.802,91.213L18.593,91.113L18.509,90.903L18.598,90.548L18.283,90.751L18.160,90.788L18.214,90.500L18.324,90.321L18.494,90.228L18.735,90.202L18.895,90.141L19.221,89.889L19.397,89.857L19.576,89.935L19.915,90.156L20.144,90.202L20.352,90.189L20.530,90.138L20.679,90.035L20.801,89.857L20.706,89.731L20.565,89.843L20.421,89.865L20.279,89.806L20.009,89.554L19.948,89.536L19.907,89.487L19.835,89.269L19.796,88.943L19.918,88.820L20.450,88.809L21.017,88.694L21.166,88.756L21.218,88.900L21.247,89.058L21.319,89.166L21.592,89.188L21.679,88.617L21.943,88.474L21.830,88.212L21.617,88.113L21.105,88.119L20.873,88.080L20.428,87.916L20.232,87.877L20.025,87.922L19.397,88.244L18.776,88.363L18.598,88.474L17.624,87.877L17.201,87.421L16.949,87.306L16.835,87.605L16.694,87.721L16.368,87.806L15.772,87.877L14.272,87.581L14.145,87.406L14.227,87.213L14.538,87.082L15.147,87.031L15.404,86.894L15.509,86.558L15.595,86.514L16.132,86.390L16.226,86.258L16.437,85.842L16.572,85.698L16.870,85.636L17.077,85.790L17.407,86.333L17.537,86.272L18.334,85.698L18.007,85.557L17.331,85.663L16.965,85.401L16.782,85.181L16.754,85.049L16.748,84.767L16.877,83.703L16.931,83.533L17.498,82.626L17.589,82.431L17.746,81.927L17.897,81.752L17.994,81.710L18.066,81.730L18.101,81.849L18.072,82.098L18.234,81.912L18.450,81.537L18.634,81.126L18.694,80.841L18.613,80.671L18.383,80.487L18.334,80.318L18.358,80.119L18.386,79.976L18.369,79.843L18.178,79.672L18.217,79.541L18.395,79.531L18.651,79.683L18.799,79.582L18.908,79.552L18.976,79.714L19.173,79.937L19.449,79.675L19.745,79.514L20.070,79.737L20.154,79.552L20.147,79.236L20.188,78.987L20.045,78.844L19.947,78.643L19.922,78.439L20.010,78.286L20.193,78.353L20.330,78.627L20.437,78.869L20.734,78.820L20.783,78.689L20.715,78.446L20.736,78.224L20.854,78.275L20.913,78.437L21.040,78.518L21.258,78.458L21.455,78.429L21.762,78.228L21.861,78.219L21.998,78.341L22.295,78.446L22.427,78.308L22.536,78.248L22.675,78.076L22.873,77.936L23.170,77.806L23.532,77.824L23.654,77.838L23.949,77.929L24.106,77.950L24.139,77.894L24.161,77.773L24.223,77.650L24.373,77.595L24.944,77.950L25.005,78.111L25.042,78.429L25.120,78.516L25.274,78.492L25.341,78.331L25.378,78.152L25.434,78.065L25.563,78.111L25.688,78.222L25.784,78.354L25.820,78.464L25.958,78.698L26.272,78.880L26.627,78.959L26.882,78.882L26.763,78.755L26.612,78.494L26.533,78.411L26.395,78.368L26.134,78.354L25.997,78.286L25.415,77.530L25.208,77.364L25.043,77.333L24.737,77.332L24.584,77.250L24.505,77.139L24.172,76.511L24.185,76.432L24.181,76.414L24.065,76.443L24.029,76.515L23.981,76.653L23.883,76.774L23.707,76.789L23.825,76.871L23.925,76.973L24.007,77.097L23.816,77.224L23.429,77.423L23.222,77.371L23.092,77.135L23.004,77.135L22.929,77.359L22.810,77.423L22.468,77.364L22.445,77.315L22.414,77.215L22.364,77.134L22.295,77.135L22.229,77.237L22.255,77.345L22.326,77.435L22.389,77.489L22.389,77.595L22.201,77.664L21.994,77.662L21.799,77.584L21.635,77.427L21.555,77.240L21.599,77.098L21.855,76.789L21.764,76.734L21.679,76.663L21.739,76.504L21.673,76.307L21.522,76.147L21.319,76.097L21.387,76.504L21.208,77.048L20.843,77.066L20.695,76.853L20.637,76.651L20.440,76.549L20.292,76.417L20.188,75.971L20.267,75.687L20.321,75.404L20.362,74.772L20.378,74.486L20.528,74.083L20.648,73.689L20.867,73.356L21.007,73.074L20.978,72.892L21.152,72.631L21.425,72.152L21.664,71.819L21.767,71.537L21.906,71.297L22.167,71.299L22.487,71.315L22.732,71.249L22.077,71.146L22.110,71.019L22.161,70.893L22.157,70.779L22.104,70.682L22.129,70.572L22.119,70.432L22.142,70.310L22.195,70.235L22.210,70.170L22.119,70.086L22.239,69.931L22.373,69.865L22.693,69.857L22.841,69.807L22.797,69.687L22.693,69.536L22.653,69.395L22.842,69.065L23.118,68.930L23.426,68.940L23.707,69.049L23.630,68.794L23.516,68.665L23.485,68.510L23.977,67.583L24.145,67.416L23.943,67.389L23.776,67.253L23.711,67.030L23.802,66.735L23.740,66.677L23.627,66.504L23.758,66.549L23.811,66.574L23.881,66.631L24.154,66.466L24.264,66.341L24.329,66.160L24.062,66.161L23.265,66.034L23.015,65.929L23.052,65.686L23.356,65.228L23.215,65.217L23.076,65.234L22.946,65.277L22.828,65.342L22.873,64.902L23.058,64.648L23.302,64.453L23.532,64.191L23.601,63.989L23.652,63.757L23.743,63.568L24.107,63.419L24.214,63.244L24.233,63.019L24.145,62.798L23.949,62.949L22.612,63.661L22.327,63.761L22.216,63.833L22.101,63.864L21.987,63.782L21.648,63.357L21.592,63.316L21.472,63.160L21.247,63.100L21.128,62.988L21.319,62.682L20.450,62.682L20.494,62.784L20.582,63.044L20.626,63.143L20.054,63.143L19.928,63.110L19.893,63.024L19.884,62.912L19.835,62.798L19.758,62.661L19.731,62.556L19.678,62.488L19.524,62.463L19.325,62.508L19.199,62.515L19.037,62.463L18.939,62.390L18.656,62.129L18.598,62.049L18.560,61.938L18.466,61.912L18.352,61.911L18.248,61.876L17.887,61.488L17.746,61.471L17.624,61.761L17.479,61.640L17.306,61.585L17.159,61.487L17.044,60.982L16.901,60.777L16.705,60.613L16.484,60.484L16.284,60.409L15.997,60.369L15.892,60.333L15.841,60.175L15.475,60.141L15.343,60.037L15.292,59.655L15.159,59.448L15.084,59.629L15.074,59.799L15.118,59.953L15.203,60.087L15.270,60.278L15.212,60.470L15.209,60.680L15.134,60.825L15.140,60.993L15.301,61.051L15.248,61.312L15.087,61.323L14.949,61.432L15.007,61.606L15.131,61.786L15.018,61.832L14.777,61.739L14.502,61.901L14.244,62.162L13.911,62.329L13.802,62.625L13.762,62.695L13.586,62.568L13.590,62.497L13.606,62.447L13.658,62.338L13.562,62.313L13.520,62.285L13.483,62.233L13.419,62.051L13.648,61.779L13.694,61.472L13.860,61.362L13.922,61.123L13.885,60.888L13.793,60.880L13.685,60.950L13.586,60.956L13.536,60.882L13.452,60.682L13.402,60.599L13.285,60.521L13.172,60.495L13.085,60.449L13.053,60.311L13.065,60.163L13.125,59.897L13.141,59.736L13.084,59.650L12.843,59.516L12.787,59.384L12.836,59.040L12.818,58.919L12.701,58.872L12.249,58.855L11.151,58.641L11.095,58.665L11.048,58.713L10.999,58.751L10.937,58.746L10.884,58.690L10.834,58.554L10.802,58.526L10.755,58.460L10.698,58.151L10.665,58.054L10.576,58.015L10.227,57.950L10.051,57.594L9.960,57.473L9.870,57.378L9.782,57.308L9.700,57.259L9.836,57.049L10.011,56.962L10.186,56.907L10.322,56.798L10.401,56.560L10.491,55.741L10.783,55.317L11.147,55.371L11.555,55.528L11.989,55.406L11.728,55.267L11.131,55.233L10.840,55.175L10.599,54.971L10.508,54.691L10.456,54.391L10.322,54.127L10.523,53.922L12.357,52.173L12.411,52.142L12.548,52.114L12.620,52.059L12.640,51.994L12.660,51.801L12.700,51.713L12.906,51.527L13.424,51.194L13.630,50.959L13.828,50.821L14.477,50.677L14.727,50.551L14.861,50.274L14.968,49.885L15.096,49.537L15.297,49.388L15.593,49.316L15.863,49.137L16.493,48.504L16.930,47.932L17.018,47.723L17.080,47.626L17.210,47.747L17.333,47.926L17.369,48.007L17.471,48.061L17.592,48.100L17.904,48.132L18.252,48.069L18.509,48.090L18.762,48.069L18.955,48.007L19.019,47.838L18.923,47.629L18.780,47.420L18.620,47.211L18.620,46.980L18.747,46.770L19.067,46.645L19.370,46.540L19.577,46.414L19.898,46.268L20.135,46.121L20.392,45.933L20.758,45.765L21.207,45.619L21.541,45.472L21.717,45.409L21.829,45.284L21.908,45.116L21.988,44.927L22.195,44.844L22.387,44.823L22.580,44.906L22.753,44.969L23.002,44.886L23.099,44.875L23.213,44.922L23.369,45.071L23.450,45.116L23.738,45.127L23.788,45.001L23.760,44.787L23.762,44.774L23.810,44.540L23.906,44.463L24.129,44.504L24.249,44.425L24.291,44.319L24.299,44.082L24.336,43.953L24.455,43.758L24.580,43.660L24.746,43.623L25.279,43.608L25.451,43.538L25.539,43.350L25.565,42.985L25.626,42.654L25.776,42.544L25.966,42.595L26.143,42.749L26.244,42.893L26.267,42.942L27.022,42.927L27.202,42.814L27.082,42.558L26.715,42.110L27.209,41.481L27.477,41.290L27.507,41.269L27.901,41.189L28.015,41.139L28.077,41.028L28.129,40.911L28.208,40.844L28.335,40.834L28.443,40.861L28.993,41.112L29.118,41.094L29.646,40.725L29.806,40.644L30.016,40.614L30.155,40.701L30.306,40.871L30.462,40.983L30.634,40.896L30.823,40.749L31.219,40.701L31.383,40.614L31.480,40.448L31.411,40.368L31.239,40.350L31.032,40.372L31.180,40.124L31.405,40.050L31.650,40.007L31.868,39.848L32.129,39.444L32.208,39.242L32.173,39.094L32.255,38.964L32.359,38.872L32.483,38.810L32.621,38.760L32.585,38.542L32.716,38.368L32.908,38.185L33.059,37.954L32.874,37.641L33.178,37.358L34.635,36.500L34.815,36.341L34.939,36.146L35.263,35.409L35.410,35.222L35.734,34.905L35.877,34.707L36.176,34.009L36.316,33.796L36.952,33.037L37.358,32.731L37.729,32.738L37.689,32.812L37.667,32.874L37.632,32.929L37.553,32.980L37.553,33.104L37.996,32.977L37.996,32.544L37.818,32.012L37.729,31.587L37.810,31.370L38.255,30.665L38.467,29.903L38.705,29.437L38.752,29.210L38.705,28.990L38.567,28.760L38.574,28.554L39.024,28.083L39.228,27.680L39.434,27.635L39.889,27.660L40.028,27.579L40.441,27.204L40.643,27.084L40.466,26.938L40.279,26.828L40.118,26.700L40.020,26.498L40.240,26.410L40.444,26.410L40.634,26.483L40.818,26.613L41.201,27.030L41.423,27.174L41.521,27.022L41.684,26.602L42.403,26.308L42.565,25.864L42.690,25.673L42.965,25.483L43.238,25.401L43.365,25.524L43.378,25.895L43.448,25.989L43.609,25.978L43.899,26.037L44.136,26.227L44.567,26.572L44.690,26.554L44.743,26.781L45.020,27.214L45.126,27.429L44.908,27.405L44.771,27.481L44.726,27.645L44.777,27.891L44.900,28.062L45.093,28.190L45.487,28.351L45.451,28.416L45.391,28.582L45.607,28.618L46.276,28.877L46.452,29.043L46.171,29.153L45.896,29.311L45.659,29.539L45.487,29.848L45.581,29.861L45.695,29.893L45.790,29.947L45.872,30.108L45.972,30.076L46.146,29.964L46.265,29.998L46.332,30.076L46.383,30.154L46.452,30.193L46.549,30.117L46.717,29.770L46.804,29.704L46.995,29.792L47.285,30.007L47.463,30.050L47.580,30.018L47.673,29.966L47.760,29.955L47.857,30.050L47.867,30.166L47.788,30.274L47.679,30.356L47.601,30.396L47.823,30.496L48.065,30.569L48.568,30.626L48.689,30.602L48.913,30.512L49.014,30.499L49.136,30.547L49.232,30.625L49.302,30.702L49.350,30.741L49.636,30.765L49.838,30.682L50.019,30.568L50.238,30.499L50.455,30.557L50.679,30.679L50.903,30.744L51.122,30.626L51.146,31.004L51.327,31.184L51.824,31.317L52.251,31.612L52.349,31.663L52.462,31.610L52.604,31.381L52.662,31.374L53.017,31.509L54.230,31.544L54.561,31.431L54.799,31.594L55.056,31.638L55.266,31.535L55.352,31.260L55.476,31.139L55.760,31.049L56.282,30.971L56.668,31.317L56.800,31.255L56.906,31.135L57.018,30.971L57.159,31.152L57.168,31.453L57.148,31.756L57.195,31.942L57.306,31.973L57.433,31.935L57.651,31.817L57.603,32.187L57.825,32.362L58.133,32.354L58.336,32.173L58.520,32.277L58.336,32.519L58.879,32.566L59.388,32.091L60.698,29.725L60.896,29.072L60.642,28.707L60.618,28.405L60.459,28.061L60.226,27.778L59.882,27.621L59.392,27.225L59.046,26.906L58.991,26.536L58.855,26.182L58.247,25.037L58.170,24.714L57.741,24.577L57.615,24.339L57.514,24.075L57.262,22.633L57.276,22.385L57.445,22.150L57.702,22.072L58.292,22.059L60.368,21.490L61.677,21.597L61.978,21.695L62.241,21.903L62.838,21.870L63.279,22.086L63.460,22.110L63.991,21.908L64.115,21.932L64.257,22.031L64.376,21.971L64.557,21.707L64.683,21.586L64.816,21.535L65.776,21.610L66.120,21.535L66.270,21.241L67.506,21.304L68.356,21.531L68.617,21.601L69.088,21.447L69.278,20.775L69.393,20.551L69.666,20.477L69.973,20.440L70.200,20.325L70.544,19.971L70.675,19.748L70.690,19.450L70.996,19.628L71.215,19.647L71.399,19.524L71.762,19.113L72.143,18.780L72.384,18.515L72.485,18.428L72.574,18.333L72.613,18.236L72.550,18.085L72.261,18.062L72.183,17.943L72.216,17.750L72.329,17.660L72.467,17.611L72.574,17.539L72.620,17.394L72.612,17.258L72.637,17.134L72.790,17.021L72.696,16.921L72.590,16.852L72.478,16.811L72.352,16.801L72.352,16.675L72.766,16.677L72.897,16.580L72.974,16.329L72.948,16.240L72.870,16.197L72.798,16.136L72.790,15.984L72.830,15.842L72.894,15.728L72.984,15.655L73.673,15.511L73.764,15.471L73.807,15.167L73.915,14.919L74.057,14.844L74.203,15.053L74.386,14.948L74.279,14.803L74.212,14.648L74.232,14.529L74.386,14.487L74.527,14.536L74.643,14.747L74.825,14.822L74.943,14.786L75.081,14.689L75.244,14.603L75.440,14.602L76.062,15.115L76.145,15.253L76.507,15.448L76.588,15.576L76.632,15.750L76.740,15.809L76.870,15.780L76.985,15.686L77.052,15.515L77.063,15.350L77.100,15.226L77.415,15.104L77.503,14.921L77.517,14.695L77.467,14.487L78.004,14.529L78.489,14.656L78.902,14.581L79.230,14.016L79.292,13.410L79.264,12.750L79.329,12.172L79.670,11.816L79.670,11.713L79.454,11.660L79.394,11.432L79.516,11.197L79.846,11.125L79.789,10.881L79.880,10.734L79.985,10.625L79.972,10.492L79.818,10.347L79.688,10.288L79.600,10.173L79.575,9.859L79.596,9.649L79.648,9.458L79.805,9.105L80.011,8.674L80.081,8.438L80.133,7.929L80.585,6.734L80.679,6.560L80.746,6.384L80.757,5.995L80.811,5.816L80.957,5.697L81.345,5.653L81.522,5.576L81.402,5.532L81.304,5.463L81.227,5.367L81.171,5.240L81.312,5.183L81.550,5.031L81.697,5.000L81.870,5.031L81.965,5.112L82.354,5.616L82.477,5.735L82.662,5.816L82.823,5.839L83.325,5.816L83.930,5.562L84.279,5.480L84.435,5.633L84.395,5.857L84.293,6.129L84.152,6.370L83.987,6.497L84.522,6.740L85.210,6.722L85.790,6.823L86.015,7.419L85.831,8.851L85.842,9.503L86.095,10.089L86.795,10.785L86.893,11.073L87.770,11.816L87.911,11.853L88.024,11.843L88.124,11.849L88.217,11.932L88.246,12.065L88.200,12.392L88.262,12.571L88.536,12.776L88.734,12.683L88.774,12.432L88.569,12.172L88.733,11.915L88.943,11.753L89.165,11.740L89.359,11.932L89.397,12.114L89.470,12.778L89.542,13.094L89.695,13.431L89.719,13.502L89.739,13.688L89.788,13.771L89.850,13.818L89.902,13.900L90.119,14.524L90.270,14.756L90.508,14.948L90.799,15.046L91.021,15.281L91.161,15.578L91.211,15.984L91.207,16.410L91.239,16.636L91.369,16.795L91.718,17.065L91.661,17.168L91.295,17.268L90.838,17.415L90.646,17.450L90.481,17.603L90.401,17.611L90.413,17.304L90.402,17.119L90.368,17.014L90.201,16.849L90.038,16.725L89.667,16.673L89.391,16.517L89.277,16.379L88.898,16.312L88.705,16.397L88.753,16.610L88.586,16.784L88.376,16.829L88.270,16.677L88.107,16.571L87.956,16.568L87.950,16.717L87.936,16.863L87.783,16.984L87.657,17.131L87.685,17.360L87.684,17.478L87.746,17.588L87.851,17.604L87.936,17.644L87.938,17.833L87.872,17.953L87.775,17.926L87.580,17.694L87.449,17.730L87.355,17.933L87.473,18.130L87.331,18.176L87.237,18.399L87.025,18.434L86.969,18.813L86.816,18.928L86.665,18.954L86.680,18.710L86.776,18.351L86.670,18.058L86.500,18.045L85.949,18.581L85.661,18.966L85.481,19.098L85.318,19.116L85.344,19.351L85.280,20.335L85.210,20.340L85.100,20.291L84.953,20.378L84.778,20.608L84.820,20.636L84.859,20.743L84.767,20.815L84.647,20.794L84.430,20.615L84.261,20.524L83.910,20.529L83.656,20.720L83.591,21.042L83.579,21.168L83.389,21.194L83.356,21.331L83.294,21.437L83.186,21.848L83.153,22.120L83.062,22.167L82.909,21.801L82.754,21.860L82.734,22.205L82.488,22.337L82.576,22.412L82.642,22.499L82.752,22.681L82.626,22.723L82.532,22.799L82.394,23.029L82.438,22.992L82.404,23.158L82.345,23.359L82.313,23.436L82.263,23.752L82.131,23.866L82.033,23.817L81.912,23.665L81.606,23.542L81.389,23.659L81.308,24.018L81.218,24.450L81.232,25.011L81.041,25.562L80.855,25.725L80.820,26.010L80.696,26.114L80.487,25.782L80.316,25.794L79.821,26.103L79.667,26.582L79.499,27.168L79.391,27.375L79.053,27.521L78.741,27.954L78.643,28.493L78.466,29.198L78.201,29.646L78.353,30.042L78.316,30.324L78.252,30.579L78.337,31.076L78.624,31.440L78.881,31.683L79.047,31.835L79.323,31.807L79.427,32.049L79.608,32.291L79.750,32.400L79.832,32.411L80.031,32.373L80.102,32.400L80.225,32.571L80.212,32.626L80.144,32.696L80.102,32.918L80.077,32.972L79.977,33.346L79.967,33.436L79.764,33.598L79.620,33.974L79.111,36.098L79.013,36.846L79.223,37.478L79.143,37.703L79.114,37.966L79.127,38.516L79.223,39.274L79.278,39.439L79.513,39.729L79.694,39.853L79.574,39.944L79.492,40.315L79.541,40.434L79.300,40.752L79.340,41.083L79.184,41.482L79.072,41.706L78.938,41.687L78.838,41.520L78.661,41.583L78.382,41.635L78.138,41.587L77.910,41.643L77.700,41.598L77.547,41.639L77.211,41.619L76.981,41.801L76.944,42.118L76.699,42.166L76.520,42.365L76.368,42.423L75.986,42.392L75.348,42.605L74.863,42.951L74.381,43.211L74.227,43.395L74.074,43.670L73.860,44.187L73.758,44.421L73.666,44.377L73.544,44.253L73.432,44.009L73.332,43.841L73.114,43.822L72.861,43.880L72.658,44.038L72.589,44.213L72.513,44.389L72.512,44.481L72.520,44.590L72.452,44.715L72.435,44.807L72.401,45.022L72.345,45.113L72.308,45.283L72.264,45.384L72.162,45.501L72.103,45.601L72.092,45.774L72.078,46.188L71.932,46.244L71.855,46.395L71.799,46.576L71.338,47.162L70.856,47.813L70.246,47.789L69.547,48.026L68.569,49.068L68.065,49.512L67.679,49.588L67.461,49.797L67.042,49.931L66.824,49.939L66.669,50.132L66.279,50.067L65.844,50.198L65.611,50.543L65.443,50.543L65.427,50.384L65.184,50.501L64.959,50.769L64.926,51.206L65.085,51.298L65.444,51.447L65.495,51.606L65.586,51.731L65.520,51.983L65.545,52.391L65.370,52.460L65.253,52.568L65.161,52.677L65.086,52.744L64.994,52.736L64.819,52.653L64.568,52.636L64.427,52.745L63.985,52.972L63.893,53.232L63.785,53.366L63.560,53.500L63.169,53.512L62.995,53.687L62.768,53.938L62.593,54.031L62.290,54.160L62.038,54.106L61.690,54.151L61.343,54.654L61.214,55.310L60.884,55.222L60.602,54.681L60.387,54.485L60.039,54.640L59.929,54.837L60.014,55.290L59.894,55.320L59.613,55.286L59.486,55.290L59.345,55.345L59.113,55.482L58.994,55.511L58.888,55.477L58.846,55.400L58.792,55.325L57.088,55.024L57.029,55.103L57.012,55.348L56.972,55.441L56.868,55.535L56.740,55.607L56.621,55.636L56.533,55.717L56.322,56.095L56.229,56.211L56.103,56.260L55.800,56.057L55.599,56.440L55.602,56.733L55.509,57.438L55.387,57.594L54.194,57.719L54.382,57.884L54.351,58.052L53.945,58.257L53.494,58.195L53.087,58.347L52.880,58.882L52.670,59.045L52.482,58.807L52.162,58.638L51.949,58.987L51.767,59.055L51.548,59.222L51.366,59.430L51.206,59.817L50.838,60.054L50.756,60.196L50.731,60.322L50.619,60.585L50.587,60.725L50.593,60.873L50.652,61.120L50.680,61.521L50.728,61.699L50.809,61.777L50.932,61.761L51.249,61.913L51.475,62.233L51.529,62.618L51.043,63.344L50.833,64.044L51.026,65.170L51.381,66.857L51.369,67.321L51.271,67.494L51.129,67.562L50.980,67.509L50.851,67.321L50.835,67.099L50.917,66.849L51.114,66.389L50.668,65.752L50.622,65.523L50.508,65.344L50.351,65.284L50.184,65.406L49.805,65.775L49.774,65.821L49.683,65.954L49.613,66.034L49.007,66.265L49.007,66.389L49.155,66.465L49.466,66.553L49.613,66.631L49.771,66.511L49.977,66.448L50.153,66.518L50.228,66.793L50.144,66.918L49.740,67.008L49.613,67.081L49.545,66.982L49.472,66.909L49.391,66.866L49.302,66.850L49.181,66.889L49.190,66.981L49.246,67.095L49.263,67.196L49.114,67.643L49.007,68.118L48.925,68.600L49.065,68.911L49.200,69.253L49.394,69.395L49.544,69.465L49.815,69.774L49.956,69.857L50.210,69.817L50.263,69.669L50.232,69.499L50.228,69.395L50.459,69.368L50.721,70.017L50.979,70.191L51.946,70.091L52.264,70.191L52.410,70.319L52.521,70.475L52.646,70.607L52.829,70.663L53.710,70.656L53.905,70.682L54.037,70.814L54.332,71.348L54.733,71.930L54.818,72.102L54.898,72.344L55.091,72.633L55.528,73.092L55.568,73.308L55.623,73.374L55.742,73.265L55.826,73.210L55.898,73.261L55.948,73.369L55.990,73.629L56.052,73.762L56.149,73.860L56.275,73.898L56.508,74.041L56.941,74.760L57.188,75.050L58.172,75.293L59.703,77.250L59.894,77.172L60.476,76.846L60.636,76.789L61.028,77.427L61.128,77.525L61.348,77.658L61.470,77.773L61.624,78.078L61.628,78.133L61.646,78.380L61.634,78.683L61.688,78.987L61.692,78.994ZM17.482,62.453L17.424,62.563L17.262,62.643L17.398,63.002L17.570,63.368L17.293,63.533L16.922,63.758L16.645,64.092L16.401,64.134L16.091,64.298L16.327,63.868L16.493,63.942L16.585,63.750L16.402,63.573L16.431,63.493L16.580,63.475L16.586,63.406L16.620,63.325L16.552,63.267L16.553,62.977L16.759,62.856L16.748,62.607L16.904,62.469L16.887,62.324L17.128,62.296L17.482,62.453ZM16.925,80.610L17.143,81.002L17.189,81.187L16.638,81.027L16.377,80.911L16.135,80.714L15.846,80.949L15.727,80.798L15.781,80.520L16.266,80.197L16.421,80.161L16.487,80.318L16.697,80.392L16.845,80.479L16.925,80.610ZM22.652,93.464L22.767,93.429L22.445,93.890L22.227,94.123L21.888,94.351L21.780,94.463L21.598,94.591L21.334,94.650L21.260,94.525L21.641,94.054L21.823,93.961L21.955,94.018L21.987,93.906L22.017,93.755L22.087,93.753L22.120,93.733L22.137,93.683L22.188,93.653L22.273,93.641L22.652,93.464ZM20.323,93.144L20.260,93.000L20.242,92.910L20.308,92.864L20.561,92.670L20.788,92.584L20.848,92.579L20.885,92.640L20.904,92.714L20.871,92.749L20.804,92.763L20.632,92.949L20.433,93.126L20.323,93.144ZM18.815,92.291L18.948,92.320L18.997,92.486L18.961,92.610L18.933,92.604L18.892,92.607L18.754,92.761L18.628,92.806L18.489,92.807L18.395,92.759L18.396,92.681L18.457,92.641L18.512,92.576L18.578,92.533L18.669,92.559L18.750,92.600L18.790,92.584L18.803,92.514L18.811,92.478L18.782,92.395L18.815,92.291ZM14.408,63.763L14.484,63.629L14.627,63.596L14.666,63.708L14.666,63.895L14.629,64.074L14.538,64.177L14.368,64.166L14.311,64.091L14.358,63.950L14.334,63.864L14.408,63.763ZM14.399,63.466L14.252,63.571L14.073,63.573L13.856,63.417L13.326,63.571L13.285,63.610L13.227,63.581L13.247,63.469L13.340,63.390L13.464,63.320L13.677,63.123L13.731,63.142L13.908,63.120L14.230,63.030L14.454,63.046L14.542,63.160L14.510,63.314L14.399,63.466ZM13.229,65.398L13.192,65.250L13.189,65.118L13.303,65.076L13.442,64.944L13.466,65.078L13.474,65.107L13.510,65.161L13.526,65.351L13.365,65.435L13.307,65.446L13.229,65.398ZM8.325,59.038L8.385,58.976L8.363,58.909L8.398,58.902L8.434,58.877L8.407,58.840L8.438,58.823L8.485,58.800L8.523,58.803L8.547,58.836L8.580,58.862L8.598,58.932L8.650,58.947L8.646,58.994L8.646,59.031L8.687,59.036L8.687,59.082L8.672,59.128L8.623,59.143L8.590,59.187L8.528,59.189L8.489,59.250L8.471,59.304L8.435,59.302L8.410,59.264L8.344,59.249L8.287,59.241L8.285,59.234L8.282,59.168L8.299,59.091L8.325,59.038Z" fill="currentColor" stroke="currentColor" stroke-width="1" stroke-linejoin="round"/>
</svg>