<svg xmlns="http://www.w3.org/2000/svg" viewBox="0 0 100 100" role="img" aria-label="Paraguay">
  <title>Paraguay</title>
  <path d="M8.190,36.963L8.418,36.422L8.697,35.395L8.962,34.429L9.396,32.958L9.758,31.729L10.222,30.158L10.562,29.008L10.925,27.746L11.274,26.536L11.597,25.413L11.918,24.299L11.956,23.588L11.956,23.582L11.937,22.003L11.924,20.961L11.913,20.007L11.902,19.021L11.986,18.732L12.349,18.167L12.566,17.845L12.774,17.536L13.218,16.877L13.664,16.217L14.108,15.558L14.553,14.898L14.719,14.639L14.884,14.380L15.049,14.122L15.215,13.863L15.343,13.583L15.409,13.440L15.472,13.304L15.600,13.024L15.729,12.744L16.010,11.947L16.289,11.149L16.569,10.352L16.849,9.557L17.036,9.023L17.116,8.894L17.275,8.826L18.160,8.687L18.374,8.653L18.844,8.579L19.314,8.505L19.527,8.472L22.895,7.719L26.261,6.965L29.629,6.211L32.996,5.458L34.494,5.123L35.311,5.112L37.186,5.087L39.060,5.062L40.934,5.037L42.808,5.011L43.616,5.000L43.814,5.052L44.112,5.270L44.396,5.480L44.898,5.800L45.825,6.394L46.754,6.988L47.682,7.581L48.610,8.174L49.538,8.768L50.466,9.361L51.393,9.955L52.322,10.547L52.711,10.797L52.819,10.923L52.852,11.077L52.821,11.436L52.841,11.783L53.011,12.404L53.044,12.744L53.018,12.985L53.031,13.442L53.015,13.668L52.868,14.242L52.875,14.525L52.880,14.698L52.940,14.736L53.022,14.724L53.092,14.747L53.163,14.822L53.256,14.945L53.276,15.059L52.910,15.189L52.837,15.371L52.900,15.571L53.092,15.709L53.153,15.692L53.199,15.630L53.261,15.568L53.363,15.561L53.430,15.602L53.509,15.686L53.557,15.789L53.461,16.087L53.483,16.363L53.552,16.632L53.630,16.813L53.787,17.001L54.001,17.173L54.225,17.296L54.414,17.344L54.561,17.431L54.533,17.623L54.377,17.937L54.356,18.157L54.366,18.435L54.408,18.696L54.522,18.956L54.529,19.078L54.519,19.313L54.545,19.463L54.676,19.675L54.723,19.795L54.718,19.912L54.643,20.120L54.648,20.246L54.710,20.368L54.803,20.444L54.889,20.432L54.981,20.054L55.112,19.971L55.270,19.997L55.407,20.097L55.448,20.164L55.505,20.324L55.543,20.394L55.606,20.454L55.759,20.565L55.846,20.653L55.871,20.757L55.796,20.839L55.679,20.892L55.462,20.938L55.384,20.999L55.272,21.128L55.121,21.242L55.048,21.339L55.112,21.406L55.370,21.430L55.573,21.473L55.742,21.587L55.852,21.752L55.877,21.948L55.774,22.060L55.364,22.293L55.272,22.432L55.303,22.554L55.370,22.607L55.439,22.627L55.469,22.654L55.519,22.654L55.749,22.848L55.977,23.100L56.044,23.100L56.087,22.911L56.270,23.074L56.286,23.311L56.192,23.562L55.923,23.988L55.930,24.141L56.087,24.472L56.148,24.955L56.107,25.462L55.969,25.922L55.742,26.263L55.460,26.474L55.407,26.558L55.401,26.694L55.451,26.777L55.513,26.834L55.543,26.895L55.626,27.008L55.785,27.057L55.892,27.164L55.815,27.447L55.152,28.491L55.000,28.860L54.961,29.089L54.971,29.330L55.054,29.522L55.235,29.600L55.330,29.693L55.258,29.909L55.130,30.156L55.062,30.341L55.104,30.525L55.208,30.720L55.333,30.875L55.439,30.939L55.494,31.042L55.062,31.767L55.068,31.977L55.104,32.175L55.095,32.383L54.963,32.619L54.894,32.806L54.986,32.962L55.124,33.140L55.198,33.390L55.152,33.525L54.921,33.967L54.827,34.063L54.805,34.168L54.586,34.803L54.571,34.952L54.575,35.116L54.592,35.228L54.723,35.299L54.725,35.301L54.839,35.397L54.928,35.570L55.052,35.704L55.388,35.819L55.495,35.819L55.667,35.745L55.735,35.735L55.820,35.785L55.961,35.942L56.008,35.979L56.129,35.951L56.288,35.812L56.390,35.815L56.492,35.841L56.569,35.826L56.690,35.765L56.666,35.747L56.670,35.690L56.688,35.626L56.707,35.589L56.744,35.586L56.840,35.621L56.881,35.620L57.078,35.545L57.208,35.556L57.341,35.597L57.543,35.606L57.654,35.574L57.730,35.531L57.801,35.512L57.893,35.554L58.047,35.988L58.164,36.211L58.295,36.340L58.467,36.383L58.706,36.348L58.793,36.312L58.833,36.281L58.885,36.267L59.009,36.280L59.085,36.312L59.318,36.468L59.703,36.376L59.788,36.377L59.995,36.459L60.103,36.466L60.247,36.522L60.574,36.733L60.637,36.734L60.673,36.668L60.756,36.688L60.909,36.776L61.022,36.773L61.073,36.716L61.090,36.648L61.103,36.615L61.257,36.629L61.701,36.739L61.892,36.704L62.141,36.494L62.277,36.461L62.320,36.503L62.350,36.670L62.419,36.729L62.514,36.736L62.577,36.707L62.634,36.669L62.709,36.651L62.870,36.676L63.168,36.790L63.259,36.837L63.264,36.861L63.277,36.908L63.325,36.953L63.501,36.984L63.558,37.002L63.616,37.008L63.691,36.976L63.812,36.944L64.129,36.970L64.293,36.956L64.539,37.038L64.645,37.041L64.757,36.967L64.747,37.141L64.797,37.184L64.880,37.170L64.975,37.175L65.151,37.265L65.252,37.271L65.362,36.990L65.478,37.156L65.581,37.427L65.602,37.565L65.836,37.599L65.967,37.555L66.198,37.299L66.263,37.198L66.275,37.128L66.311,37.110L66.448,37.159L66.523,37.151L66.848,37.051L66.923,37.066L66.935,37.114L66.955,37.135L67.058,37.067L67.104,36.995L67.184,36.800L67.236,36.757L67.402,36.844L67.741,37.240L67.898,37.278L67.944,37.190L67.839,36.994L67.902,36.929L68.013,36.896L68.093,36.858L68.426,36.605L68.533,36.487L68.703,36.181L68.729,36.155L68.801,36.117L68.835,36.070L68.890,35.898L68.921,35.831L69.073,35.603L69.163,35.504L69.266,35.412L69.440,35.359L70.156,35.228L70.297,35.243L70.400,35.356L70.663,36.018L70.897,36.377L71.200,36.673L71.755,37.008L72.049,37.298L72.221,37.407L72.395,37.449L74.107,37.537L74.240,37.499L74.367,37.427L74.499,37.492L74.642,37.607L74.798,37.688L75.418,37.747L75.602,37.862L75.626,37.784L75.735,37.560L76.235,38.249L76.639,38.556L76.738,38.671L76.824,38.934L76.857,39.852L76.927,40.245L77.099,40.597L77.358,40.879L77.688,41.065L77.891,41.139L78.022,41.217L78.096,41.346L78.128,41.570L78.118,41.654L78.063,41.833L78.056,41.925L78.077,42.019L78.141,42.194L78.150,42.289L78.048,42.650L77.875,42.964L77.745,43.294L77.769,43.699L77.991,44.535L77.990,44.722L77.934,45.088L77.956,45.272L78.218,45.580L78.325,45.747L78.379,45.959L78.331,46.354L78.338,46.533L78.445,46.675L78.721,46.846L78.758,46.941L78.976,47.748L78.972,47.930L78.740,48.423L78.708,48.602L78.774,48.845L79.079,49.173L79.189,49.378L79.172,49.712L78.904,50.315L78.930,50.691L78.991,51.016L78.998,51.054L78.990,51.444L79.023,51.807L79.214,52.089L79.655,52.564L79.871,53.238L80.022,55.332L80.116,55.614L80.341,55.856L80.648,55.995L81.273,56.043L81.588,56.111L81.589,56.112L81.590,56.112L81.591,56.114L81.945,56.245L82.303,56.319L82.655,56.290L82.995,56.114L82.997,56.114L82.997,56.111L83.251,55.982L83.880,55.988L84.187,55.896L84.355,55.815L84.689,55.801L84.862,55.773L85.030,55.672L85.247,55.381L85.376,55.246L86.018,54.882L87.317,54.428L87.487,54.336L87.738,54.063L87.890,53.987L88.156,54.059L89.841,55.022L90.043,55.172L90.593,55.941L91.528,56.502L91.805,56.653L91.810,56.656L91.601,56.822L91.255,57.082L91.019,57.389L90.921,57.722L90.948,57.897L91.076,58.241L91.125,58.646L91.203,58.782L91.438,59.092L91.521,59.341L91.653,59.680L91.641,59.994L91.547,60.330L91.423,60.567L91.037,61.142L90.922,61.493L90.919,61.825L91.059,62.569L91.053,62.921L90.684,64.038L90.558,64.420L90.273,64.834L90.198,65.012L89.740,66.981L89.651,67.354L89.632,67.557L89.641,67.740L89.721,67.949L89.975,68.366L90.006,68.571L89.916,68.762L89.580,69.070L89.460,69.262L89.240,69.972L88.992,70.359L88.807,70.601L88.523,70.857L88.301,71.261L88.183,71.643L88.163,71.765L88.157,71.998L88.196,72.238L88.296,72.435L88.366,72.640L88.339,72.899L88.281,73.160L88.279,73.185L88.259,73.374L88.417,73.724L88.446,73.942L88.296,74.040L87.945,74.021L87.854,74.124L87.851,74.410L88.033,74.977L88.061,75.191L88.110,75.338L88.335,75.611L88.401,75.742L88.385,75.982L88.288,76.175L88.180,76.346L88.129,76.523L88.208,77.012L88.217,77.215L88.129,77.378L88.045,77.406L87.804,77.421L87.722,77.459L87.661,77.576L87.668,77.684L87.701,77.798L87.750,78.127L87.858,78.474L87.851,78.718L87.646,79.411L87.684,79.576L87.864,79.789L87.900,79.929L87.836,80.051L87.722,80.212L87.641,80.355L87.634,80.384L87.623,80.436L87.647,80.649L87.647,81.137L87.494,81.479L87.480,81.537L87.451,81.598L87.355,82.260L87.309,82.436L87.221,82.584L86.916,82.925L86.636,83.151L86.486,83.328L86.392,83.524L86.403,83.677L86.455,83.830L86.486,84.031L86.477,84.280L86.441,84.546L86.360,84.787L86.221,84.963L86.119,85.013L86.064,84.986L86.018,84.930L85.943,84.889L85.501,84.889L85.263,84.949L85.098,85.103L84.990,85.318L84.860,85.817L84.787,86.008L84.689,86.168L84.547,86.336L84.383,86.410L83.896,86.451L83.695,86.524L83.050,87.157L82.981,87.342L83.119,87.769L83.084,88.005L82.925,88.135L82.694,88.174L82.300,88.154L82.146,88.108L81.962,88.010L81.749,87.927L81.510,87.924L81.024,88.186L80.558,88.245L80.358,88.304L80.182,88.418L80.015,88.598L79.896,88.805L79.836,89.026L79.811,89.527L79.706,89.699L79.462,89.722L79.188,89.694L78.990,89.715L78.876,89.886L78.834,90.109L78.776,90.304L78.613,90.388L78.349,90.453L78.342,90.617L78.582,91.061L78.625,91.189L78.644,91.304L78.623,91.417L78.490,91.638L78.499,91.711L78.523,91.799L78.515,91.950L78.418,92.197L78.258,92.383L78.046,92.501L77.798,92.541L77.519,92.751L77.163,93.162L76.793,93.448L76.191,93.127L75.924,93.055L75.803,92.987L75.718,92.877L75.568,92.471L75.419,92.268L75.217,92.192L74.986,92.196L74.744,92.232L74.690,92.234L74.503,92.240L74.284,92.196L73.619,91.943L73.614,91.942L73.368,91.896L73.113,91.878L72.860,92.018L72.672,92.158L72.309,92.564L72.084,92.662L71.798,92.738L71.568,92.862L71.514,93.097L71.552,93.393L71.514,93.635L71.398,93.851L71.204,94.063L71.010,94.337L70.874,94.669L70.696,94.933L70.376,95.000L70.370,94.998L70.061,94.876L69.761,94.643L69.504,94.353L69.316,94.060L68.916,93.571L68.911,93.570L68.254,93.477L68.005,93.548L67.556,93.675L67.048,94.063L66.681,94.131L66.677,94.129L66.319,93.915L65.705,93.316L65.355,93.177L65.355,93.177L64.991,93.214L64.630,93.357L63.646,93.885L63.320,93.957L62.930,93.939L62.845,93.925L62.612,93.921L62.609,93.920L62.502,93.887L62.410,93.830L62.145,93.610L62.045,93.562L62.040,93.561L61.588,93.440L61.494,93.415L61.390,93.359L61.319,93.291L61.158,93.135L61.069,93.077L60.858,93.021L60.818,93.011L60.557,93.012L59.552,93.152L59.297,93.127L59.231,93.105L59.075,93.052L57.462,92.253L57.458,92.252L57.347,92.213L56.330,92.006L56.326,92.004L55.900,91.863L55.897,91.863L55.455,91.770L55.317,91.741L55.012,91.614L55.009,91.614L54.419,91.492L54.237,91.454L54.236,91.454L53.923,91.445L53.321,91.553L53.174,91.561L52.085,91.424L49.374,91.656L48.484,92.030L48.444,92.066L48.445,92.058L48.487,91.523L48.471,91.301L48.347,91.094L48.101,90.915L47.965,90.784L47.905,90.644L47.956,90.331L48.100,90.110L48.326,89.979L48.829,89.894L48.879,89.781L48.860,89.614L48.862,89.419L48.887,89.324L48.920,89.239L48.967,89.159L49.029,89.082L49.120,89.030L49.122,89.029L49.177,89.076L49.202,89.155L49.202,89.197L49.212,89.224L49.282,89.270L49.284,89.271L49.366,89.289L49.406,89.234L49.414,89.054L49.432,88.979L49.467,88.893L49.557,88.742L49.734,88.529L49.813,88.376L49.664,88.245L49.643,88.101L49.725,87.964L49.881,87.858L50.321,87.742L50.537,87.657L50.628,87.521L50.727,87.417L51.183,87.381L51.314,87.272L51.250,87.084L51.069,86.950L50.950,86.799L51.072,86.561L51.238,86.510L51.416,86.567L51.584,86.593L51.721,86.450L51.685,86.362L51.605,86.237L51.591,86.128L51.755,86.081L51.876,86.083L51.951,86.069L51.989,86.014L52.016,85.169L52.061,84.963L52.112,84.840L52.144,84.826L52.195,84.863L52.508,84.923L52.626,84.915L52.678,84.849L52.651,84.750L52.593,84.664L52.544,84.566L52.542,84.439L52.580,84.405L52.749,84.284L52.814,84.216L52.759,84.156L52.671,84.003L52.611,83.920L52.386,83.760L52.333,83.698L52.293,83.514L52.324,83.349L52.379,83.181L52.407,82.992L52.438,82.907L52.578,82.804L52.611,82.692L52.370,82.470L52.336,82.333L52.404,82.160L52.737,81.581L52.788,81.426L52.814,81.248L52.764,80.901L52.764,80.725L52.845,80.649L53.003,80.614L53.229,80.521L53.401,80.391L53.395,80.245L53.249,80.143L53.091,80.065L52.974,79.955L52.950,79.761L53.051,79.797L53.130,79.843L53.185,79.904L53.221,79.983L53.309,79.864L53.398,79.640L53.493,79.276L53.595,79.173L54.240,78.940L54.573,78.754L55.722,77.905L55.851,77.731L55.852,77.587L55.392,77.454L55.468,77.290L55.815,77.009L55.877,76.925L55.934,76.800L55.924,76.687L55.695,76.603L55.667,76.527L55.695,76.451L55.906,76.372L56.114,76.262L56.249,76.165L56.317,76.115L56.426,75.965L56.275,75.598L56.240,75.389L56.389,75.298L56.572,75.236L56.764,75.090L56.932,74.919L57.038,74.781L56.931,74.753L56.837,74.710L56.758,74.648L56.698,74.559L56.906,74.245L57.029,74.127L57.242,74.040L57.353,74.030L57.458,74.038L57.556,74.028L57.649,73.966L57.686,73.882L57.738,73.640L57.757,73.589L58.049,73.628L58.205,73.623L58.273,73.556L58.319,73.304L58.428,73.226L58.563,73.193L58.680,73.071L58.733,72.878L58.863,71.936L58.851,71.759L58.780,71.617L58.646,71.469L58.029,70.991L58.025,70.859L57.723,70.096L57.719,70.093L57.417,69.888L57.223,69.619L56.902,68.912L56.783,68.771L56.472,68.619L56.322,68.508L55.883,68.000L55.742,67.875L55.545,67.803L54.756,67.801L54.617,67.755L54.556,67.645L54.519,67.522L54.451,67.431L54.358,67.411L54.136,67.439L54.037,67.431L53.346,67.084L53.221,67.091L53.123,66.927L52.226,66.313L52.043,66.318L51.877,66.441L51.597,66.731L51.478,66.817L51.352,66.881L51.239,66.899L51.113,66.862L51.060,66.800L51.029,66.715L50.968,66.610L50.329,65.899L50.093,65.571L49.971,65.451L49.746,65.338L47.549,64.912L47.497,64.860L47.472,64.774L47.410,64.728L47.332,64.693L47.260,64.637L47.118,64.595L46.611,64.583L46.405,64.530L44.497,63.092L44.181,63.015L44.085,62.944L43.885,62.747L43.789,62.686L43.727,62.674L43.540,62.672L43.343,62.600L42.971,62.356L42.737,62.274L42.452,62.073L42.038,61.932L41.943,61.856L41.889,61.783L41.816,61.726L41.665,61.704L41.571,61.669L41.442,61.515L41.114,61.394L40.951,61.192L40.748,60.808L40.656,60.703L40.268,60.363L40.027,60.253L39.992,60.168L39.967,60.070L39.933,59.994L39.872,59.941L39.655,59.845L39.429,59.714L39.322,59.631L39.214,59.513L39.135,59.455L38.951,59.418L38.782,59.315L38.532,59.283L38.433,59.247L38.361,59.181L38.186,58.942L37.805,58.551L34.223,56.183L34.043,56.138L33.838,56.160L33.371,56.327L33.133,56.380L32.388,56.404L31.609,56.285L31.295,56.302L31.202,56.285L31.095,56.225L30.901,56.050L30.794,55.982L30.704,55.968L30.349,55.982L29.734,55.861L29.407,55.627L29.226,55.539L28.870,55.522L28.812,55.502L28.653,55.155L28.642,55.094L28.551,55.074L28.378,54.977L28.269,54.939L28.154,54.929L27.697,54.954L27.600,54.928L27.396,54.752L27.303,54.721L26.721,54.735L26.431,54.742L26.225,54.717L25.939,54.545L25.605,54.269L25.239,54.089L24.860,54.199L24.546,53.998L24.452,53.902L24.309,53.663L24.249,53.600L24.231,53.455L24.112,53.231L23.951,53.024L23.689,52.874L23.518,52.590L23.427,52.490L23.517,52.312L23.552,52.065L23.516,51.845L23.393,51.750L23.222,51.691L23.073,51.556L22.940,51.407L22.816,51.305L22.742,51.295L22.543,51.310L22.476,51.305L22.385,51.241L22.193,51.044L22.103,51.003L21.897,50.941L21.794,50.793L21.734,50.622L21.655,50.484L21.010,50.195L20.781,50.184L20.643,50.144L20.543,50.074L20.426,49.966L20.275,49.859L20.113,49.790L19.930,49.754L19.716,49.744L19.624,49.686L19.532,49.432L19.373,49.327L19.382,49.219L19.428,49.094L19.475,49.005L19.297,49.000L19.180,48.979L19.091,48.933L18.589,48.401L18.445,48.331L17.975,48.331L17.841,48.292L17.757,48.240L17.601,48.065L17.461,47.967L17.317,47.903L17.205,47.810L17.160,47.621L17.153,47.420L17.125,47.292L17.063,47.188L16.956,47.059L16.849,46.965L16.624,46.836L16.508,46.730L16.283,46.399L16.203,46.318L15.094,45.637L14.740,45.244L14.602,45.035L14.600,44.986L14.572,44.935L14.623,44.682L14.600,44.579L14.490,44.415L14.304,44.015L14.159,43.795L13.948,43.572L13.856,43.446L13.819,43.314L13.772,43.312L13.673,43.244L13.588,43.166L13.578,43.128L13.508,43.093L13.469,43.010L13.442,42.913L13.406,42.832L13.134,42.529L13.071,42.414L13.028,42.292L12.961,42.199L12.828,42.159L12.788,42.101L12.910,41.847L12.720,41.725L12.724,41.583L12.794,41.345L12.741,41.233L12.705,41.214L12.646,41.221L12.522,41.190L12.276,41.076L12.146,40.966L12.144,40.830L12.284,40.634L12.340,40.453L12.261,40.259L12.041,39.999L11.986,39.983L11.919,39.989L11.861,39.973L11.837,39.895L11.839,39.775L11.830,39.720L11.803,39.668L11.731,39.623L11.619,39.590L11.265,39.541L11.191,39.531L10.997,39.456L10.302,38.971L10.134,38.800L10.065,38.636L9.979,38.561L9.580,38.434L9.454,38.377L9.212,38.057L9.043,37.912L8.808,37.852L8.695,37.838L8.561,37.798L8.440,37.728L8.366,37.630L8.385,37.540L8.451,37.445L8.490,37.332L8.428,37.186L8.496,37.186L8.444,37.102L8.375,37.031L8.290,36.982L8.190,36.963Z" fill="currentColor" stroke="currentColor" stroke-width="1.5" stroke-linejoin="round"/>
</svg>