<svg xmlns="http://www.w3.org/2000/svg" viewBox="0 0 100 100" role="img" aria-label="Palestine">
  <title>Palestine</title>
  <path d="M26.737,69.870L28.971,71.548L31.033,72.799L29.438,74.130L27.569,75.869L27.557,75.869L26.691,76.463L20.199,82.738L18.965,85.110L18.947,86.260L19.422,88.583L19.256,89.740L17.244,91.927L14.289,94.138L13.368,95.000L12.337,91.770L12.005,90.655L10.608,88.049L11.894,87.212L12.697,86.150L15.267,83.828L16.426,81.732L19.112,79.707L20.247,77.644L24.565,73.154L26.597,70.199L26.737,69.870ZM55.758,43.903L56.398,43.122L56.455,42.100L56.337,40.937L56.938,40.283L55.616,35.630L55.772,33.304L55.204,31.547L54.379,29.960L54.123,29.081L54.306,28.059L56.537,26.001L56.959,25.164L57.160,24.305L57.060,23.592L56.662,23.086L55.944,22.860L56.122,21.974L56.324,19.847L56.561,18.989L56.781,18.832L57.546,18.551L57.760,18.390L58.175,16.999L58.401,15.847L59.089,12.337L60.216,10.375L61.729,9.287L63.450,8.469L65.230,7.348L66.672,5.673L67.473,5.063L68.500,5.000L68.599,5.052L69.366,5.456L71.004,6.805L72.048,7.175L75.662,6.998L77.371,7.199L79.080,8.256L79.590,9.846L79.566,11.939L79.881,13.644L81.370,14.086L82.741,14.129L84.088,14.480L88.728,15.677L88.900,16.196L88.995,16.811L88.639,16.811L88.639,16.346L88.212,16.346L88.212,16.811L88.520,17.469L88.473,19.497L88.995,20.502L88.740,21.290L88.722,22.579L88.935,23.866L89.392,24.656L89.108,24.818L88.888,25.000L88.734,25.248L88.639,25.624L89.392,25.624L88.648,28.816L88.396,29.897L88.639,30.698L88.639,31.202L88.170,31.443L87.909,31.747L87.909,32.113L88.212,32.547L87.250,34.196L87.215,34.978L87.820,35.817L86.853,36.610L86.538,37.777L86.645,40.897L87.268,42.483L87.393,43.203L87.428,44.125L87.523,44.687L87.861,45.435L87.820,45.973L87.559,46.284L87.161,46.399L86.805,46.599L86.645,47.147L88.045,52.559L87.428,53.401L87.428,53.904L88.639,57.552L86.811,59.599L85.370,62.960L84.088,65.951L83.174,70.856L82.859,75.869L82.877,75.978L82.883,76.041L82.859,76.062L82.824,76.037L78.919,76.366L75.602,78.277L69.342,83.535L65.990,84.803L58.828,84.740L55.392,85.215L53.933,85.725L52.354,85.977L50.835,85.736L49.565,84.765L48.895,82.494L49.732,80.233L52.319,75.869L52.645,73.668L52.669,71.778L52.924,69.947L53.834,68.168L53.956,67.928L55.007,66.677L59.922,63.538L61.883,61.806L63.080,60.774L63.741,59.732L65.074,59.445L65.384,59.710L66.094,59.803L66.823,60.611L68.306,60.402L69.117,60.948L69.391,60.674L69.612,60.791L69.807,61.117L70.184,61.339L70.440,61.236L70.549,60.661L70.830,60.376L71.017,59.397L71.341,59.102L71.610,58.682L71.433,58.120L71.056,57.743L71.030,57.261L71.342,56.310L71.615,55.906L71.446,55.711L71.381,55.164L71.212,54.383L71.485,53.940L71.732,53.433L71.459,53.264L71.082,53.224L70.965,53.094L71.290,52.600L71.090,52.406L70.874,52.209L70.575,52.157L69.919,52.328L69.581,51.807L69.477,51.339L69.529,50.662L69.269,49.856L68.696,49.700L68.306,49.986L68.280,50.402L68.540,50.923L68.748,51.599L68.930,52.562L68.930,53.604L68.909,53.849L68.766,53.940L67.812,53.421L67.426,53.407L67.062,53.511L66.984,53.862L67.187,54.254L67.210,54.618L66.507,54.698L64.385,54.243L63.491,53.529L62.979,53.589L62.124,53.095L61.579,51.955L60.904,51.547L60.221,51.519L59.738,51.604L59.141,51.945L58.100,52.996L57.265,53.225L56.611,53.282L55.391,53.092L55.226,52.953L55.301,52.685L55.934,52.127L56.438,51.569L56.899,51.419L58.250,51.355L58.492,51.077L58.761,47.864L58.239,46.796L57.461,46.651L56.833,46.165L56.739,45.797L56.966,45.411L56.592,45.093L55.758,43.903Z" fill="currentColor" stroke="currentColor" stroke-width="1" stroke-linejoin="round"/>
</svg>