<svg xmlns="http://www.w3.org/2000/svg" viewBox="0 0 100 100" role="img" aria-label="French Polynesia">
  <title>French Polynesia</title>
  <path d="M87.314,69.328L87.271,69.353L87.227,69.374L87.324,69.278L87.322,69.291L87.314,69.328ZM86.394,66.786L86.354,66.765L86.313,66.761L86.273,66.773L86.236,66.800L86.273,66.749L86.332,66.731L86.382,66.744L86.394,66.786ZM85.645,66.185L85.719,66.160L85.748,66.191L85.731,66.245L85.672,66.290L85.711,66.240L85.704,66.211L85.675,66.194L85.645,66.185ZM85.267,66.207L85.221,66.141L85.200,66.122L85.233,66.121L85.251,66.138L85.259,66.168L85.267,66.207ZM84.840,66.072L84.819,66.056L84.805,66.037L84.790,66.032L84.762,66.056L84.789,66.015L84.821,66.015L84.849,66.045L84.863,66.099L84.853,66.096L84.849,66.089L84.846,66.080L84.840,66.072ZM68.826,58.312L68.855,58.293L68.908,58.317L68.960,58.363L68.987,58.413L68.978,58.469L68.942,58.507L68.890,58.529L68.833,58.539L68.901,58.480L68.945,58.431L68.932,58.379L68.826,58.312ZM74.100,57.107L74.092,57.087L74.087,57.065L74.076,57.046L74.045,57.034L74.097,57.035L74.127,57.063L74.127,57.103L74.087,57.146L74.100,57.107ZM75.864,56.831L75.824,56.825L75.809,56.818L75.797,56.802L75.840,56.793L75.874,56.792L75.886,56.802L75.864,56.831ZM65.118,56.435L65.178,56.372L65.244,56.389L65.286,56.457L65.273,56.543L65.259,56.472L65.219,56.429L65.167,56.416L65.118,56.435ZM67.487,56.116L67.598,56.050L67.711,56.107L67.752,56.201L67.643,56.243L67.712,56.157L67.663,56.109L67.564,56.096L67.487,56.116ZM75.843,54.431L75.871,54.458L75.879,54.472L75.880,54.494L75.721,54.407L75.751,54.409L75.782,54.414L75.843,54.431ZM57.171,50.263L57.220,50.192L57.258,50.205L57.312,50.321L57.310,50.330L57.290,50.311L57.267,50.272L57.255,50.222L57.234,50.259L57.214,50.283L57.193,50.287L57.171,50.263ZM24.257,49.420L24.310,49.359L24.322,49.408L24.302,49.462L24.257,49.420ZM64.368,48.046L64.350,48.009L64.301,47.974L64.242,47.958L64.179,47.956L64.271,47.939L64.339,47.971L64.377,48.042L64.378,48.058L64.382,48.116L64.383,48.143L64.375,48.127L64.375,48.113L64.368,48.046ZM77.409,48.038L77.324,48.035L77.315,48.009L77.314,47.995L77.326,47.965L77.387,47.884L77.477,47.848L77.352,47.962L77.335,47.994L77.339,48.003L77.357,48.007L77.383,48.016L77.409,48.038ZM57.203,46.384L57.164,46.354L57.147,46.337L57.132,46.318L57.179,46.315L57.225,46.333L57.267,46.364L57.302,46.404L57.278,46.409L57.254,46.406L57.229,46.397L57.203,46.384ZM28.921,46.304L28.954,46.289L28.971,46.284L28.988,46.282L28.970,46.306L28.907,46.365L28.906,46.348L28.910,46.334L28.921,46.304ZM9.989,45.438L10.012,45.481L10.037,45.545L10.049,45.594L10.031,45.595L9.992,45.537L9.948,45.392L9.916,45.330L9.949,45.333L9.972,45.355L9.985,45.391L9.989,45.438ZM52.347,44.756L52.358,44.728L52.402,44.744L52.451,44.788L52.482,44.842L52.446,44.826L52.411,44.806L52.347,44.756ZM17.340,43.821L17.290,43.855L17.258,43.837L17.267,43.811L17.340,43.821ZM44.956,41.281L44.732,41.060L44.889,41.169L44.958,41.237L44.956,41.281ZM66.759,40.969L66.879,40.950L66.919,40.950L66.886,40.970L66.800,41.054L66.759,41.049L66.733,41.029L66.730,41.001L66.759,40.969ZM34.721,41.187L34.630,41.122L34.597,41.018L34.613,40.924L34.672,40.890L34.691,40.915L34.741,41.023L34.773,41.060L34.812,41.098L34.808,41.139L34.774,41.171L34.721,41.187ZM42.399,40.894L42.416,40.947L42.420,40.973L42.419,41.002L42.382,40.916L42.357,40.876L42.327,40.841L42.346,40.851L42.399,40.894ZM7.424,40.967L7.436,40.918L7.429,40.881L7.405,40.855L7.364,40.843L7.418,40.830L7.442,40.858L7.450,40.908L7.454,40.958L7.442,40.986L7.415,41.005L7.400,41.003L7.424,40.967ZM50.392,40.559L50.466,40.552L50.514,40.586L50.520,40.636L50.473,40.674L50.427,40.674L50.396,40.647L50.384,40.605L50.392,40.559ZM46.884,39.414L46.936,39.414L46.974,39.430L46.985,39.455L46.963,39.491L46.878,39.424L46.588,39.372L46.476,39.288L46.773,39.392L46.884,39.414ZM43.672,38.865L43.633,38.999L43.652,38.912L43.663,38.811L43.653,38.770L43.630,38.737L43.614,38.724L43.571,38.701L43.585,38.699L43.624,38.720L43.644,38.729L43.661,38.756L43.678,38.805L43.672,38.865ZM41.815,38.318L41.736,38.285L41.802,38.296L41.854,38.337L41.893,38.396L41.915,38.463L41.861,38.394L41.815,38.318ZM39.049,38.285L39.110,38.284L39.127,38.298L39.131,38.338L39.112,38.315L39.093,38.304L39.073,38.296L39.049,38.285ZM36.775,38.211L36.796,38.198L36.842,38.225L36.901,38.267L36.957,38.298L36.775,38.211ZM38.167,37.777L37.936,37.588L37.854,37.538L37.941,37.578L38.021,37.638L38.167,37.777ZM36.109,37.592L36.099,37.574L36.088,37.560L36.083,37.546L36.089,37.525L36.109,37.592ZM44.854,34.634L44.809,34.655L44.761,34.671L44.713,34.679L44.664,34.677L44.807,34.652L44.854,34.634ZM65.516,33.518L65.495,33.549L65.452,33.521L65.350,33.406L65.394,33.429L65.516,33.518ZM37.013,77.771L37.013,77.740L37.093,77.711L37.171,77.693L37.345,77.680L37.330,77.711L37.310,77.735L37.285,77.755L37.253,77.771L37.123,77.800L37.063,77.796L37.013,77.771ZM29.365,75.422L29.474,75.457L29.498,75.529L29.445,75.596L29.251,75.617L29.203,75.592L29.177,75.542L29.169,75.469L29.192,75.445L29.246,75.430L29.365,75.422ZM92.303,74.324L92.396,74.318L92.538,74.201L92.636,74.169L92.603,74.230L92.455,74.421L92.408,74.414L92.368,74.399L92.303,74.359L92.303,74.324ZM21.073,71.147L21.113,71.151L21.158,71.201L21.194,71.262L21.208,71.303L21.201,71.418L21.178,71.538L21.152,71.562L21.139,71.568L21.119,71.567L21.101,71.450L21.055,71.339L21.029,71.237L21.073,71.147ZM67.704,67.657L67.785,67.603L67.868,67.666L68.001,67.876L67.884,67.944L67.763,67.903L67.687,67.794L67.704,67.657ZM67.674,49.930L67.463,50.052L67.329,50.164L67.211,50.288L67.164,50.306L67.094,50.308L67.025,50.295L66.985,50.270L66.978,50.218L66.997,50.157L67.047,50.052L67.136,49.958L67.223,49.799L67.382,49.698L67.704,49.553L67.790,49.490L67.909,49.505L67.930,49.593L67.893,49.693L67.807,49.763L67.674,49.930ZM30.662,49.705L30.762,49.823L30.812,50.029L30.780,50.231L30.633,50.336L30.563,50.324L30.326,50.256L30.260,50.225L30.118,50.036L30.006,49.833L29.966,49.676L29.946,49.646L29.905,49.644L29.883,49.678L29.867,49.720L29.843,49.740L29.755,49.752L29.501,49.833L29.407,49.839L29.338,49.828L29.201,49.774L28.954,49.734L28.904,49.705L28.828,49.434L28.798,49.394L28.757,49.362L28.715,49.285L28.681,49.192L28.666,49.110L28.707,48.893L28.831,48.767L29.006,48.694L29.201,48.642L29.394,48.622L29.592,48.656L29.774,48.731L29.920,48.832L29.963,48.880L30.000,48.941L30.026,49.014L30.036,49.096L30.023,49.397L30.036,49.490L30.138,49.618L30.315,49.667L30.662,49.705ZM27.994,48.486L28.040,48.507L28.042,48.553L27.959,48.755L27.882,48.876L27.793,48.957L27.710,48.954L27.608,48.902L27.483,48.810L27.381,48.706L27.351,48.614L27.396,48.564L27.477,48.528L27.554,48.522L27.588,48.564L27.606,48.611L27.641,48.612L27.675,48.593L27.683,48.580L27.717,48.572L27.746,48.553L27.780,48.548L27.829,48.580L27.842,48.524L27.879,48.496L27.932,48.487L27.994,48.486ZM22.732,45.309L22.747,45.270L22.782,45.275L22.821,45.309L22.848,45.356L22.851,45.394L22.846,45.451L22.827,45.492L22.788,45.481L22.780,45.511L22.762,45.531L22.735,45.542L22.699,45.544L22.621,45.478L22.593,45.447L22.583,45.403L22.606,45.344L22.657,45.325L22.709,45.322L22.732,45.309ZM20.674,45.167L20.735,45.159L20.814,45.177L20.882,45.211L20.911,45.245L20.961,45.356L21.223,45.717L21.173,45.753L21.012,45.839L20.956,45.856L20.911,45.824L20.888,45.824L20.879,45.871L20.868,45.895L20.840,45.911L20.802,45.920L20.763,45.918L20.677,45.859L20.633,45.707L20.604,45.287L20.619,45.222L20.674,45.167ZM22.643,45.029L22.724,45.177L22.716,45.201L22.686,45.215L22.652,45.246L22.608,45.278L22.551,45.294L22.525,45.237L22.522,45.183L22.533,45.130L22.573,45.017L22.604,44.966L22.631,44.958L22.643,45.029ZM20.763,44.668L20.756,44.814L20.741,44.874L20.700,44.854L20.666,44.832L20.430,44.726L20.405,44.702L20.403,44.677L20.424,44.512L20.478,44.457L20.569,44.444L20.700,44.446L20.683,44.492L20.674,44.508L20.757,44.505L20.800,44.511L20.819,44.524L20.825,44.545L20.848,44.578L20.852,44.602L20.837,44.626L20.806,44.646L20.763,44.668ZM19.361,43.978L19.433,43.952L19.477,44.004L19.500,44.098L19.506,44.197L19.438,44.196L19.376,44.132L19.343,44.046L19.361,43.978ZM42.831,42.287L42.953,42.251L43.047,42.311L43.086,42.422L43.042,42.537L42.919,42.518L42.812,42.466L42.767,42.387L42.831,42.287ZM76.291,16.318L76.437,16.322L76.501,16.341L76.561,16.383L76.632,16.526L76.633,16.704L76.560,16.847L76.409,16.885L76.348,16.847L76.314,16.774L76.310,16.691L76.374,16.534L76.365,16.464L76.291,16.318ZM74.621,13.910L74.679,13.930L74.738,13.972L74.772,14.015L74.756,14.034L74.740,14.042L74.729,14.060L74.720,14.082L74.711,14.097L74.690,14.110L74.646,14.116L74.621,14.128L74.563,14.194L74.464,14.370L74.411,14.437L74.354,14.359L74.359,14.273L74.375,14.184L74.351,14.097L74.397,14.042L74.455,13.932L74.528,13.859L74.621,13.910ZM75.691,13.186L75.789,13.179L75.770,13.221L75.549,13.417L75.450,13.458L75.343,13.485L75.173,13.501L74.939,13.496L74.889,13.484L74.866,13.471L74.815,13.466L74.764,13.471L74.740,13.484L74.740,13.626L74.710,13.702L74.669,13.705L74.608,13.678L74.430,13.638L74.356,13.587L74.297,13.524L74.262,13.470L74.239,13.410L74.226,13.337L74.243,13.277L74.377,13.231L74.756,13.004L74.913,12.973L75.047,12.996L75.099,13.092L75.148,13.153L75.229,13.192L75.323,13.214L75.412,13.220L75.515,13.246L75.560,13.251L75.609,13.243L75.641,13.222L75.666,13.200L75.691,13.186ZM70.294,11.277L70.394,11.381L70.448,11.403L70.507,11.370L70.451,11.508L70.415,11.664L70.354,11.791L70.224,11.844L70.143,11.799L69.938,11.498L70.021,11.434L70.099,11.354L70.186,11.290L70.294,11.277ZM72.741,9.268L72.790,9.337L72.767,9.397L72.702,9.440L72.623,9.461L72.431,9.476L72.355,9.510L72.296,9.589L72.313,9.521L72.290,9.456L72.255,9.391L72.236,9.321L72.382,9.150L72.415,9.150L72.446,9.199L72.480,9.205L72.550,9.180L72.599,9.191L72.741,9.268ZM70.413,8.990L70.531,9.098L70.558,9.155L70.567,9.255L70.545,9.325L70.492,9.316L70.386,9.243L70.364,9.341L70.294,9.411L70.210,9.429L70.148,9.368L70.116,9.368L70.062,9.417L69.889,9.476L69.851,9.510L69.831,9.587L69.782,9.572L69.727,9.521L69.637,9.465L69.606,9.400L69.561,9.190L69.551,9.101L69.542,9.061L69.501,9.024L69.492,8.990L69.550,8.824L69.685,8.798L70.238,8.894L70.371,8.894L70.404,8.887L70.465,8.849L70.507,8.834L70.507,8.856L70.499,8.868L70.488,8.879L70.456,8.917L70.413,8.990ZM67.614,5.297L67.586,5.360L67.548,5.410L67.504,5.417L67.463,5.356L67.461,5.189L67.554,5.059L67.698,5.000L67.850,5.044L67.786,5.094L67.763,5.106L67.688,5.122L67.652,5.161L67.614,5.297ZM51.985,94.717L51.966,94.740L51.909,94.791L51.897,94.810L51.899,94.814L51.914,94.903L51.926,94.907L51.895,94.960L51.859,94.995L51.812,95.000L51.748,94.966L51.712,94.882L51.706,94.746L51.743,94.625L51.837,94.589L51.923,94.642L51.959,94.675L51.985,94.717ZM75.634,68.628L75.275,68.628L75.363,68.594L75.452,68.603L75.541,68.624L75.634,68.628ZM90.396,67.059L90.099,66.872L90.195,66.883L90.277,66.917L90.345,66.974L90.396,67.059ZM77.004,64.083L77.071,64.010L77.080,63.957L76.979,63.685L76.961,63.662L76.938,63.652L76.858,63.678L76.876,63.662L76.919,63.644L76.943,63.640L76.970,63.642L77.070,63.798L77.100,63.995L77.004,64.083ZM86.669,53.527L86.671,53.519L86.675,53.498L86.673,53.467L86.660,53.431L86.634,53.396L86.594,53.368L86.540,53.345L86.408,53.304L86.369,53.287L86.343,53.266L86.320,53.238L86.283,53.204L86.082,53.091L86.028,53.076L86.010,53.102L86.011,53.137L86.015,53.155L86.000,53.136L85.990,53.118L85.978,53.102L85.953,53.091L86.039,53.056L86.181,53.107L86.313,53.193L86.371,53.265L86.598,53.345L86.709,53.428L86.669,53.527ZM67.704,52.841L67.691,52.825L67.664,52.773L67.603,52.718L67.355,52.597L67.277,52.535L67.237,52.486L67.226,52.466L67.337,52.551L67.638,52.719L67.675,52.776L67.704,52.841ZM83.808,52.588L83.389,52.151L83.499,52.203L83.639,52.325L83.759,52.469L83.808,52.588ZM67.047,51.930L66.936,51.768L66.731,51.615L66.633,51.428L66.579,51.371L66.391,51.209L66.431,51.238L66.602,51.321L66.718,51.524L66.810,51.622L66.923,51.709L67.016,51.804L67.047,51.930ZM59.411,49.203L59.465,49.113L59.141,48.798L59.259,48.863L59.410,48.976L59.495,49.102L59.411,49.203ZM55.772,48.452L55.667,48.369L55.505,48.330L55.585,48.325L55.668,48.343L55.736,48.384L55.772,48.452ZM47.213,48.580L46.975,48.270L47.043,48.315L47.103,48.388L47.213,48.580ZM46.351,48.114L46.316,48.056L46.295,47.998L46.286,47.931L46.288,47.848L46.351,48.114ZM55.891,44.854L55.596,44.648L55.369,44.659L55.176,44.636L55.550,44.602L55.655,44.630L55.743,44.698L55.891,44.854ZM55.087,44.699L54.873,44.681L54.700,44.545L54.519,44.446L54.673,44.482L54.920,44.672L55.087,44.699ZM54.014,44.259L53.997,44.250L53.879,44.046L53.743,43.938L53.595,43.883L53.507,43.851L53.524,43.849L53.610,43.874L53.753,43.894L53.821,43.928L53.948,44.071L53.991,44.153L54.014,44.259ZM52.104,43.978L52.095,43.885L52.085,43.853L51.953,43.695L52.020,43.738L52.088,43.814L52.127,43.901L52.104,43.978ZM51.597,43.349L51.453,43.297L51.366,43.314L51.329,43.255L51.356,43.258L51.361,43.266L51.359,43.285L51.426,43.261L51.496,43.276L51.557,43.311L51.597,43.349ZM46.770,43.383L46.683,43.331L46.564,43.070L46.461,42.945L46.358,42.719L46.299,42.486L46.229,42.384L46.197,42.160L46.210,42.238L46.242,42.343L46.286,42.434L46.335,42.474L46.357,42.528L46.395,42.764L46.422,42.818L46.435,42.858L46.618,43.067L46.719,43.325L46.770,43.383ZM46.197,42.035L45.784,42.069L46.007,41.987L46.121,41.968L46.197,42.035ZM59.619,42.287L59.652,42.177L59.706,42.062L59.769,41.959L59.830,41.879L59.619,42.287ZM70.148,41.689L70.118,41.618L70.005,41.612L69.878,41.689L69.968,41.599L70.082,41.579L70.162,41.613L70.148,41.689ZM48.139,41.566L47.842,41.283L47.911,41.328L48.139,41.566ZM48.617,41.345L48.536,41.147L48.303,40.778L48.169,40.687L48.287,40.710L48.357,40.790L48.466,40.999L48.577,41.136L48.613,41.226L48.617,41.345ZM35.614,37.212L35.576,37.152L35.524,37.090L35.446,37.016L35.331,36.950L35.046,36.866L35.229,36.880L35.425,36.933L35.573,37.039L35.614,37.212ZM33.080,36.741L32.993,36.636L32.807,36.554L32.907,36.567L33.025,36.605L33.103,36.664L33.080,36.741ZM48.020,35.677L47.974,35.738L47.898,35.798L47.812,35.844L47.735,35.862L47.720,35.806L47.766,35.683L47.869,35.487L47.781,35.717L47.760,35.820L47.852,35.797L48.020,35.677ZM43.398,34.925L43.447,34.827L43.474,34.735L43.337,34.642L43.458,34.659L43.508,34.739L43.488,34.842L43.398,34.925ZM48.855,34.988L49.066,34.770L49.257,34.661L49.356,34.563L49.246,34.608L49.060,34.626L48.855,34.676L48.933,34.627L49.032,34.600L49.226,34.582L49.315,34.536L49.369,34.516L49.392,34.534L49.388,34.581L49.376,34.605L49.292,34.672L49.151,34.753L49.109,34.769L49.066,34.799L48.930,34.939L48.855,34.988ZM45.184,34.329L45.202,34.236L45.125,34.225L44.889,34.236L45.133,34.193L45.233,34.218L45.184,34.329ZM84.821,66.095L84.814,66.108L84.805,66.109L84.785,66.091L84.794,66.089L84.811,66.095L84.821,66.095ZM74.391,63.730L74.364,63.746L74.351,63.752L74.336,63.754L74.389,63.730L74.391,63.730ZM52.755,45.101L52.872,45.071L52.946,45.133L52.985,45.219L52.999,45.264L52.947,45.214L52.891,45.131L52.824,45.092L52.739,45.173L52.736,45.153L52.739,45.137L52.755,45.101Z" fill="currentColor" stroke="currentColor" stroke-width="1.5" stroke-linejoin="round"/>
</svg>