<svg xmlns="http://www.w3.org/2000/svg" viewBox="0 0 100 100" role="img" aria-label="Qatar">
  <title>Qatar</title>
  <path d="M30.896,84.495L31.852,84.381L33.179,83.182L33.527,81.742L33.092,76.387L32.671,74.966L30.495,70.879L30.325,70.043L30.871,68.467L30.991,67.366L30.933,66.357L30.619,65.917L29.263,65.080L28.890,63.171L28.816,61.102L28.353,59.773L28.717,58.757L28.638,57.576L28.415,56.326L28.353,55.097L28.758,52.049L28.725,50.873L28.005,46.646L28.588,44.222L28.659,43.115L28.005,42.424L29.378,40.604L30.348,40.444L30.927,41.156L31.088,42.188L31.538,42.615L31.537,43.710L32.894,43.962L32.087,41.687L31.914,40.716L31.852,39.700L31.951,39.069L32.133,38.405L32.166,37.709L31.852,37.014L31.438,36.739L30.321,36.524L29.734,36.245L30.313,35.531L30.983,35.343L31.690,35.256L32.373,34.881L32.538,34.560L32.861,33.698L33.068,33.521L33.403,33.643L33.725,34.171L34.102,34.290L34.366,34.714L34.271,35.661L33.936,37.185L33.936,38.355L33.986,38.776L34.395,39.842L34.639,40.149L35.003,40.467L35.512,40.314L35.615,40.165L35.582,39.890L35.789,38.574L35.822,37.229L36.045,36.629L36.624,36.032L36.976,36.210L37.394,36.595L38.097,36.629L38.419,36.238L39.131,34.597L39.520,33.906L38.113,34.451L36.815,34.684L35.739,34.245L35.003,32.753L34.945,31.952L35.317,29.297L35.442,29.045L35.934,28.631L36.045,28.340L35.983,28.107L35.723,27.768L35.665,27.532L35.665,25.841L36.368,26.015L36.608,25.569L36.778,24.963L37.249,24.656L37.596,24.848L37.894,25.338L38.080,25.983L38.097,26.642L38.816,26.159L39.288,25.393L39.437,24.477L39.172,23.537L38.825,23.921L38.089,23.118L38.180,21.919L39.507,18.704L39.718,17.612L39.859,15.053L40.281,15.369L40.438,15.532L40.587,15.859L40.901,15.859L42.051,12.490L43.068,11.021L44.520,10.410L45.289,10.238L47.427,9.387L47.870,9.067L48.143,8.206L49.330,6.998L49.611,6.153L50.538,6.494L51.580,6.167L53.429,5.000L57.469,7.190L58.288,8.106L58.371,9.188L58.264,10.591L58.305,11.811L58.838,12.332L59.802,12.717L60.100,13.657L60.150,14.815L60.402,15.859L61.192,16.587L61.829,16.699L62.226,16.767L64.422,16.589L65.663,16.710L66.680,17.035L67.569,17.530L68.413,18.161L69.091,18.855L69.646,19.720L70.010,20.706L70.886,26.835L70.874,27.601L70.725,28.253L70.316,28.528L70.018,28.343L69.732,27.530L69.290,27.340L68.889,27.576L68.529,28.130L68.339,28.775L68.413,29.297L68.868,29.716L69.306,29.661L69.646,29.331L69.832,28.912L70.651,30.208L69.977,31.514L68.959,31.910L68.761,30.450L68.070,30.656L66.333,31.599L67.073,31.906L67.847,32.382L68.467,32.949L68.761,33.521L68.587,34.748L67.896,35.242L67.028,35.448L66.333,35.826L65.985,35.606L65.634,35.476L65.750,38.423L65.642,39.277L65.634,39.353L65.353,39.847L64.931,40.378L64.645,40.922L64.765,41.444L66.631,44.696L66.932,45.490L67.028,46.275L66.870,48.715L66.680,51.674L66.742,52.910L67.028,53.539L67.660,53.813L70.646,54.287L71.110,54.786L71.540,55.898L71.718,56.887L71.896,57.885L71.995,62.530L71.445,68.320L71.714,68.988L71.271,69.469L70.489,72.865L69.836,73.936L68.074,75.934L67.536,77.309L67.131,77.525L66.668,77.678L66.333,77.891L66.085,78.380L64.761,83.493L64.691,83.777L64.422,84.381L63.826,84.832L63.549,85.900L63.206,88.258L62.536,89.116L60.480,90.354L60.050,90.770L59.777,92.075L59.136,92.949L58.437,93.654L57.970,94.436L57.378,93.599L57.569,92.807L58.024,91.917L58.288,90.770L57.895,90.146L56.981,90.033L55.195,90.212L55.116,89.228L54.794,89.200L54.277,89.583L53.598,89.830L52.705,89.928L51.890,90.255L51.464,90.848L51.580,91.214L51.600,91.289L48.154,94.077L45.512,94.983L42.636,95.000L39.587,94.558L37.032,93.463L34.613,90.696L30.896,84.495Z" fill="currentColor" stroke="currentColor" stroke-width="1.5" stroke-linejoin="round"/>
</svg>