<svg xmlns="http://www.w3.org/2000/svg" viewBox="0 0 100 100" role="img" aria-label="Romania">
  <title>Romania</title>
  <path d="M30.075,22.833L30.268,22.775L30.439,22.662L30.519,22.477L30.438,22.200L30.518,22.038L30.662,22.026L30.832,22.102L30.978,22.201L31.128,22.290L31.282,22.336L31.434,22.313L31.841,22.002L31.969,21.768L32.182,21.129L32.369,20.851L32.564,20.760L32.779,20.791L33.442,21.012L33.606,21.129L33.998,21.581L34.452,21.955L34.667,22.198L34.736,22.224L34.806,22.233L34.877,22.225L34.953,22.199L34.967,22.193L34.981,22.192L34.994,22.193L35.009,22.199L35.626,22.496L35.823,22.485L35.860,22.457L35.889,22.434L35.944,22.370L35.993,22.292L36.034,22.201L36.136,22.118L36.242,22.088L36.601,22.025L36.777,22.082L37.389,22.150L37.781,22.278L38.002,22.308L38.664,22.275L38.821,22.350L39.314,22.793L39.379,23.004L39.583,23.001L40.541,22.620L40.841,22.635L40.997,22.744L41.470,22.868L41.659,22.954L42.005,23.274L42.173,23.307L42.186,23.296L42.749,23.506L42.956,23.514L43.592,23.202L44.061,23.187L44.433,22.875L44.651,22.760L44.835,22.754L45.378,22.881L45.916,22.873L46.102,22.918L46.180,22.962L46.548,23.173L46.788,23.359L46.936,23.538L47.000,23.756L47.009,23.936L47.052,24.104L47.221,24.293L47.541,24.487L48.310,24.781L48.449,24.900L48.568,25.060L48.889,25.621L49.111,25.954L49.290,26.073L49.597,26.020L49.726,25.998L50.440,25.874L51.035,25.623L51.036,25.621L51.038,25.621L51.434,25.248L52.358,23.768L52.765,23.492L57.436,22.999L58.062,22.753L58.563,22.692L58.851,22.570L59.012,22.540L59.465,22.584L60.070,22.408L60.767,22.401L60.988,22.399L61.438,22.198L61.530,22.059L61.740,21.592L61.857,21.446L62.106,21.242L62.221,21.113L62.368,20.822L62.522,20.396L62.622,19.963L62.610,19.653L62.680,19.201L62.758,19.232L62.934,19.249L63.097,19.200L63.412,19.048L63.574,19.007L64.023,18.986L64.182,18.949L65.382,18.690L65.672,18.558L66.127,18.350L66.344,18.341L66.562,18.526L66.666,18.547L66.768,18.397L66.872,18.605L67.060,18.643L67.452,18.568L67.613,18.646L67.831,18.909L67.933,18.848L68.334,19.243L68.394,19.346L68.433,19.577L68.525,19.530L68.633,19.379L68.719,19.300L68.838,19.399L68.886,19.557L68.957,19.703L69.285,19.823L69.285,19.941L69.177,20.044L68.990,20.056L68.990,20.141L69.251,20.291L69.429,20.350L69.547,20.255L69.629,20.291L69.715,20.361L69.765,20.430L69.765,20.442L69.760,20.509L69.659,20.634L69.635,20.710L69.705,21.046L69.872,21.309L70.100,21.506L70.349,21.645L70.349,21.747L70.155,21.833L70.165,21.890L70.179,21.941L70.197,21.988L70.220,22.027L70.464,21.923L70.589,22.098L70.676,22.284L70.804,22.214L70.914,22.336L70.924,22.463L70.858,22.583L70.745,22.682L70.945,22.837L71.005,22.869L71.005,22.897L71.005,22.954L70.838,23.175L70.941,23.300L71.156,23.417L71.329,23.617L71.322,23.678L71.337,24.101L71.329,24.186L71.429,24.258L71.544,24.291L71.648,24.341L71.720,24.457L71.394,24.653L71.507,24.745L71.639,24.943L71.746,25.149L71.791,25.265L71.827,25.327L71.996,25.449L72.045,25.495L72.050,25.517L72.079,25.630L72.064,25.777L72.116,25.877L72.116,25.962L71.897,26.006L71.984,26.307L72.202,26.669L72.822,27.466L73.087,27.730L73.385,27.840L73.395,27.880L73.413,27.955L73.456,28.129L73.486,28.214L73.498,28.263L73.496,28.388L73.516,28.448L73.553,28.472L73.657,28.485L73.681,28.494L73.750,28.862L73.811,29.062L73.911,29.149L73.996,29.161L74.043,29.190L74.081,29.224L74.136,29.251L74.381,29.258L74.395,29.251L74.525,29.302L74.668,29.383L74.789,29.491L74.857,29.625L74.778,29.685L74.727,29.791L74.690,29.931L74.662,30.092L74.831,30.236L74.755,30.658L74.889,30.746L74.911,30.765L75.018,30.856L75.247,31.394L75.370,31.596L75.444,31.633L75.701,31.689L75.802,31.752L75.874,31.812L75.949,31.859L76.187,31.916L76.287,32.021L76.481,32.352L76.469,32.524L76.570,32.696L76.811,32.998L76.925,33.372L76.942,33.380L76.967,33.488L76.995,33.570L76.978,33.628L76.871,33.661L76.984,33.815L77.396,34.035L77.396,34.128L77.338,34.229L77.381,34.269L77.471,34.298L77.560,34.362L77.851,34.680L78.120,34.853L78.239,34.959L78.242,35.156L78.474,35.201L78.698,35.340L78.904,35.435L79.092,35.343L79.178,35.569L79.188,35.583L79.483,35.952L79.612,36.185L79.799,36.683L79.825,36.888L79.829,36.922L79.747,37.128L79.906,37.236L79.913,37.391L79.902,37.555L80.008,37.689L80.008,37.791L79.992,37.954L79.982,38.063L80.137,38.448L80.521,39.099L80.520,39.357L81.053,40.417L81.150,40.787L81.158,40.841L81.179,40.986L81.177,41.173L81.114,41.321L81.019,41.492L80.971,41.688L81.053,41.913L80.964,41.973L80.929,42.076L80.910,42.589L80.929,42.698L81.053,42.941L81.091,42.974L81.132,42.962L81.165,42.976L81.177,43.089L81.178,43.514L81.167,43.628L81.111,43.732L80.977,43.799L81.046,43.985L81.001,44.063L80.984,44.070L80.915,44.100L80.852,44.164L80.797,44.582L80.751,44.640L80.637,44.679L80.614,44.779L80.652,45.057L80.661,45.225L80.646,45.272L80.517,45.556L80.403,45.668L80.313,45.716L80.205,45.749L80.112,45.798L80.073,45.893L80.105,46.127L80.083,46.201L79.975,46.229L79.862,46.280L79.881,46.397L80.056,46.684L80.116,46.764L80.172,46.858L80.203,46.977L80.093,47.296L80.037,47.633L79.877,48.096L79.851,48.170L79.785,48.363L79.709,48.413L79.683,48.481L79.686,48.555L79.744,48.595L79.747,48.669L79.629,49.149L79.612,49.284L79.645,49.478L79.877,50.164L79.895,50.318L79.918,50.400L79.975,50.495L80.015,50.603L79.994,50.707L79.956,50.812L79.943,50.920L79.969,51.021L80.054,51.195L80.073,51.247L80.045,51.315L79.919,51.406L79.877,51.480L79.904,51.877L80.052,52.292L80.219,52.619L80.300,52.747L80.384,54.120L80.365,54.340L80.424,54.518L80.288,54.586L79.975,54.583L79.850,54.628L79.693,54.743L79.537,54.896L79.417,55.050L79.948,55.336L80.167,55.507L80.327,55.798L80.363,55.883L80.387,55.912L80.399,55.944L80.404,56.405L80.471,56.545L80.724,56.855L80.852,57.013L80.873,57.011L81.087,56.988L81.365,57.146L81.551,57.403L81.501,57.675L81.783,58.415L81.968,58.756L82.188,58.899L82.349,58.943L82.681,59.137L83.528,59.358L84.317,59.780L85.583,60.070L85.938,60.021L86.236,60.013L86.357,59.960L86.464,59.834L86.194,59.708L86.127,59.648L86.083,59.547L86.055,59.423L86.073,59.318L86.345,59.178L86.330,58.972L86.341,58.776L86.594,58.713L86.742,58.764L86.992,58.945L87.208,58.985L87.330,59.072L87.486,59.242L87.675,59.356L87.893,59.274L87.937,59.179L87.966,58.915L88.023,58.797L88.092,58.745L88.175,58.720L88.386,58.713L88.515,58.647L89.004,58.237L89.392,58.124L89.556,58.049L89.692,57.905L89.771,57.866L90.001,57.852L90.050,57.812L90.085,57.714L90.166,57.616L90.309,57.489L90.514,57.375L90.670,57.369L90.825,57.399L91.024,57.395L91.107,57.363L91.191,57.305L91.264,57.233L91.319,57.162L91.408,57.100L91.511,57.123L91.615,57.179L91.709,57.208L92.441,57.284L93.764,57.769L94.208,58.175L94.320,58.237L94.531,58.438L94.691,58.907L94.740,59.440L94.616,59.834L94.671,59.920L94.685,60.019L94.664,60.121L94.614,60.221L94.530,60.203L94.280,60.213L94.280,60.298L94.422,60.499L94.526,60.743L94.690,60.929L95.000,60.961L94.781,61.197L94.665,61.576L94.588,62.780L94.535,63.011L94.410,63.400L94.385,63.594L94.373,63.815L94.346,64.017L94.280,64.147L94.342,64.441L94.102,64.819L94.222,65.073L94.159,65.240L94.083,65.293L93.993,65.308L93.896,65.364L93.761,65.574L93.689,65.638L93.501,65.534L93.397,65.556L93.296,65.607L93.205,65.634L91.349,65.932L90.170,66.013L89.828,66.128L88.874,66.803L88.593,67.083L88.349,67.436L88.284,67.334L88.294,67.132L88.164,66.881L88.104,66.669L88.317,66.577L88.547,66.535L88.897,66.349L89.276,66.252L89.490,66.099L89.662,65.860L89.719,65.550L89.664,65.379L89.541,65.196L89.259,64.887L89.311,65.106L89.326,65.213L89.330,65.364L89.179,65.330L89.042,65.430L88.916,65.472L88.805,65.269L88.762,65.018L88.740,64.194L88.838,63.935L89.283,63.766L89.395,63.587L89.311,63.447L88.897,63.164L88.772,63.111L88.480,63.111L88.183,63.009L88.084,63.027L88.050,63.097L88.019,63.224L87.964,63.345L87.859,63.400L87.648,63.415L87.551,63.455L87.201,63.796L87.099,63.952L87.044,64.240L87.058,64.319L87.147,64.388L87.168,64.479L87.150,64.558L87.106,64.595L87.062,64.619L87.044,64.662L87.071,64.784L87.139,64.888L87.215,64.961L87.429,65.056L87.889,65.550L87.769,65.684L87.715,65.721L87.628,65.736L87.718,65.812L87.759,65.830L87.759,65.932L87.641,66.011L87.633,66.138L87.704,66.278L87.830,66.391L87.737,66.463L87.617,66.493L87.195,66.509L87.094,66.551L86.519,66.916L86.423,67.008L86.333,67.199L86.316,67.376L86.379,67.450L86.518,67.334L86.479,67.500L86.300,67.562L86.258,67.760L86.287,67.979L86.367,68.041L86.872,67.947L87.100,67.807L87.308,67.596L87.504,67.334L87.369,67.054L88.033,67.270L88.184,67.385L88.224,67.623L88.146,67.896L87.981,68.114L87.759,68.184L87.927,67.953L88.082,67.692L88.108,67.464L87.889,67.334L87.889,67.436L87.961,67.531L87.940,67.575L87.759,67.623L87.621,67.530L87.564,67.521L87.522,67.559L87.480,67.624L87.434,67.717L87.252,67.858L86.955,68.183L86.784,68.278L86.323,68.522L86.193,68.643L86.358,68.327L86.388,68.184L86.247,68.163L86.124,68.191L86.038,68.287L85.998,68.465L86.123,68.465L86.064,68.602L86.100,68.709L86.196,68.788L86.323,68.838L85.945,68.957L85.798,69.093L85.798,69.306L85.841,69.241L85.905,69.173L85.934,69.119L86.068,69.198L86.193,69.306L86.112,69.490L85.996,69.838L85.921,70.212L85.965,70.478L86.044,70.498L86.119,70.397L86.172,70.245L86.233,69.921L86.326,69.812L86.518,69.679L86.802,69.283L86.968,69.096L87.139,69.017L87.319,68.967L87.450,68.821L87.532,68.634L87.628,68.372L87.566,68.639L87.483,68.869L86.858,70.108L86.408,70.461L85.550,71.651L85.452,71.962L85.422,72.129L85.299,72.030L85.148,72.098L85.023,72.212L84.925,72.370L84.870,72.536L84.843,72.727L84.831,73.249L84.871,73.417L85.023,73.708L85.156,74.139L85.184,74.344L85.153,74.464L85.218,74.558L85.091,74.479L84.972,74.513L84.880,74.618L84.829,74.753L84.892,75.007L85.051,76.116L85.213,76.822L85.218,76.904L85.193,77.016L85.107,77.144L85.059,77.397L84.925,77.796L84.894,77.982L84.667,78.453L84.625,78.586L84.474,79.339L84.418,79.466L84.388,79.594L84.433,79.725L84.391,79.847L84.369,79.984L84.363,80.130L84.374,80.276L84.330,80.410L82.961,80.493L80.931,80.127L78.966,79.195L78.645,78.930L78.215,77.355L77.988,76.960L77.988,76.959L77.459,77.023L76.801,77.410L76.177,77.570L75.804,77.042L75.743,76.956L75.554,76.541L75.337,76.460L74.776,76.645L72.961,76.661L72.857,76.584L72.673,76.248L72.560,76.141L72.024,75.876L71.824,75.639L71.868,75.329L71.713,75.204L71.698,75.192L71.466,75.215L71.265,75.098L70.262,74.890L69.570,74.444L69.323,74.607L68.205,74.725L67.304,75.280L66.964,75.388L66.536,75.388L66.427,75.415L66.237,75.539L66.147,75.566L65.956,75.589L65.636,75.706L63.748,75.994L62.954,76.116L62.746,76.148L61.994,76.491L61.226,76.698L60.897,76.883L60.546,77.292L60.378,77.555L60.308,77.767L59.163,78.643L59.073,78.804L58.996,78.998L58.547,79.594L58.262,79.764L57.947,80.104L57.930,80.155L57.708,80.537L57.313,80.716L57.250,80.718L56.664,80.737L56.494,80.864L56.345,81.012L56.141,81.143L55.926,81.240L55.747,81.285L55.571,81.381L55.355,81.404L54.926,81.378L54.866,81.390L54.723,81.417L54.329,81.600L54.111,81.659L53.697,81.601L53.348,81.390L53.022,81.126L52.990,81.107L52.676,80.912L52.285,80.812L51.051,80.716L49.928,80.296L47.920,80.444L47.472,80.376L47.055,80.213L45.517,79.613L45.195,79.573L44.861,79.686L44.331,80.101L44.166,80.153L43.962,80.164L42.274,80.250L42.181,80.226L38.853,79.353L38.310,79.021L38.100,78.979L37.294,79.166L37.149,79.140L36.881,79.094L35.853,78.502L34.335,78.420L33.472,78.548L33.115,78.747L32.781,78.821L32.495,78.950L31.740,79.020L30.475,79.137L30.181,79.065L29.940,78.847L29.822,78.588L29.818,78.278L30.048,77.251L30.154,76.943L30.344,76.813L30.540,76.784L30.919,76.655L31.127,76.626L31.459,76.435L31.621,76.015L31.535,75.594L31.319,75.493L31.127,75.403L30.694,75.342L30.350,75.185L28.305,73.740L28.297,73.734L28.246,73.532L28.285,72.874L28.209,72.688L28.028,72.601L27.635,72.543L27.270,72.372L26.951,72.090L26.698,71.733L26.530,71.336L26.519,71.231L26.542,71.015L26.533,70.912L26.491,70.817L26.291,70.628L26.263,70.516L26.265,70.338L26.289,70.154L26.331,70.026L26.397,69.965L26.485,69.935L26.819,69.919L26.942,69.862L27.021,69.728L27.051,69.491L27.106,69.264L27.247,69.126L27.436,69.067L27.635,69.075L27.835,69.158L28.181,69.399L28.386,69.450L28.569,69.415L28.782,69.312L28.949,69.137L29.005,68.889L28.525,68.337L28.386,68.234L27.635,68.141L27.314,67.977L26.989,67.706L26.327,66.956L26.186,66.871L26.011,66.833L25.778,66.823L25.678,66.903L25.346,67.277L25.160,67.393L24.766,67.485L24.625,67.594L24.569,67.809L23.485,69.815L23.361,69.949L23.134,70.010L22.928,69.986L22.716,69.890L22.551,69.724L22.449,69.328L22.362,69.239L22.254,69.172L22.153,69.075L22.102,68.970L22.067,68.797L22.049,68.706L22.029,68.608L21.764,67.948L21.669,67.851L21.365,67.800L20.505,67.339L20.347,67.305L20.184,67.350L19.836,67.505L19.409,67.595L18.917,67.598L18.452,67.453L18.104,67.094L18.014,66.847L17.957,66.600L17.875,66.381L17.707,66.221L17.520,66.166L16.938,66.216L16.129,66.123L15.974,66.049L15.809,65.687L15.638,65.553L15.630,65.550L15.469,65.478L15.503,65.290L15.590,65.140L15.714,65.027L15.968,64.934L16.521,64.963L16.789,64.921L17.175,64.809L17.310,64.692L17.336,64.430L17.260,64.208L17.120,64.082L16.789,63.949L16.551,63.829L16.093,63.747L15.872,63.594L15.866,63.520L15.890,63.429L15.860,63.359L15.699,63.351L15.570,63.316L15.550,63.201L15.595,63.059L15.664,62.950L15.759,62.902L16.002,62.884L16.101,62.849L16.221,62.747L16.252,62.681L16.256,62.585L16.294,62.392L16.322,62.335L16.403,62.236L16.430,62.179L16.435,62.111L16.435,62.009L16.430,61.925L16.417,61.905L16.489,61.794L16.570,61.707L16.670,61.656L16.789,61.649L16.909,61.543L16.944,61.371L16.901,61.190L16.816,61.086L16.578,60.794L16.334,60.592L16.066,60.443L15.054,60.121L14.653,60.108L14.483,60.036L14.167,59.810L14.012,59.623L13.687,59.136L13.533,59.019L13.435,59.044L13.282,59.216L13.190,59.260L13.077,59.233L12.994,59.156L12.913,59.062L12.815,58.984L12.365,58.775L12.030,58.621L11.884,58.500L11.517,58.009L10.903,57.444L10.592,56.981L10.455,56.840L10.298,56.762L10.128,56.707L9.990,56.614L9.929,56.422L10.142,56.248L10.280,56.105L10.305,55.914L10.183,55.597L9.903,55.109L9.869,54.886L9.943,54.543L10.048,54.293L10.086,54.175L10.112,53.981L10.104,53.269L10.128,53.128L10.165,52.999L10.167,52.874L10.088,52.740L9.971,52.679L9.866,52.723L9.782,52.840L9.726,52.999L9.606,53.098L9.478,53.137L9.352,53.108L9.237,53.003L9.147,52.818L8.929,52.535L8.836,52.378L8.813,52.291L8.802,52.247L8.781,51.968L8.749,51.854L8.682,51.768L8.516,51.656L8.450,51.592L8.134,51.023L7.987,50.876L7.809,50.804L7.446,50.764L7.273,50.681L6.772,50.215L6.593,50.094L6.220,49.927L6.057,49.805L5.912,49.584L5.712,48.957L5.598,48.752L5.000,48.006L5.385,47.517L6.916,47.475L7.148,47.102L7.537,47.190L7.913,47.348L8.191,47.603L8.285,47.667L8.400,47.711L8.471,47.713L9.008,47.600L9.194,47.505L9.340,47.344L9.391,47.209L9.393,47.178L9.402,47.013L9.449,46.911L9.521,46.885L9.609,46.916L9.700,46.930L9.776,46.853L9.777,46.744L9.689,46.439L9.684,46.311L9.725,46.234L10.098,45.925L10.182,45.880L10.290,45.822L10.490,45.766L10.680,45.774L10.769,45.820L10.940,45.965L11.018,46.003L11.112,45.994L11.252,45.917L11.317,45.896L11.487,45.932L11.842,46.086L12.030,46.079L12.116,46.041L12.198,46.041L12.273,46.079L12.339,46.158L12.525,46.319L12.696,46.253L13.150,45.702L13.211,45.670L13.490,45.673L13.581,45.601L13.690,45.393L13.772,45.128L13.811,44.519L13.908,44.222L14.068,44.035L14.254,43.970L14.657,43.952L14.877,43.785L14.817,43.484L14.539,42.957L14.563,42.675L14.696,42.458L14.861,42.251L14.979,42.001L15.016,41.476L15.070,41.217L15.216,41.043L15.419,40.992L15.770,41.019L15.975,40.910L16.173,40.652L16.237,40.474L16.255,40.422L16.358,40.262L16.617,40.216L16.808,40.109L16.981,39.854L17.014,39.584L16.757,39.410L16.729,39.384L16.704,39.352L16.683,39.313L16.692,39.231L16.714,39.151L16.746,39.078L16.789,39.012L16.992,38.460L17.114,38.237L17.313,38.053L17.660,37.961L17.758,37.877L17.838,37.702L17.835,37.554L17.803,37.408L17.794,37.241L17.809,37.079L17.820,37.042L17.863,37.027L18.297,36.675L18.378,36.575L18.559,35.899L18.595,35.886L18.590,35.872L18.504,35.712L18.438,35.659L18.347,35.641L18.265,35.602L18.242,35.529L18.229,35.484L18.600,35.046L18.813,34.848L19.282,34.541L19.475,34.354L19.539,34.234L19.586,33.992L19.628,33.868L19.719,33.737L19.929,33.540L20.009,33.430L20.067,33.261L20.064,33.135L20.041,33.011L20.044,32.852L20.084,32.700L20.194,32.497L20.244,32.373L20.353,31.883L20.411,31.723L20.779,31.198L20.952,31.007L21.123,30.905L21.547,30.782L21.738,30.403L21.725,29.946L21.642,29.472L21.617,29.046L21.798,28.711L22.079,28.411L22.671,27.978L23.137,27.863L23.190,27.824L23.266,27.768L23.316,27.665L23.318,27.650L23.333,27.561L23.339,27.460L23.368,27.369L23.604,27.042L23.634,26.924L23.666,26.673L23.701,26.571L23.771,26.486L23.933,26.372L24.005,26.300L24.214,25.994L24.322,25.886L24.498,25.791L24.667,25.731L24.788,25.720L25.228,25.784L25.365,25.773L25.491,25.722L25.600,25.621L25.755,25.081L26.047,25.015L26.753,25.375L27.081,25.428L27.445,25.377L27.792,25.231L28.071,24.995L28.306,24.695L28.422,24.607L28.616,24.520L28.821,24.500L28.878,24.463L28.959,24.309L28.940,24.209L28.892,24.121L28.888,24.004L28.990,23.819L29.143,23.715L29.524,23.578L29.680,23.439L29.919,23.010L30.075,22.833Z" fill="currentColor" stroke="currentColor" stroke-width="1" stroke-linejoin="round"/>
</svg>