<svg xmlns="http://www.w3.org/2000/svg" viewBox="0 0 100 100" role="img" aria-label="Rwanda">
  <title>Rwanda</title>
  <path d="M12.009,84.500L11.333,83.744L10.424,83.294L9.100,83.152L8.509,82.919L6.855,81.837L6.512,81.484L6.809,78.097L6.512,77.065L6.056,76.603L5.559,76.364L5.165,76.094L5.000,75.525L5.160,74.943L5.930,74.256L5.774,73.715L5.325,72.913L5.160,72.033L5.071,71.084L5.403,69.920L6.026,69.384L7.217,68.971L8.142,68.701L8.910,68.247L9.540,67.605L10.053,66.803L10.387,66.143L10.538,65.666L10.591,65.281L11.047,64.855L11.422,64.722L12.698,64.763L14.670,64.241L16.196,63.035L17.304,61.307L18.000,59.208L18.257,57.357L18.165,55.761L16.988,48.799L16.892,47.177L17.112,45.591L17.945,43.638L19.600,40.990L20.735,39.174L21.670,37.400L22.206,36.616L24.345,34.842L24.794,34.260L26.008,31.758L26.521,31.098L27.217,30.804L30.605,30.667L30.715,30.639L30.813,30.575L30.905,30.479L31.054,30.244L31.908,28.898L33.433,27.307L35.202,26.033L36.942,25.414L38.724,25.510L39.654,25.442L40.479,25.217L41.393,24.704L42.077,24.209L42.820,23.824L43.896,23.631L44.423,23.750L45.366,24.323L45.673,24.433L46.040,24.218L46.306,23.342L46.706,22.866L47.116,22.609L47.501,22.494L47.895,22.553L47.900,22.554L48.385,22.802L49.631,24.612L49.828,25.542L49.934,27.367L50.364,28.306L51.125,29.017L51.990,29.264L52.923,29.163L53.896,28.801L56.906,27.133L57.364,27.037L57.767,26.070L58.344,25.474L58.575,25.350L59.883,24.649L61.693,23.943L62.174,23.494L62.403,22.820L62.673,21.101L62.989,20.496L63.337,20.290L63.690,20.230L64.043,20.203L64.370,20.106L65.055,19.699L67.027,17.824L67.607,17.081L68.083,16.279L68.168,15.986L68.266,15.349L68.394,15.083L68.546,14.958L68.706,14.826L69.448,14.492L69.718,14.267L69.947,13.593L70.234,11.760L70.607,11.127L71.285,10.885L72.018,10.994L72.774,11.214L73.520,11.311L74.217,11.137L74.798,10.875L75.401,10.793L76.075,11.003L76.561,11.154L76.209,11.522L75.868,12.007L75.728,12.507L75.875,12.984L76.521,13.428L76.667,14.033L76.574,14.295L76.406,14.547L76.287,14.813L76.360,15.078L76.750,15.340L77.103,15.285L77.391,15.129L77.574,15.078L78.120,15.473L78.307,15.748L78.481,16.893L78.752,17.540L79.558,18.878L79.819,19.781L80.231,20.317L80.321,20.679L80.277,20.817L80.176,21.009L80.071,21.271L80.025,21.601L80.263,22.311L80.836,22.742L82.142,23.283L82.609,23.613L83.273,24.245L83.681,24.493L86.608,25.579L87.478,25.703L88.339,26.225L88.591,27.385L88.509,28.540L88.372,29.063L88.136,29.319L88.399,29.897L89.132,30.878L89.682,31.464L89.879,31.804L90.309,33.399L90.735,34.398L91.429,34.943L92.483,34.540L92.806,35.479L92.769,36.621L92.197,40.118L92.183,40.595L92.284,40.824L92.678,41.429L92.787,41.837L92.279,43.056L92.435,43.524L92.787,45.302L92.545,46.054L92.093,46.718L91.844,47.401L92.183,48.194L91.464,48.758L91.193,49.047L90.973,49.404L92.302,49.615L92.435,50.788L91.851,53.369L92.680,53.190L93.479,53.589L94.155,54.267L94.629,54.909L95.000,56.197L93.475,61.133L93.090,63.086L93.278,66.120L93.090,67.023L92.632,67.853L92.055,68.270L91.310,68.600L90.625,68.994L90.007,69.145L89.686,69.329L89.283,69.439L88.921,69.351L86.608,68.210L86.131,68.059L85.559,68.137L85.050,68.536L84.418,69.727L83.921,70.144L82.994,70.195L82.032,69.920L81.088,69.801L80.231,70.305L78.775,70.250L77.300,69.558L74.892,67.582L74.638,67.234L74.409,66.611L74.198,66.368L74.047,66.423L72.645,66.088L72.430,65.978L71.718,66.189L71.285,66.592L71.101,66.833L70.898,67.101L70.328,67.628L69.691,67.954L68.857,68.224L68.010,68.398L67.295,68.430L66.745,68.306L65.362,67.633L64.847,67.582L64.688,67.880L64.666,68.297L64.574,68.609L62.572,71.121L61.816,71.643L60.827,71.675L59.810,71.281L58.885,70.667L58.156,70.030L56.782,68.403L56.241,67.986L55.735,67.807L55.309,67.793L54.936,67.830L54.592,67.779L53.812,67.108L53.735,67.041L53.431,66.780L53.076,66.578L52.623,66.592L52.494,66.840L52.499,67.252L52.210,69.521L52.529,72.931L51.569,76.282L51.383,80.829L51.363,81.324L51.125,82.300L50.703,83.267L50.163,84.184L49.572,84.986L48.665,85.907L47.831,86.397L46.935,86.567L45.834,86.535L44.844,86.237L44.336,86.242L44.006,86.654L43.859,87.585L43.667,87.997L43.236,88.258L42.245,88.382L41.409,88.254L39.565,87.645L39.091,87.488L38.775,87.470L37.455,87.947L37.125,88.148L36.773,88.286L36.315,88.268L35.344,88.396L34.514,88.923L33.672,89.207L32.641,88.625L31.037,88.326L30.181,88.167L29.386,88.258L27.474,89.088L26.383,89.189L25.992,88.345L25.939,87.791L25.527,86.870L25.426,86.356L25.577,85.893L26.191,85.142L26.287,84.637L26.017,84.087L25.055,83.184L25.045,83.144L24.892,82.543L24.950,82.020L24.918,81.814L24.377,81.411L23.566,80.948L22.629,80.723L20.758,80.489L19.769,80.187L17.077,79.013L16.356,78.908L13.777,79.078L12.771,80.063L12.009,84.500Z" fill="currentColor" stroke="currentColor" stroke-width="1" stroke-linejoin="round"/>
</svg>