<svg xmlns="http://www.w3.org/2000/svg" viewBox="0 0 100 100" role="img" aria-label="Saudi Arabia">
  <title>Saudi Arabia</title>
  <path d="M74.365,47.655L74.677,48.171L74.881,48.402L75.096,48.493L75.352,48.530L75.594,48.528L75.816,48.453L76.106,48.221L76.116,48.259L76.334,48.227L76.374,48.253L76.409,48.303L76.447,48.330L76.495,48.291L76.500,48.327L76.495,48.370L76.478,48.405L76.450,48.419L76.426,48.443L76.434,48.493L76.454,48.538L76.466,48.547L76.453,48.708L76.478,48.730L76.553,48.704L76.611,48.660L76.729,48.454L76.789,48.393L76.843,48.356L76.877,48.303L76.875,48.195L76.938,48.228L77.016,48.235L77.082,48.250L77.110,48.307L77.131,48.369L77.183,48.378L77.250,48.379L77.315,48.419L77.315,48.454L77.246,48.486L77.157,48.513L77.082,48.554L77.050,48.629L77.033,48.629L76.936,48.736L76.915,48.774L76.894,48.836L76.875,48.867L76.622,49.054L76.583,49.110L76.571,49.132L76.516,49.209L76.495,49.251L76.486,49.297L76.477,49.401L76.466,49.446L76.464,49.473L76.468,49.504L76.466,49.531L76.450,49.542L76.404,49.539L76.384,49.544L76.376,49.558L76.373,49.659L76.377,49.711L76.392,49.734L76.660,49.758L76.758,49.734L76.810,49.701L76.846,49.670L76.885,49.647L76.950,49.638L77.232,49.697L77.309,49.756L77.434,49.896L77.618,49.953L77.645,50.133L77.644,50.254L77.635,50.554L77.658,50.676L77.722,50.786L77.965,51.104L78.188,51.394L78.411,51.685L78.633,51.976L78.856,52.266L79.079,52.557L79.302,52.847L79.525,53.138L79.748,53.429L79.970,53.719L80.193,54.010L80.416,54.300L80.639,54.591L80.861,54.881L81.084,55.172L81.307,55.463L81.530,55.753L81.759,56.051L81.844,56.127L81.950,56.162L82.636,56.255L83.230,56.335L83.824,56.415L84.418,56.495L85.012,56.575L85.606,56.655L86.201,56.735L86.795,56.815L87.389,56.896L87.983,56.976L88.577,57.056L89.171,57.136L89.766,57.216L90.359,57.297L90.953,57.377L91.547,57.456L92.142,57.537L92.726,57.616L92.790,57.604L93.074,57.228L93.346,57.688L93.691,58.273L94.036,58.858L94.381,59.444L94.727,60.029L94.954,60.414L94.998,60.516L95.000,60.624L94.840,61.153L94.819,61.223L94.791,61.316L94.712,61.578L94.588,61.984L94.429,62.511L94.240,63.135L94.029,63.831L93.803,64.576L93.748,64.757L93.570,65.345L93.337,66.113L93.111,66.858L92.901,67.554L92.711,68.178L92.551,68.705L92.429,69.112L92.349,69.373L92.321,69.466L92.184,69.918L91.541,70.153L90.809,70.421L90.078,70.688L89.348,70.955L88.617,71.222L87.885,71.490L87.154,71.757L86.423,72.024L85.692,72.291L84.961,72.559L84.229,72.826L83.498,73.093L82.767,73.361L82.035,73.628L81.305,73.895L80.574,74.163L79.843,74.430L79.367,74.603L78.692,74.703L78.008,74.804L77.323,74.905L76.639,75.006L75.955,75.107L75.271,75.208L74.586,75.309L73.901,75.410L73.218,75.511L72.533,75.612L71.849,75.713L71.164,75.814L70.480,75.915L69.796,76.016L69.111,76.117L68.427,76.218L67.742,76.319L67.191,76.400L66.794,76.552L66.604,76.654L65.989,76.983L65.256,77.375L64.438,77.814L63.704,78.207L63.156,78.501L63.060,78.571L62.729,79.007L62.341,79.514L61.665,80.402L61.028,81.238L60.612,81.784L60.540,81.929L60.338,82.513L60.052,83.341L59.927,83.518L59.923,83.524L59.436,83.824L58.911,84.147L58.785,84.201L58.646,84.221L58.083,84.196L58.023,84.193L57.969,84.157L57.608,83.629L57.292,83.165L57.016,82.761L56.857,82.664L55.908,82.802L55.202,82.905L54.165,82.792L53.357,82.705L52.295,82.591L51.390,82.492L51.194,82.425L50.500,81.999L50.257,81.947L49.539,81.942L49.433,81.941L48.906,81.937L48.040,81.931L47.947,81.953L47.679,82.059L47.559,82.067L47.266,82.003L47.005,81.992L46.591,82.038L46.263,82.118L46.182,82.124L46.002,82.069L45.915,82.058L45.852,82.105L45.789,82.221L45.725,82.305L45.643,82.345L45.532,82.328L45.368,82.239L45.295,82.231L45.203,82.283L45.138,82.363L45.083,82.455L45.016,82.524L44.916,82.540L44.865,82.529L44.840,82.514L44.825,82.492L44.808,82.454L44.819,82.361L44.819,82.310L44.794,82.297L44.694,82.329L44.619,82.332L44.450,82.316L44.290,82.336L44.213,82.335L44.127,82.303L43.951,82.156L43.653,81.805L43.471,81.691L43.156,81.549L43.087,81.530L42.942,81.524L42.864,81.505L42.770,81.518L42.676,81.556L42.301,81.804L41.928,82.140L41.723,82.406L41.711,82.427L41.955,82.512L42.039,82.580L42.083,82.680L42.068,82.774L41.972,82.824L41.874,82.847L41.761,82.898L41.673,82.972L41.647,83.064L41.651,83.173L41.626,83.268L41.537,83.453L41.512,83.550L41.529,83.626L41.562,83.704L41.587,83.807L41.586,83.910L41.568,83.999L41.499,84.180L41.470,84.297L41.487,84.376L41.577,84.559L41.629,84.730L41.678,84.773L41.836,84.819L41.880,84.856L41.909,84.906L41.915,84.967L41.897,85.016L41.865,85.041L41.825,85.059L41.787,85.089L41.726,85.186L41.735,85.250L41.774,85.322L41.799,85.431L41.801,85.439L41.775,85.526L41.702,85.541L41.530,85.485L41.423,85.464L41.369,85.489L41.347,85.553L41.342,85.652L41.324,85.741L41.214,86.047L41.161,86.127L41.068,86.201L40.881,86.317L40.819,86.341L40.653,86.373L40.607,86.394L40.591,86.455L40.602,86.527L40.607,86.602L40.571,86.678L40.461,86.758L40.311,86.826L40.106,86.902L40.100,86.889L40.101,86.720L40.071,86.671L40.129,86.519L40.101,86.429L39.894,86.182L39.846,86.076L39.830,85.987L39.835,85.781L39.885,85.581L39.883,85.496L39.806,85.476L39.835,85.441L39.783,85.390L39.740,85.318L39.730,85.251L39.777,85.217L39.751,85.170L39.631,85.057L39.604,85.023L39.549,84.939L39.449,84.821L39.420,84.799L39.284,84.719L39.241,84.714L39.193,84.740L39.048,84.526L39.107,84.320L39.077,84.244L39.077,84.014L39.058,83.934L39.017,83.906L38.976,83.884L38.958,83.822L38.924,83.781L38.846,83.775L38.758,83.780L38.697,83.774L38.645,83.725L38.602,83.649L38.549,83.518L38.530,83.450L38.508,83.289L38.488,83.225L38.449,83.188L38.257,83.100L38.268,83.181L38.299,83.255L38.374,83.388L38.287,83.445L38.330,83.752L38.284,83.838L38.260,83.741L38.257,83.420L38.239,83.324L38.182,83.141L38.107,82.505L38.080,82.393L38.061,82.310L38.086,82.076L38.080,81.977L38.048,81.873L38.021,81.829L37.979,81.811L37.935,81.809L37.902,81.799L37.881,81.776L37.873,81.735L37.846,81.682L37.386,81.266L37.348,81.253L37.335,81.278L37.306,81.238L37.260,81.139L37.175,81.014L37.150,80.935L37.133,80.899L37.101,80.883L37.004,80.905L36.961,80.894L36.942,80.835L36.920,80.795L36.735,80.593L36.728,80.602L36.701,80.615L36.668,80.625L36.645,80.625L36.604,80.582L36.472,80.385L36.429,80.360L36.175,80.110L36.083,80.150L35.923,80.033L35.826,80.049L35.786,79.926L35.711,79.847L35.619,79.781L35.534,79.694L35.354,79.453L35.327,79.374L35.333,79.315L35.346,79.263L35.339,79.225L35.284,79.211L35.253,79.197L35.247,79.163L35.249,79.121L35.242,79.086L35.062,78.916L34.996,78.819L35.035,78.731L34.961,78.634L34.930,78.583L34.918,78.522L34.899,78.495L34.862,78.481L34.838,78.452L34.858,78.379L34.771,78.370L34.688,78.347L34.700,78.327L34.707,78.311L34.717,78.298L34.741,78.283L34.714,78.227L34.676,78.200L34.627,78.199L34.568,78.219L34.596,78.175L34.617,78.130L34.621,78.089L34.598,78.056L34.624,77.993L34.599,77.961L34.544,77.953L34.478,77.960L34.492,77.896L34.477,77.807L34.446,77.718L34.406,77.656L34.387,77.600L34.360,77.423L34.349,77.385L34.339,77.345L34.333,77.094L34.323,77.067L34.310,77.046L34.291,77.034L34.260,77.030L34.237,77.012L34.229,76.973L34.227,76.929L34.219,76.899L34.064,76.788L34.041,76.758L34.034,76.709L34.013,76.651L33.980,76.602L33.914,76.571L33.889,76.548L33.870,76.525L33.863,76.515L33.837,76.524L33.792,76.573L33.776,76.582L33.729,76.563L33.682,76.533L33.637,76.495L33.603,76.451L33.488,76.186L33.440,76.114L33.386,76.053L33.359,75.998L33.355,75.934L33.367,75.843L33.469,75.536L33.484,75.440L33.497,75.403L33.519,75.387L33.525,75.360L33.484,75.293L33.466,75.290L33.372,75.237L33.367,75.229L33.192,75.184L33.148,75.037L33.146,75.010L33.063,74.895L33.044,74.880L33.041,74.832L33.047,74.781L33.073,74.688L33.094,74.637L33.115,74.601L33.130,74.565L33.139,74.479L33.160,74.382L33.215,74.267L33.178,74.198L33.099,74.144L33.014,74.107L32.830,74.051L32.754,73.995L32.710,73.866L32.649,73.767L32.632,73.723L32.634,73.671L32.666,73.563L32.664,73.517L32.639,73.431L32.632,73.384L32.615,73.343L32.537,73.299L32.518,73.257L32.500,73.158L32.453,73.107L32.388,73.071L32.272,72.974L32.280,72.960L32.285,72.903L32.276,72.855L32.234,72.783L32.224,72.743L32.218,72.693L32.194,72.618L32.197,72.565L32.226,72.518L32.266,72.480L32.286,72.446L32.256,72.408L32.267,72.358L32.258,72.309L32.234,72.269L32.224,72.213L31.859,72.078L31.758,72.021L31.541,71.788L31.437,71.730L31.437,71.701L31.483,71.708L31.582,71.765L31.609,71.573L31.598,71.339L31.567,71.237L31.371,70.942L31.287,70.884L31.068,70.858L30.983,70.861L30.944,70.906L30.993,71.024L30.929,70.969L30.874,70.871L30.839,70.778L30.835,70.736L30.774,70.696L30.600,70.432L30.468,70.347L30.440,70.317L30.444,70.283L30.497,70.160L30.472,70.076L30.421,70.026L30.291,69.968L30.130,69.866L30.092,69.851L30.052,69.788L30.015,69.773L29.976,69.751L29.870,69.596L29.835,69.578L29.730,69.551L29.693,69.546L29.614,69.524L29.527,69.472L29.332,69.310L29.180,69.131L29.208,69.063L29.136,69.011L29.024,68.979L28.892,68.958L28.867,68.935L28.827,68.874L28.760,68.812L28.722,68.767L28.726,68.746L28.682,68.718L28.546,68.588L28.477,68.554L28.381,68.556L28.275,68.575L28.189,68.608L28.154,68.647L28.051,68.608L27.869,68.494L27.774,68.452L27.779,68.512L27.804,68.545L27.839,68.568L27.874,68.600L27.895,68.610L27.936,68.639L27.962,68.669L27.935,68.682L27.860,68.662L27.442,68.397L27.382,68.344L27.326,68.316L27.241,68.291L27.163,68.253L27.097,68.111L27.023,68.037L26.793,67.853L26.678,67.734L26.424,67.310L26.340,67.237L26.340,67.202L26.382,67.205L26.416,67.198L26.441,67.178L26.457,67.138L26.391,67.126L26.337,67.093L26.237,66.995L26.210,66.944L26.184,66.807L26.164,66.754L26.022,66.588L26.009,66.510L26.078,66.399L25.929,66.348L25.870,66.338L25.881,66.375L25.901,66.401L25.927,66.420L25.957,66.434L25.873,66.407L25.780,66.351L25.724,66.281L25.753,66.207L25.714,66.187L25.696,66.159L25.700,66.123L25.724,66.082L25.743,66.118L25.776,66.145L25.819,66.163L25.870,66.175L25.849,66.119L25.843,66.094L25.841,66.065L25.833,66.020L25.813,66.019L25.784,66.028L25.753,66.015L25.696,65.930L25.673,65.929L25.666,66.015L25.575,65.955L25.452,65.855L25.364,65.739L25.372,65.631L25.389,65.655L25.422,65.685L25.452,65.695L25.461,65.663L25.447,65.608L25.423,65.587L25.392,65.576L25.357,65.551L25.316,65.530L25.272,65.539L25.226,65.557L25.185,65.567L25.184,65.549L25.064,65.358L25.037,65.290L25.024,65.212L25.022,65.099L25.008,65.057L24.950,65.016L24.937,64.972L24.932,64.916L24.916,64.896L24.888,64.886L24.708,64.755L24.660,64.701L24.633,64.572L24.594,64.480L24.584,64.426L24.594,64.402L24.634,64.343L24.643,64.314L24.613,64.246L24.453,63.991L24.394,63.954L24.260,63.735L24.599,63.431L24.646,63.317L24.652,63.168L24.619,63.033L24.555,62.961L24.555,62.935L24.601,62.894L24.595,62.832L24.525,62.676L24.471,62.776L24.427,62.789L24.387,62.736L24.348,62.641L24.380,62.612L24.310,62.509L24.295,62.372L24.301,62.226L24.292,62.098L24.246,61.971L24.255,61.901L24.335,61.871L24.358,61.844L24.379,61.780L24.381,61.707L24.348,61.650L24.315,61.747L24.293,61.788L24.260,61.810L24.201,61.813L24.187,61.790L24.188,61.753L24.173,61.714L24.146,61.688L24.127,61.674L24.110,61.656L24.088,61.618L24.075,61.575L24.069,61.497L24.056,61.458L24.048,61.456L23.998,61.426L23.989,61.410L23.977,61.374L23.969,61.359L23.824,61.171L23.700,60.891L23.622,60.497L23.628,60.407L23.741,60.364L23.857,60.515L23.940,60.516L23.958,60.412L23.958,60.321L23.969,60.271L23.986,60.253L24.044,60.211L24.056,60.187L24.065,60.098L24.105,59.912L24.115,59.817L24.088,59.817L24.027,59.977L23.998,59.909L24.013,59.858L24.041,59.807L24.056,59.739L24.056,59.547L24.088,59.420L24.228,59.255L24.272,59.056L24.303,59.010L24.341,58.971L24.380,58.922L24.438,58.791L24.511,58.715L24.525,58.695L24.525,58.636L24.502,58.582L24.461,58.551L24.406,58.564L24.378,58.609L24.348,58.742L24.321,58.791L24.216,58.811L24.211,58.677L24.266,58.481L24.233,58.225L24.264,57.963L24.232,57.835L24.199,57.772L24.080,57.607L23.969,57.345L23.886,57.205L23.854,57.131L23.865,57.075L23.978,56.969L23.971,56.932L23.766,56.700L23.683,56.630L23.645,56.653L23.661,56.679L23.736,56.760L23.765,56.801L23.779,56.851L23.783,56.899L23.793,56.946L23.823,56.993L23.791,57.025L23.735,56.894L23.616,56.706L23.499,56.574L23.279,56.169L23.280,56.105L23.405,56.174L23.543,56.486L23.619,56.511L23.665,56.540L23.706,56.533L23.740,56.499L23.765,56.446L23.720,56.393L23.648,56.251L23.603,56.223L23.572,56.209L23.537,56.175L23.511,56.128L23.499,56.077L23.462,56.003L23.377,55.967L23.279,55.943L23.208,55.902L23.122,55.920L23.059,55.845L22.972,55.646L23.019,55.599L23.055,55.536L23.080,55.468L23.088,55.402L23.078,55.268L23.058,55.196L23.054,55.138L23.004,55.115L22.965,55.187L22.912,55.084L22.837,54.982L22.759,54.826L22.683,54.735L22.651,54.631L22.598,54.560L22.586,54.497L22.549,54.416L22.550,54.348L22.518,54.208L22.460,54.097L22.405,53.962L22.381,53.777L22.365,53.646L22.340,53.543L22.330,53.459L22.258,53.382L22.227,53.331L22.213,53.253L22.207,53.177L22.112,53.231L22.070,53.204L22.035,53.204L22.039,53.282L22.080,53.323L22.187,53.363L22.187,53.396L22.044,53.382L21.950,53.294L21.947,53.066L21.757,52.819L21.657,52.497L21.627,52.390L21.608,52.274L21.577,52.166L21.510,52.081L21.468,52.059L21.421,52.049L21.350,52.025L21.310,51.978L21.290,51.910L21.256,51.828L21.204,51.761L21.134,51.738L21.064,51.718L21.006,51.686L20.965,51.653L20.923,51.574L20.854,51.492L20.820,51.464L20.749,51.412L20.662,51.385L20.592,51.376L20.490,51.308L20.435,51.266L20.351,51.187L20.269,51.084L20.182,51.016L20.109,50.948L19.981,50.824L19.947,50.806L19.912,50.797L19.874,50.815L19.838,50.838L19.742,50.771L19.675,50.717L19.499,50.605L19.367,50.502L19.391,50.446L19.465,50.394L19.571,50.377L19.529,50.335L19.465,50.355L19.385,50.397L19.353,50.337L19.403,50.257L19.421,50.183L19.375,50.165L19.347,50.200L19.294,50.210L19.269,50.256L19.294,50.281L19.308,50.323L19.315,50.382L19.318,50.425L19.293,50.452L19.199,50.417L19.069,50.451L18.875,50.302L18.816,50.248L18.650,50.116L18.612,50.021L18.556,49.983L18.483,49.947L18.406,49.905L18.343,49.845L18.259,49.789L18.158,49.792L18.109,49.787L18.045,49.835L18.031,49.897L18.055,49.991L17.873,49.998L17.828,49.927L17.702,49.868L17.604,49.899L17.509,49.801L17.450,49.695L17.356,49.562L17.205,49.432L17.156,49.275L17.198,49.180L17.230,49.191L17.314,49.247L17.350,49.173L17.322,49.086L16.734,48.228L16.471,47.862L16.347,47.697L16.341,47.567L16.355,47.533L16.359,47.486L16.354,47.440L16.341,47.407L16.309,47.392L16.254,47.447L16.209,47.453L16.134,47.408L16.079,47.332L16.005,47.166L16.114,47.168L16.210,47.183L16.306,47.186L16.414,47.150L16.467,47.071L16.473,46.834L16.567,46.636L16.554,46.530L16.472,46.334L16.445,46.221L16.472,45.945L16.464,45.839L16.442,45.739L16.405,45.646L16.355,45.560L16.275,45.464L16.226,45.417L16.180,45.384L16.140,45.347L16.100,45.260L16.064,45.223L15.979,45.157L15.894,45.064L15.820,44.958L15.769,44.853L15.759,44.807L15.750,44.702L15.740,44.661L15.712,44.619L15.647,44.548L15.626,44.501L15.701,44.448L15.638,44.342L15.448,44.149L15.416,44.090L15.347,43.891L15.325,43.858L15.266,43.819L15.244,43.794L15.238,43.768L15.242,43.710L15.229,43.683L15.192,43.626L15.132,43.491L15.098,43.440L15.044,43.399L14.919,43.349L14.865,43.315L14.697,43.048L14.590,42.916L14.497,42.909L14.489,42.961L14.518,43.015L14.533,43.062L14.483,43.091L14.429,43.075L14.297,42.982L14.234,42.960L14.195,42.935L14.099,42.813L14.072,42.768L14.067,42.739L14.072,42.639L14.062,42.612L14.011,42.599L13.985,42.576L13.932,42.458L13.927,42.348L13.968,42.244L14.057,42.141L14.114,42.045L14.129,41.917L14.113,41.785L14.072,41.677L13.971,41.570L13.835,41.500L13.686,41.462L13.544,41.450L13.391,41.395L13.288,41.262L13.017,40.625L12.919,40.461L12.734,40.214L12.418,39.447L12.080,38.850L11.876,38.594L11.629,38.376L11.515,38.249L11.448,38.046L11.319,37.824L11.235,37.533L11.157,37.553L11.099,37.501L10.999,37.341L10.721,37.098L10.379,36.661L10.257,36.430L10.243,36.393L10.237,36.346L10.247,36.308L10.289,36.241L10.298,36.201L10.277,36.144L10.175,35.992L9.816,35.574L9.614,35.438L9.561,35.393L9.460,35.270L9.346,35.086L9.216,34.961L9.053,34.666L9.007,34.546L8.991,34.451L8.988,34.282L8.963,34.194L8.927,34.133L8.786,33.987L8.709,33.861L8.599,33.575L8.510,33.455L8.470,33.429L8.384,33.395L8.350,33.373L8.326,33.340L8.307,33.277L8.264,33.189L8.245,33.056L8.204,32.990L7.983,32.748L7.916,32.631L7.875,32.586L7.808,32.556L7.601,32.396L7.601,32.429L7.572,32.429L7.524,32.366L7.580,32.319L7.676,32.278L7.750,32.233L7.795,32.255L7.790,32.228L7.750,32.155L7.724,32.145L7.606,32.120L7.572,32.105L7.542,32.105L7.542,32.137L7.517,32.137L7.499,32.108L7.474,32.077L7.444,32.052L7.412,32.042L7.335,32.045L7.297,32.040L7.247,31.989L7.047,31.850L7.005,31.880L6.955,31.878L6.910,31.878L6.921,31.905L6.937,31.927L6.957,31.946L6.914,31.924L6.866,31.892L6.816,31.875L6.766,31.898L6.722,31.925L6.592,31.963L6.557,31.982L6.532,32.007L6.517,32.042L6.487,32.042L6.487,32.010L6.458,32.010L6.402,32.024L6.315,32.009L6.228,32.010L6.169,32.076L6.158,32.052L6.154,32.052L6.137,32.042L6.137,32.010L6.169,32.010L6.169,31.975L6.153,31.942L6.175,31.915L6.214,31.895L6.254,31.881L6.213,31.864L6.172,31.859L6.128,31.865L6.079,31.881L6.079,31.914L6.111,31.914L6.111,31.946L6.063,31.961L6.032,31.993L5.992,32.076L5.978,32.057L5.965,32.050L5.951,32.048L5.936,32.042L5.953,32.013L5.978,31.986L6.011,31.963L6.052,31.946L6.050,31.928L6.049,31.908L6.052,31.881L5.992,31.879L5.944,31.889L5.913,31.919L5.904,31.975L5.881,31.961L5.874,31.959L5.868,31.965L5.846,31.975L5.844,31.959L5.846,31.929L5.846,31.914L5.821,31.914L5.821,31.946L5.787,31.946L5.766,31.906L5.746,31.885L5.725,31.887L5.700,31.914L5.661,31.885L5.651,31.871L5.624,31.833L5.609,31.812L5.583,31.754L5.571,31.765L5.554,31.777L5.537,31.794L5.522,31.817L5.467,31.777L5.451,31.797L5.449,31.844L5.435,31.881L5.403,31.901L5.345,31.925L5.318,31.946L5.318,31.975L5.408,32.042L5.408,32.076L5.380,32.078L5.368,32.086L5.362,32.096L5.353,32.105L5.318,32.076L5.297,32.154L5.293,32.215L5.266,32.254L5.172,32.268L5.179,32.246L5.184,32.243L5.191,32.244L5.204,32.233L5.172,32.201L5.153,32.134L5.145,32.073L5.143,31.960L5.112,31.926L5.007,31.969L5.026,31.914L5.000,31.881L5.063,31.792L5.103,31.759L5.140,31.742L5.143,31.719L5.170,31.705L5.206,31.673L5.231,31.658L5.204,31.626L5.216,31.601L5.232,31.582L5.255,31.569L5.289,31.562L5.289,31.583L5.279,31.588L5.267,31.587L5.259,31.591L5.302,31.612L5.337,31.624L5.363,31.611L5.377,31.562L5.353,31.562L5.353,31.530L5.322,31.500L5.328,31.469L5.361,31.443L5.408,31.431L5.408,31.399L5.394,31.358L5.435,31.143L5.451,31.152L5.481,31.164L5.495,31.175L5.493,31.160L5.495,31.111L5.471,31.127L5.460,31.137L5.435,31.111L5.521,31.030L5.608,30.876L5.674,30.706L5.719,30.486L5.802,30.364L5.834,30.224L5.864,30.145L5.987,29.940L5.955,29.729L5.943,29.507L5.879,29.296L5.958,29.009L6.013,28.858L6.079,28.734L6.079,28.705L6.052,28.705L6.125,28.584L6.136,28.527L6.111,28.476L6.111,28.446L6.159,28.303L6.150,28.241L6.079,28.220L6.079,28.191L6.142,28.088L6.211,27.894L6.243,27.695L6.195,27.577L6.195,27.513L6.244,27.426L6.285,27.324L6.371,26.905L6.390,26.844L6.438,26.739L6.432,26.710L6.438,26.643L6.479,26.604L6.578,26.550L6.549,26.472L6.538,26.369L6.554,26.300L6.604,26.326L6.608,26.311L6.609,26.298L6.615,26.291L6.636,26.294L6.603,26.225L6.592,26.145L6.609,26.076L7.083,26.156L7.590,26.240L8.255,26.350L8.849,26.449L9.483,26.554L9.988,26.638L10.232,26.679L10.724,26.760L11.168,26.834L11.285,26.830L11.395,26.787L11.858,26.420L12.310,26.061L12.807,25.667L13.136,25.406L13.410,24.962L13.677,24.531L13.873,24.212L14.109,23.829L14.211,23.725L14.329,23.668L14.699,23.595L15.080,23.520L15.694,23.398L16.304,23.277L16.876,23.163L17.379,23.064L17.471,22.986L17.661,22.545L17.802,22.218L17.956,21.863L18.081,21.573L18.137,21.488L18.236,21.409L18.700,21.162L19.216,20.887L19.529,20.721L19.558,20.704L19.562,20.703L19.563,20.701L19.562,20.698L19.351,20.463L18.882,19.941L18.413,19.421L17.944,18.899L17.475,18.378L17.462,18.363L17.448,18.348L17.435,18.333L17.421,18.318L16.865,17.751L16.318,17.194L16.309,17.185L15.753,16.618L15.198,16.052L15.362,16.006L16.256,15.755L17.314,15.458L18.373,15.161L18.624,15.090L19.431,14.864L19.585,14.822L20.392,14.604L21.353,14.344L22.313,14.084L23.274,13.824L23.759,13.693L23.759,13.693L23.759,13.692L23.907,13.634L24.415,13.184L24.498,13.126L24.541,13.113L24.553,13.109L24.566,13.105L24.578,13.101L24.589,13.098L25.435,13.233L26.279,13.368L27.124,13.503L27.968,13.638L28.311,13.692L28.312,13.692L28.312,13.693L28.313,13.693L29.770,13.955L30.000,14.039L30.238,14.169L30.678,14.414L31.052,14.624L31.427,14.833L31.802,15.043L32.177,15.252L32.552,15.461L32.926,15.671L33.301,15.880L33.676,16.090L34.051,16.299L34.425,16.509L34.800,16.718L35.175,16.928L35.550,17.137L35.924,17.346L36.300,17.556L36.674,17.765L37.055,17.978L37.338,18.210L37.700,18.505L38.061,18.800L38.421,19.095L38.783,19.390L39.188,19.722L39.592,20.055L39.997,20.388L40.080,20.456L40.402,20.720L40.402,20.720L40.403,20.721L40.403,20.721L40.855,21.070L41.232,21.362L41.608,21.653L41.984,21.944L42.361,22.235L42.850,22.614L43.340,22.992L43.830,23.371L44.319,23.749L44.526,23.910L44.808,24.128L45.298,24.507L45.787,24.885L46.276,25.264L46.684,25.579L47.091,25.894L47.499,26.209L47.905,26.524L48.234,26.778L48.261,26.788L48.289,26.799L48.315,26.809L48.344,26.819L48.734,26.853L49.075,26.883L49.415,26.912L49.755,26.942L50.095,26.971L50.533,27.010L50.971,27.048L51.409,27.086L51.847,27.124L52.285,27.162L52.723,27.200L53.161,27.238L53.598,27.276L53.924,27.304L54.249,27.332L54.575,27.361L54.900,27.389L55.350,27.428L55.537,27.390L55.649,27.367L55.724,27.352L55.911,27.314L56.098,27.275L56.575,27.332L57.052,27.389L57.529,27.446L58.007,27.503L58.432,27.557L58.858,27.611L59.284,27.665L59.709,27.718L59.947,27.749L59.948,27.749L59.950,27.749L59.950,27.749L60.003,27.835L60.208,28.174L60.445,28.799L60.465,28.917L60.482,29.170L60.523,29.313L60.581,29.451L60.646,29.557L60.737,29.638L60.835,29.705L60.915,29.786L60.950,29.910L61.180,29.908L61.939,29.900L62.699,29.892L63.459,29.885L64.217,29.877L64.318,29.981L64.371,30.017L64.482,30.066L64.498,30.100L64.537,30.305L64.538,30.462L64.500,30.567L64.402,30.532L64.381,30.563L64.376,30.576L64.371,30.596L64.455,30.602L64.525,30.584L64.579,30.540L64.607,30.468L64.656,30.500L64.654,30.542L64.607,30.628L64.581,30.750L64.578,30.805L64.600,30.916L64.654,31.010L65.010,31.392L65.032,31.448L64.971,31.538L64.939,31.626L64.935,31.718L64.959,31.817L65.002,31.892L65.137,32.073L65.166,32.121L65.160,32.176L65.154,32.194L65.222,32.233L65.368,32.298L65.414,32.303L65.560,32.298L65.598,32.308L65.683,32.354L65.735,32.364L65.752,32.377L65.750,32.406L65.736,32.439L65.720,32.460L65.693,32.473L65.664,32.471L65.633,32.460L65.559,32.496L65.540,32.526L65.546,32.591L65.587,32.654L65.672,32.739L65.770,32.815L65.849,32.847L65.851,32.868L65.947,33.008L66.119,33.175L66.139,33.222L66.102,33.316L66.096,33.376L66.100,33.431L66.114,33.455L66.105,33.488L66.066,33.562L66.012,33.640L65.954,33.682L65.984,33.627L65.990,33.587L65.981,33.472L65.993,33.407L66.018,33.369L66.032,33.331L66.012,33.263L65.949,33.328L65.879,33.503L65.808,33.551L65.886,33.349L65.895,33.295L65.874,33.206L65.840,33.213L65.804,33.277L65.723,33.606L65.720,33.682L65.710,33.693L65.696,33.724L65.701,33.750L65.749,33.746L65.773,33.723L65.803,33.645L65.835,33.615L65.835,33.824L65.852,33.874L65.891,33.867L65.932,33.828L65.954,33.778L65.984,33.829L65.989,33.892L65.981,33.970L66.034,33.990L66.075,33.967L66.107,33.921L66.129,33.874L66.130,33.955L66.121,33.983L66.099,34.005L66.120,34.047L66.116,34.076L66.088,34.091L66.041,34.095L66.085,34.197L66.099,34.226L65.996,34.175L65.952,34.176L65.922,34.226L66.012,34.263L66.089,34.258L66.149,34.214L66.187,34.130L66.216,34.130L66.246,34.197L66.193,34.248L66.176,34.340L66.200,34.415L66.275,34.418L66.306,34.383L66.287,34.351L66.254,34.319L66.246,34.287L66.279,34.244L66.325,34.219L66.423,34.197L66.506,34.189L66.563,34.216L66.715,34.354L66.872,34.433L66.914,34.489L66.832,34.546L66.893,34.574L66.947,34.568L66.973,34.535L66.949,34.482L67.021,34.513L67.095,34.533L67.257,34.546L67.293,34.536L67.369,34.492L67.403,34.482L67.448,34.487L67.533,34.511L67.579,34.517L67.665,34.542L67.731,34.601L67.829,34.738L67.860,34.764L67.890,34.780L67.919,34.800L67.945,34.837L67.956,34.872L67.965,34.956L67.977,34.994L67.923,34.996L67.891,34.973L67.879,34.929L67.887,34.868L67.858,34.868L67.768,34.974L67.533,34.949L67.449,35.029L67.418,35.029L67.389,34.948L67.315,34.947L67.153,35.029L67.188,35.048L67.282,35.075L67.330,35.095L67.368,35.123L67.393,35.147L67.423,35.169L67.476,35.191L67.504,35.228L67.525,35.244L67.549,35.236L67.621,35.166L67.622,35.156L67.645,35.136L67.655,35.109L67.667,35.094L67.696,35.110L67.728,35.138L67.768,35.156L67.738,35.221L67.698,35.254L67.655,35.277L67.622,35.317L67.610,35.368L67.607,35.490L67.595,35.543L67.641,35.531L67.691,35.505L67.740,35.470L67.783,35.431L67.832,35.415L67.889,35.430L67.977,35.479L67.943,35.571L67.956,35.661L67.987,35.752L68.004,35.847L67.995,36.048L68.019,36.132L68.091,36.122L68.087,36.207L68.116,36.239L68.162,36.229L68.208,36.186L68.187,36.116L68.225,36.071L68.292,36.067L68.354,36.122L68.380,36.087L68.403,36.140L68.390,36.187L68.367,36.237L68.354,36.298L68.339,36.334L68.302,36.349L68.255,36.350L68.208,36.343L68.242,36.397L68.346,36.418L68.380,36.474L68.423,36.449L68.451,36.409L68.500,36.314L68.503,36.335L68.507,36.338L68.514,36.336L68.529,36.343L68.486,36.427L68.522,36.441L68.630,36.407L68.697,36.419L68.813,36.468L68.881,36.474L68.766,36.350L68.731,36.277L68.794,36.215L68.847,36.213L68.889,36.239L68.926,36.270L68.969,36.282L69.002,36.268L69.085,36.186L69.070,36.260L69.031,36.374L69.027,36.442L69.053,36.549L69.076,36.608L69.100,36.634L69.180,36.671L69.258,36.759L69.504,37.138L69.629,37.292L69.667,37.320L69.788,37.373L69.828,37.404L69.890,37.468L69.934,37.501L70.200,37.621L70.366,37.740L70.461,37.750L70.560,37.745L70.666,37.760L70.798,37.835L70.922,37.954L71.136,38.240L71.209,38.368L71.520,38.589L71.590,38.666L71.605,38.786L71.412,38.617L71.309,38.553L71.075,38.524L71.015,38.504L70.973,38.451L70.940,38.278L70.903,38.308L70.864,38.387L70.844,38.463L70.840,38.522L70.842,38.578L70.856,38.629L70.886,38.674L70.929,38.719L70.940,38.743L70.923,39.029L70.929,39.107L71.044,39.464L71.092,39.540L71.162,39.608L71.240,39.655L71.607,39.781L71.732,39.891L71.807,40.050L71.839,40.264L71.836,40.774L71.820,40.885L71.776,40.979L71.693,41.031L71.690,40.959L71.657,40.935L71.612,40.951L71.574,41.003L71.601,41.121L71.590,41.301L71.556,41.485L71.517,41.613L71.451,41.564L71.432,41.497L71.434,41.423L71.427,41.354L71.397,41.298L71.359,41.260L71.319,41.231L71.284,41.194L71.261,41.177L71.241,41.177L71.228,41.165L71.219,41.035L71.211,41.004L71.194,40.968L71.161,40.921L71.108,40.870L71.052,40.839L71.003,40.855L70.891,41.069L70.857,41.098L70.810,41.128L70.832,41.191L70.877,41.252L70.902,41.275L70.911,41.309L70.951,41.376L70.958,41.421L70.944,41.433L70.914,41.444L70.884,41.463L70.871,41.498L70.881,41.567L70.897,41.633L70.900,41.701L70.871,41.773L70.943,41.798L71.003,41.761L71.034,41.690L71.016,41.613L71.057,41.625L71.087,41.649L71.136,41.709L71.159,41.720L71.177,41.715L71.189,41.719L71.194,41.756L71.194,41.784L71.199,41.799L71.212,41.805L71.238,41.805L71.346,41.831L71.390,41.894L71.412,41.977L71.459,42.061L71.459,42.093L71.374,42.181L71.419,42.401L71.520,42.643L71.605,42.800L71.862,43.106L71.970,43.284L72.013,43.507L71.987,43.507L71.912,43.283L71.882,43.248L71.830,43.236L71.768,43.207L71.714,43.171L71.661,43.092L71.593,43.039L71.532,43.031L71.517,43.123L71.549,43.188L71.658,43.267L71.693,43.315L71.715,43.267L71.722,43.248L71.751,43.248L71.913,43.585L72.400,44.208L72.512,44.307L72.500,44.244L72.472,44.171L72.460,44.111L72.497,44.085L72.543,44.064L72.562,44.075L72.580,44.178L72.601,44.203L72.622,44.217L72.631,44.228L72.666,44.293L72.745,44.330L72.891,44.373L72.928,44.419L73.011,44.629L72.979,44.661L73.031,44.734L73.089,44.858L73.137,44.993L73.157,45.096L73.152,45.154L73.130,45.259L73.125,45.320L73.134,45.380L73.154,45.422L73.174,45.454L73.198,45.535L73.259,45.649L73.270,45.720L73.244,45.912L73.278,46.102L73.315,46.211L73.360,46.267L73.393,46.176L73.504,46.267L73.620,46.414L73.668,46.491L73.740,46.561L73.825,46.871L73.932,46.941L74.017,47.022L74.054,47.201L74.064,47.488L74.081,47.543L74.118,47.624L74.163,47.703L74.209,47.747L74.272,47.746L74.365,47.655ZM37.530,85.334L37.529,85.401L37.517,85.485L37.487,85.587L37.498,85.665L37.537,85.804L37.495,85.899L37.496,85.906L37.399,85.899L37.280,85.748L37.183,85.711L37.091,85.704L37.046,85.661L37.166,85.608L37.236,85.548L37.208,85.452L37.099,85.391L36.990,85.408L36.864,85.419L36.778,85.442L36.698,85.490L36.629,85.531L36.543,85.500L36.446,85.403L36.378,85.336L36.281,85.312L36.167,85.226L36.064,85.141L36.013,85.045L35.985,84.900L35.911,84.845L35.836,84.845L35.785,84.832L35.796,84.801L35.791,84.700L35.729,84.615L35.689,84.524L35.695,84.440L35.758,84.459L35.781,84.495L35.833,84.538L35.999,84.617L36.090,84.726L36.135,84.793L36.152,84.907L36.149,84.961L36.225,85.052L36.299,85.119L36.328,85.137L36.483,85.121L36.534,85.205L36.620,85.212L36.706,85.183L36.780,85.177L36.831,85.232L36.831,85.286L36.883,85.286L37.009,85.227L36.889,85.202L36.826,85.099L36.878,85.014L36.910,84.881L36.938,84.835L36.999,84.825L37.026,84.837L37.060,84.851L37.178,84.928L37.183,85.006L37.239,85.103L37.231,85.153L37.336,85.170L37.364,85.261L37.530,85.334ZM36.387,84.933L36.324,84.879L36.261,84.794L36.153,84.648L36.062,84.515L36.028,84.462L36.028,84.462L36.076,84.417L36.179,84.411L36.254,84.387L36.310,84.337L36.353,84.254L36.397,84.258L36.405,84.259L36.428,84.166L36.395,84.053L36.338,84.026L36.280,83.998L36.225,83.994L36.129,83.971L36.076,83.966L36.066,83.946L36.098,83.908L36.139,83.891L36.149,83.931L36.287,83.946L36.396,83.992L36.469,84.082L36.473,84.101L36.499,84.225L36.500,84.314L36.476,84.416L36.493,84.501L36.630,84.538L36.670,84.641L36.494,84.643L36.444,84.712L36.469,84.792L36.574,84.830L36.633,84.868L36.714,84.906L36.741,85.020L36.741,85.075L36.615,84.995L36.461,84.946L36.387,84.933ZM69.057,35.448L69.141,35.482L69.369,35.547L69.584,35.607L69.505,35.637L69.440,35.622L69.377,35.592L69.306,35.575L69.235,35.585L69.169,35.611L69.109,35.651L69.057,35.700L69.023,35.664L69.018,35.667L68.998,35.671L68.963,35.647L68.941,35.637L68.940,35.636L68.940,35.607L68.997,35.583L69.008,35.558L68.990,35.529L68.971,35.510L68.954,35.494L68.911,35.474L68.864,35.481L68.818,35.498L68.778,35.508L68.724,35.530L68.670,35.585L68.623,35.659L68.590,35.735L68.579,35.613L68.658,35.493L68.782,35.406L68.911,35.383L68.959,35.391L68.995,35.409L69.057,35.448ZM15.485,44.501L15.530,44.538L15.551,44.559L15.542,44.563L15.523,44.555L15.490,44.550L15.487,44.569L15.504,44.599L15.470,44.594L15.386,44.539L15.364,44.488L15.372,44.456L15.330,44.452L15.278,44.467L15.248,44.428L15.228,44.364L15.189,44.364L15.142,44.397L15.133,44.365L15.165,44.277L15.206,44.229L15.258,44.228L15.317,44.237L15.367,44.268L15.409,44.360L15.436,44.356L15.446,44.323L15.463,44.346L15.485,44.501ZM15.123,44.507L15.192,44.504L15.206,44.525L15.127,44.567L15.094,44.593L15.049,44.644L15.006,44.729L14.942,44.776L14.852,44.716L14.771,44.627L14.693,44.565L14.521,44.383L14.510,44.371L14.495,44.344L14.495,44.326L14.503,44.328L14.512,44.318L14.504,44.291L14.463,44.244L14.414,44.175L14.416,44.141L14.461,44.152L14.503,44.188L14.581,44.284L14.617,44.313L14.696,44.355L14.845,44.420L14.917,44.439L14.971,44.445L15.010,44.468L15.030,44.501L14.941,44.505L14.928,44.565L14.962,44.621L15.013,44.608L15.065,44.550L15.123,44.507ZM14.727,43.970L14.686,43.957L14.631,43.904L14.640,43.837L14.692,43.797L14.754,43.805L14.800,43.855L14.798,43.910L14.753,43.953L14.727,43.970ZM14.474,44.135L14.433,44.104L14.413,44.099L14.393,44.092L14.370,44.058L14.368,44.011L14.330,43.998L14.270,43.988L14.259,43.971L14.277,43.977L14.272,43.957L14.236,43.906L14.171,43.864L14.094,43.868L14.060,43.889L14.041,43.907L14.008,43.918L14.009,43.874L14.051,43.810L14.118,43.791L14.198,43.819L14.409,43.959L14.433,43.995L14.455,44.050L14.520,44.089L14.587,44.113L14.683,44.172L14.834,44.296L14.872,44.339L14.866,44.355L14.849,44.370L14.854,44.390L14.831,44.378L14.765,44.327L14.708,44.291L14.665,44.280L14.647,44.251L14.625,44.199L14.585,44.180L14.558,44.191L14.519,44.179L14.474,44.135ZM14.946,43.894L14.941,43.760L14.935,43.731L14.936,43.677L14.963,43.641L15.005,43.625L15.042,43.643L15.062,43.688L15.065,43.732L15.053,43.766L15.034,43.767L15.007,43.747L15.003,43.755L15.014,43.790L15.011,43.806L15.001,43.801L15.030,43.866L15.061,43.991L15.042,44.034L14.994,43.961L14.966,43.941L14.946,43.894ZM14.017,43.786L14.012,43.814L13.986,43.868L13.950,43.892L13.922,43.877L13.866,43.837L13.524,43.663L13.431,43.641L13.403,43.707L13.360,43.685L13.279,43.607L13.224,43.544L13.198,43.445L13.233,43.363L13.339,43.254L13.385,43.196L13.421,43.174L13.428,43.204L13.403,43.258L13.331,43.365L13.336,43.408L13.367,43.447L13.396,43.469L13.422,43.470L13.443,43.479L13.465,43.509L13.499,43.529L13.535,43.541L13.645,43.655L13.702,43.696L13.759,43.700L13.794,43.691L13.806,43.703L13.809,43.736L13.824,43.775L13.863,43.792L13.900,43.788L13.907,43.785L13.893,43.779L13.896,43.759L13.915,43.740L13.951,43.745L14.017,43.786ZM13.423,43.041L13.417,43.003L13.405,42.904L13.416,42.710L13.484,42.548L13.592,42.448L13.622,42.435L13.565,42.491L13.519,42.564L13.484,42.645L13.471,42.736L13.508,42.818L13.590,42.896L13.622,42.909L13.652,42.914L13.650,42.945L13.613,43.007L13.599,43.068L13.605,43.095L13.612,43.121L13.644,43.146L13.694,43.135L13.709,43.143L13.686,43.182L13.642,43.203L13.589,43.194L13.503,43.125L13.455,43.095L13.423,43.041Z" fill="currentColor" stroke="currentColor" stroke-width="1.5" stroke-linejoin="round"/>
</svg>