<svg xmlns="http://www.w3.org/2000/svg" viewBox="0 0 100 100" role="img" aria-label="Sudan">
  <title>Sudan</title>
  <path d="M10.636,75.215L10.845,74.433L10.879,74.377L10.964,74.282L10.979,74.221L10.982,74.109L10.999,73.999L11.033,73.899L11.123,73.704L11.147,73.605L11.136,73.443L11.132,73.371L10.996,72.958L10.924,72.563L10.847,72.496L10.721,72.493L10.211,72.548L10.158,72.524L10.156,72.357L10.141,72.306L10.003,72.174L9.572,72.024L9.387,71.931L9.195,71.743L9.032,71.508L8.924,71.246L8.899,70.980L9.198,69.267L9.293,68.985L9.309,68.887L9.303,68.801L9.276,68.774L9.230,68.854L9.159,68.809L8.950,68.848L8.601,68.960L8.542,69.005L8.510,69.023L8.476,69.037L8.614,68.425L8.619,68.358L8.615,68.290L8.601,68.223L8.207,66.983L8.030,66.699L8.019,66.631L8.143,66.448L8.410,65.808L8.339,65.737L7.790,65.528L7.119,65.073L6.966,65.305L6.793,65.474L6.588,65.590L6.336,65.666L6.127,65.695L5.899,65.693L5.678,65.650L5.490,65.556L5.379,65.446L5.168,65.042L5.023,64.856L5.000,64.793L5.013,64.758L5.099,64.585L5.233,64.170L5.673,63.317L5.829,63.099L6.012,62.920L6.107,62.866L6.683,62.633L6.771,62.570L7.266,62.039L7.455,61.786L7.500,61.554L7.436,61.426L7.246,61.193L7.177,61.060L7.153,60.954L7.150,60.634L7.071,60.418L6.729,60.095L6.634,59.880L6.634,59.755L6.644,59.669L6.626,59.588L6.541,59.477L6.416,59.357L6.423,59.307L6.554,59.090L6.990,58.528L7.043,58.460L7.172,58.327L7.326,58.222L8.177,57.812L8.281,57.740L8.479,57.551L8.601,57.482L8.745,57.454L8.869,57.404L8.949,57.309L8.956,57.146L8.920,56.967L8.871,56.859L8.776,56.799L8.474,56.745L8.385,56.697L8.320,56.615L8.272,56.494L8.256,56.428L8.262,56.385L8.309,56.290L8.333,56.267L8.405,56.232L8.432,56.205L8.438,56.163L8.418,56.131L8.392,56.101L8.374,56.068L8.298,55.470L8.257,55.394L8.092,55.270L7.969,55.064L8.070,54.866L8.287,54.699L8.515,54.587L9.592,54.295L9.647,54.255L9.673,54.178L9.664,54.128L9.583,53.951L9.553,53.853L9.509,53.548L9.509,53.405L9.552,53.319L9.748,53.185L9.855,53.085L9.885,52.993L9.890,52.889L9.918,52.754L9.981,52.638L10.464,52.128L10.570,52.039L10.692,51.972L10.874,51.900L10.915,51.849L11.155,51.405L11.196,51.281L11.264,50.634L11.254,50.449L11.200,50.275L11.085,50.118L10.971,49.993L10.881,49.849L10.842,49.689L10.880,49.516L10.982,49.390L11.404,49.126L11.747,48.708L11.887,48.610L12.019,48.594L12.274,48.562L13.098,48.738L13.501,48.699L14.205,48.438L14.556,48.361L15.172,48.362L15.823,48.461L16.447,48.677L16.592,48.684L16.655,48.516L16.655,48.512L16.655,48.191L16.655,46.900L16.653,45.608L16.652,44.317L16.652,43.025L16.650,41.733L16.649,40.442L16.648,39.151L16.647,37.859L16.647,36.568L16.645,35.276L16.644,33.985L16.643,32.693L16.642,31.402L16.641,30.111L16.640,28.819L16.639,27.528L16.639,26.833L16.639,26.139L16.639,25.446L16.639,24.752L17.502,24.752L17.960,24.752L18.566,24.752L19.282,24.753L19.950,24.754L20.604,24.754L21.387,24.754L21.927,24.754L21.938,24.753L21.950,24.752L21.961,24.750L21.974,24.749L21.979,24.740L21.984,24.732L21.989,24.723L21.994,24.715L21.994,24.679L21.994,24.059L21.994,23.530L21.994,23.001L21.995,22.473L21.995,21.944L21.995,21.251L21.995,20.559L21.996,19.866L21.996,19.173L21.996,18.481L21.996,17.788L21.997,17.095L21.997,16.403L21.997,15.710L21.997,15.018L21.997,14.324L21.997,13.632L22.519,13.632L23.040,13.632L23.562,13.632L24.084,13.632L24.606,13.632L25.127,13.633L25.649,13.633L26.170,13.633L26.691,13.633L27.213,13.633L27.735,13.633L28.256,13.633L28.778,13.633L29.299,13.633L29.820,13.633L30.342,13.633L30.864,13.633L31.386,13.634L31.907,13.634L32.429,13.634L32.950,13.634L33.471,13.634L33.993,13.634L34.514,13.634L35.036,13.634L35.558,13.634L36.080,13.634L36.601,13.634L37.123,13.634L37.644,13.635L38.166,13.635L38.688,13.635L39.209,13.635L39.731,13.635L40.252,13.635L40.773,13.635L41.295,13.635L41.817,13.635L42.339,13.635L42.861,13.635L43.382,13.636L43.903,13.636L44.425,13.636L44.946,13.636L45.467,13.636L45.989,13.636L46.511,13.636L47.033,13.636L47.554,13.636L48.076,13.636L48.597,13.637L49.119,13.637L49.640,13.637L50.162,13.637L50.684,13.637L51.205,13.637L51.726,13.637L52.248,13.637L52.770,13.637L53.291,13.637L53.813,13.637L54.335,13.637L54.857,13.638L55.377,13.638L55.583,13.638L55.654,13.596L55.918,13.074L55.936,13.038L56.178,12.560L56.317,12.414L56.417,12.362L56.520,12.344L56.623,12.360L56.721,12.408L56.839,12.520L56.887,12.643L56.880,12.782L56.756,13.138L56.585,13.632L56.903,13.632L57.048,13.632L57.596,13.632L58.145,13.632L58.693,13.632L59.242,13.632L59.790,13.632L60.339,13.632L60.888,13.632L61.436,13.632L61.985,13.632L62.421,13.632L62.533,13.632L63.082,13.632L63.631,13.632L64.180,13.632L64.729,13.632L65.277,13.632L65.820,13.632L65.826,13.632L65.940,13.632L66.597,14.145L67.325,14.715L67.962,15.213L67.975,15.223L69.613,14.998L70.324,14.900L70.779,13.631L70.813,13.631L72.060,13.631L73.307,13.631L74.554,13.631L75.801,13.631L77.047,13.631L78.294,13.631L79.541,13.631L80.788,13.631L82.035,13.631L83.282,13.630L84.529,13.630L85.781,13.630L85.765,13.714L85.751,13.740L85.728,13.750L85.643,13.762L85.548,13.795L85.676,13.888L85.727,13.961L85.731,14.633L85.852,15.397L85.804,15.551L85.880,15.602L85.897,15.667L85.901,15.735L85.934,15.796L85.993,15.855L86.032,15.908L86.320,16.576L87.014,17.620L87.471,18.042L88.042,18.752L88.082,18.845L88.071,18.954L88.034,19.050L87.966,19.096L87.863,19.054L87.755,19.133L87.659,19.054L87.512,18.805L87.475,18.757L87.435,18.688L87.420,18.626L87.457,18.598L87.527,18.618L87.565,18.664L87.590,18.719L87.622,18.768L87.745,18.860L87.817,18.890L87.863,18.864L87.852,18.818L87.720,18.671L87.636,18.455L87.578,18.378L87.494,18.405L87.344,18.295L87.300,18.353L87.258,18.343L87.223,18.289L87.201,18.216L87.215,18.148L87.249,18.084L87.260,18.018L87.201,17.950L87.056,17.919L86.968,18.012L86.932,18.160L86.945,18.295L86.972,18.326L87.038,18.330L87.051,18.367L87.033,18.433L87.015,18.481L87.038,18.622L87.037,18.687L87.015,18.750L86.961,18.803L86.907,18.819L86.870,18.849L86.868,18.940L86.896,18.990L87.051,19.168L87.194,19.495L87.263,19.843L87.311,20.576L87.389,20.921L87.627,21.585L87.640,21.946L87.625,22.035L87.597,22.123L87.545,22.176L87.382,22.153L87.364,22.224L87.384,22.390L87.344,22.785L87.382,23.010L87.384,23.092L87.510,23.417L87.553,23.613L87.582,23.795L87.610,24.062L87.529,24.272L87.530,24.310L87.511,24.371L87.445,24.451L87.420,24.503L87.417,24.653L87.456,24.842L87.795,25.723L87.827,25.911L87.827,26.274L87.816,26.373L87.788,26.434L87.699,26.558L87.682,26.643L87.720,26.978L87.712,27.083L87.720,27.129L87.741,27.182L87.827,27.326L87.937,27.644L88.149,28.825L88.192,29.398L88.212,29.465L88.257,29.503L88.306,29.533L88.339,29.573L88.339,29.610L88.311,29.683L88.309,29.721L88.439,29.901L88.503,30.178L88.615,30.535L88.688,30.767L88.733,31.055L88.804,31.156L88.919,31.368L89.043,31.579L89.220,31.740L89.249,31.805L89.298,31.866L89.358,31.899L89.423,31.878L89.483,31.843L89.523,31.853L89.843,31.805L90.021,31.726L90.046,31.829L90.165,31.892L90.265,31.911L90.375,31.903L90.409,31.967L90.421,32.058L90.508,32.136L90.467,32.351L90.551,32.306L90.613,32.287L90.673,32.334L90.761,32.423L91.365,32.593L91.587,32.805L91.737,33.055L91.969,33.282L92.116,33.379L92.349,33.470L92.417,33.548L92.350,33.645L92.209,33.717L92.172,33.911L92.319,34.224L92.577,34.460L92.865,34.526L93.079,34.490L93.110,34.285L93.218,34.253L93.405,34.142L93.438,34.200L93.392,34.247L93.317,34.288L93.262,34.328L93.254,34.373L93.258,34.434L93.244,34.500L93.181,34.563L93.100,34.586L93.029,34.581L92.969,34.586L92.928,34.636L92.998,34.635L93.185,34.601L93.256,34.614L93.304,34.643L93.348,34.680L93.405,34.711L93.475,34.729L93.626,34.748L93.699,34.772L93.780,34.786L93.836,34.760L93.843,34.716L93.777,34.676L93.862,34.600L93.967,34.707L94.139,34.980L94.089,35.055L94.178,35.110L94.313,35.120L94.399,35.060L94.456,35.145L94.474,35.366L94.509,35.436L94.615,35.453L94.667,35.369L94.658,35.242L94.582,35.132L94.673,35.188L94.896,35.417L94.932,35.503L94.931,35.590L94.944,35.645L95.000,35.769L94.988,35.819L94.225,36.453L94.077,36.669L93.754,37.521L93.606,37.759L93.498,37.843L93.232,37.971L93.139,38.056L93.112,38.166L93.119,38.283L93.105,38.393L93.015,38.483L92.888,38.502L92.793,38.444L92.712,38.362L92.625,38.307L92.436,38.367L92.404,38.372L92.380,38.422L92.386,38.458L92.400,38.496L92.399,38.554L92.343,38.660L92.254,38.737L92.174,38.738L92.143,38.618L92.151,38.507L92.146,38.414L92.095,38.359L91.972,38.358L91.846,38.404L91.841,38.407L91.479,38.650L91.311,38.865L91.206,38.945L91.078,38.975L90.956,38.937L90.795,38.783L90.686,38.753L90.499,38.853L90.266,39.272L90.047,39.385L89.830,39.415L89.121,39.635L89.063,39.670L89.050,39.734L89.110,39.988L89.115,40.090L89.090,40.321L89.056,40.435L88.939,40.644L88.913,40.768L88.869,40.879L88.567,41.240L88.065,41.098L87.911,41.112L87.656,41.269L87.494,41.279L87.414,41.268L87.123,41.315L87.070,41.306L86.863,41.179L86.807,41.158L86.670,41.135L86.574,41.096L86.493,41.040L86.408,41.002L86.298,41.017L86.263,41.058L86.262,41.061L86.251,41.105L86.264,41.155L86.370,41.302L86.389,41.409L86.364,41.516L86.234,41.703L86.252,41.763L86.308,41.817L86.355,41.886L86.368,41.957L86.358,42.180L86.365,42.201L86.397,42.251L86.404,42.284L86.394,42.307L86.355,42.351L86.345,42.376L86.324,42.709L86.193,43.043L86.135,43.119L85.958,43.247L85.877,43.320L85.828,43.425L85.819,43.524L85.829,43.705L85.813,43.812L85.747,44.034L85.743,44.111L85.780,44.239L85.850,44.338L85.934,44.427L86.010,44.529L86.016,44.545L86.050,44.642L86.047,44.740L86.028,44.839L86.020,44.958L86.048,45.075L86.146,45.300L86.160,45.419L86.105,45.560L85.881,45.793L85.794,45.938L85.616,46.445L85.373,47.137L85.116,47.870L84.972,48.107L84.708,48.383L84.642,48.505L84.351,49.571L84.337,49.806L84.411,50.048L84.235,50.167L84.131,50.338L83.859,51.148L83.762,51.301L83.367,51.687L83.324,51.784L83.316,51.906L83.378,52.433L83.487,53.365L83.523,53.673L83.586,54.212L83.668,54.910L83.748,55.599L83.867,56.621L83.386,58.135L83.362,58.253L83.364,58.394L83.393,58.531L83.486,58.809L83.501,59.086L83.404,59.330L83.181,59.887L83.162,59.999L83.143,60.313L83.094,60.471L82.298,61.635L81.780,63.465L81.788,63.572L81.830,63.660L81.848,63.708L81.849,63.756L81.801,63.837L81.721,63.918L81.659,64.013L81.664,64.137L81.789,64.358L81.813,64.441L81.814,64.577L81.709,65.195L81.663,65.304L81.579,65.338L81.433,65.297L81.384,65.270L81.353,65.246L81.318,65.228L81.252,65.217L81.207,65.218L79.591,65.456L79.453,65.503L79.446,65.506L79.372,65.541L79.353,65.558L79.354,65.588L79.318,65.730L79.310,65.789L79.290,65.846L79.237,65.905L79.191,65.925L79.087,65.933L79.041,65.953L78.993,66.008L77.985,67.722L77.928,67.877L77.914,68.032L77.898,68.101L77.849,68.177L77.793,68.223L77.676,68.286L77.623,68.331L77.583,68.394L77.488,68.637L77.434,68.942L77.388,69.074L77.283,69.197L77.083,69.315L77.035,69.363L77.019,69.414L77.018,69.440L77.015,69.541L77.004,69.596L76.842,69.781L76.483,69.922L76.366,69.968L76.159,70.105L76.077,70.213L76.004,70.341L75.946,70.477L75.908,70.609L75.905,70.721L75.945,70.932L75.935,71.159L75.974,71.274L76.086,71.500L76.099,71.604L76.079,71.714L75.404,73.237L75.388,73.358L75.441,73.509L75.534,73.615L75.602,73.729L75.582,73.902L75.228,74.966L75.224,75.027L75.275,75.100L75.434,75.219L75.464,75.303L75.423,75.493L75.333,75.626L75.043,75.852L74.945,75.947L74.923,76.013L74.923,76.080L74.891,76.179L74.822,76.272L74.763,76.279L74.698,76.260L74.608,76.269L74.542,76.328L74.470,76.499L74.427,76.544L74.371,76.522L74.363,76.441L74.385,76.274L74.351,76.189L74.280,76.126L74.123,76.022L73.474,75.437L73.408,75.410L73.318,75.445L72.672,75.902L72.579,75.984L72.495,76.101L72.287,76.513L71.826,77.182L71.785,77.378L71.808,77.608L72.069,78.832L72.075,79.083L72.029,79.318L72.012,79.350L71.961,79.405L71.946,79.435L71.945,79.497L71.963,79.633L71.955,79.694L71.833,79.880L71.518,80.181L70.855,82.106L70.687,82.932L70.707,83.358L69.797,83.354L69.780,83.347L69.765,83.331L69.750,83.304L69.732,83.268L69.693,83.110L69.673,82.864L69.706,82.439L69.819,81.934L70.163,81.225L70.180,81.166L70.185,81.133L70.185,81.094L70.153,80.968L70.113,80.858L70.093,80.693L70.153,80.324L70.159,80.210L70.150,80.063L70.123,79.970L69.883,79.355L69.804,79.258L68.643,78.280L67.483,77.302L67.058,76.772L67.013,76.735L66.955,76.707L65.777,76.262L65.720,76.217L65.727,76.151L65.764,76.067L65.905,75.809L65.925,75.741L65.945,75.637L65.679,73.576L65.414,71.516L65.415,71.434L65.439,71.381L65.459,71.348L65.530,71.260L65.591,71.169L65.661,71.010L65.679,70.950L65.752,70.214L65.746,69.569L66.057,68.494L66.091,68.036L63.532,68.004L63.516,68.028L63.515,68.056L63.521,68.088L63.525,68.122L63.523,68.194L63.502,68.328L63.497,68.398L63.500,68.470L63.539,68.728L63.606,68.922L63.617,68.986L63.620,69.057L63.612,69.191L61.831,69.199L60.051,69.207L61.461,70.823L61.477,70.856L61.502,70.944L61.512,71.008L61.539,71.577L61.463,72.477L61.479,73.056L61.562,73.431L61.944,74.171L61.919,74.309L61.829,74.483L60.567,75.582L59.304,76.681L59.235,76.784L58.883,77.701L58.549,78.234L58.400,78.387L57.814,79.135L56.662,80.307L55.510,81.480L55.132,81.638L53.985,81.702L53.983,81.702L53.378,81.719L53.309,81.737L53.206,81.777L53.142,81.838L53.068,81.883L52.994,81.859L52.908,81.795L51.489,80.481L50.226,79.652L48.962,78.822L48.720,78.973L47.290,79.686L46.995,79.871L46.832,80.002L46.823,80.801L46.574,81.208L46.122,81.651L44.886,81.932L44.242,82.173L43.584,82.532L43.477,82.621L43.072,82.944L42.726,83.295L42.616,83.509L42.609,83.745L42.631,83.944L42.697,84.081L42.690,84.081L40.553,84.062L38.416,84.043L38.159,83.745L37.612,82.575L37.557,82.598L37.469,82.614L36.940,82.642L36.254,82.539L36.224,82.542L36.112,82.573L36.081,82.576L35.646,82.520L34.880,82.523L34.634,82.479L33.247,82.512L31.178,83.234L31.120,83.239L30.810,83.213L30.677,83.150L30.441,82.992L29.430,81.773L28.419,80.554L28.007,80.393L28.005,80.392L27.930,80.310L27.866,80.227L27.546,79.687L27.515,79.644L27.496,79.625L27.462,79.597L27.447,79.589L27.301,79.546L27.219,79.509L27.026,79.392L26.985,79.357L26.950,79.318L26.936,79.294L26.926,79.263L26.894,78.403L26.887,78.372L26.876,78.346L26.849,78.300L26.616,78.003L26.596,77.987L26.538,77.993L26.298,78.058L26.186,78.114L26.138,78.128L26.095,78.133L25.880,78.124L25.849,78.129L25.764,78.154L25.642,78.174L25.469,78.176L25.438,78.180L25.208,78.239L24.812,78.382L24.796,78.384L24.728,78.404L24.668,78.414L24.452,78.406L24.387,78.412L24.326,78.424L24.247,78.452L24.196,78.476L24.141,78.494L24.077,78.501L24.043,78.501L23.980,78.509L23.952,78.517L23.853,78.566L23.824,78.571L23.792,78.571L23.734,78.563L23.704,78.565L23.653,78.585L23.624,78.592L23.591,78.591L23.560,78.585L23.529,78.575L23.475,78.551L23.446,78.541L23.382,78.530L23.345,78.534L23.307,78.543L23.259,78.563L23.223,78.568L23.161,78.560L23.130,78.561L23.000,78.612L22.939,78.623L22.801,78.612L22.744,78.624L22.666,78.656L22.582,78.681L22.549,78.695L22.510,78.731L22.457,78.797L22.189,79.392L22.175,79.451L22.171,79.497L22.183,79.558L22.191,79.586L22.235,79.691L22.252,79.748L22.255,79.779L22.253,79.814L22.247,79.847L22.189,80.010L22.048,80.309L22.017,80.406L21.971,80.507L21.926,80.571L21.853,80.647L21.706,80.853L21.636,80.933L21.451,81.049L21.266,81.206L21.221,81.234L21.174,81.256L21.116,81.267L21.065,81.271L21.046,81.276L21.025,81.297L21.007,81.333L20.987,81.447L20.996,82.927L20.986,82.992L20.947,83.120L20.619,83.499L20.463,83.645L20.421,83.710L20.384,83.810L20.281,84.872L20.275,84.902L20.254,84.955L19.769,85.803L19.736,85.886L19.731,85.923L19.731,86.515L19.701,86.552L19.648,86.583L19.385,86.673L18.898,86.726L18.776,86.752L18.190,87.133L18.028,87.212L17.720,87.454L17.687,87.499L17.676,87.578L17.652,87.613L17.350,87.656L16.791,87.560L16.639,87.586L16.536,87.570L16.323,87.479L16.025,87.510L15.686,87.431L15.501,87.435L15.332,87.516L15.245,87.543L15.073,87.494L14.901,87.498L14.832,87.469L14.751,87.411L14.667,87.374L14.576,87.364L14.478,87.384L14.403,87.427L14.277,87.527L14.197,87.545L14.088,87.494L14.006,87.372L13.962,87.224L13.965,87.090L14.035,86.945L14.256,86.688L14.347,86.535L14.413,86.219L14.421,86.026L14.382,85.905L14.288,85.901L14.089,86.102L13.942,86.114L13.799,86.029L13.729,85.916L13.715,85.780L13.833,85.073L13.860,85.031L13.922,84.937L14.003,84.903L14.176,84.911L14.263,84.895L14.325,84.856L14.442,84.733L14.649,84.465L14.720,84.409L14.768,84.342L14.760,84.261L14.705,84.091L14.713,83.992L14.847,83.559L14.844,83.522L14.814,83.478L14.783,83.465L14.743,83.467L14.703,83.396L14.688,83.344L14.695,83.171L14.684,83.098L14.632,82.960L14.628,82.899L14.695,82.738L14.893,82.425L14.966,82.260L14.992,82.047L14.835,81.087L14.724,80.839L13.832,79.360L12.941,77.881L11.966,76.909L11.410,76.507L10.647,75.367L10.636,75.215ZM87.827,19.972L87.882,20.011L87.901,20.024L87.925,20.096L87.862,20.467L87.822,20.556L87.768,20.557L87.713,20.430L87.710,20.256L87.749,20.085L87.827,19.972Z" fill="currentColor" stroke="currentColor" stroke-width="1" stroke-linejoin="round"/>
</svg>