<svg xmlns="http://www.w3.org/2000/svg" viewBox="0 0 100 100" role="img" aria-label="Senegal">
  <title>Senegal</title>
  <path d="M82.046,45.827L82.158,46.267L82.449,46.529L82.538,46.739L82.650,46.909L82.872,47.010L83.109,47.057L83.271,47.067L83.191,47.248L83.126,47.356L83.098,47.458L83.132,47.623L83.235,47.709L83.384,47.744L83.495,47.836L83.481,48.088L83.400,48.220L83.115,48.498L83.007,48.656L82.977,48.810L82.962,48.993L82.922,49.158L82.816,49.253L82.540,49.424L82.451,49.684L82.484,49.999L82.656,50.658L82.693,50.965L82.666,51.619L82.854,51.656L84.217,52.164L84.318,52.362L84.255,52.550L84.039,52.630L84.159,52.837L84.299,53.024L84.477,53.176L85.054,53.387L85.259,53.526L85.403,53.747L85.942,55.017L85.974,55.351L85.866,55.963L85.538,57.121L85.536,57.748L85.683,58.139L85.921,58.377L86.193,58.587L86.449,58.896L86.538,59.180L86.535,59.487L86.449,60.099L86.216,60.773L85.727,61.281L84.480,61.987L84.681,62.160L84.878,62.457L85.178,63.044L85.361,63.589L85.685,64.100L85.953,64.406L86.797,65.028L86.890,65.132L87.020,65.357L87.103,65.454L87.255,65.531L87.390,65.548L87.508,65.599L87.609,65.774L87.578,66.042L87.368,66.851L87.403,67.017L87.532,67.052L87.918,67.245L88.032,67.328L88.087,67.440L88.178,67.732L88.245,67.837L88.418,67.982L88.500,67.990L88.580,67.905L89.193,67.437L89.231,67.145L89.318,66.836L89.465,66.585L89.688,66.464L89.898,66.495L90.002,66.614L90.086,66.762L90.232,66.878L90.371,66.896L90.657,66.835L91.024,66.822L91.091,66.888L91.071,67.103L91.110,67.252L91.271,67.271L91.455,67.223L91.561,67.174L91.562,67.502L91.667,67.795L92.027,68.301L92.358,68.597L92.421,68.743L92.398,68.908L92.212,69.180L92.157,69.343L92.200,69.613L92.341,69.799L92.515,69.960L92.650,70.160L92.657,70.688L92.731,70.932L92.989,70.994L93.191,71.117L93.364,71.250L93.548,71.363L93.786,71.425L93.940,71.487L93.924,71.593L93.843,71.708L93.814,71.795L94.015,72.088L94.097,72.273L94.154,72.368L94.212,72.417L94.339,72.478L94.317,72.542L94.235,72.605L94.187,72.666L94.185,72.796L94.150,73.090L94.110,73.241L94.338,73.284L94.507,73.213L94.613,73.041L94.649,72.779L94.771,72.910L94.838,73.065L94.872,73.237L94.903,73.630L94.853,73.720L94.760,73.778L94.633,73.882L94.569,73.884L94.477,73.832L94.373,73.797L94.277,73.849L94.267,73.941L94.338,74.023L94.422,74.100L94.454,74.180L94.393,74.333L94.311,74.489L94.257,74.646L94.303,74.891L94.280,74.956L94.236,75.019L94.200,75.103L94.206,75.196L94.264,75.231L94.332,75.241L94.369,75.253L94.388,75.267L94.441,75.336L94.505,75.445L94.551,75.571L94.582,75.725L94.596,75.906L94.564,76.070L94.462,76.179L94.462,76.247L94.616,76.527L94.644,76.670L94.524,76.865L94.322,76.901L94.129,76.964L93.974,77.361L93.860,77.441L93.770,77.554L93.784,77.777L93.840,77.813L93.951,77.855L94.065,77.937L94.137,78.093L94.140,78.249L94.064,78.726L94.077,78.887L94.111,78.990L94.129,79.100L94.093,79.273L93.789,79.416L93.684,79.511L93.847,79.568L93.953,79.636L94.122,79.936L94.239,80.042L94.231,79.930L94.313,79.770L94.427,79.725L94.517,79.966L94.548,80.093L94.641,80.341L94.668,80.476L94.783,80.291L94.815,80.205L95.000,80.466L94.971,80.819L94.872,81.218L94.844,81.618L94.441,81.602L93.482,81.251L92.989,81.200L91.730,81.296L91.123,81.411L89.998,81.836L89.446,81.929L88.251,81.878L87.950,81.812L87.066,81.435L87.047,81.410L87.018,81.394L86.917,81.395L86.853,81.420L86.692,81.535L86.136,81.843L85.942,81.883L85.631,81.852L84.749,81.555L84.387,81.566L84.125,81.696L83.641,82.145L83.100,82.451L80.632,83.102L80.395,82.980L79.980,82.335L79.719,82.143L79.085,81.912L78.778,81.836L78.525,81.824L78.279,81.875L77.993,81.987L77.567,82.225L77.457,82.258L77.439,82.264L77.230,82.257L77.177,82.199L77.166,82.094L77.088,81.950L76.677,81.486L76.436,81.289L76.151,81.169L75.851,81.134L74.907,81.188L74.606,81.148L74.519,81.024L74.456,80.876L74.223,80.762L73.790,80.730L73.651,80.675L73.497,80.533L73.466,80.404L73.489,80.303L73.496,80.243L73.133,79.920L72.561,79.619L72.030,79.625L71.786,80.227L71.738,80.518L71.569,80.666L71.330,80.683L71.069,80.580L70.786,80.612L70.532,80.586L70.317,80.468L70.148,80.224L70.083,79.931L70.136,79.682L70.354,79.169L70.409,78.909L70.425,78.606L70.362,78.322L70.175,78.116L69.952,78.082L69.699,78.124L69.431,78.132L69.168,77.995L69.031,78.163L68.915,78.082L68.819,78.073L68.716,78.089L68.585,78.088L68.400,78.144L68.341,78.154L68.275,78.120L68.135,77.968L68.054,77.928L67.944,77.937L67.697,78.007L67.570,78.027L67.443,78.006L67.262,77.887L67.139,77.853L67.011,77.862L66.573,77.956L66.503,77.980L66.469,78.023L66.429,78.060L66.343,78.066L66.273,78.040L66.147,77.949L66.080,77.920L66.034,77.907L65.377,77.726L60.649,77.550L55.468,77.529L51.663,77.513L50.286,77.507L45.107,77.484L43.931,77.479L39.926,77.462L39.211,77.459L38.792,77.523L38.413,77.698L37.564,78.316L36.675,78.728L35.900,79.305L35.858,79.337L32.168,81.084L31.665,81.191L29.144,81.041L28.999,81.032L27.839,81.115L27.558,81.063L26.645,80.753L26.126,80.707L25.022,80.901L24.923,80.944L24.859,80.994L24.790,81.022L24.670,81.001L24.355,80.875L24.198,80.846L24.045,80.879L23.036,81.433L21.865,82.072L21.423,82.255L20.687,82.261L19.924,82.454L19.654,82.465L17.673,82.331L17.136,82.462L16.803,82.696L16.707,82.505L16.638,82.305L16.573,81.997L16.481,81.894L16.261,81.738L15.925,81.406L15.775,81.211L15.713,81.016L15.713,80.388L15.746,80.251L15.890,80.119L15.922,79.981L16.029,79.822L16.755,79.382L17.074,79.371L17.528,79.409L18.017,79.100L18.173,78.968L18.256,78.845L18.320,78.718L18.416,78.576L18.976,78.163L19.245,78.480L19.452,79.053L19.654,79.182L19.663,78.947L19.813,78.763L20.072,78.688L20.359,78.753L20.849,79.035L21.289,79.158L21.773,79.389L22.027,79.409L22.314,79.269L22.666,78.829L22.924,78.688L23.265,78.702L23.554,78.809L23.843,78.840L24.177,78.632L24.347,78.562L24.460,78.694L24.546,78.886L24.630,78.997L25.768,78.566L26.030,78.503L26.380,78.481L26.607,78.414L26.796,78.274L27.013,78.161L27.333,78.173L27.590,78.313L27.977,78.624L28.209,78.812L28.331,78.951L28.501,78.981L29.438,78.997L29.528,79.063L29.717,79.264L29.787,79.306L29.916,79.288L30.291,79.194L30.458,79.089L30.621,78.890L30.828,78.770L31.133,78.904L31.213,78.834L31.306,78.788L31.400,78.787L31.600,78.933L31.685,78.919L31.760,78.882L31.841,78.904L31.955,79.037L32.053,79.293L32.132,79.409L32.226,79.497L32.331,79.561L32.463,79.600L32.640,79.605L32.806,79.571L33.474,79.292L33.741,79.016L34.190,78.425L34.357,78.300L34.506,78.223L34.612,78.118L34.652,77.910L34.569,77.818L34.409,77.747L34.319,77.666L34.444,77.545L34.302,77.202L34.168,76.743L34.121,76.273L34.246,75.895L34.415,75.792L34.624,75.785L34.843,75.804L35.043,75.783L35.246,75.693L35.385,75.584L35.477,75.446L35.543,75.268L35.843,75.564L36.118,75.644L36.304,75.484L36.340,75.063L36.114,75.302L35.899,75.295L35.678,75.197L35.442,75.164L35.222,75.263L34.861,75.532L34.599,75.587L34.451,75.588L34.231,75.619L34.033,75.725L33.946,75.947L33.946,76.823L34.111,77.389L34.137,77.545L34.146,77.791L34.135,77.913L34.091,78.013L33.737,78.322L33.625,78.470L32.889,79.147L32.695,79.270L32.521,79.279L32.369,79.210L32.240,79.100L32.324,78.648L31.880,78.444L30.844,78.275L30.140,78.728L29.882,78.790L29.832,78.742L29.768,78.636L29.663,78.529L29.488,78.481L29.309,78.514L29.063,78.656L28.885,78.688L28.715,78.640L28.495,78.524L28.131,78.275L28.114,78.201L28.132,78.094L28.140,77.998L28.085,77.957L27.891,77.931L27.789,77.900L27.723,77.863L27.632,77.738L27.433,77.338L27.379,77.287L27.312,77.259L27.256,77.206L27.201,76.884L27.125,76.711L27.035,76.711L27.035,76.823L27.013,76.885L26.856,77.194L26.789,77.292L26.734,77.807L26.326,78.070L25.728,78.173L25.573,78.241L25.272,78.440L25.183,78.481L25.028,78.464L24.675,78.369L24.122,78.369L23.958,78.409L23.679,78.534L23.523,78.576L23.347,78.576L22.874,78.481L22.716,78.514L22.512,78.656L22.380,78.688L22.330,78.759L22.258,78.921L22.158,79.092L22.027,79.194L21.428,78.997L20.942,78.717L20.716,78.524L20.621,78.322L20.562,78.287L20.429,78.245L20.294,78.178L20.222,78.070L20.246,77.920L20.339,77.786L20.473,77.690L20.621,77.657L20.621,77.545L20.396,77.539L20.254,77.425L20.172,77.242L20.122,77.029L20.022,78.275L19.912,78.275L19.719,78.013L19.182,77.543L19.115,77.245L18.944,77.384L18.831,77.552L18.698,77.692L18.466,77.751L18.291,77.714L18.173,77.611L18.115,77.451L18.125,77.245L18.332,76.851L18.624,76.555L18.815,76.212L18.725,75.680L18.659,76.089L18.625,76.205L18.546,76.338L18.479,76.403L18.409,76.446L18.118,76.718L17.995,76.874L17.934,77.069L17.916,77.390L18.021,77.925L17.990,78.172L17.550,78.363L16.911,78.904L16.420,79.078L16.150,78.916L16.036,78.525L16.012,78.013L16.092,77.480L16.324,76.949L16.700,76.652L17.210,76.823L17.233,76.599L17.025,76.435L16.722,76.373L16.465,76.463L16.164,76.837L15.997,76.959L15.812,76.917L15.899,76.795L15.929,76.664L15.899,76.537L15.812,76.411L16.130,75.963L16.193,75.739L16.121,75.474L16.012,75.474L15.944,75.641L15.844,75.715L15.753,75.657L15.713,75.427L15.749,75.247L15.837,75.054L16.358,74.269L16.411,74.077L16.396,73.884L16.327,73.531L16.311,73.357L16.344,73.042L16.488,72.415L16.520,72.012L16.497,71.765L16.434,71.639L16.457,71.291L16.509,71.122L16.602,70.999L16.833,70.769L16.879,70.624L17.095,70.255L17.605,70.140L18.241,70.146L20.650,70.168L22.870,70.189L26.103,70.218L28.008,70.235L28.947,70.244L29.337,70.248L29.884,70.252L29.983,70.180L30.010,69.104L30.015,68.869L30.040,67.798L30.098,67.585L30.267,67.491L31.286,67.392L31.942,67.181L32.127,67.176L33.112,67.273L33.351,67.249L33.790,67.100L34.128,66.914L34.470,66.784L34.926,66.805L36.521,67.148L37.059,67.147L37.535,67.059L38.014,66.879L38.434,66.597L38.734,66.202L38.823,65.785L38.878,64.851L39.082,64.515L39.413,64.169L39.717,63.850L40.051,63.714L40.453,63.978L41.109,64.601L41.835,65.132L41.837,65.133L41.840,65.135L41.843,65.137L42.798,65.630L43.292,65.760L43.852,65.807L44.071,65.872L44.560,66.174L44.828,66.262L45.127,66.320L45.283,66.418L45.578,66.833L45.986,67.201L46.474,67.410L47.008,67.474L47.550,67.410L48.023,67.289L48.190,67.349L48.609,67.743L48.744,67.870L48.938,67.982L49.150,68.044L49.609,68.062L49.804,68.118L49.967,68.289L50.079,68.441L50.217,68.566L50.372,68.674L50.905,68.953L51.287,69.062L51.683,69.093L52.514,69.019L53.307,69.170L53.730,69.155L54.049,68.995L54.751,68.460L54.970,68.361L55.223,68.364L55.851,68.134L56.440,68.127L57.027,67.968L58.131,67.872L58.855,67.552L59.271,66.911L59.327,66.139L58.976,65.425L58.829,65.302L58.497,65.104L58.395,65.015L58.364,64.989L58.288,64.862L58.195,64.576L58.119,64.444L57.875,64.242L57.524,64.062L57.153,63.932L56.846,63.878L56.650,63.910L56.352,64.086L56.180,64.164L56.028,64.188L55.774,64.166L55.616,64.171L55.320,64.246L54.644,64.596L53.801,64.789L53.524,64.910L52.714,65.420L51.855,65.730L51.602,65.792L51.335,65.754L50.984,65.588L49.924,64.821L49.805,64.735L49.657,64.572L49.562,64.370L49.367,63.714L49.228,63.426L49.031,63.176L48.748,62.947L48.120,62.650L47.519,62.604L46.927,62.765L46.030,63.271L45.849,63.330L45.645,63.255L45.044,62.888L44.943,62.773L44.659,61.794L44.528,61.516L44.343,61.258L44.104,61.063L43.827,60.837L43.293,60.658L41.818,60.591L40.948,60.258L40.635,60.242L39.569,60.638L38.468,61.348L38.157,61.423L38.033,61.328L37.750,60.949L37.613,60.818L36.981,60.715L36.304,60.974L35.686,61.432L35.231,61.928L35.068,62.185L34.917,62.501L34.802,62.833L34.785,62.936L34.749,63.141L34.719,63.740L34.490,63.818L33.775,63.816L32.868,63.812L31.959,63.809L31.052,63.805L30.143,63.802L29.236,63.798L28.329,63.795L27.420,63.791L26.512,63.788L26.201,63.787L25.605,63.785L24.698,63.781L23.791,63.778L22.882,63.774L21.974,63.771L21.067,63.767L20.159,63.764L19.244,63.761L19.242,63.758L19.098,63.536L19.025,63.378L19.034,62.954L19.284,62.719L19.651,62.527L20.022,62.235L19.944,62.191L19.794,62.078L19.713,62.038L19.899,61.860L20.036,61.629L20.011,61.446L19.713,61.410L19.752,61.651L19.681,61.944L19.526,62.149L19.315,62.132L19.210,62.449L18.983,62.664L18.696,62.745L18.416,62.656L18.160,62.385L18.095,62.107L18.216,61.513L18.245,61.140L18.284,60.990L18.416,60.792L18.935,60.171L19.025,59.958L19.110,60.014L19.339,60.122L19.423,60.174L19.390,60.105L19.315,59.855L19.822,59.762L19.847,60.061L19.952,60.343L20.118,60.514L20.330,60.474L20.220,60.129L20.195,59.748L20.132,59.446L19.912,59.340L19.990,59.136L20.307,57.730L20.330,57.485L20.011,57.957L19.877,58.252L19.762,58.876L19.612,59.250L19.419,59.498L19.223,59.443L19.115,59.443L18.969,59.645L18.711,59.724L18.407,59.765L18.125,59.855L17.968,59.988L17.916,60.113L17.892,60.241L17.817,60.380L17.738,60.454L17.570,60.551L17.474,60.633L17.328,60.911L17.217,61.011L17.069,60.942L17.023,60.795L17.022,60.609L16.994,60.448L16.861,60.380L16.674,60.247L16.598,59.949L16.618,59.632L16.720,59.443L16.630,59.236L16.569,59.002L16.520,58.515L16.534,58.259L16.584,58.112L16.674,58.013L17.010,57.743L17.182,57.676L17.369,57.668L17.799,57.717L18.003,57.782L18.142,57.903L18.125,58.104L18.330,57.918L18.491,57.695L18.695,57.573L19.025,57.692L19.019,57.359L19.134,57.211L19.319,57.119L19.522,56.961L19.340,57.025L19.142,57.067L18.958,57.030L18.815,56.867L19.476,56.453L19.713,56.239L20.093,55.770L20.300,55.589L20.769,55.451L20.997,55.162L21.174,55.095L21.296,55.153L21.413,55.264L21.534,55.330L21.677,55.255L21.766,55.187L22.003,55.073L22.118,54.992L21.198,54.957L20.803,54.805L20.829,54.478L20.598,54.599L20.512,54.817L20.558,55.045L20.721,55.198L20.539,55.300L20.389,55.289L20.242,55.233L20.072,55.198L19.949,55.245L19.896,55.359L19.867,55.498L19.822,55.620L19.447,56.289L19.315,56.445L19.165,56.514L18.849,56.590L18.675,56.707L18.546,56.873L18.365,57.224L18.216,57.373L17.888,57.483L17.578,57.421L17.262,57.310L16.911,57.279L17.254,56.658L17.264,56.549L17.511,56.477L17.916,56.023L17.720,56.081L17.531,56.376L17.369,56.445L17.046,56.455L16.918,56.485L16.811,56.549L16.983,56.750L16.968,56.885L16.720,57.176L16.677,57.292L16.639,57.508L16.565,57.634L16.275,57.969L16.212,58.104L16.145,58.528L16.212,59.958L16.121,59.958L16.035,57.061L15.961,56.623L15.719,55.897L15.453,55.359L15.323,55.198L15.132,55.109L14.751,55.023L14.606,54.890L14.531,54.673L14.406,53.859L14.311,53.601L14.194,53.411L13.917,53.128L13.790,53.058L13.694,53.038L13.631,52.975L13.608,52.777L13.626,52.622L13.700,52.326L13.717,52.153L13.646,51.904L13.469,51.636L13.010,51.169L11.965,50.673L11.804,50.500L11.721,50.301L11.205,49.521L10.819,48.482L10.229,47.666L9.810,47.277L9.559,47.103L9.271,46.969L8.955,46.916L8.718,46.849L8.098,46.522L8.003,46.410L7.520,46.416L7.100,46.365L6.734,46.389L6.406,46.625L6.529,46.770L6.705,46.823L6.596,47.043L6.406,47.132L6.456,47.180L6.546,47.290L6.596,47.338L6.506,47.554L6.456,47.569L6.406,47.656L6.214,47.531L5.232,46.308L5.000,46.092L7.413,45.445L8.126,44.860L10.306,43.927L10.808,43.521L13.130,40.741L13.595,40.047L14.613,38.911L16.646,35.299L17.662,33.949L19.572,30.741L19.640,30.589L19.615,30.434L19.522,30.220L19.853,29.654L19.996,28.821L20.031,27.178L20.118,27.004L20.320,26.337L20.573,25.729L20.638,24.707L20.744,24.404L20.957,24.220L21.496,24.092L21.724,23.942L21.816,23.788L21.879,23.611L22.477,21.056L22.553,20.454L22.664,20.171L22.866,19.888L23.136,19.627L23.447,19.437L23.780,19.370L24.263,19.462L24.427,19.474L24.593,19.444L24.742,19.375L25.172,19.070L25.340,18.992L25.515,18.960L25.700,18.996L25.834,19.078L25.942,19.190L26.119,19.452L26.367,19.713L26.663,19.856L26.993,19.894L27.342,19.845L27.446,19.771L27.549,19.717L27.659,19.698L27.780,19.727L27.969,19.802L28.061,19.811L28.169,19.790L28.749,19.532L28.955,19.509L29.465,19.632L29.588,19.632L29.949,19.567L30.182,19.579L30.843,19.795L31.317,19.822L31.441,19.858L31.786,20.022L32.015,20.081L32.239,20.068L32.455,19.995L32.657,19.868L32.980,19.572L33.153,19.465L33.376,19.430L34.003,19.559L34.219,19.538L34.393,19.452L34.534,19.320L34.889,18.813L35.070,18.652L35.282,18.557L35.503,18.577L35.641,18.690L35.725,18.843L35.824,18.985L36.005,19.062L36.220,19.057L36.425,19.006L37.041,18.750L37.269,18.701L37.738,18.684L38.430,18.793L38.665,18.785L40.235,18.538L40.543,18.423L40.638,18.360L40.701,18.275L40.706,18.162L40.658,18.066L40.421,17.836L40.335,17.634L40.364,17.439L40.491,17.290L40.699,17.233L40.910,17.296L41.042,17.443L41.157,17.616L41.310,17.761L41.414,17.796L41.523,17.786L41.627,17.742L41.717,17.674L41.789,17.581L41.822,17.484L41.868,17.272L41.962,17.133L42.112,17.033L42.439,16.898L42.605,16.982L42.796,17.186L42.809,17.212L42.920,17.431L43.072,17.623L43.342,17.664L43.787,17.558L46.283,17.737L46.452,17.717L46.946,17.588L47.091,17.584L47.219,17.620L47.630,17.814L47.791,17.843L47.952,17.837L48.565,17.665L48.721,17.661L49.313,17.784L49.471,17.787L49.628,17.769L49.780,17.728L49.925,17.662L50.308,17.432L50.448,17.378L50.735,17.360L51.661,17.724L51.774,17.801L51.835,17.913L51.829,18.079L51.752,18.366L51.777,18.481L51.914,18.543L52.474,18.493L52.615,18.560L52.665,18.677L52.684,18.947L52.760,19.064L52.912,19.135L53.262,19.159L53.429,19.189L53.548,19.259L53.796,19.584L53.899,19.680L54.246,19.924L54.742,20.502L55.610,21.286L56.095,21.567L56.194,21.658L56.450,21.963L56.579,22.047L56.867,22.159L57.001,22.233L57.089,22.335L57.099,22.440L57.007,22.673L56.980,22.801L57.010,22.899L57.153,23.087L57.218,23.223L57.223,23.350L57.148,23.620L57.202,23.862L57.451,23.996L58.025,24.164L58.145,24.235L58.375,24.410L58.472,24.514L58.544,24.636L58.668,25.043L58.737,25.187L58.829,25.319L58.945,25.432L59.078,25.514L59.201,25.546L59.320,25.534L59.435,25.492L59.674,25.354L59.910,25.173L60.010,25.064L60.269,24.688L60.379,24.581L60.503,24.510L60.632,24.474L60.768,24.467L60.907,24.483L60.877,24.677L60.794,24.930L60.729,25.129L60.776,25.287L60.845,25.330L60.996,25.390L61.062,25.438L61.079,25.464L61.101,25.518L61.120,25.539L61.156,25.560L61.245,25.595L61.286,25.617L61.382,25.701L61.414,25.720L61.516,25.738L61.611,25.713L62.011,25.499L62.096,25.481L62.370,25.479L62.421,25.474L62.532,25.440L62.975,25.248L63.745,25.085L63.944,25.004L64.025,24.979L64.108,24.975L64.205,24.995L64.232,25.206L63.987,25.664L63.960,25.898L64.108,26.000L64.641,25.791L64.861,25.797L64.934,25.877L65.051,26.081L65.123,26.169L65.525,26.440L65.613,26.548L65.650,26.664L65.665,26.929L65.685,27.045L65.888,27.554L65.982,27.710L66.092,27.855L66.221,27.987L66.590,28.268L66.675,28.384L66.707,28.510L66.698,28.639L66.642,28.894L66.642,29.018L66.673,29.119L66.736,29.210L67.000,29.519L67.130,29.751L67.201,30.008L67.205,30.300L67.172,30.427L67.123,30.555L67.091,30.683L67.110,30.812L67.186,30.915L67.288,30.995L67.512,31.126L67.629,31.218L67.727,31.323L67.893,31.567L67.956,31.693L67.973,31.803L67.947,31.914L67.726,32.260L67.673,32.382L67.657,32.516L67.678,32.643L67.816,33.019L68.036,33.012L68.474,32.935L68.687,32.947L68.792,32.990L69.063,33.185L69.169,33.229L69.506,33.320L69.689,33.427L69.845,33.571L69.950,33.748L69.985,33.961L69.902,34.529L69.904,34.660L69.931,34.788L69.983,34.927L70.067,34.992L70.514,35.107L70.724,35.080L70.945,34.943L71.138,34.787L71.353,34.667L71.582,34.636L71.813,34.744L71.906,34.856L71.951,34.987L72.009,35.404L72.058,35.507L72.205,35.701L72.270,35.814L72.298,35.931L72.300,36.436L72.356,36.682L72.476,36.914L72.654,37.106L73.524,37.701L73.710,37.898L73.805,38.145L73.726,38.354L73.484,38.393L72.984,38.342L72.836,38.454L72.924,38.643L73.258,38.978L73.385,39.079L73.515,39.125L73.655,39.127L73.967,39.062L74.121,39.062L74.269,39.104L74.402,39.197L74.478,39.301L74.515,39.416L74.518,39.540L74.439,39.923L74.449,40.042L74.494,40.179L74.511,40.220L74.879,40.338L74.995,40.450L75.427,40.869L75.818,41.035L75.829,41.034L75.979,41.014L76.441,40.872L76.666,40.838L76.802,40.886L76.918,41.002L77.106,41.241L77.912,41.718L78.167,41.911L78.322,42.003L78.664,42.082L78.820,42.169L78.946,42.313L79.016,42.460L79.356,43.664L79.365,43.827L79.566,43.948L80.059,44.537L80.317,44.754L81.236,45.189L82.046,45.827Z" fill="currentColor" stroke="currentColor" stroke-width="1" stroke-linejoin="round"/>
</svg>