<svg xmlns="http://www.w3.org/2000/svg" viewBox="0 0 100 100" role="img" aria-label="Singapore">
  <title>Singapore</title>
  <path d="M84.428,41.413L90.602,42.816L94.031,44.087L95.000,45.611L92.135,50.383L87.919,55.459L82.834,59.515L77.266,61.160L71.153,61.836L66.311,63.692L57.636,69.636L56.204,70.967L55.498,71.815L54.207,72.370L51.019,72.854L44.966,72.733L41.980,71.966L40.709,70.483L38.591,67.083L33.447,64.722L27.253,63.279L21.947,62.704L11.174,62.986L6.796,61.917L5.000,58.486L6.069,54.571L13.473,44.087L14.543,39.395L15.774,36.752L18.558,33.916L21.846,31.918L24.227,31.525L29.634,32.231L35.202,31.525L42.102,28.225L45.793,27.146L52.391,27.529L58.746,29.608L77.407,38.931L84.428,41.413Z" fill="currentColor" stroke="currentColor" stroke-width="1" stroke-linejoin="round"/>
</svg>