<svg xmlns="http://www.w3.org/2000/svg" viewBox="0 0 100 100" role="img" aria-label="South Georgia and the Islands">
  <title>South Georgia and the Islands</title>
  <path d="M87.300,87.874L87.323,87.714L87.373,87.631L87.464,87.597L88.182,87.582L88.182,87.677L88.110,87.798L88.096,87.940L88.060,88.048L87.594,88.062L87.439,88.008L87.300,87.874ZM86.725,87.582L86.766,87.723L86.780,87.867L86.818,87.989L86.933,88.064L86.851,88.075L86.771,88.062L86.694,88.025L86.622,87.961L86.400,87.840L86.189,87.671L86.128,87.507L86.357,87.393L86.708,87.408L86.715,87.448L86.707,87.508L86.725,87.582ZM92.034,81.612L92.298,81.556L92.544,81.639L93.025,81.988L92.852,82.176L92.676,82.322L92.492,82.418L92.294,82.462L92.034,82.399L91.852,82.161L91.827,81.858L92.034,81.612ZM94.844,73.731L94.880,73.845L94.980,74.070L95.000,74.160L94.952,74.449L94.948,74.590L94.924,74.534L94.900,74.519L94.873,74.512L94.531,74.292L93.549,73.949L93.340,73.593L93.364,73.520L93.416,73.415L93.468,73.278L93.491,73.116L93.545,73.016L93.669,72.973L94.445,72.975L94.715,73.042L94.948,73.258L94.844,73.731ZM93.595,65.093L93.382,65.079L93.181,64.953L93.020,64.757L92.921,64.536L93.190,64.153L93.333,64.064L93.491,64.149L93.527,64.237L93.591,64.509L93.651,64.622L93.755,64.700L93.869,64.728L94.114,64.726L93.993,64.875L93.866,64.964L93.595,65.093ZM91.251,54.662L91.400,54.511L91.574,54.540L91.743,54.705L91.878,54.945L91.842,54.948L91.821,54.973L91.802,55.007L91.775,55.041L91.723,54.945L91.628,54.966L91.504,54.891L91.251,54.662ZM88.078,49.351L88.197,49.392L88.369,49.493L88.506,49.630L88.519,49.777L88.408,49.892L87.974,50.023L87.731,49.957L87.645,49.869L87.611,49.682L87.668,49.552L87.798,49.446L87.953,49.376L88.078,49.351ZM84.590,44.041L84.714,43.835L84.873,43.769L85.045,43.811L85.211,43.938L85.211,44.041L85.096,44.110L84.994,44.299L84.899,44.434L84.797,44.333L84.647,44.102L84.590,44.041ZM12.626,18.757L12.739,18.735L12.887,18.877L13.119,19.181L13.119,19.276L13.064,19.269L13.030,19.298L13.002,19.341L12.964,19.379L12.778,19.422L12.691,19.414L12.600,19.379L12.600,19.276L12.751,19.276L12.440,19.086L12.422,18.911L12.476,18.838L12.558,18.807L12.626,18.757ZM5.000,12.358L5.069,12.196L5.187,12.142L5.462,12.161L5.161,12.340L5.081,12.360L5.000,12.358ZM21.547,21.822L21.342,21.847L21.501,22.209L21.830,22.509L22.203,22.712L22.493,22.791L22.493,22.895L22.395,22.922L22.290,22.996L22.206,23.098L22.172,23.212L22.106,23.254L21.958,23.240L21.710,23.167L21.558,23.447L21.330,23.521L21.083,23.467L20.875,23.356L20.498,23.050L20.280,22.922L20.045,22.895L20.120,23.039L20.216,23.153L20.323,23.227L20.430,23.254L20.527,23.301L20.679,23.537L20.771,23.640L20.853,23.690L20.936,23.715L21.135,23.727L21.207,23.768L21.357,23.958L21.446,24.019L21.446,24.106L21.362,24.118L21.281,24.112L21.205,24.082L21.135,24.019L21.150,24.084L21.172,24.240L21.187,24.303L20.967,24.310L20.883,24.256L20.823,24.106L20.795,24.287L20.797,24.363L20.823,24.483L20.727,24.485L20.567,24.417L20.482,24.397L20.435,24.438L20.378,24.521L20.302,24.591L20.081,24.594L19.973,24.553L19.887,24.457L19.833,24.303L19.903,24.295L19.950,24.271L20.045,24.200L19.734,24.019L19.393,23.538L19.245,23.471L19.069,23.315L18.791,22.980L18.780,22.782L18.701,22.808L18.584,22.602L18.613,22.392L18.546,22.151L18.481,21.865L18.222,21.364L17.650,20.522L17.544,20.418L17.447,20.405L17.326,20.361L17.223,20.286L17.179,20.178L17.204,20.026L17.312,19.857L17.335,19.749L17.250,19.560L17.063,19.375L16.864,19.237L16.738,19.181L16.523,19.183L16.443,19.224L16.290,19.420L16.185,19.451L16.075,19.436L15.981,19.379L15.852,19.213L15.764,19.053L15.656,18.911L14.887,18.519L14.833,18.514L14.762,18.528L14.701,18.523L14.675,18.468L14.684,18.406L14.722,18.250L14.731,18.228L14.732,18.158L14.773,18.057L14.784,17.996L14.775,17.890L14.751,17.883L14.717,17.897L14.675,17.858L14.562,17.707L14.418,17.617L14.259,17.575L14.105,17.565L14.161,17.471L14.006,17.385L14.050,17.244L14.122,17.180L14.214,17.170L14.317,17.189L14.135,16.964L13.838,16.955L13.246,17.094L13.148,17.062L12.855,16.893L12.702,16.761L12.631,16.678L12.600,16.621L12.607,16.527L12.641,16.398L12.648,16.284L12.574,16.234L12.475,16.200L12.354,16.116L12.238,16.011L12.153,15.907L12.092,15.872L11.949,15.929L11.868,15.907L11.738,15.812L11.559,15.760L11.422,15.774L11.204,15.916L10.742,15.972L10.597,16.029L10.460,16.148L10.414,16.051L10.351,15.997L10.278,15.990L10.200,16.044L10.115,15.842L10.146,15.747L10.716,15.487L10.833,15.479L10.686,15.267L10.261,15.089L10.149,14.824L10.465,14.832L10.818,14.713L11.455,14.352L11.266,14.260L10.573,14.262L10.309,14.352L10.213,14.316L10.034,14.183L9.943,14.155L9.239,14.155L9.055,14.212L8.988,14.341L9.040,14.473L9.211,14.540L9.071,14.604L8.474,14.736L8.177,14.704L8.017,14.722L8.054,14.661L8.089,14.581L8.121,14.540L8.020,14.469L7.754,14.155L8.030,13.972L8.167,13.847L8.277,13.682L8.155,13.638L7.892,13.668L7.754,13.587L8.234,13.320L8.460,13.124L8.588,12.831L7.678,12.831L7.235,12.917L7.121,12.877L6.959,12.752L6.872,12.729L6.447,12.905L6.210,12.938L6.014,12.779L5.865,12.696L5.568,13.027L5.415,13.019L5.434,12.887L5.470,12.762L5.529,12.669L5.622,12.634L5.586,12.525L5.551,12.462L5.499,12.438L5.415,12.445L5.541,12.363L5.933,12.358L6.326,12.182L6.483,12.161L6.645,12.205L6.897,12.401L7.027,12.445L7.188,12.416L7.356,12.340L7.516,12.220L7.650,12.066L7.649,11.936L7.813,11.925L8.025,11.986L8.169,12.066L8.099,12.099L8.060,12.140L8.038,12.220L8.017,12.358L9.517,12.313L10.055,12.112L10.356,12.066L10.356,12.161L9.890,12.445L9.942,12.547L9.890,12.729L9.734,12.729L9.894,12.901L10.019,12.987L10.152,13.018L10.333,13.019L10.399,13.005L10.529,12.932L10.594,12.917L11.035,12.917L11.489,13.242L11.559,13.256L11.606,13.033L11.720,12.984L11.856,12.985L11.969,12.917L11.956,12.779L12.072,12.742L12.229,12.748L12.337,12.729L12.196,12.944L12.244,13.005L12.364,13.000L12.440,13.019L12.436,13.168L12.363,13.275L12.181,13.398L12.213,13.525L12.205,13.647L12.172,13.764L12.124,13.879L12.328,13.856L12.484,13.675L12.630,13.428L12.803,13.209L12.974,13.107L13.218,13.027L13.424,13.065L13.483,13.303L13.157,13.642L13.018,13.837L13.119,13.966L13.285,13.926L13.897,13.492L13.857,13.448L13.781,13.344L13.742,13.303L13.905,13.248L14.082,13.269L14.472,13.398L14.681,13.532L14.731,13.587L14.746,13.735L14.653,13.908L14.675,14.060L14.638,14.181L14.676,14.263L14.754,14.293L14.840,14.250L14.867,14.148L14.896,13.803L14.939,13.682L15.130,13.607L15.878,13.776L15.821,13.879L15.970,13.886L16.056,13.908L16.132,13.966L16.132,14.060L16.070,14.179L16.051,14.237L16.028,14.352L15.900,14.263L15.764,14.248L15.630,14.307L15.510,14.438L15.723,14.496L15.809,14.547L15.774,14.636L15.685,14.674L15.497,14.668L15.406,14.722L15.601,14.857L15.847,14.828L16.297,14.636L16.738,14.540L16.802,14.618L16.870,14.758L16.957,14.837L17.075,14.722L17.111,14.819L17.123,14.868L17.111,14.918L17.075,15.013L16.960,14.912L16.836,14.906L16.608,15.013L16.500,15.108L15.860,15.622L15.808,15.645L15.764,15.679L15.721,15.760L15.733,15.824L15.772,15.906L15.787,16.013L15.721,16.148L15.913,16.171L16.062,16.153L16.195,16.083L16.713,15.598L16.911,15.517L17.023,15.668L17.118,15.555L17.227,15.614L17.292,15.781L17.254,15.997L17.195,16.041L17.118,16.047L17.051,16.075L17.023,16.191L17.047,16.271L17.092,16.311L17.116,16.376L17.075,16.527L17.149,16.657L17.163,16.805L17.134,16.954L17.075,17.094L17.374,16.714L17.537,16.601L17.672,16.663L17.870,17.058L18.005,17.236L18.164,17.281L18.297,17.173L18.283,16.988L18.208,16.747L18.164,16.475L18.138,16.371L17.962,16.148L17.908,16.035L17.877,15.946L17.863,15.837L17.858,15.668L18.353,15.869L18.583,16.020L18.636,16.234L18.724,16.213L18.810,16.213L18.874,16.258L18.900,16.380L18.913,16.531L18.932,16.639L18.920,16.725L18.843,16.810L19.071,16.998L19.066,17.063L18.964,17.156L18.900,17.428L19.001,17.502L19.626,17.471L19.605,17.653L19.598,17.836L19.555,17.980L19.419,18.048L19.457,18.176L19.515,18.264L19.590,18.313L19.678,18.331L19.676,18.453L19.742,18.534L19.840,18.584L19.937,18.615L19.982,18.604L20.093,18.519L20.148,18.561L20.276,18.710L20.463,18.692L20.535,18.730L20.564,18.850L20.588,19.009L20.647,19.111L20.731,19.165L20.599,19.291L20.426,19.434L20.093,19.852L20.182,19.943L20.324,20.152L20.404,20.222L20.525,20.247L21.229,20.206L21.342,20.136L21.536,19.949L21.626,19.902L21.710,19.938L21.680,20.094L21.549,20.513L21.372,20.857L21.342,20.891L21.523,21.511L21.547,21.822ZM80.005,49.881L80.158,49.743L80.323,49.754L80.345,49.909L80.204,50.051L80.029,50.034L80.005,49.881Z" fill="currentColor" stroke="currentColor" stroke-width="1.5" stroke-linejoin="round"/>
</svg>