<svg xmlns="http://www.w3.org/2000/svg" viewBox="0 0 100 100" role="img" aria-label="Saint Helena">
  <title>Saint Helena</title>
  <path d="M50.272,94.864L50.322,94.907L50.339,94.929L50.350,94.968L50.275,95.000L50.174,94.958L49.987,94.836L49.987,94.817L50.010,94.767L50.030,94.749L50.064,94.741L50.180,94.734L50.212,94.741L50.230,94.763L50.257,94.837L50.272,94.864ZM44.259,85.790L44.286,85.760L44.298,85.751L44.416,85.760L44.459,85.785L44.497,85.818L44.552,85.847L44.541,85.869L44.529,85.884L44.516,85.895L44.500,85.904L44.417,85.978L44.369,86.009L44.336,86.009L44.267,85.944L44.188,85.885L44.213,85.858L44.259,85.790ZM60.891,27.226L60.922,27.221L60.997,27.222L61.030,27.207L61.053,27.256L61.067,27.297L61.071,27.337L61.063,27.377L61.040,27.422L61.012,27.446L60.979,27.464L60.941,27.492L60.935,27.477L60.926,27.468L60.916,27.463L60.906,27.453L60.870,27.492L60.828,27.517L60.785,27.522L60.743,27.501L60.720,27.465L60.726,27.435L60.743,27.405L60.753,27.368L60.769,27.327L60.807,27.284L60.852,27.249L60.891,27.226ZM39.084,5.019L39.106,5.061L39.200,5.137L39.239,5.187L39.213,5.205L39.154,5.234L39.126,5.255L39.099,5.268L39.028,5.272L38.996,5.282L38.957,5.266L38.946,5.236L38.943,5.201L38.929,5.170L38.957,5.128L38.997,5.032L39.032,5.000L39.040,5.021L39.049,5.032L39.063,5.032L39.084,5.019Z" fill="currentColor" stroke="currentColor" stroke-width="1.5" stroke-linejoin="round"/>
</svg>