<svg xmlns="http://www.w3.org/2000/svg" viewBox="0 0 100 100" role="img" aria-label="Solomon Islands">
  <title>Solomon Islands</title>
  <path d="M38.760,65.693L39.171,65.947L39.291,66.096L39.133,66.209L39.052,66.209L38.993,66.189L38.935,66.178L38.856,66.209L38.819,66.256L38.766,66.394L38.717,66.446L38.621,66.440L38.539,66.349L38.466,66.235L38.394,66.162L38.291,66.207L38.252,66.209L38.212,66.190L37.960,66.021L37.925,65.974L37.849,65.683L37.790,65.562L37.652,65.456L37.582,65.435L37.438,65.426L37.371,65.409L37.288,65.357L37.271,65.315L37.283,65.274L37.283,65.222L37.275,65.154L37.281,65.101L37.263,65.048L37.186,64.988L37.130,64.961L37.058,64.941L36.982,64.931L36.914,64.941L36.882,64.974L36.818,65.091L36.775,65.128L36.715,65.140L36.636,65.141L36.495,65.128L36.378,65.085L36.116,64.940L35.982,64.895L36.016,64.824L36.037,64.796L35.914,64.708L35.805,64.717L35.713,64.767L35.636,64.796L35.516,64.766L35.428,64.689L35.234,64.448L35.206,64.352L35.173,64.305L35.123,64.253L35.109,64.218L35.148,64.098L35.195,64.018L35.330,63.892L35.378,63.810L35.401,63.837L35.425,63.847L35.449,63.852L35.475,63.861L35.573,63.964L35.638,64.011L35.711,64.044L35.785,64.049L35.945,64.041L36.010,64.071L36.145,64.191L36.285,64.281L36.663,64.462L36.863,64.614L37.103,64.731L37.299,64.881L37.438,64.944L37.740,65.034L38.018,65.158L38.760,65.693ZM34.036,62.641L34.155,62.656L34.271,62.690L34.350,62.759L34.364,62.874L34.207,62.812L34.076,62.778L33.959,62.723L33.852,62.594L33.906,62.589L33.951,62.596L33.994,62.614L34.036,62.641ZM47.122,55.668L47.155,55.604L47.128,55.575L47.081,55.564L47.052,55.552L46.962,55.386L46.960,55.295L47.052,55.217L47.199,55.337L47.310,55.528L47.321,55.708L47.168,55.786L47.120,55.777L47.095,55.750L47.092,55.713L47.122,55.668ZM51.405,59.443L51.477,59.410L51.525,59.465L51.518,59.547L51.428,59.588L51.339,59.572L51.259,59.548L51.177,59.542L51.083,59.588L51.032,59.557L50.962,59.545L50.847,59.541L50.755,59.525L50.271,59.336L50.115,59.356L49.966,59.494L49.891,59.453L49.805,59.440L49.621,59.443L49.555,59.428L49.507,59.390L49.464,59.345L49.413,59.307L49.115,59.189L49.006,59.099L48.948,59.073L48.862,59.087L48.665,59.153L48.603,59.141L48.539,59.104L48.256,59.022L48.266,59.035L48.227,59.053L48.141,59.073L48.097,59.057L48.027,58.990L48.003,58.975L47.936,58.956L47.891,58.909L47.837,58.789L47.800,58.889L47.794,58.933L47.646,58.823L47.568,58.802L47.467,58.835L47.450,58.793L47.400,58.736L47.375,58.699L47.312,58.725L47.257,58.680L47.225,58.610L47.237,58.558L47.174,58.478L47.093,58.471L47.003,58.484L46.914,58.461L46.865,58.395L46.846,58.318L46.810,58.253L46.706,58.227L46.671,58.184L46.582,58.100L46.490,58.038L46.448,58.063L46.416,58.124L46.343,58.078L46.217,57.950L46.219,57.892L46.189,57.851L46.140,57.825L46.079,57.806L46.093,57.754L46.079,57.705L46.043,57.659L45.986,57.615L45.930,57.683L45.849,57.705L45.755,57.695L45.660,57.666L45.798,57.240L45.724,57.193L45.716,57.127L45.719,57.055L45.685,56.983L45.643,56.973L45.506,57.003L45.428,57.006L45.491,56.927L45.544,56.815L45.538,56.717L45.428,56.679L45.498,56.507L45.544,56.428L45.592,56.394L45.628,56.379L45.615,56.347L45.567,56.300L45.531,56.291L45.424,56.304L45.383,56.300L45.336,56.264L45.306,56.217L45.263,56.177L45.173,56.161L44.989,56.161L44.910,56.140L44.879,56.090L44.836,56.061L44.742,56.056L44.598,56.067L44.556,56.087L44.526,56.119L44.491,56.147L44.439,56.161L44.391,56.153L44.345,56.121L44.168,56.098L44.095,56.070L44.040,56.019L44.012,55.916L44.070,55.767L44.040,55.692L44.073,55.660L44.089,55.638L44.104,55.619L44.137,55.603L44.090,55.496L44.086,55.347L44.142,55.219L44.271,55.174L44.307,55.193L44.345,55.207L44.383,55.230L44.417,55.267L44.790,55.198L45.508,55.518L46.233,55.971L46.633,56.300L46.759,56.250L46.846,56.304L46.982,56.514L47.082,56.578L47.188,56.589L47.290,56.581L47.375,56.585L47.460,56.622L47.659,56.745L47.697,56.796L47.762,56.862L47.907,56.869L48.065,56.834L48.164,56.772L48.416,56.856L48.531,56.862L48.626,56.819L48.685,56.873L48.785,57.001L48.856,57.053L48.935,57.078L49.155,57.053L49.270,57.077L49.304,57.060L49.335,56.916L49.380,56.881L49.441,56.867L49.506,56.866L49.640,56.928L49.821,57.183L49.897,57.240L49.974,57.286L50.030,57.390L50.168,57.759L50.199,57.806L50.248,57.845L50.293,57.859L50.327,57.889L50.362,58.113L50.419,58.217L50.507,58.296L50.747,58.456L50.817,58.541L50.844,58.649L50.845,59.040L50.824,59.073L50.781,59.087L50.732,59.123L50.689,59.167L50.663,59.209L50.708,59.380L50.923,59.414L51.193,59.405L51.405,59.443ZM83.833,53.022L83.781,52.899L83.811,52.836L83.883,52.842L83.960,52.930L83.986,53.019L83.968,53.072L83.913,53.079L83.833,53.022ZM83.282,52.453L83.367,52.443L83.393,52.462L83.364,52.475L83.282,52.453ZM48.722,52.780L48.626,52.699L48.534,52.546L48.468,52.363L48.389,51.883L48.399,51.793L48.468,51.691L48.549,51.679L48.636,51.689L48.722,51.654L48.727,51.709L48.715,51.745L48.675,51.793L48.663,51.845L48.653,51.867L48.626,51.887L48.667,51.985L48.753,52.551L48.753,52.664L48.722,52.780ZM44.782,49.778L44.752,49.791L44.677,49.811L44.648,49.824L44.648,49.681L44.604,49.550L44.459,49.306L44.509,49.269L44.541,49.274L44.598,49.357L44.688,49.451L44.920,49.594L44.967,49.661L44.995,49.770L45.198,50.059L45.369,50.407L45.452,50.505L45.488,50.562L45.538,50.714L45.592,50.788L45.657,50.858L45.710,50.933L45.798,51.092L45.844,51.218L45.858,51.336L45.848,51.583L45.871,51.698L45.969,51.926L45.986,52.078L45.954,52.233L45.889,52.355L45.825,52.379L45.798,52.240L45.521,51.933L45.457,51.766L45.414,51.691L45.340,51.654L45.267,51.676L45.218,51.868L45.148,51.985L45.038,51.868L44.919,51.708L44.822,51.540L44.782,51.396L44.782,50.977L44.782,50.577L44.766,50.427L44.769,50.340L44.879,50.142L44.858,50.032L44.805,49.920L44.782,49.778ZM40.941,52.686L40.930,52.891L40.753,53.006L40.244,53.112L39.980,53.197L39.836,53.273L39.714,53.370L39.225,53.247L38.794,53.042L38.646,53.014L38.369,53.065L38.282,53.041L38.223,52.979L38.173,52.904L38.113,52.831L38.084,52.824L38.005,52.837L37.975,52.831L37.958,52.807L37.914,52.718L37.882,52.686L37.683,52.606L37.627,52.569L37.521,52.534L36.764,52.500L36.193,52.589L35.891,52.594L35.704,52.571L35.629,52.571L35.568,52.594L35.522,52.569L35.378,52.546L35.229,52.505L35.079,52.494L34.932,52.469L34.701,52.347L34.594,52.313L34.463,52.333L34.355,52.381L34.245,52.388L34.106,52.286L33.793,51.966L33.672,51.887L33.487,51.793L33.480,51.765L33.491,51.684L33.487,51.654L33.460,51.625L33.404,51.610L33.369,51.583L33.344,51.523L33.337,51.453L33.323,51.397L33.275,51.373L33.162,51.356L33.141,51.314L33.159,51.253L33.160,51.181L33.097,51.027L33.018,50.888L32.921,50.762L32.811,50.647L32.710,50.573L32.665,50.525L32.647,50.460L32.735,50.415L32.800,50.363L32.837,50.293L32.824,50.222L32.728,50.081L32.698,50.016L32.696,49.935L32.745,49.754L32.737,49.682L32.706,49.591L32.698,49.518L32.626,49.446L32.600,49.426L32.629,49.381L32.698,49.306L32.718,49.072L32.761,48.973L32.860,48.931L32.965,48.901L33.390,48.647L33.624,48.728L33.863,48.882L34.226,49.212L34.500,49.412L34.544,49.471L34.573,49.570L34.645,49.687L34.736,49.797L34.825,49.871L34.949,49.915L35.092,49.928L35.355,49.918L35.426,49.908L35.490,49.880L35.546,49.842L35.591,49.801L35.650,49.787L35.736,49.809L35.891,49.871L36.026,49.909L36.099,49.920L36.171,49.918L36.237,49.891L36.356,49.798L36.422,49.778L36.566,49.793L36.783,49.856L36.914,49.871L36.959,49.858L37.016,49.798L37.052,49.778L37.090,49.781L37.148,49.818L37.186,49.824L37.694,49.824L37.721,49.817L37.790,49.783L37.832,49.778L37.843,49.793L37.872,49.824L37.912,49.856L38.049,49.915L38.189,50.109L38.460,50.204L38.570,50.329L38.760,50.624L39.011,50.590L39.319,50.727L39.603,50.939L39.779,51.134L39.826,51.249L39.855,51.390L39.870,51.677L39.904,51.732L39.978,51.734L40.087,51.700L40.172,51.714L40.242,51.748L40.383,51.841L40.608,51.902L40.664,51.933L40.680,52.003L40.674,52.098L40.692,52.183L40.777,52.219L40.800,52.252L40.806,52.327L40.802,52.474L40.819,52.540L40.855,52.581L40.900,52.621L40.941,52.686ZM34.200,48.132L34.104,48.088L34.046,47.980L34.035,47.841L34.083,47.711L34.124,47.702L34.157,47.703L34.189,47.694L34.226,47.660L34.276,47.791L34.307,47.946L34.292,48.078L34.200,48.132ZM37.073,48.039L37.148,48.016L37.226,47.963L37.289,47.902L37.330,47.851L37.415,47.516L37.485,47.372L37.602,47.384L37.784,47.710L37.858,47.758L37.960,47.761L38.041,47.773L38.103,47.802L38.156,47.851L38.073,47.937L37.973,48.120L37.882,48.179L37.832,48.225L37.688,48.178L37.551,48.097L37.417,48.045L37.283,48.085L37.311,48.169L37.211,48.227L37.056,48.261L36.914,48.272L36.947,48.218L36.942,48.175L36.899,48.145L36.817,48.132L36.856,48.065L36.914,48.038L37.073,48.039ZM29.917,47.337L29.986,47.327L30.125,47.165L30.194,47.108L30.192,47.138L30.181,47.157L30.164,47.173L30.148,47.197L30.148,47.265L30.135,47.283L30.148,47.337L30.082,47.403L30.066,47.464L30.102,47.496L30.194,47.473L30.175,47.642L30.077,47.754L29.775,47.898L29.781,47.713L29.804,47.585L29.917,47.337ZM36.010,47.337L35.960,47.329L35.922,47.306L35.899,47.269L35.891,47.220L35.945,47.204L36.067,47.190L36.193,47.151L36.264,47.056L36.310,47.108L36.342,47.053L36.354,47.010L36.343,46.967L36.310,46.911L36.336,46.881L36.355,46.879L36.401,46.911L36.522,46.965L36.647,46.953L36.765,46.968L36.863,47.108L36.914,47.108L36.980,46.993L37.100,47.012L37.235,47.108L37.351,47.220L37.393,47.372L37.348,47.566L37.252,47.744L37.144,47.851L37.121,47.799L37.097,47.777L37.061,47.780L37.006,47.801L36.998,47.720L36.960,47.658L36.898,47.623L36.817,47.618L36.834,47.655L36.863,47.758L36.817,47.758L36.707,47.578L36.623,47.510L36.518,47.546L36.416,47.594L36.290,47.599L36.167,47.570L36.075,47.524L36.061,47.483L36.058,47.421L36.048,47.362L36.010,47.337ZM29.728,47.073L29.780,47.063L29.917,47.108L29.691,47.566L29.594,47.660L29.272,47.758L29.213,47.717L29.166,47.647L29.113,47.607L29.036,47.660L28.864,47.419L28.876,47.342L29.087,47.337L29.045,47.246L29.067,47.181L29.131,47.159L29.221,47.197L29.221,47.108L29.254,47.120L29.359,47.150L29.350,47.078L29.323,47.015L29.280,46.959L29.221,46.911L29.318,46.911L29.384,46.945L29.437,46.949L29.476,46.925L29.502,46.870L29.547,46.963L29.558,47.035L29.574,47.093L29.641,47.150L29.675,47.149L29.728,47.073ZM35.891,47.108L35.807,47.043L35.816,46.973L35.863,46.894L35.891,46.797L35.859,46.616L35.881,46.560L35.982,46.542L36.089,46.684L36.125,46.774L36.121,46.911L36.026,46.871L35.970,46.921L35.891,47.108ZM19.242,45.131L19.377,45.196L19.475,45.341L19.468,45.485L19.288,45.551L19.229,45.532L18.986,45.406L18.663,45.318L18.304,45.165L18.140,45.044L18.160,44.939L18.412,44.977L18.521,44.981L18.622,44.939L18.663,44.990L18.720,44.900L18.758,44.860L18.797,44.841L18.859,44.852L18.898,44.886L18.927,44.922L18.961,44.939L19.074,44.969L19.144,45.034L19.193,45.101L19.242,45.131ZM23.387,45.406L23.575,45.481L23.568,45.544L23.545,45.598L23.508,45.635L23.354,45.674L23.213,45.792L23.106,45.832L22.977,45.629L22.946,45.593L22.879,45.556L22.879,45.471L22.925,45.295L22.957,45.232L23.156,45.079L23.192,45.018L23.221,44.940L23.241,44.850L23.248,44.752L23.294,44.752L23.294,44.897L23.350,44.997L23.397,45.155L23.413,45.311L23.387,45.406ZM22.225,43.718L22.365,43.686L22.535,43.686L22.677,43.732L22.736,43.836L22.753,43.982L22.743,44.032L22.690,44.093L22.627,44.111L22.551,44.104L22.486,44.110L22.459,44.165L22.428,44.190L22.297,44.241L22.280,44.284L22.320,44.325L22.453,44.345L22.506,44.378L22.544,44.354L22.572,44.343L22.644,44.331L22.558,44.446L22.514,44.485L22.459,44.519L22.613,44.674L22.555,44.834L22.280,45.079L22.195,45.208L22.162,45.247L22.101,45.283L21.984,45.311L21.931,45.341L21.834,45.355L21.685,45.324L21.550,45.278L21.491,45.247L21.473,45.201L21.432,45.170L21.352,45.131L21.323,45.096L21.283,45.025L21.255,44.990L21.058,44.814L21.025,44.775L21.025,44.425L21.071,44.186L21.098,44.145L21.138,44.105L21.168,44.048L21.163,43.952L21.346,44.065L21.419,44.068L21.445,43.952L21.491,43.959L21.514,43.979L21.537,44.050L21.592,43.961L21.573,43.895L21.537,43.824L21.537,43.718L21.578,43.672L21.813,43.579L21.865,43.569L21.885,43.559L21.906,43.532L21.956,43.579L21.956,43.625L21.899,43.668L21.876,43.720L21.887,43.777L21.931,43.836L22.019,43.873L22.093,43.836L22.159,43.770L22.225,43.718ZM17.507,44.050L17.477,44.050L17.447,44.031L17.412,44.021L17.367,44.050L17.358,44.085L17.367,44.238L17.317,44.435L17.309,44.546L17.344,44.637L17.589,44.900L17.726,44.997L17.879,45.037L17.879,45.079L17.774,45.104L17.648,45.098L17.527,45.068L17.437,45.014L17.358,44.936L17.310,44.907L17.250,44.897L17.193,44.869L17.183,44.803L17.188,44.725L17.183,44.663L17.139,44.584L16.960,44.337L16.881,44.284L16.772,44.249L16.626,44.165L16.496,44.061L16.441,43.976L16.459,43.877L16.503,43.793L16.562,43.725L16.625,43.672L16.805,43.576L16.908,43.501L17.036,43.245L17.227,43.057L17.431,42.925L17.556,42.927L17.678,43.010L17.781,43.141L17.853,43.312L17.879,43.511L17.856,43.554L17.758,43.669L17.687,43.899L17.670,43.931L17.651,43.954L17.638,43.999L17.624,44.025L17.582,44.058L17.551,44.060L17.526,44.050L17.507,44.050ZM33.252,43.579L33.331,43.651L33.325,43.696L33.252,43.766L33.191,43.799L33.128,43.808L33.058,43.796L32.976,43.766L32.898,43.725L32.842,43.679L32.745,43.579L32.663,43.448L32.606,43.424L32.514,43.489L32.419,43.381L32.314,43.324L32.240,43.243L32.233,43.064L32.283,42.883L32.371,42.767L32.507,42.703L32.698,42.685L32.896,42.731L32.951,42.842L32.929,43.162L32.971,43.308L33.049,43.405L33.252,43.579ZM53.863,42.760L53.808,42.690L53.838,42.660L53.911,42.663L53.992,42.692L53.968,42.719L53.939,42.738L53.903,42.750L53.863,42.760ZM44.552,51.181L44.202,50.934L44.137,50.928L44.118,50.812L44.070,50.708L43.802,50.356L43.767,50.293L43.751,50.225L43.739,50.092L43.717,50.016L43.644,49.899L43.325,49.565L42.862,49.329L42.700,49.139L42.385,49.096L42.421,48.978L42.232,48.763L42.141,48.698L42.089,48.688L41.980,48.698L41.933,48.672L41.911,48.622L41.922,48.509L41.910,48.460L41.752,48.321L41.370,48.148L41.222,47.992L40.731,47.082L40.612,46.746L40.522,46.585L40.558,46.532L40.569,46.493L40.558,46.454L40.522,46.402L40.517,46.302L40.413,45.957L40.319,45.810L40.040,45.246L40.014,45.152L40.011,44.783L39.998,44.720L39.779,44.238L39.898,44.157L40.097,43.984L40.221,43.952L40.222,43.890L40.060,43.532L39.792,43.177L39.758,43.111L39.671,43.067L39.440,42.839L39.367,42.736L39.283,42.432L39.420,42.329L39.671,42.358L39.922,42.451L40.055,42.576L40.106,42.596L40.176,42.582L40.249,42.544L40.291,42.490L40.268,42.430L40.060,42.292L40.078,42.244L40.126,42.197L40.186,42.168L40.244,42.175L40.244,42.218L40.402,42.220L40.485,42.268L40.613,42.451L40.695,42.519L40.766,42.557L40.829,42.615L40.894,42.736L40.925,42.820L40.936,42.877L40.941,42.949L40.959,42.982L41.053,43.040L41.083,43.064L41.310,43.415L41.660,43.794L41.933,44.025L42.093,44.235L42.159,44.366L42.186,44.494L42.132,44.637L42.004,44.717L41.852,44.773L41.725,44.841L41.770,44.931L41.799,45.021L41.796,45.111L41.689,45.298L41.687,45.385L41.710,45.473L41.725,45.573L41.753,45.674L41.880,45.794L41.910,45.857L41.951,45.924L42.047,45.907L42.209,45.832L42.269,45.859L42.454,45.999L42.513,46.066L42.518,46.114L42.489,46.151L42.473,46.194L42.513,46.257L42.568,46.289L42.612,46.285L42.642,46.268L42.652,46.257L42.810,46.332L42.980,46.453L43.135,46.605L43.256,46.775L43.168,46.741L43.099,46.794L43.079,46.872L43.138,46.911L43.220,46.946L43.298,47.030L43.337,47.138L43.302,47.244L43.362,47.277L43.388,47.321L43.396,47.376L43.395,47.449L43.407,47.521L43.441,47.539L43.485,47.540L43.533,47.566L43.573,47.595L43.620,47.619L43.660,47.660L43.675,47.734L43.652,47.765L43.482,47.898L43.606,47.954L43.649,47.990L43.675,48.039L43.763,48.004L43.842,48.025L43.883,48.087L43.860,48.179L43.911,48.185L44.040,48.225L44.040,48.272L43.856,48.315L43.789,48.319L43.765,48.356L43.771,48.436L43.799,48.516L43.835,48.553L43.878,48.607L43.918,48.854L43.998,48.931L43.907,48.981L43.865,48.938L43.832,48.870L43.767,48.838L43.705,48.876L43.720,48.950L43.776,49.032L44.042,49.309L44.119,49.418L44.332,49.954L44.393,50.016L44.464,50.072L44.559,50.203L44.690,50.437L44.770,50.976L44.767,51.122L44.725,51.209L44.653,51.231L44.552,51.181ZM15.929,41.984L15.966,42.211L16.016,42.307L16.113,42.358L16.113,42.409L15.918,42.294L15.820,42.040L15.695,41.806L15.421,41.749L15.445,41.729L15.489,41.679L15.513,41.656L15.403,41.606L15.285,41.512L15.236,41.420L15.329,41.371L15.421,41.447L15.595,41.459L15.764,41.493L15.840,41.633L15.851,41.721L15.929,41.984ZM16.486,42.077L16.441,42.077L16.427,41.980L16.376,41.962L16.311,41.966L16.252,41.941L16.226,41.890L16.164,41.699L16.099,41.578L16.023,41.476L15.924,41.391L15.790,41.325L15.840,41.282L15.771,41.275L15.740,41.258L15.735,41.229L15.744,41.188L15.909,41.246L16.067,41.234L16.214,41.246L16.348,41.371L16.413,41.515L16.462,41.694L16.490,41.889L16.486,42.077ZM13.803,40.478L13.827,40.593L13.898,40.576L14.010,40.873L13.836,40.866L13.634,40.690L13.663,40.478L13.803,40.478ZM20.471,43.952L20.564,44.009L20.627,44.094L20.648,44.204L20.610,44.331L20.564,44.331L20.549,44.219L20.499,44.147L20.446,44.102L20.421,44.071L20.398,43.973L20.339,43.877L20.190,43.718L20.012,43.620L19.643,43.587L19.473,43.511L19.176,43.301L19.016,43.109L18.986,43.087L18.975,42.987L18.920,42.832L18.898,42.736L18.898,42.315L18.948,42.394L18.975,42.475L18.986,42.664L19.023,42.747L19.181,42.791L19.217,42.853L19.239,42.924L19.287,42.913L19.334,42.847L19.356,42.760L19.320,42.689L19.160,42.536L19.095,42.314L19.021,42.150L18.915,41.992L18.797,41.890L18.714,41.869L18.652,41.887L18.584,41.920L18.479,41.941L18.435,41.913L18.387,41.863L18.339,41.853L18.298,41.941L18.224,41.896L18.168,41.896L18.064,41.941L18.057,41.947L18.003,41.973L17.972,41.984L17.741,41.987L17.492,41.963L17.414,41.984L17.355,42.081L17.310,42.209L17.238,42.331L17.091,42.409L16.972,42.383L16.741,42.248L16.671,42.268L16.625,42.268L16.583,41.633L16.602,41.590L16.700,41.452L16.741,41.422L16.837,41.422L16.916,41.412L16.982,41.384L17.045,41.325L17.077,41.413L17.124,41.440L17.177,41.421L17.224,41.371L17.245,41.308L17.246,41.161L17.275,41.091L17.252,41.010L17.289,40.917L17.437,40.737L17.504,40.635L17.605,40.405L17.670,40.315L17.958,40.029L18.064,39.960L18.173,39.918L18.377,39.863L18.479,39.823L18.476,39.856L18.485,39.863L18.503,39.864L18.526,39.870L18.995,40.137L19.176,40.151L19.128,40.274L19.149,40.361L19.193,40.444L19.217,40.552L19.209,40.813L19.222,40.940L19.268,41.044L19.204,41.170L19.226,41.258L19.381,41.396L19.440,41.505L19.420,41.590L19.387,41.669L19.405,41.749L19.452,41.700L19.491,41.710L19.534,41.740L19.590,41.749L19.633,41.733L19.715,41.679L19.775,41.656L19.907,41.631L20.017,41.630L20.123,41.666L20.317,41.807L20.344,41.835L20.379,41.890L20.394,41.933L20.421,42.077L20.504,42.191L20.679,42.311L20.748,42.409L20.737,42.581L20.748,42.643L20.786,42.704L20.891,42.788L20.932,42.830L20.988,42.945L21.032,43.184L21.071,43.301L21.102,43.324L21.146,43.328L21.187,43.343L21.214,43.395L21.212,43.462L21.187,43.518L21.054,43.744L21.037,43.783L21.025,43.860L21.022,43.923L21.031,43.983L21.047,44.039L21.071,44.093L20.654,43.928L20.471,43.910L20.471,43.952ZM12.455,40.597L12.488,40.774L12.491,40.870L12.455,40.955L12.508,41.100L12.488,41.268L12.411,41.408L12.295,41.465L12.234,41.381L12.064,40.880L11.964,40.726L11.947,40.574L11.994,40.244L11.921,39.898L11.923,39.749L12.041,39.683L12.141,39.771L12.225,39.870L12.255,39.942L12.296,40.104L12.387,40.259L12.423,40.377L12.447,40.500L12.455,40.597ZM15.790,40.955L15.449,40.983L15.098,40.694L14.827,40.287L14.725,39.960L14.736,39.873L14.759,39.791L14.821,39.637L14.982,39.387L15.005,39.333L15.096,39.244L15.304,39.160L15.536,39.100L15.698,39.075L16.012,39.241L16.234,39.482L16.375,39.776L16.441,40.104L16.450,40.430L16.431,40.546L16.329,40.830L16.213,41.027L16.071,41.117L15.929,40.955L15.871,40.977L15.843,40.980L15.790,40.955ZM13.779,38.182L13.831,38.281L13.728,38.500L13.479,38.842L13.353,38.948L13.189,39.120L13.083,39.311L13.131,39.475L13.194,39.558L13.195,39.632L13.146,39.690L13.060,39.726L13.039,39.702L12.983,39.655L12.907,39.635L12.828,39.683L12.783,39.683L12.768,39.545L12.797,39.408L12.778,39.304L12.460,39.217L12.436,39.103L12.506,38.819L12.479,38.764L12.419,38.718L12.355,38.679L12.318,38.650L12.230,38.466L12.183,38.416L12.069,38.377L12.064,38.369L12.009,38.362L12.003,38.342L12.010,38.313L11.939,38.157L11.899,38.135L11.810,38.182L11.684,37.872L11.732,37.565L11.912,37.307L12.183,37.149L12.271,37.170L12.334,37.200L12.390,37.205L12.455,37.149L12.475,37.207L12.511,37.257L12.594,37.337L12.610,37.371L12.603,37.401L12.609,37.423L12.715,37.436L12.735,37.456L12.738,37.492L12.737,37.546L12.765,37.574L12.831,37.601L12.896,37.648L12.953,37.809L13.019,37.854L13.156,37.898L13.106,37.949L13.198,38.046L13.351,37.988L13.502,38.043L13.647,38.134L13.779,38.182ZM5.421,35.461L5.529,35.517L5.604,35.592L5.667,35.671L5.745,35.742L5.604,35.872L5.461,35.906L5.117,35.878L5.000,35.822L5.043,35.698L5.232,35.461L5.279,35.477L5.317,35.476L5.421,35.461ZM7.087,33.390L7.289,33.440L7.340,33.464L7.433,33.581L7.432,33.673L7.393,33.767L7.367,33.885L7.318,33.929L7.204,33.962L7.079,33.974L6.994,33.955L6.883,34.056L6.771,34.054L6.655,34.040L6.533,34.100L6.471,34.067L6.393,33.992L6.344,33.955L6.153,33.896L6.114,33.862L6.125,33.769L6.302,33.390L6.357,33.423L6.378,33.321L6.419,33.197L6.533,33.156L6.510,33.102L6.513,33.059L6.533,33.016L6.618,33.049L6.856,33.253L7.087,33.390ZM9.125,32.688L9.179,32.717L9.307,32.754L9.356,32.778L9.290,32.819L9.218,32.829L9.146,32.813L9.079,32.778L9.063,32.884L9.030,32.989L8.976,33.082L8.890,33.156L8.883,33.103L8.871,33.076L8.856,33.053L8.844,33.016L8.799,33.071L8.746,33.105L8.683,33.119L8.614,33.114L8.721,33.039L8.821,32.945L8.843,32.889L8.812,32.842L8.769,32.795L8.756,32.735L8.779,32.638L8.808,32.607L8.867,32.594L8.914,32.574L8.878,32.534L8.820,32.500L8.798,32.501L8.711,32.371L8.642,32.232L8.660,32.095L8.844,31.982L8.987,31.982L8.987,32.029L8.894,32.053L8.821,32.106L8.774,32.186L8.756,32.287L8.815,32.344L8.931,32.374L9.018,32.414L8.987,32.501L9.087,32.650L9.125,32.688ZM82.147,65.042L82.156,65.138L82.148,65.271L82.516,65.244L82.554,65.514L82.048,65.549L81.906,65.566L81.793,65.562L81.600,65.538L81.500,65.401L81.419,65.325L81.326,65.290L81.290,65.240L81.172,65.095L81.088,64.991L81.088,64.879L81.142,64.808L81.209,64.771L81.347,64.704L81.473,64.704L81.627,64.711L81.782,64.686L81.941,64.719L82.226,64.822L82.147,65.042ZM79.669,62.594L79.513,62.762L79.461,62.767L79.393,62.784L79.342,62.770L79.285,62.738L79.284,62.692L79.287,62.630L79.329,62.579L79.352,62.533L79.344,62.439L79.248,62.496L79.170,62.560L79.131,62.501L79.145,62.346L79.243,62.222L79.362,62.113L79.452,62.083L79.555,62.121L79.659,62.205L79.714,62.302L79.720,62.432L79.669,62.594ZM76.903,58.555L76.829,58.632L76.802,58.766L76.550,58.865L76.469,58.937L76.345,58.995L76.272,59.053L76.140,59.044L76.094,59.057L75.919,58.988L75.834,59.054L75.774,59.099L75.698,59.077L75.459,59.115L75.172,59.446L74.971,59.751L74.885,59.666L74.906,59.477L74.825,59.381L74.743,59.365L74.552,59.538L74.351,59.526L74.258,59.364L74.238,59.094L74.234,58.951L74.364,58.860L74.425,58.767L74.502,58.659L74.564,58.655L74.534,58.891L74.634,59.002L74.700,59.022L74.735,58.933L74.742,58.829L74.763,58.648L74.875,58.491L75.079,58.300L75.385,58.278L75.866,58.330L76.084,58.233L76.317,58.281L76.431,58.343L76.450,58.374L76.478,58.405L76.678,58.378L76.868,58.385L76.903,58.555ZM25.126,37.429L25.224,37.472L25.332,37.571L25.399,37.681L25.379,37.757L25.272,37.769L25.172,37.709L25.094,37.614L25.051,37.523L24.980,37.615L24.852,37.585L24.590,37.429L24.604,37.494L24.687,37.659L24.621,37.658L24.452,37.617L24.288,37.617L24.298,37.573L24.269,37.476L24.192,37.380L24.057,37.337L24.032,37.314L23.998,37.266L23.982,37.217L24.011,37.196L24.076,37.203L24.183,37.234L24.221,37.239L24.233,37.252L24.290,37.264L24.329,37.247L24.288,37.173L24.288,37.133L24.335,37.104L24.400,37.103L24.452,37.149L24.530,37.185L24.697,37.220L24.776,37.326L24.889,37.380L25.020,37.417L25.126,37.429ZM34.406,43.602L34.605,43.756L34.683,43.872L34.594,43.952L34.534,43.940L34.318,43.813L34.286,43.806L34.207,43.817L34.174,43.813L34.140,43.776L34.124,43.730L34.104,43.689L33.987,43.643L33.907,43.517L33.767,43.472L33.720,43.425L33.626,43.301L33.413,43.135L33.348,43.064L33.334,42.997L33.348,42.937L33.331,42.893L33.229,42.877L33.152,42.830L32.837,42.549L32.274,42.428L32.034,42.281L31.865,42.211L31.715,42.084L31.605,42.025L31.489,41.999L31.398,42.030L31.171,41.892L31.047,41.855L30.933,41.890L30.864,41.732L30.803,41.646L30.725,41.609L30.631,41.602L30.542,41.572L30.480,41.515L30.471,41.422L30.324,41.472L30.179,41.443L30.042,41.369L29.409,40.904L29.367,40.896L29.263,40.911L29.221,40.904L29.192,40.860L29.187,40.799L29.188,40.743L29.179,40.712L29.125,40.703L29.098,40.729L29.075,40.759L29.036,40.763L28.852,40.669L28.808,40.663L28.711,40.676L28.667,40.669L28.666,40.651L28.636,40.557L28.621,40.529L28.545,40.493L28.487,40.477L28.450,40.439L28.437,40.338L28.392,40.373L28.248,40.435L28.236,40.299L28.175,40.194L28.077,40.128L27.950,40.104L27.556,39.917L27.520,39.655L27.463,39.537L27.348,39.568L27.142,39.518L27.043,39.454L27.094,39.356L27.020,39.272L26.952,39.215L26.906,39.215L26.835,39.308L26.764,39.222L26.671,38.977L26.596,38.886L26.493,38.806L26.376,38.764L26.260,38.795L26.195,38.672L25.900,38.508L25.794,38.416L25.761,38.323L25.764,38.251L25.782,38.185L25.794,38.113L25.794,37.829L25.266,37.383L24.918,37.196L24.858,37.090L24.848,36.972L24.895,36.893L25.010,36.911L25.149,36.995L25.812,37.224L25.868,37.262L25.934,37.264L25.994,37.183L26.066,37.113L26.163,37.149L26.188,37.123L26.207,37.109L26.228,37.101L26.260,37.094L26.310,37.229L26.408,37.317L26.671,37.429L26.698,37.389L26.744,37.341L26.795,37.301L26.836,37.285L26.921,37.314L26.956,37.383L26.978,37.468L27.021,37.546L27.153,37.672L27.235,37.732L27.302,37.757L27.345,37.802L27.451,38.001L27.574,38.074L27.678,38.214L27.736,38.276L27.820,38.327L28.063,38.416L28.184,38.490L28.387,38.665L28.529,38.744L28.460,38.879L28.511,39.000L28.617,39.064L28.713,39.028L28.983,39.140L29.062,39.192L29.108,39.279L29.135,39.379L29.178,39.438L29.272,39.403L29.455,39.548L29.608,39.475L29.734,39.447L29.857,39.456L30.006,39.495L29.920,39.535L29.942,39.598L30.012,39.657L30.077,39.683L30.191,39.694L30.255,39.726L30.293,39.785L30.328,39.870L30.443,39.784L30.511,39.843L30.565,39.953L30.634,40.010L30.854,40.029L30.945,40.004L30.983,39.917L31.108,39.975L31.159,40.008L31.214,40.057L31.319,39.978L31.389,40.054L31.447,40.197L31.515,40.315L31.625,40.400L31.817,40.507L31.906,40.576L31.924,40.586L32.002,40.619L32.017,40.640L32.034,40.696L32.045,40.712L32.359,40.965L32.984,41.341L34.289,42.330L34.319,42.397L34.174,42.549L34.033,42.745L33.982,42.783L33.923,42.749L33.847,42.730L33.771,42.739L33.713,42.783L33.718,42.823L33.824,42.898L33.880,43.013L33.944,43.013L34.008,42.981L34.063,42.920L34.126,42.977L34.329,43.261L34.383,43.364L34.402,43.463L34.406,43.602ZM24.309,37.004L24.254,36.946L24.197,36.868L24.122,36.799L23.921,36.748L23.778,36.652L23.687,36.631L23.637,36.593L23.627,36.515L23.656,36.447L23.710,36.444L23.775,36.488L23.845,36.515L23.906,36.554L23.944,36.631L24.033,36.603L24.112,36.636L24.267,36.770L24.350,36.702L24.497,36.713L24.657,36.776L24.779,36.864L24.714,36.898L24.669,36.946L24.656,37.010L24.687,37.094L24.386,37.033L24.309,37.004ZM19.216,36.018L19.266,36.069L19.224,36.121L19.209,36.193L19.224,36.272L19.266,36.345L19.081,36.209L19.074,36.312L19.005,36.350L18.796,36.345L18.796,36.303L18.837,36.280L18.896,36.233L18.935,36.209L18.668,36.130L18.593,36.090L18.539,36.081L18.366,36.090L18.297,36.069L18.407,35.989L18.523,35.924L18.701,35.958L18.892,35.936L19.062,35.943L19.173,36.069L19.216,36.018ZM23.755,36.069L23.728,36.131L23.710,36.199L23.703,36.272L23.707,36.345L23.607,36.287L23.573,36.252L23.524,36.490L23.430,36.422L23.372,36.330L23.296,36.257L23.154,36.252L23.154,36.209L23.246,36.111L23.293,36.111L23.356,36.123L23.532,35.954L23.661,35.924L23.661,36.111L23.687,36.099L23.731,36.083L23.755,36.069ZM20.328,36.043L20.341,36.146L20.421,36.397L20.471,36.490L20.288,36.501L20.192,36.495L20.079,36.447L20.035,36.457L19.988,36.478L19.937,36.490L19.886,36.475L19.843,36.411L19.798,36.397L19.668,36.319L19.739,36.146L19.960,35.878L20.282,35.994L20.328,36.043ZM18.663,35.531L18.663,35.698L18.640,35.789L18.553,35.828L18.364,35.835L18.282,35.884L18.110,36.209L18.097,36.129L18.068,36.086L18.026,36.081L17.972,36.111L17.883,36.040L17.719,36.003L17.414,35.975L17.282,35.932L17.191,35.844L17.164,35.717L17.224,35.554L17.167,35.575L17.127,35.607L17.045,35.695L16.992,35.670L16.961,35.691L16.952,35.788L16.823,35.713L16.583,35.631L16.441,35.554L16.083,35.525L16.022,35.531L15.978,35.598L15.882,35.594L15.787,35.524L15.714,35.317L15.642,35.218L15.550,35.128L15.467,35.087L15.407,35.119L15.275,35.174L15.182,35.185L15.237,35.087L15.174,34.974L15.073,34.884L14.943,34.823L14.796,34.802L14.703,34.767L14.594,34.678L13.963,33.932L13.935,33.868L13.918,33.783L13.888,33.708L13.826,33.675L13.735,33.651L13.685,33.592L13.617,33.441L13.352,33.069L13.270,33.016L13.204,32.950L12.968,32.544L12.857,32.465L12.535,32.296L12.435,32.263L12.354,32.226L11.600,31.562L11.583,31.539L11.441,31.421L11.396,31.326L11.343,30.953L11.345,30.815L11.396,30.719L11.621,30.528L11.737,30.507L11.893,30.529L12.028,30.580L12.108,30.669L12.155,30.691L12.204,30.727L12.225,30.788L12.255,30.848L12.319,30.849L12.385,30.825L12.414,30.809L12.671,30.885L12.850,31.022L13.198,31.421L13.293,31.505L13.598,31.712L13.887,31.791L14.309,32.080L14.591,32.216L14.835,32.262L14.951,32.321L15.034,32.350L15.108,32.394L15.140,32.476L15.166,32.526L15.228,32.534L15.304,32.530L15.371,32.544L15.438,32.601L15.583,32.803L15.840,33.016L15.897,33.116L15.916,33.236L15.929,33.531L16.003,33.838L16.113,34.100L16.179,34.187L16.250,34.260L16.312,34.347L16.348,34.474L16.452,34.411L16.486,34.377L16.540,34.497L16.629,34.586L16.746,34.643L16.881,34.661L16.973,34.704L17.038,34.802L17.078,34.919L17.091,35.014L17.129,35.073L17.218,35.116L17.414,35.180L17.490,35.225L17.573,35.292L17.647,35.374L17.695,35.461L17.737,35.461L17.753,35.347L17.803,35.343L17.874,35.385L17.949,35.414L18.094,35.414L18.162,35.401L18.407,35.310L18.539,35.305L18.630,35.372L18.663,35.531ZM94.908,69.326L94.980,69.333L95.000,69.430L94.951,69.454L94.842,69.493L94.811,69.433L94.864,69.380L94.908,69.326ZM74.182,56.689L74.117,56.709L74.064,56.695L74.031,56.629L74.037,56.551L74.053,56.504L74.093,56.472L74.189,56.496L74.248,56.588L74.234,56.656L74.182,56.689ZM39.653,39.353L39.735,39.598L39.687,39.609L39.627,39.599L39.499,39.422L39.462,39.338L39.493,39.255L39.568,39.239L39.613,39.279L39.653,39.353ZM82.559,64.860L82.563,64.921L82.524,65.026L82.413,65.106L82.294,65.126L82.249,65.049L82.285,64.936L82.375,64.848L82.498,64.837L82.559,64.860ZM77.609,55.615L77.708,55.611L77.795,55.671L77.728,55.800L77.603,55.919L77.507,55.932L77.499,55.832L77.512,55.742L77.467,55.738L77.449,55.692L77.497,55.549L77.520,55.406L77.515,55.274L77.542,55.313L77.542,55.643L77.586,55.628L77.609,55.615ZM12.011,38.672L12.036,38.695L12.105,38.745L12.078,38.848L11.939,38.917L11.818,38.853L11.825,38.792L11.879,38.725L11.950,38.668L12.011,38.672Z" fill="currentColor" stroke="currentColor" stroke-width="1" stroke-linejoin="round"/>
</svg>