<svg xmlns="http://www.w3.org/2000/svg" viewBox="0 0 100 100" role="img" aria-label="Sierra Leone">
  <title>Sierra Leone</title>
  <path d="M93.675,49.213L93.656,50.724L92.766,54.311L92.256,55.424L92.198,56.083L92.409,56.909L92.636,57.491L92.555,58.033L91.844,58.728L91.283,59.054L90.715,59.232L90.121,59.315L87.787,59.328L87.208,59.416L86.528,59.754L86.102,60.287L85.431,61.541L85.123,61.835L84.390,62.242L84.130,62.458L84.012,62.731L83.970,63.074L84.041,70.146L83.378,70.249L83.167,70.321L81.802,71.067L80.703,72.005L76.841,76.738L76.535,77.113L76.214,77.367L75.830,77.534L74.729,77.789L73.546,78.457L69.252,81.877L68.734,82.545L66.852,84.973L66.602,85.210L64.220,86.292L63.728,86.395L62.721,87.984L62.197,88.471L62.108,88.581L62.184,88.887L62.593,89.561L62.689,89.928L62.631,90.184L62.477,90.342L62.262,90.421L61.631,90.492L61.538,90.687L61.642,91.277L61.578,91.713L61.399,92.268L61.122,92.749L60.330,93.204L60.209,93.700L60.270,94.441L60.046,94.575L59.128,95.000L58.648,94.610L57.458,94.336L56.879,94.031L56.330,93.643L55.893,93.259L56.154,93.216L56.290,93.151L56.377,93.043L56.486,92.859L55.675,92.838L55.322,92.894L55.087,93.059L54.905,93.059L54.643,92.402L54.239,91.977L52.706,90.682L48.613,88.284L41.839,85.810L34.862,83.018L29.314,81.239L30.193,80.500L31.252,80.459L32.335,80.807L33.282,81.239L33.235,80.982L33.096,80.795L32.878,80.678L32.592,80.639L32.368,80.575L32.133,80.219L31.899,80.040L31.359,79.825L31.052,79.797L30.538,80.075L30.292,79.947L30.056,79.735L29.815,79.624L29.724,79.374L29.978,78.825L30.350,78.275L30.894,77.796L31.196,77.348L31.578,77.033L32.097,77.207L32.415,77.055L32.751,77.005L33.478,77.010L33.627,76.976L33.976,76.854L34.171,76.826L34.381,76.888L34.732,77.152L34.863,77.207L35.434,77.048L35.926,76.747L36.482,76.483L37.252,76.445L37.193,76.345L37.127,76.129L37.073,76.026L37.600,75.867L38.134,75.793L38.529,75.586L38.653,75.011L38.437,75.011L38.257,75.055L38.062,75.067L37.858,75.098L37.664,75.211L37.494,74.946L37.448,74.829L37.162,74.884L36.833,74.893L36.557,74.940L36.444,75.111L36.369,75.365L36.180,75.490L35.672,75.629L35.330,75.793L34.775,75.810L34.490,75.875L33.895,76.161L33.265,76.282L32.648,76.539L32.295,76.626L32.108,76.607L31.527,76.475L31.209,76.445L30.554,76.203L30.342,75.643L30.190,75.026L29.707,74.611L29.707,74.431L29.851,74.297L29.932,74.125L29.953,73.900L29.924,73.612L29.706,73.811L29.494,73.947L29.302,73.962L29.134,73.796L28.936,73.796L28.936,74.211L28.233,73.524L28.596,72.544L29.707,70.997L30.180,71.251L30.336,71.397L30.517,71.197L30.345,70.815L30.321,70.412L30.490,70.101L30.894,69.999L30.310,69.601L29.790,70.062L28.936,71.397L27.494,72.296L26.556,72.640L26.135,72.305L25.911,72.319L24.053,71.963L23.867,71.958L23.681,71.929L23.387,71.815L22.236,70.996L21.815,70.803L21.458,70.533L21.195,69.999L21.098,69.463L21.185,69.106L21.476,68.848L21.986,68.601L21.463,68.685L19.993,69.290L18.628,68.401L18.240,67.637L17.971,67.318L17.533,67.185L17.218,67.048L16.835,66.713L16.220,65.987L16.789,65.873L17.771,65.316L18.315,65.187L18.769,65.247L19.247,65.391L20.208,65.805L19.624,65.204L18.889,64.692L18.265,64.113L17.778,62.685L17.721,62.591L17.590,62.492L17.639,62.270L17.820,61.883L17.887,61.469L18.070,61.062L18.327,60.688L18.628,60.376L17.697,60.248L17.308,59.881L17.079,59.313L16.634,58.578L16.304,58.353L15.913,58.188L15.585,57.942L15.450,57.471L15.468,57.050L15.529,56.667L15.652,56.310L15.845,55.964L15.583,56.015L15.416,56.128L15.267,56.256L15.054,56.364L14.853,56.406L14.730,56.400L14.592,56.378L14.354,56.364L13.078,56.564L12.420,56.819L11.625,57.281L10.907,57.838L10.474,58.379L10.293,58.379L10.357,57.915L10.293,56.672L10.167,56.055L10.152,55.696L10.293,55.364L9.954,55.089L8.952,53.471L8.895,53.458L8.831,53.353L8.696,53.335L8.559,53.278L8.499,53.058L8.352,52.746L7.617,51.770L7.408,51.639L7.281,51.354L7.104,51.077L6.739,50.971L7.139,50.463L7.266,50.229L7.312,49.854L7.233,49.579L6.857,49.028L6.739,48.756L7.355,48.850L7.528,48.956L7.726,48.835L7.793,48.906L7.923,49.156L8.413,48.947L8.938,48.956L9.453,49.120L9.899,49.373L10.266,49.787L10.859,50.775L11.853,51.301L12.558,51.968L13.290,52.487L13.809,52.408L14.066,52.370L14.066,52.170L13.713,52.091L13.409,51.946L13.190,51.713L13.078,51.370L13.472,51.370L13.472,51.171L12.625,50.975L11.826,50.699L11.403,50.254L11.677,49.554L12.017,49.300L12.886,48.963L13.257,48.756L13.474,48.465L13.650,48.147L13.881,47.980L14.264,48.158L14.253,47.821L14.338,47.499L14.483,47.209L14.659,46.958L14.942,47.035L16.856,47.173L17.400,47.323L17.721,47.358L17.959,47.272L18.539,46.866L18.807,46.740L18.276,46.626L17.660,46.701L17.117,46.652L17.053,46.322L17.029,46.340L17.585,45.638L18.628,43.345L17.905,44.233L17.441,45.029L16.876,45.633L15.845,45.942L15.330,45.916L14.896,45.833L14.514,45.833L13.766,46.285L13.247,46.329L12.766,46.159L12.468,45.759L13.119,45.638L13.462,45.283L13.754,44.862L14.264,44.544L14.264,44.344L14.006,44.302L13.848,44.250L13.744,44.140L13.652,43.944L13.472,43.944L13.198,44.845L12.993,45.195L12.666,45.342L12.201,45.197L11.791,44.845L11.265,44.144L10.968,44.309L10.742,44.276L10.580,44.079L10.474,43.762L10.332,44.258L10.572,44.578L11.010,44.783L11.480,44.944L11.085,45.142L11.882,45.740L11.926,46.393L11.503,47.021L10.887,47.540L11.008,47.786L11.007,48.047L10.867,48.254L10.572,48.337L10.337,48.247L10.160,48.025L9.393,46.740L9.177,46.278L8.994,45.419L8.761,44.885L8.464,44.385L8.192,44.044L8.058,43.726L8.034,43.245L8.086,42.345L8.231,42.330L8.086,39.231L8.895,38.316L9.223,38.237L9.350,38.339L9.447,38.530L9.685,38.715L11.908,38.698L12.369,38.623L12.958,38.362L13.790,38.280L15.450,38.316L14.256,37.948L14.066,38.034L13.848,38.196L13.352,38.198L12.815,38.093L12.468,37.934L12.148,38.073L11.685,38.162L11.265,38.112L11.085,37.824L10.993,37.605L10.791,37.546L10.583,37.551L10.474,37.516L10.452,37.288L10.527,37.198L10.622,37.146L10.909,36.572L11.488,36.301L12.208,36.170L12.864,36.136L12.864,35.917L12.360,35.756L11.706,35.873L10.474,36.317L9.800,36.388L9.073,36.232L8.505,35.817L8.300,35.120L8.188,35.251L8.124,35.266L8.093,35.313L8.086,35.538L7.662,35.120L7.500,35.152L7.447,35.270L7.382,35.368L7.312,35.538L6.691,35.030L6.790,33.638L6.325,33.104L6.325,32.923L7.011,32.422L8.277,32.028L9.032,31.892L9.488,32.001L10.585,32.694L11.245,32.923L11.683,32.851L12.561,32.206L13.677,31.663L14.202,31.329L14.596,30.838L14.978,29.920L15.216,29.494L15.495,29.096L15.659,29.011L16.113,28.967L16.219,28.934L16.188,28.693L15.791,28.204L15.663,27.910L15.796,27.069L16.255,26.167L16.859,25.738L17.423,26.326L18.056,25.989L18.622,25.950L19.178,25.989L19.787,25.888L20.270,25.484L20.961,24.334L21.463,24.078L21.861,23.966L21.878,23.741L21.762,23.477L21.756,23.245L21.988,22.937L22.153,22.792L22.640,22.516L22.764,22.537L22.911,22.636L23.054,22.667L23.166,22.483L23.241,22.306L23.338,22.196L23.538,22.027L23.671,21.843L24.657,18.670L24.663,18.524L24.606,18.391L24.625,18.270L24.847,18.163L25.012,18.113L25.104,18.063L25.166,17.986L25.243,17.853L25.495,16.894L25.631,16.647L25.899,16.547L26.181,16.582L26.413,16.564L26.531,16.311L26.566,15.072L26.652,14.979L27.124,14.146L27.390,13.877L28.288,13.328L28.383,13.311L28.420,13.199L28.415,12.842L28.472,12.700L28.615,12.698L28.765,12.721L28.854,12.651L28.842,12.506L28.733,12.178L28.715,12.091L29.110,9.920L29.107,9.612L29.070,9.414L29.090,9.233L29.263,8.967L30.305,8.357L31.617,7.878L35.964,6.952L36.634,6.977L37.155,7.318L37.682,7.792L38.369,8.216L38.913,8.417L39.390,8.522L39.882,8.543L40.795,8.345L46.235,7.159L46.433,6.887L46.573,5.102L58.877,5.034L65.017,5.000L65.751,5.076L66.731,5.370L67.132,5.405L67.452,5.685L67.662,6.335L68.056,8.263L68.269,8.605L70.420,9.968L71.607,11.110L72.615,12.409L73.303,13.725L73.642,14.719L73.818,14.998L73.980,15.099L74.451,15.273L74.639,15.423L74.765,15.651L74.959,16.418L75.173,16.704L75.915,17.219L76.196,17.509L76.298,17.750L76.446,18.554L76.652,18.825L76.952,18.967L77.172,19.156L77.141,19.572L76.984,20.300L77.106,20.818L77.422,21.258L77.853,21.735L78.306,22.029L78.362,22.193L78.053,22.409L77.775,22.665L78.134,22.784L78.645,22.807L78.832,22.771L79.116,22.809L79.424,22.806L79.693,22.868L80.040,23.384L80.386,23.691L80.771,23.951L81.073,24.093L82.307,25.171L82.344,25.536L82.234,25.861L82.066,26.185L81.933,26.552L81.936,26.803L82.053,27.298L82.015,27.569L81.785,27.910L81.479,28.101L81.154,28.246L80.872,28.447L80.356,29.360L80.040,30.623L80.247,31.685L81.286,32.001L82.482,31.959L83.632,32.078L84.308,32.271L84.652,32.554L84.681,32.743L84.707,32.918L84.719,32.994L84.275,34.726L84.137,35.741L84.188,37.872L84.236,38.164L84.499,38.991L84.507,39.121L84.475,39.430L84.490,39.537L84.589,39.658L84.797,39.794L84.877,39.867L86.063,41.449L86.500,41.767L86.658,42.048L87.899,43.718L87.673,44.344L87.279,44.914L86.734,45.294L86.068,45.347L85.481,45.464L84.925,45.930L84.466,46.550L84.004,47.402L83.559,47.826L83.357,48.181L83.289,48.569L83.292,48.916L83.212,49.147L82.899,49.187L82.482,51.715L82.056,52.424L81.529,53.046L80.864,54.033L80.567,54.985L81.148,55.503L81.359,54.522L81.930,53.910L82.751,53.641L83.708,53.692L84.137,53.875L84.966,54.411L85.272,54.479L85.801,54.267L86.817,53.596L88.526,51.918L88.880,51.465L89.580,50.034L89.861,49.635L90.199,49.319L90.564,49.082L90.999,48.916L91.880,48.790L92.074,48.805L92.865,49.045L93.097,49.176L93.344,49.258L93.675,49.213ZM29.707,76.026L29.377,76.231L29.349,76.567L29.529,77.425L29.452,77.946L29.254,78.255L28.996,78.550L28.739,79.024L28.710,79.488L28.958,80.457L28.936,80.821L28.569,81.161L28.067,81.245L27.601,81.069L27.338,80.639L27.929,80.639L27.536,79.907L27.029,79.189L26.451,78.640L25.856,78.425L25.436,78.388L22.797,77.686L21.854,77.198L19.399,76.826L16.436,76.026L16.436,75.810L17.517,75.547L17.632,75.147L17.986,74.777L18.414,74.611L19.528,74.433L22.685,74.431L23.170,74.362L24.263,74.077L25.991,73.929L26.591,73.974L27.157,74.211L26.731,74.718L27.014,74.868L28.129,74.829L28.646,74.979L29.060,75.241L29.402,75.600L29.707,76.026Z" fill="currentColor" stroke="currentColor" stroke-width="1.5" stroke-linejoin="round"/>
</svg>