<svg xmlns="http://www.w3.org/2000/svg" viewBox="0 0 100 100" role="img" aria-label="El Salvador">
  <title>El Salvador</title>
  <path d="M5.612,52.702L5.017,50.220L5.000,49.617L5.092,48.995L5.290,48.390L5.585,47.838L6.029,47.380L7.049,46.835L7.505,46.468L7.850,45.929L8.096,45.372L8.412,44.835L8.962,44.348L12.534,41.841L13.325,41.049L13.721,40.789L15.366,40.161L15.915,40.124L16.589,40.300L17.556,41.053L18.101,41.275L18.645,40.982L18.659,40.769L18.631,40.704L18.391,40.149L18.355,39.856L18.460,39.543L20.049,36.731L20.793,35.916L21.730,35.195L22.708,34.747L26.699,33.790L26.938,33.553L26.932,32.955L26.813,32.799L26.342,32.564L26.179,32.403L26.110,32.153L26.043,31.569L25.995,31.390L25.779,30.979L25.671,30.833L25.456,30.630L25.200,30.515L24.423,30.412L24.193,29.870L24.413,29.549L24.786,29.282L25.021,28.908L24.914,28.462L24.642,28.083L24.483,27.651L24.724,27.045L25.252,26.654L25.798,26.700L26.204,27.112L26.312,27.821L26.817,27.456L27.736,26.347L27.992,26.238L28.396,26.066L28.985,26.143L29.405,26.365L29.825,26.520L30.409,26.398L31.255,25.525L31.633,25.378L31.682,26.117L31.874,25.824L31.914,25.737L32.984,26.521L32.992,26.522L33.565,26.614L35.001,26.844L36.154,27.392L38.050,27.798L38.993,28.466L40.709,28.978L41.061,28.656L41.596,27.622L41.891,27.318L42.219,27.227L42.437,27.268L42.620,27.439L42.833,27.726L43.018,28.077L43.099,28.458L43.066,28.848L42.920,29.224L43.344,29.589L44.611,29.738L45.206,30.035L45.443,30.509L45.591,31.682L45.758,32.025L46.701,32.742L47.044,33.156L47.377,33.721L47.517,34.200L47.538,34.379L47.575,34.692L47.696,35.098L48.023,35.336L48.383,35.255L48.824,34.997L49.344,34.773L49.925,34.785L50.845,35.373L51.622,36.356L52.180,37.500L52.424,38.580L53.077,38.483L54.707,38.606L55.150,38.433L55.533,38.195L55.857,38.162L56.123,38.598L56.093,39.245L55.869,39.875L55.848,40.414L56.431,40.797L57.228,40.904L57.400,40.967L57.668,41.197L57.853,41.455L57.936,41.774L57.923,41.971L57.918,42.040L58.146,41.952L59.093,41.806L60.039,41.869L62.855,42.771L64.492,42.895L64.852,43.047L65.185,43.374L65.156,43.495L65.144,43.587L65.123,43.606L65.092,43.633L65.082,43.632L64.929,43.611L64.970,43.701L65.160,44.118L65.133,44.564L65.006,45.030L64.929,45.595L65.033,45.959L65.435,46.963L65.460,47.576L65.133,48.117L66.124,48.068L66.819,47.644L67.496,47.357L68.993,47.024L69.349,47.044L69.942,47.279L70.214,47.307L70.258,47.196L70.258,46.969L70.285,46.732L70.401,46.596L70.643,46.580L70.940,46.631L71.235,46.720L71.474,46.821L71.732,46.341L72.134,46.193L72.585,46.159L72.989,46.021L73.283,45.739L73.408,45.518L73.557,45.254L73.800,44.983L74.245,44.792L74.574,44.845L74.813,44.790L74.990,44.267L74.924,44.164L74.592,43.856L74.515,43.720L74.478,42.963L74.496,42.834L74.861,42.696L75.419,42.755L75.508,42.775L76.407,42.975L76.999,42.989L78.937,42.757L79.917,42.812L80.344,43.167L80.888,44.588L81.427,45.236L82.112,45.862L82.719,46.588L83.028,47.537L84.722,46.689L85.278,46.538L85.359,46.555L85.570,46.598L86.118,46.955L86.373,47.030L86.543,46.944L87.021,46.574L87.310,46.474L87.682,46.497L88.408,46.649L88.767,46.625L89.127,46.369L89.434,45.978L89.808,45.666L90.366,45.642L90.716,45.919L91.078,46.926L91.380,47.380L91.573,47.497L92.092,47.699L92.319,47.824L92.906,48.331L93.959,49.239L94.613,49.503L94.278,50.059L93.528,51.795L93.341,52.420L93.582,53.054L93.398,53.465L93.026,53.820L92.702,54.290L92.568,54.965L92.598,56.385L92.514,57.082L91.623,59.244L91.405,60.302L91.794,61.176L92.177,61.315L92.964,61.052L93.505,61.263L93.791,61.597L93.982,62.056L94.048,62.565L93.961,63.057L93.319,63.790L90.392,65.134L90.367,65.125L90.075,64.953L89.890,64.639L89.608,63.818L88.561,65.640L88.289,66.715L88.972,67.191L89.409,67.358L90.643,68.546L91.345,69.022L91.406,69.247L91.406,69.709L91.102,70.527L90.362,71.111L87.599,72.507L86.851,73.109L86.719,73.721L87.577,74.319L86.265,74.622L81.143,74.269L79.941,74.034L79.687,74.034L79.065,74.281L75.856,74.554L72.414,74.026L71.521,74.319L71.044,74.155L70.504,74.034L70.504,73.795L71.344,73.739L71.403,73.151L70.954,72.422L70.276,71.942L70.423,72.240L70.866,72.861L71.038,73.249L69.695,73.204L69.038,73.272L68.476,73.510L68.835,73.666L69.125,73.622L69.475,73.521L69.999,73.510L69.999,73.795L69.134,74.155L68.180,74.127L67.436,73.665L67.206,72.725L67.572,72.891L67.714,72.987L68.222,72.464L68.222,72.227L67.587,71.937L66.889,70.950L66.421,70.657L66.547,71.212L66.757,71.665L66.866,72.068L66.698,72.464L66.158,72.156L64.587,71.758L63.908,71.396L63.294,70.293L63.008,70.114L62.573,70.078L61.348,69.829L60.800,69.829L59.294,70.114L57.193,70.170L56.735,70.376L56.985,70.576L57.257,70.723L57.529,70.768L57.773,70.657L58.822,70.905L61.806,70.581L62.138,70.634L62.618,70.896L62.878,71.142L63.341,71.709L63.654,71.942L63.654,72.227L62.958,72.109L62.452,72.012L61.348,71.681L61.348,71.942L64.393,72.571L65.984,73.091L66.698,73.795L66.438,74.253L65.772,74.141L65.031,73.750L64.543,73.380L63.994,73.099L54.397,71.307L53.246,70.770L44.023,66.456L39.612,63.737L37.086,62.617L34.358,61.967L33.089,61.967L32.123,61.738L26.843,61.781L24.586,61.216L23.524,61.008L21.168,60.229L19.928,60.486L16.400,60.530L15.833,60.137L15.459,58.730L15.318,57.852L14.853,57.468L14.088,56.993L11.075,55.277L8.479,54.088L5.612,52.702ZM93.770,73.101L93.737,72.614L94.007,72.420L94.521,72.590L94.838,73.295L94.859,73.879L95.000,74.269L94.685,74.439L94.205,74.268L93.888,74.414L93.891,74.000L93.693,73.587L93.770,73.101ZM92.302,71.202L92.594,71.372L92.837,71.932L92.619,72.249L92.376,72.492L91.889,72.054L91.768,71.445L91.986,71.226L92.302,71.202Z" fill="currentColor" stroke="currentColor" stroke-width="1.5" stroke-linejoin="round"/>
</svg>