<svg xmlns="http://www.w3.org/2000/svg" viewBox="0 0 100 100" role="img" aria-label="Somaliland">
  <title>Somaliland</title>
  <path d="M95.000,28.209L95.000,29.840L95.000,31.471L95.000,33.102L95.000,34.733L95.000,36.363L95.000,37.994L95.000,39.625L95.000,41.257L95.000,42.887L95.000,44.518L95.000,46.149L95.000,47.780L95.000,49.409L95.000,51.041L95.000,52.672L95.000,52.685L95.000,54.303L94.142,55.623L93.287,56.942L92.427,58.261L91.569,59.580L90.712,60.901L89.852,62.219L88.993,63.539L88.136,64.860L87.278,66.177L86.418,67.498L85.559,68.818L84.702,70.136L83.841,71.456L82.984,72.775L82.126,74.096L81.269,75.416L79.231,75.417L76.616,75.417L74.752,75.417L72.499,75.417L70.275,75.417L68.237,75.417L66.965,75.416L66.126,74.994L65.222,74.688L64.024,74.279L62.822,73.871L61.623,73.463L60.421,73.055L59.220,72.647L58.020,72.239L56.818,71.831L55.617,71.423L54.416,71.016L53.217,70.607L52.016,70.199L50.816,69.791L49.617,69.383L48.415,68.975L47.214,68.567L46.012,68.159L44.750,67.739L43.490,67.319L42.229,66.900L40.968,66.482L39.706,66.060L38.448,65.641L37.185,65.222L35.925,64.802L34.664,64.382L33.405,63.962L32.142,63.543L30.883,63.123L29.622,62.703L28.361,62.283L27.100,61.864L25.838,61.444L24.691,61.062L24.132,60.732L23.133,59.815L21.312,58.143L20.037,56.975L18.936,55.963L18.732,55.850L18.503,55.865L18.154,56.000L17.888,55.975L16.786,55.308L16.040,54.858L15.858,54.631L15.796,54.359L15.760,53.872L15.672,53.611L15.348,52.953L15.217,52.824L14.929,52.632L14.791,52.506L14.696,52.349L14.560,52.033L14.422,51.889L14.304,51.831L13.918,51.732L13.605,51.384L13.411,50.812L12.997,48.498L12.724,48.032L12.189,47.790L11.537,47.675L11.014,47.463L10.616,47.064L10.343,46.390L10.226,45.913L10.044,45.439L9.787,45.009L9.448,44.661L8.077,43.767L7.704,43.318L7.302,42.433L7.034,41.501L6.851,40.176L6.696,39.779L6.475,39.493L5.686,38.723L5.305,38.120L5.019,37.470L5.000,37.163L5.186,37.026L5.472,36.938L5.750,36.780L5.921,36.539L6.026,36.254L6.163,35.664L6.299,35.311L6.468,35.078L6.980,34.664L7.203,34.426L7.294,34.203L7.351,33.964L7.463,33.674L7.683,33.444L8.283,33.193L8.523,32.991L8.632,32.745L8.777,32.153L8.955,31.842L12.747,25.907L13.489,24.744L13.660,24.958L13.864,25.114L14.170,25.143L14.090,24.583L14.296,24.826L14.624,25.350L14.904,25.639L15.086,25.733L15.424,26.141L15.685,26.234L15.965,26.296L16.388,26.606L16.622,26.730L16.716,26.485L16.886,26.310L17.047,26.296L17.118,26.531L16.898,27.880L17.028,28.357L17.289,28.792L17.617,29.117L17.708,29.158L17.941,29.215L18.043,29.270L18.099,29.353L18.174,29.569L18.388,29.863L18.509,30.265L18.878,30.797L19.472,31.999L20.854,33.360L21.913,34.684L23.236,35.828L24.753,36.873L25.745,37.786L26.490,38.223L28.273,39.710L28.695,39.955L29.322,40.322L29.917,40.574L31.005,40.512L32.095,40.638L32.734,40.771L33.323,40.669L33.817,40.498L34.664,40.252L35.088,40.129L35.655,40.192L36.577,40.322L37.215,40.362L38.111,40.304L38.571,39.913L38.482,39.656L38.675,39.656L40.247,38.710L40.467,38.618L40.903,38.485L42.263,37.623L43.240,36.729L43.478,36.602L43.729,36.631L43.993,36.724L44.268,36.783L44.507,36.767L45.024,36.646L45.621,36.401L46.044,36.150L46.421,35.864L46.851,35.335L47.038,35.223L48.128,34.864L48.282,34.783L48.451,34.598L48.590,34.405L48.759,34.251L49.019,34.188L49.210,34.095L49.434,33.686L49.658,33.594L49.917,33.599L50.137,33.634L50.339,33.723L50.545,33.891L50.672,34.079L50.765,34.259L50.893,34.380L51.132,34.387L51.073,34.127L51.306,34.129L52.637,34.740L53.138,34.804L53.640,34.941L53.870,35.035L54.421,35.153L54.921,35.071L55.925,34.783L56.356,34.837L56.723,35.064L57.352,35.729L57.752,36.038L58.253,36.225L58.805,36.301L59.363,36.279L59.859,36.159L60.108,36.056L60.506,35.798L60.979,35.719L61.379,35.550L61.958,35.525L62.202,35.486L62.395,35.390L62.887,34.990L64.148,34.412L64.716,33.964L65.345,33.684L65.429,33.594L65.566,33.376L65.639,33.297L65.740,33.254L65.938,33.231L66.030,33.197L67.378,32.711L68.447,31.893L69.156,31.305L69.661,30.779L69.847,30.657L70.506,30.463L70.678,30.355L71.030,30.072L72.510,29.317L72.787,29.211L73.069,29.145L73.514,29.215L74.265,29.026L74.740,29.111L76.957,30.258L77.425,30.355L78.239,29.935L80.034,29.901L80.827,30.008L83.432,29.841L83.867,29.711L84.049,29.544L84.368,29.113L84.651,28.977L84.675,28.869L84.712,28.761L84.847,28.712L85.094,28.715L85.216,28.703L85.481,28.626L85.775,28.594L85.918,28.523L86.009,28.417L86.049,28.312L86.072,28.211L86.121,28.116L86.306,27.925L86.470,27.827L86.903,27.729L87.923,27.627L88.412,27.524L88.817,27.274L89.033,27.191L89.948,27.224L90.677,27.044L90.933,27.026L91.921,27.249L92.473,27.456L93.019,27.775L94.281,28.188L94.499,28.229L94.743,28.225L95.000,28.209Z" fill="currentColor" stroke="currentColor" stroke-width="1" stroke-linejoin="round"/>
</svg>