<svg xmlns="http://www.w3.org/2000/svg" viewBox="0 0 100 100" role="img" aria-label="Saint Pierre and Miquelon">
  <title>Saint Pierre and Miquelon</title>
  <path d="M68.935,85.527L68.060,86.545L67.378,87.676L66.901,88.948L66.683,90.419L69.051,91.720L69.913,92.003L66.226,93.954L61.844,95.000L57.712,94.566L54.804,92.003L58.189,86.771L59.990,84.556L62.461,82.520L64.302,81.841L67.288,81.370L69.475,82.237L68.935,85.527ZM49.508,61.943L55.563,67.372L53.388,74.263L47.056,80.861L38.047,87.855L36.110,88.515L34.186,87.252L33.041,84.282L33.491,82.445L33.485,80.823L30.956,78.486L30.126,75.629L32.732,72.123L38.601,66.552L40.891,57.428L39.547,48.322L31.921,29.470L31.419,25.719L30.956,17.376L30.087,13.634L30.197,11.410L31.496,8.676L33.118,6.621L34.881,5.245L36.722,5.000L38.601,6.301L35.666,8.544L34.025,10.816L34.109,13.191L36.348,15.793L38.987,17.094L44.604,18.460L52.745,25.285L53.002,27.556L52.905,30.724L52.320,33.551L50.209,35.767L49.508,37.935L48.472,40.112L46.651,41.102L45.743,40.612L45.319,39.518L45.048,38.425L44.546,37.935L43.440,38.104L40.666,39.518L38.472,38.670L37.423,38.971L37.429,41.102L38.124,42.374L39.083,42.572L40.010,42.459L41.265,43.176L42.191,43.194L43.195,43.364L44.006,44.269L44.295,45.834L43.832,46.955L43.169,47.757L42.828,48.426L42.828,57.927L43.504,60.859L45.177,61.745L49.508,61.943Z" fill="currentColor" stroke="currentColor" stroke-width="1.5" stroke-linejoin="round"/>
</svg>