<svg xmlns="http://www.w3.org/2000/svg" viewBox="0 0 100 100" role="img" aria-label="Republic of Serbia">
  <title>Republic of Serbia</title>
  <path d="M38.994,6.503L40.023,7.749L40.220,8.091L40.563,9.137L40.814,9.506L41.093,9.709L41.736,9.987L42.044,10.191L42.906,10.967L43.204,11.106L43.829,11.173L44.135,11.293L44.387,11.539L44.931,12.488L45.046,12.595L45.330,12.782L45.445,12.925L45.501,13.115L45.537,13.580L45.557,13.654L45.596,13.800L45.755,14.061L46.131,14.533L46.287,14.843L46.483,15.019L46.701,15.066L46.922,15.001L47.128,14.836L47.225,14.571L47.368,14.375L47.550,14.302L47.751,14.403L47.886,14.627L47.883,14.836L47.819,15.052L47.778,15.287L47.792,16.474L47.748,16.798L47.682,16.995L47.501,17.413L47.374,17.985L47.433,18.358L47.914,19.171L48.123,19.700L48.081,20.020L47.844,20.259L47.477,20.549L47.582,20.869L47.819,21.024L48.112,21.116L48.382,21.246L48.618,21.482L49.153,22.254L50.211,23.196L50.842,24.017L51.093,24.218L51.669,24.476L52.444,24.824L52.613,24.955L52.752,25.112L52.896,25.239L53.089,25.285L53.248,25.211L53.512,24.924L53.679,24.883L53.945,25.077L54.504,25.891L54.771,26.203L55.315,26.581L55.608,26.701L56.298,26.722L58.039,27.259L58.501,27.507L58.920,27.845L59.330,28.333L59.476,28.506L59.550,28.809L59.489,29.096L59.283,29.273L59.078,29.284L58.907,29.369L58.766,29.513L58.643,29.699L58.665,29.732L58.675,29.874L58.675,30.042L58.665,30.156L58.619,30.251L58.480,30.417L58.431,30.512L58.367,30.834L58.358,30.994L58.306,31.104L58.099,31.274L57.928,31.333L57.510,31.363L57.348,31.444L57.229,31.626L57.151,31.862L57.185,32.054L57.407,32.112L57.685,32.126L57.736,32.243L57.695,32.395L57.705,32.518L58.086,32.774L58.873,32.910L59.283,33.111L59.853,33.332L60.094,33.543L60.226,33.913L60.180,34.351L59.948,34.546L59.283,34.732L58.822,34.802L57.871,34.755L57.432,34.909L57.219,35.098L57.070,35.349L57.011,35.662L57.289,35.782L57.302,35.788L57.597,36.011L57.881,36.614L58.147,36.738L59.540,36.893L60.542,36.811L60.864,36.901L61.152,37.169L61.294,37.534L61.392,37.946L61.546,38.358L62.145,38.958L62.946,39.200L63.793,39.196L64.527,39.044L65.126,38.786L65.408,38.712L65.678,38.768L67.160,39.538L67.683,39.623L67.845,39.784L68.302,40.885L68.336,41.049L68.368,41.201L68.428,41.490L68.516,41.665L68.688,41.826L68.874,41.938L69.025,42.087L69.199,42.748L69.484,43.026L69.850,43.185L70.203,43.226L70.594,43.124L70.808,42.901L72.673,39.552L72.770,39.193L73.012,39.011L73.691,38.858L74.011,38.664L74.581,38.041L74.754,37.907L75.155,37.923L75.456,37.987L75.698,38.128L76.838,39.381L77.398,39.833L77.950,40.106L79.243,40.262L79.482,40.434L80.308,41.354L80.212,41.768L79.924,42.061L79.558,42.232L79.243,42.290L78.889,42.205L78.294,41.804L77.950,41.665L77.608,41.652L77.283,41.750L77.039,41.980L76.944,42.360L76.894,42.756L76.758,42.979L76.546,43.074L75.971,43.100L75.819,43.150L75.705,43.251L75.634,43.465L75.592,43.772L75.588,44.070L75.637,44.256L75.981,44.573L76.054,44.731L76.069,44.902L76.030,45.263L76.049,45.438L76.337,46.101L76.773,46.697L77.322,47.167L77.950,47.453L78.627,47.549L78.938,47.695L79.069,48.005L79.001,49.103L79.089,49.441L79.104,49.451L78.402,49.781L78.258,49.933L78.009,50.343L77.743,50.652L77.704,50.682L77.682,50.821L77.701,50.943L77.733,51.015L77.757,51.016L77.588,51.693L77.555,51.950L77.572,52.173L77.679,52.656L77.681,52.857L77.488,53.210L77.197,53.268L76.860,53.244L76.524,53.365L76.335,53.649L76.210,53.979L76.025,54.216L75.661,54.227L75.406,54.268L74.889,54.352L74.520,54.512L74.320,54.823L74.283,55.106L74.275,55.769L74.237,56.125L74.195,56.227L74.033,56.531L73.983,56.647L73.951,57.332L73.796,58.035L73.586,58.562L73.499,59.059L73.714,59.678L74.139,60.193L74.156,60.371L74.095,60.753L74.099,60.943L74.171,61.241L74.276,61.539L74.407,61.818L74.556,62.058L74.761,62.251L75.243,62.521L75.412,62.688L75.521,62.989L75.536,63.513L75.661,63.795L75.666,63.811L75.670,63.822L75.666,63.834L75.661,63.844L75.607,63.926L75.590,64.009L75.607,64.094L75.661,64.173L75.681,64.227L75.688,64.284L75.681,64.343L75.661,64.402L75.615,64.514L75.598,64.629L75.612,64.742L75.812,65.161L76.118,66.247L76.274,66.683L76.499,66.898L77.042,67.161L77.156,67.280L77.386,67.593L77.542,67.714L77.716,67.754L78.070,67.734L78.222,67.777L78.346,67.916L78.529,68.307L78.568,68.350L78.663,68.455L78.818,68.514L79.130,68.497L79.289,68.516L79.558,68.639L79.640,68.698L79.782,68.802L80.953,70.002L81.159,70.311L81.219,70.492L81.270,70.909L81.320,71.090L81.422,71.244L81.818,71.648L82.251,72.251L82.480,72.485L82.771,72.670L83.577,72.849L83.849,72.973L83.875,73.239L83.902,73.529L83.729,74.293L83.428,75.045L83.094,75.564L82.961,75.665L82.683,75.799L82.544,75.926L82.463,76.086L82.344,76.505L82.258,76.682L81.571,77.348L81.354,77.664L81.354,77.668L81.352,77.669L81.351,77.669L81.138,77.755L80.684,77.864L80.493,77.983L80.377,78.176L80.276,78.464L79.986,79.574L79.889,79.830L79.876,79.864L79.683,80.104L79.186,80.320L78.688,80.446L77.454,80.104L77.007,80.163L76.783,80.322L76.699,80.451L76.694,80.458L76.580,80.528L76.289,80.482L76.064,80.487L75.917,80.617L75.661,81.021L75.488,81.172L75.072,81.400L74.930,81.534L74.826,81.699L74.776,81.778L74.750,81.864L74.808,81.949L75.197,82.921L75.417,83.265L75.661,83.464L75.680,83.533L75.685,83.602L75.680,83.673L75.661,83.742L75.443,83.955L75.016,84.793L75.133,85.106L75.057,85.670L75.004,85.907L74.799,86.824L74.742,87.279L74.813,87.312L75.661,88.130L76.164,88.505L76.372,88.769L76.497,89.091L76.497,89.095L76.563,89.438L76.508,89.913L76.284,90.751L76.110,91.116L75.925,91.247L75.720,91.294L75.470,91.418L75.218,91.760L74.957,92.598L74.720,92.922L74.422,93.021L73.740,93.034L73.427,93.207L73.103,93.186L72.814,93.072L72.551,92.865L72.311,92.571L72.264,92.406L72.252,92.017L72.179,91.906L72.030,91.935L71.598,92.397L69.340,93.381L68.773,93.489L68.519,93.458L68.228,93.423L67.693,93.225L66.818,92.757L66.613,92.711L66.437,92.797L65.882,93.296L65.766,93.326L65.111,93.318L64.781,93.396L63.181,94.406L62.968,94.540L62.731,94.838L62.483,95.000L62.201,94.986L61.627,94.821L60.815,94.838L60.635,94.741L60.468,94.108L59.830,93.106L59.848,92.555L60.197,92.174L61.169,91.866L61.509,91.534L61.582,91.179L61.500,90.454L61.534,90.103L61.680,89.849L62.335,89.170L63.151,87.775L63.315,87.250L63.300,87.163L63.185,86.963L63.161,86.864L63.192,86.799L63.303,86.741L63.334,86.698L63.354,86.636L63.444,86.173L63.430,86.105L63.591,85.982L63.787,85.891L63.960,85.774L64.053,85.574L63.916,85.068L63.586,84.844L63.495,84.782L63.007,84.667L62.655,84.675L61.946,85.007L61.705,85.009L61.431,84.822L60.905,84.141L60.654,83.913L60.282,83.784L58.633,83.549L58.239,83.561L58.039,83.567L57.763,83.482L57.598,83.366L57.607,83.300L57.685,83.232L57.737,83.118L57.793,82.765L58.015,81.998L58.084,81.615L58.086,81.135L58.086,81.015L57.930,80.842L57.600,80.826L57.075,80.699L56.906,80.593L56.588,80.316L56.413,80.205L56.227,80.161L55.845,80.163L55.663,80.111L55.203,79.555L55.110,78.833L55.086,78.124L54.832,77.614L54.558,77.568L54.335,77.735L54.104,77.860L53.818,77.688L53.678,77.386L53.427,76.188L53.173,75.656L52.913,75.447L51.819,75.386L51.480,75.254L51.288,75.140L49.963,74.348L48.752,73.624L48.645,73.438L48.711,73.420L48.760,73.122L48.785,72.790L48.775,72.673L48.963,72.497L49.129,72.549L49.180,72.553L49.022,72.231L48.914,72.078L48.750,71.902L48.438,71.638L48.279,71.588L48.029,71.509L47.621,71.559L47.225,71.742L45.941,72.729L45.579,72.874L45.046,72.898L44.910,72.996L44.804,73.293L44.846,73.548L45.042,73.979L45.181,74.473L45.271,74.692L45.369,74.840L45.515,74.885L45.691,74.862L45.857,74.870L45.977,75.011L45.908,75.568L45.562,76.325L45.127,77.014L44.785,77.357L44.587,77.361L44.399,77.306L44.228,77.302L44.081,77.460L43.925,77.811L43.835,77.961L43.705,78.087L43.389,78.200L43.099,78.200L42.820,78.288L42.542,78.661L42.403,79.301L42.661,79.587L43.025,79.823L43.114,80.091L43.187,80.310L42.818,80.820L42.028,81.161L40.673,81.462L40.834,80.577L40.809,80.010L40.538,79.645L39.531,79.121L38.672,78.487L38.203,78.277L37.325,78.186L37.137,78.122L36.932,78.053L35.939,77.044L35.907,77.012L35.342,76.438L34.357,75.724L34.195,75.556L34.071,75.334L33.978,75.100L33.856,74.917L33.651,74.845L33.496,74.931L33.113,75.333L32.923,75.455L32.368,75.501L31.825,75.464L31.442,75.315L31.105,75.035L30.804,74.629L30.325,73.735L30.193,73.722L30.059,73.859L29.851,73.938L29.497,73.898L28.771,73.675L28.434,73.493L28.151,73.228L27.645,72.549L27.611,72.520L27.031,72.021L26.865,71.763L26.584,71.119L26.386,70.818L25.419,69.788L24.735,68.740L24.462,68.538L22.214,67.507L21.786,67.134L21.519,66.532L21.507,65.875L21.837,65.346L22.199,65.346L22.395,64.958L22.550,64.447L22.776,64.070L22.956,64.017L23.374,64.086L23.565,64.077L23.758,63.966L24.137,63.661L24.313,63.608L24.589,63.774L24.869,64.139L25.101,64.576L25.236,64.961L25.365,65.164L25.505,64.970L25.710,64.469L25.908,64.453L26.528,64.705L26.656,64.622L26.692,64.527L26.646,64.423L26.528,64.310L26.448,64.069L26.428,63.752L26.458,63.422L26.528,63.149L26.948,62.732L26.920,62.127L26.528,60.858L26.199,60.105L24.525,58.276L23.648,56.847L23.149,56.195L22.585,55.759L22.394,55.637L22.580,55.453L22.616,55.292L22.538,55.005L22.536,54.842L22.626,54.624L22.766,54.499L23.105,54.387L23.343,54.373L23.560,54.453L23.975,54.748L24.398,55.148L24.610,55.281L24.847,55.268L25.091,55.195L25.961,55.132L26.893,55.227L27.295,55.191L27.682,55.049L28.356,54.543L28.635,54.230L28.774,53.855L28.652,53.425L28.447,53.241L28.300,53.293L28.200,53.429L28.141,53.493L27.989,53.370L27.721,53.042L27.188,52.728L27.092,52.587L26.797,52.152L26.543,51.913L26.440,51.768L26.404,51.360L26.265,51.179L26.167,51.181L25.983,51.370L25.886,51.399L25.771,51.332L25.597,51.157L24.881,50.624L24.573,50.302L24.469,50.009L24.435,49.545L24.232,49.054L23.950,48.639L23.672,48.405L23.484,48.369L22.956,48.498L22.724,48.485L22.580,48.440L22.241,48.267L21.539,48.114L21.209,47.963L20.913,47.603L20.549,46.817L20.422,46.362L20.393,45.926L20.533,45.449L20.760,45.162L20.953,44.827L20.985,44.201L20.723,43.188L20.765,42.828L21.344,42.636L21.473,42.528L21.580,42.372L21.673,42.190L21.705,42.028L21.688,41.662L21.722,41.509L21.803,41.405L21.981,41.301L22.055,41.226L22.825,39.918L23.061,39.233L23.184,39.022L23.359,38.835L23.689,38.559L23.846,38.323L24.016,37.900L24.595,35.143L24.662,35.037L24.749,35.015L24.806,34.952L24.791,34.721L24.743,34.530L24.676,34.401L24.579,34.310L24.484,34.201L24.422,34.129L24.418,34.150L24.374,34.175L24.209,34.193L24.046,34.136L23.718,33.824L23.572,33.824L23.437,33.892L23.286,33.915L22.560,33.761L22.397,33.793L22.108,33.915L21.944,33.915L21.862,33.805L21.801,33.614L21.698,33.477L21.492,33.526L20.022,34.587L19.758,34.682L19.419,34.730L18.896,34.892L18.544,34.225L18.497,33.765L18.939,33.520L19.160,33.589L19.491,33.947L19.729,33.977L19.926,33.859L20.076,33.665L20.334,33.233L20.489,33.137L20.677,33.057L20.794,32.892L20.728,32.543L20.579,32.380L20.244,32.507L20.066,32.345L20.032,32.112L20.086,31.834L20.164,31.559L20.200,31.344L20.181,31.104L20.046,30.430L19.985,29.881L19.934,29.660L19.809,29.375L19.687,29.227L19.524,29.066L19.394,28.889L19.372,28.686L19.621,28.466L20.538,28.557L20.892,28.485L20.958,28.117L20.747,27.684L20.633,27.348L20.994,27.263L21.188,27.367L21.497,27.805L21.673,27.982L21.988,28.100L22.338,28.121L23.024,28.033L23.105,27.975L23.154,27.872L23.215,27.772L23.333,27.720L23.410,27.761L23.542,27.961L23.621,28.016L25.036,27.953L25.090,27.900L25.277,27.716L25.317,27.180L25.145,26.720L24.830,26.576L23.383,26.422L22.894,26.270L21.867,25.769L21.233,25.511L20.343,24.996L20.256,24.513L20.213,24.302L19.996,24.071L19.738,23.975L19.504,23.930L19.133,23.936L18.869,23.746L18.760,23.607L18.579,23.548L18.567,23.544L18.269,23.340L18.236,22.885L18.594,22.687L19.008,22.627L19.150,22.312L18.906,21.915L18.675,21.684L18.590,21.414L18.578,20.996L18.795,20.428L18.931,20.447L19.902,20.588L20.378,20.131L20.195,19.802L19.985,19.685L19.748,19.634L19.472,19.508L19.308,19.368L19.235,19.267L19.184,19.149L19.083,18.967L18.934,18.857L18.788,18.901L18.648,18.999L18.361,19.147L18.197,19.340L17.986,19.503L17.683,19.508L17.523,19.357L17.197,18.838L17.058,18.727L17.114,18.531L17.134,18.103L17.202,17.673L17.400,17.479L17.579,17.349L18.030,16.739L18.121,16.542L18.026,16.215L17.788,16.009L17.508,15.852L17.283,15.677L17.146,15.383L17.078,14.690L17.002,14.344L16.526,13.772L16.410,13.576L16.159,13.324L16.098,13.184L16.127,13.086L16.186,12.989L16.220,12.856L16.267,12.232L16.789,12.184L16.995,12.140L17.114,11.990L17.065,11.813L16.892,11.626L16.555,11.367L16.704,11.198L16.833,11.077L17.114,10.899L17.021,10.545L18.026,10.619L18.339,10.759L18.433,10.714L18.453,10.640L18.416,10.544L18.290,10.349L18.272,10.264L18.289,10.180L18.339,10.097L18.729,9.828L19.144,9.886L19.433,9.808L19.452,9.130L19.709,8.698L20.086,8.542L20.455,8.677L20.698,9.127L20.698,9.130L21.062,9.337L22.497,9.482L22.952,9.397L23.139,9.164L23.215,8.886L23.337,8.604L23.523,8.467L23.665,8.364L23.963,8.299L24.569,8.295L24.843,8.203L25.011,8.024L25.133,7.795L25.267,7.596L25.471,7.503L25.653,7.476L25.793,7.419L26.069,7.201L26.186,7.043L26.269,6.871L26.384,6.718L26.816,6.491L26.773,6.302L26.651,6.093L26.623,5.906L26.860,5.646L27.240,5.399L27.645,5.222L27.948,5.170L28.297,5.181L29.248,5.000L29.600,5.018L29.941,5.125L30.298,5.347L31.298,5.967L31.584,6.024L32.947,5.477L33.198,5.377L33.856,5.236L34.904,5.331L35.590,5.706L36.055,5.653L36.468,5.451L36.629,5.432L36.896,5.495L36.984,5.563L37.152,5.789L37.277,5.855L37.398,5.841L37.809,5.648L38.103,5.765L38.994,6.503Z" fill="currentColor" stroke="currentColor" stroke-width="1" stroke-linejoin="round"/>
</svg>