<svg xmlns="http://www.w3.org/2000/svg" viewBox="0 0 100 100" role="img" aria-label="South Sudan">
  <title>South Sudan</title>
  <path d="M95.000,74.900L94.510,74.898L93.935,74.895L93.914,74.446L93.616,74.424L93.403,74.574L93.361,74.895L93.360,74.899L93.360,74.901L93.318,75.133L92.645,74.899L92.634,74.895L92.631,74.889L92.268,74.224L91.959,73.659L92.330,72.706L91.757,72.535L90.998,72.535L91.284,71.939L91.116,71.735L90.521,72.067L89.986,72.365L89.851,72.110L89.320,72.311L88.696,72.548L87.997,72.813L87.372,73.051L86.792,73.271L86.173,73.506L85.431,73.779L84.911,74.041L84.385,74.306L83.855,74.582L83.256,74.894L82.485,75.664L81.715,76.435L80.945,77.206L80.174,77.977L79.556,78.603L78.927,79.237L78.075,80.099L77.345,80.838L76.784,81.407L76.746,81.429L76.464,81.596L76.133,81.637L74.907,81.574L74.212,81.539L73.976,81.493L73.816,81.408L72.853,80.614L72.700,80.550L72.565,80.599L72.102,80.946L71.503,81.253L70.863,81.447L69.665,81.545L68.263,81.661L67.929,81.739L66.526,82.601L66.436,82.706L66.427,82.805L66.460,83.081L66.459,83.200L66.435,83.309L66.425,83.358L66.375,83.424L66.282,83.428L65.803,83.330L65.674,83.263L65.558,83.142L65.507,83.060L65.410,82.904L65.324,82.857L65.263,82.853L64.664,82.816L64.560,82.761L64.507,82.631L64.484,82.277L64.455,82.131L64.345,81.946L63.802,81.333L63.622,81.180L63.576,81.159L63.423,81.087L63.399,81.082L63.383,81.126L62.776,81.815L62.705,81.880L62.565,81.940L61.774,82.057L61.640,82.125L61.551,82.237L61.543,82.244L61.461,82.317L61.321,82.288L60.347,81.753L59.716,81.407L59.417,81.311L59.104,81.268L58.744,81.267L58.545,81.323L58.262,81.546L58.058,81.707L57.990,81.734L57.845,81.763L57.774,81.792L57.539,81.980L57.435,82.029L57.358,82.039L57.207,82.035L57.127,82.063L57.042,82.138L57.004,82.222L56.980,82.311L56.945,82.401L56.441,83.142L56.274,83.473L56.242,83.594L56.151,83.433L56.228,83.036L56.117,82.899L55.880,82.805L55.781,82.729L55.729,82.613L55.705,82.349L55.674,82.273L55.536,82.172L55.417,82.260L55.289,82.411L55.127,82.503L54.914,82.502L54.825,82.513L54.693,82.563L54.452,82.697L54.357,82.721L54.206,82.741L54.127,82.738L54.060,82.714L53.980,82.649L53.983,82.611L54.028,82.563L54.071,82.468L54.127,82.169L54.132,82.018L53.949,80.889L53.845,80.689L53.771,80.663L53.694,80.671L53.618,80.692L53.544,80.704L53.391,80.700L53.323,80.688L53.034,80.595L52.416,80.224L51.905,80.058L51.409,80.051L51.283,80.007L51.227,79.934L51.215,79.856L51.214,79.775L51.197,79.691L51.147,79.606L50.963,79.386L50.895,79.209L50.853,79.031L50.774,78.880L50.600,78.782L50.279,78.717L50.166,78.644L50.051,78.479L49.875,78.134L49.757,77.992L49.579,77.884L49.489,77.868L49.401,77.869L49.321,77.850L49.260,77.778L49.253,77.684L49.299,77.602L49.357,77.526L49.382,77.449L49.307,77.292L49.140,77.134L48.944,77.020L48.776,76.995L48.426,76.999L48.220,76.829L48.131,76.545L48.136,76.209L48.203,75.978L48.214,75.898L48.202,75.830L48.149,75.703L48.143,75.635L48.188,75.558L48.224,75.516L48.262,75.469L48.288,75.387L48.196,75.331L48.118,75.299L47.945,75.193L47.894,75.173L47.725,75.217L47.667,75.205L47.556,75.139L47.335,74.941L47.247,74.878L46.929,74.729L46.839,74.711L46.609,74.707L46.378,74.607L46.292,74.581L46.244,74.588L46.126,74.647L46.089,74.623L46.010,74.544L45.980,74.523L45.816,74.493L45.701,74.513L45.637,74.610L45.618,74.878L45.595,75.013L45.602,75.091L45.588,75.176L45.444,75.310L45.394,75.392L45.345,75.570L45.282,75.726L45.187,75.867L44.795,76.207L44.720,76.320L44.642,76.503L44.529,76.688L44.403,76.715L44.251,76.682L44.063,76.686L43.977,76.777L43.955,76.922L43.899,77.045L43.707,77.073L43.534,76.989L43.048,76.494L42.963,76.431L42.660,76.299L42.638,76.308L42.616,76.198L42.534,76.163L42.166,75.915L42.106,75.850L41.643,75.967L41.476,75.984L41.114,75.954L40.881,75.985L40.802,75.986L40.609,75.907L40.572,75.757L40.561,75.585L40.450,75.436L40.345,75.403L40.280,75.439L40.214,75.504L40.110,75.557L39.953,75.557L39.886,75.568L39.570,76.183L39.454,76.342L39.340,76.417L39.026,76.492L38.935,76.549L38.906,76.634L38.887,76.723L38.834,76.793L38.765,76.813L38.691,76.806L38.616,76.790L38.544,76.786L38.373,76.827L38.263,76.905L37.969,77.293L37.828,77.429L37.666,77.529L37.493,77.549L37.309,77.491L37.246,77.418L37.221,77.310L37.153,77.147L36.896,76.957L36.574,76.971L36.238,77.035L35.938,76.995L35.794,76.891L35.653,76.748L35.440,76.476L35.410,76.327L35.359,76.264L35.236,76.255L35.165,76.299L35.039,76.434L34.963,76.441L34.728,76.106L34.691,76.033L34.669,75.972L34.656,75.908L34.651,75.826L34.676,75.651L34.713,75.518L34.690,75.434L34.297,75.376L34.211,75.388L34.160,75.378L34.082,75.294L34.043,75.280L33.976,75.316L33.943,75.340L33.957,75.351L33.950,75.369L33.946,75.406L33.927,75.439L33.881,75.444L33.752,75.389L33.710,75.382L33.492,75.415L33.432,75.409L33.345,75.357L33.206,75.206L33.128,75.141L33.068,75.121L32.881,75.082L32.847,75.081L32.792,74.956L32.758,74.772L32.743,74.455L32.805,74.006L32.777,73.839L32.747,73.769L32.696,73.681L32.632,73.602L32.561,73.561L32.492,73.564L32.345,73.606L32.288,73.606L32.188,73.525L32.140,73.397L32.080,73.078L31.980,72.896L31.845,72.809L31.171,72.735L31.018,72.680L30.881,72.566L30.840,72.489L30.808,72.324L30.780,72.252L30.715,72.177L30.476,71.993L30.423,71.970L30.372,71.942L30.326,71.908L30.284,71.868L30.335,71.524L30.322,71.424L30.244,71.325L30.023,71.164L29.898,70.861L29.690,70.685L29.254,70.389L29.098,70.194L28.973,69.966L28.769,69.480L28.738,69.364L28.696,68.984L28.635,68.788L28.619,68.693L28.635,68.574L28.944,67.732L28.930,67.657L28.947,67.522L28.917,67.456L28.844,67.406L28.787,67.411L28.745,67.435L28.718,67.445L28.689,67.451L28.654,67.469L28.613,67.461L28.568,67.388L28.562,67.337L28.597,67.225L28.609,67.091L28.628,67.041L28.621,67.000L28.490,66.910L28.454,66.876L28.438,66.831L28.434,66.761L28.411,66.642L28.346,66.522L28.255,66.422L28.147,66.367L27.995,66.317L27.958,66.260L27.954,66.178L27.900,66.050L27.831,65.999L27.510,65.877L27.440,65.879L27.302,65.925L27.231,65.924L27.181,65.887L27.123,65.770L26.982,65.661L26.893,65.442L26.811,65.353L26.479,65.436L26.318,65.427L26.222,65.293L26.149,65.119L26.056,65.101L25.928,65.147L25.752,65.160L25.574,65.080L25.513,64.944L25.469,64.599L25.387,64.496L25.250,64.409L24.706,64.194L24.166,64.219L23.921,64.187L23.474,64.032L23.355,63.937L23.279,63.798L23.217,63.632L23.133,63.500L22.997,63.461L22.689,63.676L22.568,63.711L22.542,63.548L22.602,63.398L22.727,63.266L22.877,63.158L23.016,63.080L23.142,62.976L23.214,62.834L23.210,62.687L23.110,62.566L22.985,62.536L22.874,62.541L22.803,62.494L22.801,62.310L22.776,62.111L22.655,62.023L22.338,61.955L22.195,61.862L22.011,61.618L21.885,61.493L21.737,61.408L21.622,61.360L21.537,61.288L21.485,61.129L21.503,60.990L21.545,60.845L21.533,60.732L21.389,60.684L21.441,60.594L21.513,60.541L21.589,60.500L21.655,60.443L21.802,60.133L22.044,59.807L22.168,59.574L22.225,59.497L22.221,59.408L22.211,59.239L21.843,59.029L21.392,58.860L21.130,58.725L21.002,58.590L20.691,58.372L20.454,58.073L20.333,58.019L20.196,57.983L20.024,57.876L19.946,57.783L19.918,57.699L19.905,57.611L19.874,57.513L19.871,57.466L19.886,57.419L19.890,57.377L19.856,57.346L19.812,57.346L19.762,57.359L19.714,57.365L19.674,57.342L19.601,57.168L19.574,56.769L19.527,56.595L19.184,56.567L19.095,56.542L19.074,56.493L19.071,56.435L19.026,56.381L18.950,56.349L18.797,56.327L18.720,56.306L18.479,56.170L18.444,56.099L18.426,55.955L18.393,55.894L18.266,55.834L17.923,55.801L17.808,55.761L17.739,55.637L17.738,55.534L17.697,55.471L17.507,55.462L17.423,55.441L17.302,55.319L17.227,55.286L17.078,55.288L17.017,55.271L16.832,55.123L16.689,55.065L16.219,54.943L16.099,54.877L15.756,54.562L15.642,54.491L15.517,54.469L15.371,54.520L15.172,54.427L14.875,54.200L14.447,53.985L14.346,53.913L14.263,53.800L14.222,53.689L14.173,53.467L14.112,53.357L14.063,53.320L13.935,53.280L13.875,53.246L13.830,53.194L13.757,53.072L13.709,53.019L13.607,52.951L13.153,52.710L12.990,52.325L12.956,52.201L12.961,52.104L13.123,51.949L13.627,51.777L13.798,51.626L13.832,51.491L13.809,51.378L13.765,51.271L13.736,51.156L13.765,50.824L13.759,50.712L13.718,50.581L13.605,50.376L13.527,50.133L13.453,50.012L13.355,49.916L13.162,49.852L13.115,49.810L13.077,49.763L13.021,49.728L12.834,49.697L12.726,49.697L12.489,49.749L12.384,49.756L12.152,49.669L11.924,49.494L11.557,49.083L11.492,49.047L11.432,49.003L11.381,48.953L11.339,48.896L11.323,48.759L11.167,48.597L11.150,48.323L11.075,48.199L10.420,47.593L10.176,47.481L9.735,47.431L9.493,47.296L9.339,47.278L9.190,47.277L8.763,47.198L8.227,47.282L7.985,47.274L7.744,47.124L7.669,47.107L7.614,47.074L7.573,47.023L7.542,46.955L7.361,46.780L7.098,46.807L6.606,46.977L6.566,46.956L6.439,46.856L6.382,46.826L6.327,46.817L6.216,46.817L6.080,46.802L6.033,46.797L5.769,46.735L5.649,46.688L5.445,46.577L5.239,46.422L5.075,46.228L5.000,46.003L5.028,45.752L5.119,45.490L5.546,44.770L5.623,44.685L5.932,44.479L5.984,44.406L5.946,44.313L5.739,44.149L5.684,44.041L5.713,43.931L5.854,43.728L5.871,43.618L5.733,43.545L5.449,43.551L5.372,43.562L5.406,43.513L5.423,43.404L5.469,43.342L5.908,43.006L6.139,42.897L6.972,42.369L7.146,42.333L7.840,42.260L8.214,42.135L8.289,42.093L8.332,42.042L8.332,41.221L8.339,41.171L8.385,41.055L9.076,39.882L9.106,39.807L9.114,39.766L9.261,38.295L9.313,38.156L9.374,38.067L9.595,37.865L10.062,37.339L10.118,37.163L10.132,37.072L10.119,35.022L10.147,34.865L10.173,34.816L10.203,34.785L10.231,34.779L10.303,34.773L10.385,34.758L10.452,34.728L10.517,34.689L10.780,34.472L11.043,34.311L11.143,34.200L11.352,33.915L11.455,33.809L11.520,33.721L11.586,33.581L11.629,33.446L11.829,33.033L11.912,32.807L11.922,32.761L11.924,32.713L11.919,32.670L11.896,32.591L11.833,32.446L11.821,32.407L11.804,32.322L11.810,32.258L11.831,32.176L12.212,31.353L12.287,31.261L12.342,31.212L12.389,31.193L12.509,31.157L12.620,31.113L12.702,31.096L12.897,31.112L12.985,31.097L13.169,31.026L13.213,31.025L13.302,31.036L13.353,31.029L13.421,31.001L13.476,30.988L13.528,30.983L13.619,30.998L13.661,31.012L13.737,31.046L13.781,31.060L13.826,31.068L13.872,31.069L13.914,31.059L13.987,31.032L14.030,31.028L14.112,31.040L14.156,31.039L14.198,31.032L14.340,30.965L14.379,30.954L14.469,30.943L14.518,30.943L14.609,30.933L14.687,30.909L14.759,30.875L14.872,30.836L14.959,30.820L15.051,30.812L15.358,30.823L15.444,30.809L15.540,30.781L15.564,30.778L16.127,30.580L16.455,30.499L16.499,30.492L16.745,30.490L16.919,30.462L17.039,30.428L17.084,30.421L17.390,30.433L17.451,30.426L17.519,30.407L17.679,30.329L18.020,30.239L18.102,30.232L18.131,30.253L18.462,30.665L18.501,30.729L18.517,30.765L18.526,30.807L18.572,31.999L18.587,32.041L18.607,32.074L18.656,32.129L18.715,32.177L18.990,32.339L19.106,32.390L19.313,32.450L19.335,32.461L19.383,32.500L19.410,32.525L19.455,32.585L19.911,33.334L20.001,33.448L20.108,33.561L20.111,33.564L20.697,33.786L22.136,35.474L23.575,37.162L23.911,37.382L24.101,37.469L24.542,37.505L24.624,37.497L27.569,36.497L29.543,36.451L29.893,36.513L30.983,36.509L31.603,36.587L31.647,36.582L31.806,36.539L31.849,36.535L32.826,36.678L33.579,36.638L33.704,36.616L33.783,36.585L34.561,38.206L34.927,38.618L37.969,38.644L41.010,38.671L41.020,38.671L40.925,38.481L40.894,38.206L40.904,37.878L41.061,37.582L41.553,37.096L42.130,36.649L42.283,36.525L43.220,36.028L44.136,35.694L45.896,35.305L46.538,34.691L46.893,34.129L46.905,33.022L47.137,32.841L47.557,32.584L49.593,31.596L49.937,31.387L51.736,32.536L53.534,33.685L55.553,35.504L55.676,35.593L55.781,35.627L55.887,35.564L55.977,35.480L56.124,35.424L56.222,35.400L57.084,35.376L57.086,35.376L58.720,35.287L59.257,35.069L60.897,33.445L62.537,31.820L63.371,30.784L63.583,30.573L64.058,29.835L64.559,28.566L64.658,28.422L66.455,26.900L68.252,25.379L68.379,25.137L68.414,24.946L67.871,23.922L67.754,23.402L67.730,22.601L67.838,21.354L67.800,20.567L67.786,20.477L67.750,20.356L67.727,20.310L65.721,18.072L68.255,18.061L70.789,18.049L70.801,17.864L70.796,17.766L70.780,17.677L70.685,17.408L70.629,17.051L70.626,16.952L70.633,16.854L70.662,16.670L70.665,16.570L70.659,16.522L70.650,16.478L70.653,16.439L70.675,16.406L74.317,16.451L74.270,17.084L73.827,18.573L73.835,19.467L73.731,20.486L73.705,20.569L73.606,20.789L73.519,20.915L73.419,21.036L73.390,21.082L73.356,21.157L73.354,21.269L73.732,24.123L74.110,26.977L74.082,27.121L74.053,27.215L73.852,27.572L73.800,27.689L73.789,27.779L73.871,27.842L75.548,28.458L75.629,28.497L75.695,28.548L76.298,29.282L77.950,30.637L79.602,31.991L79.715,32.126L80.057,32.977L80.095,33.106L80.107,33.310L80.099,33.468L80.014,33.978L80.042,34.208L80.099,34.359L80.145,34.534L80.145,34.588L80.138,34.633L80.113,34.715L79.623,35.697L79.463,36.397L79.416,36.985L79.444,37.326L79.500,37.545L79.525,37.595L79.546,37.632L79.569,37.654L79.592,37.664L80.888,37.669L80.982,39.590L81.092,41.818L81.202,44.045L81.167,44.238L81.136,44.409L81.037,44.585L80.879,44.761L80.126,45.440L79.970,45.534L79.828,45.573L79.397,45.574L79.135,45.605L79.007,45.640L78.885,45.692L78.805,45.746L78.489,46.020L78.456,46.030L78.373,46.043L78.026,45.998L77.842,45.787L77.692,45.524L77.453,45.322L77.298,45.297L77.186,45.342L77.078,45.404L76.933,45.429L76.818,45.380L76.702,45.287L76.574,45.213L76.419,45.220L76.461,45.277L76.458,45.305L76.386,45.346L75.872,45.407L75.773,45.384L75.712,45.390L75.655,45.420L75.550,45.502L75.477,45.526L74.649,45.342L74.515,45.361L74.296,45.554L74.303,45.585L74.326,45.630L74.269,45.681L74.154,45.705L74.049,45.755L74.014,45.809L74.002,45.869L74.002,45.999L73.994,46.034L73.956,46.086L73.950,46.128L73.967,46.152L74.035,46.201L74.049,46.228L74.032,46.322L73.965,46.467L73.950,46.524L73.975,46.615L74.028,46.690L74.082,46.747L74.138,46.833L74.207,46.873L74.310,46.916L74.299,47.016L74.246,47.056L74.174,47.080L74.106,47.131L74.048,47.217L74.017,47.287L74.005,47.365L74.002,47.473L74.026,47.515L74.130,47.589L74.154,47.631L74.133,47.783L74.073,47.891L73.978,47.968L73.846,48.030L73.618,48.068L73.586,48.107L73.570,48.172L73.534,48.250L73.488,48.323L73.056,48.766L72.959,48.898L72.920,48.975L72.886,49.137L72.849,49.190L72.813,49.229L72.779,49.300L72.773,49.313L72.672,49.423L72.643,49.507L72.836,50.020L72.900,50.139L73.032,50.218L73.061,50.283L73.085,50.353L73.112,50.401L73.166,50.425L73.372,50.448L73.541,50.523L73.643,50.538L73.689,50.474L73.729,50.456L73.976,50.401L74.040,50.412L74.258,50.501L74.505,50.539L74.570,50.558L74.687,50.660L74.807,50.801L74.945,50.925L75.369,51.033L75.466,51.031L75.653,50.907L75.721,50.873L76.050,50.805L76.248,50.798L76.379,50.847L76.447,50.901L76.587,50.941L76.663,50.979L76.737,51.048L76.843,51.188L76.923,51.246L77.086,51.293L77.581,51.246L77.662,51.267L77.870,51.404L78.110,51.473L78.183,51.509L78.285,51.625L78.526,51.964L78.911,52.250L78.987,52.270L79.144,52.289L79.224,52.307L79.452,52.442L80.399,53.413L80.529,53.625L80.582,53.884L80.586,54.603L80.605,54.642L80.654,54.665L81.004,54.941L81.212,55.202L81.359,55.311L81.501,55.280L81.628,55.219L81.732,55.282L81.805,55.418L81.842,55.576L81.842,55.817L81.842,55.900L81.861,56.074L81.920,56.150L81.979,56.169L82.026,56.214L82.102,56.312L82.414,56.543L82.451,56.589L82.490,56.723L82.543,56.760L82.595,56.783L82.618,56.811L83.698,57.071L84.190,57.416L84.257,57.518L84.308,57.635L84.340,57.769L84.351,57.920L84.335,57.942L84.264,57.991L84.247,57.999L84.255,58.046L84.290,58.124L84.299,58.157L84.351,58.472L84.439,58.548L84.574,58.577L84.900,58.577L85.066,58.598L85.196,58.650L85.715,58.995L85.762,59.079L85.799,59.221L85.891,59.326L85.944,59.360L86.020,59.674L86.099,59.985L86.268,60.423L86.331,60.867L86.395,61.022L86.700,61.547L86.749,61.747L86.754,62.200L86.792,62.354L87.061,62.824L87.205,63.201L87.332,63.347L87.476,63.481L87.606,63.644L87.667,63.794L87.732,64.206L87.746,64.295L87.665,64.458L87.639,64.545L87.635,64.634L87.674,64.718L87.799,64.854L87.823,64.940L87.806,65.049L87.782,65.137L87.768,65.222L87.781,65.323L87.857,65.493L88.474,66.375L88.583,66.581L88.649,67.028L88.729,67.176L89.069,67.429L89.680,67.788L89.974,68.027L90.030,68.182L90.063,68.274L90.018,68.361L89.952,68.441L89.897,68.524L89.888,68.618L89.918,68.689L90.169,69.088L90.283,69.217L90.423,69.284L90.607,69.256L90.779,69.135L91.090,68.792L91.258,68.679L91.395,68.652L91.556,68.652L91.715,68.673L91.851,68.709L92.025,68.811L92.354,69.079L92.539,69.130L92.720,69.091L92.857,69.027L92.998,68.994L93.191,69.046L93.692,69.357L94.110,69.520L94.148,69.589L93.941,69.891L93.890,70.070L93.914,70.220L94.065,70.512L94.133,70.696L94.134,70.855L94.072,71.009L93.780,71.381L93.742,71.480L93.710,73.090L93.773,73.465L93.960,73.785L95.000,74.900Z" fill="currentColor" stroke="currentColor" stroke-width="1" stroke-linejoin="round"/>
</svg>