<svg xmlns="http://www.w3.org/2000/svg" viewBox="0 0 100 100" role="img" aria-label="São Tomé and Principe">
  <title>São Tomé and Principe</title>
  <path d="M34.920,74.428L36.126,75.250L37.372,76.587L38.394,78.137L38.954,79.599L39.190,81.033L39.168,81.885L38.954,82.864L38.525,83.904L38.071,84.556L36.755,85.797L36.087,86.606L34.553,89.132L34.225,89.259L33.727,89.375L33.412,89.604L33.770,90.531L33.373,90.751L32.774,90.869L32.354,91.001L31.524,91.934L31.419,92.100L29.627,92.141L29.387,92.100L28.814,94.032L28.255,94.777L27.551,93.936L27.162,94.875L26.607,95.000L26.056,94.489L25.720,93.534L25.807,93.464L26.070,92.537L26.087,92.100L25.912,91.553L25.694,91.317L25.484,91.199L25.322,91.001L23.421,84.883L23.120,84.363L23.369,83.887L23.465,83.415L23.487,82.333L23.613,81.907L24.654,80.668L24.872,80.182L24.929,79.839L25.060,79.501L26.952,77.597L27.368,77.396L29.382,76.714L31.061,75.329L32.796,74.231L34.920,74.428ZM76.880,6.355L76.592,6.600L75.989,6.842L75.381,7.196L75.054,7.789L75.849,7.918L76.557,8.300L76.828,8.704L76.339,8.890L75.565,9.074L75.360,9.541L75.421,10.756L75.150,11.823L74.883,12.361L74.490,12.588L73.821,12.697L73.624,13.005L73.646,13.471L73.585,14.054L73.445,13.851L73.279,13.453L73.192,13.292L72.833,13.449L72.493,13.689L72.021,12.822L71.278,12.566L70.491,12.514L69.888,12.221L69.717,10.560L69.757,9.572L70.255,9.655L71.146,9.283L71.579,8.781L71.710,8.114L71.715,7.238L71.999,6.213L72.720,5.400L73.673,5.000L74.652,5.219L76.129,5.354L76.719,5.616L76.880,6.355Z" fill="currentColor" stroke="currentColor" stroke-width="1.5" stroke-linejoin="round"/>
</svg>