<svg xmlns="http://www.w3.org/2000/svg" viewBox="0 0 100 100" role="img" aria-label="Suriname">
  <title>Suriname</title>
  <path d="M91.825,63.210L91.106,63.725L90.553,64.594L89.768,65.552L89.469,66.036L89.024,67.128L89.522,67.051L89.756,67.362L89.808,67.849L89.758,68.305L89.705,68.358L89.608,68.408L89.511,68.481L89.464,68.598L89.510,68.616L89.711,68.761L89.758,68.819L89.890,69.338L89.926,69.642L89.831,69.775L89.583,69.920L89.699,70.223L89.935,70.489L90.050,70.524L90.060,70.820L89.904,71.479L89.839,71.606L89.542,72.042L89.464,72.289L89.450,72.515L89.487,72.659L89.621,72.805L89.904,73.038L89.647,73.178L89.502,73.356L89.162,74.358L88.995,74.689L87.430,76.809L86.676,78.345L85.837,80.470L85.490,80.992L84.461,82.023L84.204,82.127L83.879,82.174L83.405,82.179L83.175,82.305L82.959,82.430L82.380,83.898L82.138,84.086L81.717,84.131L80.995,83.910L80.684,83.965L80.339,84.385L79.934,84.518L79.520,84.596L79.102,84.607L78.680,84.542L78.430,84.417L78.378,84.243L78.402,84.035L78.374,83.805L78.181,83.316L78.304,82.909L78.362,82.886L78.475,82.889L78.578,82.855L78.613,82.721L78.586,82.601L78.495,82.368L78.464,82.243L78.450,81.810L78.354,81.713L78.063,81.548L77.594,81.364L77.233,81.380L76.896,81.562L76.531,81.759L75.469,82.076L74.644,81.777L72.532,79.716L72.441,79.515L72.511,79.219L72.926,78.797L73.067,78.509L72.950,78.295L72.568,78.340L71.690,78.692L71.260,78.964L70.432,79.669L69.654,80.044L69.473,80.109L69.302,80.090L69.136,79.915L69.211,79.504L69.110,79.304L68.376,79.365L66.657,80.689L66.156,80.657L65.904,80.344L65.564,80.219L65.183,80.249L64.813,80.400L64.452,80.753L64.333,81.155L64.275,81.549L64.097,81.881L63.484,82.147L62.711,82.132L61.878,82.026L61.083,82.013L59.860,82.123L59.449,82.068L58.999,82.066L58.202,82.439L56.506,82.864L56.080,82.775L55.855,82.594L55.607,82.123L55.447,81.934L55.241,81.824L53.723,81.448L53.360,81.270L52.192,80.306L51.715,80.036L51.203,79.990L50.946,80.073L50.812,80.194L50.647,80.573L50.419,81.490L50.405,82.446L50.294,82.823L49.666,83.764L49.501,83.938L49.245,84.056L49.003,84.038L48.812,83.923L48.615,83.833L48.350,83.895L48.071,84.238L47.744,84.857L47.489,85.495L47.426,85.895L47.674,86.060L48.615,86.116L49.013,86.211L49.420,86.587L49.617,87.434L49.907,87.892L50.486,88.290L50.672,88.454L51.441,89.454L52.175,90.085L52.337,90.328L52.405,90.602L52.370,90.799L52.292,90.996L52.223,91.271L52.250,92.229L52.370,93.089L52.256,93.865L51.573,94.574L50.158,95.000L48.805,94.719L47.459,94.176L46.073,93.814L45.038,93.877L44.697,93.837L44.290,93.665L43.518,93.170L43.103,92.995L42.690,92.946L42.059,93.101L41.658,93.143L41.344,93.079L40.226,92.671L40.156,92.421L40.025,92.213L39.836,92.060L39.385,91.915L39.204,91.806L39.051,91.658L38.931,91.475L38.121,91.052L36.014,91.017L35.426,90.775L33.357,87.838L33.200,87.196L33.037,86.726L32.825,85.777L32.553,85.358L32.361,85.256L31.865,85.164L31.666,85.063L31.574,84.871L31.585,84.095L31.346,83.614L30.577,82.942L30.413,82.551L30.551,82.241L30.589,82.018L30.485,81.808L30.130,81.478L30.028,81.289L29.959,80.992L30.003,80.783L30.108,80.545L30.137,80.310L29.959,80.111L29.520,80.434L29.217,80.538L29.078,80.338L29.191,79.612L29.152,79.455L28.609,78.822L28.505,78.627L28.490,78.261L28.593,77.979L28.650,77.725L28.505,77.450L28.058,77.703L27.887,77.576L27.759,76.728L27.545,76.333L26.990,75.745L26.878,75.463L26.962,75.250L27.110,74.977L27.159,74.743L26.951,74.642L26.216,74.753L26.145,74.802L26.003,74.396L26.374,73.620L26.224,73.479L25.969,73.525L25.538,73.727L25.337,73.772L25.080,73.680L24.984,73.479L24.915,73.276L24.743,73.185L24.656,72.962L24.370,71.848L24.570,71.634L24.905,71.367L25.140,71.064L25.037,70.745L24.322,70.669L24.048,70.511L24.224,70.230L24.337,70.032L24.324,69.863L24.261,69.675L24.224,69.414L24.292,69.339L24.593,69.354L24.663,69.266L24.641,69.104L24.539,68.831L24.516,68.665L24.315,68.187L23.944,67.845L23.748,67.452L24.076,66.821L24.003,66.782L23.988,66.771L23.984,66.752L23.944,66.687L23.798,66.822L23.611,66.947L23.397,67.016L23.182,66.980L22.943,66.805L22.983,66.664L23.122,66.492L23.182,66.232L22.951,65.734L22.902,65.497L22.920,65.233L23.035,64.790L23.063,64.534L22.986,64.277L22.852,64.100L22.804,63.921L22.982,63.652L23.013,63.517L23.063,62.769L22.996,62.467L22.462,61.366L21.783,61.899L21.208,61.997L20.634,61.820L19.956,61.525L19.979,61.916L19.829,62.104L19.222,62.261L19.168,62.334L19.016,62.480L18.855,62.571L18.781,62.476L18.731,62.364L18.603,62.300L18.434,62.269L18.261,62.261L18.138,62.168L17.863,62.005L17.587,61.950L17.377,62.373L17.179,62.403L16.945,62.337L16.278,61.964L16.273,61.962L15.911,61.759L15.305,61.635L15.123,61.559L15.017,61.469L14.945,61.359L14.852,61.104L14.807,60.878L14.821,60.699L14.929,60.310L14.942,60.166L14.895,59.899L14.892,59.759L15.218,59.124L15.249,58.743L14.897,58.344L14.450,58.083L14.366,58.043L14.321,57.978L14.090,57.947L13.985,57.903L13.889,57.795L13.861,57.721L13.842,57.644L13.671,57.326L13.563,56.949L13.486,56.793L12.666,56.267L11.615,55.831L11.258,55.603L11.017,55.203L10.889,54.749L10.831,53.771L10.740,53.358L10.283,52.377L9.193,50.778L8.844,50.368L7.430,49.252L6.909,48.596L6.697,47.835L6.416,46.003L6.145,45.076L6.183,44.630L6.481,44.172L8.353,42.256L8.591,41.890L8.730,41.465L8.776,40.923L8.716,40.566L8.599,40.238L8.531,39.899L8.617,39.505L8.829,39.174L9.076,38.900L9.279,38.618L9.438,37.904L9.833,36.947L10.197,36.337L10.537,35.240L10.921,34.685L11.093,34.311L11.123,33.902L10.945,33.522L10.368,32.785L10.081,31.899L9.724,31.660L9.365,31.478L9.203,31.182L9.351,30.458L9.696,29.963L10.088,29.542L10.378,29.183L10.816,28.453L10.978,28.301L11.248,28.232L11.456,28.292L11.662,28.394L11.931,28.448L12.457,28.375L12.707,28.179L13.030,27.566L13.607,27.010L14.327,26.656L15.135,26.609L15.979,26.977L16.922,26.638L17.415,26.551L17.967,26.523L18.082,26.593L18.412,26.905L18.554,26.977L18.832,26.952L19.194,26.841L20.894,26.667L21.435,26.523L21.665,26.432L21.825,26.343L22.010,26.272L22.316,26.228L22.503,26.264L22.671,26.336L22.848,26.353L23.063,26.228L22.279,25.520L22.182,25.279L22.209,24.994L22.276,24.749L22.596,24.023L22.739,23.404L22.880,23.106L23.122,22.979L23.504,22.993L23.776,23.077L23.959,23.300L24.076,23.729L24.410,23.590L24.749,23.395L25.011,23.145L25.116,22.845L24.955,22.414L24.239,21.543L24.093,21.177L24.076,21.134L23.984,21.002L23.768,20.936L23.524,20.948L23.343,21.054L23.305,21.261L23.416,21.469L23.636,21.730L23.579,21.873L23.437,21.965L23.252,21.990L23.063,21.936L22.955,21.818L22.916,21.649L22.883,20.144L22.814,20.084L22.679,20.091L22.462,20.038L22.152,20.164L21.961,20.164L21.876,19.964L21.949,19.728L22.125,19.497L23.170,18.445L23.391,18.101L23.476,17.598L23.501,17.136L23.568,16.793L23.768,16.344L24.061,16.042L24.253,15.858L24.942,15.595L25.232,15.361L25.433,15.098L25.572,14.790L26.089,12.463L26.192,10.421L26.339,9.705L26.387,9.167L26.644,8.290L26.892,7.696L27.461,6.757L27.550,6.515L27.671,6.324L27.850,6.200L28.342,6.113L28.491,6.016L28.602,5.918L28.715,5.875L28.815,5.812L29.088,5.508L29.208,5.407L29.419,5.329L29.636,5.290L29.867,5.052L30.024,5.000L30.619,5.158L31.949,5.473L32.736,5.560L33.803,5.561L35.481,5.633L36.407,5.686L36.775,5.826L37.441,6.248L37.835,6.418L38.246,6.525L39.258,6.616L41.591,7.159L42.951,7.518L44.052,7.565L45.063,7.825L45.792,8.033L46.462,8.209L47.910,8.523L48.796,8.817L49.322,8.960L49.764,9.037L50.598,9.327L51.956,9.457L52.346,9.886L52.653,10.067L52.779,10.354L52.779,12.213L52.789,12.213L52.939,12.213L53.052,11.874L53.089,11.538L53.073,10.808L53.003,10.431L52.632,9.618L52.400,9.089L52.731,8.654L52.515,8.461L52.252,8.473L52.000,8.484L51.701,8.232L51.630,7.802L51.727,7.479L52.076,7.025L52.222,6.804L52.506,6.507L52.716,6.284L53.030,6.047L53.418,5.900L53.925,5.767L54.447,5.739L56.403,5.654L57.488,5.567L58.375,5.553L63.583,5.812L64.851,6.053L65.455,6.470L65.795,6.612L66.251,6.757L66.403,6.834L66.630,7.020L66.851,7.202L67.066,7.333L67.134,7.351L67.313,7.399L67.496,7.399L67.721,7.430L68.023,7.460L68.270,7.376L68.546,7.259L68.894,7.227L69.262,7.493L69.690,7.809L69.856,8.127L69.598,8.758L69.280,9.111L69.307,9.097L69.900,8.901L70.100,8.420L70.121,7.939L70.233,7.774L70.708,7.772L71.418,8.270L71.854,8.361L72.135,8.298L72.309,8.186L72.476,8.147L72.957,8.442L73.139,8.474L73.322,8.435L73.534,8.361L73.702,8.256L73.819,8.112L73.963,7.988L74.215,7.933L74.419,7.977L74.635,8.085L75.015,8.361L74.918,8.186L74.772,8.016L74.603,7.870L74.429,7.774L74.146,7.718L73.950,7.748L73.751,7.907L73.504,8.057L73.013,8.102L72.682,7.893L72.380,7.826L72.039,8.023L71.715,8.007L71.390,7.738L71.055,7.570L69.809,7.211L69.371,7.002L68.999,6.755L68.840,6.523L68.759,6.297L68.634,6.152L68.776,5.926L68.966,5.804L69.560,5.567L70.238,5.451L71.109,5.398L71.773,5.392L76.937,5.567L77.329,5.660L78.249,5.762L79.087,5.913L83.423,6.521L86.070,7.107L88.131,7.515L89.923,8.095L91.469,8.538L91.962,8.591L92.229,8.684L92.773,8.645L92.897,8.821L93.122,8.906L93.246,9.124L93.212,9.348L93.732,10.344L93.855,10.728L93.650,10.968L93.137,11.949L92.893,12.373L92.779,13.230L92.480,14.898L92.249,15.742L91.980,16.239L91.589,16.711L91.217,17.036L91.016,17.253L90.928,17.454L90.800,17.866L89.888,19.286L89.469,19.773L87.777,20.994L86.871,21.926L86.671,22.214L86.427,22.564L86.178,23.422L86.039,23.568L85.709,23.801L85.613,23.939L85.561,24.183L85.490,24.316L84.316,25.640L83.921,26.267L83.788,26.607L83.728,26.977L83.916,27.836L83.874,28.153L83.773,28.267L83.201,28.669L83.102,28.881L83.140,29.101L83.275,29.404L83.275,32.064L83.345,32.354L83.520,32.473L83.741,32.535L83.948,32.653L84.204,33.050L84.210,33.417L84.137,33.828L84.155,34.357L84.422,35.061L84.461,35.313L84.461,36.195L84.360,36.567L83.935,37.355L83.874,37.901L84.247,40.224L84.902,41.590L85.092,42.519L85.112,43.067L84.974,43.436L84.739,43.838L84.825,44.206L85.075,44.499L85.342,44.679L86.064,44.874L86.286,45.050L86.369,45.494L86.307,45.819L86.018,46.563L85.930,46.898L85.957,47.433L86.162,47.794L86.896,48.456L87.031,48.666L87.262,49.413L87.405,49.608L87.705,49.849L87.850,50.000L88.382,50.995L88.786,51.214L88.877,51.398L88.951,51.386L89.112,51.638L89.318,52.060L89.535,52.323L89.659,52.403L89.904,52.514L90.637,52.731L90.865,52.882L91.310,53.544L91.532,53.780L91.971,55.308L92.473,56.074L92.485,56.204L92.715,56.163L92.952,56.090L93.178,56.055L93.372,56.131L93.673,56.439L93.802,56.711L93.771,57.041L93.599,57.529L93.427,58.434L93.497,60.063L93.146,60.925L92.365,61.737L92.265,62.027L92.214,62.404L92.069,62.827L91.838,63.201L91.825,63.210Z" fill="currentColor" stroke="currentColor" stroke-width="1" stroke-linejoin="round"/>
</svg>