<svg xmlns="http://www.w3.org/2000/svg" viewBox="0 0 100 100" role="img" aria-label="Slovakia">
  <title>Slovakia</title>
  <path d="M95.000,40.515L94.879,40.910L94.765,41.457L94.691,42.008L94.698,42.413L94.453,42.620L93.845,42.709L93.568,42.927L93.225,43.931L93.029,44.357L93.009,44.474L93.011,44.783L92.980,44.929L92.831,45.143L92.452,45.464L92.332,45.636L92.302,45.679L92.197,45.971L92.186,46.157L92.217,46.353L92.251,47.164L92.215,47.326L92.106,47.601L91.969,47.799L91.820,47.916L91.699,48.073L91.650,48.393L91.670,48.907L91.568,49.415L91.376,49.861L91.123,50.198L90.932,50.323L90.510,50.458L90.316,50.591L90.197,50.759L90.032,51.141L89.934,51.315L88.901,52.154L88.665,52.544L88.632,53.029L88.816,53.998L88.761,54.374L88.586,54.764L88.571,56.488L88.273,56.874L87.997,57.095L87.703,57.182L86.757,57.088L86.471,57.106L86.180,57.208L85.356,57.251L85.125,57.342L84.643,57.621L83.962,57.723L83.144,58.146L82.664,58.188L82.169,58.017L81.751,57.705L81.377,57.265L80.492,55.893L80.363,55.637L80.157,54.649L80.020,54.377L79.750,54.316L79.167,54.324L78.916,54.207L78.809,54.039L78.666,53.575L78.561,53.370L78.426,53.246L78.140,53.133L77.609,52.814L77.379,52.743L76.559,53.005L76.020,53.016L75.755,53.071L75.446,53.254L75.314,53.478L75.224,53.732L75.040,54.001L74.806,54.133L74.627,54.054L74.431,53.888L74.145,53.762L73.620,53.881L72.397,54.470L71.997,54.377L71.678,54.060L71.237,53.859L70.772,53.775L70.377,53.806L69.813,53.755L68.953,53.226L68.456,53.173L68.227,53.113L67.759,52.682L67.514,52.553L67.257,52.557L63.914,53.334L62.934,53.401L62.478,53.585L62.460,53.766L62.455,53.965L62.486,54.380L62.496,54.464L62.498,54.549L62.491,54.634L62.478,54.718L62.266,55.038L62.230,55.076L61.750,55.588L61.513,55.903L61.330,56.275L60.716,58.174L60.386,58.865L59.991,59.476L59.532,59.943L59.171,60.134L58.980,60.052L58.802,59.853L58.486,59.692L58.308,59.771L57.832,60.217L57.567,60.335L57.289,60.306L57.128,60.245L56.992,60.272L56.794,60.510L56.732,60.678L56.646,61.108L56.530,61.322L56.399,61.427L56.100,61.544L55.472,61.934L55.419,61.967L54.818,62.157L54.454,62.385L53.739,63.062L53.366,63.201L53.038,63.074L52.437,62.522L52.048,62.396L51.478,62.617L51.328,62.597L51.179,62.370L51.218,62.168L51.308,61.962L51.300,61.727L51.019,61.382L50.648,61.320L49.920,61.463L49.762,61.380L49.419,60.950L49.239,60.795L49.080,60.748L48.912,60.743L47.459,61.134L47.186,61.294L47.013,61.643L46.864,62.569L46.676,62.947L46.671,62.959L46.668,62.970L46.671,62.984L46.676,63.001L46.701,63.132L46.709,63.261L46.701,63.388L46.676,63.511L45.830,64.121L43.697,64.075L42.753,64.690L42.580,64.726L40.620,64.483L39.674,64.623L39.364,64.608L39.008,64.591L38.776,64.701L38.014,64.875L36.511,65.218L36.235,65.447L35.812,66.340L35.661,66.472L35.354,66.525L35.211,66.611L35.005,66.868L35.026,66.957L35.136,67.053L35.188,67.329L35.029,68.317L34.990,68.821L35.093,69.270L35.555,69.731L36.163,70.183L36.139,70.192L35.750,70.332L35.392,70.428L35.118,70.636L34.595,71.246L34.209,71.490L33.749,71.539L33.277,71.445L32.702,71.186L31.993,71.133L28.758,71.518L27.575,72.009L26.989,72.066L25.040,71.860L21.420,72.098L20.506,72.159L19.183,71.791L18.824,71.592L18.151,71.221L17.986,71.033L17.862,70.787L17.570,70.503L17.241,70.263L17.006,70.143L16.828,70.170L16.670,70.249L16.506,70.255L16.314,70.053L15.780,69.236L15.633,69.137L15.236,69.052L15.072,68.983L14.917,68.837L13.295,66.625L12.797,66.206L11.767,66.048L11.603,66.001L10.948,65.815L10.378,65.690L9.802,66.045L9.433,65.708L8.922,65.523L8.559,65.322L8.644,64.929L8.454,64.769L8.392,64.729L8.482,64.284L8.564,64.042L8.726,63.840L8.520,63.616L8.445,63.478L8.208,63.041L8.041,62.933L7.788,62.893L7.571,62.758L7.172,62.315L7.060,61.943L7.058,61.424L6.983,60.991L6.736,60.131L6.730,60.017L6.751,59.743L6.736,59.639L6.677,59.556L6.579,59.522L6.405,59.361L6.261,59.295L6.140,59.216L6.088,59.075L6.068,58.966L6.018,58.829L5.964,58.709L5.921,58.658L5.853,58.609L5.882,58.488L5.944,58.349L5.980,58.243L5.908,58.053L5.746,57.871L5.580,57.732L5.490,57.679L5.171,57.645L5.049,57.570L5.000,57.426L5.010,57.163L5.038,57.054L5.077,56.983L5.118,56.832L5.258,55.555L5.323,55.213L5.483,54.891L5.897,54.291L5.980,53.972L6.098,53.747L6.359,53.535L6.619,53.259L6.653,53.136L6.736,52.836L6.589,51.717L6.628,51.262L6.878,50.956L7.060,50.623L7.858,48.314L8.247,47.651L8.791,47.180L9.018,46.892L9.111,46.441L9.255,46.218L10.104,45.600L10.811,45.449L11.571,45.647L13.374,46.561L13.648,46.509L13.956,46.307L14.246,46.117L14.622,46.007L14.852,46.118L15.335,46.629L15.914,46.719L18.950,45.524L19.229,45.293L19.775,44.356L20.029,44.144L20.418,44.077L20.751,44.134L21.053,44.117L21.344,43.834L21.473,43.506L21.596,42.765L21.694,42.410L21.903,41.992L22.234,41.779L22.617,41.720L23.464,41.786L23.988,41.546L24.454,41.114L24.782,40.561L24.887,40.036L24.867,38.966L24.864,38.822L24.921,38.181L25.122,37.395L25.418,36.666L25.798,36.052L26.264,35.616L28.390,34.794L28.975,34.341L29.347,34.052L29.386,32.916L29.847,33.018L30.201,32.788L30.874,31.975L31.394,31.699L31.524,31.568L31.604,31.357L31.644,30.912L31.725,30.716L32.050,30.513L32.749,30.613L33.200,30.378L33.310,30.356L33.419,30.378L33.937,30.635L34.394,30.774L34.837,30.749L35.485,30.160L35.781,30.049L36.427,30.032L37.992,30.174L38.449,30.450L38.311,30.853L38.327,31.194L38.404,31.518L38.445,31.873L38.379,32.660L38.467,32.929L38.776,32.986L39.176,32.955L39.787,32.604L40.132,32.524L40.277,32.573L40.591,32.799L40.743,32.876L40.906,32.887L41.303,32.809L41.790,32.616L41.904,32.425L41.945,32.127L42.056,31.660L42.101,31.651L42.296,31.646L42.366,31.594L42.404,31.434L42.373,31.320L42.322,31.249L42.294,31.221L42.547,30.445L42.763,30.105L42.993,29.888L43.251,29.763L43.555,29.699L44.042,29.704L44.205,29.678L44.429,29.589L44.548,29.488L45.918,28.000L45.979,27.881L46.070,27.841L46.157,27.877L46.291,27.930L46.557,28.393L46.676,28.518L47.047,28.760L47.238,29.241L47.526,30.448L47.780,31.210L47.862,31.381L48.133,31.587L48.463,31.675L49.095,31.681L49.022,31.832L48.997,31.962L49.007,32.337L48.973,32.619L48.973,32.626L49.881,32.932L50.225,32.969L50.546,32.937L51.075,32.727L51.217,32.833L51.220,32.835L51.367,33.288L51.447,33.686L51.540,34.844L51.516,34.942L51.395,35.121L51.385,35.220L51.385,35.222L51.441,35.303L51.656,35.461L51.658,35.462L51.683,35.516L51.687,35.525L51.807,35.650L51.813,35.656L51.842,35.760L51.805,35.895L51.713,35.948L51.612,35.977L51.542,36.034L50.944,37.001L50.880,37.316L51.084,37.596L51.483,37.740L52.211,37.795L52.563,37.666L52.785,37.438L53.093,37.122L53.379,36.912L53.886,36.856L54.325,37.082L55.140,37.843L55.664,38.098L55.973,37.861L56.136,37.263L56.226,36.427L56.422,36.192L56.531,35.926L56.621,35.642L56.923,34.970L57.013,34.851L57.052,34.888L57.400,34.929L57.556,34.786L57.900,34.379L58.140,34.245L59.360,34.139L59.439,34.033L59.551,33.701L59.633,33.360L59.666,33.140L59.725,32.991L59.886,32.871L60.074,32.868L60.721,33.109L61.537,33.078L61.534,32.666L61.781,32.610L63.117,33.284L63.463,33.368L63.837,33.236L64.018,33.068L64.270,32.760L64.432,32.670L64.577,32.660L64.918,32.710L65.516,32.615L65.763,32.659L67.166,34.317L67.416,34.498L67.770,34.552L68.040,34.536L68.288,34.573L68.583,34.791L68.841,35.057L69.098,35.241L69.389,35.295L69.759,35.163L70.101,34.870L70.617,34.122L70.942,33.809L71.190,33.757L71.523,33.753L71.816,33.695L71.945,33.476L71.752,33.115L71.388,32.896L71.195,32.678L71.515,32.325L71.757,32.211L72.399,32.082L72.644,32.104L72.930,32.299L73.155,32.547L73.397,32.712L73.736,32.656L74.008,32.405L74.501,31.683L74.787,31.487L75.005,31.539L75.891,32.006L77.431,32.436L77.692,32.433L78.279,32.306L78.510,32.374L78.799,32.259L79.038,32.163L80.170,32.036L80.465,32.112L80.626,32.218L80.920,32.501L81.080,32.612L81.199,32.628L81.444,32.573L81.601,32.619L81.867,32.889L82.398,33.697L82.641,33.893L82.806,33.784L83.030,33.521L83.302,33.273L83.621,33.215L83.910,33.378L84.490,33.906L85.341,34.327L85.911,34.859L86.365,35.586L86.564,36.431L86.669,37.192L87.116,37.518L88.235,37.729L88.749,38.058L88.932,38.138L89.091,38.148L89.470,38.103L89.600,38.127L89.774,38.319L89.775,38.487L89.731,38.642L89.767,38.793L89.885,38.893L90.626,39.118L91.500,39.085L91.836,39.217L92.637,40.017L93.216,40.194L94.453,40.247L95.000,40.515Z" fill="currentColor" stroke="currentColor" stroke-width="1" stroke-linejoin="round"/>
</svg>