<svg xmlns="http://www.w3.org/2000/svg" viewBox="0 0 100 100" role="img" aria-label="Slovenia">
  <title>Slovenia</title>
  <path d="M12.933,78.221L12.930,78.221L12.396,78.085L11.408,77.009L11.468,76.832L11.396,76.482L11.591,76.057L11.591,75.801L11.312,75.745L11.096,75.584L10.929,75.312L10.810,74.930L11.410,75.072L13.854,74.703L16.076,74.368L16.076,74.113L15.774,73.671L15.346,73.200L14.900,72.705L16.308,72.580L17.436,73.198L18.786,73.057L19.362,72.335L19.908,71.651L20.126,71.112L20.096,71.033L20.082,70.994L19.825,70.975L19.397,70.728L19.090,70.389L16.813,66.511L14.835,65.607L14.561,65.393L13.431,64.506L12.952,64.356L11.969,64.235L11.172,63.796L10.969,63.393L10.735,62.927L10.829,61.516L11.687,59.545L11.942,58.959L12.145,58.160L12.359,57.316L11.874,56.531L11.728,56.566L10.897,56.762L9.976,57.207L9.119,57.273L8.343,56.374L8.331,56.327L8.313,56.286L8.290,56.248L8.263,56.214L8.130,56.105L7.758,55.666L8.195,55.268L8.343,55.170L8.564,54.876L8.644,54.590L8.573,54.324L8.343,54.081L8.995,53.207L9.495,52.825L12.176,50.774L12.993,49.261L12.880,48.862L12.775,48.491L12.489,48.436L12.105,48.361L11.263,48.453L10.537,48.338L9.677,47.483L9.140,47.106L8.343,46.944L7.944,46.716L7.088,46.656L6.645,46.503L7.061,47.232L6.282,47.353L6.039,46.995L5.939,46.424L5.561,45.904L5.558,45.900L5.555,45.896L5.381,44.862L5.221,44.372L5.000,43.959L5.744,43.494L5.868,43.281L6.273,42.585L6.657,41.709L6.967,41.338L7.345,41.297L7.699,41.124L8.384,40.625L9.707,39.916L10.404,39.190L11.012,38.335L11.712,37.677L12.681,37.550L13.386,37.574L13.921,37.288L14.160,36.794L14.234,36.641L14.275,35.586L14.435,35.368L14.541,35.112L14.594,34.821L14.591,34.497L15.024,34.533L16.911,34.990L17.300,34.986L19.155,34.683L20.017,34.825L22.630,36.057L23.100,36.115L23.562,36.032L24.062,35.942L24.564,35.955L25.031,36.093L25.450,36.303L27.057,37.685L27.362,37.768L27.417,37.783L30.059,37.858L33.482,37.956L34.445,37.745L34.749,37.813L34.885,38.007L34.976,38.239L35.136,38.431L35.625,38.656L36.019,38.838L36.497,38.913L37.483,38.678L37.873,39.214L38.195,39.920L38.573,40.316L39.069,40.097L39.195,39.776L39.335,39.420L39.574,38.622L39.996,38.015L40.274,37.902L40.894,37.847L41.183,37.762L41.479,37.570L42.052,36.973L42.181,36.939L42.351,36.969L42.562,37.007L42.766,36.498L43.100,36.096L43.242,35.816L43.413,35.620L43.888,35.406L44.142,35.586L44.875,35.465L45.506,35.177L45.666,35.037L45.897,34.511L46.197,33.826L46.407,33.194L46.629,32.526L46.953,31.831L47.432,31.141L47.792,30.988L48.194,31.037L48.679,30.973L48.784,30.959L49.406,30.568L49.809,30.316L50.219,30.393L50.768,31.177L51.832,29.668L53.476,29.144L54.155,29.217L54.723,29.277L56.636,29.482L57.560,29.581L61.214,29.391L62.796,29.308L63.637,29.623L64.146,30.066L64.278,30.182L64.925,30.584L65.781,30.433L66.313,30.018L66.390,29.846L66.496,29.611L66.572,29.220L66.587,29.142L66.868,28.555L67.305,28.224L67.916,28.064L68.524,28.055L68.955,28.177L69.325,28.072L69.470,27.964L69.620,27.853L69.791,27.492L69.788,26.962L69.877,26.340L70.337,26.618L72.525,26.941L73.281,26.898L74.123,26.561L75.219,26.122L76.013,26.054L76.807,26.210L78.744,27.181L79.905,27.386L80.218,27.603L80.751,28.270L80.755,28.273L80.693,27.323L80.371,26.685L79.763,26.299L79.435,25.290L79.412,24.568L79.448,23.969L79.456,23.844L79.654,22.564L79.630,22.272L79.503,22.180L79.477,22.089L79.754,21.799L79.922,21.703L81.090,21.417L81.192,21.392L81.790,21.041L82.964,20.352L83.999,20.602L84.145,20.637L85.405,20.529L88.049,20.303L88.341,20.469L88.774,21.001L88.902,21.158L89.153,21.290L89.573,21.314L89.700,21.522L89.635,21.890L89.472,22.393L89.274,22.858L89.166,23.043L88.911,23.476L88.834,23.785L88.796,23.938L88.861,24.092L89.254,25.277L89.578,25.692L89.824,26.167L90.089,26.479L90.485,26.411L90.494,27.105L90.717,27.200L90.740,27.210L90.890,27.273L91.421,27.305L91.849,27.590L92.006,28.368L91.780,28.585L91.610,28.749L91.067,29.008L90.804,29.415L90.913,29.689L91.031,29.988L91.551,30.404L92.570,31.007L93.624,32.643L94.587,33.464L95.000,35.241L94.309,34.687L94.028,34.527L93.727,34.476L93.107,34.555L92.859,34.527L92.620,34.354L92.139,33.845L91.885,33.683L91.560,33.658L91.197,33.687L90.833,33.638L90.503,33.374L90.326,33.683L90.313,33.665L90.110,33.374L89.999,33.504L89.705,33.849L89.153,34.034L88.716,34.303L87.819,34.655L87.732,34.752L86.989,35.586L86.968,35.934L86.953,36.188L87.063,36.752L87.402,37.888L87.423,38.221L87.370,38.885L87.446,39.229L87.621,39.439L88.108,39.761L88.241,39.957L88.275,40.315L88.285,40.416L88.152,40.542L87.500,40.531L86.481,40.781L86.239,40.792L85.757,40.681L85.350,40.442L84.665,39.788L84.387,39.653L84.036,39.721L83.797,39.976L83.578,40.289L83.306,40.518L82.973,40.579L82.810,40.545L81.933,40.362L81.919,41.099L81.984,41.690L81.981,42.226L81.774,42.792L81.704,42.869L81.390,43.211L80.826,43.607L80.233,43.908L80.096,43.946L79.763,44.040L78.812,44.210L77.960,44.679L76.955,45.233L76.874,45.235L76.829,45.237L75.540,45.276L75.086,45.393L74.652,45.600L74.550,45.678L74.253,45.906L73.674,46.885L73.128,47.238L71.077,47.086L70.600,47.051L69.986,47.366L69.608,47.880L69.502,48.025L68.973,49.043L68.563,50.211L68.560,51.249L68.958,52.178L69.523,52.779L69.750,53.020L70.098,53.228L70.898,53.563L71.247,53.821L71.503,54.213L71.648,54.437L71.524,54.867L71.191,55.372L70.972,56.205L70.969,56.212L71.003,57.064L71.052,58.330L71.008,59.016L70.860,59.532L70.659,60.020L70.547,60.514L70.668,61.041L71.005,61.870L71.022,62.458L70.736,62.871L70.151,63.182L69.593,63.344L68.486,63.385L67.413,63.200L66.664,63.071L66.389,63.212L65.858,63.655L65.574,63.758L65.247,63.700L64.922,63.591L64.600,63.553L64.287,63.704L64.151,64.090L64.263,64.521L64.308,64.913L63.985,65.180L63.965,65.196L61.164,66.137L60.386,66.398L59.234,67.048L58.992,67.333L58.846,67.735L58.818,67.813L58.874,67.985L59.084,68.090L59.358,68.365L59.642,68.919L59.793,69.121L60.047,69.309L60.419,69.449L60.537,69.366L60.575,69.200L60.705,69.089L61.050,68.996L61.157,68.938L61.245,69.017L61.707,69.554L61.762,69.618L62.229,70.402L62.385,70.766L61.795,70.762L61.396,70.903L61.042,71.095L60.203,71.365L60.038,71.672L59.931,71.998L59.736,72.171L59.379,72.356L59.409,72.695L59.612,73.138L59.768,73.600L59.781,73.637L59.952,74.711L60.182,75.602L60.593,76.305L62.031,77.289L61.756,77.532L61.245,78.259L60.997,78.493L60.678,78.589L59.751,78.570L58.159,79.169L56.970,79.616L55.685,79.433L53.596,77.623L53.311,77.377L51.917,77.338L51.634,77.076L51.315,76.925L51.059,76.889L50.639,76.831L50.145,76.362L49.496,75.932L48.976,75.953L48.873,76.831L48.323,77.794L47.101,78.240L45.911,77.984L45.462,76.831L45.459,76.829L45.456,76.823L45.453,76.823L42.802,75.640L42.235,75.148L42.226,74.935L42.326,74.206L42.273,73.886L42.108,73.660L42.097,73.654L41.916,73.547L41.715,73.462L40.735,72.669L40.365,72.277L40.103,71.757L40.076,71.201L40.109,70.445L40.047,69.812L39.733,69.628L39.395,69.775L39.246,69.839L39.025,70.087L38.668,70.922L38.366,71.365L37.646,72.183L37.380,72.582L37.200,73.108L37.178,73.284L37.061,74.214L36.911,74.798L36.533,75.493L35.413,76.326L34.885,76.829L33.786,77.462L32.472,77.583L31.146,77.328L30.010,76.823L29.384,76.665L28.651,76.882L27.293,77.528L26.555,77.667L26.487,77.663L26.471,77.662L25.790,77.624L25.040,77.362L24.322,76.829L23.944,76.439L23.534,76.220L22.777,76.057L22.332,75.962L22.134,76.096L22.034,76.388L22.034,76.831L22.639,77.566L22.273,78.076L20.935,78.653L20.519,79.069L20.268,79.467L19.964,79.697L18.437,79.471L17.988,79.327L17.607,78.934L16.258,78.067L13.420,78.199L12.933,78.221Z" fill="currentColor" stroke="currentColor" stroke-width="1" stroke-linejoin="round"/>
</svg>