<svg xmlns="http://www.w3.org/2000/svg" viewBox="0 0 100 100" role="img" aria-label="eSwatini">
  <title>eSwatini</title>
  <path d="M75.432,17.649L76.759,18.921L78.224,19.715L81.615,20.593L80.946,22.382L81.215,24.430L81.818,26.538L82.168,28.509L81.984,30.028L80.299,34.531L80.051,36.191L80.686,42.065L81.067,43.661L83.474,48.528L84.001,53.196L83.822,67.876L83.000,67.506L81.747,66.246L80.931,66.087L77.513,66.069L77.623,67.776L76.759,72.809L75.964,77.489L75.069,82.721L75.175,86.234L75.208,87.319L75.337,91.539L75.622,92.375L75.969,92.993L76.227,93.599L76.375,94.247L76.401,95.000L71.833,94.941L66.937,94.871L59.517,94.770L53.892,94.694L50.474,93.999L45.236,92.198L41.337,90.856L39.531,90.234L35.064,88.696L34.295,88.178L33.508,87.389L31.075,83.722L25.842,78.984L24.699,77.006L24.484,75.587L25.010,73.351L25.073,71.932L24.773,70.802L24.231,69.960L22.772,68.412L22.098,67.382L21.216,64.780L20.958,64.015L20.373,64.739L19.591,65.404L18.727,65.887L17.879,66.052L16.994,66.105L16.649,64.774L16.141,60.866L16.062,53.002L15.999,46.939L17.102,42.672L21.829,36.650L25.526,31.947L28.986,25.737L31.730,19.103L32.507,16.101L33.168,14.912L37.682,10.845L42.822,6.218L44.254,5.494L46.018,5.024L47.519,5.000L48.815,5.436L54.213,8.961L59.611,12.487L64.291,15.548L65.125,16.094L69.589,19.015L71.056,19.462L72.509,19.115L75.432,17.649Z" fill="currentColor" stroke="currentColor" stroke-width="1.5" stroke-linejoin="round"/>
</svg>