<svg xmlns="http://www.w3.org/2000/svg" viewBox="0 0 100 100" role="img" aria-label="Seychelles">
  <title>Seychelles</title>
  <path d="M7.700,76.494L7.680,76.601L7.619,76.733L7.528,76.814L7.431,76.774L7.421,76.678L7.497,76.586L7.607,76.519L7.700,76.494ZM16.607,76.432L16.607,76.298L16.657,76.264L16.682,76.316L16.607,76.432ZM68.630,37.833L68.698,37.921L68.720,37.964L68.726,38.021L68.688,37.978L68.665,37.933L68.630,37.833ZM89.395,23.186L89.450,23.372L89.385,23.371L89.325,23.277L89.395,23.186ZM7.572,73.236L7.755,73.363L7.837,73.449L7.792,73.487L7.676,73.534L7.371,73.765L7.207,73.855L6.548,73.838L5.825,74.060L5.241,74.088L5.000,73.487L5.206,73.740L5.596,73.854L6.010,73.831L6.288,73.670L6.443,73.679L6.684,73.602L6.912,73.499L7.029,73.420L7.084,73.487L7.146,73.420L7.235,73.464L7.334,73.487L7.334,73.420L7.244,73.362L7.191,73.279L7.162,73.175L7.146,73.057L7.572,73.236ZM5.683,73.179L5.667,73.150L5.671,73.130L5.664,73.118L5.616,73.113L5.614,73.071L5.631,73.064L5.657,73.067L5.963,72.956L6.306,72.978L6.658,73.040L6.962,73.057L6.815,73.197L6.536,73.231L6.256,73.191L6.104,73.113L5.991,73.175L5.788,73.146L5.683,73.179ZM94.640,53.770L94.744,53.299L94.839,53.115L95.000,53.027L94.960,53.224L94.866,53.419L94.640,53.770ZM87.092,31.003L87.027,30.979L87.031,30.943L87.077,30.935L87.054,30.907L86.983,30.884L86.895,30.904L86.820,30.881L86.769,30.843L86.784,30.812L86.852,30.819L86.877,30.799L86.851,30.753L86.973,30.635L87.028,30.612L87.138,30.603L87.234,30.561L87.276,30.490L87.310,30.418L87.359,30.383L87.383,30.275L87.377,30.122L87.439,30.104L87.501,30.109L87.567,30.119L87.647,30.202L87.677,30.310L87.640,30.350L87.612,30.446L87.612,30.517L87.602,30.622L87.628,30.662L87.587,30.675L87.583,30.691L87.652,30.687L87.752,30.818L87.948,30.957L88.116,31.071L88.224,31.180L88.162,31.428L88.195,31.483L88.220,31.689L88.145,31.710L88.120,31.811L88.199,31.988L88.212,32.112L88.279,32.165L88.308,32.291L88.145,32.291L88.007,32.220L87.890,32.013L87.852,31.917L87.773,31.887L87.710,31.929L87.643,31.896L87.685,31.731L87.833,31.732L87.894,31.685L87.836,31.605L87.794,31.550L87.806,31.475L87.773,31.416L87.685,31.407L87.597,31.277L87.514,31.159L87.393,31.146L87.238,31.054L87.159,31.006L87.092,31.003ZM85.829,29.561L85.665,29.596L85.541,29.447L85.482,29.231L85.518,29.065L85.666,29.114L85.826,29.227L85.909,29.381L85.829,29.561ZM89.912,28.032L89.792,28.012L89.684,27.998L89.617,27.931L89.610,27.866L89.551,27.729L89.667,27.688L89.728,27.677L89.795,27.674L89.922,27.791L90.042,27.841L90.172,27.864L90.241,27.951L90.331,27.911L90.444,27.928L90.532,28.037L90.388,28.043L90.364,28.118L90.362,28.214L90.283,28.287L90.172,28.284L90.047,28.231L89.963,28.144L89.912,28.032ZM63.343,51.987L63.391,52.084L63.357,52.075L63.346,52.054L63.346,52.024L63.343,51.987ZM86.923,41.733L86.914,41.837L86.898,41.870L86.897,41.832L86.923,41.733ZM86.743,30.992L86.774,31.004L86.813,31.033L86.843,31.056L86.835,31.069L86.807,31.058L86.763,31.051L86.737,31.032L86.724,31.010L86.743,30.992ZM87.067,31.076L87.087,31.084L87.119,31.104L87.137,31.133L87.129,31.161L87.124,31.178L87.113,31.181L87.077,31.140L87.054,31.119L87.056,31.101L87.045,31.086L87.051,31.074L87.067,31.076ZM87.983,30.718L88.006,30.726L88.030,30.791L88.021,30.816L87.993,30.818L87.956,30.805L87.930,30.780L87.898,30.767L87.895,30.728L87.913,30.711L87.944,30.712L87.967,30.728L87.983,30.718ZM88.007,30.652L88.020,30.654L88.042,30.674L88.072,30.682L88.084,30.704L88.068,30.725L88.045,30.715L88.015,30.695L87.999,30.671L88.007,30.652ZM87.951,30.467L87.964,30.456L88.003,30.444L88.045,30.454L88.081,30.454L88.098,30.464L88.081,30.501L88.053,30.540L87.994,30.564L87.957,30.589L87.941,30.591L87.937,30.565L87.946,30.518L87.941,30.486L87.951,30.467ZM89.863,27.585L89.889,27.553L89.953,27.553L90.099,27.563L90.138,27.567L90.125,27.610L90.042,27.610L90.052,27.664L90.049,27.694L89.940,27.656L89.863,27.585ZM89.425,28.015L89.455,28.025L89.448,28.068L89.401,28.075L89.398,28.035L89.425,28.015ZM89.282,28.182L89.299,28.199L89.318,28.242L89.292,28.242L89.252,28.205L89.282,28.182ZM89.458,26.952L89.491,26.958L89.534,26.972L89.504,26.995L89.438,26.988L89.391,26.978L89.401,26.955L89.458,26.952ZM90.932,28.098L91.042,28.145L91.101,28.259L91.158,28.346L91.098,28.376L91.042,28.429L91.018,28.506L90.955,28.490L90.876,28.409L90.856,28.299L90.902,28.189L90.932,28.098ZM91.261,27.918L91.304,27.928L91.390,28.022L91.403,28.092L91.350,28.105L91.304,28.055L91.244,27.971L91.261,27.918ZM91.241,27.610L91.271,27.614L91.281,27.670L91.307,27.727L91.274,27.731L91.241,27.660L91.241,27.610ZM91.719,28.068L91.762,28.095L91.752,28.149L91.742,28.209L91.709,28.192L91.699,28.125L91.719,28.068ZM91.898,30.267L91.937,30.278L91.982,30.337L91.988,30.378L91.941,30.394L91.889,30.389L91.836,30.335L91.831,30.301L91.860,30.278L91.898,30.267Z" fill="currentColor" stroke="currentColor" stroke-width="1.5" stroke-linejoin="round"/>
</svg>