<svg xmlns="http://www.w3.org/2000/svg" viewBox="0 0 100 100" role="img" aria-label="Syria">
  <title>Syria</title>
  <path d="M5.462,84.182L5.822,83.628L6.499,82.804L6.603,82.382L6.551,82.177L6.709,81.686L6.941,81.275L7.037,81.249L7.227,80.877L6.910,80.336L6.835,80.131L6.656,78.562L6.698,78.344L6.192,78.126L6.192,77.881L6.340,77.637L6.488,77.315L6.445,76.839L6.140,76.646L6.085,75.876L5.706,75.605L5.611,75.476L6.064,74.821L5.547,74.460L5.843,74.320L5.948,74.204L6.171,74.038L6.203,73.818L6.245,73.727L6.266,73.458L6.340,73.356L6.322,73.268L6.646,73.070L6.984,72.864L7.233,72.713L7.652,72.352L7.868,71.826L7.685,71.491L7.838,71.273L8.157,71.168L8.474,71.172L8.732,71.052L9.010,70.864L9.218,70.614L9.261,70.309L9.143,70.123L8.916,69.952L8.667,69.825L8.474,69.771L8.158,69.591L7.859,69.534L7.680,69.420L7.732,69.068L7.787,69.012L7.963,68.943L8.027,68.880L8.063,68.721L8.024,68.422L8.044,68.284L8.144,68.138L8.392,67.906L8.474,67.719L8.660,67.436L9.108,67.047L9.289,66.696L9.424,66.518L9.640,66.426L9.892,66.359L10.127,66.257L10.612,65.955L10.701,66.007L10.873,66.227L10.982,66.298L11.265,66.291L11.483,66.158L11.672,66.002L11.877,65.923L12.112,65.969L12.807,66.316L13.317,66.439L13.577,66.397L13.741,66.179L13.714,65.840L13.480,65.694L12.949,65.602L12.551,65.287L12.466,65.187L12.379,65.029L12.355,64.970L12.645,64.375L12.830,64.080L13.043,63.815L13.581,63.336L14.031,62.757L14.316,62.610L14.472,62.623L14.762,62.733L14.948,62.724L15.169,62.612L15.243,62.459L15.270,62.266L15.348,62.033L15.612,61.694L16.218,61.170L16.531,60.639L16.912,60.213L16.905,60.197L16.833,60.036L16.506,59.708L16.418,59.471L16.353,59.161L16.455,58.948L16.585,58.766L16.613,58.552L16.543,58.424L16.455,58.403L16.356,58.411L16.260,58.368L16.116,58.209L15.823,57.795L15.756,57.667L15.720,57.535L15.731,57.399L15.775,57.314L15.823,57.236L15.860,57.122L15.907,56.852L15.919,56.669L15.844,56.525L15.629,56.369L15.530,56.404L15.432,56.339L15.236,56.093L15.007,55.993L14.825,55.840L14.691,55.627L14.604,55.351L14.604,55.349L14.419,55.283L14.048,55.253L13.652,55.271L13.390,55.351L13.353,55.363L13.316,55.366L13.278,55.363L13.241,55.351L13.203,55.278L13.068,55.023L13.295,54.780L13.665,54.578L13.929,54.369L13.991,54.110L13.974,53.867L14.002,53.670L14.202,53.545L14.402,53.603L14.546,53.720L14.642,53.643L14.695,53.124L14.368,53.230L14.033,53.237L13.713,53.127L13.440,52.881L13.121,52.298L12.920,52.165L12.639,52.363L12.594,52.489L12.589,52.812L12.538,52.963L12.414,53.098L12.280,53.159L11.463,53.205L11.381,53.176L11.221,53.056L11.153,53.026L11.070,53.047L10.908,53.145L10.850,53.164L10.258,53.121L9.921,53.097L9.563,53.148L9.254,53.139L8.961,53.053L8.725,52.860L8.625,52.813L8.507,52.780L8.334,52.787L8.277,52.480L8.030,51.968L7.942,51.528L7.810,51.285L7.781,51.139L7.781,50.466L7.741,50.363L7.503,49.954L7.450,49.789L7.377,49.443L6.941,48.266L7.022,48.222L7.031,48.144L7.112,48.038L7.137,47.924L7.112,47.810L7.031,47.704L7.031,47.592L7.099,47.519L7.104,47.509L7.073,47.484L7.031,47.366L7.140,47.135L7.218,47.014L7.326,46.906L7.396,46.656L7.352,46.415L7.273,46.194L7.225,46.007L7.225,45.218L7.310,45.023L7.947,44.042L8.233,43.756L8.110,43.314L7.596,42.274L7.781,41.721L7.714,41.440L7.614,40.373L7.645,40.136L7.509,40.003L6.856,39.124L6.578,38.987L6.443,38.887L6.386,38.725L6.285,38.632L6.067,38.666L5.857,38.743L5.783,38.786L5.637,38.710L5.657,38.525L5.727,38.300L5.740,38.101L5.657,38.016L5.185,37.763L5.208,37.682L5.237,37.519L5.270,37.427L5.185,37.427L5.000,37.529L5.000,37.427L5.271,37.330L5.540,37.160L5.745,36.922L5.824,36.628L5.794,36.444L5.674,36.218L5.646,36.015L5.720,35.894L6.037,35.790L6.558,34.791L6.582,34.702L6.578,34.317L6.522,34.002L6.379,33.615L6.197,33.253L6.017,33.018L6.670,33.058L6.995,32.983L7.132,32.738L7.189,32.420L7.542,31.897L7.671,31.940L7.938,31.886L8.210,31.787L8.474,31.747L8.644,31.937L8.648,32.150L8.607,32.366L8.638,32.562L8.795,32.697L9.004,32.746L9.428,32.759L9.828,32.944L10.615,33.511L10.842,33.470L10.873,33.465L11.024,32.979L11.107,31.816L11.405,31.337L11.839,31.181L12.165,31.272L12.380,31.221L12.494,30.640L12.495,30.637L12.763,30.529L13.296,30.735L13.584,30.641L13.550,30.172L13.592,27.790L13.617,27.548L13.696,27.424L13.806,27.314L13.824,27.172L13.630,26.947L13.787,26.791L13.957,26.991L14.126,27.111L14.312,27.173L14.683,27.223L14.764,27.248L14.838,27.248L14.953,27.195L15.017,27.101L15.035,26.984L15.084,26.877L15.236,26.825L15.485,26.787L16.511,26.944L16.769,26.948L17.726,26.768L17.804,26.631L17.792,26.260L17.743,26.027L17.648,25.755L17.517,25.504L17.515,25.501L17.358,25.322L17.138,25.236L16.692,25.190L16.555,25.057L16.616,25.054L16.692,24.905L16.780,24.658L16.782,24.512L16.767,24.388L16.729,24.275L16.664,24.165L16.598,24.118L16.384,24.023L16.289,23.941L16.218,23.816L15.962,22.922L15.927,22.649L15.984,22.402L16.388,21.768L16.451,21.056L16.441,20.324L16.625,19.628L16.785,19.242L16.831,18.918L16.843,18.600L16.901,18.235L17.069,17.911L17.290,17.619L17.442,17.301L17.396,16.898L17.522,16.890L17.649,16.907L17.663,16.912L20.153,17.759L21.007,17.812L21.266,17.872L21.536,17.976L21.790,18.121L21.998,18.312L22.411,18.687L22.517,18.899L22.531,19.242L22.413,19.771L22.464,19.960L22.718,20.183L22.985,20.327L23.111,20.292L23.216,20.137L23.426,19.928L23.680,19.816L23.904,19.834L24.126,19.900L24.379,19.932L25.239,19.714L25.539,19.691L27.738,20.088L28.302,20.092L30.294,18.835L31.114,18.479L33.355,18.011L35.524,17.037L35.901,16.936L36.145,16.784L37.457,15.966L38.364,15.622L38.827,15.575L39.715,15.685L42.286,16.442L42.954,16.805L44.385,18.283L44.777,18.687L45.600,19.108L46.552,19.228L48.751,19.125L49.049,19.038L49.755,18.989L51.834,19.675L52.561,19.646L55.294,19.134L59.671,18.314L62.573,17.246L63.918,16.457L64.404,16.294L64.912,16.201L65.418,15.970L66.382,15.338L68.172,14.164L68.444,13.999L68.732,13.891L69.027,13.833L69.336,13.816L69.957,13.639L71.766,12.661L72.435,12.410L74.971,12.044L78.199,12.677L78.803,12.918L79.095,12.995L82.861,12.820L88.496,11.523L90.023,11.172L90.615,10.826L91.634,9.892L92.313,9.019L92.509,8.905L92.755,8.712L92.909,8.893L92.925,9.084L92.903,9.248L92.917,9.318L93.102,9.348L93.513,9.542L93.589,9.506L93.675,9.415L93.764,9.344L93.848,9.369L93.907,9.457L93.975,9.618L94.034,9.707L94.495,10.068L94.588,10.115L94.676,10.325L94.434,11.245L94.588,11.455L94.694,11.554L94.720,11.787L94.730,12.253L94.817,12.448L94.919,12.616L94.996,12.801L95.000,13.040L94.995,13.044L94.576,13.358L93.711,14.162L93.711,14.164L93.707,14.165L92.312,15.625L89.608,18.454L87.785,20.361L87.427,20.660L87.057,20.832L82.861,21.708L81.984,21.852L81.585,22.034L81.314,22.400L81.314,22.401L81.313,22.402L81.313,22.404L80.119,24.696L80.008,25.138L79.572,29.272L79.573,29.547L79.627,29.833L79.973,30.636L79.975,30.635L79.975,30.636L81.020,32.887L81.167,33.415L81.231,33.956L81.289,36.222L81.215,36.738L81.001,37.236L80.544,37.919L79.906,38.873L79.906,38.876L79.905,38.876L79.903,38.876L79.779,39.371L79.660,40.979L79.095,43.013L78.963,44.016L78.973,44.399L79.051,47.116L79.165,49.994L79.134,50.426L79.018,50.832L76.696,55.349L76.696,55.351L76.210,56.433L75.902,56.872L75.507,57.133L72.185,58.032L70.202,59.243L68.706,60.156L67.210,61.069L65.714,61.981L65.187,62.302L64.218,62.894L62.722,63.807L61.228,64.719L59.731,65.631L58.236,66.545L56.740,67.456L55.245,68.369L53.749,69.281L52.253,70.194L50.757,71.107L49.261,72.020L47.766,72.932L46.270,73.846L42.957,75.945L40.064,77.808L38.916,78.547L36.561,80.063L34.839,81.200L32.521,82.729L30.203,84.256L28.958,85.076L27.884,85.783L25.569,87.311L24.071,88.297L24.069,88.298L21.998,89.690L19.824,91.226L19.651,91.288L19.461,91.280L18.597,91.045L18.303,91.036L18.069,91.179L17.581,90.796L15.730,90.563L15.236,90.501L15.017,90.359L14.255,90.280L13.988,90.196L13.788,90.079L12.600,88.917L11.727,88.297L11.287,87.840L11.140,87.757L11.070,87.780L10.917,87.924L10.850,87.957L10.768,87.942L10.629,87.885L10.543,87.876L10.043,87.946L9.849,87.939L9.686,87.934L9.637,87.922L9.635,87.851L9.559,87.659L8.950,86.705L8.822,86.430L8.813,86.120L8.853,85.839L8.790,85.652L8.474,85.627L8.279,85.664L8.137,85.613L8.019,85.498L7.896,85.341L7.946,85.348L7.989,85.281L8.007,85.174L7.986,85.064L7.935,85.036L7.760,85.038L7.693,85.015L7.459,84.771L7.331,84.693L5.877,84.345L5.753,84.183L5.754,84.179L5.697,84.133L5.627,84.120L5.547,84.138L5.462,84.182Z" fill="currentColor" stroke="currentColor" stroke-width="1" stroke-linejoin="round"/>
</svg>