<svg xmlns="http://www.w3.org/2000/svg" viewBox="0 0 100 100" role="img" aria-label="Turks and Caicos Islands">
  <title>Turks and Caicos Islands</title>
  <path d="M6.367,44.221L8.187,43.947L8.198,46.030L6.950,48.547L5.000,49.595L5.000,49.149L5.739,48.410L6.194,47.116L6.389,45.607L6.367,44.221ZM69.774,44.221L68.379,43.359L65.431,42.080L64.277,40.755L64.586,40.539L64.862,40.428L65.081,40.245L65.228,39.823L67.437,41.276L68.604,41.757L70.229,42.220L71.572,42.782L72.847,43.831L73.505,45.310L72.994,47.151L72.216,47.314L71.279,46.365L69.774,44.221ZM50.150,38.314L48.496,38.465L47.976,38.057L47.386,36.889L47.145,36.059L46.969,33.420L47.521,33.467L48.090,33.595L48.620,33.813L49.714,34.585L50.345,34.591L50.955,34.425L51.556,34.358L55.642,34.888L57.543,34.498L58.406,34.451L59.281,34.888L59.977,35.785L61.591,39.287L60.451,38.908L59.720,37.912L59.119,36.750L58.371,35.867L58.910,37.466L60.161,39.957L60.643,41.285L59.750,41.465L59.089,40.996L57.916,39.287L57.526,40.021L57.421,40.312L57.007,40.312L55.967,38.357L54.258,37.813L50.150,38.314ZM14.588,37.379L14.391,36.444L15.087,34.198L15.041,32.977L16.538,33.709L20.724,37.597L21.607,37.923L22.912,37.918L24.207,37.693L25.079,37.379L26.032,36.455L26.573,35.692L27.294,35.506L28.753,36.356L28.753,36.889L26.979,38.605L26.443,39.287L26.097,38.250L26.032,37.819L24.169,38.797L24.418,38.885L24.645,38.934L24.862,39.036L25.079,39.287L24.090,39.817L22.409,39.572L21.442,39.823L21.442,38.797L18.807,40.927L17.608,41.104L16.860,39.287L17.269,39.287L17.686,39.895L18.314,40.201L18.780,40.053L18.721,39.287L18.314,38.908L15.991,37.819L16.208,38.797L16.040,39.537L15.493,40.038L14.588,40.312L14.437,39.834L14.404,39.508L14.458,39.205L14.588,38.797L14.699,39.106L14.724,39.153L14.797,39.153L15.041,39.287L15.301,38.349L16.137,36.799L16.405,35.867L14.976,36.977L14.588,37.379ZM35.569,29.960L35.292,29.287L35.401,28.588L35.366,27.959L34.618,27.513L34.913,26.962L35.336,26.525L35.869,26.214L36.479,26.051L40.361,26.051L40.757,26.132L41.656,26.499L42.176,26.581L42.950,26.823L43.102,27.391L42.880,28.492L43.459,32.686L44.445,34.143L46.519,34.358L45.195,35.421L44.041,35.145L43.042,34.358L42.176,33.915L41.618,33.735L40.825,33.286L40.074,32.657L39.657,31.958L39.744,31.020L40.768,29.348L41.022,28.492L40.519,27.251L39.425,27.897L37.838,29.733L37.567,30.298L36.923,30.449L36.164,30.298L35.569,29.960ZM94.388,57.949L94.903,59.059L95.000,60.912L94.686,62.755L93.936,63.819L93.484,62.461L93.530,60.868L93.895,59.277L94.388,57.949ZM57.805,73.256L58.304,72.924L58.721,72.773L58.417,73.320L57.269,73.949L57.055,73.818L57.805,73.256ZM61.363,71.896L61.732,71.497L61.770,72.508L61.342,73.635L60.930,73.029L61.363,71.896ZM89.614,70.279L90.264,70.302L90.768,70.734L90.185,71.590L89.357,72.481L88.989,72.213L89.319,70.891L89.614,70.279ZM70.418,53.956L70.554,54.384L70.491,56.758L70.548,58.395L70.020,59.350L68.907,59.688L67.803,58.963L67.662,57.739L68.453,57.183L69.257,57.300L69.709,56.933L69.720,55.226L70.199,53.979L70.418,53.956ZM28.718,33.537L29.078,33.304L29.292,33.601L28.753,34.093L28.176,34.038L28.718,33.537ZM30.722,31.541L31.074,31.332L31.239,31.655L31.236,32.240L30.841,32.639L30.397,32.826L30.272,32.319L30.722,31.541Z" fill="currentColor" stroke="currentColor" stroke-width="1.5" stroke-linejoin="round"/>
</svg>