<svg xmlns="http://www.w3.org/2000/svg" viewBox="0 0 100 100" role="img" aria-label="Chad">
  <title>Chad</title>
  <path d="M24.762,63.352L23.520,61.590L22.279,59.828L22.240,59.649L22.201,59.469L22.162,59.290L22.123,59.111L22.084,58.931L22.046,58.752L22.007,58.573L21.968,58.393L21.929,58.214L21.890,58.035L21.851,57.856L21.812,57.676L21.774,57.497L21.735,57.318L21.695,57.138L21.657,56.959L21.601,56.700L21.525,56.414L21.421,56.023L21.423,55.691L21.601,55.441L21.739,55.371L21.935,55.289L22.155,55.270L22.283,55.245L22.371,55.228L22.553,55.074L22.595,54.972L22.601,54.867L22.567,54.652L22.549,54.618L22.490,54.565L22.482,54.536L22.502,54.507L22.609,54.431L22.782,54.235L22.836,54.194L22.945,54.168L23.049,54.159L23.131,54.115L23.179,53.983L23.173,53.869L23.096,53.628L23.074,53.514L23.081,53.394L23.110,53.286L23.191,53.111L23.368,52.728L23.508,52.423L23.666,52.201L23.828,51.973L23.990,51.743L24.152,51.514L24.314,51.284L24.476,51.055L24.638,50.826L24.799,50.596L24.961,50.367L25.123,50.138L25.285,49.909L25.447,49.680L25.609,49.451L25.771,49.221L25.932,48.992L26.095,48.763L26.257,48.533L26.411,48.314L26.707,47.995L27.025,47.652L27.235,47.425L27.539,47.097L27.845,46.768L28.149,46.440L28.453,46.112L28.757,45.784L29.061,45.455L29.366,45.127L29.670,44.798L29.975,44.470L30.279,44.142L30.583,43.813L30.888,43.485L31.192,43.157L31.497,42.829L31.801,42.500L32.105,42.172L32.289,41.973L32.361,41.869L32.377,41.811L32.395,41.745L32.407,41.602L32.430,41.345L32.451,41.089L32.473,40.832L32.495,40.575L32.517,40.319L32.538,40.062L32.560,39.805L32.582,39.548L32.605,39.291L32.626,39.034L32.648,38.778L32.670,38.521L32.692,38.264L32.714,38.007L32.736,37.750L32.757,37.493L32.779,37.236L32.801,36.980L32.823,36.723L32.845,36.466L32.867,36.209L32.889,35.953L32.911,35.696L32.915,35.647L32.933,35.439L32.954,35.182L32.976,34.925L32.999,34.669L33.021,34.412L33.042,34.155L33.064,33.898L33.086,33.642L33.108,33.385L33.129,33.128L33.151,32.871L33.173,32.614L33.196,32.357L33.217,32.101L33.239,31.844L33.261,31.587L33.283,31.330L33.305,31.073L33.326,30.817L33.348,30.560L33.370,30.303L33.392,30.046L33.414,29.790L33.436,29.533L33.458,29.276L33.480,29.019L33.502,28.762L33.524,28.506L33.545,28.249L33.567,27.992L33.590,27.735L33.611,27.479L33.633,27.222L33.655,26.965L33.677,26.708L33.699,26.451L33.720,26.195L33.742,25.938L33.765,25.681L33.787,25.424L33.808,25.167L33.828,24.933L33.997,24.491L34.079,24.344L34.296,23.956L34.513,23.568L34.731,23.180L34.948,22.791L35.059,22.593L35.099,22.497L35.087,22.404L35.011,22.281L34.882,22.142L34.566,21.799L34.250,21.457L33.934,21.114L33.618,20.771L33.467,20.608L33.026,20.265L32.929,20.157L32.852,20.035L32.787,19.892L32.743,19.639L32.788,19.378L32.922,19.161L33.141,19.039L33.051,18.903L32.961,18.765L32.869,18.627L32.778,18.489L32.688,18.351L32.597,18.213L32.505,18.076L32.415,17.938L32.324,17.800L32.233,17.662L32.143,17.524L32.051,17.386L31.960,17.248L31.869,17.110L31.779,16.973L31.687,16.835L31.597,16.697L31.468,16.502L31.281,16.281L31.178,16.210L30.921,16.079L30.836,15.996L30.814,15.906L30.812,15.758L30.810,15.647L30.805,15.354L30.798,14.939L30.790,14.464L30.782,13.988L30.775,13.574L30.770,13.280L30.768,13.169L30.727,12.942L30.683,12.703L30.639,12.464L30.573,12.111L30.508,11.759L30.443,11.406L30.377,11.053L30.312,10.701L30.247,10.348L30.182,9.996L30.117,9.643L30.052,9.290L29.987,8.938L29.921,8.585L29.856,8.233L29.791,7.880L29.726,7.528L29.821,7.482L30.135,7.335L30.447,7.187L30.759,7.040L31.073,6.893L31.386,6.746L31.698,6.599L32.011,6.452L32.324,6.305L32.637,6.158L32.951,6.011L33.263,5.863L33.576,5.716L33.889,5.569L34.202,5.422L34.514,5.275L34.827,5.128L35.068,5.014L35.179,5.000L35.673,5.254L36.344,5.597L37.014,5.940L37.684,6.283L38.354,6.627L39.024,6.970L39.694,7.314L40.365,7.657L41.035,8.000L41.705,8.343L42.375,8.686L43.045,9.030L43.715,9.373L44.386,9.717L45.056,10.060L45.726,10.403L46.396,10.746L47.066,11.090L47.736,11.433L48.406,11.776L49.077,12.120L49.747,12.463L50.417,12.806L51.087,13.150L51.757,13.493L52.427,13.836L52.545,13.897L53.097,14.180L53.767,14.523L54.437,14.867L55.108,15.210L55.777,15.553L56.448,15.897L57.118,16.239L57.788,16.583L58.458,16.926L59.129,17.269L59.798,17.613L60.469,17.957L61.139,18.299L61.809,18.643L62.479,18.986L63.149,19.329L63.819,19.673L64.489,20.016L65.160,20.359L65.830,20.703L66.500,21.046L67.170,21.389L67.840,21.733L68.510,22.076L69.181,22.419L69.851,22.762L70.521,23.106L71.191,23.449L71.861,23.793L72.531,24.136L73.201,24.479L73.872,24.822L74.541,25.166L75.212,25.509L75.882,25.852L76.552,26.196L77.222,26.539L77.892,26.882L78.562,27.226L78.563,28.533L78.564,29.841L78.565,31.148L78.567,32.456L78.567,33.763L78.568,35.070L78.570,36.378L78.571,37.685L78.572,38.993L78.573,40.300L78.574,41.607L78.575,42.915L78.576,44.223L78.577,45.530L78.578,46.838L78.579,48.145L78.579,48.470L78.579,48.474L78.515,48.644L78.368,48.637L77.736,48.419L77.077,48.319L76.454,48.318L76.098,48.396L75.386,48.659L74.977,48.699L74.143,48.521L73.885,48.553L73.752,48.570L73.610,48.669L73.263,49.092L72.835,49.359L72.732,49.486L72.693,49.662L72.733,49.824L72.824,49.969L72.940,50.096L73.056,50.255L73.110,50.431L73.121,50.619L73.052,51.273L73.010,51.399L72.768,51.849L72.725,51.900L72.542,51.973L72.418,52.041L72.311,52.131L71.822,52.647L71.758,52.764L71.730,52.901L71.725,53.007L71.694,53.100L71.586,53.201L71.388,53.336L71.344,53.423L71.344,53.569L71.388,53.878L71.418,53.976L71.500,54.156L71.510,54.206L71.483,54.284L71.428,54.325L70.338,54.620L70.106,54.734L69.887,54.903L69.785,55.103L69.909,55.311L70.076,55.438L70.118,55.515L70.195,56.120L70.213,56.154L70.240,56.183L70.259,56.216L70.254,56.258L70.226,56.286L70.153,56.321L70.129,56.344L70.081,56.440L70.075,56.485L70.091,56.551L70.140,56.673L70.206,56.756L70.296,56.805L70.602,56.860L70.698,56.921L70.747,57.030L70.784,57.211L70.777,57.376L70.696,57.472L70.570,57.523L70.425,57.552L70.301,57.622L70.100,57.813L69.995,57.885L69.134,58.301L68.978,58.407L68.847,58.541L68.793,58.610L68.352,59.179L68.219,59.399L68.213,59.450L68.339,59.571L68.425,59.683L68.444,59.766L68.433,59.853L68.433,59.979L68.530,60.197L68.875,60.524L68.955,60.742L68.958,61.066L68.983,61.174L69.053,61.308L69.245,61.544L69.310,61.673L69.265,61.908L69.073,62.164L68.572,62.702L68.482,62.766L67.900,63.002L67.804,63.056L67.618,63.238L67.461,63.458L67.015,64.322L66.879,64.742L66.792,64.917L66.779,64.953L66.802,65.017L66.949,65.205L67.162,65.614L67.275,65.725L67.465,65.820L67.689,65.864L67.919,65.866L68.131,65.836L68.387,65.759L68.595,65.642L68.769,65.472L68.924,65.236L69.604,65.697L70.159,65.909L70.231,65.981L69.960,66.628L69.835,66.813L69.847,66.882L70.026,67.170L70.425,68.426L70.439,68.493L70.443,68.562L70.438,68.630L70.298,69.249L70.333,69.235L70.365,69.217L70.425,69.171L70.777,69.058L70.989,69.019L71.062,69.064L71.108,68.983L71.135,69.010L71.141,69.098L71.125,69.197L71.029,69.483L70.726,71.216L70.752,71.486L70.860,71.750L71.026,71.989L71.220,72.179L71.407,72.274L71.844,72.425L71.984,72.559L71.999,72.610L72.000,72.780L72.054,72.804L72.571,72.748L72.698,72.751L72.776,72.819L72.849,73.219L72.987,73.637L72.991,73.710L73.002,73.874L72.978,73.974L72.886,74.172L72.853,74.273L72.835,74.384L72.832,74.498L72.817,74.559L72.731,74.656L72.697,74.712L72.484,75.504L72.185,75.474L71.855,75.365L71.718,75.248L71.517,75.195L71.465,75.189L71.276,75.195L71.221,75.183L71.117,75.132L71.072,75.118L70.943,75.133L70.828,75.167L70.714,75.159L70.590,75.044L70.541,75.093L70.475,75.088L70.397,75.061L70.311,75.044L70.239,75.059L70.187,75.097L70.087,75.214L70.021,75.257L69.939,75.283L69.791,75.307L69.772,75.310L69.654,75.343L69.542,75.390L69.473,75.429L69.371,75.522L69.313,75.564L69.269,75.561L69.186,75.526L69.115,75.579L69.057,75.657L68.901,75.788L68.842,75.965L68.769,76.084L68.617,76.002L68.531,76.014L68.076,75.967L67.973,76.013L67.912,76.119L67.875,76.235L67.839,76.313L67.892,76.431L67.834,76.494L67.504,76.579L67.409,76.624L67.243,76.742L67.119,76.864L67.099,76.872L67.073,76.918L67.014,76.906L66.906,76.851L66.850,76.857L66.747,76.886L66.703,76.893L66.645,76.910L66.612,76.950L66.588,76.990L66.556,77.008L66.475,77.015L66.383,77.041L66.308,77.094L66.276,77.182L66.265,77.293L66.215,77.459L66.203,77.568L66.215,77.683L66.265,77.899L66.276,77.991L66.296,78.043L66.391,78.156L66.425,78.206L66.426,78.244L66.417,78.281L66.422,78.320L66.462,78.360L66.296,78.647L66.276,78.765L66.282,78.826L66.305,78.909L66.310,78.956L66.287,79.008L66.233,79.026L66.171,79.032L66.125,79.052L66.060,79.163L66.016,79.275L65.948,79.363L65.809,79.398L65.780,79.414L65.607,79.470L65.587,79.459L65.530,79.483L65.462,79.471L65.396,79.447L65.344,79.440L65.172,79.549L65.021,79.753L64.738,80.419L64.595,80.647L64.418,80.829L64.229,80.904L64.156,80.888L63.934,80.798L63.859,80.750L63.781,80.814L63.503,81.146L63.464,81.224L63.448,81.312L63.403,81.324L63.103,81.525L63.048,81.624L62.966,81.829L62.962,81.849L62.966,81.927L62.958,81.950L62.938,81.949L62.914,81.942L62.892,81.948L62.823,82.014L62.784,82.042L62.744,82.060L62.725,82.050L62.674,81.996L62.650,81.983L62.619,81.989L62.605,82.002L62.599,82.017L62.592,82.025L62.563,82.040L62.526,82.067L62.495,82.097L62.481,82.121L62.465,82.229L62.388,82.381L62.370,82.467L62.366,82.658L62.333,82.729L62.256,82.755L62.256,82.793L62.280,82.817L62.289,82.835L62.296,82.909L62.212,82.870L62.183,82.890L62.173,82.940L62.148,82.989L62.031,83.058L61.981,83.101L61.960,83.160L61.913,83.243L61.705,83.478L61.648,83.527L61.527,83.580L61.488,83.703L61.479,83.845L61.444,83.953L61.412,83.964L61.378,83.949L61.374,83.948L61.339,83.924L61.313,83.911L61.293,83.924L61.261,83.976L61.239,83.988L61.175,84.011L61.145,84.066L61.121,84.131L61.074,84.184L61.034,84.142L60.981,84.184L60.737,84.261L60.515,84.376L60.586,84.607L60.307,84.607L60.270,84.602L60.179,84.572L60.175,84.573L60.074,84.567L60.067,84.572L59.951,84.504L59.902,84.496L59.882,84.551L59.877,84.623L59.857,84.676L59.818,84.710L59.752,84.722L59.654,84.782L59.689,84.914L59.745,85.046L59.714,85.106L59.576,85.155L59.499,85.270L59.433,85.410L59.323,85.529L59.257,85.500L59.199,85.507L59.148,85.536L59.048,85.611L59.014,85.631L58.912,85.651L58.464,85.627L58.356,85.651L58.234,85.549L58.172,85.508L58.116,85.491L58.036,85.516L57.882,85.626L57.800,85.651L57.709,85.621L57.644,85.554L57.597,85.486L57.557,85.456L57.510,85.473L57.502,85.512L57.507,85.552L57.501,85.571L57.453,85.569L57.379,85.537L57.335,85.529L57.290,85.550L57.131,85.686L57.116,85.718L57.124,85.750L57.126,85.778L57.094,85.801L57.059,85.794L57.040,85.708L56.999,85.686L56.978,85.696L56.959,85.720L56.946,85.752L56.942,85.784L56.924,85.831L56.883,85.838L56.834,85.833L56.794,85.840L56.655,85.936L56.593,85.950L56.575,85.954L56.498,85.917L56.431,86.015L56.362,86.046L55.907,86.019L55.794,86.032L55.651,86.070L55.588,86.074L55.541,86.085L55.410,86.143L55.383,86.168L55.334,86.191L55.098,86.187L55.009,86.228L54.866,86.128L54.700,86.164L54.541,86.232L54.416,86.228L54.365,86.257L54.335,86.253L54.313,86.237L54.285,86.228L53.870,86.234L53.820,86.209L53.612,86.289L53.541,86.305L53.448,86.295L53.345,86.270L53.252,86.233L53.190,86.189L53.140,86.253L53.087,86.235L53.030,86.183L52.965,86.148L52.911,86.149L52.800,86.181L52.578,86.193L52.511,86.221L52.484,86.285L52.452,86.294L52.308,86.258L52.262,86.266L52.224,86.266L52.082,86.221L51.866,86.283L51.655,86.390L51.534,86.478L51.454,86.552L51.420,86.591L51.406,86.633L51.384,86.654L51.276,86.689L51.192,86.738L51.149,86.748L51.118,86.767L51.106,86.825L51.090,86.876L51.052,86.902L51.002,86.903L50.955,86.881L50.829,87.072L50.830,87.154L50.921,87.231L51.010,87.180L51.046,87.234L51.062,87.329L51.088,87.403L51.152,87.452L51.801,87.738L51.850,87.828L51.935,87.880L52.100,88.006L52.210,88.136L52.033,88.261L51.980,88.349L51.929,88.379L51.869,88.414L51.648,88.865L51.105,89.503L51.050,89.611L51.001,89.748L50.926,89.847L50.749,90.023L50.522,90.380L50.404,90.487L50.309,90.536L49.991,90.648L49.760,90.767L49.576,90.936L49.467,91.155L49.464,91.428L49.308,91.666L48.869,91.763L46.493,91.827L45.988,91.951L45.557,92.119L45.345,92.158L45.120,92.149L44.374,92.019L44.276,92.013L44.157,92.020L44.053,92.055L43.941,92.215L43.837,92.270L43.723,92.303L43.528,92.324L43.418,92.351L43.329,92.417L43.281,92.544L43.216,92.588L42.960,92.508L42.888,92.594L42.778,92.665L42.047,92.933L41.959,92.996L41.954,93.000L41.883,93.071L41.849,93.135L41.831,93.240L41.796,93.265L41.751,93.257L41.709,93.263L41.611,93.357L41.421,93.595L41.317,93.698L41.239,93.750L41.204,93.747L41.175,93.715L41.115,93.681L41.008,93.644L40.933,93.710L40.908,93.762L40.914,93.810L40.897,93.835L40.731,93.806L40.672,93.811L40.626,93.845L40.588,93.913L40.483,93.902L40.250,93.939L40.038,94.002L39.956,94.049L39.898,94.122L39.857,94.234L39.862,94.273L39.885,94.298L39.904,94.325L39.893,94.370L39.874,94.379L39.816,94.370L39.800,94.370L39.682,94.471L39.670,94.481L39.631,94.504L39.505,94.518L39.430,94.467L39.311,94.263L39.111,94.031L38.987,93.929L38.858,93.864L38.649,93.800L38.593,93.739L38.569,93.615L38.580,93.546L38.603,93.490L38.614,93.431L38.586,93.353L38.544,93.302L38.496,93.280L38.444,93.266L38.387,93.243L38.299,93.175L38.240,93.091L38.216,92.988L38.246,92.816L38.248,92.765L38.245,92.714L38.237,92.667L38.023,92.733L37.928,92.784L37.841,92.860L37.807,92.916L37.741,93.063L37.707,93.106L37.633,93.127L37.578,93.109L37.529,93.085L37.471,93.083L37.388,93.154L37.360,93.272L37.361,93.654L37.338,93.733L37.272,93.779L36.794,93.849L36.681,93.895L36.493,94.043L36.384,94.111L36.267,94.126L36.143,94.124L35.959,94.190L35.614,94.236L35.493,94.277L35.403,94.328L35.327,94.410L35.208,94.584L35.128,94.664L34.952,94.776L34.855,94.816L34.142,94.986L33.949,95.000L33.741,94.926L33.462,94.658L33.225,94.639L32.829,94.694L32.632,94.681L32.445,94.619L32.667,94.322L32.813,94.014L32.885,93.679L32.889,93.104L32.769,93.079L32.598,93.039L32.482,93.033L32.226,92.839L32.040,92.377L31.709,91.170L30.978,89.561L30.832,89.238L30.749,89.129L30.436,88.811L30.207,88.424L30.117,88.312L30.004,88.228L29.867,88.183L29.664,88.152L29.591,88.129L29.572,88.092L29.572,88.040L29.559,87.971L29.510,87.828L29.479,87.776L29.440,87.742L29.401,87.727L29.365,87.700L29.337,87.630L29.289,87.577L29.075,87.414L29.000,87.371L28.949,87.359L28.902,87.358L28.854,87.367L28.803,87.384L28.716,87.356L27.511,86.357L26.306,85.359L26.206,85.180L26.153,84.938L24.607,83.105L24.125,82.717L24.116,82.633L24.446,82.145L24.889,81.749L25.059,81.511L25.323,80.972L25.335,80.915L25.338,80.860L25.351,80.818L25.395,80.801L25.475,80.795L26.799,80.704L28.383,81.107L28.601,81.118L29.282,80.900L29.532,80.910L29.848,80.987L30.014,81.000L30.167,80.964L30.224,80.926L30.320,80.834L30.381,80.797L30.429,80.782L30.678,80.754L31.001,80.767L31.913,81.071L32.219,81.062L33.436,80.756L33.531,80.727L33.296,80.509L33.105,80.447L32.744,80.225L32.494,80.002L32.497,79.977L32.420,79.931L32.218,79.635L31.470,78.923L31.411,78.826L31.377,78.712L31.366,78.569L31.345,78.459L31.293,78.391L31.222,78.330L31.143,78.241L31.068,78.032L31.019,77.935L30.910,77.883L30.884,77.857L30.847,77.830L30.790,77.818L30.728,77.812L30.668,77.796L30.618,77.772L30.585,77.742L30.549,77.634L30.553,77.495L30.586,77.359L30.640,77.259L30.648,77.170L30.607,77.035L30.192,76.214L30.177,76.002L30.245,75.761L30.264,75.622L30.229,75.523L30.174,75.439L30.026,75.079L29.991,74.598L29.950,74.022L29.988,73.673L30.016,73.584L30.141,73.397L30.177,73.304L30.173,73.248L30.149,73.218L30.120,73.193L30.103,73.151L30.103,73.086L30.130,73.000L30.164,72.707L30.198,72.597L30.248,72.497L30.498,72.216L30.571,72.061L30.507,71.879L30.354,71.682L30.297,71.582L30.211,71.330L30.196,71.218L30.205,71.108L30.248,70.988L30.268,70.982L30.303,70.984L30.340,70.980L30.362,70.953L30.355,70.917L30.298,70.861L30.288,70.838L30.318,70.784L30.407,70.700L30.437,70.642L30.303,70.318L30.268,70.258L30.175,70.245L30.112,70.199L30.075,70.111L30.063,69.970L30.090,69.926L30.142,69.879L30.179,69.830L30.157,69.776L30.136,69.744L30.109,69.686L30.097,69.630L30.120,69.605L30.275,69.580L30.252,69.517L30.159,69.435L30.103,69.353L30.113,69.284L30.126,69.241L30.123,69.206L30.083,69.161L30.055,69.107L30.057,69.040L30.077,68.979L30.103,68.944L30.000,68.852L29.899,68.809L29.801,68.820L29.709,68.890L29.644,68.900L29.568,68.839L29.448,68.696L29.309,68.599L29.282,68.560L29.264,68.478L29.292,68.453L29.333,68.444L29.355,68.406L29.347,68.349L29.324,68.319L29.297,68.294L29.282,68.252L29.282,68.185L29.309,68.090L29.319,68.022L29.327,67.631L29.337,67.580L29.245,67.154L29.170,67.016L29.167,66.991L29.176,66.926L29.170,66.904L29.143,66.885L29.107,66.873L29.085,66.876L29.096,66.904L29.051,66.862L29.027,66.858L29.019,66.848L29.022,66.785L29.032,66.748L29.076,66.662L29.096,66.631L28.917,65.940L28.854,65.824L28.675,65.867L28.581,65.856L28.540,65.765L28.526,65.712L28.490,65.655L28.442,65.609L28.392,65.590L28.364,65.608L28.281,65.747L28.219,65.655L28.298,65.470L28.261,65.377L28.175,65.347L28.014,65.390L27.926,65.339L27.891,65.306L27.796,65.244L27.777,65.211L27.775,65.176L27.764,65.147L27.722,65.129L27.686,65.138L27.583,65.219L27.531,65.227L27.506,65.196L27.499,65.145L27.499,65.089L27.451,65.107L27.419,65.104L27.399,65.077L27.388,65.027L27.388,64.815L27.291,64.713L27.125,64.584L27.068,64.503L27.071,64.431L27.155,64.174L27.164,64.059L27.148,63.966L27.102,63.883L27.025,63.798L27.019,63.789L26.772,63.396L26.678,63.335L24.762,63.352Z" fill="currentColor" stroke="currentColor" stroke-width="1" stroke-linejoin="round"/>
</svg>