<svg xmlns="http://www.w3.org/2000/svg" viewBox="0 0 100 100" role="img" aria-label="Togo">
  <title>Togo</title>
  <path d="M32.781,5.000L33.683,5.185L34.601,5.372L36.770,5.815L40.799,6.637L42.341,6.952L44.317,7.356L44.356,7.381L44.380,7.422L44.389,7.478L44.365,7.558L44.352,7.632L44.327,7.705L44.264,7.776L44.549,7.848L44.336,8.607L46.544,7.832L47.653,7.618L49.354,7.585L51.650,7.543L51.197,8.643L51.146,8.999L51.188,9.191L51.336,9.554L51.361,9.748L51.086,10.275L51.051,10.466L51.023,10.874L50.969,11.058L50.740,11.387L49.779,12.303L49.526,12.900L49.666,14.511L49.653,15.210L49.394,16.206L49.147,18.047L49.162,18.458L49.304,18.727L50.642,19.620L52.322,20.740L53.340,21.418L54.845,22.422L57.377,24.109L59.242,25.353L59.468,25.961L59.471,26.098L59.490,27.415L59.523,29.369L59.545,30.757L59.684,31.592L59.658,31.809L59.616,31.987L59.622,32.346L59.600,32.528L59.490,32.755L59.176,33.239L59.103,33.472L59.160,33.836L59.339,34.273L59.600,34.540L59.903,34.392L60.106,34.899L60.227,36.710L60.482,37.423L60.817,37.941L60.908,38.080L62.320,39.565L63.418,40.722L63.781,41.363L63.922,41.793L64.017,42.281L64.046,44.518L64.072,46.470L64.094,48.127L64.124,50.521L64.130,51.054L64.156,51.265L64.245,51.465L64.702,52.047L64.777,52.221L64.711,52.537L64.130,53.502L64.103,53.653L64.103,53.963L64.015,54.399L64.066,54.474L64.171,54.509L64.260,54.674L64.448,56.208L64.417,58.256L64.373,61.104L64.384,63.934L64.399,67.478L64.400,67.792L64.407,69.331L64.415,71.088L64.426,73.757L64.437,76.352L64.450,78.977L64.129,79.073L62.793,79.064L63.137,80.334L63.336,80.631L63.364,80.652L63.626,80.850L63.785,81.043L63.822,81.291L63.688,82.042L63.699,82.347L63.776,82.655L63.911,83.021L64.015,83.453L63.944,83.729L63.805,83.917L63.542,84.273L63.396,84.673L63.509,84.874L63.738,85.061L63.931,85.419L63.935,85.558L63.904,85.708L63.893,85.873L63.949,86.056L64.055,86.203L64.194,86.344L64.342,86.464L64.481,86.547L64.647,86.566L64.821,86.550L64.949,86.595L64.972,86.800L65.018,86.924L65.312,87.168L65.424,87.321L65.446,87.500L65.402,87.884L65.440,88.040L65.557,88.136L65.937,88.334L66.089,88.448L66.543,89.186L66.887,90.528L67.219,91.840L66.852,91.862L64.582,92.404L64.216,92.600L64.343,92.973L64.338,92.974L60.983,93.544L58.181,94.406L56.919,94.964L56.778,94.975L56.668,95.000L56.714,94.372L56.505,94.088L55.042,93.920L54.799,93.795L54.609,93.572L54.377,93.210L54.242,93.053L54.109,92.980L53.977,92.925L53.837,92.822L53.563,92.426L53.100,90.994L51.752,90.988L51.391,90.890L51.162,90.716L50.587,90.017L50.143,89.734L49.270,89.300L48.897,88.915L48.618,88.482L48.406,88.058L48.296,87.619L48.320,87.251L48.327,87.143L48.439,86.915L48.563,86.748L48.574,86.581L48.347,86.358L48.186,86.325L47.693,86.340L47.527,86.324L47.372,86.040L47.123,85.855L46.891,85.642L46.793,85.268L46.946,84.365L46.928,84.075L46.778,83.787L46.520,83.540L46.212,83.369L45.909,83.304L45.792,83.147L45.280,82.188L45.065,82.021L44.895,81.919L44.838,81.748L44.957,81.372L45.329,80.745L45.371,80.443L45.163,80.065L44.661,79.674L44.458,79.400L44.716,79.320L44.975,79.301L45.720,79.105L45.949,78.977L46.287,78.362L46.299,77.584L46.221,76.780L46.281,76.079L46.707,75.008L46.871,74.178L47.107,73.522L47.129,73.135L46.846,71.963L46.729,71.807L46.078,72.049L45.728,72.112L45.406,72.068L44.849,71.572L44.564,70.785L44.476,69.905L44.544,68.866L44.608,68.646L44.717,68.455L44.897,68.280L45.129,68.175L45.412,68.098L45.651,67.974L45.751,67.734L45.746,67.248L45.801,66.693L46.027,66.329L46.539,66.416L46.489,66.067L46.528,65.132L46.367,64.110L46.382,63.040L46.369,62.954L46.195,61.770L46.210,61.104L46.201,60.762L46.038,60.095L45.972,59.254L45.879,58.815L45.967,58.689L46.106,58.581L46.203,58.350L46.172,58.103L46.049,57.949L45.912,57.817L45.839,57.629L45.859,57.397L45.951,57.328L46.086,57.311L46.234,57.240L46.822,56.709L47.118,56.513L47.898,56.165L48.181,55.988L48.314,55.716L48.245,55.277L48.179,55.216L47.967,55.181L47.898,55.121L47.887,55.036L47.902,54.857L47.858,54.594L47.863,54.389L47.825,54.204L47.147,53.639L46.919,52.962L46.610,52.306L45.452,51.759L44.992,51.425L44.564,51.029L44.263,50.678L43.556,50.194L42.852,49.207L42.335,48.087L42.222,47.430L42.183,47.202L42.303,47.032L42.526,46.991L42.735,47.072L42.925,47.474L43.110,47.267L43.228,46.968L43.133,46.898L43.319,46.836L43.483,46.859L43.662,46.914L43.891,46.951L44.085,46.857L44.148,46.621L44.173,46.343L44.263,46.119L44.265,46.117L44.654,45.556L44.433,44.682L43.580,43.230L43.580,43.228L43.576,43.228L43.339,42.673L43.521,42.126L43.820,41.571L43.913,40.995L43.911,40.716L44.023,40.543L44.423,40.185L44.637,39.820L44.632,39.535L44.412,38.896L44.429,38.543L44.573,38.372L44.772,38.256L44.951,38.070L45.024,37.845L45.054,37.322L45.218,36.415L45.108,35.996L44.789,35.716L44.263,35.536L44.250,35.517L44.246,35.500L44.250,35.482L44.367,35.282L44.407,35.099L44.376,34.923L44.263,34.764L43.325,34.421L42.993,34.367L42.282,34.407L41.884,34.478L41.616,34.595L41.528,34.736L41.474,35.098L41.405,35.250L41.270,35.364L40.462,35.647L40.133,35.713L39.806,35.677L39.725,35.437L39.870,35.233L39.746,34.948L39.747,34.693L40.484,34.544L40.759,34.436L40.985,34.280L41.053,34.095L40.898,33.901L40.648,33.888L40.197,33.973L40.014,33.894L39.839,33.770L39.709,33.657L39.665,33.606L39.659,33.492L39.742,32.988L39.785,32.874L40.675,32.974L41.100,32.949L41.416,32.742L41.658,32.902L41.984,32.957L42.271,32.876L42.393,32.630L42.241,32.259L41.892,32.192L41.175,32.375L40.624,32.315L40.342,31.941L40.329,31.418L40.582,30.910L41.053,31.406L41.350,31.571L41.667,31.532L41.851,31.311L41.901,30.999L41.860,30.673L41.778,30.411L41.660,30.233L41.534,30.093L41.441,29.901L41.416,29.568L41.795,28.179L41.800,27.975L41.720,27.259L41.756,27.010L41.899,26.738L42.125,26.493L42.249,26.383L42.260,26.237L42.139,25.883L41.928,25.460L41.899,25.340L41.934,25.175L41.993,25.064L42.004,24.950L41.899,24.774L42.208,24.715L42.482,24.761L42.679,24.709L42.691,24.654L42.754,24.358L42.701,23.996L42.558,23.878L42.364,23.831L42.139,23.687L41.966,23.225L42.059,21.959L42.030,21.357L42.158,21.117L42.208,20.824L42.292,20.550L42.726,20.227L42.366,19.928L42.196,19.846L41.421,19.976L41.175,19.979L41.330,19.617L41.144,19.332L40.843,19.060L40.645,18.736L40.669,18.583L40.728,18.393L40.721,18.196L40.546,18.021L40.365,17.979L40.205,18.030L40.039,18.112L39.839,18.164L39.669,18.140L39.200,17.955L39.153,18.007L39.106,18.124L39.031,18.229L38.896,18.243L38.845,18.180L37.944,16.501L37.664,16.204L36.729,15.616L36.583,15.440L36.377,15.043L36.237,14.876L36.076,14.778L35.523,14.595L35.364,14.486L35.253,14.378L35.127,14.294L34.719,14.242L34.508,14.187L34.314,14.094L34.159,13.965L33.978,13.596L33.990,13.223L34.098,12.771L34.159,12.518L34.253,11.771L34.387,11.459L34.637,11.143L34.997,10.898L35.150,10.753L35.183,10.563L35.092,10.212L35.079,10.038L35.461,8.243L35.547,8.074L35.689,7.926L35.844,7.828L35.967,7.705L36.009,7.481L36.060,6.848L36.003,6.294L35.736,5.876L35.146,5.651L34.814,5.656L34.214,5.815L33.890,5.848L33.565,5.765L33.205,5.566L32.912,5.296L32.781,5.000Z" fill="currentColor" stroke="currentColor" stroke-width="1.5" stroke-linejoin="round"/>
</svg>