<svg xmlns="http://www.w3.org/2000/svg" viewBox="0 0 100 100" role="img" aria-label="Thailand">
  <title>Thailand</title>
  <path d="M58.359,58.453L58.314,58.330L58.330,58.016L58.318,57.873L58.239,57.702L57.837,57.164L57.589,56.957L57.551,56.894L57.551,56.500L57.491,56.231L57.389,56.058L56.691,55.379L56.681,55.322L56.820,55.335L56.748,55.236L56.530,55.064L56.537,55.000L56.537,54.958L56.440,55.013L56.349,55.034L56.277,55.075L56.250,55.186L56.335,55.750L56.408,55.893L56.420,55.936L56.399,56.003L56.349,56.003L56.287,55.975L56.230,55.957L56.208,55.931L56.213,55.800L56.210,55.750L56.102,55.612L55.936,55.492L55.755,55.397L55.119,55.172L55.026,55.113L54.942,55.102L54.872,55.207L54.836,55.207L54.703,55.148L54.671,55.124L54.647,55.072L54.651,55.025L54.665,54.986L54.671,54.958L54.630,54.836L54.523,54.653L54.510,54.543L54.669,54.584L54.817,54.533L54.942,54.435L55.035,54.336L55.082,54.194L55.036,54.071L54.948,54.017L54.872,54.083L54.920,54.104L54.955,54.133L54.979,54.168L54.994,54.208L54.909,54.311L54.788,54.381L54.678,54.370L54.630,54.229L54.646,53.959L54.682,53.831L54.751,53.706L54.715,53.706L54.677,53.753L54.590,53.918L54.550,53.918L54.526,53.843L54.512,53.767L54.517,53.694L54.550,53.627L54.482,53.679L54.387,53.713L54.303,53.704L54.267,53.627L54.170,53.655L54.142,53.669L54.199,53.704L54.221,53.753L54.215,53.812L54.186,53.876L54.222,53.876L54.348,53.789L54.387,53.856L54.414,53.915L54.419,53.974L54.388,54.042L54.509,54.134L54.570,54.321L54.519,54.442L54.303,54.336L53.939,53.959L53.762,53.862L53.688,53.808L53.698,53.751L53.602,53.624L53.468,53.479L53.378,53.335L53.414,53.209L53.436,53.258L53.461,53.275L53.493,53.279L53.536,53.292L53.458,53.239L53.497,53.188L53.577,53.126L53.617,53.039L53.572,53.039L53.541,53.098L53.502,53.123L53.458,53.117L53.414,53.084L53.474,53.030L53.504,53.013L53.536,53.001L53.235,53.008L53.208,52.958L53.334,52.835L53.084,52.849L53.007,52.873L53.007,52.918L53.085,52.975L53.138,53.058L53.208,53.122L53.334,53.126L53.305,53.201L53.292,53.282L53.289,53.457L53.085,53.146L53.005,53.058L52.906,53.023L52.795,53.013L52.720,53.039L52.720,52.775L52.708,52.711L52.682,52.650L52.655,52.619L52.643,52.647L52.632,52.684L52.579,52.723L52.563,52.756L52.640,53.018L52.643,53.084L52.444,52.930L52.358,52.841L52.316,52.756L52.438,52.794L52.416,52.693L52.376,52.670L52.326,52.679L52.276,52.669L52.228,52.624L52.204,52.578L52.185,52.526L52.155,52.462L52.057,52.326L51.947,52.215L51.818,52.123L51.666,52.043L51.568,52.014L51.203,52.002L51.096,52.037L51.034,52.119L50.990,52.215L50.939,52.292L50.835,52.345L50.715,52.356L50.473,52.338L50.428,52.355L50.419,52.394L50.423,52.436L50.413,52.462L50.386,52.467L50.321,52.461L50.224,52.465L50.046,52.421L49.786,52.461L49.655,52.507L49.598,52.564L49.572,52.676L49.508,52.684L49.359,52.586L48.948,52.401L48.507,52.292L47.553,52.168L47.428,52.194L47.224,52.311L46.966,52.358L46.904,52.417L46.902,52.419L46.883,52.522L46.883,52.669L46.596,52.541L46.596,52.503L46.683,52.436L46.647,52.336L46.546,52.277L46.439,52.338L46.375,52.300L46.323,52.304L46.268,52.325L46.193,52.338L46.221,52.317L46.246,52.291L46.264,52.256L46.273,52.209L46.152,52.209L46.173,52.173L46.213,52.080L46.232,52.043L46.183,52.041L46.072,52.002L46.175,51.732L46.252,51.618L46.359,51.670L46.395,51.670L46.437,51.603L46.489,51.549L46.535,51.481L46.560,51.376L46.551,51.283L46.520,51.197L46.478,51.119L46.256,50.797L46.232,50.716L46.254,50.659L46.297,50.624L46.347,50.592L46.395,50.543L46.410,50.498L46.423,50.386L46.439,50.335L46.491,50.365L46.553,50.334L46.610,50.273L46.641,50.211L46.638,50.067L46.579,49.968L46.509,49.881L46.476,49.775L46.451,49.738L46.395,49.720L46.340,49.694L46.313,49.630L46.439,49.464L46.535,49.287L46.661,49.110L46.709,49.007L46.705,48.891L46.641,48.672L46.613,48.614L46.533,48.484L46.516,48.442L46.529,48.378L46.556,48.340L46.584,48.310L46.634,48.173L46.721,48.135L46.829,48.110L46.923,48.046L46.947,47.961L46.958,47.821L46.946,47.690L46.861,47.572L46.906,47.440L47.009,47.255L47.009,47.213L46.938,47.263L46.879,47.319L46.817,47.364L46.742,47.383L46.376,47.383L46.229,47.363L45.933,47.275L45.680,47.244L45.553,47.191L45.139,47.134L44.960,47.067L44.727,46.901L44.619,46.859L44.605,46.814L44.617,46.756L44.647,46.688L44.660,46.604L44.654,46.508L44.589,46.631L44.567,46.728L44.573,46.985L44.524,47.071L44.406,47.124L43.660,47.255L43.371,47.242L43.225,47.253L43.111,47.300L42.831,47.159L42.743,47.089L42.684,47.205L42.614,47.276L42.519,47.328L42.006,47.530L41.785,47.575L41.642,47.640L41.526,47.692L41.430,47.718L41.345,47.781L41.300,47.907L41.244,48.000L41.123,47.968L41.208,48.005L41.198,48.111L41.152,48.206L41.078,48.273L40.982,48.300L40.895,48.345L40.883,48.451L40.884,48.456L40.921,48.654L41.107,48.903L41.450,49.193L41.470,49.221L41.510,49.255L41.553,49.299L41.571,49.360L41.576,49.415L41.635,49.643L41.733,49.879L41.719,49.985L41.666,50.082L41.471,50.347L41.429,50.433L41.370,50.630L41.289,51.067L41.257,51.157L41.042,51.500L40.963,51.739L40.908,51.988L40.881,52.245L40.883,52.438L40.884,52.503L40.985,52.896L41.002,53.020L40.980,53.405L41.002,53.540L41.181,53.974L41.188,54.062L41.137,54.152L41.007,54.602L41.013,54.659L41.066,54.726L41.126,54.782L41.170,54.838L41.198,54.901L41.217,55.026L41.232,55.074L41.234,55.132L41.208,55.207L41.177,55.240L41.082,55.315L41.042,55.373L41.006,55.591L40.982,55.644L40.851,55.862L40.259,56.494L40.117,56.760L40.069,57.040L40.150,57.253L40.132,57.288L40.048,57.296L40.006,57.322L39.990,57.368L39.989,57.436L40.033,57.666L40.020,57.702L40.002,57.747L39.997,57.802L40.033,57.873L39.816,57.899L39.647,58.065L39.166,58.867L39.136,58.934L39.111,59.030L38.996,59.198L38.970,59.308L38.962,59.450L38.938,59.579L38.901,59.701L38.748,60.043L38.732,60.100L38.706,60.165L38.593,60.287L38.567,60.348L38.548,60.699L38.567,60.825L38.666,61.078L38.666,61.192L38.567,61.289L38.523,61.169L38.429,61.172L38.325,61.242L38.247,61.327L38.205,61.392L38.164,61.474L38.135,61.570L38.122,61.681L38.142,61.812L38.228,62.031L38.247,62.139L38.230,62.260L38.177,62.395L38.149,62.467L38.122,62.575L38.133,62.716L38.225,62.970L38.247,63.097L38.225,63.189L38.176,63.186L38.132,63.144L38.122,63.118L38.010,63.113L37.927,63.122L37.870,63.135L37.820,63.165L37.800,63.221L37.800,63.470L37.772,63.581L37.417,64.127L37.395,64.181L37.409,64.245L37.427,64.288L37.413,64.313L37.334,64.320L37.230,64.349L37.133,64.423L37.051,64.519L36.987,64.619L36.950,64.741L36.903,65.032L36.843,65.135L36.779,65.161L36.705,65.172L36.645,65.201L36.620,65.282L36.633,65.327L36.671,65.354L36.724,65.366L36.785,65.365L36.742,65.446L36.687,65.512L36.640,65.583L36.620,65.676L36.658,65.755L36.841,65.879L36.906,65.949L36.917,66.027L36.909,66.139L36.884,66.238L36.843,66.281L36.759,66.281L36.714,66.289L36.583,66.364L36.563,66.286L36.519,66.232L36.458,66.192L36.381,66.153L36.291,66.197L36.213,66.203L36.148,66.217L36.095,66.281L36.093,66.348L36.135,66.613L36.197,66.704L36.418,66.907L36.527,67.041L36.594,67.059L36.704,67.028L36.628,67.149L36.389,67.173L36.337,67.260L36.303,67.405L36.144,67.673L36.095,67.824L36.106,67.991L36.162,68.102L36.227,68.191L36.256,68.298L36.238,68.370L36.154,68.432L36.135,68.510L36.175,68.777L36.175,69.256L36.184,69.274L36.203,69.292L36.217,69.318L36.216,69.362L36.193,69.397L36.119,69.456L36.095,69.490L36.074,69.550L36.062,69.608L36.055,69.720L36.054,69.739L36.073,69.865L36.156,70.110L36.187,70.347L36.220,70.486L36.271,70.619L36.452,70.896L36.486,70.990L36.499,71.130L36.518,71.231L36.767,71.696L37.112,72.148L37.065,72.160L37.036,72.159L37.008,72.153L36.967,72.148L36.918,72.157L36.914,72.180L36.921,72.208L36.906,72.235L36.759,72.317L36.704,72.359L36.591,72.484L36.560,72.584L36.583,72.837L36.707,73.115L36.983,73.175L37.273,73.195L37.435,73.355L37.629,73.334L37.824,73.336L38.007,73.306L38.167,73.189L38.211,73.096L38.242,72.989L38.284,72.887L38.368,72.816L38.442,72.807L38.710,72.857L38.808,72.838L38.888,72.797L38.948,72.755L38.993,72.736L39.176,72.691L39.276,72.620L39.278,72.608L39.502,72.621L39.540,72.631L39.574,72.580L39.652,72.584L39.765,72.630L39.823,72.653L39.854,72.627L39.918,72.593L39.952,72.567L40.023,72.637L40.249,72.737L40.254,72.795L40.246,72.863L40.285,72.961L40.392,73.151L40.441,73.110L40.444,73.568L40.473,73.687L40.521,73.766L40.575,73.834L40.620,73.907L40.639,74.002L40.639,74.294L40.652,74.356L40.709,74.455L40.720,74.524L40.708,74.528L40.681,74.560L40.653,74.605L40.639,74.648L40.639,74.796L40.708,75.262L40.679,75.357L40.756,75.545L40.874,76.728L40.921,76.923L41.022,77.082L41.357,77.288L41.409,77.376L41.433,77.481L41.565,77.744L41.661,77.890L41.698,78.011L41.733,78.065L41.778,78.092L41.909,78.149L41.935,78.166L41.969,78.240L42.048,78.259L42.142,78.237L42.218,78.189L42.164,78.013L42.152,77.768L42.091,77.556L41.891,77.476L42.007,77.425L42.186,77.557L42.349,77.749L42.420,77.876L42.722,78.676L42.908,79.882L43.142,80.974L43.290,81.661L43.721,83.779L44.078,84.648L44.397,85.159L44.472,85.283L44.516,85.406L44.512,85.492L44.360,85.480L44.285,85.401L44.072,85.205L43.958,85.134L43.911,85.104L43.745,85.111L43.634,85.051L43.713,84.890L43.655,84.694L43.615,84.429L43.531,84.376L43.542,83.893L43.518,83.471L43.421,83.237L43.240,83.162L43.042,83.187L42.909,83.392L42.866,83.496L42.829,83.529L42.766,83.494L42.729,83.451L42.712,83.411L42.706,83.363L42.706,83.290L42.746,83.172L42.948,83.046L43.030,82.932L43.051,82.696L43.013,82.376L42.932,82.073L42.824,81.888L42.712,81.845L42.598,81.866L42.482,81.909L42.362,81.933L42.304,81.985L42.041,82.222L41.972,82.306L41.961,82.424L42.031,82.936L42.137,83.226L42.176,83.450L42.213,83.553L42.279,83.596L42.295,83.616L42.420,83.724L42.448,83.764L42.464,83.794L42.657,84.286L42.766,84.476L42.909,84.595L43.038,84.613L43.186,84.616L43.306,84.656L43.357,84.785L43.357,84.795L43.361,84.929L43.372,85.002L43.394,85.059L43.446,85.106L43.530,85.108L43.587,85.137L43.642,85.187L43.546,85.237L43.494,85.258L43.454,85.288L43.437,85.325L43.456,85.393L43.498,85.442L43.547,85.470L43.627,85.637L43.699,85.704L43.782,85.733L43.874,85.722L43.943,85.789L43.992,85.827L44.044,85.847L44.193,85.853L44.262,85.842L44.405,85.798L44.553,85.658L44.599,85.586L44.582,85.418L44.580,85.314L44.732,85.507L45.644,86.779L45.758,86.877L45.917,86.935L46.012,86.970L46.146,86.907L46.244,86.998L46.420,87.165L46.727,87.401L47.019,87.547L47.192,87.549L47.436,87.541L48.167,87.516L48.404,87.404L48.479,87.272L48.677,87.307L48.759,87.377L48.869,87.404L48.911,87.431L48.923,87.418L49.113,87.431L49.067,87.308L48.977,87.176L48.588,87.012L48.760,86.953L48.932,86.985L49.086,87.110L49.314,87.253L49.516,87.318L49.619,87.344L49.708,87.355L49.822,87.381L49.922,87.416L49.966,87.451L50.129,87.522L50.333,87.638L50.385,87.696L50.989,88.750L51.316,89.262L51.601,89.710L51.818,89.930L52.412,90.310L53.071,90.956L53.383,91.186L53.385,91.187L53.347,91.508L53.374,91.982L53.307,92.176L53.150,92.336L52.712,92.681L52.566,92.863L52.477,93.115L52.474,93.374L52.437,93.606L52.244,93.778L52.178,93.822L52.149,93.873L52.128,93.927L52.092,93.981L51.919,94.089L51.888,94.126L51.841,94.255L51.771,94.332L51.675,94.343L51.549,94.273L51.497,94.208L51.460,94.134L51.413,94.074L51.335,94.049L51.264,94.070L51.162,94.166L51.157,94.172L51.098,94.202L50.975,94.176L50.883,94.072L50.767,93.794L50.770,93.740L50.788,93.679L50.786,93.629L50.730,93.606L50.661,93.594L50.615,93.565L50.583,93.517L50.556,93.448L50.462,93.321L50.336,93.290L50.198,93.323L49.994,93.403L49.358,93.656L49.150,93.794L48.921,93.905L48.689,93.948L48.507,94.046L48.434,94.321L48.416,94.456L48.365,94.579L48.290,94.686L48.199,94.776L47.921,94.947L47.757,95.000L47.658,94.953L47.590,94.801L47.500,94.648L47.388,94.516L47.255,94.425L47.196,94.413L47.083,94.418L47.026,94.395L46.985,94.346L46.915,94.204L46.871,94.132L46.840,94.082L46.828,94.013L46.843,93.942L46.882,93.874L47.124,93.369L47.222,93.305L47.347,93.280L47.455,93.239L47.500,93.127L47.510,93.013L47.551,92.814L47.560,92.468L47.592,92.231L47.549,92.110L47.439,92.025L47.345,91.934L47.350,91.794L47.430,91.693L47.507,91.656L47.561,91.604L47.572,91.457L47.556,91.333L47.517,91.254L47.442,91.228L47.170,91.288L47.072,91.255L46.882,91.096L46.768,91.120L46.613,91.290L46.502,91.319L46.255,91.256L46.176,91.246L46.103,91.270L46.071,91.311L46.045,91.314L45.996,91.224L45.981,91.173L45.977,90.997L45.989,90.943L45.991,90.938L46.009,90.886L46.022,90.830L46.011,90.780L45.940,90.657L45.914,90.590L45.900,90.521L45.883,90.232L45.828,90.115L45.692,90.034L45.625,90.024L45.564,90.025L45.509,90.017L45.459,89.979L45.443,89.928L45.445,89.793L45.436,89.756L45.334,89.756L44.953,90.035L44.848,90.050L44.741,90.023L44.539,89.931L44.178,89.824L44.070,89.773L43.881,89.634L43.793,89.612L43.640,89.630L43.540,89.621L43.408,89.580L43.351,89.552L43.180,89.467L43.064,89.363L42.997,89.248L42.777,88.567L42.737,88.522L42.674,88.499L42.605,88.493L42.552,88.498L42.462,88.555L42.462,88.567L42.372,88.565L42.322,88.536L42.294,88.503L42.279,88.484L42.226,88.451L42.141,88.478L42.103,88.529L42.086,88.598L42.079,88.735L42.039,88.982L42.046,89.085L42.093,89.226L42.105,89.312L42.070,89.365L42.018,89.411L41.978,89.474L41.973,89.528L41.992,89.634L41.994,89.687L41.970,89.838L41.918,89.971L41.869,90.065L41.825,89.938L41.756,89.838L41.649,89.806L41.721,89.610L41.728,89.513L41.669,89.471L41.592,89.491L41.547,89.541L41.490,89.674L41.293,89.504L41.123,89.304L41.103,89.252L41.087,89.181L41.064,89.120L41.022,89.093L40.946,89.133L40.903,89.145L40.884,89.116L40.897,89.072L40.951,88.998L40.961,88.969L40.947,88.908L40.896,88.806L40.884,88.739L40.858,88.718L40.802,88.722L40.745,88.713L40.720,88.656L40.692,88.544L40.627,88.467L40.473,88.347L40.331,88.119L40.238,88.035L40.132,88.073L40.079,88.076L40.036,87.997L39.989,87.841L39.947,87.785L39.915,87.760L39.403,87.563L39.256,87.422L39.257,87.178L39.283,87.069L39.315,87.055L39.400,87.054L39.422,87.028L39.416,86.970L39.383,86.914L39.318,86.888L39.227,86.837L39.234,86.721L39.258,86.596L39.217,86.514L39.313,86.313L39.374,86.219L39.439,86.179L39.458,86.139L39.624,85.911L39.580,85.844L39.478,85.876L39.369,85.940L39.298,85.971L39.207,85.928L39.174,85.854L39.176,85.640L38.970,85.760L38.873,85.844L38.832,85.847L38.812,85.760L38.769,85.760L38.653,85.726L38.499,85.477L38.393,85.194L38.425,85.059L38.551,84.988L38.661,84.814L38.739,84.595L38.769,84.392L38.732,84.392L38.565,84.719L38.450,84.843L38.302,84.785L38.278,84.690L38.307,84.429L38.284,84.346L38.205,84.338L38.143,84.424L38.103,84.544L38.086,84.641L38.110,84.855L38.087,84.941L37.983,84.976L37.921,84.958L37.832,84.917L37.753,84.868L37.719,84.827L37.687,84.809L37.519,84.780L37.435,84.727L37.363,84.633L37.189,84.346L37.244,84.246L37.253,84.104L37.233,83.828L37.220,83.787L37.161,83.688L37.149,83.619L37.122,83.610L36.993,83.611L36.947,83.596L37.025,83.467L37.016,83.334L36.973,83.181L36.930,82.906L36.889,82.900L36.837,82.926L36.785,82.932L36.733,82.905L36.675,82.863L36.658,82.825L36.725,82.808L36.749,82.769L36.711,82.683L36.639,82.598L36.561,82.559L36.466,82.546L36.418,82.510L36.337,82.393L36.219,82.305L36.103,82.238L36.011,82.155L35.970,82.016L35.933,82.016L35.919,82.224L35.861,82.391L35.739,82.474L35.529,82.431L35.394,82.286L35.361,81.884L35.283,81.726L35.529,81.529L35.566,81.456L35.577,81.342L35.613,81.161L35.609,81.058L35.495,81.176L35.438,81.198L35.363,81.187L35.333,81.151L35.242,80.996L35.199,80.951L35.103,80.922L35.007,80.868L34.963,80.745L34.970,80.684L34.981,80.647L34.983,80.612L34.963,80.561L34.922,80.508L34.826,80.454L34.780,80.414L34.745,80.350L34.736,80.307L34.712,80.290L34.637,80.308L34.599,80.342L34.556,80.451L34.535,80.474L34.444,80.500L34.356,80.551L34.272,80.584L34.188,80.561L34.159,80.515L34.118,80.380L34.089,80.329L34.015,80.283L33.982,80.307L33.966,80.357L33.946,80.391L33.869,80.460L33.838,80.458L33.825,80.370L33.809,80.316L33.732,80.237L33.702,80.187L33.689,80.070L33.702,79.772L33.682,79.691L33.702,79.497L33.702,79.392L33.683,79.296L33.582,79.060L33.497,79.230L33.460,79.230L33.440,78.788L33.400,78.728L33.287,78.760L33.115,78.871L33.052,78.852L33.013,78.852L33.013,78.894L32.972,78.894L32.961,78.823L32.985,78.499L33.017,78.449L33.114,78.375L33.158,78.296L33.079,78.257L32.952,78.231L32.851,78.189L32.823,78.324L32.742,78.360L32.638,78.367L32.546,78.415L32.485,78.482L32.392,78.559L32.300,78.590L32.241,78.517L32.201,78.517L32.190,78.589L32.159,78.628L32.119,78.623L32.079,78.562L32.039,78.562L32.039,78.641L31.916,78.627L31.813,78.676L31.778,78.741L31.961,78.816L31.982,78.916L31.981,79.033L32.017,79.124L32.018,79.289L31.919,79.538L31.794,79.700L31.715,79.603L31.679,79.603L31.675,79.659L31.658,79.697L31.595,79.772L31.500,79.686L31.391,79.478L31.239,79.417L31.221,79.373L31.196,79.328L31.128,79.309L31.063,79.304L31.015,79.290L30.977,79.266L30.944,79.230L30.922,79.140L30.922,78.880L30.886,78.792L30.832,78.702L30.711,78.133L30.459,77.356L30.451,77.224L30.480,77.116L30.520,77.069L30.540,77.124L30.555,77.240L30.600,77.319L30.743,77.476L30.777,77.354L30.725,77.280L30.641,77.221L30.581,77.144L30.578,77.105L30.594,77.075L30.612,77.049L30.621,77.024L30.618,76.924L30.621,76.896L30.688,76.708L30.702,76.647L30.691,76.513L30.598,76.274L30.581,76.190L30.605,76.135L30.647,76.101L30.697,76.071L30.743,76.025L30.763,75.985L30.775,75.946L30.797,75.568L30.827,75.434L30.957,75.226L31.011,74.986L31.127,74.822L31.202,74.677L31.250,74.648L31.272,74.663L31.360,74.686L31.433,74.685L31.413,74.627L31.398,74.551L31.456,74.466L31.595,74.313L31.417,74.387L31.306,74.416L31.248,74.369L31.231,74.211L31.303,74.145L31.445,74.139L31.540,74.090L31.473,73.898L31.300,73.665L31.222,73.528L31.191,73.378L31.186,73.255L31.214,73.290L31.289,73.313L31.337,73.295L31.385,73.252L31.473,73.151L31.364,73.094L31.362,73.000L31.416,72.898L31.433,72.816L31.504,72.716L31.547,72.604L31.629,72.226L31.676,72.116L31.797,71.899L31.902,71.363L31.985,71.195L32.160,71.319L32.356,71.163L32.422,71.088L32.407,71.029L32.361,71.018L32.248,71.034L32.201,71.029L32.176,71.001L32.154,70.921L32.140,70.904L32.021,70.855L32.071,70.754L32.180,70.670L32.241,70.672L32.254,70.649L32.309,70.577L32.322,70.550L32.306,70.505L32.201,70.361L32.297,70.356L32.316,70.306L32.277,70.240L32.201,70.191L32.241,70.154L32.331,70.213L32.424,70.251L32.498,70.235L32.528,70.131L32.553,70.125L32.601,70.074L32.627,70.016L32.589,69.988L32.467,69.986L32.414,69.973L32.362,69.943L32.335,69.984L32.329,70.002L32.322,70.029L32.285,70.029L32.292,69.980L32.290,69.844L32.285,69.822L32.335,69.771L32.381,69.758L32.429,69.756L32.484,69.739L32.566,69.679L32.630,69.606L32.682,69.517L32.729,69.407L32.682,69.451L32.584,69.576L32.528,69.611L32.475,69.600L32.443,69.558L32.417,69.512L32.313,69.443L32.361,69.336L32.456,69.224L32.528,69.158L32.555,69.201L32.593,69.223L32.637,69.222L32.689,69.196L32.655,69.155L32.744,69.090L32.770,69.026L32.750,69.003L32.705,68.991L32.662,68.966L32.674,68.933L32.734,68.875L32.782,68.800L32.829,68.767L32.961,68.769L33.013,68.739L33.026,68.677L32.969,68.651L32.904,68.659L32.891,68.694L32.828,68.611L32.829,68.571L32.851,68.491L33.114,68.031L33.198,67.934L33.360,67.468L33.498,67.204L33.543,67.067L33.572,66.924L33.582,66.800L33.604,66.680L33.696,66.453L33.702,66.323L33.815,65.954L33.875,65.645L33.957,65.413L33.962,65.291L33.879,64.909L33.840,64.844L33.727,64.744L33.705,64.667L33.758,64.406L33.817,64.268L34.078,63.916L34.191,63.814L34.248,63.796L34.374,63.789L34.417,63.775L34.459,63.722L34.482,63.664L34.508,63.597L34.559,63.540L34.637,63.505L34.692,63.518L34.743,63.543L34.807,63.545L35.018,63.452L35.046,63.445L35.090,63.395L35.115,63.347L35.137,63.225L35.137,63.136L35.089,63.012L35.077,62.938L35.080,62.875L35.094,62.809L35.118,62.746L35.152,62.693L35.206,62.635L35.230,62.627L35.260,62.643L35.335,62.654L35.403,62.675L35.465,62.708L35.523,62.710L35.574,62.636L35.626,62.453L35.652,62.398L35.749,62.298L35.985,62.174L36.031,62.138L36.095,62.088L36.134,62.029L36.189,61.904L36.233,61.846L36.291,61.812L36.417,61.770L36.458,61.720L36.637,61.176L36.713,61.041L36.904,60.808L36.976,60.672L37.066,60.428L37.129,60.335L37.353,60.089L37.390,59.988L37.399,59.881L37.432,59.732L37.488,59.634L37.658,59.460L37.731,59.359L37.786,59.238L37.808,59.137L37.797,58.891L37.805,58.749L37.859,58.649L37.956,58.587L38.092,58.560L38.338,58.544L38.408,58.486L38.789,57.969L38.839,57.825L38.926,57.422L38.914,57.363L38.813,57.334L38.700,57.261L38.593,57.167L38.520,57.074L38.476,56.940L38.496,56.815L38.588,56.570L38.594,56.446L38.553,56.343L38.472,56.269L38.359,56.232L38.265,56.145L38.285,55.976L38.379,55.690L38.389,55.620L38.414,55.558L38.427,55.501L38.403,55.448L38.351,55.424L38.290,55.426L37.957,55.537L37.874,55.516L37.854,55.408L37.885,55.349L37.942,55.303L37.991,55.248L38.001,55.165L37.980,55.103L37.916,54.984L37.893,54.920L37.888,54.855L37.903,54.745L37.887,54.679L37.846,54.612L37.755,54.502L37.723,54.427L37.703,54.311L37.687,53.973L37.647,53.841L37.513,53.597L37.488,53.472L37.502,53.411L37.566,53.280L37.589,53.216L37.606,53.081L37.608,52.952L37.593,52.858L37.584,52.804L37.528,52.720L37.236,52.556L37.170,52.503L37.112,52.442L37.074,52.379L37.030,52.332L36.891,52.293L36.836,52.259L36.816,52.211L36.802,52.088L36.776,52.033L36.714,51.992L36.579,51.970L36.526,51.944L36.464,51.839L36.459,51.730L36.466,51.615L36.444,51.489L36.399,51.419L36.282,51.305L36.234,51.239L36.214,51.179L36.194,50.992L36.116,50.808L36.104,50.753L36.110,50.673L36.132,50.617L36.162,50.564L36.187,50.495L36.173,50.376L36.091,50.259L35.981,50.160L35.880,50.097L35.749,49.995L35.720,49.873L35.752,49.737L35.804,49.593L35.820,49.440L35.802,49.305L35.801,49.187L35.872,49.085L35.986,49.042L36.220,49.016L36.301,48.942L36.305,48.938L36.323,48.833L36.298,48.709L36.223,48.481L36.220,48.399L36.244,48.342L36.279,48.291L36.304,48.228L36.304,48.170L36.284,48.053L36.315,47.749L36.309,47.633L36.097,46.692L36.082,46.182L36.102,46.044L36.100,45.885L36.066,45.831L36.033,45.780L35.841,45.594L35.796,45.496L35.729,45.206L35.727,45.101L35.741,45.028L35.743,44.981L35.730,44.942L35.699,44.891L35.672,44.872L35.590,44.849L35.559,44.833L35.535,44.796L35.505,44.705L35.479,44.669L35.293,44.530L35.239,44.459L35.179,44.325L35.107,44.210L34.919,43.982L34.887,43.871L34.874,43.733L34.814,43.634L34.710,43.567L34.568,43.525L34.442,43.469L33.739,42.937L33.606,42.795L33.463,42.513L33.406,42.504L33.336,42.528L33.246,42.525L33.206,42.495L33.130,42.394L33.092,42.356L33.048,42.336L32.957,42.316L32.916,42.299L32.838,42.247L32.790,42.199L32.520,41.858L32.109,41.015L32.032,40.973L31.959,40.945L31.915,40.860L31.883,40.713L31.832,40.582L31.754,40.462L31.040,39.771L30.719,39.262L30.672,39.144L30.692,39.055L30.694,39.025L30.675,38.987L30.611,38.935L30.594,38.902L30.583,38.775L30.591,38.556L30.551,38.423L30.433,38.214L30.410,38.150L30.411,38.119L30.411,38.071L30.437,38.013L30.469,37.961L30.488,37.898L30.457,37.766L30.455,37.764L30.274,37.575L30.228,37.432L30.255,37.314L30.378,37.101L30.408,36.989L30.372,36.904L30.332,36.809L30.332,36.809L30.328,36.738L30.508,36.746L30.554,36.748L30.657,36.700L30.745,36.614L30.954,36.316L31.025,36.300L31.160,36.322L31.268,36.364L31.470,36.487L31.559,36.521L31.600,36.509L31.615,36.468L31.615,36.376L31.599,36.341L31.564,36.314L31.528,36.293L31.513,36.277L31.521,36.245L31.535,36.215L31.550,36.193L31.556,36.186L31.608,36.156L31.641,36.123L31.648,36.069L31.624,35.966L31.628,35.917L31.667,35.890L31.879,35.845L31.974,35.808L32.087,35.748L32.208,35.801L32.330,35.870L32.417,35.965L32.437,36.098L32.593,35.919L32.646,35.635L32.635,35.329L32.497,34.424L32.509,34.077L32.499,33.977L32.476,33.753L32.493,33.610L32.678,32.999L32.692,32.889L32.648,32.634L32.644,32.488L32.716,32.251L32.734,32.143L32.694,32.022L32.534,31.795L32.516,31.714L32.569,31.666L32.638,31.675L32.711,31.706L32.771,31.725L32.848,31.724L32.898,31.718L32.943,31.693L33.009,31.638L33.091,31.519L33.128,31.398L33.177,31.296L33.301,31.237L33.405,31.232L33.768,31.279L33.838,31.311L33.872,31.354L33.913,31.381L34.004,31.368L34.056,31.331L34.196,31.179L34.223,31.125L34.219,30.984L34.231,30.854L34.269,30.735L34.343,30.624L34.509,30.431L34.538,30.335L34.566,30.060L34.625,29.795L34.620,29.684L34.518,29.535L34.381,29.447L34.270,29.340L34.248,29.133L34.124,29.235L34.075,29.332L34.026,29.583L33.946,29.727L33.589,30.009L33.412,30.272L33.317,30.342L33.204,30.261L33.167,30.170L33.081,29.733L33.004,29.557L32.997,29.490L33.056,29.364L33.065,29.300L33.017,29.189L32.655,28.713L32.618,28.650L32.617,28.584L32.637,28.520L32.639,28.464L32.627,28.409L32.602,28.347L32.517,28.236L32.311,28.095L32.229,27.979L32.187,27.813L32.157,27.744L31.982,27.609L31.970,27.501L32.016,27.385L32.087,27.285L32.174,27.260L32.270,27.200L32.342,27.125L32.360,27.057L32.316,27.008L32.258,26.985L32.205,26.954L32.179,26.880L32.194,26.794L32.241,26.765L32.309,26.783L32.383,26.837L32.333,26.663L32.294,26.580L32.238,26.542L32.146,26.500L32.124,26.411L32.122,26.309L32.087,26.229L32.023,26.149L31.923,25.950L31.860,25.858L31.752,25.752L31.646,25.684L31.526,25.650L31.236,25.643L31.133,25.612L31.052,25.535L30.973,25.397L30.996,25.376L31.027,25.321L31.021,25.274L30.867,25.273L30.854,25.221L30.882,25.152L30.930,25.098L30.795,25.007L30.587,24.708L30.473,24.618L30.381,24.566L29.874,24.090L29.827,24.031L29.814,23.952L29.836,23.824L29.839,23.749L29.804,23.663L29.734,23.619L29.647,23.590L29.567,23.549L29.489,23.467L29.448,23.384L29.387,23.210L29.256,23.007L29.230,22.916L29.177,22.857L29.115,22.819L28.975,22.755L28.887,22.697L28.734,22.557L27.911,21.802L27.855,21.727L27.818,21.643L27.810,21.566L27.809,21.496L27.797,21.433L27.746,21.371L27.603,21.252L27.570,21.182L27.542,21.100L27.483,21.028L27.409,20.968L27.362,20.884L27.498,20.866L27.418,20.578L27.455,20.487L27.622,20.198L27.785,20.091L27.804,20.074L27.823,20.041L27.810,19.970L27.783,19.899L27.764,19.866L27.739,19.835L27.653,19.630L27.634,19.556L27.622,19.531L27.541,19.493L27.516,19.477L27.490,19.484L27.469,19.479L27.461,19.427L27.466,19.397L27.492,19.339L27.498,19.302L27.485,19.236L27.429,19.125L27.417,19.054L27.417,19.002L27.411,18.966L27.387,18.926L27.083,18.511L27.018,18.385L27.034,18.328L27.123,18.288L27.168,18.195L27.171,18.083L27.134,17.992L27.058,17.949L26.757,17.830L26.689,17.845L26.678,17.859L26.568,18.151L26.543,18.197L26.487,18.241L26.368,18.173L26.240,18.078L26.122,17.961L26.039,17.826L26.005,17.676L26.003,17.537L25.983,17.403L25.832,17.173L25.696,16.894L25.672,16.805L25.604,16.689L25.477,16.573L25.440,16.505L25.568,16.520L25.610,16.526L25.662,16.559L25.783,16.747L25.800,16.797L25.826,16.840L25.891,16.879L25.954,16.888L26.100,16.861L26.376,16.869L26.606,16.761L27.018,16.493L27.133,16.456L27.446,16.464L27.728,16.387L27.757,16.395L27.774,16.384L27.810,16.315L27.857,16.070L27.815,15.823L27.748,15.582L27.718,15.354L27.715,15.220L27.697,15.112L27.624,14.886L27.618,14.836L27.642,14.677L27.617,14.601L27.554,14.536L27.411,14.431L27.278,14.302L27.254,14.229L27.314,14.170L27.439,14.084L27.523,13.995L27.565,13.900L27.604,13.667L27.668,13.553L28.036,13.277L28.119,13.183L28.159,13.097L28.185,12.621L28.170,12.512L28.126,12.397L28.074,12.340L27.916,12.215L27.883,12.160L27.906,12.095L27.961,12.086L28.028,12.091L28.085,12.069L28.132,11.949L28.078,11.844L27.995,11.730L27.957,11.585L27.948,11.524L27.904,11.407L27.900,11.363L28.097,11.101L28.294,10.931L28.345,10.866L28.384,10.777L28.380,10.743L28.357,10.713L28.338,10.637L28.326,10.515L28.331,10.405L28.383,10.330L28.504,10.313L28.603,10.298L28.971,10.119L29.019,10.076L29.105,9.976L29.157,9.931L29.222,9.911L29.280,9.913L29.328,9.896L29.359,9.819L29.361,9.711L29.312,9.492L29.306,9.381L29.385,8.983L29.424,8.900L29.549,8.872L29.638,8.955L29.710,9.056L29.787,9.081L29.938,9.057L30.061,9.125L30.297,9.334L30.498,9.395L30.541,9.418L30.569,9.477L30.561,9.602L30.576,9.666L30.685,9.740L30.834,9.709L31.098,9.587L31.336,9.583L31.613,9.609L31.881,9.600L32.087,9.494L32.107,9.492L32.172,9.485L32.224,9.522L32.268,9.577L32.330,9.627L32.431,9.673L32.454,9.665L32.463,9.624L32.524,9.570L32.642,9.526L32.775,9.501L32.820,9.471L32.921,9.345L32.971,9.298L33.075,9.253L33.600,9.178L33.713,9.140L34.060,8.879L34.238,8.958L34.321,9.015L34.395,9.081L34.509,9.250L34.601,9.230L34.813,9.079L35.042,8.991L35.124,8.922L35.203,8.791L35.249,8.639L35.242,8.524L35.213,8.411L35.193,8.264L35.206,8.202L35.234,8.159L35.262,8.127L35.277,8.098L35.273,8.042L35.239,7.931L35.232,7.871L35.297,7.454L35.413,7.247L35.632,7.088L35.893,6.988L36.135,6.953L36.249,6.963L36.493,7.032L36.597,7.079L36.827,7.265L36.947,7.324L37.098,7.301L37.810,7.086L38.005,6.925L38.082,6.845L38.152,6.811L38.208,6.775L38.218,6.769L38.278,6.665L38.309,6.512L38.268,6.414L38.075,6.212L38.008,5.858L37.958,5.746L37.740,5.524L37.687,5.422L37.801,5.382L37.885,5.412L38.173,5.606L38.628,5.752L38.685,5.755L38.793,5.740L38.855,5.745L38.908,5.767L38.998,5.827L39.056,5.839L39.170,5.819L39.390,5.729L39.512,5.708L39.752,5.708L39.856,5.674L39.956,5.583L40.009,5.484L40.088,5.265L40.155,5.171L40.261,5.103L40.393,5.060L40.716,5.014L40.743,5.000L40.772,5.006L40.834,5.053L40.872,5.106L40.885,5.165L40.907,5.221L40.964,5.268L41.032,5.352L41.096,5.374L41.165,5.373L41.251,5.390L41.329,5.437L41.368,5.487L41.397,5.545L41.444,5.612L41.703,5.773L41.691,5.983L41.725,6.102L41.806,6.197L41.912,6.251L42.018,6.251L42.108,6.163L42.104,5.926L42.159,5.877L42.178,5.866L42.309,5.818L42.342,5.813L42.353,5.802L42.422,5.583L42.538,5.439L42.715,5.323L42.930,5.275L43.153,5.334L43.272,5.462L43.611,6.184L43.763,6.379L43.791,6.426L43.822,6.510L43.844,6.545L43.890,6.575L43.990,6.617L44.009,6.650L44.053,6.702L44.150,6.760L44.248,6.794L44.292,6.771L44.323,6.690L44.350,6.683L44.363,6.743L44.374,7.056L44.331,7.299L44.184,7.731L44.031,8.119L44.003,8.329L43.980,8.428L43.922,8.521L43.871,8.555L43.757,8.602L43.710,8.632L43.669,8.686L43.604,8.855L43.528,8.953L43.385,9.138L43.360,9.248L43.387,9.331L43.424,9.378L43.486,9.455L43.526,9.526L43.545,9.621L43.559,9.820L43.594,9.925L43.643,10.001L43.764,10.147L43.812,10.226L43.832,10.327L43.832,10.426L43.849,10.515L43.922,10.589L44.026,10.653L44.197,10.725L44.366,10.774L44.469,10.767L44.517,10.690L44.583,10.583L44.708,10.492L44.863,10.485L45.346,10.665L45.431,10.713L45.484,10.771L45.528,10.832L45.572,10.848L45.629,10.768L45.900,10.519L46.140,10.239L46.212,10.117L46.235,10.090L46.292,10.055L46.322,10.051L46.357,10.058L46.882,10.051L47.049,10.069L47.178,10.116L47.438,10.272L47.601,10.332L47.772,10.345L47.937,10.325L48.080,10.287L48.148,10.250L48.202,10.213L48.265,10.197L48.365,10.223L48.444,10.266L48.491,10.314L48.520,10.374L48.542,10.454L48.554,10.602L48.524,10.775L48.444,10.909L48.308,10.945L48.175,11.028L48.086,11.244L48.054,11.492L48.090,11.673L48.129,11.701L48.229,11.721L48.263,11.745L48.284,11.796L48.282,11.830L48.272,11.861L48.274,11.899L48.394,12.407L48.376,12.763L48.390,12.906L48.429,13.000L48.498,13.075L48.757,13.298L48.915,13.474L48.966,13.653L48.714,13.891L48.673,13.978L48.616,14.176L48.556,14.267L48.412,14.430L48.365,14.539L48.355,14.656L48.387,15.020L48.359,15.124L48.272,15.319L48.252,15.418L48.284,15.528L48.423,15.665L48.455,15.761L48.423,15.853L48.347,15.953L48.183,16.106L48.131,16.132L48.027,16.170L47.986,16.209L47.970,16.269L47.976,16.404L47.953,16.471L47.875,16.547L47.495,16.752L47.471,16.781L47.460,16.842L47.417,16.959L47.245,17.133L47.213,17.254L47.253,17.360L47.336,17.469L47.472,17.596L47.521,17.641L47.895,17.810L47.954,17.892L47.936,17.931L47.835,18.040L47.804,18.084L47.791,18.146L47.794,18.360L47.813,18.402L47.860,18.524L47.895,18.559L47.938,18.583L47.976,18.613L47.997,18.667L47.984,18.763L47.896,18.991L47.872,19.100L47.892,19.217L47.993,19.443L48.011,19.529L47.966,19.607L47.776,19.724L47.698,19.784L47.595,19.948L47.519,20.106L47.425,20.254L47.269,20.387L47.083,20.490L47.039,20.553L47.017,20.676L47.035,20.883L47.003,20.960L46.882,21.012L46.839,21.045L46.828,21.083L46.843,21.123L46.882,21.165L46.887,21.178L46.889,21.191L46.887,21.204L46.882,21.217L46.826,21.247L46.789,21.286L46.776,21.336L46.789,21.397L46.801,21.520L46.773,21.630L46.760,21.677L46.637,21.952L46.439,22.180L46.357,22.308L46.359,22.442L46.453,22.514L46.665,22.553L46.924,22.601L47.039,22.658L47.146,22.729L47.244,22.814L47.326,22.916L47.425,22.938L47.602,23.041L47.772,23.110L47.797,23.127L47.817,23.123L47.873,23.090L47.905,23.058L48.006,22.916L48.020,22.826L48.081,22.791L48.160,22.777L48.230,22.750L48.268,22.701L48.387,22.474L48.496,22.331L49.148,21.803L49.223,21.778L49.268,21.781L49.305,21.767L49.411,21.635L49.419,21.618L49.425,21.581L49.394,21.571L49.332,21.568L49.294,21.550L49.330,21.498L49.412,21.471L49.502,21.479L49.591,21.471L49.669,21.397L49.696,21.376L49.718,21.366L49.733,21.371L49.740,21.397L49.751,21.436L49.805,21.552L49.818,21.538L49.840,21.490L49.869,21.445L49.892,21.397L50.009,21.278L50.209,21.195L50.326,21.116L50.194,21.010L50.262,20.985L50.372,20.945L50.410,20.893L50.437,20.826L50.452,20.747L50.452,20.654L50.587,20.738L50.651,20.670L50.702,20.554L50.799,20.492L51.349,20.387L51.369,20.266L51.513,19.866L51.566,19.608L51.614,19.497L51.712,19.406L51.749,19.406L51.804,19.474L52.036,19.536L52.264,19.666L52.386,19.628L53.281,18.685L53.374,18.586L53.417,18.554L53.588,18.563L53.861,18.577L53.970,18.636L54.008,18.723L54.030,18.825L54.086,18.929L54.265,19.054L54.287,19.074L54.332,19.099L54.471,19.282L54.767,19.541L54.944,19.628L55.120,19.617L55.231,19.756L55.392,19.888L55.589,19.988L55.805,20.028L56.311,20.030L56.501,20.125L56.576,20.368L56.477,20.764L56.475,20.820L56.559,20.843L56.863,20.990L56.994,21.007L56.994,20.963L56.937,20.875L56.903,20.764L56.935,20.671L57.016,20.621L57.226,20.571L57.316,20.519L57.533,20.323L57.875,20.138L57.912,20.073L57.999,20.023L58.507,19.799L58.604,19.779L58.710,19.806L58.893,19.923L58.991,19.949L59.095,19.910L59.163,19.823L59.215,19.736L59.274,19.697L59.303,19.637L59.254,19.282L59.263,19.171L59.292,19.090L59.343,19.034L59.389,19.011L59.416,18.997L59.419,18.995L59.406,19.022L59.403,19.026L59.399,19.032L59.398,19.034L59.522,18.992L59.620,18.931L59.691,18.840L59.729,18.711L59.763,18.508L59.801,18.413L59.866,18.336L59.916,18.305L59.966,18.287L60.142,18.260L60.271,18.213L60.489,18.176L60.565,18.150L60.618,18.105L60.625,18.050L60.589,17.999L60.342,17.832L60.292,17.812L60.279,17.778L60.263,17.756L60.253,17.731L60.255,17.692L60.315,17.544L60.414,17.422L60.543,17.329L60.686,17.267L61.159,17.171L61.219,17.172L61.543,17.269L61.652,17.290L61.680,17.289L61.765,17.275L61.816,17.279L61.967,17.316L62.118,17.330L62.464,17.421L62.548,17.479L62.598,17.525L62.650,17.557L62.987,17.707L63.067,17.729L63.411,17.747L63.514,17.764L63.613,17.798L63.707,17.846L63.795,17.905L63.855,17.975L63.895,18.053L63.947,18.113L64.043,18.133L64.086,18.125L64.114,18.110L64.135,18.084L64.159,18.047L64.256,17.938L64.370,17.863L64.500,17.830L64.643,17.844L64.789,17.919L64.899,18.036L65.193,18.545L65.445,19.157L65.513,19.274L65.592,19.369L65.961,19.698L65.992,19.740L66.037,19.801L66.298,20.370L66.353,20.554L66.388,20.619L66.435,20.675L66.457,20.695L66.491,20.723L66.876,20.951L66.965,21.065L67.099,21.328L67.185,21.433L67.209,21.471L67.225,21.509L67.262,21.629L67.288,21.677L67.464,21.882L67.636,22.037L68.555,22.511L68.666,22.550L68.947,22.725L69.017,22.798L69.134,22.970L69.225,23.145L69.268,23.195L69.314,23.228L69.415,23.284L69.458,23.322L69.480,23.355L69.620,23.663L69.638,23.735L69.642,23.808L69.620,24.105L69.632,24.469L69.609,24.749L69.582,24.885L69.200,25.777L69.170,25.912L69.206,26.271L69.225,26.470L69.245,26.536L69.304,26.663L69.324,26.729L69.328,26.802L69.317,26.872L69.277,27.010L69.274,27.028L69.265,27.083L69.268,27.152L69.395,27.654L69.399,27.721L69.390,27.787L69.308,28.013L69.245,28.268L69.218,28.529L69.224,28.666L69.254,28.790L69.317,28.897L69.421,28.983L69.753,29.161L69.852,29.244L69.931,29.339L69.994,29.440L70.042,29.549L70.098,29.738L70.124,29.801L70.163,29.856L70.217,29.904L70.376,29.993L70.423,30.032L70.538,30.154L70.584,30.189L70.636,30.217L70.751,30.280L70.799,30.322L70.863,30.438L70.883,30.569L70.878,30.840L70.900,30.999L70.958,31.144L71.051,31.267L71.176,31.362L71.340,31.421L72.111,31.694L72.171,31.704L72.415,31.715L73.103,31.889L73.160,31.911L73.205,31.943L73.212,31.972L73.216,31.990L73.182,32.035L73.118,32.070L72.994,32.120L72.852,32.278L72.841,32.493L72.912,32.719L73.145,33.219L73.210,33.316L73.285,33.390L73.358,33.431L73.443,33.444L73.686,33.423L73.817,33.440L74.072,33.525L74.334,33.695L74.500,33.935L74.560,34.223L74.500,34.534L74.354,34.911L74.329,35.044L74.319,35.300L74.283,35.410L74.212,35.480L74.189,35.503L73.979,35.635L73.703,35.723L73.585,35.800L73.533,35.934L73.567,36.046L73.660,36.105L73.781,36.127L73.894,36.125L74.009,36.103L74.030,36.128L74.050,36.259L74.045,36.422L74.023,36.432L73.853,36.541L73.689,36.674L73.448,36.927L73.396,37.011L73.357,37.134L73.333,37.265L73.332,37.401L73.382,37.502L73.511,37.527L73.656,37.676L73.687,37.684L73.764,37.670L73.790,37.676L73.803,37.706L73.801,37.774L73.810,37.799L73.983,38.045L74.057,38.102L74.059,38.102L74.059,38.102L74.217,38.134L74.161,38.214L73.926,38.363L73.868,38.479L73.966,38.671L73.921,38.806L73.889,38.819L73.796,38.815L73.771,38.821L73.760,38.857L73.766,38.949L73.809,39.034L73.810,39.067L73.785,39.089L73.703,39.108L73.675,39.127L73.630,39.238L73.602,39.376L73.611,39.513L73.675,39.621L73.696,39.679L73.650,39.958L73.641,40.144L73.726,40.547L73.711,40.726L73.639,40.890L73.451,41.140L73.313,41.265L73.275,41.310L73.245,41.369L73.194,41.509L73.169,41.552L73.108,41.583L72.951,41.612L72.883,41.634L72.835,41.672L72.724,41.783L72.690,41.809L72.614,41.805L72.510,41.734L72.451,41.728L72.410,41.763L72.339,41.892L72.296,41.939L72.189,41.983L71.880,42.055L71.798,42.052L71.624,42.145L71.489,42.447L71.307,42.752L70.987,42.852L70.857,42.790L70.753,42.671L70.565,42.323L70.555,42.272L70.583,41.996L70.581,41.914L70.552,41.840L70.441,41.806L70.208,41.764L70.104,41.745L70.057,41.721L69.963,41.658L69.917,41.639L69.863,41.637L69.751,41.653L69.709,41.651L69.612,41.602L69.534,41.540L69.454,41.491L69.356,41.480L69.274,41.522L69.097,41.662L69.008,41.681L68.968,41.648L68.938,41.540L68.889,41.516L68.841,41.537L68.782,41.634L68.744,41.664L68.644,41.669L68.497,41.606L68.401,41.607L68.308,41.662L68.242,41.748L68.185,41.841L68.119,41.914L68.001,41.963L67.905,41.944L67.812,41.902L67.704,41.881L67.641,41.898L67.593,41.931L67.555,41.965L67.523,41.983L67.502,41.984L67.467,41.984L67.428,41.974L67.388,41.957L66.714,41.859L66.394,41.728L66.253,41.716L66.164,41.764L66.086,41.827L65.980,41.856L65.908,41.830L65.875,41.775L65.869,41.720L65.887,41.698L65.836,41.697L65.823,41.715L65.814,41.747L65.667,41.907L65.623,41.929L65.548,41.927L65.506,41.896L65.476,41.860L65.441,41.841L65.225,41.900L65.059,41.982L65.055,41.984L65.001,42.011L64.797,42.056L64.635,41.921L64.314,41.938L64.259,41.988L64.244,42.037L64.213,42.072L64.109,42.085L64.021,42.067L63.955,42.029L63.896,41.983L63.832,41.945L63.747,41.917L63.697,41.917L63.648,41.929L63.571,41.936L63.458,41.923L63.111,41.835L62.908,41.821L62.865,41.805L62.846,41.749L62.858,41.605L62.844,41.543L62.808,41.504L62.760,41.473L62.701,41.456L62.641,41.460L62.584,41.493L62.566,41.537L62.557,41.586L62.521,41.634L62.398,41.696L62.312,41.678L62.233,41.626L62.127,41.590L62.027,41.607L61.799,41.723L61.575,41.878L61.532,41.895L61.470,41.887L61.424,41.859L61.393,41.829L61.371,41.815L61.285,41.839L61.121,41.959L61.018,42.005L60.891,42.021L60.490,42.020L60.310,42.075L60.046,42.157L59.688,42.210L59.569,42.250L59.373,42.356L58.971,42.701L58.899,42.763L58.798,42.822L58.580,42.885L58.480,42.932L58.389,43.026L58.361,43.124L58.361,43.151L58.360,43.231L58.345,43.350L58.303,43.448L58.179,43.624L58.138,43.719L58.118,43.859L58.121,43.950L58.100,44.027L58.012,44.128L57.671,44.396L57.526,44.541L57.417,44.735L57.315,45.066L57.267,45.172L57.162,45.304L57.133,45.356L57.118,45.418L57.111,45.543L57.087,45.600L56.947,45.721L56.351,46.012L56.162,46.159L56.154,46.287L56.281,46.412L56.490,46.549L56.382,46.580L56.104,46.742L55.989,46.782L55.628,46.812L55.150,46.771L54.918,46.798L54.807,46.941L54.815,47.006L54.879,47.108L54.901,47.164L54.906,47.212L54.902,47.284L54.901,47.300L54.927,47.759L54.888,48.129L54.894,48.556L54.900,48.571L55.213,49.398L55.331,49.602L55.599,49.919L55.693,50.110L55.752,50.190L55.853,50.251L55.853,50.257L55.850,50.288L55.832,50.320L55.801,50.346L55.758,50.367L55.727,50.389L55.717,50.413L55.728,50.439L55.779,50.487L55.786,50.509L55.779,50.532L55.712,50.605L55.703,50.668L55.721,50.736L55.758,50.803L55.788,50.944L55.813,51.176L55.850,51.302L55.885,51.365L55.914,51.403L55.937,51.444L55.950,51.518L55.944,51.577L55.883,51.770L55.883,51.770L55.809,51.836L55.781,51.931L55.773,52.059L55.788,52.189L55.831,52.286L55.887,52.328L55.922,52.355L56.258,52.468L56.435,52.598L56.887,53.057L57.034,53.145L57.076,53.185L57.098,53.235L57.107,53.337L57.123,53.384L57.204,53.472L57.394,53.575L57.462,53.653L57.472,53.719L57.480,53.773L57.429,53.859L57.276,53.993L57.214,54.108L57.184,54.224L57.049,55.218L57.095,55.460L57.398,55.932L57.480,56.032L57.515,56.075L57.611,56.286L57.670,56.588L57.941,57.116L58.191,57.471L58.360,57.727L58.427,57.968L58.449,58.315L58.359,58.453ZM28.520,72.221L28.332,72.071L28.304,72.024L28.319,71.980L28.353,71.945L28.396,71.925L28.434,71.923L28.500,71.973L28.537,72.062L28.546,72.157L28.520,72.221ZM39.333,71.233L39.360,71.360L39.230,71.411L39.151,71.373L39.333,71.233ZM39.247,70.760L39.224,70.808L39.210,70.819L39.202,70.794L39.194,70.733L39.211,70.736L39.223,70.745L39.232,70.755L39.247,70.760ZM36.664,89.259L36.738,89.314L36.722,89.344L36.661,89.368L36.483,89.490L36.350,89.513L36.227,89.477L36.135,89.384L36.241,89.409L36.298,89.353L36.355,89.281L36.462,89.259L36.418,89.259L36.613,89.248L36.664,89.259ZM39.176,89.614L39.175,89.670L39.165,89.705L39.140,89.732L39.096,89.761L39.025,89.655L38.950,89.398L38.750,89.207L38.766,89.125L38.831,89.053L38.889,88.969L38.902,88.907L38.888,88.796L38.889,88.758L38.921,88.720L38.964,88.700L38.999,88.673L39.015,88.614L39.023,88.503L39.048,88.391L39.085,88.354L39.225,88.664L39.223,88.961L39.317,89.183L39.366,89.360L39.360,89.445L39.338,89.512L39.296,89.543L39.243,89.551L39.197,89.565L39.176,89.614ZM37.597,85.059L37.678,85.118L37.836,85.152L37.883,85.225L37.805,85.217L37.732,85.225L37.667,85.247L37.617,85.283L37.531,85.429L37.466,85.498L37.435,85.451L37.433,85.144L37.479,85.003L37.597,85.059ZM35.404,82.763L35.586,82.940L35.646,82.977L35.647,83.194L35.707,83.417L35.797,83.618L35.892,83.766L35.789,83.838L35.654,83.759L35.535,83.615L35.382,83.263L35.363,83.204L35.369,82.994L35.358,82.893L35.320,82.808L35.335,82.794L35.342,82.790L35.349,82.783L35.363,82.763L35.404,82.763ZM35.933,82.683L35.951,82.762L35.951,82.879L35.931,82.990L35.892,83.057L35.841,83.067L35.788,83.052L35.748,83.024L35.731,82.996L35.716,82.959L35.682,82.934L35.642,82.916L35.609,82.895L35.461,82.647L35.594,82.575L35.816,82.610L35.933,82.683ZM32.478,79.964L32.477,79.960L32.752,80.120L32.844,80.216L32.891,80.391L32.900,81.051L32.851,81.187L32.760,81.179L32.696,81.090L32.657,80.970L32.638,80.824L32.610,80.735L32.612,80.685L32.641,80.642L32.679,80.638L32.714,80.625L32.729,80.561L32.725,80.509L32.709,80.453L32.678,80.409L32.628,80.391L32.563,80.378L32.541,80.343L32.533,80.297L32.456,80.169L32.422,80.064L32.405,79.951L32.407,79.852L32.433,79.876L32.453,79.902L32.478,79.964ZM31.756,81.187L31.776,81.158L31.812,81.129L31.834,81.104L31.881,81.198L31.882,81.291L31.835,81.362L31.644,81.425L31.619,81.510L31.635,81.726L31.423,81.620L31.314,81.617L31.268,81.748L31.247,81.902L31.191,81.993L31.108,82.013L31.006,81.954L30.975,81.867L30.944,81.477L30.922,81.432L30.894,81.388L30.871,81.336L30.864,81.270L30.889,81.249L30.936,81.228L30.968,81.187L30.944,81.104L30.911,81.082L30.806,81.049L30.783,81.038L30.810,80.977L30.863,80.928L30.901,80.883L30.886,80.832L30.853,80.761L30.877,80.699L30.922,80.641L30.944,80.583L30.939,80.515L30.913,80.396L30.903,80.181L30.907,80.142L30.922,80.097L30.968,80.001L30.985,79.939L30.996,79.811L30.989,79.680L30.944,79.437L30.971,79.441L30.990,79.450L31.029,79.478L31.072,79.459L31.123,79.475L31.178,79.514L31.232,79.566L31.266,79.652L31.312,79.939L31.348,79.939L31.410,79.880L31.491,79.928L31.582,80.022L31.679,80.101L31.722,80.029L31.780,79.999L31.836,80.019L31.878,80.101L31.874,80.203L31.835,80.299L31.756,80.436L31.751,80.486L31.764,80.596L31.756,80.643L31.731,80.669L31.695,80.689L31.659,80.717L31.635,80.768L31.631,80.875L31.655,80.992L31.699,81.102L31.756,81.187ZM33.052,79.561L32.957,79.979L32.953,80.055L32.757,79.984L32.709,79.957L32.653,79.880L32.680,79.843L32.810,79.810L32.784,79.710L32.841,79.620L32.924,79.532L32.972,79.437L33.020,79.449L33.041,79.475L33.049,79.512L33.052,79.561ZM31.029,73.645L31.101,73.719L31.157,73.815L31.189,73.932L31.191,74.064L31.066,74.192L31.110,74.229L31.022,74.274L30.902,74.309L30.784,74.303L30.702,74.229L30.699,74.146L30.749,73.656L30.748,73.615L30.763,73.591L30.823,73.566L30.896,73.555L30.949,73.575L31.029,73.645ZM41.531,70.965L41.564,70.973L41.624,71.037L41.652,71.119L41.589,71.186L41.540,71.358L41.522,71.551L41.476,71.709L41.305,71.792L41.291,71.832L41.286,71.880L41.269,71.920L41.230,71.941L41.184,71.942L41.137,71.938L40.857,71.966L40.800,71.986L40.765,71.869L40.741,71.644L40.679,71.526L40.767,71.417L40.758,71.306L40.708,71.195L40.679,71.089L40.738,71.018L40.876,70.999L41.025,71.010L41.374,71.100L41.484,71.080L41.531,70.965ZM31.715,69.860L31.752,69.989L31.745,70.071L31.635,70.237L31.557,70.105L31.585,70.017L31.659,69.935L31.715,69.822L31.715,69.860ZM41.325,69.694L41.513,69.815L41.585,70.017L41.649,70.486L41.581,70.434L41.435,70.349L41.111,70.212L41.042,70.154L41.076,70.082L41.056,70.014L40.941,69.882L40.942,69.842L41.018,69.716L41.042,69.656L41.103,69.684L41.162,69.689L41.270,69.681L41.325,69.694ZM56.291,58.077L56.442,58.064L56.538,58.219L56.551,58.439L56.453,58.619L56.453,58.661L56.537,58.661L56.486,58.741L56.471,58.800L56.493,58.955L56.453,58.955L56.413,58.922L56.367,58.823L56.335,58.785L56.279,58.759L56.089,58.702L56.136,58.636L56.163,58.607L56.173,58.574L56.170,58.498L56.153,58.441L56.094,58.305L56.089,58.246L56.206,57.807L56.238,57.761L56.291,57.790L56.316,57.857L56.330,57.925L56.325,57.998L56.291,58.077ZM55.317,56.040L55.358,56.082L55.420,56.194L55.510,56.300L55.575,56.401L55.563,56.500L55.482,56.537L55.384,56.475L55.196,56.285L55.177,56.356L55.189,56.426L55.178,56.479L55.095,56.500L55.018,56.491L54.792,56.417L54.792,56.455L54.809,56.476L54.836,56.538L54.800,56.508L54.765,56.486L54.725,56.470L54.671,56.455L54.671,56.417L54.693,56.335L54.693,55.957L54.637,55.896L54.469,55.501L54.550,55.501L54.526,55.459L54.501,55.425L54.469,55.397L54.429,55.373L54.528,55.376L54.687,55.419L54.792,55.414L54.981,55.551L55.054,55.626L55.119,55.708L55.190,55.866L55.240,55.948L55.317,56.003L55.317,56.040ZM28.509,71.944L28.389,71.841L28.411,71.724L28.520,71.653L28.659,71.688L28.684,71.726L28.688,71.775L28.676,71.824L28.656,71.862L28.610,71.865L28.552,71.841L28.509,71.850L28.509,71.944ZM30.986,74.500L31.049,74.543L31.119,74.660L31.096,74.783L31.019,74.924L30.880,75.273L30.827,75.265L30.777,75.148L30.764,75.022L30.792,74.893L30.793,74.731L30.772,74.545L30.823,74.448L30.932,74.470L30.986,74.500Z" fill="currentColor" stroke="currentColor" stroke-width="1.5" stroke-linejoin="round"/>
</svg>