<svg xmlns="http://www.w3.org/2000/svg" viewBox="0 0 100 100" role="img" aria-label="Tajikistan">
  <title>Tajikistan</title>
  <path d="M42.089,18.095L42.406,18.228L42.673,18.462L42.832,18.715L42.981,19.072L43.000,19.324L42.772,19.273L42.578,19.092L42.241,18.649L42.050,18.459L42.038,18.446L41.903,18.142L42.089,18.095ZM46.612,29.621L46.848,29.980L46.657,30.341L46.270,30.622L45.917,30.741L45.302,30.605L45.149,30.658L45.069,30.727L44.860,30.836L44.852,30.814L44.814,30.777L44.757,30.751L44.692,30.759L44.653,30.794L44.582,30.889L44.132,31.265L43.975,31.360L43.240,31.604L42.935,31.889L42.881,32.267L42.895,32.722L42.797,33.234L42.642,33.502L42.442,33.706L42.212,33.850L41.964,33.938L41.475,33.954L41.341,34.022L41.264,34.153L41.169,34.480L41.069,34.608L40.820,34.521L40.733,34.326L40.765,34.069L40.873,33.792L41.022,33.585L41.198,33.461L41.389,33.364L41.572,33.236L41.741,32.908L41.624,32.646L41.355,32.464L41.069,32.375L40.153,32.239L39.714,32.050L39.309,31.999L39.102,31.891L38.917,31.693L38.774,31.488L38.609,31.307L38.356,31.182L38.092,31.162L37.520,31.198L37.271,31.120L35.630,30.059L35.227,30.017L30.692,31.613L30.501,31.640L30.319,31.621L30.245,31.549L30.124,31.323L30.031,31.295L29.979,31.360L29.930,31.615L29.897,31.711L29.659,32.054L29.474,32.390L29.400,32.768L29.492,33.237L29.538,33.325L29.562,33.416L29.572,33.513L29.562,33.614L29.829,34.094L29.842,34.289L28.735,34.679L28.182,33.743L27.843,33.369L27.683,33.337L27.641,33.368L27.638,33.459L27.588,33.607L27.367,34.093L26.840,35.672L26.712,36.239L26.674,36.823L26.755,37.094L26.928,37.290L27.130,37.462L27.293,37.662L27.379,37.905L27.421,38.185L27.364,39.946L27.526,40.301L27.980,40.117L28.051,40.010L28.079,39.894L28.121,39.799L28.232,39.751L28.296,39.794L28.575,40.082L28.813,40.163L29.309,40.082L29.562,40.083L29.779,40.051L29.989,39.977L30.186,39.858L30.571,39.526L30.771,39.445L31.773,39.383L32.244,39.438L32.699,39.589L33.179,39.862L33.626,39.997L34.516,39.816L34.986,39.866L35.333,40.024L35.429,39.947L35.609,39.692L35.804,39.519L36.042,39.445L36.294,39.447L36.529,39.501L36.915,39.725L37.101,39.793L37.292,39.730L37.388,39.588L37.708,38.902L37.886,38.767L37.997,38.911L38.049,39.186L38.051,39.438L37.929,39.969L37.948,40.176L38.147,40.250L38.351,40.201L39.377,39.452L39.526,39.397L39.644,39.410L39.884,39.483L39.999,39.485L40.070,39.439L40.127,39.358L40.197,39.280L40.307,39.240L40.498,39.201L40.870,39.061L41.069,39.037L41.227,39.101L41.486,39.328L41.631,39.415L41.832,39.435L42.254,39.357L42.456,39.383L42.736,39.594L42.895,39.904L43.121,40.611L43.125,40.623L43.125,40.625L43.249,40.726L43.519,40.840L43.629,40.944L43.695,41.145L43.667,41.349L43.616,41.546L43.610,41.729L43.785,42.033L44.089,42.214L44.439,42.275L44.755,42.227L45.106,42.031L45.244,41.989L45.419,41.985L45.521,42.001L45.614,41.966L45.755,41.805L45.972,41.702L46.223,41.819L46.507,41.999L46.821,42.085L47.191,41.897L47.401,41.490L47.571,41.007L47.808,40.597L48.188,40.350L48.666,40.220L49.155,40.192L49.810,40.318L49.952,40.320L50.077,40.227L50.444,39.809L50.604,39.688L51.003,39.473L51.087,39.406L51.245,39.239L51.325,39.180L51.437,39.141L51.764,39.082L52.161,38.897L52.372,38.876L52.757,39.110L52.949,39.276L52.963,39.289L53.130,39.510L53.199,39.748L53.137,39.969L52.844,40.396L52.747,40.626L52.986,41.141L53.463,41.358L54.020,41.384L55.192,41.138L55.420,41.132L55.602,41.296L55.705,41.633L55.735,42.015L55.692,42.312L55.560,42.534L55.406,42.690L55.288,42.874L55.264,43.178L55.350,43.472L55.518,43.708L55.728,43.868L55.949,43.938L56.370,43.889L56.790,43.709L57.927,42.911L58.121,42.810L58.550,42.721L58.953,42.502L59.164,42.470L59.361,42.624L59.490,42.947L59.559,43.322L59.578,43.634L59.681,43.856L59.920,43.959L60.416,44.040L60.514,44.097L60.690,44.236L60.930,44.362L60.966,44.454L60.967,44.568L60.998,44.710L61.106,44.952L61.222,45.121L61.225,45.125L61.356,45.115L61.829,44.083L62.092,43.287L62.231,43.062L62.436,42.988L62.686,42.954L63.116,42.737L63.317,42.729L63.695,42.826L63.889,42.836L64.077,42.806L64.437,42.424L64.563,42.369L64.737,42.419L65.028,42.608L65.216,42.611L65.346,42.529L65.566,42.254L65.683,42.152L65.883,42.091L66.076,42.102L68.202,42.657L68.377,42.650L68.874,42.544L69.112,42.561L69.830,42.716L70.033,42.781L70.205,42.770L70.770,42.471L70.916,42.443L71.058,42.485L71.260,42.584L71.663,42.698L72.029,42.670L73.197,42.268L73.854,42.145L73.933,41.994L73.958,41.786L74.046,41.557L74.328,41.363L75.585,41.053L75.992,41.014L77.052,41.129L77.377,41.296L77.369,41.584L77.492,42.427L77.506,42.730L77.477,42.967L77.118,43.998L77.028,44.437L77.092,44.857L77.363,45.333L77.851,45.813L77.957,46.018L78.059,46.525L78.131,46.762L78.260,46.953L78.943,47.479L79.322,47.900L79.487,48.013L79.604,48.262L79.638,48.510L79.579,48.735L79.413,48.916L79.164,48.999L78.612,49.001L78.350,49.124L78.186,49.295L78.026,49.530L77.932,49.798L77.965,50.065L78.104,50.284L78.439,50.661L78.566,50.870L78.601,51.156L78.529,51.805L78.571,52.034L78.984,52.729L79.063,52.942L79.172,53.557L79.273,53.790L79.492,54.030L79.689,54.158L80.106,54.323L80.305,54.437L80.653,54.762L80.832,54.871L81.937,54.907L82.129,54.860L82.281,54.615L82.189,54.384L82.043,54.139L82.033,53.854L82.121,53.781L82.576,53.625L82.657,53.530L82.673,53.407L82.671,53.275L82.698,53.156L82.860,52.911L83.024,52.805L83.220,52.809L83.929,53.059L84.153,53.097L84.410,53.090L85.211,52.809L85.450,52.842L87.089,53.654L89.039,54.407L89.249,54.585L89.425,54.794L89.619,54.955L89.879,54.991L90.143,54.969L90.354,55.014L90.538,55.152L90.720,55.398L90.721,55.400L90.824,55.563L90.908,55.640L91.111,55.758L91.188,55.847L91.222,55.972L91.237,56.111L91.320,56.532L91.318,56.820L91.250,57.091L91.117,57.331L90.629,57.886L90.520,58.123L90.477,58.390L90.480,59.798L90.703,61.495L90.924,61.912L91.735,62.378L91.878,62.787L91.832,63.719L91.859,64.113L91.854,64.210L91.891,64.290L92.021,64.369L92.118,64.459L92.095,64.564L91.898,64.884L91.815,64.931L91.768,65.005L91.801,65.202L91.859,65.313L91.942,65.394L92.528,65.723L92.668,65.868L92.711,66.134L92.671,66.273L92.587,66.426L92.405,66.676L92.328,66.813L92.292,66.948L92.271,67.078L92.233,67.200L92.086,67.423L91.927,67.611L91.801,67.819L91.756,68.100L91.867,68.621L92.134,69.042L92.481,69.369L93.524,69.992L93.726,70.178L94.308,70.964L94.636,71.291L95.000,71.555L94.437,71.745L94.168,71.883L94.027,72.137L93.999,72.684L93.899,72.863L92.828,73.274L92.554,73.319L92.340,73.449L92.234,73.704L92.107,73.944L91.872,74.060L91.531,73.861L91.004,72.940L90.678,72.582L89.204,71.654L88.871,71.844L87.701,71.923L87.602,71.925L87.504,71.901L87.089,71.770L86.838,71.659L86.620,71.678L86.418,71.724L86.085,71.662L85.956,71.657L85.841,71.618L85.674,71.329L85.561,71.254L85.430,71.264L85.297,71.359L85.236,71.167L85.101,71.562L84.820,71.601L84.486,71.510L84.181,71.515L83.995,71.714L83.976,72.220L83.764,72.475L83.483,72.598L82.205,72.861L81.337,73.186L81.094,73.238L80.446,73.552L79.952,73.610L79.720,73.681L79.283,74.098L79.119,74.137L78.943,74.093L78.683,74.069L78.569,74.111L78.382,74.261L78.259,74.269L78.180,74.207L78.015,73.975L77.928,73.893L77.691,73.873L77.205,74.030L77.021,73.916L76.971,73.607L77.116,73.317L77.358,73.101L77.600,73.012L78.042,72.965L78.210,72.880L78.409,72.710L78.602,72.476L78.679,72.261L78.681,71.640L78.694,71.518L78.768,71.145L78.357,71.094L77.859,71.106L77.060,70.888L75.682,70.368L75.168,70.383L74.452,70.788L74.262,70.731L74.068,70.612L73.794,70.574L73.508,70.605L73.275,70.686L73.093,70.825L72.531,71.442L72.406,71.503L72.158,71.406L72.057,71.442L71.618,71.795L71.437,72.022L71.240,72.453L71.108,72.657L70.875,72.820L70.047,72.905L69.226,73.414L68.973,73.725L68.688,73.827L68.148,73.932L67.690,74.221L67.347,74.705L66.811,75.850L66.332,76.624L66.261,76.909L66.159,77.049L64.444,77.312L64.057,77.513L63.262,77.362L62.745,77.471L61.580,77.959L61.126,78.280L61.012,78.412L60.846,78.673L60.741,78.785L60.350,79.017L60.049,79.356L56.710,81.921L56.262,82.114L55.697,82.224L55.138,82.224L54.598,82.100L54.115,81.837L53.728,81.417L53.573,81.160L53.446,80.880L53.359,80.579L53.281,79.897L53.165,79.601L52.512,78.509L52.412,78.243L52.377,77.922L52.377,77.317L52.336,77.142L52.138,76.824L52.069,76.666L52.045,76.485L52.069,75.594L52.159,74.986L52.226,74.762L52.305,74.629L52.264,74.274L52.688,73.529L52.698,73.116L52.767,72.931L52.798,72.621L52.776,71.998L52.690,71.430L52.725,71.219L52.855,70.888L52.967,70.295L52.805,69.103L52.855,68.456L52.896,68.373L53.036,68.177L53.091,68.053L53.122,67.904L53.177,67.448L53.308,66.988L53.327,66.842L53.301,66.680L53.196,66.367L53.177,66.228L53.272,65.963L53.697,65.683L53.876,65.421L53.922,65.155L53.931,64.803L53.912,64.481L53.876,64.302L53.962,64.200L53.612,63.761L53.264,63.519L52.851,63.493L51.447,63.985L51.238,64.146L51.010,64.275L50.764,64.167L50.327,63.806L50.205,63.789L50.117,63.816L50.056,63.785L50.013,63.595L50.027,63.439L50.144,63.104L50.221,62.728L50.564,62.073L50.721,61.467L50.934,61.048L51.007,60.616L51.216,59.978L51.278,59.642L51.205,58.985L50.932,58.551L50.538,58.284L49.589,57.883L48.879,57.139L48.435,56.807L48.113,56.642L47.970,56.607L47.831,56.613L47.742,56.654L47.657,56.659L47.538,56.561L47.463,56.438L47.367,56.168L47.299,56.051L47.183,55.922L47.064,55.817L46.932,55.739L46.785,55.699L46.517,55.708L46.433,55.813L46.471,56.148L46.350,56.300L46.074,56.231L45.600,56.001L45.465,56.024L45.399,56.087L45.356,56.154L45.278,56.194L45.175,56.187L44.990,56.122L44.885,56.102L44.521,56.101L44.335,56.144L44.256,56.248L44.113,56.500L43.440,56.572L43.228,56.707L43.228,56.807L43.457,56.985L43.364,57.158L42.957,57.464L42.851,57.524L42.588,57.508L42.481,57.570L42.433,57.701L42.430,57.854L42.443,58.005L42.442,58.129L42.286,58.633L42.171,58.693L42.014,58.735L41.874,58.817L41.767,59.180L41.429,59.854L41.130,60.668L40.989,60.917L40.871,61.039L40.479,61.211L40.357,61.301L39.848,61.837L39.332,62.532L39.236,62.605L39.013,62.726L38.958,62.756L38.899,62.834L38.842,62.966L38.715,63.021L38.579,63.046L38.499,63.091L38.459,63.228L38.456,63.354L38.496,63.475L38.587,63.595L38.317,63.698L38.048,63.743L37.789,63.690L37.558,63.495L37.424,63.871L37.478,64.325L37.639,64.755L37.833,65.064L37.965,65.127L38.343,65.246L38.421,65.370L38.452,65.582L38.529,65.775L38.633,65.931L38.743,66.035L38.679,66.206L38.704,66.412L38.821,66.842L38.835,67.060L38.805,67.190L38.765,67.309L38.743,67.494L38.599,67.709L38.543,67.751L38.495,67.803L38.499,67.921L38.514,68.055L38.499,68.154L38.434,68.264L38.409,68.295L38.350,68.356L38.312,68.341L38.091,68.351L38.068,68.356L37.901,68.787L37.872,68.915L37.795,68.963L37.394,69.475L37.063,69.610L36.717,69.546L36.373,69.419L36.057,69.365L36.130,69.475L35.772,69.407L35.665,69.365L35.625,69.328L35.560,69.265L35.516,69.167L35.456,69.092L35.308,69.062L35.064,68.971L34.939,68.761L34.832,68.525L34.643,68.356L34.372,68.341L33.889,68.591L33.655,68.658L33.541,68.713L33.422,68.818L33.302,68.882L33.182,68.814L33.097,68.751L32.841,68.671L32.750,68.658L32.465,68.696L31.979,68.911L31.722,68.961L30.154,68.816L29.923,68.920L29.725,69.540L29.476,69.789L28.965,70.172L28.924,70.242L28.852,70.419L28.808,70.493L28.719,70.576L28.554,70.696L28.495,70.777L28.424,71.012L28.401,71.286L28.409,71.850L28.431,71.903L28.539,71.932L28.572,71.998L28.568,72.077L28.541,72.100L28.510,72.109L28.495,72.153L28.499,72.290L28.517,72.429L28.552,72.556L28.611,72.657L28.709,72.877L28.785,73.386L28.879,73.520L28.786,73.845L28.982,73.937L29.193,73.982L29.158,74.171L28.762,74.853L28.572,75.042L28.107,75.345L27.922,75.568L27.798,75.687L27.661,75.739L27.622,75.748L27.357,75.807L27.129,75.918L26.897,75.940L25.808,75.184L25.747,75.156L25.493,74.975L25.386,74.853L25.180,74.327L24.973,74.148L24.710,73.972L24.482,73.758L24.312,73.220L24.133,72.961L23.900,72.741L23.673,72.612L22.887,72.511L22.847,72.493L22.780,72.479L22.748,72.528L22.808,72.703L22.882,72.799L23.069,72.942L23.123,73.006L23.163,73.220L23.102,73.352L22.974,73.387L22.808,73.309L22.655,73.100L22.552,72.863L22.422,72.674L22.181,72.612L21.928,72.696L21.886,72.864L22.023,73.309L22.052,73.624L22.004,73.768L21.867,73.757L21.439,73.475L21.304,73.408L21.154,73.394L20.917,73.419L20.468,73.352L20.260,73.363L20.130,73.520L20.189,73.578L20.221,73.642L20.287,73.823L20.027,73.864L19.887,74.078L19.822,74.316L19.777,74.427L19.569,74.460L19.139,74.598L18.909,74.629L18.853,74.694L18.694,74.978L18.592,75.042L18.470,75.052L17.923,75.180L17.209,75.235L17.374,75.580L17.298,75.800L17.073,75.917L16.773,75.950L16.546,75.896L16.322,75.805L16.099,75.788L15.881,75.950L15.794,76.195L15.804,76.493L15.881,77.115L15.760,77.327L15.483,77.324L15.009,77.161L14.709,77.205L14.496,77.385L14.313,77.582L14.098,77.674L13.957,77.767L13.196,78.441L13.078,78.521L12.940,78.580L12.849,78.576L12.796,78.574L12.692,78.497L12.633,78.382L12.587,78.251L12.520,78.129L12.124,77.624L12.022,77.531L11.750,77.383L11.625,77.271L11.442,76.967L11.320,76.707L11.161,76.523L10.641,76.395L10.355,76.245L10.094,76.049L9.952,75.850L9.940,75.629L10.038,74.684L10.091,74.467L10.308,74.026L10.440,73.525L10.500,72.993L10.460,72.371L10.232,71.203L10.276,70.583L10.598,69.674L11.089,68.804L11.682,68.036L12.303,67.431L13.141,66.239L13.480,65.561L13.970,64.053L14.174,63.840L14.533,63.717L15.069,63.643L15.245,63.588L15.302,63.545L15.426,63.453L15.512,63.266L15.564,63.041L15.650,62.789L15.652,62.788L15.653,62.787L15.653,62.785L15.654,62.784L15.792,62.503L16.240,61.808L16.526,60.992L16.714,60.126L16.663,59.556L16.384,59.107L15.471,58.284L14.874,57.944L14.678,57.741L14.252,56.954L13.801,56.517L13.692,56.308L13.652,56.093L13.629,55.623L13.563,55.398L13.284,54.969L13.198,54.773L13.168,54.449L13.207,53.599L13.182,53.301L13.028,52.748L12.997,52.478L13.087,52.255L13.378,52.048L13.437,51.957L13.446,51.791L13.394,51.654L13.327,51.523L13.292,51.374L13.331,51.054L13.460,50.974L13.664,50.981L13.933,50.925L14.128,50.810L14.304,50.653L14.447,50.453L14.549,50.207L14.562,49.882L14.448,49.584L14.329,49.408L14.113,49.089L13.725,48.227L13.549,48.013L13.547,48.013L13.545,48.010L13.542,48.010L13.453,47.987L13.359,47.979L13.265,47.987L13.174,48.010L12.983,48.152L12.791,48.221L12.602,48.185L12.425,48.013L12.335,47.960L12.141,47.893L11.976,47.891L11.814,47.935L11.660,48.012L11.658,48.012L11.656,48.013L10.783,48.309L10.474,48.314L9.002,48.075L8.804,47.877L8.792,47.865L8.791,47.862L8.734,47.502L8.865,46.356L8.844,46.153L8.842,46.150L8.738,45.974L8.665,45.950L8.473,45.991L8.395,45.977L8.331,45.908L8.239,45.743L8.189,45.686L7.735,45.503L6.799,45.468L5.409,44.973L5.085,44.673L5.085,44.669L5.000,44.085L5.020,43.875L5.043,43.771L5.098,43.706L5.206,43.610L5.329,43.569L5.432,43.601L5.508,43.574L5.595,43.083L5.741,42.586L5.753,42.041L5.830,41.447L5.973,40.878L6.079,40.744L6.254,40.722L6.550,40.763L6.607,40.750L6.661,40.722L6.708,40.679L6.748,40.625L6.668,39.971L6.896,39.750L7.816,39.607L8.887,38.846L9.314,38.709L9.854,38.721L13.786,39.733L15.508,39.785L16.448,40.120L17.012,40.160L17.584,40.107L18.291,39.920L18.518,39.817L18.516,39.812L18.434,39.625L18.394,39.534L18.550,39.313L19.041,39.002L19.318,38.712L19.472,38.421L19.535,38.066L19.650,35.684L19.769,35.366L19.902,35.376L20.056,35.439L20.447,35.094L20.636,35.236L20.943,35.730L21.097,35.809L21.175,35.713L21.200,35.566L21.201,35.492L21.198,35.472L21.280,35.249L21.320,35.226L21.440,35.205L21.484,35.175L21.624,34.892L21.627,34.684L21.369,34.142L21.258,33.823L21.217,33.546L21.296,33.431L21.536,33.595L21.770,34.102L21.946,34.741L22.209,35.144L22.699,34.942L22.660,34.613L21.647,33.233L21.590,33.084L21.572,32.945L21.597,32.642L21.558,32.530L21.353,32.368L21.329,32.235L21.478,31.963L21.659,32.107L21.920,32.569L22.069,32.522L22.477,32.171L22.710,32.097L23.547,32.227L23.809,32.185L23.903,32.004L23.921,31.789L23.884,31.562L23.809,31.356L23.272,30.974L20.579,31.493L20.469,31.514L20.063,31.359L19.548,31.041L19.250,30.717L19.491,30.551L19.959,30.429L20.599,30.263L20.855,30.240L21.521,30.354L21.791,30.319L22.191,30.093L22.420,30.000L24.292,29.714L24.554,29.757L24.918,29.938L25.313,30.134L26.348,30.440L26.921,30.458L27.353,30.263L27.353,29.913L26.516,29.172L26.468,28.735L26.770,28.698L27.213,28.865L27.584,28.802L27.669,28.078L27.595,27.750L27.471,27.470L27.171,26.940L27.059,26.677L26.813,25.844L26.812,25.844L26.349,25.078L26.354,24.772L26.766,24.495L27.465,24.438L27.630,24.339L27.677,24.139L27.598,23.353L27.605,22.810L27.686,22.367L27.863,21.982L28.156,21.612L28.320,21.479L28.503,21.379L28.877,21.260L29.086,21.282L29.239,21.404L29.383,21.554L29.562,21.661L29.930,21.696L30.190,21.934L30.639,22.616L30.774,22.735L31.065,22.921L31.192,23.071L31.402,23.421L31.521,23.576L31.666,23.705L32.021,23.834L32.329,23.741L32.603,23.502L33.086,22.904L33.314,22.717L33.567,22.593L35.688,21.942L36.777,21.125L37.971,20.663L38.804,20.174L39.442,19.446L39.760,17.887L40.193,17.776L40.706,17.984L40.847,18.134L41.069,18.369L41.098,18.419L41.134,18.462L41.497,18.772L43.596,21.082L43.691,21.212L43.668,21.486L43.442,21.403L43.042,21.063L42.812,21.088L42.704,21.275L42.732,21.529L42.912,21.757L43.964,21.995L44.405,22.244L44.305,22.742L44.280,22.865L44.278,22.872L44.100,22.982L44.060,23.043L44.041,23.112L44.001,23.169L43.812,23.211L43.715,23.258L43.551,23.385L43.378,23.540L42.679,24.101L42.275,24.591L42.128,24.714L41.955,24.794L41.785,24.841L41.624,24.911L41.468,25.064L41.191,25.525L41.075,25.674L40.965,25.718L40.173,25.900L39.831,26.117L39.649,26.403L39.667,26.714L39.686,26.784L39.706,26.823L39.857,27.041L39.851,27.036L39.876,27.059L39.974,27.175L40.007,27.237L39.851,27.751L40.424,28.002L40.665,28.070L40.918,28.048L41.134,27.983L41.353,27.960L41.607,28.064L41.913,28.556L42.066,29.240L42.272,29.867L42.736,30.195L43.221,30.225L43.715,30.186L45.355,29.689L46.375,29.598L46.612,29.621ZM41.316,34.889L42.710,35.350L43.114,35.364L43.478,35.200L43.620,35.236L43.706,35.508L43.687,35.773L43.569,35.880L43.190,35.954L42.861,36.122L42.270,36.593L42.204,36.541L41.875,35.986L41.761,35.843L41.371,35.575L41.217,35.358L41.130,35.113L41.144,34.884L41.316,34.889Z" fill="currentColor" stroke="currentColor" stroke-width="1" stroke-linejoin="round"/>
</svg>