<svg xmlns="http://www.w3.org/2000/svg" viewBox="0 0 100 100" role="img" aria-label="Turkmenistan">
  <title>Turkmenistan</title>
  <path d="M60.946,77.271L60.792,77.020L60.705,76.836L60.689,76.619L60.714,76.570L60.800,76.481L60.819,76.424L60.815,76.280L60.819,76.234L60.861,76.041L60.860,75.961L60.819,75.901L60.860,75.718L60.856,75.586L60.833,75.463L60.804,75.172L60.764,75.028L60.708,74.891L60.642,74.778L60.541,74.648L60.430,74.541L60.302,74.470L60.147,74.444L60.060,74.403L60.133,74.307L60.262,74.196L60.339,74.110L60.343,74.034L60.321,73.870L60.339,73.772L60.379,73.733L60.439,73.709L60.493,73.668L60.517,73.580L60.519,73.505L60.530,73.425L60.550,73.353L60.582,73.297L60.648,73.206L60.661,73.155L60.650,73.114L60.634,72.868L60.539,72.362L60.447,72.203L60.426,72.124L60.423,71.935L60.412,71.850L60.386,71.764L60.360,71.716L60.321,71.667L60.271,71.625L60.210,71.597L60.227,71.541L60.237,71.518L60.257,71.486L60.166,71.253L60.203,70.853L60.339,70.197L60.301,70.075L60.291,69.977L60.318,69.891L60.358,69.829L60.392,69.750L60.417,69.659L60.426,69.559L60.415,69.457L60.392,69.382L60.339,69.256L60.288,68.979L60.030,68.943L59.715,68.886L59.066,68.897L58.315,68.911L56.964,68.937L56.078,68.953L55.071,68.972L54.862,68.852L54.731,68.615L54.547,68.115L54.414,67.892L53.743,67.048L53.450,66.586L53.212,66.065L53.025,65.806L52.786,65.700L52.266,65.604L52.034,65.464L51.618,65.102L50.706,64.797L50.639,64.792L50.579,64.825L50.505,64.945L50.461,64.994L50.401,65.007L50.316,64.938L50.272,64.803L50.242,64.649L50.196,64.522L50.090,64.405L49.997,64.388L49.796,64.470L49.743,64.467L49.690,64.439L49.639,64.397L49.597,64.353L49.493,64.325L49.475,64.267L49.494,64.199L49.502,64.145L49.511,64.122L49.534,64.095L49.542,64.055L49.504,64.000L49.385,63.864L48.988,63.526L48.914,63.414L48.790,62.852L48.775,62.682L48.796,62.591L48.835,62.511L48.861,62.438L48.844,62.370L48.806,62.281L48.825,62.101L48.796,61.993L48.674,61.820L48.547,61.696L48.401,61.656L48.045,61.823L47.910,61.810L47.064,61.187L46.857,60.968L46.787,60.928L46.603,60.900L46.519,60.872L46.430,60.806L46.180,60.689L45.688,60.573L45.309,60.357L45.274,60.413L45.258,60.535L45.174,60.642L45.107,60.665L45.042,60.671L44.907,60.644L44.835,60.644L44.790,60.682L44.750,60.730L44.695,60.764L44.552,60.780L44.409,60.758L44.135,60.643L43.817,60.355L43.714,60.301L43.590,60.310L43.492,60.383L43.416,60.498L43.358,60.634L43.272,60.769L43.162,60.823L42.589,60.881L42.501,60.857L42.334,60.735L42.254,60.696L41.760,60.620L41.652,60.578L41.544,60.487L41.513,60.394L41.513,60.281L41.496,60.133L41.474,60.072L41.374,59.881L41.369,59.818L41.382,59.760L41.382,59.704L41.333,59.648L41.227,59.595L41.124,59.571L40.911,59.552L40.493,59.452L39.500,58.966L39.281,58.906L39.178,58.914L39.071,58.939L38.967,58.948L38.872,58.907L38.835,58.857L38.777,58.734L38.733,58.689L38.681,58.676L38.577,58.700L38.554,58.698L38.523,58.695L38.442,58.643L38.363,58.572L38.278,58.519L38.182,58.517L38.087,58.542L37.778,58.549L37.456,58.454L37.350,58.440L37.242,58.457L37.143,58.488L37.043,58.502L36.132,58.134L35.971,57.917L36.097,57.487L36.112,57.351L36.081,57.209L35.945,57.013L35.872,56.769L35.664,56.542L35.590,56.428L35.476,56.146L35.330,55.895L35.303,55.823L35.300,55.763L35.283,55.710L35.213,55.664L35.077,55.617L35.008,55.608L34.938,55.617L34.828,55.671L34.773,55.732L34.754,55.753L34.626,55.978L34.551,56.061L34.346,56.199L34.258,56.279L34.143,56.343L34.014,56.323L33.763,56.218L32.809,56.037L32.711,56.004L32.494,55.877L32.246,55.673L32.185,55.661L31.882,55.713L31.374,55.940L31.272,55.958L31.187,55.918L31.107,55.854L31.019,55.799L30.911,55.772L30.330,55.791L30.100,55.880L29.886,56.032L29.487,56.407L29.447,56.519L29.619,56.719L29.649,56.861L29.627,57.012L29.563,57.140L29.464,57.216L28.921,57.308L28.818,57.294L28.621,57.211L28.591,57.198L28.335,57.165L27.429,57.332L27.331,57.327L27.243,57.298L27.070,57.206L26.964,57.172L26.641,57.169L26.548,57.137L26.301,56.991L25.908,56.903L25.720,56.903L24.467,57.170L24.065,57.188L23.911,57.251L23.440,57.621L23.309,57.689L23.178,57.798L23.106,57.808L22.818,57.907L22.680,57.985L22.623,58.114L22.545,58.145L22.179,58.216L22.056,58.258L22.002,58.320L21.933,58.468L21.887,58.531L21.819,58.557L21.730,58.572L21.653,58.615L21.620,58.726L21.570,58.811L21.274,59.148L20.323,59.815L20.133,60.026L20.050,60.162L20.016,60.290L19.987,60.452L19.883,60.706L19.890,60.877L19.912,60.921L19.987,60.990L20.016,61.044L20.023,61.101L20.016,61.297L19.996,61.413L19.910,61.617L19.890,61.742L19.860,61.801L19.700,61.938L19.399,62.141L19.320,62.217L19.195,62.269L19.039,62.440L18.944,62.486L18.804,62.488L18.418,62.402L18.275,62.425L17.203,63.061L16.977,63.138L16.837,63.139L16.691,63.119L16.553,63.125L16.436,63.206L16.319,63.322L16.204,63.372L16.078,63.379L14.350,63.224L14.350,63.222L14.261,62.200L14.199,61.877L14.080,61.553L14.043,61.395L14.013,61.036L13.787,59.948L13.675,57.609L13.695,57.475L13.781,57.205L13.846,56.808L14.003,56.187L13.978,55.965L14.051,55.710L14.061,55.360L14.029,54.762L14.019,54.697L13.962,54.584L13.935,54.509L13.918,54.429L13.905,54.263L13.809,53.767L13.801,53.588L13.858,52.931L13.930,52.604L14.029,52.334L14.325,51.859L14.434,51.566L14.371,51.323L14.466,51.245L14.515,51.099L14.552,50.934L14.609,50.800L14.678,50.684L14.754,50.523L14.787,50.407L14.725,50.428L14.715,50.258L14.631,50.174L14.410,50.094L14.408,50.080L14.382,50.009L14.371,49.988L14.341,49.969L14.261,49.944L14.242,49.933L14.211,49.881L14.182,49.815L14.162,49.738L14.151,49.649L14.079,49.491L14.008,49.435L13.761,49.427L13.608,49.383L13.550,49.376L13.483,49.404L13.453,49.453L13.422,49.470L13.353,49.402L13.299,49.279L13.174,48.896L13.135,48.815L13.073,48.872L13.092,49.001L13.149,49.135L13.199,49.210L13.199,49.260L13.097,49.206L13.006,49.083L12.962,48.931L13.030,48.710L12.979,48.562L12.983,48.481L13.021,48.430L13.199,48.315L13.011,48.296L13.010,48.124L13.152,47.753L13.021,47.826L12.846,47.961L12.743,48.090L12.832,48.147L12.893,49.043L12.820,48.919L12.662,48.712L12.591,48.593L12.561,48.446L12.554,48.282L12.511,48.161L12.374,48.147L12.407,48.045L12.428,47.914L12.417,47.801L12.352,47.753L12.317,47.807L12.215,48.065L12.158,48.147L12.134,47.957L12.164,47.716L12.288,47.252L12.114,47.420L12.219,47.142L12.244,47.030L12.201,47.051L12.071,47.085L12.141,46.910L12.122,46.844L12.045,46.884L11.941,47.030L11.895,46.970L11.823,47.012L11.548,47.030L11.428,47.131L11.371,47.125L11.375,46.970L11.332,46.970L11.284,47.051L11.215,47.131L11.128,47.186L11.029,47.192L11.060,47.139L11.116,46.970L11.072,46.967L10.982,46.976L10.939,46.970L10.930,46.980L10.877,47.021L10.852,47.030L10.833,47.012L10.789,46.934L10.766,46.919L10.682,46.948L10.520,47.028L10.420,47.030L10.420,46.970L10.459,46.910L10.443,46.879L10.388,46.866L10.311,46.863L10.238,46.848L10.143,46.775L10.074,46.752L9.946,46.758L9.640,46.851L9.512,46.919L9.739,47.063L9.815,47.085L9.699,47.268L9.658,47.373L9.641,47.505L9.652,47.641L9.728,47.980L9.712,48.180L9.651,48.276L9.585,48.259L9.429,47.104L9.389,47.005L9.124,46.600L9.102,46.460L9.162,46.302L9.221,46.224L9.403,46.051L9.433,45.975L9.454,45.872L9.483,45.780L9.611,45.675L9.691,45.521L9.921,44.887L10.093,44.538L10.310,44.306L10.549,44.355L10.416,44.428L10.319,44.515L10.136,44.770L10.110,44.837L10.052,45.073L10.034,45.099L9.900,45.240L9.936,45.445L10.171,45.476L10.865,45.339L11.265,45.356L11.392,45.400L11.468,45.504L11.524,45.630L11.592,45.741L11.680,45.805L11.787,45.840L12.049,45.856L12.159,45.912L12.218,45.911L12.244,45.829L12.240,45.747L12.220,45.687L12.181,45.650L12.114,45.634L12.196,45.427L12.275,45.454L12.359,45.586L12.460,45.690L12.581,45.687L12.765,45.508L12.893,45.468L12.951,45.490L13.097,45.573L13.152,45.579L13.225,45.503L13.206,45.421L13.139,45.347L13.070,45.295L12.928,45.238L12.661,45.174L12.547,45.073L12.649,45.039L12.709,44.980L12.714,44.892L12.657,44.770L12.572,44.685L12.487,44.667L12.183,44.701L12.161,44.650L12.158,44.489L12.138,44.405L12.087,44.309L12.018,44.224L11.941,44.178L11.981,44.457L11.981,44.572L11.941,44.572L11.711,44.211L11.546,44.049L11.375,44.011L11.398,44.058L11.462,44.239L11.423,44.210L11.323,44.155L11.285,44.128L11.289,44.283L11.408,44.438L11.418,44.572L11.202,44.427L11.177,44.136L11.285,43.510L11.211,43.552L11.132,43.565L11.054,43.551L10.982,43.510L10.982,43.455L11.192,43.351L11.524,42.890L11.725,42.671L11.690,42.629L11.655,42.544L11.634,42.509L11.690,42.477L11.746,42.459L11.873,42.449L11.964,42.420L11.963,42.360L11.924,42.303L11.895,42.287L11.965,42.187L12.063,42.095L12.154,41.987L12.201,41.837L12.167,41.856L12.150,41.862L12.136,41.869L12.114,41.892L12.006,41.785L11.912,41.763L11.678,41.781L11.571,41.745L11.425,41.612L11.332,41.554L11.220,41.522L11.109,41.520L11.002,41.550L10.899,41.614L10.632,41.912L10.528,41.953L10.498,41.971L10.399,42.047L10.353,42.064L10.303,42.047L10.191,41.971L10.136,41.953L10.067,41.920L9.654,41.596L9.546,41.637L9.451,41.730L9.359,41.781L8.901,41.837L8.937,41.762L8.974,41.705L9.021,41.658L9.080,41.614L8.641,41.755L8.403,41.785L8.205,41.725L8.103,41.484L8.015,41.399L7.903,41.503L7.902,41.589L7.948,41.698L8.055,41.864L8.078,41.962L8.120,42.423L8.157,42.491L8.337,42.730L8.403,42.782L8.641,43.227L8.839,43.411L8.901,43.455L8.901,43.510L8.599,43.344L8.685,43.406L8.859,43.626L8.816,43.677L8.613,43.479L8.530,43.366L8.349,42.936L8.262,42.826L8.037,42.729L7.962,42.597L7.919,42.427L7.883,42.111L7.828,42.024L7.218,41.540L6.999,41.315L6.905,41.139L6.954,40.785L7.002,40.589L7.054,40.469L7.094,40.322L7.030,40.170L6.858,39.941L6.937,39.868L6.908,39.788L6.774,39.657L6.655,39.344L6.674,39.030L6.893,37.628L6.980,37.358L7.121,37.089L7.501,36.569L7.695,36.214L7.727,35.920L7.670,35.872L7.505,35.833L7.470,35.779L7.484,35.704L7.533,35.554L7.531,35.526L7.501,35.501L7.582,35.452L7.685,35.412L7.727,35.420L7.741,35.342L7.731,35.255L7.708,35.179L7.688,35.136L7.837,34.525L8.076,33.908L8.127,33.627L8.036,33.062L8.033,32.735L8.101,32.784L8.254,32.868L8.316,32.932L8.344,33.026L8.328,33.121L8.301,33.212L8.297,33.296L8.362,33.453L8.638,33.797L8.688,33.934L8.763,34.245L8.816,34.358L9.018,34.496L9.034,34.525L9.194,34.527L9.267,34.511L9.334,34.469L9.235,34.583L9.081,34.638L8.972,34.700L9.011,34.831L9.056,34.877L9.157,34.957L9.209,35.026L9.222,35.099L9.222,35.191L9.243,35.270L9.315,35.304L9.596,35.326L9.717,35.315L9.858,35.253L10.144,34.955L10.246,34.919L10.142,35.136L10.113,35.262L10.184,35.311L10.658,35.253L10.713,35.214L10.723,35.123L10.723,35.020L10.744,34.945L10.837,34.815L10.906,34.771L10.982,34.803L10.989,34.849L10.944,35.000L10.939,35.076L10.993,35.235L11.088,35.361L11.212,35.445L11.353,35.476L11.393,35.493L11.484,35.572L11.548,35.587L11.622,35.571L11.678,35.540L11.764,35.476L11.993,35.370L12.080,35.274L12.114,35.107L12.104,34.758L12.127,34.626L12.283,34.312L12.317,34.297L12.397,34.297L12.456,34.312L12.519,34.349L12.569,34.396L12.591,34.438L12.609,34.471L12.697,34.505L12.724,34.525L12.727,34.577L12.708,34.627L12.685,34.668L12.677,34.692L12.712,34.863L12.745,34.926L12.810,34.970L12.756,35.085L12.722,35.141L12.677,35.192L12.749,35.333L12.847,35.662L12.940,35.809L13.004,35.847L13.067,35.859L13.120,35.886L13.152,35.971L13.136,36.030L13.047,36.207L13.026,36.279L13.129,36.478L13.373,36.478L13.660,36.421L14.026,36.474L14.131,36.378L14.230,36.255L14.502,36.104L14.566,36.087L14.629,36.100L14.804,36.194L14.965,36.216L15.090,36.175L15.207,36.117L15.405,36.067L15.455,36.018L15.487,35.953L15.500,35.890L15.464,35.881L15.297,35.803L15.240,35.748L15.606,35.763L15.792,35.735L15.980,35.631L16.367,35.642L16.385,35.663L16.356,35.715L16.295,35.910L16.274,35.952L16.301,35.978L16.497,36.063L17.453,36.087L17.329,36.013L17.194,35.971L17.273,35.865L17.524,35.801L17.623,35.698L16.994,35.708L16.912,35.696L16.864,35.623L16.848,35.448L16.821,35.302L16.702,35.079L16.661,34.865L16.599,34.733L16.584,34.664L16.596,34.609L16.619,34.570L16.636,34.529L16.628,34.469L16.588,34.454L16.525,34.462L16.469,34.447L16.454,34.358L16.480,34.320L16.528,34.313L16.582,34.314L16.628,34.297L16.790,34.112L16.876,34.048L16.998,34.024L17.180,34.104L17.564,34.407L17.670,34.408L17.847,34.521L17.866,34.637L17.787,34.767L17.670,34.919L17.905,34.977L18.638,34.840L18.851,34.761L18.950,34.742L19.062,34.553L19.328,34.413L19.387,34.365L19.626,33.977L19.685,33.849L19.711,33.713L19.686,33.578L19.627,33.464L19.470,33.266L19.268,32.946L19.191,32.902L19.191,32.851L19.334,32.872L19.485,32.946L19.758,33.129L19.716,33.058L19.590,32.957L19.537,32.902L19.482,32.819L19.458,32.773L19.447,32.735L19.457,32.679L19.484,32.630L19.516,32.606L19.537,32.629L19.432,32.490L19.259,32.441L19.073,32.415L18.928,32.345L18.919,32.103L18.700,31.862L17.433,30.911L16.871,30.672L16.764,30.598L16.531,30.366L16.236,30.204L16.105,30.110L16.075,30.067L16.005,29.930L15.865,29.728L15.814,29.683L15.585,29.636L15.463,29.560L15.365,29.453L15.283,29.332L15.158,29.073L15.088,28.789L15.060,28.469L15.058,27.765L15.021,27.469L14.951,27.197L14.847,26.935L14.545,26.436L14.496,26.290L14.468,26.224L14.401,26.199L14.328,26.183L14.281,26.151L14.255,26.053L14.273,25.977L14.307,25.905L14.327,25.817L14.322,25.765L14.289,25.603L14.281,25.509L14.357,25.318L14.371,25.225L14.366,25.090L14.347,24.928L14.307,24.769L14.242,24.639L14.045,24.453L13.748,24.268L13.426,24.172L13.152,24.255L12.881,24.109L10.939,24.422L10.567,24.611L10.442,24.639L9.954,24.618L9.600,24.437L9.334,24.548L9.097,24.756L8.945,24.922L8.311,25.409L8.163,25.645L7.431,27.197L7.321,27.360L7.229,27.430L7.182,27.518L7.129,27.715L7.100,27.924L7.121,28.047L7.198,28.026L7.394,27.776L7.490,27.714L7.805,27.743L7.953,27.809L8.033,27.936L8.026,28.045L7.928,28.212L7.903,28.300L7.911,28.382L7.940,28.542L7.947,28.634L7.922,28.817L7.502,29.864L7.470,30.030L7.394,30.261L7.381,30.338L7.393,30.418L7.470,30.621L7.531,30.961L7.574,31.472L7.620,31.607L7.954,32.286L7.990,32.429L7.956,32.597L7.821,32.838L7.817,33.018L7.773,33.018L7.738,32.940L7.637,32.854L7.601,32.795L7.591,32.706L7.640,32.456L7.641,32.267L7.619,32.098L7.574,31.941L7.509,31.789L7.481,31.746L7.401,31.654L7.381,31.622L7.365,31.524L7.382,31.370L7.381,31.289L7.240,30.811L7.229,30.732L7.150,30.662L7.048,30.352L6.949,30.282L6.864,30.265L6.810,30.217L6.783,30.137L6.774,30.030L6.762,29.954L6.727,29.907L6.621,29.807L6.550,29.760L6.383,29.735L6.321,29.696L6.102,29.417L5.990,29.334L5.872,29.284L5.789,29.196L5.776,28.998L5.797,28.979L5.928,28.747L5.951,28.681L5.956,28.588L5.950,28.409L5.959,28.351L5.998,28.265L6.000,28.214L5.981,28.168L5.951,28.137L5.921,28.117L5.906,28.103L5.854,27.939L5.820,27.875L5.776,27.825L5.730,27.810L5.627,27.824L5.582,27.797L5.521,27.709L5.487,27.669L5.387,27.627L5.291,27.512L5.234,27.486L5.079,27.442L5.000,27.327L5.261,27.071L6.227,26.143L7.069,25.335L7.071,25.334L7.071,25.332L8.427,24.250L9.418,23.914L9.776,23.709L11.174,23.178L11.593,23.093L12.707,22.899L13.678,22.731L15.195,22.468L15.673,22.531L16.133,22.690L17.117,23.319L18.184,24.000L18.821,24.408L19.573,24.889L20.642,25.834L20.793,26.021L20.856,26.181L20.854,26.318L20.828,26.461L20.819,26.636L20.852,26.800L20.918,26.947L21.578,27.807L21.864,28.181L22.276,28.887L22.678,29.576L22.873,29.806L23.094,29.994L23.491,30.259L23.591,30.369L23.667,30.507L23.845,30.920L23.952,31.059L24.083,31.156L24.261,31.255L24.457,31.319L25.256,31.275L25.630,31.135L26.218,31.052L26.784,30.785L26.996,30.767L27.429,30.807L28.456,30.861L29.635,30.924L30.946,30.993L31.176,31.005L32.591,31.079L33.190,31.202L33.964,31.358L34.087,31.289L34.282,30.944L34.407,30.805L34.702,30.662L34.837,30.568L34.908,30.486L34.922,30.431L34.874,30.395L34.556,30.319L34.459,30.273L34.369,30.210L34.231,30.059L34.109,29.858L34.024,29.632L33.995,29.407L34.000,29.119L33.976,28.884L33.903,28.670L33.763,28.447L33.649,28.156L33.657,27.899L33.706,27.637L33.722,27.330L33.582,26.687L33.584,26.373L33.763,26.136L34.371,25.862L34.631,25.672L34.868,25.335L34.868,25.332L35.216,24.707L35.725,24.227L36.321,23.948L36.929,23.925L37.826,24.074L38.120,24.018L38.470,23.853L38.593,23.825L39.026,23.844L39.147,23.819L39.287,23.722L39.267,23.645L39.186,23.557L39.140,23.429L39.192,23.323L39.434,23.248L39.525,23.150L39.783,22.585L39.838,22.396L39.827,22.269L39.691,21.991L39.655,21.775L39.763,21.688L39.935,21.615L40.097,21.438L40.152,21.343L40.220,21.262L40.336,21.210L40.476,21.185L40.620,21.190L40.740,21.230L40.832,21.316L40.977,21.522L41.078,21.578L41.181,21.569L41.411,21.475L41.525,21.457L41.664,21.480L42.293,21.763L42.508,21.914L42.671,22.122L42.736,22.412L42.714,22.561L42.680,22.700L42.678,22.827L42.753,22.936L42.856,22.962L43.263,22.903L43.342,22.857L43.364,22.791L43.335,22.719L43.263,22.656L43.008,22.367L42.538,21.639L42.369,21.259L42.174,20.974L41.951,20.809L41.157,20.454L41.039,20.353L41.003,20.196L41.062,20.077L41.177,19.994L41.416,19.895L41.752,19.700L41.870,19.664L42.025,19.669L42.708,19.932L43.033,20.004L43.358,20.023L43.620,19.949L43.754,19.712L43.841,19.021L43.958,18.836L44.112,18.920L45.475,20.444L45.900,20.818L46.345,21.009L46.627,21.058L46.813,21.047L46.996,21.000L47.180,20.915L47.341,20.898L47.494,20.990L47.896,21.390L47.986,21.527L48.046,21.683L48.122,22.305L48.205,22.450L48.387,22.545L48.710,22.578L48.859,22.627L49.112,22.887L49.270,22.945L49.597,22.954L50.936,22.758L51.486,22.805L51.769,22.772L52.056,22.803L52.256,23.012L52.432,23.275L52.654,23.467L52.935,23.572L53.082,23.656L53.159,23.762L53.137,23.899L53.033,23.972L52.903,24.023L52.799,24.095L52.741,24.473L52.865,24.873L52.885,25.195L52.509,25.335L52.507,25.335L52.505,25.335L52.503,25.335L52.391,25.366L52.320,25.446L52.310,25.554L52.380,25.669L52.471,25.708L52.799,25.697L53.465,25.939L53.652,26.093L53.797,26.306L53.869,26.412L53.964,26.507L54.264,26.678L54.353,26.751L54.430,26.845L54.492,26.958L54.503,27.073L54.430,27.179L54.331,27.192L54.207,27.139L53.988,27.005L53.750,26.933L53.552,26.949L53.377,27.065L53.214,27.290L53.272,27.574L53.467,27.936L53.889,28.513L53.946,28.663L53.859,28.766L53.597,28.892L53.489,28.984L53.407,29.099L53.357,29.238L53.278,29.891L53.322,30.084L53.500,30.255L54.193,30.601L54.803,30.904L55.185,31.177L55.529,31.512L55.711,31.639L55.931,31.700L56.312,31.691L57.076,31.442L58.352,31.367L58.796,31.471L59.098,31.776L59.140,31.742L59.181,31.697L59.265,31.558L59.302,31.496L59.327,31.515L59.346,31.588L59.382,31.662L59.756,31.599L59.869,31.603L60.521,32.053L60.778,32.155L61.020,32.147L61.238,32.040L61.416,31.849L61.537,31.594L61.692,31.508L61.753,31.221L61.839,31.050L61.981,30.982L62.215,31.007L62.831,31.165L63.382,31.396L64.798,32.410L64.922,32.542L65.387,33.303L65.441,33.438L65.462,33.604L65.479,34.179L65.510,34.299L65.462,34.360L65.533,34.521L65.732,35.205L65.805,35.577L65.855,35.750L65.925,35.858L66.134,36.081L66.206,36.195L66.336,36.696L66.422,36.868L66.657,37.176L66.695,37.252L66.746,37.438L66.757,37.457L66.787,37.510L66.924,37.611L67.225,37.700L67.748,37.996L67.810,38.069L67.829,38.413L67.868,38.564L68.031,38.886L68.084,39.033L68.107,39.196L68.112,39.412L68.138,39.577L68.332,39.993L68.357,40.167L68.321,40.314L68.269,40.462L68.242,40.638L68.260,40.825L68.371,41.282L68.440,41.500L68.895,42.066L68.963,42.105L69.329,42.470L70.070,42.995L70.934,43.607L71.963,44.336L74.051,45.816L74.931,46.440L75.333,46.821L76.014,47.771L76.399,48.167L77.101,48.670L77.985,49.304L79.005,50.035L79.194,50.134L79.382,50.169L79.545,50.134L80.036,49.888L80.227,49.865L80.377,49.959L80.569,50.208L80.928,50.676L82.262,51.807L83.076,52.280L84.008,52.612L84.434,52.881L85.277,53.655L85.875,54.206L86.730,54.791L87.360,55.222L88.402,55.935L88.829,56.080L89.264,56.044L89.427,55.950L89.733,55.701L89.914,55.626L90.128,55.645L90.767,55.958L91.185,56.026L91.363,56.121L91.755,56.441L92.166,56.560L92.373,56.657L92.559,56.837L92.854,57.214L93.496,57.520L93.693,57.580L94.177,57.583L94.420,57.651L94.649,57.764L94.862,57.918L94.863,57.919L94.864,57.920L94.941,58.141L95.000,58.310L94.767,58.772L94.416,59.238L94.196,59.640L94.172,59.959L94.222,60.598L94.198,60.922L94.059,61.471L94.035,61.762L94.122,61.993L94.246,62.103L94.347,62.214L94.372,62.344L94.272,62.512L94.153,62.637L94.058,62.776L94.044,62.925L94.201,63.049L94.095,63.119L93.983,63.219L93.886,63.330L93.832,63.373L93.767,63.385L93.688,63.345L93.593,63.200L93.529,63.168L93.377,63.188L92.941,63.335L92.774,63.318L92.647,63.220L92.542,63.109L92.498,63.086L92.442,63.056L92.382,63.039L92.293,62.963L92.225,62.946L92.016,62.957L91.942,62.946L91.815,62.879L91.705,62.768L91.529,62.526L91.414,62.424L89.992,61.878L89.871,61.787L89.827,61.734L89.776,61.656L89.670,61.411L89.620,61.378L89.494,61.349L89.398,61.304L89.382,61.420L89.343,61.634L89.259,61.706L88.998,61.703L88.889,61.728L88.812,61.775L88.747,61.859L88.682,61.990L88.681,61.992L88.681,61.993L88.602,62.154L88.539,62.327L88.509,62.510L88.559,62.859L88.562,63.039L88.528,63.204L88.447,63.319L88.269,63.506L87.976,63.922L87.751,64.042L87.666,64.045L84.975,64.116L84.506,64.275L83.358,64.912L83.174,65.054L83.056,65.262L83.027,65.579L83.147,66.199L83.174,66.517L83.088,66.793L82.855,67.234L82.176,68.521L82.072,68.782L81.991,69.103L81.970,69.271L81.972,69.436L82.001,69.602L82.090,69.913L82.108,70.082L82.078,70.407L82.006,70.707L81.893,70.989L81.396,71.789L81.266,71.950L81.057,72.127L80.843,72.209L80.377,72.322L80.261,72.373L80.164,72.440L80.089,72.538L79.989,72.866L79.926,72.921L79.848,72.902L79.743,72.856L79.481,72.812L79.246,72.857L79.022,72.973L78.603,73.306L78.523,73.411L78.470,73.541L78.471,73.686L78.529,74.071L78.526,74.173L77.924,73.928L77.746,73.888L77.647,73.905L77.543,73.922L77.353,73.983L76.758,74.348L76.503,74.417L75.721,74.467L75.593,74.497L75.475,74.565L75.387,74.660L75.238,74.874L75.144,74.963L74.631,75.214L74.078,75.334L72.700,75.302L72.565,75.332L72.468,75.439L72.441,75.580L72.485,75.684L72.548,75.788L72.576,75.932L72.616,76.038L72.940,76.344L73.029,76.470L73.071,76.507L73.232,76.571L73.264,76.613L73.259,76.670L73.222,76.744L73.046,76.881L72.560,77.047L72.392,77.221L72.381,77.342L72.396,77.758L72.417,77.858L72.522,77.948L72.544,78.033L72.479,78.289L72.453,78.598L72.414,78.749L72.329,78.843L72.204,78.877L71.941,78.901L71.813,78.932L71.388,79.148L70.814,79.627L70.785,79.642L70.389,79.846L70.223,80.023L70.143,80.140L70.060,80.224L69.965,80.286L69.506,80.496L69.401,80.523L69.345,80.513L69.158,80.430L69.090,80.433L69.027,80.452L68.964,80.458L68.895,80.419L68.479,80.014L68.307,80.024L68.101,80.225L67.485,81.108L67.385,81.164L67.318,81.080L67.199,80.785L67.161,80.662L67.172,80.332L67.163,80.189L67.119,80.045L67.052,79.917L66.959,79.815L66.610,79.653L66.435,79.529L65.786,78.856L65.619,78.734L65.431,78.637L65.061,78.629L64.299,78.909L63.922,78.939L63.068,78.802L62.650,78.625L62.358,78.284L61.947,77.888L61.893,77.863L61.851,77.843L61.779,77.831L61.728,77.800L61.688,77.752L61.646,77.688L61.644,77.656L61.669,77.568L61.666,77.532L61.566,77.438L61.552,77.434L61.543,77.436L61.464,77.364L61.518,77.272L61.524,77.251L61.464,77.195L61.418,77.170L61.364,77.170L61.032,77.238L60.946,77.271ZM8.752,49.223L8.817,49.062L8.927,48.953L9.080,48.926L9.111,48.979L9.119,49.004L9.119,49.043L8.935,49.176L8.904,49.504L8.989,50.155L9.065,50.835L9.209,51.501L9.183,51.602L9.185,51.646L9.209,51.718L9.162,51.718L9.146,51.524L8.961,50.825L8.859,50.605L8.817,50.483L8.805,50.399L8.816,50.183L8.802,49.965L8.743,49.590L8.729,49.402L8.752,49.223ZM11.530,44.957L11.602,44.889L11.678,44.851L11.718,44.907L11.753,44.947L11.784,44.952L11.811,44.906L11.839,45.083L11.851,45.129L11.981,45.326L11.947,45.424L11.868,45.518L11.768,45.579L11.678,45.579L11.644,45.516L11.573,45.257L11.528,45.156L11.494,45.048L11.530,44.957Z" fill="currentColor" stroke="currentColor" stroke-width="1.5" stroke-linejoin="round"/>
</svg>