<svg xmlns="http://www.w3.org/2000/svg" viewBox="0 0 100 100" role="img" aria-label="East Timor">
  <title>East Timor</title>
  <path d="M16.527,60.044L16.553,60.609L16.145,62.143L16.014,63.112L15.907,63.353L15.821,63.465L15.715,63.559L15.188,64.250L14.370,64.950L14.117,65.087L13.992,65.093L13.896,65.148L13.713,65.437L13.645,66.257L13.544,66.469L13.280,66.848L13.185,67.057L13.190,67.246L13.315,67.728L13.287,67.989L13.046,68.370L12.676,68.602L12.210,68.723L11.683,68.774L11.347,68.858L11.235,68.949L11.210,68.898L11.122,68.539L11.122,68.376L11.218,67.886L11.235,67.679L11.139,67.215L10.944,66.739L10.677,66.286L10.366,65.907L9.952,65.555L9.589,65.397L9.210,65.417L8.761,65.604L8.392,65.916L7.843,66.676L7.496,66.888L6.651,66.739L5.895,66.082L5.000,64.532L5.502,64.394L7.717,63.504L8.199,63.448L8.545,63.270L9.147,62.407L9.406,62.123L10.240,61.735L12.065,61.170L14.751,60.658L15.054,60.495L15.286,60.186L15.831,60.082L16.518,60.046L16.527,60.044ZM29.382,53.992L30.322,53.454L30.898,52.885L32.225,50.858L32.345,50.431L32.600,50.185L33.829,49.729L34.233,49.382L34.340,48.894L34.507,46.411L34.741,45.779L35.096,45.214L35.544,44.821L36.093,44.636L37.349,44.442L37.873,44.158L38.094,44.103L39.098,44.252L39.406,44.167L40.218,43.684L42.034,43.158L42.585,43.097L44.389,43.219L44.952,43.097L46.433,42.424L47.102,42.343L47.812,42.550L48.133,42.532L48.882,41.774L49.387,41.995L50.199,42.018L51.686,41.774L54.906,40.726L56.197,40.652L59.062,41.160L60.159,41.697L60.895,41.774L61.498,41.652L62.660,41.286L62.890,41.255L63.251,41.205L64.485,41.187L65.587,41.031L66.153,40.747L67.362,39.886L68.237,39.634L69.147,39.121L69.450,39.069L69.997,39.060L70.285,38.932L70.780,39.295L71.362,39.530L71.994,39.663L72.634,39.706L73.035,39.846L74.046,40.808L75.177,40.424L77.281,39.426L78.001,39.230L78.521,38.862L78.744,38.758L79.047,38.755L79.514,38.902L79.712,38.932L80.912,38.681L82.086,38.153L84.894,36.144L85.510,35.877L85.972,35.986L86.394,36.297L88.321,37.225L88.850,37.367L89.528,37.430L90.195,37.367L90.677,37.130L91.520,36.527L91.707,36.453L92.062,36.532L92.196,36.710L92.269,36.954L92.455,37.225L93.035,37.575L94.277,37.913L94.801,38.268L95.000,38.823L94.726,39.297L92.722,40.803L91.466,42.072L88.952,44.036L87.181,45.765L86.994,46.049L86.668,46.077L84.747,46.505L82.983,47.790L82.197,48.181L78.030,48.483L77.432,48.628L77.111,48.781L76.308,49.382L76.107,49.470L75.873,49.522L75.271,49.553L74.990,49.659L73.917,50.892L72.922,52.601L71.951,53.459L70.793,53.788L63.548,54.723L62.783,55.043L62.343,55.226L60.304,56.635L57.551,58.533L57.040,58.696L55.428,58.448L54.885,58.491L54.580,58.653L53.982,59.156L53.661,59.265L52.523,59.265L51.947,59.409L50.190,60.400L49.685,60.414L48.293,60.211L47.845,60.306L47.285,60.753L46.723,61.071L44.965,61.726L41.971,62.841L40.985,63.448L39.573,64.629L38.817,64.958L38.482,65.351L37.974,66.119L37.675,66.448L37.376,66.685L36.979,66.827L35.698,66.922L35.167,67.078L34.703,67.374L34.233,67.839L33.278,68.521L32.985,66.826L32.858,66.415L32.240,65.440L32.213,65.245L32.269,64.809L32.230,64.632L32.079,64.448L31.498,64.084L30.844,63.496L30.657,63.184L30.497,62.702L30.331,61.745L30.436,60.925L30.889,60.368L31.787,60.208L32.348,60.214L32.535,60.265L32.725,60.406L33.052,60.778L33.225,60.884L33.616,60.907L33.852,60.747L34.096,60.503L34.521,60.274L34.821,60.248L35.496,60.291L35.718,60.188L35.807,59.921L35.773,59.784L35.734,59.623L35.617,59.330L35.564,59.072L36.030,57.329L36.040,56.727L35.810,56.177L35.411,55.732L34.915,55.374L34.399,55.082L34.201,54.901L34.097,54.729L33.969,54.663L33.685,54.789L33.590,54.947L33.469,55.486L33.379,55.689L33.010,56.016L31.711,56.587L31.011,57.043L30.654,57.189L30.159,57.223L29.753,57.111L29.431,56.862L29.203,56.509L29.064,56.085L29.098,55.609L29.464,54.666L29.382,53.992ZM47.196,32.753L47.495,32.270L48.177,31.550L48.927,31.051L49.424,31.267L49.190,32.152L48.133,34.762L47.945,35.606L47.825,35.830L47.571,36.026L47.312,36.107L47.196,35.986L47.015,35.882L46.132,35.613L45.777,35.410L45.489,35.083L45.396,34.816L45.469,34.545L45.683,34.177L46.025,33.845L46.995,33.107L47.196,32.753Z" fill="currentColor" stroke="currentColor" stroke-width="1" stroke-linejoin="round"/>
</svg>