<svg xmlns="http://www.w3.org/2000/svg" viewBox="0 0 100 100" role="img" aria-label="Tonga">
  <title>Tonga</title>
  <path d="M63.943,44.931L64.132,45.004L64.220,45.090L64.299,45.188L64.457,45.303L64.471,45.446L64.460,45.722L64.362,45.856L64.122,45.575L63.986,45.640L63.915,45.720L63.927,45.819L64.036,45.938L63.932,46.068L63.864,46.208L63.688,46.169L63.571,46.307L63.513,46.534L63.513,46.761L63.357,46.672L63.270,46.521L63.179,46.208L63.380,46.127L63.390,45.971L63.314,45.821L63.257,45.756L63.114,45.881L63.073,46.078L63.016,46.206L62.828,46.119L62.816,46.193L62.779,46.208L62.722,46.204L62.648,46.208L62.484,45.816L62.722,45.618L63.075,45.430L63.257,45.071L63.343,44.979L63.544,44.931L63.774,44.916L63.943,44.931ZM51.909,81.105L51.987,81.599L51.981,81.800L51.909,82.290L51.919,83.122L51.840,83.256L51.644,83.141L51.564,82.939L51.405,82.777L51.044,82.506L51.044,82.416L51.094,82.396L51.216,82.324L51.142,82.180L51.129,82.000L51.193,81.845L51.443,81.737L51.523,81.636L51.644,81.417L51.673,81.335L51.766,81.138L51.863,81.003L51.909,81.105ZM50.016,78.872L50.153,78.973L50.200,79.076L50.187,79.284L50.079,79.400L49.365,79.922L49.320,80.037L49.340,80.178L49.383,80.327L49.408,80.467L49.362,80.624L49.250,80.715L49.108,80.761L48.971,80.784L48.699,80.723L48.572,80.613L48.371,80.231L48.206,80.073L47.608,79.777L47.513,79.877L47.202,79.695L47.024,79.626L46.867,79.598L46.748,79.531L46.438,79.099L46.258,78.739L46.377,78.416L46.668,78.172L46.999,78.057L46.843,78.247L46.644,78.416L46.559,78.589L46.742,78.781L46.878,78.838L46.990,78.842L47.702,78.704L47.818,78.736L47.912,78.810L48.011,78.870L48.090,78.953L48.122,79.099L47.934,79.219L47.847,79.329L47.899,79.465L48.031,79.517L48.157,79.462L48.283,79.371L48.414,79.326L48.569,79.352L48.791,79.475L48.893,79.507L49.079,79.462L49.153,79.323L49.226,79.140L49.408,78.963L49.536,78.902L49.698,78.856L49.867,78.840L50.016,78.872ZM58.861,61.314L59.031,61.253L59.164,61.133L59.255,60.964L59.306,60.761L59.367,60.774L59.505,60.828L59.554,60.860L59.455,61.093L59.438,61.355L59.375,61.551L59.134,61.586L59.038,61.536L58.961,61.478L58.901,61.407L58.861,61.314ZM49.969,60.127L50.169,60.284L50.261,60.647L50.238,61.046L50.094,61.314L50.094,61.214L50.016,61.314L49.953,61.237L49.887,61.193L49.743,61.132L49.752,61.127L49.738,61.093L49.743,61.041L49.589,60.629L49.579,60.497L49.625,60.244L49.700,60.136L49.813,60.119L49.969,60.127ZM59.555,60.406L59.776,60.283L59.902,60.109L60.005,59.927L60.162,59.764L60.228,59.959L60.190,60.130L60.117,60.291L60.077,60.452L59.984,60.620L59.784,60.640L59.600,60.553L59.555,60.406ZM60.119,59.046L60.281,59.117L60.331,59.255L60.265,59.354L60.077,59.311L59.939,59.114L59.773,58.788L59.715,58.544L59.905,58.586L59.970,58.697L60.033,58.988L60.119,59.046ZM42.911,5.000L43.146,5.184L43.081,5.557L42.813,5.860L42.440,5.823L42.222,5.568L42.258,5.300L42.504,5.086L42.911,5.000ZM35.602,94.802L35.718,94.842L35.795,94.909L35.748,94.964L35.683,95.000L35.643,95.000L35.571,94.951L35.529,94.881L35.542,94.815L35.602,94.802ZM55.186,48.252L55.056,48.038L55.092,47.846L55.238,47.748L55.436,47.825L55.524,47.987L55.481,48.140L55.353,48.240L55.186,48.252Z" fill="currentColor" stroke="currentColor" stroke-width="1" stroke-linejoin="round"/>
</svg>