<svg xmlns="http://www.w3.org/2000/svg" viewBox="0 0 100 100" role="img" aria-label="Trinidad and Tobago">
  <title>Trinidad and Tobago</title>
  <path d="M64.276,49.817L63.086,49.600L62.329,50.848L61.985,52.795L62.055,54.666L63.297,58.624L63.555,60.553L61.704,62.151L61.743,63.979L61.962,65.166L62.620,68.756L62.948,69.646L63.375,70.473L64.521,72.179L66.898,73.867L65.047,75.870L64.242,79.238L64.209,83.042L64.677,86.354L63.303,86.052L61.761,86.524L60.306,87.425L59.173,88.397L58.043,89.157L56.591,89.703L53.714,90.397L53.055,90.461L52.160,90.551L48.234,89.910L46.825,90.034L42.751,90.842L37.710,90.397L32.232,90.842L32.165,90.829L29.608,90.397L29.009,90.546L27.187,91.282L26.471,91.356L25.213,91.659L24.565,91.733L23.662,91.592L23.027,91.256L22.443,90.821L21.707,90.397L20.517,90.042L19.205,89.889L13.662,89.878L12.144,90.058L10.983,90.620L10.046,91.354L8.801,92.098L7.492,92.602L6.375,92.618L5.000,91.680L5.625,90.797L7.687,89.708L7.991,89.465L8.694,89.247L10.769,88.855L11.191,88.445L11.858,87.467L12.857,86.704L13.927,86.179L18.861,84.701L19.160,84.555L21.613,83.373L23.516,81.678L23.550,81.649L23.495,79.685L24.307,79.256L25.276,79.240L28.582,79.812L31.100,79.720L31.290,79.712L32.009,79.685L32.732,79.402L33.586,78.708L34.360,77.823L34.852,76.980L35.094,75.679L35.013,75.189L34.909,74.585L34.586,73.530L34.414,72.309L34.297,71.957L33.737,71.485L33.539,71.199L33.513,70.844L33.688,70.748L33.907,70.703L34.016,70.513L33.953,70.007L33.581,68.732L33.342,68.287L33.201,67.349L33.565,66.064L34.414,64.045L34.841,61.571L34.852,59.011L34.203,56.621L32.670,54.666L33.141,54.266L30.587,52.517L29.291,51.921L27.463,51.084L26.093,50.792L22.831,50.570L22.425,50.442L22.110,50.093L21.707,49.335L25.031,47.030L25.896,46.667L28.517,46.889L31.462,46.198L33.063,46.219L33.342,46.222L34.143,45.853L34.633,45.202L34.961,44.934L35.289,45.737L35.765,45.737L35.784,45.520L35.765,44.847L36.159,44.847L36.203,45.175L36.310,45.347L36.461,45.488L36.638,45.737L36.159,46.222L36.690,46.095L37.065,45.793L37.314,45.483L37.471,45.332L38.705,45.292L38.825,45.332L39.350,44.852L40.561,43.427L40.967,43.071L41.860,42.997L42.084,42.979L45.474,43.392L52.899,43.424L53.443,43.008L54.513,42.192L58.244,41.739L59.397,41.249L67.695,40.316L70.353,40.846L67.635,45.642L64.276,49.817ZM94.461,7.382L94.937,7.865L95.000,9.481L94.779,11.479L94.300,12.888L93.586,12.719L93.191,12.719L92.797,13.696L92.235,13.805L91.597,13.588L90.967,13.603L90.842,13.890L89.884,15.172L89.658,15.222L88.174,16.142L87.708,16.518L86.999,16.947L86.190,16.939L85.417,16.780L84.813,16.756L80.944,18.712L79.809,18.982L78.085,20.476L77.005,20.913L76.552,19.872L75.591,20.357L74.701,20.206L74.177,19.565L74.326,18.577L74.867,18.304L75.755,18.161L76.583,17.827L76.945,16.979L77.580,16.136L82.995,12.575L84.151,11.431L84.813,10.938L85.625,10.517L87.723,9.740L89.530,9.359L90.282,8.930L91.061,8.784L92.079,9.385L92.550,9.327L93.769,7.880L94.461,7.382Z" fill="currentColor" stroke="currentColor" stroke-width="1" stroke-linejoin="round"/>
</svg>