<svg xmlns="http://www.w3.org/2000/svg" viewBox="0 0 100 100" role="img" aria-label="Tunisia">
  <title>Tunisia</title>
  <path d="M70.845,57.662L70.855,58.229L70.554,59.433L70.528,59.627L70.522,60.335L70.334,61.192L70.410,62.503L70.257,63.836L70.265,64.533L70.480,65.022L71.184,65.727L71.428,66.182L71.465,66.714L71.278,67.109L71.065,67.316L70.937,67.441L70.203,67.941L67.452,69.285L64.203,70.872L63.916,71.187L63.492,72.192L63.148,72.544L62.767,72.786L62.415,73.079L62.209,73.145L62.017,73.066L61.828,72.956L61.630,72.928L61.394,73.188L61.306,74.201L61.169,74.621L60.726,75.046L60.548,75.484L60.422,75.674L60.268,75.835L60.097,75.976L59.521,76.210L58.340,76.195L57.799,76.642L57.090,77.930L56.418,78.702L56.253,78.995L56.141,79.820L56.161,80.040L56.945,82.203L57.266,83.536L57.598,84.259L57.612,84.495L57.553,84.980L57.600,85.429L57.864,86.315L57.860,86.738L57.694,87.249L57.045,88.647L56.088,89.779L54.979,91.641L53.672,93.403L53.404,93.566L52.638,93.619L52.328,93.705L49.976,95.000L49.678,93.608L49.381,92.216L49.083,90.824L48.784,89.433L48.486,88.041L48.188,86.650L47.890,85.257L47.593,83.865L47.293,82.474L46.996,81.082L46.697,79.691L46.400,78.298L46.102,76.906L45.803,75.516L45.507,74.124L45.207,72.731L45.179,72.598L44.986,71.692L44.868,71.453L44.723,71.275L42.953,69.967L40.754,68.343L39.076,67.102L37.786,66.265L37.499,65.944L37.484,65.928L37.361,65.511L37.260,64.205L37.118,62.428L36.976,62.023L35.909,60.336L34.915,58.761L34.680,58.616L34.461,58.666L34.240,58.651L34.025,58.583L33.821,58.476L32.656,57.625L32.273,57.494L31.769,57.446L31.382,57.328L31.112,57.027L30.951,56.436L30.936,54.760L30.936,54.707L30.777,54.211L29.972,52.796L29.304,51.623L29.214,51.300L29.106,50.643L28.804,50.053L28.731,49.837L28.588,49.140L28.535,48.649L28.753,47.379L28.786,46.447L28.930,46.105L29.159,45.868L29.583,45.429L29.841,45.087L30.128,44.789L30.537,44.584L31.205,44.477L31.404,44.371L31.535,44.212L31.630,44.006L32.025,42.510L32.232,42.066L32.642,41.769L33.554,41.370L33.993,41.057L34.991,40.602L35.080,40.524L35.512,40.139L35.760,39.990L35.844,39.905L35.889,39.818L35.963,39.598L36.030,39.494L36.408,39.258L36.488,39.116L36.216,38.692L36.246,38.495L36.370,38.306L36.707,37.951L36.722,37.932L36.804,37.818L36.833,37.646L36.638,36.370L36.618,35.900L36.725,35.410L36.976,34.735L37.160,33.804L37.299,33.356L37.796,32.814L38.431,31.851L38.536,31.603L38.174,31.325L37.736,31.190L37.339,30.999L37.096,30.549L37.029,30.030L37.051,29.568L37.165,29.127L37.542,28.230L37.545,27.857L37.442,26.801L37.404,26.412L37.225,25.998L36.711,25.170L36.586,24.728L36.540,24.191L36.601,23.185L36.824,22.394L36.866,22.244L36.900,21.547L37.121,20.616L37.240,20.407L37.335,20.167L37.308,19.939L37.230,19.705L37.180,19.454L37.230,18.932L37.728,17.575L37.738,17.509L37.767,17.334L37.783,16.812L37.762,16.570L37.673,16.337L37.511,16.241L37.313,16.187L37.109,16.085L36.197,15.970L35.767,15.798L35.767,15.791L35.788,15.363L36.036,15.070L36.339,14.883L37.018,14.635L38.290,13.886L38.526,13.633L38.766,13.189L38.856,12.745L38.644,12.487L38.277,12.300L38.345,12.099L38.669,11.943L39.076,11.895L39.469,11.922L39.831,11.849L40.560,11.565L40.748,11.435L40.756,11.282L40.396,10.748L40.360,10.618L40.368,10.465L40.335,10.131L40.531,10.051L41.278,9.753L41.534,9.706L42.432,9.706L42.668,9.625L43.102,9.269L43.420,9.127L43.501,9.092L43.733,8.874L44.060,8.490L44.384,7.888L44.524,7.798L44.626,7.749L44.921,7.445L45.032,7.381L45.348,7.256L46.187,6.927L46.315,6.852L46.536,6.506L46.728,6.408L48.114,6.389L48.515,6.236L48.772,5.970L48.919,5.877L49.061,5.934L49.169,5.995L49.284,5.973L49.396,5.920L49.705,5.848L49.951,5.740L50.175,5.597L50.323,5.451L50.537,5.569L50.731,5.535L51.119,5.279L51.338,5.169L51.517,5.124L51.979,5.114L52.212,5.024L52.340,5.000L52.451,5.067L52.535,5.146L52.643,5.186L53.541,5.207L53.543,5.244L53.565,5.365L53.570,5.936L53.245,6.189L52.846,6.355L52.626,6.668L52.660,6.763L52.825,7.109L52.877,7.186L52.938,7.227L53.004,7.405L53.090,7.445L53.550,7.506L53.762,7.468L53.996,7.281L54.124,7.111L54.239,6.877L54.236,6.670L53.565,6.408L53.464,6.421L53.249,6.486L53.128,6.487L53.128,6.408L53.384,6.236L53.485,6.210L53.549,6.152L53.594,6.090L53.631,6.056L53.789,6.032L54.812,6.254L55.002,6.236L55.563,5.994L55.653,6.016L55.822,6.268L56.562,6.375L56.903,6.676L57.685,6.945L57.885,7.108L57.548,7.193L57.392,7.257L57.245,7.359L57.188,7.151L56.895,7.115L56.559,7.200L56.371,7.359L56.448,7.566L56.723,7.667L57.042,7.681L57.245,7.626L57.318,7.735L57.411,7.878L57.445,7.999L57.383,8.152L57.311,7.971L56.857,8.402L56.942,9.024L57.338,9.661L57.819,10.138L58.212,10.322L58.322,10.397L58.567,10.734L58.674,10.880L58.619,11.028L58.378,11.260L58.276,11.519L58.166,11.620L58.022,11.643L57.885,11.527L57.963,11.335L57.865,11.282L57.683,11.309L57.342,11.417L57.239,11.492L57.060,11.739L57.006,11.926L57.157,11.988L57.486,11.998L57.623,12.069L57.693,12.003L57.726,11.973L57.885,11.692L58.111,12.177L58.389,12.543L58.759,12.765L59.261,12.822L59.405,12.786L59.618,12.795L60.151,12.532L60.477,12.454L60.682,12.249L60.764,11.896L60.833,11.605L60.983,11.096L61.173,10.932L61.396,10.887L61.884,10.923L62.326,10.840L62.734,10.683L63.257,10.322L63.580,9.993L63.676,9.948L63.716,9.831L63.750,9.767L64.354,9.290L64.441,9.187L64.468,9.047L64.429,8.959L64.410,8.877L64.507,8.748L64.733,8.644L65.264,8.591L65.669,8.294L65.886,8.260L66.072,8.350L66.170,8.576L66.155,8.684L66.046,8.835L66.020,8.968L66.044,9.109L66.146,9.290L66.170,9.404L66.208,9.492L66.390,9.753L66.458,9.879L66.483,10.003L66.501,10.274L66.529,10.397L66.578,10.497L66.649,10.610L66.725,10.703L66.780,10.742L66.842,10.811L66.967,11.003L66.908,11.212L66.763,11.409L66.342,11.577L65.768,12.043L65.457,12.603L65.009,13.237L64.269,14.570L63.703,15.945L63.433,16.298L62.563,16.517L61.546,17.077L61.179,16.978L60.815,17.242L60.481,17.745L60.331,18.227L60.186,18.749L60.062,19.269L60.037,19.919L60.014,20.590L60.065,21.010L60.200,21.439L60.278,21.668L60.330,21.748L60.376,21.871L60.436,22.151L60.475,22.266L60.706,22.609L60.874,22.797L61.019,22.878L61.145,23.002L61.421,23.836L61.563,24.003L62.291,24.674L62.316,24.697L62.520,24.805L62.841,24.926L63.472,24.707L63.579,24.732L63.676,24.789L63.869,24.965L63.752,25.134L63.691,25.385L63.744,25.641L63.866,25.822L64.290,26.022L65.239,26.387L65.661,26.339L65.966,26.594L66.114,26.889L65.715,27.043L65.661,27.337L65.682,27.541L65.692,27.639L65.787,27.909L65.948,28.102L66.430,28.250L66.142,28.504L66.068,28.845L66.014,29.161L66.055,29.712L65.926,29.970L65.979,30.430L66.228,30.824L66.601,31.285L66.819,31.452L67.082,31.574L67.226,31.647L67.209,31.893L66.916,31.903L66.708,32.060L66.506,32.460L66.197,32.717L66.049,33.000L65.903,33.306L65.702,33.486L65.772,33.844L65.726,34.227L65.371,34.667L64.967,34.868L64.670,35.198L64.747,35.493L64.658,35.756L64.656,36.259L64.227,36.569L64.135,36.667L64.068,36.724L64.025,36.799L64.141,37.050L64.184,37.223L63.800,37.399L63.552,37.583L63.213,37.954L63.049,38.284L62.845,38.471L62.747,38.696L62.564,38.900L62.395,39.011L61.692,39.240L61.597,39.298L61.556,39.386L61.540,39.518L61.489,39.673L61.409,39.803L61.391,40.052L61.318,40.193L61.300,40.418L61.138,40.570L60.904,40.686L59.923,40.832L59.564,41.030L59.005,41.956L58.497,42.089L58.393,42.081L58.296,42.035L58.178,42.024L58.053,42.071L57.989,42.136L57.947,42.213L57.722,42.512L57.623,42.600L57.486,42.636L56.988,42.856L56.776,43.022L56.356,43.189L56.098,43.461L55.968,43.855L55.592,44.611L55.369,44.972L55.222,45.023L55.132,45.117L55.131,45.118L55.079,45.149L55.179,45.367L55.218,45.619L55.216,46.149L55.250,46.380L55.404,46.871L55.438,47.103L55.538,47.516L55.774,47.987L56.739,49.378L56.840,49.481L56.989,49.561L58.496,51.065L58.889,51.302L59.713,51.665L59.862,51.699L60.167,51.770L60.894,51.661L61.689,51.434L62.357,51.068L62.557,51.013L62.803,51.460L62.770,52.330L62.461,52.597L62.292,52.668L62.162,52.839L62.110,53.054L62.171,53.253L62.420,53.680L62.562,53.838L62.783,53.908L63.229,53.811L64.024,53.323L64.403,53.210L64.584,53.129L64.749,52.934L64.829,52.694L64.761,52.476L64.581,52.266L64.553,52.158L64.865,51.907L64.988,51.993L65.122,52.016L65.235,51.962L65.303,51.820L65.374,51.820L65.543,51.933L65.986,52.140L66.170,52.260L66.309,52.436L66.672,53.003L66.708,53.124L66.761,53.757L66.481,54.210L66.700,54.984L66.608,55.349L66.914,55.255L67.122,55.477L67.329,55.758L67.573,55.894L67.825,55.953L68.364,56.232L68.623,56.327L68.556,56.387L68.525,56.402L68.479,56.413L67.447,56.074L66.940,56.015L66.816,56.413L66.918,56.564L67.088,56.705L67.252,56.885L67.324,57.159L67.423,57.284L67.654,57.283L68.115,57.198L68.561,57.297L69.448,57.630L69.916,57.630L70.088,57.506L70.030,57.336L69.852,57.185L69.664,57.120L69.544,57.036L69.398,56.852L69.234,56.680L70.186,57.366L70.768,57.643L70.839,57.660L70.845,57.662ZM65.446,49.309L65.651,49.436L65.862,49.534L66.045,49.650L66.170,49.827L65.472,50.472L65.297,50.555L65.231,50.611L65.183,50.716L65.081,51.130L65.015,51.130L65.048,50.795L65.081,50.690L64.916,50.744L64.784,51.144L64.595,51.431L64.418,51.629L64.356,51.858L64.180,51.679L64.177,51.457L64.242,51.250L64.053,50.961L63.876,50.874L63.709,50.724L63.527,50.667L63.332,50.866L63.243,51.054L63.049,51.099L62.804,50.905L62.737,50.713L62.674,50.365L62.680,50.031L62.882,49.675L62.755,49.156L62.761,48.764L63.149,48.618L64.004,48.804L64.461,48.833L64.799,48.618L65.112,49.000L65.446,49.309ZM65.158,39.002L65.261,38.922L65.401,38.811L66.601,38.821L66.701,38.966L66.543,39.124L66.121,39.454L65.919,39.411L65.710,39.307L65.362,39.138L65.158,39.002ZM68.329,37.526L68.425,37.564L68.484,37.659L68.739,37.919L68.658,38.091L67.634,38.521L67.103,38.842L66.910,38.918L66.821,38.701L66.967,38.531L67.140,38.367L67.329,38.092L67.355,37.917L67.346,37.837L67.354,37.720L67.438,37.673L67.460,37.794L67.619,37.897L67.870,37.851L67.893,37.568L67.822,37.422L67.903,37.250L68.028,37.136L68.114,37.000L68.208,36.863L68.382,36.963L68.683,37.010L68.733,37.122L68.459,37.219L68.420,37.294L68.355,37.375L68.329,37.526Z" fill="currentColor" stroke="currentColor" stroke-width="1" stroke-linejoin="round"/>
</svg>