<svg xmlns="http://www.w3.org/2000/svg" viewBox="0 0 100 100" role="img" aria-label="Turkey">
  <title>Turkey</title>
  <path d="M88.575,37.018L88.556,37.159L88.595,37.351L88.670,37.524L88.760,37.607L88.961,37.635L89.163,37.734L89.348,37.884L89.496,38.064L89.550,38.183L89.570,38.298L89.580,38.419L89.605,38.557L89.654,38.677L89.849,38.982L89.893,39.096L89.909,39.195L89.934,39.614L89.920,39.663L89.822,39.834L89.794,39.871L89.829,40.008L89.630,40.237L89.568,40.362L89.572,40.507L89.544,40.485L89.523,40.477L89.502,40.472L89.474,40.462L89.488,40.487L89.496,40.505L89.509,40.548L89.398,40.561L89.296,40.630L89.135,40.819L89.155,40.898L89.254,41.008L89.445,41.168L89.445,41.209L89.441,41.222L89.371,41.453L89.330,41.520L89.298,41.619L89.347,41.714L89.474,41.832L89.683,42.100L89.750,42.254L89.755,42.265L89.669,42.331L89.719,42.438L89.866,42.616L89.896,42.684L89.850,42.762L89.638,42.808L89.572,42.868L89.633,43.042L89.848,43.159L90.279,43.280L90.793,43.561L91.359,43.656L91.433,43.630L91.597,43.517L91.697,43.490L91.743,43.503L91.803,43.560L91.843,43.573L91.892,43.566L91.988,43.538L92.123,43.522L92.406,43.446L92.565,43.446L92.737,43.498L92.997,43.649L93.389,43.875L93.661,44.110L93.782,44.243L93.835,44.331L93.857,44.423L93.874,44.476L93.914,44.516L93.985,44.567L93.999,44.626L94.001,44.695L94.018,44.730L94.081,44.691L94.251,44.886L94.338,44.939L94.362,44.942L94.414,44.934L94.437,44.939L94.460,44.959L94.486,45.006L94.775,45.382L94.848,45.505L94.893,45.581L94.947,45.810L95.000,45.885L94.618,45.610L94.527,45.533L94.245,45.404L94.181,45.330L94.054,45.140L93.982,45.089L93.866,45.123L93.366,45.531L93.345,45.599L93.370,45.797L93.360,45.869L93.358,45.892L93.330,45.970L93.174,46.281L93.152,46.363L93.143,46.462L93.152,46.547L93.169,46.625L93.166,46.697L93.119,46.769L93.118,46.769L93.095,46.904L93.111,47.018L93.109,47.128L93.030,47.248L92.940,47.314L92.696,47.424L92.593,47.449L92.473,47.439L92.148,47.278L92.036,47.266L91.781,47.333L91.672,47.345L91.568,47.332L91.495,47.334L91.424,47.359L91.328,47.419L91.276,47.492L91.305,47.565L91.428,47.711L91.429,47.713L91.449,47.771L91.477,47.899L91.533,48.019L91.532,48.064L91.520,48.104L91.522,48.158L91.538,48.209L91.595,48.329L91.599,48.382L91.566,48.492L91.571,48.544L91.693,48.638L91.902,48.747L92.084,48.876L92.122,49.025L92.029,49.208L92.005,49.304L92.048,49.543L92.003,49.614L91.927,49.678L91.861,49.790L91.861,49.791L91.886,49.833L91.901,49.874L91.921,49.968L91.949,50.011L91.992,50.044L92.027,50.082L92.031,50.137L92.028,50.187L92.044,50.233L92.064,50.279L92.109,50.414L92.173,50.506L92.250,50.579L92.499,50.700L92.522,50.877L92.394,51.315L92.375,51.436L92.384,51.512L92.407,51.584L92.431,51.693L92.410,51.737L92.369,51.779L92.355,51.816L92.413,51.846L92.498,51.874L92.534,51.898L92.569,51.937L92.602,52.037L92.601,52.162L92.580,52.402L92.623,52.709L92.617,52.813L92.558,53.057L92.557,53.128L92.572,53.281L92.569,53.337L92.553,53.436L92.567,53.489L92.610,53.519L92.679,53.552L92.914,53.595L93.069,53.504L93.129,53.491L93.203,53.520L93.269,53.578L93.327,53.659L93.363,53.754L93.365,53.850L93.259,54.004L93.089,54.139L92.957,54.291L92.977,54.581L92.961,54.699L92.932,54.817L92.901,54.906L92.866,54.953L92.783,54.989L92.744,55.023L92.737,55.076L92.775,55.190L92.749,55.228L92.659,55.272L92.597,55.322L92.553,55.399L92.515,55.526L92.473,55.618L92.360,55.749L92.316,55.836L92.316,55.837L92.276,55.915L92.247,55.988L92.239,56.065L92.262,56.150L92.266,56.227L92.225,56.292L92.176,56.354L92.170,56.376L92.156,56.421L92.239,56.554L92.402,56.581L92.707,56.544L92.763,56.562L92.932,56.645L92.983,56.682L93.011,56.737L93.028,56.807L93.055,56.881L93.107,56.950L93.143,56.962L93.176,56.950L93.206,56.944L93.242,56.972L93.245,57.002L93.227,57.099L93.223,57.135L93.258,57.204L93.324,57.211L93.399,57.183L93.459,57.149L93.587,57.134L93.719,57.195L93.836,57.299L94.009,57.514L94.019,57.571L93.971,57.650L93.808,57.784L93.770,57.837L93.749,58.020L93.843,58.130L93.949,58.212L93.968,58.315L93.925,58.436L93.894,58.586L93.885,58.736L93.910,58.859L93.910,58.860L93.929,58.962L93.867,59.142L93.896,59.241L93.959,59.278L94.134,59.295L94.206,59.351L94.272,59.524L94.317,59.575L94.488,59.548L94.530,59.603L94.558,59.689L94.598,59.770L94.868,59.948L94.975,60.076L94.960,60.272L94.905,60.346L94.840,60.384L94.781,60.436L94.749,60.544L94.764,60.666L94.808,60.769L94.837,60.871L94.808,60.988L94.750,60.883L94.656,60.835L94.163,60.763L94.075,60.767L93.925,60.840L93.742,60.977L93.573,61.141L93.459,61.289L93.342,61.384L93.219,61.454L92.819,61.589L92.782,61.657L92.765,61.752L92.692,61.881L92.692,61.882L92.692,61.882L92.691,61.882L92.648,61.983L92.603,62.027L92.545,62.032L92.350,61.980L92.308,61.944L92.277,61.881L92.087,61.441L92.052,61.316L92.055,61.187L92.096,61.065L92.174,60.959L92.235,60.923L92.288,60.913L92.335,60.891L92.374,60.820L92.380,60.761L92.375,60.685L92.351,60.553L92.311,60.414L92.255,60.310L92.179,60.228L92.073,60.158L91.620,59.964L91.531,59.949L91.373,59.922L91.161,59.956L90.989,60.108L90.850,60.316L90.706,60.486L90.454,60.533L90.369,60.622L90.310,60.638L90.276,60.615L90.174,60.513L90.128,60.480L90.016,60.451L89.894,60.439L89.412,60.473L89.298,60.458L89.179,60.409L89.093,60.342L89.055,60.320L88.994,60.311L88.936,60.320L88.820,60.366L88.760,60.374L88.683,60.342L88.464,60.158L88.273,60.059L88.209,60.008L88.085,59.910L88.029,59.898L87.942,59.911L87.900,59.931L87.857,59.977L87.815,59.985L87.776,59.979L87.743,59.967L87.125,59.625L87.045,59.602L86.898,59.616L86.709,59.668L86.529,59.746L86.409,59.839L86.209,59.910L86.019,59.881L85.631,59.749L85.590,59.718L85.570,59.614L85.529,59.582L85.473,59.575L85.431,59.579L85.199,59.676L85.168,59.698L85.139,59.747L85.129,59.789L85.123,59.831L85.105,59.879L84.516,60.762L84.458,60.926L84.442,60.959L84.367,60.994L83.962,61.064L83.693,61.156L83.483,61.181L83.480,61.010L83.470,60.924L83.433,60.888L83.380,60.811L83.464,60.473L83.433,60.396L83.401,60.379L83.241,60.246L83.221,60.214L83.197,60.155L83.176,60.122L83.147,60.113L83.116,60.139L83.087,60.173L83.060,60.186L82.917,60.115L82.853,60.104L82.848,60.078L82.856,60.018L82.850,59.948L82.796,59.881L82.711,59.952L82.643,59.994L82.407,60.314L82.053,60.657L81.847,60.784L81.316,60.913L79.358,61.389L78.049,61.453L77.947,61.425L77.737,61.336L76.615,61.104L75.734,61.238L75.501,61.330L74.873,61.689L74.657,61.754L74.549,61.760L74.447,61.782L74.347,61.821L74.252,61.882L73.630,62.313L73.295,62.544L73.119,62.629L72.943,62.664L72.774,62.723L72.306,63.013L71.297,63.405L69.776,63.706L68.826,63.894L68.573,63.904L67.851,63.652L67.606,63.670L67.502,63.702L66.738,63.740L66.407,63.696L66.121,63.541L65.985,63.393L65.487,62.851L65.255,62.718L64.361,62.440L64.053,62.400L63.892,62.417L63.577,62.543L63.121,62.843L63.036,62.899L62.905,62.936L62.151,63.293L61.372,63.465L61.087,63.596L60.394,64.057L60.199,64.056L59.434,63.910L59.330,63.919L59.031,63.999L58.943,63.987L58.866,63.962L58.788,63.956L58.700,63.997L58.627,64.074L58.590,64.130L58.547,64.144L58.454,64.090L58.365,64.009L58.348,63.939L58.389,63.745L58.384,63.619L58.347,63.541L58.204,63.404L58.131,63.334L58.043,63.281L57.949,63.242L57.859,63.221L57.562,63.201L56.697,62.890L56.692,62.888L56.648,62.882L56.604,62.885L56.620,63.033L56.567,63.150L56.490,63.257L56.432,63.376L56.412,63.510L56.408,63.626L56.392,63.745L56.336,63.887L56.272,64.142L56.276,64.411L56.254,64.672L56.113,64.905L56.093,64.996L56.106,65.096L56.194,65.424L56.219,65.469L56.252,65.500L56.327,65.534L56.349,65.552L56.372,65.592L56.385,65.634L56.391,65.679L56.390,65.733L56.359,65.823L56.333,65.878L56.312,65.879L56.359,65.928L56.514,65.945L56.591,65.976L56.645,66.042L56.646,66.043L56.692,66.135L56.725,66.235L56.742,66.321L56.746,66.457L56.719,66.507L56.386,66.573L56.296,66.571L55.940,66.514L55.853,66.528L55.800,66.547L55.783,66.586L55.777,66.629L55.755,66.664L55.715,66.683L55.689,66.683L55.661,66.674L55.532,66.655L55.468,66.633L55.409,66.589L55.349,66.516L55.295,66.573L55.363,66.655L55.356,66.707L55.318,66.748L55.291,66.793L55.282,66.882L55.267,67.756L55.279,67.928L55.179,67.963L54.994,67.887L54.901,67.927L54.900,67.928L54.861,68.141L54.786,68.160L54.673,68.126L54.522,68.184L54.418,68.359L54.389,68.786L54.337,68.964L54.326,68.966L54.247,68.981L53.973,68.773L53.834,68.705L53.687,68.701L53.614,68.683L53.560,68.633L53.549,68.561L53.563,68.482L53.562,68.404L53.503,68.334L53.411,68.349L53.317,68.385L53.224,68.405L53.179,68.389L53.179,68.388L53.232,68.305L53.436,67.930L53.487,67.886L53.480,67.780L53.353,67.361L53.024,66.791L52.959,66.702L52.901,66.601L52.848,66.413L52.782,66.334L52.706,66.262L52.649,66.189L52.596,66.052L52.603,65.955L52.731,65.757L52.771,65.709L52.817,65.677L52.867,65.661L52.923,65.656L52.946,65.633L53.001,65.487L53.040,65.445L53.123,65.399L53.166,65.363L53.188,65.309L53.214,65.182L53.271,65.143L53.293,65.114L53.325,65.084L53.510,65.016L53.550,64.992L53.772,64.705L53.807,64.641L53.856,64.637L54.362,64.304L54.436,64.286L54.485,64.240L54.542,64.131L54.589,64.008L54.612,63.915L54.609,63.838L54.591,63.781L54.567,63.728L54.548,63.663L54.545,63.621L54.548,63.241L54.530,63.148L54.484,63.044L54.207,62.636L54.045,62.468L53.871,62.339L53.691,62.291L53.526,62.356L53.365,62.505L53.097,62.844L53.032,62.898L52.955,62.920L52.909,62.959L52.753,63.145L52.681,63.205L52.501,63.250L52.111,63.269L51.940,63.333L51.886,63.390L51.831,63.502L51.779,63.539L51.797,63.497L51.801,63.468L51.786,63.444L51.747,63.415L51.701,63.509L51.632,63.582L51.588,63.655L51.619,63.749L51.689,63.649L51.795,63.682L51.808,63.585L51.835,63.593L51.852,63.610L51.864,63.633L51.875,63.663L51.897,63.621L51.906,63.579L51.900,63.536L51.875,63.498L51.942,63.459L51.968,63.494L51.985,63.554L52.020,63.585L52.072,63.567L52.118,63.534L52.167,63.515L52.229,63.539L51.951,63.673L51.821,63.776L51.747,63.915L51.756,63.981L51.819,63.936L52.029,63.683L52.092,63.641L52.165,63.622L51.988,63.809L51.961,63.861L51.921,63.969L51.891,64.016L51.871,64.077L51.870,64.154L51.863,64.221L51.826,64.249L51.781,64.261L51.710,64.315L51.665,64.328L51.514,64.340L51.455,64.328L51.308,64.186L51.263,64.162L51.198,64.180L51.157,64.220L51.145,64.273L51.191,64.282L51.230,64.298L51.391,64.369L51.192,64.312L50.989,64.286L50.950,64.299L50.837,64.363L50.813,64.389L50.796,64.434L50.753,64.460L50.653,64.496L50.531,64.600L50.521,64.620L50.473,64.593L50.400,64.478L50.347,64.451L50.280,64.430L49.091,63.688L48.961,63.641L48.811,63.534L48.718,63.498L48.643,63.490L48.581,63.493L48.565,63.494L48.490,63.510L48.426,63.539L48.437,63.511L48.462,63.415L48.394,63.381L48.201,63.168L47.817,62.958L47.790,63.003L47.653,62.924L47.451,62.971L47.140,63.123L46.998,63.145L46.944,63.168L46.801,63.250L46.774,63.276L46.728,63.390L46.703,63.415L46.559,63.498L46.145,63.884L45.639,64.212L45.492,64.343L45.089,64.878L45.047,64.969L45.029,65.030L44.984,65.068L44.887,65.115L44.720,65.294L44.557,65.389L44.545,65.550L44.569,65.742L44.560,65.903L44.465,65.982L44.321,66.013L44.192,66.060L44.143,66.189L44.169,66.179L44.185,66.162L44.174,66.202L44.085,66.323L44.046,66.399L44.030,66.487L44.026,66.558L44.001,66.600L43.918,66.602L43.918,66.564L43.963,66.455L43.939,66.288L43.869,66.135L43.772,66.069L43.701,66.044L43.644,66.002L43.587,65.988L43.514,66.048L43.430,66.196L43.384,66.249L43.305,66.275L43.341,66.285L43.356,66.296L43.369,66.320L43.318,66.370L43.249,66.497L43.191,66.523L43.145,66.531L42.984,66.602L42.950,66.630L42.808,66.793L42.785,66.857L42.754,67.020L42.728,67.063L42.714,67.026L42.596,66.834L42.579,66.751L42.535,66.727L42.473,66.741L42.406,66.770L42.296,66.871L42.191,67.016L42.088,67.121L41.986,67.101L42.050,67.063L42.050,67.018L41.941,67.005L41.741,66.949L41.646,66.935L41.545,66.956L41.378,67.046L41.309,67.063L41.127,66.997L41.029,66.984L40.942,67.092L40.839,67.106L40.630,67.101L40.491,67.141L40.437,67.146L40.379,67.131L40.278,67.076L40.230,67.063L40.122,67.095L40.063,67.172L40.019,67.266L39.956,67.352L39.905,67.391L39.886,67.391L39.870,67.372L39.826,67.352L39.766,67.344L39.618,67.352L39.306,67.271L39.214,67.266L38.912,67.437L38.859,67.457L38.818,67.523L38.569,67.727L38.367,67.713L37.944,67.609L37.764,67.517L37.479,67.323L37.461,67.311L37.289,67.294L37.205,67.269L36.846,67.053L36.798,66.999L36.763,66.927L36.681,66.891L36.584,66.863L36.509,66.816L36.289,66.510L36.250,66.504L36.229,66.473L36.141,66.411L36.121,66.376L36.102,66.205L36.089,66.151L35.979,65.985L35.694,65.725L35.637,65.551L35.629,65.501L35.610,65.459L35.556,65.384L35.504,65.290L35.489,65.270L35.426,65.242L35.412,65.239L35.329,65.052L35.271,64.952L35.201,64.909L34.913,64.606L34.879,64.587L34.838,64.580L34.785,64.579L34.733,64.567L34.697,64.540L34.669,64.512L34.642,64.496L34.453,64.504L34.358,64.490L34.318,64.431L34.264,64.378L34.144,64.332L34.013,64.310L33.929,64.328L33.885,64.283L33.705,64.204L33.612,64.069L33.552,64.008L33.495,64.016L33.397,64.000L33.040,63.836L32.961,63.768L32.892,63.685L32.006,63.276L31.869,63.250L31.859,63.104L31.692,63.003L29.806,62.710L29.036,62.755L28.905,62.718L28.806,62.657L28.616,62.504L28.343,62.695L28.217,62.824L28.151,63.012L28.089,63.118L28.067,63.168L28.067,63.354L28.043,63.551L28.048,63.658L28.099,63.749L28.099,63.787L28.063,63.837L28.034,63.886L28.013,63.948L28.003,64.035L28.011,64.145L28.039,64.208L28.073,64.257L28.099,64.328L28.131,64.286L28.120,64.414L28.055,64.628L28.067,64.699L27.908,64.837L27.837,64.931L27.780,65.145L27.678,65.310L27.682,65.363L27.620,65.464L27.628,65.569L27.678,65.653L27.747,65.693L27.711,65.780L27.832,65.825L27.765,65.912L27.639,66.026L27.583,66.151L27.615,66.151L27.636,66.124L27.639,66.127L27.648,66.141L27.682,66.151L27.634,66.202L27.569,66.252L27.512,66.309L27.460,66.445L27.398,66.523L27.262,66.646L27.271,66.392L27.250,66.286L27.195,66.234L27.083,66.268L26.585,66.028L26.487,66.024L26.134,66.086L26.090,66.139L26.072,66.228L26.069,66.354L26.039,66.354L26.033,66.316L26.004,66.234L25.975,66.349L25.975,66.399L25.908,66.354L25.911,66.397L25.908,66.440L25.731,66.399L25.697,66.380L25.660,66.346L25.615,66.327L25.552,66.354L25.651,66.354L25.651,66.399L25.334,66.575L25.263,66.564L25.206,66.599L25.153,66.595L25.098,66.576L25.038,66.564L24.996,66.567L24.973,66.579L24.910,66.646L24.830,66.692L24.655,66.734L24.589,66.770L24.605,66.776L24.618,66.778L24.625,66.786L24.622,66.816L24.576,66.815L24.460,66.853L24.460,66.894L24.557,66.894L24.493,66.961L24.426,67.014L24.352,67.049L24.268,67.063L24.268,67.018L24.294,66.998L24.308,66.980L24.317,66.959L24.332,66.935L24.271,66.945L24.257,66.954L24.236,66.980L24.182,66.918L24.126,66.899L24.068,66.908L24.011,66.935L23.996,66.958L23.993,66.985L23.978,67.008L23.928,67.018L23.925,67.038L23.848,67.146L23.828,67.022L23.667,66.942L23.620,66.816L23.683,66.849L23.711,66.816L23.706,66.761L23.670,66.733L23.430,66.770L23.430,66.733L23.473,66.708L23.519,66.690L23.569,66.683L23.620,66.688L23.518,66.640L23.139,66.646L23.012,66.616L22.719,66.440L22.663,66.497L22.639,66.442L22.622,66.275L22.595,66.319L22.576,66.309L22.559,66.282L22.529,66.275L22.481,66.296L22.462,66.310L22.451,66.327L22.426,66.354L22.403,66.391L22.386,66.431L22.366,66.467L22.331,66.485L22.289,66.456L22.261,66.394L22.235,66.355L22.202,66.399L21.915,66.117L21.894,66.096L21.852,66.007L21.790,65.931L21.510,65.837L21.432,65.735L21.367,65.780L21.349,65.700L21.353,65.682L21.367,65.656L21.367,65.611L21.236,65.611L21.271,65.573L21.217,65.537L21.186,65.529L21.140,65.528L21.164,65.472L21.200,65.434L21.246,65.412L21.300,65.405L21.298,65.377L21.294,65.371L21.287,65.372L21.271,65.363L21.299,65.253L21.271,65.149L21.210,65.069L21.140,65.029L21.140,64.992L21.202,64.938L21.230,64.921L21.271,64.909L21.271,64.864L21.252,64.653L21.227,64.550L21.175,64.579L21.140,64.579L21.083,64.504L20.858,64.595L20.755,64.579L20.841,64.555L20.860,64.497L20.835,64.417L20.783,64.328L20.810,64.287L20.852,64.175L20.883,64.117L20.949,64.178L21.008,64.119L21.067,64.031L21.140,63.997L21.140,64.035L21.113,64.100L21.151,64.121L21.207,64.105L21.236,64.057L21.225,64.003L21.200,63.950L21.168,63.904L21.140,63.870L20.848,63.653L20.482,63.493L20.434,63.436L20.400,63.349L20.324,63.409L20.236,63.520L20.174,63.585L20.174,63.622L20.206,63.622L20.206,63.663L20.118,63.671L20.080,63.682L20.045,63.704L20.029,63.755L20.041,63.810L20.040,63.853L19.981,63.870L20.005,63.922L20.019,63.939L20.045,63.956L20.014,63.997L20.061,64.053L20.078,64.080L20.107,64.080L20.134,64.019L20.161,63.971L20.170,63.916L20.142,63.832L20.225,63.912L20.195,64.014L20.115,64.107L20.045,64.162L20.074,64.224L20.023,64.256L19.942,64.263L19.882,64.249L19.834,64.193L19.834,64.138L19.874,64.096L19.947,64.080L19.947,64.035L19.866,63.994L19.818,63.951L19.770,63.930L19.690,63.956L19.665,63.796L19.494,63.673L19.284,63.629L19.144,63.704L19.111,63.704L19.088,63.593L19.038,63.549L18.975,63.572L18.916,63.663L18.883,63.623L18.823,63.457L18.865,63.374L18.885,63.254L18.873,63.143L18.823,63.085L18.821,63.057L18.828,63.050L18.840,63.050L18.855,63.044L18.846,63.026L18.836,63.013L18.836,62.994L18.855,62.958L18.823,62.958L18.801,63.013L18.794,63.039L18.791,63.085L18.764,63.061L18.764,63.054L18.753,63.006L18.693,62.937L18.553,62.913L18.451,62.974L18.467,63.123L18.420,63.081L18.374,63.069L18.326,63.064L18.274,63.044L18.339,63.003L18.339,62.958L18.233,62.958L18.166,62.941L18.130,62.882L18.114,62.755L18.146,62.758L18.168,62.753L18.178,62.732L18.173,62.696L18.160,62.680L18.149,62.669L18.143,62.650L18.133,62.586L18.111,62.549L18.089,62.553L18.078,62.609L18.036,62.664L17.942,62.694L17.806,62.710L17.757,62.726L17.760,62.762L17.790,62.805L17.822,62.838L17.851,62.841L17.890,62.828L17.935,62.831L17.983,62.879L17.933,62.967L17.897,63.056L17.847,63.118L17.758,63.123L17.513,62.994L17.466,62.958L17.437,62.958L17.456,63.053L17.466,63.085L17.342,63.093L17.293,63.076L17.274,63.024L17.294,62.969L17.344,62.943L17.466,62.920L17.466,62.879L17.409,62.839L17.342,62.777L17.270,62.741L17.195,62.776L17.129,62.875L17.098,62.975L17.112,63.062L17.177,63.123L17.156,63.255L17.342,63.402L17.373,63.539L17.316,63.498L17.242,63.473L17.176,63.491L17.145,63.585L17.114,63.566L17.084,63.539L17.082,63.569L17.076,63.588L17.065,63.603L17.045,63.622L17.068,63.631L17.075,63.632L17.084,63.663L16.841,63.752L16.749,63.825L16.664,63.956L16.600,64.089L16.510,64.239L16.400,64.330L16.276,64.286L16.258,64.325L16.244,64.345L16.224,64.357L16.182,64.369L16.192,64.388L16.203,64.430L16.211,64.451L16.154,64.477L16.107,64.483L16.072,64.463L16.051,64.410L16.003,64.494L15.943,64.507L15.881,64.471L15.826,64.410L15.835,64.391L15.849,64.346L15.858,64.328L15.833,64.309L15.819,64.290L15.794,64.249L16.148,64.249L16.239,64.206L16.293,64.146L16.340,64.075L16.407,63.997L16.343,63.915L16.252,64.004L16.211,64.035L16.211,63.997L16.257,63.945L16.273,63.873L16.258,63.801L16.211,63.749L16.164,63.716L16.152,63.735L16.148,63.809L16.125,63.839L16.074,63.833L16.020,63.809L15.986,63.787L15.946,63.805L15.892,63.805L15.846,63.781L15.826,63.727L15.850,63.705L16.019,63.663L15.986,63.622L16.086,63.629L16.115,63.622L16.137,63.604L16.166,63.574L16.185,63.548L16.182,63.539L16.361,63.526L16.407,63.498L16.390,63.595L16.459,63.601L16.533,63.546L16.535,63.457L16.491,63.422L16.398,63.412L16.372,63.374L16.381,63.335L16.417,63.301L16.471,63.250L16.503,63.205L16.519,63.247L16.538,63.273L16.599,63.333L16.575,63.228L16.567,63.104L16.542,63.051L16.487,63.037L16.432,63.046L16.391,63.075L16.311,63.205L16.208,63.277L16.171,63.270L16.148,63.205L16.078,63.278L15.895,63.334L15.826,63.374L15.794,63.374L15.770,63.299L15.726,63.319L15.667,63.378L15.599,63.415L15.574,63.332L15.541,63.340L15.505,63.385L15.470,63.415L15.436,63.394L15.406,63.352L15.376,63.342L15.342,63.415L15.310,63.415L15.251,63.364L15.169,63.312L15.076,63.292L14.988,63.333L14.988,63.292L14.933,63.321L14.878,63.318L14.818,63.301L14.745,63.292L14.667,63.319L14.568,63.453L14.501,63.498L14.501,63.539L14.514,63.592L14.449,63.783L14.440,63.915L14.284,63.833L14.199,63.802L14.119,63.787L14.035,63.798L13.966,63.818L13.916,63.813L13.891,63.749L13.571,63.870L13.550,63.911L13.530,63.941L13.507,63.956L13.485,63.944L13.427,63.884L13.393,63.870L13.285,63.849L13.239,63.847L13.185,63.870L13.174,63.796L13.137,63.755L13.085,63.752L13.025,63.787L13.027,63.761L13.020,63.753L13.007,63.753L12.990,63.749L13.018,63.712L13.018,63.675L12.996,63.644L12.957,63.622L12.957,63.585L13.016,63.610L13.093,63.629L13.173,63.631L13.232,63.603L13.274,63.541L13.293,63.444L13.346,63.374L13.398,63.333L13.441,63.323L13.556,63.333L13.901,63.280L14.070,63.292L14.159,63.265L14.185,63.199L14.189,63.118L14.215,63.044L14.318,63.016L14.534,63.150L14.601,63.123L14.675,63.166L14.741,63.161L14.802,63.149L14.857,63.168L14.978,63.048L15.041,63.015L15.452,63.002L15.502,62.980L15.533,63.020L15.608,63.057L15.703,63.081L15.794,63.085L15.958,63.065L16.035,63.089L16.115,63.168L16.130,63.105L16.159,63.071L16.246,63.003L16.216,62.930L16.172,62.894L16.107,62.881L16.019,62.879L16.051,62.838L16.095,62.854L16.101,62.818L16.074,62.761L16.019,62.710L16.040,62.706L16.054,62.698L16.067,62.686L16.086,62.673L16.120,62.691L16.156,62.676L16.197,62.648L16.246,62.628L16.246,62.590L16.153,62.490L16.115,62.435L16.086,62.380L16.148,62.425L16.182,62.380L16.154,62.362L16.142,62.343L16.132,62.321L16.115,62.294L16.154,62.296L16.236,62.290L16.276,62.294L16.276,62.256L16.182,62.256L16.182,62.215L16.293,62.213L16.338,62.224L16.372,62.256L16.402,62.229L16.425,62.221L16.447,62.231L16.471,62.256L16.503,62.256L16.550,62.222L16.653,62.277L16.699,62.256L16.725,62.256L16.734,62.301L16.763,62.380L16.776,62.349L16.778,62.336L16.772,62.325L16.763,62.294L16.778,62.268L16.776,62.248L16.758,62.232L16.725,62.215L16.725,62.173L16.769,62.167L16.806,62.172L16.835,62.188L16.856,62.215L16.950,62.049L16.984,62.008L16.984,61.963L16.921,61.963L16.958,61.905L16.984,61.843L17.060,61.903L17.136,61.917L17.176,61.884L17.145,61.798L17.396,61.695L17.535,61.662L17.534,61.623L17.503,61.581L17.466,61.551L17.418,61.538L16.805,61.633L16.579,61.629L16.490,61.651L16.503,61.716L16.503,61.760L16.423,61.716L15.923,61.633L15.871,61.650L15.812,61.703L15.759,61.716L15.708,61.711L15.569,61.678L15.451,61.687L15.067,61.818L15.018,61.798L14.988,61.798L14.981,61.824L14.953,61.884L14.918,61.871L14.871,61.862L14.816,61.864L14.761,61.884L14.668,61.814L14.517,61.813L14.367,61.867L14.277,61.963L14.190,61.911L14.060,61.856L13.951,61.866L13.927,62.008L13.817,61.926L13.768,61.898L13.702,61.884L13.559,61.901L13.507,61.884L13.460,61.839L13.376,61.709L13.346,61.678L13.275,61.681L13.203,61.744L13.176,61.701L13.185,61.678L13.150,61.678L13.140,61.735L13.086,61.884L13.068,61.852L13.066,61.841L13.074,61.831L13.086,61.798L13.080,61.791L13.070,61.790L13.061,61.784L13.054,61.760L13.075,61.737L13.079,61.731L13.070,61.719L13.054,61.678L13.012,61.708L12.887,61.734L12.829,61.760L12.829,61.798L12.848,61.863L12.819,61.930L12.764,61.984L12.698,62.008L12.720,62.068L12.733,62.091L12.690,62.078L12.666,62.078L12.633,62.091L12.605,62.046L12.522,62.067L12.472,61.977L12.448,61.844L12.441,61.738L12.418,61.638L12.377,61.560L12.360,61.472L12.408,61.344L12.449,61.341L12.526,61.307L12.610,61.251L12.669,61.179L12.636,61.148L12.596,61.135L12.554,61.144L12.509,61.179L12.491,61.158L12.483,61.141L12.474,61.096L12.509,61.134L12.562,61.067L12.709,61.123L12.797,61.096L12.795,61.053L12.805,61.006L12.811,60.952L12.797,60.886L12.848,60.901L12.881,60.936L12.897,60.988L12.894,61.059L12.925,61.059L12.950,60.994L12.984,60.947L13.021,60.935L13.054,60.972L13.068,60.959L13.073,60.950L13.076,60.942L13.086,60.928L13.085,61.031L13.102,61.059L13.136,61.055L13.185,61.059L13.223,61.086L13.251,61.113L13.285,61.122L13.346,61.096L13.335,61.113L13.329,61.118L13.322,61.122L13.311,61.134L13.379,61.259L13.446,61.305L13.518,61.286L13.641,61.196L13.740,61.151L13.781,61.115L13.830,61.084L13.941,61.086L13.990,61.059L13.990,61.014L13.928,61.025L13.913,61.033L13.891,61.059L13.857,60.867L13.821,60.768L13.766,60.725L13.766,60.680L13.986,60.629L14.047,60.644L13.990,60.766L14.043,60.749L14.080,60.722L14.152,60.639L14.078,60.611L14.051,60.569L14.055,60.451L14.066,60.425L14.125,60.381L14.152,60.350L14.165,60.306L14.171,60.228L14.180,60.185L14.123,60.144L14.119,60.140L14.079,60.130L14.068,60.146L14.065,60.171L14.055,60.185L13.940,60.180L13.885,60.196L13.862,60.244L13.838,60.335L13.779,60.417L13.704,60.459L13.635,60.432L13.718,60.358L13.728,60.279L13.676,60.225L13.571,60.226L13.556,60.249L13.511,60.295L13.464,60.322L13.441,60.286L13.454,60.228L13.484,60.171L13.571,60.061L13.565,60.013L13.588,59.949L13.595,59.867L13.542,59.768L13.507,59.768L13.487,59.937L13.382,59.998L13.251,59.975L13.150,59.892L13.112,59.758L13.150,59.635L13.236,59.538L13.346,59.483L13.290,59.391L13.199,59.350L13.181,59.351L13.102,59.354L13.025,59.396L12.982,59.475L12.960,59.553L12.912,59.605L12.797,59.603L12.797,59.648L12.866,59.695L12.837,59.720L12.561,59.738L12.496,59.763L12.441,59.813L12.407,59.766L12.374,59.741L12.342,59.740L12.313,59.768L12.305,59.724L12.298,59.704L12.281,59.685L12.244,59.712L12.231,59.716L12.218,59.704L12.181,59.685L12.228,59.630L12.260,59.570L12.269,59.506L12.249,59.438L12.320,59.403L12.348,59.396L12.348,59.355L12.307,59.238L12.330,58.963L12.249,58.988L12.222,58.952L12.190,58.952L12.156,58.979L12.120,59.025L12.140,58.923L12.167,58.833L12.180,58.746L12.152,58.653L12.169,58.614L12.151,58.588L12.133,58.553L12.152,58.485L12.226,58.535L12.268,58.440L12.282,58.305L12.265,58.237L12.196,58.212L11.925,58.030L11.514,57.915L11.338,57.821L11.382,57.697L11.465,57.673L11.780,57.697L11.882,57.683L12.286,57.532L12.349,57.487L12.457,57.346L12.491,57.254L12.509,57.118L12.514,56.988L12.509,56.912L12.472,56.856L12.428,56.805L12.399,56.734L12.408,56.620L12.425,56.597L12.486,56.543L12.509,56.500L12.523,56.444L12.532,56.394L12.529,56.345L12.509,56.289L12.576,56.229L12.536,56.094L12.408,55.873L12.291,55.915L12.119,55.915L11.948,55.884L11.832,55.836L11.807,55.802L11.790,55.759L11.763,55.723L11.716,55.707L11.678,55.706L11.641,55.697L11.614,55.679L11.604,55.648L11.589,55.554L11.547,55.523L11.411,55.501L11.169,55.405L11.046,55.392L10.898,55.422L10.815,55.456L10.783,55.460L10.760,55.480L10.747,55.524L10.727,55.568L10.688,55.588L10.649,55.556L10.542,55.340L10.567,55.263L10.562,55.174L10.540,55.085L10.510,55.006L10.462,54.923L10.358,54.818L10.314,54.758L10.232,54.801L10.210,54.727L10.220,54.548L10.157,54.489L10.084,54.496L10.002,54.528L9.913,54.548L9.619,54.550L9.573,54.569L9.512,54.961L9.489,54.944L9.487,54.939L9.477,54.923L9.447,54.923L9.461,55.009L9.461,55.087L9.437,55.145L9.380,55.171L9.350,55.145L9.295,54.997L9.252,54.923L9.249,55.050L9.201,55.060L9.137,55.011L9.046,54.909L9.015,54.859L9.006,54.798L9.024,54.713L8.895,54.748L8.777,54.647L8.662,54.518L8.546,54.466L8.567,54.562L8.577,54.589L8.546,54.589L8.521,54.552L8.417,54.447L8.425,54.385L8.438,54.331L8.439,54.278L8.417,54.218L8.385,54.218L8.346,54.380L8.247,54.420L8.128,54.379L7.975,54.248L7.931,54.221L7.686,54.144L7.679,54.105L7.706,54.011L7.831,54.066L7.882,53.983L7.927,53.873L8.029,53.847L8.029,53.801L7.941,53.740L7.928,53.630L7.966,53.564L8.029,53.636L8.037,53.580L8.049,53.556L8.067,53.542L8.093,53.516L8.112,53.590L8.115,53.654L8.101,53.711L8.061,53.764L8.084,53.783L8.109,53.794L8.137,53.800L8.175,53.801L8.211,53.812L8.221,53.836L8.228,53.864L8.257,53.884L8.325,53.889L8.393,53.875L8.425,53.835L8.385,53.764L8.385,53.723L8.459,53.771L8.488,53.772L8.546,53.764L8.601,53.739L8.720,53.655L8.756,53.636L8.821,53.582L8.826,53.461L8.783,53.335L8.706,53.268L8.706,53.224L8.825,53.280L8.883,53.344L8.924,53.337L8.995,53.182L8.928,53.142L8.813,53.035L8.717,52.999L8.655,52.941L8.609,52.934L8.567,52.960L8.531,53.041L8.498,53.058L8.407,53.053L8.408,53.028L8.451,52.966L8.482,52.852L8.463,52.779L8.321,52.563L8.350,52.604L8.337,52.531L8.279,52.348L8.272,52.311L8.276,52.272L8.222,52.043L8.224,51.958L8.234,51.869L8.258,51.799L8.304,51.771L8.374,51.759L8.478,51.705L8.530,51.692L8.655,51.703L8.772,51.733L8.876,51.783L8.960,51.854L9.120,52.029L9.196,52.139L9.220,52.232L9.329,52.408L9.447,52.563L9.489,52.604L9.520,52.628L9.547,52.661L9.573,52.728L9.582,52.795L9.580,52.854L9.583,52.911L9.608,52.972L9.577,52.998L9.560,53.007L9.541,53.013L9.504,52.979L9.455,52.968L9.401,52.980L9.348,53.013L9.428,53.056L9.427,53.111L9.387,53.181L9.348,53.268L9.459,53.283L9.508,53.349L9.537,53.441L9.590,53.535L9.672,53.812L9.748,53.942L9.849,53.906L9.874,53.830L9.844,53.778L9.768,53.723L9.736,53.471L9.761,53.367L9.814,53.262L9.885,53.199L9.964,53.224L9.964,53.182L9.993,53.182L10.046,53.243L10.101,53.353L10.188,53.599L10.210,53.586L10.264,53.567L10.285,53.554L10.321,53.632L10.390,53.623L10.474,53.579L10.558,53.554L10.930,53.516L11.161,53.404L11.236,53.388L11.258,53.377L11.320,53.323L11.347,53.306L11.395,53.308L11.439,53.327L11.484,53.335L11.540,53.306L11.547,53.330L11.572,53.306L11.701,53.368L11.810,53.297L11.921,53.178L12.057,53.100L12.057,53.058L12.011,53.022L11.990,53.026L11.957,53.058L11.925,53.013L11.834,53.055L11.676,53.038L11.636,53.058L11.515,52.999L11.389,53.004L11.095,53.128L10.996,53.174L10.981,53.170L11.026,53.100L10.945,53.043L10.803,52.809L10.739,52.769L10.623,52.732L10.576,52.702L10.471,52.618L10.413,52.518L10.482,52.587L10.565,52.652L10.693,52.732L10.766,52.728L10.766,52.687L10.710,52.617L10.650,52.562L10.585,52.517L10.510,52.480L10.529,52.409L10.554,52.260L10.574,52.188L10.505,52.122L10.462,52.143L10.409,52.186L10.314,52.188L10.335,52.125L10.349,52.101L10.247,52.065L10.189,52.057L10.124,52.064L10.133,52.036L10.145,51.968L10.154,51.940L10.092,51.938L10.048,51.915L9.964,51.854L9.997,51.815L10.032,51.787L10.074,51.772L10.124,51.771L10.030,51.630L9.995,51.551L9.964,51.441L10.051,51.381L10.292,51.329L10.430,51.232L10.456,51.243L10.473,51.264L10.480,51.276L10.488,51.282L10.541,51.290L10.587,51.291L10.694,51.341L10.760,51.362L10.831,51.359L10.801,51.276L10.848,51.243L10.886,51.205L10.923,51.192L10.962,51.235L10.976,51.187L10.979,51.142L10.973,51.090L10.962,51.028L10.930,51.073L10.835,50.904L10.801,50.863L10.991,50.780L11.020,50.910L11.100,50.926L11.150,50.847L11.090,50.694L11.169,50.669L11.242,50.630L11.303,50.583L11.347,50.533L11.442,50.597L11.543,50.533L11.579,50.438L11.478,50.409L11.556,50.246L11.556,50.179L11.478,50.116L11.398,50.188L11.345,50.225L11.290,50.238L11.203,50.240L11.179,50.221L11.132,50.135L11.108,50.116L11.049,50.135L11.010,50.166L10.975,50.172L10.930,50.116L10.877,50.165L10.716,50.260L10.655,50.277L10.606,50.252L10.533,50.142L10.463,50.116L10.375,50.055L10.331,49.916L10.340,49.764L10.413,49.662L10.413,49.621L10.389,49.624L10.314,49.621L10.374,49.549L10.481,49.468L10.598,49.401L10.688,49.373L10.735,49.321L10.698,49.204L10.588,49.021L10.456,48.853L10.390,48.802L10.244,48.726L10.209,48.707L10.117,48.638L10.052,48.561L10.057,48.499L10.020,48.378L9.999,48.257L9.962,48.164L9.881,48.128L9.655,48.140L9.541,48.131L9.447,48.090L9.495,48.042L9.522,47.920L9.557,47.859L9.618,47.834L9.661,47.860L9.657,47.901L9.573,47.921L9.573,47.959L9.624,47.956L9.667,47.975L9.704,48.006L9.736,48.045L9.709,47.952L9.734,47.904L9.785,47.876L9.833,47.842L9.915,47.717L10.413,47.339L10.370,47.305L10.349,47.298L10.349,47.260L10.356,47.220L10.357,47.184L10.349,47.133L10.520,47.120L10.583,47.095L10.641,47.050L10.589,46.962L10.663,46.903L10.936,46.817L10.955,46.805L10.954,46.783L10.962,46.720L11.026,46.491L11.020,46.362L10.991,46.279L10.919,46.234L10.783,46.221L10.675,46.266L10.589,46.348L10.499,46.387L10.381,46.303L9.720,46.423L8.731,46.603L8.625,46.646L8.577,46.699L8.529,46.699L8.322,46.817L8.286,46.844L8.229,46.844L7.981,46.799L7.931,46.806L7.869,46.837L7.819,46.844L7.777,46.895L7.769,46.908L7.755,46.939L7.723,46.927L7.673,46.885L7.302,46.977L7.114,46.978L6.932,46.885L6.912,46.753L7.030,46.437L7.103,46.139L7.280,45.969L7.320,45.829L7.352,45.496L7.332,45.432L7.244,45.263L7.224,45.185L7.231,45.131L7.251,45.111L7.273,45.097L7.288,45.062L7.288,44.917L7.312,44.759L7.296,44.705L7.224,44.690L7.250,44.621L7.320,44.319L7.317,44.282L7.291,44.163L7.288,44.108L7.301,44.055L7.343,43.973L7.352,43.922L7.371,43.868L7.470,43.697L7.513,43.654L7.764,43.739L7.838,43.689L7.995,43.621L8.045,43.590L8.244,43.393L8.286,43.324L8.299,43.274L8.305,43.196L8.321,43.159L8.324,43.135L8.320,43.108L8.320,43.086L8.336,43.076L8.387,43.078L8.412,43.072L8.432,43.054L8.462,42.977L8.480,42.868L8.478,42.753L8.446,42.663L8.477,42.575L8.501,42.537L8.534,42.530L8.593,42.532L8.658,42.519L8.781,42.462L8.937,42.420L9.025,42.347L9.233,42.074L9.275,42.048L9.316,42.033L9.380,41.999L9.440,41.952L9.943,41.346L10.041,41.268L10.235,41.256L10.641,41.290L10.801,41.252L10.853,41.267L10.976,41.335L11.244,41.358L11.347,41.335L11.478,41.231L11.594,41.087L11.737,40.973L11.957,40.963L12.117,40.994L12.297,41.001L12.401,40.976L12.561,40.879L12.633,40.877L12.711,40.936L12.759,41.023L12.829,41.208L12.765,41.252L12.733,41.252L12.712,41.226L12.710,41.223L12.703,41.235L12.669,41.252L12.871,41.469L13.132,41.640L13.411,41.761L13.744,41.841L13.876,41.841L13.927,41.831L14.091,41.723L14.166,41.707L14.297,41.736L14.411,41.789L14.519,41.811L14.633,41.748L14.729,41.790L14.870,41.801L14.997,41.770L15.108,41.609L15.362,41.478L15.438,41.372L15.352,41.369L15.117,41.290L15.048,41.332L15.007,41.332L14.988,41.271L14.979,41.211L14.952,41.194L14.921,41.190L14.892,41.166L14.861,41.118L14.840,41.092L14.830,41.058L14.825,40.982L14.811,40.941L14.776,40.932L14.734,40.932L14.697,40.918L14.543,40.768L14.501,40.708L14.501,40.671L14.558,40.646L14.604,40.613L14.681,40.526L14.731,40.500L14.773,40.526L14.811,40.535L14.857,40.461L14.947,40.575L14.953,40.592L14.996,40.599L15.009,40.582L15.023,40.559L15.067,40.547L15.844,40.667L16.052,40.738L16.148,40.839L16.065,40.981L15.656,41.187L15.534,41.290L15.555,41.445L15.726,41.495L16.115,41.459L16.512,41.313L17.622,41.265L17.868,41.305L18.274,41.290L18.224,41.302L18.184,41.324L18.156,41.360L18.143,41.414L18.334,41.343L18.550,41.342L18.773,41.399L18.984,41.500L19.012,41.463L19.030,41.471L19.047,41.493L19.079,41.500L19.121,41.482L19.170,41.434L19.208,41.414L19.473,41.372L19.545,41.313L19.615,41.274L19.706,41.287L19.866,41.335L20.008,41.343L20.142,41.372L20.207,41.402L20.317,41.471L20.399,41.500L20.483,41.512L20.847,41.504L20.930,41.487L20.996,41.436L21.034,41.358L21.076,41.195L21.111,41.125L21.170,41.150L21.246,41.147L21.328,41.121L21.399,41.084L21.315,40.983L21.211,40.890L21.100,40.821L20.996,40.794L20.739,40.794L20.698,40.814L20.594,40.899L20.544,40.918L20.295,40.861L19.880,40.606L19.625,40.547L19.712,40.363L19.873,40.258L20.206,40.130L20.347,40.041L20.546,39.842L20.623,39.810L22.011,39.682L22.207,39.616L22.397,39.511L22.495,39.436L22.529,39.428L22.564,39.460L22.601,39.517L22.647,39.556L22.702,39.530L22.745,39.503L22.804,39.480L22.856,39.451L22.878,39.406L22.897,39.361L22.940,39.330L22.993,39.311L23.043,39.301L23.090,39.310L23.167,39.346L23.236,39.417L23.267,39.530L23.319,39.530L24.228,39.327L24.764,39.301L24.935,39.377L25.032,39.376L25.103,39.264L25.055,39.125L24.872,39.092L24.492,39.140L24.460,39.150L24.426,39.167L24.385,39.180L24.332,39.181L24.278,39.157L24.184,39.072L24.154,39.053L24.079,39.040L23.915,38.983L23.819,38.971L22.702,39.016L22.615,39.045L22.541,39.100L22.463,39.134L22.365,39.098L22.325,39.047L22.305,38.991L22.283,38.946L22.234,38.929L22.253,38.917L22.265,38.904L22.279,38.893L22.302,38.884L22.283,38.824L22.254,38.781L22.216,38.750L22.170,38.723L22.149,38.761L22.106,38.723L22.067,38.758L22.011,38.778L21.884,38.806L21.884,38.768L21.929,38.763L21.960,38.739L21.976,38.697L21.978,38.637L22.023,38.666L22.042,38.682L22.039,38.656L22.043,38.643L22.055,38.638L22.074,38.637L22.021,38.559L21.928,38.449L21.880,38.415L21.820,38.372L21.723,38.389L21.634,38.303L21.368,38.181L21.271,38.104L21.174,37.984L21.078,37.906L20.819,37.770L20.838,37.758L20.842,37.755L20.842,37.749L20.851,37.725L20.796,37.702L20.773,37.638L20.756,37.556L20.723,37.478L20.809,37.431L20.904,37.326L20.980,37.201L21.045,36.970L21.101,36.883L21.113,36.810L21.012,36.738L21.122,36.571L21.298,36.381L21.485,36.253L21.627,36.276L21.656,36.276L21.703,36.215L21.777,36.207L22.660,36.366L23.596,36.580L24.846,36.761L26.032,36.793L26.165,36.775L26.235,36.746L26.345,36.667L26.409,36.651L26.453,36.616L26.487,36.547L26.519,36.499L26.556,36.528L26.606,36.478L26.663,36.385L26.716,36.359L26.778,36.408L26.971,36.448L27.128,36.566L28.675,36.927L28.832,37.061L28.905,37.106L29.306,37.179L30.515,37.147L30.631,37.081L30.676,37.069L30.734,37.072L30.834,37.099L30.886,37.106L31.079,37.069L31.107,37.074L31.152,37.100L31.176,37.106L31.212,37.095L31.222,37.071L31.232,37.043L31.260,37.023L31.454,36.949L31.611,36.853L31.869,36.607L31.936,36.523L31.975,36.440L31.994,36.343L31.998,36.215L32.008,36.160L32.052,36.040L32.062,35.967L32.041,35.934L31.952,35.876L31.936,35.826L31.987,35.749L32.088,35.712L32.304,35.698L32.330,35.673L32.406,35.560L32.432,35.534L32.480,35.523L33.187,35.256L34.187,34.611L34.759,34.340L34.930,34.209L34.976,34.182L35.421,34.038L35.552,33.962L35.629,33.811L35.935,33.472L35.958,33.441L36.029,33.308L36.187,33.264L36.445,33.252L36.454,33.214L36.492,33.201L36.541,33.173L36.551,33.131L36.564,33.103L36.589,33.091L36.611,33.104L36.654,33.162L36.670,33.173L36.752,33.134L36.857,33.022L36.926,32.963L37.251,32.798L37.305,32.760L37.369,32.730L37.437,32.723L37.507,32.757L37.562,32.662L37.671,32.586L37.798,32.560L37.908,32.614L37.984,32.606L38.272,32.504L38.342,32.468L38.412,32.475L38.545,32.464L38.681,32.434L38.761,32.385L38.813,32.412L39.145,32.331L39.313,32.256L39.530,32.116L40.270,31.876L41.017,31.501L41.189,31.491L41.534,31.552L42.033,31.552L42.140,31.569L42.376,31.654L43.381,31.751L43.466,31.721L43.599,31.771L44.210,31.721L45.751,31.931L46.288,31.780L46.463,31.766L46.538,31.786L46.671,31.854L46.834,31.907L47.457,31.943L47.702,31.916L47.948,31.844L48.025,31.803L48.203,31.667L48.373,31.569L48.513,31.401L48.621,31.197L48.651,31.019L48.716,31.041L48.851,31.065L48.911,31.101L48.922,31.064L48.942,31.055L48.970,31.059L49.007,31.057L49.041,31.128L49.091,31.180L49.124,31.222L49.104,31.267L49.104,31.304L49.278,31.439L49.386,31.484L49.524,31.473L49.573,31.444L49.649,31.365L49.700,31.349L49.770,31.359L49.815,31.386L49.912,31.473L49.912,31.514L49.659,31.485L49.541,31.498L49.443,31.574L49.400,31.666L49.359,31.799L49.332,31.938L49.328,32.051L49.358,32.144L49.486,32.370L49.627,32.549L49.879,32.757L49.879,32.798L49.815,32.798L49.844,32.877L49.890,32.974L49.951,33.056L50.087,33.124L50.223,33.284L50.296,33.338L50.576,33.449L50.780,33.481L50.857,33.530L51.006,33.668L51.179,33.762L51.387,33.827L51.606,33.855L51.808,33.837L51.908,33.797L52.085,33.690L52.376,33.641L52.873,33.438L52.985,33.421L53.097,33.385L53.289,33.234L53.393,33.210L53.393,33.252L53.373,33.289L53.346,33.326L53.309,33.357L53.262,33.376L53.269,33.467L53.180,33.655L53.198,33.755L53.232,33.755L53.242,33.610L53.287,33.477L53.351,33.369L53.419,33.297L53.469,33.257L53.492,33.250L53.775,33.503L53.775,33.421L53.807,33.421L54.162,33.867L54.228,34.040L54.228,34.287L54.212,34.347L54.171,34.447L54.164,34.475L54.160,34.673L54.178,34.765L54.228,34.869L54.437,35.123L54.559,35.204L54.709,35.492L54.787,35.553L55.022,35.676L55.156,35.708L55.181,35.736L55.194,35.782L55.197,35.845L55.212,35.916L55.252,35.947L55.304,35.963L55.357,35.987L55.383,36.016L55.430,36.088L55.453,36.112L55.500,36.129L55.588,36.140L55.629,36.173L55.716,36.208L55.834,36.181L56.031,36.074L56.279,35.861L56.320,35.804L56.335,35.745L56.401,35.635L56.416,35.597L56.426,35.584L56.457,35.456L56.448,35.447L56.510,35.394L56.574,35.400L56.652,35.429L56.754,35.447L57.160,35.447L57.529,35.541L58.226,35.881L58.369,36.002L58.447,36.194L58.456,36.460L58.484,36.564L58.562,36.607L58.661,36.629L58.841,36.736L58.934,36.775L59.536,36.768L59.704,36.813L59.813,36.912L59.865,36.940L59.964,36.971L60.074,36.982L60.156,37.006L60.269,37.132L60.349,37.192L60.542,37.252L60.560,37.286L60.670,37.402L60.764,37.437L60.952,37.417L61.027,37.440L61.054,37.407L61.120,37.382L61.155,37.357L61.190,37.308L61.251,37.147L61.307,37.048L61.377,36.951L61.457,36.868L61.540,36.813L61.581,36.912L61.659,36.968L61.749,36.969L61.829,36.899L61.861,36.940L61.982,36.921L61.988,37.299L62.071,37.402L62.313,37.519L62.378,37.568L62.426,37.628L62.508,37.770L62.692,37.692L62.912,37.721L63.479,37.906L63.757,37.952L63.945,38.017L64.052,38.018L64.260,37.962L64.349,37.981L64.554,38.158L64.650,38.158L64.829,38.104L65.005,38.154L65.125,38.165L65.178,38.123L65.534,38.104L65.607,38.055L65.780,37.888L65.842,37.853L65.993,37.807L66.051,37.811L66.080,37.837L66.153,37.937L66.185,37.972L66.232,37.948L66.322,37.947L66.372,37.935L66.405,37.909L66.445,37.867L66.493,37.828L66.549,37.811L66.644,37.702L66.661,37.667L66.683,37.651L66.787,37.615L67.116,37.547L67.194,37.498L67.269,37.434L67.359,37.404L67.896,37.400L68.275,37.316L68.317,37.290L68.435,37.192L68.491,37.180L68.646,37.192L68.734,37.221L68.879,37.341L68.984,37.357L69.063,37.330L69.191,37.250L69.286,37.233L69.341,37.215L69.594,37.069L69.622,37.043L69.639,37.018L69.666,36.997L69.722,36.982L70.017,37.051L70.084,37.117L70.203,37.271L70.483,37.510L70.662,37.611L70.848,37.646L70.943,37.617L71.038,37.571L71.132,37.558L71.259,37.648L71.312,37.653L71.415,37.646L71.457,37.660L71.737,37.878L71.820,37.917L71.911,37.935L71.987,37.881L72.283,37.781L72.398,37.770L72.668,38.017L72.804,38.107L72.993,38.142L73.072,38.129L73.212,38.072L73.320,38.047L73.489,37.983L73.598,37.912L73.816,37.853L74.586,37.357L74.750,37.428L74.889,37.443L75.021,37.405L75.167,37.316L75.345,37.165L75.408,37.147L75.554,37.130L75.626,37.106L75.684,37.069L75.963,36.705L76.291,36.465L76.345,36.445L76.416,36.457L76.617,36.528L76.736,36.509L76.913,36.388L76.990,36.359L77.089,36.346L77.198,36.309L77.303,36.256L77.391,36.194L77.576,36.004L77.673,35.936L77.792,35.909L77.914,35.901L77.999,35.874L78.442,35.523L78.561,35.481L78.662,35.427L78.713,35.410L78.877,35.388L78.938,35.368L79.025,35.302L79.096,35.196L79.144,35.067L79.162,34.933L79.211,34.904L79.486,34.667L79.551,34.553L80.051,34.757L80.111,34.768L80.251,34.757L80.369,34.705L80.405,34.705L80.412,34.729L80.406,34.774L80.405,34.824L80.425,34.862L80.480,34.883L80.618,34.900L80.680,34.920L80.867,35.088L80.924,35.112L80.970,35.086L81.158,34.930L81.305,34.726L81.370,34.678L81.559,34.605L81.896,34.729L82.062,34.678L82.130,34.647L82.196,34.638L82.262,34.649L82.329,34.678L82.477,34.637L82.548,34.640L82.615,34.678L82.693,34.750L82.806,34.759L83.037,34.746L83.862,35.057L83.924,35.054L83.981,35.051L84.078,34.989L84.219,34.783L84.321,34.678L84.368,34.581L84.413,34.335L84.461,34.233L84.555,34.163L84.562,34.161L84.582,34.154L84.674,34.125L84.911,34.105L85.569,34.160L85.658,34.202L85.622,34.258L85.606,34.319L85.597,34.379L85.577,34.433L85.539,34.477L85.447,34.553L85.407,34.613L85.528,34.682L85.617,34.777L85.705,34.805L85.821,34.676L85.884,34.638L85.918,34.677L85.944,34.752L85.983,34.820L86.019,34.841L86.157,34.886L86.186,34.912L86.205,34.940L86.228,34.964L86.270,34.980L86.306,35.020L86.446,35.276L86.514,35.348L86.860,35.577L87.087,35.770L87.232,35.837L87.370,35.854L87.376,35.886L87.313,35.973L87.244,36.031L86.990,36.158L87.117,36.197L87.221,36.186L87.314,36.197L87.409,36.302L87.521,36.570L87.589,36.618L88.021,36.501L88.159,36.491L88.307,36.530L88.435,36.603L88.562,36.718L88.629,36.860L88.575,37.018ZM16.065,31.782L16.130,32.072L16.131,32.137L16.154,32.153L16.185,32.191L16.205,32.238L16.197,32.280L16.154,32.306L16.106,32.297L16.019,32.261L15.941,32.264L15.880,32.297L15.840,32.379L15.826,32.529L15.854,32.691L15.924,32.801L16.009,32.894L16.086,33.004L16.175,33.276L16.229,33.357L16.315,33.433L16.355,33.478L16.377,33.541L16.389,33.552L16.401,33.569L16.407,33.606L16.395,33.629L16.369,33.627L16.346,33.630L16.343,33.668L16.377,33.763L16.443,33.873L16.518,33.965L16.653,34.041L16.721,34.129L16.821,34.287L17.080,34.524L17.792,34.957L18.810,35.380L20.257,36.050L20.723,36.153L20.747,36.162L20.758,36.176L20.771,36.188L20.801,36.194L20.837,36.181L20.867,36.124L20.899,36.112L21.010,36.128L21.129,36.172L21.200,36.239L21.156,36.390L21.095,36.502L21.013,36.606L20.933,36.651L20.879,36.669L20.891,36.709L20.929,36.756L20.957,36.806L20.987,36.849L20.996,36.858L21.019,36.875L21.010,36.909L20.990,36.939L20.980,36.940L20.962,37.060L20.929,37.168L20.885,37.261L20.835,37.336L20.796,37.367L20.713,37.393L20.674,37.421L20.638,37.474L20.631,37.506L20.633,37.531L20.638,37.559L20.652,37.579L20.651,37.612L20.623,37.646L20.602,37.652L20.501,37.644L20.461,37.610L20.434,37.605L20.407,37.621L20.366,37.676L20.350,37.687L20.299,37.701L20.213,37.757L20.027,37.795L19.981,37.811L19.955,37.832L19.935,37.857L19.905,37.880L19.850,37.894L19.735,37.888L19.681,37.870L19.657,37.832L19.607,37.787L19.489,37.782L18.925,37.853L18.784,37.795L18.823,37.605L18.768,37.548L18.735,37.529L18.691,37.519L18.724,37.382L18.677,37.260L18.580,37.175L18.467,37.147L18.491,37.235L18.593,37.338L18.630,37.440L18.632,37.501L18.620,37.588L18.588,37.672L18.531,37.725L18.395,37.706L18.152,37.463L18.032,37.402L17.876,37.376L17.550,37.260L17.387,37.233L17.227,37.233L17.189,37.219L17.137,37.160L17.098,37.147L16.923,37.187L16.840,37.192L16.807,37.173L16.763,37.147L16.538,37.231L16.503,37.252L16.457,37.252L16.197,37.357L16.127,37.374L16.047,37.416L15.973,37.468L15.923,37.519L15.818,37.684L15.787,37.763L15.794,37.811L15.709,37.837L15.331,37.792L15.260,37.746L15.194,37.692L15.117,37.646L14.933,37.596L14.753,37.586L13.749,37.727L13.603,37.811L13.502,38.014L13.384,38.498L13.282,38.682L12.840,39.107L12.638,39.454L12.216,39.759L12.190,39.788L12.141,39.860L12.120,39.883L12.070,39.900L11.956,39.915L11.826,39.997L11.607,39.993L11.508,40.007L11.428,40.071L11.291,40.260L11.236,40.299L11.113,40.316L11.049,40.325L10.869,40.378L10.597,40.545L10.526,40.611L10.443,40.666L10.154,40.708L10.066,40.761L9.913,40.892L9.849,40.918L9.796,40.954L9.753,41.134L9.704,41.208L9.552,41.289L9.521,41.335L9.512,41.436L9.482,41.534L9.411,41.615L9.153,41.848L9.121,41.872L8.983,41.905L8.921,41.955L8.821,42.055L8.820,42.078L8.797,42.101L8.674,42.247L8.588,42.316L8.481,42.381L8.369,42.430L8.272,42.449L8.208,42.500L8.223,42.611L8.282,42.725L8.350,42.780L8.125,42.990L8.055,43.043L7.867,43.148L7.725,43.280L7.667,43.316L7.418,43.401L7.368,43.406L7.323,43.373L7.335,43.302L7.373,43.229L7.400,43.196L7.477,43.138L7.530,43.011L7.567,42.883L7.592,42.825L7.804,42.532L7.862,42.315L7.838,42.149L7.749,42.020L7.609,41.913L7.657,41.873L7.673,41.833L7.652,41.801L7.592,41.789L7.570,41.762L7.613,41.704L7.675,41.652L7.706,41.643L7.759,41.595L8.000,41.503L8.093,41.500L8.163,41.378L8.397,41.230L8.618,41.049L8.895,40.948L9.103,40.773L9.237,40.688L9.383,40.622L9.512,40.592L9.732,40.620L9.798,40.592L9.861,40.525L9.960,40.374L10.028,40.299L10.138,40.353L10.289,40.304L10.422,40.195L10.480,40.068L10.336,39.769L10.299,39.714L10.253,39.721L9.941,39.770L9.831,39.823L9.768,39.842L9.447,39.842L9.319,39.881L8.960,40.089L8.826,40.001L8.751,39.974L8.674,39.965L8.609,39.989L8.536,40.031L8.462,40.055L8.337,39.993L8.257,40.002L8.006,40.073L7.135,40.068L7.012,40.048L6.945,40.009L6.905,39.916L6.876,39.806L6.836,39.714L6.869,39.622L6.856,39.490L6.809,39.357L6.739,39.264L6.775,39.254L6.790,39.243L6.967,39.261L7.111,39.192L7.215,39.070L7.255,38.909L7.327,38.797L7.580,38.584L7.547,38.518L7.551,38.478L7.564,38.458L7.611,38.436L7.594,38.431L7.582,38.429L7.576,38.419L7.579,38.391L7.622,38.379L7.642,38.366L7.647,38.334L7.646,38.271L7.670,38.328L7.676,38.353L7.708,38.353L7.741,38.318L7.769,38.263L7.807,38.143L7.836,38.143L7.852,38.177L7.877,38.204L7.910,38.223L7.950,38.229L8.012,38.212L8.009,38.173L7.981,38.131L7.967,38.105L8.024,38.049L8.158,37.987L8.224,37.937L8.271,37.875L8.258,37.855L8.212,37.833L8.163,37.771L8.149,37.718L8.162,37.679L8.203,37.656L8.274,37.647L8.314,37.615L8.346,37.544L8.342,37.474L8.217,37.414L8.177,37.350L8.111,37.214L8.099,37.127L8.179,36.970L8.145,36.942L8.075,36.923L8.075,36.873L8.163,36.739L8.107,36.635L8.093,36.528L8.113,36.410L8.163,36.278L8.090,36.173L8.143,36.126L8.440,36.096L8.521,36.056L8.644,35.947L8.776,35.865L8.802,35.837L8.814,35.810L8.834,35.790L8.884,35.782L9.123,35.535L9.172,35.596L9.261,35.645L9.362,35.671L9.450,35.663L9.510,35.604L9.553,35.500L9.576,35.374L9.575,35.246L9.555,35.124L9.479,34.829L9.455,34.604L9.433,34.500L9.383,34.413L9.412,34.353L9.394,34.196L9.415,34.124L9.397,34.090L9.386,34.049L9.382,34.004L9.383,33.959L9.293,34.089L9.246,34.042L9.033,33.935L8.766,33.741L8.808,33.665L8.822,33.577L8.747,33.558L8.665,33.524L8.484,33.479L8.357,33.366L8.274,33.340L8.150,33.351L8.103,33.287L8.070,33.165L8.088,33.034L8.154,32.888L8.349,32.725L8.832,32.745L9.057,32.679L9.120,32.596L9.159,32.485L9.178,32.375L9.182,32.332L9.186,32.295L9.191,32.263L9.211,32.210L9.215,32.176L9.201,32.156L9.144,32.121L9.136,32.097L9.155,32.058L9.184,32.030L9.219,32.005L9.354,31.865L9.431,31.813L9.515,31.803L9.957,31.874L10.047,31.864L10.095,31.831L10.196,31.732L10.253,31.716L10.297,31.737L10.384,31.810L10.435,31.824L10.474,31.805L10.522,31.766L10.579,31.720L10.630,31.689L10.681,31.688L10.726,31.704L10.769,31.704L10.819,31.655L10.868,31.635L10.956,31.649L10.997,31.639L11.050,31.579L11.088,31.506L11.130,31.444L11.195,31.417L11.286,31.357L11.391,31.169L11.503,31.115L11.510,31.115L11.592,31.116L11.678,31.142L11.758,31.186L11.830,31.242L11.882,31.238L11.988,31.242L12.102,31.271L12.122,31.263L12.126,31.242L12.138,31.218L12.242,31.083L12.302,31.038L12.404,31.024L12.569,31.061L12.720,31.147L12.847,31.269L13.047,31.563L13.150,31.681L13.263,31.775L13.608,31.962L13.680,32.020L13.791,32.172L13.853,32.214L13.930,32.182L13.865,32.155L13.876,32.141L13.905,32.127L13.920,32.114L13.907,32.105L13.893,32.098L13.880,32.089L13.874,32.074L13.974,32.040L14.022,32.010L14.061,31.961L14.096,31.987L14.121,31.987L14.137,31.958L14.149,31.897L14.515,31.806L14.688,31.812L14.933,31.942L14.997,31.963L15.059,31.960L15.118,31.938L15.131,31.901L15.058,31.858L15.068,31.798L15.069,31.716L15.083,31.655L15.101,31.648L15.120,31.645L15.139,31.648L15.158,31.655L15.248,31.642L15.291,31.644L15.407,31.672L15.531,31.731L15.596,31.750L15.825,31.724L15.896,31.746L16.065,31.782ZM6.868,44.690L6.946,44.647L6.973,44.706L6.967,44.917L6.936,45.008L6.861,45.001L6.708,44.896L6.569,44.831L6.506,44.784L6.480,44.710L6.517,44.662L6.603,44.644L6.771,44.645L6.800,44.651L6.823,44.651L6.844,44.659L6.868,44.690ZM6.641,42.701L6.641,42.825L6.537,42.880L6.432,42.917L6.115,42.966L5.908,43.056L5.483,43.120L5.386,43.114L5.272,43.074L5.217,43.043L5.193,43.011L5.000,42.945L5.000,42.907L5.108,42.735L5.262,42.576L5.450,42.458L5.769,42.398L6.176,42.249L6.235,42.240L6.293,42.247L6.323,42.275L6.348,42.319L6.385,42.359L6.451,42.371L6.451,42.412L6.439,42.462L6.429,42.539L6.431,42.616L6.451,42.663L6.409,42.758L6.456,42.781L6.541,42.756L6.611,42.701L6.641,42.701ZM14.376,39.759L14.450,39.739L14.587,39.760L14.706,39.822L14.729,39.928L14.642,39.991L14.465,40.019L14.376,40.048L14.220,40.183L14.127,40.221L14.023,40.175L13.971,40.173L13.878,40.134L13.804,40.068L13.818,39.939L13.786,39.895L13.759,39.844L13.781,39.777L13.818,39.736L13.851,39.715L13.877,39.731L13.891,39.797L14.008,39.739L14.130,39.698L14.253,39.697L14.376,39.759ZM14.318,40.928L14.355,40.924L14.373,40.942L14.371,40.991L14.320,41.000L14.253,40.964L14.175,40.947L14.088,40.939L14.021,40.893L14.011,40.827L14.062,40.782L14.101,40.706L14.139,40.652L14.295,40.720L14.303,40.762L14.278,40.816L14.270,40.886L14.318,40.928Z" fill="currentColor" stroke="currentColor" stroke-width="1.5" stroke-linejoin="round"/>
</svg>