<svg xmlns="http://www.w3.org/2000/svg" viewBox="0 0 100 100" role="img" aria-label="Tuvalu">
  <title>Tuvalu</title>
  <path d="M77.971,73.840L78.180,73.539L78.277,73.285L78.235,73.063L78.134,72.777L78.120,72.387L78.165,71.884L78.331,72.207L78.351,72.793L78.548,73.102L78.597,73.324L78.411,73.549L77.971,73.840ZM58.676,62.506L58.504,62.483L58.556,62.172L58.738,61.768L58.916,61.463L58.676,62.506ZM29.451,41.556L29.445,41.501L29.399,41.388L29.391,41.335L29.461,41.499L29.468,41.599L29.451,41.626L29.451,41.556ZM9.499,20.068L9.616,19.753L9.705,19.744L9.693,19.894L9.499,20.068ZM34.008,15.715L33.908,15.559L33.867,15.475L33.844,15.406L34.121,15.463L34.307,15.559L34.299,15.660L34.008,15.715ZM5.238,5.434L5.000,5.106L5.110,5.067L5.360,5.299L5.552,5.768L5.238,5.434ZM95.000,94.421L94.985,94.884L94.965,94.933L94.936,94.449L94.806,94.121L94.868,94.148L95.000,94.421ZM94.074,93.073L94.204,93.161L94.326,93.495L94.291,93.548L94.167,93.241L94.064,93.101L94.074,93.073ZM65.870,48.617L65.517,47.949L65.451,47.718L66.001,48.206L66.067,48.230L66.121,48.437L66.139,48.673L66.075,48.789L65.870,48.617Z" fill="currentColor" stroke="currentColor" stroke-width="1" stroke-linejoin="round"/>
</svg>