<svg xmlns="http://www.w3.org/2000/svg" viewBox="0 0 100 100" role="img" aria-label="Taiwan">
  <title>Taiwan</title>
  <path d="M92.594,14.307L90.878,16.378L90.606,16.816L90.392,17.427L90.253,18.127L90.203,18.823L90.227,19.499L90.530,20.909L90.512,21.269L90.382,21.629L90.400,22.366L90.715,22.935L91.312,23.301L92.016,23.430L92.016,23.593L91.717,23.563L91.434,23.592L91.196,23.669L91.025,23.791L91.267,24.247L91.391,24.840L91.314,25.354L90.766,25.664L90.724,25.889L90.795,26.161L90.950,26.408L91.005,26.663L90.774,26.880L90.203,27.209L89.557,27.946L89.535,28.233L89.574,28.870L89.468,29.115L89.350,29.320L89.276,29.615L89.228,30.195L89.177,30.344L89.085,30.465L89.038,30.591L89.134,30.742L89.154,30.763L89.215,30.832L89.297,30.967L89.362,31.102L89.380,31.200L89.252,31.419L88.717,31.938L88.141,32.730L87.717,33.068L87.581,33.249L87.646,33.442L87.569,33.579L86.956,34.040L86.726,34.261L86.468,34.812L86.205,35.928L85.523,36.923L85.387,37.325L85.405,37.757L85.570,38.236L85.710,38.439L85.830,38.535L85.906,38.661L85.912,38.957L85.812,39.288L85.476,39.813L85.405,40.132L85.370,40.720L85.075,42.211L84.491,43.777L83.754,47.448L83.311,48.348L82.297,54.239L81.878,56.669L81.672,57.118L81.023,57.984L80.781,58.434L80.591,59.000L80.457,60.050L80.469,60.985L80.378,61.876L79.932,62.794L79.742,62.990L79.301,63.312L79.107,63.514L79.010,63.724L78.857,64.259L78.417,65.038L78.145,66.243L77.951,66.787L77.007,68.154L76.889,68.405L75.613,69.493L75.311,69.845L75.267,70.088L75.326,70.667L75.311,70.926L75.197,71.221L75.000,71.546L74.564,72.104L74.131,72.518L72.653,73.511L71.658,74.609L71.416,74.738L71.222,74.992L70.742,76.234L70.502,76.701L69.763,77.631L69.464,78.184L69.291,79.322L68.851,80.874L67.974,82.424L67.848,82.952L67.695,84.446L67.719,85.805L67.797,90.599L67.654,91.280L67.420,91.835L67.111,92.064L66.746,92.406L66.757,93.185L66.887,94.035L66.858,94.585L66.441,93.952L65.820,93.474L65.096,93.143L64.369,92.963L64.339,93.578L64.127,93.798L63.815,93.718L63.477,93.430L63.457,93.212L63.573,92.561L63.066,91.705L63.024,91.476L63.030,91.290L63.066,90.984L63.066,89.987L63.119,89.694L63.343,89.366L63.394,89.086L61.566,84.292L61.414,84.031L60.905,83.394L60.504,82.480L60.319,82.216L59.572,81.621L59.274,81.447L59.173,81.414L59.073,81.343L58.985,80.997L58.926,80.874L58.523,80.610L57.603,80.166L57.186,79.877L56.746,79.487L56.541,79.356L56.272,79.238L56.124,79.247L55.955,79.310L55.759,79.316L54.560,78.371L53.447,76.780L54.619,78.207L54.481,77.528L54.286,77.155L54.131,76.859L53.644,76.300L52.814,75.527L52.496,75.134L52.346,74.697L52.545,74.271L52.649,73.892L52.509,73.357L52.264,72.831L51.813,72.123L51.389,71.181L51.294,70.763L51.304,70.493L51.442,70.159L51.473,69.937L51.422,69.819L51.304,69.731L51.182,69.611L51.129,69.396L50.870,68.944L50.799,68.766L50.604,67.507L50.516,66.927L50.349,66.593L49.991,66.230L50.428,65.918L50.671,65.358L50.573,64.874L49.991,64.791L49.879,64.962L49.783,65.275L49.620,65.522L49.315,65.509L49.195,65.304L49.240,64.657L49.166,64.430L48.792,64.267L48.582,64.457L48.411,64.724L48.159,64.791L47.892,64.559L47.825,64.239L47.886,63.924L47.994,63.711L48.263,63.570L48.605,63.524L48.888,63.433L48.985,63.154L48.853,63.009L47.994,62.794L47.994,62.613L48.713,62.607L48.643,62.365L48.251,62.026L47.994,61.730L48.057,61.361L48.287,61.230L48.536,61.146L48.658,60.912L48.584,60.551L48.458,60.255L48.543,59.983L48.671,59.640L48.880,59.398L48.835,59.187L48.878,58.980L49.189,58.154L49.335,57.995L49.570,57.935L49.228,57.705L49.373,57.331L49.727,57.307L50.027,57.173L50.156,57.216L50.080,56.925L49.876,57.072L49.706,57.030L49.480,57.019L49.476,56.715L49.702,56.196L50.041,56.172L50.534,56.176L50.198,55.216L49.814,54.475L49.991,54.140L49.991,53.960L49.712,53.823L49.749,53.665L49.909,53.473L49.991,53.240L50.364,52.756L49.579,52.805L49.560,52.003L49.981,51.531L49.961,50.020L50.028,48.892L50.284,47.991L50.685,47.288L50.799,46.367L51.013,45.562L51.129,45.287L51.695,44.540L51.790,44.290L51.861,44.150L52.374,43.758L52.519,43.479L52.669,42.829L52.779,42.556L53.429,41.934L53.618,41.673L53.866,40.962L54.243,40.252L54.774,38.777L55.022,38.348L55.299,38.072L55.527,37.919L55.727,37.822L55.871,37.689L55.928,37.419L56.036,37.166L56.508,36.797L56.616,36.518L56.671,35.594L56.753,35.340L57.001,35.105L58.043,33.892L58.100,33.824L58.169,33.523L58.472,33.271L58.676,32.685L58.926,31.560L59.781,30.084L60.040,29.179L60.347,28.677L61.568,27.331L62.234,26.596L62.405,26.227L62.486,25.626L62.688,25.116L63.231,24.165L63.378,23.595L63.520,23.351L64.141,23.168L64.316,22.975L64.420,22.735L64.546,22.512L64.931,22.113L65.354,21.803L65.867,21.669L66.527,21.793L66.439,21.294L66.689,20.957L67.031,20.614L67.200,20.091L67.276,19.924L67.607,19.760L67.742,19.268L68.253,18.232L68.454,17.961L68.521,17.818L68.517,17.664L68.456,17.497L68.356,17.293L68.493,17.023L68.652,16.855L68.658,16.848L68.796,16.645L68.851,16.295L68.928,16.030L69.118,15.770L69.362,15.574L69.594,15.495L69.574,15.384L69.635,15.117L69.842,14.562L70.030,14.263L70.848,12.974L71.487,12.221L72.148,11.667L73.840,11.117L74.235,10.872L74.575,10.576L74.988,10.354L75.810,10.062L77.658,9.731L78.692,9.547L79.128,9.377L79.694,8.912L79.863,8.828L80.072,8.792L80.351,8.787L80.673,8.894L80.846,9.133L80.958,9.383L81.102,9.523L81.420,9.396L81.088,8.880L80.555,8.347L80.274,8.173L80.355,7.927L80.522,7.790L80.697,7.708L80.770,7.625L80.960,7.157L81.253,6.627L81.857,6.088L82.739,5.644L83.752,5.415L84.744,5.531L85.157,5.837L86.077,7.118L86.408,7.796L86.516,7.751L86.763,7.684L87.046,7.652L87.247,7.706L87.235,7.787L87.139,7.904L87.046,8.064L87.054,8.263L87.153,8.378L87.493,8.614L87.563,8.706L87.717,8.856L88.071,8.985L92.281,9.995L92.578,10.182L92.429,10.514L92.387,10.780L92.452,11.252L92.676,12.042L92.918,12.411L93.113,12.498L93.756,12.402L94.086,12.436L94.473,12.539L94.815,12.710L95.000,12.941L93.101,13.871L92.594,14.307ZM84.326,90.894L84.750,91.221L84.939,91.451L84.910,91.705L84.408,91.866L83.732,91.590L83.111,91.146L82.751,90.804L82.859,90.553L82.855,90.316L82.763,90.099L82.600,89.904L84.400,89.904L84.400,90.067L84.353,90.168L84.275,90.392L84.243,90.659L84.326,90.894ZM7.770,25.573L8.455,25.434L9.107,26.026L9.537,27.178L9.440,27.976L9.088,28.398L8.463,28.008L7.997,27.858L7.254,27.932L6.599,28.344L6.243,28.900L5.934,29.057L5.572,28.885L5.324,28.869L5.106,28.774L5.000,28.585L5.037,28.516L5.238,28.264L5.301,28.148L5.318,27.962L5.309,27.737L5.242,27.341L5.083,26.961L5.061,26.768L5.200,26.686L5.896,26.347L6.818,26.947L7.461,26.870L7.557,26.071L7.770,25.573ZM38.055,49.804L38.485,50.598L38.603,50.970L38.550,51.244L38.373,51.062L38.137,50.907L37.878,50.856L37.516,51.060L37.259,51.091L37.131,51.162L37.060,51.297L36.962,51.671L36.899,51.783L36.470,52.031L36.026,52.094L35.582,51.922L35.136,51.477L35.254,51.244L35.499,51.540L35.867,51.619L36.262,51.509L36.586,51.244L36.362,51.161L36.185,51.053L36.042,50.905L35.912,50.704L35.861,50.788L35.861,50.817L35.843,50.833L35.747,50.884L35.725,50.515L35.747,50.148L35.912,50.148L36.105,50.197L36.787,49.770L37.213,49.624L37.099,50.030L37.048,50.148L37.418,50.035L37.701,50.066L37.907,50.051L38.055,49.804ZM33.927,49.804L34.225,48.850L34.512,48.567L34.900,48.904L34.670,49.041L34.511,49.373L34.257,50.148L34.245,50.357L34.308,50.534L34.281,50.659L34.003,50.704L33.803,50.711L33.661,50.737L33.543,50.792L33.431,50.884L33.089,50.884L33.148,50.692L33.260,50.577L33.431,50.523L33.663,50.506L33.864,50.429L33.921,50.242L33.927,49.804ZM36.235,49.166L36.156,48.848L35.973,48.581L35.574,48.183L36.085,47.808L36.386,47.969L36.681,48.221L36.805,48.491L36.580,48.709L36.671,49.030L36.537,49.243L36.337,49.302L36.235,49.166ZM81.843,74.699L81.715,74.309L81.766,74.253L82.690,74.184L82.792,74.244L82.859,74.423L82.786,74.787L82.704,74.935L82.671,75.090L82.704,75.240L82.698,75.341L82.627,75.321L82.468,75.321L82.385,75.302L82.344,75.251L82.102,75.153L81.843,74.699ZM47.087,53.806L48.369,52.509L49.343,51.268L49.573,51.201L48.740,52.547L48.333,52.958L48.063,53.288L47.716,53.636L47.443,53.828L47.031,54.155L46.744,54.308L47.087,53.806Z" fill="currentColor" stroke="currentColor" stroke-width="1.5" stroke-linejoin="round"/>
</svg>