<svg xmlns="http://www.w3.org/2000/svg" viewBox="0 0 100 100" role="img" aria-label="United Republic of Tanzania">
  <title>United Republic of Tanzania</title>
  <path d="M34.113,74.814L33.989,74.735L33.385,74.507L33.009,74.259L32.950,74.247L32.809,74.262L32.750,74.241L32.703,74.180L32.678,74.058L32.648,73.996L32.536,73.875L32.434,73.821L31.855,73.772L31.160,73.621L30.856,73.596L30.746,73.523L30.630,73.345L30.472,72.975L30.384,72.862L30.090,72.665L29.764,72.585L28.710,72.606L28.538,72.584L28.375,72.526L28.216,72.408L27.918,72.107L27.843,72.067L27.751,72.017L27.677,72.013L27.522,72.050L27.446,72.057L27.362,72.033L27.129,71.898L26.923,71.869L26.794,71.923L26.677,72.010L26.509,72.080L26.165,71.997L26.001,71.678L26.001,71.276L26.154,70.946L24.948,70.617L24.760,70.633L24.484,70.782L24.319,70.841L24.156,70.840L24.019,70.787L23.241,70.190L23.054,69.941L22.993,69.593L22.994,69.289L22.938,69.082L22.777,68.948L22.466,68.860L22.337,68.778L22.163,68.578L22.036,68.512L21.914,68.503L21.804,68.515L21.700,68.505L21.592,68.434L21.565,68.377L21.538,68.229L21.508,68.177L21.436,68.135L21.410,68.146L21.389,68.178L21.331,68.201L21.238,68.221L20.819,68.370L20.757,68.411L20.689,68.435L20.585,68.418L20.498,68.353L20.345,68.148L20.251,68.083L20.056,68.083L19.884,68.172L19.719,68.290L19.548,68.375L19.208,68.373L18.851,68.242L18.517,68.044L18.251,67.837L17.704,67.257L17.190,66.516L16.785,65.710L16.574,64.937L16.380,64.204L15.788,62.766L14.063,60.072L13.845,59.305L13.766,58.768L13.480,57.744L12.873,56.436L12.389,55.685L11.226,54.325L10.594,53.797L10.241,53.617L9.465,53.220L8.377,52.391L8.122,52.122L7.938,51.814L7.531,50.719L6.981,50.008L6.752,49.624L6.654,49.305L6.519,48.333L6.275,47.422L6.254,47.099L6.416,46.583L7.021,45.764L7.281,45.306L7.357,44.676L7.204,43.993L6.418,42.132L6.089,40.816L5.459,39.657L5.188,38.994L5.176,38.944L5.022,38.295L5.000,37.613L5.160,36.924L5.649,35.583L5.727,34.895L5.698,34.572L5.672,34.468L7.566,34.443L7.964,34.537L8.294,34.563L8.330,34.578L8.424,34.505L8.448,34.414L8.453,34.309L8.483,34.193L8.534,34.145L8.672,34.081L8.713,34.011L8.730,33.878L8.745,33.849L8.876,33.769L8.962,33.780L9.050,33.824L9.186,33.847L9.257,33.822L9.686,33.620L9.976,33.346L10.254,33.188L10.336,33.122L10.515,33.020L10.617,32.891L10.824,32.394L10.907,32.273L11.458,31.812L11.702,31.514L11.892,31.184L11.913,31.133L12.039,30.828L12.180,30.241L12.277,30.075L12.701,29.638L13.012,29.098L13.217,28.966L13.577,29.085L13.605,28.942L13.580,28.815L13.534,28.690L13.499,28.553L13.508,28.401L13.509,28.395L13.565,28.249L13.899,27.722L13.960,27.570L13.963,27.421L13.943,27.258L13.987,27.161L14.212,26.998L14.232,26.966L14.263,26.870L14.283,26.844L14.418,26.824L14.434,26.826L14.438,26.841L14.593,26.828L14.602,26.811L14.615,26.740L14.628,26.720L14.843,26.670L14.899,26.650L14.963,26.594L15.068,26.468L15.448,26.290L15.660,26.083L15.671,25.866L15.426,25.732L15.370,25.701L15.519,25.521L15.671,25.379L15.850,25.267L16.071,25.183L16.170,25.171L16.249,25.126L16.301,25.053L16.326,24.956L16.540,25.063L16.764,25.038L16.959,24.904L17.081,24.686L17.077,24.638L17.041,24.494L17.037,24.434L17.151,24.270L17.222,24.076L17.236,23.974L17.227,23.871L17.194,23.813L17.089,23.736L17.060,23.675L17.067,23.627L17.105,23.519L17.104,23.476L17.024,23.363L16.825,23.175L16.785,23.056L16.839,22.926L17.089,22.636L17.113,22.592L17.167,22.495L16.978,22.494L16.600,22.600L16.412,22.617L16.305,22.585L16.120,22.463L16.020,22.426L15.921,22.432L15.840,22.464L15.755,22.485L15.648,22.462L15.626,22.426L15.603,22.294L15.582,22.244L15.547,22.220L15.440,22.175L14.915,21.859L14.849,21.848L14.737,21.890L14.640,21.970L14.480,22.192L14.441,22.210L14.440,22.207L14.406,22.106L14.336,22.036L14.289,21.971L14.326,21.882L14.179,21.842L14.056,21.726L13.854,21.463L13.836,21.322L13.929,21.141L14.105,20.902L14.108,20.695L14.135,20.569L14.200,20.462L14.665,19.971L14.717,19.817L14.532,19.886L14.242,20.019L14.071,20.075L13.914,20.073L13.824,19.986L13.856,19.786L13.922,19.685L14.115,19.501L14.192,19.399L14.227,19.313L14.294,19.055L14.600,18.304L14.709,18.131L14.976,17.792L15.133,17.700L15.305,17.722L15.480,17.772L15.650,17.763L15.740,17.686L15.856,17.468L15.949,17.395L16.053,17.380L16.140,17.408L16.562,17.617L16.628,17.633L16.702,17.613L16.760,17.580L16.873,17.552L16.998,17.480L17.134,17.419L17.239,17.342L17.323,17.190L17.357,17.025L17.323,16.468L17.393,16.109L17.671,15.204L17.604,14.967L17.517,14.850L17.394,14.725L17.248,14.652L17.097,14.685L17.203,14.211L17.179,13.996L16.937,13.957L16.977,13.892L17.026,13.839L17.157,13.735L17.095,13.590L17.141,13.464L17.223,13.342L17.268,13.205L17.203,12.878L17.175,12.792L17.268,12.569L17.247,12.494L17.176,12.383L17.157,12.341L17.160,12.253L17.264,11.612L17.271,11.402L17.212,11.230L17.020,11.304L16.893,11.204L16.815,11.020L16.737,10.728L16.701,10.665L16.600,10.558L16.467,10.378L16.419,10.272L16.462,10.225L16.487,10.129L16.502,9.917L16.456,9.704L16.299,9.608L16.140,9.586L15.606,9.386L15.531,9.341L15.410,9.225L15.325,9.164L15.087,9.065L14.982,8.986L14.939,8.856L14.947,8.795L14.966,8.747L14.985,8.712L14.993,8.686L14.976,8.620L14.901,8.522L14.854,8.356L14.706,8.110L14.657,7.992L14.625,7.782L14.591,7.731L14.492,7.659L14.458,7.668L14.406,7.697L14.341,7.707L14.270,7.659L14.257,7.610L14.278,7.561L14.309,7.515L14.326,7.467L14.299,7.356L14.182,7.274L14.155,7.187L14.180,7.095L14.243,7.006L14.307,6.939L14.316,6.929L14.381,6.876L14.482,6.885L14.542,6.925L14.584,6.971L14.629,6.992L14.726,6.984L14.877,6.949L15.285,6.911L15.461,6.930L15.656,6.992L15.759,6.906L16.048,6.598L16.165,6.537L16.472,6.439L16.776,6.279L17.062,6.352L17.191,6.416L17.713,6.416L19.194,6.416L20.674,6.416L20.847,6.416L22.155,6.416L23.636,6.416L25.116,6.416L26.554,6.416L26.597,6.416L28.078,6.416L29.558,6.416L31.040,6.416L32.507,6.416L32.520,6.416L33.518,6.416L34.001,6.416L35.481,6.416L36.962,6.416L38.202,6.416L38.442,6.416L39.863,6.416L39.924,6.416L41.403,6.416L42.066,6.416L42.682,6.416L42.716,6.412L42.841,6.416L42.857,6.628L42.966,6.700L43.266,6.724L43.872,7.064L45.608,8.040L47.345,9.015L48.655,9.751L49.081,9.990L50.817,10.965L52.554,11.940L52.921,12.147L54.290,12.915L56.025,13.891L57.761,14.866L59.497,15.842L61.233,16.818L62.969,17.792L64.706,18.767L66.442,19.743L68.178,20.717L69.915,21.693L70.534,22.041L71.651,22.669L72.319,23.044L72.442,23.244L72.585,24.126L72.603,24.233L72.765,25.228L72.618,25.239L72.538,25.309L72.509,25.422L72.521,25.568L72.368,25.580L72.176,25.683L71.995,25.827L71.877,25.958L71.836,26.030L71.798,26.121L71.777,26.216L71.789,26.302L71.848,26.362L71.981,26.379L72.022,26.442L71.989,26.577L71.925,26.736L71.948,26.848L72.335,26.825L72.508,26.840L72.679,26.886L72.832,26.960L72.945,27.064L73.006,27.189L73.146,27.691L73.227,27.857L73.338,28.003L73.779,28.321L74.469,28.822L75.159,29.322L75.850,29.823L76.540,30.322L77.229,30.823L77.920,31.322L78.556,31.784L78.610,31.823L79.301,32.322L79.991,32.822L80.680,33.322L81.372,33.822L82.062,34.322L82.753,34.822L83.443,35.323L84.133,35.822L84.820,36.320L84.875,36.371L85.018,36.411L85.070,36.640L85.026,36.903L84.875,37.043L84.654,37.154L84.833,37.226L84.955,37.237L85.025,37.282L85.045,37.462L85.035,37.635L85.005,37.776L84.953,37.906L84.695,38.346L84.591,38.446L84.544,38.326L84.571,38.165L84.623,38.008L84.650,37.854L84.599,37.710L84.456,38.130L84.333,38.279L84.157,38.266L84.297,38.485L84.319,38.565L84.347,39.028L84.323,39.109L84.267,39.144L84.142,39.104L84.072,39.135L84.042,39.176L83.961,39.334L83.948,39.445L84.064,39.438L84.323,39.332L84.329,39.454L84.417,39.650L84.433,39.725L84.400,39.785L84.092,40.055L84.039,40.124L83.878,40.461L83.631,40.834L83.605,40.893L83.668,40.952L83.756,40.885L83.881,40.726L83.930,40.826L83.580,41.846L83.491,42.025L83.379,42.176L83.294,42.232L83.201,42.278L83.127,42.341L83.102,42.453L83.137,42.522L83.201,42.552L83.257,42.602L83.268,42.731L83.160,43.054L82.927,43.532L82.644,43.960L82.380,44.130L82.490,44.180L82.437,44.348L82.431,44.727L82.352,44.878L82.250,45.008L82.103,45.310L81.924,45.582L81.866,45.757L81.836,45.947L81.833,46.472L81.799,46.551L81.746,46.608L81.701,46.678L81.669,46.755L81.663,46.782L81.620,46.989L81.543,47.155L81.483,47.332L81.491,47.529L81.521,47.581L81.622,47.698L81.657,47.751L81.734,48.064L81.768,48.145L81.815,48.192L81.993,48.307L82.120,48.414L82.134,48.464L82.166,48.772L82.146,48.967L82.090,49.143L81.993,49.261L82.055,49.464L82.083,49.920L82.184,50.123L82.273,50.187L82.372,50.239L82.456,50.294L82.490,50.373L82.503,50.460L82.538,50.552L82.591,50.636L82.656,50.705L82.703,50.739L82.744,50.756L82.850,50.761L82.905,50.785L82.933,50.838L82.956,50.895L82.993,50.933L83.095,50.952L83.319,50.964L83.407,51.014L83.489,51.045L83.576,51.014L83.568,50.949L83.498,50.918L83.368,50.867L83.208,50.761L83.440,50.833L83.609,50.908L84.056,51.333L84.323,51.655L84.536,51.808L84.599,51.878L84.721,52.087L84.793,52.162L84.930,52.245L84.999,52.305L85.053,52.397L85.085,52.503L85.096,52.606L85.146,52.809L85.267,53.031L85.413,53.140L85.543,52.999L85.578,53.235L85.541,53.552L85.545,53.840L85.708,53.994L85.703,53.846L85.690,53.783L85.654,53.716L85.802,53.725L85.919,53.771L86.149,53.911L86.273,53.944L86.518,53.966L86.619,54.022L86.739,54.065L87.035,54.062L87.093,54.108L87.127,54.220L87.276,54.417L87.344,54.657L87.731,55.170L87.756,55.226L87.747,55.305L87.708,55.354L87.665,55.397L87.646,55.448L87.715,55.968L87.706,56.182L87.585,56.171L87.504,56.274L87.442,56.495L87.395,56.590L87.305,56.662L87.228,56.660L87.171,56.587L87.143,56.449L86.803,56.687L86.794,56.699L86.730,56.785L86.684,56.930L86.665,57.060L86.630,57.180L86.536,57.292L86.431,57.375L86.381,57.395L86.313,57.403L86.250,57.428L86.258,57.489L86.294,57.562L86.316,57.625L86.269,57.717L86.157,57.738L86.029,57.730L85.929,57.736L86.008,57.868L86.089,57.958L86.143,58.062L86.144,58.237L86.108,58.356L86.037,58.523L85.950,58.672L85.736,58.869L85.642,59.177L85.500,60.073L85.509,60.240L85.543,60.408L85.646,60.669L85.674,60.822L85.626,60.944L85.598,61.059L85.721,61.356L85.681,61.499L85.321,61.920L85.569,61.865L85.745,61.663L85.861,61.393L85.929,61.130L86.054,61.233L86.151,61.344L86.163,61.460L86.035,61.581L86.339,61.551L86.477,61.566L86.619,61.666L86.839,61.881L86.865,61.995L86.813,62.197L86.693,62.460L86.682,62.560L86.769,62.844L86.777,63.162L86.813,63.308L86.937,63.231L86.978,63.192L86.953,63.442L86.852,63.672L86.591,64.086L86.323,64.818L86.204,65.040L86.149,65.014L86.124,65.016L86.098,65.030L86.035,65.040L86.091,65.161L86.073,65.452L86.095,65.596L85.979,65.545L85.978,65.610L85.929,65.763L85.798,65.618L85.731,65.568L85.654,65.545L85.717,65.663L85.721,65.759L85.663,65.830L85.543,65.874L85.646,66.082L85.712,66.296L85.748,66.522L85.758,66.770L85.704,67.241L85.729,67.471L85.999,67.747L86.100,67.935L86.171,68.145L86.204,68.329L86.190,69.008L86.144,69.167L86.427,69.247L86.475,69.298L86.498,69.363L86.531,69.420L86.619,69.445L86.781,69.457L86.830,69.505L86.834,69.606L86.868,69.778L86.939,69.911L87.028,69.971L87.124,70.014L87.229,70.086L87.298,70.200L87.391,70.485L87.480,70.616L87.708,70.788L87.756,70.862L87.643,70.894L87.547,70.888L87.489,70.868L87.371,70.778L87.355,70.760L87.200,70.616L87.036,70.416L86.913,70.345L86.757,70.366L86.666,70.403L86.619,70.415L86.585,70.439L86.422,70.672L86.544,70.718L87.032,70.672L86.925,70.804L86.898,70.889L86.961,70.936L87.119,70.950L87.256,70.994L87.257,71.107L87.210,71.268L87.200,71.449L87.219,71.480L87.292,71.535L87.310,71.566L87.312,71.719L87.310,71.733L87.267,71.815L87.260,71.844L87.277,71.864L87.315,71.878L87.352,71.904L87.371,71.953L87.347,72.031L87.300,72.084L87.268,72.142L87.284,72.232L87.344,72.362L87.344,72.424L87.310,72.505L87.425,72.481L87.564,72.415L87.694,72.333L87.784,72.258L87.881,72.252L87.999,72.359L88.347,72.800L88.485,73.033L88.524,73.284L88.396,73.541L88.390,73.598L88.438,73.665L88.499,73.733L88.534,73.794L88.534,73.884L88.490,74.048L88.479,74.127L88.505,74.397L88.477,74.494L88.368,74.632L88.260,74.727L88.189,74.742L88.110,74.731L87.981,74.743L87.881,74.790L87.839,74.866L87.841,74.979L87.867,75.137L87.939,75.101L88.031,75.084L88.199,75.076L88.218,74.987L88.259,74.952L88.339,74.993L88.390,75.046L88.418,75.068L88.451,75.076L88.541,75.114L88.554,75.199L88.536,75.291L88.534,75.354L88.590,75.429L88.783,75.607L88.851,75.767L88.947,76.211L89.032,76.334L89.141,76.411L89.120,76.463L89.056,76.514L89.037,76.582L89.077,76.670L89.117,76.726L89.224,76.832L89.270,76.921L89.242,77.086L89.316,77.244L89.250,77.297L89.087,77.359L88.951,77.487L88.915,77.556L88.980,77.587L89.302,77.580L89.362,77.587L89.389,77.645L89.452,77.865L89.503,77.948L89.636,78.045L89.699,78.106L89.753,78.199L89.807,78.430L89.749,78.596L89.597,78.676L89.362,78.648L89.431,78.758L89.661,78.934L89.669,79.006L89.582,79.064L89.303,79.181L89.054,79.242L89.050,79.336L89.152,79.542L89.136,79.693L89.077,79.808L88.983,79.900L88.865,79.985L89.073,79.948L89.450,79.493L89.616,79.511L89.724,79.571L89.966,79.554L90.138,79.725L90.244,79.739L90.363,79.734L90.471,79.754L90.673,79.908L91.163,80.718L91.178,81.187L91.245,81.430L91.328,81.334L91.370,81.200L91.371,81.058L91.330,80.933L91.257,80.769L91.275,80.701L91.371,80.691L91.526,80.714L91.643,80.748L91.893,80.857L92.051,80.894L92.375,81.011L92.414,81.001L92.438,81.013L92.465,81.102L92.450,81.207L92.396,81.316L92.371,81.436L92.437,81.572L92.461,81.648L92.402,81.689L92.323,81.723L92.299,81.773L92.341,81.839L92.383,81.844L92.426,81.825L92.465,81.819L92.600,81.902L92.663,81.914L92.691,81.850L92.696,81.765L92.721,81.718L92.771,81.709L92.856,81.744L92.955,81.811L93.143,81.977L93.243,82.046L93.241,81.972L93.255,81.920L93.277,81.877L93.298,81.819L93.362,81.863L93.410,81.875L93.459,81.860L93.524,81.819L93.386,81.779L92.967,81.603L93.243,81.263L93.350,81.298L93.397,81.390L93.421,81.503L93.464,81.603L93.535,81.660L93.717,81.748L93.800,81.819L93.844,81.891L94.105,82.471L94.187,82.546L94.207,82.532L94.479,82.587L94.518,82.602L94.780,82.526L94.817,82.365L94.720,82.240L94.578,82.268L94.541,82.172L94.568,82.102L94.642,82.061L94.744,82.046L94.819,82.074L94.855,82.141L94.882,82.224L94.930,82.296L95.000,82.443L94.926,82.573L94.792,82.697L94.689,82.824L94.740,82.820L94.847,82.828L94.899,82.824L94.811,83.101L94.799,83.190L94.821,83.252L94.866,83.313L94.904,83.389L94.899,83.496L94.771,83.732L94.513,83.988L94.223,84.195L93.699,84.377L93.393,84.604L92.915,85.075L92.763,85.272L92.668,85.364L92.443,85.447L91.431,86.233L91.278,86.313L90.443,86.667L89.633,87.221L89.429,87.307L88.072,87.602L87.448,87.648L87.310,87.694L87.182,87.763L85.596,89.024L85.407,89.127L85.204,89.187L84.989,89.185L84.819,89.123L84.490,88.944L84.299,88.906L84.050,89.018L83.770,89.073L82.712,89.072L82.439,89.134L82.223,89.322L82.081,89.420L81.912,89.462L81.805,89.530L81.483,89.834L81.335,89.911L81.246,89.908L81.071,89.867L80.974,89.857L80.886,89.874L80.722,89.949L80.482,90.014L80.352,90.123L80.170,90.351L79.373,90.887L79.172,91.134L79.167,91.132L78.930,90.995L78.289,90.835L78.002,90.689L77.556,90.224L77.266,90.025L76.892,89.967L76.812,89.989L76.633,90.063L76.540,90.079L76.444,90.053L76.286,89.938L76.207,89.911L76.181,89.896L76.138,89.821L76.124,89.800L76.075,89.801L76.034,89.821L76.009,89.844L76.009,89.857L75.946,89.856L75.763,89.852L75.301,89.930L75.225,90.010L75.153,90.028L74.824,90.049L74.690,90.081L74.182,90.366L74.127,90.437L74.106,90.557L73.981,90.924L73.905,91.023L73.917,91.170L73.723,91.512L73.680,91.694L73.713,91.803L73.761,91.903L73.776,92.003L73.710,92.112L73.609,92.201L73.441,92.318L72.853,92.574L72.492,92.860L72.342,92.945L72.169,92.975L71.912,92.978L71.737,93.012L71.444,93.165L71.275,93.200L71.178,93.244L71.115,93.345L71.069,93.457L71.024,93.538L70.956,93.596L70.902,93.625L70.748,93.650L70.563,93.650L70.163,93.538L70.097,93.505L69.953,93.355L69.859,93.311L69.783,93.316L69.721,93.346L69.657,93.387L69.579,93.422L69.289,93.453L68.936,93.415L68.249,93.260L67.965,93.125L67.682,92.890L67.462,92.617L67.365,92.366L67.238,92.440L67.166,92.494L67.090,92.527L66.342,92.594L66.223,92.571L66.022,92.442L65.862,92.430L65.785,92.392L65.648,92.437L65.282,92.866L65.057,93.193L64.985,93.260L64.892,93.309L64.594,93.422L64.515,93.486L64.471,93.538L64.412,93.575L64.196,93.599L64.076,93.640L63.569,93.721L63.429,93.705L63.226,93.605L63.181,93.589L63.130,93.546L63.081,93.355L63.018,93.311L62.073,93.311L62.035,93.329L61.993,93.366L61.937,93.404L61.683,93.442L61.389,93.525L61.270,93.538L61.187,93.514L61.061,93.439L60.964,93.422L60.631,93.478L60.538,93.414L60.465,93.267L60.441,93.100L60.493,92.978L60.438,92.816L60.420,92.631L60.375,92.479L60.245,92.417L60.171,92.400L60.116,92.358L60.063,92.303L59.995,92.250L59.918,92.218L59.739,92.171L59.659,92.139L59.364,91.959L59.196,91.885L59.079,91.892L58.923,91.938L58.772,91.858L58.699,91.705L58.776,91.523L58.636,91.356L58.529,91.303L58.223,91.306L58.172,91.292L57.943,91.195L57.612,91.134L57.505,91.207L57.252,91.523L57.109,91.634L56.703,91.707L56.554,91.795L56.617,91.973L56.519,92.036L56.430,92.144L56.362,92.257L56.305,92.425L56.224,92.476L55.788,92.589L55.779,92.589L55.589,92.694L55.456,92.661L55.325,92.610L55.237,92.616L55.227,92.756L55.135,92.726L55.098,92.681L55.077,92.625L55.034,92.563L54.962,92.509L54.924,92.504L54.893,92.523L54.840,92.538L54.838,92.546L54.730,92.589L54.695,92.592L54.496,92.583L54.421,92.558L54.368,92.506L54.353,92.462L54.016,92.471L50.642,92.437L50.629,92.366L50.629,91.945L50.610,91.827L50.570,91.731L50.532,91.657L50.513,91.609L50.479,91.549L50.403,91.484L50.327,91.398L50.258,91.178L50.106,91.054L50.072,90.992L50.011,90.825L49.860,90.689L49.664,90.588L49.315,90.471L49.249,90.462L49.189,90.483L49.086,90.573L49.032,90.578L48.980,90.516L48.802,90.185L48.850,90.160L48.919,90.106L48.967,90.079L48.967,90.028L48.839,89.956L48.734,89.837L48.662,89.679L48.636,89.493L48.616,89.419L48.566,89.356L48.502,89.312L48.355,89.276L48.317,89.224L48.292,89.153L48.249,89.073L47.864,88.744L47.803,88.601L47.779,88.402L47.672,88.068L47.636,87.901L47.677,87.696L47.838,87.491L47.912,87.396L48.061,87.064L48.079,86.980L48.079,86.619L48.183,86.110L48.152,85.897L48.201,85.828L48.300,85.755L48.279,85.650L48.231,85.592L48.178,85.554L48.144,85.508L48.130,85.472L48.079,85.397L48.186,85.225L48.179,85.048L48.102,84.884L47.928,84.679L47.906,84.631L47.913,84.475L47.891,84.380L47.862,84.372L47.835,84.364L47.765,84.368L47.697,84.336L47.631,84.244L47.578,84.137L47.540,84.024L47.532,83.960L47.527,83.917L47.544,83.812L47.619,83.630L47.636,83.552L47.602,83.401L47.447,83.143L47.411,82.967L47.575,82.079L47.577,81.992L47.560,81.891L47.492,81.714L47.415,81.282L47.147,80.681L47.085,80.404L47.101,80.323L47.173,80.164L47.190,80.071L47.179,79.982L47.085,79.704L46.842,79.362L46.750,79.194L45.942,78.198L45.933,78.165L45.787,78.024L45.750,78.004L45.570,77.819L45.523,77.754L45.483,77.600L45.463,77.455L45.412,77.347L45.171,77.260L44.384,76.432L44.150,76.325L44.010,76.173L43.949,76.138L43.675,75.807L43.563,75.744L43.486,75.653L43.476,75.646L43.225,75.482L42.944,75.380L42.813,75.497L42.714,75.609L42.523,75.766L42.403,75.971L42.554,76.334L42.538,76.476L42.482,76.722L42.476,76.870L42.447,76.976L42.381,77.060L42.261,77.138L42.261,77.193L42.128,77.337L42.034,77.269L41.946,77.108L41.751,76.944L41.522,76.807L41.332,76.730L41.123,76.593L40.916,76.385L40.695,76.248L40.435,76.320L40.221,76.440L40.015,76.467L40.011,76.466L39.799,76.429L39.552,76.352L39.278,76.323L39.082,76.404L38.891,76.516L38.640,76.576L38.304,76.553L38.147,76.505L38.023,76.417L37.925,76.265L37.786,75.963L37.637,75.822L37.182,75.500L37.037,75.450L36.965,75.463L36.838,75.547L36.768,75.569L36.671,75.560L36.503,75.510L36.390,75.510L36.337,75.537L36.226,75.628L36.152,75.653L36.122,75.636L35.885,75.542L35.667,75.494L35.594,75.465L35.096,75.081L34.691,74.680L34.549,74.597L34.392,74.604L34.238,74.682L34.113,74.814ZM90.522,60.408L90.646,60.546L90.632,60.808L90.503,61.356L90.273,61.885L90.165,62.032L90.149,62.092L90.151,62.144L90.140,62.197L90.085,62.363L90.061,62.407L89.990,62.502L89.976,62.560L89.936,62.657L89.840,62.657L89.616,62.591L89.381,62.668L89.279,62.844L89.229,63.031L89.152,63.141L88.832,63.267L88.669,63.304L88.534,63.308L88.371,63.242L88.157,63.013L88.027,62.914L88.103,62.896L88.239,62.891L88.308,62.863L88.309,62.840L88.330,62.782L88.357,62.729L88.368,62.727L88.387,62.665L88.433,62.651L88.488,62.655L88.534,62.640L88.883,62.302L89.000,62.116L88.925,62.024L88.971,61.888L89.063,61.824L89.190,61.807L89.338,61.808L89.473,61.781L89.726,61.664L89.864,61.636L89.819,61.571L89.743,61.559L89.533,61.581L89.533,61.530L89.631,61.506L89.716,61.461L89.864,61.358L90.037,61.287L90.111,61.223L90.167,61.014L90.232,60.893L90.313,60.787L90.384,60.742L90.424,60.700L90.506,60.490L90.522,60.408ZM87.673,49.696L87.703,49.770L87.921,50.155L87.884,50.507L87.680,50.751L87.390,50.849L87.093,50.761L86.976,50.656L86.866,50.513L86.788,50.350L86.628,49.656L86.647,49.535L86.465,49.590L86.466,49.678L86.542,49.786L86.591,49.896L86.582,50.079L86.542,50.123L86.316,50.039L86.352,49.883L86.306,49.758L86.095,49.535L85.841,49.141L85.770,49.082L85.708,49.030L85.598,49.090L85.598,49.150L85.646,49.157L85.652,49.181L85.645,49.217L85.654,49.261L85.545,49.186L85.511,49.313L85.539,49.496L85.626,49.590L85.606,49.601L85.594,49.619L85.563,49.623L85.488,49.590L85.415,49.543L85.387,49.512L85.369,49.479L84.960,49.007L84.884,48.879L84.781,48.513L84.710,48.367L85.000,48.012L84.934,47.541L84.784,47.036L84.820,46.579L84.810,46.480L84.818,46.384L84.841,46.302L84.875,46.241L84.899,46.284L84.962,46.368L84.985,46.413L85.120,46.193L85.409,45.952L85.543,45.796L85.609,45.540L85.666,44.938L85.813,44.791L85.908,45.039L86.155,45.486L86.204,45.772L86.147,46.114L86.144,46.241L86.169,46.367L86.240,46.598L86.254,46.718L86.291,46.845L86.447,47.100L86.536,47.473L86.585,47.502L86.757,47.529L86.775,47.638L86.755,47.737L86.720,47.838L86.702,47.948L86.706,48.078L86.722,48.176L86.755,48.267L86.813,48.367L86.716,48.487L86.674,48.553L86.647,48.645L86.764,48.596L86.836,48.645L86.897,48.737L86.978,48.808L86.984,48.687L87.038,48.608L87.103,48.602L87.143,48.701L87.180,48.696L87.190,48.691L87.190,48.677L87.200,48.645L87.330,48.679L87.331,48.510L87.293,48.268L87.310,48.090L87.451,48.276L87.523,48.507L87.673,49.696ZM88.479,42.314L88.483,42.029L88.515,41.899L88.590,41.787L88.540,41.699L88.641,41.682L88.925,41.731L88.860,41.616L88.691,41.408L88.645,41.282L88.771,41.314L88.930,41.326L89.073,41.302L89.152,41.226L89.059,41.205L88.980,41.175L88.915,41.130L88.865,41.059L88.991,41.061L89.185,41.010L89.312,41.004L89.458,41.080L89.539,41.057L89.594,40.893L89.431,40.953L89.233,40.898L88.865,40.665L88.785,40.716L88.686,40.686L88.595,40.603L88.534,40.498L88.621,40.534L88.678,40.575L88.733,40.591L88.809,40.553L88.887,40.577L89.162,40.619L89.312,40.614L89.252,40.553L89.314,40.396L89.283,40.261L89.196,40.218L89.087,40.332L89.129,40.167L89.152,40.114L89.105,40.054L89.042,40.014L88.961,40.011L88.865,40.063L88.883,39.973L88.896,39.936L88.925,39.887L88.892,39.791L88.903,39.675L88.945,39.589L89.006,39.582L89.102,39.628L89.145,39.600L89.138,39.530L89.087,39.448L89.017,39.406L88.755,39.306L88.779,39.228L88.891,39.138L88.925,39.054L88.809,39.109L88.744,38.959L88.787,38.841L88.896,38.803L89.037,38.887L89.069,38.756L88.978,38.680L88.846,38.609L88.755,38.498L88.751,38.404L88.801,38.176L88.811,38.052L88.829,38.094L88.848,38.128L88.871,38.152L88.896,38.159L88.958,38.195L89.002,38.273L89.029,38.351L89.037,38.387L89.127,38.374L89.157,38.314L89.174,38.247L89.224,38.215L89.265,38.244L89.395,38.374L89.423,38.412L89.796,38.626L89.864,38.690L89.869,38.783L89.889,38.865L89.922,38.895L89.976,38.831L89.970,38.765L89.939,38.687L89.940,38.597L90.036,38.498L90.045,38.557L90.073,38.618L90.085,38.665L90.151,38.531L90.199,38.368L90.217,38.214L90.201,38.109L90.310,38.180L90.310,38.346L90.289,38.540L90.380,38.845L90.290,38.992L90.145,39.106L90.036,39.160L90.076,39.304L90.051,39.462L90.001,39.622L89.976,39.776L90.053,40.020L90.061,40.063L90.135,40.029L90.141,39.951L90.127,39.872L90.140,39.832L90.243,39.877L90.256,40.020L90.201,40.332L90.198,40.812L90.140,40.943L90.201,41.004L90.104,41.118L89.864,41.837L89.802,41.924L89.768,41.959L89.756,42.010L89.753,42.148L89.716,42.255L89.645,42.274L89.599,42.208L89.638,42.063L89.594,42.063L89.539,42.196L89.511,42.244L89.473,42.286L89.500,42.372L89.457,42.463L89.366,42.547L89.252,42.620L89.174,42.641L89.152,42.610L89.180,42.559L89.252,42.514L89.252,42.453L89.136,42.482L89.050,42.536L88.983,42.549L88.925,42.453L88.644,42.462L88.526,42.424L88.479,42.314ZM89.279,63.315L89.539,63.286L89.722,63.296L89.760,63.411L89.674,63.516L89.337,63.890L89.097,64.111L88.962,64.101L88.914,63.967L88.962,63.756L89.058,63.584L89.279,63.315ZM85.107,45.204L85.101,45.315L85.140,45.460L85.207,45.560L85.152,45.644L85.202,45.749L85.202,45.911L85.102,45.933L85.013,45.928L84.996,45.811L85.012,45.666L85.035,45.438L85.012,45.271L85.107,45.204ZM87.932,42.155L88.003,42.193L88.122,42.269L88.207,42.387L88.302,42.534L88.430,42.581L88.553,42.614L88.633,42.718L88.614,42.818L88.397,42.832L88.255,42.719L88.131,42.572L88.060,42.468L87.965,42.369L87.880,42.250L87.932,42.155Z" fill="currentColor" stroke="currentColor" stroke-width="1.5" stroke-linejoin="round"/>
</svg>