<svg xmlns="http://www.w3.org/2000/svg" viewBox="0 0 100 100" role="img" aria-label="Uganda">
  <title>Uganda</title>
  <path d="M21.472,88.546L21.299,88.492L21.058,88.418L20.844,88.447L20.636,88.540L20.388,88.602L20.122,88.568L19.853,88.489L19.591,88.450L19.350,88.537L19.217,88.762L19.114,89.416L19.033,89.656L18.936,89.736L18.672,89.855L18.615,89.902L18.561,89.946L18.515,90.041L18.480,90.268L18.450,90.373L18.280,90.659L18.073,90.923L17.371,91.591L17.126,91.737L17.010,91.771L16.884,91.781L16.758,91.802L16.634,91.875L16.521,92.091L16.425,92.704L16.343,92.944L16.172,93.104L15.527,93.355L15.061,93.605L14.978,93.649L14.773,93.862L14.629,94.206L14.466,94.240L13.393,94.835L13.046,94.964L12.714,95.000L12.405,94.912L12.134,94.659L11.980,94.324L11.943,93.674L11.873,93.342L11.428,92.697L11.255,92.609L11.254,92.609L11.113,92.588L10.976,92.628L10.830,92.720L10.687,92.890L10.592,93.202L10.462,93.278L10.352,93.239L10.016,93.035L9.828,92.993L9.445,93.061L9.180,93.198L8.936,93.375L8.610,93.558L8.316,93.638L7.985,93.662L7.350,93.628L7.498,92.700L7.495,92.398L7.433,92.220L7.248,91.903L7.240,91.735L7.390,91.335L7.405,91.201L7.312,90.859L7.150,90.618L7.020,90.363L7.018,89.982L7.211,89.006L7.225,88.721L7.160,88.416L6.927,87.808L6.884,87.531L6.930,87.341L6.933,87.337L7.012,87.202L7.072,87.049L7.053,86.815L6.992,86.518L6.982,86.361L7.003,86.217L7.180,85.940L7.647,85.781L7.825,85.569L7.869,85.340L7.910,84.390L7.874,84.057L7.733,83.441L7.746,83.111L7.944,81.866L7.996,81.785L8.084,81.719L8.161,81.639L8.181,81.517L8.145,81.422L8.022,81.254L7.996,81.159L8.060,80.986L8.207,80.943L8.375,80.932L8.502,80.845L8.537,80.625L8.484,79.656L8.411,79.413L8.245,79.066L8.202,78.975L8.163,78.678L8.504,76.688L8.551,76.411L8.813,74.861L8.909,74.296L9.184,72.684L9.421,72.102L9.505,71.805L9.491,71.503L9.304,70.813L9.327,70.541L9.465,70.113L10.160,69.144L10.246,68.966L10.432,69.040L10.548,69.139L10.656,69.182L10.813,69.082L10.868,68.961L11.374,66.361L11.484,66.021L11.665,65.725L12.500,64.761L12.800,64.414L12.850,64.305L13.078,63.811L13.039,63.195L12.746,61.918L12.754,61.593L12.949,60.258L12.862,59.440L12.885,59.280L13.185,58.655L13.390,58.536L13.737,58.269L13.961,58.096L14.624,57.796L16.311,57.413L16.464,57.326L16.636,57.124L16.922,56.592L16.970,56.535L17.044,56.280L17.400,55.906L17.509,55.613L17.424,54.970L17.420,54.664L17.620,54.476L17.676,54.338L17.717,54.174L17.749,53.836L17.792,53.733L18.274,53.239L18.410,53.171L18.545,53.128L18.690,53.154L18.861,53.292L19.134,53.420L19.328,53.214L19.519,52.896L19.784,52.690L19.968,52.673L20.326,52.713L20.538,52.690L20.837,52.611L21.058,52.520L21.258,52.379L21.574,52.112L22.766,50.579L23.455,49.693L24.789,47.975L26.926,46.250L29.097,44.494L30.225,43.584L31.334,42.191L31.699,41.733L32.713,40.455L33.654,39.271L34.106,38.451L34.242,37.686L34.248,37.655L34.221,37.613L34.043,37.341L33.149,36.834L32.821,36.578L32.700,36.306L32.646,35.974L32.622,35.292L31.859,35.580L31.596,35.621L31.382,35.611L30.690,35.492L30.460,35.371L30.378,35.228L30.430,35.165L30.519,35.118L30.543,35.027L30.505,34.911L30.470,34.845L29.578,33.843L29.312,33.672L28.726,33.669L28.466,34.103L28.246,34.612L27.792,34.831L27.525,34.711L27.232,34.448L26.970,34.137L26.810,33.878L26.768,33.647L26.770,33.407L26.735,33.214L26.578,33.124L25.471,33.113L25.244,33.045L25.199,32.773L25.342,32.444L25.541,32.123L25.662,31.869L25.675,31.585L25.615,31.000L25.635,30.706L25.700,30.545L26.008,30.063L26.045,29.940L26.057,29.873L26.093,29.674L26.621,28.252L26.640,28.171L26.644,28.014L26.683,27.925L26.750,27.881L26.941,27.844L27.003,27.813L27.111,27.656L27.501,26.593L27.524,25.963L27.352,25.338L26.988,24.700L26.715,24.448L25.979,23.936L25.790,23.702L25.770,23.399L25.834,23.063L26.079,22.325L26.724,20.388L27.007,19.828L27.064,19.792L27.254,19.749L27.328,19.712L27.378,19.631L27.398,19.465L27.427,19.388L27.739,18.850L28.195,18.349L28.315,18.175L28.396,18.058L28.495,17.720L28.466,17.536L28.308,17.204L28.283,17.023L28.389,16.576L28.384,16.435L28.180,16.058L27.924,16.146L27.625,16.402L27.282,16.529L27.349,16.280L27.695,15.600L28.739,14.081L28.811,13.895L28.859,13.712L28.940,13.540L29.114,13.387L29.280,13.330L29.593,13.337L29.753,13.315L29.968,13.217L30.455,12.830L30.602,12.771L30.902,12.711L31.044,12.655L31.467,12.325L32.053,11.868L32.465,11.753L33.211,11.753L33.858,11.843L34.478,12.041L35.785,12.750L37.803,13.847L38.092,13.907L38.262,13.757L38.278,13.743L38.462,13.513L38.740,13.374L40.379,13.134L40.668,13.010L40.815,12.877L42.073,11.464L42.107,11.373L42.156,11.383L42.474,11.530L42.568,11.574L42.941,11.887L44.067,13.145L44.293,13.525L44.353,13.825L44.401,14.552L44.511,14.819L44.726,14.932L45.968,15.008L46.093,15.016L46.273,15.112L46.473,15.432L46.578,15.600L46.820,15.850L47.086,15.987L48.079,16.188L48.270,16.180L48.374,16.043L48.396,15.943L48.444,15.720L48.448,15.475L48.379,14.910L48.396,14.705L48.583,14.491L51.490,12.722L52.182,12.560L55.084,12.324L57.567,12.122L58.893,11.723L60.134,11.093L61.093,10.381L61.372,10.281L61.688,10.413L63.682,12.042L64.014,12.217L64.503,12.311L65.942,12.383L68.483,12.512L69.167,12.427L69.753,12.084L69.830,12.039L70.993,10.873L72.505,9.356L74.271,7.586L75.572,6.285L76.852,5.000L77.310,5.221L77.665,5.501L77.863,5.867L77.842,6.354L77.861,6.569L78.000,6.742L78.177,6.903L78.309,7.081L78.358,7.264L78.363,7.450L78.317,7.818L78.255,8.038L78.186,8.189L78.180,8.349L78.304,8.600L78.492,8.775L78.724,8.930L78.906,9.112L78.946,9.367L78.777,9.772L78.577,10.136L78.554,10.410L78.921,10.543L79.169,10.494L79.796,10.270L80.103,10.272L80.453,10.455L80.494,10.671L80.322,10.884L79.568,11.274L79.597,11.361L79.845,11.454L80.043,11.694L79.728,11.896L79.623,12.018L79.824,12.094L79.958,12.085L80.231,12.014L80.541,11.994L80.855,11.905L81.021,11.892L81.031,11.969L81.382,12.422L81.620,13.059L81.803,13.163L81.877,13.097L81.945,12.945L82.110,12.791L82.540,12.667L82.824,12.780L83.336,13.328L83.634,13.483L83.929,13.573L84.161,13.723L84.267,14.055L84.228,15.326L84.079,15.959L83.779,16.421L83.632,16.496L83.470,16.538L83.327,16.601L83.239,16.739L83.252,16.910L83.446,17.249L83.511,17.422L83.487,17.572L83.328,17.959L83.281,18.138L83.322,18.327L83.446,18.497L83.594,18.659L83.710,18.828L83.915,19.458L84.071,21.399L84.243,21.761L84.573,21.970L85.317,22.184L85.649,22.403L85.834,22.735L85.835,22.737L86.294,25.127L86.452,25.402L86.953,25.960L87.190,26.337L87.334,26.486L87.549,26.543L87.647,26.510L87.824,26.365L87.889,26.333L87.928,26.305L87.998,26.182L88.038,26.157L88.098,26.185L88.132,26.240L88.158,26.295L88.189,26.323L88.219,26.366L88.666,26.581L88.749,26.601L88.857,26.735L88.921,26.875L89.243,27.871L89.483,29.244L90.149,30.629L90.297,30.774L90.515,30.791L90.642,30.674L90.747,30.542L90.890,30.520L91.049,30.736L91.138,31.522L91.230,31.824L91.661,32.266L91.806,32.536L91.764,32.894L91.530,33.174L91.212,33.356L90.926,33.576L90.787,33.967L90.890,34.587L91.501,36.061L91.787,36.749L92.500,38.469L92.502,38.774L92.353,39.479L92.329,39.787L92.348,40.113L92.414,40.430L92.526,40.707L92.665,40.871L93.036,41.217L93.116,41.393L93.057,41.563L92.761,41.937L92.693,42.129L92.677,45.200L92.582,45.543L92.081,46.605L91.966,46.785L91.805,46.936L91.648,47.008L91.316,47.076L91.158,47.156L90.794,47.698L90.461,48.974L89.522,49.742L89.550,50.007L89.581,50.304L89.855,50.947L90.020,51.576L89.821,52.218L89.318,52.446L88.018,52.579L87.690,52.780L87.151,53.297L86.385,53.472L86.277,53.761L86.251,54.117L86.171,54.255L86.081,54.407L86.063,54.411L85.752,54.470L85.494,54.324L85.232,54.263L84.909,54.580L84.754,54.862L84.622,55.184L84.540,55.520L84.530,56.229L84.437,56.553L84.027,57.565L83.572,58.157L83.345,58.794L83.074,59.040L82.060,59.548L81.929,59.687L81.895,59.885L81.833,60.249L81.578,60.927L81.197,61.335L80.686,61.595L80.045,61.827L79.578,62.147L79.307,62.634L79.293,62.687L78.913,64.247L78.864,64.381L78.753,64.546L78.480,64.870L78.410,65.013L78.426,65.304L78.604,65.881L78.560,66.202L78.425,66.411L77.857,66.852L76.587,68.547L76.452,68.726L75.533,69.951L75.484,70.263L75.975,71.891L76.464,73.515L76.480,74.126L76.189,76.635L75.814,79.893L75.553,82.160L75.611,84.315L75.701,87.531L74.406,87.531L71.515,87.531L71.397,87.531L68.622,87.531L68.152,87.531L65.730,87.531L62.836,87.531L59.945,87.531L59.002,87.531L57.053,87.531L57.027,87.531L54.161,87.531L51.267,87.531L48.374,87.531L45.481,87.531L45.398,87.531L42.589,87.531L39.697,87.531L36.804,87.531L34.249,87.531L33.912,87.531L31.020,87.531L28.126,87.531L27.106,87.531L26.854,87.407L26.296,87.266L25.702,87.576L25.102,87.766L24.874,87.885L24.309,88.483L24.108,88.650L23.727,88.530L23.383,88.493L22.586,88.566L22.292,88.635L22.102,88.650L22.013,88.609L21.931,88.521L21.814,88.442L21.618,88.424L21.490,88.527L21.472,88.546Z" fill="currentColor" stroke="currentColor" stroke-width="1" stroke-linejoin="round"/>
</svg>