<svg xmlns="http://www.w3.org/2000/svg" viewBox="0 0 100 100" role="img" aria-label="Ukraine">
  <title>Ukraine</title>
  <path d="M59.986,20.039L59.863,20.277L59.604,20.303L59.358,20.567L59.344,20.378L59.017,20.667L58.798,20.831L58.470,20.982L58.456,20.806L58.210,20.793L57.582,20.969L57.309,20.717L57.036,20.567L56.913,20.541L56.790,20.365L56.489,20.416L56.216,20.416L55.997,20.315L55.847,20.365L55.902,20.780L56.052,20.982L55.697,21.045L55.711,21.309L55.779,21.498L55.683,21.738L55.929,21.751L55.697,21.902L55.437,22.130L55.027,22.332L54.809,22.370L54.590,22.572L54.003,22.471L53.716,22.471L53.784,22.281L53.429,22.028L53.101,22.104L52.980,21.989L52.850,22.041L52.642,22.117L52.570,22.044L52.430,22.000L52.082,21.981L51.617,21.905L51.440,21.984L51.337,21.934L51.283,21.792L51.047,21.776L50.944,21.849L50.979,21.943L50.890,21.981L50.671,22.063L50.613,22.193L50.617,22.256L50.541,22.439L50.299,22.531L50.125,22.477L50.074,22.322L49.814,22.250L49.722,22.076L49.633,22.123L49.510,22.171L49.353,22.171L48.981,22.275L48.875,22.237L48.851,22.177L48.783,22.186L48.803,22.284L48.725,22.300L48.745,22.385L48.789,22.461L48.721,22.553L48.738,22.642L48.759,22.689L48.738,22.756L48.666,22.740L48.632,22.781L48.544,22.822L48.513,22.857L48.537,22.888L48.581,22.914L48.588,22.952L48.513,22.964L48.482,22.964L48.468,23.012L48.489,23.047L48.458,23.104L48.383,23.091L48.345,23.072L48.298,23.132L48.243,23.145L48.216,23.167L48.229,23.208L48.164,23.199L48.134,23.189L48.096,23.227L48.106,23.348L48.175,23.456L48.065,23.560L48.059,23.624L47.980,23.627L47.895,23.598L47.819,23.589L47.765,23.601L47.710,23.700L47.666,23.792L47.567,23.874L47.498,24.148L47.406,24.189L47.358,24.221L47.386,24.322L47.399,24.396L47.345,24.459L47.259,24.478L47.194,24.539L47.113,24.602L47.133,24.653L47.229,24.618L47.287,24.647L47.290,24.714L47.235,24.787L47.174,24.863L47.184,24.968L47.150,25.029L47.068,25.039L46.969,25.026L46.894,25.042L46.860,25.102L46.891,25.163L46.949,25.265L46.928,25.360L46.952,25.443L46.962,25.494L46.880,25.533L46.788,25.533L46.781,25.581L46.815,25.625L46.843,25.660L46.805,25.686L46.737,25.680L46.720,25.727L46.727,25.810L46.675,25.830L46.614,25.823L46.600,25.884L46.655,25.919L46.716,25.935L46.781,25.977L46.829,26.021L46.778,26.047L46.710,26.044L46.706,26.101L46.727,26.175L46.771,26.239L46.805,26.293L46.877,26.229L46.914,26.203L46.966,26.245L46.986,26.290L46.969,26.344L46.925,26.446L46.901,26.526L46.942,26.565L46.972,26.622L46.993,26.690L47.020,26.776L47.085,26.805L47.140,26.821L47.171,26.853L47.130,26.914L47.041,26.936L46.959,26.972L46.955,27.048L47.013,27.161L47.058,27.161L47.116,27.122L47.164,27.157L47.324,27.542L47.256,27.603L47.232,27.664L47.287,27.729L47.324,27.767L47.297,27.841L47.167,27.860L47.085,27.941L47.034,28.018L47.106,28.024L47.116,28.047L47.065,28.063L47.078,28.098L47.116,28.092L47.153,28.043L47.140,28.143L47.133,28.214L47.075,28.249L46.986,28.268L46.928,28.323L46.891,28.410L46.559,28.246L46.358,28.288L46.327,28.230L46.392,28.153L46.365,28.092L46.368,28.034L46.245,28.050L46.064,28.015L46.003,27.928L45.804,27.713L45.678,27.642L45.876,27.504L45.784,27.151L45.668,27.097L45.487,26.863L45.279,26.680L45.115,26.648L44.954,26.507L44.896,26.523L44.889,26.677L44.729,26.587L44.725,26.542L44.684,26.565L44.691,26.661L44.619,26.680L44.206,26.555L44.165,26.558L44.162,26.626L44.056,26.712L43.998,26.715L43.960,26.709L43.936,26.760L43.882,26.818L43.810,26.789L43.807,26.709L43.697,26.658L43.602,26.696L43.509,26.722L43.506,26.779L43.458,26.914L43.468,26.981L43.342,26.975L43.301,26.920L43.161,26.978L43.123,26.920L43.045,26.914L43.065,27.029L42.901,26.965L42.796,26.907L42.782,26.824L42.744,26.664L42.799,26.613L42.782,26.539L42.779,26.498L42.796,26.453L42.768,26.370L42.649,26.382L42.604,26.437L42.512,26.475L42.434,26.517L42.451,26.571L42.386,26.558L42.331,26.574L42.300,26.613L42.239,26.562L42.205,26.635L42.133,26.651L42.123,26.735L42.109,26.795L42.048,26.831L41.969,26.888L41.894,26.792L41.791,26.735L41.754,26.882L41.679,26.972L41.706,27.077L41.689,27.190L41.658,27.167L41.569,27.363L41.320,27.283L41.180,27.257L41.023,27.315L40.914,27.446L40.791,27.465L40.729,27.501L40.682,27.427L40.671,27.151L40.617,26.962L40.562,26.907L40.466,26.895L40.432,26.760L40.340,26.629L40.371,26.408L40.419,26.363L40.398,26.229L40.391,26.168L40.364,26.082L40.162,26.101L40.108,25.983L40.104,25.839L39.998,25.743L40.026,25.689L39.910,25.628L39.968,25.466L39.794,25.450L39.698,25.418L39.589,25.520L39.568,25.612L39.435,25.651L39.240,25.903L39.110,26.060L38.991,26.047L38.943,25.903L38.735,25.970L38.530,25.945L38.492,26.037L38.414,26.095L38.240,26.159L38.093,26.402L37.953,26.696L37.980,26.808L38.028,26.975L37.977,27.052L37.891,27.209L37.847,27.138L37.813,27.077L37.809,26.847L37.720,26.888L37.717,26.972L37.611,27.026L37.546,27.010L37.345,26.207L37.399,26.149L37.321,26.149L37.283,26.124L37.410,26.092L37.399,26.072L37.331,26.079L37.263,26.063L37.089,26.047L36.914,26.047L36.901,25.983L36.747,25.967L36.696,25.919L36.440,25.909L36.026,26.223L35.941,26.277L35.883,26.280L35.921,26.194L35.897,26.101L35.801,25.983L35.545,25.667L35.401,25.689L35.408,25.641L35.480,25.278L35.425,25.233L34.978,25.514L34.961,25.673L34.845,25.791L34.794,25.778L34.691,25.964L34.561,26.031L34.493,26.015L34.373,26.101L34.240,26.117L33.851,26.159L33.947,26.021L34.018,25.871L33.909,25.906L33.827,26.008L33.745,25.961L33.755,25.810L33.670,25.718L33.540,25.667L33.414,25.689L33.325,25.798L33.267,25.967L33.339,26.120L33.369,26.239L33.363,26.299L33.199,26.370L33.110,26.411L33.024,26.581L32.963,26.706L32.912,26.792L32.802,26.751L32.707,26.629L32.598,26.594L32.522,26.501L32.478,26.462L32.553,26.418L32.553,26.274L32.697,26.159L32.772,26.037L32.796,25.884L32.768,25.817L32.601,25.782L32.519,25.750L32.382,25.737L32.297,25.788L32.167,25.747L32.048,25.676L31.904,25.590L31.833,25.680L31.737,25.597L31.718,25.951L31.554,25.683L31.295,25.734L31.008,25.708L30.338,25.785L30.475,25.351L30.229,25.325L30.174,24.523L29.122,24.548L28.931,24.739L28.549,24.637L28.084,24.548L27.674,24.141L27.169,24.167L26.923,24.294L26.622,24.332L26.213,24.014L26.117,23.773L25.694,23.836L25.051,23.824L24.669,23.532L24.259,23.354L23.849,23.418L23.439,23.354L23.112,23.189L23.098,23.418L22.469,23.430L22.128,23.316L21.827,23.253L21.636,23.379L20.912,23.316L20.461,23.012L20.092,23.075L19.655,23.215L18.904,23.608L18.767,23.468L18.439,23.582L18.235,23.494L17.975,23.709L17.538,23.570L17.087,23.608L16.090,23.773L15.694,24.205L15.803,24.714L15.598,24.968L14.874,25.338L14.635,25.689L14.218,25.951L13.965,25.881L13.685,25.881L13.603,25.810L13.836,25.600L13.583,25.523L13.187,25.542L13.166,25.338L12.627,25.478L12.278,25.670L12.551,25.970L12.429,26.194L12.654,26.552L12.490,26.558L12.362,26.529L12.384,26.614L12.470,26.689L12.573,26.665L12.640,26.794L12.517,26.903L12.530,26.980L12.704,27.011L12.662,27.099L12.781,27.298L12.677,27.405L12.712,27.548L12.561,27.665L12.461,27.888L12.524,28.165L12.684,28.149L12.812,28.243L12.897,28.382L12.981,28.718L13.328,28.962L13.386,29.101L13.592,29.171L13.615,29.347L13.514,29.361L13.651,29.729L13.805,29.766L13.903,30.213L13.860,30.273L14.034,30.373L14.113,30.492L14.121,30.704L14.276,30.858L14.531,31.121L14.741,31.208L14.981,31.309L14.866,31.499L14.608,31.561L14.365,31.522L14.194,31.558L14.058,31.857L14.208,32.065L14.358,32.052L14.372,32.404L14.645,32.456L14.604,32.716L14.713,32.938L14.700,33.734L14.467,34.440L14.276,34.716L13.156,34.820L12.746,35.096L12.664,35.332L12.336,35.516L11.039,36.753L10.437,37.412L9.563,38.603L8.306,40.143L7.883,40.862L7.541,41.329L7.692,41.582L7.787,41.743L8.047,42.746L7.978,43.430L7.896,43.565L8.006,43.739L7.883,44.035L8.047,43.968L8.074,44.142L8.279,44.142L8.279,44.270L8.484,44.479L8.614,44.465L8.634,44.580L8.784,44.620L8.620,44.809L8.754,45.243L8.641,45.279L8.528,45.279L8.462,45.110L8.366,45.118L8.334,45.045L8.123,44.907L8.074,44.980L7.899,44.912L7.791,44.930L7.713,45.008L7.498,44.857L7.438,44.710L7.326,44.671L7.298,44.601L7.213,44.576L7.125,44.642L7.087,44.714L7.070,45.083L7.011,45.138L7.038,45.243L6.922,45.320L6.825,45.304L6.728,45.359L6.673,45.486L6.458,45.809L6.486,45.948L6.432,46.157L6.266,46.279L6.221,46.592L6.269,46.724L6.254,46.827L6.198,46.923L6.068,47.044L6.055,47.147L6.156,47.287L6.070,47.462L6.046,47.647L5.841,47.738L5.730,47.847L5.606,47.926L5.535,48.095L5.279,48.235L5.151,48.460L5.120,48.616L5.106,48.874L5.021,49.493L5.000,49.645L5.037,49.762L5.092,49.777L5.089,49.723L5.227,49.685L5.363,49.598L5.457,49.706L5.569,49.713L5.633,49.719L5.590,49.849L5.511,49.886L5.646,50.083L5.897,50.144L5.913,50.254L5.877,50.346L5.908,50.372L5.914,50.431L5.992,50.485L6.001,50.690L6.105,50.795L6.153,50.955L6.228,51.035L6.310,50.923L6.406,50.909L6.404,50.929L6.460,50.938L6.471,50.900L6.549,50.964L6.644,50.972L6.656,50.936L6.746,50.882L6.819,50.942L6.796,50.993L6.878,51.006L6.869,51.091L6.977,51.224L7.152,51.317L7.149,51.397L7.102,51.422L7.184,51.591L7.289,51.697L7.242,51.723L7.281,51.774L7.271,51.845L7.297,51.915L7.255,51.980L7.404,52.000L7.473,52.070L7.678,52.108L7.823,51.969L7.864,51.960L7.898,51.928L7.943,51.935L7.970,51.893L8.019,51.910L8.079,51.886L8.092,51.928L8.119,51.967L8.184,51.956L8.151,51.878L8.244,51.917L8.290,51.871L8.327,51.885L8.304,51.990L8.344,51.987L8.396,51.903L8.449,51.962L8.443,52.073L8.480,52.195L8.525,52.171L8.596,52.215L8.597,52.361L8.645,52.401L8.699,52.376L8.698,52.521L8.630,52.624L8.613,52.697L8.486,52.848L8.513,52.909L8.491,52.932L8.546,52.927L8.588,52.948L8.586,52.967L8.602,52.961L8.600,52.986L8.629,52.986L8.631,52.958L8.661,52.986L8.652,53.012L8.660,53.038L8.680,53.030L8.691,53.060L8.754,53.035L8.755,53.063L8.744,53.076L8.756,53.080L8.748,53.114L8.773,53.112L8.767,53.126L8.780,53.129L8.779,53.133L8.784,53.112L9.023,53.050L9.020,53.033L8.983,52.837L8.901,52.759L8.901,52.682L8.933,52.649L9.015,52.665L9.104,52.732L9.119,52.706L9.203,52.734L9.285,52.825L9.334,52.826L9.387,52.866L9.444,52.794L9.633,52.727L9.720,52.754L9.775,52.685L9.741,52.651L9.816,52.541L9.795,52.472L9.823,52.376L9.823,52.300L9.877,52.225L9.898,52.108L9.952,52.074L10.048,51.943L10.178,51.895L10.233,52.067L10.513,52.101L10.608,52.039L10.642,52.163L10.724,52.225L10.676,52.362L10.765,52.465L10.970,52.520L10.943,52.623L11.175,52.727L11.380,52.844L11.523,52.912L11.769,53.029L11.933,52.644L12.131,52.768L12.384,52.761L12.623,52.885L12.958,52.844L13.279,52.919L13.443,53.036L13.552,53.270L13.617,53.295L13.685,53.219L13.962,53.195L14.020,53.067L14.140,53.050L14.215,53.081L14.331,53.040L14.416,53.171L14.573,53.140L14.751,53.264L14.816,53.419L15.000,53.439L15.099,53.394L15.250,53.436L15.366,53.553L15.547,53.491L15.704,53.477L15.861,53.346L15.987,53.436L16.151,53.339L16.230,53.136L16.438,53.019L16.687,53.095L16.804,53.129L16.930,53.071L17.046,53.085L17.107,53.002L17.265,53.174L17.360,53.150L17.452,53.326L17.592,53.567L17.589,53.760L17.763,53.912L17.770,53.984L17.920,53.967L18.002,54.064L18.094,53.994L18.166,54.122L18.375,54.136L18.344,54.250L18.518,54.550L18.634,54.658L18.668,54.851L18.993,54.817L19.191,54.834L19.263,54.782L19.423,54.837L19.508,54.689L19.580,54.720L19.826,54.606L19.809,54.516L19.969,54.340L20.051,54.378L20.110,54.302L20.082,54.209L20.157,54.098L20.226,53.991L20.236,53.912L20.297,53.850L20.352,53.819L20.359,53.667L20.407,53.577L20.550,53.587L20.615,53.581L20.765,53.429L20.991,53.419L21.513,53.339L21.913,53.267L22.176,53.253L22.360,53.160L22.510,53.181L22.678,53.202L22.808,53.219L22.859,53.195L22.931,53.233L23.108,53.239L23.306,53.126L23.334,53.060L23.525,53.016L23.661,53.085L23.743,53.047L23.801,52.954L23.928,52.971L24.006,53.009L24.522,52.878L24.730,52.950L24.847,52.892L24.915,52.902L25.144,52.823L25.215,52.713L25.270,52.386L25.557,52.177L25.642,51.950L25.728,51.727L25.892,51.617L25.857,51.449L25.885,51.408L25.956,51.415L25.950,51.357L26.001,51.408L26.073,51.319L26.134,51.336L26.103,51.384L26.192,51.364L26.315,51.295L26.390,51.346L26.380,51.281L26.482,51.254L26.489,51.189L26.561,51.165L26.633,51.178L26.691,51.161L26.783,51.202L26.821,51.196L26.848,51.206L26.933,51.168L26.954,51.113L27.070,51.151L27.049,51.035L27.097,50.959L27.138,50.949L27.189,51.014L27.299,50.997L27.282,50.918L27.333,50.939L27.343,50.857L27.348,50.843L27.327,50.826L27.292,50.735L27.406,50.626L27.443,50.566L27.445,50.508L27.572,50.411L27.575,50.354L27.681,50.337L27.609,50.125L27.660,50.106L27.693,50.169L27.775,50.262L27.896,50.444L27.986,50.386L27.997,50.406L27.996,50.455L28.023,50.511L28.172,50.612L28.252,50.603L28.271,50.554L28.313,50.501L28.333,50.366L28.316,50.337L28.302,50.217L28.290,50.195L28.233,50.154L28.162,50.216L28.080,50.154L28.009,50.123L28.003,50.097L27.758,49.753L27.827,49.708L27.948,49.801L28.026,49.719L28.067,49.640L28.173,49.637L28.435,49.691L28.545,49.636L28.631,49.716L28.683,49.810L28.651,49.902L28.828,50.070L28.831,50.014L29.142,50.117L29.188,50.080L29.189,49.940L29.314,49.916L29.425,49.984L29.436,49.882L29.414,49.862L29.419,49.785L29.376,49.746L29.389,49.719L29.309,49.652L29.254,49.629L29.311,49.599L29.375,49.637L29.442,49.613L29.499,49.645L29.511,49.600L29.545,49.548L29.601,49.541L29.631,49.698L29.728,49.815L29.728,49.849L29.787,49.940L29.879,49.996L29.987,49.945L30.013,49.958L30.142,49.841L30.174,49.874L30.253,49.875L30.362,50.009L30.495,49.947L30.612,50.022L30.663,49.715L30.741,49.642L30.725,49.586L30.783,49.472L30.868,49.493L30.872,49.430L30.936,49.483L30.926,49.422L31.076,49.518L31.056,49.569L31.063,49.669L31.095,49.709L31.257,49.701L31.407,49.725L31.510,49.422L31.633,49.350L31.701,49.370L32.073,49.108L32.193,49.128L32.114,49.333L32.340,49.452L32.558,49.507L32.678,49.411L32.924,49.360L33.238,49.568L33.272,49.660L33.542,49.763L33.552,49.916L33.641,50.104L34.000,50.364L34.341,50.340L34.573,50.456L34.618,50.634L34.549,50.928L34.590,51.031L34.703,51.045L34.857,50.942L34.877,50.819L35.086,50.894L35.068,51.014L35.092,51.213L35.209,51.254L35.680,50.970L35.741,51.048L35.888,50.935L35.994,51.048L35.946,51.384L35.714,51.559L35.673,51.727L35.854,51.785L35.953,51.754L36.066,51.490L36.315,51.483L36.315,51.765L36.257,51.875L36.472,52.239L36.663,52.300L36.626,52.163L36.640,51.881L36.752,51.754L36.677,51.658L36.824,51.607L37.039,51.418L37.039,51.542L37.094,51.490L37.241,51.628L37.357,51.641L37.381,51.700L37.558,51.700L37.582,51.854L37.671,51.813L37.729,51.837L37.890,51.782L37.985,51.851L38.091,51.847L38.159,51.789L38.197,51.854L38.327,51.830L38.426,52.008L38.395,52.194L38.310,52.235L38.374,52.266L38.388,52.335L38.323,52.534L38.497,52.675L38.644,52.706L38.538,52.775L38.760,53.088L38.945,52.954L39.283,53.191L39.341,53.181L39.447,53.226L39.566,53.171L39.525,52.995L39.618,53.078L39.601,52.985L39.573,52.950L39.648,52.923L39.792,52.909L39.765,52.840L40.000,52.844L40.038,53.054L40.137,53.650L40.191,53.643L40.232,53.570L40.232,53.643L40.540,53.612L40.478,53.708L40.301,53.812L40.174,53.991L40.113,54.133L40.222,54.302L40.304,54.302L40.359,54.202L40.516,54.267L40.379,54.644L40.202,54.748L40.154,54.889L40.284,55.166L40.229,55.183L40.215,55.343L40.188,55.357L40.178,55.460L40.294,55.471L40.229,55.582L40.188,55.571L40.209,55.689L40.140,55.769L40.065,55.876L40.045,55.998L39.987,56.022L39.952,56.005L39.724,56.123L39.881,56.484L40.055,56.397L40.065,56.421L40.051,56.574L40.082,56.633L40.055,56.699L39.925,56.838L39.935,56.869L40.075,56.786L40.092,56.852L40.048,56.928L40.058,56.998L40.072,57.061L40.096,57.081L40.335,56.821L40.345,57.168L40.519,57.012L40.711,56.918L40.813,57.485L40.936,57.482L41.086,57.433L41.107,57.628L41.045,57.691L41.110,58.022L41.230,58.001L41.264,58.088L41.346,58.077L41.356,58.022L41.551,57.969L41.558,57.778L41.578,57.617L41.739,57.537L41.988,57.509L42.111,58.353L41.885,58.398L42.025,59.265L41.595,59.307L41.605,59.429L41.698,59.447L41.786,59.702L41.858,59.723L41.868,59.580L42.176,59.534L42.268,59.930L42.135,59.965L42.094,60.543L41.923,60.593L41.984,60.719L42.309,60.624L42.374,60.887L42.698,60.796L42.736,60.887L42.862,61.299L43.361,61.193L43.518,61.140L43.545,61.397L43.644,61.601L43.866,61.471L44.020,61.636L43.815,61.738L43.955,62.111L43.962,62.619L43.818,62.986L43.907,63.254L43.791,63.466L43.832,63.586L43.494,63.668L43.518,63.710L43.549,63.682L43.617,63.767L43.593,63.813L43.668,63.869L43.648,63.922L43.733,63.940L43.747,63.986L43.822,64.007L43.805,64.064L43.877,64.046L43.904,63.951L43.900,64.089L43.982,64.014L44.040,63.951L44.068,64.050L44.116,64.060L44.061,64.138L44.116,64.234L44.228,64.255L44.099,64.280L44.119,64.365L44.232,64.361L44.239,64.454L44.443,64.457L44.385,64.528L44.481,64.588L44.515,64.521L44.580,64.574L44.570,64.475L44.642,64.560L44.676,64.539L44.782,64.638L44.771,64.680L44.846,64.652L44.870,64.542L44.905,64.567L44.915,64.666L44.632,64.857L44.562,64.903L44.453,64.778L44.391,64.770L44.312,64.821L44.232,64.895L44.106,64.846L44.049,64.893L44.005,64.877L43.805,64.761L43.555,64.973L43.549,65.123L43.150,64.885L43.236,64.808L43.098,64.652L43.062,64.617L42.999,64.358L42.948,64.369L42.850,64.234L42.749,64.280L42.818,64.443L42.789,64.498L42.551,64.575L42.500,64.468L42.418,64.503L42.500,65.060L42.142,65.109L42.121,65.049L42.015,65.060L41.963,64.712L41.914,64.634L41.709,64.623L41.595,64.549L41.524,64.474L41.524,64.452L41.655,64.332L41.352,64.043L41.058,64.406L41.104,64.566L41.093,64.572L40.994,64.349L41.007,64.312L40.997,64.248L40.878,63.991L40.787,64.051L40.816,64.152L40.794,64.183L40.806,64.224L40.671,64.286L40.712,64.398L40.654,64.426L40.722,64.661L40.642,64.695L40.605,64.645L40.451,64.730L40.458,64.808L40.342,64.946L40.161,64.865L40.355,64.638L40.288,64.496L40.284,64.319L40.232,64.287L40.417,64.121L40.376,64.014L40.321,64.014L40.304,63.576L39.935,63.693L39.949,63.898L39.447,63.937L39.341,63.976L39.310,64.068L39.037,64.106L39.047,64.184L39.262,64.177L39.256,64.291L38.798,64.326L39.081,65.198L39.133,65.393L39.064,65.383L38.883,65.809L39.461,66.300L38.897,67.055L39.170,67.401L39.030,67.729L38.033,67.987L38.033,68.055L37.934,68.090L37.958,68.280L37.927,68.312L38.060,69.017L37.620,69.125L37.688,69.415L37.268,69.515L37.043,69.472L37.124,69.731L37.063,69.792L36.974,69.813L36.933,69.741L36.817,69.763L36.749,69.731L36.674,70.011L36.540,70.143L36.575,70.302L36.721,70.276L36.868,70.902L36.605,70.978L36.721,71.503L36.284,71.608L36.284,71.320L36.226,71.384L35.683,71.158L35.431,71.388L35.288,71.623L35.192,71.740L35.226,71.756L35.512,71.875L35.612,72.037L35.591,72.228L35.659,72.445L35.779,72.687L35.915,72.860L36.892,73.331L37.056,73.396L37.466,73.447L37.678,73.577L38.115,73.454L38.067,73.331L37.951,73.287L37.903,73.121L38.122,73.056L38.170,72.926L38.053,72.824L38.190,72.738L38.354,72.904L38.504,72.882L38.743,73.135L38.914,73.150L38.866,72.933L38.996,72.752L39.303,72.571L39.816,72.391L40.000,72.239L40.164,72.088L40.355,72.023L40.533,72.044L40.738,71.907L40.929,72.008L41.250,71.936L41.503,72.073L41.844,72.181L42.063,72.355L42.377,72.730L42.521,73.215L42.432,73.352L42.487,73.613L42.568,73.765L42.855,73.729L43.074,73.381L43.183,72.701L43.170,72.210L43.170,71.720L42.883,71.460L42.500,71.503L42.555,71.287L43.183,70.740L44.385,69.720L45.451,68.587L46.312,67.558L47.200,66.275L47.596,65.592L47.842,65.223L48.033,64.656L47.965,64.301L48.101,63.933L48.989,63.551L50.055,63.325L50.874,63.353L51.585,63.551L51.803,63.862L52.732,64.982L52.965,65.024L53.047,64.882L52.828,64.485L52.746,64.259L53.757,64.585L54.017,64.528L54.153,64.769L53.880,65.010L52.855,65.209L52.719,65.493L52.869,65.806L53.211,65.848L53.648,65.848L54.290,66.104L54.768,66.474L52.664,65.976L52.459,65.678L52.131,65.621L51.913,65.180L51.776,64.812L51.585,64.854L51.476,65.393L51.899,65.962L52.760,66.332L54.959,66.873L56.571,67.373L57.732,67.644L58.716,67.772L59.385,67.772L59.631,67.644L59.167,67.401L58.716,67.301L57.951,67.373L57.555,67.159L58.771,67.130L59.262,67.016L59.823,66.959L59.863,67.201L60.164,67.330L60.219,67.173L60.437,67.315L60.724,67.287L61.038,67.644L61.325,67.630L61.721,67.615L61.708,67.358L61.899,67.401L61.967,67.544L61.967,67.972L62.036,68.358L61.667,68.688L61.325,68.759L60.956,69.074L60.246,69.462L60.027,69.318L59.973,69.074L59.782,69.117L59.645,69.662L58.429,70.323L57.486,71.086L56.353,71.835L56.325,72.340L56.298,72.658L56.749,72.904L57.391,73.005L57.787,72.658L58.456,72.687L58.880,73.005L59.645,73.787L60.082,74.062L60.328,74.324L60.642,74.033L61.079,74.033L61.339,74.207L61.817,74.875L61.954,76.083L61.762,76.272L61.612,76.681L61.694,77.645L61.366,78.040L60.738,78.230L61.161,78.904L61.476,79.153L61.981,79.300L61.981,79.564L62.486,79.961L63.006,79.917L63.689,79.947L64.645,79.667L64.863,79.256L65.642,78.816L66.011,78.332L66.448,77.528L67.254,76.987L68.006,76.797L68.743,76.651L69.003,76.754L69.317,76.929L69.672,76.681L69.877,76.185L70.314,75.952L70.506,75.675L70.820,75.792L71.052,75.704L70.970,75.399L71.148,75.340L71.161,75.064L71.011,74.890L71.257,74.628L71.954,74.512L72.705,74.962L72.910,75.399L73.675,75.355L74.194,75.166L75.287,75.108L75.984,74.948L76.380,74.570L76.189,74.178L76.189,73.642L76.284,73.222L76.462,73.063L76.475,72.803L76.858,72.803L77.145,72.658L77.254,72.340L77.145,72.051L76.872,71.821L76.312,71.619L75.642,71.402L74.863,71.561L74.167,71.821L74.057,72.239L73.675,72.225L73.470,71.950L73.306,71.547L72.910,71.619L72.418,72.109L72.404,72.557L71.598,72.976L70.710,72.210L69.918,70.985L69.098,69.648L68.456,67.901L68.251,67.073L68.251,66.603L68.484,66.232L69.290,65.948L69.618,65.521L70.041,65.152L70.055,65.521L69.672,66.318L69.003,66.560L68.716,67.116L68.825,67.401L69.604,67.144L70.068,66.660L71.107,64.854L71.557,64.485L72.200,64.089L73.197,63.268L73.921,62.986L74.754,62.929L74.986,63.085L74.795,63.452L74.385,63.891L74.276,64.245L74.822,64.202L75.492,63.226L75.779,62.577L76.899,62.210L77.568,62.097L77.842,62.492L77.486,63.028L77.650,63.198L78.087,62.746L78.306,62.111L78.812,61.520L80.178,60.873L80.314,61.042L80.232,61.281L80.355,61.408L81.230,60.368L81.790,59.793L82.527,59.779L83.388,59.639L83.852,59.709L84.290,59.583L84.372,59.807L84.235,60.046L84.262,60.186L84.672,59.989L85.034,59.429L85.075,58.702L85.062,58.562L85.321,58.472L85.335,58.353L85.546,58.290L85.546,58.060L85.567,57.955L85.000,57.990L85.034,57.795L85.116,57.600L85.143,57.523L85.328,57.468L85.389,57.322L85.389,56.716L85.301,56.689L85.362,56.480L85.307,56.216L85.444,56.182L85.444,55.932L85.628,55.960L85.649,55.675L86.195,55.661L86.175,55.474L86.981,55.447L87.036,55.273L87.213,55.260L87.213,55.045L87.534,55.045L87.575,55.156L87.746,55.142L87.746,54.796L87.835,54.761L87.842,54.436L87.814,54.360L87.828,54.174L88.012,54.153L88.040,53.925L88.122,53.808L88.361,53.746L88.668,53.753L89.269,53.760L89.419,53.946L89.665,53.919L89.986,53.891L90.109,53.801L90.806,53.760L90.929,54.070L91.093,53.836L91.243,53.850L91.503,54.077L91.694,54.029L92.077,54.036L92.555,54.070L92.664,53.932L92.684,53.760L92.821,53.746L92.842,53.360L92.951,53.091L92.903,52.795L92.746,52.493L93.279,52.458L93.033,52.300L93.210,52.170L93.210,51.895L93.367,51.730L93.388,51.470L93.538,51.435L93.566,51.086L93.893,51.113L93.887,50.970L93.955,50.874L93.798,50.408L93.661,50.518L93.552,50.620L93.436,50.764L93.367,50.559L93.245,50.490L93.046,50.463L93.060,50.292L93.456,50.203L93.579,50.149L93.525,50.046L93.545,49.889L93.449,49.971L93.381,49.862L93.436,49.800L93.381,49.739L93.422,49.637L93.292,49.480L93.306,49.425L93.067,49.255L93.087,49.016L93.204,49.023L93.122,48.533L92.855,48.369L92.630,48.437L92.500,48.376L92.213,48.363L92.165,48.213L92.329,47.968L92.411,47.826L92.363,47.751L92.480,47.663L92.398,47.500L92.418,47.371L92.473,47.303L92.534,47.174L92.493,47.093L92.589,47.012L92.698,47.045L92.732,46.876L92.780,46.795L92.794,46.632L92.835,46.598L92.862,46.477L92.992,46.537L93.613,46.822L93.730,46.835L94.242,46.274L94.126,45.963L93.996,45.936L93.887,46.044L93.805,46.294L93.586,46.213L93.477,46.091L93.115,46.111L93.033,46.017L92.992,46.159L92.896,45.963L92.766,45.936L92.739,45.760L92.609,45.422L92.486,45.463L92.350,45.287L92.227,45.368L92.199,45.287L92.275,45.132L92.254,44.991L92.322,44.910L92.691,44.997L92.883,44.856L93.197,44.822L93.545,44.876L93.518,44.694L93.969,43.981L94.235,43.887L94.529,43.511L94.816,43.504L95.000,43.350L94.775,43.169L94.795,42.706L94.604,42.519L94.344,42.298L94.146,42.003L94.003,41.890L94.044,41.409L94.693,41.062L94.522,40.682L94.208,40.808L94.016,40.775L93.593,40.855L93.525,41.015L93.286,41.122L93.019,41.055L92.903,41.122L92.534,40.788L92.138,40.675L91.817,39.930L91.899,39.823L91.066,39.624L90.738,39.757L90.109,39.505L89.836,38.616L89.221,39.146L88.593,39.279L88.333,39.053L88.429,38.841L87.937,38.748L87.445,38.377L87.295,38.100L87.527,37.901L87.322,37.756L87.145,38.166L86.735,38.007L86.475,38.100L86.161,37.822L85.929,37.928L85.724,37.756L85.451,37.109L85.191,37.280L84.795,37.201L84.836,37.703L85.000,37.994L84.645,38.298L84.344,38.311L84.030,38.523L84.057,38.258L83.634,37.782L83.306,37.346L82.637,37.188L82.036,36.371L82.063,35.450L81.790,35.490L81.284,35.043L81.243,34.598L81.393,34.375L80.874,34.598L80.519,34.558L80.328,34.873L79.536,35.175L78.566,35.201L78.115,35.398L77.377,35.844L77.200,36.160L76.749,35.950L76.872,35.713L76.516,35.621L76.353,35.490L76.189,35.490L76.107,35.332L75.820,35.608L75.519,35.647L75.328,35.398L75.369,35.227L74.918,34.820L74.672,34.519L74.235,34.454L73.634,34.585L73.388,34.532L73.238,34.650L73.087,34.611L72.924,34.886L72.650,35.161L72.049,35.161L71.913,34.847L71.844,34.388L71.503,34.231L71.134,33.826L71.079,33.551L70.847,33.473L71.120,33.264L70.929,32.860L71.380,32.873L71.448,32.690L71.312,32.625L71.380,31.961L71.189,31.935L71.066,31.766L71.079,31.415L70.861,31.273L70.943,30.987L70.669,30.780L70.683,30.521L70.560,30.223L70.956,30.158L71.011,29.939L70.574,29.719L70.314,29.874L70.000,29.952L69.741,29.680L69.850,29.564L69.686,29.293L69.577,29.035L69.686,28.674L69.358,28.610L69.194,28.777L68.975,28.597L68.798,28.610L68.333,28.919L67.965,29.009L67.432,28.919L67.295,28.751L67.282,28.545L67.049,28.429L66.844,28.558L66.653,28.442L66.448,28.519L65.943,28.275L65.560,28.558L65.137,28.262L65.260,28.095L65.506,27.851L65.669,27.581L65.451,27.440L65.164,27.273L65.123,27.106L65.314,26.952L65.478,26.440L65.287,26.248L65.246,25.980L65.068,25.929L64.959,25.814L64.850,25.533L64.604,25.443L64.440,25.329L64.795,25.150L65.492,25.010L65.888,24.921L66.148,24.857L66.216,24.640L66.052,24.501L66.093,24.144L65.547,23.738L65.246,23.713L65.260,23.446L64.945,23.218L64.986,23.040L64.659,23.078L64.672,22.787L64.536,22.787L64.495,22.471L64.358,22.344L64.508,22.167L64.481,22.041L64.590,21.814L64.317,21.549L64.317,21.385L64.016,21.284L63.962,21.108L63.798,20.982L63.675,20.692L63.525,20.541L63.279,20.479L63.210,20.265L63.129,20.127L62.828,20.114L62.336,20.277L61.926,20.428L61.776,20.428L61.803,20.592L61.503,20.479L61.626,20.215L61.312,20.152L61.243,20.265L61.025,20.102L60.683,20.215L59.986,20.039Z" fill="currentColor" stroke="currentColor" stroke-width="1.5" stroke-linejoin="round"/>
</svg>