<svg xmlns="http://www.w3.org/2000/svg" viewBox="0 0 100 100" role="img" aria-label="United States Minor Outlying Islands">
  <title>United States Minor Outlying Islands</title>
  <path d="M7.056,49.233L7.058,49.232L7.059,49.232L7.058,49.233L7.056,49.234L7.055,49.234L7.054,49.234L7.054,49.234L7.055,49.233L7.056,49.233ZM9.541,53.851L9.547,53.850L9.546,53.853L9.543,53.854L9.541,53.851ZM5.236,53.697L5.237,53.697L5.238,53.696L5.239,53.696L5.239,53.698L5.238,53.698L5.238,53.698L5.237,53.697L5.236,53.697ZM5.243,53.689L5.243,53.691L5.242,53.690L5.243,53.689ZM5.197,53.537L5.196,53.534L5.196,53.533L5.196,53.533L5.196,53.532L5.197,53.533L5.197,53.537ZM94.991,48.553L94.994,48.553L94.996,48.552L94.997,48.550L94.995,48.547L94.999,48.549L95.000,48.553L94.998,48.555L94.991,48.553ZM5.016,46.147L5.017,46.148L5.018,46.148L5.017,46.148L5.014,46.149L5.016,46.147ZM5.008,46.146L5.007,46.148L5.005,46.149L5.002,46.150L5.000,46.150L5.001,46.148L5.003,46.146L5.005,46.146L5.008,46.146ZM7.055,49.240L7.058,49.240L7.053,49.243L7.051,49.243L7.051,49.243L7.051,49.242L7.055,49.240ZM7.060,49.237L7.060,49.237L7.061,49.237L7.060,49.237ZM31.778,48.786L31.779,48.787L31.782,48.787L31.782,48.787L31.783,48.787L31.784,48.788L31.784,48.788L31.784,48.789L31.784,48.790L31.784,48.790L31.784,48.791L31.783,48.792L31.783,48.792L31.783,48.792L31.782,48.792L31.782,48.792L31.781,48.792L31.780,48.792L31.780,48.792L31.780,48.791L31.780,48.791L31.779,48.791L31.779,48.790L31.778,48.789L31.778,48.789L31.778,48.789L31.777,48.787L31.777,48.786L31.778,48.786ZM9.010,52.163L9.011,52.164L9.010,52.167L9.007,52.168L9.002,52.167L9.001,52.166L9.002,52.166L9.003,52.165L9.006,52.164L9.005,52.164L9.004,52.164L9.003,52.164L9.001,52.163L9.000,52.163L8.999,52.163L8.999,52.162L9.007,52.162L9.010,52.163ZM8.921,52.013L8.925,52.013L8.925,52.017L8.921,52.017L8.921,52.013Z" fill="currentColor" stroke="currentColor" stroke-width="1" stroke-linejoin="round"/>
</svg>