<svg xmlns="http://www.w3.org/2000/svg" viewBox="0 0 100 100" role="img" aria-label="Uruguay">
  <title>Uruguay</title>
  <path d="M21.562,6.728L21.810,6.978L22.112,7.943L22.602,8.277L22.991,8.319L23.672,8.193L24.047,8.185L24.254,8.296L24.487,8.670L24.729,8.733L24.883,8.655L25.237,8.329L25.436,8.231L25.740,8.245L25.935,8.376L26.103,8.533L26.328,8.626L26.451,8.578L26.644,8.338L26.734,8.290L26.858,8.355L27.050,8.573L27.128,8.626L27.633,8.515L28.083,8.149L28.392,7.628L28.478,7.049L28.594,6.577L28.926,5.980L29.350,5.448L29.742,5.170L29.895,5.183L30.186,5.326L30.352,5.328L30.657,5.164L30.766,5.122L31.337,5.011L31.649,5.000L32.398,5.216L32.976,5.113L33.567,5.095L34.129,5.498L34.417,5.998L34.567,6.190L35.535,6.873L36.018,7.112L36.281,7.297L36.515,7.529L36.658,7.779L36.710,8.153L36.661,8.346L36.677,8.466L36.925,8.626L37.084,8.668L37.233,8.664L37.386,8.685L37.554,8.794L37.638,8.897L37.775,9.128L38.351,9.807L38.545,9.967L38.806,10.213L39.635,10.757L39.894,11.029L40.270,11.682L40.495,11.993L40.703,12.180L41.420,12.594L42.331,13.383L42.843,13.646L43.154,13.952L43.645,14.554L43.734,14.757L43.775,14.951L43.843,15.130L44.017,15.281L44.317,15.481L44.452,15.613L44.555,15.768L45.071,16.798L45.305,17.097L46.324,17.944L46.574,18.453L46.672,19.002L46.673,19.006L46.672,19.013L46.596,19.554L46.324,20.056L46.259,20.456L46.246,21.665L46.152,22.509L46.156,22.907L46.236,23.039L46.324,23.184L46.347,23.180L46.732,23.123L47.756,23.189L48.240,23.088L48.613,23.085L48.763,23.045L48.888,22.947L48.957,22.848L49.015,22.741L49.107,22.623L49.352,22.455L49.355,22.453L49.953,22.045L50.179,21.824L50.305,21.538L50.470,20.904L50.672,20.660L50.970,20.624L51.350,20.704L51.700,20.733L51.904,20.542L51.930,20.191L51.875,19.430L51.952,19.102L52.195,18.856L52.524,18.778L52.851,18.869L53.287,19.388L53.853,19.722L54.104,19.935L54.450,20.370L55.174,21.032L56.325,22.358L56.554,22.707L56.639,23.010L56.693,23.670L56.800,23.987L56.973,24.158L57.490,24.504L57.669,24.788L57.879,25.555L58.015,25.889L58.258,26.182L58.519,26.346L59.130,26.587L59.421,26.770L60.158,27.455L60.466,27.653L60.702,27.699L60.905,27.584L61.109,27.294L61.401,26.699L61.603,26.629L61.881,26.980L62.132,27.422L62.532,27.958L62.981,28.416L63.611,28.719L63.806,28.925L63.987,29.167L64.186,29.375L64.395,29.513L64.864,29.702L67.442,30.079L67.977,30.077L68.213,30.154L68.416,30.361L68.691,30.941L68.869,31.189L69.689,31.861L69.917,32.107L70.102,32.444L70.167,32.769L70.192,33.518L70.350,33.927L70.404,34.068L70.828,34.482L71.338,34.857L71.808,35.306L72.283,35.866L73.353,36.864L74.215,37.478L74.981,38.203L75.343,38.461L75.518,38.443L75.667,38.251L75.950,37.982L76.243,37.875L76.549,37.907L76.845,38.041L77.111,38.243L77.205,38.367L77.344,38.640L77.484,38.768L77.637,38.827L78.149,38.878L78.416,38.960L78.641,39.063L79.085,39.372L79.266,39.573L79.335,39.761L79.373,39.948L79.464,40.147L79.625,40.336L79.828,40.515L80.258,40.796L81.170,40.993L81.395,41.140L81.488,41.393L81.509,42.044L81.953,43.121L82.745,44.302L82.932,44.817L83.037,45.445L83.086,46.374L83.160,46.686L83.302,46.929L83.698,47.282L83.860,47.505L84.124,47.982L84.445,48.420L84.813,48.802L85.794,49.504L86.712,50.536L87.591,50.833L88.261,51.247L88.525,51.329L89.026,51.333L89.542,51.652L90.044,51.884L90.283,52.060L91.315,53.179L91.454,53.456L91.404,53.792L91.205,54.055L90.641,54.496L90.334,54.886L90.007,55.302L88.965,56.065L88.529,56.533L88.402,56.867L88.362,57.553L88.257,57.891L88.086,58.093L86.191,59.356L85.659,59.821L85.220,60.411L85.219,60.412L85.218,60.414L85.078,60.886L84.826,61.732L84.837,63.094L85.181,65.868L84.826,68.912L84.782,70.562L85.220,71.319L85.538,71.319L85.816,71.266L86.073,71.268L86.326,71.445L86.475,71.747L86.587,72.071L86.779,72.279L87.280,72.249L87.012,72.432L86.725,72.687L86.163,73.372L85.818,73.982L85.623,74.623L85.313,76.155L85.015,77.079L84.933,77.923L84.785,78.187L84.241,78.561L83.980,78.797L83.221,79.760L82.387,80.389L82.116,80.705L81.561,81.786L81.416,81.975L81.380,82.175L81.044,83.237L81.297,83.910L81.278,84.240L80.641,84.435L79.202,85.228L78.051,86.027L75.680,88.301L75.491,88.551L75.426,88.866L75.433,89.150L75.349,89.356L73.935,89.668L73.579,89.695L73.642,89.539L73.737,89.419L74.004,89.182L73.896,89.088L73.797,88.974L73.722,88.835L73.685,88.677L73.711,88.447L73.868,87.998L73.907,87.920L73.678,87.695L73.257,87.517L72.812,87.411L72.506,87.403L72.681,87.529L73.261,87.782L73.136,88.013L72.883,88.267L72.592,88.467L72.353,88.551L72.257,88.674L72.255,88.925L72.370,89.118L72.622,89.078L72.600,88.934L72.832,88.983L73.119,89.221L73.261,89.628L73.137,89.862L72.851,90.096L69.361,91.927L69.185,92.017L68.219,92.288L67.716,92.701L67.399,92.845L66.736,93.044L64.041,94.314L63.714,94.369L63.402,94.480L63.004,94.935L62.704,95.000L62.776,94.814L62.810,94.697L62.810,94.622L62.648,94.377L62.438,94.171L62.160,94.033L61.545,93.955L61.508,93.883L61.523,93.765L61.420,93.602L61.262,93.486L61.121,93.420L60.782,93.349L60.041,93.385L58.610,93.714L58.011,93.602L57.602,93.207L56.796,92.146L56.195,91.826L55.806,91.799L54.775,91.715L54.130,91.782L53.329,91.575L52.697,91.291L51.997,91.451L51.270,91.149L50.289,91.480L49.736,91.322L48.698,91.672L48.226,91.864L47.210,92.527L46.438,93.075L45.417,93.664L44.864,93.616L44.390,93.882L44.168,94.021L44.072,94.405L43.742,93.947L43.474,93.895L43.187,93.787L43.316,93.621L43.335,93.415L43.162,93.269L42.913,93.235L42.821,93.514L42.512,93.759L42.365,93.761L42.020,93.710L41.658,93.759L41.168,93.349L40.231,92.810L39.990,92.594L39.954,92.321L40.219,92.096L40.482,91.834L40.879,91.738L40.649,91.481L40.343,91.355L39.523,91.030L38.953,90.942L38.403,90.966L38.069,91.191L37.818,91.155L37.576,91.042L36.995,90.682L36.721,90.556L36.444,90.372L35.398,90.084L34.127,89.926L32.904,89.404L32.642,89.218L32.433,88.764L32.190,88.537L31.675,88.172L31.306,87.759L30.982,87.445L30.696,87.224L30.277,86.967L30.048,86.764L30.072,86.511L29.970,86.383L29.743,86.229L29.647,86.145L29.355,85.817L29.074,85.580L28.577,85.357L27.780,85.194L26.396,85.162L25.543,85.219L25.259,84.979L24.540,84.999L24.142,85.240L23.953,84.999L23.556,84.963L23.121,85.166L22.572,85.407L22.081,84.907L21.684,84.888L21.230,84.979L20.605,85.256L19.734,85.587L19.450,85.549L19.052,85.789L18.598,85.750L18.144,85.804L17.633,85.727L17.785,85.580L17.653,85.301L17.218,85.169L16.935,84.722L16.975,83.981L16.584,83.563L16.273,83.057L15.119,81.706L14.607,81.465L14.427,81.182L14.184,80.578L13.910,80.317L13.525,80.158L13.112,80.083L12.751,80.062L12.329,79.978L12.134,79.760L11.954,79.066L11.775,78.674L10.457,76.786L10.172,76.543L9.587,76.193L9.332,75.966L9.116,75.610L9.002,75.232L8.619,73.066L8.546,71.471L8.757,69.891L8.707,69.506L8.613,69.143L8.562,68.757L8.641,68.320L8.854,67.959L9.386,67.259L9.492,66.860L9.394,66.499L8.962,66.139L8.864,65.775L8.962,65.439L9.202,65.143L9.762,64.592L9.925,64.222L9.948,63.799L9.687,62.198L9.673,61.417L9.915,60.825L10.554,60.588L12.000,60.675L12.668,60.618L13.238,60.335L13.823,59.790L14.079,59.457L14.184,59.146L14.210,58.718L14.282,58.386L14.514,57.691L14.628,56.950L14.493,56.397L14.181,55.956L13.508,55.244L13.347,54.937L13.264,54.600L13.238,54.214L13.268,53.381L13.240,52.961L13.123,52.640L13.238,52.501L13.107,52.027L12.936,50.738L12.751,50.474L12.626,50.182L12.310,48.795L12.268,48.377L12.274,48.333L12.426,48.132L12.816,47.312L13.801,45.870L13.880,45.309L13.719,44.771L12.656,43.337L12.479,42.946L12.568,42.568L12.911,41.998L13.074,41.285L13.121,40.454L13.063,39.666L12.911,39.088L12.421,38.523L12.229,38.152L12.332,37.772L12.758,37.282L13.004,37.097L13.346,36.946L14.084,36.797L14.460,36.645L14.621,36.380L15.559,33.532L15.700,32.719L15.587,31.895L15.175,31.369L14.776,31.055L14.592,30.911L14.211,30.438L14.408,29.867L14.704,29.616L15.290,29.253L15.534,29.038L15.685,28.691L15.762,27.853L15.906,27.474L16.012,27.352L16.269,27.146L16.384,27.025L16.707,26.327L16.858,26.116L16.860,25.637L16.755,24.817L16.953,24.002L17.346,23.386L17.634,22.756L17.509,21.894L16.853,20.908L16.755,20.696L16.876,20.370L17.166,20.170L17.828,19.993L18.188,20.036L18.381,19.962L18.465,19.684L18.554,19.239L18.572,19.046L18.556,18.276L18.503,17.819L18.465,17.484L18.359,17.005L18.216,16.353L18.086,15.941L17.739,15.171L17.509,14.814L17.159,14.099L17.097,13.378L17.294,12.714L17.722,12.168L20.785,9.286L21.122,8.695L21.236,7.976L21.015,7.182L20.945,6.776L21.562,6.728Z" fill="currentColor" stroke="currentColor" stroke-width="1" stroke-linejoin="round"/>
</svg>