<svg xmlns="http://www.w3.org/2000/svg" viewBox="0 0 100 100" role="img" aria-label="Uzbekistan">
  <title>Uzbekistan</title>
  <path d="M87.856,59.653L87.878,59.726L87.760,60.172L87.708,60.258L87.627,60.274L87.493,60.232L87.391,60.183L87.279,60.100L87.227,59.999L87.312,59.895L87.444,59.888L87.534,59.842L87.726,59.695L87.856,59.653ZM83.524,57.916L83.416,57.906L82.952,57.949L82.205,58.183L81.980,58.202L81.759,58.188L81.548,58.033L81.454,57.736L81.384,57.413L81.245,57.181L81.129,57.131L81.029,57.142L80.931,57.173L80.816,57.184L80.706,57.151L80.445,57.033L80.516,56.790L80.501,56.760L80.456,56.705L80.445,56.695L80.448,56.697L80.379,56.594L80.370,56.575L80.361,56.543L80.353,56.396L80.436,56.260L80.591,56.158L80.952,56.072L81.003,56.051L81.055,55.981L81.182,55.763L81.252,55.691L81.326,55.657L81.403,55.635L81.482,55.597L81.549,55.539L81.733,55.308L82.051,55.042L82.130,54.969L82.205,54.909L82.249,54.887L82.335,54.867L82.353,54.840L82.362,54.807L82.380,54.779L82.461,54.727L82.462,54.723L82.474,54.665L82.519,54.430L82.318,54.312L81.839,54.200L81.757,54.092L81.744,53.972L81.794,53.883L81.898,53.872L82.080,54.033L82.184,54.072L82.194,53.942L82.151,53.881L81.195,52.789L81.029,52.643L81.013,52.622L81.000,52.599L80.899,52.488L80.834,52.416L80.601,52.318L80.404,52.371L80.259,53.108L79.968,53.452L79.589,53.683L79.045,53.901L78.549,54.287L77.583,54.595L77.468,54.653L77.364,54.742L77.144,55.025L77.019,55.138L76.879,55.181L76.717,55.121L76.651,55.060L76.597,54.986L76.501,54.821L76.443,54.750L76.311,54.662L76.249,54.606L76.045,54.283L75.926,54.171L75.759,54.155L75.677,54.104L75.612,54.033L75.542,53.976L75.447,53.965L75.277,54.021L75.193,54.068L75.119,54.131L74.985,54.306L74.904,54.488L74.867,54.697L74.864,54.954L74.900,55.326L74.879,55.420L74.804,55.467L74.485,55.494L74.298,55.625L74.295,55.769L74.506,56.132L74.507,56.132L74.619,56.525L74.670,56.649L74.806,56.900L74.863,57.032L74.896,57.187L74.858,57.529L74.689,57.559L74.487,57.480L74.350,57.498L74.371,57.704L74.753,58.054L74.753,58.220L74.556,58.312L74.295,58.303L73.824,58.159L73.644,58.066L73.478,57.981L73.358,57.961L72.506,58.096L72.402,58.140L72.219,58.246L72.097,58.263L71.793,58.209L71.677,58.220L71.385,58.298L71.172,58.356L71.062,58.434L71.198,58.587L71.432,58.738L71.618,58.811L71.667,58.801L72.894,58.556L73.138,58.736L73.173,58.834L73.189,58.941L73.181,59.042L73.138,59.128L73.019,59.148L72.638,59.087L72.532,59.122L72.346,59.288L72.278,59.310L72.159,59.091L72.077,59.023L72.009,59.152L72.020,59.215L72.113,59.291L72.131,59.344L72.120,59.487L72.128,59.553L72.154,59.623L72.615,60.276L72.633,60.431L72.410,60.526L72.290,60.336L72.210,60.034L72.103,59.795L71.994,59.717L71.958,59.772L71.977,59.902L72.027,60.053L72.145,60.309L72.143,60.407L72.080,60.541L72.060,60.555L72.005,60.565L71.987,60.576L71.950,60.681L71.951,60.691L71.950,60.726L71.939,60.795L71.904,60.841L71.833,60.804L71.693,60.570L71.607,60.503L71.429,60.666L71.359,60.636L71.298,60.632L71.244,60.782L71.192,61.908L71.163,62.075L71.093,62.213L70.967,62.350L70.743,62.497L70.672,62.601L70.690,62.644L70.728,62.733L70.729,62.735L70.625,62.784L70.303,62.872L70.043,62.897L69.786,62.878L69.358,62.720L68.573,62.695L66.783,62.217L66.537,62.212L66.342,62.276L65.854,62.636L65.435,62.703L65.332,62.808L65.368,63.117L65.350,63.142L65.328,63.163L65.304,63.176L65.278,63.182L65.143,63.163L65.063,63.173L65.015,63.236L64.950,63.505L64.915,63.786L64.909,64.044L64.843,64.279L64.803,64.510L64.769,64.523L64.722,64.508L64.666,64.527L64.617,64.573L64.592,64.604L64.581,64.653L64.572,64.752L64.610,65.028L64.611,65.030L64.758,65.172L65.391,65.406L65.817,65.422L66.024,65.509L66.047,65.536L66.089,65.614L66.118,65.646L66.154,65.653L66.241,65.634L66.275,65.645L66.322,65.728L66.323,65.730L66.332,65.825L66.273,66.367L66.299,66.537L66.299,66.539L66.304,66.544L66.395,66.638L67.065,66.751L67.206,66.748L67.604,66.608L67.604,66.608L67.605,66.608L67.675,66.571L67.749,66.551L67.824,66.552L67.913,66.583L67.954,66.608L68.034,66.690L68.121,66.707L68.208,66.674L68.295,66.607L68.336,66.596L68.379,66.592L68.422,66.596L68.463,66.607L68.464,66.607L68.465,66.608L68.466,66.608L68.546,66.710L68.723,67.117L68.821,67.268L68.875,67.351L68.927,67.492L68.921,67.646L68.875,67.762L68.810,67.856L68.729,67.930L68.641,67.985L68.518,68.011L68.425,68.008L68.366,68.046L68.349,68.197L68.364,68.268L68.395,68.329L68.418,68.394L68.415,68.472L68.388,68.515L68.255,68.613L68.214,68.718L68.228,68.846L68.298,69.107L68.310,69.249L68.292,69.650L68.306,69.803L68.345,69.896L68.472,70.099L68.502,70.205L68.513,70.427L68.531,70.529L68.580,70.628L68.786,70.834L68.980,71.206L69.069,71.302L69.341,71.462L69.757,71.852L69.884,72.064L69.907,72.333L69.821,72.742L69.691,73.128L69.487,73.456L69.424,73.589L69.424,73.590L69.424,73.591L69.423,73.591L69.423,73.592L69.383,73.711L69.360,73.817L69.320,73.905L69.264,73.949L69.238,73.969L69.158,73.995L68.914,74.030L68.750,74.089L68.657,74.189L68.434,74.902L68.280,75.222L67.898,75.785L67.615,76.071L67.345,76.434L67.122,76.845L66.975,77.275L66.955,77.568L67.059,78.120L67.077,78.414L67.049,78.665L66.989,78.902L66.890,79.111L66.867,79.213L66.843,79.083L66.781,78.990L66.689,78.930L66.580,78.901L66.393,78.910L66.327,78.901L66.269,78.870L66.154,78.778L66.094,78.758L66.035,78.766L65.935,78.799L65.880,78.806L65.847,78.838L65.815,78.908L65.775,78.974L65.718,78.997L65.632,78.916L65.533,78.627L65.413,78.563L65.304,78.595L65.208,78.673L65.035,78.858L64.931,78.941L64.826,78.999L64.712,79.033L64.585,79.045L64.451,79.077L64.251,79.215L64.134,79.239L64.017,79.189L63.957,79.082L63.918,78.952L63.866,78.832L63.760,78.729L63.528,78.634L63.422,78.563L63.373,78.457L63.286,78.154L63.222,78.091L63.112,78.056L62.902,77.896L62.807,77.848L62.554,77.842L62.072,77.963L61.387,77.995L61.332,78.017L61.229,78.112L61.173,78.134L61.031,78.128L60.966,78.115L60.620,77.959L60.494,77.944L60.360,77.955L60.258,77.989L60.128,77.883L60.140,77.755L60.219,77.635L60.317,77.528L60.400,77.384L60.379,77.273L60.296,77.178L60.193,77.084L60.121,76.886L60.141,76.636L60.256,76.166L60.276,75.888L60.234,75.340L60.254,75.066L60.437,74.722L60.727,74.323L60.920,73.927L60.871,73.782L60.807,73.592L60.807,73.591L60.806,73.591L60.629,73.458L60.439,73.361L60.239,73.304L59.838,73.301L59.675,73.249L59.144,72.987L58.900,72.664L58.746,72.510L58.575,72.426L58.235,72.325L57.910,72.050L57.763,71.969L57.417,71.911L56.889,71.642L56.712,71.626L56.562,71.690L56.309,71.904L56.174,71.984L55.814,72.014L55.460,71.891L54.598,71.279L54.077,70.910L53.370,70.409L52.875,69.936L52.177,69.273L51.825,69.042L51.054,68.758L50.381,68.352L49.277,67.382L48.980,66.981L48.821,66.768L48.697,66.687L48.539,66.707L48.133,66.918L47.997,66.948L47.843,66.918L47.686,66.833L46.842,66.206L46.110,65.663L45.530,65.232L45.211,64.892L44.648,64.078L44.315,63.751L43.587,63.217L41.859,61.948L41.008,61.323L40.294,60.798L39.680,60.348L39.378,60.035L39.321,60.002L38.945,59.517L38.888,59.330L38.796,58.938L38.781,58.778L38.803,58.627L38.847,58.500L38.876,58.374L38.855,58.225L38.695,57.869L38.673,57.726L38.669,57.541L38.650,57.402L38.607,57.276L38.472,56.999L38.439,56.870L38.423,56.575L38.373,56.513L37.939,56.259L37.690,56.183L37.577,56.096L37.552,56.051L37.543,56.034L37.501,55.875L37.470,55.810L37.275,55.546L37.204,55.398L37.096,54.969L37.037,54.872L36.864,54.680L36.806,54.588L36.765,54.439L36.704,54.120L36.540,53.534L36.481,53.396L36.521,53.344L36.495,53.241L36.481,52.748L36.463,52.606L36.419,52.490L36.034,51.838L35.932,51.725L34.760,50.856L34.304,50.657L33.794,50.522L33.601,50.500L33.484,50.558L33.413,50.705L33.362,50.951L33.233,51.025L33.134,51.244L32.986,51.407L32.805,51.499L32.606,51.506L32.393,51.419L31.853,51.032L31.760,51.030L31.450,51.083L31.421,51.019L31.405,50.957L31.385,50.941L31.353,50.994L31.284,51.114L31.250,51.152L31.216,51.181L30.965,50.920L30.599,50.831L29.543,50.895L28.910,51.108L28.596,51.116L28.413,51.063L28.263,50.954L27.978,50.668L27.662,50.434L27.158,50.173L26.584,49.877L26.437,49.731L26.400,49.565L26.466,49.005L26.507,48.886L26.575,48.788L26.665,48.709L26.881,48.600L26.953,48.512L26.906,48.384L26.557,47.890L26.395,47.579L26.348,47.335L26.483,47.143L26.627,47.043L26.791,47.029L26.988,47.091L27.169,47.206L27.271,47.252L27.354,47.241L27.414,47.150L27.405,47.050L27.354,46.954L27.290,46.873L27.216,46.811L26.968,46.664L26.889,46.583L26.830,46.492L26.710,46.309L26.555,46.177L26.004,45.970L25.732,45.979L25.658,45.946L25.600,45.847L25.608,45.755L25.667,45.686L25.760,45.659L25.761,45.660L25.763,45.660L25.764,45.660L26.075,45.540L26.059,45.264L25.956,44.921L26.004,44.597L26.090,44.535L26.198,44.491L26.284,44.429L26.302,44.311L26.238,44.220L26.116,44.149L25.884,44.058L25.700,43.894L25.555,43.669L25.390,43.489L25.152,43.463L24.918,43.491L24.463,43.450L23.355,43.619L23.084,43.611L22.953,43.561L22.744,43.339L22.621,43.296L22.354,43.268L22.204,43.187L22.134,43.062L22.072,42.529L22.022,42.395L21.948,42.277L21.615,41.935L21.489,41.856L21.355,41.871L21.203,41.943L21.051,41.984L20.898,41.993L20.664,41.952L20.296,41.788L19.945,41.467L18.817,40.160L18.689,40.088L18.592,40.247L18.521,40.840L18.410,41.043L18.193,41.106L17.924,41.089L17.655,41.028L17.090,40.803L16.962,40.798L16.864,40.829L16.586,40.996L16.388,41.081L16.293,41.152L16.244,41.254L16.274,41.389L16.372,41.475L17.029,41.779L17.213,41.922L17.375,42.166L17.514,42.491L17.903,43.116L18.115,43.363L18.174,43.417L18.198,43.479L18.180,43.536L18.115,43.575L17.778,43.625L17.692,43.603L17.630,43.509L17.632,43.401L17.660,43.281L17.678,43.154L17.624,42.905L17.490,42.727L17.312,42.598L16.791,42.355L16.676,42.335L16.582,42.351L16.392,42.431L16.307,42.439L16.223,42.391L16.103,42.215L16.027,42.141L15.927,42.106L15.809,42.102L15.692,42.124L15.596,42.168L15.541,42.238L15.495,42.319L15.361,42.471L15.218,42.533L15.130,42.608L15.159,42.793L15.271,43.031L15.281,43.140L15.235,43.303L15.022,43.787L14.946,43.870L14.746,43.935L14.703,44.026L14.741,44.136L14.808,44.211L14.825,44.277L14.709,44.360L14.608,44.382L14.250,44.365L14.149,44.389L13.859,44.531L13.616,44.579L12.874,44.451L12.371,44.471L11.878,44.710L11.457,45.121L11.169,45.657L11.169,45.659L10.973,45.948L10.757,46.111L10.254,46.346L10.106,46.549L10.105,46.818L10.220,47.370L10.207,47.633L10.166,47.857L10.160,48.078L10.254,48.327L10.371,48.519L10.431,48.702L10.450,48.903L10.446,49.150L10.470,49.343L10.541,49.537L10.641,49.709L10.756,49.839L10.830,49.893L10.911,49.932L11.173,49.997L11.213,50.028L11.202,50.075L11.143,50.146L11.031,50.226L10.787,50.349L10.684,50.468L10.522,50.764L10.421,50.823L9.780,50.688L9.285,50.584L8.114,50.520L7.924,50.510L6.839,50.450L5.864,50.397L5.014,50.351L5.012,48.748L5.011,47.145L5.011,45.543L5.010,43.940L5.009,42.338L5.008,40.735L5.008,39.133L5.006,37.530L5.006,35.928L5.005,34.325L5.004,32.723L5.003,31.120L5.003,29.517L5.002,27.915L5.001,26.312L5.000,24.709L5.000,24.709L5.000,24.708L5.000,24.707L5.000,24.706L5.000,24.705L5.000,24.704L5.000,24.703L5.000,24.702L5.000,24.702L5.001,24.701L5.001,24.700L5.001,24.700L5.001,24.699L5.002,24.699L5.002,24.698L5.002,24.697L5.002,24.696L5.003,24.696L5.003,24.695L5.004,24.695L5.004,24.694L5.005,24.694L5.005,24.693L5.005,24.693L5.006,24.693L5.006,24.692L5.007,24.692L5.008,24.691L5.008,24.691L5.009,24.691L5.009,24.691L5.010,24.691L5.010,24.690L5.011,24.690L5.011,24.690L5.012,24.689L5.012,24.689L5.013,24.689L5.014,24.689L5.504,24.540L5.996,24.392L6.486,24.243L6.979,24.094L7.470,23.945L7.961,23.796L8.452,23.648L8.835,23.532L8.943,23.499L9.435,23.350L9.926,23.202L10.417,23.053L10.908,22.904L11.400,22.756L11.891,22.607L12.383,22.458L12.874,22.310L13.529,22.121L14.184,21.932L14.839,21.744L15.495,21.555L15.797,21.470L16.100,21.386L16.403,21.302L16.707,21.217L17.022,21.132L17.338,21.046L17.654,20.960L17.969,20.875L18.394,20.761L18.516,20.771L18.659,20.831L19.062,21.085L19.176,21.158L19.503,21.364L20.013,21.687L20.681,22.110L21.138,22.400L21.480,22.616L22.382,23.187L23.362,23.807L24.391,24.459L25.443,25.125L26.492,25.789L27.510,26.433L28.469,27.041L29.345,27.595L30.109,28.079L30.735,28.475L31.194,28.766L31.521,28.973L31.657,29.118L31.751,29.303L31.785,29.473L31.819,29.835L31.870,29.998L32.178,30.472L32.779,31.096L33.066,31.394L33.354,31.692L33.721,32.099L34.022,32.434L34.324,32.769L34.625,33.103L34.926,33.438L35.220,33.766L35.515,34.093L35.809,34.421L36.104,34.748L36.497,35.185L36.603,35.229L36.709,35.273L36.720,35.271L37.153,35.195L37.337,35.161L37.522,35.128L37.708,35.095L37.892,35.062L38.188,35.010L38.484,34.957L38.780,34.903L39.075,34.851L39.554,34.776L40.032,34.700L40.510,34.625L40.989,34.549L41.467,34.474L41.946,34.399L42.424,34.324L42.903,34.248L43.701,34.318L44.499,34.389L45.298,34.459L46.096,34.529L46.822,34.593L47.550,34.657L48.275,34.721L49.001,34.785L49.290,34.810L49.381,34.784L49.472,34.759L49.999,34.476L50.504,34.205L51.024,33.926L51.535,33.651L51.629,33.617L51.723,33.582L51.807,33.595L51.890,33.608L51.978,33.683L52.066,33.760L52.631,34.471L53.195,35.182L53.456,35.450L53.717,35.718L54.257,36.047L54.796,36.376L54.900,36.465L55.003,36.554L55.449,37.450L55.733,38.021L56.126,38.810L56.462,39.488L56.508,39.493L56.553,39.498L57.309,39.098L58.066,38.698L57.953,40.432L57.840,42.167L57.827,42.351L57.814,42.535L57.787,42.595L57.761,42.655L57.700,42.679L57.638,42.703L57.623,42.751L57.607,42.799L57.604,43.010L57.588,44.160L57.569,45.520L57.575,45.557L57.580,45.595L57.603,45.613L57.625,45.630L58.256,45.633L58.831,45.635L59.404,45.637L60.037,45.640L60.057,45.637L60.076,45.635L60.096,45.635L60.116,45.636L60.133,45.640L60.151,45.644L60.164,45.652L60.177,45.659L60.268,46.542L60.359,47.424L60.526,48.286L60.693,49.149L60.918,50.178L61.142,51.206L61.260,51.350L61.376,51.494L61.507,51.528L61.592,51.550L61.808,51.607L62.416,51.570L62.928,51.539L63.692,51.493L64.252,51.459L64.921,51.419L65.347,51.393L66.027,51.352L66.697,51.312L66.757,51.329L66.816,51.345L66.927,51.403L67.037,51.461L67.094,51.482L67.152,51.502L67.202,51.495L67.252,51.487L67.404,51.386L67.556,51.285L67.622,51.241L67.689,51.198L67.721,51.298L67.752,51.397L67.759,51.402L67.765,51.406L67.783,51.445L67.802,51.484L67.917,51.637L68.033,51.790L68.059,51.852L68.086,51.914L68.106,52.049L68.128,52.184L68.162,52.242L68.197,52.299L68.228,52.273L68.260,52.247L68.293,52.231L68.326,52.215L68.358,52.220L68.391,52.225L68.420,52.262L68.447,52.299L68.483,52.221L68.520,52.143L68.576,52.137L68.632,52.131L68.642,52.206L68.652,52.280L68.652,52.288L68.653,52.295L68.647,52.327L68.640,52.360L68.665,52.368L68.690,52.376L68.698,52.384L68.705,52.390L68.645,52.435L68.584,52.480L68.562,52.491L68.539,52.502L68.561,52.514L68.582,52.526L68.595,52.542L68.607,52.559L68.629,52.600L68.650,52.641L68.650,52.741L68.649,52.840L68.623,52.957L68.597,53.075L68.558,53.189L68.520,53.303L68.479,53.394L68.439,53.485L68.411,53.531L68.381,53.576L68.342,53.620L68.304,53.664L68.261,53.699L68.217,53.734L68.125,53.777L68.033,53.819L68.010,53.840L67.986,53.862L67.978,53.889L67.969,53.917L67.987,53.929L68.004,53.942L68.108,53.964L68.211,53.987L68.291,54.033L68.371,54.078L68.610,54.319L68.850,54.559L69.025,54.699L69.202,54.840L69.413,54.953L69.819,55.169L70.437,55.498L70.445,55.480L70.454,55.463L70.486,55.430L70.518,55.396L70.558,55.399L70.598,55.401L70.618,55.376L70.637,55.352L70.651,55.321L70.666,55.291L70.690,55.274L70.715,55.257L70.745,55.263L70.775,55.268L70.880,55.321L70.984,55.374L71.055,55.384L71.125,55.395L71.180,55.361L71.236,55.327L71.252,55.282L71.268,55.236L71.217,55.209L71.167,55.181L71.231,55.076L71.295,54.969L71.300,54.946L71.305,54.922L71.282,54.883L71.260,54.845L71.242,54.801L71.225,54.759L71.216,54.714L71.206,54.669L71.209,54.626L71.211,54.582L71.145,54.566L71.079,54.550L71.053,54.536L71.028,54.522L71.007,54.494L70.985,54.466L70.968,54.401L70.950,54.334L70.924,54.042L70.898,53.750L70.907,53.696L70.917,53.642L70.931,53.625L70.946,53.607L70.963,53.594L70.980,53.581L70.997,53.541L71.014,53.502L71.017,53.468L71.021,53.435L71.014,53.356L71.007,53.278L71.008,53.240L71.009,53.201L71.020,53.208L71.032,53.215L71.056,53.225L71.081,53.234L71.093,53.242L71.105,53.250L71.133,53.167L71.162,53.086L71.235,53.035L71.308,52.985L71.421,52.935L71.469,52.914L71.630,52.842L71.683,52.776L71.735,52.711L71.831,52.431L71.928,52.152L71.999,52.070L72.072,51.988L72.252,51.908L72.432,51.829L72.497,51.715L72.562,51.602L72.595,51.556L72.630,51.511L72.684,51.493L72.738,51.476L72.850,51.461L72.963,51.446L73.057,51.399L73.151,51.353L73.242,51.291L73.331,51.228L73.376,51.184L73.421,51.140L73.442,51.100L73.463,51.059L73.504,50.727L73.545,50.395L73.543,50.337L73.540,50.280L73.533,50.238L73.526,50.198L73.518,50.185L73.511,50.172L73.499,50.163L73.486,50.154L73.461,50.123L73.437,50.092L73.430,50.063L73.423,50.035L73.435,50.010L73.447,49.985L73.469,49.967L73.491,49.949L73.612,49.889L73.733,49.830L73.782,49.814L73.831,49.799L73.880,49.818L73.929,49.838L73.955,49.765L73.982,49.693L74.046,49.630L74.110,49.566L74.253,49.475L74.396,49.385L74.438,49.375L74.480,49.367L74.558,49.395L74.636,49.423L74.674,49.417L74.712,49.412L74.813,49.347L74.915,49.281L74.953,49.271L74.993,49.260L75.149,49.289L75.305,49.317L75.335,49.299L75.366,49.281L75.363,49.245L75.360,49.209L75.316,49.128L75.273,49.048L75.263,49.011L75.253,48.974L75.288,48.883L75.321,48.792L75.391,48.741L75.461,48.690L75.610,48.642L75.759,48.595L76.026,48.385L76.292,48.174L76.366,48.087L76.442,48.000L76.486,47.965L76.531,47.930L76.884,47.832L77.238,47.734L77.530,47.722L77.822,47.712L77.931,47.665L78.039,47.619L78.119,47.525L78.199,47.431L78.235,47.377L78.271,47.324L78.311,47.290L78.352,47.258L78.498,47.204L78.645,47.150L78.862,46.990L79.081,46.829L79.147,46.752L79.213,46.675L79.391,46.368L79.568,46.062L79.606,46.023L79.644,45.984L79.689,45.958L79.734,45.933L79.782,45.916L79.829,45.899L79.872,45.877L79.915,45.854L79.948,45.817L79.981,45.780L80.001,45.719L80.020,45.657L80.085,45.515L80.150,45.372L80.261,45.276L80.374,45.179L80.630,45.069L80.885,44.959L80.924,44.967L80.963,44.974L81.011,45.008L81.059,45.042L81.101,45.089L81.142,45.136L81.162,45.181L81.181,45.227L81.199,45.292L81.218,45.358L81.258,45.398L81.298,45.439L81.354,45.461L81.408,45.483L81.471,45.491L81.533,45.500L81.614,45.461L81.697,45.422L81.752,45.319L81.808,45.217L81.856,45.089L81.904,44.961L81.965,44.848L82.027,44.734L82.100,44.647L82.173,44.560L82.201,44.513L82.229,44.466L82.250,44.401L82.271,44.336L82.309,44.286L82.347,44.236L82.409,44.233L82.472,44.231L82.594,44.264L82.715,44.298L82.814,44.283L82.913,44.269L83.012,44.219L83.110,44.169L83.288,44.025L83.466,43.881L83.580,43.774L83.813,43.604L83.979,43.582L84.146,43.650L84.881,44.173L85.049,44.228L85.066,44.234L84.988,44.495L84.793,44.631L84.360,44.755L83.620,45.305L83.403,45.356L83.146,45.345L82.929,45.402L82.838,45.657L82.823,46.058L82.765,46.176L82.583,46.245L82.061,46.304L81.899,46.400L81.381,46.842L81.153,47.111L81.000,47.440L80.876,47.625L80.718,47.730L80.547,47.813L80.234,48.061L79.386,48.558L79.275,48.739L79.371,48.964L79.565,49.066L80.304,49.149L80.304,49.150L80.305,49.150L80.306,49.151L80.502,49.270L80.589,49.350L80.666,49.450L80.794,49.692L80.874,49.766L80.966,49.770L81.000,49.771L81.178,49.703L81.820,49.333L81.998,49.306L82.097,49.368L82.186,49.486L82.480,49.996L82.530,50.138L82.539,50.286L82.462,50.714L82.471,50.836L82.536,50.932L82.621,50.918L82.723,50.869L82.841,50.858L82.941,50.900L83.036,50.969L83.122,51.058L83.194,51.158L83.290,51.249L83.394,51.261L83.620,51.226L83.869,51.272L83.986,51.326L84.093,51.412L84.189,51.466L84.384,51.493L84.468,51.561L84.601,51.786L84.683,51.842L84.735,51.707L84.724,51.561L84.699,51.436L84.713,51.339L84.821,51.279L84.946,51.290L85.005,51.374L85.070,51.637L85.120,51.735L85.187,51.807L85.256,51.802L85.313,51.668L85.444,51.499L85.802,51.810L85.920,51.708L85.948,51.466L85.902,50.260L85.934,50.171L86.006,50.189L86.258,50.427L86.485,50.526L86.663,50.490L86.808,50.338L86.982,49.959L87.057,49.725L87.080,49.586L87.060,49.457L86.913,49.267L86.861,49.151L86.861,49.150L86.860,49.149L86.964,48.881L87.027,48.804L87.143,48.757L87.258,48.775L87.325,48.868L87.352,49.003L87.353,49.149L87.256,49.541L87.261,49.626L87.311,49.644L87.342,49.587L87.363,49.511L87.388,49.473L87.444,49.496L87.472,49.608L87.521,49.631L87.564,49.594L87.567,49.447L87.601,49.417L87.645,49.435L87.687,49.474L88.178,50.210L88.262,50.417L88.293,50.647L88.280,50.945L88.307,51.239L88.444,51.306L88.860,51.234L88.987,51.340L89.067,51.455L89.157,51.504L89.314,51.409L89.427,51.306L89.549,51.226L89.677,51.206L89.810,51.285L89.871,51.420L89.895,51.610L89.905,51.809L89.953,52.174L89.953,52.311L89.917,52.436L89.846,52.602L90.005,52.553L90.306,52.460L90.499,52.433L90.538,52.401L90.598,52.217L90.626,52.167L90.722,52.089L90.792,52.137L90.942,52.374L91.051,52.444L91.200,52.488L91.479,52.515L91.506,52.536L91.520,52.565L91.523,52.601L91.514,52.643L91.513,52.803L91.608,52.852L91.738,52.861L91.839,52.901L92.064,53.255L92.227,53.435L92.430,53.525L92.655,53.553L93.331,53.491L93.533,53.546L93.555,53.751L93.541,53.867L93.608,53.857L93.851,53.686L94.239,53.504L94.323,53.562L94.396,53.664L94.502,53.741L94.810,53.721L94.929,53.748L94.972,53.758L94.972,53.758L95.000,53.899L94.840,54.113L94.591,54.256L94.099,54.441L93.650,54.727L93.272,54.825L93.088,54.904L92.963,55.099L92.902,55.565L92.749,55.636L92.557,55.547L92.461,55.546L92.421,55.662L92.414,55.766L92.389,55.865L92.339,55.951L92.258,56.016L92.050,56.028L91.681,55.771L91.479,55.743L91.328,55.667L91.154,55.462L90.980,55.306L90.824,55.377L90.807,55.492L90.806,55.493L90.919,55.685L90.920,55.686L90.919,55.811L90.884,55.925L90.885,56.003L90.885,56.003L90.931,56.067L91.158,56.234L91.159,56.234L91.181,56.292L91.213,56.372L91.214,56.373L91.208,56.536L91.152,56.713L91.045,56.862L90.922,56.888L90.780,56.834L90.470,56.649L90.393,56.620L90.156,56.631L90.089,56.609L90.090,56.607L90.115,56.544L90.175,56.526L90.265,56.517L90.341,56.492L90.362,56.421L90.361,56.420L90.313,56.381L90.217,56.369L90.177,56.371L89.938,56.384L89.849,56.408L89.501,56.604L89.452,56.676L89.421,56.806L89.345,57.001L89.206,57.142L88.753,57.377L88.724,57.475L88.761,57.580L88.860,57.653L89.011,57.725L89.050,57.751L89.084,57.774L89.113,57.829L89.079,57.905L89.005,57.924L88.923,57.910L88.860,57.884L88.819,57.874L88.788,57.879L88.728,57.899L88.521,57.881L88.314,57.830L88.123,57.841L87.961,58.008L87.863,58.230L87.806,58.325L87.721,58.407L87.446,58.574L87.373,58.596L87.267,58.548L87.234,58.442L87.236,58.155L87.199,58.014L87.125,57.856L87.032,57.773L86.937,57.861L86.905,57.994L86.892,58.115L86.847,58.195L86.718,58.208L86.471,58.158L86.351,58.111L86.240,58.039L86.144,57.946L86.103,57.843L86.052,57.759L85.818,57.685L85.653,57.527L85.547,57.520L85.383,57.537L85.296,57.529L85.224,57.497L85.169,57.432L85.123,57.359L85.070,57.316L84.995,57.339L84.913,57.466L84.867,57.621L84.793,57.739L84.627,57.756L84.018,57.666L83.714,57.719L83.524,57.916ZM81.464,52.469L81.380,52.491L81.441,52.635L81.446,52.641L81.534,52.731L81.687,52.940L81.775,53.026L81.879,53.050L81.871,52.931L81.803,52.762L81.730,52.643L81.609,52.532L81.464,52.469ZM84.667,59.288L84.693,59.278L84.751,59.230L84.778,59.214L84.912,59.177L84.978,59.190L85.018,59.255L84.983,59.364L84.740,59.538L84.655,59.623L84.667,59.804L84.898,60.058L84.888,60.273L84.832,60.358L84.759,60.386L84.583,60.390L84.335,60.458L84.258,60.451L84.196,60.393L84.184,60.316L84.158,60.256L84.059,60.251L84.000,60.294L83.928,60.367L83.854,60.414L83.788,60.379L83.779,60.202L84.003,59.840L83.979,59.637L83.919,59.587L83.779,59.557L83.711,59.519L83.651,59.432L83.521,59.141L83.493,59.028L83.498,58.912L83.529,58.789L83.620,58.572L83.784,58.479L83.903,58.555L83.991,58.726L84.063,58.917L84.153,59.032L84.295,59.128L84.589,59.254L84.606,59.269L84.627,59.282L84.667,59.288Z" fill="currentColor" stroke="currentColor" stroke-width="1.5" stroke-linejoin="round"/>
</svg>