<svg xmlns="http://www.w3.org/2000/svg" viewBox="0 0 100 100" role="img" aria-label="Saint Vincent and the Grenadines">
  <title>Saint Vincent and the Grenadines</title>
  <path d="M60.789,43.904L59.210,45.441L57.214,48.847L55.452,50.081L56.272,50.081L55.452,50.923L54.887,50.094L54.012,49.574L52.895,49.349L51.617,49.376L51.617,48.534L53.259,49.049L55.761,48.548L55.766,47.636L55.035,46.803L54.698,46.223L55.613,45.330L58.681,43.342L59.964,42.283L60.121,42.720L60.170,43.130L60.323,43.521L60.789,43.904ZM63.727,31.549L61.758,33.082L59.004,31.761L52.263,26.974L51.379,23.651L51.675,19.803L53.191,16.802L52.904,16.374L52.370,15.255L55.344,14.772L56.618,12.217L57.376,8.958L58.802,6.344L60.224,5.423L61.547,5.037L62.731,5.000L65.503,5.451L66.297,5.755L66.736,6.514L67.427,8.167L68.513,13.202L68.459,20.134L66.961,26.928L63.727,31.549ZM33.519,92.427L34.847,93.265L35.147,94.241L34.474,94.696L33.317,95.000L31.918,94.894L31.487,94.287L31.945,93.707L32.057,93.232L31.824,92.818L31.958,92.519L32.757,92.197L33.519,92.427ZM46.966,78.186L47.307,78.609L47.522,79.645L46.934,80.432L46.293,81.081L45.979,82.070L45.369,82.733L44.243,82.793L43.252,82.406L43.521,82.061L44.777,81.785L45.360,81.039L45.154,80.036L45.208,78.931L46.203,78.259L46.966,78.186ZM61.036,62.978L61.982,61.252L62.888,61.445L61.937,63.682L61.493,64.317L61.139,64.377L61.036,62.978Z" fill="currentColor" stroke="currentColor" stroke-width="1" stroke-linejoin="round"/>
</svg>