<svg xmlns="http://www.w3.org/2000/svg" viewBox="0 0 100 100" role="img" aria-label="Venezuela">
  <title>Venezuela</title>
  <path d="M88.954,47.717L89.316,48.254L89.932,48.948L90.169,49.333L90.163,49.456L90.088,49.588L89.975,49.691L89.852,49.731L89.730,49.738L89.435,49.807L89.332,49.856L89.269,49.927L89.117,50.046L89.074,50.139L89.075,50.225L89.090,50.293L89.082,50.363L89.013,50.453L88.963,50.692L88.903,50.797L88.803,50.856L88.675,50.863L88.439,50.840L88.313,50.881L88.191,50.973L88.097,51.071L87.994,51.157L87.710,51.268L87.640,51.349L87.579,51.444L87.492,51.524L87.469,51.545L87.182,51.742L87.051,51.861L87.004,51.999L86.860,52.108L86.601,52.133L86.099,52.124L85.966,52.169L85.883,52.248L85.766,52.470L85.633,52.629L85.604,52.684L85.600,52.737L85.619,52.850L85.619,52.915L85.528,53.076L85.542,53.165L85.520,53.242L85.464,53.284L85.378,53.268L85.340,53.297L85.282,53.379L85.198,53.533L85.106,53.647L84.838,53.734L84.754,53.890L84.760,53.980L84.794,54.067L84.931,54.320L85.006,54.349L85.088,54.368L85.168,54.424L85.194,54.468L85.197,54.504L85.190,54.541L85.188,54.592L85.212,54.649L85.260,54.680L85.314,54.701L85.356,54.734L85.397,54.810L85.465,54.977L85.517,55.058L85.528,55.107L85.527,55.155L85.514,55.199L85.487,55.241L85.343,55.371L85.269,55.533L85.272,55.711L85.359,55.889L85.423,55.953L85.835,56.281L85.912,56.280L86.043,56.044L86.139,55.952L86.265,55.905L86.418,55.906L86.491,55.933L86.552,55.974L86.617,56.007L86.702,56.010L86.798,55.995L86.876,56.002L86.947,56.041L87.017,56.119L87.021,56.123L87.227,56.239L87.303,56.308L87.348,56.402L87.352,56.504L87.327,56.609L87.281,56.708L87.223,56.791L87.139,56.861L87.039,56.926L86.949,57.002L86.899,57.103L86.845,57.399L86.745,57.340L86.587,57.377L85.830,57.850L85.405,57.953L85.293,58.002L85.197,58.080L85.029,58.323L84.933,58.424L84.808,58.468L84.719,58.438L84.503,58.297L84.382,58.264L84.312,58.272L84.176,58.304L84.121,58.309L84.050,58.287L83.997,58.249L83.955,58.208L83.915,58.179L83.784,58.143L83.707,58.136L83.673,58.160L83.686,58.227L83.744,58.311L83.757,58.366L83.755,58.415L83.744,58.440L83.584,58.611L83.552,58.636L83.429,58.653L83.158,58.620L83.049,58.703L82.923,58.664L82.798,58.645L82.743,58.754L82.633,58.721L82.503,58.709L82.392,58.731L82.336,58.799L82.150,59.014L82.034,59.227L81.948,59.448L81.906,59.654L81.919,59.776L81.976,59.835L82.058,59.882L82.149,59.966L82.195,60.055L82.252,60.234L82.316,60.323L82.333,60.372L82.340,60.421L82.337,60.471L82.325,60.520L82.273,60.592L82.244,60.675L82.208,60.963L82.216,61.030L82.261,61.197L82.292,61.251L82.396,61.316L82.425,61.359L82.442,61.399L82.462,61.413L82.481,61.432L82.492,61.491L82.461,61.717L82.460,61.799L82.441,61.894L82.375,61.913L82.288,61.904L82.206,61.917L82.130,61.984L82.067,62.137L82.009,62.216L81.938,62.258L81.841,62.290L81.644,62.326L81.566,62.369L81.511,62.454L81.437,62.645L81.159,63.089L81.072,63.159L80.874,63.270L80.812,63.336L80.913,63.576L81.104,63.789L81.553,64.289L82.001,64.788L82.450,65.287L82.898,65.787L83.346,66.286L83.795,66.785L84.243,67.285L84.699,67.780L84.870,67.804L85.025,67.863L85.147,67.971L85.535,69.008L85.575,69.289L85.452,69.583L85.053,70.077L84.828,70.279L84.558,70.453L83.988,70.708L83.937,70.716L83.823,70.716L83.777,70.732L83.731,70.785L83.568,71.157L83.513,71.416L83.469,71.538L83.294,71.769L83.089,71.869L82.595,71.932L82.265,72.026L82.162,72.037L82.060,72.013L81.857,71.914L81.751,71.883L81.401,71.836L81.292,71.854L81.249,71.925L81.409,72.164L81.426,72.289L81.336,72.377L81.188,72.433L81.029,72.463L80.905,72.470L80.564,72.450L80.448,72.462L80.190,72.565L80.104,72.727L80.069,73.187L80.043,73.261L80.003,73.332L79.952,73.395L79.892,73.443L79.803,73.482L79.748,73.475L79.696,73.452L79.615,73.447L79.549,73.463L79.442,73.512L79.369,73.521L79.318,73.512L79.133,73.458L78.906,73.445L78.794,73.461L78.684,73.495L78.549,73.576L78.242,73.910L78.147,73.975L78.030,74.029L77.904,74.070L77.785,74.094L77.648,74.092L77.536,74.057L77.428,74.010L77.300,73.973L77.035,74.012L76.585,74.341L76.333,74.428L76.102,74.401L74.969,73.930L74.709,73.872L74.502,73.923L74.481,73.959L74.462,74.061L74.430,74.107L74.380,74.135L74.195,74.172L74.064,74.218L74.008,74.286L73.996,74.381L73.994,74.504L73.922,74.742L73.759,74.784L73.273,74.707L72.937,74.737L72.837,74.764L72.708,74.844L72.681,74.935L72.701,75.045L72.707,75.179L72.666,75.327L72.610,75.446L72.574,75.569L72.596,75.731L72.627,75.797L72.660,75.835L72.684,75.877L72.704,76.031L72.806,76.261L72.860,76.510L72.863,76.758L72.806,76.998L72.679,77.219L72.589,77.333L72.529,77.375L72.462,77.379L72.376,77.366L72.321,77.390L72.204,77.495L72.082,77.565L71.979,77.593L71.870,77.592L71.732,77.576L71.614,77.537L71.471,77.460L71.342,77.364L71.261,77.269L71.177,77.133L70.550,76.390L70.181,76.123L69.838,75.646L69.632,75.441L69.243,75.214L69.008,75.138L68.807,75.157L68.672,75.330L68.629,75.562L68.550,75.761L68.302,75.837L68.044,75.713L67.639,75.355L67.350,75.289L67.236,75.302L66.910,75.384L66.761,75.393L66.646,75.368L66.406,75.270L66.145,75.268L65.898,75.390L65.661,75.554L65.428,75.680L65.183,75.670L65.029,75.496L64.939,75.248L64.840,74.822L64.766,74.620L64.666,74.438L64.538,74.307L64.384,74.230L63.983,74.118L63.246,74.060L61.917,74.257L61.807,74.211L61.731,74.089L61.637,73.825L61.571,73.725L61.495,73.608L61.265,73.388L60.992,73.248L60.722,73.267L60.642,73.342L60.596,73.456L60.580,73.586L60.595,73.709L60.665,73.840L60.769,73.909L60.891,73.957L61.016,74.028L61.103,74.126L61.148,74.231L61.220,74.472L61.483,74.986L61.484,74.986L61.602,75.129L61.879,75.351L62.004,75.480L62.261,75.843L62.835,76.292L63.072,76.426L63.351,76.532L63.488,76.617L63.835,77.047L64.092,77.262L64.205,77.391L64.248,77.538L64.249,77.760L64.235,77.867L64.193,77.974L64.033,78.189L63.973,78.298L63.953,78.441L64.105,79.195L64.126,79.443L64.073,79.956L64.087,80.205L64.191,80.413L64.380,80.636L64.593,81.022L64.779,81.262L65.234,82.154L65.334,82.477L65.401,82.588L65.421,82.650L65.419,82.704L65.380,82.862L65.361,83.201L65.334,83.315L65.107,83.728L65.064,83.873L65.071,84.004L65.122,84.107L65.214,84.157L65.343,84.126L65.691,84.166L66.405,84.362L66.785,84.358L67.158,84.309L67.928,84.328L68.302,84.386L69.047,84.410L69.165,84.455L69.187,84.533L69.127,84.742L69.118,84.838L69.132,85.244L69.119,85.329L69.037,85.514L68.954,85.701L68.934,85.798L68.944,85.905L68.888,86.032L68.700,86.105L68.302,86.180L68.244,86.180L68.076,86.157L67.999,86.169L67.670,86.320L66.811,87.010L66.689,87.074L66.576,87.090L65.875,87.078L65.653,87.100L65.436,87.176L65.190,87.360L65.089,87.560L65.050,88.076L64.957,88.447L64.977,88.811L64.960,88.925L64.928,89.033L64.856,89.181L64.758,89.325L64.639,89.447L64.358,89.608L64.033,89.931L63.622,90.233L63.502,90.366L63.390,90.606L63.318,90.716L63.216,90.759L63.101,90.695L63.070,90.559L63.090,90.406L63.128,90.294L63.253,90.049L63.249,89.931L63.120,89.853L62.986,89.869L62.843,89.950L62.595,90.135L62.282,90.298L62.144,90.395L62.032,90.539L61.908,90.810L61.831,90.923L61.081,91.423L60.961,91.449L60.842,91.428L60.545,91.286L60.440,91.284L60.345,91.357L60.212,91.499L60.096,91.590L59.994,91.619L59.885,91.630L59.749,91.667L59.687,91.704L59.492,91.875L59.469,91.891L59.410,91.912L59.385,91.929L59.372,91.961L59.366,92.042L59.355,92.066L59.136,92.112L58.894,92.090L58.679,92.145L58.541,92.424L58.492,92.924L58.429,93.170L58.287,93.359L58.168,93.415L58.048,93.423L57.806,93.385L57.652,93.390L57.552,93.440L57.186,93.886L57.121,94.000L57.064,94.146L57.057,94.195L57.066,94.367L57.039,94.448L56.928,94.572L56.818,94.756L56.690,94.861L56.542,94.944L56.413,94.991L56.277,95.000L56.172,94.960L56.090,94.875L56.025,94.748L56.013,94.463L56.155,94.231L56.333,94.001L56.429,93.724L56.420,93.582L56.381,93.452L56.318,93.331L56.175,93.155L56.110,93.091L56.039,93.037L55.961,93.001L55.890,92.991L55.768,93.011L55.340,92.997L55.222,93.012L55.077,93.058L54.841,93.207L54.328,93.448L54.211,93.528L54.078,93.653L53.851,93.932L53.724,94.057L53.605,94.131L53.489,94.161L53.231,94.177L53.102,94.233L52.913,94.447L52.775,94.511L52.645,94.499L52.547,94.440L52.452,94.368L52.335,94.320L52.220,94.322L51.884,94.423L51.522,94.342L51.162,94.087L50.911,93.859L50.803,93.760L50.518,93.502L50.114,93.136L49.652,92.716L49.189,92.296L48.786,91.930L48.500,91.671L48.392,91.573L48.269,91.317L48.239,91.176L48.348,90.954L48.342,90.811L48.297,90.664L48.234,90.545L48.174,90.481L48.106,90.426L48.051,90.365L48.029,90.282L48.069,90.037L48.046,89.904L47.989,89.775L47.863,89.565L47.806,89.436L47.783,89.318L47.783,89.051L47.766,88.922L47.257,87.558L47.151,87.355L47.136,87.291L47.111,87.244L47.000,87.167L46.954,87.090L46.910,87.041L46.868,86.980L46.853,86.905L46.948,86.781L46.974,86.738L46.995,86.633L46.974,86.309L46.937,86.213L46.848,86.165L46.741,86.131L46.651,86.081L46.600,86.001L46.503,85.747L46.461,85.562L46.367,85.334L46.365,85.224L46.432,85.144L46.546,85.036L46.625,84.913L46.587,84.793L46.554,84.740L46.551,84.626L46.530,84.567L46.483,84.521L46.284,84.400L46.075,84.332L46.021,84.298L45.909,84.184L45.844,84.137L45.779,84.118L45.727,84.087L45.692,84.015L45.666,83.934L45.637,83.873L45.582,83.825L45.451,83.753L45.395,83.710L45.356,83.647L45.326,83.581L45.284,83.528L45.209,83.506L45.185,83.483L45.092,83.365L45.072,83.316L45.047,83.278L44.920,83.216L44.866,83.175L44.842,83.130L44.806,83.018L44.781,82.967L44.692,82.887L44.583,82.853L44.317,82.849L44.247,82.793L44.212,82.662L44.179,82.392L44.136,82.285L44.052,82.150L43.945,82.062L43.832,82.090L43.714,82.134L43.567,82.104L43.323,81.984L43.258,81.911L43.208,81.890L43.095,81.948L43.029,81.953L42.899,81.947L42.781,81.979L42.721,82.051L42.674,82.133L42.588,82.203L42.592,81.794L42.690,81.627L42.838,81.488L43.092,81.251L43.345,81.014L43.598,80.777L43.852,80.541L44.105,80.304L44.359,80.067L44.612,79.830L44.866,79.593L44.977,79.489L45.048,79.455L45.177,79.429L45.238,79.408L45.311,79.352L45.669,78.901L45.822,78.651L45.850,78.401L45.654,78.195L45.431,78.107L45.344,78.046L45.262,77.930L44.863,76.880L44.695,76.654L44.472,76.549L44.351,76.557L44.241,76.578L44.133,76.576L44.018,76.519L43.914,76.391L43.873,76.252L43.839,75.956L43.783,75.809L43.547,75.394L43.519,75.267L43.501,74.896L43.449,74.754L43.410,74.732L43.410,74.729L43.427,74.630L43.388,74.519L43.323,74.451L43.273,74.258L43.162,74.139L43.050,74.047L43.000,73.933L42.973,73.746L42.922,73.561L42.889,73.362L42.919,73.138L43.025,72.941L43.040,72.870L43.021,72.793L42.938,72.661L42.919,72.583L42.928,72.535L42.962,72.451L42.959,72.403L42.936,72.367L42.863,72.341L42.839,72.317L42.789,72.108L42.747,72.029L42.636,71.950L42.636,71.991L42.584,71.953L42.533,71.906L42.494,71.849L42.474,71.783L42.484,71.700L42.518,71.660L42.560,71.632L42.592,71.583L42.601,71.525L42.592,71.334L42.630,71.176L42.648,70.844L42.678,70.714L42.737,70.618L42.783,70.522L42.797,70.259L42.839,70.147L42.808,70.091L42.817,70.056L42.836,70.016L42.839,69.942L42.823,69.902L42.769,69.797L42.758,69.757L42.762,69.618L42.803,69.388L42.879,69.155L42.889,69.041L42.879,68.775L42.892,68.745L42.919,68.715L42.947,68.674L42.959,68.610L42.938,68.569L42.831,68.445L42.794,68.387L42.773,68.328L42.761,68.269L42.755,68.208L42.758,68.139L42.773,68.066L42.826,67.925L42.839,67.874L42.831,67.732L42.808,67.627L42.771,67.537L42.717,67.441L42.660,67.212L42.714,66.960L42.861,66.724L43.081,66.540L43.108,66.535L43.175,66.545L43.202,66.540L43.234,66.512L43.291,66.443L43.323,66.417L43.498,66.350L43.547,66.315L43.657,66.196L43.721,66.150L43.792,66.131L43.824,66.099L43.889,65.883L43.925,65.839L43.966,65.800L44.001,65.751L44.018,65.679L43.998,65.650L43.909,65.563L43.889,65.536L43.879,65.418L43.812,65.066L43.811,64.792L43.858,64.536L43.953,64.299L44.095,64.083L44.448,63.747L44.502,63.653L44.781,63.345L44.866,63.292L45.080,63.201L45.153,63.140L45.176,63.038L45.162,62.901L45.117,62.780L44.964,62.671L44.746,62.326L44.745,62.096L44.771,62.013L44.835,61.943L44.953,61.855L44.990,61.827L44.984,61.826L44.750,61.805L44.586,61.680L44.428,61.527L44.256,61.419L43.327,61.201L42.914,61.165L42.809,61.134L42.758,61.136L42.687,61.172L42.577,61.286L42.515,61.337L42.449,61.349L42.369,61.346L42.301,61.365L42.273,61.441L42.261,61.502L42.230,61.562L42.184,61.608L42.128,61.626L42.070,61.637L41.865,61.708L41.622,61.745L40.868,61.672L40.609,61.708L39.935,61.952L39.716,61.953L39.328,61.845L39.206,61.831L39.078,61.844L38.643,61.974L38.275,61.994L38.210,62.024L38.054,62.162L37.975,62.198L37.833,62.181L37.587,62.066L37.465,62.039L37.332,62.024L36.954,61.908L36.828,61.888L36.451,61.908L36.323,61.882L36.182,61.832L36.048,61.800L35.944,61.831L35.721,61.731L35.599,61.702L35.455,61.708L35.343,61.758L35.176,61.919L35.048,61.994L34.698,62.337L34.361,62.528L34.228,62.428L33.975,62.136L33.856,62.075L33.698,62.104L33.414,62.237L33.266,62.279L33.260,62.279L33.192,62.279L33.020,62.061L32.571,61.490L32.122,60.919L31.673,60.348L31.225,59.777L30.776,59.206L30.327,58.635L29.878,58.064L29.429,57.493L29.327,57.364L29.135,57.196L28.966,57.154L28.745,57.166L28.531,57.220L28.197,57.409L28.011,57.401L27.396,57.105L27.308,57.073L27.290,57.057L27.254,57.003L27.226,56.986L27.169,56.982L27.034,57.000L26.971,56.999L26.877,56.974L26.817,56.938L26.517,56.557L26.475,56.519L26.380,56.536L26.213,56.589L26.116,56.592L25.916,56.546L25.860,56.526L25.776,56.454L25.737,56.434L25.562,56.438L25.206,56.523L24.948,56.542L24.722,56.618L24.600,56.622L24.553,56.654L24.525,56.713L24.462,56.796L24.210,56.975L23.915,57.086L23.594,57.124L23.176,57.079L23.121,57.114L23.072,57.169L22.997,57.222L22.892,57.255L22.834,57.239L22.789,57.200L22.719,57.166L22.431,57.159L22.351,57.125L22.320,57.064L22.316,56.988L22.304,56.919L22.250,56.878L22.160,56.868L21.914,56.915L21.815,56.908L21.625,56.855L21.532,56.846L21.440,56.866L21.284,56.938L21.214,56.957L21.096,56.859L20.964,56.825L20.856,56.853L20.850,56.862L20.852,56.870L20.735,56.862L20.730,56.857L20.720,56.841L20.705,56.809L20.677,56.785L20.626,56.797L20.545,56.843L20.503,56.857L20.462,56.852L20.392,56.803L20.359,56.755L20.310,56.720L20.109,56.713L20.034,56.724L19.996,56.767L20.019,56.866L19.851,56.823L19.711,56.832L19.570,56.856L19.401,56.859L19.416,56.965L19.379,56.987L19.315,56.974L19.249,56.977L19.175,57.025L19.118,57.074L19.054,57.113L18.962,57.128L18.768,57.112L18.276,56.996L18.100,56.955L18.099,56.954L18.032,56.917L17.894,56.799L17.814,56.751L17.652,56.678L17.584,56.633L17.482,56.513L17.156,55.880L17.092,55.712L17.049,55.538L17.033,55.360L17.037,55.309L17.093,55.066L17.079,55.034L17.048,55.015L16.843,54.749L16.645,54.692L16.159,54.700L15.869,54.646L15.721,54.595L15.610,54.558L15.393,54.400L15.231,54.135L15.211,53.994L15.247,53.871L15.298,53.751L15.321,53.619L15.301,53.505L15.221,53.271L15.203,53.149L15.258,52.523L15.376,52.158L15.390,52.053L15.374,51.793L15.349,51.690L15.308,51.623L15.184,51.479L15.157,51.427L15.177,51.357L15.230,51.319L15.297,51.294L15.361,51.263L15.448,51.190L15.518,51.110L15.567,51.016L15.595,50.899L15.655,50.791L15.766,50.777L15.890,50.798L15.992,50.798L16.088,50.662L16.077,50.432L15.949,50.024L15.752,49.652L15.720,49.519L15.727,49.422L15.780,49.226L15.791,49.129L15.775,49.029L15.735,48.928L15.677,48.838L15.607,48.767L15.604,48.765L15.549,48.735L15.493,48.720L15.433,48.697L15.363,48.638L15.223,48.486L15.107,48.360L14.991,48.234L14.875,48.108L14.758,47.982L14.643,47.855L14.526,47.729L14.410,47.603L14.293,47.477L14.185,47.359L14.066,47.158L14.004,46.918L13.936,46.656L13.868,46.395L13.800,46.134L13.731,45.873L13.663,45.612L13.595,45.351L13.527,45.090L13.459,44.829L13.429,44.716L13.329,44.599L13.414,44.462L13.382,44.393L13.284,44.335L13.171,44.227L13.127,44.275L13.084,44.275L13.032,44.257L12.964,44.255L12.891,44.277L12.844,44.301L12.642,44.435L12.522,44.481L12.410,44.453L12.304,44.307L12.272,44.177L12.288,43.926L12.264,43.780L12.247,43.753L12.192,43.697L12.172,43.667L12.173,43.645L12.196,43.592L12.198,43.570L12.125,43.353L12.088,43.308L11.952,43.313L11.696,43.554L11.561,43.630L11.410,43.673L11.306,43.741L11.103,43.933L10.890,44.037L10.643,44.072L9.994,44.088L9.910,44.090L9.831,44.041L9.833,43.912L9.902,43.796L10.121,43.644L10.226,43.544L10.301,43.423L10.504,42.911L10.977,42.213L11.090,41.947L11.177,41.868L11.414,41.719L11.509,41.619L11.571,41.509L11.720,41.104L12.046,40.599L12.231,40.219L12.278,40.064L12.255,39.953L12.202,39.843L12.164,39.689L12.168,39.566L12.217,39.332L12.218,39.099L12.527,38.048L12.646,36.739L12.641,36.622L12.647,36.536L12.649,36.508L12.693,36.391L12.785,36.268L12.883,36.168L12.966,36.058L13.075,35.744L13.439,35.321L13.599,35.061L13.885,34.246L14.022,33.980L14.177,33.803L14.435,33.624L14.545,33.518L14.652,33.372L14.856,32.872L14.904,32.804L15.016,32.684L15.060,32.621L15.077,32.563L15.082,32.449L15.109,32.395L15.214,32.325L15.341,32.305L15.596,32.294L15.925,32.173L16.044,32.148L16.159,32.160L16.379,32.218L16.483,32.191L16.545,32.114L16.722,31.786L16.898,31.459L17.075,31.131L17.251,30.804L17.428,30.476L17.604,30.149L17.781,29.821L17.957,29.493L18.017,29.383L18.119,29.237L18.235,29.160L18.388,29.120L18.734,29.031L19.081,28.941L19.428,28.851L19.774,28.762L20.121,28.672L20.468,28.582L20.815,28.492L21.162,28.403L21.322,28.361L21.557,28.261L21.759,28.089L21.865,28.031L22.043,28.035L21.965,28.182L21.946,28.289L21.993,28.399L21.830,28.417L21.783,28.435L21.759,28.480L21.757,28.535L21.743,28.583L21.686,28.603L21.555,28.626L21.217,28.803L20.981,28.874L19.990,29.023L18.881,29.362L18.651,29.402L18.506,29.454L18.374,29.519L18.297,29.582L18.233,29.800L18.240,30.060L18.423,30.841L18.910,31.820L19.271,32.328L19.426,32.481L20.118,32.871L20.207,32.944L20.274,33.028L20.285,33.111L20.238,33.128L19.961,33.189L19.985,33.096L19.944,33.017L19.856,32.964L19.695,32.933L19.633,32.912L19.577,32.902L19.554,32.924L19.538,32.951L19.503,32.982L19.433,33.026L19.485,33.094L19.699,33.291L19.746,33.370L19.744,33.442L19.724,33.517L19.719,33.601L19.777,33.843L19.877,34.091L19.992,34.299L20.135,34.487L20.322,34.651L20.571,34.785L20.511,34.917L20.461,35.152L20.369,35.282L20.399,35.329L20.409,35.390L20.399,35.458L20.369,35.523L20.398,35.617L20.351,35.740L20.283,35.873L20.248,35.996L20.256,36.325L20.265,36.359L20.256,36.381L20.207,36.429L20.166,36.451L20.005,36.507L19.873,36.648L19.859,36.673L19.762,36.698L19.663,36.755L19.517,36.878L19.371,37.053L19.028,37.694L18.705,38.126L18.669,38.263L18.579,38.325L18.341,38.392L18.247,38.464L18.167,38.568L18.112,38.693L18.061,38.945L17.924,39.183L17.805,39.517L17.416,39.956L17.327,40.136L17.346,40.219L17.457,40.454L17.530,40.563L17.934,40.975L18.070,41.160L18.378,41.839L18.272,41.780L18.222,41.668L18.190,41.540L18.135,41.427L18.092,41.464L18.111,41.488L18.120,41.507L18.135,41.550L18.081,41.561L18.058,41.576L18.043,41.599L18.014,41.631L18.102,41.671L18.194,41.751L18.268,41.857L18.297,41.978L18.256,42.096L18.160,42.100L18.052,42.039L17.974,41.958L17.949,42.068L17.999,42.185L18.092,42.329L18.183,42.264L18.316,42.143L18.440,42.084L18.499,42.203L18.543,42.203L18.543,42.084L18.605,42.125L18.764,42.307L18.825,42.347L18.882,42.363L18.935,42.385L18.984,42.448L18.805,42.412L18.651,42.476L18.574,42.608L18.624,42.774L18.686,42.570L18.705,42.529L19.048,42.529L19.198,42.620L19.337,42.792L19.479,42.894L19.635,42.774L19.613,42.874L19.597,42.901L19.659,42.950L19.673,42.993L19.638,43.021L19.554,43.023L19.554,43.064L19.627,43.132L19.635,43.235L19.602,43.344L19.554,43.431L19.494,43.380L19.377,43.467L19.149,43.680L19.205,43.726L19.270,43.676L19.336,43.638L19.392,43.720L19.438,43.699L19.471,43.676L19.496,43.646L19.517,43.598L19.574,43.654L19.556,43.716L19.547,43.781L19.635,43.843L19.524,43.853L19.532,43.934L19.635,44.088L19.495,44.243L19.473,44.292L19.491,44.357L19.534,44.383L19.578,44.399L19.597,44.435L19.633,44.439L19.706,44.475L19.759,44.517L19.739,44.537L19.730,44.561L19.788,44.616L19.921,44.704L20.159,44.778L20.418,44.821L20.681,44.826L20.935,44.782L21.783,44.516L22.363,44.267L22.555,44.143L22.676,44.003L22.760,43.686L22.872,43.601L23.024,43.408L23.084,43.349L23.135,43.333L23.289,43.312L23.332,43.291L23.372,43.264L23.415,43.241L23.469,43.230L23.550,43.200L23.612,43.122L23.647,43.015L23.649,42.901L23.547,42.569L23.512,42.070L23.491,41.958L23.459,41.881L23.444,41.821L23.447,41.754L23.474,41.706L23.590,41.550L23.589,41.475L23.693,41.052L23.693,40.770L23.732,40.731L23.759,40.693L23.774,40.648L23.771,40.626L23.734,40.525L23.659,40.432L23.556,40.335L23.471,40.220L23.447,40.073L23.509,40.064L23.550,40.043L23.568,39.991L23.553,39.946L23.447,39.828L23.339,39.662L23.020,39.270L22.893,39.184L22.757,39.212L22.629,38.677L22.528,38.411L22.397,38.187L22.171,37.957L22.038,37.860L21.828,37.781L21.773,37.683L21.706,37.449L21.655,37.370L21.529,37.222L21.481,37.044L21.424,36.946L21.298,36.796L21.233,36.733L21.204,36.694L21.177,36.633L21.170,36.575L21.207,36.480L21.243,36.172L21.222,36.094L21.133,36.017L20.866,35.839L20.776,35.719L20.773,35.568L20.801,35.521L21.006,35.348L21.022,35.341L20.994,35.326L20.828,35.051L20.814,34.992L20.822,34.912L20.857,34.756L20.857,34.666L20.837,34.596L20.798,34.549L20.692,34.458L20.629,34.359L20.590,34.317L20.531,34.295L20.531,34.258L20.963,34.237L21.152,34.257L21.343,34.336L21.405,34.200L21.378,34.081L21.322,33.976L21.298,33.883L21.340,33.793L21.484,33.698L21.540,33.601L21.388,33.603L21.332,33.593L21.262,33.560L21.202,33.512L21.090,33.393L21.016,33.356L21.269,33.267L21.505,33.236L21.993,33.234L22.242,33.197L22.312,33.168L22.940,32.913L23.205,32.758L23.258,32.709L23.612,32.577L24.752,31.944L25.679,31.700L25.842,31.634L25.969,31.690L26.172,31.687L26.858,31.604L26.964,31.540L27.058,31.389L27.001,31.411L26.953,31.447L26.917,31.495L26.896,31.553L26.878,31.405L27.021,31.353L27.331,31.398L27.526,31.342L27.980,31.127L28.195,30.982L28.310,30.987L28.532,31.015L28.834,30.867L28.958,30.717L29.040,30.553L29.045,30.443L29.035,30.400L28.993,30.361L28.926,30.349L28.985,30.307L29.063,30.316L29.149,30.355L29.195,30.429L29.253,30.495L29.311,30.549L29.378,30.522L29.409,30.464L29.432,30.383L29.487,30.385L29.553,30.422L29.611,30.443L29.656,30.481L29.683,30.481L29.695,30.424L29.695,30.368L29.687,30.328L29.662,30.302L29.611,30.284L29.618,30.256L29.625,30.238L29.655,30.198L29.569,30.168L29.580,30.089L29.326,30.004L29.190,29.994L29.170,29.977L29.198,29.943L29.241,29.944L29.329,29.942L29.280,29.895L29.212,29.869L29.133,29.845L29.061,29.805L28.943,29.718L29.173,29.775L29.335,29.865L29.495,29.949L29.600,30.002L29.650,30.016L29.755,30.044L29.853,30.035L29.957,30.063L30.043,30.111L30.155,30.064L30.219,30.010L30.338,30.050L30.369,30.144L30.416,30.168L30.496,30.153L30.535,30.256L30.630,30.311L30.748,30.375L30.819,30.509L31.000,30.573L31.113,30.506L31.147,30.421L31.320,30.319L31.396,30.243L31.416,30.108L31.291,29.903L31.315,29.786L31.265,29.718L31.171,29.436L31.134,29.259L30.988,28.970L30.952,28.970L30.935,29.080L30.888,29.068L30.832,29.006L30.790,28.970L30.712,28.990L30.663,29.032L30.631,29.073L30.608,29.092L30.327,29.181L30.195,29.191L30.224,29.092L29.985,29.200L29.917,29.215L29.741,29.220L29.654,29.239L29.592,29.278L29.463,29.339L29.081,29.375L28.795,29.514L28.646,29.476L28.539,29.363L28.520,29.215L28.542,29.174L28.613,29.095L28.637,29.051L28.642,29.009L28.630,28.981L28.613,28.957L28.600,28.925L28.600,28.766L28.589,28.756L28.535,28.681L28.520,28.643L28.555,28.664L28.646,28.705L28.681,28.725L28.681,28.558L28.668,28.488L28.637,28.435L28.574,28.404L28.544,28.447L28.520,28.515L28.475,28.562L28.447,28.458L28.318,28.235L28.289,28.198L28.263,28.181L28.244,28.154L28.233,28.028L28.215,27.992L28.177,27.978L28.112,27.987L28.143,27.904L28.189,27.685L28.196,27.597L28.221,27.499L28.330,27.308L28.354,27.188L28.392,27.098L28.575,26.889L28.637,26.799L28.656,26.699L28.649,26.524L28.681,26.469L28.940,26.462L29.045,26.433L29.148,26.368L29.517,26.054L29.655,25.979L29.794,25.949L29.879,25.982L29.957,26.034L30.229,26.095L30.341,26.184L30.874,27.048L30.952,27.289L30.984,27.542L30.989,28.057L31.032,28.313L31.396,29.337L31.673,29.888L31.877,30.141L32.127,30.321L32.333,30.349L32.483,30.257L32.638,30.136L32.858,30.076L33.358,30.154L33.588,30.163L33.831,30.076L33.997,29.969L34.095,29.928L34.217,29.912L34.277,29.931L34.398,30.016L34.459,30.035L34.660,30.026L34.720,30.035L35.101,30.188L35.172,30.179L35.205,30.242L35.284,30.311L35.377,30.371L35.451,30.406L35.699,30.449L36.627,30.410L36.738,30.442L36.829,30.512L37.025,30.722L37.141,30.808L37.271,30.881L37.472,30.954L37.567,30.976L37.649,30.983L37.684,30.955L37.716,30.975L37.855,31.037L37.886,31.081L37.948,31.191L38.094,31.303L38.536,31.533L38.670,31.626L38.776,31.728L38.819,31.816L38.874,31.880L39.264,32.046L39.293,31.988L39.302,31.961L39.304,31.920L39.348,31.920L39.366,31.956L39.425,32.046L39.425,32.083L39.380,32.196L39.435,32.350L39.666,32.688L40.029,33.396L40.087,33.563L40.035,33.638L39.990,33.613L39.930,33.555L39.851,33.500L39.752,33.478L39.677,33.494L39.607,33.525L39.548,33.564L39.506,33.601L39.703,33.653L40.180,33.696L40.322,33.805L40.257,33.919L40.160,33.966L39.892,33.968L39.802,34.018L39.771,34.136L39.773,34.272L39.851,34.641L40.036,35.162L40.115,35.304L40.245,35.538L40.301,35.638L40.495,35.884L40.722,36.084L40.968,36.180L41.697,36.175L41.801,36.198L41.941,36.262L42.083,36.307L42.182,36.288L42.268,36.245L42.369,36.221L42.442,36.226L42.485,36.247L42.505,36.291L42.509,36.338L42.511,36.364L42.532,36.392L42.576,36.350L42.619,36.289L42.632,36.262L42.813,36.181L43.051,36.130L43.836,36.071L44.338,35.937L44.823,35.903L45.334,35.849L45.723,35.808L46.212,35.828L46.647,35.772L46.984,35.595L47.214,35.548L47.448,35.461L47.580,35.441L48.328,35.452L48.975,35.395L50.366,35.313L51.039,35.324L51.106,35.341L51.175,35.384L51.497,35.442L51.594,35.441L51.667,35.386L51.739,35.304L51.824,35.229L51.938,35.197L52.081,35.218L52.443,35.404L52.833,35.497L52.953,35.602L53.228,35.634L53.295,35.649L53.252,35.733L53.120,35.814L52.965,35.863L52.851,35.850L52.856,35.919L52.847,36.064L52.871,36.119L53.053,36.306L53.501,36.653L53.545,36.710L53.743,36.831L53.850,36.994L54.269,37.245L54.184,37.248L54.102,37.232L54.033,37.203L53.985,37.164L53.940,37.201L53.901,37.245L54.026,37.409L54.180,37.374L54.332,37.464L54.591,37.694L54.742,37.747L54.902,37.771L55.242,37.780L55.066,37.665L54.474,37.413L54.349,37.245L56.054,37.987L56.772,38.203L56.969,38.238L57.653,38.361L58.485,38.514L58.728,38.640L58.947,38.696L59.014,38.722L59.014,38.763L58.567,38.618L58.449,38.596L58.500,38.681L58.607,38.747L58.731,38.789L58.992,38.812L59.054,38.803L59.110,38.784L59.210,38.732L59.389,38.695L59.601,38.562L59.705,38.514L59.822,38.499L60.149,38.559L60.588,38.587L60.811,38.555L60.979,38.457L61.045,38.372L61.094,38.282L61.163,38.065L61.165,37.972L61.135,37.816L61.163,37.735L61.210,37.787L61.268,37.817L61.334,37.828L61.405,37.820L61.362,37.878L61.337,37.892L61.284,37.902L61.352,37.984L61.455,37.976L61.515,37.920L61.450,37.858L61.518,37.809L61.670,37.612L61.756,37.598L61.925,37.539L62.019,37.531L62.003,37.572L61.993,37.589L61.975,37.612L62.008,37.603L62.062,37.593L62.096,37.575L62.138,37.647L62.173,37.638L62.211,37.598L62.234,37.587L62.261,37.575L62.323,37.591L62.453,37.647L62.503,37.657L62.635,37.609L62.801,37.444L62.988,37.396L63.097,37.339L63.132,37.327L63.177,37.298L63.177,37.241L63.144,37.201L62.983,37.274L62.845,37.266L62.714,37.222L62.625,37.164L62.664,37.106L62.725,37.114L62.796,37.147L62.867,37.164L62.941,37.142L63.067,37.066L63.154,37.041L63.137,36.964L63.140,36.934L63.154,36.878L63.025,36.878L63.025,36.833L63.150,36.787L63.210,36.811L63.230,36.883L63.231,36.980L63.249,37.073L63.291,37.071L63.345,37.008L63.396,36.918L63.399,36.760L63.636,36.666L63.944,36.586L64.160,36.470L64.210,36.373L64.236,36.294L64.291,36.240L64.426,36.221L64.557,36.225L64.651,36.240L64.728,36.267L64.990,36.390L65.100,36.418L65.238,36.429L65.378,36.418L65.744,36.343L65.861,36.349L66.093,36.413L66.213,36.429L66.469,36.420L67.280,36.228L67.448,36.139L67.311,36.125L67.160,36.135L67.006,36.121L66.862,36.037L66.757,35.957L66.453,35.811L66.313,35.772L66.000,35.765L65.858,35.746L65.723,35.668L65.604,35.620L65.445,35.623L65.137,35.686L65.167,35.657L65.218,35.568L65.132,35.571L65.071,35.607L65.023,35.654L64.976,35.686L64.896,35.705L64.486,35.672L64.406,35.686L64.226,35.794L64.182,35.813L64.132,35.845L64.079,35.984L64.022,36.017L63.932,35.984L63.891,35.907L63.880,35.819L63.881,35.751L63.828,35.634L63.722,35.510L63.645,35.390L63.675,35.282L63.738,35.248L63.781,35.206L63.803,35.150L63.804,35.074L63.841,35.074L63.899,35.180L63.981,35.233L64.245,35.282L64.318,35.308L64.476,35.388L64.550,35.404L64.630,35.391L64.977,35.222L65.036,35.204L65.117,35.197L65.154,35.208L65.173,35.235L65.190,35.263L65.218,35.282L65.777,35.276L65.909,35.323L65.996,35.280L66.225,35.232L66.313,35.197L66.372,35.136L66.422,35.049L66.458,34.944L66.474,34.829L66.518,34.829L66.592,34.964L66.704,35.055L66.845,35.116L67.459,35.262L68.050,35.334L68.179,35.323L68.423,35.164L68.565,35.104L68.667,35.159L68.707,35.159L68.727,35.082L68.780,35.075L68.853,35.098L68.928,35.115L68.961,35.090L68.996,34.965L69.031,34.915L69.070,34.956L69.109,34.978L69.150,34.977L69.193,34.952L69.229,34.992L69.193,35.030L69.314,35.074L69.362,34.998L69.444,35.005L69.541,35.046L69.637,35.074L69.640,35.051L69.668,35.008L69.716,34.983L69.782,35.011L69.837,35.027L69.899,35.000L70.311,34.722L70.368,34.703L70.386,34.733L70.403,34.790L70.440,34.845L70.511,34.870L70.579,34.870L70.637,34.862L70.688,34.837L70.735,34.785L70.836,34.818L71.240,34.785L71.373,34.804L71.610,34.891L71.749,34.915L71.891,34.897L72.133,34.806L72.344,34.771L72.983,34.552L73.066,34.540L73.200,34.612L73.268,34.625L73.341,34.630L73.466,34.656L74.037,34.666L74.892,34.818L75.356,34.882L75.621,34.917L76.046,34.930L76.232,34.991L76.330,34.992L76.403,34.960L76.561,34.853L76.636,34.829L77.028,34.827L77.200,34.792L77.347,34.703L77.412,34.773L77.572,34.721L77.626,34.785L77.723,34.724L77.880,34.669L78.042,34.643L78.155,34.666L78.059,34.711L77.971,34.775L77.923,34.866L77.949,34.992L77.913,35.030L77.848,34.968L77.793,35.006L77.723,35.077L77.608,35.115L77.586,35.126L77.511,35.178L77.464,35.197L77.393,35.199L77.337,35.188L77.283,35.193L77.218,35.241L76.846,35.281L76.716,35.322L76.210,35.256L75.823,35.282L75.747,35.315L75.675,35.393L75.386,35.820L75.260,35.926L75.136,35.913L74.998,35.837L74.885,35.842L74.769,35.878L74.629,35.894L74.561,35.881L74.447,35.829L74.382,35.813L74.327,35.815L74.228,35.843L74.158,35.850L74.035,35.836L73.651,35.731L73.322,35.706L71.940,35.882L71.778,35.922L71.708,35.996L71.647,36.092L71.508,36.204L71.357,36.300L71.260,36.343L71.260,36.384L71.441,36.311L71.767,36.036L71.951,35.931L72.170,35.918L72.264,36.036L72.283,36.210L72.278,36.364L72.314,36.550L72.324,36.664L72.296,36.714L72.247,36.722L72.156,36.752L72.117,36.755L72.065,36.731L71.977,36.651L71.929,36.633L71.537,36.614L71.353,36.657L71.301,36.796L71.341,36.767L71.466,36.714L71.498,36.860L71.528,36.919L71.584,36.959L71.514,37.000L71.420,37.120L71.341,37.164L71.451,37.237L71.438,37.301L71.367,37.368L71.301,37.449L71.644,37.433L71.729,37.388L71.755,37.282L71.634,37.047L71.665,36.918L71.598,36.875L71.578,36.801L71.601,36.725L71.665,36.673L71.770,36.670L71.870,36.722L72.036,36.878L72.094,36.834L72.151,36.819L72.211,36.813L72.278,36.796L72.461,36.689L72.498,36.673L72.601,36.691L72.718,36.732L72.822,36.784L72.884,36.833L72.903,36.880L72.909,36.985L72.928,37.041L72.967,37.089L73.106,37.182L73.189,37.262L73.248,37.342L73.281,37.440L73.288,37.575L73.248,37.752L73.248,37.820L73.317,37.956L73.328,38.006L73.348,38.025L73.391,38.043L73.434,38.072L73.466,38.175L73.521,38.280L73.534,38.314L73.510,38.411L73.443,38.518L73.356,38.604L73.268,38.640L73.201,38.647L73.085,38.675L73.025,38.681L72.949,38.670L72.905,38.644L72.876,38.616L72.843,38.596L72.747,38.577L72.641,38.579L72.555,38.616L72.520,38.702L72.507,38.754L72.473,38.800L72.426,38.832L72.373,38.844L72.344,38.820L72.314,38.704L72.296,38.661L72.204,38.615L72.040,38.700L71.951,38.681L71.937,38.637L71.948,38.577L71.949,38.518L71.907,38.477L71.850,38.477L71.794,38.506L71.745,38.550L71.708,38.596L71.688,38.533L71.652,38.490L71.603,38.459L71.543,38.436L71.451,38.509L71.387,38.520L71.220,38.477L71.247,38.513L71.265,38.539L71.349,38.625L71.430,38.683L71.466,38.661L71.491,38.604L71.547,38.569L71.602,38.569L71.628,38.618L71.653,38.919L71.703,39.046L71.793,39.048L71.724,38.960L71.736,38.888L71.761,38.819L71.729,38.743L71.728,38.707L71.749,38.649L71.785,38.602L71.829,38.596L71.857,38.634L71.828,38.730L71.850,38.783L71.942,38.833L72.024,38.812L72.105,38.772L72.193,38.763L72.268,38.804L72.325,38.864L72.397,38.912L72.520,38.922L72.450,39.073L72.501,39.120L72.592,39.084L72.641,38.985L72.583,38.788L72.597,38.679L72.719,38.640L72.758,38.665L72.865,38.771L72.928,38.803L73.001,38.806L73.315,38.732L73.458,38.653L73.582,38.548L73.651,38.436L73.656,38.299L73.560,38.045L73.534,37.922L73.576,37.754L73.679,37.715L73.810,37.754L73.938,37.820L74.179,37.995L74.313,38.188L74.463,38.681L74.515,38.785L74.579,38.875L74.627,38.970L74.629,39.090L74.701,39.210L74.720,39.290L74.694,39.371L74.629,39.497L74.736,39.500L74.822,39.550L74.893,39.625L75.008,39.785L75.323,40.377L75.356,40.481L75.348,40.581L75.318,40.671L75.307,40.759L75.317,40.777L75.356,40.852L75.521,40.690L75.641,40.491L75.804,40.035L75.816,39.843L75.717,39.468L75.720,39.249L75.826,39.330L75.928,39.464L76.148,39.886L76.185,40.016L76.201,40.860L76.132,41.113L75.966,41.260L76.166,41.195L76.281,40.995L76.329,40.733L76.292,39.991L76.257,39.852L76.131,39.624L76.087,39.497L76.432,39.538L76.535,39.565L76.577,39.632L76.602,39.714L76.656,39.791L76.719,39.817L76.908,39.861L77.024,39.871L77.072,39.869L77.080,39.847L77.020,39.791L76.968,39.766L76.791,39.715L76.715,39.705L76.708,39.674L76.535,39.497L76.440,39.451L76.362,39.427L76.009,39.418L75.932,39.384L75.841,39.293L75.921,39.173L75.959,39.073L76.020,39.010L76.079,38.978L76.586,39.110L76.879,39.228L77.092,39.351L77.686,39.815L77.793,39.909L77.971,40.150L78.142,40.268L78.240,40.340L78.244,40.420L78.259,40.464L78.338,40.544L78.364,40.601L78.355,40.662L78.293,40.839L78.179,41.057L78.155,41.182L78.195,41.182L78.357,40.852L78.441,40.525L78.543,40.535L78.630,40.658L78.702,40.807L78.761,40.893L78.730,41.008L78.761,41.509L78.815,41.388L78.838,41.255L78.842,40.995L78.834,40.925L78.812,40.871L78.780,40.828L78.743,40.789L78.702,40.725L78.675,40.589L78.644,40.525L78.604,40.502L78.488,40.473L78.441,40.444L78.434,40.405L78.336,40.276L78.298,40.214L78.285,40.168L78.259,40.129L78.313,40.114L78.484,40.108L78.709,40.153L79.169,40.299L79.238,40.307L79.653,40.399L79.764,40.324L79.739,40.239L79.661,40.157L79.597,40.072L79.555,40.055L79.511,40.027L79.412,39.964L79.404,39.917L79.390,39.871L79.305,39.852L79.225,39.783L79.189,39.715L79.222,39.693L79.392,39.701L79.450,39.726L79.540,39.770L79.710,39.860L79.948,40.011L80.143,40.137L80.345,40.281L80.431,40.389L80.661,40.673L80.633,40.508L80.489,40.325L80.449,40.217L80.273,40.152L80.183,40.055L80.204,40.041L80.291,40.113L80.374,40.131L80.485,40.142L80.561,40.181L80.622,40.250L80.780,40.426L80.877,40.523L80.971,40.605L81.060,40.702L81.161,40.817L81.236,40.878L81.351,40.971L81.631,41.194L81.760,41.295L81.821,41.481L81.941,41.622L82.024,41.587L81.927,41.464L82.070,41.463L82.390,41.652L82.497,41.587L82.535,41.606L82.757,41.587L82.845,41.599L83.062,41.709L83.296,41.788L83.393,41.854L83.426,41.958L83.386,41.951L83.368,41.933L83.345,41.876L83.334,42.073L83.345,42.121L83.389,42.160L83.431,42.156L83.475,42.134L83.529,42.121L83.629,42.143L83.753,42.198L83.876,42.271L83.975,42.347L84.026,42.405L84.117,42.532L84.205,42.620L84.224,42.646L84.234,42.676L84.238,42.715L84.253,42.729L84.329,42.749L84.359,42.774L84.408,42.897L84.439,43.050L84.430,43.200L84.359,43.312L84.347,43.262L84.332,43.235L84.282,43.186L84.250,43.271L84.240,43.367L84.214,43.444L84.135,43.476L84.044,43.495L83.908,43.579L83.852,43.598L83.783,43.605L83.710,43.623L83.643,43.649L83.591,43.680L83.554,43.745L83.527,43.782L83.490,43.798L83.482,43.805L83.345,43.843L83.017,44.158L82.880,44.206L82.765,44.283L82.654,44.462L82.497,44.826L82.582,44.792L82.660,44.719L82.717,44.632L82.739,44.557L82.768,44.506L83.255,44.074L83.402,43.983L83.426,44.088L83.396,44.147L83.307,44.238L83.265,44.292L83.247,44.344L83.226,44.474L83.204,44.518L83.166,44.565L83.149,44.612L83.147,44.724L83.121,44.783L83.060,44.816L82.992,44.838L82.941,44.863L82.735,45.088L82.695,45.090L82.674,45.144L82.570,45.311L82.533,45.401L82.463,45.650L82.453,45.746L82.493,45.868L82.497,45.929L82.409,46.183L82.094,46.654L82.012,46.912L81.984,47.199L81.920,47.412L81.779,47.530L81.519,47.532L81.174,47.421L81.097,47.406L80.065,47.486L79.805,47.426L79.576,47.283L79.459,47.285L79.342,47.306L79.260,47.367L79.250,47.487L79.302,47.550L79.617,47.732L79.839,47.776L79.894,47.795L79.931,47.835L79.957,47.877L79.980,47.899L80.044,47.901L80.147,47.867L80.203,47.858L80.212,47.876L80.280,47.954L80.374,48.039L80.413,48.056L80.487,48.062L80.517,48.080L80.569,48.165L80.590,48.188L80.706,48.202L80.935,48.147L81.035,48.144L81.094,48.187L81.133,48.268L81.163,48.359L81.197,48.433L81.259,48.493L81.413,48.588L81.479,48.678L81.664,48.550L81.739,48.470L81.769,48.370L81.808,48.299L81.900,48.218L82.007,48.146L82.089,48.103L82.219,48.074L82.597,48.103L82.872,48.053L83.003,48.058L83.018,48.144L82.922,48.226L82.698,48.264L82.654,48.370L82.648,48.500L82.652,48.568L82.675,48.615L82.735,48.642L82.748,48.586L82.739,48.433L82.766,48.325L82.794,48.304L82.860,48.266L82.918,48.255L82.984,48.258L83.039,48.250L83.062,48.207L83.074,48.154L83.104,48.093L83.137,48.042L83.205,47.991L83.217,47.919L83.224,47.776L83.235,47.718L83.236,47.676L83.250,47.642L83.304,47.609L83.417,47.651L83.532,47.632L83.651,47.591L84.237,47.524L84.980,47.438L85.090,47.509L85.125,47.570L85.208,47.638L85.302,47.698L85.373,47.732L85.490,47.758L85.857,47.776L86.244,47.870L86.346,47.858L86.366,47.831L86.431,47.695L86.552,47.568L86.689,47.331L86.877,47.254L87.907,47.323L88.146,47.386L88.374,47.487L88.583,47.623L88.697,47.674L88.954,47.717ZM83.062,47.406L83.095,47.418L83.114,47.431L83.138,47.442L83.184,47.450L83.204,47.605L83.126,47.744L82.996,47.806L82.860,47.732L82.852,47.813L82.901,47.893L82.914,47.953L82.412,48.021L81.782,47.968L81.560,47.977L81.625,47.843L81.704,47.721L81.813,47.636L81.968,47.609L82.093,47.647L82.283,47.802L82.412,47.858L82.342,47.761L82.331,47.754L82.344,47.706L82.372,47.673L82.399,47.650L82.412,47.630L82.577,47.450L82.647,47.425L83.031,47.400L83.062,47.406ZM83.632,44.904L83.766,44.875L83.897,44.907L84.016,44.980L84.116,45.071L83.993,45.106L83.955,45.108L84.043,45.250L83.959,45.426L83.801,45.586L83.553,45.768L82.759,46.102L82.618,46.136L82.951,45.892L83.061,45.790L83.262,45.492L83.330,45.294L83.389,45.235L83.463,45.187L83.529,45.130L83.552,45.069L83.545,45.016L83.555,44.962L83.632,44.904ZM82.654,45.728L82.588,45.669L82.610,45.552L82.664,45.416L82.695,45.296L82.750,45.201L82.879,45.150L83.029,45.116L83.147,45.071L83.254,44.961L83.474,44.679L83.569,44.622L83.714,44.610L84.036,44.500L84.036,44.556L84.029,44.608L84.016,44.658L83.995,44.704L83.995,44.659L83.950,44.765L83.896,44.813L83.815,44.827L83.688,44.826L83.592,44.854L83.497,44.920L83.000,45.381L82.969,45.434L82.932,45.553L82.901,45.602L82.703,45.713L82.654,45.728ZM83.911,44.377L83.813,44.485L83.517,44.584L83.389,44.659L83.492,44.453L83.501,44.258L83.534,44.090L83.709,43.965L83.917,43.910L84.028,43.914L84.076,43.984L84.063,44.100L84.026,44.214L83.974,44.322L83.911,44.414L83.911,44.377ZM84.238,43.843L84.326,43.773L84.459,43.707L84.593,43.697L84.686,43.798L84.704,43.825L84.736,43.886L84.767,43.921L84.703,43.949L84.623,43.954L84.524,43.943L84.359,44.047L84.313,44.134L84.271,44.248L84.203,44.343L84.076,44.377L84.125,44.225L84.172,43.952L84.238,43.843ZM65.545,34.258L65.663,34.313L65.830,34.368L65.977,34.449L66.030,34.584L65.944,34.698L65.788,34.709L65.662,34.647L65.666,34.540L65.508,34.526L65.427,34.501L65.380,34.458L65.375,34.382L65.413,34.317L65.476,34.273L65.545,34.258ZM58.142,33.393L58.188,33.390L58.238,33.393L58.256,33.417L58.206,33.478L58.293,33.606L58.276,33.689L58.182,33.748L58.041,33.805L58.064,33.746L58.081,33.723L57.957,33.766L57.849,33.777L57.615,33.768L57.497,33.739L57.387,33.684L57.286,33.650L57.192,33.682L57.052,33.567L57.110,33.425L57.259,33.320L57.391,33.312L57.536,33.251L57.676,33.258L57.980,33.377L58.040,33.388L58.142,33.393ZM66.313,32.308L66.332,32.430L66.418,32.652L66.438,32.758L66.629,33.110L66.663,33.274L66.474,33.234L66.477,33.273L66.471,33.354L66.474,33.393L66.387,33.330L66.336,33.310L66.313,33.334L66.294,33.371L66.166,33.491L66.010,33.805L65.669,33.749L65.545,33.768L65.154,33.903L65.053,33.968L65.070,33.792L64.967,33.769L64.838,33.769L64.718,33.544L64.591,33.454L64.453,33.380L64.366,33.312L64.205,33.450L64.079,33.480L63.646,33.432L63.616,33.418L63.592,33.403L63.558,33.393L63.406,33.398L63.352,33.393L63.104,33.320L62.989,33.312L63.134,32.999L63.154,32.924L63.167,32.797L63.213,32.744L63.299,32.733L63.433,32.737L63.497,32.724L63.544,32.701L63.619,32.636L63.679,32.615L63.800,32.657L63.960,32.590L64.104,32.570L64.233,32.593L64.289,32.677L64.286,32.752L64.292,32.840L64.332,32.913L64.533,32.976L64.751,33.116L64.875,33.148L65.116,33.173L65.217,33.141L65.302,33.026L65.313,32.963L65.302,32.781L65.339,32.727L65.424,32.658L65.461,32.618L65.485,32.552L65.482,32.506L65.490,32.464L65.545,32.410L65.595,32.393L65.732,32.385L65.787,32.369L65.874,32.294L66.021,32.113L66.111,32.046L66.132,32.153L66.203,32.211L66.277,32.251L66.313,32.308ZM49.971,28.435L50.063,28.439L50.092,28.435L49.981,28.530L49.772,28.565L49.550,28.534L49.402,28.435L49.581,28.478L49.719,28.453L49.831,28.358L49.931,28.191L49.983,28.230L50.012,28.294L50.010,28.367L49.971,28.435ZM52.788,28.191L52.929,28.180L52.962,28.219L52.972,28.336L52.896,28.454L52.724,28.443L52.538,28.352L52.421,28.228L52.508,28.196L52.612,28.186L52.788,28.191ZM61.813,27.742L61.887,27.781L62.075,27.927L62.111,27.992L62.139,28.096L62.135,28.192L62.075,28.235L61.823,28.227L61.682,28.203L61.567,28.153L61.584,28.105L61.593,28.091L61.589,28.076L61.567,28.028L61.645,27.967L61.744,27.801L61.813,27.742ZM49.132,28.468L49.216,28.435L49.259,28.432L49.262,28.442L48.983,28.557L48.955,28.582L48.787,28.626L48.735,28.639L48.672,28.656L48.534,28.651L48.513,28.625L48.640,28.639L48.729,28.627L48.759,28.620L48.780,28.616L49.132,28.468ZM49.231,27.916L49.333,27.912L49.358,27.928L49.209,27.944L49.188,27.940L49.110,27.961L49.008,27.940L48.952,27.940L48.913,27.926L48.731,27.909L48.749,27.896L49.231,27.916ZM43.759,27.229L43.812,27.234L43.880,27.258L43.829,27.266L43.712,27.246L43.666,27.226L43.659,27.200L43.676,27.180L43.705,27.188L43.731,27.213L43.759,27.229ZM43.626,26.989L43.620,26.984L43.634,26.970L43.626,26.989ZM43.643,26.972L43.645,26.959L43.650,26.972L43.648,26.978L43.643,26.972ZM43.645,26.838L43.660,26.849L43.652,26.873L43.646,26.862L43.645,26.838ZM43.620,26.758L43.623,26.769L43.602,26.759L43.620,26.758ZM43.585,26.746L43.576,26.726L43.587,26.735L43.585,26.746ZM67.538,5.041L67.515,5.014L67.539,5.000L67.569,5.014L67.573,5.040L67.564,5.053L67.538,5.041ZM80.850,47.582L80.971,47.637L81.122,47.627L81.298,47.637L81.353,47.748L81.358,47.848L81.368,47.974L81.439,48.050L81.524,48.085L81.620,48.145L81.625,48.231L81.599,48.326L81.524,48.361L81.423,48.321L81.283,48.210L81.232,48.095L81.157,48.004L80.996,48.004L80.790,48.014L80.593,47.979L80.473,47.879L80.387,47.818L80.261,47.758L80.150,47.748L79.964,47.673L79.989,47.612L80.110,47.627L80.342,47.662L80.563,47.652L80.699,47.572L80.850,47.582ZM84.669,46.752L84.775,46.737L84.850,46.662L84.951,46.602L85.032,46.522L85.077,46.492L85.102,46.512L85.072,46.577L85.011,46.688L85.011,46.808L85.061,46.909L85.136,46.949L85.318,46.945L85.458,46.965L85.498,47.040L85.478,47.141L85.422,47.246L85.337,47.266L85.226,47.261L85.091,47.215L84.970,47.210L84.854,47.240L84.723,47.245L84.597,47.240L84.512,47.280L84.401,47.279L84.295,47.269L84.285,47.214L84.356,47.129L84.422,47.018L84.503,46.888L84.578,46.762L84.669,46.752ZM83.448,46.104L83.723,46.069L83.851,46.028L83.917,45.926L83.978,45.850L84.157,45.850L84.473,45.851L84.601,45.775L84.744,45.719L84.769,45.801L84.713,45.872L84.748,45.923L84.830,45.954L84.855,46.061L84.870,46.127L84.947,46.203L85.018,46.336L84.941,46.402L84.793,46.493L84.650,46.508L84.523,46.620L84.441,46.777L84.349,46.905L84.303,47.032L84.180,47.159L84.068,47.240L83.844,47.255L83.629,47.229L83.471,47.260L83.344,47.290L83.140,47.229L82.839,47.234L82.604,47.264L82.497,47.325L82.390,47.407L82.318,47.453L82.257,47.489L82.154,47.494L82.114,47.443L82.129,47.320L82.145,47.239L82.155,47.086L82.171,46.872L82.243,46.734L82.412,46.530L82.596,46.393L82.805,46.281L82.973,46.220L83.178,46.144L83.315,46.124L83.448,46.104ZM75.283,39.571L75.332,39.633L75.370,39.779L75.348,39.919L75.314,40.027L75.238,40.018L75.175,39.859L75.166,39.709L75.178,39.612L75.210,39.549L75.257,39.553L75.283,39.571ZM74.855,39.058L74.889,39.073L74.928,39.136L74.898,39.227L74.822,39.260L74.753,39.199L74.712,39.093L74.664,38.897L74.661,38.817L74.716,38.802L74.782,38.886L74.855,39.058ZM75.817,38.788L75.847,38.831L75.877,38.928L75.849,39.013L75.791,39.074L75.716,39.130L75.621,39.156L75.535,39.167L75.479,39.193L75.475,39.116L75.547,38.950L75.659,38.827L75.766,38.784L75.817,38.788ZM73.306,36.905L73.347,36.942L73.399,37.034L73.390,37.148L73.337,37.242L73.303,37.242L73.302,37.173L73.280,37.116L73.183,37.029L73.142,36.976L73.039,36.872L72.857,36.735L72.687,36.635L72.581,36.524L72.549,36.418L72.558,36.309L72.566,36.270L72.589,36.195L72.620,36.149L72.644,36.151L72.820,36.344L72.966,36.538L73.306,36.905ZM64.409,34.146L64.462,34.164L64.484,34.241L64.372,34.318L64.212,34.330L64.099,34.274L64.115,34.187L64.202,34.150L64.280,34.145L64.387,34.153L64.409,34.146Z" fill="currentColor" stroke="currentColor" stroke-width="1.5" stroke-linejoin="round"/>
</svg>