<svg xmlns="http://www.w3.org/2000/svg" viewBox="0 0 100 100" role="img" aria-label="British Virgin Islands">
  <title>British Virgin Islands</title>
  <path d="M29.836,75.455L28.308,77.634L25.443,79.686L22.619,79.491L20.088,79.390L15.707,79.095L18.142,76.857L21.353,76.578L22.811,74.154L24.377,71.891L25.061,68.869L28.658,66.843L31.240,67.611L35.467,66.757L37.421,67.333L43.241,66.288L49.136,67.228L50.988,69.082L50.401,70.056L48.351,69.763L45.310,68.897L43.062,70.165L42.126,71.640L40.759,72.884L39.099,73.413L37.695,73.137L36.654,72.569L35.512,72.147L33.722,72.239L33.816,72.814L32.412,74.311L30.687,75.577L29.836,75.455ZM75.352,61.233L73.846,63.082L70.419,65.799L66.642,68.025L64.132,68.370L68.570,62.284L69.786,59.260L69.131,55.376L69.924,55.376L70.433,55.653L70.855,56.083L71.452,56.543L81.392,56.328L85.111,55.376L83.634,58.186L80.272,60.043L76.895,61.041L75.352,61.233ZM83.233,15.327L75.367,14.974L72.122,13.854L70.353,11.475L86.137,11.183L92.439,13.478L95.000,19.779L93.428,19.672L83.233,15.327ZM41.581,84.419L41.806,85.755L41.865,88.303L41.319,88.817L40.642,87.244L38.743,86.185L35.985,85.617L35.577,84.864L37.178,84.450L38.459,84.419L39.187,84.143L39.987,83.928L41.581,84.419ZM12.903,66.413L13.310,67.081L13.900,68.440L12.808,69.345L7.612,68.601L5.000,68.516L5.997,67.127L10.560,66.122L12.903,66.413ZM48.152,58.738L48.719,59.030L48.828,61.056L48.785,62.085L48.348,63.850L47.468,64.725L47.162,64.203L47.322,62.944L46.944,60.864L47.257,59.391L48.152,58.738Z" fill="currentColor" stroke="currentColor" stroke-width="1" stroke-linejoin="round"/>
</svg>