<svg xmlns="http://www.w3.org/2000/svg" viewBox="0 0 100 100" role="img" aria-label="United States Virgin Islands">
  <title>United States Virgin Islands</title>
  <path d="M79.309,86.196L76.172,86.535L73.560,87.393L68.439,89.766L65.797,90.593L40.768,94.188L38.482,95.000L39.373,92.809L39.521,90.952L39.393,85.728L39.764,84.115L40.758,83.095L45.349,84.505L47.932,83.319L50.604,81.602L53.503,80.952L53.805,81.285L58.470,84.448L61.033,85.354L62.329,86.040L63.457,87.070L66.238,84.755L70.606,83.803L75.371,84.063L79.309,85.322L79.309,86.196ZM62.092,10.578L61.221,10.940L62.526,12.680L61.726,15.650L57.808,13.548L51.712,14.127L49.898,12.461L51.712,9.709L53.744,8.837L55.922,8.185L55.415,7.243L56.504,6.663L60.569,7.751L62.529,8.114L64.344,8.912L66.522,10.073L67.029,11.378L65.358,11.667L62.092,10.578ZM41.344,14.204L40.468,15.506L36.619,14.059L35.237,13.189L34.146,11.016L33.637,12.175L32.474,11.379L29.859,11.888L27.968,11.527L26.512,9.933L22.659,11.096L20.691,9.212L24.293,7.302L27.360,6.506L31.816,6.668L33.642,7.977L34.732,7.614L32.758,6.087L31.812,5.000L34.429,5.797L38.937,8.405L43.369,10.942L45.181,13.837L43.803,14.055L42.721,13.696L41.344,14.204Z" fill="currentColor" stroke="currentColor" stroke-width="1" stroke-linejoin="round"/>
</svg>