<svg xmlns="http://www.w3.org/2000/svg" viewBox="0 0 100 100" role="img" aria-label="Vietnam">
  <title>Vietnam</title>
  <path d="M60.084,57.670L60.095,57.584L60.050,57.526L59.991,57.477L59.953,57.418L60.019,57.341L59.990,57.253L59.931,57.158L59.911,57.064L59.958,56.982L60.202,56.744L60.288,56.626L60.305,56.562L60.255,56.510L59.903,56.237L59.811,56.188L59.742,56.136L59.695,56.069L59.672,55.989L59.681,55.898L59.641,55.802L59.646,55.719L59.702,55.666L59.811,55.656L59.979,55.606L60.076,55.577L60.171,55.567L60.331,55.595L60.421,55.586L60.485,55.520L60.491,55.455L60.437,55.345L60.435,55.285L60.462,55.239L60.545,55.176L60.581,55.140L60.642,55.050L60.674,54.934L60.687,54.735L60.709,54.679L60.764,54.627L60.798,54.642L60.827,54.672L60.865,54.660L60.881,54.623L60.926,54.334L60.924,54.241L60.886,54.156L60.801,54.062L60.540,53.863L60.471,53.786L60.432,53.677L60.419,53.444L60.411,53.423L60.392,53.373L60.290,53.345L60.039,53.384L59.929,53.319L59.904,53.211L59.907,53.067L59.891,52.946L59.811,52.905L59.769,52.928L59.736,52.928L59.710,52.904L59.692,52.858L59.660,52.784L59.631,52.777L59.602,52.799L59.568,52.810L59.452,52.780L59.410,52.781L59.351,52.824L59.314,52.879L59.273,52.903L59.201,52.857L58.891,52.294L58.816,52.227L58.593,52.112L58.496,52.036L58.439,51.951L58.413,51.855L58.386,51.602L58.361,51.515L58.300,51.450L57.978,51.260L57.911,51.170L57.920,51.044L58.066,50.714L58.130,50.648L58.203,50.631L58.262,50.649L58.317,50.676L58.370,50.685L58.419,50.671L58.825,50.406L58.930,50.365L59.152,50.326L59.237,50.285L59.325,50.183L59.485,49.893L59.571,49.818L59.642,49.732L59.635,49.678L59.595,49.629L59.568,49.560L59.575,49.456L59.575,49.444L59.588,49.374L59.562,49.345L59.447,49.348L59.122,49.432L58.952,49.452L58.789,49.402L58.655,49.282L58.438,49.003L58.286,48.901L58.194,48.875L58.113,48.861L58.033,48.839L57.944,48.783L57.872,48.717L57.837,48.669L57.821,48.648L57.787,48.571L57.725,48.245L57.675,48.166L57.562,48.084L57.454,48.029L57.439,48.024L57.354,47.998L57.125,47.972L56.926,47.979L56.850,47.969L56.788,47.926L56.773,47.884L56.753,47.748L56.726,47.688L56.688,47.654L56.545,47.575L56.444,47.491L56.389,47.416L56.318,47.251L56.298,47.255L56.261,47.275L56.222,47.289L56.199,47.271L56.199,47.237L56.213,47.211L56.231,47.191L56.238,47.175L56.263,46.972L56.247,46.728L56.145,46.570L56.006,46.564L55.881,46.776L55.857,46.877L55.791,46.940L55.633,47.041L55.607,47.091L55.606,47.138L55.595,47.184L55.589,47.189L55.536,47.230L55.478,47.254L55.438,47.256L55.420,47.229L55.420,47.163L55.246,47.191L55.116,47.090L55.026,46.930L54.944,46.689L54.935,46.620L54.962,46.294L54.938,46.226L54.849,46.184L54.771,46.177L54.653,46.129L54.542,46.062L54.409,45.914L54.356,45.785L54.324,45.636L54.315,44.012L54.314,43.878L54.262,43.777L54.100,43.931L53.965,43.890L53.864,43.873L53.751,43.831L53.652,43.781L53.600,43.738L53.600,43.737L53.585,43.679L53.557,43.623L53.459,43.425L53.463,43.398L53.501,43.334L53.504,43.299L53.444,43.193L53.163,42.930L52.986,42.639L52.954,42.547L52.959,42.484L53.006,42.387L53.011,42.331L52.990,42.295L52.909,42.211L52.879,42.169L52.866,42.095L52.871,42.030L52.859,41.980L52.789,41.949L52.715,41.953L52.685,41.990L52.671,42.043L52.645,42.093L52.560,42.180L52.492,42.223L52.407,42.214L52.279,42.147L51.308,41.313L50.800,40.698L50.799,40.698L50.676,40.569L50.295,40.076L50.142,39.932L49.953,39.808L49.648,39.674L49.576,39.617L49.522,39.520L49.449,39.288L49.395,39.187L49.265,39.011L49.114,38.725L48.887,38.517L48.823,38.312L48.892,37.849L48.877,37.819L48.797,37.658L48.797,37.657L48.659,37.581L48.619,37.538L48.597,37.478L48.576,37.340L48.544,37.273L48.495,37.225L48.393,37.170L48.345,37.128L48.249,36.913L48.225,36.895L48.159,36.879L48.132,36.857L48.137,36.843L48.150,36.819L48.162,36.788L48.160,36.751L48.113,36.585L48.078,36.531L47.988,36.459L47.871,36.412L47.746,36.404L47.641,36.450L47.606,36.507L47.580,36.641L47.556,36.685L47.502,36.719L47.486,36.713L47.473,36.687L47.430,36.666L47.337,36.642L47.231,36.597L47.136,36.530L47.074,36.442L47.070,36.373L47.108,36.227L47.099,36.159L47.059,36.094L47.033,36.090L47.004,36.110L46.851,36.126L46.790,36.133L46.728,36.114L46.689,36.079L46.638,35.985L46.605,35.942L46.321,35.766L46.265,35.686L46.261,35.560L46.298,35.479L46.301,35.406L46.199,35.301L46.015,35.168L45.880,35.038L45.817,34.868L45.847,34.617L45.937,34.280L46.013,34.099L46.098,33.989L46.170,33.980L46.238,34.002L46.297,33.994L46.340,33.892L46.340,33.871L46.340,33.797L46.301,33.746L46.174,33.660L46.008,33.385L45.935,33.362L45.867,33.371L45.799,33.390L45.727,33.395L45.585,33.344L45.292,33.174L45.196,33.155L45.097,33.182L44.982,33.185L44.880,33.158L44.818,33.097L44.761,32.945L44.606,32.901L44.270,32.927L44.189,32.918L43.963,32.849L43.724,32.815L43.655,32.790L43.610,32.752L43.542,32.649L43.511,32.616L43.453,32.595L43.340,32.586L43.281,32.569L43.193,32.509L43.034,32.349L42.950,32.286L42.754,32.180L42.685,32.117L42.484,31.816L42.412,31.745L42.315,31.686L42.205,31.657L42.023,31.676L41.919,31.653L41.846,31.597L41.678,31.346L41.579,31.259L41.486,31.215L41.385,31.183L41.273,31.133L41.182,31.061L41.107,30.982L41.022,30.918L41.021,30.917L40.903,30.888L40.734,30.938L40.683,30.887L40.682,30.778L40.661,30.657L40.601,30.598L40.367,30.438L39.718,30.150L39.597,30.122L39.475,30.128L39.351,30.180L39.344,30.180L39.170,30.057L39.023,29.981L38.982,29.951L38.953,29.908L38.875,29.763L38.782,29.752L38.676,29.755L38.617,29.727L38.665,29.622L38.743,29.563L38.953,29.472L39.043,29.405L39.158,29.232L39.227,29.173L39.351,29.144L39.483,29.076L39.622,29.027L39.708,29.017L39.727,29.040L39.730,29.037L39.775,28.951L39.795,28.890L39.819,28.750L39.857,28.685L39.915,28.650L39.978,28.636L40.029,28.609L40.053,28.537L40.052,28.537L39.985,28.453L39.966,28.354L39.959,28.249L39.921,28.150L39.855,28.096L39.672,27.987L39.604,27.899L39.489,27.583L39.475,27.507L39.509,27.411L39.563,27.388L39.630,27.407L39.910,27.549L40.022,27.586L40.141,27.568L40.188,27.531L40.231,27.440L40.270,27.401L40.300,27.370L40.428,27.368L40.673,27.302L40.841,27.257L40.918,27.323L41.122,27.392L41.229,27.568L41.502,27.397L41.608,27.370L41.725,27.383L41.793,27.435L41.849,27.510L41.931,27.593L41.980,27.624L42.128,27.688L42.460,27.885L42.559,27.906L42.696,27.890L42.747,27.869L42.837,27.809L42.889,27.792L42.939,27.805L43.040,27.863L43.094,27.857L43.145,27.792L43.331,27.306L43.379,27.226L43.455,27.144L43.547,27.078L43.620,27.059L43.699,27.049L43.810,27.016L43.950,26.889L44.093,26.826L44.209,26.741L44.268,26.550L44.279,26.449L44.277,26.393L44.234,26.359L44.123,26.323L43.950,26.312L43.920,26.278L43.957,26.166L44.067,26.029L44.386,25.841L44.518,25.742L44.573,25.657L44.583,25.605L44.612,25.575L44.723,25.558L44.896,25.578L44.973,25.566L45.032,25.516L45.054,25.497L45.076,25.413L45.065,25.339L45.047,25.265L45.036,25.152L45.020,25.099L45.021,25.062L45.042,25.047L45.122,25.031L45.141,25.007L45.097,24.911L44.872,24.766L44.793,24.651L44.785,24.514L44.817,24.449L44.811,24.403L44.292,24.126L44.056,24.138L43.792,24.225L43.542,24.274L43.344,24.176L43.321,24.097L43.315,23.973L43.324,23.849L43.346,23.769L43.396,23.732L43.444,23.735L43.489,23.722L43.529,23.639L43.533,23.585L43.523,23.513L43.505,23.444L43.484,23.396L43.399,23.331L43.177,23.245L43.083,23.179L42.948,22.996L42.867,22.952L42.031,22.970L41.792,22.912L41.606,22.796L41.645,22.682L41.980,22.457L41.980,22.457L42.104,22.219L42.249,22.331L42.402,22.357L42.547,22.312L42.675,22.212L43.053,21.705L43.093,21.562L43.099,21.538L43.015,21.453L42.683,21.342L42.381,21.200L42.284,21.102L42.228,20.911L42.149,20.826L42.029,20.813L41.896,20.817L41.777,20.781L41.734,20.737L41.686,20.631L41.654,20.586L41.609,20.556L41.518,20.522L41.469,20.489L41.393,20.399L41.299,20.212L41.229,20.120L41.186,20.084L41.134,20.048L41.076,20.020L41.023,20.003L40.968,20.007L40.836,20.044L40.795,20.046L40.775,20.015L40.714,19.890L40.680,19.842L40.636,19.815L40.470,19.755L40.408,19.746L40.275,19.744L40.220,19.734L40.171,19.711L40.083,19.646L40.042,19.625L39.834,19.639L39.565,19.948L39.351,19.983L39.283,19.980L39.223,19.995L39.106,20.047L38.676,20.182L38.629,20.211L38.543,20.287L38.490,20.315L38.431,20.320L38.313,20.304L38.248,20.325L38.191,20.393L38.130,20.506L38.081,20.629L38.059,20.727L38.072,20.852L38.092,20.911L38.068,20.952L37.950,21.025L37.878,21.050L37.828,21.056L37.791,21.080L37.763,21.160L37.770,21.218L37.829,21.336L37.832,21.385L37.799,21.415L37.735,21.447L37.664,21.471L37.611,21.477L37.547,21.467L37.522,21.452L37.503,21.428L37.375,21.318L37.149,21.077L37.035,21.013L36.674,20.937L36.674,20.936L36.615,20.934L36.564,20.919L36.518,20.894L36.472,20.861L36.409,20.782L36.303,20.579L36.232,20.509L36.151,20.479L36.120,20.495L36.102,20.533L36.061,20.571L35.942,20.637L35.931,20.640L35.783,20.680L35.751,20.680L35.689,20.671L35.526,20.618L35.196,20.445L35.101,20.418L35.049,20.423L34.977,20.444L34.935,20.457L34.866,20.456L34.809,20.436L34.730,20.380L34.681,20.354L34.622,20.339L34.516,20.325L34.454,20.298L34.417,20.271L34.331,20.189L34.164,19.985L34.055,19.807L33.874,19.416L33.742,19.142L33.652,19.040L33.505,18.977L33.420,18.989L33.374,18.969L33.346,18.927L33.319,18.873L33.278,18.766L33.223,18.534L33.222,18.527L33.156,18.426L33.096,18.390L33.048,18.388L33.008,18.377L32.973,18.316L32.973,18.257L33.024,18.136L33.031,18.081L33.001,18.009L32.944,17.944L32.868,17.892L32.781,17.858L32.652,17.854L32.541,17.865L32.495,17.839L32.562,17.723L32.658,17.650L32.856,17.602L32.927,17.532L32.948,17.430L32.953,17.152L32.977,17.027L33.170,16.722L33.177,16.652L33.096,16.636L32.983,16.689L32.866,16.761L32.778,16.802L33.043,16.377L33.169,16.266L33.388,16.000L33.505,15.890L33.510,15.873L33.512,15.856L33.510,15.838L33.505,15.821L33.447,15.688L33.428,15.541L33.433,15.123L33.422,15.053L33.400,14.987L33.351,14.907L33.321,14.895L33.288,14.919L32.864,15.098L32.763,15.105L32.693,15.032L32.674,14.915L32.692,14.672L32.642,14.395L32.527,14.305L32.424,14.401L32.409,14.890L32.339,15.084L32.208,15.248L32.026,15.365L31.963,15.380L31.654,15.385L31.631,15.398L31.614,15.389L31.571,15.327L31.533,15.232L31.505,15.094L31.492,14.955L31.520,14.599L31.465,14.350L31.266,13.908L31.086,13.761L30.826,13.678L30.605,13.566L30.537,13.336L30.542,13.313L30.553,13.291L30.565,13.272L30.582,13.254L30.633,13.178L30.544,13.101L30.398,13.020L30.278,12.930L30.238,12.861L30.181,12.710L30.142,12.646L30.087,12.596L29.904,12.489L29.485,12.092L29.133,11.919L29.020,11.816L28.983,11.694L28.899,11.615L28.798,11.547L28.713,11.455L28.704,11.418L28.723,11.346L28.723,11.313L28.704,11.286L28.653,11.249L28.637,11.227L28.578,11.035L28.544,10.975L28.504,10.891L28.564,10.810L28.670,10.748L28.772,10.721L28.901,10.748L29.000,10.800L29.085,10.811L29.163,10.716L29.194,10.612L29.228,10.406L29.287,10.295L30.014,9.565L30.057,9.484L30.046,9.472L30.024,9.422L29.989,9.381L29.935,9.347L29.893,9.302L29.891,9.234L29.931,9.189L29.992,9.183L30.059,9.187L30.119,9.170L30.191,9.091L30.238,8.992L30.299,8.777L30.299,8.776L30.399,8.655L30.545,8.634L30.700,8.684L30.826,8.777L30.887,8.894L30.903,9.004L30.943,9.077L31.075,9.082L31.118,9.054L31.145,9.008L31.179,8.968L31.240,8.954L31.267,8.975L31.354,9.072L31.391,9.103L31.507,9.143L31.740,9.183L31.860,9.231L32.206,9.506L32.319,9.551L32.566,9.607L32.674,9.661L32.751,9.749L32.798,9.851L32.834,9.960L33.035,10.344L33.087,10.406L33.187,10.455L33.403,10.513L33.593,10.647L33.709,10.691L33.826,10.692L33.920,10.629L33.944,10.530L33.919,10.432L33.915,10.350L33.997,10.295L34.092,10.279L34.190,10.237L34.487,10.038L34.509,9.991L34.503,9.928L34.432,9.843L34.417,9.794L34.485,9.617L34.642,9.499L34.992,9.320L35.088,9.242L35.133,9.182L35.235,8.910L35.467,8.517L35.537,8.502L35.669,8.547L35.744,8.589L35.812,8.643L35.872,8.706L35.922,8.777L36.005,8.821L36.019,8.906L36.009,9.012L36.020,9.120L36.059,9.205L36.273,9.549L36.423,9.710L36.495,9.756L36.601,9.773L36.663,9.736L36.850,9.468L36.877,9.412L36.872,9.364L36.840,9.106L36.855,9.047L36.979,8.900L37.029,8.803L37.062,8.712L37.106,8.638L37.187,8.589L37.439,8.449L37.506,8.485L37.903,8.952L38.300,9.298L38.365,9.371L38.390,9.424L38.507,9.604L38.546,9.643L38.592,9.664L38.724,9.809L38.758,9.820L38.852,9.831L38.887,9.847L38.935,9.911L39.018,10.065L39.067,10.096L39.156,10.118L39.216,10.168L39.266,10.224L39.351,10.175L39.417,10.103L39.429,10.023L39.419,9.936L39.419,9.840L39.445,9.749L39.523,9.569L39.547,9.476L39.584,9.106L39.642,8.935L39.764,8.777L39.819,8.725L39.889,8.601L39.931,8.549L40.011,8.495L40.082,8.476L40.252,8.463L40.750,8.291L40.913,8.295L40.866,8.414L40.840,8.544L40.846,8.675L40.887,8.796L40.961,8.879L41.283,9.023L41.404,9.097L41.492,9.134L41.581,9.121L41.619,9.097L42.128,8.777L42.243,8.657L42.621,8.356L42.725,8.244L42.739,8.224L42.791,8.234L42.792,8.262L42.784,8.295L42.804,8.322L42.838,8.345L42.861,8.369L42.889,8.389L42.943,8.402L42.977,8.389L43.037,8.321L43.068,8.304L43.180,8.317L43.377,8.377L43.497,8.369L43.600,8.332L43.685,8.279L43.760,8.206L43.963,7.928L44.029,7.858L44.318,7.689L44.343,7.628L44.338,7.505L44.168,6.707L44.247,6.642L44.390,6.621L44.538,6.500L44.563,6.416L44.570,6.318L44.589,6.233L44.653,6.183L44.734,6.191L44.887,6.280L44.970,6.289L45.029,6.255L45.241,6.070L45.441,5.970L45.622,5.848L45.706,5.814L46.182,5.684L46.202,5.666L46.213,5.641L46.228,5.617L46.259,5.605L46.275,5.611L46.318,5.643L46.337,5.650L46.382,5.660L46.416,5.680L46.457,5.694L46.524,5.683L46.621,5.614L46.658,5.514L46.680,5.399L46.728,5.283L46.785,5.219L46.986,5.046L47.066,5.000L47.174,5.003L47.220,5.073L47.245,5.180L47.292,5.294L47.360,5.378L47.452,5.454L47.546,5.515L47.626,5.552L47.682,5.556L47.727,5.540L47.772,5.534L47.839,5.566L47.868,5.599L47.945,5.737L48.064,5.975L48.119,6.045L48.373,6.207L48.397,6.235L48.437,6.282L48.476,6.399L48.478,6.625L48.479,6.655L48.504,6.768L48.574,6.864L48.658,6.898L49.072,6.915L49.237,6.963L49.385,6.960L49.446,6.997L49.556,7.108L49.626,7.141L49.694,7.162L49.761,7.193L49.826,7.255L49.826,7.256L49.827,7.257L49.828,7.257L49.905,7.372L50.235,7.731L50.341,7.807L50.390,7.788L50.415,7.744L50.436,7.695L50.470,7.663L50.533,7.654L50.632,7.680L50.688,7.687L50.873,7.667L50.969,7.638L51.043,7.593L51.137,7.406L51.191,7.377L51.649,7.343L51.968,7.379L52.189,7.434L52.379,7.550L52.499,7.760L52.523,7.984L52.563,8.055L52.688,8.111L52.812,8.133L52.928,8.133L53.041,8.116L53.873,7.902L53.965,7.853L53.990,7.716L54.047,7.681L54.125,7.703L54.217,7.742L54.510,7.812L54.596,7.864L54.655,7.952L54.698,8.048L54.764,8.122L54.895,8.142L54.936,8.119L54.983,8.036L55.035,8.018L55.098,8.033L55.138,8.070L55.201,8.150L55.375,8.285L55.469,8.443L55.465,8.458L55.551,8.461L55.688,8.448L55.813,8.461L55.865,8.538L55.823,8.613L55.630,8.722L55.560,8.782L55.519,8.889L55.495,9.079L55.443,9.190L55.317,9.379L55.274,9.472L55.172,9.785L55.100,9.847L54.974,9.849L54.879,9.780L54.817,9.676L54.748,9.599L54.633,9.612L54.569,9.688L54.520,9.814L54.387,10.435L54.360,10.485L54.296,10.576L54.276,10.643L54.276,10.707L54.312,10.855L54.320,10.891L54.332,11.116L54.363,11.210L54.442,11.289L54.571,11.334L54.804,11.345L54.901,11.426L54.935,11.504L55.071,11.950L55.057,12.010L55.006,12.058L54.935,12.147L54.951,12.237L54.988,12.304L55.031,12.365L55.062,12.435L55.062,12.479L55.044,12.578L55.046,12.627L55.062,12.660L55.113,12.720L55.125,12.746L55.130,12.906L55.100,13.048L54.985,13.335L54.985,13.387L54.993,13.444L55.014,13.497L55.048,13.534L55.139,13.538L55.228,13.473L55.418,13.266L55.456,13.257L55.536,13.284L55.570,13.308L55.616,13.372L55.644,13.399L55.764,13.460L55.867,13.475L56.109,13.469L56.251,13.502L56.322,13.568L56.372,13.653L56.450,13.747L56.576,13.813L56.678,13.794L56.771,13.740L56.873,13.698L56.994,13.701L57.096,13.749L57.160,13.838L57.165,13.963L57.111,14.065L57.027,14.154L56.966,14.252L56.978,14.377L57.059,14.460L57.180,14.499L57.427,14.550L57.596,14.652L58.049,15.041L58.282,15.100L58.467,15.040L58.636,15.021L58.814,15.201L58.969,15.643L58.992,15.664L59.077,15.744L59.280,15.626L59.438,15.464L59.532,15.424L59.649,15.455L59.714,15.549L59.737,15.763L59.811,15.798L59.913,15.837L59.972,15.853L60.022,15.851L60.072,15.817L60.120,15.720L60.158,15.688L60.263,15.675L60.507,15.706L60.626,15.706L60.969,15.633L61.077,15.590L61.306,15.424L61.396,15.390L61.485,15.386L61.589,15.400L61.787,15.450L61.908,15.501L61.952,15.559L61.978,15.634L62.043,15.738L62.114,15.806L62.281,15.926L62.484,16.140L62.562,16.161L62.836,16.436L62.712,16.496L62.587,16.622L62.477,16.697L62.397,16.601L62.398,16.542L62.427,16.502L62.461,16.474L62.477,16.453L62.470,16.406L62.455,16.373L62.440,16.349L62.433,16.330L62.413,16.242L62.360,16.187L62.284,16.157L62.198,16.141L62.208,16.186L62.202,16.211L62.158,16.266L62.119,16.266L62.086,16.165L62.046,16.221L61.999,16.390L61.929,16.419L61.887,16.379L61.870,16.294L61.874,16.186L61.839,16.186L61.795,16.224L61.795,16.266L61.820,16.292L61.829,16.310L61.839,16.390L61.795,16.390L61.759,16.307L61.719,16.352L61.697,16.230L61.622,16.201L61.525,16.226L61.439,16.266L61.439,16.307L61.533,16.306L61.604,16.330L61.652,16.382L61.675,16.469L61.595,16.436L61.608,16.475L61.625,16.562L61.639,16.601L61.576,16.600L61.529,16.618L61.495,16.648L61.476,16.685L61.515,16.722L61.418,16.888L61.311,16.885L61.259,16.890L61.236,16.911L61.201,16.963L61.123,16.966L61.041,16.937L60.997,16.888L60.953,16.888L60.935,16.915L60.917,16.934L60.917,16.972L60.955,17.045L60.920,17.090L60.843,17.097L60.754,17.058L60.767,17.092L60.767,17.106L60.770,17.116L60.797,17.137L60.797,17.183L60.749,17.208L60.732,17.233L60.747,17.265L60.797,17.308L60.758,17.313L60.674,17.349L60.697,17.360L60.706,17.359L60.708,17.363L60.717,17.390L60.690,17.378L60.597,17.349L60.570,17.501L60.545,17.572L60.494,17.602L60.396,17.597L60.329,17.577L60.281,17.537L60.239,17.473L60.214,17.403L60.201,17.337L60.170,17.289L60.095,17.269L60.093,17.295L60.117,17.355L60.133,17.423L60.112,17.473L60.112,17.519L60.184,17.553L60.120,17.572L59.991,17.574L59.872,17.556L59.858,17.556L59.802,17.542L59.741,17.508L59.712,17.453L59.678,17.440L59.469,17.390L59.433,17.473L59.474,17.513L59.632,17.602L59.632,17.640L59.518,17.689L59.331,17.684L59.190,17.726L59.190,17.768L59.224,17.814L59.210,17.848L59.174,17.883L59.150,17.934L59.140,18.154L59.113,18.225L59.158,18.260L59.209,18.284L59.261,18.288L59.312,18.266L59.277,18.539L59.237,18.683L59.150,18.768L59.183,18.820L59.190,18.854L59.167,18.876L59.113,18.889L59.136,18.979L59.148,19.070L59.172,19.143L59.230,19.183L59.230,19.221L59.133,19.296L59.075,19.328L58.993,19.353L58.860,19.357L58.751,19.361L58.676,19.391L58.599,19.363L58.476,19.370L58.352,19.400L58.276,19.436L58.306,19.448L58.325,19.460L58.350,19.470L58.393,19.474L58.393,19.515L58.298,19.539L58.172,19.676L58.193,19.768L58.105,19.773L58.041,19.793L57.982,19.800L57.914,19.768L57.914,19.810L57.824,19.724L57.538,19.684L57.428,19.640L57.428,19.602L57.598,19.386L57.914,19.183L57.914,19.142L57.837,19.147L57.761,19.162L57.692,19.188L57.634,19.221L57.608,19.261L57.599,19.303L57.582,19.339L57.531,19.353L57.508,19.333L57.515,19.290L57.537,19.245L57.551,19.221L57.525,19.205L57.523,19.200L57.511,19.183L57.464,19.285L57.411,19.332L57.378,19.305L57.391,19.183L57.351,19.183L57.354,19.249L57.348,19.306L57.335,19.353L57.311,19.391L57.316,19.304L57.302,19.236L57.263,19.193L57.191,19.183L57.191,19.221L57.212,19.239L57.244,19.281L57.271,19.308L57.253,19.310L57.191,19.308L57.271,19.391L57.189,19.390L57.133,19.362L57.029,19.266L57.015,19.350L57.163,19.472L57.191,19.557L57.140,19.646L57.047,19.686L56.937,19.693L56.829,19.685L56.731,19.667L56.643,19.636L56.569,19.597L56.509,19.557L56.367,19.430L56.301,19.406L56.267,19.474L56.244,19.440L56.224,19.431L56.187,19.436L56.357,19.629L56.429,19.685L56.553,19.747L56.586,19.768L56.610,19.809L56.622,19.859L56.646,19.905L56.709,19.934L56.709,19.976L56.558,19.972L56.467,19.949L56.407,19.887L56.349,19.768L56.307,19.768L56.314,19.822L56.331,19.868L56.354,19.905L56.386,19.934L56.269,20.102L56.222,20.061L56.178,19.936L56.067,19.851L56.087,19.820L56.080,19.811L56.067,19.768L56.027,19.768L55.907,19.802L55.774,19.738L55.711,19.648L55.807,19.602L55.913,19.596L55.971,19.574L55.993,19.535L55.987,19.474L55.947,19.446L55.886,19.418L55.865,19.377L55.944,19.308L55.905,19.268L55.861,19.238L55.810,19.221L55.747,19.221L55.760,19.242L55.774,19.287L55.787,19.308L55.652,19.296L55.557,19.239L55.468,19.207L55.348,19.266L55.348,19.308L55.392,19.308L55.392,19.353L55.173,19.264L55.046,19.238L54.949,19.266L55.000,19.279L55.011,19.282L55.188,19.353L55.188,19.391L55.149,19.377L55.029,19.353L55.029,19.391L55.086,19.446L55.107,19.511L55.119,19.577L55.149,19.640L55.210,19.676L55.357,19.683L55.485,19.740L55.557,19.740L55.610,19.763L55.631,19.870L55.619,19.949L55.564,20.029L55.548,20.100L55.512,20.100L55.392,19.976L55.287,20.102L55.332,20.175L55.445,20.232L55.548,20.308L55.597,20.448L55.575,20.579L55.502,20.635L55.392,20.557L55.432,20.666L55.513,20.789L55.613,20.902L55.711,20.976L55.747,20.931L55.807,21.027L55.907,21.350L55.786,21.260L55.733,21.206L55.711,21.165L55.680,21.131L55.613,21.157L55.550,21.201L55.530,21.225L55.479,21.234L55.437,21.251L55.387,21.266L55.312,21.267L55.145,21.221L55.069,21.225L55.069,21.267L55.215,21.327L55.305,21.386L55.306,21.458L55.188,21.557L55.110,21.599L55.019,21.634L54.923,21.650L54.825,21.640L54.775,21.605L54.692,21.486L54.626,21.436L54.660,21.529L54.666,21.537L54.699,21.588L54.786,21.686L54.816,21.708L54.844,21.707L54.862,21.720L54.869,21.786L54.864,21.821L54.848,21.854L54.828,21.880L54.731,21.916L54.601,22.033L54.227,22.180L54.330,22.237L54.414,22.232L54.586,22.142L54.586,22.180L54.514,22.278L54.556,22.364L54.612,22.453L54.586,22.561L54.550,22.568L54.384,22.626L54.367,22.640L54.335,22.660L54.293,22.706L54.254,22.762L54.227,22.810L54.263,22.810L54.341,22.756L54.479,22.702L54.611,22.686L54.669,22.744L54.648,23.009L54.610,23.148L54.546,23.229L54.516,23.171L54.507,23.142L54.509,23.166L54.502,23.181L54.489,23.186L54.467,23.184L54.572,23.287L54.585,23.340L54.608,23.414L54.618,23.510L54.636,23.625L54.660,23.795L54.596,23.863L54.467,23.727L54.411,23.652L54.335,23.590L54.245,23.564L54.144,23.595L54.107,23.595L54.136,23.642L54.147,23.661L54.194,23.679L54.238,23.655L54.263,23.595L54.402,23.697L54.427,23.727L54.446,23.781L54.506,23.882L54.541,23.970L54.525,24.059L54.436,24.104L54.358,24.095L54.290,24.117L54.147,24.150L53.961,24.161L53.886,24.181L53.505,24.226L53.505,24.181L53.545,24.181L53.545,24.143L53.503,24.147L53.476,24.154L53.421,24.181L53.421,24.226L53.463,24.269L53.423,24.302L53.301,24.350L53.261,24.394L53.185,24.558L52.981,24.809L52.854,24.894L52.711,25.097L52.576,25.178L52.434,25.341L52.347,25.392L52.402,25.257L52.427,25.226L52.384,25.181L52.341,25.266L52.272,25.448L52.224,25.516L52.136,25.566L51.920,25.622L51.821,25.682L51.788,25.591L51.806,25.494L51.843,25.388L51.865,25.267L51.821,25.267L51.803,25.365L51.715,25.629L51.684,25.682L51.598,25.661L51.504,25.608L51.424,25.540L51.382,25.475L51.342,25.475L51.311,25.555L51.244,25.631L50.987,25.863L50.936,25.923L50.900,26.015L50.900,26.073L50.941,26.168L50.943,26.226L50.820,26.392L50.799,26.482L50.800,26.653L50.780,26.724L50.761,26.701L50.700,26.641L50.663,26.705L50.580,26.763L50.420,26.849L50.457,26.894L50.535,26.858L50.702,26.841L50.780,26.807L50.747,26.888L50.643,27.028L50.620,27.122L50.583,27.164L50.500,27.159L50.418,27.166L50.380,27.245L50.353,27.345L50.222,27.548L50.178,27.645L50.167,27.740L50.166,27.908L50.137,27.977L50.129,27.841L50.049,27.823L49.973,27.881L49.978,27.977L50.001,27.935L50.044,27.884L50.058,27.849L50.088,27.904L50.103,27.964L50.106,28.029L50.112,28.058L50.137,28.061L50.139,28.287L50.074,28.749L50.101,28.977L50.018,28.932L49.938,29.098L49.858,29.060L49.858,29.098L49.924,29.152L49.949,29.221L49.978,29.392L50.085,29.596L50.101,29.683L49.978,29.600L49.992,29.660L50.018,29.728L50.061,29.713L50.089,29.728L50.077,29.847L50.063,29.882L50.058,29.895L50.012,29.925L49.959,29.928L49.915,29.940L49.864,30.115L49.789,30.119L49.709,30.108L49.695,30.140L49.624,30.515L49.616,30.736L49.658,30.891L49.510,30.963L49.453,31.000L49.416,31.057L49.256,31.006L49.113,31.153L49.002,31.377L48.940,31.559L48.935,31.638L48.966,31.695L48.980,31.746L48.987,31.827L49.030,32.023L49.060,32.099L49.139,32.203L49.266,32.311L49.409,32.397L49.539,32.435L49.539,32.473L49.458,32.559L49.434,32.505L49.400,32.465L49.353,32.441L49.296,32.435L49.358,32.576L49.376,32.605L49.414,32.616L49.515,32.607L49.559,32.623L49.681,32.757L49.745,32.850L49.778,32.937L49.691,33.187L49.717,33.227L49.770,33.278L49.779,33.393L49.761,33.519L49.738,33.601L49.851,33.548L49.850,33.405L49.832,33.037L49.818,33.016L49.929,33.087L49.966,33.261L49.973,33.437L49.998,33.518L50.038,33.585L50.178,34.020L50.489,34.524L50.700,34.754L50.900,34.767L50.916,34.880L50.955,35.001L51.007,35.109L51.063,35.186L51.198,35.288L51.242,35.330L51.463,35.611L51.769,35.868L51.839,35.956L51.851,36.033L51.742,36.058L51.799,36.102L51.898,36.082L52.024,36.039L52.165,36.016L52.254,36.052L52.561,36.288L52.602,36.311L52.728,36.358L52.779,36.390L52.942,36.602L53.138,36.748L53.218,36.824L53.265,36.934L53.222,36.934L53.165,36.897L53.090,36.913L53.022,36.961L52.986,37.020L53.062,37.058L53.088,37.039L53.109,37.031L53.185,37.020L53.151,37.092L53.162,37.151L53.222,37.270L53.224,37.194L53.241,37.123L53.268,37.062L53.301,37.020L53.363,36.989L53.401,37.002L53.441,37.024L53.505,37.020L53.554,36.986L53.665,36.851L53.737,36.880L53.729,36.942L53.665,37.058L53.696,37.188L53.762,37.315L54.227,37.893L54.263,37.938L54.263,37.975L54.142,38.053L54.027,38.145L53.968,38.222L53.920,38.299L53.856,38.350L53.745,38.349L53.745,38.394L53.809,38.409L53.832,38.448L53.823,38.503L53.785,38.564L53.837,38.676L53.889,38.851L53.943,39.162L53.973,39.230L54.091,39.346L54.107,39.391L54.057,39.440L53.993,39.434L53.819,39.358L53.742,39.216L53.685,39.183L53.596,39.170L53.385,39.058L52.988,39.018L52.902,38.980L52.862,39.017L52.946,39.077L53.082,39.130L53.224,39.168L53.421,39.192L53.705,39.266L53.705,39.311L53.665,39.311L53.549,39.264L53.435,39.339L53.415,39.463L53.585,39.560L53.551,39.487L53.535,39.461L53.505,39.436L53.636,39.377L53.826,39.403L54.015,39.477L54.144,39.560L54.206,39.638L54.347,39.896L54.504,40.075L54.789,40.558L54.855,40.753L54.905,40.852L54.928,40.861L55.043,40.953L55.049,40.976L55.075,40.992L55.149,41.100L55.661,41.672L56.730,42.463L57.085,42.726L57.695,43.175L57.785,43.349L57.751,43.599L57.817,43.652L58.132,44.111L58.215,44.160L58.233,44.203L58.215,44.233L58.173,44.253L58.132,44.280L58.114,44.331L58.079,44.357L57.870,44.475L57.870,44.516L58.019,44.517L58.088,44.505L58.153,44.475L58.161,44.446L58.152,44.404L58.149,44.367L58.255,44.290L58.307,44.272L58.348,44.312L58.382,44.367L58.413,44.395L58.499,44.442L59.255,45.090L59.448,45.232L59.952,45.603L60.577,46.171L60.755,46.222L60.755,46.267L60.526,46.202L59.811,45.821L59.634,45.852L60.080,46.105L60.222,46.141L60.286,46.165L60.339,46.249L60.401,46.266L60.469,46.256L60.516,46.222L60.558,46.287L60.614,46.331L60.755,46.392L60.755,46.437L60.693,46.405L60.676,46.392L60.635,46.392L60.622,46.413L60.613,46.432L60.598,46.479L60.684,46.482L60.764,46.473L60.918,46.437L60.882,46.476L60.857,46.517L60.840,46.564L60.835,46.622L60.857,46.616L60.899,46.673L60.931,46.741L60.918,46.769L60.975,46.769L61.005,46.744L61.027,46.705L61.056,46.664L61.117,46.630L61.152,46.665L61.176,46.725L61.201,46.769L61.423,46.921L61.478,46.977L61.612,47.193L61.718,47.265L61.845,47.436L61.959,47.483L61.946,47.501L61.914,47.517L61.876,47.521L61.838,47.503L61.802,47.475L61.759,47.449L61.698,47.437L61.686,47.487L61.760,47.830L61.790,47.888L61.859,47.939L62.000,48.019L62.040,48.019L62.093,47.982L62.143,47.994L62.180,48.038L62.199,48.102L62.253,48.065L62.283,48.102L62.497,47.936L62.522,47.895L62.484,47.705L62.478,47.645L62.567,47.623L62.832,47.818L62.958,47.853L63.008,47.815L63.035,47.760L63.069,47.709L63.139,47.687L63.144,47.726L63.200,47.936L63.249,48.040L63.440,48.355L63.273,48.229L63.192,48.199L63.157,48.289L63.203,48.358L63.308,48.401L63.418,48.413L63.480,48.392L63.520,48.392L63.626,48.440L63.772,48.473L63.933,48.487L64.083,48.475L64.058,48.506L63.994,48.586L63.791,48.754L63.719,48.891L63.723,49.067L63.823,49.162L63.952,49.237L64.043,49.355L64.133,49.265L64.180,49.236L64.222,49.247L64.271,49.458L64.282,49.475L64.251,49.567L64.191,49.654L64.116,49.724L64.043,49.770L64.152,49.735L64.259,49.675L64.348,49.651L64.402,49.729L64.345,49.416L64.302,49.332L64.296,49.242L64.336,49.132L64.334,49.043L64.202,49.019L64.202,48.974L64.249,48.940L64.283,48.901L64.307,48.857L64.322,48.808L64.365,48.826L64.374,48.840L64.378,48.838L64.402,48.808L64.442,48.808L64.493,48.860L64.562,48.914L64.645,48.957L64.743,48.974L64.748,48.944L64.785,48.888L64.825,48.848L64.845,48.871L64.856,48.894L64.925,48.974L64.859,49.030L64.795,49.069L64.745,49.113L64.725,49.185L64.671,49.141L64.522,49.172L64.442,49.140L64.399,49.361L64.439,49.601L64.520,49.819L64.538,49.853L64.605,49.977L64.676,50.065L64.985,50.307L65.076,50.351L65.157,50.411L65.204,50.517L65.140,50.529L65.093,50.558L65.081,50.587L65.124,50.600L65.158,50.580L65.199,50.539L65.242,50.508L65.284,50.517L65.313,50.599L65.367,50.974L65.550,51.331L66.505,52.655L66.666,52.749L66.883,52.725L66.831,52.898L66.792,52.939L66.724,52.854L66.656,52.875L66.567,52.915L66.518,52.987L66.565,53.102L66.703,53.205L66.796,53.150L66.927,52.891L66.963,52.891L66.996,53.016L67.003,53.167L67.036,53.212L67.175,53.332L67.207,53.372L67.234,53.397L67.340,53.462L67.366,53.479L67.407,53.522L67.416,53.593L67.409,53.665L67.410,53.738L67.447,53.809L67.425,53.840L67.417,53.859L67.407,53.895L67.447,53.895L67.455,53.861L67.489,53.771L67.530,53.778L67.578,53.780L67.689,53.771L67.689,53.729L67.543,53.706L67.498,53.598L67.539,53.471L67.649,53.393L67.649,53.352L67.614,53.334L67.598,53.316L67.566,53.265L67.611,53.288L67.651,53.298L67.686,53.291L67.725,53.265L67.756,53.357L67.793,53.597L67.831,53.646L67.876,53.669L68.018,53.782L68.049,53.829L68.039,54.055L68.071,54.133L68.220,54.271L68.292,54.314L68.337,54.329L68.415,54.336L68.451,54.352L68.404,54.433L68.342,54.492L68.265,54.523L68.169,54.518L68.169,54.563L68.227,54.558L68.264,54.565L68.283,54.592L68.292,54.646L68.208,54.601L68.181,54.670L68.163,54.848L68.136,54.937L68.042,54.897L67.963,54.903L67.930,54.946L67.973,55.020L68.009,55.020L68.057,54.998L68.104,55.014L68.135,55.064L68.136,55.145L68.169,55.145L68.172,55.094L68.180,55.057L68.208,54.982L68.262,55.522L68.399,55.998L68.767,56.854L68.649,56.867L68.677,56.903L68.807,56.956L68.832,57.010L68.950,57.189L68.988,57.228L69.207,57.519L69.237,57.605L69.290,57.896L69.241,57.872L69.205,57.835L69.181,57.785L69.186,57.865L69.212,58.267L69.243,58.330L69.250,58.371L69.237,58.395L69.182,58.393L69.149,58.457L69.111,58.486L69.091,58.527L69.126,58.606L69.164,58.485L69.169,58.436L69.366,58.983L69.469,59.124L69.495,59.208L69.489,59.538L69.501,59.623L69.532,59.724L69.609,59.896L69.795,60.101L69.848,60.183L69.872,60.267L69.910,60.519L69.850,60.613L69.934,60.823L70.131,61.146L70.022,61.132L69.977,61.075L69.949,61.000L69.889,60.934L69.754,60.908L69.743,61.002L69.810,61.126L69.992,61.227L70.052,61.322L70.211,61.756L70.291,62.436L70.343,62.522L70.497,62.649L70.531,62.706L70.491,63.184L70.511,63.418L70.463,63.441L70.311,63.441L70.297,63.375L70.331,63.021L70.251,62.721L70.204,62.618L70.131,62.685L70.115,62.747L70.091,62.976L70.031,63.090L70.024,63.133L70.091,63.105L70.134,63.246L70.173,63.295L70.248,63.308L70.183,63.381L70.110,63.438L70.057,63.514L70.048,63.644L70.119,63.781L70.120,63.787L70.131,63.831L70.131,63.999L70.145,64.119L70.181,64.249L70.238,64.353L70.311,64.395L70.316,64.422L70.385,64.477L70.463,64.522L70.491,64.520L70.511,64.576L70.508,64.617L70.477,64.639L70.411,64.645L70.411,64.686L70.436,64.712L70.445,64.730L70.454,64.810L70.404,64.758L70.274,64.526L70.213,64.377L70.056,64.193L70.012,64.101L69.969,64.101L69.963,64.199L69.994,64.243L70.044,64.268L70.091,64.312L70.120,64.378L70.144,64.499L70.168,64.562L70.244,64.631L70.297,64.662L70.291,64.698L70.268,64.728L70.248,64.723L70.288,64.789L70.411,64.939L70.454,64.939L70.476,64.905L70.498,64.888L70.571,64.856L70.551,64.915L70.501,64.985L70.491,65.039L70.510,65.117L70.559,65.167L70.624,65.178L70.690,65.142L70.720,65.205L70.671,65.286L70.690,65.354L70.634,65.467L70.596,65.519L70.531,65.561L70.483,65.497L70.356,65.471L70.331,65.414L70.360,65.372L70.421,65.346L70.477,65.308L70.491,65.230L70.455,65.188L70.269,65.060L70.213,65.064L70.167,65.085L70.129,65.136L70.091,65.230L70.123,65.279L70.109,65.327L70.106,65.377L70.168,65.437L70.123,65.481L70.103,65.542L70.091,65.645L70.192,65.696L70.291,65.835L70.371,65.890L70.435,65.827L70.484,65.818L70.531,65.890L70.540,65.959L70.521,66.005L70.476,66.027L70.411,66.022L70.411,66.060L70.440,66.087L70.454,66.122L70.459,66.167L70.454,66.226L70.425,66.204L70.360,66.169L70.331,66.146L70.304,66.200L70.291,66.204L70.248,66.226L70.328,66.434L70.380,66.521L70.454,66.603L70.445,66.413L70.466,66.339L70.531,66.309L70.531,66.271L70.505,66.224L70.510,66.192L70.534,66.188L70.571,66.226L70.594,66.279L70.605,66.335L70.611,66.460L70.598,66.506L70.531,66.645L70.532,66.706L70.571,66.832L70.557,66.930L70.529,67.024L70.513,67.119L70.531,67.226L70.579,67.309L70.636,67.385L70.671,67.466L70.654,67.520L70.728,67.569L70.777,67.620L70.898,67.842L71.053,68.018L71.168,68.207L71.413,68.497L71.453,68.562L71.466,68.657L71.460,68.771L71.440,68.874L71.413,68.936L71.386,68.948L71.282,68.978L71.253,68.977L71.239,68.934L71.269,68.906L71.311,68.882L71.333,68.856L71.346,68.832L71.365,68.806L71.359,68.785L71.296,68.773L71.173,68.856L71.155,68.888L71.119,68.983L71.093,69.019L71.045,69.039L70.994,69.042L70.983,69.045L70.942,69.054L70.890,69.102L70.929,69.152L70.935,69.225L70.930,69.310L70.934,69.396L71.194,69.912L71.284,70.016L71.373,70.019L71.479,70.101L71.496,70.125L71.482,70.172L71.447,70.188L71.407,70.199L71.373,70.230L71.359,70.321L71.379,70.569L71.373,70.645L71.308,70.683L71.248,70.614L71.173,70.434L71.151,70.405L71.124,70.388L71.102,70.358L71.093,70.292L71.111,70.281L71.213,70.185L71.213,70.147L71.093,69.936L71.082,69.993L71.049,70.023L70.999,70.031L70.934,70.019L70.956,70.073L70.964,70.125L70.956,70.176L70.934,70.230L70.899,70.169L70.859,70.126L70.805,70.102L70.734,70.102L70.839,69.949L70.854,69.917L70.879,69.899L70.934,69.878L70.988,69.844L71.013,69.789L70.993,69.692L70.891,69.554L70.854,69.479L70.854,69.294L70.832,69.268L70.768,69.283L70.748,69.320L70.740,69.368L70.712,69.415L70.511,69.550L70.454,69.604L70.310,69.785L70.227,69.865L70.150,69.898L70.100,69.938L69.932,70.185L69.930,70.243L69.950,70.479L69.906,70.521L69.911,70.614L69.932,70.712L69.932,70.770L69.949,70.776L69.963,70.776L69.971,70.783L69.969,70.812L70.012,70.812L70.031,70.750L70.041,70.679L70.066,70.622L70.131,70.604L70.131,70.566L70.091,70.566L70.091,70.521L70.190,70.556L70.179,70.638L70.124,70.739L70.091,70.830L70.120,70.940L70.192,71.018L70.478,71.210L70.509,71.260L70.450,71.385L70.454,71.446L70.479,71.496L70.511,71.517L70.597,71.549L70.702,71.622L70.757,71.706L70.690,71.770L70.734,71.812L70.690,71.853L70.620,71.768L70.580,71.824L70.541,71.927L70.473,71.982L70.385,71.952L70.326,71.880L70.248,71.729L69.994,71.439L69.816,71.325L69.649,71.351L69.678,71.387L69.709,71.453L69.729,71.480L69.668,71.453L69.649,71.438L69.609,71.438L69.638,71.520L69.730,71.621L69.768,71.687L69.882,71.667L69.942,71.762L69.964,71.908L69.969,72.040L69.986,72.092L70.027,72.155L70.074,72.208L70.149,72.259L70.150,72.313L70.116,72.346L70.048,72.314L70.012,72.314L69.989,72.354L69.932,72.517L69.800,72.458L69.768,72.435L69.801,72.488L69.854,72.533L69.969,72.604L69.932,72.697L69.956,72.768L70.006,72.830L70.048,72.895L69.894,72.851L69.835,72.865L69.812,72.936L69.850,72.899L69.848,72.895L69.929,72.938L69.960,72.985L69.969,73.065L69.980,73.107L69.977,73.127L69.986,73.152L70.030,73.206L70.060,73.278L70.036,73.331L69.969,73.397L69.962,73.449L69.984,73.702L70.023,73.808L70.191,74.132L70.244,74.196L70.411,74.314L70.411,74.352L70.391,74.460L70.391,74.480L70.291,74.563L70.288,74.664L70.317,74.754L70.375,74.822L70.454,74.854L70.454,74.899L70.358,74.938L70.262,74.933L70.181,74.889L70.131,74.813L70.111,74.825L70.069,74.841L70.048,74.854L70.000,74.670L70.036,74.228L69.969,74.020L70.012,74.020L69.879,73.661L69.823,73.400L69.767,73.329L69.689,73.435L69.763,73.577L69.790,73.601L69.799,73.623L69.768,73.793L69.800,73.855L69.937,73.984L69.969,74.082L69.951,74.258L69.896,74.431L69.797,74.592L69.649,74.729L69.536,74.748L69.470,74.945L69.503,75.150L69.689,75.186L69.717,75.130L69.803,75.010L69.891,74.910L69.932,74.918L69.909,75.005L69.869,75.082L69.862,75.165L69.932,75.269L69.926,75.401L69.924,75.426L70.154,75.723L70.091,75.854L70.048,75.809L70.007,75.855L69.956,75.979L69.852,76.111L69.838,76.164L69.835,76.224L69.812,76.314L69.778,76.356L69.672,76.448L69.649,76.498L69.635,76.567L69.601,76.633L69.529,76.729L69.489,76.729L69.419,76.668L69.334,76.664L69.235,76.671L69.126,76.647L69.060,76.569L69.015,76.358L68.988,76.314L68.853,76.349L68.861,76.425L68.928,76.502L68.970,76.539L68.958,76.623L68.937,76.706L68.933,76.794L68.970,76.896L68.847,76.899L68.807,76.896L68.897,77.050L68.900,77.313L68.847,77.726L68.865,77.961L68.840,78.033L68.767,78.107L68.621,78.228L68.536,78.283L68.451,78.311L68.344,78.305L68.089,78.186L67.997,78.166L67.893,78.166L67.787,78.186L67.689,78.228L67.494,78.368L67.420,78.443L67.367,78.519L67.318,78.629L67.247,78.937L67.203,79.043L67.152,79.093L67.082,79.107L66.983,79.107L66.924,79.093L66.800,79.034L66.724,79.024L66.666,79.038L66.547,79.091L66.485,79.107L66.263,79.107L66.230,79.126L66.158,79.209L65.994,79.265L65.893,79.353L65.813,79.462L65.762,79.560L65.705,79.807L65.649,79.873L65.501,79.896L65.455,79.913L65.247,80.021L65.186,80.032L65.088,80.037L65.044,80.058L65.009,80.138L64.933,80.417L64.905,80.478L64.789,80.491L64.732,80.535L64.642,80.727L64.605,80.727L64.556,80.541L64.400,80.490L63.677,80.637L63.510,80.694L63.440,80.793L63.409,80.853L63.272,81.000L63.240,81.083L63.222,81.157L63.139,81.328L63.095,81.579L62.878,82.025L62.838,82.025L62.775,81.986L62.515,81.907L62.417,81.893L62.293,81.900L62.200,81.918L61.858,82.067L61.615,82.278L61.533,82.324L61.317,82.399L60.937,82.606L60.810,82.625L60.674,82.674L60.470,82.790L60.436,82.810L60.377,82.859L60.223,83.017L60.193,83.082L60.143,83.159L60.031,83.227L59.658,83.399L59.553,83.429L59.290,83.463L59.058,83.539L58.995,83.520L58.948,83.587L58.776,83.750L58.632,83.976L58.529,83.974L58.306,83.836L58.153,83.814L58.182,83.760L58.229,83.741L58.279,83.727L58.313,83.690L58.310,83.636L58.281,83.580L58.242,83.537L58.213,83.520L58.185,83.499L58.070,83.374L58.043,83.380L57.982,83.380L57.915,83.371L57.870,83.354L57.870,83.440L57.834,83.440L57.759,83.358L57.643,83.298L57.520,83.288L57.428,83.354L57.391,83.354L57.408,83.301L57.411,83.267L57.391,83.187L57.337,83.307L57.294,83.360L57.228,83.395L57.195,83.279L57.191,83.229L57.106,83.273L57.063,83.307L57.029,83.354L56.992,83.354L57.009,83.258L57.066,83.209L57.124,83.184L57.135,83.180L57.191,83.146L57.233,83.079L57.241,83.019L57.228,82.584L57.211,82.545L57.134,82.460L57.108,82.399L57.127,82.413L57.191,82.440L57.190,82.415L57.180,82.287L57.119,82.187L56.949,82.025L56.923,82.114L56.984,82.182L57.066,82.238L57.108,82.293L57.057,82.444L57.056,82.525L57.128,82.561L57.188,82.605L57.174,82.705L57.108,82.855L57.126,82.900L57.166,82.932L57.199,82.969L57.191,83.022L57.153,83.031L57.099,83.000L57.029,82.938L57.072,82.897L56.992,82.810L56.992,82.772L57.020,82.719L57.031,82.646L57.029,82.478L56.992,82.478L56.953,82.648L56.949,82.830L56.995,82.993L57.108,83.104L57.063,83.129L57.009,83.159L56.879,83.394L56.829,83.440L56.791,83.409L56.800,83.356L56.823,83.292L56.829,83.229L56.804,83.165L56.776,83.137L56.743,83.112L56.709,83.059L56.678,82.941L56.681,82.832L56.709,82.625L56.402,82.358L56.349,82.312L56.268,82.354L56.157,82.413L56.040,82.445L55.987,82.378L55.955,82.312L55.880,82.222L55.835,82.182L55.789,82.142L55.711,82.104L55.686,82.114L55.681,82.116L55.566,82.181L55.530,82.208L55.503,82.276L55.543,82.316L55.601,82.345L55.631,82.378L55.644,82.437L55.711,82.606L55.691,82.676L55.661,82.710L55.626,82.734L55.591,82.772L55.557,82.870L55.545,82.920L55.527,82.994L55.483,83.101L55.410,83.146L55.222,83.215L55.126,83.212L55.069,83.104L55.029,83.104L55.049,83.194L55.068,83.230L55.105,83.270L55.041,83.285L54.975,83.318L54.925,83.365L54.881,83.488L54.821,83.525L54.743,83.555L54.669,83.606L54.673,83.505L54.657,83.428L54.628,83.366L54.586,83.312L54.597,83.524L54.626,83.610L54.688,83.644L54.793,83.623L54.879,83.567L54.945,83.487L54.989,83.395L55.029,83.395L55.058,83.480L55.071,83.578L55.113,83.647L55.228,83.644L55.276,83.596L55.367,83.431L55.429,83.395L55.528,83.432L55.590,83.520L55.637,83.624L55.691,83.708L55.767,83.798L55.803,83.887L55.846,84.412L55.818,84.545L55.729,84.603L55.615,84.592L55.312,84.520L54.693,84.523L54.266,84.438L54.046,84.437L53.932,84.409L53.840,84.355L53.754,84.321L53.665,84.350L54.003,84.570L55.410,85.063L55.441,85.083L55.535,85.169L55.570,85.188L55.601,85.201L55.629,85.230L55.669,85.258L55.729,85.271L55.788,85.275L55.832,85.289L55.858,85.322L55.867,85.377L55.856,85.515L55.821,85.608L55.504,85.948L55.410,86.005L55.312,85.980L55.342,85.933L55.348,85.877L55.336,85.820L55.312,85.769L55.268,85.769L55.242,85.873L55.228,85.897L55.152,85.978L55.119,86.028L55.105,86.080L55.127,86.098L55.168,86.150L55.195,86.204L55.168,86.229L55.079,86.241L55.059,86.269L55.060,86.309L55.019,86.369L55.004,86.414L54.989,86.434L54.965,86.439L54.747,86.431L54.651,86.394L54.568,86.332L54.487,86.250L54.398,86.184L54.107,86.060L53.937,85.919L53.787,85.733L53.299,84.936L53.132,84.760L52.902,84.686L52.934,84.721L52.965,84.737L52.995,84.749L53.171,84.891L53.238,84.971L53.289,85.204L53.350,85.330L53.894,86.060L54.027,86.184L54.478,86.404L54.786,86.648L55.116,86.828L55.208,86.852L55.266,86.907L55.248,87.029L55.185,87.159L55.105,87.233L55.105,87.188L55.142,87.143L55.150,87.088L55.136,87.031L55.105,86.985L55.069,86.985L55.041,87.198L54.924,87.336L54.769,87.390L54.626,87.354L54.489,87.240L54.144,86.852L54.000,86.740L53.505,86.434L52.042,84.888L51.993,84.851L51.939,84.822L51.905,84.814L51.886,84.830L51.858,84.853L51.884,84.884L51.940,84.911L51.985,84.939L52.118,85.090L52.166,85.176L52.206,85.380L52.260,85.469L52.326,85.546L52.453,85.668L52.636,85.807L52.851,85.969L52.902,86.022L52.939,86.075L52.988,86.176L53.022,86.229L53.321,86.520L53.354,86.539L53.469,86.686L53.977,87.118L54.124,87.287L54.227,87.483L54.279,87.724L54.340,87.791L54.487,87.815L54.557,87.864L54.585,87.978L54.590,88.104L54.560,88.414L54.488,88.623L54.374,88.801L54.227,88.936L54.102,89.014L54.030,89.032L53.963,89.002L53.910,88.985L53.849,89.011L53.765,89.068L53.523,89.062L53.446,89.024L53.166,88.803L52.659,88.520L51.574,87.468L51.023,86.759L50.803,86.549L50.634,86.421L50.432,86.367L50.249,86.247L50.137,86.229L50.251,86.403L50.623,86.784L51.625,87.810L51.662,87.915L51.684,88.022L51.739,88.145L52.347,89.068L52.386,89.155L52.410,89.248L52.427,89.500L52.399,89.577L52.185,89.815L52.241,89.875L52.293,89.899L52.333,89.932L52.347,90.019L52.326,90.113L52.271,90.156L52.104,90.189L51.302,90.441L50.425,90.810L49.792,91.076L48.499,91.572L48.355,91.698L48.098,91.982L47.943,92.106L47.880,92.186L47.855,92.293L47.840,92.310L47.765,92.330L47.736,92.355L47.731,92.383L47.740,92.451L47.736,92.480L47.302,93.333L47.191,93.500L47.063,93.648L46.862,93.815L46.616,93.851L46.425,93.934L46.252,94.147L46.088,94.425L45.942,94.582L45.552,94.692L44.508,95.000L44.371,94.978L44.337,94.957L44.309,94.930L44.266,94.905L43.900,94.847L43.762,94.794L43.729,94.774L43.713,94.707L43.759,94.691L43.830,94.717L43.942,94.696L44.229,94.501L44.292,94.462L44.344,94.447L44.385,94.423L44.408,94.359L44.380,94.298L44.319,94.266L44.294,94.238L44.371,94.189L44.446,94.194L44.832,94.273L44.915,94.253L45.012,94.204L45.094,94.137L45.134,94.065L44.994,94.134L44.808,94.185L44.625,94.187L44.491,94.106L44.463,94.039L44.488,94.005L44.556,93.990L44.651,93.978L44.793,93.978L44.835,93.968L44.934,93.895L44.934,93.857L44.876,93.754L44.860,93.632L44.891,93.518L44.518,93.687L44.277,93.749L44.131,93.671L44.031,93.466L44.094,93.233L44.158,93.020L44.248,92.741L44.230,92.509L44.221,92.081L44.244,91.552L44.292,91.185L44.329,90.291L44.332,89.920L44.371,89.230L44.388,88.976L44.511,87.871L44.603,87.536L44.722,87.183L44.995,87.192L45.174,87.167L45.214,87.061L45.310,86.958L45.670,86.682L45.797,86.622L45.856,86.667L45.872,86.765L46.011,87.147L46.010,87.062L45.975,86.833L45.975,86.565L45.936,86.435L45.862,86.297L45.598,85.943L45.368,85.717L45.254,85.648L45.138,85.634L44.907,85.692L44.771,85.686L44.583,85.572L44.445,85.382L44.329,85.178L44.208,85.018L44.016,84.899L43.821,84.871L43.638,84.926L43.486,85.063L43.466,85.122L43.467,85.175L43.453,85.214L43.388,85.230L43.352,85.256L43.327,85.373L43.308,85.399L43.104,85.387L43.087,85.399L43.055,85.344L43.067,85.305L43.090,85.260L43.087,85.188L43.062,85.148L42.984,85.056L42.967,84.999L42.967,84.833L42.946,84.691L42.890,84.606L42.727,84.478L42.703,84.517L42.696,84.534L42.692,84.562L42.644,84.562L42.636,84.395L42.577,84.278L42.448,84.105L42.420,84.024L42.437,84.010L42.479,84.011L42.528,83.976L42.573,83.907L42.602,83.848L42.604,83.790L42.572,83.727L42.528,83.727L42.481,83.821L42.420,83.895L42.343,83.947L42.248,83.976L42.155,83.968L42.152,83.902L42.168,83.802L42.142,83.726L42.248,83.749L42.331,83.736L42.392,83.677L42.636,83.310L42.685,83.214L42.742,83.126L42.817,83.067L42.909,83.045L43.160,83.034L43.599,83.090L43.738,83.107L44.027,83.144L44.290,83.133L44.498,83.047L44.639,82.897L44.880,82.520L44.948,82.442L45.024,82.376L45.597,82.077L45.739,81.936L45.736,81.739L45.527,81.342L45.436,81.114L45.416,80.903L45.453,80.807L45.519,80.719L45.574,80.668L45.599,80.645L45.675,80.589L45.805,80.520L45.839,80.546L45.852,80.625L45.919,80.718L46.002,80.747L46.572,80.856L46.830,80.905L46.920,80.965L47.121,81.145L47.208,81.177L47.264,81.119L47.438,80.756L47.675,80.473L47.749,80.422L47.776,80.436L47.941,80.483L48.072,80.550L48.119,80.556L48.410,80.493L48.958,80.374L49.045,80.355L49.178,80.292L49.288,80.220L49.290,80.219L49.426,80.135L49.594,80.085L49.751,80.102L49.849,80.218L49.953,80.404L50.151,80.685L50.193,80.777L50.260,80.989L50.304,81.076L50.383,81.174L50.486,81.242L50.607,81.240L50.661,81.180L50.730,81.059L50.785,80.926L50.794,80.827L50.989,80.990L51.043,81.055L51.152,81.183L51.300,81.293L51.463,81.377L51.617,81.432L51.949,81.465L52.102,81.505L52.232,81.614L52.082,81.030L51.937,80.750L51.908,80.651L51.917,80.638L51.924,80.481L51.911,80.467L51.945,80.405L51.964,80.384L52.067,80.371L52.191,80.376L52.253,80.378L52.294,80.341L52.228,80.220L52.133,79.871L52.065,79.767L51.960,79.685L51.859,79.668L51.769,79.723L51.702,79.854L51.643,79.728L51.564,79.629L51.360,79.451L51.272,79.350L51.130,79.121L51.043,79.039L50.730,78.960L50.610,78.868L50.549,78.699L50.549,78.699L50.533,78.567L50.456,78.519L50.360,78.494L50.286,78.434L50.280,78.348L50.377,77.890L50.441,77.684L50.458,77.593L50.448,77.500L50.357,77.179L50.370,77.021L50.364,76.940L50.337,76.871L50.272,76.822L50.117,76.793L50.046,76.754L49.986,76.652L49.970,76.625L49.988,76.504L50.055,76.397L50.131,76.311L50.149,76.296L50.265,76.195L50.365,76.174L50.643,76.279L50.810,76.288L50.881,76.201L50.934,76.074L51.096,75.900L51.130,75.825L51.144,75.743L51.149,75.659L51.285,75.512L51.553,75.558L51.857,75.654L52.099,75.659L52.503,75.788L52.617,75.852L52.661,75.903L52.745,76.038L52.798,76.081L52.875,76.095L53.204,76.007L53.267,76.000L53.324,76.010L53.406,76.039L53.534,76.132L53.609,76.173L53.685,76.171L53.739,76.078L53.736,76.071L53.686,75.937L53.527,75.659L53.521,75.562L53.552,75.479L53.600,75.398L53.641,75.311L53.649,75.259L53.652,75.144L53.659,75.104L53.745,74.960L53.760,74.945L53.727,74.795L53.554,74.463L53.507,74.324L53.499,74.300L53.636,74.263L53.704,74.257L53.780,74.269L53.832,74.308L53.856,74.361L53.888,74.402L53.965,74.407L54.145,74.278L54.425,74.281L54.929,74.352L54.882,74.261L55.174,74.328L55.297,74.294L55.411,74.138L55.479,73.940L55.575,73.798L55.708,73.716L55.817,73.706L55.890,73.700L56.336,73.735L56.552,73.709L56.769,73.623L56.911,73.525L57.311,73.116L57.495,72.883L57.651,72.771L57.721,72.704L57.760,72.619L57.933,72.431L58.280,72.257L58.373,72.227L58.656,72.137L58.914,72.114L59.052,72.200L59.227,72.478L59.339,72.578L59.473,72.571L59.670,72.298L59.811,72.198L59.962,72.135L60.048,72.025L60.095,71.887L60.124,71.738L60.296,71.242L60.297,71.099L60.296,71.098L60.255,71.020L60.267,70.954L60.304,70.888L60.336,70.810L60.356,70.626L60.345,70.429L60.199,69.758L60.185,69.576L60.191,69.413L60.175,69.254L60.095,69.084L59.931,68.894L59.891,68.822L59.867,68.731L59.846,68.547L59.780,68.393L59.766,68.326L59.777,68.260L59.811,68.200L59.842,68.176L59.856,68.143L59.854,68.103L59.839,68.059L59.748,67.991L59.733,67.904L60.325,66.442L60.403,66.250L60.590,65.787L60.611,65.601L60.575,65.004L60.531,64.782L60.048,63.824L59.946,63.675L59.811,63.525L59.800,63.498L59.744,63.406L59.633,63.271L59.603,63.180L59.605,63.116L59.643,62.985L59.650,62.931L59.587,62.747L59.613,62.645L59.645,62.576L59.661,62.506L59.649,62.431L59.644,62.400L59.562,62.222L59.556,62.166L59.563,62.108L59.560,62.049L59.523,61.991L59.433,61.955L59.214,61.977L59.114,61.940L59.048,61.829L59.050,61.706L59.069,61.579L59.057,61.460L58.992,61.355L58.937,61.297L58.912,61.226L58.940,61.080L59.138,60.503L59.167,60.289L59.168,60.232L59.152,60.171L59.100,60.054L59.087,59.999L59.098,59.875L59.140,59.764L59.260,59.550L59.276,59.494L59.285,59.439L59.304,59.389L59.350,59.345L59.426,59.321L59.460,59.347L59.481,59.388L59.519,59.407L59.632,59.378L59.706,59.316L59.759,59.224L59.829,59.065L59.850,58.982L59.856,58.939L59.881,58.856L59.965,58.733L59.995,58.665L60.002,58.568L59.980,58.387L59.988,58.293L60.124,57.985L60.154,57.832L60.084,57.670ZM52.427,88.583L52.501,88.658L52.828,88.736L52.902,88.793L52.895,88.944L52.858,89.052L52.774,89.108L52.623,89.105L52.623,89.068L52.652,88.952L52.564,88.823L52.437,88.711L52.347,88.649L52.304,88.687L52.391,88.799L52.490,88.877L52.520,88.922L52.406,88.936L52.345,88.882L52.145,88.562L51.998,88.379L51.932,88.269L51.905,88.168L51.883,88.035L51.831,87.940L51.705,87.770L51.742,87.732L51.755,87.763L51.774,87.782L51.821,87.815L52.104,88.230L52.384,88.514L52.427,88.583ZM55.429,84.644L55.562,84.677L55.612,84.711L55.631,84.792L55.594,84.842L55.512,84.884L55.429,84.900L55.392,84.873L55.342,84.796L55.229,84.747L54.467,84.603L54.187,84.478L54.277,84.471L54.474,84.558L54.632,84.594L55.304,84.602L55.429,84.644ZM58.047,83.453L58.226,83.614L58.276,83.690L58.243,83.674L58.227,83.670L58.215,83.664L58.193,83.644L58.153,83.644L58.139,83.720L58.097,83.751L58.054,83.778L58.011,83.899L57.958,83.934L57.834,83.976L57.752,84.053L57.630,84.240L57.551,84.312L57.473,84.012L57.505,83.900L57.742,83.837L57.917,83.744L57.954,83.708L57.958,83.646L57.974,83.568L58.002,83.497L58.047,83.453ZM56.669,83.606L56.795,83.690L56.860,83.745L56.909,83.814L56.623,83.885L56.507,83.938L56.429,84.022L56.386,84.022L56.386,83.911L56.358,83.827L56.325,83.758L56.307,83.690L56.322,83.579L56.412,83.448L56.429,83.354L56.386,83.354L56.386,83.440L56.337,83.298L56.389,83.208L56.496,83.150L56.618,83.108L56.738,83.194L56.710,83.379L56.586,83.690L56.629,83.690L56.669,83.606ZM56.509,83.040L56.475,83.104L56.398,83.082L56.315,83.024L56.267,82.976L56.258,82.958L56.200,82.862L56.187,82.855L56.200,82.801L56.254,82.752L56.267,82.708L56.289,82.583L56.269,82.525L56.187,82.478L56.187,82.440L56.251,82.422L56.327,82.413L56.386,82.420L56.396,82.463L56.532,82.556L56.561,82.606L56.587,82.621L56.615,82.633L56.629,82.644L56.633,82.689L56.617,82.713L56.596,82.729L56.586,82.749L56.601,82.816L56.626,82.882L56.631,82.939L56.586,82.976L56.555,82.956L56.521,82.897L56.469,82.772L56.429,82.772L56.444,82.848L56.498,82.959L56.509,83.040ZM70.654,72.771L70.700,72.791L70.734,72.820L70.758,72.855L70.774,72.895L70.748,72.918L70.684,72.963L70.654,72.978L70.622,72.938L70.585,72.915L70.541,72.914L70.491,72.936L70.508,72.949L70.515,72.948L70.521,72.952L70.531,72.978L70.415,72.967L70.308,72.908L70.222,72.832L70.168,72.771L70.168,72.729L70.207,72.742L70.291,72.757L70.331,72.771L70.329,72.749L70.331,72.684L70.438,72.728L70.654,72.771ZM55.069,93.941L54.932,93.955L54.934,94.022L54.993,94.111L55.029,94.189L54.955,94.159L54.894,94.163L54.835,94.180L54.768,94.189L54.717,94.215L54.706,94.274L54.709,94.343L54.706,94.397L54.711,94.425L54.721,94.452L54.699,94.472L54.606,94.480L54.577,94.453L54.485,94.330L54.467,94.293L54.533,94.146L54.691,93.986L54.882,93.851L55.044,93.777L55.069,93.787L55.089,93.798L55.102,93.820L55.105,93.857L55.088,93.861L55.029,93.857L55.059,93.894L55.064,93.912L55.069,93.941ZM54.107,86.939L54.300,87.141L54.376,87.262L54.327,87.316L54.241,87.264L54.100,87.036L53.934,86.945L53.665,86.686L53.665,86.648L53.691,86.666L53.785,86.686L54.037,86.870L54.107,86.939ZM39.983,84.022L40.002,84.125L40.002,84.769L39.776,85.359L39.698,85.694L39.803,85.856L39.760,85.985L39.761,86.058L39.784,86.124L39.803,86.229L39.707,86.176L39.684,86.147L39.565,86.092L39.487,85.824L39.407,85.312L39.252,84.856L39.136,84.660L38.968,84.520L38.745,84.404L38.669,84.326L38.623,84.085L38.603,84.020L38.634,84.002L39.001,84.057L39.116,84.050L39.165,83.999L39.178,83.970L39.240,83.876L39.265,83.855L39.316,83.831L39.336,83.773L39.345,83.703L39.364,83.644L39.406,83.589L39.463,83.541L39.531,83.535L39.603,83.606L39.560,83.565L39.983,84.022ZM56.307,83.478L56.212,83.454L56.132,83.420L56.061,83.405L55.987,83.440L56.020,83.457L56.028,83.457L56.037,83.449L56.067,83.440L56.157,83.526L56.221,83.652L56.217,83.766L56.107,83.814L55.968,83.756L55.824,83.619L55.701,83.454L55.631,83.312L55.610,83.215L55.608,83.143L55.631,82.976L55.624,82.973L55.610,82.930L55.591,82.832L55.611,82.814L55.709,82.798L55.747,82.772L55.790,82.621L55.748,82.480L55.591,82.229L55.725,82.227L55.780,82.247L55.832,82.298L55.886,82.388L55.920,82.425L56.079,82.471L56.152,82.545L56.187,82.639L56.187,82.727L56.145,82.766L56.118,82.807L56.107,82.876L56.121,82.902L56.185,83.000L56.208,83.022L56.268,83.061L56.292,83.145L56.249,83.219L56.107,83.229L56.107,83.270L56.200,83.275L56.246,83.316L56.307,83.440L56.307,83.478ZM57.511,20.602L57.540,20.622L57.557,20.639L57.591,20.681L57.522,20.670L57.480,20.629L57.428,20.519L57.407,20.571L57.409,20.615L57.431,20.653L57.471,20.681L57.471,20.723L57.394,20.751L57.337,20.751L57.286,20.727L57.228,20.681L57.257,20.810L57.436,20.911L57.471,21.017L57.428,21.017L57.428,20.976L57.391,20.976L57.363,21.081L57.311,21.187L57.311,21.055L57.269,21.070L57.251,21.081L57.228,21.101L57.228,21.055L57.191,21.101L57.166,21.069L57.148,21.055L57.148,21.017L57.271,21.017L57.271,20.976L57.248,20.963L57.243,20.957L57.241,20.949L57.228,20.931L57.191,20.931L57.191,20.976L57.148,20.976L57.128,20.948L57.092,20.916L57.072,20.889L57.029,20.889L57.055,20.955L57.072,20.976L57.072,21.017L56.955,20.938L56.822,20.757L56.749,20.681L56.580,20.577L56.515,20.492L56.532,20.381L56.669,20.333L56.709,20.308L56.730,20.267L56.729,20.223L56.738,20.178L56.792,20.138L56.749,20.183L56.829,20.264L57.009,20.290L57.072,20.349L57.108,20.349L57.114,20.247L57.174,20.226L57.252,20.256L57.311,20.308L57.311,20.349L57.293,20.414L57.363,20.460L57.456,20.482L57.511,20.474L57.551,20.474L57.574,20.515L57.600,20.550L57.631,20.579L57.671,20.602L57.549,20.574L57.511,20.557L57.511,20.602ZM56.107,20.119L56.139,20.203L56.349,20.474L56.378,20.629L56.302,20.669L56.201,20.648L56.150,20.621L56.121,20.522L56.004,20.280L55.987,20.138L55.955,20.191L55.946,20.244L55.958,20.298L55.987,20.349L55.944,20.349L55.868,20.303L55.778,20.287L55.701,20.249L55.671,20.138L55.718,19.967L55.787,19.810L56.016,19.905L56.082,19.982L56.107,20.119ZM60.113,19.934L60.254,19.656L60.276,19.557L60.294,19.576L60.303,19.595L60.312,19.640L60.277,19.778L60.229,19.881L59.952,20.282L59.916,20.349L59.875,20.473L59.832,20.517L59.753,20.519L59.849,20.304L59.859,20.207L59.793,20.138L59.793,20.100L59.915,20.096L59.998,20.074L60.059,20.023L60.113,19.934ZM61.398,19.266L61.473,19.288L61.677,19.436L61.677,19.474L61.616,19.450L61.597,19.436L61.560,19.436L61.590,19.555L61.548,19.649L61.462,19.719L61.358,19.768L61.468,19.565L61.478,19.495L61.446,19.458L61.388,19.425L61.354,19.369L61.398,19.266ZM60.156,19.266L60.236,19.177L60.270,19.156L60.306,19.178L60.283,19.258L60.193,19.474L60.133,19.687L60.095,19.775L60.033,19.851L59.950,19.898L59.856,19.921L59.714,19.934L59.451,20.000L59.351,20.013L59.351,19.976L59.522,19.904L59.679,19.814L59.814,19.713L59.916,19.602L59.901,19.534L59.920,19.441L59.992,19.266L60.018,19.283L60.080,19.308L60.097,19.253L60.156,19.142L60.156,19.266ZM60.674,18.683L60.715,18.658L60.737,18.666L60.735,18.708L60.526,19.151L60.489,19.339L60.430,19.491L60.312,19.474L60.374,19.450L60.382,19.412L60.367,19.359L60.356,19.287L60.374,19.227L60.457,19.147L60.476,19.079L60.485,18.943L60.497,18.892L60.516,18.847L60.537,18.817L60.674,18.683ZM60.436,18.100L60.568,18.055L60.586,18.067L60.558,18.141L60.493,18.215L60.300,18.344L60.240,18.436L60.193,18.436L60.106,18.416L59.989,18.539L59.793,18.806L59.729,18.840L59.586,18.894L59.514,18.934L59.314,19.100L59.222,19.027L59.261,18.891L59.347,18.739L59.395,18.619L59.406,18.549L59.459,18.377L59.487,18.193L59.527,18.192L59.569,18.242L59.586,18.238L59.593,18.186L59.621,18.153L59.674,18.141L59.648,18.099L59.642,18.006L59.652,17.849L59.667,17.775L59.682,17.738L59.704,17.712L59.726,17.703L59.749,17.702L59.773,17.707L59.797,17.720L59.857,17.767L59.992,17.934L60.031,17.961L60.070,17.968L60.100,17.985L60.113,18.038L60.115,18.087L60.120,18.124L60.134,18.153L60.156,18.179L60.193,18.179L60.233,18.156L60.436,18.100ZM61.797,17.197L61.810,17.211L61.825,17.236L61.832,17.259L61.818,17.269L61.773,17.278L61.201,17.519L61.218,17.503L61.285,17.422L61.625,17.222L61.720,17.185L61.797,17.197ZM62.120,17.017L62.878,16.934L62.878,16.972L62.651,17.116L62.561,17.150L62.515,17.100L62.478,17.100L62.434,17.123L62.036,17.258L61.959,17.269L61.973,17.207L62.000,17.137L62.031,17.198L62.040,17.224L62.066,17.175L62.100,17.138L62.144,17.113L62.024,17.107L61.876,17.137L61.876,17.100L62.070,17.040L62.120,17.017ZM68.398,82.921L68.494,83.009L68.536,83.130L68.505,83.220L68.384,83.212L68.326,83.149L68.301,83.053L68.322,82.965L68.398,82.921ZM71.034,70.456L71.079,70.572L71.102,70.645L71.074,70.723L70.979,70.692L70.765,70.539L70.731,70.490L70.695,70.448L70.624,70.429L70.558,70.380L70.607,70.297L70.758,70.279L70.891,70.299L70.974,70.323L71.016,70.385L71.034,70.456ZM59.203,20.447L59.270,20.490L59.289,20.527L59.284,20.609L59.264,20.620L59.235,20.581L59.198,20.561L59.151,20.569L59.089,20.538L59.042,20.432L59.036,20.346L59.058,20.346L59.129,20.427L59.203,20.447ZM59.276,20.071L59.335,20.090L59.352,20.127L59.338,20.151L59.321,20.169L59.321,20.182L59.321,20.195L59.309,20.210L59.231,20.244L59.191,20.250L59.153,20.242L59.112,20.211L59.050,20.135L59.033,20.147L59.003,20.137L58.986,20.099L58.993,20.068L59.025,20.055L59.065,20.069L59.096,20.082L59.120,20.075L59.181,20.067L59.276,20.071ZM61.869,19.237L61.965,19.172L62.048,19.187L62.027,19.268L61.978,19.317L61.879,19.455L61.822,19.460L61.815,19.353L61.869,19.237Z" fill="currentColor" stroke="currentColor" stroke-width="1.5" stroke-linejoin="round"/>
</svg>