<svg xmlns="http://www.w3.org/2000/svg" viewBox="0 0 100 100" role="img" aria-label="Vanuatu">
  <title>Vanuatu</title>
  <path d="M69.559,93.594L69.801,93.778L69.989,93.886L70.141,94.009L70.262,94.239L70.136,94.554L70.054,94.706L69.934,94.829L69.801,94.891L69.533,94.944L69.436,95.000L69.321,94.891L69.170,94.823L68.862,94.744L68.497,94.573L68.331,94.447L68.312,94.157L68.397,93.841L68.542,93.632L68.696,93.587L69.003,93.534L69.329,93.522L69.559,93.594ZM64.671,85.481L65.059,85.688L65.245,85.823L65.497,85.915L65.424,86.069L64.999,86.600L64.917,87.150L64.825,87.424L64.712,87.541L64.479,87.517L63.968,87.370L63.770,87.276L63.275,86.695L63.152,86.600L62.912,86.588L62.818,86.551L62.779,86.475L62.742,86.334L62.657,86.234L62.572,86.169L62.534,86.126L62.504,86.028L62.100,85.448L62.051,85.317L62.037,85.130L62.053,84.809L62.118,84.504L62.252,84.369L62.345,84.300L62.345,84.139L62.295,83.849L62.343,83.701L62.399,83.592L62.484,83.506L62.616,83.421L62.856,83.354L63.319,83.348L63.517,83.250L63.712,83.418L63.723,83.587L63.652,83.795L63.606,84.070L63.770,85.011L63.875,85.191L64.127,85.295L64.425,85.372L64.671,85.481ZM63.517,78.495L63.411,78.814L63.172,78.970L62.921,79.090L62.779,79.302L62.537,79.120L61.477,78.550L61.332,78.512L61.186,78.576L61.088,78.570L60.712,78.462L60.606,78.409L60.481,78.292L60.190,78.083L59.989,77.985L59.327,77.765L59.306,77.553L59.503,76.995L59.506,76.828L59.462,76.684L59.388,76.555L59.288,76.430L59.267,76.339L59.345,75.437L59.418,75.175L59.577,74.928L59.940,74.667L60.413,74.531L60.900,74.545L61.307,74.757L61.428,74.957L61.477,75.204L61.477,75.658L61.544,75.886L61.720,75.992L62.206,76.047L62.201,76.030L62.259,76.000L62.341,75.974L62.406,75.962L62.455,75.986L62.447,76.098L62.551,76.158L62.617,76.241L62.673,76.343L62.698,76.430L62.557,76.439L61.797,76.644L62.088,76.999L62.124,77.119L62.203,77.142L62.575,77.332L62.698,77.423L63.061,77.610L63.316,77.833L63.466,78.120L63.517,78.495ZM54.076,62.921L54.198,62.948L54.319,62.929L54.422,62.886L54.486,62.836L54.507,63.050L54.150,63.775L54.053,64.093L53.964,64.244L53.804,64.310L53.496,64.374L53.470,64.403L53.437,64.462L53.380,64.519L53.292,64.546L53.230,64.518L53.154,64.460L53.095,64.402L53.086,64.374L52.234,64.580L52.143,64.582L51.933,64.460L51.886,64.366L51.860,64.244L51.807,64.207L51.678,64.374L51.668,64.270L51.617,64.144L51.605,64.040L51.552,64.059L51.545,64.065L51.545,64.079L51.523,64.118L51.424,64.089L51.331,64.093L51.253,64.134L51.195,64.211L51.270,63.775L51.195,63.775L51.072,63.934L50.880,64.018L50.451,64.118L50.451,64.040L50.659,63.883L50.925,63.802L51.139,63.686L51.195,63.425L51.095,63.488L51.013,63.494L50.961,63.435L50.922,63.170L50.870,63.129L50.791,63.119L50.697,63.084L50.504,62.978L50.345,62.956L50.198,62.996L50.041,63.084L49.956,63.176L49.794,63.442L49.713,63.518L49.581,63.547L49.501,63.497L49.466,63.370L49.297,63.262L49.333,63.107L49.631,62.485L49.772,62.332L50.081,62.110L50.205,61.972L50.682,61.263L50.996,61.002L51.359,60.939L51.420,61.016L51.463,61.146L51.523,61.226L51.733,61.098L52.559,60.959L52.753,60.994L52.923,61.110L52.951,61.187L52.992,61.413L53.041,61.460L53.142,61.480L53.213,61.534L53.332,61.717L53.429,61.949L53.496,62.195L53.607,62.394L53.830,62.485L53.904,62.610L53.999,62.846L54.076,62.921ZM49.948,61.546L49.978,61.161L50.350,60.804L50.791,60.647L51.028,60.861L50.876,60.914L50.608,61.067L50.448,61.110L50.169,61.299L50.044,61.407L49.948,61.546ZM51.356,59.871L51.412,59.520L51.545,59.459L51.707,59.591L51.848,59.828L51.947,60.268L51.758,60.331L51.493,60.154L51.356,59.871ZM52.176,55.110L52.111,55.188L52.065,55.271L52.000,55.339L51.602,55.439L51.479,55.452L51.356,55.390L51.416,55.247L51.557,55.098L51.675,55.017L52.143,54.785L52.307,54.782L52.584,54.854L52.483,54.935L52.176,55.110ZM54.193,53.564L53.997,53.547L53.874,53.492L53.839,53.386L53.902,53.214L53.889,52.948L54.114,52.756L54.422,52.728L54.646,52.957L54.325,53.488L54.193,53.564ZM49.788,51.940L49.636,51.845L49.283,51.497L49.214,51.380L49.242,51.035L49.214,50.906L49.025,50.743L48.928,50.628L48.931,50.521L48.982,50.371L49.004,49.908L49.057,49.710L49.133,49.619L49.209,49.558L49.273,49.474L49.297,49.317L49.291,49.197L49.274,49.112L49.214,48.924L49.332,49.001L49.406,48.993L49.479,48.950L49.587,48.924L49.704,48.953L49.763,49.014L49.795,49.075L49.833,49.103L49.917,49.210L50.126,49.681L50.246,49.788L50.269,49.876L50.298,50.072L50.350,50.279L50.451,50.393L50.545,50.381L50.743,50.252L50.861,50.224L50.965,50.243L51.060,50.289L51.139,50.344L51.195,50.393L51.321,50.582L51.399,50.776L51.505,50.929L51.723,50.992L51.762,51.059L51.813,51.206L51.926,51.353L52.141,51.418L52.776,51.395L53.051,51.490L53.251,51.768L53.092,51.840L53.122,52.010L53.193,52.206L53.169,52.367L53.043,52.310L52.923,52.367L52.287,52.005L52.092,51.797L51.895,51.701L51.662,51.628L51.482,51.599L50.983,51.707L50.628,51.917L50.278,52.053L49.788,51.940ZM51.438,48.506L51.274,48.458L51.174,48.317L51.028,47.984L51.376,47.913L51.530,47.908L51.675,47.984L51.817,48.188L51.819,48.377L51.688,48.501L51.438,48.506ZM50.041,47.735L50.155,47.266L50.293,47.162L50.615,47.130L50.504,47.318L50.493,47.754L50.409,47.941L50.198,48.070L50.005,48.068L49.921,47.951L50.041,47.735ZM49.672,46.104L49.507,46.147L49.332,46.229L49.163,46.280L49.013,46.223L48.875,46.104L48.714,46.005L48.553,45.963L48.402,46.011L48.085,45.786L47.924,45.757L47.748,45.838L47.633,45.689L47.235,45.445L47.045,45.288L46.872,45.184L46.664,45.099L46.536,44.990L46.602,44.814L46.439,44.667L46.594,44.501L46.889,44.365L47.240,44.281L47.418,44.157L47.535,44.130L48.068,44.130L48.318,44.000L48.767,43.540L48.931,43.439L48.990,43.365L49.175,42.873L49.283,42.822L49.543,42.754L49.780,43.017L49.971,43.433L50.205,44.215L50.252,44.600L50.479,44.832L51.338,45.291L51.426,45.398L51.441,45.584L51.350,45.734L50.942,46.056L49.672,46.104ZM45.235,47.002L45.358,46.996L45.452,47.151L45.531,47.350L45.612,47.480L45.329,47.772L45.235,47.813L45.080,47.847L45.007,47.935L44.946,48.057L44.822,48.198L44.745,48.316L44.755,48.422L44.749,48.516L44.613,48.589L44.418,48.591L44.333,48.487L44.287,48.345L44.205,48.233L44.093,48.201L43.777,48.147L43.713,48.121L43.638,48.009L43.467,48.006L43.285,48.039L43.177,48.030L42.949,47.937L42.684,48.036L42.445,48.207L42.304,48.335L42.385,48.409L42.416,48.457L42.459,48.485L42.567,48.506L42.449,48.663L42.307,48.721L41.993,48.763L41.739,49.017L41.669,49.003L41.587,48.942L41.522,48.941L41.495,49.103L41.420,49.103L41.321,48.974L40.992,48.860L40.846,48.573L40.685,48.440L40.540,48.262L40.512,47.984L40.593,47.984L40.641,48.067L40.716,48.139L40.811,48.196L40.921,48.233L40.890,48.033L40.819,47.782L40.716,47.544L40.417,47.143L40.365,47.008L40.348,46.823L40.357,46.592L40.348,46.523L40.292,46.443L40.213,46.401L40.138,46.378L40.102,46.360L40.066,46.091L40.078,45.323L40.140,45.163L40.013,44.557L40.005,44.484L40.013,44.261L39.986,44.165L39.931,44.136L39.874,44.126L39.849,44.087L39.786,43.867L39.357,43.189L39.166,43.305L39.103,43.360L39.030,43.267L38.837,43.503L38.285,43.873L38.000,43.613L37.840,43.548L37.712,43.616L37.631,43.489L37.602,43.365L37.586,43.238L37.548,43.103L37.455,42.977L37.349,42.888L37.258,42.788L37.219,42.626L37.270,42.329L37.630,41.635L37.578,40.809L37.589,40.648L37.651,40.546L37.670,40.450L37.712,40.381L37.835,40.352L38.203,40.088L39.521,40.609L39.505,41.049L40.224,41.974L40.013,42.412L40.167,42.473L40.292,42.559L40.339,42.681L40.259,42.840L40.365,42.930L40.470,43.046L40.581,43.146L40.819,43.228L41.003,43.399L41.127,43.439L41.168,43.390L41.149,43.277L41.085,43.057L41.136,43.036L41.249,43.167L41.420,43.439L41.408,43.550L41.315,43.688L41.331,43.787L41.601,43.916L41.666,43.958L41.739,43.958L41.777,43.890L41.813,43.854L41.854,43.829L41.903,43.787L41.936,43.931L41.988,44.071L42.058,44.202L42.149,44.308L42.286,44.397L42.565,44.478L42.723,44.557L42.992,44.815L43.147,45.035L43.318,45.126L43.638,44.992L43.751,45.053L43.795,45.070L43.795,45.163L43.715,45.343L43.929,45.584L44.449,46.011L44.755,45.956L44.919,46.239L45.022,46.857L44.796,47.273L44.773,47.503L44.956,47.642L44.970,47.400L45.019,47.241L45.104,47.122L45.235,47.002ZM37.957,38.634L37.719,38.628L37.553,38.547L37.219,38.294L37.042,38.223L36.706,38.133L36.558,38.037L36.356,37.695L36.397,37.362L36.629,37.111L37.012,37.010L37.862,37.116L38.291,37.261L38.330,37.484L38.188,37.868L38.273,38.231L38.293,38.511L37.957,38.634ZM37.377,35.977L37.606,35.883L37.771,35.885L37.801,35.932L37.630,35.977L37.630,36.063L37.753,36.096L37.800,36.164L37.782,36.246L37.712,36.328L37.988,36.478L38.002,36.695L37.826,36.835L37.548,36.754L37.508,36.805L37.469,36.823L37.377,36.841L37.203,36.815L37.077,36.769L36.803,36.584L37.377,35.977ZM49.713,35.712L49.794,35.826L49.870,35.859L49.929,35.920L49.952,36.110L49.858,36.878L49.877,37.088L50.041,37.484L50.041,37.866L50.076,38.040L50.357,38.846L50.451,39.489L50.509,39.674L50.651,39.960L50.697,40.181L50.727,40.675L50.696,41.112L50.542,41.446L50.205,41.635L49.935,41.655L49.792,41.568L49.734,41.388L49.690,40.883L49.476,40.126L49.344,39.165L49.057,38.463L48.951,38.019L48.919,37.527L48.978,37.008L49.271,36.030L49.338,35.030L49.602,35.008L49.678,35.589L49.713,35.712ZM46.758,34.135L46.719,34.365L46.620,34.532L45.824,35.198L45.548,35.299L44.295,35.292L44.041,35.209L43.631,35.001L43.560,34.860L43.675,34.644L45.139,33.235L45.399,33.149L45.602,33.114L46.184,32.884L47.207,32.706L47.514,32.757L47.524,32.880L47.248,33.149L47.092,33.339L46.932,33.596L46.808,33.876L46.758,34.135ZM36.967,28.773L36.702,28.473L36.646,28.338L36.858,28.400L37.167,28.644L37.377,28.681L37.272,28.798L37.165,28.849L37.061,28.840L36.967,28.773ZM48.641,28.983L48.662,28.885L48.694,28.822L48.689,28.754L48.603,28.641L48.570,28.522L48.613,28.370L48.705,28.237L48.812,28.174L48.958,28.262L49.087,28.482L49.180,28.730L49.214,28.898L49.234,29.187L49.379,29.885L49.384,30.013L49.367,30.276L49.379,30.405L49.521,30.813L49.543,30.956L49.543,31.392L49.581,31.500L49.749,31.702L49.788,31.812L49.751,32.667L49.816,32.849L49.794,33.085L49.713,33.440L49.702,33.805L49.631,34.176L49.476,34.116L49.347,34.116L49.057,34.176L49.126,33.884L49.109,33.571L48.969,32.977L49.050,32.543L49.045,31.202L48.931,30.918L48.641,28.983ZM37.176,35.934L36.721,36.491L36.618,36.570L36.517,36.622L36.406,36.652L36.271,36.662L36.128,36.639L35.926,36.530L35.815,36.491L35.359,36.436L34.845,36.450L34.385,36.570L34.092,36.841L34.209,36.963L34.111,36.978L33.855,36.927L33.707,37.025L33.648,37.129L33.606,37.239L33.520,37.353L33.278,37.471L33.008,37.446L32.748,37.307L32.538,37.088L32.688,36.851L32.692,36.540L32.565,36.271L32.151,36.081L31.977,35.900L31.712,35.466L31.580,35.089L31.505,34.990L31.188,34.672L31.138,34.559L31.100,34.402L30.924,34.170L30.884,34.049L30.911,33.937L31.023,33.682L31.085,33.315L31.245,32.804L31.292,32.543L31.281,31.963L31.217,31.673L30.929,31.251L30.859,31.005L30.810,30.484L30.687,30.006L30.696,29.835L30.810,29.628L30.603,29.558L30.476,29.371L30.412,29.132L30.394,28.898L30.341,28.681L30.084,28.290L29.984,28.082L29.763,27.127L29.779,26.923L29.865,26.718L29.908,26.416L29.896,26.119L29.820,25.937L30.146,25.252L30.123,24.942L30.166,24.796L30.543,24.676L30.617,24.579L30.672,24.537L30.810,24.655L30.859,24.757L30.976,25.089L31.012,25.159L31.111,25.215L31.175,25.348L31.210,25.505L31.220,25.637L31.267,25.661L31.546,26.022L31.651,26.330L31.725,26.474L31.968,26.596L32.456,26.970L32.338,27.094L32.394,27.385L32.611,27.996L32.729,28.577L32.782,29.200L32.766,29.350L32.828,29.433L32.907,29.497L32.948,29.585L33.112,31.135L33.248,31.237L33.557,31.243L34.092,31.182L34.400,31.193L34.527,31.181L34.603,31.083L34.755,30.833L34.853,30.730L34.960,30.643L35.048,30.533L35.083,30.359L35.153,28.977L35.128,28.816L35.064,28.620L35.201,28.443L35.416,28.313L35.581,28.253L36.483,28.338L36.483,28.431L36.266,28.468L36.163,28.574L36.138,28.733L36.171,29.254L36.124,29.383L35.984,29.543L36.184,29.566L36.265,29.715L36.312,30.142L36.517,30.756L36.558,30.997L36.848,30.784L36.998,30.748L37.219,30.833L37.162,31.062L37.377,32.069L37.320,32.268L37.219,32.313L37.178,32.356L37.302,32.543L37.356,32.574L37.548,32.645L37.630,32.706L37.674,32.776L37.789,33.055L37.762,33.293L37.709,33.498L37.635,33.568L37.548,33.397L37.466,33.397L37.549,33.816L37.762,34.452L38.043,35.033L38.330,35.286L38.433,35.339L38.455,35.467L38.424,35.608L38.375,35.712L38.289,35.785L38.219,35.777L38.133,35.737L37.998,35.712L37.549,35.712L37.377,35.775L37.176,35.934ZM41.666,18.468L41.788,18.503L42.524,18.867L42.631,18.954L42.723,19.075L42.644,19.736L42.608,19.844L42.539,19.920L42.231,20.451L42.063,20.628L41.932,20.702L41.800,20.714L40.995,20.644L40.831,20.708L40.658,20.695L40.511,20.632L40.389,20.561L40.302,20.528L40.249,20.459L40.300,20.308L40.421,20.062L40.348,19.375L40.377,19.149L40.458,19.040L40.576,18.969L40.862,18.729L40.948,18.713L41.054,18.735L41.256,18.725L41.361,18.673L41.546,18.507L41.666,18.468ZM40.921,15.689L40.913,15.430L40.868,15.269L40.746,15.136L40.512,14.956L40.228,14.517L40.157,14.258L40.177,13.923L40.271,13.654L40.435,13.447L40.653,13.287L41.173,13.058L41.354,13.055L41.524,13.164L41.739,13.409L42.082,14.072L42.231,14.179L42.081,14.380L41.993,14.436L42.070,14.615L42.168,14.681L42.281,14.711L42.395,14.785L42.459,14.814L42.515,14.800L42.551,14.810L42.567,14.913L42.532,14.962L42.459,14.959L42.371,14.944L42.304,14.956L42.108,15.104L41.891,15.212L41.636,15.275L41.331,15.298L41.372,15.334L41.411,15.354L41.408,15.393L41.331,15.469L41.469,15.763L41.305,15.984L41.054,16.006L40.921,15.689ZM43.918,11.948L44.027,12.024L44.084,12.204L44.086,12.405L44.041,12.554L43.937,12.608L43.736,12.677L43.498,12.727L43.295,12.725L43.209,12.862L43.106,12.871L43.088,12.755L43.525,12.157L43.693,12.009L43.918,11.948ZM39.439,10.580L39.529,10.743L39.651,10.799L39.791,10.768L39.938,10.665L39.911,10.991L39.768,11.117L39.544,11.124L39.275,11.093L39.150,10.908L39.052,10.706L39.048,10.504L39.194,10.325L39.505,10.242L39.704,10.360L39.705,10.523L39.439,10.580ZM30.394,7.146L30.579,6.977L30.830,6.883L31.069,6.901L31.220,7.068L31.205,7.290L31.058,7.464L30.848,7.546L30.640,7.496L30.549,7.424L30.485,7.350L30.437,7.259L30.394,7.146ZM30.394,6.121L30.324,6.155L30.309,6.207L30.315,6.281L30.312,6.378L30.289,6.429L30.257,6.473L30.212,6.512L30.146,6.547L29.953,6.441L29.847,6.314L29.811,6.133L29.820,5.864L29.890,5.520L29.902,5.385L29.873,5.291L29.808,5.229L29.752,5.149L29.738,5.000L30.145,5.114L30.228,5.173L30.291,5.304L30.341,5.587L30.394,5.693L30.394,5.770L30.335,5.842L30.312,5.919L30.328,6.007L30.394,6.121ZM31.563,9.885L31.393,9.389L31.577,9.292L31.756,9.489L31.563,9.885Z" fill="currentColor" stroke="currentColor" stroke-width="1.5" stroke-linejoin="round"/>
</svg>