<svg xmlns="http://www.w3.org/2000/svg" viewBox="0 0 100 100" role="img" aria-label="Wallis and Futuna">
  <title>Wallis and Futuna</title>
  <path d="M6.897,71.563L8.390,73.155L8.523,73.437L9.074,73.605L11.072,74.667L11.072,74.974L8.744,74.821L8.360,74.974L7.809,74.725L6.696,74.557L6.273,74.330L5.459,73.067L5.000,71.772L5.336,71.069L6.897,71.563ZM93.695,25.026L94.239,26.007L94.783,26.768L95.000,27.507L94.563,28.437L94.714,28.605L94.783,28.726L94.888,29.045L94.175,29.162L94.037,29.594L94.291,30.736L94.058,31.270L93.519,31.384L92.920,31.212L92.501,30.889L92.453,30.194L91.978,29.425L91.768,28.701L92.501,28.130L92.179,27.189L92.447,26.329L93.043,25.589L93.695,25.026Z" fill="currentColor" stroke="currentColor" stroke-width="1" stroke-linejoin="round"/>
</svg>