<svg xmlns="http://www.w3.org/2000/svg" viewBox="0 0 100 100" role="img" aria-label="Samoa">
  <title>Samoa</title>
  <path d="M43.917,38.613L44.148,39.341L44.276,40.082L44.328,41.668L44.638,42.986L45.232,43.788L45.616,44.657L45.284,46.182L44.611,47.253L43.843,48.094L43.217,49.086L42.961,50.678L43.160,52.260L43.119,52.972L42.711,53.274L41.123,53.258L40.423,53.106L39.718,52.770L38.664,51.861L38.117,51.183L37.458,50.824L36.061,50.925L32.701,52.147L22.359,53.274L21.708,52.809L21.022,51.890L20.488,51.357L19.402,50.757L18.882,50.342L18.658,49.737L18.520,49.103L17.891,47.724L17.746,46.888L17.411,46.058L16.619,45.537L15.709,45.173L15.007,44.769L13.569,42.515L12.703,41.461L10.971,40.788L10.293,40.272L9.272,39.319L9.063,38.977L8.986,38.254L8.815,37.884L8.434,37.671L7.549,37.749L7.197,37.631L6.432,36.717L5.408,35.136L5.000,33.634L6.073,32.961L8.360,32.961L10.852,33.903L13.123,33.970L14.609,33.757L16.191,32.882L16.951,32.681L18.432,32.546L19.279,32.333L21.085,31.402L21.861,31.133L27.132,31.133L28.497,30.920L31.323,29.961L32.867,29.675L34.321,29.686L35.797,29.956L37.243,30.617L38.599,31.795L42.463,36.258L42.523,36.549L42.408,37.329L42.463,37.631L42.814,37.940L43.631,38.276L43.917,38.613ZM86.529,63.198L89.527,62.879L92.882,64.578L95.000,67.106L94.297,69.271L94.491,69.540L94.796,70.257L93.094,70.325L88.359,69.831L85.529,70.095L84.217,69.977L82.834,69.271L81.742,69.865L80.631,69.798L78.515,69.271L77.437,69.372L74.569,70.257L73.881,70.235L73.295,70.044L72.892,69.663L72.740,69.086L72.459,68.497L71.800,68.217L70.458,67.908L69.268,67.269L68.214,66.905L67.136,66.815L64.497,67.168L63.318,67.129L62.281,66.764L61.319,66.024L59.920,63.798L59.217,62.980L58.575,63.198L58.117,63.198L56.949,61.516L56.165,61.029L54.651,60.844L53.287,60.221L53.110,58.763L53.649,57.171L54.422,56.100L59.699,54.183L65.388,53.274L68.443,53.415L71.269,54.043L80.778,57.816L83.675,58.152L85.132,58.685L86.308,59.571L86.986,60.844L86.877,61.544L86.431,61.959L86.145,62.425L86.529,63.198Z" fill="currentColor" stroke="currentColor" stroke-width="1.5" stroke-linejoin="round"/>
</svg>