<svg xmlns="http://www.w3.org/2000/svg" viewBox="0 0 100 100" role="img" aria-label="Kosovo">
  <title>Kosovo</title>
  <path d="M11.045,50.430L11.610,49.596L11.663,48.772L11.533,47.880L11.547,46.858L11.711,46.340L12.243,45.319L12.866,43.685L12.774,43.459L12.412,42.805L9.739,40.244L9.698,40.205L9.167,39.226L9.249,37.971L9.630,37.450L10.610,36.661L11.050,36.306L11.576,36.054L13.247,36.491L14.995,37.548L16.579,38.015L17.747,36.698L17.820,36.083L17.747,35.505L17.786,34.895L18.177,34.195L18.573,33.940L20.364,33.274L24.145,32.629L28.008,31.791L30.263,30.847L31.316,29.430L31.107,28.822L30.852,28.078L29.814,27.424L29.080,26.629L29.476,24.855L30.268,23.817L31.065,23.575L31.890,23.575L32.793,23.260L33.165,22.911L33.421,22.493L33.865,21.520L34.285,21.082L34.773,21.092L35.309,21.246L35.874,21.235L36.849,20.281L38.090,18.370L39.075,16.268L39.273,14.721L38.930,14.331L38.457,14.308L37.955,14.373L37.540,14.247L37.260,13.838L37.004,13.228L36.608,11.858L36.048,10.660L35.927,9.954L36.231,9.130L36.617,8.856L38.139,8.790L39.172,8.387L42.832,5.647L43.962,5.141L45.126,5.000L45.840,5.220L46.294,5.359L47.183,6.091L47.651,6.581L47.960,7.006L48.409,7.901L48.264,7.889L47.791,7.743L47.255,8.233L47.284,8.558L47.212,9.479L47.071,10.305L46.883,10.357L47.187,10.873L50.642,12.881L54.423,15.079L54.971,15.398L55.937,15.763L59.056,15.934L59.800,16.512L60.524,17.988L61.239,21.315L61.639,22.152L62.455,22.629L63.112,22.282L63.749,21.818L64.532,21.946L65.256,23.362L65.324,25.330L65.589,27.336L66.903,28.879L67.419,29.024L68.511,29.017L69.042,29.140L69.539,29.446L70.447,30.217L70.930,30.510L72.427,30.862L73.368,30.908L73.812,31.388L73.811,31.722L73.807,33.053L73.610,34.117L72.977,36.245L72.818,37.225L72.668,37.542L72.446,37.730L72.422,37.912L72.890,38.235L73.677,38.472L74.250,38.455L75.372,38.422L80.075,39.074L81.137,39.431L81.852,40.064L83.354,41.955L84.136,42.474L84.822,42.468L86.845,41.547L87.849,41.524L89.240,41.843L89.501,42.016L90.442,42.638L90.833,44.041L90.568,44.598L90.075,44.921L89.515,45.173L89.056,45.516L89.095,45.704L88.839,46.989L88.781,47.161L88.694,47.282L88.375,47.441L88.289,47.623L88.356,47.898L88.684,48.452L88.728,48.693L88.260,50.152L85.932,54.024L84.064,55.908L83.648,56.615L83.552,57.586L83.783,59.600L83.576,60.585L82.605,61.508L79.834,62.362L78.839,63.420L78.786,64.949L80.606,67.730L81.083,69.487L80.978,69.431L79.018,69.947L78.057,69.970L77.226,69.392L76.781,69.941L76.574,70.195L76.091,70.073L75.657,69.623L75.116,69.449L74.348,69.882L74.421,70.434L74.759,70.991L74.812,71.417L74.310,71.470L72.682,70.840L71.866,70.909L71.577,71.147L71.258,71.409L68.511,75.658L68.453,76.217L68.549,76.558L68.689,76.899L68.762,77.439L68.805,78.726L68.783,78.864L68.713,79.309L68.226,79.417L66.210,79.008L65.840,78.932L65.443,78.522L65.261,78.334L64.831,77.423L64.068,76.155L62.412,74.513L60.635,73.125L60.007,72.777L59.693,72.689L59.331,72.679L58.206,73.408L56.643,74.961L56.096,75.504L54.913,76.104L53.569,76.566L50.253,77.707L45.879,79.213L44.681,79.904L43.769,81.027L43.300,82.393L42.726,85.520L42.668,86.960L43.117,88.891L43.257,89.489L43.099,90.801L43.073,91.018L42.581,92.208L41.803,93.566L41.387,94.039L40.852,94.646L39.848,95.000L39.399,94.664L38.510,93.397L38.071,93.120L37.772,93.329L37.265,94.290L36.917,94.587L36.154,94.628L35.589,94.320L34.507,93.150L34.536,92.684L34.300,91.903L34.290,91.442L34.512,90.677L34.797,90.328L35.135,90.071L35.517,89.573L36.009,88.412L36.009,87.608L35.777,86.774L35.560,85.510L34.092,81.612L33.807,80.427L33.798,78.397L33.677,77.276L33.175,75.586L31.407,71.711L30.514,70.475L30.140,70.068L29.360,69.220L23.585,64.946L22.866,64.823L19.674,64.900L19.119,64.816L18.737,64.385L18.332,63.347L18.264,62.896L18.346,62.039L18.235,61.549L17.965,61.164L17.235,60.534L17.018,60.138L17.076,59.732L17.559,58.988L17.573,58.463L17.342,57.975L16.714,57.364L16.458,57.005L15.145,53.814L15.140,53.801L15.140,53.794L15.130,53.794L14.343,52.785L12.011,51.492L11.045,50.430Z" fill="currentColor" stroke="currentColor" stroke-width="1" stroke-linejoin="round"/>
</svg>