<svg xmlns="http://www.w3.org/2000/svg" viewBox="0 0 100 100" role="img" aria-label="Yemen">
  <title>Yemen</title>
  <path d="M75.779,23.191L75.832,23.315L76.044,23.810L76.365,24.562L76.686,25.314L77.007,26.066L77.327,26.818L77.648,27.570L77.970,28.322L78.290,29.074L78.612,29.826L78.933,30.577L79.254,31.330L79.575,32.081L79.897,32.833L80.218,33.585L80.538,34.337L80.859,35.089L81.180,35.841L81.418,36.398L81.404,36.402L81.364,36.408L81.353,36.412L81.463,36.482L81.746,36.498L81.874,36.544L81.954,36.651L82.244,37.303L82.713,38.358L83.182,39.412L83.652,40.467L84.120,41.519L84.118,41.521L83.962,41.602L83.606,41.698L83.329,41.630L83.247,41.707L83.159,41.723L83.071,41.728L82.994,41.770L82.851,41.919L82.767,41.981L82.582,42.041L82.325,42.191L82.010,42.252L81.858,42.319L81.583,42.486L81.468,42.535L80.424,42.810L79.935,43.039L79.094,43.631L78.330,44.255L78.136,44.468L78.036,44.623L77.901,44.895L77.655,45.184L77.601,45.270L77.568,45.367L77.568,45.447L77.587,45.542L77.610,45.616L77.623,45.638L77.566,45.782L77.397,45.975L77.320,46.293L77.140,46.506L77.106,46.648L77.165,46.797L77.270,46.972L77.339,47.153L77.256,47.474L77.377,47.590L77.623,47.716L77.629,47.832L77.568,48.386L77.601,48.727L77.674,49.056L77.727,49.103L77.761,49.144L77.777,49.189L77.769,49.237L77.729,49.307L77.721,49.346L77.714,49.410L77.692,49.469L77.653,49.513L77.595,49.529L77.432,49.549L76.293,49.872L76.230,49.925L76.176,49.982L76.132,50.018L76.066,50.038L75.951,50.049L75.877,50.066L75.287,50.298L74.995,50.483L75.001,50.655L74.995,50.689L74.977,50.699L74.959,50.699L74.950,50.704L74.954,50.794L74.929,50.806L74.888,50.781L74.843,50.762L74.788,50.732L74.729,50.680L74.658,50.661L74.563,50.733L74.509,50.762L74.129,50.841L73.538,51.169L73.442,51.263L73.404,51.374L73.446,51.526L73.512,51.609L73.511,51.661L73.353,51.720L72.559,51.796L72.416,51.844L72.288,51.912L72.175,51.990L71.995,52.203L71.844,52.212L71.786,52.236L71.764,52.285L71.681,52.289L71.302,52.457L71.196,52.522L71.005,52.460L70.795,52.546L70.600,52.674L70.453,52.740L68.960,53.146L67.320,53.455L65.896,53.856L65.090,53.933L64.380,54.230L64.177,54.347L63.620,54.831L63.506,54.897L63.200,54.954L62.762,55.190L62.279,55.532L62.171,55.538L62.030,55.481L61.843,55.525L61.528,55.669L61.385,55.712L61.321,55.723L61.246,55.727L61.201,55.566L61.156,55.477L61.090,55.485L60.978,55.523L60.498,55.567L59.421,55.930L57.767,56.357L56.884,56.854L56.564,56.983L56.223,57.039L56.071,57.117L55.776,57.327L55.146,57.619L54.856,57.827L54.794,58.076L54.719,58.063L54.605,58.002L54.457,57.951L54.281,57.970L54.125,58.053L54.014,58.158L53.640,58.701L53.503,58.976L53.431,59.299L53.489,59.339L53.493,59.428L53.474,59.520L53.456,59.570L53.365,59.632L53.058,59.759L52.991,59.807L52.947,59.993L52.840,60.060L52.705,60.087L52.581,60.150L52.546,60.206L52.531,60.273L52.530,60.448L52.506,60.490L52.453,60.532L52.401,60.584L52.323,60.799L52.193,60.883L51.910,61.006L51.465,61.569L51.324,61.654L51.281,61.668L51.192,61.736L51.146,61.760L51.098,61.770L51.039,61.760L50.163,61.741L50.038,61.784L49.703,62.079L49.631,62.108L49.569,62.112L49.509,62.125L49.443,62.186L49.305,62.017L49.042,61.969L48.463,61.973L48.485,62.003L48.520,62.079L48.208,62.085L47.342,62.340L47.378,62.151L47.258,62.028L47.091,61.943L46.979,61.862L46.928,61.920L46.721,61.819L46.052,61.654L45.938,61.717L45.540,61.840L45.409,61.862L45.305,61.933L44.924,62.399L44.582,62.579L43.429,62.979L43.267,63.088L42.656,63.742L41.694,64.608L41.410,64.788L39.674,65.328L37.761,65.735L37.103,66.179L36.176,66.537L36.050,66.561L35.900,66.539L35.633,66.455L35.456,66.455L35.297,66.500L34.972,66.642L34.821,66.672L33.267,66.668L32.941,66.614L32.778,66.523L32.679,66.490L32.635,66.531L32.600,66.550L32.401,66.614L31.754,66.720L30.473,66.778L30.342,66.809L30.097,66.911L29.986,66.933L29.671,66.919L29.534,66.932L29.444,66.991L28.411,67.225L28.158,67.358L27.436,68.108L27.231,68.263L27.123,68.373L27.028,68.662L26.672,69.123L26.439,69.342L26.156,69.470L24.867,69.790L24.571,69.950L24.302,70.187L24.199,70.318L24.162,70.386L24.119,70.463L24.115,70.475L24.065,70.611L24.046,70.749L24.033,70.772L23.856,71.235L23.840,71.313L23.881,71.629L23.855,71.742L23.710,71.787L23.548,71.759L23.375,71.686L23.260,71.584L23.272,71.467L23.396,71.419L23.548,71.433L23.679,71.418L23.734,71.284L23.705,71.281L23.590,71.127L23.580,71.095L23.566,71.065L23.577,71.030L23.577,71.001L23.529,70.989L23.485,71.005L23.479,71.039L23.485,71.076L23.478,71.095L23.425,71.186L23.401,71.201L23.363,71.193L23.293,71.157L23.247,71.149L23.078,71.158L23.000,71.182L22.966,71.228L22.913,71.348L22.791,71.450L22.652,71.476L22.551,71.361L22.452,71.419L22.421,71.487L22.454,71.680L22.510,71.630L22.556,71.618L22.787,71.642L22.822,71.669L22.807,71.762L22.761,71.850L22.652,71.939L22.525,71.992L22.427,71.975L22.212,71.887L22.146,71.845L22.101,71.781L22.102,71.745L22.084,71.718L21.988,71.680L21.803,71.662L21.651,71.714L21.373,71.898L21.365,71.863L21.336,71.817L21.322,71.787L21.356,71.707L21.309,71.601L21.216,71.496L21.116,71.419L20.807,71.307L20.493,71.294L20.210,71.356L19.985,71.467L19.588,71.809L19.160,72.275L19.145,72.317L19.090,72.412L19.030,72.458L19.002,72.350L18.966,72.340L18.789,72.409L18.571,72.464L18.085,72.700L17.918,72.718L17.768,72.700L17.627,72.703L17.346,72.855L17.181,72.863L17.033,72.809L16.948,72.700L17.050,72.709L17.233,72.745L17.337,72.754L17.401,72.700L17.398,72.597L17.346,72.533L17.260,72.594L17.064,72.568L16.822,72.666L16.380,72.913L16.165,72.970L16.040,72.975L15.850,72.910L15.623,73.007L15.509,73.019L15.365,72.925L15.232,72.651L15.122,72.594L14.968,72.572L14.845,72.517L14.633,72.376L14.512,72.316L14.371,72.265L14.214,72.230L14.047,72.216L13.944,72.180L13.657,72.008L13.507,71.951L13.241,71.956L13.170,71.924L13.056,71.839L12.983,71.802L12.915,71.787L12.818,71.825L12.391,72.260L12.352,72.300L12.248,72.356L12.091,72.376L11.920,72.351L11.877,72.277L12.019,71.653L12.025,71.352L11.959,71.083L11.807,70.834L11.580,70.619L11.550,70.539L11.526,70.442L11.473,70.380L11.420,70.329L11.396,70.269L11.386,70.116L11.357,69.969L11.308,69.832L11.238,69.708L10.973,69.401L10.931,69.309L10.920,69.249L10.828,69.065L10.757,68.866L10.726,68.804L10.276,68.232L10.107,67.678L10.206,67.434L10.272,67.171L10.316,65.787L10.469,65.546L10.498,65.476L10.512,65.417L10.543,65.368L10.623,65.328L10.524,65.082L10.549,64.541L10.516,64.264L10.269,63.785L10.236,63.702L10.158,63.063L10.114,62.992L9.622,62.458L9.453,62.043L9.294,61.691L9.125,61.446L9.041,60.860L8.977,60.583L8.903,60.349L8.765,59.954L8.551,59.231L8.491,59.075L8.454,58.833L8.360,58.608L8.333,58.360L8.313,58.289L8.271,58.246L8.134,58.145L8.103,58.101L8.117,58.008L8.153,57.970L8.209,57.984L8.286,58.047L8.365,58.202L8.454,58.558L8.570,58.657L8.573,58.431L8.559,58.326L8.514,58.231L8.623,57.910L8.540,57.651L8.394,57.415L8.313,57.163L8.330,57.107L8.399,57.027L8.416,56.981L8.407,56.934L8.388,56.911L8.369,56.898L8.337,56.803L8.286,56.764L8.235,56.738L8.212,56.711L8.194,56.671L8.158,56.634L8.121,56.581L8.064,56.316L8.057,56.229L7.975,55.956L7.617,55.499L7.535,55.217L7.520,55.054L7.533,54.969L7.592,54.983L7.626,55.044L7.613,55.095L7.590,55.157L7.592,55.243L7.645,55.388L7.736,55.547L7.858,55.688L8.001,55.780L8.009,55.668L8.057,55.408L8.051,55.250L7.971,54.971L7.938,54.713L7.899,54.616L7.835,54.534L7.644,54.348L7.562,54.247L7.509,54.118L7.489,53.933L7.526,53.513L7.489,53.378L7.388,53.249L7.125,53.129L6.884,52.920L6.733,52.821L6.568,52.740L6.408,52.681L6.242,52.643L6.093,52.643L5.984,52.708L5.943,52.868L5.860,52.889L5.690,52.825L5.542,52.695L5.532,52.522L5.483,52.414L5.567,52.405L5.817,52.464L5.945,52.445L6.027,52.392L6.073,52.309L6.097,52.203L6.089,52.121L6.012,52.006L5.994,51.910L6.190,51.543L6.251,51.459L6.290,51.558L6.271,51.687L6.216,51.807L6.153,51.884L6.296,51.950L6.411,52.022L6.715,52.283L6.751,52.338L6.767,52.440L6.747,52.585L6.773,52.636L6.870,52.681L6.877,52.618L6.867,52.578L6.845,52.549L6.818,52.522L6.931,52.402L6.976,52.226L6.960,51.630L6.888,51.354L6.767,51.134L6.737,51.025L6.740,50.940L6.757,50.860L6.767,50.762L6.762,50.670L6.745,50.581L6.715,50.487L6.607,50.292L6.302,49.872L6.318,49.808L6.408,49.699L6.337,49.621L6.269,49.529L6.219,49.421L6.199,49.293L6.278,49.016L6.260,48.900L6.097,48.843L6.152,48.723L6.227,48.658L6.315,48.604L6.408,48.524L6.470,48.445L6.501,48.377L6.509,48.293L6.512,48.171L6.551,47.953L6.651,47.802L6.784,47.695L6.921,47.610L7.058,47.497L7.135,47.360L7.169,47.182L7.232,46.116L7.209,45.761L7.003,44.667L6.974,44.088L6.965,44.034L6.921,43.873L6.927,43.879L6.931,43.856L6.930,43.817L6.921,43.772L6.899,43.731L6.838,43.652L6.829,43.633L7.188,43.507L7.451,43.395L7.645,43.260L7.709,43.135L7.700,43.009L7.680,42.891L7.709,42.789L7.789,42.755L8.080,42.701L8.190,42.661L8.518,42.467L8.681,42.346L8.774,42.212L8.968,41.703L8.999,41.556L9.009,41.391L9.046,41.284L9.142,41.244L9.330,41.279L9.631,41.370L9.759,41.346L9.805,41.201L9.802,41.189L9.757,41.007L9.689,40.888L9.673,40.781L9.781,40.619L9.848,40.570L9.917,40.540L9.974,40.499L10.006,40.417L9.995,40.316L9.945,40.232L9.867,40.171L9.589,40.094L9.503,40.023L9.412,39.739L9.254,39.435L9.224,39.303L9.275,39.109L9.396,38.809L9.428,38.659L9.429,38.489L9.386,38.318L9.327,38.188L9.297,38.062L9.341,37.901L9.499,37.593L9.541,37.434L9.534,37.255L9.580,37.101L9.736,36.978L9.934,36.894L10.106,36.855L10.274,36.772L10.301,36.616L10.223,36.449L10.076,36.336L9.647,36.196L9.668,36.160L10.029,35.718L10.683,35.159L11.342,34.747L11.506,34.684L11.672,34.662L11.809,34.694L12.064,34.704L12.185,34.735L12.738,34.972L13.057,35.160L13.581,35.744L13.891,35.989L14.041,36.042L14.177,36.043L14.458,36.011L14.755,36.038L14.886,36.032L15.062,35.979L15.106,36.000L15.106,36.085L15.087,36.240L15.117,36.303L15.142,36.340L15.186,36.364L15.275,36.383L15.452,36.357L15.569,36.241L15.665,36.089L15.779,35.955L15.941,35.869L16.069,35.883L16.357,36.031L16.552,36.059L16.696,35.993L16.810,35.853L16.919,35.660L17.030,35.581L17.183,35.600L17.499,35.692L17.642,35.682L18.218,35.549L18.944,35.473L19.402,35.490L19.917,35.596L20.128,35.584L20.599,35.407L20.762,35.371L22.282,35.381L23.209,35.387L23.395,35.389L24.656,35.397L25.082,35.483L26.302,36.191L26.645,36.304L28.235,36.467L30.099,36.657L31.519,36.803L33.339,36.989L34.580,36.818L36.247,36.589L36.525,36.750L37.010,37.422L37.565,38.192L38.200,39.070L38.295,39.131L38.400,39.135L39.388,39.178L39.633,39.143L39.854,39.054L40.775,38.517L41.630,38.019L41.638,38.009L41.858,37.715L42.360,36.338L42.715,35.367L42.842,35.126L43.571,34.219L44.691,32.829L45.877,31.354L46.559,30.510L47.141,29.786L47.309,29.669L48.271,29.181L49.560,28.528L50.998,27.799L52.285,27.147L53.364,26.600L53.698,26.430L54.395,26.178L55.364,26.042L56.566,25.875L57.768,25.707L58.970,25.539L60.171,25.371L61.373,25.203L62.575,25.035L63.777,24.868L64.979,24.700L66.180,24.531L67.383,24.364L68.584,24.196L69.786,24.028L70.988,23.860L72.190,23.692L73.392,23.524L74.594,23.356L75.779,23.191ZM85.306,76.732L85.454,76.674L85.595,76.685L85.679,76.728L85.755,76.755L85.771,76.809L85.525,76.791L85.417,76.783L85.306,76.732ZM83.841,76.315L83.956,76.315L84.065,76.394L84.096,76.520L84.091,76.631L83.982,76.662L83.867,76.678L83.643,76.589L83.493,76.457L83.332,76.410L83.358,76.336L83.472,76.299L83.570,76.310L83.649,76.278L83.732,76.273L83.841,76.315ZM78.109,76.113L78.336,76.211L78.751,76.115L78.862,76.141L78.862,76.141L78.901,76.218L78.802,76.255L78.724,76.341L78.782,76.387L78.854,76.518L78.640,76.479L78.550,76.499L78.420,76.539L78.075,76.474L77.742,76.455L77.703,76.390L77.623,76.273L77.576,76.271L77.528,76.268L77.370,76.317L77.289,76.331L77.258,76.304L77.174,76.178L77.157,76.140L77.117,76.149L76.965,76.084L76.868,76.104L76.782,76.130L76.733,76.090L76.703,76.065L76.453,75.948L76.420,75.843L76.530,75.810L76.645,75.794L76.828,75.796L77.048,75.848L77.281,76.011L77.443,76.069L77.566,76.062L77.786,76.101L78.109,76.113ZM11.627,72.429L11.727,72.480L11.739,72.507L11.777,72.591L11.766,72.703L11.678,72.754L11.627,72.734L11.539,72.640L11.495,72.594L11.408,72.616L11.355,72.591L11.336,72.487L11.392,72.453L11.458,72.435L11.627,72.429ZM94.478,73.444L94.675,73.417L94.818,73.328L94.899,73.337L95.000,73.392L94.907,73.491L94.683,73.553L94.522,73.607L94.378,73.633L94.297,73.696L94.283,73.902L93.965,74.038L93.712,74.098L93.408,74.223L93.072,74.193L92.791,74.301L92.728,74.365L92.587,74.566L92.520,74.610L92.325,74.698L92.109,74.875L92.000,74.941L91.777,74.922L91.428,74.947L91.303,74.928L91.178,74.964L91.008,75.108L90.840,75.051L90.839,75.051L90.721,75.015L90.490,75.070L90.169,75.123L89.268,75.302L88.929,75.337L88.492,75.291L88.082,75.164L87.736,75.071L87.584,74.917L87.464,74.766L87.341,74.612L87.236,74.435L87.039,74.366L86.728,74.157L85.950,73.662L85.767,73.490L85.745,73.445L85.811,73.391L86.012,73.451L86.166,73.433L86.328,73.336L86.364,73.310L86.377,73.240L86.441,73.101L86.468,73.019L86.414,72.564L86.524,72.520L86.654,72.495L86.970,72.448L87.041,72.330L87.122,72.213L87.193,72.131L87.336,72.113L87.748,72.196L87.991,72.225L88.169,72.207L88.355,72.188L88.650,72.461L89.167,72.851L89.506,72.942L89.791,73.015L89.944,72.825L90.015,72.636L90.221,72.591L90.364,72.609L90.497,72.674L90.747,72.638L91.007,72.648L91.285,72.486L91.383,72.450L91.562,72.333L91.644,72.234L91.842,72.216L91.938,72.316L92.045,72.398L92.206,72.498L92.323,72.471L92.413,72.417L92.451,72.435L92.527,72.524L92.587,72.594L92.727,72.599L92.897,72.634L92.967,72.754L93.083,72.800L93.343,72.918L93.648,72.983L93.953,73.157L94.112,73.206L94.478,73.444ZM6.302,64.105L6.621,63.874L6.777,63.814L6.870,63.892L6.847,64.042L6.619,64.286L6.563,64.453L6.487,64.527L6.072,64.718L6.071,64.719L6.055,64.624L6.051,64.604L6.051,64.604L6.109,64.443L6.302,64.105ZM6.610,61.596L6.665,61.543L6.876,61.810L6.921,61.920L6.920,62.004L6.818,62.292L6.807,62.536L6.822,62.671L6.771,62.723L6.563,62.717L6.665,62.500L6.507,62.439L6.319,62.338L6.251,62.276L6.163,62.194L6.152,62.160L6.097,61.997L6.164,61.880L6.315,61.742L6.487,61.632L6.610,61.596ZM5.677,50.841L5.485,50.967L5.461,51.017L5.493,51.030L5.497,51.067L5.468,51.115L5.399,51.168L5.292,51.222L5.269,51.261L5.351,51.278L5.449,51.250L5.546,51.195L5.619,51.206L5.618,51.301L5.529,51.600L5.508,51.704L5.523,51.769L5.507,51.830L5.470,51.865L5.478,51.880L5.521,51.865L5.513,51.912L5.361,52.141L5.274,52.222L5.170,52.217L5.087,52.149L5.000,52.018L5.001,51.843L5.078,51.652L5.099,51.251L5.189,51.117L5.285,51.018L5.358,50.957L5.388,50.891L5.421,50.835L5.586,50.749L5.640,50.773L5.677,50.841Z" fill="currentColor" stroke="currentColor" stroke-width="1" stroke-linejoin="round"/>
</svg>