<svg xmlns="http://www.w3.org/2000/svg" viewBox="0 0 100 100" role="img" aria-label="South Africa">
  <title>South Africa</title>
  <path d="M28.386,14.515L28.400,14.574L28.420,14.600L28.472,14.644L28.528,14.742L28.683,14.878L28.763,14.978L28.796,15.004L28.824,15.012L28.886,15.017L28.917,15.026L29.144,15.180L29.530,15.532L29.562,15.579L29.655,15.802L29.736,15.944L29.768,16.022L29.764,16.075L29.738,16.136L29.766,16.185L29.821,16.222L29.879,16.247L29.884,16.342L29.890,16.365L29.909,16.387L29.963,16.417L29.982,16.439L29.989,16.473L29.978,16.496L29.964,16.516L29.965,16.543L29.977,16.569L30.008,16.615L30.020,16.644L30.040,16.757L30.059,16.797L30.109,16.832L30.196,16.876L30.213,16.909L30.222,16.980L30.268,16.973L30.266,17.004L30.249,17.049L30.251,17.086L30.281,17.101L30.308,17.088L30.334,17.070L30.362,17.069L30.400,17.107L30.312,17.168L30.292,17.225L30.287,17.326L30.421,17.458L30.445,17.554L30.426,17.589L30.361,17.634L30.345,17.659L30.354,17.699L30.385,17.711L30.420,17.717L30.443,17.739L30.445,17.779L30.419,17.857L30.419,17.895L30.444,17.932L30.520,17.974L30.551,18.002L30.580,18.066L30.643,18.306L30.611,18.376L30.609,18.409L30.650,18.394L30.679,18.377L30.697,18.379L30.730,18.421L30.730,18.435L30.811,18.651L30.837,18.964L30.830,19.225L30.840,19.293L30.952,19.511L30.942,19.567L30.813,19.767L30.758,19.907L30.689,20.036L30.517,20.274L30.429,20.454L30.387,20.513L30.299,20.584L30.286,20.628L30.247,20.822L30.239,20.927L30.247,21.020L30.266,21.064L30.314,21.139L30.328,21.192L30.323,21.275L30.258,21.521L30.259,21.630L30.276,21.764L30.306,21.895L30.347,21.995L30.366,22.022L30.383,22.041L30.428,22.075L30.457,22.115L30.487,22.230L30.503,22.266L30.511,22.256L30.575,22.206L30.767,22.108L30.906,22.002L30.983,21.957L31.150,21.934L31.277,21.992L31.397,22.073L31.791,22.170L31.883,22.167L32.143,22.086L32.186,22.085L32.270,22.097L32.312,22.095L32.562,22.021L32.699,22.016L32.767,22.029L32.914,22.102L33.168,22.109L33.345,22.161L33.409,22.162L33.476,22.134L33.645,22.008L33.701,21.950L33.734,21.886L33.746,21.819L33.743,21.749L33.716,21.587L33.720,21.530L33.755,21.492L33.835,21.461L33.929,21.443L34.218,21.440L34.407,21.391L34.582,21.273L34.733,21.107L34.846,20.916L34.942,20.629L34.999,20.499L35.119,20.364L35.151,20.292L35.178,20.270L35.315,20.244L35.361,20.226L35.433,20.185L35.589,20.020L35.690,19.856L35.755,19.796L35.850,19.777L35.985,19.809L36.037,19.786L36.093,19.691L36.142,19.566L36.175,19.518L36.234,19.472L36.263,19.439L36.270,19.431L36.394,19.221L36.397,19.179L36.386,19.143L36.384,19.111L36.416,19.082L36.501,19.047L36.530,19.024L36.557,18.978L36.571,18.917L36.580,18.832L36.579,18.751L36.564,18.705L36.525,18.640L36.557,18.579L36.617,18.522L36.662,18.468L36.694,18.406L36.690,18.384L36.672,18.332L36.651,18.296L36.633,18.289L36.622,18.277L36.620,18.227L36.638,18.148L36.677,18.074L36.811,17.902L36.828,17.866L36.836,17.829L36.842,17.777L36.837,17.738L36.826,17.706L36.830,17.677L36.870,17.643L36.897,17.608L36.883,17.570L36.855,17.531L36.837,17.495L36.839,17.465L36.848,17.435L36.871,17.379L36.931,17.155L36.951,17.119L37.026,17.086L37.059,17.043L37.107,16.902L37.131,16.858L37.157,16.827L37.188,16.804L37.229,16.784L37.263,16.760L37.276,16.732L37.283,16.701L37.299,16.669L37.415,16.538L37.486,16.497L37.557,16.508L37.577,16.537L37.590,16.574L37.608,16.593L37.645,16.570L37.673,16.544L37.897,16.426L38.039,16.380L38.187,16.368L38.350,16.402L38.486,16.460L38.533,16.472L38.586,16.467L38.683,16.427L38.722,16.420L38.765,16.434L38.791,16.463L38.837,16.540L38.876,16.587L38.906,16.611L38.993,16.655L39.069,16.706L39.384,16.979L39.406,17.015L39.444,17.058L39.611,17.115L39.639,17.142L39.669,17.218L39.689,17.250L39.717,17.269L39.778,17.291L39.804,17.309L39.917,17.474L40.052,17.582L40.097,17.653L40.154,17.692L40.308,17.649L40.343,17.656L40.373,17.677L40.405,17.706L40.407,17.735L40.391,17.766L40.396,17.784L40.459,17.773L40.769,17.681L40.926,17.680L41.058,17.763L41.264,18.033L41.390,18.136L41.540,18.163L41.622,18.140L41.682,18.112L41.742,18.104L41.873,18.158L42.100,18.250L42.258,18.369L42.363,18.395L42.581,18.368L42.679,18.392L42.762,18.416L42.852,18.405L43.030,18.353L43.090,18.325L43.267,18.176L43.403,18.104L43.517,18.085L43.632,18.106L43.769,18.153L43.894,18.177L44.516,18.106L44.731,17.989L45.116,17.656L45.180,17.438L45.311,17.090L45.343,17.006L45.439,16.535L45.700,15.888L45.765,15.647L45.856,15.471L45.861,15.336L45.948,15.115L45.980,14.999L45.981,14.853L45.950,14.588L45.955,14.499L45.972,14.482L45.994,14.477L46.093,14.440L46.246,14.446L46.291,14.420L46.388,14.341L46.843,14.183L47.179,14.066L47.319,14.043L47.376,14.049L47.432,14.064L47.486,14.069L47.553,14.081L47.554,14.081L47.749,13.859L47.770,13.817L47.858,13.560L47.933,13.450L48.014,13.376L48.208,13.236L48.389,13.026L48.415,12.972L48.478,12.933L48.742,12.838L48.804,12.799L48.852,12.751L48.883,12.687L48.941,12.370L48.947,12.208L49.156,11.246L49.168,11.148L49.147,11.074L49.232,10.901L49.226,10.872L49.219,10.837L49.234,10.769L49.292,10.654L49.344,10.505L49.373,10.479L49.404,10.493L49.421,10.537L49.444,10.577L49.495,10.580L49.541,10.542L49.539,10.490L49.520,10.427L49.515,10.355L49.536,10.366L49.556,10.380L49.566,10.346L49.583,10.325L49.638,10.281L49.618,10.281L49.641,10.237L49.670,10.210L49.703,10.206L49.740,10.231L49.753,10.188L49.737,10.165L49.712,10.141L49.699,10.096L49.712,10.067L49.743,10.061L49.777,10.076L49.801,10.110L49.814,10.085L49.836,10.055L49.843,10.033L49.865,10.062L49.889,10.076L49.916,10.075L49.946,10.060L49.903,9.991L49.936,9.948L50.047,9.909L50.162,9.845L50.214,9.802L50.263,9.749L50.333,9.623L50.376,9.584L50.410,9.696L50.440,9.676L50.468,9.634L50.477,9.613L50.513,9.593L50.557,9.576L50.581,9.583L50.559,9.635L50.601,9.660L50.630,9.638L50.654,9.597L50.683,9.561L50.722,9.544L50.846,9.539L50.910,9.517L50.970,9.472L51.014,9.407L51.031,9.326L51.026,9.302L51.018,9.273L51.013,9.249L51.021,9.239L51.032,9.233L51.042,9.218L51.049,9.197L51.051,9.177L51.064,9.121L51.120,9.051L51.146,8.950L51.180,8.951L51.222,8.975L51.263,8.990L51.298,8.975L51.416,8.866L51.498,8.968L51.538,8.990L51.581,8.965L51.598,8.931L51.642,8.792L51.647,8.790L51.669,8.770L51.673,8.765L51.687,8.759L51.682,8.744L51.669,8.728L51.663,8.718L51.657,8.700L51.644,8.675L51.635,8.647L51.642,8.619L51.674,8.625L51.739,8.630L51.786,8.611L51.766,8.544L51.880,8.511L52.004,8.453L52.107,8.372L52.155,8.270L52.131,8.117L52.130,8.034L52.165,7.998L52.222,7.988L52.285,7.961L52.341,7.929L52.381,7.899L52.428,7.844L52.465,7.772L52.477,7.691L52.452,7.613L52.457,7.574L52.512,7.545L52.581,7.522L52.626,7.501L52.638,7.479L52.654,7.424L52.667,7.402L52.691,7.388L52.721,7.380L52.752,7.367L52.779,7.339L52.801,7.292L52.802,7.263L52.793,7.235L52.787,7.191L52.793,7.144L52.808,7.109L52.902,6.975L52.929,6.955L52.962,6.945L53.035,6.936L53.064,6.917L53.172,6.773L53.217,6.730L53.327,6.660L53.441,6.625L53.687,6.606L53.876,6.661L53.923,6.644L53.987,6.582L54.040,6.571L54.099,6.581L54.178,6.581L54.283,6.542L54.499,6.404L54.628,6.359L54.694,6.347L54.754,6.328L54.797,6.289L54.813,6.220L54.843,6.172L54.911,6.168L55.040,6.186L55.093,6.139L55.162,5.994L55.191,5.963L55.205,5.920L55.182,5.666L55.252,5.564L55.309,5.496L55.355,5.466L55.354,5.449L55.416,5.353L55.443,5.340L55.805,5.317L55.858,5.294L55.906,5.246L55.963,5.202L56.041,5.191L56.205,5.231L56.290,5.240L56.345,5.218L56.366,5.234L56.385,5.239L56.429,5.241L56.493,5.202L56.602,5.133L56.664,5.117L56.813,5.158L56.888,5.167L56.920,5.131L56.945,5.071L57.002,5.056L57.103,5.067L57.214,5.010L57.275,5.000L57.329,5.043L57.364,5.028L57.565,5.016L57.626,5.036L57.800,5.167L57.901,5.191L57.975,5.235L58.082,5.246L58.126,5.260L58.207,5.317L58.237,5.331L58.301,5.347L58.331,5.364L58.388,5.434L58.392,5.450L58.399,5.461L58.488,5.473L58.531,5.494L58.617,5.565L58.688,5.606L58.741,5.610L58.873,5.589L58.947,5.596L59.002,5.615L59.047,5.646L59.089,5.688L59.183,5.763L59.285,5.791L59.395,5.786L59.517,5.762L59.573,5.742L59.685,5.683L59.743,5.666L59.799,5.664L59.993,5.689L60.079,5.688L60.106,5.697L60.152,5.732L60.172,5.740L60.217,5.725L60.297,5.660L60.356,5.639L60.688,5.609L60.786,5.565L60.873,5.591L61.052,5.613L61.377,5.700L61.479,5.751L61.531,5.762L61.559,5.755L61.581,5.750L61.680,5.696L61.725,5.688L61.757,5.711L61.818,5.794L61.838,5.812L61.860,5.819L61.907,5.853L61.931,5.864L61.955,5.861L62.003,5.837L62.032,5.839L62.062,5.866L62.132,5.982L62.102,6.047L62.234,6.509L62.388,7.048L62.542,7.586L62.665,8.016L62.870,8.734L62.888,8.844L62.826,9.671L62.844,9.820L62.900,9.949L63.186,10.295L63.245,10.426L63.360,10.879L63.481,11.197L63.523,11.273L63.580,11.332L63.772,11.491L63.807,11.537L63.823,11.595L63.826,11.654L63.845,12.228L63.864,12.382L64.034,12.791L64.138,13.043L64.214,13.321L64.230,13.602L64.205,13.851L64.208,14.355L64.211,14.966L64.213,15.398L64.216,15.975L64.220,16.762L64.169,16.939L64.157,17.031L64.154,17.150L64.165,17.263L64.196,17.338L64.213,17.413L64.241,17.641L64.241,17.719L64.229,17.768L64.208,17.790L64.179,17.809L64.141,17.850L64.118,17.893L63.991,18.257L63.973,18.357L63.985,18.466L64.102,18.883L63.931,18.976L63.846,18.999L63.760,18.970L63.499,18.784L63.450,18.749L63.176,18.555L62.860,18.330L62.543,18.106L62.468,18.078L62.380,18.080L62.276,18.110L62.192,18.156L61.891,18.450L61.627,18.709L61.588,18.785L61.543,18.976L61.382,19.398L61.179,19.793L60.963,20.092L60.686,20.475L60.622,20.747L60.625,21.132L60.630,21.633L60.660,21.881L60.680,21.966L60.732,21.963L60.781,21.952L60.832,21.921L60.878,21.879L60.912,21.833L60.927,21.882L60.979,22.047L61.018,22.113L61.104,22.211L61.135,22.265L61.153,22.337L61.149,22.427L61.118,22.569L61.131,22.659L61.198,22.785L61.504,23.087L61.647,23.320L61.693,23.370L61.738,23.403L62.000,23.501L62.105,23.541L62.334,23.626L62.641,23.741L62.841,23.785L63.170,23.790L63.605,23.796L63.892,23.800L64.159,23.804L64.158,23.756L64.149,23.715L64.134,23.677L64.113,23.637L64.097,23.584L64.089,23.316L64.087,23.246L64.081,23.023L64.133,22.690L64.180,22.392L64.231,22.072L64.224,21.964L64.424,21.965L64.472,21.975L64.546,22.055L64.594,22.079L64.681,22.099L64.833,22.080L64.919,22.083L65.137,22.122L65.305,22.152L65.653,22.142L66.039,22.129L66.458,22.116L66.919,22.101L66.882,22.248L66.836,22.721L66.781,22.952L66.774,23.030L66.759,23.106L66.652,23.268L66.644,23.299L66.632,23.404L66.625,23.435L66.598,23.490L66.585,23.586L66.273,24.545L66.066,25.607L66.062,25.688L66.056,25.725L66.028,25.811L66.019,25.850L66.019,25.894L66.035,25.962L66.039,26.001L65.897,26.903L65.877,26.970L65.627,27.393L65.610,27.451L65.598,27.534L65.565,27.610L65.513,27.665L65.447,27.687L65.458,27.722L65.468,27.732L65.484,27.726L65.508,27.712L65.532,27.837L65.499,27.972L65.450,28.103L65.424,28.221L65.386,28.285L65.129,28.568L65.090,28.601L64.994,28.651L64.955,28.679L64.927,28.719L64.871,28.823L64.832,28.877L64.504,29.178L64.422,29.106L64.304,29.126L64.236,29.203L64.302,29.302L64.326,29.271L64.365,29.234L64.413,29.206L64.463,29.200L64.406,29.317L64.290,29.421L63.921,29.632L63.812,29.656L63.698,29.652L63.565,29.623L63.568,29.654L63.574,29.675L63.585,29.689L63.605,29.700L63.605,29.722L63.514,29.783L62.933,30.491L62.792,30.626L62.745,30.650L62.727,30.664L62.720,30.687L62.708,30.750L62.697,30.764L62.658,30.792L62.544,30.963L62.501,31.003L62.399,31.071L62.359,31.110L62.344,31.146L62.328,31.221L62.290,31.246L62.266,31.269L62.244,31.297L62.220,31.362L61.827,31.935L61.435,32.767L61.404,32.910L61.436,33.051L61.317,33.050L61.288,33.079L61.273,33.175L61.318,33.148L61.420,33.112L61.458,33.073L61.458,33.100L61.453,33.126L61.443,33.151L61.417,33.197L61.340,33.296L61.030,33.595L60.943,33.710L60.799,33.975L60.632,34.389L60.200,35.193L60.140,35.340L60.128,35.395L60.104,35.447L59.963,35.608L59.456,36.597L59.371,36.725L59.324,36.777L59.281,36.797L59.241,36.834L59.147,37.047L58.870,37.434L58.653,37.737L58.569,37.799L58.472,38.016L58.315,38.210L57.879,38.643L57.826,38.672L57.642,38.727L57.574,38.760L57.515,38.809L57.490,38.872L57.307,39.107L57.242,39.136L57.215,39.156L57.195,39.226L57.174,39.254L57.151,39.275L57.134,39.282L57.068,39.300L57.014,39.345L56.918,39.456L56.871,39.485L56.753,39.530L56.676,39.587L56.650,39.594L56.622,39.596L56.590,39.606L56.576,39.608L56.543,39.603L56.529,39.606L56.511,39.630L56.515,39.649L56.526,39.665L56.529,39.681L56.470,39.816L56.382,39.868L56.366,39.890L56.354,39.979L56.321,40.027L56.224,40.101L56.126,40.212L56.080,40.280L56.060,40.338L56.053,40.373L55.999,40.473L55.967,40.492L55.959,40.499L55.953,40.514L55.944,40.558L55.938,40.571L55.741,40.665L55.712,40.710L55.700,40.769L55.670,40.836L55.588,40.969L55.221,41.379L54.914,41.815L54.755,41.916L54.729,41.952L54.328,42.335L54.260,42.438L54.234,42.461L54.185,42.486L54.158,42.507L54.048,42.627L53.995,42.702L53.973,42.769L53.953,42.813L53.622,43.079L53.546,43.121L53.449,43.206L53.400,43.232L53.391,43.289L53.322,43.345L53.175,43.427L53.034,43.532L52.945,43.582L52.780,43.632L52.705,43.705L52.647,43.806L52.624,43.913L52.597,43.990L52.532,44.066L52.226,44.328L52.136,44.361L52.109,44.390L52.070,44.448L52.030,44.473L52.025,44.486L52.024,44.505L52.021,44.525L52.009,44.543L51.866,44.610L51.808,44.678L51.775,44.694L51.717,44.703L51.570,44.760L51.518,44.792L51.252,45.082L51.152,45.166L50.941,45.248L50.907,45.278L50.894,45.284L50.824,45.389L50.801,45.402L50.778,45.409L50.753,45.406L50.722,45.389L50.700,45.481L50.629,45.560L50.467,45.693L50.394,45.737L50.382,45.737L50.369,45.728L50.359,45.718L50.353,45.715L50.343,45.726L50.331,45.764L50.013,45.988L49.985,46.024L49.759,46.135L49.712,46.173L49.689,46.198L49.679,46.223L49.673,46.250L49.657,46.279L49.633,46.301L49.606,46.310L49.545,46.321L49.286,46.464L49.228,46.479L49.157,46.484L49.090,46.505L48.923,46.654L48.863,46.671L48.719,46.689L48.619,46.750L48.333,46.875L48.297,46.879L48.274,46.895L48.254,46.963L48.235,46.978L48.170,46.988L47.885,47.135L47.768,47.167L47.645,47.174L47.392,47.136L47.313,47.139L47.255,47.165L47.203,47.175L47.133,47.144L47.021,47.077L46.624,46.996L46.214,46.974L45.952,47.014L45.707,47.092L45.485,47.203L45.390,47.279L45.312,47.379L45.255,47.497L45.206,47.700L45.198,47.786L45.212,47.825L45.270,47.854L45.283,47.886L45.298,47.908L45.384,47.972L45.439,48.064L45.465,48.096L45.461,48.125L45.455,48.136L45.445,48.148L45.351,48.117L45.286,48.139L45.226,48.177L45.148,48.197L45.055,48.186L44.897,48.135L44.811,48.121L44.662,48.140L44.588,48.141L44.508,48.092L44.402,48.074L44.300,47.997L44.191,47.953L43.938,47.884L43.665,47.878L43.397,47.916L43.222,47.967L43.151,48.006L43.104,48.062L43.146,48.211L43.113,48.283L43.062,48.346L43.031,48.370L42.889,48.501L42.868,48.556L42.880,48.600L42.908,48.624L42.937,48.641L42.949,48.667L42.939,48.699L42.888,48.739L42.868,48.766L42.848,48.766L42.810,48.712L42.747,48.691L42.543,48.685L42.379,48.640L42.310,48.631L42.122,48.667L42.065,48.662L41.807,48.593L41.678,48.525L41.573,48.429L41.515,48.407L41.152,48.363L41.100,48.333L41.059,48.304L40.865,48.220L40.332,48.170L40.267,48.155L40.139,48.107L39.821,48.074L39.291,47.948L39.151,47.953L38.670,48.066L38.606,48.095L38.549,48.134L38.501,48.184L38.472,48.263L38.492,48.335L38.545,48.385L38.613,48.395L38.613,48.420L37.582,48.321L37.566,48.298L37.548,48.194L37.540,48.170L37.451,48.163L37.414,48.148L37.388,48.121L37.399,48.176L37.421,48.197L37.450,48.209L37.480,48.233L37.510,48.284L37.510,48.310L37.490,48.333L37.472,48.315L37.431,48.302L37.348,48.294L37.310,48.303L37.281,48.316L37.250,48.325L37.203,48.321L36.965,48.245L36.870,48.185L36.831,48.173L36.798,48.150L36.774,48.096L36.767,48.062L36.769,48.037L36.789,48.023L36.835,48.024L36.788,47.983L36.722,47.962L36.590,47.948L36.618,48.002L36.658,48.056L36.705,48.099L36.753,48.121L36.698,48.140L36.626,48.126L36.290,48.006L36.230,47.997L36.152,48.000L36.093,48.011L36.044,48.034L35.890,48.163L35.769,48.228L35.635,48.259L35.356,48.227L35.231,48.230L34.975,48.294L34.915,48.323L34.866,48.361L34.779,48.458L34.741,48.534L34.754,48.593L34.798,48.636L34.851,48.667L34.810,48.703L34.750,48.724L34.362,48.783L34.252,48.832L34.176,48.915L34.167,48.974L34.183,49.093L34.154,49.133L34.095,49.239L34.078,49.252L33.901,49.357L33.779,49.403L33.652,49.428L33.522,49.436L33.208,49.372L33.096,49.302L33.030,49.285L32.965,49.298L32.840,49.350L32.736,49.370L32.714,49.390L32.701,49.415L32.685,49.436L32.666,49.452L32.467,49.540L32.338,49.560L32.209,49.549L31.719,49.365L31.600,49.338L31.310,49.311L31.167,49.327L31.048,49.387L31.070,49.387L30.899,49.436L30.844,49.464L30.925,49.477L30.996,49.532L31.032,49.608L31.007,49.684L30.951,49.706L30.424,49.610L30.006,49.667L29.882,49.726L29.778,49.809L29.615,50.031L29.559,50.086L29.502,50.109L29.459,50.118L29.439,50.142L29.423,50.174L29.392,50.208L29.366,50.221L29.270,50.260L29.221,50.293L29.167,50.344L29.123,50.405L29.105,50.467L29.073,50.456L29.000,50.476L28.879,50.529L28.658,50.691L28.574,50.805L28.614,50.902L28.614,50.925L28.566,50.938L28.488,50.989L28.439,50.999L28.392,50.993L28.345,50.975L28.302,50.951L28.114,50.810L28.071,50.766L28.018,50.738L27.540,50.752L27.497,50.763L27.447,50.813L27.406,50.826L27.374,50.819L27.354,50.796L27.340,50.771L27.326,50.752L27.176,50.659L26.948,50.428L26.795,50.340L26.749,50.304L26.702,50.246L26.647,50.202L26.575,50.193L26.503,50.213L26.447,50.260L26.421,50.241L26.394,50.235L26.368,50.241L26.343,50.260L26.354,50.219L26.531,49.973L26.546,49.934L26.532,49.834L26.485,49.719L26.423,49.611L26.365,49.535L26.323,49.504L26.285,49.494L26.077,49.538L25.894,49.525L25.854,49.513L25.813,49.473L25.758,49.370L25.711,49.338L25.711,49.313L25.788,49.299L25.823,49.246L25.843,49.170L25.874,49.088L25.822,49.118L25.752,49.237L25.720,49.263L25.492,49.248L25.454,49.251L25.368,49.283L25.077,49.333L25.015,49.374L25.003,49.404L24.974,49.412L24.940,49.405L24.912,49.387L24.884,49.343L24.888,49.307L24.912,49.263L24.892,49.144L24.891,49.115L24.901,49.075L24.915,49.058L24.932,49.045L24.953,49.014L24.978,48.943L24.974,48.890L24.931,48.766L24.927,48.692L24.953,48.659L24.994,48.629L25.033,48.566L24.908,48.373L24.860,48.346L24.683,48.302L24.404,48.275L24.129,48.289L24.085,48.308L24.059,48.325L23.951,48.370L23.900,48.409L23.875,48.434L23.847,48.472L23.803,48.518L23.790,48.544L23.786,48.593L23.794,48.631L23.809,48.650L23.828,48.666L23.847,48.690L23.888,48.841L23.893,48.876L23.895,48.909L23.868,49.149L23.880,49.223L23.931,49.263L23.875,49.280L23.801,49.241L23.730,49.175L23.685,49.115L23.613,48.971L23.603,48.928L23.607,48.905L23.620,48.855L23.624,48.827L23.618,48.814L23.605,48.805L23.591,48.799L23.583,48.791L23.554,48.696L23.530,48.657L23.444,48.627L23.416,48.592L23.409,48.545L23.418,48.494L23.440,48.466L23.468,48.456L23.491,48.437L23.501,48.383L23.503,48.333L23.508,48.295L23.521,48.259L23.542,48.220L23.498,48.226L23.481,48.232L23.458,48.247L23.416,48.179L23.412,48.127L23.436,48.079L23.481,48.024L23.522,47.957L23.554,47.827L23.583,47.750L23.680,47.671L23.794,47.674L23.891,47.658L23.931,47.525L23.918,47.456L23.860,47.362L23.847,47.315L23.840,47.243L23.761,46.922L23.683,46.764L23.666,46.693L23.639,46.679L23.501,46.508L23.452,46.476L23.428,46.454L23.418,46.422L23.418,46.272L23.410,46.197L23.390,46.135L23.316,46.011L23.231,45.918L22.908,45.688L22.938,45.626L22.920,45.555L22.845,45.413L22.806,45.317L22.734,45.216L22.725,45.178L22.697,45.131L22.560,44.996L22.509,44.968L22.448,44.943L22.406,44.884L22.373,44.818L22.338,44.768L22.414,44.729L22.458,44.717L22.490,44.730L22.513,44.772L22.530,44.811L22.550,44.845L22.584,44.869L22.571,44.908L22.592,44.938L22.674,45.005L22.729,45.084L22.768,45.126L22.806,45.141L22.853,45.113L22.840,45.072L22.776,45.005L22.760,44.975L22.754,44.913L22.746,44.889L22.732,44.880L22.699,44.876L22.684,44.869L22.619,44.802L22.594,44.766L22.584,44.730L22.593,44.574L22.584,44.520L22.542,44.450L22.471,44.414L22.384,44.407L22.295,44.421L22.322,44.479L22.338,44.498L22.301,44.507L22.270,44.523L22.212,44.570L22.179,44.532L22.161,44.494L22.154,44.460L22.152,44.435L22.141,44.404L22.120,44.371L22.110,44.331L22.131,44.275L22.116,44.247L22.080,44.142L22.062,44.062L22.059,44.032L22.070,44.001L22.100,43.963L22.117,43.918L22.101,43.876L22.032,43.781L22.015,43.771L22.004,43.758L22.006,43.726L22.018,43.722L22.040,43.727L22.060,43.728L22.069,43.714L22.079,43.703L22.125,43.661L22.142,43.652L22.166,43.647L22.171,43.634L22.172,43.615L22.182,43.590L22.184,43.562L22.182,43.450L22.192,43.405L22.233,43.371L22.303,43.341L22.375,43.324L22.419,43.328L22.397,43.355L22.432,43.409L22.584,43.553L22.713,43.606L22.827,43.576L22.926,43.497L23.287,43.121L23.357,42.980L23.400,42.850L23.470,42.555L23.481,42.411L23.467,42.159L23.449,42.101L23.414,42.020L23.430,41.961L23.501,41.864L23.515,41.718L23.400,41.244L23.366,40.857L23.313,40.699L23.296,40.621L23.303,40.462L23.299,40.386L23.265,40.312L23.228,40.261L23.194,40.200L23.176,40.152L23.173,40.119L23.176,40.090L23.173,40.052L23.110,39.799L23.060,39.678L22.988,39.555L22.849,39.370L22.827,39.318L22.821,39.291L22.684,39.084L22.542,38.928L22.519,38.872L22.500,38.806L22.455,38.751L22.356,38.659L22.240,38.470L22.155,38.401L22.125,38.311L22.090,38.140L22.053,38.095L21.931,37.992L21.904,37.954L21.888,37.907L21.727,37.629L21.712,37.618L21.682,37.529L21.670,37.506L21.631,37.444L21.568,37.281L21.537,37.220L21.330,36.912L21.164,36.565L21.149,36.513L21.124,36.380L21.087,36.253L20.912,36.001L20.832,35.844L20.843,35.707L20.770,35.618L20.603,35.294L20.576,35.210L20.521,35.139L20.329,34.788L20.316,34.751L20.307,34.658L20.281,34.543L20.269,34.512L20.262,34.416L20.105,34.127L20.065,34.006L20.054,33.865L19.984,33.575L19.797,33.111L19.778,32.988L19.771,32.970L19.757,32.951L19.744,32.926L19.737,32.888L19.735,32.850L19.656,32.551L19.674,32.551L19.660,32.504L19.660,32.407L19.656,32.356L19.582,32.147L19.584,32.108L19.544,32.074L19.524,31.996L19.511,31.859L19.423,31.600L19.401,31.560L19.291,31.201L19.278,31.178L19.220,31.111L19.207,31.075L19.199,31.058L19.144,30.988L19.081,30.770L19.064,30.737L19.033,30.702L19.020,30.671L19.023,30.588L19.012,30.553L18.984,30.498L18.959,30.415L18.948,30.330L18.963,30.271L18.917,30.189L18.727,30.009L18.699,29.964L18.654,29.824L18.631,29.774L18.496,29.574L18.295,29.389L18.263,29.310L18.233,29.182L18.216,29.054L18.225,28.978L18.213,28.954L18.188,28.891L18.183,28.864L18.172,28.845L18.147,28.839L18.119,28.837L18.100,28.830L18.036,28.676L17.987,28.634L17.912,28.548L17.906,28.528L17.937,28.505L17.956,28.451L17.963,28.394L17.957,28.357L18.012,28.330L18.090,28.273L18.172,28.228L18.286,28.188L18.512,27.947L18.543,27.935L18.570,27.952L18.583,27.993L18.592,28.040L18.604,28.073L18.654,28.079L18.713,28.024L18.767,27.947L18.799,27.885L18.808,27.824L18.812,27.741L18.827,27.669L18.871,27.638L18.903,27.608L18.882,27.542L18.818,27.438L18.797,27.382L18.785,27.308L18.798,27.243L18.851,27.215L18.877,27.228L18.906,27.252L18.936,27.263L18.965,27.240L18.970,27.194L18.953,27.151L18.931,27.115L18.922,27.089L18.934,27.055L18.950,27.042L19.014,27.042L19.059,27.030L19.058,27.004L19.006,26.932L18.998,26.913L19.003,26.891L19.022,26.875L19.034,26.881L19.046,26.891L19.096,26.890L19.111,26.903L19.124,26.905L19.146,26.869L19.168,26.581L19.179,26.571L19.230,26.509L19.248,26.493L19.271,26.500L19.301,26.539L19.331,26.545L19.367,26.530L19.410,26.481L19.444,26.471L19.524,26.493L19.623,26.413L19.657,26.394L19.716,26.379L19.746,26.379L19.780,26.394L19.821,26.448L19.856,26.523L19.895,26.588L19.953,26.617L20.028,26.642L20.055,26.705L20.054,26.787L20.046,26.869L20.061,27.038L20.124,27.122L20.220,27.142L20.409,27.094L20.486,27.089L20.520,27.106L20.532,27.146L20.536,27.192L20.547,27.227L20.575,27.272L20.583,27.309L20.586,27.346L20.598,27.391L20.619,27.428L20.666,27.496L20.682,27.537L20.688,27.614L20.681,27.714L20.656,27.799L20.608,27.836L20.558,27.850L20.506,27.886L20.467,27.934L20.456,27.986L20.480,28.052L20.561,28.165L20.578,28.247L20.601,28.308L20.710,28.352L20.743,28.432L20.724,28.574L20.687,28.724L20.692,28.833L20.804,28.853L20.936,28.818L21.059,28.803L21.120,28.787L21.177,28.758L21.228,28.746L21.273,28.780L21.289,28.857L21.286,28.946L21.300,29.020L21.364,29.050L21.460,29.080L21.499,29.077L21.527,29.063L21.587,29.019L21.619,29.003L21.715,28.994L22.213,29.112L22.322,29.161L22.423,29.230L22.604,29.392L22.718,29.455L22.969,29.549L23.025,29.551L23.131,29.511L23.393,29.470L23.460,29.475L23.586,29.525L23.659,29.539L23.717,29.512L23.740,29.496L23.773,29.485L23.831,29.475L23.847,29.470L23.873,29.452L23.890,29.448L23.903,29.457L23.939,29.493L23.953,29.500L24.017,29.478L24.125,29.415L24.698,29.325L25.321,29.422L25.371,29.472L25.446,29.599L25.477,29.638L25.498,29.646L25.603,29.660L25.636,29.672L25.650,29.687L25.700,29.758L25.815,29.751L25.939,29.707L26.109,29.611L26.133,29.584L26.166,29.527L26.184,29.513L26.282,29.504L26.317,29.481L26.319,29.437L26.207,29.232L26.188,29.153L26.198,29.077L26.250,28.972L26.284,28.924L26.322,28.889L26.365,28.885L26.437,28.948L26.468,28.954L26.512,28.933L26.754,28.867L26.815,28.837L26.867,28.791L26.898,28.739L26.984,28.448L27.002,28.417L27.031,28.405L27.049,28.392L27.075,28.325L27.091,28.296L27.117,28.260L27.135,28.231L27.154,28.206L27.185,28.184L27.211,28.175L27.511,28.151L27.562,28.122L27.621,28.072L27.689,28.047L27.833,28.036L27.921,28.009L28.054,27.879L28.133,27.831L28.166,27.827L28.263,27.840L28.293,27.837L28.386,27.812L28.391,27.704L28.391,27.561L28.391,27.358L28.391,27.155L28.391,26.952L28.391,26.749L28.390,26.546L28.390,26.342L28.390,26.139L28.390,25.936L28.390,25.733L28.390,25.530L28.390,25.327L28.390,25.123L28.390,24.921L28.390,24.717L28.390,24.514L28.390,24.311L28.390,24.108L28.390,23.905L28.390,23.702L28.390,23.499L28.389,23.295L28.389,23.092L28.389,22.889L28.389,22.686L28.389,22.483L28.389,22.280L28.389,22.076L28.389,21.873L28.389,21.670L28.389,21.467L28.389,21.264L28.389,21.061L28.388,20.858L28.388,20.654L28.388,20.452L28.388,20.248L28.388,20.045L28.388,19.842L28.388,19.639L28.388,19.436L28.388,19.233L28.388,19.030L28.388,18.826L28.388,18.623L28.388,18.420L28.388,18.217L28.388,18.014L28.388,17.811L28.388,17.654L28.388,17.608L28.388,17.404L28.388,17.201L28.388,16.998L28.387,16.795L28.387,16.592L28.387,16.389L28.387,16.185L28.387,15.982L28.387,15.779L28.387,15.576L28.387,15.373L28.387,15.170L28.387,14.967L28.387,14.763L28.387,14.560L28.386,14.515ZM55.243,29.575L55.079,29.396L54.959,29.170L54.921,29.121L54.880,29.082L54.879,29.082L54.834,29.052L54.787,29.034L54.785,29.033L54.692,29.015L54.667,28.994L54.580,28.820L54.536,28.780L54.404,28.776L54.372,28.725L54.351,28.577L54.333,28.505L54.305,28.445L54.266,28.394L54.209,28.350L54.165,28.356L53.995,28.479L53.936,28.495L53.520,28.524L53.459,28.551L53.401,28.614L53.320,28.762L53.263,28.818L53.203,28.843L53.134,28.853L53.065,28.845L53.005,28.816L52.967,28.820L52.806,28.838L52.779,28.826L52.749,28.871L52.709,28.924L52.627,29.054L52.617,29.075L52.485,29.226L52.372,29.386L52.359,29.415L52.360,29.443L52.357,29.464L52.330,29.473L52.249,29.473L52.215,29.454L52.188,29.416L52.152,29.381L52.096,29.374L52.053,29.400L52.029,29.448L52.010,29.506L51.982,29.560L51.902,29.598L51.562,29.574L51.584,29.635L51.552,29.663L51.505,29.680L51.481,29.709L51.481,29.759L51.478,29.788L51.471,29.808L51.464,29.819L51.461,29.831L51.461,29.857L51.456,29.872L51.444,29.871L51.430,29.866L51.418,29.871L51.360,29.959L51.324,30.001L51.287,30.019L51.239,30.033L51.253,30.066L51.290,30.107L51.316,30.143L51.297,30.147L51.270,30.162L51.255,30.168L51.234,30.143L51.214,30.168L51.225,30.235L51.229,30.255L51.161,30.390L50.990,30.613L50.969,30.626L50.938,30.638L50.908,30.657L50.888,30.689L50.887,30.724L50.905,30.808L50.910,30.850L50.880,30.877L50.856,30.886L50.734,30.928L50.685,30.962L50.676,30.991L50.670,31.075L50.662,31.108L50.633,31.150L50.606,31.166L50.578,31.175L50.551,31.199L50.544,31.224L50.556,31.245L50.574,31.267L50.583,31.296L50.578,31.342L50.566,31.363L50.547,31.379L50.423,31.523L50.390,31.580L50.377,31.645L50.361,31.660L50.291,31.657L50.275,31.670L50.269,31.712L50.254,31.750L50.235,31.782L50.228,31.789L50.214,31.805L50.117,31.866L50.054,31.894L49.970,31.912L49.916,31.943L49.886,31.955L49.798,31.965L49.714,32.001L49.698,32.013L49.602,32.121L49.588,32.131L49.564,32.120L49.556,32.097L49.547,32.079L49.517,32.079L49.501,32.095L49.479,32.153L49.458,32.181L49.430,32.137L49.399,32.137L49.376,32.172L49.375,32.230L49.338,32.320L49.362,32.332L49.405,32.369L49.444,32.392L49.484,32.430L49.571,32.568L49.596,32.622L49.596,32.623L49.597,32.623L49.843,33.244L49.925,33.450L49.982,33.521L50.125,33.649L50.168,33.722L50.208,33.894L50.228,33.945L50.265,34.005L50.293,34.017L50.330,34.007L50.396,34.007L50.442,34.021L50.470,34.045L50.467,34.081L50.423,34.129L50.358,34.300L50.363,34.403L50.430,34.599L50.425,34.655L50.457,34.659L50.459,34.660L50.519,34.678L50.549,34.682L50.570,34.679L50.633,34.651L50.681,34.652L50.703,34.675L50.725,34.764L50.757,34.819L50.804,34.860L50.913,34.913L50.924,34.954L50.933,34.989L51.011,35.070L51.083,35.177L51.093,35.209L51.095,35.241L51.099,35.274L51.118,35.305L51.300,35.450L51.461,35.643L51.551,35.703L51.655,35.737L51.780,35.755L51.810,35.750L51.867,35.720L51.893,35.716L51.928,35.728L51.953,35.749L51.976,35.774L52.005,35.797L52.064,35.829L52.127,35.850L52.479,35.882L52.551,35.915L52.552,35.844L52.545,35.786L52.543,35.728L52.560,35.655L52.579,35.621L52.604,35.602L52.629,35.588L52.653,35.566L52.677,35.533L52.687,35.511L52.738,35.343L52.741,35.313L52.732,35.277L52.697,35.213L52.690,35.185L52.714,35.142L52.967,34.932L53.007,34.883L53.028,34.804L53.020,34.722L52.985,34.690L52.941,34.668L52.909,34.619L52.915,34.552L52.961,34.497L53.024,34.457L53.078,34.434L53.166,34.420L53.195,34.407L53.215,34.385L53.252,34.328L53.280,34.306L53.327,34.257L53.377,34.156L53.403,34.105L53.462,34.051L53.534,34.039L53.678,34.061L53.752,34.033L53.881,33.951L53.929,33.939L53.979,33.945L54.124,34.004L54.225,34.005L54.493,33.897L54.691,33.852L54.883,33.769L55.230,33.528L55.348,33.451L55.582,33.297L55.618,33.280L55.697,33.255L55.731,33.237L55.750,33.206L55.743,33.171L55.710,33.101L55.704,33.050L55.706,33.018L55.697,32.992L55.660,32.961L55.616,32.896L55.618,32.809L55.636,32.713L55.640,32.633L55.640,32.623L55.696,32.515L55.734,32.412L55.782,32.321L55.869,32.249L56.098,32.173L56.132,32.128L56.131,32.068L56.136,32.012L56.185,31.976L56.142,31.920L56.122,31.833L56.122,31.819L56.123,31.740L56.144,31.664L56.207,31.596L56.292,31.557L56.380,31.528L56.459,31.491L56.493,31.464L56.518,31.432L56.532,31.391L56.530,31.339L56.535,31.282L56.591,31.198L56.602,31.145L56.592,31.124L56.553,31.083L56.539,31.060L56.536,31.034L56.539,30.979L56.536,30.957L56.506,30.878L56.423,30.758L56.390,30.631L56.367,30.569L56.326,30.520L56.280,30.482L56.246,30.439L56.231,30.230L56.140,30.190L56.021,30.186L55.923,30.155L55.677,29.877L55.574,29.827L55.507,29.808L55.467,29.779L55.450,29.733L55.449,29.662L55.422,29.626L55.357,29.593L55.287,29.573L55.243,29.575ZM81.153,94.503L81.249,94.479L81.350,94.491L81.626,94.559L81.767,94.697L81.849,94.725L81.817,94.821L81.754,94.910L81.672,94.974L81.583,95.000L81.558,94.996L81.507,94.977L81.176,94.965L81.131,94.973L81.023,94.959L80.973,94.938L80.929,94.901L80.914,94.873L80.897,94.822L80.893,94.774L80.947,94.733L81.012,94.649L81.041,94.629L81.059,94.612L81.123,94.530L81.153,94.503ZM81.746,93.806L81.757,93.726L81.863,93.674L81.998,93.669L82.094,93.731L82.090,93.837L81.977,93.872L81.835,93.855L81.746,93.806Z" fill="currentColor" stroke="currentColor" stroke-width="1.5" stroke-linejoin="round"/>
</svg>