<svg xmlns="http://www.w3.org/2000/svg" viewBox="0 0 100 100" role="img" aria-label="Zambia">
  <title>Zambia</title>
  <path d="M89.202,20.572L89.219,21.034L89.256,21.141L89.330,21.203L89.377,21.187L89.429,21.149L89.518,21.145L89.570,21.177L89.681,21.282L89.750,21.315L89.753,21.530L89.617,22.100L89.711,22.315L89.812,22.349L89.897,22.310L89.983,22.251L90.086,22.224L90.171,22.264L90.202,22.349L90.220,22.444L90.260,22.519L90.430,22.582L90.498,22.438L90.523,22.204L90.568,21.999L90.746,22.086L91.161,22.108L91.315,22.219L91.426,22.417L91.460,22.523L91.472,22.643L91.450,22.728L91.411,22.791L91.386,22.866L91.406,22.982L91.479,23.094L91.672,23.215L91.756,23.307L91.868,23.522L91.934,23.618L92.026,23.701L92.120,23.752L92.405,23.858L92.455,23.919L92.576,24.231L92.625,24.452L92.570,24.618L92.342,24.979L92.197,25.352L92.156,25.551L92.152,25.755L92.255,25.900L92.883,26.183L93.045,26.323L93.171,26.463L93.310,26.579L93.509,26.651L93.653,26.842L93.805,26.950L93.915,27.078L93.933,27.328L93.885,27.769L93.913,27.959L94.115,28.447L94.180,28.539L94.395,28.733L94.454,28.801L94.604,29.156L94.723,29.294L94.932,29.322L94.934,29.530L94.988,29.673L94.995,29.751L94.997,29.780L95.000,29.811L94.874,30.003L94.754,30.114L94.453,30.335L94.354,30.380L94.252,30.448L93.877,30.875L93.752,31.193L93.667,31.330L93.509,31.428L93.392,31.450L93.252,31.591L93.151,31.638L93.033,31.631L92.778,31.581L92.672,31.599L92.565,31.643L92.371,31.681L92.267,31.717L92.173,31.799L92.029,32.022L91.915,32.092L91.822,32.089L91.741,32.067L91.669,32.093L91.601,32.231L91.594,32.345L91.655,32.388L91.752,32.388L91.857,32.373L91.969,32.469L92.027,32.718L92.051,32.957L92.074,33.190L92.148,33.427L92.259,33.646L92.402,33.845L92.573,34.019L92.820,34.456L92.753,34.692L92.647,34.914L92.107,35.756L92.096,35.807L92.122,35.896L92.112,35.944L92.069,35.981L91.951,36.033L91.916,36.075L91.903,36.186L91.919,36.288L91.917,36.390L91.852,36.497L91.656,36.334L91.584,36.446L91.620,37.119L91.611,37.216L91.561,37.364L91.448,37.610L91.473,37.671L91.602,37.719L91.730,37.720L91.865,37.703L91.991,37.725L92.095,37.845L92.141,37.973L92.228,39.256L92.202,39.546L92.100,39.844L92.101,39.970L92.187,40.143L92.218,40.256L92.192,40.380L92.148,40.505L92.076,40.909L91.773,41.631L91.745,41.893L91.756,42.159L91.814,42.287L92.031,42.497L92.120,42.605L92.216,42.863L92.352,43.414L92.501,43.648L92.771,43.744L93.338,43.571L93.639,43.677L93.768,43.673L93.856,43.706L93.868,43.867L93.799,43.995L93.766,44.015L93.565,44.137L93.509,44.268L93.392,44.289L93.357,44.348L93.351,44.543L93.283,44.637L93.050,44.731L92.962,44.812L92.842,44.994L92.684,45.154L92.508,45.266L92.338,45.305L92.277,45.285L92.212,45.244L92.137,45.207L92.041,45.199L91.837,45.234L91.775,45.261L91.686,45.362L91.558,45.633L91.450,45.708L91.373,45.733L91.326,45.762L91.292,45.791L91.253,45.817L91.207,45.863L91.181,45.917L91.145,45.956L91.066,45.960L91.033,45.920L90.942,45.745L90.888,45.690L90.815,45.670L90.756,45.676L90.635,45.709L90.574,45.745L90.504,45.804L90.437,45.836L90.383,45.785L90.350,45.723L90.309,45.680L90.255,45.667L90.193,45.694L90.084,45.791L90.002,45.898L89.766,46.371L89.489,46.788L89.385,47.003L89.358,47.141L89.404,47.721L89.454,47.806L89.661,47.938L89.850,48.113L89.916,48.305L89.880,48.525L89.669,49.008L89.549,49.883L89.558,50.020L89.590,50.152L89.650,50.286L89.773,50.468L89.797,50.559L89.756,50.670L89.524,50.737L89.333,50.982L89.193,51.289L89.084,51.736L88.981,52.159L88.844,52.462L88.625,52.579L88.483,52.601L88.419,52.687L88.402,52.811L88.407,52.955L88.373,53.134L88.272,53.204L87.989,53.246L87.886,53.313L87.678,53.491L87.581,53.506L87.438,53.457L87.327,53.447L87.254,53.508L87.220,53.672L87.311,53.923L87.554,53.978L87.837,53.981L88.040,54.071L88.332,54.485L88.375,54.579L88.309,54.665L88.027,54.800L87.944,54.888L87.988,55.101L88.210,55.201L88.494,55.258L88.729,55.346L88.843,55.444L89.226,55.917L89.256,56.037L89.273,56.155L89.320,56.279L89.384,56.332L89.523,56.325L89.585,56.357L89.629,56.424L89.632,56.465L89.617,56.510L89.590,56.909L89.630,57.029L89.810,57.261L89.951,57.227L90.192,56.835L90.296,56.718L90.403,56.661L90.670,56.582L90.740,56.514L90.814,56.313L90.891,56.269L91.001,56.361L91.240,56.813L91.371,56.972L90.812,57.163L90.142,57.392L89.174,57.724L87.848,58.177L86.554,58.621L85.390,59.019L84.581,59.296L83.865,59.541L83.247,59.655L82.952,59.745L82.371,60.013L81.599,60.269L80.586,60.605L79.486,60.968L78.957,61.247L78.242,61.624L77.581,61.869L76.780,62.063L75.789,62.304L74.992,62.497L74.855,62.508L73.766,62.758L73.001,62.933L71.933,63.324L71.278,63.565L70.460,63.864L69.744,64.220L69.174,64.504L68.500,64.585L68.374,64.618L68.373,64.622L68.369,64.674L68.424,64.910L68.424,65.263L68.461,65.605L68.748,66.592L68.939,66.969L69.190,67.131L69.300,67.173L69.397,67.277L69.478,67.417L69.532,67.564L69.564,67.726L69.584,68.241L69.609,68.331L69.722,68.488L69.747,68.564L69.726,68.643L69.584,68.917L69.534,69.091L69.551,69.200L69.770,69.432L69.811,69.494L69.899,69.727L69.881,69.747L69.773,69.791L69.468,69.913L69.248,69.921L69.003,69.815L68.879,69.761L68.685,69.734L68.617,69.760L68.501,69.859L68.441,69.899L68.318,69.926L68.228,69.895L68.031,69.761L67.725,69.694L67.416,69.739L67.110,69.824L66.805,69.872L66.473,69.834L65.813,69.655L65.471,69.623L65.294,69.662L64.978,69.807L64.646,69.859L64.205,70.006L64.018,70.033L63.860,70.009L63.711,69.968L63.546,69.947L63.363,69.997L63.077,70.240L62.940,70.325L62.275,70.384L62.159,70.409L60.461,71.188L60.189,71.473L60.119,71.517L59.964,71.556L59.814,71.647L59.690,71.755L59.615,71.841L59.451,72.149L59.353,72.243L59.166,72.277L58.818,72.284L58.652,72.314L58.618,72.330L58.507,72.381L58.249,72.632L58.082,72.841L58.058,72.896L57.952,73.058L57.928,73.145L57.944,73.217L57.979,73.273L58.015,73.317L58.034,73.357L57.991,73.626L57.892,73.954L57.850,74.269L57.982,74.495L57.798,74.918L57.771,75.088L57.800,75.225L57.927,75.556L57.928,75.735L57.742,76.037L57.712,76.102L57.661,76.388L57.556,76.510L57.252,76.739L57.189,76.874L57.037,77.019L56.971,77.078L56.863,77.095L56.647,77.095L56.282,77.162L53.487,78.251L52.967,78.583L52.208,79.207L51.508,79.506L50.320,80.014L49.922,80.251L49.617,80.580L48.570,82.139L48.444,82.414L48.287,83.042L48.078,83.440L47.670,83.851L46.883,84.560L44.844,86.650L44.766,86.765L44.753,86.846L44.763,87.042L44.782,87.228L44.523,87.542L44.237,87.817L44.008,88.032L43.799,88.145L43.683,88.178L43.321,88.194L43.240,88.227L42.958,88.410L42.775,88.351L42.050,88.680L41.863,88.702L41.739,88.733L41.638,88.793L41.418,88.993L41.326,89.020L41.216,89.000L40.779,88.862L40.655,88.799L40.548,88.710L40.429,88.577L40.328,88.496L40.200,88.445L39.996,88.410L39.675,88.309L39.084,87.991L38.730,87.925L38.444,87.967L38.388,87.954L38.340,87.907L38.277,87.863L38.204,87.829L37.850,87.788L37.780,87.763L37.739,87.714L37.696,87.640L37.641,87.574L37.570,87.547L37.502,87.582L37.228,87.790L37.160,87.827L36.981,87.861L36.852,87.932L36.718,87.966L36.672,87.983L36.664,88.014L36.679,88.114L36.672,88.145L36.564,88.175L36.420,88.180L36.297,88.206L36.251,88.303L36.199,88.248L35.774,88.465L35.685,88.477L35.358,88.465L34.889,88.248L34.811,88.157L34.755,88.028L34.765,87.915L34.889,87.871L34.782,87.735L34.434,87.589L34.359,87.466L34.292,87.384L34.138,87.286L33.968,87.203L33.680,87.128L33.586,87.046L33.487,86.983L33.299,87.003L32.891,87.178L32.374,87.277L32.329,87.295L32.261,87.368L32.218,87.385L32.169,87.376L32.097,87.335L32.057,87.326L31.478,87.326L31.395,87.311L31.140,87.218L30.900,87.229L30.825,87.218L30.674,87.146L30.440,86.966L30.296,86.900L30.242,86.846L30.194,86.746L30.109,86.658L30.004,86.596L29.899,86.570L29.768,86.564L29.711,86.539L29.612,86.409L29.570,86.379L29.483,86.334L29.450,86.301L29.438,86.255L29.447,86.155L29.423,86.110L29.309,85.992L29.254,85.995L29.187,86.085L29.167,86.031L29.129,85.978L29.074,85.935L29.003,85.919L28.989,85.882L28.924,85.649L28.899,85.635L28.759,85.512L28.737,85.482L28.647,85.481L28.592,85.469L28.551,85.439L28.504,85.379L28.504,85.324L28.555,85.189L28.527,85.163L28.449,85.175L28.305,85.221L28.231,85.217L28.109,85.126L28.021,85.001L28.012,84.995L27.920,84.930L27.763,85.001L27.665,84.861L27.460,84.767L26.931,84.662L26.684,84.672L26.602,84.655L26.550,84.618L26.512,84.582L26.471,84.565L25.814,84.462L25.468,84.462L25.393,84.486L25.340,84.540L25.299,84.594L25.214,84.641L25.098,84.746L25.016,84.781L24.943,84.786L24.876,84.776L24.753,84.731L24.686,84.682L24.639,84.627L24.577,84.583L24.381,84.549L24.235,84.478L24.005,84.435L23.679,84.320L23.540,84.295L23.404,84.314L23.082,84.404L23.020,84.432L22.935,84.384L22.528,84.370L22.384,84.349L22.244,84.359L22.016,84.405L21.687,84.472L21.358,84.539L21.028,84.606L20.698,84.672L20.370,84.739L20.040,84.806L19.711,84.872L19.381,84.939L19.051,85.006L18.722,85.073L18.392,85.140L18.063,85.206L17.734,85.273L17.405,85.340L17.074,85.407L16.745,85.474L16.516,85.520L16.371,85.523L16.102,85.576L15.788,85.637L15.744,85.535L15.738,85.434L15.793,85.320L15.617,85.176L15.472,85.001L15.315,84.888L15.201,84.834L15.089,84.801L14.839,84.781L14.708,84.799L14.577,84.832L14.444,84.847L14.311,84.810L14.217,84.712L14.212,84.599L14.229,84.475L14.207,84.349L14.127,84.264L13.786,84.133L13.602,83.985L13.413,83.771L13.267,83.536L13.208,83.324L13.162,83.234L12.840,82.892L12.729,82.829L12.362,82.730L11.898,82.531L11.690,82.396L11.384,82.122L11.145,81.996L11.044,81.911L10.972,81.794L10.887,81.426L10.779,81.215L10.623,81.008L10.278,80.638L10.170,80.560L9.711,80.376L9.613,80.375L9.568,80.341L9.535,80.273L9.536,80.135L9.520,80.071L9.422,79.971L9.179,79.896L9.069,79.829L9.001,79.728L8.919,79.506L8.361,78.630L8.302,78.561L8.230,78.519L8.107,78.496L8.064,78.475L8.023,78.427L7.970,78.333L7.849,78.170L7.798,78.066L7.723,77.991L7.517,77.956L7.487,77.938L7.430,77.877L7.393,77.855L7.366,77.869L7.338,77.894L7.265,77.912L7.148,77.956L7.089,77.963L6.985,77.927L6.322,77.391L6.272,77.283L6.251,77.149L6.218,77.035L6.134,76.986L5.987,76.966L5.955,76.909L5.975,76.824L5.981,76.716L5.938,76.603L5.806,76.383L5.770,76.285L5.776,76.153L5.817,76.005L5.881,75.866L5.952,75.765L5.967,75.666L5.841,75.607L5.585,75.549L5.572,75.502L5.568,75.327L5.555,75.250L5.529,75.215L5.437,75.135L5.402,75.088L5.368,74.972L5.355,74.872L5.327,74.772L5.245,74.661L5.308,74.668L5.503,74.661L5.235,74.233L5.030,73.978L5.013,73.808L5.013,73.680L5.013,73.201L5.013,72.699L5.006,72.677L5.007,72.320L5.008,71.513L5.010,70.707L5.012,69.901L5.013,69.094L5.013,68.746L5.013,68.507L5.013,68.339L5.013,68.025L5.012,66.834L5.011,65.643L5.010,64.452L5.010,63.262L5.009,62.071L5.008,60.880L5.007,59.688L5.006,58.497L5.006,57.307L5.005,56.116L5.004,54.926L5.004,54.450L5.003,53.734L5.002,52.543L5.002,51.352L5.001,50.162L5.000,48.971L5.957,48.971L6.914,48.971L7.870,48.971L8.826,48.971L9.782,48.971L10.738,48.971L11.695,48.971L12.651,48.971L13.608,48.971L14.565,48.971L15.521,48.971L16.478,48.971L17.435,48.971L18.391,48.971L19.348,48.971L20.303,48.971L20.552,48.971L20.461,48.684L20.330,48.433L20.159,48.206L19.740,47.772L19.583,47.551L19.513,47.298L19.564,46.985L19.713,46.629L19.860,46.045L19.998,45.495L20.091,45.267L20.440,44.752L20.700,44.369L20.763,44.235L20.784,44.100L20.709,43.744L20.677,43.261L20.598,43.062L20.403,42.856L20.236,42.611L20.195,42.257L20.247,41.149L20.293,40.131L20.459,39.747L20.471,39.666L20.436,39.472L20.403,38.882L20.337,38.690L20.257,38.540L20.198,38.387L20.198,38.187L20.238,38.031L20.375,37.716L20.588,37.384L20.622,37.291L20.623,37.162L20.603,36.972L20.605,36.872L20.623,36.785L20.707,36.667L20.948,36.477L21.022,36.370L21.017,36.275L20.677,35.512L20.633,35.311L20.665,34.185L20.514,34.161L20.471,34.051L20.505,33.747L20.499,33.309L20.526,33.167L20.576,33.016L20.547,32.900L20.397,32.667L20.349,32.533L20.296,32.145L20.558,32.154L20.919,32.224L21.251,32.347L21.426,32.516L21.427,32.584L21.384,32.726L21.378,32.798L21.397,32.885L21.451,33.044L21.466,33.135L21.453,33.398L21.503,33.496L21.658,33.473L21.813,33.422L21.942,33.426L22.227,33.511L22.379,33.533L22.664,33.533L22.808,33.551L22.982,33.629L23.204,33.773L23.399,33.946L23.485,34.107L23.458,34.198L23.394,34.268L23.337,34.344L23.331,34.456L23.375,34.547L23.505,34.665L23.558,34.733L23.599,34.872L23.609,35.037L23.595,35.206L23.566,35.360L23.506,35.487L23.259,35.881L23.163,35.984L22.843,36.083L22.744,36.167L22.809,36.309L22.933,36.368L23.254,36.371L23.396,36.395L23.568,36.500L23.829,36.742L23.983,36.818L24.161,36.833L24.325,36.801L24.647,36.680L24.722,36.674L24.812,36.681L24.893,36.668L24.943,36.603L24.968,36.514L25.000,36.439L25.046,36.373L25.113,36.312L25.182,36.281L25.354,36.243L25.436,36.203L25.511,36.126L25.652,35.933L25.735,35.854L26.031,35.730L26.611,35.729L26.910,35.664L27.481,35.377L27.804,35.276L28.099,35.303L29.199,35.202L29.659,35.103L30.389,34.734L30.631,34.693L30.725,34.777L30.741,34.955L30.731,35.157L30.747,35.319L30.743,35.396L30.684,35.450L30.523,35.512L30.434,35.583L30.476,35.650L30.562,35.718L30.602,35.786L30.537,35.931L30.447,36.004L30.382,36.092L30.390,36.286L30.449,36.446L30.623,36.753L30.681,36.892L30.670,36.967L30.565,37.093L30.534,37.168L30.533,37.242L30.555,37.382L30.762,38.027L30.835,38.160L30.898,38.229L30.952,38.260L31.017,38.269L31.115,38.268L31.217,38.289L31.266,38.342L31.303,38.409L31.370,38.473L31.811,38.686L31.946,38.806L31.959,38.847L31.962,38.890L31.959,38.932L31.892,39.130L31.940,39.238L32.057,39.291L32.208,39.285L32.280,39.247L32.327,39.194L32.381,39.147L32.478,39.133L32.560,39.107L32.591,39.033L32.613,38.953L32.673,38.902L33.026,38.914L33.290,39.085L33.533,39.308L33.828,39.480L33.969,39.506L34.412,39.510L34.497,39.500L34.650,39.427L34.706,39.412L34.790,39.427L34.829,39.454L34.858,39.492L35.278,39.836L35.443,39.900L35.553,39.982L35.659,40.228L35.794,40.290L35.893,40.304L37.222,40.286L37.394,40.353L37.550,40.453L37.706,40.528L37.983,40.510L38.142,40.587L38.233,40.592L38.318,40.555L38.470,40.451L38.549,40.416L38.835,40.368L39.130,40.360L39.313,40.417L39.444,40.519L39.562,40.638L39.703,40.747L39.978,40.838L40.602,40.881L40.892,40.942L41.040,41.030L41.171,41.133L41.304,41.195L41.460,41.160L41.577,41.044L41.666,40.908L41.783,40.809L41.980,40.807L42.340,40.846L42.667,40.775L42.964,40.602L43.232,40.339L43.384,40.032L43.415,39.386L43.489,39.074L43.607,38.900L43.721,38.790L43.800,38.669L43.814,38.458L43.718,38.124L43.714,37.973L43.818,37.861L43.885,37.851L44.054,37.876L44.130,37.873L44.422,37.776L44.751,37.748L44.971,37.663L45.021,37.656L45.153,37.846L45.233,38.207L45.266,38.593L45.251,38.860L45.437,39.548L46.873,40.440L47.233,41.070L47.266,41.386L47.641,42.476L47.761,42.638L48.174,42.977L48.216,43.011L48.547,43.377L48.762,43.449L49.105,43.478L49.459,43.461L49.702,43.400L49.848,43.281L49.933,43.173L50.034,43.111L50.228,43.130L50.385,43.190L50.822,43.454L50.934,43.597L50.963,43.795L51.013,43.963L51.185,44.017L51.323,43.992L51.439,43.985L52.006,44.040L52.077,44.084L52.104,44.151L52.120,44.227L52.155,44.298L52.341,44.449L52.454,44.400L52.568,44.287L52.761,44.237L52.909,44.303L53.025,44.418L53.159,44.511L53.362,44.510L53.516,44.487L53.668,44.498L53.813,44.543L53.946,44.617L54.585,45.176L54.690,45.346L54.840,45.736L54.935,45.914L55.195,46.190L55.274,46.339L55.269,46.544L55.180,46.675L55.056,46.764L54.979,46.877L55.032,47.079L55.191,47.288L55.361,47.459L55.483,47.646L55.509,48.055L55.590,48.129L55.706,48.134L55.825,48.080L55.900,47.985L56.011,47.757L56.112,47.690L56.471,47.769L56.780,48.088L57.301,48.774L57.437,48.893L57.493,48.978L57.561,49.263L57.593,49.298L57.696,49.335L57.726,49.369L57.721,49.409L57.684,49.495L57.683,49.531L57.688,49.566L57.677,49.649L57.687,49.693L57.717,49.727L57.761,49.741L57.803,49.750L57.828,49.768L57.901,50.043L57.975,50.087L58.124,50.094L58.195,50.124L58.284,50.242L58.520,51.406L58.645,51.733L58.880,51.964L58.981,52.088L59.106,52.116L59.246,52.085L59.386,52.033L59.530,52.031L59.588,52.030L59.782,51.999L59.967,51.997L60.139,52.077L60.208,52.176L60.260,52.295L60.327,52.388L60.444,52.412L60.526,52.365L60.674,52.186L60.778,52.127L60.953,52.054L61.400,51.754L62.487,51.333L62.644,51.234L63.091,50.809L63.268,50.731L63.448,50.741L63.589,50.821L63.721,50.931L63.869,51.026L63.961,51.036L64.028,51.013L64.087,51.015L64.157,51.102L64.177,51.182L64.164,51.267L64.134,51.345L64.098,51.405L64.041,51.445L63.904,51.480L63.849,51.539L63.838,51.606L63.853,51.764L63.838,51.838L63.791,51.862L63.717,51.876L63.658,51.918L63.658,52.029L63.687,52.120L63.727,52.208L63.779,52.288L63.845,52.356L63.964,52.425L64.130,52.491L64.436,52.576L64.931,52.582L65.047,52.560L65.166,52.312L65.167,51.439L65.168,50.258L65.170,49.139L65.172,47.956L65.174,46.576L65.176,45.393L65.177,44.078L65.179,43.157L65.181,42.317L65.181,42.314L65.179,42.288L65.179,42.274L64.846,42.302L64.683,42.359L64.424,42.550L64.021,42.738L63.890,42.764L63.807,42.718L63.669,42.581L63.570,42.543L63.466,42.543L63.395,42.572L63.284,42.678L63.133,42.769L62.795,42.886L62.677,42.974L62.628,43.074L62.536,43.383L62.504,43.568L62.476,43.639L62.464,43.705L62.493,43.767L62.725,44.064L62.845,44.110L62.963,44.118L63.056,44.159L63.092,44.301L63.065,44.449L62.988,44.565L62.873,44.637L62.725,44.652L62.667,44.632L62.635,44.601L62.608,44.567L62.566,44.544L62.516,44.540L62.407,44.550L62.356,44.544L62.151,44.468L61.831,44.291L61.771,44.278L61.462,44.271L61.373,44.256L61.301,44.226L61.206,44.142L61.067,43.988L60.990,43.950L60.362,43.962L60.173,44.010L60.013,44.082L59.882,44.166L59.798,44.012L59.677,44.031L59.545,44.097L59.433,44.090L59.355,44.050L59.297,44.051L59.261,44.030L59.247,43.926L59.228,43.847L58.601,42.685L58.402,42.435L57.946,42.177L57.876,42.084L57.842,41.936L57.757,41.785L57.653,41.655L57.556,41.567L57.285,41.419L57.179,41.335L57.135,41.216L57.112,40.995L57.042,40.932L56.773,40.973L56.611,40.931L56.233,40.722L56.132,40.644L55.996,40.348L55.892,40.270L55.712,40.375L55.688,40.302L55.596,40.148L55.560,40.105L55.491,40.045L55.422,40.001L55.342,39.996L55.240,40.051L55.157,39.929L55.094,39.545L55.001,39.462L54.876,39.424L54.814,39.324L54.738,38.778L54.714,38.698L54.603,38.592L54.551,38.519L54.580,38.486L54.585,38.407L54.452,37.937L54.406,37.865L54.293,37.748L54.236,37.667L54.145,37.434L54.104,37.371L54.068,37.249L54.059,36.827L54.079,36.686L54.476,36.097L54.502,36.065L54.673,35.930L54.714,35.906L54.656,35.612L54.688,35.439L54.760,35.324L54.833,35.238L54.977,34.937L54.967,34.671L54.977,34.586L54.996,34.540L55.062,34.441L55.082,34.366L55.078,34.268L54.996,33.847L55.001,33.770L55.109,33.618L55.211,33.426L55.240,33.341L55.246,33.261L55.230,33.092L55.240,33.012L55.285,32.940L55.421,32.799L55.449,32.715L55.467,32.633L55.542,32.472L55.560,32.387L55.560,32.036L55.598,31.850L55.668,31.668L55.768,31.500L55.899,31.359L55.956,31.282L56.011,31.110L56.128,30.916L56.161,30.876L56.206,30.854L56.304,30.861L56.348,30.849L56.456,30.763L56.576,30.640L56.675,30.493L56.715,30.334L56.674,30.283L56.494,30.144L56.453,30.064L56.466,29.972L56.508,29.804L56.505,29.711L56.319,29.500L56.218,29.356L56.216,29.248L56.247,29.173L56.183,29.053L56.216,28.978L56.261,28.907L56.291,28.816L56.303,28.716L56.295,28.622L56.239,28.468L56.169,28.342L56.109,28.202L56.085,28.004L56.108,27.838L56.152,27.712L56.174,27.590L56.132,27.435L56.119,27.431L56.051,27.390L56.032,27.376L56.011,27.334L55.995,27.250L55.980,27.214L55.717,26.987L55.790,26.841L55.980,26.616L56.100,26.373L56.168,26.063L56.189,25.434L56.132,24.864L56.164,24.694L56.400,24.183L56.476,23.842L56.550,23.701L56.692,23.643L56.707,23.607L56.505,23.398L56.487,23.283L56.439,23.236L56.372,23.212L56.295,23.158L56.189,23.004L56.142,22.846L56.132,22.478L56.116,22.393L56.048,22.229L56.032,22.153L55.999,22.046L55.853,21.878L55.822,21.804L55.861,21.761L56.034,21.703L56.085,21.642L55.843,21.648L55.749,21.609L55.712,21.505L55.708,21.371L55.694,21.268L55.662,21.181L55.607,21.098L55.422,20.959L55.331,20.870L55.292,20.747L55.304,20.633L55.319,20.490L55.302,20.339L55.144,20.140L54.875,19.996L54.497,19.916L54.167,19.787L54.044,19.498L54.196,19.206L54.526,18.985L55.227,18.648L55.941,18.110L57.222,16.827L58.204,15.498L58.492,14.819L58.531,14.115L58.202,13.412L58.174,13.264L58.375,13.183L59.297,13.040L60.629,12.832L61.843,12.643L63.459,12.391L63.585,12.372L65.631,12.052L67.675,11.734L69.224,11.492L71.201,11.184L72.511,10.980L72.713,11.731L73.098,12.513L73.587,13.233L74.108,13.796L74.360,13.997L74.678,14.190L75.018,14.317L75.341,14.319L75.505,14.236L75.661,14.122L75.825,14.036L76.010,14.036L76.100,14.098L76.246,14.298L76.328,14.361L76.427,14.377L76.492,14.354L76.552,14.314L76.950,14.170L77.039,14.150L77.094,14.128L77.114,14.097L77.138,14.086L77.207,14.127L77.235,14.177L77.261,14.321L77.287,14.376L77.390,14.445L77.489,14.455L77.593,14.443L77.709,14.452L77.830,14.516L77.996,14.710L78.118,14.789L78.414,14.875L78.568,15.006L78.621,15.207L78.620,15.502L78.678,15.840L78.856,16.082L79.596,16.661L79.727,16.713L79.882,16.714L80.039,16.657L80.302,16.512L80.481,16.496L81.628,16.816L81.483,17.136L81.482,17.526L81.639,17.837L81.966,17.917L82.126,17.849L82.237,17.765L82.359,17.712L82.556,17.740L82.777,17.871L82.857,17.895L82.930,17.888L83.078,17.852L83.148,17.856L83.236,17.904L83.307,17.943L83.590,18.235L83.741,18.351L83.896,18.406L84.060,18.427L85.063,18.407L85.374,18.485L85.653,18.676L85.737,18.786L85.887,19.145L85.998,19.318L86.102,19.389L86.391,19.413L87.053,19.560L87.604,19.608L87.701,19.661L87.808,19.777L87.837,19.838L87.860,19.956L87.905,20.015L87.961,20.036L88.095,20.022L88.152,20.033L88.509,20.274L89.084,20.495L89.202,20.572Z" fill="currentColor" stroke="currentColor" stroke-width="1.5" stroke-linejoin="round"/>
</svg>