<svg xmlns="http://www.w3.org/2000/svg" viewBox="0 0 100 100" role="img" aria-label="Zimbabwe">
  <title>Zimbabwe</title>
  <path d="M5.465,35.254L5.545,35.337L5.760,35.439L6.110,35.716L6.336,35.827L6.448,35.843L6.807,35.827L7.188,35.970L7.311,35.993L8.178,35.993L8.237,36.007L8.345,36.070L8.418,36.084L8.483,36.057L8.584,35.945L8.652,35.918L9.425,35.765L10.035,35.495L10.315,35.465L10.463,35.562L10.603,35.689L11.033,35.804L11.288,35.931L11.519,36.082L11.618,36.209L11.730,36.398L12.251,36.623L12.411,36.832L12.226,36.900L12.210,37.073L12.295,37.272L12.411,37.413L13.112,37.746L13.600,37.765L13.734,37.746L14.368,37.413L14.447,37.497L14.516,37.349L14.699,37.307L14.914,37.301L15.076,37.254L15.087,37.207L15.064,37.052L15.076,37.005L15.145,36.978L15.345,36.926L15.538,36.817L15.805,36.765L15.907,36.707L16.316,36.387L16.418,36.333L16.524,36.375L16.606,36.477L16.671,36.590L16.732,36.666L16.837,36.705L17.366,36.768L17.475,36.819L17.569,36.887L17.642,36.960L17.725,36.980L18.153,36.915L18.681,37.017L19.565,37.507L20.045,37.662L20.349,37.716L20.540,37.794L20.691,37.920L20.870,38.123L21.029,38.260L21.215,38.357L21.868,38.571L22.033,38.601L22.170,38.560L22.500,38.252L22.650,38.160L22.835,38.112L23.114,38.078L24.199,37.571L24.472,37.662L24.894,37.380L25.014,37.330L25.557,37.305L25.729,37.254L26.042,37.081L26.384,36.749L26.812,36.325L27.199,35.842L27.170,35.555L27.156,35.254L27.175,35.129L27.291,34.952L30.340,31.734L31.516,30.642L32.126,30.010L32.438,29.397L32.673,28.430L32.860,28.007L34.426,25.606L34.882,25.100L35.476,24.736L37.253,23.954L38.299,23.493L39.433,22.533L40.211,22.021L44.389,20.345L44.934,20.241L45.257,20.241L45.419,20.215L45.517,20.124L45.744,19.901L45.838,19.693L46.293,19.341L46.450,19.152L46.526,18.712L46.572,18.613L46.850,18.148L46.847,17.871L46.657,17.362L46.614,17.152L46.655,16.889L46.929,16.237L46.733,15.890L46.795,15.405L46.944,14.899L47.008,14.486L46.979,14.424L46.926,14.356L46.874,14.271L46.850,14.160L46.886,14.025L47.044,13.776L47.079,13.692L47.329,13.369L47.714,12.983L47.881,12.904L47.932,12.880L48.179,12.833L48.700,12.823L48.979,12.770L49.126,12.626L49.370,12.152L49.483,12.020L49.668,11.854L49.892,11.713L50.124,11.654L50.229,11.585L50.636,11.147L53.174,9.947L53.348,9.908L54.342,9.818L54.546,9.687L54.974,9.314L55.248,9.236L55.493,9.268L55.717,9.331L55.953,9.368L56.232,9.327L56.891,9.101L57.388,9.021L57.860,8.797L58.125,8.738L58.636,8.787L59.622,9.062L60.119,9.120L60.574,9.046L61.032,8.915L61.493,8.846L61.951,8.949L62.246,9.155L62.380,9.204L62.563,9.163L62.654,9.101L62.827,8.948L62.928,8.909L63.218,8.950L63.404,9.032L63.770,9.195L64.099,9.184L64.555,8.995L64.571,9.979L64.589,11.137L64.613,12.593L64.627,13.439L65.918,13.429L66.744,13.424L68.621,13.411L69.860,13.402L70.371,13.511L70.835,13.844L71.020,14.046L71.190,14.179L71.382,14.207L71.639,14.092L71.773,13.974L71.986,13.727L72.155,13.638L72.253,13.663L72.344,13.735L72.430,13.740L72.524,13.569L72.813,13.387L73.323,13.427L74.491,13.710L74.709,13.793L74.898,13.931L75.062,14.142L75.277,14.554L75.422,14.722L75.645,14.847L75.760,14.930L75.809,15.042L75.846,15.155L75.918,15.235L75.960,15.244L76.051,15.221L76.097,15.216L76.151,15.248L76.148,15.304L76.133,15.363L76.154,15.399L76.379,15.429L76.627,15.431L76.857,15.465L77.029,15.590L77.473,15.815L79.393,15.946L79.676,16.075L79.992,16.342L80.689,17.119L80.911,17.313L81.394,17.570L81.531,17.687L81.632,17.902L81.688,18.368L81.789,18.553L81.972,18.643L83.167,18.838L85.440,18.780L86.346,18.921L87.533,19.408L89.355,20.157L90.732,20.722L90.862,20.845L90.918,21.020L90.926,21.300L91.041,21.781L91.347,22.020L91.413,22.047L91.417,22.048L91.516,21.981L91.676,21.916L91.855,21.886L92.215,21.909L92.920,22.069L93.281,22.092L93.468,22.040L93.813,21.817L94.004,21.735L94.146,21.718L94.066,22.067L93.741,23.350L93.544,23.741L93.363,23.983L92.538,24.802L92.554,24.880L93.205,26.056L93.686,26.924L93.980,27.626L94.137,28.376L94.152,28.829L94.156,28.951L94.200,29.216L94.319,29.458L94.420,29.542L94.677,29.688L94.757,29.796L94.766,29.990L94.695,30.181L94.642,30.264L94.479,30.519L94.027,31.413L93.952,31.508L93.852,31.573L93.778,31.655L93.780,31.789L93.901,32.200L93.952,32.301L94.153,32.461L94.584,32.661L94.743,32.874L94.790,33.126L94.745,33.360L94.555,33.811L94.511,34.278L94.545,34.811L94.498,35.256L94.204,35.455L94.014,35.544L93.888,35.748L93.814,36.001L93.782,36.238L93.800,36.476L93.936,36.817L93.957,37.032L93.912,37.190L93.822,37.272L93.731,37.332L93.673,37.429L93.691,37.544L93.832,37.713L93.821,37.818L93.759,38.058L93.784,38.332L94.189,39.587L94.227,39.989L94.219,40.080L94.116,40.340L94.027,40.501L93.959,40.594L93.939,40.695L93.990,40.877L94.165,41.135L94.702,41.575L94.910,41.809L95.000,42.042L94.946,42.176L94.614,42.430L94.372,42.786L94.340,42.777L94.356,42.897L94.502,43.072L94.543,43.196L94.467,43.443L94.262,43.600L94.009,43.719L93.785,43.855L93.580,43.965L93.361,44.029L93.164,44.112L93.021,44.278L92.992,44.483L93.032,44.733L93.179,45.169L93.525,45.861L93.614,46.193L93.590,46.595L93.510,46.921L93.387,47.183L93.187,47.345L92.884,47.371L92.413,47.335L92.065,47.386L90.958,47.909L90.940,48.019L91.020,48.675L91.094,48.854L91.238,48.951L91.115,49.044L90.968,49.127L90.856,49.229L90.839,49.378L90.926,49.650L90.945,49.783L90.926,49.938L90.954,50.100L91.045,50.197L91.175,50.242L91.331,50.250L92.046,50.141L92.246,50.164L92.371,50.216L92.437,50.271L92.472,50.354L92.498,50.496L92.555,50.646L92.646,50.740L92.753,50.826L92.850,50.945L92.923,51.363L92.589,52.870L92.577,53.171L92.537,53.388L92.446,53.592L92.278,53.861L91.849,54.350L91.821,54.470L91.845,54.827L91.773,55.321L91.786,55.571L91.907,55.716L92.128,55.726L92.337,55.700L92.499,55.756L92.577,56.020L92.581,56.244L92.499,57.124L92.503,57.236L92.531,57.356L92.548,57.514L92.499,57.631L92.431,57.737L92.394,57.860L92.433,58.131L92.564,58.263L92.772,58.310L93.038,58.324L93.297,58.252L93.640,57.899L93.854,57.826L94.059,57.942L94.076,58.188L93.980,58.660L94.076,58.874L94.267,59.069L94.515,59.226L94.770,59.333L94.885,59.467L94.849,59.701L94.771,59.987L94.753,60.488L94.531,61.205L94.489,62.104L94.558,62.388L94.592,62.483L93.976,62.461L93.819,62.598L93.752,62.971L93.663,63.145L93.481,63.202L93.293,63.237L93.189,63.347L93.103,63.939L93.046,64.128L92.889,64.416L92.864,64.534L92.878,64.618L92.956,64.782L92.962,64.878L92.879,65.251L92.816,65.425L92.727,65.581L92.216,66.213L91.469,67.133L91.108,67.834L90.732,68.564L90.441,68.882L89.949,68.965L89.407,68.899L88.907,68.963L88.545,69.431L88.423,69.947L88.401,70.450L88.566,71.757L88.724,73.021L88.653,73.486L88.384,74.019L87.803,74.759L86.913,75.892L86.977,75.999L87.144,76.103L87.247,76.244L87.299,76.251L87.350,76.249L87.383,76.274L87.382,76.356L87.339,76.432L87.295,76.499L87.281,76.547L88.119,77.968L88.133,78.020L88.149,78.077L87.704,77.793L87.295,78.251L86.737,78.862L86.136,79.523L85.532,80.185L84.929,80.846L84.325,81.508L83.722,82.169L83.119,82.832L82.516,83.493L81.914,84.155L81.310,84.816L80.707,85.479L80.103,86.141L79.501,86.802L78.898,87.465L78.296,88.126L77.692,88.788L77.089,89.449L76.491,90.103L75.742,90.626L74.824,91.262L74.556,90.875L74.441,90.783L74.327,90.778L74.141,90.856L74.049,90.868L73.956,90.831L73.776,90.718L73.694,90.694L73.613,90.632L73.379,90.353L73.256,90.278L73.084,90.303L72.703,90.484L72.617,90.503L72.508,90.527L72.309,90.488L71.916,90.317L70.662,90.026L69.971,89.952L69.635,89.863L69.260,90.011L67.979,90.112L67.753,90.182L67.444,90.400L67.272,90.451L67.192,90.426L67.017,90.305L66.911,90.278L66.578,90.280L65.833,90.195L65.615,90.202L65.394,90.261L64.963,90.458L64.744,90.527L64.277,90.607L63.850,90.622L63.456,90.528L63.095,90.278L62.933,90.136L62.762,90.031L62.547,89.967L62.262,89.946L61.752,90.015L61.550,90.000L61.274,89.863L60.946,89.626L60.777,89.556L60.435,89.516L60.409,89.477L60.393,89.423L60.175,89.190L60.057,89.132L59.810,89.077L59.697,89.032L59.383,88.840L59.215,88.793L58.800,88.756L58.518,88.609L58.125,88.526L57.457,88.087L57.222,88.021L56.447,88.060L56.310,88.111L56.101,87.966L55.867,88.000L55.440,88.193L55.051,88.155L54.831,88.204L54.733,88.405L54.610,88.526L54.324,88.497L53.748,88.360L53.509,88.413L53.088,88.644L52.841,88.775L52.671,88.768L52.598,88.751L52.519,88.700L51.640,87.950L51.568,87.837L51.478,87.597L51.415,87.487L51.304,87.349L51.245,87.311L50.159,87.344L49.734,87.270L49.306,87.048L48.958,86.683L48.740,86.218L48.651,85.703L48.699,85.189L48.825,84.927L49.015,84.634L49.155,84.350L49.128,84.116L48.938,83.969L48.478,83.824L48.272,83.688L47.939,83.609L47.239,83.568L46.891,83.476L45.204,82.699L44.678,82.534L44.232,82.186L44.071,82.134L43.729,82.101L43.361,82.006L43.234,82.027L43.114,82.085L42.709,82.188L42.526,82.260L42.333,82.295L42.086,82.240L41.150,81.759L40.692,81.603L40.265,81.523L38.894,81.503L38.032,81.333L37.367,81.292L37.179,81.231L37.018,81.126L36.878,80.976L36.813,80.866L36.709,80.619L36.650,80.519L36.571,80.472L36.506,80.484L36.450,80.472L36.405,80.353L36.464,80.196L36.418,80.126L36.336,80.099L36.297,80.077L36.320,79.961L36.409,79.815L36.448,79.720L36.415,79.594L36.074,78.898L35.886,78.699L35.813,78.585L35.794,78.494L35.800,78.305L35.773,78.207L35.665,78.035L35.253,77.542L34.959,77.080L34.617,76.663L33.818,76.082L33.643,75.897L33.247,75.357L33.153,75.127L33.155,74.915L33.295,74.270L33.311,74.013L33.222,73.330L33.222,73.211L33.250,72.938L33.247,72.799L33.261,72.639L33.328,72.528L33.411,72.423L33.473,72.286L33.648,71.301L33.621,70.814L33.335,69.848L33.426,69.412L33.567,68.982L33.601,68.501L33.516,68.288L33.350,68.129L33.146,68.045L32.683,68.039L32.281,67.852L31.629,67.971L30.706,67.852L29.404,67.849L29.005,67.901L28.572,68.125L28.751,66.370L28.545,64.942L27.957,63.437L27.806,63.225L27.598,63.095L27.359,63.025L27.117,62.986L26.976,62.981L26.862,62.992L26.746,62.985L26.604,62.932L26.479,62.830L26.281,62.548L26.176,62.429L25.791,62.216L25.419,62.176L25.036,62.181L24.622,62.104L23.320,61.442L22.890,61.361L22.618,61.359L22.389,61.313L22.193,61.210L22.017,61.029L21.858,60.810L21.770,60.716L21.732,60.674L21.566,60.581L21.045,60.432L20.832,60.336L20.675,60.173L20.593,59.897L20.495,59.670L20.299,59.466L19.834,59.164L19.614,59.075L19.160,58.971L18.948,58.888L18.730,58.681L18.412,58.188L18.153,58.049L17.803,57.986L17.712,57.946L17.572,57.851L17.575,57.830L17.651,57.790L17.734,57.639L17.816,57.385L17.788,57.287L17.674,57.130L17.583,57.034L17.472,56.950L17.347,56.892L16.731,56.879L16.217,56.742L15.769,56.462L15.479,56.023L14.376,52.892L14.112,52.357L13.763,51.894L13.480,51.412L13.389,51.183L13.346,50.890L13.383,50.641L13.571,50.189L13.610,49.938L13.606,49.925L13.298,48.968L11.855,47.663L11.444,46.747L11.373,45.857L11.241,45.428L10.954,45.165L10.509,44.940L10.179,44.646L9.633,43.856L9.476,43.693L9.085,43.425L8.326,42.615L8.178,42.369L8.119,42.207L8.012,41.693L7.920,41.451L7.548,40.840L7.179,39.900L6.934,39.450L6.588,39.168L6.197,38.934L5.886,38.594L5.410,37.772L5.077,36.930L5.000,36.639L5.000,36.296L5.465,35.254Z" fill="currentColor" stroke="currentColor" stroke-width="1.5" stroke-linejoin="round"/>
</svg>